<svg width="24" height="24" viewBox="0 0 24 24" fill="none" xmlns="http://www.w3.org/2000/svg">
<g clip-path="url(#clip0_1253_6142)">
<path fill-rule="evenodd" clip-rule="evenodd" d="M9.87838 1.70711C11.0499 0.535538 12.9494 0.535535 14.121 1.70711L22.2926 9.87868C23.4642 11.0503 23.4642 12.9497 22.2926 14.1213L14.121 22.2929C12.9494 23.4645 11.05 23.4645 9.87838 22.2929L1.70681 14.1213C0.535233 12.9498 0.53523 11.0503 1.7068 9.87868L9.87838 1.70711ZM12.7068 3.12132C12.3163 2.7308 11.6831 2.7308 11.2926 3.12132L7.91391 6.5L11.9997 10.5858L16.0855 6.5L12.7068 3.12132ZM17.4997 7.91422L13.4139 12L17.4997 16.0858L20.8784 12.7071C21.2689 12.3166 21.2689 11.6834 20.8784 11.2929L17.4997 7.91422ZM16.0855 17.5L11.9997 13.4142L7.91391 17.5L11.2926 20.8787C11.6831 21.2692 12.3163 21.2692 12.7068 20.8787L16.0855 17.5ZM6.4997 16.0858L10.5855 12L6.4997 7.91422L3.12102 11.2929C2.73049 11.6834 2.73049 12.3166 3.12102 12.7071L6.4997 16.0858Z" fill="#000640"/>
</g>
<defs>
<clipPath id="clip0_1253_6142">
<rect width="24" height="24" fill="white"/>
</clipPath>
</defs>
</svg>
