<svg width="24" height="24" viewBox="0 0 24 24" fill="none" xmlns="http://www.w3.org/2000/svg">
<path d="M10 11C9.44771 11 9 11.4477 9 12C9 12.5523 9.44771 13 10 13H14C14.5523 13 15 12.5523 15 12C15 11.4477 14.5523 11 14 11H10Z" fill="#000640"/>
<path fill-rule="evenodd" clip-rule="evenodd" d="M4 2C2.34315 2 1 3.34315 1 5V6C1 7.30622 1.83481 8.41746 3 8.82929V19C3 20.6569 4.34315 22 6 22H18C19.6569 22 21 20.6569 21 19V8.82929C22.1652 8.41746 23 7.30622 23 6V5C23 3.34315 21.6569 2 20 2H4ZM5 19V9H19V19C19 19.5523 18.5523 20 18 20H6C5.44772 20 5 19.5523 5 19ZM3 6C3 6.55228 3.44772 7 4 7H20C20.5523 7 21 6.55228 21 6V5C21 4.44772 20.5523 4 20 4H4C3.44772 4 3 4.44772 3 5V6Z" fill="#000640"/>
</svg>
