<svg width="24" height="24" viewBox="0 0 24 24" fill="none" xmlns="http://www.w3.org/2000/svg">
<path d="M15 12C14.4477 12 14 12.4477 14 13C14 13.5523 14.4477 14 15 14H18C18.5523 14 19 13.5523 19 13C19 12.4477 18.5523 12 18 12H15Z" fill="#000640"/>
<path fill-rule="evenodd" clip-rule="evenodd" d="M12 14.5C12 12.567 10.433 11 8.5 11C6.567 11 5 12.567 5 14.5C5 16.433 6.567 18 8.5 18C10.433 18 12 16.433 12 14.5ZM8.5 13C9.32843 13 10 13.6716 10 14.5C10 15.3284 9.32843 16 8.5 16C7.67157 16 7 15.3284 7 14.5C7 13.6716 7.67157 13 8.5 13Z" fill="#000640"/>
<path d="M15 15C14.4477 15 14 15.4477 14 16C14 16.5523 14.4477 17 15 17H18C18.5523 17 19 16.5523 19 16C19 15.4477 18.5523 15 18 15H15Z" fill="#000640"/>
<path fill-rule="evenodd" clip-rule="evenodd" d="M1 20C1 21.6569 2.34315 23 4 23H20C21.6569 23 23 21.6569 23 20V4C23 2.34314 21.6569 1 20 1H4C2.34315 1 1 2.34315 1 4V20ZM4 21C3.44772 21 3 20.5523 3 20L3 8L21 8V20C21 20.5523 20.5523 21 20 21H4ZM21 6L3 6V4C3 3.44772 3.44772 3 4 3L20 3C20.5523 3 21 3.44771 21 4V6Z" fill="#000640"/>
</svg>
