<svg width="24" height="24" viewBox="0 0 24 24" fill="none" xmlns="http://www.w3.org/2000/svg">
<path fill-rule="evenodd" clip-rule="evenodd" d="M12 1C10.3431 1 9 2.34315 9 4C9 5.30622 9.83481 6.41746 11 6.82929V11H6.82929C6.41746 9.83481 5.30622 9 4 9C2.34315 9 1 10.3431 1 12C1 13.6569 2.34315 15 4 15C5.30622 15 6.41746 14.1652 6.82929 13H11V17.1707C9.83481 17.5825 9 18.6938 9 20C9 21.6569 10.3431 23 12 23C13.6569 23 15 21.6569 15 20C15 18.6938 14.1652 17.5825 13 17.1707V13H17.1707C17.5825 14.1652 18.6938 15 20 15C21.6569 15 23 13.6569 23 12C23 10.3431 21.6569 9 20 9C18.6938 9 17.5825 9.83481 17.1707 11H13V6.82929C14.1652 6.41746 15 5.30622 15 4C15 2.34315 13.6569 1 12 1ZM11 4C11 3.44772 11.4477 3 12 3C12.5523 3 13 3.44772 13 4C13 4.55228 12.5523 5 12 5C11.4477 5 11 4.55228 11 4ZM11 20C11 19.4477 11.4477 19 12 19C12.5523 19 13 19.4477 13 20C13 20.5523 12.5523 21 12 21C11.4477 21 11 20.5523 11 20ZM20 11C19.4477 11 19 11.4477 19 12C19 12.5523 19.4477 13 20 13C20.5523 13 21 12.5523 21 12C21 11.4477 20.5523 11 20 11ZM3 12C3 11.4477 3.44772 11 4 11C4.55228 11 5 11.4477 5 12C5 12.5523 4.55228 13 4 13C3.44772 13 3 12.5523 3 12Z" fill="#000640"/>
</svg>
