<svg width="24" height="24" viewBox="0 0 24 24" fill="none" xmlns="http://www.w3.org/2000/svg">
<path fill-rule="evenodd" clip-rule="evenodd" d="M17.3188 3C16.9188 3 16.5572 3.2384 16.3996 3.60608L16.1068 4.28929C15.9104 4.74754 16.0816 5.2802 16.5076 5.53837L17.523 3H17.3188ZM15.8812 7.49492L15.4825 7.25569C14.1961 6.48384 13.6776 4.88037 14.2686 3.50145L14.5614 2.81824C15.0341 1.71519 16.1187 1 17.3188 1H19C19.3318 1 19.642 1.1646 19.8281 1.43937C20.0141 1.71414 20.0517 2.0633 19.9285 2.37139L17.9626 7.28614L17 12.099V14.8599L18.9615 21.7253C19.1132 22.2563 18.8058 22.8098 18.2747 22.9615C17.7437 23.1132 17.1902 22.8058 17.0385 22.2747L15.2457 16H7.8673L6.98995 22.1414C6.91184 22.6882 6.40531 23.0681 5.85858 22.99C5.31184 22.9118 4.93195 22.4053 5.01005 21.8586L5.85884 15.917C4.78878 15.6339 4 14.6591 4 13.5C4 12.1193 5.11929 11 6.5 11H15.1802L15.8812 7.49492ZM15 13H6.5C6.22386 13 6 13.2239 6 13.5C6 13.7761 6.22386 14 6.5 14H15V13Z" fill="#000640"/>
</svg>
