<svg width="24" height="24" viewBox="0 0 24 24" fill="none" xmlns="http://www.w3.org/2000/svg">
<path fill-rule="evenodd" clip-rule="evenodd" d="M17.2929 3.29289C17.6834 2.90237 18.3166 2.90237 18.7071 3.29289L22.7071 7.29289C23.0976 7.68342 23.0976 8.31658 22.7071 8.70711L9.70711 21.7071C9.31658 22.0976 8.68342 22.0976 8.29289 21.7071L0.792893 14.2071C0.402369 13.8166 0.402369 13.1834 0.792893 12.7929L4.79289 8.79289C5.18342 8.40237 5.81658 8.40237 6.20711 8.79289L9 11.5858L17.2929 3.29289ZM18 5.41421L9.70711 13.7071C9.31658 14.0976 8.68342 14.0976 8.29289 13.7071L5.5 10.9142L2.91421 13.5L9 19.5858L20.5858 8L18 5.41421Z" fill="#000640"/>
</svg>
