<svg width="24" height="24" viewBox="0 0 24 24" fill="none" xmlns="http://www.w3.org/2000/svg">
<path fill-rule="evenodd" clip-rule="evenodd" d="M10 3C5.02944 3 1 7.02944 1 12C1 16.9706 5.02944 21 10 21C14.9706 21 19 16.9706 19 12C19 7.02944 14.9706 3 10 3ZM3 12C3 8.13401 6.13401 5 10 5C13.866 5 17 8.13401 17 12C17 15.866 13.866 19 10 19C6.13401 19 3 15.866 3 12Z" fill="#000640"/>
<path d="M19.7497 3.40078C19.3843 2.98671 18.7523 2.94731 18.3383 3.31277C17.9242 3.67824 17.8848 4.31018 18.2503 4.72425C19.9623 6.66397 21 9.20957 21 12C21 14.7904 19.9623 17.336 18.2503 19.2757C17.8848 19.6898 17.9242 20.3217 18.3383 20.6872C18.7523 21.0527 19.3843 21.0133 19.7497 20.5992C21.7719 18.3081 23 15.2963 23 12C23 8.70372 21.7719 5.69186 19.7497 3.40078Z" fill="#000640"/>
</svg>
