<svg width="24" height="24" viewBox="0 0 24 24" fill="none" xmlns="http://www.w3.org/2000/svg">
<path fill-rule="evenodd" clip-rule="evenodd" d="M5.5 9C3.567 9 2 10.567 2 12.5C2 14.433 3.567 16 5.5 16C7.433 16 9 14.433 9 12.5C9 10.567 7.433 9 5.5 9ZM9.74284 16C10.5282 15.0491 11 13.8296 11 12.5C11 9.46243 8.53757 7 5.5 7C2.46243 7 0 9.46243 0 12.5C0 15.5376 2.46243 18 5.5 18H18.5C21.5376 18 24 15.5376 24 12.5C24 9.46243 21.5376 7 18.5 7C15.4624 7 13 9.46243 13 12.5C13 13.8296 13.4718 15.0491 14.2572 16H9.74284ZM18.5 16C20.433 16 22 14.433 22 12.5C22 10.567 20.433 9 18.5 9C16.567 9 15 10.567 15 12.5C15 14.433 16.567 16 18.5 16Z" fill="#000640"/>
</svg>
