<svg width="24" height="24" viewBox="0 0 24 24" fill="none" xmlns="http://www.w3.org/2000/svg">
<path d="M12.1818 1.2928C11.7913 0.902277 11.1581 0.902277 10.7676 1.2928C10.3771 1.68333 10.3771 2.31649 10.7676 2.70702C11.7439 3.68333 11.7439 5.26624 10.7676 6.24255C10.3771 6.63307 10.3771 7.26624 10.7676 7.65676C11.1581 8.04729 11.7913 8.04729 12.1818 7.65676C13.9392 5.8994 13.9392 3.05016 12.1818 1.2928Z" fill="#000640"/>
<path fill-rule="evenodd" clip-rule="evenodd" d="M7.83351 7.01399C8.15272 6.96006 8.47829 7.06399 8.70721 7.29291L16.7072 15.2929C16.9361 15.5218 17.0401 15.8474 16.9861 16.1666C16.9322 16.4858 16.7271 16.7592 16.4357 16.9002L6.11158 21.8957C3.55174 23.1343 0.865786 20.4484 2.10441 17.8885L7.09994 7.56445C7.24095 7.27304 7.5143 7.06792 7.83351 7.01399ZM8.2876 9.70173L3.90473 18.7597C3.49186 19.6129 4.38718 20.5083 5.24045 20.0954L14.2984 15.7125L8.2876 9.70173Z" fill="#000640"/>
<path d="M16.293 13.182C15.9025 12.7914 15.9025 12.1583 16.293 11.7677C18.0504 10.0104 20.8996 10.0104 22.657 11.7677C23.0475 12.1583 23.0475 12.7914 22.657 13.182C22.2665 13.5725 21.6333 13.5725 21.2428 13.182C20.2665 12.2057 18.6836 12.2057 17.7073 13.182C17.3167 13.5725 16.6836 13.5725 16.293 13.182Z" fill="#000640"/>
<path d="M19.0001 3C19.0001 3.55229 18.5524 4 18.0001 4C17.4478 4 17.0001 3.55229 17.0001 3C17.0001 2.44772 17.4478 2 18.0001 2C18.5524 2 19.0001 2.44772 19.0001 3Z" fill="#000640"/>
<path d="M9.00012 5C9.55241 5 10.0001 4.55229 10.0001 4C10.0001 3.44772 9.55241 3 9.00012 3C8.44784 3 8.00012 3.44772 8.00012 4C8.00012 4.55229 8.44784 5 9.00012 5Z" fill="#000640"/>
<path d="M22.0001 8C22.0001 8.55229 21.5524 9 21.0001 9C20.4478 9 20.0001 8.55229 20.0001 8C20.0001 7.44772 20.4478 7 21.0001 7C21.5524 7 22.0001 7.44772 22.0001 8Z" fill="#000640"/>
<path d="M18.2072 7.20711C18.5978 6.81658 18.5978 6.18342 18.2072 5.79289C17.8167 5.40237 17.1835 5.40237 16.793 5.79289L13.793 8.79289C13.4025 9.18342 13.4025 9.81658 13.793 10.2071C14.1835 10.5976 14.8167 10.5976 15.2072 10.2071L18.2072 7.20711Z" fill="#000640"/>
</svg>
