<svg width="24" height="24" viewBox="0 0 24 24" fill="none" xmlns="http://www.w3.org/2000/svg">
<path fill-rule="evenodd" clip-rule="evenodd" d="M4 3C3.44772 3 3 3.44772 3 4V12.3146C4.8158 8.74736 5.58559 6.4247 5.91556 3H4ZM7.92414 3C7.59862 6.57196 6.83499 9.05296 5.1691 12.4483C7.05339 11.2516 8.12008 10.0561 8.86765 8.65441C9.66361 7.16198 10.1222 5.40596 10.7208 3H7.92414ZM12 6.01858C11.623 7.33682 11.2049 8.52207 10.6324 9.59559C9.63007 11.4749 8.18119 12.9812 5.79878 14.4095C5.94388 14.7286 6.11811 15.1234 6.30402 15.5696C6.79302 16.7435 7.37828 18.3096 7.71644 19.8001C8.13257 21.6343 6.60434 23 5 23H4C2.34315 23 1 21.6569 1 20V4C1 2.34315 2.34315 1 4 1H20C21.6569 1 23 2.34315 23 4V20C23 21.6569 21.6569 23 20 23H19C17.3957 23 15.8674 21.6343 16.2836 19.8001C16.6217 18.3096 17.207 16.7435 17.696 15.5696C17.8819 15.1234 18.0561 14.7286 18.2012 14.4095C15.8188 12.9812 14.3699 11.4749 13.3676 9.59559C12.7951 8.52207 12.377 7.33682 12 6.01858ZM20.1308 15C19.9766 15.3326 19.7685 15.7955 19.5422 16.3388C19.0704 17.4713 18.535 18.9158 18.234 20.2426C18.1884 20.4437 18.242 20.6085 18.363 20.7414C18.4939 20.8852 18.718 21 19 21H20C20.5523 21 21 20.5523 21 20V15H20.1308ZM21 12.9031V4C21 3.44772 20.5523 3 20 3H18.0147C18.0743 4.96471 18.3174 6.57794 18.7703 8.08765C19.2467 9.67555 19.9665 11.187 21 12.9031ZM16.0138 3H13.2792C13.8778 5.40596 14.3364 7.16198 15.1324 8.65441C15.797 9.90072 16.714 10.984 18.2337 12.0501C17.6598 10.9255 17.2021 9.82033 16.8547 8.66235C16.3365 6.93518 16.0743 5.12562 16.0138 3ZM3 15V20C3 20.5523 3.44772 21 4 21H5C5.28196 21 5.50614 20.8852 5.63704 20.7414C5.75804 20.6085 5.81162 20.4437 5.766 20.2426C5.46497 18.9158 4.92962 17.4713 4.45781 16.3388C4.23152 15.7955 4.02341 15.3326 3.86919 15H3Z" fill="#000640"/>
</svg>
