<svg width="24" height="24" viewBox="0 0 24 24" fill="none" xmlns="http://www.w3.org/2000/svg">
<path fill-rule="evenodd" clip-rule="evenodd" d="M11.2929 1.29289C11.6834 0.902369 12.3166 0.902369 12.7071 1.29289L22.7071 11.2929C23.0976 11.6834 23.0976 12.3166 22.7071 12.7071L12.7071 22.7071C12.3166 23.0976 11.6834 23.0976 11.2929 22.7071L1.29289 12.7071C0.902369 12.3166 0.902369 11.6834 1.29289 11.2929L11.2929 1.29289ZM4.41421 13H11V19.5858L4.41421 13ZM13 19.5858V13H19.5858L13 19.5858ZM19.5858 11H13V4.41421L19.5858 11ZM11 4.41421V11H4.41421L11 4.41421Z" fill="#000640"/>
</svg>
