<svg width="24" height="24" viewBox="0 0 24 24" fill="none" xmlns="http://www.w3.org/2000/svg">
<path d="M13 2C13 1.44772 12.5523 1 12 1C11.4477 1 11 1.44772 11 2V6C11 6.55228 11.4477 7 12 7C12.5523 7 13 6.55228 13 6V2Z" fill="#000640"/>
<path fill-rule="evenodd" clip-rule="evenodd" d="M6 11C5.44772 11 5 11.4477 5 12V16C5 16.3038 5.13809 16.5911 5.37531 16.7809L7.5 18.4806V22C7.5 22.5523 7.94772 23 8.5 23H15.5C16.0523 23 16.5 22.5523 16.5 22V18.4806L18.6247 16.7809C18.8619 16.5911 19 16.3038 19 16V12C19 11.4477 18.5523 11 18 11H6ZM7 15.5194V13H17V15.5194L14.8753 17.2191C14.6381 17.4089 14.5 17.6962 14.5 18V21H9.5V18C9.5 17.6962 9.36191 17.4089 9.12469 17.2191L7 15.5194Z" fill="#000640"/>
<path d="M21.7071 4.2928C22.0976 4.68332 22.0976 5.31649 21.7071 5.70701L18.7071 8.70701C18.3166 9.09754 17.6834 9.09754 17.2929 8.70701C16.9024 8.31649 16.9024 7.68332 17.2929 7.2928L20.2929 4.2928C20.6834 3.90228 21.3166 3.90228 21.7071 4.2928Z" fill="#000640"/>
<path d="M2.29289 5.70701L5.29289 8.70701C5.68342 9.09754 6.31658 9.09754 6.70711 8.70701C7.09763 8.31649 7.09763 7.68332 6.70711 7.2928L3.70711 4.2928C3.31658 3.90228 2.68342 3.90228 2.29289 4.2928C1.90237 4.68332 1.90237 5.31649 2.29289 5.70701Z" fill="#000640"/>
</svg>
