<svg width="24" height="24" viewBox="0 0 24 24" fill="none" xmlns="http://www.w3.org/2000/svg">
<path fill-rule="evenodd" clip-rule="evenodd" d="M12.0005 7C9.23907 7 7.00049 9.23858 7.00049 12C7.00049 14.7614 9.23907 17 12.0005 17C14.7619 17 17.0005 14.7614 17.0005 12C17.0005 9.23858 14.7619 7 12.0005 7ZM9.00049 12C9.00049 10.3431 10.3436 9 12.0005 9C13.6573 9 15.0005 10.3431 15.0005 12C15.0005 13.6569 13.6573 15 12.0005 15C10.3436 15 9.00049 13.6569 9.00049 12Z" fill="#000640"/>
<path fill-rule="evenodd" clip-rule="evenodd" d="M12.0003 0C10.3435 0 9.00031 1.34315 9.00031 3V3.5124C7.94628 3.88495 6.98304 4.44786 6.15171 5.15921L5.70601 4.90188C4.27114 4.07346 2.43636 4.56508 1.60794 5.99996C0.779509 7.43484 1.27113 9.26961 2.70601 10.098L3.15054 10.3547C3.05181 10.8887 3.00031 11.4387 3.00031 12C3.00031 12.5657 3.05262 13.1198 3.15284 13.6577L2.70219 13.912C1.25644 14.7277 0.754002 16.5663 1.584 18.0039C2.41136 19.4369 4.24661 19.9234 5.67516 19.0883L6.13017 18.8223C6.96527 19.5414 7.93455 20.1103 8.99602 20.4861L8.99175 20.9738C8.97715 22.6408 10.3245 24 11.9916 24C13.6381 24 14.9769 22.6728 14.9914 21.0263L14.9961 20.4891C16.051 20.1168 17.0151 19.5539 17.8471 18.8423L18.2613 19.0839C19.697 19.9212 21.5398 19.4318 22.3708 17.9924C23.1966 16.562 22.7109 14.7332 21.2841 13.901L20.8497 13.6476C20.9487 13.1129 21.0003 12.5621 21.0003 12C21.0003 11.4379 20.9487 10.8872 20.8497 10.3524L21.2842 10.099C22.7109 9.26686 23.1966 7.438 22.3708 6.00762C21.5398 4.56826 19.6969 4.07884 18.2613 4.9162L17.8472 5.15772C17.0162 4.44708 16.0536 3.88469 15.0003 3.5124V3C15.0003 1.34315 13.6572 0 12.0003 0ZM11.0003 3C11.0003 2.44772 11.448 2 12.0003 2C12.5526 2 13.0003 2.44772 13.0003 3V4.25204C13.0003 4.70832 13.3092 5.10674 13.7511 5.22047C15.0011 5.54222 16.1176 6.20155 16.9967 7.09734C17.3189 7.42565 17.8235 7.49182 18.2194 7.25767L18.4323 7.13175L18.4375 7.1287L19.2689 6.64382C19.7475 6.3647 20.3617 6.52784 20.6387 7.00762C20.914 7.48441 20.7521 8.09402 20.2765 8.3714L19.4395 8.85958L19.2344 8.96997C18.8228 9.19143 18.6196 9.6684 18.7449 10.1186C18.9111 10.7161 19.0003 11.3468 19.0003 12C19.0003 12.6521 18.9114 13.2818 18.7457 13.8785C18.622 14.3237 18.8195 14.7957 19.2233 15.0202L19.4337 15.1371L20.2765 15.6287C20.7521 15.906 20.914 16.5156 20.6387 16.9924C20.3617 17.4722 19.7475 17.6354 19.2689 17.3563L18.4323 16.8683C18.4238 16.8634 18.4152 16.8585 18.4066 16.8538L18.1818 16.7315C17.7898 16.5181 17.3039 16.5904 16.9909 16.9086C16.1127 17.8014 14.9984 18.4585 13.7511 18.7795C13.3092 18.8933 13.0003 19.2917 13.0003 19.748V19.9956L12.9914 21.0088C12.9866 21.5576 12.5404 22 11.9916 22C11.4359 22 10.9868 21.5469 10.9917 20.9913L11.0003 20.0088V19.748C11.0003 19.2917 10.6915 18.8933 10.2496 18.7795C8.99104 18.4556 7.86793 17.7895 6.98612 16.8845C6.66549 16.5554 6.16187 16.4871 5.76521 16.719L4.66583 17.3617C4.19452 17.6372 3.58902 17.4767 3.31605 17.0039C3.04221 16.5296 3.20798 15.923 3.68497 15.6539L4.78702 15.0321C5.18804 14.8058 5.38273 14.335 5.25861 13.8916C5.09051 13.291 5.00031 12.6569 5.00031 12C5.00031 11.3498 5.08869 10.7219 5.25349 10.1268C5.37439 9.6903 5.18679 9.22704 4.79624 8.99764L4.57852 8.86973L3.70601 8.36598C3.22772 8.08984 3.06384 7.47825 3.33999 6.99996C3.61613 6.52167 4.22772 6.35779 4.70601 6.63393L5.55564 7.12447L5.75278 7.24847C6.15111 7.49902 6.67024 7.43795 6.99955 7.10179C7.87932 6.20373 8.99742 5.54275 10.2496 5.22047C10.6915 5.10674 11.0003 4.70832 11.0003 4.25204V3Z" fill="#000640"/>
</svg>
