<svg width="24" height="24" viewBox="0 0 24 24" fill="none" xmlns="http://www.w3.org/2000/svg">
<g clip-path="url(#clip0_1253_6196)">
<path fill-rule="evenodd" clip-rule="evenodd" d="M11.6124 3.07817C11.8603 2.97394 12.1397 2.97394 12.3876 3.07817L23.3876 7.70317C23.7587 7.85918 24 8.22247 24 8.625V15.375C24 15.9273 23.5523 16.375 23 16.375C22.4477 16.375 22 15.9273 22 15.375V10.2595L20.7 10.9243V17.625C20.7 17.9156 20.5736 18.1919 20.3536 18.3818L19.7 17.625C20.3536 18.3818 20.354 18.3815 20.3536 18.3818L20.3505 18.3845L20.3463 18.3881L20.3348 18.3978C20.3258 18.4054 20.3141 18.4151 20.2996 18.4269C20.2706 18.4505 20.2306 18.4824 20.1799 18.5212C20.0784 18.5988 19.9336 18.7047 19.7463 18.829C19.3721 19.0777 18.8271 19.4015 18.1201 19.7229C16.7045 20.3663 14.6388 21 12 21C9.36124 21 7.29556 20.3663 5.87995 19.7229C5.17289 19.4015 4.62795 19.0777 4.25368 18.829C4.06645 18.7047 3.92158 18.5988 3.82011 18.5212C3.76937 18.4824 3.72944 18.4505 3.70045 18.4269C3.68596 18.4151 3.67419 18.4054 3.66518 18.3978L3.65372 18.3881L3.64953 18.3845L3.64783 18.3831C3.64748 18.3828 3.64638 18.3818 4.3 17.625L3.64638 18.3818C3.42643 18.1919 3.3 17.9156 3.3 17.625V10.9243L0.544714 9.51534C0.198384 9.33824 -0.0138212 8.97638 0.000700662 8.58767C0.0152225 8.19895 0.253836 7.85393 0.612415 7.70317L11.6124 3.07817ZM5.3 11.947V17.1226C5.31934 17.1357 5.33948 17.1493 5.36039 17.1631C5.65643 17.3598 6.10837 17.6298 6.70756 17.9021C7.90445 18.4462 9.68877 19 12 19C14.3112 19 16.0956 18.4462 17.2925 17.9021C17.8916 17.6298 18.3436 17.3598 18.6396 17.1631C18.6605 17.1493 18.6807 17.1357 18.7 17.1226V11.947L12.4553 15.1403C12.1694 15.2866 11.8306 15.2866 11.5447 15.1403L5.3 11.947ZM20.6305 8.71352L12 5.0848L3.36952 8.71352L12 13.1268L20.6305 8.71352ZM19.0497 16.8653C19.0499 16.8651 19.05 16.8651 19.0497 16.8653V16.8653Z" fill="#000640"/>
</g>
<defs>
<clipPath id="clip0_1253_6196">
<rect width="24" height="24" fill="white"/>
</clipPath>
</defs>
</svg>
