<svg width="1352" height="146" viewBox="0 0 1352 146" fill="none" xmlns="http://www.w3.org/2000/svg">
<rect x="96" y="144" width="1160" height="2" rx="0.5" fill="#F5F5F5"/>
<path d="M134.736 58.64V92H129.264V69.152L119.088 92H115.296L105.072 69.152V92H99.6V58.64H105.504L117.216 84.8L128.88 58.64H134.736ZM144.712 62.048C143.72 62.048 142.888 61.712 142.216 61.04C141.544 60.368 141.208 59.536 141.208 58.544C141.208 57.552 141.544 56.72 142.216 56.048C142.888 55.376 143.72 55.04 144.712 55.04C145.672 55.04 146.488 55.376 147.16 56.048C147.832 56.72 148.168 57.552 148.168 58.544C148.168 59.536 147.832 60.368 147.16 61.04C146.488 61.712 145.672 62.048 144.712 62.048ZM147.4 65.552V92H141.928V65.552H147.4ZM164.184 92.432C162.104 92.432 160.232 92.064 158.568 91.328C156.936 90.56 155.64 89.536 154.68 88.256C153.72 86.944 153.208 85.488 153.144 83.888H158.808C158.904 85.008 159.432 85.952 160.392 86.72C161.384 87.456 162.616 87.824 164.088 87.824C165.624 87.824 166.808 87.536 167.64 86.96C168.504 86.352 168.936 85.584 168.936 84.656C168.936 83.664 168.456 82.928 167.496 82.448C166.568 81.968 165.08 81.44 163.032 80.864C161.048 80.32 159.432 79.792 158.184 79.28C156.936 78.768 155.848 77.984 154.92 76.928C154.024 75.872 153.576 74.48 153.576 72.752C153.576 71.344 153.992 70.064 154.824 68.912C155.656 67.728 156.84 66.8 158.376 66.128C159.944 65.456 161.736 65.12 163.752 65.12C166.76 65.12 169.176 65.888 171 67.424C172.856 68.928 173.848 70.992 173.976 73.616H168.504C168.408 72.432 167.928 71.488 167.064 70.784C166.2 70.08 165.032 69.728 163.56 69.728C162.12 69.728 161.016 70 160.248 70.544C159.48 71.088 159.096 71.808 159.096 72.704C159.096 73.408 159.352 74 159.864 74.48C160.376 74.96 161 75.344 161.736 75.632C162.472 75.888 163.56 76.224 165 76.64C166.92 77.152 168.488 77.68 169.704 78.224C170.952 78.736 172.024 79.504 172.92 80.528C173.816 81.552 174.28 82.912 174.312 84.608C174.312 86.112 173.896 87.456 173.064 88.64C172.232 89.824 171.048 90.752 169.512 91.424C168.008 92.096 166.232 92.432 164.184 92.432ZM178.401 78.752C178.401 76.032 178.945 73.648 180.033 71.6C181.153 69.52 182.689 67.92 184.641 66.8C186.593 65.68 188.833 65.12 191.361 65.12C194.561 65.12 197.201 65.888 199.281 67.424C201.393 68.928 202.817 71.088 203.553 73.904H197.649C197.169 72.592 196.401 71.568 195.345 70.832C194.289 70.096 192.961 69.728 191.361 69.728C189.121 69.728 187.329 70.528 185.985 72.128C184.673 73.696 184.017 75.904 184.017 78.752C184.017 81.6 184.673 83.824 185.985 85.424C187.329 87.024 189.121 87.824 191.361 87.824C194.529 87.824 196.625 86.432 197.649 83.648H203.553C202.785 86.336 201.345 88.48 199.233 90.08C197.121 91.648 194.497 92.432 191.361 92.432C188.833 92.432 186.593 91.872 184.641 90.752C182.689 89.6 181.153 88 180.033 85.952C178.945 83.872 178.401 81.472 178.401 78.752ZM233.246 78.128C233.246 79.12 233.182 80.016 233.054 80.816H212.846C213.006 82.928 213.79 84.624 215.198 85.904C216.606 87.184 218.334 87.824 220.382 87.824C223.326 87.824 225.406 86.592 226.622 84.128H232.526C231.726 86.56 230.27 88.56 228.158 90.128C226.078 91.664 223.486 92.432 220.382 92.432C217.854 92.432 215.582 91.872 213.566 90.752C211.582 89.6 210.014 88 208.862 85.952C207.742 83.872 207.182 81.472 207.182 78.752C207.182 76.032 207.726 73.648 208.814 71.6C209.934 69.52 211.486 67.92 213.47 66.8C215.486 65.68 217.79 65.12 220.382 65.12C222.878 65.12 225.102 65.664 227.054 66.752C229.006 67.84 230.526 69.376 231.614 71.36C232.702 73.312 233.246 75.568 233.246 78.128ZM227.534 76.4C227.502 74.384 226.782 72.768 225.374 71.552C223.966 70.336 222.222 69.728 220.142 69.728C218.254 69.728 216.638 70.336 215.294 71.552C213.95 72.736 213.15 74.352 212.894 76.4H227.534ZM244.103 56.48V92H238.631V56.48H244.103ZM256.76 56.48V92H251.288V56.48H256.76ZM262.12 78.656C262.12 76 262.664 73.648 263.752 71.6C264.872 69.552 266.376 67.968 268.264 66.848C270.184 65.696 272.296 65.12 274.6 65.12C276.68 65.12 278.488 65.536 280.024 66.368C281.592 67.168 282.84 68.176 283.768 69.392V65.552H289.288V92H283.768V88.064C282.84 89.312 281.576 90.352 279.976 91.184C278.376 92.016 276.552 92.432 274.504 92.432C272.232 92.432 270.152 91.856 268.264 90.704C266.376 89.52 264.872 87.888 263.752 85.808C262.664 83.696 262.12 81.312 262.12 78.656ZM283.768 78.752C283.768 76.928 283.384 75.344 282.616 74C281.88 72.656 280.904 71.632 279.688 70.928C278.472 70.224 277.16 69.872 275.752 69.872C274.344 69.872 273.032 70.224 271.816 70.928C270.6 71.6 269.608 72.608 268.84 73.952C268.104 75.264 267.736 76.832 267.736 78.656C267.736 80.48 268.104 82.08 268.84 83.456C269.608 84.832 270.6 85.888 271.816 86.624C273.064 87.328 274.376 87.68 275.752 87.68C277.16 87.68 278.472 87.328 279.688 86.624C280.904 85.92 281.88 84.896 282.616 83.552C283.384 82.176 283.768 80.576 283.768 78.752ZM309.819 65.12C311.899 65.12 313.755 65.552 315.387 66.416C317.051 67.28 318.347 68.56 319.275 70.256C320.203 71.952 320.667 74 320.667 76.4V92H315.243V77.216C315.243 74.848 314.651 73.04 313.467 71.792C312.283 70.512 310.667 69.872 308.619 69.872C306.571 69.872 304.939 70.512 303.723 71.792C302.539 73.04 301.947 74.848 301.947 77.216V92H296.475V65.552H301.947V68.576C302.843 67.488 303.979 66.64 305.355 66.032C306.763 65.424 308.251 65.12 309.819 65.12ZM351.887 78.128C351.887 79.12 351.823 80.016 351.695 80.816H331.487C331.647 82.928 332.431 84.624 333.839 85.904C335.247 87.184 336.975 87.824 339.023 87.824C341.967 87.824 344.047 86.592 345.263 84.128H351.167C350.367 86.56 348.911 88.56 346.799 90.128C344.719 91.664 342.127 92.432 339.023 92.432C336.495 92.432 334.223 91.872 332.207 90.752C330.223 89.6 328.655 88 327.503 85.952C326.383 83.872 325.823 81.472 325.823 78.752C325.823 76.032 326.367 73.648 327.455 71.6C328.575 69.52 330.127 67.92 332.111 66.8C334.127 65.68 336.431 65.12 339.023 65.12C341.519 65.12 343.743 65.664 345.695 66.752C347.647 67.84 349.167 69.376 350.255 71.36C351.343 73.312 351.887 75.568 351.887 78.128ZM346.175 76.4C346.143 74.384 345.423 72.768 344.015 71.552C342.607 70.336 340.863 69.728 338.783 69.728C336.895 69.728 335.279 70.336 333.935 71.552C332.591 72.736 331.791 74.352 331.535 76.4H346.175ZM368.744 92.432C366.248 92.432 363.992 91.872 361.976 90.752C359.96 89.6 358.376 88 357.224 85.952C356.072 83.872 355.496 81.472 355.496 78.752C355.496 76.064 356.088 73.68 357.272 71.6C358.456 69.52 360.072 67.92 362.12 66.8C364.168 65.68 366.456 65.12 368.984 65.12C371.512 65.12 373.8 65.68 375.848 66.8C377.896 67.92 379.512 69.52 380.696 71.6C381.88 73.68 382.472 76.064 382.472 78.752C382.472 81.44 381.864 83.824 380.648 85.904C379.432 87.984 377.768 89.6 375.656 90.752C373.576 91.872 371.272 92.432 368.744 92.432ZM368.744 87.68C370.152 87.68 371.464 87.344 372.68 86.672C373.928 86 374.936 84.992 375.704 83.648C376.472 82.304 376.856 80.672 376.856 78.752C376.856 76.832 376.488 75.216 375.752 73.904C375.016 72.56 374.04 71.552 372.824 70.88C371.608 70.208 370.296 69.872 368.888 69.872C367.48 69.872 366.168 70.208 364.952 70.88C363.768 71.552 362.824 72.56 362.12 73.904C361.416 75.216 361.064 76.832 361.064 78.752C361.064 81.6 361.784 83.808 363.224 85.376C364.696 86.912 366.536 87.68 368.744 87.68ZM411.833 65.552V92H406.361V88.88C405.497 89.968 404.361 90.832 402.953 91.472C401.577 92.08 400.105 92.384 398.537 92.384C396.457 92.384 394.585 91.952 392.921 91.088C391.289 90.224 389.993 88.944 389.033 87.248C388.105 85.552 387.641 83.504 387.641 81.104V65.552H393.065V80.288C393.065 82.656 393.657 84.48 394.841 85.76C396.025 87.008 397.641 87.632 399.689 87.632C401.737 87.632 403.353 87.008 404.537 85.76C405.753 84.48 406.361 82.656 406.361 80.288V65.552H411.833ZM428.653 92.432C426.573 92.432 424.701 92.064 423.037 91.328C421.405 90.56 420.109 89.536 419.149 88.256C418.189 86.944 417.677 85.488 417.613 83.888H423.277C423.373 85.008 423.901 85.952 424.861 86.72C425.853 87.456 427.085 87.824 428.557 87.824C430.093 87.824 431.277 87.536 432.109 86.96C432.973 86.352 433.405 85.584 433.405 84.656C433.405 83.664 432.925 82.928 431.965 82.448C431.037 81.968 429.549 81.44 427.501 80.864C425.517 80.32 423.901 79.792 422.653 79.28C421.405 78.768 420.317 77.984 419.389 76.928C418.493 75.872 418.045 74.48 418.045 72.752C418.045 71.344 418.461 70.064 419.293 68.912C420.125 67.728 421.309 66.8 422.845 66.128C424.413 65.456 426.205 65.12 428.221 65.12C431.229 65.12 433.645 65.888 435.469 67.424C437.325 68.928 438.317 70.992 438.445 73.616H432.973C432.877 72.432 432.397 71.488 431.533 70.784C430.669 70.08 429.501 69.728 428.029 69.728C426.589 69.728 425.485 70 424.717 70.544C423.949 71.088 423.565 71.808 423.565 72.704C423.565 73.408 423.821 74 424.333 74.48C424.845 74.96 425.469 75.344 426.205 75.632C426.941 75.888 428.029 76.224 429.469 76.64C431.389 77.152 432.957 77.68 434.173 78.224C435.421 78.736 436.493 79.504 437.389 80.528C438.285 81.552 438.749 82.912 438.781 84.608C438.781 86.112 438.365 87.456 437.533 88.64C436.701 89.824 435.517 90.752 433.981 91.424C432.477 92.096 430.701 92.432 428.653 92.432Z" fill="#000640"/>
<rect x="1116" y="63" width="140" height="24" rx="4" fill="#EBEBEB"/>
<g clip-path="url(#clip0_1253_7177)">
<path d="M1130.86 80.1381C1131.12 80.3984 1131.54 80.3984 1131.8 80.1381C1132.07 79.8777 1132.07 79.4556 1131.8 79.1953L1128.28 75.6667H1137.33C1137.7 75.6667 1138 75.3682 1138 75C1138 74.6318 1137.7 74.3333 1137.33 74.3333H1128.28L1131.8 70.8047C1132.07 70.5444 1132.07 70.1223 1131.8 69.8619C1131.54 69.6016 1131.12 69.6016 1130.86 69.8619L1126.2 74.5286C1125.93 74.7889 1125.93 75.2111 1126.2 75.4714L1130.86 80.1381Z" fill="#696969"/>
</g>
<path d="M1144.59 80V72.2979H1147.48C1148.14 72.2979 1148.7 72.5002 1149.17 72.9048C1149.64 73.3058 1149.88 73.7856 1149.88 74.3442C1149.88 74.6916 1149.77 75.0174 1149.57 75.3218C1149.37 75.6226 1149.12 75.8249 1148.81 75.9287C1149.22 76.0111 1149.56 76.2259 1149.82 76.5732C1150.09 76.9206 1150.23 77.3288 1150.23 77.7979C1150.23 78.4137 1149.99 78.9347 1149.52 79.3608C1149.04 79.7869 1148.47 80 1147.81 80H1144.59ZM1146.21 75.4023H1147.4C1147.63 75.4023 1147.82 75.3271 1147.98 75.1768C1148.14 75.0228 1148.22 74.8384 1148.22 74.6235C1148.22 74.4087 1148.14 74.2279 1147.99 74.0811C1147.83 73.9342 1147.63 73.8608 1147.4 73.8608H1146.21V75.4023ZM1146.21 78.437H1147.66C1147.91 78.437 1148.13 78.3511 1148.3 78.1792C1148.48 78.0037 1148.57 77.7925 1148.57 77.5454C1148.57 77.2983 1148.48 77.0871 1148.3 76.9116C1148.13 76.7326 1147.92 76.6431 1147.68 76.6431H1146.21V78.437ZM1158 80L1157.52 78.7109H1154.55L1154.06 80H1152.33L1155.39 72.2979H1156.7L1159.78 80H1158ZM1155.09 77.3145H1156.98L1156.05 74.8545L1155.09 77.3145ZM1165.68 80.1074C1164.94 80.1074 1164.28 79.9355 1163.68 79.5918C1163.08 79.248 1162.62 78.7736 1162.28 78.1685C1161.94 77.5633 1161.77 76.8901 1161.77 76.1489C1161.77 75.4077 1161.94 74.7345 1162.28 74.1294C1162.62 73.5243 1163.08 73.0498 1163.68 72.7061C1164.28 72.3623 1164.94 72.1904 1165.68 72.1904C1166.27 72.1904 1166.84 72.3122 1167.37 72.5557C1167.91 72.7956 1168.35 73.1322 1168.7 73.5654C1169.05 73.9951 1169.27 74.4749 1169.34 75.0049H1167.52C1167.42 74.6432 1167.2 74.3478 1166.85 74.1187C1166.51 73.8895 1166.12 73.7749 1165.68 73.7749C1165.04 73.7749 1164.51 74.0023 1164.08 74.457C1163.65 74.9082 1163.44 75.4722 1163.44 76.1489C1163.44 76.8257 1163.65 77.3914 1164.08 77.8462C1164.51 78.3009 1165.04 78.5283 1165.68 78.5283C1166.12 78.5283 1166.52 78.403 1166.86 78.1523C1167.21 77.9017 1167.43 77.583 1167.53 77.1963H1169.36C1169.21 78.0521 1168.8 78.7521 1168.11 79.2964C1167.43 79.8371 1166.61 80.1074 1165.68 80.1074ZM1179 80H1176.87L1173.93 76.3262V80H1172.31V72.2979H1173.93V75.5581L1176.67 72.2979H1178.73L1175.64 75.9287L1179 80ZM1191.77 72.2979V73.8608H1189.51V80H1187.89V73.8608H1185.64V72.2979H1191.77ZM1195.79 72.7061C1196.4 72.3623 1197.07 72.1904 1197.8 72.1904C1198.54 72.1904 1199.21 72.3623 1199.81 72.7061C1200.41 73.0498 1200.88 73.5243 1201.22 74.1294C1201.57 74.7345 1201.74 75.4077 1201.74 76.1489C1201.74 76.8901 1201.57 77.5633 1201.22 78.1685C1200.88 78.7736 1200.41 79.248 1199.81 79.5918C1199.21 79.9355 1198.54 80.1074 1197.8 80.1074C1197.07 80.1074 1196.4 79.9355 1195.79 79.5918C1195.2 79.248 1194.73 78.7736 1194.39 78.1685C1194.05 77.5633 1193.88 76.8901 1193.88 76.1489C1193.88 75.4077 1194.05 74.7345 1194.39 74.1294C1194.73 73.5243 1195.2 73.0498 1195.79 72.7061ZM1199.41 74.457C1198.98 74.0023 1198.45 73.7749 1197.8 73.7749C1197.16 73.7749 1196.62 74.0023 1196.19 74.457C1195.76 74.9082 1195.55 75.4722 1195.55 76.1489C1195.55 76.8257 1195.76 77.3914 1196.19 77.8462C1196.62 78.3009 1197.16 78.5283 1197.8 78.5283C1198.45 78.5283 1198.98 78.3009 1199.41 77.8462C1199.84 77.3914 1200.06 76.8257 1200.06 76.1489C1200.06 75.4722 1199.84 74.9082 1199.41 74.457ZM1208.94 72.2979H1210.56V80H1208.94V72.2979ZM1213.73 72.2979H1215.11L1218.25 76.7881V72.2979H1219.87V80H1218.51L1215.36 75.5098V80H1213.73V72.2979ZM1225.68 72.2979C1226.41 72.2979 1227.07 72.4626 1227.67 72.792C1228.27 73.1214 1228.74 73.578 1229.08 74.1616C1229.42 74.7453 1229.59 75.397 1229.59 76.1167C1229.59 76.8507 1229.42 77.515 1229.08 78.1094C1228.74 78.7002 1228.27 79.1639 1227.67 79.5005C1227.07 79.8335 1226.41 80 1225.68 80H1223.04V72.2979H1225.68ZM1225.79 78.437C1226.4 78.437 1226.91 78.2168 1227.3 77.7764C1227.7 77.3359 1227.91 76.7827 1227.91 76.1167C1227.91 75.4614 1227.71 74.9225 1227.31 74.5C1226.92 74.0739 1226.41 73.8608 1225.79 73.8608H1224.67V78.437H1225.79ZM1232.53 72.2979H1237.25V73.8608H1234.16V75.2466H1236.91V76.8096H1234.16V78.437H1237.25V80H1232.53V72.2979ZM1246.96 80H1245.02L1243.33 77.481L1241.66 80H1239.75L1242.39 76.0415L1239.89 72.2979H1241.84L1243.36 74.5859L1244.88 72.2979H1246.78L1244.31 76.02L1246.96 80Z" fill="#696969"/>
<path d="M1144 81.6489H1247.04V82.1968H1144V81.6489Z" fill="#696969"/>
<a href="https://www.figma.com/file/FOhC2ZMBEHzVejIYjN6Qfz/%E2%9C%85-MamaMia!-Design-System?node-id=556%3A3901">
<rect fill="black" fill-opacity="0" y="-0.601074" width="103.041" height="13.2021"/>
</a>
<defs>
<clipPath id="clip0_1253_7177">
<rect width="16" height="16" fill="white" transform="translate(1124 67)"/>
</clipPath>
</defs>
</svg>
