<svg width="24" height="24" viewBox="0 0 24 24" fill="none" xmlns="http://www.w3.org/2000/svg">
<path d="M18 16C18 16.5523 17.5523 17 17 17C16.4477 17 16 16.5523 16 16C16 15.4477 16.4477 15 17 15C17.5523 15 18 15.4477 18 16Z" fill="#000640"/>
<path d="M14 17C14.5523 17 15 16.5523 15 16C15 15.4477 14.5523 15 14 15C13.4477 15 13 15.4477 13 16C13 16.5523 13.4477 17 14 17Z" fill="#000640"/>
<path fill-rule="evenodd" clip-rule="evenodd" d="M3.2118 3.38459C3.40131 3.14187 3.69207 3 4.00001 3H21C21.5523 3 22 3.44772 22 4C22 5.41832 21.2352 6.17481 20.7208 6.68363L20.6934 6.71065C20.2604 7.13939 20.0395 7.3783 19.9904 7.80247C20.5515 9.03714 21.1435 10.7109 21.5971 12.0779C21.8407 12.812 22.0485 13.4705 22.1955 13.9455C22.269 14.1831 22.3274 14.3751 22.3675 14.5081L22.4136 14.6616L22.4257 14.7021L22.43 14.7166L21.4709 15C22.43 14.7167 22.43 14.7166 22.43 14.7166C22.4471 14.7748 22.459 14.8345 22.4654 14.8948L22.9945 19.8948C23.0243 20.1767 22.933 20.4581 22.7434 20.6689C22.5537 20.8796 22.2835 21 22 21H2.00001C1.71317 21 1.44015 20.8768 1.25033 20.6618C1.0605 20.4468 0.972151 20.1606 1.00773 19.876L2.00001 20C1.00773 19.876 1.00773 19.876 1.00773 19.876L1.00798 19.8739L1.00834 19.8711L1.00935 19.8634L1.01263 19.8393C1.01539 19.8194 1.01933 19.7921 1.02462 19.7578C1.03519 19.6892 1.05115 19.5926 1.07377 19.472C1.11897 19.2309 1.19104 18.8924 1.3004 18.4886C1.51808 17.6849 1.88894 16.6022 2.50343 15.5097C3.74209 13.3077 6.02561 11 10 11H16C17.3492 11 18.4961 11.3815 19.42 11.8822C19.0774 10.886 18.6963 9.84778 18.3328 9H8.12311C5.82877 9 3.82886 7.43851 3.2724 5.21268L3.02986 4.24254C2.95518 3.94379 3.02229 3.6273 3.2118 3.38459ZM18.1233 7C18.3693 6.19639 18.8816 5.68971 19.259 5.31637L19.2864 5.28935C19.3936 5.18315 19.4879 5.0886 19.5697 5H5.29458C5.71414 6.18876 6.84214 7 8.12311 7H18.1233ZM3.23395 19H20.8886L20.5048 15.373C20.4622 15.3183 20.4095 15.253 20.3469 15.1795C20.1388 14.9351 19.8271 14.6065 19.4203 14.2785C18.6033 13.6198 17.4506 13 16 13H10C6.97441 13 5.25792 14.6923 4.24658 16.4903C3.73885 17.3929 3.4229 18.3051 3.23395 19Z" fill="#000640"/>
</svg>
