<svg width="24" height="24" viewBox="0 0 24 24" fill="none" xmlns="http://www.w3.org/2000/svg">
<path fill-rule="evenodd" clip-rule="evenodd" d="M8.00043 2C8.00043 1.44772 8.44815 1 9.00043 1H15.0004C15.5527 1 16.0004 1.44772 16.0004 2V5C16.0004 5.55228 15.5527 6 15.0004 6V9.09167C15.0004 9.48652 15.1173 9.87254 15.3363 10.2011L20.7595 18.3359C22.0887 20.3296 20.6595 23 18.2634 23H5.73747C3.34138 23 1.91221 20.3296 3.24132 18.3359L8.66453 10.2011C8.88356 9.87254 9.00043 9.48652 9.00043 9.09167V6C8.44815 6 8.00043 5.55228 8.00043 5V2ZM11.0004 6V9.09167C11.0004 9.88137 10.7667 10.6534 10.3286 11.3105L7.53467 15.5014C8.19673 15.4208 8.79548 15.4059 9.35199 15.4393C10.5101 15.5088 11.4371 15.7869 12.2598 16.0338L12.2878 16.0422C13.1249 16.2933 13.8565 16.5096 14.7687 16.5643C15.3961 16.6019 16.1328 16.5635 17.051 16.3787L13.6722 11.3105C13.2342 10.6534 13.0004 9.88137 13.0004 9.09167V6H11.0004ZM18.2371 18.1577C16.8161 18.522 15.6624 18.6215 14.6489 18.5607C13.4908 18.4912 12.5637 18.2131 11.7411 17.9662L11.7131 17.9578C10.876 17.7067 10.1443 17.4904 9.23221 17.4357C8.39456 17.3854 7.36212 17.4708 5.96289 17.8591L4.90542 19.4453C4.46238 20.1099 4.93877 21 5.73747 21H18.2634C19.0621 21 19.5385 20.1099 19.0954 19.4453L18.2371 18.1577ZM10.0004 4V3H14.0004V4H10.0004Z" fill="#000640"/>
</svg>
