<svg width="24" height="24" viewBox="0 0 24 24" fill="none" xmlns="http://www.w3.org/2000/svg">
<path d="M11 18C10.4477 18 10 18.4477 10 19C10 19.5523 10.4477 20 11 20H13C13.5523 20 14 19.5523 14 19C14 18.4477 13.5523 18 13 18H11Z" fill="#000640"/>
<path fill-rule="evenodd" clip-rule="evenodd" d="M3 9C3 12.1217 4.58981 14.8711 7 16.4843V21C7 22.6569 8.34314 24 10 24H14C15.6569 24 17 22.6569 17 21V16.4843C19.4102 14.8711 21 12.1217 21 9C21 4.02944 16.9706 0 12 0C7.02944 0 3 4.02944 3 9ZM5 9C5 5.13401 8.13401 2 12 2C15.866 2 19 5.13401 19 9C19 11.4969 17.6932 13.6896 15.722 14.9297H13.3926L14.9476 10.3196C15.0505 10.0144 15.0001 9.67834 14.8123 9.41673C14.6244 9.15512 14.3221 9 14 9H10C9.67793 9 9.37557 9.15512 9.18772 9.41673C8.99987 9.67834 8.94951 10.0144 9.05245 10.3196L10.6074 14.9297H8.27804C6.30679 13.6896 5 11.4969 5 9ZM9 21V16.9297H15V21C15 21.5523 14.5523 22 14 22H10C9.44772 22 9 21.5523 9 21ZM12.6074 11L12 12.8008L11.3926 11H12.6074Z" fill="#000640"/>
</svg>
