<svg width="24" height="24" viewBox="0 0 24 24" fill="none" xmlns="http://www.w3.org/2000/svg">
<path fill-rule="evenodd" clip-rule="evenodd" d="M1 2C1 1.44772 1.44772 1 2 1H8C8.55228 1 9 1.44772 9 2V11C9 11.8514 9.2148 12.5957 9.64322 13.1098C10.0449 13.5918 10.7405 14 12 14C13.2595 14 13.9551 13.5918 14.3568 13.1098C14.7852 12.5957 15 11.8514 15 11V2.00003C15 1.44774 15.4477 1 16 1H22C22.5523 1 23 1.44772 23 2V12C23 18.0751 18.0751 23 12 23C5.92487 23 1 18.0751 1 12V2ZM17 3V6H21V3H17ZM21 8H17V11C17 12.1486 16.7148 13.4043 15.8932 14.3902C15.0449 15.4082 13.7405 16 12 16C10.2595 16 8.95509 15.4082 8.10678 14.3902C7.2852 13.4043 7 12.1486 7 11V8H3V12C3 16.9706 7.02944 21 12 21C16.9706 21 21 16.9706 21 12V8ZM3 6H7V3H3V6Z" fill="#000640"/>
</svg>
