<svg width="24" height="24" viewBox="0 0 24 24" fill="none" xmlns="http://www.w3.org/2000/svg">
<path fill-rule="evenodd" clip-rule="evenodd" d="M21.6464 2.23699C21.8707 2.42699 22 2.70606 22 3.00001V15C22 15.2937 21.8709 15.5726 21.6469 15.7626C21.4229 15.9526 21.1267 16.0345 20.8369 15.9866L11.5589 14.4531L13.9336 20.6418C14.0516 20.9492 14.0106 21.2951 13.8241 21.5665C13.6375 21.8379 13.3293 22 13 22H7C6.50087 22 6.07817 21.632 6.00951 21.1376L5.01818 14H3.99965C2.34285 14 1 12.6573 1 11.0004V6.99986C1 5.34291 2.34324 4.00001 4 4.00001H8.91724L20.8356 2.01361C21.1255 1.96529 21.4221 2.04698 21.6464 2.23699ZM8 6.00001H4C3.44762 6.00001 3 6.44767 3 6.99986V11.0004C3 11.5527 3.44732 12 3.99965 12H8V6.00001ZM8.90983 14H7.03738L7.87071 20H11.5452L9.26784 14.0651L8.90983 14ZM10 12.1654L10.171 12.1965L20 13.8211V4.18047L10 5.84713V12.1654Z" fill="#000640"/>
</svg>
