<svg width="24" height="24" viewBox="0 0 24 24" fill="none" xmlns="http://www.w3.org/2000/svg">
<path d="M15.0345 3.67298C14.8916 4.20644 15.2082 4.75478 15.7416 4.89772C16.2751 5.04066 16.8234 4.72408 16.9664 4.19061L17.484 2.25876C17.627 1.7253 17.3104 1.17696 16.7769 1.03402C16.2434 0.891075 15.6951 1.20766 15.5522 1.74112L15.0345 3.67298Z" fill="#000640"/>
<path fill-rule="evenodd" clip-rule="evenodd" d="M13.3842 3.53209C13.2397 3.25919 12.9773 3.06834 12.6731 3.01501C12.369 2.96167 12.0573 3.05183 11.8285 3.25929L5.85871 8.67432L2.48724 10.6208C1.05294 11.4489 0.55988 13.2826 1.38864 14.718L2.38898 16.4507C3.21708 17.885 5.05124 18.3781 6.48668 17.5494L6.51764 17.5315L10.4424 22.3748C10.752 22.7569 11.2934 22.8571 11.7193 22.6112L16.0494 20.1112C16.3222 19.9537 16.5049 19.6769 16.5423 19.3641C16.5798 19.0513 16.4676 18.7391 16.2397 18.5217L12.3709 14.8308L17.2694 13.4632C17.5608 13.3818 17.7998 13.1728 17.9192 12.8948C18.0387 12.6167 18.0258 12.2995 17.8842 12.0321L13.3842 3.53209ZM3.48724 12.3529L6.08531 10.8529L8.08531 14.317L5.48668 15.8173C5.00896 16.0931 4.3975 15.9295 4.12103 15.4507L3.12069 13.718C2.84489 13.2403 3.00836 12.6294 3.48724 12.3529ZM8.27137 16.519L9.87325 15.5941L10.1644 15.4899L13.8929 19.0469L11.4587 20.4523L8.27137 16.519ZM10.0713 13.399L9.90008 13.4603L7.72074 9.68554L12.2189 5.60545L15.5358 11.8707L10.1394 13.3773C10.1164 13.3837 10.0937 13.391 10.0713 13.399Z" fill="#000640"/>
<path d="M21.3303 6.09179C21.8085 5.81565 21.9724 5.20406 21.6963 4.72577C21.4201 4.24747 20.8085 4.0836 20.3303 4.35974L17.8808 5.77395C17.4025 6.0501 17.2386 6.66169 17.5147 7.13998C17.7909 7.61827 18.4025 7.78215 18.8808 7.50601L21.3303 6.09179Z" fill="#000640"/>
<path d="M18.6044 9.53793C18.7473 9.00447 19.2956 8.68788 19.8291 8.83083L21.761 9.34846C22.2944 9.49141 22.611 10.0397 22.4681 10.5732C22.3251 11.1067 21.7768 11.4233 21.2433 11.2803L19.3115 10.7627C18.778 10.6197 18.4614 10.0714 18.6044 9.53793Z" fill="#000640"/>
</svg>
