<svg width="24" height="24" viewBox="0 0 24 24" fill="none" xmlns="http://www.w3.org/2000/svg">
<path fill-rule="evenodd" clip-rule="evenodd" d="M3 3C3 1.89543 3.89543 1 5 1H19C20.1046 1 21 1.89543 21 3V13C21 14.6569 19.6569 16 18 16H15.153L15.6638 19.5757C15.922 21.383 14.5196 23 12.694 23H11.306C9.48037 23 8.07798 21.383 8.33617 19.5757L8.84699 16H6C4.34315 16 3 14.6569 3 13V3ZM10.8673 16L10.3161 19.8586C10.23 20.461 10.6975 21 11.306 21H12.694C13.3025 21 13.77 20.461 13.6839 19.8586L13.1327 16H10.8673ZM7 3H5V9H7V3ZM9 3V9H11V3H9ZM13 3V9H15V3H13ZM17 3V9H19V3H17ZM19 11H5V13C5 13.5523 5.44772 14 6 14H18C18.5523 14 19 13.5523 19 13V11Z" fill="#000640"/>
</svg>
