<svg width="24" height="24" viewBox="0 0 24 24" fill="none" xmlns="http://www.w3.org/2000/svg">
<path fill-rule="evenodd" clip-rule="evenodd" d="M13 1C13 0.447715 12.5523 0 12 0C11.4477 0 11 0.447715 11 1V9.17071C9.83481 9.58254 9 10.6938 9 12C9 13.6569 10.3431 15 12 15C13.6569 15 15 13.6569 15 12C15 10.6938 14.1652 9.58254 13 9.17071V7.10002C15.2822 7.56329 17 9.58104 17 12C17 14.7614 14.7614 17 12 17C9.23858 17 7 14.7614 7 12C7 10.6172 7.56002 9.36708 8.46806 8.46088C8.85897 8.07075 8.85961 7.43758 8.46948 7.04667C8.07935 6.65575 7.44619 6.65511 7.05527 7.04524C5.78667 8.31129 5 10.0647 5 12C5 15.866 8.13401 19 12 19C15.866 19 19 15.866 19 12C19 8.47353 16.3923 5.55612 13 5.07089V3.05493C17.5 3.55237 21 7.36745 21 12C21 16.9706 16.9706 21 12 21C7.02944 21 3 16.9706 3 12C3 9.52043 4.00142 7.27667 5.62426 5.64785C6.01406 5.2566 6.01289 4.62344 5.62165 4.23363C5.23041 3.84383 4.59725 3.84499 4.20744 4.23624C2.22637 6.22461 1 8.97005 1 12C1 18.0751 5.92487 23 12 23C18.0751 23 23 18.0751 23 12C23 6.26196 18.6065 1.55007 13 1.04484V1ZM11 12C11 11.4477 11.4477 11 12 11C12.5523 11 13 11.4477 13 12C13 12.5523 12.5523 13 12 13C11.4477 13 11 12.5523 11 12Z" fill="#000640"/>
</svg>
