<svg width="24" height="24" viewBox="0 0 24 24" fill="none" xmlns="http://www.w3.org/2000/svg">
<path fill-rule="evenodd" clip-rule="evenodd" d="M10 5C10.4304 5 10.8126 5.27543 10.9487 5.68377L14 14.8377L15.0513 11.6838C15.1874 11.2754 15.5696 11 16 11H22C22.5523 11 23 11.4477 23 12C23 12.5523 22.5523 13 22 13H16.7208L14.9487 18.3162C14.8126 18.7246 14.4304 19 14 19C13.5696 19 13.1874 18.7246 13.0513 18.3162L10 9.16228L8.94868 12.3162C8.81257 12.7246 8.43043 13 8 13H2C1.44772 13 1 12.5523 1 12C1 11.4477 1.44772 11 2 11H7.27924L9.05132 5.68377C9.18743 5.27543 9.56957 5 10 5Z" fill="#000640"/>
</svg>
