<svg width="24" height="24" viewBox="0 0 24 24" fill="none" xmlns="http://www.w3.org/2000/svg">
<path fill-rule="evenodd" clip-rule="evenodd" d="M12.3716 2.07152C12.1332 1.97616 11.8673 1.97616 11.6289 2.07152L1.62887 6.07152C1.24921 6.22339 1.00026 6.5911 1.00026 7C1.00026 7.4089 1.24921 7.77661 1.62887 7.92848L11.6289 11.9285C11.8673 12.0238 12.1332 12.0238 12.3716 11.9285L22.3717 7.92848C22.7513 7.77661 23.0003 7.4089 23.0003 7C23.0003 6.5911 22.7513 6.22339 22.3717 6.07152L12.3716 2.07152ZM12.0003 9.92297L4.69284 7L12.0003 4.07703L19.3077 7L12.0003 9.92297Z" fill="#000640"/>
<path d="M1.07179 11.6286C1.2769 11.1158 1.85887 10.8664 2.37166 11.0715L12.0003 14.923L21.6289 11.0715C22.1417 10.8664 22.7236 11.1158 22.9287 11.6286C23.1339 12.1414 22.8844 12.7234 22.3717 12.9285L12.3717 16.9285C12.1332 17.0239 11.8673 17.0239 11.6289 16.9285L1.62888 12.9285C1.11609 12.7234 0.866676 12.1414 1.07179 11.6286Z" fill="#000640"/>
<path d="M1.07179 16.6286C1.2769 16.1158 1.85887 15.8664 2.37166 16.0715L12.0003 19.923L21.6289 16.0715C22.1417 15.8664 22.7236 16.1158 22.9287 16.6286C23.1339 17.1414 22.8844 17.7234 22.3717 17.9285L12.3717 21.9285C12.1332 22.0239 11.8673 22.0239 11.6289 21.9285L1.62888 17.9285C1.11609 17.7234 0.866676 17.1414 1.07179 16.6286Z" fill="#000640"/>
</svg>
