<svg width="24" height="24" viewBox="0 0 24 24" fill="none" xmlns="http://www.w3.org/2000/svg">
<path fill-rule="evenodd" clip-rule="evenodd" d="M12.3714 2.07152C12.133 1.97616 11.867 1.97616 11.6286 2.07152L1.65025 6.06287C1.55602 6.09805 1.46853 6.14703 1.39022 6.20736C1.33752 6.24791 1.28927 6.29342 1.24603 6.34306C1.09281 6.51878 1 6.74855 1 7V17C1 17.4089 1.24895 17.7766 1.62861 17.9285L11.6286 21.9285C11.867 22.0238 12.133 22.0238 12.3714 21.9285L22.3714 17.9285C22.751 17.7766 23 17.4089 23 17V7C23 6.74855 22.9072 6.51878 22.754 6.34306C22.7097 6.29226 22.6602 6.24578 22.6061 6.20453C22.5287 6.1455 22.4425 6.0975 22.3498 6.06287L12.3714 2.07152ZM21 8.47703L12.3714 11.9285C12.133 12.0238 11.867 12.0238 11.6286 11.9285L3 8.47703V11.323L12 14.923L21 11.323V8.47703ZM12 9.92297L4.69258 7L12 4.07703L19.3074 7L12 9.92297ZM12.3714 16.9285L21 13.477V16.323L12 19.923L3 16.323V13.477L11.6286 16.9285C11.867 17.0238 12.133 17.0238 12.3714 16.9285Z" fill="#000640"/>
</svg>
