<svg width="24" height="24" viewBox="0 0 24 24" fill="none" xmlns="http://www.w3.org/2000/svg">
<path fill-rule="evenodd" clip-rule="evenodd" d="M4.75022 3.54383C4.97538 2.08033 6.23462 1 7.71534 1H16.2837C17.7644 1 19.0236 2.08033 19.2488 3.54383L20.6334 12.5438C20.913 14.3611 19.5069 16 17.6683 16H12.9995V21H16.9995C17.5518 21 17.9995 21.4477 17.9995 22C17.9995 22.5523 17.5518 23 16.9995 23H6.9995C6.44721 23 5.9995 22.5523 5.9995 22C5.9995 21.4477 6.44721 21 6.9995 21H10.9995V16H6.33072C4.49207 16 3.08603 14.3611 3.36561 12.5438L4.75022 3.54383ZM7.71534 3C7.22177 3 6.80202 3.36011 6.72697 3.84794L5.34235 12.8479C5.24916 13.4537 5.71784 14 6.33072 14H17.6683C18.2812 14 18.7498 13.4537 18.6566 12.8479L17.272 3.84794C17.197 3.36011 16.7772 3 16.2837 3H7.71534Z" fill="#000640"/>
</svg>
