<svg width="24" height="24" viewBox="0 0 24 24" fill="none" xmlns="http://www.w3.org/2000/svg">
<path fill-rule="evenodd" clip-rule="evenodd" d="M2 2C2 1.44772 2.44772 1 3 1H5C5.55228 1 6 1.44772 6 2C6 2.55228 5.55228 3 5 3H4V7C4 9.20914 5.79086 11 8 11C10.2091 11 12 9.20914 12 7V3H11C10.4477 3 10 2.55228 10 2C10 1.44772 10.4477 1 11 1H13C13.5523 1 14 1.44772 14 2V7C14 9.973 11.8377 12.441 9 12.917V16C9 18.8799 10.85 21 13.5 21C16.15 21 18 18.8799 18 16V8.82929C16.8348 8.41746 16 7.30622 16 6C16 4.34315 17.3431 3 19 3C20.6569 3 22 4.34315 22 6C22 7.30622 21.1652 8.41746 20 8.82929V16C20 19.7475 17.4774 23 13.5 23C9.52256 23 7 19.7475 7 16V12.917C4.16229 12.441 2 9.973 2 7V2ZM19 7C19.5523 7 20 6.55228 20 6C20 5.44772 19.5523 5 19 5C18.4477 5 18 5.44772 18 6C18 6.55228 18.4477 7 19 7Z" fill="#000640"/>
</svg>
