<svg width="24" height="24" viewBox="0 0 24 24" fill="none" xmlns="http://www.w3.org/2000/svg">
<path fill-rule="evenodd" clip-rule="evenodd" d="M18.7071 1.29289C18.3166 0.902369 17.6834 0.902369 17.2929 1.29289C16.9024 1.68342 16.9024 2.31658 17.2929 2.70711L18.5858 4L16.9999 5.58589L15.7069 4.29289C15.5194 4.10536 15.265 4 14.9998 4C14.7346 4 14.4802 4.10536 14.2927 4.2929L6.29288 12.2929C6.02505 12.5607 5.93154 12.9569 6.05131 13.3162L6.85585 15.7298L2.29289 20.2928C1.90237 20.6833 1.90237 21.3165 2.29289 21.707C2.68342 22.0975 3.31658 22.0975 3.70711 21.707L8.27002 17.1441L10.6838 17.9487C11.0431 18.0685 11.4393 17.9749 11.7071 17.7071L19.7069 9.7071C20.0974 9.31657 20.0974 8.68341 19.7069 8.29289L18.4141 7.00011L20 5.41421L21.2929 6.70711C21.6834 7.09763 22.3166 7.09763 22.7071 6.70711C23.0976 6.31658 23.0976 5.68342 22.7071 5.29289L18.7071 1.29289ZM14.9998 6.41422L10.4142 11H15.5857L17.5856 9.00001L14.9998 6.41422ZM13.5857 13H8.41422L8.14412 13.2701L8.79057 15.2094L10.7299 15.8559L13.5857 13Z" fill="#000640"/>
</svg>
