<svg width="24" height="24" viewBox="0 0 24 24" fill="none" xmlns="http://www.w3.org/2000/svg">
<path d="M11.9994 14C13.104 14 13.9994 13.1046 13.9994 12C13.9994 10.8954 13.104 10 11.9994 10C10.8948 10 9.99939 10.8954 9.99939 12C9.99939 13.1046 10.8948 14 11.9994 14Z" fill="#000640"/>
<path fill-rule="evenodd" clip-rule="evenodd" d="M4.17195 2.79289C3.78143 2.40237 3.14826 2.40237 2.75774 2.79289C2.36721 3.18342 2.36721 3.81658 2.75774 4.20711L4.95221 6.40158C3.73042 7.93783 2.99939 9.88426 2.99939 12C2.99939 14.1166 3.73102 16.0638 4.9537 17.6003L2.79241 19.7616C2.40188 20.1521 2.40188 20.7853 2.7924 21.1758C3.18293 21.5663 3.81609 21.5663 4.20662 21.1758L6.36444 19.018C7.9063 20.2573 9.8668 21 11.9994 21C14.1182 21 16.0672 20.2669 17.6045 19.0419L19.7698 21.2071C20.1603 21.5976 20.7935 21.5976 21.184 21.2071C21.5745 20.8166 21.5745 20.1834 21.184 19.7929L19.0212 17.6301C20.2582 16.089 20.9994 14.1304 20.9994 12C20.9994 9.8814 20.2664 7.93258 19.0416 6.39537L21.2299 4.20711C21.6204 3.81658 21.6204 3.18342 21.2299 2.79289C20.8394 2.40237 20.2062 2.40237 19.8157 2.79289L17.63 4.97856C16.0888 3.74132 14.13 3.00002 11.9994 3.00002C9.86594 3.00002 7.90473 3.74331 6.36259 4.98353L4.17195 2.79289ZM7.03455 7.06541C8.30359 5.78865 10.0585 5.00002 11.9994 5.00002C13.9378 5.00002 15.6907 5.78664 16.9594 7.06051C18.2212 8.32753 18.9994 10.0719 18.9994 12C18.9994 13.9383 18.2129 15.691 16.9393 16.9596C15.6722 18.2217 13.9277 19 11.9994 19C10.0592 19 8.30493 18.212 7.03601 16.9361C5.7762 15.6694 4.99939 13.9264 4.99939 12C4.99939 10.0744 5.77559 8.33202 7.03455 7.06541Z" fill="#000640"/>
</svg>
