<svg width="24" height="24" viewBox="0 0 24 24" fill="none" xmlns="http://www.w3.org/2000/svg">
<g clip-path="url(#clip0_1253_6254)">
<path fill-rule="evenodd" clip-rule="evenodd" d="M2.99996 6C2.44755 6 2.00001 6.44761 2 6.9997L2.00002 8.12208C3.59207 8.51425 5.00003 9.8437 5.00003 12C5.00003 14.1563 3.59207 15.4857 2.00002 15.8779L2 17.0003C2.00001 17.5524 2.44755 18 2.99996 18H7.99996V6H2.99996ZM9.99996 6V18H21C21.5525 18 22 17.5524 22 17.0002L22 15.8835C21.3755 15.7354 20.7756 15.444 20.2731 14.9974C19.4867 14.2984 19 13.2714 19 12C19 10.7286 19.4867 9.70164 20.2731 9.00259C20.7756 8.55596 21.3755 8.26461 22 8.11652L22 7.00002C22 6.44773 21.5523 6 21 6H9.99996ZM0 6.99972C0 5.34273 1.34329 4 2.99996 4H21C22.6569 4 24 5.34318 24 7.00005L24 9.00002C24 9.5523 23.5522 10 23 10C22.4631 10 21.9588 10.1801 21.6018 10.4974C21.2633 10.7984 21 11.2714 21 12C21 12.7286 21.2633 13.2016 21.6018 13.5026C21.9588 13.8199 22.4631 14 23 14C23.5523 14 24 14.4477 24 15L24 17.0002C24 18.6573 22.6567 20 21 20H2.99996C1.34329 20 0 18.6573 0 17.0003L3.0458e-05 15C3.88622e-05 14.4477 0.447752 14 1.00003 14C2.05004 14 3.00003 13.3032 3.00003 12C3.00003 10.6968 2.05004 10 1.00003 10C0.447752 10 3.88622e-05 9.55229 3.0458e-05 9.00002L0 6.99972Z" fill="#000640"/>
</g>
<defs>
<clipPath id="clip0_1253_6254">
<rect width="24" height="24" fill="white"/>
</clipPath>
</defs>
</svg>
