<svg width="24" height="24" viewBox="0 0 24 24" fill="none" xmlns="http://www.w3.org/2000/svg">
<path fill-rule="evenodd" clip-rule="evenodd" d="M1 12C1 10.3431 2.34315 9 4 9C5.30622 9 6.41746 9.83481 6.82929 11H9.17071C9.58254 9.83481 10.6938 9 12 9C13.3062 9 14.4175 9.83481 14.8293 11H17.1707C17.5825 9.83481 18.6938 9 20 9C21.6569 9 23 10.3431 23 12C23 13.6569 21.6569 15 20 15C18.6938 15 17.5825 14.1652 17.1707 13H14.8293C14.4175 14.1652 13.3062 15 12 15C10.6938 15 9.58254 14.1652 9.17071 13H6.82929C6.41746 14.1652 5.30622 15 4 15C2.34315 15 1 13.6569 1 12ZM4 11C3.44772 11 3 11.4477 3 12C3 12.5523 3.44772 13 4 13C4.55228 13 5 12.5523 5 12C5 11.4477 4.55228 11 4 11ZM12 11C11.4477 11 11 11.4477 11 12C11 12.5523 11.4477 13 12 13C12.5523 13 13 12.5523 13 12C13 11.4477 12.5523 11 12 11ZM19 12C19 11.4477 19.4477 11 20 11C20.5523 11 21 11.4477 21 12C21 12.5523 20.5523 13 20 13C19.4477 13 19 12.5523 19 12Z" fill="#000640"/>
</svg>
