<svg width="24" height="24" viewBox="0 0 24 24" fill="none" xmlns="http://www.w3.org/2000/svg">
<path fill-rule="evenodd" clip-rule="evenodd" d="M8.12602 11C8.57006 9.27477 10.1362 8 12 8C13.8638 8 15.4299 9.27477 15.874 11H17.1707C17.5825 9.83481 18.6938 9 20 9C21.6569 9 23 10.3431 23 12C23 13.6569 21.6569 15 20 15C18.6938 15 17.5825 14.1652 17.1707 13H15.874C15.4299 14.7252 13.8638 16 12 16C10.1362 16 8.57006 14.7252 8.12602 13H6.82929C6.41746 14.1652 5.30622 15 4 15C2.34315 15 1 13.6569 1 12C1 10.3431 2.34315 9 4 9C5.30622 9 6.41746 9.83481 6.82929 11H8.12602ZM12 10C10.8954 10 10 10.8954 10 12C10 13.1046 10.8954 14 12 14C13.1046 14 14 13.1046 14 12C14 10.8954 13.1046 10 12 10ZM20 11C19.4477 11 19 11.4477 19 12C19 12.5523 19.4477 13 20 13C20.5523 13 21 12.5523 21 12C21 11.4477 20.5523 11 20 11ZM3 12C3 11.4477 3.44772 11 4 11C4.55228 11 5 11.4477 5 12C5 12.5523 4.55228 13 4 13C3.44772 13 3 12.5523 3 12Z" fill="#000640"/>
</svg>
