<svg width="24" height="24" viewBox="0 0 24 24" fill="none" xmlns="http://www.w3.org/2000/svg">
<path fill-rule="evenodd" clip-rule="evenodd" d="M1 4C1 2.34315 2.34315 1 4 1H10C10.5523 1 11 1.44772 11 2V22C11 22.5523 10.5523 23 10 23H4C2.34315 23 1 21.6569 1 20V4ZM4 3C3.44772 3 3 3.44772 3 4V20C3 20.5523 3.44772 21 4 21H9V3H4Z" fill="#000640"/>
<path fill-rule="evenodd" clip-rule="evenodd" d="M13 2C13 1.44772 13.4477 1 14 1H20C21.6569 1 23 2.34315 23 4V10C23 10.5523 22.5523 11 22 11H14C13.4477 11 13 10.5523 13 10V2ZM15 3V9H21V4C21 3.44772 20.5523 3 20 3H15Z" fill="#000640"/>
<path fill-rule="evenodd" clip-rule="evenodd" d="M14 13C13.4477 13 13 13.4477 13 14V22C13 22.5523 13.4477 23 14 23H20C21.6569 23 23 21.6569 23 20V14C23 13.4477 22.5523 13 22 13H14ZM15 21V15H21V20C21 20.5523 20.5523 21 20 21H15Z" fill="#000640"/>
</svg>
