<svg width="24" height="24" viewBox="0 0 24 24" fill="none" xmlns="http://www.w3.org/2000/svg">
<path d="M18 10C18.5523 10 19 10.4477 19 11C19 11.5523 18.5523 12 18 12H13C12.4477 12 12 11.5523 12 11C12 10.4477 12.4477 10 13 10H18Z" fill="#000640"/>
<path d="M19 14C19 13.4477 18.5523 13 18 13H13C12.4477 13 12 13.4477 12 14C12 14.5523 12.4477 15 13 15H18C18.5523 15 19 14.5523 19 14Z" fill="#000640"/>
<path d="M15 18C15.5523 18 16 17.5523 16 17C16 16.4477 15.5523 16 15 16H13C12.4477 16 12 16.4477 12 17C12 17.5523 12.4477 18 13 18H15Z" fill="#000640"/>
<path fill-rule="evenodd" clip-rule="evenodd" d="M4 1C2.34315 1 1 2.34315 1 4V20C1 21.6569 2.34315 23 4 23H20C21.6569 23 23 21.6569 23 20V4C23 2.34315 21.6569 1 20 1H4ZM3 4C3 3.44772 3.44772 3 4 3H8V21H4C3.44772 21 3 20.5523 3 20V4ZM10 6V3H20C20.5523 3 21 3.44772 21 4V6H10ZM10 8H21V20C21 20.5523 20.5523 21 20 21H10V8Z" fill="#000640"/>
</svg>
