<svg width="24" height="24" viewBox="0 0 24 24" fill="none" xmlns="http://www.w3.org/2000/svg">
<path fill-rule="evenodd" clip-rule="evenodd" d="M1 4C1 2.34315 2.34315 1 4 1H10C10.5523 1 11 1.44772 11 2V10C11 10.5523 10.5523 11 10 11H2C1.44772 11 1 10.5523 1 10V4ZM4 3C3.44772 3 3 3.44772 3 4V9H9V3H4Z" fill="#000640"/>
<path fill-rule="evenodd" clip-rule="evenodd" d="M13 2C13 1.44772 13.4477 1 14 1H20C21.6569 1 23 2.34315 23 4V20C23 21.6569 21.6569 23 20 23H14C13.4477 23 13 22.5523 13 22V2ZM15 3V21H20C20.5523 21 21 20.5523 21 20V4C21 3.44772 20.5523 3 20 3H15Z" fill="#000640"/>
<path fill-rule="evenodd" clip-rule="evenodd" d="M2 13C1.44772 13 1 13.4477 1 14V20C1 21.6569 2.34315 23 4 23H10C10.5523 23 11 22.5523 11 22V14C11 13.4477 10.5523 13 10 13H2ZM3 20V15H9V21H4C3.44772 21 3 20.5523 3 20Z" fill="#000640"/>
</svg>
