<svg width="24" height="24" viewBox="0 0 24 24" fill="none" xmlns="http://www.w3.org/2000/svg">
<path d="M5 15C5 14.4477 5.44772 14 6 14H9C9.55228 14 10 14.4477 10 15C10 15.5523 9.55228 16 9 16H6C5.44772 16 5 15.5523 5 15Z" fill="#000640"/>
<path d="M6 8C5.44772 8 5 8.44772 5 9C5 9.55229 5.44772 10 6 10H11C11.5523 10 12 9.55229 12 9C12 8.44772 11.5523 8 11 8H6Z" fill="#000640"/>
<path d="M5 6C5 5.44772 5.44772 5 6 5H11C11.5523 5 12 5.44772 12 6C12 6.55228 11.5523 7 11 7H6C5.44772 7 5 6.55228 5 6Z" fill="#000640"/>
<path d="M6 11C5.44772 11 5 11.4477 5 12C5 12.5523 5.44772 13 6 13H11C11.5523 13 12 12.5523 12 12C12 11.4477 11.5523 11 11 11H6Z" fill="#000640"/>
<path fill-rule="evenodd" clip-rule="evenodd" d="M1 4C1 2.34315 2.34315 1 4 1H20C21.6569 1 23 2.34315 23 4V20C23 21.6569 21.6569 23 20 23H4C2.34315 23 1 21.6569 1 20V4ZM4 3C3.44772 3 3 3.44772 3 4V20C3 20.5523 3.44772 21 4 21H14V3H4ZM20 3H16V21H20C20.5523 21 21 20.5523 21 20V4C21 3.44772 20.5523 3 20 3Z" fill="#000640"/>
</svg>
