<svg width="24" height="24" viewBox="0 0 24 24" fill="none" xmlns="http://www.w3.org/2000/svg">
<path fill-rule="evenodd" clip-rule="evenodd" d="M21 9.00012L13 9.00012L13 14.0001L21 14.0001L21 9.00012ZM21 16.0001L13 16.0001L13 21.0001H20C20.5523 21.0001 21 20.5524 21 20.0001V16.0001ZM11 21.0001L11 16.0001H3L3 20.0001C3 20.5524 3.44772 21.0001 4 21.0001H11ZM3 14.0001L11 14.0001L11 9.00012L3 9.00012L3 14.0001ZM3 7.00012L21 7.00012V4.00012C21 3.44784 20.5523 3.00012 20 3.00012L4 3.00012C3.44772 3.00012 3 3.44784 3 4.00012L3 7.00012ZM23 20.0001C23 21.657 21.6569 23.0001 20 23.0001L4 23.0001C2.34315 23.0001 1 21.657 1 20.0001L1 4.00012C1 2.34327 2.34315 1.00012 4 1.00012L20 1.00012C21.6569 1.00012 23 2.34327 23 4.00012L23 20.0001Z" fill="#000640"/>
</svg>
