<svg width="24" height="24" viewBox="0 0 24 24" fill="none" xmlns="http://www.w3.org/2000/svg">
<path fill-rule="evenodd" clip-rule="evenodd" d="M21 4C21 3.44772 20.5523 3 20 3L13 3L13 21H20C20.5523 21 21 20.5523 21 20L21 4ZM11 21V19H3L3 20C3 20.5523 3.44772 21 4 21H11ZM3 17H11V15L3 15L3 17ZM3 13L11 13V11L3 11L3 13ZM3 9L11 9V7L3 7L3 9ZM3 5L11 5V3L4 3C3.44772 3 3 3.44772 3 4V5ZM23 20C23 21.6569 21.6569 23 20 23L4 23C2.34315 23 1 21.6569 1 20L1 4C1 2.34315 2.34315 1 4 1L20 1C21.6569 1 23 2.34315 23 4L23 20Z" fill="#000640"/>
</svg>
