<svg width="24" height="24" viewBox="0 0 24 24" fill="none" xmlns="http://www.w3.org/2000/svg">
<path fill-rule="evenodd" clip-rule="evenodd" d="M21 9L13 9L13 14L21 14L21 9ZM21 16L13 16L13 21H20C20.5523 21 21 20.5523 21 20V16ZM11 21L11 9L3 9L3 20C3 20.5523 3.44772 21 4 21H11ZM3 7L21 7V4C21 3.44772 20.5523 3 20 3L4 3C3.44772 3 3 3.44772 3 4L3 7ZM23 20C23 21.6569 21.6569 23 20 23L4 23C2.34315 23 1 21.6569 1 20L1 4C1 2.34315 2.34315 1 4 1L20 1C21.6569 1 23 2.34315 23 4L23 20Z" fill="#000640"/>
</svg>
