<svg width="24" height="24" viewBox="0 0 24 24" fill="none" xmlns="http://www.w3.org/2000/svg">
<path d="M17 15C17 14.4477 16.5523 14 16 14H13C12.4477 14 12 14.4477 12 15C12 15.5523 12.4477 16 13 16H16C16.5523 16 17 15.5523 17 15Z" fill="#000640"/>
<path d="M18 8C18.5523 8 19 8.44772 19 9C19 9.55229 18.5523 10 18 10H13C12.4477 10 12 9.55229 12 9C12 8.44772 12.4477 8 13 8H18Z" fill="#000640"/>
<path d="M19 6C19 5.44772 18.5523 5 18 5H13C12.4477 5 12 5.44772 12 6C12 6.55228 12.4477 7 13 7H18C18.5523 7 19 6.55228 19 6Z" fill="#000640"/>
<path d="M18 11C18.5523 11 19 11.4477 19 12C19 12.5523 18.5523 13 18 13H13C12.4477 13 12 12.5523 12 12C12 11.4477 12.4477 11 13 11H18Z" fill="#000640"/>
<path fill-rule="evenodd" clip-rule="evenodd" d="M23 4C23 2.34315 21.6569 1 20 1H4C2.34315 1 1 2.34315 1 4V20C1 21.6569 2.34315 23 4 23H20C21.6569 23 23 21.6569 23 20V4ZM20 3C20.5523 3 21 3.44772 21 4V20C21 20.5523 20.5523 21 20 21H10V3H20ZM8 3V21H4C3.44772 21 3 20.5523 3 20V4C3 3.44772 3.44772 3 4 3H8Z" fill="#000640"/>
</svg>
