<svg width="24" height="24" viewBox="0 0 24 24" fill="none" xmlns="http://www.w3.org/2000/svg">
<path fill-rule="evenodd" clip-rule="evenodd" d="M21 20C21 20.5523 20.5523 21 20 21H16V19H21V20ZM21 17L16 17V15H21V17ZM21 13L16 13V11H21V13ZM21 9H16V7L21 7V9ZM21 5L3 5V4C3 3.44772 3.44772 3 4 3L20 3C20.5523 3 21 3.44772 21 4V5ZM3 7L14 7L14 21H4C3.44772 21 3 20.5523 3 20L3 7ZM20 23C21.6569 23 23 21.6569 23 20V4C23 2.34315 21.6569 1 20 1L4 1C2.34315 1 1 2.34315 1 4L1 20C1 21.6569 2.34315 23 4 23H20Z" fill="#000640"/>
</svg>
