<svg width="24" height="24" viewBox="0 0 24 24" fill="none" xmlns="http://www.w3.org/2000/svg">
<path fill-rule="evenodd" clip-rule="evenodd" d="M23 4C23 2.34315 21.6569 1 20 1H14C13.4477 1 13 1.44772 13 2V10C13 10.5523 13.4477 11 14 11H22C22.5523 11 23 10.5523 23 10V4ZM20 3C20.5523 3 21 3.44772 21 4V9H15V3L20 3Z" fill="#000640"/>
<path fill-rule="evenodd" clip-rule="evenodd" d="M1 20C1 21.6569 2.34315 23 4 23H10C10.5523 23 11 22.5523 11 22V14C11 13.4477 10.5523 13 10 13H2C1.44772 13 1 13.4477 1 14V20ZM4 21C3.44772 21 3 20.5523 3 20L3 15H9V21H4Z" fill="#000640"/>
<path fill-rule="evenodd" clip-rule="evenodd" d="M14 23C13.4477 23 13 22.5523 13 22V14C13 13.4477 13.4477 13 14 13H22C22.5523 13 23 13.4477 23 14V20C23 21.6569 21.6569 23 20 23H14ZM15 21H20C20.5523 21 21 20.5523 21 20V15H15V21Z" fill="#000640"/>
<path fill-rule="evenodd" clip-rule="evenodd" d="M11 2C11 1.44772 10.5523 1 10 1H4C2.34315 1 1 2.34315 1 4V10C1 10.5523 1.44771 11 2 11H10C10.5523 11 11 10.5523 11 10V2ZM4 3L9 3L9 9H3L3 4C3 3.44772 3.44772 3 4 3Z" fill="#000640"/>
</svg>
