<svg width="1352" height="146" viewBox="0 0 1352 146" fill="none" xmlns="http://www.w3.org/2000/svg">
<rect x="96" y="144" width="1160" height="2" rx="0.5" fill="#F5F5F5"/>
<path d="M123.744 68.24C122.88 66.576 121.68 65.328 120.144 64.496C118.608 63.632 116.832 63.2 114.816 63.2C112.608 63.2 110.64 63.696 108.912 64.688C107.184 65.68 105.824 67.088 104.832 68.912C103.872 70.736 103.392 72.848 103.392 75.248C103.392 77.648 103.872 79.776 104.832 81.632C105.824 83.456 107.184 84.864 108.912 85.856C110.64 86.848 112.608 87.344 114.816 87.344C117.792 87.344 120.208 86.512 122.064 84.848C123.92 83.184 125.056 80.928 125.472 78.08H112.944V73.712H131.328V77.984C130.976 80.576 130.048 82.96 128.544 85.136C127.072 87.312 125.136 89.056 122.736 90.368C120.368 91.648 117.728 92.288 114.816 92.288C111.68 92.288 108.816 91.568 106.224 90.128C103.632 88.656 101.568 86.624 100.032 84.032C98.528 81.44 97.776 78.512 97.776 75.248C97.776 71.984 98.528 69.056 100.032 66.464C101.568 63.872 103.632 61.856 106.224 60.416C108.848 58.944 111.712 58.208 114.816 58.208C118.368 58.208 121.52 59.088 124.272 60.848C127.056 62.576 129.072 65.04 130.32 68.24H123.744ZM142.197 69.392C142.997 68.048 144.053 67.008 145.365 66.272C146.709 65.504 148.293 65.12 150.117 65.12V70.784H148.725C146.581 70.784 144.949 71.328 143.829 72.416C142.741 73.504 142.197 75.392 142.197 78.08V92H136.725V65.552H142.197V69.392ZM157.931 62.048C156.939 62.048 156.107 61.712 155.435 61.04C154.763 60.368 154.427 59.536 154.427 58.544C154.427 57.552 154.763 56.72 155.435 56.048C156.107 55.376 156.939 55.04 157.931 55.04C158.891 55.04 159.707 55.376 160.379 56.048C161.051 56.72 161.387 57.552 161.387 58.544C161.387 59.536 161.051 60.368 160.379 61.04C159.707 61.712 158.891 62.048 157.931 62.048ZM160.619 65.552V92H155.147V65.552H160.619ZM165.979 78.656C165.979 76 166.523 73.648 167.611 71.6C168.731 69.552 170.235 67.968 172.123 66.848C174.043 65.696 176.171 65.12 178.507 65.12C180.235 65.12 181.931 65.504 183.595 66.272C185.291 67.008 186.635 68 187.627 69.248V56.48H193.147V92H187.627V88.016C186.731 89.296 185.483 90.352 183.883 91.184C182.315 92.016 180.507 92.432 178.459 92.432C176.155 92.432 174.043 91.856 172.123 90.704C170.235 89.52 168.731 87.888 167.611 85.808C166.523 83.696 165.979 81.312 165.979 78.656ZM187.627 78.752C187.627 76.928 187.243 75.344 186.475 74C185.739 72.656 184.763 71.632 183.547 70.928C182.331 70.224 181.019 69.872 179.611 69.872C178.203 69.872 176.891 70.224 175.675 70.928C174.459 71.6 173.467 72.608 172.699 73.952C171.963 75.264 171.595 76.832 171.595 78.656C171.595 80.48 171.963 82.08 172.699 83.456C173.467 84.832 174.459 85.888 175.675 86.624C176.923 87.328 178.235 87.68 179.611 87.68C181.019 87.68 182.331 87.328 183.547 86.624C184.763 85.92 185.739 84.896 186.475 83.552C187.243 82.176 187.627 80.576 187.627 78.752ZM238.579 92L234.451 87.872C232.851 89.472 231.107 90.672 229.219 91.472C227.331 92.24 225.219 92.624 222.883 92.624C220.515 92.624 218.419 92.208 216.595 91.376C214.771 90.544 213.363 89.36 212.371 87.824C211.379 86.256 210.883 84.448 210.883 82.4C210.883 80.096 211.539 78.048 212.851 76.256C214.163 74.432 216.115 72.992 218.707 71.936C217.779 70.816 217.123 69.776 216.739 68.816C216.355 67.824 216.163 66.736 216.163 65.552C216.163 64.08 216.531 62.768 217.267 61.616C218.035 60.464 219.123 59.552 220.531 58.88C221.939 58.208 223.571 57.872 225.427 57.872C227.315 57.872 228.915 58.24 230.227 58.976C231.571 59.68 232.563 60.656 233.203 61.904C233.875 63.152 234.147 64.544 234.019 66.08H228.547C228.579 64.896 228.291 63.984 227.683 63.344C227.075 62.672 226.243 62.336 225.187 62.336C224.131 62.336 223.267 62.656 222.595 63.296C221.955 63.904 221.635 64.656 221.635 65.552C221.635 66.416 221.875 67.28 222.355 68.144C222.867 68.976 223.747 70.064 224.995 71.408L233.827 80.192L237.235 74.576H243.139L238.819 81.968L237.619 83.936L245.731 92H238.579ZM222.883 87.968C225.891 87.968 228.547 86.736 230.851 84.272L222.019 75.392C218.243 76.896 216.355 79.168 216.355 82.208C216.355 83.84 216.963 85.216 218.179 86.336C219.395 87.424 220.963 87.968 222.883 87.968ZM267.26 87.584H278.54V92H261.788V58.64H267.26V87.584ZM281.292 78.656C281.292 76 281.836 73.648 282.924 71.6C284.044 69.552 285.548 67.968 287.436 66.848C289.356 65.696 291.468 65.12 293.772 65.12C295.852 65.12 297.66 65.536 299.196 66.368C300.764 67.168 302.012 68.176 302.94 69.392V65.552H308.46V92H302.94V88.064C302.012 89.312 300.748 90.352 299.148 91.184C297.548 92.016 295.724 92.432 293.676 92.432C291.404 92.432 289.324 91.856 287.436 90.704C285.548 89.52 284.044 87.888 282.924 85.808C281.836 83.696 281.292 81.312 281.292 78.656ZM302.94 78.752C302.94 76.928 302.556 75.344 301.788 74C301.052 72.656 300.076 71.632 298.86 70.928C297.644 70.224 296.332 69.872 294.924 69.872C293.516 69.872 292.204 70.224 290.988 70.928C289.772 71.6 288.78 72.608 288.012 73.952C287.276 75.264 286.908 76.832 286.908 78.656C286.908 80.48 287.276 82.08 288.012 83.456C288.78 84.832 289.772 85.888 290.988 86.624C292.236 87.328 293.548 87.68 294.924 87.68C296.332 87.68 297.644 87.328 298.86 86.624C300.076 85.92 301.052 84.896 301.788 83.552C302.556 82.176 302.94 80.576 302.94 78.752ZM339.455 65.552L323.231 104.432H317.567L322.943 91.568L312.527 65.552H318.623L326.063 85.712L333.791 65.552H339.455ZM355.056 92.432C352.56 92.432 350.304 91.872 348.288 90.752C346.272 89.6 344.688 88 343.536 85.952C342.384 83.872 341.808 81.472 341.808 78.752C341.808 76.064 342.4 73.68 343.584 71.6C344.768 69.52 346.384 67.92 348.432 66.8C350.48 65.68 352.768 65.12 355.296 65.12C357.824 65.12 360.112 65.68 362.16 66.8C364.208 67.92 365.824 69.52 367.008 71.6C368.192 73.68 368.784 76.064 368.784 78.752C368.784 81.44 368.176 83.824 366.96 85.904C365.744 87.984 364.08 89.6 361.968 90.752C359.888 91.872 357.584 92.432 355.056 92.432ZM355.056 87.68C356.464 87.68 357.776 87.344 358.992 86.672C360.24 86 361.248 84.992 362.016 83.648C362.784 82.304 363.168 80.672 363.168 78.752C363.168 76.832 362.8 75.216 362.064 73.904C361.328 72.56 360.352 71.552 359.136 70.88C357.92 70.208 356.608 69.872 355.2 69.872C353.792 69.872 352.48 70.208 351.264 70.88C350.08 71.552 349.136 72.56 348.432 73.904C347.728 75.216 347.376 76.832 347.376 78.752C347.376 81.6 348.096 83.808 349.536 85.376C351.008 86.912 352.848 87.68 355.056 87.68ZM398.146 65.552V92H392.674V88.88C391.81 89.968 390.674 90.832 389.266 91.472C387.89 92.08 386.418 92.384 384.85 92.384C382.77 92.384 380.898 91.952 379.234 91.088C377.602 90.224 376.306 88.944 375.346 87.248C374.418 85.552 373.954 83.504 373.954 81.104V65.552H379.378V80.288C379.378 82.656 379.97 84.48 381.154 85.76C382.338 87.008 383.954 87.632 386.002 87.632C388.05 87.632 389.666 87.008 390.85 85.76C392.066 84.48 392.674 82.656 392.674 80.288V65.552H398.146ZM411.75 70.016V84.656C411.75 85.648 411.974 86.368 412.422 86.816C412.902 87.232 413.702 87.44 414.822 87.44H418.182V92H413.862C411.398 92 409.51 91.424 408.198 90.272C406.886 89.12 406.23 87.248 406.23 84.656V70.016H403.11V65.552H406.23V58.976H411.75V65.552H418.182V70.016H411.75Z" fill="#000640"/>
<rect x="1116" y="63" width="140" height="24" rx="4" fill="#EBEBEB"/>
<g clip-path="url(#clip0_1253_7126)">
<path d="M1130.86 80.1381C1131.12 80.3984 1131.54 80.3984 1131.8 80.1381C1132.07 79.8777 1132.07 79.4556 1131.8 79.1953L1128.28 75.6667H1137.33C1137.7 75.6667 1138 75.3682 1138 75C1138 74.6318 1137.7 74.3333 1137.33 74.3333H1128.28L1131.8 70.8047C1132.07 70.5444 1132.07 70.1223 1131.8 69.8619C1131.54 69.6016 1131.12 69.6016 1130.86 69.8619L1126.2 74.5286C1125.93 74.7889 1125.93 75.2111 1126.2 75.4714L1130.86 80.1381Z" fill="#696969"/>
</g>
<path d="M1144.59 80V72.2979H1147.48C1148.14 72.2979 1148.7 72.5002 1149.17 72.9048C1149.64 73.3058 1149.88 73.7856 1149.88 74.3442C1149.88 74.6916 1149.77 75.0174 1149.57 75.3218C1149.37 75.6226 1149.12 75.8249 1148.81 75.9287C1149.22 76.0111 1149.56 76.2259 1149.82 76.5732C1150.09 76.9206 1150.23 77.3288 1150.23 77.7979C1150.23 78.4137 1149.99 78.9347 1149.52 79.3608C1149.04 79.7869 1148.47 80 1147.81 80H1144.59ZM1146.21 75.4023H1147.4C1147.63 75.4023 1147.82 75.3271 1147.98 75.1768C1148.14 75.0228 1148.22 74.8384 1148.22 74.6235C1148.22 74.4087 1148.14 74.2279 1147.99 74.0811C1147.83 73.9342 1147.63 73.8608 1147.4 73.8608H1146.21V75.4023ZM1146.21 78.437H1147.66C1147.91 78.437 1148.13 78.3511 1148.3 78.1792C1148.48 78.0037 1148.57 77.7925 1148.57 77.5454C1148.57 77.2983 1148.48 77.0871 1148.3 76.9116C1148.13 76.7326 1147.92 76.6431 1147.68 76.6431H1146.21V78.437ZM1158 80L1157.52 78.7109H1154.55L1154.06 80H1152.33L1155.39 72.2979H1156.7L1159.78 80H1158ZM1155.09 77.3145H1156.98L1156.05 74.8545L1155.09 77.3145ZM1165.68 80.1074C1164.94 80.1074 1164.28 79.9355 1163.68 79.5918C1163.08 79.248 1162.62 78.7736 1162.28 78.1685C1161.94 77.5633 1161.77 76.8901 1161.77 76.1489C1161.77 75.4077 1161.94 74.7345 1162.28 74.1294C1162.62 73.5243 1163.08 73.0498 1163.68 72.7061C1164.28 72.3623 1164.94 72.1904 1165.68 72.1904C1166.27 72.1904 1166.84 72.3122 1167.37 72.5557C1167.91 72.7956 1168.35 73.1322 1168.7 73.5654C1169.05 73.9951 1169.27 74.4749 1169.34 75.0049H1167.52C1167.42 74.6432 1167.2 74.3478 1166.85 74.1187C1166.51 73.8895 1166.12 73.7749 1165.68 73.7749C1165.04 73.7749 1164.51 74.0023 1164.08 74.457C1163.65 74.9082 1163.44 75.4722 1163.44 76.1489C1163.44 76.8257 1163.65 77.3914 1164.08 77.8462C1164.51 78.3009 1165.04 78.5283 1165.68 78.5283C1166.12 78.5283 1166.52 78.403 1166.86 78.1523C1167.21 77.9017 1167.43 77.583 1167.53 77.1963H1169.36C1169.21 78.0521 1168.8 78.7521 1168.11 79.2964C1167.43 79.8371 1166.61 80.1074 1165.68 80.1074ZM1179 80H1176.87L1173.93 76.3262V80H1172.31V72.2979H1173.93V75.5581L1176.67 72.2979H1178.73L1175.64 75.9287L1179 80ZM1191.77 72.2979V73.8608H1189.51V80H1187.89V73.8608H1185.64V72.2979H1191.77ZM1195.79 72.7061C1196.4 72.3623 1197.07 72.1904 1197.8 72.1904C1198.54 72.1904 1199.21 72.3623 1199.81 72.7061C1200.41 73.0498 1200.88 73.5243 1201.22 74.1294C1201.57 74.7345 1201.74 75.4077 1201.74 76.1489C1201.74 76.8901 1201.57 77.5633 1201.22 78.1685C1200.88 78.7736 1200.41 79.248 1199.81 79.5918C1199.21 79.9355 1198.54 80.1074 1197.8 80.1074C1197.07 80.1074 1196.4 79.9355 1195.79 79.5918C1195.2 79.248 1194.73 78.7736 1194.39 78.1685C1194.05 77.5633 1193.88 76.8901 1193.88 76.1489C1193.88 75.4077 1194.05 74.7345 1194.39 74.1294C1194.73 73.5243 1195.2 73.0498 1195.79 72.7061ZM1199.41 74.457C1198.98 74.0023 1198.45 73.7749 1197.8 73.7749C1197.16 73.7749 1196.62 74.0023 1196.19 74.457C1195.76 74.9082 1195.55 75.4722 1195.55 76.1489C1195.55 76.8257 1195.76 77.3914 1196.19 77.8462C1196.62 78.3009 1197.16 78.5283 1197.8 78.5283C1198.45 78.5283 1198.98 78.3009 1199.41 77.8462C1199.84 77.3914 1200.06 76.8257 1200.06 76.1489C1200.06 75.4722 1199.84 74.9082 1199.41 74.457ZM1208.94 72.2979H1210.56V80H1208.94V72.2979ZM1213.73 72.2979H1215.11L1218.25 76.7881V72.2979H1219.87V80H1218.51L1215.36 75.5098V80H1213.73V72.2979ZM1225.68 72.2979C1226.41 72.2979 1227.07 72.4626 1227.67 72.792C1228.27 73.1214 1228.74 73.578 1229.08 74.1616C1229.42 74.7453 1229.59 75.397 1229.59 76.1167C1229.59 76.8507 1229.42 77.515 1229.08 78.1094C1228.74 78.7002 1228.27 79.1639 1227.67 79.5005C1227.07 79.8335 1226.41 80 1225.68 80H1223.04V72.2979H1225.68ZM1225.79 78.437C1226.4 78.437 1226.91 78.2168 1227.3 77.7764C1227.7 77.3359 1227.91 76.7827 1227.91 76.1167C1227.91 75.4614 1227.71 74.9225 1227.31 74.5C1226.92 74.0739 1226.41 73.8608 1225.79 73.8608H1224.67V78.437H1225.79ZM1232.53 72.2979H1237.25V73.8608H1234.16V75.2466H1236.91V76.8096H1234.16V78.437H1237.25V80H1232.53V72.2979ZM1246.96 80H1245.02L1243.33 77.481L1241.66 80H1239.75L1242.39 76.0415L1239.89 72.2979H1241.84L1243.36 74.5859L1244.88 72.2979H1246.78L1244.31 76.02L1246.96 80Z" fill="#696969"/>
<path d="M1144 81.6489H1247.04V82.1968H1144V81.6489Z" fill="#696969"/>
<a href="https://www.figma.com/file/FOhC2ZMBEHzVejIYjN6Qfz/%E2%9C%85-MamaMia!-Design-System?node-id=556%3A3901">
<rect fill="black" fill-opacity="0" y="-0.601074" width="103.041" height="13.2021"/>
</a>
<defs>
<clipPath id="clip0_1253_7126">
<rect width="16" height="16" fill="white" transform="translate(1124 67)"/>
</clipPath>
</defs>
</svg>
