<svg width="24" height="24" viewBox="0 0 24 24" fill="none" xmlns="http://www.w3.org/2000/svg">
<path fill-rule="evenodd" clip-rule="evenodd" d="M9 2C9 1.44772 9.44772 1 10 1H14C14.5523 1 15 1.44772 15 2V8.58579L15.8284 9.41421C16.5786 10.1644 17 11.1818 17 12.2426V20C17 21.6569 15.6569 23 14 23H10C8.34315 23 7 21.6569 7 20V12.2426C7 11.1818 7.42143 10.1644 8.17157 9.41421L9 8.58579V2ZM11 3V4H13V3H11ZM13 6H11V9C11 9.26522 10.8946 9.51957 10.7071 9.70711L9.58579 10.8284C9.21071 11.2035 9 11.7122 9 12.2426V20C9 20.5523 9.44772 21 10 21H14C14.5523 21 15 20.5523 15 20V12.2426C15 11.7122 14.7893 11.2035 14.4142 10.8284L13.2929 9.70711C13.1054 9.51957 13 9.26522 13 9V6Z" fill="#000640"/>
</svg>
