<svg width="24" height="24" viewBox="0 0 24 24" fill="none" xmlns="http://www.w3.org/2000/svg">
<path fill-rule="evenodd" clip-rule="evenodd" d="M8 2C8 1.44772 8.44772 1 9 1H15C15.5523 1 16 1.44772 16 2V5.81867L18.809 13.3093C18.9353 13.6461 19 14.0029 19 14.3627V20C19 21.6569 17.6569 23 16 23H8C6.34315 23 5 21.6569 5 20V14.3627C5 14.0029 5.0647 13.6461 5.19101 13.3093L8 5.81867V2ZM9.693 7L7.06367 14.0115C7.02157 14.1238 7 14.2428 7 14.3627V20C7 20.5523 7.44772 21 8 21H16C16.5523 21 17 20.5523 17 20V14.3627C17 14.2428 16.9784 14.1238 16.9363 14.0115L14.307 7H9.693ZM14 5V3H10V5H14Z" fill="#000640"/>
</svg>
