<svg width="24" height="24" viewBox="0 0 24 24" fill="none" xmlns="http://www.w3.org/2000/svg">
<path fill-rule="evenodd" clip-rule="evenodd" d="M3.25855 1.32899C3.44813 1.11951 3.71748 1 4 1H20C20.2825 1 20.5519 1.11951 20.7415 1.32899C20.931 1.53848 21.0232 1.81838 20.995 2.0995L19.1751 20.2985C19.0218 21.8321 17.7313 23 16.19 23H7.80998C6.26872 23 4.97823 21.8321 4.82487 20.2985L3.00497 2.0995C2.97685 1.81838 3.06897 1.53848 3.25855 1.32899ZM5.10499 3L5.50499 7H18.495L18.895 3H5.10499ZM18.295 9H5.70499L6.81494 20.0995C6.86606 20.6107 7.29623 21 7.80998 21H16.19C16.7038 21 17.1339 20.6107 17.1851 20.0995L18.295 9Z" fill="#000640"/>
</svg>
