<svg width="24" height="24" viewBox="0 0 24 24" fill="none" xmlns="http://www.w3.org/2000/svg">
<path d="M15 2C15 1.44772 14.5523 1 14 1C13.4477 1 13 1.44772 13 2V5C13 5.55228 13.4477 6 14 6C14.5523 6 15 5.55228 15 5V2Z" fill="#000640"/>
<path fill-rule="evenodd" clip-rule="evenodd" d="M2 8C1.44772 8 1 8.44772 1 9V18C1 20.7614 3.23858 23 6 23H14C16.7614 23 19 20.7614 19 18V17H20C21.6569 17 23 15.6569 23 14V11C23 9.34315 21.6569 8 20 8H2ZM20 15H19V10H20C20.5523 10 21 10.4477 21 11V14C21 14.5523 20.5523 15 20 15ZM17 10V18C17 19.6569 15.6569 21 14 21H6C4.34315 21 3 19.6569 3 18V10H17Z" fill="#000640"/>
<path d="M10 1C10.5523 1 11 1.44772 11 2V5C11 5.55228 10.5523 6 10 6C9.44771 6 9 5.55228 9 5V2C9 1.44772 9.44771 1 10 1Z" fill="#000640"/>
<path d="M7 2C7 1.44772 6.55228 1 6 1C5.44772 1 5 1.44772 5 2V5C5 5.55228 5.44772 6 6 6C6.55228 6 7 5.55228 7 5V2Z" fill="#000640"/>
</svg>
