<svg width="24" height="24" viewBox="0 0 24 24" fill="none" xmlns="http://www.w3.org/2000/svg">
<path fill-rule="evenodd" clip-rule="evenodd" d="M5.12329 11.7935C4.7322 12.1839 4.73194 12.8175 5.12269 13.2083L10.7919 18.8775C11.1826 19.2682 11.8163 19.268 12.2067 18.8769L19.5351 11.5361L19.5376 11.5336C20.768 10.3098 21.2565 9.0783 21.2376 7.94895C21.2223 7.03779 20.8748 6.08601 20.1483 5.15441C17.6738 6.97924 14.2701 6.96805 11.807 5.12097L5.12329 11.7935ZM13.3234 3.73917C14.9486 4.77104 17.0394 4.77321 18.6666 3.74567C17.8876 3.22009 17.0187 2.91898 16.1447 2.88144C15.23 2.84216 14.2597 3.08883 13.3234 3.73917ZM11.0498 3.05085L3.71026 10.3781C2.53701 11.5494 2.53622 13.4502 3.70848 14.6225L4.58598 15.5L2.54308 17.5429C1.4622 18.6238 1.4622 20.3762 2.54308 21.4571C3.62396 22.538 5.37642 22.538 6.4573 21.4571L8.50019 19.4142L9.37767 20.2917C10.5499 21.464 12.4508 21.4632 13.6221 20.2899L20.9494 12.9502C22.4754 11.4318 23.2673 9.70207 23.2373 7.91543C23.2075 6.13653 22.3658 4.46614 20.9499 3.05025C19.6752 1.77559 18.0104 0.959724 16.2305 0.883285C14.4326 0.806071 12.6049 1.48807 11.0498 3.05085ZM7.08598 18L6.00019 16.9142L3.9573 18.9571C3.65746 19.2569 3.65746 19.7431 3.9573 20.0429C4.25713 20.3427 4.74325 20.3427 5.04308 20.0429L7.08598 18Z" fill="#000640"/>
</svg>
