<svg width="24" height="24" viewBox="0 0 24 24" fill="none" xmlns="http://www.w3.org/2000/svg">
<path fill-rule="evenodd" clip-rule="evenodd" d="M11.126 3C11.5701 1.27477 13.1362 0 15 0C16.8638 0 18.4299 1.27477 18.874 3H19C19.3819 3 19.7305 3.21756 19.8983 3.56065C20.0661 3.90375 20.0238 4.31246 19.7894 4.61394L13 13.3431V21H17C17.5523 21 18 21.4477 18 22C18 22.5522 17.5523 23 17 23H7.00001C6.44772 23 6.00001 22.5522 6.00001 22C6.00001 21.4477 6.44772 21 7.00001 21H11V13.3431L4.21066 4.61394C3.97617 4.31246 3.93389 3.90375 4.10169 3.56065C4.26949 3.21756 4.61807 3 5 3H11.126ZM13.2676 3C13.6134 2.4022 14.2597 2 15 2C15.7403 2 16.3866 2.4022 16.7324 3H13.2676ZM8.60018 6.99996L7.04464 4.99999H16.9554L15.3998 6.99996H8.60018ZM12 11.3711L10.1557 8.99996H13.8443L12 11.3711Z" fill="#000640"/>
</svg>
