<svg width="24" height="24" viewBox="0 0 24 24" fill="none" xmlns="http://www.w3.org/2000/svg">
<path fill-rule="evenodd" clip-rule="evenodd" d="M6.03715 3.00004C6.11467 4.02786 6.31218 4.98456 6.61685 5.83803C7.7964 5.60029 8.76424 5.5366 9.61796 5.57938C10.6515 5.63117 11.4796 5.83869 12.22 6.02421L12.243 6.02999C12.9935 6.21802 13.6556 6.38171 14.4821 6.42313C15.2086 6.45953 16.0928 6.40179 17.2683 6.14217C17.6384 5.21422 17.876 4.15178 17.9629 3.00004H6.03715ZM15.8705 8.38704C15.3314 8.43588 14.8403 8.44359 14.382 8.42062C13.3485 8.36883 12.5204 8.16132 11.78 7.9758L11.757 7.97002C11.0065 7.78198 10.3444 7.61829 9.51786 7.57687C8.97401 7.54962 8.3417 7.57514 7.56495 7.69863C8.58817 9.14749 10.0795 10 12 10C13.5928 10 14.8903 9.41364 15.8705 8.38704ZM4.99999 1.00005H19C19.5523 1.00005 20 1.44776 20 2.00005C20 3.96983 19.6319 5.83823 18.893 7.42267C17.7644 9.84258 15.7585 11.5979 13 11.9394V21H17C17.5523 21 18 21.4477 18 22C18 22.5523 17.5523 23 17 23H7C6.44772 23 6 22.5523 6 22C6 21.4477 6.44772 21 7 21H11V11.9394C8.24154 11.5979 6.23561 9.84258 5.10703 7.42267C4.3681 5.83823 4 3.96983 4 2.00005C4 1.44776 4.44771 1.00005 4.99999 1.00005Z" fill="#000640"/>
</svg>
