<svg width="24" height="24" viewBox="0 0 24 24" fill="none" xmlns="http://www.w3.org/2000/svg">
<path fill-rule="evenodd" clip-rule="evenodd" d="M6.0371 3.00004C6.18105 4.91025 6.73881 6.56555 7.62053 7.77483C8.63156 9.16147 10.089 10 12 10C13.911 10 15.3684 9.16147 16.3795 7.77483C17.2612 6.56555 17.8189 4.91025 17.9629 3.00004H6.0371ZM4.99999 1.00005H19C19.5523 1.00005 20 1.44776 20 2.00005C20 4.63874 19.3382 7.11157 17.9955 8.95312C16.8123 10.576 15.1183 11.6761 13 11.9392V21H17C17.5523 21 18 21.4477 18 22C18 22.5523 17.5523 23 17 23H7C6.44772 23 6 22.5523 6 22C6 21.4477 6.44772 21 7 21H11V11.9392C8.88167 11.6761 7.18773 10.576 6.00448 8.95312C4.66176 7.11157 4 4.63875 4 2.00005C4 1.44776 4.44771 1.00005 4.99999 1.00005Z" fill="#000640"/>
</svg>
