<svg width="24" height="24" viewBox="0 0 24 24" fill="none" xmlns="http://www.w3.org/2000/svg">
<path fill-rule="evenodd" clip-rule="evenodd" d="M1 2C1 1.44772 1.44772 1 2 1H5C5.38569 1 5.73701 1.22181 5.90284 1.57003L7.06008 4H22C22.3033 4 22.5902 4.13767 22.78 4.37427C22.9698 4.61087 23.042 4.92083 22.9762 5.21693L21.293 12.7912C21.0099 14.0652 19.9357 15.01 18.6361 15.1281L10.7849 15.8419C9.31975 15.9751 7.97419 15.0261 7.60782 13.6013L5.48429 5.34267L4.36863 3H2C1.44772 3 1 2.55228 1 2Z" fill="#000640"/>
<path fill-rule="evenodd" clip-rule="evenodd" d="M8 23C9.65685 23 11 21.6569 11 20C11 18.3431 9.65685 17 8 17C6.34315 17 5 18.3431 5 20C5 21.6569 6.34315 23 8 23Z" fill="#000640"/>
<path fill-rule="evenodd" clip-rule="evenodd" d="M22 20C22 21.6569 20.6569 23 19 23C17.3431 23 16 21.6569 16 20C16 18.3431 17.3431 17 19 17C20.6569 17 22 18.3431 22 20Z" fill="#000640"/>
</svg>
