<svg width="24" height="24" viewBox="0 0 24 24" fill="none" xmlns="http://www.w3.org/2000/svg">
<path fill-rule="evenodd" clip-rule="evenodd" d="M20 1C21.6569 1 23 2.34315 23 4V17.1492C23 19.0398 20.6193 19.8749 19.4383 18.3986L17.5194 16H17C17 17.6569 15.6569 19 14 19H7.41421L4.41421 22C3.15428 23.2599 1 22.3676 1 20.5858V7C1 5.34315 2.34315 4 4 4H7C7 2.34315 8.34315 1 10 1H20ZM9 4H14C15.6569 4 17 5.34315 17 7V14H18C18.3038 14 18.5911 14.1381 18.7809 14.3753L21 17.1492V4C21 3.44772 20.5523 3 20 3H10C9.44771 3 9 3.44772 9 4Z" fill="#000640"/>
</svg>
