<svg width="24" height="24" viewBox="0 0 24 24" fill="none" xmlns="http://www.w3.org/2000/svg">
<path d="M12.5581 21.8298C12.2206 22.0567 11.7794 22.0567 11.4419 21.8298L11.4387 21.8276L11.4319 21.823L11.4077 21.8066C11.3869 21.7924 11.3569 21.7718 11.3183 21.745C11.241 21.6915 11.1294 21.6134 10.9883 21.5124C10.7061 21.3104 10.3055 21.0167 9.82575 20.6457C8.86795 19.905 7.58694 18.8502 6.30195 17.5975C5.02067 16.3484 3.71186 14.8799 2.7176 13.3095C1.72981 11.7493 1 10.0062 1 8.2284C1 4.74404 3.14752 2.47124 5.82727 2.06469C8.02171 1.73176 10.3849 2.674 12 4.88491C13.6151 2.674 15.9783 1.73176 18.1727 2.06469C20.8525 2.47124 23 4.74404 23 8.2284C23 10.0062 22.2702 11.7493 21.2824 13.3095C20.2881 14.8799 18.9793 16.3484 17.6981 17.5975C16.4131 18.8502 15.132 19.905 14.1742 20.6457C13.6945 21.0167 13.2939 21.3104 13.0117 21.5124C12.8706 21.6134 12.759 21.6915 12.6817 21.745C12.6431 21.7718 12.6131 21.7924 12.5923 21.8066L12.5681 21.823L12.5613 21.8276L12.5581 21.8298Z" fill="#000640"/>
</svg>
