<svg width="24" height="24" viewBox="0 0 24 24" fill="none" xmlns="http://www.w3.org/2000/svg">
<path fill-rule="evenodd" clip-rule="evenodd" d="M12 24C18.6274 24 24 18.6274 24 12C24 5.37258 18.6274 0 12 0C5.37258 0 0 5.37258 0 12C0 18.6274 5.37258 24 12 24ZM8.70711 7.29289C8.31658 6.90237 7.68342 6.90237 7.29289 7.29289C6.90237 7.68342 6.90237 8.31658 7.29289 8.70711L10.5857 12L7.29289 15.2928C6.90237 15.6833 6.90237 16.3165 7.29289 16.707C7.68342 17.0975 8.31658 17.0975 8.70711 16.707L12 13.4142L15.2929 16.7071C15.6834 17.0976 16.3166 17.0976 16.7071 16.7071C17.0976 16.3166 17.0976 15.6834 16.7071 15.2929L13.4142 12L16.7071 8.70702C17.0976 8.31649 17.0976 7.68333 16.7071 7.2928C16.3166 6.90228 15.6834 6.90228 15.2929 7.2928L12 10.5857L8.70711 7.29289Z" fill="#000640"/>
</svg>
