<svg width="24" height="24" viewBox="0 0 24 24" fill="none" xmlns="http://www.w3.org/2000/svg">
<path d="M9.75 3.75V20.25C9.75 20.8467 9.51295 21.419 9.09099 21.841C8.66903 22.2629 8.09674 22.5 7.5 22.5H6.75C6.15326 22.5 5.58097 22.2629 5.15901 21.841C4.73705 21.419 4.5 20.8467 4.5 20.25V3.75C4.5 3.15326 4.73705 2.58097 5.15901 2.15901C5.58097 1.73705 6.15326 1.5 6.75 1.5H7.5C8.09674 1.5 8.66903 1.73705 9.09099 2.15901C9.51295 2.58097 9.75 3.15326 9.75 3.75ZM17.25 1.5H16.5C15.9033 1.5 15.331 1.73705 14.909 2.15901C14.4871 2.58097 14.25 3.15326 14.25 3.75V20.25C14.25 20.8467 14.4871 21.419 14.909 21.841C15.331 22.2629 15.9033 22.5 16.5 22.5H17.25C17.8467 22.5 18.419 22.2629 18.841 21.841C19.2629 21.419 19.5 20.8467 19.5 20.25V3.75C19.5 3.15326 19.2629 2.58097 18.841 2.15901C18.419 1.73705 17.8467 1.5 17.25 1.5Z" fill="#000640"/>
</svg>
