<svg width="24" height="24" viewBox="0 0 24 24" fill="none" xmlns="http://www.w3.org/2000/svg">
<path fill-rule="evenodd" clip-rule="evenodd" d="M7.63547 1.68124C8.40285 1.20568 9.3887 1 10.4982 1C10.857 1 11.1884 1.19229 11.3664 1.50386C12.2052 2.97175 13.1813 3.98069 14.1903 5.02372C14.2953 5.13228 14.4007 5.2412 14.5063 5.35105C15.4839 6.36787 16.4741 7.45876 17.1699 9H20.9982C21.5505 9 21.9982 9.44772 21.9982 10V20C21.9982 20.5523 21.5505 21 20.9982 21H16.5777L8.78813 22.2463C5.75021 22.7324 2.99818 20.3857 2.99818 17.3091V14.1926L2.16681 12.1142C1.37894 10.1445 2.82761 8 4.95099 8H7.46983C7.16173 7.5326 6.90599 7.07555 6.70471 6.63192C6.27418 5.68299 6.06472 4.73182 6.19674 3.85166C6.33466 2.9322 6.83469 2.1775 7.63547 1.68124ZM17.4982 19H19.9982V11H17.4982V19Z" fill="#000640"/>
</svg>
