<svg width="24" height="24" viewBox="0 0 24 24" fill="none" xmlns="http://www.w3.org/2000/svg">
<path fill-rule="evenodd" clip-rule="evenodd" d="M7.63547 22.3188C8.40285 22.7943 9.3887 23 10.4982 23C10.857 23 11.1884 22.8077 11.3664 22.4961C12.2052 21.0282 13.1813 20.0193 14.1903 18.9763C14.2953 18.8677 14.4007 18.7588 14.5063 18.6489C15.4839 17.6321 16.4741 16.5412 17.1699 15H20.9982C21.5505 15 21.9982 14.5523 21.9982 14V4C21.9982 3.44772 21.5505 3 20.9982 3H16.5777L8.78813 1.75368C5.75021 1.26761 2.99818 3.61432 2.99818 6.69088V9.80742L2.16681 11.8858C1.37894 13.8555 2.82761 16 4.95099 16H7.46983C7.16173 16.4674 6.90599 16.9244 6.70471 17.3681C6.27418 18.317 6.06472 19.2682 6.19674 20.1483C6.33466 21.0678 6.83469 21.8225 7.63547 22.3188ZM17.4982 5H19.9982V13H17.4982V5Z" fill="#000640"/>
</svg>
