<svg width="24" height="24" viewBox="0 0 24 24" fill="none" xmlns="http://www.w3.org/2000/svg">
<path fill-rule="evenodd" clip-rule="evenodd" d="M18.0015 7C18.0015 10.3137 15.3152 13 12.0015 13C8.68776 13 6.00146 10.3137 6.00146 7C6.00146 3.68629 8.68776 1 12.0015 1C15.3152 1 18.0015 3.68629 18.0015 7Z" fill="#000640"/>
<path fill-rule="evenodd" clip-rule="evenodd" d="M12.0015 14C9.06641 14 6.95016 14.6088 5.43211 15.5217C3.908 16.4383 3.05193 17.6224 2.5792 18.6581C2.18071 19.5311 2.36208 20.4207 2.89151 21.0546C3.39618 21.6587 4.18086 22 5.00152 22H19.0015C19.8221 22 20.6068 21.6588 21.1115 21.0546C21.6409 20.4208 21.8223 19.5311 21.4238 18.6582C20.9511 17.6225 20.0951 16.4383 18.571 15.5218C17.0529 14.6088 14.9367 14 12.0015 14Z" fill="#000640"/>
</svg>
