<svg width="24" height="24" viewBox="0 0 24 24" fill="none" xmlns="http://www.w3.org/2000/svg">
<path fill-rule="evenodd" clip-rule="evenodd" d="M12 24C18.6274 24 24 18.6274 24 12C24 5.37258 18.6274 0 12 0C5.37258 0 0 5.37258 0 12C0 18.6274 5.37258 24 12 24ZM10.5664 7.06238C10.5304 6.48668 10.9876 6 11.5644 6H12.4355C13.0124 6 13.4696 6.48668 13.4336 7.06238L13.0293 13.5312C13.0128 13.7947 12.7943 14 12.5303 14H11.4697C11.2057 14 10.9872 13.7947 10.9707 13.5312L10.5664 7.06238ZM12 18C12.8284 18 13.5 17.3284 13.5 16.5C13.5 15.6716 12.8284 15 12 15C11.1716 15 10.5 15.6716 10.5 16.5C10.5 17.3284 11.1716 18 12 18Z" fill="#000640"/>
</svg>
