<svg width="24" height="24" viewBox="0 0 24 24" fill="none" xmlns="http://www.w3.org/2000/svg">
<path fill-rule="evenodd" clip-rule="evenodd" d="M14.8938 6.0112C14.3737 4.1022 12.0492 3.13438 10.2924 4.35062L2.80604 9.53348C1.08288 10.7264 1.08288 13.2737 2.80604 14.4666L10.2924 19.6495C12.0492 20.8657 14.3737 19.8979 14.8938 17.9889L17.2925 19.6495C19.2822 21.027 22.0001 19.6029 22.0001 17.1829V6.81719C22.0001 4.39721 19.2822 2.97314 17.2925 4.35062L14.8938 6.0112ZM3.94446 11.1779C3.37008 11.5755 3.37007 12.4246 3.94446 12.8222L11.4308 18.0051C12.0941 18.4643 13 17.9896 13 17.1829V16.6778L9.8061 14.4666C8.08294 13.2737 8.08294 10.7264 9.8061 9.53348L13 7.3223V6.81719C13 6.01053 12.0941 5.53584 11.4308 5.995L3.94446 11.1779ZM10.9445 11.1779C10.3701 11.5755 10.3701 12.4246 10.9445 12.8222L18.4309 18.0051C19.0941 18.4643 20.0001 17.9896 20.0001 17.1829V6.81719C20.0001 6.01053 19.0941 5.53584 18.4309 5.995L10.9445 11.1779Z" fill="#000640"/>
</svg>
