<svg width="24" height="24" viewBox="0 0 24 24" fill="none" xmlns="http://www.w3.org/2000/svg">
<g clip-path="url(#clip0_1253_5661)">
<path fill-rule="evenodd" clip-rule="evenodd" d="M12 0C5.37258 0 0 5.37258 0 12C0 12.7439 0.0678062 13.4728 0.197831 14.1807C0.641314 16.595 1.80662 18.7552 3.45939 20.4296C5.63406 22.6327 8.65828 24 12 24C18.6274 24 24 18.6274 24 12C24 11.2107 23.9237 10.4382 23.7776 9.68984C23.3055 7.26975 22.1068 5.11136 20.4203 3.45027C18.2551 1.31765 15.2805 0 12 0ZM2.17307 13.8631L2.09479 13H8.12602C8.21967 13.3639 8.36324 13.7077 8.54898 14.0238L4.21724 18.2798C3.20074 17.0218 2.48388 15.5136 2.17307 13.8631ZM9.95987 15.4413L5.62256 19.7029C7.35407 21.1383 9.57571 22 12 22C17.5228 22 22 17.5228 22 12C22 11.6885 21.9858 11.3805 21.958 11.0767L15.9877 12.3163C15.8265 14.3776 14.1027 16 12 16C11.2548 16 10.5572 15.7962 9.95987 15.4413ZM15.6427 10.3452L21.5772 9.11309C21.1861 7.81352 20.5372 6.62473 19.6893 5.60624L15.4014 9.89413C15.4911 10.0386 15.5718 10.1892 15.6427 10.3452ZM13.9567 8.51044L18.2633 4.20386C16.5488 2.82446 14.3714 2 12 2C6.81465 2 2.5511 5.94668 2.04938 11H8.12602C8.57006 9.27477 10.1362 8 12 8C12.7108 8 13.3782 8.18538 13.9567 8.51044ZM10 12C10 10.8954 10.8954 10 12 10C13.1046 10 14 10.8954 14 12C14 13.1046 13.1046 14 12 14C10.8954 14 10 13.1046 10 12Z" fill="#000640"/>
</g>
<defs>
<clipPath id="clip0_1253_5661">
<rect width="24" height="24" fill="white"/>
</clipPath>
</defs>
</svg>
