<svg width="24" height="24" viewBox="0 0 24 24" fill="none" xmlns="http://www.w3.org/2000/svg">
<g clip-path="url(#clip0_1253_5711)">
<path fill-rule="evenodd" clip-rule="evenodd" d="M16.8817 13.4719C16.7077 13.797 16.3688 14 16 14L8 14C7.6312 14 7.29234 13.797 7.11832 13.4719C6.9443 13.1467 6.96338 12.7522 7.16795 12.4453L11.1679 6.4453C11.3534 6.1671 11.6656 6 12 6C12.3344 6 12.6466 6.1671 12.832 6.4453L16.832 12.4453C17.0366 12.7522 17.0557 13.1467 16.8817 13.4719ZM14.1315 12L12 8.80278L9.86852 12L14.1315 12Z" fill="#000640"/>
<path d="M16 17C16.5523 17 17 16.5523 17 16C17 15.4477 16.5523 15 16 15H8C7.44771 15 7 15.4477 7 16C7 16.5523 7.44771 17 8 17H16Z" fill="#000640"/>
<path fill-rule="evenodd" clip-rule="evenodd" d="M12 24C18.6274 24 24 18.6274 24 12C24 5.37258 18.6274 0 12 0C5.37258 0 0 5.37258 0 12C0 18.6274 5.37258 24 12 24ZM12 22C17.5228 22 22 17.5228 22 12C22 6.47715 17.5228 2 12 2C6.47715 2 2 6.47715 2 12C2 17.5228 6.47715 22 12 22Z" fill="#000640"/>
</g>
<defs>
<clipPath id="clip0_1253_5711">
<rect width="24" height="24" fill="white"/>
</clipPath>
</defs>
</svg>
