<svg width="24" height="24" viewBox="0 0 24 24" fill="none" xmlns="http://www.w3.org/2000/svg">
<path fill-rule="evenodd" clip-rule="evenodd" d="M9.10621 6.01111L6.70763 4.35056C4.71793 2.97307 2 4.39715 2 6.81713L2 17.1829C2 19.6028 4.71794 21.0269 6.70763 19.6494L9.10621 17.9889C9.62635 19.8979 11.9509 20.8657 13.7076 19.6494L21.194 14.4666C22.9172 13.2736 22.9171 10.7264 21.194 9.53342L13.7076 4.35056C11.9509 3.13432 9.62635 4.10213 9.10621 6.01111ZM13.0556 12.8222C13.63 12.4245 13.63 11.5755 13.0556 11.1778L5.56921 5.99494C4.90598 5.53578 4 6.01047 4 6.81713L4 17.1829C4 17.9895 4.90598 18.4642 5.56921 18.0051L13.0556 12.8222ZM14.194 9.53342C15.9171 10.7264 15.9172 13.2736 14.194 14.4666L11 16.6778V17.1829C11 17.9895 11.906 18.4642 12.5692 18.0051L20.0556 12.8222C20.63 12.4245 20.63 11.5755 20.0556 11.1778L12.5692 5.99494C11.906 5.53578 11 6.01047 11 6.81713V7.3222L14.194 9.53342Z" fill="#000640"/>
</svg>
