<svg width="24" height="24" viewBox="0 0 24 24" fill="none" xmlns="http://www.w3.org/2000/svg">
<path fill-rule="evenodd" clip-rule="evenodd" d="M15.9256 14.4106C17.5447 13.2113 17.5447 10.7886 15.9256 9.58928L7.78568 3.5597C5.80578 2.09311 3 3.50646 3 5.97037V18.0295C3 20.4935 5.80579 21.9068 7.78568 20.4402L15.9256 14.4106ZM14.7352 11.1964C15.2749 11.5962 15.2749 12.4037 14.7352 12.8035L6.59523 18.8331C5.93526 19.322 5 18.8508 5 18.0295L5 5.97037C5 5.14907 5.93526 4.67795 6.59523 5.16682L14.7352 11.1964Z" fill="#000640"/>
<path d="M21 4C21 3.44772 20.5523 3 20 3C19.4477 3 19 3.44772 19 4V20C19 20.5523 19.4477 21 20 21C20.5523 21 21 20.5523 21 20V4Z" fill="#000640"/>
</svg>
