<svg width="24" height="24" viewBox="0 0 24 24" fill="none" xmlns="http://www.w3.org/2000/svg">
<g clip-path="url(#clip0_1253_5715)">
<path fill-rule="evenodd" clip-rule="evenodd" d="M15 12C15 12.3344 14.8329 12.6466 14.5547 12.8321L8.5547 16.8321C8.24784 17.0366 7.8533 17.0557 7.52814 16.8817C7.20298 16.7077 7 16.3688 7 16L7 8C7 7.63121 7.20298 7.29235 7.52814 7.11833C7.8533 6.94431 8.24784 6.96338 8.5547 7.16795L14.5547 11.168C14.8329 11.3534 15 11.6657 15 12ZM9 9.86852L9 14.1315L12.1972 12L9 9.86852Z" fill="#000640"/>
<path d="M18 8C18 7.44772 17.5523 7 17 7C16.4477 7 16 7.44772 16 8V16C16 16.5523 16.4477 17 17 17C17.5523 17 18 16.5523 18 16V8Z" fill="#000640"/>
<path fill-rule="evenodd" clip-rule="evenodd" d="M12 24C18.6274 24 24 18.6274 24 12C24 5.37258 18.6274 0 12 0C5.37258 0 0 5.37258 0 12C0 18.6274 5.37258 24 12 24ZM12 22C17.5228 22 22 17.5228 22 12C22 6.47715 17.5228 2 12 2C6.47715 2 2 6.47715 2 12C2 17.5228 6.47715 22 12 22Z" fill="#000640"/>
</g>
<defs>
<clipPath id="clip0_1253_5715">
<rect width="24" height="24" fill="white"/>
</clipPath>
</defs>
</svg>
