<svg width="24" height="24" viewBox="0 0 24 24" fill="none" xmlns="http://www.w3.org/2000/svg">
<path fill-rule="evenodd" clip-rule="evenodd" d="M15.5145 12.8575C15.8157 12.6768 16 12.3513 16 12C16 11.6487 15.8157 11.3232 15.5145 11.1425L10.5145 8.14251C10.2056 7.95715 9.82081 7.95229 9.5073 8.1298C9.19379 8.30731 9 8.63973 9 9L9 15C9 15.3603 9.19379 15.6927 9.5073 15.8702C9.82081 16.0477 10.2056 16.0429 10.5145 15.8575L15.5145 12.8575ZM11 13.2338V10.7662L13.0563 12L11 13.2338Z" fill="#000640"/>
<path fill-rule="evenodd" clip-rule="evenodd" d="M4 1C2.34315 1 1 2.34315 1 4V20C1 21.6569 2.34315 23 4 23H20C21.6569 23 23 21.6569 23 20V4C23 2.34315 21.6569 1 20 1H4ZM3 4C3 3.44772 3.44772 3 4 3H7V5H3V4ZM15 5H9V3H15V5ZM21 5H17V3H20C20.5523 3 21 3.44772 21 4V5ZM3 7H21V17H3V7ZM17 19H21V20C21 20.5523 20.5523 21 20 21H17V19ZM9 19H15V21H9V19ZM3 19H7V21H4C3.44772 21 3 20.5523 3 20V19Z" fill="#000640"/>
</svg>
