<svg width="24" height="24" viewBox="0 0 24 24" fill="none" xmlns="http://www.w3.org/2000/svg">
<g clip-path="url(#clip0_1253_5729)">
<path fill-rule="evenodd" clip-rule="evenodd" d="M12 11.5351C11.4117 11.1948 10.7286 11 10 11C7.79086 11 6 12.7909 6 15C6 17.2091 7.79086 19 10 19C12.2091 19 14 17.2091 14 15V7C15.3807 7 16.5 8.11929 16.5 9.5C16.5 10.0523 16.9477 10.5 17.5 10.5C18.0523 10.5 18.5 10.0523 18.5 9.5C18.5 7.01472 16.4853 5 14 5H13C12.4477 5 12 5.44772 12 6V11.5351ZM10 13C8.89543 13 8 13.8954 8 15C8 16.1046 8.89543 17 10 17C11.1046 17 12 16.1046 12 15C12 13.8954 11.1046 13 10 13Z" fill="#000640"/>
<path fill-rule="evenodd" clip-rule="evenodd" d="M0 12C0 5.37258 5.37258 0 12 0C18.6274 0 24 5.37258 24 12C24 18.6274 18.6274 24 12 24C5.37258 24 0 18.6274 0 12ZM12 2C6.47715 2 2 6.47715 2 12C2 17.5228 6.47715 22 12 22C17.5228 22 22 17.5228 22 12C22 6.47715 17.5228 2 12 2Z" fill="#000640"/>
</g>
<defs>
<clipPath id="clip0_1253_5729">
<rect width="24" height="24" fill="white"/>
</clipPath>
</defs>
</svg>
