<svg width="24" height="24" viewBox="0 0 24 24" fill="none" xmlns="http://www.w3.org/2000/svg">
<path d="M18.7071 2.29289C18.3166 1.90237 17.6834 1.90237 17.2929 2.29289C16.9024 2.68342 16.9024 3.31658 17.2929 3.70711L18.5858 5H7C4.79086 5 3 6.79086 3 9V10C3 10.5523 3.44772 11 4 11C4.55228 11 5 10.5523 5 10V9C5 7.89543 5.89543 7 7 7H18.5858L17.2929 8.29289C16.9024 8.68342 16.9024 9.31658 17.2929 9.70711C17.6834 10.0976 18.3166 10.0976 18.7071 9.70711L21.7071 6.70711C22.0976 6.31658 22.0976 5.68342 21.7071 5.29289L18.7071 2.29289Z" fill="#000640"/>
<path d="M6.70711 15.7071C7.09763 15.3166 7.09763 14.6834 6.70711 14.2929C6.31658 13.9024 5.68342 13.9024 5.29289 14.2929L2.29289 17.2929C1.90237 17.6834 1.90237 18.3166 2.29289 18.7071L5.29289 21.7071C5.68342 22.0976 6.31658 22.0976 6.70711 21.7071C7.09763 21.3166 7.09763 20.6834 6.70711 20.2929L5.41421 19H18C20.2091 19 22 17.2091 22 15V14C22 13.4477 21.5523 13 21 13C20.4477 13 20 13.4477 20 14V15C20 16.1046 19.1046 17 18 17H5.41421L6.70711 15.7071Z" fill="#000640"/>
</svg>
