<svg width="24" height="24" viewBox="0 0 24 24" fill="none" xmlns="http://www.w3.org/2000/svg">
<path fill-rule="evenodd" clip-rule="evenodd" d="M3 7L4.12602 7C4.57006 5.27477 6.13616 4 8 4C9.86384 4 11.4299 5.27477 11.874 7H21C21.5523 7 22 7.44771 22 8C22 8.55228 21.5523 9 21 9H11.874C11.4299 10.7252 9.86384 12 8 12C6.13616 12 4.57006 10.7252 4.12602 9L3 9C2.44772 9 2 8.55228 2 8C2 7.44771 2.44772 7 3 7ZM10 8C10 6.89543 9.10457 6 8 6C6.89543 6 6 6.89543 6 8C6 9.10457 6.89543 10 8 10C9.10457 10 10 9.10457 10 8Z" fill="#000640"/>
<path fill-rule="evenodd" clip-rule="evenodd" d="M21 15H19.874C19.4299 13.2748 17.8638 12 16 12C14.1362 12 12.5701 13.2748 12.126 15L3 15C2.44772 15 2 15.4477 2 16C2 16.5523 2.44772 17 3 17L12.126 17C12.5701 18.7252 14.1362 20 16 20C17.8638 20 19.4299 18.7252 19.874 17H21C21.5523 17 22 16.5523 22 16C22 15.4477 21.5523 15 21 15ZM18 16C18 14.8954 17.1046 14 16 14C14.8954 14 14 14.8954 14 16C14 17.1046 14.8954 18 16 18C17.1046 18 18 17.1046 18 16Z" fill="#000640"/>
</svg>
