<svg width="24" height="24" viewBox="0 0 24 24" fill="none" xmlns="http://www.w3.org/2000/svg">
<path d="M4 2C4.55228 2 5 2.44772 5 3V7H6C6.55228 7 7 7.44772 7 8C7 8.55228 6.55228 9 6 9H5V21C5 21.5523 4.55228 22 4 22C3.44772 22 3 21.5523 3 21V9H2C1.44772 9 1 8.55228 1 8C1 7.44772 1.44772 7 2 7H3V3C3 2.44772 3.44772 2 4 2Z" fill="#000640"/>
<path d="M12 2C12.5523 2 13 2.44772 13 3V15H14C14.5523 15 15 15.4477 15 16C15 16.5523 14.5523 17 14 17H13V21C13 21.5523 12.5523 22 12 22C11.4477 22 11 21.5523 11 21V17H10C9.44771 17 9 16.5523 9 16C9 15.4477 9.44771 15 10 15H11V3C11 2.44772 11.4477 2 12 2Z" fill="#000640"/>
<path d="M21 3C21 2.44772 20.5523 2 20 2C19.4477 2 19 2.44772 19 3V7H18C17.4477 7 17 7.44772 17 8C17 8.55228 17.4477 9 18 9H19V21C19 21.5523 19.4477 22 20 22C20.5523 22 21 21.5523 21 21V9H22C22.5523 9 23 8.55228 23 8C23 7.44772 22.5523 7 22 7H21V3Z" fill="#000640"/>
</svg>
