<svg width="24" height="24" viewBox="0 0 24 24" fill="none" xmlns="http://www.w3.org/2000/svg">
<path d="M20 13C20 13.5523 19.5523 14 19 14C18.4477 14 18 13.5523 18 13C18 12.4477 18.4477 12 19 12C19.5523 12 20 12.4477 20 13Z" fill="#000640"/>
<path d="M19 18C19.5523 18 20 17.5523 20 17C20 16.4477 19.5523 16 19 16C18.4477 16 18 16.4477 18 17C18 17.5523 18.4477 18 19 18Z" fill="#000640"/>
<path fill-rule="evenodd" clip-rule="evenodd" d="M6.21913 1.37534C6.56414 0.94408 7.19343 0.874158 7.62469 1.21917L12 4.71941L16.3753 1.21917C16.8066 0.874158 17.4359 0.94408 17.7809 1.37534C18.1259 1.8066 18.056 2.4359 17.6247 2.78091L14.8508 5.00004H20C21.6569 5.00004 23 6.34318 23 8.00004V19C23 20.6569 21.6569 22 20 22H4C2.34315 22 1 20.6569 1 19V8.00004C1 6.34318 2.34315 5.00004 4 5.00004H9.14922L6.37531 2.78091C5.94404 2.4359 5.87412 1.8066 6.21913 1.37534ZM4 7.00004C3.44772 7.00004 3 7.44775 3 8.00004V19C3 19.5523 3.44772 20 4 20H15V7.00004H4ZM17 7.00004V20H20C20.5523 20 21 19.5523 21 19V8.00004C21 7.44775 20.5523 7.00004 20 7.00004H17Z" fill="#000640"/>
</svg>
