<svg width="24" height="24" viewBox="0 0 24 24" fill="none" xmlns="http://www.w3.org/2000/svg">
<path fill-rule="evenodd" clip-rule="evenodd" d="M15.2809 8.2864C16.3199 7.56394 17 6.3614 17 5C17 2.79086 15.2091 1 13 1C10.7909 1 9 2.79086 9 5C9 2.79086 7.20914 1 5 1C2.79086 1 1 2.79086 1 5C1 6.3614 1.68012 7.56394 2.71913 8.28641C1.70297 8.7669 1 9.80136 1 11V19C1 20.6569 2.34315 22 4 22H14C15.5283 22 16.7897 20.8572 16.9762 19.3795L21.6838 20.9487C21.9887 21.0503 22.3239 20.9992 22.5847 20.8112C22.8455 20.6233 23 20.3214 23 20V10C23 9.67856 22.8455 9.37671 22.5847 9.18876C22.3239 9.00081 21.9887 8.94967 21.6838 9.05132L16.9762 10.6205C16.8456 9.58584 16.1881 8.71536 15.2809 8.2864ZM5 7C6.10457 7 7 6.10457 7 5C7 3.89543 6.10457 3 5 3C3.89543 3 3 3.89543 3 5C3 6.10457 3.89543 7 5 7ZM9 5C9 6.19469 8.47625 7.26706 7.64582 8H10.3542C9.52376 7.26706 9 6.19469 9 5ZM17 17.2792L21 18.6126V11.3874L17 12.7208V17.2792ZM4 10C3.44772 10 3 10.4477 3 11V19C3 19.5523 3.44772 20 4 20H14C14.5523 20 15 19.5523 15 19V11C15 10.4477 14.5523 10 14 10H4ZM15 5C15 6.10457 14.1046 7 13 7C11.8954 7 11 6.10457 11 5C11 3.89543 11.8954 3 13 3C14.1046 3 15 3.89543 15 5Z" fill="#000640"/>
</svg>
