<svg width="24" height="24" viewBox="0 0 24 24" fill="none" xmlns="http://www.w3.org/2000/svg">
<path fill-rule="evenodd" clip-rule="evenodd" d="M0 6C0 4.34315 1.34315 3 3 3H15C16.6569 3 18 4.34315 18 6V7.61257L22.6838 6.05132C22.9887 5.94967 23.3239 6.00081 23.5847 6.18876C23.8455 6.37671 24 6.67856 24 7V17.5C24 17.8344 23.8329 18.1466 23.5547 18.3321C23.2765 18.5175 22.924 18.5517 22.6154 18.4231L18 16.5V18C18 19.6569 16.6569 21 15 21H3C1.34315 21 0 19.6569 0 18V6ZM18 14.3333L22 16V8.38743L18 9.72076V14.3333ZM3 5C2.44772 5 2 5.44772 2 6V18C2 18.5523 2.44772 19 3 19H15C15.5523 19 16 18.5523 16 18V6C16 5.44772 15.5523 5 15 5H3Z" fill="#000640"/>
</svg>
