<svg width="24" height="24" viewBox="0 0 24 24" fill="none" xmlns="http://www.w3.org/2000/svg">
<path fill-rule="evenodd" clip-rule="evenodd" d="M12.4242 2.09442C12.7755 2.259 13 2.61199 13 3.00001V21C13 21.388 12.7755 21.741 12.4242 21.9056C12.0728 22.0702 11.6579 22.0166 11.3598 21.7682L5.63795 17H2C1.44772 17 1 16.5523 1 16V8.00001C1 7.44773 1.44772 7.00001 2 7.00001H5.63795L11.3598 2.23179C11.6579 1.98339 12.0728 1.92984 12.4242 2.09442ZM11 5.13505L6.64018 8.76823C6.46047 8.918 6.23394 9.00001 6 9.00001H3V15H6C6.23394 15 6.46047 15.082 6.64018 15.2318L11 18.865V5.13505Z" fill="#000640"/>
<path d="M15.2929 8.29289C15.6834 7.90237 16.3166 7.90237 16.7071 8.29289L19 10.5858L21.2929 8.29289C21.6834 7.90237 22.3166 7.90237 22.7071 8.29289C23.0976 8.68342 23.0976 9.31658 22.7071 9.70711L20.4142 12L22.7071 14.2929C23.0976 14.6834 23.0976 15.3166 22.7071 15.7071C22.3166 16.0976 21.6834 16.0976 21.2929 15.7071L19 13.4142L16.7071 15.7071C16.3166 16.0976 15.6834 16.0976 15.2929 15.7071C14.9024 15.3166 14.9024 14.6834 15.2929 14.2929L17.5858 12L15.2929 9.70711C14.9024 9.31658 14.9024 8.68342 15.2929 8.29289Z" fill="#000640"/>
</svg>
