<svg width="24" height="24" viewBox="0 0 24 24" fill="none" xmlns="http://www.w3.org/2000/svg">
<path d="M12 1C11.4477 1 11 1.44772 11 2C11 2.55228 11.4477 3 12 3C16.9706 3 21 7.02944 21 12C21 12.5523 21.4477 13 22 13C22.5523 13 23 12.5523 23 12C23 5.92487 18.0751 1 12 1Z" fill="#000640"/>
<path fill-rule="evenodd" clip-rule="evenodd" d="M4.61732 3.07615C4.99099 2.92137 5.42111 3.00692 5.70711 3.29292L20.7071 18.2929C20.9931 18.5789 21.0787 19.009 20.9239 19.3827C20.7691 19.7564 20.4045 20 20 20H10.4142L7.70711 22.7071C7.31658 23.0977 6.68342 23.0977 6.29289 22.7071L1.29289 17.7071C0.902369 17.3166 0.902369 16.6834 1.29289 16.2929L4 13.5858V4.00003C4 3.59557 4.24364 3.23093 4.61732 3.07615ZM6 6.41424V14C6 14.2652 5.89464 14.5196 5.70711 14.7071L3.41421 17L7 20.5858L9.29289 18.2929C9.48043 18.1054 9.73478 18 10 18H17.5858L6 6.41424Z" fill="#000640"/>
<path d="M12 6C12 5.44772 12.4477 5 13 5C16.3137 5 19 7.68629 19 11C19 11.5523 18.5523 12 18 12C17.4477 12 17 11.5523 17 11C17 8.79086 15.2091 7 13 7C12.4477 7 12 6.55228 12 6Z" fill="#000640"/>
</svg>
