<svg width="24" height="24" viewBox="0 0 24 24" fill="none" xmlns="http://www.w3.org/2000/svg">
<path fill-rule="evenodd" clip-rule="evenodd" d="M8 14C8 13.4477 8.44772 13 9 13H15C15.5523 13 16 13.4477 16 14V19C16 19.5523 15.5523 20 15 20H9C8.44772 20 8 19.5523 8 19V14ZM10 15V18H14V15H10Z" fill="#000640"/>
<path fill-rule="evenodd" clip-rule="evenodd" d="M8.00746 4.75361C8.13474 2.65922 9.8736 1 12 1C14.1264 1 15.8653 2.65923 15.9925 4.75361C16.4785 4.95414 16.9404 5.19593 17.3672 5.48046C18.9102 6.50911 20 8.11211 20 10.25V12.25C21.6569 12.25 23 13.5931 23 15.25V18.25C23 19.9069 21.6569 21.25 20 21.25H19.8293C19.4175 22.4152 18.3062 23.25 17 23.25H6.99998C5.69377 23.25 4.58254 22.4152 4.17071 21.25L3.99998 21.25C2.34313 21.25 1 19.9069 1 18.25V15.25C1 13.5931 2.34315 12.25 4 12.25V10.25C4 8.11211 5.08982 6.50911 6.6328 5.48046C7.05959 5.19593 7.52154 4.95414 8.00746 4.75361ZM10.1917 4.14453C10.5123 3.46793 11.2015 3 12 3C12.7985 3 13.4877 3.46793 13.8083 4.14453C13.2104 4.04748 12.6023 4 12 4C11.3977 4 10.7896 4.04748 10.1917 4.14453ZM7.7422 7.14456C6.66018 7.86591 6 8.88792 6 10.25V20.25C6 20.8023 6.44771 21.25 6.99998 21.25H17C17.5523 21.25 18 20.8023 18 20.25V10.25C18 8.88792 17.3398 7.86591 16.2578 7.14455C15.1461 6.40344 13.6017 6 12 6C10.3983 6 8.85386 6.40344 7.7422 7.14456ZM20 14.25V19.25C20.5523 19.25 21 18.8023 21 18.25V15.25C21 14.6977 20.5523 14.25 20 14.25ZM4 14.25C3.44772 14.25 3 14.6977 3 15.25V18.25C3 18.8023 3.44771 19.25 3.99999 19.25L4 14.25Z" fill="#000640"/>
</svg>
