<svg width="24" height="24" viewBox="0 0 24 24" fill="none" xmlns="http://www.w3.org/2000/svg">
<path fill-rule="evenodd" clip-rule="evenodd" d="M13.45 2.11436C14.8139 2.31397 16.3113 2.75973 17.6439 3.33085C18.5667 3.72633 19.4461 4.19685 20.175 4.71752C20.8858 5.22524 21.5381 5.84011 21.8944 6.55279C22.2213 7.2065 22.4255 8.15776 22.5671 9.10166C22.7137 10.0791 22.8097 11.1734 22.8731 12.1876C22.9366 13.2047 22.9683 14.156 22.9841 14.8523C22.992 15.2008 22.996 15.4863 22.998 15.6853C22.999 15.7848 22.9995 15.8628 22.9997 15.9162L23 15.9776L23 15.9998C23 16.0927 22.9871 16.1854 22.9615 16.2747L21.7598 20.4806C21.1744 22.5295 18.7816 23.2603 17.0637 22.3999C15.6188 21.6762 13.778 21 12 21C10.222 21 8.38116 21.6762 6.93635 22.3999C5.21845 23.2603 2.82556 22.5295 2.24016 20.4806L1.03848 16.2747C1.01295 16.1854 1 16.0923 1 15.9994L1.00003 15.9776L1.00026 15.9162C1.00051 15.8628 1.00101 15.7848 1.002 15.6853C1.00399 15.4863 1.00796 15.2008 1.01588 14.8523C1.03171 14.156 1.06338 13.2047 1.12695 12.1876C1.19034 11.1734 1.28632 10.0791 1.43294 9.10166C1.57452 8.15776 1.77872 7.2065 2.10557 6.55279C2.46191 5.84011 3.11419 5.22524 3.82501 4.71752C4.55394 4.19685 5.4333 3.72633 6.35608 3.33085C7.68871 2.75973 9.18608 2.31397 10.55 2.11436C10.7202 1.47281 11.3049 1 12 1C12.6951 1 13.2798 1.47281 13.45 2.11436ZM3.89443 7.44721C4.03809 7.15989 4.38581 6.77476 4.98749 6.34498C5.57106 5.92815 6.3167 5.52367 7.14392 5.16915C7.7803 4.89641 8.44422 4.66193 9.09539 4.47609C8.49724 5.31759 8.07113 6.23211 7.78885 7.21501C7.30711 8.89248 7.2562 10.7279 7.42001 12.67C5.88162 13.092 4.51252 13.6446 3.48476 14.1161C3.32526 14.1893 3.17365 14.2606 3.03056 14.3294C3.04865 13.7406 3.0774 13.0429 3.12305 12.3124C3.18466 11.3266 3.27618 10.2959 3.41081 9.39834C3.55048 8.46724 3.72128 7.7935 3.89443 7.44721ZM9.71115 7.76707C10.0908 6.44505 10.7934 5.28158 12 4.26428C13.2066 5.28158 13.9092 6.44505 14.2889 7.76707C14.6589 9.05567 14.7327 10.5321 14.6084 12.2302C13.7626 12.087 12.885 12 12 12C11.115 12 10.2374 12.087 9.39161 12.2302C9.26729 10.5321 9.34108 9.05567 9.71115 7.76707ZM20.5152 14.1161C19.4875 13.6446 18.1184 13.092 16.58 12.67C16.7438 10.7279 16.6929 8.89248 16.2112 7.21501C15.9289 6.23211 15.5028 5.31759 14.9046 4.47609C15.5558 4.66193 16.2197 4.89641 16.8561 5.16915C17.6833 5.52367 18.4289 5.92815 19.0125 6.34498C19.6142 6.77476 19.9619 7.15989 20.1056 7.44721C20.2787 7.7935 20.4495 8.46724 20.5892 9.39834C20.7238 10.2959 20.8153 11.3266 20.8769 12.3124C20.9226 13.0429 20.9514 13.7406 20.9694 14.3294C20.8263 14.2606 20.6747 14.1893 20.5152 14.1161ZM19.8368 19.9312L20.8196 16.4913C20.5235 16.3363 20.138 16.1434 19.6813 15.9339C18.5449 15.4126 16.9864 14.7972 15.2753 14.4027C14.2084 14.1568 13.0964 14 12 14C10.9036 14 9.79158 14.1568 8.72466 14.4027C7.01358 14.7972 5.45513 15.4126 4.31871 15.9339C3.86197 16.1434 3.47654 16.3363 3.18037 16.4913L4.16321 19.9312C4.34806 20.5781 5.2517 21.0068 6.0407 20.6116C7.59842 19.8314 9.76784 19 12 19C14.2322 19 16.4016 19.8314 17.9593 20.6116C18.7483 21.0068 19.6519 20.5781 19.8368 19.9312Z" fill="#000640"/>
</svg>
