<svg width="24" height="24" viewBox="0 0 24 24" fill="none" xmlns="http://www.w3.org/2000/svg">
<path fill-rule="evenodd" clip-rule="evenodd" d="M17.967 1.75309C17.8305 1.21794 17.286 0.894765 16.7509 1.03126C16.2157 1.16776 15.8925 1.71224 16.029 2.24739L16.818 5.34054C15.4643 5.94056 14.4287 6.50729 13.5752 7.22022C12.9568 7.73681 12.456 8.31118 11.998 8.98776C11.5401 8.31122 11.0394 7.73686 10.4211 7.22027C9.56768 6.5073 8.53225 5.94054 7.17851 5.3405L7.96702 2.24726C8.10345 1.71209 7.7802 1.16765 7.24503 1.03123C6.70986 0.894806 6.16542 1.21805 6.029 1.75322L5.07239 5.50588C5.00818 5.60476 4.9221 5.74378 4.82624 5.91597C4.63466 6.26007 4.39588 6.75119 4.21787 7.32993C3.86653 8.47212 3.70899 10.128 4.86963 11.5861C5.50473 12.3839 6.38006 12.7447 7.22699 12.8728C8.06194 12.9991 8.92748 12.9108 9.67195 12.7625C10.4246 12.6125 11.1082 12.3899 11.5989 12.2076C11.7469 12.1527 11.8788 12.1009 11.9913 12.0551C12.1033 12.1022 12.2345 12.1555 12.3818 12.212C12.8704 12.3994 13.5517 12.6286 14.3034 12.7831C15.047 12.9358 15.9138 13.027 16.7529 12.8967C17.6066 12.7642 18.4813 12.3917 19.1183 11.5812C20.2817 10.1009 20.1359 8.45268 19.7808 7.30628C19.602 6.72889 19.3612 6.24152 19.1677 5.90065C19.0729 5.73352 18.9874 5.59813 18.9229 5.50067L17.967 1.75309ZM14.7059 10.824C14.2399 10.7283 13.797 10.5946 13.425 10.4645C13.8769 9.73091 14.3173 9.20632 14.8574 8.75518C15.501 8.21757 16.3291 7.74768 17.5865 7.18778C17.6874 7.39435 17.7891 7.63555 17.8703 7.89797C18.1225 8.71223 18.1436 9.58482 17.5459 10.3453C17.3023 10.6552 16.945 10.8429 16.446 10.9204C15.9323 11.0002 15.3257 10.9513 14.7059 10.824ZM9.1388 8.75512C9.67594 9.20387 10.1144 9.72529 10.5638 10.4528C10.1904 10.579 9.74705 10.7082 9.28115 10.801C8.65629 10.9255 8.04392 10.9736 7.52611 10.8953C7.02028 10.8188 6.66799 10.6339 6.43439 10.3404C5.85759 9.61586 5.87325 8.75093 6.12948 7.91793C6.21196 7.64979 6.31501 7.40263 6.41703 7.19087C7.67043 7.74939 8.49653 8.21853 9.1388 8.75512Z" fill="#000640"/>
<path fill-rule="evenodd" clip-rule="evenodd" d="M19.3039 16.9519C19.8298 16.7831 20.1192 16.2199 19.9503 15.6941C19.7815 15.1682 19.2183 14.8788 18.6925 15.0477C17.8945 15.3039 17.1531 15.5195 16.451 15.6956C13.2563 16.4974 10.8197 16.5006 7.57232 15.695C6.8619 15.5187 6.11013 15.303 5.30014 15.0465C4.77364 14.8797 4.21163 15.1713 4.04487 15.6978C3.87811 16.2243 4.16974 16.7863 4.69624 16.9531C5.42491 17.1839 6.11767 17.3859 6.78392 17.5584L11.2456 22.6582C11.4351 22.8749 11.7088 22.9993 11.9966 22.9998C12.2845 23.0002 12.5585 22.8766 12.7488 22.6606L17.2414 17.5576C17.9008 17.3849 18.5852 17.1827 19.3039 16.9519ZM12.0006 20.4838L9.98195 18.1764C11.3551 18.3371 12.6645 18.3386 14.0278 18.1811L12.0006 20.4838Z" fill="#000640"/>
</svg>
