<svg width="24" height="24" viewBox="0 0 24 24" fill="none" xmlns="http://www.w3.org/2000/svg">
<g clip-path="url(#clip0_1253_4850)">
<path fill-rule="evenodd" clip-rule="evenodd" d="M20 16.5821V12C20 7.58172 16.4183 4 12 4C7.58172 4 4 7.58172 4 12V16.582C3.0858 16.1999 2.28096 15.7442 1.62473 15.2192C1.19347 14.8742 0.564178 14.9441 0.219168 15.3753C-0.125842 15.8066 -0.0559202 16.4359 0.375342 16.7809C3.13149 18.9858 7.65025 20 12 20C16.3498 20 20.8686 18.9858 23.6247 16.7809C24.056 16.4359 24.1259 15.8066 23.7809 15.3753C23.4359 14.9441 22.8066 14.8742 22.3753 15.2192C21.7191 15.7442 20.9142 16.1999 20 16.5821ZM6 12C6 8.68629 8.68629 6 12 6C15.3137 6 18 8.68629 18 12V12.2141C15.7364 12.7458 13.89 12.9993 12.0494 12.9974C10.2042 12.9955 8.32625 12.7369 6 12.2078V12ZM18 17.2569V14.2661C15.8321 14.752 13.9537 14.9993 12.0474 14.9974C10.1328 14.9954 8.22391 14.7421 6 14.2568V17.2569C7.81827 17.7446 9.88726 18 12 18C14.1128 18 16.1817 17.7446 18 17.2569Z" fill="#000640"/>
</g>
<defs>
<clipPath id="clip0_1253_4850">
<rect width="24" height="24" fill="white"/>
</clipPath>
</defs>
</svg>
