<svg width="24" height="24" viewBox="0 0 24 24" fill="none" xmlns="http://www.w3.org/2000/svg">
<path fill-rule="evenodd" clip-rule="evenodd" d="M5.22591 9.22841C7.96505 9.80162 10.1268 10.0817 12.2127 10.0831C14.278 10.0845 16.3052 9.81259 18.779 9.24744C18.0014 6.22989 15.2605 4 12 4C8.7464 4 6.01014 6.22052 5.22591 9.22841ZM19 11.248C16.5243 11.8022 14.4028 12.0846 12.2113 12.0831C9.99058 12.0816 7.73319 11.7886 5.00001 11.2242V12.3692C9.41805 14.3769 14.582 14.3769 19 12.3692V11.248ZM19.5407 14.3175C14.7576 16.3942 9.2424 16.3942 4.45932 14.3175L3.23436 16.7674C3.53385 16.9956 3.98649 17.2943 4.62024 17.5985C6.03689 18.2785 8.38734 19 12 19C15.6127 19 17.9631 18.2785 19.3798 17.5985C20.0135 17.2943 20.4662 16.9956 20.7657 16.7674L19.5407 14.3175ZM22 17C22.7682 17.6402 22.7673 17.6413 22.7673 17.6413L22.7663 17.6425L22.7641 17.6452L22.7589 17.6512L22.7457 17.6665C22.7356 17.6781 22.7228 17.6925 22.7073 17.7094C22.6762 17.7433 22.6343 17.7874 22.5809 17.8402C22.4739 17.9459 22.3209 18.0864 22.1169 18.2496C21.7084 18.5764 21.0975 18.9925 20.2452 19.4015C18.5369 20.2215 15.8873 21 12 21C8.11268 21 5.46314 20.2215 3.75478 19.4015C2.90256 18.9925 2.29159 18.5764 1.88313 18.2496C1.6791 18.0864 1.52611 17.9459 1.41917 17.8402C1.36571 17.7874 1.32379 17.7433 1.29276 17.7094C1.27725 17.6925 1.26447 17.6781 1.25433 17.6665L1.24111 17.6512L1.23596 17.6452L1.23376 17.6425L1.23274 17.6413C1.23274 17.6413 1.23179 17.6402 2.00001 17L1.23179 17.6402C0.977446 17.335 0.927907 16.9081 1.10558 16.5528L3.00001 12.7639V11C3.00001 10.6199 3.02363 10.2448 3.06959 9.87626C3.62333 5.43564 7.40969 2 12 2C16.5903 2 20.3767 5.43564 20.9304 9.87626C20.9764 10.2448 21 10.6199 21 11V12.7639L22.8944 16.5528C23.0721 16.9081 23.0226 17.335 22.7682 17.6402L22 17Z" fill="#000640"/>
</svg>
