<svg width="24" height="24" viewBox="0 0 24 24" fill="none" xmlns="http://www.w3.org/2000/svg">
<path fill-rule="evenodd" clip-rule="evenodd" d="M9.31623 2.05132L9.31521 2.05098C9.16077 1.99968 8.99614 1.98685 8.8356 2.01361C7.75711 2.19335 6.40174 2.74474 5.38425 3.20646C4.86037 3.44419 4.39791 3.67137 4.06637 3.83911C3.90035 3.9231 3.76653 3.99251 3.67352 4.04129C3.62701 4.06568 3.59066 4.08494 3.56556 4.09831L3.53645 4.11386L3.52846 4.11815L3.52517 4.11992C3.31914 4.23114 3.15848 4.41122 3.07152 4.62861L3.06917 4.63452L3.06396 4.64768L3.04536 4.69524C3.02945 4.73622 3.00667 4.79552 2.97799 4.87182C2.92065 5.02438 2.83969 5.24506 2.743 5.52304C2.54978 6.07856 2.29289 6.86537 2.03601 7.79657C1.52581 9.64604 1 12.1201 1 14.5C1 14.8935 1.23078 15.2504 1.58964 15.4119L3 16.0466V18C3 18.5523 3.44772 19 4 19C4.55228 19 5 18.5523 5 18V16.9466L7 17.8466V19.5C7 20.0523 7.44772 20.5 8 20.5C8.55228 20.5 9 20.0523 9 19.5V18.7466L11 19.6466V21C11 21.5523 11.4477 22 12 22C12.5523 22 13 21.5523 13 21V19.6466L15 18.7466V19.5C15 20.0523 15.4477 20.5 16 20.5C16.5523 20.5 17 20.0523 17 19.5V17.8466L19 16.9466V18C19 18.5523 19.4477 19 20 19C20.5523 19 21 18.5523 21 18V16.0466L22.4104 15.4119C22.7692 15.2504 23 14.8935 23 14.5C23 12.1201 22.4742 9.64604 21.964 7.79657C21.7071 6.86537 21.4502 6.07856 21.257 5.52304C21.1603 5.24506 21.0793 5.02438 21.022 4.87182C20.9933 4.79552 20.9705 4.73622 20.9546 4.69524L20.936 4.64768L20.9308 4.63452L20.9293 4.63065L20.9288 4.6294C20.8418 4.41202 20.681 4.23124 20.475 4.12002L20.4738 4.11939L20.4636 4.11386L20.4344 4.09831C20.4093 4.08494 20.373 4.06568 20.3265 4.04129C20.2335 3.99251 20.0997 3.9231 19.9336 3.83911C19.6021 3.67137 19.1396 3.44419 18.6157 3.20646C17.5983 2.74474 16.2429 2.19335 15.1644 2.01361C15.0036 1.98681 14.8387 1.99972 14.684 2.05123L14.6758 2.05391L14.6356 2.06663C14.5985 2.07817 14.5415 2.09546 14.4675 2.1166C14.3192 2.15898 14.1043 2.21632 13.8456 2.27381C13.3207 2.39045 12.6492 2.5 12 2.5C11.3508 2.5 10.6793 2.39045 10.1544 2.27381C9.89573 2.21632 9.68085 2.15898 9.53253 2.1166C9.45853 2.09546 9.40155 2.07817 9.36445 2.06663L9.32421 2.05391L9.31623 2.05132ZM13.7954 4.32421C13.2681 4.42043 12.6404 4.5 12 4.5C11.3596 4.5 10.7319 4.42043 10.2046 4.32421C10.2355 4.43211 10.2709 4.541 10.3113 4.64888C10.4642 5.05652 10.6698 5.39633 10.93 5.62759C11.1695 5.8405 11.4959 6 12 6C12.5041 6 12.8305 5.8405 13.07 5.62759C13.3302 5.39633 13.5358 5.05652 13.6887 4.64888C13.7291 4.541 13.7645 4.43211 13.7954 4.32421ZM8.13502 4.25702C7.51987 4.46091 6.84016 4.74208 6.21072 5.02771C5.71877 5.25095 5.28249 5.46523 4.96925 5.62371C4.90788 5.65476 4.85133 5.68361 4.80012 5.70992C4.75389 5.83544 4.69691 5.99346 4.632 6.18008C4.45022 6.70269 4.20711 7.44713 3.96399 8.32843C3.5232 9.92631 3.09504 11.9295 3.01378 13.8596L12 17.9034L20.9862 13.8596C20.905 11.9295 20.4768 9.92631 20.036 8.32843C19.7929 7.44713 19.5498 6.70269 19.368 6.18008C19.3031 5.99346 19.2461 5.83544 19.1999 5.70992C19.1487 5.68361 19.0921 5.65476 19.0308 5.62371C18.7175 5.46523 18.2812 5.25095 17.7893 5.02771C17.1598 4.74208 16.4801 4.46091 15.865 4.25702C15.8009 4.59022 15.7051 4.96773 15.5613 5.35112C15.3392 5.94348 14.9823 6.60367 14.3987 7.12241C13.7945 7.6595 12.9959 8 12 8C11.0041 8 10.2055 7.6595 9.60126 7.12241C9.01768 6.60367 8.66081 5.94348 8.43867 5.35112C8.2949 4.96773 8.19914 4.59022 8.13502 4.25702Z" fill="#000640"/>
</svg>
