<svg width="24" height="24" viewBox="0 0 24 24" fill="none" xmlns="http://www.w3.org/2000/svg">
<path fill-rule="evenodd" clip-rule="evenodd" d="M14.5529 1.10557C14.7901 0.986965 15.0647 0.967449 15.3163 1.05132L18.7472 2.19493C20.6868 2.84147 22.0373 4.60374 22.1574 6.64474L22.8738 18.8238C22.9752 20.547 21.6051 22 19.879 22H19.0001C19.0001 22.5523 18.5524 23 18.0001 23H14C13.7348 23 13.4805 22.8946 13.2929 22.7071C13.1054 22.5196 13 22.2652 13 22H11.0001C11.0001 22.5523 10.5524 23 10.0001 23H6.00009C5.4478 23 5.00009 22.5523 5.00009 22H4.1212C2.39508 22 1.02502 20.547 1.12638 18.8238L1.8428 6.64471C1.96285 4.60373 3.3134 2.84147 5.25298 2.19492L8.68365 1.05132C8.93526 0.967448 9.20988 0.986964 9.4471 1.10557C11.1656 1.96481 12.8344 1.96481 14.5529 1.10557ZM7.00009 20.9959V10C7.00009 9.44772 6.55237 9 6.00009 9C5.4478 9 5.00009 9.44772 5.00009 10V20H4.1212C3.54583 20 3.08914 19.5157 3.12293 18.9413L3.83934 6.76215C3.91138 5.53757 4.72171 4.48021 5.88546 4.09228L8.15083 3.33713C8.27386 3.94125 8.51319 4.73868 9.0001 5.43986V21L7.0001 21L7.00009 20.9959ZM11.0001 20H13.0001L13 5.10239C13 4.8655 13.0841 4.63631 13.2374 4.45563C13.4511 4.20353 13.6117 3.88007 13.7292 3.5359C12.5785 3.82136 11.4216 3.82137 10.2709 3.53593C10.3884 3.88008 10.549 4.20352 10.7628 4.45561C10.916 4.63629 11.0001 4.86549 11.0001 5.10239V20ZM15.8492 3.33713C15.7262 3.94126 15.4869 4.73867 15.0001 5.43984L15.0001 21L17.0001 21V10C17.0001 9.44772 17.4478 9 18.0001 9C18.5524 9 19.0001 9.44772 19.0001 10V20H19.879C20.4544 20 20.9111 19.5157 20.8773 18.9413L20.1608 6.76218C20.0888 5.53758 19.2785 4.48022 18.1147 4.0923L15.8492 3.33713Z" fill="#000640"/>
</svg>
