<svg width="24" height="24" viewBox="0 0 24 24" fill="none" xmlns="http://www.w3.org/2000/svg">
<path fill-rule="evenodd" clip-rule="evenodd" d="M3 2C3 1.44772 3.44772 1 4 1H13C13.5523 1 14 1.44772 14 2V11.7484C14.4782 12.5761 15.433 13.5687 16.5979 14.5676C17.8258 15.6206 19.1772 16.5893 20.1609 17.2574C21.2814 18.0183 22 19.285 22 20.6764V22C22 22.5523 21.5523 23 21 23H13C11.9527 23 11.2841 22.2127 10.8842 21.6251C10.5728 21.1676 10.2663 20.5827 9.97853 20.0338C9.87757 19.8412 9.77893 19.653 9.68321 19.4763C9.2827 18.7369 8.88789 18.1005 8.4306 17.6495C8.28961 17.5104 8.14707 17.3931 8 17.2981V22C8 22.5523 7.55228 23 7 23H4C3.51116 23 3.09397 22.6466 3.01361 22.1644L2.01361 16.1644C2.00455 16.1101 2 16.0551 2 16C2 14.3942 2.26685 12.9345 2.52986 11.8825C2.6619 11.3543 2.7944 10.9233 2.89507 10.6213C2.93591 10.4988 2.97159 10.3972 3 10.3188V2ZM4.92848 10.8714L4.92212 10.8878C4.91643 10.9026 4.90736 10.9265 4.89537 10.959C4.87139 11.0241 4.8358 11.1236 4.79243 11.2537C4.7056 11.5142 4.5881 11.8957 4.47014 12.3675C4.29106 13.0839 4.11418 13.9956 4.03842 15H7C8.20078 15 9.12777 15.528 9.83503 16.2255C10.5184 16.8995 11.0298 17.7631 11.4418 18.5237C11.5741 18.768 11.6943 18.9972 11.8069 19.212C12.0721 19.7179 12.2955 20.144 12.5377 20.4999C12.7015 20.7406 12.8298 20.8788 12.9237 20.9515C12.9666 20.9847 12.992 20.996 13.0001 20.9991L13.0025 21H20V20.6764C20 19.9842 19.6405 19.3216 19.0373 18.9119C18.0231 18.2231 16.6037 17.2072 15.296 16.0859C14.0185 14.9905 12.731 13.6981 12.1056 12.4472C12.0361 12.3084 12 12.1552 12 12V3H9V7C9 7.55228 8.55228 8 8 8C7.44772 8 7 7.55228 7 7V3H5V10.5C5 10.6268 4.97589 10.7524 4.92895 10.8702L4.92848 10.8714ZM4.18046 17L4.84713 21H6V17H4.18046Z" fill="#000640"/>
</svg>
