<svg width="24" height="24" viewBox="0 0 24 24" fill="none" xmlns="http://www.w3.org/2000/svg">
<path fill-rule="evenodd" clip-rule="evenodd" d="M7.44729 1.10558C7.94127 1.35257 8.14149 1.95324 7.8945 2.44722C7.7993 2.63762 7.68456 2.83938 7.55983 3.04585C7.88378 3.15641 8.25035 3.29286 8.64005 3.45791C9.67685 3.897 10.9449 4.56639 12.0001 5.54095C13.0552 4.56639 14.3233 3.897 15.3601 3.45791C15.7498 3.29286 16.1164 3.15641 16.4403 3.04585C16.3156 2.83938 16.2009 2.63763 16.1056 2.44722C15.8587 1.95324 16.0589 1.35257 16.5529 1.10558C17.0468 0.858589 17.6475 1.05881 17.8945 1.55279C18.0611 1.88595 18.3101 2.27054 18.6209 2.75057C18.6913 2.85924 18.7648 2.97281 18.8413 3.09178C19.4596 4.05381 20.2493 5.33453 20.4636 6.67838C20.5753 7.37843 20.5375 8.12499 20.2278 8.86235C19.9916 9.42475 19.6157 9.9379 19.0999 10.3999L20.9807 19.8039C21.0691 20.2461 20.8506 20.6928 20.4473 20.8944C15.1658 23.5352 8.83439 23.5352 3.55286 20.8944C3.14952 20.6928 2.93106 20.2461 3.0195 19.8039L4.90029 10.3999C4.3845 9.9379 4.00855 9.42475 3.77235 8.86235C3.46266 8.12499 3.42489 7.37843 3.53652 6.67838C3.7508 5.33453 4.54053 4.05381 5.15885 3.09178C5.23531 2.97281 5.30885 2.85924 5.37922 2.75056C5.69004 2.27054 5.93907 1.88594 6.10565 1.55279C6.35264 1.05881 6.95331 0.858589 7.44729 1.10558ZM17.5451 4.79071C17.1743 4.90323 16.6819 5.07009 16.1401 5.29955C14.9498 5.80366 13.6285 6.56527 12.7809 7.6247C12.5912 7.86192 12.3039 8.00001 12.0001 8.00001C11.6963 8.00001 11.409 7.86192 11.2192 7.6247C10.3717 6.56527 9.0504 5.80366 7.8601 5.29955C7.31829 5.07009 6.82588 4.90323 6.45506 4.79071C5.98795 5.56497 5.62163 6.30304 5.51156 6.99331C5.44655 7.40101 5.47815 7.75892 5.61632 8.0879C5.75493 8.41795 6.03252 8.79427 6.58131 9.18627C6.90153 9.415 7.05783 9.81025 6.98066 10.1961L5.134 19.4294C9.4775 21.3569 14.5227 21.3569 18.8662 19.4294L17.0195 10.1961C16.9423 9.81025 17.0986 9.415 17.4188 9.18627C17.9676 8.79427 18.2452 8.41795 18.3838 8.0879C18.522 7.75891 18.5536 7.40101 18.4886 6.99331C18.3785 6.30304 18.0122 5.56497 17.5451 4.79071Z" fill="#000640"/>
</svg>
