<svg width="24" height="24" viewBox="0 0 24 24" fill="none" xmlns="http://www.w3.org/2000/svg">
<path fill-rule="evenodd" clip-rule="evenodd" d="M11 4C11.5523 4 12 4.44772 12 5V5.87138C12.2889 6.92438 12.878 7.75604 13.6537 8.42614C14.414 9.0829 15.3539 9.5834 16.353 9.9603C17.6798 10.4608 19.0563 10.723 20.1327 10.8587C21.6662 11.052 23 12.3311 23 14V17C23 18.6569 21.6569 20 20 20H13C12.631 20 12.2928 19.7969 12.119 19.4732C12.1159 19.4683 12.1092 19.4581 12.0984 19.4438C12.0703 19.4062 12.0181 19.3451 11.9378 19.2809C11.7898 19.1625 11.5071 19 11 19C10.4929 19 10.2102 19.1625 10.0622 19.2809C9.98187 19.3451 9.92969 19.4062 9.90156 19.4438C9.89083 19.4581 9.88405 19.4683 9.88097 19.4732C9.70715 19.7969 9.369 20 9 20H4C2.34315 20 1 18.6569 1 17V14L1 13.9978L1.00001 13.9941L1.00006 13.9825L1.00044 13.9422C1.00086 13.9079 1.00167 13.8591 1.00325 13.7969C1.00641 13.6725 1.01265 13.4945 1.02498 13.2727C1.04959 12.8296 1.09864 12.2088 1.19667 11.4899C1.39061 10.0677 1.78493 8.19408 2.60557 6.55279C2.79249 6.17895 3.19217 5.96081 3.60768 6.00581L3.60937 6.00599L3.61857 6.00696L3.65947 6.01105C3.69647 6.01467 3.75251 6.01993 3.82542 6.02617C3.97132 6.03866 4.18427 6.05502 4.44691 6.06992C4.9737 6.0998 5.69296 6.12336 6.46808 6.09932C7.24728 6.07515 8.05816 6.00353 8.77636 5.85159C9.27713 5.74566 9.68741 5.60983 10 5.45309V5C10 4.44772 10.4477 4 11 4ZM10.4469 7.44075C10.0386 7.60159 9.60964 7.71958 9.19031 7.80829C8.31454 7.99356 7.37556 8.07213 6.53007 8.09836C5.6805 8.1247 4.90022 8.09885 4.33365 8.06671C4.25826 8.06243 4.18653 8.05804 4.11878 8.05363C3.61556 9.27147 3.33313 10.6249 3.17833 11.7601C3.1137 12.2341 3.07243 12.6613 3.04611 13.0131C6.32638 13.0964 8.60273 13.5642 10.6033 14.0256C10.8055 14.0722 11.004 14.1185 11.1996 14.1642C13.1289 14.6143 14.7821 15 17 15H21V14C21 13.4597 20.5408 12.926 19.8826 12.843C18.941 12.7243 17.757 12.5135 16.5362 12.1359L16.4109 12.4125C16.1831 12.9156 15.5906 13.1388 15.0875 12.9109C14.5844 12.6831 14.3612 12.0906 14.5891 11.5875L14.666 11.4176C14.1616 11.1802 13.6644 10.9048 13.1912 10.5848L12.7965 11.1047C12.4625 11.5446 11.8352 11.6304 11.3953 11.2965C10.9554 10.9625 10.8696 10.3352 11.2035 9.8953L11.6691 9.28208C11.1826 8.74914 10.7639 8.13823 10.4469 7.44075ZM21 17H17C14.5419 17 12.6761 16.5636 10.7567 16.1148C10.5566 16.068 10.3559 16.021 10.1538 15.9744C8.22584 15.5297 6.09265 15.0914 3 15.0125V17C3 17.5523 3.44772 18 4 18H8.50742C8.59319 17.9093 8.69448 17.8138 8.81281 17.7191C9.28983 17.3375 10.0071 17 11 17C11.9929 17 12.7102 17.3375 13.1872 17.7191C13.3055 17.8138 13.4068 17.9093 13.4926 18H20C20.5523 18 21 17.5523 21 17ZM12.1066 19.4493L12.1061 19.4483L12.1066 19.4493ZM12.1061 19.4483L12.1075 19.451L12.1061 19.4483Z" fill="#000640"/>
</svg>
