<svg width="24" height="24" viewBox="0 0 24 24" fill="none" xmlns="http://www.w3.org/2000/svg">
<path fill-rule="evenodd" clip-rule="evenodd" d="M7.75746 1.02985C8.09824 0.944654 8.45873 1.0445 8.70711 1.29288C9.81533 2.4011 10.9486 2.87499 12 2.87499C13.0514 2.87499 14.1847 2.4011 15.2929 1.29288C15.5413 1.0445 15.9018 0.944654 16.2425 1.02985L20.2425 2.02985C20.6877 2.14114 21 2.54112 21 2.99999V7.87689L21.9701 11.7575C21.99 11.8368 22 11.9182 22 12V22C22 22.5523 21.5523 23 21 23H3C2.44772 23 2 22.5523 2 22V12C2 11.9182 2.01003 11.8368 2.02986 11.7575L3 7.87688V2.99999C3 2.54112 3.3123 2.14114 3.75746 2.02985L7.75746 1.02985ZM5 3.78077V7.99999C5 8.08175 4.98997 8.16321 4.97014 8.24253L4 12.1231V21H20V12.1231L19.0299 8.24253C19.01 8.16321 19 8.08175 19 7.99999V3.78077L17 3.28077V6.99999C17 8.47278 16.7383 9.95943 15.9478 11.1039C15.1136 12.3116 13.7869 13 12 13C10.2131 13 8.88641 12.3116 8.05221 11.1039C7.2617 9.95943 7 8.47278 7 6.99999V3.28077L5 3.78077ZM9 4.03615V6.99999C9 8.28863 9.2383 9.30197 9.69779 9.96719C10.1136 10.5691 10.7869 11 12 11C13.2131 11 13.8864 10.5691 14.3022 9.96719C14.7617 9.30197 15 8.28863 15 6.99999V4.03615C14.0528 4.58304 13.0418 4.87499 12 4.87499C10.9582 4.87499 9.9472 4.58304 9 4.03615Z" fill="#000640"/>
</svg>
