<svg width="24" height="24" viewBox="0 0 24 24" fill="none" xmlns="http://www.w3.org/2000/svg">
<path fill-rule="evenodd" clip-rule="evenodd" d="M4.01237 1.84404C4.08911 1.35799 4.50806 1 5.00013 1H19.0001C19.4922 1 19.9111 1.35799 19.9879 1.84404L22.9879 20.844C23.0716 21.3739 22.7222 21.8754 22.1962 21.9806L17.1962 22.9806C16.7288 23.0741 16.2604 22.8246 16.0771 22.3846L12.0001 12.6L7.92321 22.3846C7.73987 22.8246 7.27144 23.0741 6.80401 22.9806L1.80401 21.9806C1.27801 21.8754 0.928704 21.3739 1.01237 20.844L4.01237 1.84404ZM5.85462 3L5.67041 4.16667H18.3298L18.1456 3H5.85462ZM18.6456 6.16667H5.35462L3.13762 20.2077L6.39236 20.8586L11.0771 9.61539C11.2323 9.24274 11.5964 9 12.0001 9C12.4038 9 12.7679 9.24274 12.9232 9.61539L17.6079 20.8586L20.8626 20.2077L18.6456 6.16667Z" fill="#000640"/>
</svg>
