<svg width="24" height="24" viewBox="0 0 24 24" fill="none" xmlns="http://www.w3.org/2000/svg">
<path fill-rule="evenodd" clip-rule="evenodd" d="M4.01373 1.8356C4.0941 1.35341 4.51129 1 5.00013 1H19.0001C19.489 1 19.9062 1.35341 19.9865 1.8356L20.4882 4.84562L22.9881 20.8456C23.0709 21.375 22.7216 21.8755 22.1962 21.9806L17.1962 22.9806C16.7288 23.0741 16.2604 22.8246 16.0771 22.3846L12.0001 12.6L7.9232 22.3846C7.73986 22.8246 7.27143 23.0741 6.80401 22.9806L1.80401 21.9806C1.27862 21.8755 0.9294 21.375 1.01211 20.8456L3.51368 4.83559L4.01373 1.8356ZM5.84725 3L5.68428 3.97785C5.99733 3.96835 6.25837 3.95477 6.48336 3.9323C6.94686 3.886 7.11754 3.81191 7.19628 3.75987C7.25578 3.72054 7.3542 3.63516 7.50037 3.30695C7.54127 3.21512 7.58202 3.11363 7.62416 3H5.84725ZM9.73589 3C9.59985 3.42547 9.46888 3.80289 9.32737 4.12064C9.10261 4.6253 8.80346 5.09496 8.29912 5.42832C7.81402 5.74897 7.25461 5.86522 6.68213 5.9224C6.30644 5.95992 5.86499 5.97628 5.3581 5.98659L3.13611 20.2074L6.39236 20.8586L11.0771 9.61539C11.2323 9.24274 11.5964 9 12.0001 9C12.4038 9 12.7679 9.24274 12.9232 9.61539L17.6079 20.8586L20.8641 20.2074L18.6425 5.98885C18.1367 5.97913 17.6971 5.96181 17.322 5.92215C16.7474 5.86142 16.1928 5.73801 15.7121 5.41055C15.2182 5.07406 14.9244 4.60644 14.7 4.11135C14.5574 3.79683 14.4221 3.42175 14.2792 3H13.0001V6C13.0001 6.55228 12.5524 7 12.0001 7C11.4478 7 11.0001 6.55228 11.0001 6V3H9.73589ZM16.4026 3C16.4431 3.10441 16.4823 3.19895 16.5216 3.28561C16.674 3.6218 16.7749 3.71452 16.8382 3.75769C16.9148 3.80987 17.0799 3.88542 17.5322 3.93323C17.7518 3.95645 18.008 3.97068 18.3164 3.98022L18.153 3H16.4026Z" fill="#000640"/>
</svg>
