<svg width="24" height="24" viewBox="0 0 24 24" fill="none" xmlns="http://www.w3.org/2000/svg">
<path fill-rule="evenodd" clip-rule="evenodd" d="M10.4215 1.07851L14.6571 1.07849C16.314 1.07849 17.6571 2.42163 17.6571 4.07849V9.16427L21.0358 12.5429C22.9884 14.4956 22.9884 17.6614 21.0358 19.614C19.6963 20.9535 17.7874 21.3732 16.0909 20.8765C15.9278 21.1079 15.7428 21.3285 15.5357 21.5355C13.5867 23.4846 10.4288 23.4881 8.47535 21.5462L2.94027 16.319C2.34017 15.7522 2.00007 14.9633 2.00007 14.1379L2 6.00004C1.99999 4.34318 3.34313 3.00002 4.99999 3.00002L7.67569 3.00001C8.08404 1.879 9.15931 1.07851 10.4215 1.07851ZM10.0789 3.14431C11.2848 3.53328 12.1571 4.66477 12.1571 6V11.0858L15.5357 14.4645C15.9025 14.8312 16.2004 15.2408 16.4293 15.6771L18.908 13.2435L15.95 10.2856C15.7625 10.0981 15.6571 9.8437 15.6571 9.57848V4.07849C15.6571 3.52621 15.2094 3.07849 14.6571 3.07849L10.4216 3.07851C10.3005 3.07851 10.1849 3.10186 10.0789 3.14431ZM20.2031 14.7748L16.9996 17.92C17.0054 18.2878 16.9709 18.656 16.8961 19.0176C17.8511 19.2129 18.882 18.9394 19.6216 18.1998C20.548 17.2733 20.7419 15.8917 20.2031 14.7748ZM10.7067 20.7077C11.8218 21.2404 13.1979 21.0449 14.1215 20.1213C15.0452 19.1977 15.2406 17.8216 14.7079 16.7065L10.7067 20.7077ZM13.4144 15.1716L10.45 12.2071C10.2624 12.0196 10.1571 11.7652 10.1571 11.5V6C10.1571 5.44771 9.70934 5 9.15705 5L5 5.00002C4.44771 5.00002 4 5.44774 4 6.00002L4.00003 10.0275C6.24998 10.2762 7.99998 12.1838 7.99998 14.5C7.99998 15.5912 7.61112 16.5915 6.96604 17.3699L9.15183 19.4341L13.4144 15.1716ZM5.50661 15.9917C5.81709 15.5748 5.99998 15.0588 5.99998 14.5C5.99998 13.2906 5.14114 12.2817 4.00005 12.05L4.00007 14.1379C4.00007 14.413 4.11343 14.676 4.31347 14.8649L5.50661 15.9917Z" fill="#000640"/>
</svg>
