<svg width="24" height="24" viewBox="0 0 24 24" fill="none" xmlns="http://www.w3.org/2000/svg">
<path fill-rule="evenodd" clip-rule="evenodd" d="M4.00001 3V4C4.00001 3 4.00001 3 4.00001 3H20C20.5523 3 21 3.44772 21 4V6.91724L22.9864 18.8356C23.0314 19.1054 22.9638 19.3819 22.7995 19.6006C22.6352 19.8193 22.3885 19.9612 22.1168 19.9932L13.6168 20.9932C13.1348 21.0499 12.6816 20.7522 12.5422 20.2873L11.865 18.0301L10.9285 20.3714C10.7596 20.7936 10.3272 21.0487 9.87597 20.9923L1.87597 19.9923C1.60578 19.9585 1.36105 19.816 1.1983 19.5977C1.03554 19.3794 0.968847 19.1042 1.01361 18.8356L3.00001 6.91724V4C3.00001 3.44772 3.44772 3 4.00001 3ZM4.84713 8L3.15764 18.1369L9.35818 18.912L11.0715 14.6286C11.2294 14.2338 11.6197 13.9821 12.0445 14.001C12.4693 14.0199 12.8357 14.3054 12.9578 14.7127L14.2167 18.9088L20.8411 18.1294L19.1529 8H4.84713ZM19 6V5H5V6H19Z" fill="#000640"/>
</svg>
