<svg width="24" height="24" viewBox="0 0 24 24" fill="none" xmlns="http://www.w3.org/2000/svg">
<path fill-rule="evenodd" clip-rule="evenodd" d="M11 12C11 13.6569 9.65685 15 8 15C6.34315 15 5 13.6569 5 12C5 10.3431 6.34315 9 8 9C9.65685 9 11 10.3431 11 12ZM9 12C9 12.5523 8.55228 13 8 13C7.44772 13 7 12.5523 7 12C7 11.4477 7.44772 11 8 11C8.55228 11 9 11.4477 9 12Z" fill="#000640"/>
<path fill-rule="evenodd" clip-rule="evenodd" d="M3 3C2.44772 3 2 3.44772 2 4C2 7.18954 1.75557 9.26686 1.50877 11.1178C1.48587 11.2896 1.46285 11.46 1.43994 11.6296C1.21482 13.2961 1 14.8864 1 17V18C1 19.6569 2.34315 21 4 21H20C21.6569 21 23 19.6569 23 18V15.715C23 13.6415 21.4405 12.0124 19.6 11.5139C18.9017 11.3248 18.1419 11.0726 17.4139 10.7416C17.1333 10.614 16.7206 10.4572 16.3117 10.3018C16.0403 10.1986 15.7707 10.0961 15.5425 10.0033C14.8469 9.72023 14.3905 9.47629 14.2071 9.29289C13.0944 8.18019 12.5361 6.8212 12.2589 5.72804C11.9056 4.33447 10.6759 3 9 3H3ZM3.49123 11.3822C3.71801 9.68127 3.9467 7.76085 3.99195 5H9C9.53324 5 10.1307 5.4718 10.3203 6.2196C10.652 7.52812 11.3429 9.25716 12.7929 10.7071C13.3036 11.2178 14.1377 11.5909 14.7888 11.8558C15.1374 11.9977 15.4446 12.1133 15.7183 12.2163C15.8164 12.2532 15.9102 12.2884 16 12.3227V16H3.01748C3.07053 14.5031 3.23742 13.2658 3.423 11.89C3.4455 11.7232 3.46835 11.5537 3.49123 11.3822ZM18 16V13.1176C18.3713 13.2431 18.7336 13.3513 19.0771 13.4443C20.2119 13.7517 21 14.7059 21 15.715V16H18ZM3 18H21C21 18.5523 20.5523 19 20 19H4C3.44772 19 3 18.5523 3 18Z" fill="#000640"/>
</svg>
