<svg width="24" height="24" viewBox="0 0 24 24" fill="none" xmlns="http://www.w3.org/2000/svg">
<path fill-rule="evenodd" clip-rule="evenodd" d="M8.65812 1.06021C8.91618 0.966367 9.20148 0.98277 9.44709 1.10557C11.1656 1.96481 12.8344 1.96481 14.5529 1.10557C14.7985 0.982772 15.0838 0.966367 15.3418 1.06021L19.8016 2.68195C20.7725 3.03498 21.4934 3.86266 21.7098 4.87275L22.9779 10.7905C23.0734 11.2364 22.8552 11.6905 22.4473 11.8944L19.0001 13.618V22C19.0001 22.5523 18.5524 23 18.0001 23H6.00008C5.44779 23 5.00008 22.5523 5.00008 22V13.618L1.55287 11.8944C1.14497 11.6905 0.926728 11.2364 1.02228 10.7905L2.29037 4.87273C2.50681 3.86265 3.2277 3.03498 4.19851 2.68195L8.65812 1.06021ZM7.00008 13V15H17.0001V13H7.00008ZM19.0001 11.382V10C19.0001 9.44772 18.5524 9 18.0001 9C17.4478 9 17.0001 9.44772 17.0001 10V11H7.00008V10C7.00008 9.44772 6.55236 9 6.00008 9C5.44779 9 5.00008 9.44772 5.00008 10V11.382L3.14021 10.452L4.24597 5.29179C4.31812 4.95509 4.55842 4.67921 4.88202 4.56153L8.15766 3.37034C8.22109 3.67469 8.31094 4.0106 8.43867 4.35117C8.66083 4.94352 9.01773 5.6037 9.60133 6.12243C10.2056 6.6595 11.0042 7 12.0001 7C12.9959 7 13.7946 6.6595 14.3988 6.12241C14.9824 5.60367 15.3393 4.94348 15.5614 4.35112C15.6891 4.01058 15.7789 3.67468 15.8424 3.37035L19.1181 4.56154C19.4417 4.67921 19.682 4.95511 19.7542 5.2918L20.86 10.452L19.0001 11.382ZM13.7292 3.53589C13.7163 3.57362 13.7028 3.61131 13.6888 3.64888C13.5359 4.05652 13.3303 4.39633 13.0701 4.62759C12.8306 4.8405 12.5042 5 12.0001 5C11.4959 5 11.1696 4.8405 10.93 4.62758C10.6698 4.3963 10.4642 4.05648 10.3113 3.64883C10.2972 3.61129 10.2837 3.57363 10.2709 3.53592C11.4216 3.82137 12.5785 3.82136 13.7292 3.53589ZM17.0001 17H7.00008V21H17.0001V17Z" fill="#000640"/>
</svg>
