<svg width="24" height="24" viewBox="0 0 24 24" fill="none" xmlns="http://www.w3.org/2000/svg">
<path fill-rule="evenodd" clip-rule="evenodd" d="M2.00778 3.87597C2.07033 3.37554 2.49573 3 3.00006 3H21.0001C21.5044 3 21.9298 3.37554 21.9923 3.87597L22.9923 11.876C23.0515 12.349 22.7685 12.7979 22.3163 12.9487C20.4354 13.5757 18.5952 14.6072 17.0261 16.6157C16.2618 17.5939 15.5492 18.8198 14.9285 20.3714C14.7767 20.751 14.409 21 14.0001 21H10.0001C9.59115 21 9.22344 20.751 9.07158 20.3714C8.86827 19.8631 8.65512 19.3899 8.43359 18.9489C7.9788 18.0437 7.48829 17.2739 6.97406 16.6157C5.40491 14.6072 3.56476 13.5757 1.68383 12.9487C1.23161 12.7979 0.948655 12.349 1.00778 11.876L2.00778 3.87597ZM3.88284 5L3.09135 11.3319C4.42327 11.8546 5.75336 12.597 6.99296 13.7105L7.89158 5H3.88284ZM9.9022 5L9.35696 10.2851C10.7113 10.8538 11.7772 12.0852 12.1673 13.5562C12.6107 15.2285 12.1734 17.1269 10.5508 18.7423C10.5894 18.8274 10.6277 18.9133 10.6656 19H13.3345C13.8907 17.7279 14.5181 16.6409 15.2029 15.7103L14.0979 5H9.9022ZM16.1085 5L17.0072 13.7105C18.2468 12.597 19.5768 11.8546 20.9088 11.3319L20.1173 5H16.1085ZM9.56047 16.8541C10.3453 15.85 10.4427 14.8557 10.2341 14.0688C10.0553 13.3946 9.64565 12.8245 9.13404 12.4459L8.79726 15.7103C9.06035 16.0679 9.31502 16.4486 9.56047 16.8541Z" fill="#000640"/>
</svg>
