<svg width="24" height="24" viewBox="0 0 24 24" fill="none" xmlns="http://www.w3.org/2000/svg">
<path fill-rule="evenodd" clip-rule="evenodd" d="M2.16808 2.44526C2.40363 2.09198 2.83659 1.92597 3.24794 2.0312C4.46795 2.34331 6.25648 3.43876 7.49347 5.15216C8.70991 6.83711 9.41574 9.15694 8.53697 11.9231C8.61959 12.0852 8.69952 12.2427 8.77715 12.3956C9.55458 13.9267 10.1001 15.0012 10.7856 15.7645C11.38 16.4263 12.0874 16.8524 13.2899 16.9681L15.0514 11.6838C15.207 11.217 15.6791 10.9327 16.1644 11.0136L16.1669 11.014L16.1702 11.0146L16.1796 11.0162L16.2088 11.0215C16.2329 11.0259 16.2659 11.0322 16.3072 11.0405C16.3896 11.0573 16.5053 11.0823 16.6479 11.1174C16.9324 11.1873 17.3276 11.2978 17.7823 11.4623C18.6817 11.7877 19.8648 12.3428 20.8796 13.257C21.1675 13.5164 21.2796 13.9187 21.1674 14.2896L20.3474 17H22C22.5523 17 23 17.4477 23 18V19C23 20.6569 21.6569 22 20 22H3.00004C2.4775 22 2.04306 21.5977 2.00299 21.0767L1.00299 8.0767C1.00102 8.05118 1.00004 8.0256 1.00004 8C1.00004 7.96056 1.00003 7.92118 1.00002 7.88186C0.999526 5.97175 0.999067 4.19857 2.16808 2.44526ZM3.92607 20H20C20.5523 20 21 19.5523 21 19H14.0003C11.8637 19 10.4312 18.3631 9.29756 17.1008C8.41996 16.1236 7.73331 14.7658 6.97025 13.2569C6.83745 12.9943 6.70233 12.7271 6.5635 12.4566C5.67052 10.7165 4.64604 9.50135 3.08946 9.12406L3.92607 20ZM3.00521 7.07087C3.02331 5.9083 3.10355 5.04622 3.45303 4.24518C4.1974 4.61998 5.14823 5.32046 5.8719 6.32285C6.46491 7.14425 6.89659 8.15361 6.92704 9.34934C5.96587 8.20289 4.71495 7.32002 3.00521 7.07087ZM18.2578 17L19.0584 14.3539C18.4156 13.8886 17.7088 13.5626 17.1018 13.343C16.9431 13.2855 16.7933 13.2361 16.6561 13.194L15.3875 17H18.2578Z" fill="#000640"/>
</svg>
