<svg width="24" height="24" viewBox="0 0 24 24" fill="none" xmlns="http://www.w3.org/2000/svg">
<g clip-path="url(#clip0_1253_6599)">
<path d="M6.60006 1.80006C7.04189 1.46869 7.13143 0.841887 6.80006 0.400059C6.46869 -0.0417689 5.84189 -0.131312 5.40006 0.200059L1.40006 3.20006C0.958231 3.53143 0.868688 4.15823 1.20006 4.60006C1.53143 5.04189 2.15823 5.13143 2.60006 4.80006L6.60006 1.80006Z" fill="#000640"/>
<path d="M17.2001 0.400059C17.5314 -0.0417689 18.1582 -0.131312 18.6001 0.200059L22.6001 3.20006C23.0419 3.53143 23.1314 4.15823 22.8001 4.60006C22.4687 5.04189 21.8419 5.13143 21.4001 4.80006L17.4001 1.80006C16.9582 1.46869 16.8687 0.841887 17.2001 0.400059Z" fill="#000640"/>
<path d="M17.0001 13.0002C17.0001 13.5524 16.5523 14.0002 16.0001 14.0002H13.0001V17C13.0001 17.5523 12.5523 18 12.0001 18C11.4478 18 11.0001 17.5523 11.0001 17V14.0002H8.00006C7.44777 14.0002 7.00006 13.5524 7.00006 13.0002C7.00006 12.4479 7.44777 12.0002 8.00006 12.0002H11.0001V9C11.0001 8.44771 11.4478 8 12.0001 8C12.5523 8 13.0001 8.44771 13.0001 9V12.0002H16.0001C16.5523 12.0002 17.0001 12.4479 17.0001 13.0002Z" fill="#000640"/>
<path fill-rule="evenodd" clip-rule="evenodd" d="M1.00006 13C1.00006 6.92487 5.92492 2 12.0001 2C18.0752 2 23.0001 6.92487 23.0001 13C23.0001 19.0751 18.0752 24 12.0001 24C5.92492 24 1.00006 19.0751 1.00006 13ZM12.0001 4C7.02949 4 3.00006 8.02944 3.00006 13C3.00006 17.9706 7.02949 22 12.0001 22C16.9706 22 21.0001 17.9706 21.0001 13C21.0001 8.02944 16.9706 4 12.0001 4Z" fill="#000640"/>
</g>
<defs>
<clipPath id="clip0_1253_6599">
<rect width="24" height="24" fill="white"/>
</clipPath>
</defs>
</svg>
