<svg width="24" height="24" viewBox="0 0 24 24" fill="none" xmlns="http://www.w3.org/2000/svg">
<path fill-rule="evenodd" clip-rule="evenodd" d="M4.86204 1.81452C2.93721 1.23707 1 2.67841 1 4.688V17.5119C1 18.8368 1.869 20.0047 3.13796 20.3854L11.7127 22.9578C11.8695 23.0049 12.0355 23.0127 12.1961 22.9806L20.5883 21.3021C21.9906 21.0217 23 19.7904 23 18.3604V4.688C23 2.67841 21.0628 1.23707 19.138 1.81452L12 3.95591L4.86204 1.81452ZM21 4.688C21 4.01814 20.3543 3.53769 19.7127 3.73018L13 5.74397V16.7801L20.1961 15.3409C20.6635 15.2474 21 14.837 21 14.3603V4.688ZM21 17.189C20.8672 17.2358 20.7298 17.2738 20.5883 17.3021L13 18.8197V20.7802L20.1961 19.341C20.6635 19.2475 21 18.8371 21 18.3604V17.189ZM11 18.744L3.13796 16.3854C3.09143 16.3714 3.04543 16.3564 3 16.3403V17.5119C3 17.9535 3.28967 18.3429 3.71265 18.4698L11 20.656V18.744ZM3 13.5119C3 13.9535 3.28967 14.3428 3.71265 14.4697L11 16.6559V5.74397L4.28735 3.73018C3.64574 3.53769 3 4.01814 3 4.688V13.5119Z" fill="#000640"/>
</svg>
