<svg width="24" height="24" viewBox="0 0 24 24" fill="none" xmlns="http://www.w3.org/2000/svg">
<path fill-rule="evenodd" clip-rule="evenodd" d="M5.71584 3C5.22227 3 4.80252 3.36011 4.72747 3.84794L3.16561 14H8C8.48601 14 8.9012 14.3493 8.98496 14.8272L8.98599 14.8323C8.98784 14.8414 8.99182 14.8598 8.99846 14.8864C9.0118 14.9397 9.03546 15.0241 9.07337 15.1291C9.15005 15.3415 9.27953 15.6227 9.4875 15.9C9.87683 16.4191 10.59 17 12 17C13.41 17 14.1232 16.4191 14.5125 15.9C14.7205 15.6227 14.8499 15.3415 14.9266 15.1291C14.9645 15.0241 14.9882 14.9397 15.0015 14.8864C15.0082 14.8598 15.0122 14.8414 15.014 14.8323L15.015 14.8273C15.0988 14.3493 15.514 14 16 14H20.8344L19.2725 3.84794C19.1975 3.36011 18.7777 3 18.2842 3H16.0909C15.5386 3 15.0909 2.55228 15.0909 2C15.0909 1.44772 15.5386 1 16.0909 1H18.2842C19.7649 1 21.0241 2.08033 21.2493 3.54383L23 14.9235V20C23 21.6569 21.6569 23 20 23H4C2.34315 23 1 21.6569 1 20V14.9235L2.75072 3.54383C2.97588 2.08033 4.23512 1 5.71584 1H7.90909C8.46138 1 8.90909 1.44772 8.90909 2C8.90909 2.55228 8.46138 3 7.90909 3H5.71584ZM21 16H16.734C16.603 16.3207 16.4057 16.709 16.1125 17.1C15.3768 18.0809 14.09 19 12 19C9.90999 19 8.62317 18.0809 7.8875 17.1C7.59425 16.709 7.39696 16.3207 7.26597 16H3V20C3 20.5523 3.44772 21 4 21H20C20.5523 21 21 20.5523 21 20V16Z" fill="#000640"/>
<path d="M7.29289 7.29289C7.68342 6.90237 8.31658 6.90237 8.70711 7.29289L11 9.58579V2C11 1.44771 11.4477 1 12 1C12.5523 1 13 1.44771 13 2V9.58578L15.2929 7.29289C15.6834 6.90237 16.3166 6.90237 16.7071 7.29289C17.0976 7.68342 17.0976 8.31658 16.7071 8.70711L12.7071 12.7071C12.3166 13.0976 11.6834 13.0976 11.2929 12.7071L7.29289 8.70711C6.90237 8.31658 6.90237 7.68342 7.29289 7.29289Z" fill="#000640"/>
</svg>
