<svg width="24" height="24" viewBox="0 0 24 24" fill="none" xmlns="http://www.w3.org/2000/svg">
<path d="M8.79289 11.7929C9.18342 11.4024 9.81658 11.4024 10.2071 11.7929L12 13.5858L13.7929 11.7929C14.1834 11.4024 14.8166 11.4024 15.2071 11.7929C15.5976 12.1834 15.5976 12.8166 15.2071 13.2071L13.4142 15L15.2071 16.7929C15.5976 17.1834 15.5976 17.8166 15.2071 18.2071C14.8166 18.5976 14.1834 18.5976 13.7929 18.2071L12 16.4142L10.2071 18.2071C9.81658 18.5976 9.18342 18.5976 8.79289 18.2071C8.40237 17.8166 8.40237 17.1834 8.79289 16.7929L10.5858 15L8.79289 13.2071C8.40237 12.8166 8.40237 12.1834 8.79289 11.7929Z" fill="#000640"/>
<path fill-rule="evenodd" clip-rule="evenodd" d="M2 4C2 2.34315 3.34315 1 5 1H14C14.2652 1 14.5196 1.10536 14.7071 1.29289L21.7071 8.29289C21.8946 8.48043 22 8.73478 22 9V20C22 21.6569 20.6569 23 19 23H5C3.34315 23 2 21.6569 2 20V4ZM5 3C4.44772 3 4 3.44772 4 4V20C4 20.5523 4.44772 21 5 21H19C19.5523 21 20 20.5523 20 20V10H16C14.3431 10 13 8.65685 13 7V3H5ZM15 4.41421L18.5858 8H16C15.4477 8 15 7.55228 15 7V4.41421Z" fill="#000640"/>
</svg>
