<svg width="24" height="24" viewBox="0 0 24 24" fill="none" xmlns="http://www.w3.org/2000/svg">
<path d="M16.7071 12.7071C17.0976 12.3166 17.0976 11.6834 16.7071 11.2929C16.3166 10.9024 15.6834 10.9024 15.2929 11.2929L10 16.5858L7.70711 14.2929C7.31658 13.9024 6.68342 13.9024 6.29289 14.2929C5.90237 14.6834 5.90237 15.3166 6.29289 15.7071L9.29289 18.7071C9.68342 19.0976 10.3166 19.0976 10.7071 18.7071L16.7071 12.7071Z" fill="#000640"/>
<path fill-rule="evenodd" clip-rule="evenodd" d="M5 1C3.34315 1 2 2.34315 2 4V20C2 21.6569 3.34315 23 5 23H19C20.6569 23 22 21.6569 22 20V9C22 8.73478 21.8946 8.48043 21.7071 8.29289L14.7071 1.29289C14.5196 1.10536 14.2652 1 14 1H5ZM4 4C4 3.44772 4.44772 3 5 3H13V7C13 8.65685 14.3431 10 16 10H20V20C20 20.5523 19.5523 21 19 21H5C4.44772 21 4 20.5523 4 20V4ZM18.5858 8L15 4.41421V7C15 7.55228 15.4477 8 16 8H18.5858Z" fill="#000640"/>
</svg>
