<svg width="24" height="24" viewBox="0 0 24 24" fill="none" xmlns="http://www.w3.org/2000/svg">
<path d="M9 14C8.44772 14 8 14.4477 8 15C8 15.5523 8.44772 16 9 16H15C15.5523 16 16 15.5523 16 15C16 14.4477 15.5523 14 15 14H9Z" fill="#000640"/>
<path fill-rule="evenodd" clip-rule="evenodd" d="M5 1C3.34315 1 2 2.34315 2 4V20C2 21.6569 3.34315 23 5 23H19C20.6569 23 22 21.6569 22 20V9C22 8.73478 21.8946 8.48043 21.7071 8.29289L14.7071 1.29289C14.5196 1.10536 14.2652 1 14 1H5ZM4 4C4 3.44772 4.44772 3 5 3H13V7C13 8.65685 14.3431 10 16 10H20V20C20 20.5523 19.5523 21 19 21H5C4.44772 21 4 20.5523 4 20V4ZM18.5858 8L15 4.41421V7C15 7.55228 15.4477 8 16 8H18.5858Z" fill="#000640"/>
</svg>
