<svg width="24" height="24" viewBox="0 0 24 24" fill="none" xmlns="http://www.w3.org/2000/svg">
<path d="M8.79289 10.7929C9.18342 10.4024 9.81658 10.4024 10.2071 10.7929L12 12.5858L13.7929 10.7929C14.1834 10.4024 14.8166 10.4024 15.2071 10.7929C15.5976 11.1834 15.5976 11.8166 15.2071 12.2071L13.4142 14L15.2071 15.7929C15.5976 16.1834 15.5976 16.8166 15.2071 17.2071C14.8166 17.5976 14.1834 17.5976 13.7929 17.2071L12 15.4142L10.2071 17.2071C9.81658 17.5976 9.18342 17.5976 8.79289 17.2071C8.40237 16.8166 8.40237 16.1834 8.79289 15.7929L10.5858 14L8.79289 12.2071C8.40237 11.8166 8.40237 11.1834 8.79289 10.7929Z" fill="#000640"/>
<path fill-rule="evenodd" clip-rule="evenodd" d="M1 5C1 3.34315 2.34315 2 4 2H10C10.3344 2 10.6466 2.1671 10.8321 2.4453L12.5352 5H20C21.6569 5 23 6.34315 23 8V19C23 20.6569 21.6569 22 20 22H4C2.34315 22 1 20.6569 1 19V5ZM4 4C3.44772 4 3 4.44772 3 5V19C3 19.5523 3.44772 20 4 20H20C20.5523 20 21 19.5523 21 19V8C21 7.44772 20.5523 7 20 7H12C11.6656 7 11.3534 6.8329 11.1679 6.5547L9.46482 4H4Z" fill="#000640"/>
</svg>
