<svg width="24" height="24" viewBox="0 0 24 24" fill="none" xmlns="http://www.w3.org/2000/svg">
<path fill-rule="evenodd" clip-rule="evenodd" d="M3 4C3 2.34315 4.34315 1 6 1H20C21.6569 1 23 2.34315 23 4V20C23 21.6569 21.6569 23 20 23H6C4.34315 23 3 21.6569 3 20V19H2C1.44772 19 1 18.5523 1 18C1 17.4477 1.44772 17 2 17H3V15H2C1.44772 15 1 14.5523 1 14C1 13.4477 1.44772 13 2 13H3V11H2C1.44772 11 1 10.5523 1 10C1 9.44771 1.44772 9 2 9H3V7H2C1.44772 7 1 6.55228 1 6C1 5.44772 1.44772 5 2 5H3V4ZM5 19H6C6.55228 19 7 18.5523 7 18C7 17.4477 6.55228 17 6 17H5V15H6C6.55228 15 7 14.5523 7 14C7 13.4477 6.55228 13 6 13H5V11H6C6.55228 11 7 10.5523 7 10C7 9.44771 6.55228 9 6 9H5V7H6C6.55228 7 7 6.55228 7 6C7 5.44772 6.55228 5 6 5H5V4C5 3.44772 5.44772 3 6 3H20C20.5523 3 21 3.44772 21 4V20C21 20.5523 20.5523 21 20 21H6C5.44772 21 5 20.5523 5 20V19Z" fill="#000640"/>
</svg>
