<svg width="24" height="24" viewBox="0 0 24 24" fill="none" xmlns="http://www.w3.org/2000/svg">
<path d="M6 8C6 7.44772 6.44772 7 7 7H17C17.5523 7 18 7.44772 18 8C18 8.55228 17.5523 9 17 9H7C6.44772 9 6 8.55228 6 8Z" fill="#000640"/>
<path d="M7 11C6.44772 11 6 11.4477 6 12C6 12.5523 6.44772 13 7 13H12C12.5523 13 13 12.5523 13 12C13 11.4477 12.5523 11 12 11H7Z" fill="#000640"/>
<path fill-rule="evenodd" clip-rule="evenodd" d="M12 1C12.5523 1 13 1.44772 13 2V3H22C22.5523 3 23 3.44772 23 4C23 4.55228 22.5523 5 22 5V15C22 16.6569 20.6569 18 19 18H16.477L17.9285 21.6286C18.1336 22.1414 17.8842 22.7234 17.3714 22.9285C16.8586 23.1336 16.2766 22.8842 16.0715 22.3714L14.323 18H9.67703L7.92848 22.3714C7.72336 22.8842 7.14139 23.1336 6.62861 22.9285C6.11583 22.7234 5.86641 22.1414 6.07152 21.6286L7.52297 18H5C3.34315 18 2 16.6569 2 15V5C1.44772 5 1 4.55228 1 4C1 3.44772 1.44772 3 2 3H11V2C11 1.44772 11.4477 1 12 1ZM4 5V15C4 15.5523 4.44772 16 5 16H19C19.5523 16 20 15.5523 20 15V5H4Z" fill="#000640"/>
</svg>
