<svg width="24" height="24" viewBox="0 0 24 24" fill="none" xmlns="http://www.w3.org/2000/svg">
<path d="M8.29289 8.29289C8.68342 7.90237 9.31658 7.90237 9.70711 8.29289L12.0001 10.5859L14.2929 8.29304C14.6834 7.90252 15.3166 7.90252 15.7071 8.29304C16.0976 8.68357 16.0976 9.31673 15.7071 9.70726L13.4143 12.0001L15.7071 14.2929C16.0976 14.6834 16.0976 15.3166 15.7071 15.7071C15.3166 16.0976 14.6834 16.0976 14.2929 15.7071L12.0001 13.4143L9.70711 15.7073C9.31658 16.0978 8.68342 16.0978 8.29289 15.7073C7.90237 15.3167 7.90237 14.6836 8.29289 14.293L10.5859 12.0001L8.29289 9.70711C7.90237 9.31658 7.90237 8.68342 8.29289 8.29289Z" fill="#000640"/>
<path fill-rule="evenodd" clip-rule="evenodd" d="M11.0513 1.26235C11.6671 1.05708 12.3329 1.05708 12.9487 1.26235L19.9487 3.59568C21.1737 4.00402 22 5.15044 22 6.44173V14.0002C22 17.0997 19.97 19.2147 17.933 20.5525C15.8839 21.8981 13.623 22.6019 12.6906 22.8563C12.2359 22.9803 11.7641 22.9803 11.3094 22.8563C10.377 22.6019 8.11615 21.8981 6.06702 20.5525C4.02998 19.2147 2 17.0997 2 14.0002V6.44173C2 5.15044 2.82629 4.00402 4.05132 3.59568L11.0513 1.26235ZM12.3162 3.15972C12.111 3.09129 11.889 3.09129 11.6838 3.15971L4.68377 5.49305C4.27543 5.62916 4 6.0113 4 6.44173V14.0002C4 16.1103 5.36251 17.6971 7.16487 18.8807C8.95514 20.0564 10.9806 20.6935 11.8358 20.9268C11.9459 20.9568 12.0541 20.9568 12.1642 20.9268C13.0194 20.6935 15.0449 20.0564 16.8351 18.8807C18.6375 17.6971 20 16.1103 20 14.0002V6.44173C20 6.0113 19.7246 5.62916 19.3162 5.49305L12.3162 3.15972Z" fill="#000640"/>
</svg>
