<svg width="24" height="24" viewBox="0 0 24 24" fill="none" xmlns="http://www.w3.org/2000/svg">
<path fill-rule="evenodd" clip-rule="evenodd" d="M16.9996 7C16.9996 10.3137 14.3133 13 10.9996 13C7.68586 13 4.99957 10.3137 4.99957 7C4.99957 3.68629 7.68586 1 10.9996 1C14.3133 1 16.9996 3.68629 16.9996 7ZM14.9996 7C14.9996 9.20914 13.2087 11 10.9996 11C8.79043 11 6.99957 9.20914 6.99957 7C6.99957 4.79086 8.79043 3 10.9996 3C13.2087 3 14.9996 4.79086 14.9996 7Z" fill="#000640"/>
<path d="M9.11531 16.1032C9.66388 16.0393 10.0568 15.5428 9.99286 14.9942C9.92894 14.4457 9.43242 14.0528 8.88385 14.1167C4.42286 14.6364 2.42268 16.8059 1.57721 18.6582C1.17875 19.5312 1.36015 20.4209 1.88965 21.0547C2.39436 21.6588 3.17904 21.9999 3.99963 21.9999L8.99958 21.9999C9.55186 21.9999 9.99958 21.5522 9.99958 20.9999C9.99957 20.4476 9.55186 19.9999 8.99957 19.9999L3.99962 19.9999C3.71562 19.9999 3.51464 19.8803 3.42449 19.7724C3.38252 19.7221 3.36793 19.6803 3.36349 19.6506C3.3596 19.6246 3.3579 19.5736 3.39666 19.4887C3.94582 18.2855 5.33571 16.5436 9.11531 16.1032Z" fill="#000640"/>
<path d="M18.9996 19C19.5519 19 19.9996 18.5523 19.9996 18C19.9996 17.4477 19.5519 17 18.9996 17H14.9996C14.4473 17 13.9996 17.4477 13.9996 18C13.9996 18.5523 14.4473 19 14.9996 19H18.9996Z" fill="#000640"/>
<path fill-rule="evenodd" clip-rule="evenodd" d="M16.9996 24C20.3133 24 22.9996 21.3137 22.9996 18C22.9996 14.6863 20.3133 12 16.9996 12C13.6859 12 10.9996 14.6863 10.9996 18C10.9996 21.3137 13.6859 24 16.9996 24ZM16.9996 22C19.2087 22 20.9996 20.2091 20.9996 18C20.9996 15.7909 19.2087 14 16.9996 14C14.7904 14 12.9996 15.7909 12.9996 18C12.9996 20.2091 14.7904 22 16.9996 22Z" fill="#000640"/>
</svg>
