<svg width="24" height="24" viewBox="0 0 24 24" fill="none" xmlns="http://www.w3.org/2000/svg">
<path fill-rule="evenodd" clip-rule="evenodd" d="M17.9995 7C17.9995 10.3137 15.3132 13 11.9995 13C8.68581 13 5.99952 10.3137 5.99952 7C5.99952 3.68629 8.68581 1 11.9995 1C15.3132 1 17.9995 3.68629 17.9995 7ZM15.9995 7C15.9995 9.20914 14.2087 11 11.9995 11C9.79038 11 7.99952 9.20914 7.99952 7C7.99952 4.79086 9.79038 3 11.9995 3C14.2087 3 15.9995 4.79086 15.9995 7Z" fill="#000640"/>
<path d="M4.39666 19.4886C4.72482 18.7697 5.32761 17.9172 6.46086 17.2357C7.60017 16.5506 9.33979 16 11.9996 16C12.5519 16 12.9996 15.5523 12.9996 15C12.9996 14.4477 12.5519 14 11.9996 14C9.06446 14 6.94821 14.6088 5.43015 15.5217C3.90604 16.4383 3.04998 17.6224 2.57724 18.6581C2.17876 19.5311 2.36012 20.4207 2.88956 21.0546C3.39422 21.6587 4.17891 22 4.99956 22H11.9995C12.5518 22 12.9995 21.5523 12.9995 21C12.9995 20.4477 12.5518 20 11.9995 20H4.99956C4.71563 20 4.51467 19.8804 4.42451 19.7724C4.38253 19.7222 4.36793 19.6803 4.36349 19.6506C4.3596 19.6245 4.35791 19.5735 4.39666 19.4886Z" fill="#000640"/>
<path d="M21.2066 14.793C21.5972 15.1836 21.5972 15.8167 21.2066 16.2073L19.4139 18L21.2069 19.7929C21.5974 20.1834 21.5974 20.8165 21.2069 21.2071C20.8163 21.5976 20.1832 21.5976 19.7926 21.2071L17.9997 19.4142L16.2066 21.2073C15.8161 21.5978 15.183 21.5978 14.7924 21.2073C14.4019 20.8167 14.4019 20.1836 14.7924 19.793L16.5855 18L14.7926 16.2071C14.4021 15.8165 14.4021 15.1834 14.7926 14.7929C15.1832 14.4023 15.8163 14.4023 16.2069 14.7929L17.9997 16.5857L19.7924 14.793C20.183 14.4025 20.8161 14.4025 21.2066 14.793Z" fill="#000640"/>
</svg>
