<svg width="24" height="24" viewBox="0 0 24 24" fill="none" xmlns="http://www.w3.org/2000/svg">
<path fill-rule="evenodd" clip-rule="evenodd" d="M2 16C2 16.5523 2.44772 17 3 17C3.55228 17 4 16.5523 4 16L4 7C4 5.34315 5.34315 4 7 4C8.65685 4 10 5.34315 10 7L10 17C10 19.7614 12.2386 22 15 22C17.7614 22 20 19.7614 20 17V16.8293C21.1652 16.4175 22 15.3062 22 14V8C22 7.44772 21.5523 7 21 7H20V3C20 2.44772 19.5523 2 19 2C18.4477 2 18 2.44772 18 3V7H17C16.4477 7 16 7.44772 16 8V14C16 15.3062 16.8348 16.4175 18 16.8293V17C18 18.6569 16.6569 20 15 20C13.3431 20 12 18.6569 12 17L12 7C12 4.23858 9.76142 2 7 2C4.23858 2 2 4.23858 2 7V16ZM18 9V14C18 14.5523 18.4477 15 19 15C19.5523 15 20 14.5523 20 14V9H18Z" fill="#000640"/>
</svg>
