<svg width="24" height="24" viewBox="0 0 24 24" fill="none" xmlns="http://www.w3.org/2000/svg">
<path d="M9 12.1213C8.44772 12.1213 8 12.5691 8 13.1213C8 13.6736 8.44772 14.1213 9 14.1213H15C15.5523 14.1213 16 13.6736 16 13.1213C16 12.5691 15.5523 12.1213 15 12.1213H9Z" fill="#000640"/>
<path fill-rule="evenodd" clip-rule="evenodd" d="M10 1C9.44772 1 9 1.44772 9 2V3H7C5.34315 3 4 4.34315 4 6V20C4 21.6569 5.34315 23 7 23H17C18.6569 23 20 21.6569 20 20V6C20 4.34315 18.6569 3 17 3H15V2C15 1.44772 14.5523 1 14 1H10ZM6 6C6 5.44772 6.44772 5 7 5H17C17.5523 5 18 5.44772 18 6V20C18 20.5523 17.5523 21 17 21H7C6.44772 21 6 20.5523 6 20V6Z" fill="#000640"/>
</svg>
