<svg width="24" height="24" viewBox="0 0 24 24" fill="none" xmlns="http://www.w3.org/2000/svg">
<path d="M13.8 9.60006C14.1314 9.15823 14.0418 8.53143 13.6 8.20006C13.1582 7.86869 12.5314 7.95823 12.2 8.40006L9.20001 12.4001C8.97274 12.7031 8.93619 13.1085 9.10558 13.4473C9.27497 13.7861 9.62123 14.0001 10 14.0001H12L10.2 16.4001C9.86864 16.8419 9.95818 17.4687 10.4 17.8001C10.8418 18.1314 11.4686 18.0419 11.8 17.6001L14.8 13.6001C15.0273 13.297 15.0638 12.8916 14.8944 12.5528C14.725 12.2141 14.3788 12.0001 14 12.0001H12L13.8 9.60006Z" fill="#000640"/>
<path fill-rule="evenodd" clip-rule="evenodd" d="M10 1C9.44772 1 9 1.44772 9 2V3H7C5.34315 3 4 4.34315 4 6V20C4 21.6569 5.34315 23 7 23H17C18.6569 23 20 21.6569 20 20V6C20 4.34315 18.6569 3 17 3H15V2C15 1.44772 14.5523 1 14 1H10ZM6 6C6 5.44772 6.44772 5 7 5H17C17.5523 5 18 5.44772 18 6V20C18 20.5523 17.5523 21 17 21H7C6.44772 21 6 20.5523 6 20V6Z" fill="#000640"/>
</svg>
