<svg width="24" height="24" viewBox="0 0 24 24" fill="none" xmlns="http://www.w3.org/2000/svg">
<path d="M5 19C5.55228 19 6 18.5523 6 18C6 17.4477 5.55228 17 5 17C4.44772 17 4 17.4477 4 18C4 18.5523 4.44772 19 5 19Z" fill="#000640"/>
<path fill-rule="evenodd" clip-rule="evenodd" d="M1 4C1 2.34315 2.34315 1 4 1H6C7.65685 1 9 2.34315 9 4V20C9 21.6569 7.65685 23 6 23H4C2.34315 23 1 21.6569 1 20V4ZM4 3C3.44772 3 3 3.44772 3 4V20C3 20.5523 3.44772 21 4 21H6C6.55228 21 7 20.5523 7 20V4C7 3.44772 6.55228 3 6 3H4Z" fill="#000640"/>
<path d="M10 5C10 4.44772 10.4477 4 11 4H20C21.6569 4 23 5.34315 23 7V16C23 17.6569 21.6569 19 20 19H16V21H18C18.5523 21 19 21.4477 19 22C19 22.5523 18.5523 23 18 23H11C10.4477 23 10 22.5523 10 22C10 21.4477 10.4477 21 11 21H14V19H11C10.4477 19 10 18.5523 10 18C10 17.4477 10.4477 17 11 17H20C20.5523 17 21 16.5523 21 16V7C21 6.44772 20.5523 6 20 6H11C10.4477 6 10 5.55228 10 5Z" fill="#000640"/>
</svg>
