<svg width="24" height="24" viewBox="0 0 24 24" fill="none" xmlns="http://www.w3.org/2000/svg">
<path fill-rule="evenodd" clip-rule="evenodd" d="M8 13C6.34315 13 5 14.3431 5 16C5 17.6569 6.34315 19 8 19C9.65685 19 11 17.6569 11 16C11 14.3431 9.65685 13 8 13ZM7 16C7 15.4477 7.44772 15 8 15C8.55228 15 9 15.4477 9 16C9 16.5523 8.55228 17 8 17C7.44772 17 7 16.5523 7 16Z" fill="#000640"/>
<path fill-rule="evenodd" clip-rule="evenodd" d="M18.7071 1.29289C18.3165 0.902369 17.6834 0.902369 17.2928 1.29289L14.5 4.08579L13.7071 3.29289C13.3222 2.90799 12.7001 2.90165 12.3074 3.27861L3.63316 11.6059C1.12884 14.0101 1.0881 18.0024 3.54285 20.4571C5.99759 22.9119 9.9899 22.8711 12.394 20.3668L20.7213 11.6925C21.0983 11.2999 21.092 10.6778 20.7071 10.2929L19.9142 9.5L22.7071 6.70711C23.0976 6.31658 23.0976 5.68342 22.7071 5.29289L18.7071 1.29289ZM18.5 8.08579L15.9142 5.5L18 3.41421L20.5857 6L18.5 8.08579ZM5.01822 13.0487L12.9857 5.39993L18.6 11.0143L10.9513 18.9817C9.32313 20.6777 6.61946 20.7053 4.95706 19.0429C3.29466 17.3805 3.32224 14.6768 5.01822 13.0487Z" fill="#000640"/>
</svg>
