<svg width="24" height="24" viewBox="0 0 24 24" fill="none" xmlns="http://www.w3.org/2000/svg">
<path fill-rule="evenodd" clip-rule="evenodd" d="M12 11C9.79086 11 8 12.7909 8 15C8 17.2091 9.79086 19 12 19C14.2091 19 16 17.2091 16 15C16 12.7909 14.2091 11 12 11ZM10 15C10 13.8954 10.8954 13 12 13C13.1046 13 14 13.8954 14 15C14 16.1046 13.1046 17 12 17C10.8954 17 10 16.1046 10 15Z" fill="#000640"/>
<path fill-rule="evenodd" clip-rule="evenodd" d="M4 1C2.34315 1 1 2.34315 1 4V20C1 21.6569 2.34315 23 4 23H20C21.6569 23 23 21.6569 23 20V9.18024C23 8.51861 22.7813 7.87554 22.3779 7.35112L17.7927 1.39029C17.6034 1.14421 17.3105 1 17 1H4ZM3 4C3 3.44772 3.44772 3 4 3H5V5.99997C5 7.65682 6.34315 8.99997 8 8.99997H15.0001C16.6569 8.99997 18 7.65682 18 5.99997V4.94015L20.7926 8.57053C20.9271 8.74534 21 8.9597 21 9.18024V20C21 20.5523 20.5523 21 20 21H4C3.44772 21 3 20.5523 3 20V4ZM7 5.99997V3H16V5.99997C16 6.55226 15.5523 6.99997 15.0001 6.99997H8C7.44772 6.99997 7 6.55226 7 5.99997Z" fill="#000640"/>
</svg>
