<svg width="1352" height="146" viewBox="0 0 1352 146" fill="none" xmlns="http://www.w3.org/2000/svg">
<rect x="96" y="144" width="1160" height="2" rx="0.5" fill="#F5F5F5"/>
<path d="M110.496 58.64C114.048 58.64 117.152 59.328 119.808 60.704C122.496 62.048 124.56 64 126 66.56C127.472 69.088 128.208 72.048 128.208 75.44C128.208 78.832 127.472 81.776 126 84.272C124.56 86.768 122.496 88.688 119.808 90.032C117.152 91.344 114.048 92 110.496 92H99.6V58.64H110.496ZM110.496 87.536C114.4 87.536 117.392 86.48 119.472 84.368C121.552 82.256 122.592 79.28 122.592 75.44C122.592 71.568 121.552 68.544 119.472 66.368C117.392 64.192 114.4 63.104 110.496 63.104H105.072V87.536H110.496ZM157.871 78.128C157.871 79.12 157.807 80.016 157.679 80.816H137.471C137.631 82.928 138.415 84.624 139.823 85.904C141.231 87.184 142.959 87.824 145.007 87.824C147.951 87.824 150.031 86.592 151.247 84.128H157.151C156.351 86.56 154.895 88.56 152.783 90.128C150.703 91.664 148.111 92.432 145.007 92.432C142.479 92.432 140.207 91.872 138.191 90.752C136.207 89.6 134.639 88 133.487 85.952C132.367 83.872 131.807 81.472 131.807 78.752C131.807 76.032 132.351 73.648 133.439 71.6C134.559 69.52 136.111 67.92 138.095 66.8C140.111 65.68 142.415 65.12 145.007 65.12C147.503 65.12 149.727 65.664 151.679 66.752C153.631 67.84 155.151 69.376 156.239 71.36C157.327 73.312 157.871 75.568 157.871 78.128ZM152.159 76.4C152.127 74.384 151.407 72.768 149.999 71.552C148.591 70.336 146.847 69.728 144.767 69.728C142.879 69.728 141.263 70.336 139.919 71.552C138.575 72.736 137.775 74.352 137.519 76.4H152.159ZM173.48 87.104L180.968 65.552H186.776L176.696 92H170.168L160.136 65.552H165.992L173.48 87.104ZM193.697 62.048C192.705 62.048 191.873 61.712 191.201 61.04C190.529 60.368 190.193 59.536 190.193 58.544C190.193 57.552 190.529 56.72 191.201 56.048C191.873 55.376 192.705 55.04 193.697 55.04C194.657 55.04 195.473 55.376 196.145 56.048C196.817 56.72 197.153 57.552 197.153 58.544C197.153 59.536 196.817 60.368 196.145 61.04C195.473 61.712 194.657 62.048 193.697 62.048ZM196.385 65.552V92H190.913V65.552H196.385ZM201.745 78.752C201.745 76.032 202.289 73.648 203.377 71.6C204.497 69.52 206.033 67.92 207.985 66.8C209.937 65.68 212.177 65.12 214.705 65.12C217.905 65.12 220.545 65.888 222.625 67.424C224.737 68.928 226.161 71.088 226.897 73.904H220.993C220.513 72.592 219.745 71.568 218.689 70.832C217.633 70.096 216.305 69.728 214.705 69.728C212.465 69.728 210.673 70.528 209.329 72.128C208.017 73.696 207.361 75.904 207.361 78.752C207.361 81.6 208.017 83.824 209.329 85.424C210.673 87.024 212.465 87.824 214.705 87.824C217.873 87.824 219.969 86.432 220.993 83.648H226.897C226.129 86.336 224.689 88.48 222.577 90.08C220.465 91.648 217.841 92.432 214.705 92.432C212.177 92.432 209.937 91.872 207.985 90.752C206.033 89.6 204.497 88 203.377 85.952C202.289 83.872 201.745 81.472 201.745 78.752ZM256.59 78.128C256.59 79.12 256.526 80.016 256.398 80.816H236.19C236.35 82.928 237.134 84.624 238.542 85.904C239.95 87.184 241.678 87.824 243.726 87.824C246.67 87.824 248.75 86.592 249.966 84.128H255.87C255.07 86.56 253.614 88.56 251.502 90.128C249.422 91.664 246.83 92.432 243.726 92.432C241.198 92.432 238.926 91.872 236.91 90.752C234.926 89.6 233.358 88 232.206 85.952C231.086 83.872 230.526 81.472 230.526 78.752C230.526 76.032 231.07 73.648 232.158 71.6C233.278 69.52 234.83 67.92 236.814 66.8C238.83 65.68 241.134 65.12 243.726 65.12C246.222 65.12 248.446 65.664 250.398 66.752C252.35 67.84 253.87 69.376 254.958 71.36C256.046 73.312 256.59 75.568 256.59 78.128ZM250.878 76.4C250.846 74.384 250.126 72.768 248.718 71.552C247.31 70.336 245.566 69.728 243.486 69.728C241.598 69.728 239.982 70.336 238.638 71.552C237.294 72.736 236.494 74.352 236.238 76.4H250.878ZM300.22 92L296.092 87.872C294.492 89.472 292.748 90.672 290.86 91.472C288.972 92.24 286.86 92.624 284.524 92.624C282.156 92.624 280.06 92.208 278.236 91.376C276.412 90.544 275.004 89.36 274.012 87.824C273.02 86.256 272.524 84.448 272.524 82.4C272.524 80.096 273.18 78.048 274.492 76.256C275.804 74.432 277.756 72.992 280.348 71.936C279.42 70.816 278.764 69.776 278.38 68.816C277.996 67.824 277.804 66.736 277.804 65.552C277.804 64.08 278.172 62.768 278.908 61.616C279.676 60.464 280.764 59.552 282.172 58.88C283.58 58.208 285.212 57.872 287.068 57.872C288.956 57.872 290.556 58.24 291.868 58.976C293.212 59.68 294.204 60.656 294.844 61.904C295.516 63.152 295.788 64.544 295.66 66.08H290.188C290.22 64.896 289.932 63.984 289.324 63.344C288.716 62.672 287.884 62.336 286.828 62.336C285.772 62.336 284.908 62.656 284.236 63.296C283.596 63.904 283.276 64.656 283.276 65.552C283.276 66.416 283.516 67.28 283.996 68.144C284.508 68.976 285.388 70.064 286.636 71.408L295.468 80.192L298.876 74.576H304.78L300.46 81.968L299.26 83.936L307.372 92H300.22ZM284.524 87.968C287.532 87.968 290.188 86.736 292.492 84.272L283.66 75.392C279.884 76.896 277.996 79.168 277.996 82.208C277.996 83.84 278.604 85.216 279.82 86.336C281.036 87.424 282.604 87.968 284.524 87.968ZM343.54 85.184H329.572L327.172 92H321.46L333.412 58.592H339.748L351.7 92H345.94L343.54 85.184ZM342.004 80.72L336.58 65.216L331.108 80.72H342.004ZM355.073 78.752C355.073 76.032 355.617 73.648 356.705 71.6C357.825 69.52 359.361 67.92 361.313 66.8C363.265 65.68 365.505 65.12 368.033 65.12C371.233 65.12 373.873 65.888 375.953 67.424C378.065 68.928 379.489 71.088 380.225 73.904H374.321C373.841 72.592 373.073 71.568 372.017 70.832C370.961 70.096 369.633 69.728 368.033 69.728C365.793 69.728 364.001 70.528 362.657 72.128C361.345 73.696 360.689 75.904 360.689 78.752C360.689 81.6 361.345 83.824 362.657 85.424C364.001 87.024 365.793 87.824 368.033 87.824C371.201 87.824 373.297 86.432 374.321 83.648H380.225C379.457 86.336 378.017 88.48 375.905 90.08C373.793 91.648 371.169 92.432 368.033 92.432C365.505 92.432 363.265 91.872 361.313 90.752C359.361 89.6 357.825 88 356.705 85.952C355.617 83.872 355.073 81.472 355.073 78.752ZM383.854 78.752C383.854 76.032 384.398 73.648 385.486 71.6C386.606 69.52 388.142 67.92 390.094 66.8C392.046 65.68 394.286 65.12 396.814 65.12C400.014 65.12 402.654 65.888 404.734 67.424C406.846 68.928 408.27 71.088 409.006 73.904H403.102C402.622 72.592 401.854 71.568 400.798 70.832C399.742 70.096 398.414 69.728 396.814 69.728C394.574 69.728 392.782 70.528 391.438 72.128C390.126 73.696 389.47 75.904 389.47 78.752C389.47 81.6 390.126 83.824 391.438 85.424C392.782 87.024 394.574 87.824 396.814 87.824C399.982 87.824 402.078 86.432 403.102 83.648H409.006C408.238 86.336 406.798 88.48 404.686 90.08C402.574 91.648 399.95 92.432 396.814 92.432C394.286 92.432 392.046 91.872 390.094 90.752C388.142 89.6 386.606 88 385.486 85.952C384.398 83.872 383.854 81.472 383.854 78.752ZM438.699 78.128C438.699 79.12 438.635 80.016 438.507 80.816H418.299C418.459 82.928 419.243 84.624 420.651 85.904C422.059 87.184 423.787 87.824 425.835 87.824C428.779 87.824 430.859 86.592 432.075 84.128H437.979C437.179 86.56 435.723 88.56 433.611 90.128C431.531 91.664 428.939 92.432 425.835 92.432C423.307 92.432 421.035 91.872 419.019 90.752C417.035 89.6 415.467 88 414.315 85.952C413.195 83.872 412.635 81.472 412.635 78.752C412.635 76.032 413.179 73.648 414.267 71.6C415.387 69.52 416.939 67.92 418.923 66.8C420.939 65.68 423.243 65.12 425.835 65.12C428.331 65.12 430.555 65.664 432.507 66.752C434.459 67.84 435.979 69.376 437.067 71.36C438.155 73.312 438.699 75.568 438.699 78.128ZM432.987 76.4C432.955 74.384 432.235 72.768 430.827 71.552C429.419 70.336 427.675 69.728 425.595 69.728C423.707 69.728 422.091 70.336 420.747 71.552C419.403 72.736 418.603 74.352 418.347 76.4H432.987ZM453.684 92.432C451.604 92.432 449.732 92.064 448.068 91.328C446.436 90.56 445.14 89.536 444.18 88.256C443.22 86.944 442.708 85.488 442.644 83.888H448.308C448.404 85.008 448.932 85.952 449.892 86.72C450.884 87.456 452.116 87.824 453.588 87.824C455.124 87.824 456.308 87.536 457.14 86.96C458.004 86.352 458.436 85.584 458.436 84.656C458.436 83.664 457.956 82.928 456.996 82.448C456.068 81.968 454.58 81.44 452.532 80.864C450.548 80.32 448.932 79.792 447.684 79.28C446.436 78.768 445.348 77.984 444.42 76.928C443.524 75.872 443.076 74.48 443.076 72.752C443.076 71.344 443.492 70.064 444.324 68.912C445.156 67.728 446.34 66.8 447.876 66.128C449.444 65.456 451.236 65.12 453.252 65.12C456.26 65.12 458.676 65.888 460.5 67.424C462.356 68.928 463.348 70.992 463.476 73.616H458.004C457.908 72.432 457.428 71.488 456.564 70.784C455.7 70.08 454.532 69.728 453.06 69.728C451.62 69.728 450.516 70 449.748 70.544C448.98 71.088 448.596 71.808 448.596 72.704C448.596 73.408 448.852 74 449.364 74.48C449.876 74.96 450.5 75.344 451.236 75.632C451.972 75.888 453.06 76.224 454.5 76.64C456.42 77.152 457.988 77.68 459.204 78.224C460.452 78.736 461.524 79.504 462.42 80.528C463.316 81.552 463.78 82.912 463.812 84.608C463.812 86.112 463.396 87.456 462.564 88.64C461.732 89.824 460.548 90.752 459.012 91.424C457.508 92.096 455.732 92.432 453.684 92.432ZM479.325 92.432C477.245 92.432 475.373 92.064 473.709 91.328C472.077 90.56 470.781 89.536 469.821 88.256C468.861 86.944 468.349 85.488 468.285 83.888H473.949C474.045 85.008 474.573 85.952 475.533 86.72C476.525 87.456 477.757 87.824 479.229 87.824C480.765 87.824 481.949 87.536 482.781 86.96C483.645 86.352 484.077 85.584 484.077 84.656C484.077 83.664 483.597 82.928 482.637 82.448C481.709 81.968 480.221 81.44 478.173 80.864C476.189 80.32 474.573 79.792 473.325 79.28C472.077 78.768 470.989 77.984 470.061 76.928C469.165 75.872 468.717 74.48 468.717 72.752C468.717 71.344 469.133 70.064 469.965 68.912C470.797 67.728 471.981 66.8 473.517 66.128C475.085 65.456 476.877 65.12 478.893 65.12C481.901 65.12 484.317 65.888 486.141 67.424C487.997 68.928 488.989 70.992 489.117 73.616H483.645C483.549 72.432 483.069 71.488 482.205 70.784C481.341 70.08 480.173 69.728 478.701 69.728C477.261 69.728 476.157 70 475.389 70.544C474.621 71.088 474.237 71.808 474.237 72.704C474.237 73.408 474.493 74 475.005 74.48C475.517 74.96 476.141 75.344 476.877 75.632C477.613 75.888 478.701 76.224 480.141 76.64C482.061 77.152 483.629 77.68 484.845 78.224C486.093 78.736 487.165 79.504 488.061 80.528C488.957 81.552 489.421 82.912 489.453 84.608C489.453 86.112 489.037 87.456 488.205 88.64C487.373 89.824 486.189 90.752 484.653 91.424C483.149 92.096 481.373 92.432 479.325 92.432ZM506.838 92.432C504.342 92.432 502.086 91.872 500.07 90.752C498.054 89.6 496.47 88 495.318 85.952C494.166 83.872 493.59 81.472 493.59 78.752C493.59 76.064 494.182 73.68 495.366 71.6C496.55 69.52 498.166 67.92 500.214 66.8C502.262 65.68 504.55 65.12 507.078 65.12C509.606 65.12 511.894 65.68 513.942 66.8C515.99 67.92 517.606 69.52 518.79 71.6C519.974 73.68 520.566 76.064 520.566 78.752C520.566 81.44 519.958 83.824 518.742 85.904C517.526 87.984 515.862 89.6 513.75 90.752C511.67 91.872 509.366 92.432 506.838 92.432ZM506.838 87.68C508.246 87.68 509.558 87.344 510.774 86.672C512.022 86 513.03 84.992 513.798 83.648C514.566 82.304 514.95 80.672 514.95 78.752C514.95 76.832 514.582 75.216 513.846 73.904C513.11 72.56 512.134 71.552 510.918 70.88C509.702 70.208 508.39 69.872 506.982 69.872C505.574 69.872 504.262 70.208 503.046 70.88C501.862 71.552 500.918 72.56 500.214 73.904C499.51 75.216 499.158 76.832 499.158 78.752C499.158 81.6 499.878 83.808 501.318 85.376C502.79 86.912 504.63 87.68 506.838 87.68ZM531.447 69.392C532.247 68.048 533.303 67.008 534.615 66.272C535.959 65.504 537.543 65.12 539.367 65.12V70.784H537.975C535.831 70.784 534.199 71.328 533.079 72.416C531.991 73.504 531.447 75.392 531.447 78.08V92H525.975V65.552H531.447V69.392ZM547.181 62.048C546.189 62.048 545.357 61.712 544.685 61.04C544.013 60.368 543.677 59.536 543.677 58.544C543.677 57.552 544.013 56.72 544.685 56.048C545.357 55.376 546.189 55.04 547.181 55.04C548.141 55.04 548.957 55.376 549.629 56.048C550.301 56.72 550.637 57.552 550.637 58.544C550.637 59.536 550.301 60.368 549.629 61.04C548.957 61.712 548.141 62.048 547.181 62.048ZM549.869 65.552V92H544.397V65.552H549.869ZM581.293 78.128C581.293 79.12 581.229 80.016 581.101 80.816H560.893C561.053 82.928 561.837 84.624 563.245 85.904C564.653 87.184 566.381 87.824 568.429 87.824C571.373 87.824 573.453 86.592 574.669 84.128H580.573C579.773 86.56 578.317 88.56 576.205 90.128C574.125 91.664 571.533 92.432 568.429 92.432C565.901 92.432 563.629 91.872 561.613 90.752C559.629 89.6 558.061 88 556.909 85.952C555.789 83.872 555.229 81.472 555.229 78.752C555.229 76.032 555.773 73.648 556.861 71.6C557.981 69.52 559.533 67.92 561.517 66.8C563.533 65.68 565.837 65.12 568.429 65.12C570.925 65.12 573.149 65.664 575.101 66.752C577.053 67.84 578.573 69.376 579.661 71.36C580.749 73.312 581.293 75.568 581.293 78.128ZM575.581 76.4C575.549 74.384 574.829 72.768 573.421 71.552C572.013 70.336 570.269 69.728 568.189 69.728C566.301 69.728 564.685 70.336 563.341 71.552C561.997 72.736 561.197 74.352 560.941 76.4H575.581ZM596.278 92.432C594.198 92.432 592.326 92.064 590.662 91.328C589.03 90.56 587.734 89.536 586.774 88.256C585.814 86.944 585.302 85.488 585.238 83.888H590.902C590.998 85.008 591.526 85.952 592.486 86.72C593.478 87.456 594.71 87.824 596.182 87.824C597.718 87.824 598.902 87.536 599.734 86.96C600.598 86.352 601.03 85.584 601.03 84.656C601.03 83.664 600.55 82.928 599.59 82.448C598.662 81.968 597.174 81.44 595.126 80.864C593.142 80.32 591.526 79.792 590.278 79.28C589.03 78.768 587.942 77.984 587.014 76.928C586.118 75.872 585.67 74.48 585.67 72.752C585.67 71.344 586.086 70.064 586.918 68.912C587.75 67.728 588.934 66.8 590.47 66.128C592.038 65.456 593.83 65.12 595.846 65.12C598.854 65.12 601.27 65.888 603.094 67.424C604.95 68.928 605.942 70.992 606.07 73.616H600.598C600.502 72.432 600.022 71.488 599.158 70.784C598.294 70.08 597.126 69.728 595.654 69.728C594.214 69.728 593.11 70 592.342 70.544C591.574 71.088 591.19 71.808 591.19 72.704C591.19 73.408 591.446 74 591.958 74.48C592.47 74.96 593.094 75.344 593.83 75.632C594.566 75.888 595.654 76.224 597.094 76.64C599.014 77.152 600.582 77.68 601.798 78.224C603.046 78.736 604.118 79.504 605.014 80.528C605.91 81.552 606.374 82.912 606.406 84.608C606.406 86.112 605.99 87.456 605.158 88.64C604.326 89.824 603.142 90.752 601.606 91.424C600.102 92.096 598.326 92.432 596.278 92.432Z" fill="#000640"/>
<rect x="1116" y="63" width="140" height="24" rx="4" fill="#EBEBEB"/>
<g clip-path="url(#clip0_1253_7024)">
<path d="M1130.86 80.1381C1131.12 80.3984 1131.54 80.3984 1131.8 80.1381C1132.07 79.8777 1132.07 79.4556 1131.8 79.1953L1128.28 75.6667H1137.33C1137.7 75.6667 1138 75.3682 1138 75C1138 74.6318 1137.7 74.3333 1137.33 74.3333H1128.28L1131.8 70.8047C1132.07 70.5444 1132.07 70.1223 1131.8 69.8619C1131.54 69.6016 1131.12 69.6016 1130.86 69.8619L1126.2 74.5286C1125.93 74.7889 1125.93 75.2111 1126.2 75.4714L1130.86 80.1381Z" fill="#696969"/>
</g>
<path d="M1144.59 80V72.2979H1147.48C1148.14 72.2979 1148.7 72.5002 1149.17 72.9048C1149.64 73.3058 1149.88 73.7856 1149.88 74.3442C1149.88 74.6916 1149.77 75.0174 1149.57 75.3218C1149.37 75.6226 1149.12 75.8249 1148.81 75.9287C1149.22 76.0111 1149.56 76.2259 1149.82 76.5732C1150.09 76.9206 1150.23 77.3288 1150.23 77.7979C1150.23 78.4137 1149.99 78.9347 1149.52 79.3608C1149.04 79.7869 1148.47 80 1147.81 80H1144.59ZM1146.21 75.4023H1147.4C1147.63 75.4023 1147.82 75.3271 1147.98 75.1768C1148.14 75.0228 1148.22 74.8384 1148.22 74.6235C1148.22 74.4087 1148.14 74.2279 1147.99 74.0811C1147.83 73.9342 1147.63 73.8608 1147.4 73.8608H1146.21V75.4023ZM1146.21 78.437H1147.66C1147.91 78.437 1148.13 78.3511 1148.3 78.1792C1148.48 78.0037 1148.57 77.7925 1148.57 77.5454C1148.57 77.2983 1148.48 77.0871 1148.3 76.9116C1148.13 76.7326 1147.92 76.6431 1147.68 76.6431H1146.21V78.437ZM1158 80L1157.52 78.7109H1154.55L1154.06 80H1152.33L1155.39 72.2979H1156.7L1159.78 80H1158ZM1155.09 77.3145H1156.98L1156.05 74.8545L1155.09 77.3145ZM1165.68 80.1074C1164.94 80.1074 1164.28 79.9355 1163.68 79.5918C1163.08 79.248 1162.62 78.7736 1162.28 78.1685C1161.94 77.5633 1161.77 76.8901 1161.77 76.1489C1161.77 75.4077 1161.94 74.7345 1162.28 74.1294C1162.62 73.5243 1163.08 73.0498 1163.68 72.7061C1164.28 72.3623 1164.94 72.1904 1165.68 72.1904C1166.27 72.1904 1166.84 72.3122 1167.37 72.5557C1167.91 72.7956 1168.35 73.1322 1168.7 73.5654C1169.05 73.9951 1169.27 74.4749 1169.34 75.0049H1167.52C1167.42 74.6432 1167.2 74.3478 1166.85 74.1187C1166.51 73.8895 1166.12 73.7749 1165.68 73.7749C1165.04 73.7749 1164.51 74.0023 1164.08 74.457C1163.65 74.9082 1163.44 75.4722 1163.44 76.1489C1163.44 76.8257 1163.65 77.3914 1164.08 77.8462C1164.51 78.3009 1165.04 78.5283 1165.68 78.5283C1166.12 78.5283 1166.52 78.403 1166.86 78.1523C1167.21 77.9017 1167.43 77.583 1167.53 77.1963H1169.36C1169.21 78.0521 1168.8 78.7521 1168.11 79.2964C1167.43 79.8371 1166.61 80.1074 1165.68 80.1074ZM1179 80H1176.87L1173.93 76.3262V80H1172.31V72.2979H1173.93V75.5581L1176.67 72.2979H1178.73L1175.64 75.9287L1179 80ZM1191.77 72.2979V73.8608H1189.51V80H1187.89V73.8608H1185.64V72.2979H1191.77ZM1195.79 72.7061C1196.4 72.3623 1197.07 72.1904 1197.8 72.1904C1198.54 72.1904 1199.21 72.3623 1199.81 72.7061C1200.41 73.0498 1200.88 73.5243 1201.22 74.1294C1201.57 74.7345 1201.74 75.4077 1201.74 76.1489C1201.74 76.8901 1201.57 77.5633 1201.22 78.1685C1200.88 78.7736 1200.41 79.248 1199.81 79.5918C1199.21 79.9355 1198.54 80.1074 1197.8 80.1074C1197.07 80.1074 1196.4 79.9355 1195.79 79.5918C1195.2 79.248 1194.73 78.7736 1194.39 78.1685C1194.05 77.5633 1193.88 76.8901 1193.88 76.1489C1193.88 75.4077 1194.05 74.7345 1194.39 74.1294C1194.73 73.5243 1195.2 73.0498 1195.79 72.7061ZM1199.41 74.457C1198.98 74.0023 1198.45 73.7749 1197.8 73.7749C1197.16 73.7749 1196.62 74.0023 1196.19 74.457C1195.76 74.9082 1195.55 75.4722 1195.55 76.1489C1195.55 76.8257 1195.76 77.3914 1196.19 77.8462C1196.62 78.3009 1197.16 78.5283 1197.8 78.5283C1198.45 78.5283 1198.98 78.3009 1199.41 77.8462C1199.84 77.3914 1200.06 76.8257 1200.06 76.1489C1200.06 75.4722 1199.84 74.9082 1199.41 74.457ZM1208.94 72.2979H1210.56V80H1208.94V72.2979ZM1213.73 72.2979H1215.11L1218.25 76.7881V72.2979H1219.87V80H1218.51L1215.36 75.5098V80H1213.73V72.2979ZM1225.68 72.2979C1226.41 72.2979 1227.07 72.4626 1227.67 72.792C1228.27 73.1214 1228.74 73.578 1229.08 74.1616C1229.42 74.7453 1229.59 75.397 1229.59 76.1167C1229.59 76.8507 1229.42 77.515 1229.08 78.1094C1228.74 78.7002 1228.27 79.1639 1227.67 79.5005C1227.07 79.8335 1226.41 80 1225.68 80H1223.04V72.2979H1225.68ZM1225.79 78.437C1226.4 78.437 1226.91 78.2168 1227.3 77.7764C1227.7 77.3359 1227.91 76.7827 1227.91 76.1167C1227.91 75.4614 1227.71 74.9225 1227.31 74.5C1226.92 74.0739 1226.41 73.8608 1225.79 73.8608H1224.67V78.437H1225.79ZM1232.53 72.2979H1237.25V73.8608H1234.16V75.2466H1236.91V76.8096H1234.16V78.437H1237.25V80H1232.53V72.2979ZM1246.96 80H1245.02L1243.33 77.481L1241.66 80H1239.75L1242.39 76.0415L1239.89 72.2979H1241.84L1243.36 74.5859L1244.88 72.2979H1246.78L1244.31 76.02L1246.96 80Z" fill="#696969"/>
<path d="M1144 81.6489H1247.04V82.1968H1144V81.6489Z" fill="#696969"/>
<a href="https://www.figma.com/file/FOhC2ZMBEHzVejIYjN6Qfz/%E2%9C%85-MamaMia!-Design-System?node-id=556%3A3901">
<rect fill="black" fill-opacity="0" y="-0.601074" width="103.041" height="13.2021"/>
</a>
<defs>
<clipPath id="clip0_1253_7024">
<rect width="16" height="16" fill="white" transform="translate(1124 67)"/>
</clipPath>
</defs>
</svg>
