<svg width="24" height="24" viewBox="0 0 24 24" fill="none" xmlns="http://www.w3.org/2000/svg">
<path fill-rule="evenodd" clip-rule="evenodd" d="M5 4C5 2.34315 6.34315 1 8 1H16C17.6569 1 19 2.34315 19 4V20C19 21.6569 17.6569 23 16 23H8C6.34315 23 5 21.6569 5 20V4ZM8 3C7.44772 3 7 3.44772 7 4V20C7 20.5523 7.44772 21 8 21H16C16.5523 21 17 20.5523 17 20V4C17 3.44772 16.5523 3 16 3H8Z" fill="#000640"/>
<path d="M2 6C2.55228 6 3 6.44772 3 7V17C3 17.5523 2.55228 18 2 18C1.44772 18 1 17.5523 1 17V7C1 6.44772 1.44772 6 2 6Z" fill="#000640"/>
<path d="M23 7C23 6.44772 22.5523 6 22 6C21.4477 6 21 6.44772 21 7V17C21 17.5523 21.4477 18 22 18C22.5523 18 23 17.5523 23 17V7Z" fill="#000640"/>
</svg>
