<svg width="24" height="24" viewBox="0 0 24 24" fill="none" xmlns="http://www.w3.org/2000/svg">
<path fill-rule="evenodd" clip-rule="evenodd" d="M1 4C1 2.34315 2.34315 1 4 1H20C21.6569 1 23 2.34315 23 4V16C23 17.6569 21.6569 19 20 19H13V21H17C17.5523 21 18 21.4477 18 22C18 22.5523 17.5523 23 17 23H7C6.44772 23 6 22.5523 6 22C6 21.4477 6.44772 21 7 21H11V19H4C2.34315 19 1 17.6569 1 16V4ZM4 3C3.44772 3 3 3.44772 3 4V16C3 16.5523 3.44772 17 4 17H20C20.5523 17 21 16.5523 21 16V4C21 3.44772 20.5523 3 20 3H4Z" fill="#000640"/>
</svg>
