<svg width="24" height="24" viewBox="0 0 24 24" fill="none" xmlns="http://www.w3.org/2000/svg">
<path fill-rule="evenodd" clip-rule="evenodd" d="M1 4C1 2.34315 2.34315 1 4 1H20C21.6569 1 23 2.34315 23 4V15C23 16.6569 21.6569 18 20 18H15.2198L15.8198 21H17C17.5523 21 18 21.4477 18 22C18 22.5523 17.5523 23 17 23H7C6.44772 23 6 22.5523 6 22C6 21.4477 6.44772 21 7 21H8.1802L8.7802 18H4C2.34315 18 1 16.6569 1 15V4ZM10.8198 18L10.2198 21H13.7802L13.1802 18H10.8198ZM4 3C3.44772 3 3 3.44772 3 4V12H21V4C21 3.44772 20.5523 3 20 3H4ZM21 14H3V15C3 15.5523 3.44772 16 4 16H20C20.5523 16 21 15.5523 21 15V14Z" fill="#000640"/>
</svg>
