<svg width="24" height="24" viewBox="0 0 24 24" fill="none" xmlns="http://www.w3.org/2000/svg">
<path fill-rule="evenodd" clip-rule="evenodd" d="M9 8C8.44772 8 8 8.44772 8 9V15C8 15.5523 8.44772 16 9 16H15C15.5523 16 16 15.5523 16 15V9C16 8.44772 15.5523 8 15 8H9ZM10 14V10H14V14H10Z" fill="#000640"/>
<path fill-rule="evenodd" clip-rule="evenodd" d="M10 2C10 1.44772 9.55228 1 9 1C8.44772 1 8 1.44772 8 2V4H7C5.34315 4 4 5.34315 4 7V8H2C1.44772 8 1 8.44772 1 9C1 9.55228 1.44772 10 2 10H4V14H2C1.44772 14 1 14.4477 1 15C1 15.5523 1.44772 16 2 16H4V17C4 18.6569 5.34315 20 7 20H8V22C8 22.5523 8.44772 23 9 23C9.55228 23 10 22.5523 10 22V20H14V22C14 22.5523 14.4477 23 15 23C15.5523 23 16 22.5523 16 22V20H17C18.6569 20 20 18.6569 20 17V16H22C22.5523 16 23 15.5523 23 15C23 14.4477 22.5523 14 22 14H20V10H22C22.5523 10 23 9.55228 23 9C23 8.44772 22.5523 8 22 8H20V7C20 5.34315 18.6569 4 17 4H16V2C16 1.44772 15.5523 1 15 1C14.4477 1 14 1.44772 14 2V4H10V2ZM6 7C6 6.44772 6.44772 6 7 6H17C17.5523 6 18 6.44772 18 7V17C18 17.5523 17.5523 18 17 18H7C6.44772 18 6 17.5523 6 17V7Z" fill="#000640"/>
</svg>
