<svg width="24" height="24" viewBox="0 0 24 24" fill="none" xmlns="http://www.w3.org/2000/svg">
<path d="M7.05025 5.05016C9.78392 2.31649 14.2161 2.31649 16.9497 5.05016C17.3403 5.44069 17.9734 5.44069 18.364 5.05016C18.7545 4.65964 18.7545 4.02647 18.364 3.63595C14.8492 0.121229 9.15076 0.121229 5.63604 3.63595C5.24551 4.02647 5.24551 4.65964 5.63604 5.05016C6.02656 5.44069 6.65973 5.44069 7.05025 5.05016Z" fill="#000640"/>
<path d="M9.87868 7.87872C11.0503 6.70714 12.9497 6.70714 14.1213 7.87872C14.5118 8.26924 15.145 8.26924 15.5355 7.87872C15.9261 7.48819 15.9261 6.85503 15.5355 6.4645C13.5829 4.51188 10.4171 4.51188 8.46447 6.4645C8.07394 6.85503 8.07394 7.48819 8.46447 7.87872C8.85499 8.26924 9.48816 8.26924 9.87868 7.87872Z" fill="#000640"/>
<path d="M12 12C12.8284 12 13.5 11.3284 13.5 10.5C13.5 9.67159 12.8284 9.00001 12 9.00001C11.1716 9.00001 10.5 9.67159 10.5 10.5C10.5 11.3284 11.1716 12 12 12Z" fill="#000640"/>
<path d="M7 18C7 18.5523 6.55228 19 6 19C5.44772 19 5 18.5523 5 18C5 17.4477 5.44772 17 6 17C6.55228 17 7 17.4477 7 18Z" fill="#000640"/>
<path d="M9 18C9 17.4477 9.44771 17 10 17H14C14.5523 17 15 17.4477 15 18C15 18.5523 14.5523 19 14 19H10C9.44771 19 9 18.5523 9 18Z" fill="#000640"/>
<path fill-rule="evenodd" clip-rule="evenodd" d="M4 13C2.34315 13 1 14.3432 1 16V20C1 21.6569 2.34315 23 4 23H20C21.6569 23 23 21.6569 23 20V16C23 14.3432 21.6569 13 20 13H4ZM3 16C3 15.4477 3.44772 15 4 15H20C20.5523 15 21 15.4477 21 16V20C21 20.5523 20.5523 21 20 21H4C3.44772 21 3 20.5523 3 20V16Z" fill="#000640"/>
</svg>
