<svg width="24" height="24" viewBox="0 0 24 24" fill="none" xmlns="http://www.w3.org/2000/svg">
<path d="M7 7C7 7.55228 6.55228 8 6 8C5.44772 8 5 7.55228 5 7C5 6.44772 5.44772 6 6 6C6.55228 6 7 6.44772 7 7Z" fill="#000640"/>
<path d="M6 11C6.55228 11 7 10.5523 7 10C7 9.44772 6.55228 9 6 9C5.44772 9 5 9.44772 5 10C5 10.5523 5.44772 11 6 11Z" fill="#000640"/>
<path d="M13 8C13.5523 8 14 7.55228 14 7C14 6.44772 13.5523 6 13 6C12.4477 6 12 6.44772 12 7C12 7.55228 12.4477 8 13 8Z" fill="#000640"/>
<path d="M13 9C13.5523 9 14 9.44772 14 10V17C14 17.5523 13.5523 18 13 18C12.4477 18 12 17.5523 12 17V10C12 9.44772 12.4477 9 13 9Z" fill="#000640"/>
<path d="M20 7C20 7.55228 19.5523 8 19 8C18.4477 8 18 7.55228 18 7C18 6.44772 18.4477 6 19 6C19.5523 6 20 6.44772 20 7Z" fill="#000640"/>
<path d="M20 10C20 9.44772 19.5523 9 19 9C18.4477 9 18 9.44772 18 10V17C18 17.5523 18.4477 18 19 18C19.5523 18 20 17.5523 20 17V10Z" fill="#000640"/>
<path fill-rule="evenodd" clip-rule="evenodd" d="M1 5C1 3.34315 2.34315 2 4 2H20C21.6569 2 23 3.34315 23 5V19C23 20.6569 21.6569 22 20 22H4C2.34315 22 1 20.6569 1 19V5ZM4 4C3.44772 4 3 4.44772 3 5V19C3 19.5523 3.44772 20 4 20H9V4H4ZM11 4V20H15V4H11ZM17 4V20H20C20.5523 20 21 19.5523 21 19V5C21 4.44772 20.5523 4 20 4H17Z" fill="#000640"/>
</svg>
