<svg width="24" height="24" viewBox="0 0 24 24" fill="none" xmlns="http://www.w3.org/2000/svg">
<path d="M6 11C5.44772 11 5 11.4477 5 12C5 12.5523 5.44772 13 6 13H18C18.5523 13 19 12.5523 19 12C19 11.4477 18.5523 11 18 11H6Z" fill="#000640"/>
<path fill-rule="evenodd" clip-rule="evenodd" d="M1 12C1 9.23858 3.23858 7 6 7H18C20.7614 7 23 9.23858 23 12C23 14.7614 20.7614 17 18 17H6C3.23858 17 1 14.7614 1 12ZM6 9H18C19.6569 9 21 10.3431 21 12C21 13.6569 19.6569 15 18 15H6C4.34315 15 3 13.6569 3 12C3 10.3431 4.34315 9 6 9Z" fill="#000640"/>
</svg>
