<svg width="24" height="24" viewBox="0 0 24 24" fill="none" xmlns="http://www.w3.org/2000/svg">
<path fill-rule="evenodd" clip-rule="evenodd" d="M12 14C9.79086 14 8 12.2091 8 10C8 7.79086 9.79086 6 12 6C14.2091 6 16 7.79086 16 10C16 12.2091 14.2091 14 12 14ZM12 12C13.1046 12 14 11.1046 14 10C14 8.89543 13.1046 8 12 8C10.8954 8 10 8.89543 10 10C10 11.1046 10.8954 12 12 12Z" fill="#000640"/>
<path fill-rule="evenodd" clip-rule="evenodd" d="M1 4C1 2.34315 2.34315 1 4 1H20C21.6569 1 23 2.34315 23 4V16C23 17.6569 21.6569 19 20 19H18.906C18.9677 19.323 19 19.6569 19 20C19 20.7544 18.733 21.4036 18.2081 21.8899C17.7213 22.3408 17.0879 22.5816 16.467 22.7245C15.2694 23.0002 13.6767 23.0001 12.0984 23H11.9016C10.3233 23.0001 8.73057 23.0002 7.53298 22.7245C6.91215 22.5816 6.2787 22.3408 5.79194 21.8899C5.267 21.4036 5 20.7544 5 20C5 19.6569 5.03226 19.323 5.09397 19H4C2.34315 19 1 17.6569 1 16V4ZM5.92585 17C7.16406 15.1639 9.49552 14 12 14C14.5045 14 16.8359 15.1639 18.0741 17H20C20.5523 17 21 16.5523 21 16V4C21 3.44772 20.5523 3 20 3H4C3.44772 3 3 3.44772 3 4V16C3 16.5523 3.44772 17 4 17H5.92585ZM7 20C7 17.9538 9.06012 16 12 16C14.9399 16 17 17.9538 17 20C17 20.2456 16.9312 20.3464 16.8489 20.4226C16.7285 20.5342 16.4832 20.6684 16.0183 20.7755C15.0692 20.994 13.7033 21 12 21C10.2967 21 8.93083 20.994 7.98174 20.7755C7.51679 20.6684 7.27155 20.5342 7.15108 20.4226C7.06879 20.3464 7 20.2456 7 20Z" fill="#000640"/>
</svg>
