<svg width="24" height="24" viewBox="0 0 24 24" fill="none" xmlns="http://www.w3.org/2000/svg">
<path d="M10 7C9.44772 7 9.00001 7.44772 9.00001 8C9.00001 8.55228 9.44772 9 10 9H11.9194L9.21914 12.3753C8.979 12.6755 8.93219 13.0867 9.09871 13.4332C9.26523 13.7797 9.6156 14 10 14H14C14.5523 14 15 13.5523 15 13C15 12.4477 14.5523 12 14 12H12.0806L14.7809 8.62469C15.021 8.32452 15.0678 7.91328 14.9013 7.56681C14.7348 7.22035 14.3844 7 14 7H10Z" fill="#000640"/>
<path fill-rule="evenodd" clip-rule="evenodd" d="M4 2C2.34315 2 1 3.34315 1 5V20.5858C1 22.3676 3.15428 23.2599 4.41421 22L7.41421 19H20C21.6569 19 23 17.6569 23 16V5C23 3.34315 21.6569 2 20 2H4ZM3 5C3 4.44772 3.44772 4 4 4H20C20.5523 4 21 4.44772 21 5V16C21 16.5523 20.5523 17 20 17H7C6.73478 17 6.48043 17.1054 6.29289 17.2929L3 20.5858V5Z" fill="#000640"/>
</svg>
