<svg width="24" height="24" viewBox="0 0 24 24" fill="none" xmlns="http://www.w3.org/2000/svg">
<path d="M13.5 13.5C13.5 14.3284 12.8284 15 12 15C11.1716 15 10.5 14.3284 10.5 13.5C10.5 12.6716 11.1716 12 12 12C12.8284 12 13.5 12.6716 13.5 13.5Z" fill="#000640"/>
<path d="M11.605 6C11.0133 6 10.5511 6.51082 10.6099 7.0995L10.9549 10.5498C10.9805 10.8054 11.1956 11 11.4525 11H12.5475C12.8043 11 13.0194 10.8054 13.045 10.5498L13.39 7.0995C13.4489 6.51082 12.9866 6 12.395 6H11.605Z" fill="#000640"/>
<path fill-rule="evenodd" clip-rule="evenodd" d="M1 5C1 3.34315 2.34315 2 4 2H20C21.6569 2 23 3.34315 23 5V16C23 17.6569 21.6569 19 20 19H7.41421L4.41421 22C3.15428 23.2599 1 22.3676 1 20.5858V5ZM4 4C3.44772 4 3 4.44772 3 5V20.5858L6.29289 17.2929C6.48043 17.1054 6.73478 17 7 17H20C20.5523 17 21 16.5523 21 16V5C21 4.44772 20.5523 4 20 4H4Z" fill="#000640"/>
</svg>
