<svg width="24" height="24" viewBox="0 0 24 24" fill="none" xmlns="http://www.w3.org/2000/svg">
<path d="M13.5 13.5C13.5 14.3284 12.8284 15 12 15C11.1716 15 10.5 14.3284 10.5 13.5C10.5 12.6716 11.1716 12 12 12C12.8284 12 13.5 12.6716 13.5 13.5Z" fill="#000640"/>
<path d="M11.605 6C11.0133 6 10.5511 6.51082 10.6099 7.0995L10.9549 10.5498C10.9805 10.8054 11.1956 11 11.4525 11H12.5475C12.8043 11 13.0194 10.8054 13.045 10.5498L13.39 7.0995C13.4489 6.51082 12.9866 6 12.395 6H11.605Z" fill="#000640"/>
<path fill-rule="evenodd" clip-rule="evenodd" d="M1 5C1 3.34315 2.34315 2 4 2H20C21.6569 2 23 3.34315 23 5V16C23 17.6569 21.6569 19 20 19H15.5662L13.715 22.0853C12.9382 23.38 11.0618 23.38 10.285 22.0853L8.43381 19H4C2.34315 19 1 17.6569 1 16V5ZM4 4C3.44772 4 3 4.44772 3 5V16C3 16.5523 3.44772 17 4 17H9C9.35126 17 9.67677 17.1843 9.85749 17.4855L12 21.0563L14.1425 17.4855C14.3232 17.1843 14.6487 17 15 17H20C20.5523 17 21 16.5523 21 16V5C21 4.44772 20.5523 4 20 4H4Z" fill="#000640"/>
</svg>
