<svg width="24" height="24" viewBox="0 0 24 24" fill="none" xmlns="http://www.w3.org/2000/svg">
<path d="M7.5 12C8.32843 12 9 11.3284 9 10.5C9 9.67157 8.32843 9 7.5 9C6.67157 9 6 9.67157 6 10.5C6 11.3284 6.67157 12 7.5 12Z" fill="#000640"/>
<path d="M13.5 10.5C13.5 11.3284 12.8284 12 12 12C11.1716 12 10.5 11.3284 10.5 10.5C10.5 9.67157 11.1716 9 12 9C12.8284 9 13.5 9.67157 13.5 10.5Z" fill="#000640"/>
<path d="M16.5 12C17.3284 12 18 11.3284 18 10.5C18 9.67157 17.3284 9 16.5 9C15.6716 9 15 9.67157 15 10.5C15 11.3284 15.6716 12 16.5 12Z" fill="#000640"/>
<path fill-rule="evenodd" clip-rule="evenodd" d="M4 2C2.34315 2 1 3.34315 1 5V20.5858C1 22.3676 3.15428 23.2599 4.41421 22L7.41421 19H20C21.6569 19 23 17.6569 23 16V5C23 3.34315 21.6569 2 20 2H4ZM3 5C3 4.44772 3.44772 4 4 4H20C20.5523 4 21 4.44772 21 5V16C21 16.5523 20.5523 17 20 17H7C6.73478 17 6.48043 17.1054 6.29289 17.2929L3 20.5858V5Z" fill="#000640"/>
</svg>
