<svg width="24" height="24" viewBox="0 0 24 24" fill="none" xmlns="http://www.w3.org/2000/svg">
<path d="M16 11C16 11.5523 15.5523 12 15 12H13V14C13 14.5523 12.5523 15 12 15C11.4477 15 11 14.5523 11 14V12H9C8.44771 12 8 11.5523 8 11C8 10.4477 8.44772 10 9 10H11V8C11 7.44772 11.4477 7 12 7C12.5523 7 13 7.44772 13 8V10H15C15.5523 10 16 10.4477 16 11Z" fill="#000640"/>
<path fill-rule="evenodd" clip-rule="evenodd" d="M1 5C1 3.34315 2.34315 2 4 2H20C21.6569 2 23 3.34315 23 5V16C23 17.6569 21.6569 19 20 19H15.5662L13.715 22.0853C12.9382 23.38 11.0618 23.38 10.285 22.0853L8.43381 19H4C2.34315 19 1 17.6569 1 16V5ZM4 4C3.44772 4 3 4.44772 3 5V16C3 16.5523 3.44772 17 4 17H9C9.35126 17 9.67677 17.1843 9.85749 17.4855L12 21.0563L14.1425 17.4855C14.3232 17.1843 14.6487 17 15 17H20C20.5523 17 21 16.5523 21 16V5C21 4.44772 20.5523 4 20 4H4Z" fill="#000640"/>
</svg>
