<svg width="24" height="24" viewBox="0 0 24 24" fill="none" xmlns="http://www.w3.org/2000/svg">
<path fill-rule="evenodd" clip-rule="evenodd" d="M8.8232 7.36463C9.09632 6.54944 9.85986 6 10.7196 6H13.2804C14.1401 6 14.9037 6.54944 15.1768 7.36463L15.83 9.31434L20.6603 12.1792C21.4638 12.6558 21.9994 13.4795 22.1091 14.4072L22.7288 19.6477C22.9398 21.4318 21.5461 23 19.7496 23H4.38597C2.5195 23 1.1061 21.3138 1.43208 19.4761L2.36335 14.2257C2.50878 13.4059 2.98843 12.6833 3.68754 12.231L8.16297 9.33521L8.8232 7.36463ZM13.2804 8L10.7196 8L9.9482 10.3024C9.87622 10.5172 9.73344 10.7012 9.54324 10.8243L4.77401 13.9101C4.54098 14.0609 4.38109 14.3017 4.33261 14.575L3.40134 19.8254C3.29268 20.4379 3.76381 21 4.38597 21H19.7496C20.3484 21 20.813 20.4773 20.7426 19.8826L20.123 14.6421C20.0864 14.3328 19.9078 14.0583 19.64 13.8994L14.4899 10.8448C14.2835 10.7224 14.128 10.5299 14.0518 10.3024L13.2804 8Z" fill="#000640"/>
<path fill-rule="evenodd" clip-rule="evenodd" d="M7.87315 1.24946C9.06821 1.09663 10.4405 1 12 1C13.5595 1 14.9318 1.09663 16.1269 1.24946C18.6808 1.57607 20.4201 2.1587 21.4418 2.59847C22.4873 3.04853 23 4.07735 23 5.07037V8C23 8.29959 22.8657 8.5834 22.634 8.77334C22.4023 8.96328 22.0977 9.03934 21.8039 8.98058L17.4507 8.10995C16.666 7.95299 16.0503 7.34331 15.8857 6.5601L15.1697 3.15291C14.2292 3.05787 13.1744 3 12 3C10.8256 3 9.77077 3.05787 8.83029 3.15291L8.11429 6.5601C7.9497 7.34331 7.33405 7.95299 6.54927 8.10995L2.19612 8.98058C1.90234 9.03934 1.5977 8.96328 1.36601 8.77334C1.13432 8.5834 1 8.29959 1 8V5.07037C1 4.07735 1.51273 3.04853 2.55824 2.59847C3.57988 2.1587 5.31921 1.57607 7.87315 1.24946ZM6.72329 3.45423C5.12731 3.75553 4.01911 4.14705 3.34902 4.4355C3.1661 4.51424 3 4.72597 3 5.07037V6.7802L6.15704 6.14879L6.72329 3.45423ZM17.2767 3.45423L17.843 6.14879L21 6.7802V5.07037C21 4.72597 20.8339 4.51424 20.651 4.4355C19.9809 4.14705 18.8727 3.75553 17.2767 3.45423Z" fill="#000640"/>
<path d="M10 15C10 15.5523 9.55229 16 9 16C8.44772 16 8 15.5523 8 15C8 14.4477 8.44772 14 9 14C9.55229 14 10 14.4477 10 15Z" fill="#000640"/>
<path d="M10 18C10 18.5523 9.55229 19 9 19C8.44772 19 8 18.5523 8 18C8 17.4477 8.44772 17 9 17C9.55229 17 10 17.4477 10 18Z" fill="#000640"/>
<path d="M13 15C13 15.5523 12.5523 16 12 16C11.4477 16 11 15.5523 11 15C11 14.4477 11.4477 14 12 14C12.5523 14 13 14.4477 13 15Z" fill="#000640"/>
<path d="M13 18C13 18.5523 12.5523 19 12 19C11.4477 19 11 18.5523 11 18C11 17.4477 11.4477 17 12 17C12.5523 17 13 17.4477 13 18Z" fill="#000640"/>
<path d="M16 15C16 15.5523 15.5523 16 15 16C14.4477 16 14 15.5523 14 15C14 14.4477 14.4477 14 15 14C15.5523 14 16 14.4477 16 15Z" fill="#000640"/>
<path d="M16 18C16 18.5523 15.5523 19 15 19C14.4477 19 14 18.5523 14 18C14 17.4477 14.4477 17 15 17C15.5523 17 16 17.4477 16 18Z" fill="#000640"/>
</svg>
