<svg width="24" height="24" viewBox="0 0 24 24" fill="none" xmlns="http://www.w3.org/2000/svg">
<path fill-rule="evenodd" clip-rule="evenodd" d="M12 1C10.4405 1 9.06821 1.09663 7.87315 1.24946C5.31921 1.57607 3.57988 2.1587 2.55824 2.59847C1.51273 3.04853 1 4.07735 1 5.07037V8C1 8.29959 1.13432 8.5834 1.36601 8.77334C1.5977 8.96328 1.90234 9.03934 2.19612 8.98058L6.54927 8.10995C7.33405 7.95299 7.9497 7.34331 8.11429 6.5601L8.83029 3.15291C9.77077 3.05787 10.8256 3 12 3C13.1744 3 14.2292 3.05787 15.1697 3.15291L15.8857 6.5601C16.0503 7.34331 16.666 7.95299 17.4507 8.10995L21.8039 8.98058C22.0977 9.03934 22.4023 8.96328 22.634 8.77334C22.8657 8.5834 23 8.29959 23 8V5.07037C23 4.07735 22.4873 3.04853 21.4418 2.59847C20.4201 2.1587 18.6808 1.57607 16.1269 1.24946C14.9318 1.09663 13.5595 1 12 1ZM3.34902 4.4355C4.01911 4.14705 5.12731 3.75553 6.72329 3.45423L6.15704 6.14879L3 6.7802V5.07037C3 4.72597 3.1661 4.51424 3.34902 4.4355ZM17.843 6.14879L17.2767 3.45423C18.8727 3.75553 19.9809 4.14705 20.651 4.4355C20.8339 4.51424 21 4.72597 21 5.07037V6.7802L17.843 6.14879Z" fill="#000640"/>
<path fill-rule="evenodd" clip-rule="evenodd" d="M8 16C8 13.7909 9.79086 12 12 12C14.2091 12 16 13.7909 16 16C16 18.2091 14.2091 20 12 20C9.79086 20 8 18.2091 8 16ZM12 14C10.8954 14 10 14.8954 10 16C10 17.1046 10.8954 18 12 18C13.1046 18 14 17.1046 14 16C14 14.8954 13.1046 14 12 14Z" fill="#000640"/>
<path fill-rule="evenodd" clip-rule="evenodd" d="M8.82319 7.36463C9.09631 6.54944 9.85985 6 10.7196 6H13.2804C14.1401 6 14.9037 6.54944 15.1768 7.36463L15.83 9.31434L20.6603 12.1792C21.4638 12.6558 21.9994 13.4795 22.1091 14.4072L22.7288 19.6477C22.9398 21.4318 21.5461 23 19.7496 23H4.38596C2.51949 23 1.10609 21.3138 1.43207 19.4761L2.36334 14.2257C2.50877 13.4059 2.98842 12.6833 3.68753 12.231L8.16296 9.33521L8.82319 7.36463ZM13.2804 8L10.7196 8L9.94819 10.3024C9.87621 10.5172 9.73343 10.7012 9.54323 10.8243L4.774 13.9101C4.54097 14.0609 4.38108 14.3017 4.33261 14.575L3.40133 19.8254C3.29267 20.4379 3.7638 21 4.38596 21H19.7496C20.3484 21 20.813 20.4773 20.7426 19.8826L20.1229 14.6421C20.0864 14.3328 19.9078 14.0583 19.64 13.8994L14.4899 10.8448C14.2835 10.7224 14.128 10.5299 14.0518 10.3024L13.2804 8Z" fill="#000640"/>
</svg>
