<svg width="24" height="24" viewBox="0 0 24 24" fill="none" xmlns="http://www.w3.org/2000/svg">
<path d="M6 20L2.55279 18.2764C2.214 18.107 2 17.7607 2 17.382V13.7386C2 13.2996 2.28632 12.9119 2.70591 12.7828L5.25 12M6 20L5.25 12M6 20L6.12127 20.4851C6.34385 21.3754 7.14382 22 8.06155 22H11M5.25 12L5 9C5 5.13401 8.13401 2 12 2C15.866 2 19 5.13401 19 9L18.75 12M18.75 12L18 20L21.4472 18.2764C21.786 18.107 22 17.7607 22 17.382V13.7386C22 13.2996 21.7137 12.9119 21.2941 12.7828L18.75 12Z" stroke="#000640" stroke-width="2" stroke-linecap="round" stroke-linejoin="round"/>
</svg>
