<svg width="24" height="24" viewBox="0 0 24 24" fill="none" xmlns="http://www.w3.org/2000/svg">
<path fill-rule="evenodd" clip-rule="evenodd" d="M10.971 1.45121C11.6044 1.07119 12.3956 1.07119 13.029 1.45121L22.5145 7.14252C22.8157 7.32324 23 7.64875 23 8.00001V19C23 20.6569 21.6569 22 20 22H4C2.34315 22 1 20.6569 1 19V8.00001C1 7.64875 1.1843 7.32324 1.4855 7.14252L10.971 1.45121ZM20.0563 8.00001L12 3.1662L3.94365 8.00001L12 12.8338L20.0563 8.00001ZM21 9.7662L13.029 14.5488C12.3956 14.9288 11.6044 14.9288 10.971 14.5488L3 9.7662V19C3 19.5523 3.44772 20 4 20H20C20.5523 20 21 19.5523 21 19V9.7662Z" fill="#000640"/>
</svg>
