<svg width="24" height="24" viewBox="0 0 24 24" fill="none" xmlns="http://www.w3.org/2000/svg">
<path fill-rule="evenodd" clip-rule="evenodd" d="M3.47541 3.72699C4.54817 2.22513 6.74809 2.13487 7.94027 3.54382L9.84691 5.79711C10.3999 6.4507 10.4756 7.38382 10.0351 8.11799L8.56633 10.566C8.68408 10.7587 8.84362 10.9886 9.04773 11.2508C9.4117 11.7185 9.87676 12.2377 10.3954 12.7563C11.2688 13.6297 12.2466 14.4544 13.0883 15.0117L15.4886 13.5715C16.2228 13.131 17.1559 13.2067 17.8095 13.7597L20.1716 15.7584C21.5253 16.9039 21.4386 19.0177 19.9955 20.0484C17.7702 21.638 14.7792 22.016 12.3288 20.5204C10.6395 19.4894 8.56944 18.0339 6.71755 16.182C5.00067 14.4651 3.74884 12.6853 2.87574 11.2049C1.43745 8.766 1.94286 5.87257 3.47541 3.72699ZM6.4135 4.8357C6.06354 4.42212 5.41778 4.44861 5.10288 4.88947C3.91146 6.55746 3.65611 8.59095 4.59848 10.1889C5.40484 11.5562 6.55782 13.1938 8.13176 14.7678C9.8361 16.4721 11.7658 17.8337 13.3707 18.8133C15.0244 19.8226 17.1458 19.6261 18.8331 18.421C19.2151 18.1481 19.2381 17.5884 18.8797 17.2851L16.5176 15.2865L13.596 17.0395C13.2867 17.2251 12.9014 17.2297 12.5877 17.0516C11.4394 16.3995 10.0972 15.2865 8.98119 14.1705C8.41772 13.607 7.89481 13.0258 7.46941 12.4792C7.05585 11.9478 6.68983 11.393 6.49303 10.8886C6.38055 10.6002 6.40792 10.276 6.56716 10.0106L8.32014 7.089L6.4135 4.8357Z" fill="#000640"/>
<path d="M15.0001 4.00001C15.5524 4.00001 16.0001 4.44773 16.0001 5.00001V6.58577L19.2929 3.2929C19.6835 2.90238 20.3166 2.90238 20.7071 3.2929C21.0977 3.68343 21.0977 4.31659 20.7071 4.70712L17.4143 8.00001H19.0001C19.5524 8.00001 20.0001 8.44773 20.0001 9.00001C20.0001 9.55229 19.5524 10 19.0001 10H15.0009C14.9975 10 14.9942 10 14.9908 9.99997C14.8686 9.99885 14.7466 9.97548 14.6314 9.92985C14.7428 9.97405 14.864 9.99882 14.9908 9.99997" fill="#000640"/>
<path d="M14.0626 9.34877C14.03 9.26095 14.0101 9.16947 14.003 9.0772C14.0102 9.17204 14.0307 9.26317 14.0626 9.34877Z" fill="#000640"/>
<path d="M14.0001 8.99218V5.00001C14.0001 4.44773 14.4478 4.00001 15.0001 4.00001" fill="#000640"/>
</svg>
