<svg width="24" height="24" viewBox="0 0 24 24" fill="none" xmlns="http://www.w3.org/2000/svg">
<path d="M17.6641 3.25246C17.6946 3.27956 17.7234 3.3085 17.7504 3.3391C17.8173 3.41488 17.8707 3.49837 17.9107 3.58647C17.968 3.7125 17.9999 3.85252 17.9999 4V8C17.9999 8.55228 17.5522 9 16.9999 9C16.4476 9 15.9999 8.55228 15.9999 8V6.41418L12.707 9.70711C12.3165 10.0976 11.6833 10.0976 11.2928 9.70711L7.29277 5.70711C6.90224 5.31658 6.90224 4.68342 7.29277 4.29289C7.68329 3.90237 8.31646 3.90237 8.70698 4.29289L11.9999 7.58579L14.5857 5H12.9999C12.4476 5 11.9999 4.55228 11.9999 4C11.9999 3.44772 12.4476 3 12.9999 3H16.9995L17.0029 3C17.2395 3.00071 17.4759 3.08486 17.6641 3.25246Z" fill="#000640"/>
<path d="M17.6641 3.25246C17.4882 3.09602 17.2567 3.00075 17.0029 3L17.6641 3.25246Z" fill="#000640"/>
<path fill-rule="evenodd" clip-rule="evenodd" d="M22.6318 17.4952C22.9105 19.3348 21.3896 20.9482 19.5366 20.7784L17.177 20.5621C16.3147 20.4831 15.6012 19.8581 15.4093 19.0137L14.7835 16.2601C14.601 16.2141 14.3742 16.1701 14.103 16.1329C13.5777 16.0609 12.953 16.023 12.2923 16.023C11.1999 16.023 10.0788 16.1264 9.20355 16.3161L8.59047 19.0137C8.39856 19.8581 7.68507 20.4831 6.82277 20.5621L4.30979 20.7925C2.53488 20.9552 1.07793 19.4097 1.34493 17.6474C1.75103 14.9672 3.52509 12.5405 6.30493 11.83C8.01802 11.3921 10.1825 11 12.4544 11C14.5569 11 16.4254 11.3357 17.9095 11.737C20.6375 12.4748 22.2419 14.9221 22.6318 17.4952ZM19.7192 18.7867C20.279 18.8381 20.7386 18.3506 20.6544 17.7948C20.348 15.7728 19.1455 14.1432 17.3873 13.6677C16.037 13.3025 14.3463 13 12.4544 13C10.401 13 8.4102 13.3562 6.80017 13.7677C4.94621 14.2415 3.63275 15.8985 3.32236 17.947C3.24988 18.4254 3.64539 18.845 4.12722 18.8008L6.6402 18.5704L7.3884 15.2784C7.46803 14.928 7.72952 14.6473 8.07338 14.543C9.25147 14.1858 10.8479 14.023 12.2923 14.023C13.0229 14.023 13.7407 14.0645 14.3748 14.1515C14.9891 14.2358 15.6001 14.3722 16.0709 14.5994C16.345 14.7317 16.5439 14.9816 16.6114 15.2784L17.3596 18.5704L19.7192 18.7867Z" fill="#000640"/>
</svg>
