<svg width="24" height="24" viewBox="0 0 24 24" fill="none" xmlns="http://www.w3.org/2000/svg">
<path d="M14 10C14 10.5523 13.5523 11 13 11C12.4477 11 12 10.5523 12 10C12 9.44771 12.4477 9 13 9C13.5523 9 14 9.44771 14 10Z" fill="#000640"/>
<path d="M13 15C13.5523 15 14 14.5523 14 14C14 13.4477 13.5523 13 13 13C12.4477 13 12 13.4477 12 14C12 14.5523 12.4477 15 13 15Z" fill="#000640"/>
<path d="M18 10C18 10.5523 17.5523 11 17 11C16.4477 11 16 10.5523 16 10C16 9.44771 16.4477 9 17 9C17.5523 9 18 9.44771 18 10Z" fill="#000640"/>
<path d="M17 15C17.5523 15 18 14.5523 18 14C18 13.4477 17.5523 13 17 13C16.4477 13 16 13.4477 16 14C16 14.5523 16.4477 15 17 15Z" fill="#000640"/>
<path d="M12 6C12 5.44772 12.4477 5 13 5H17C17.5523 5 18 5.44772 18 6C18 6.55228 17.5523 7 17 7H13C12.4477 7 12 6.55228 12 6Z" fill="#000640"/>
<path fill-rule="evenodd" clip-rule="evenodd" d="M2 4C2 2.34315 3.34315 1 5 1H19C20.6569 1 22 2.34315 22 4V18C22 19.6569 20.6569 21 19 21H13.7439C13.1262 22.7478 11.4593 24 9.5 24C7.54067 24 5.87381 22.7478 5.25606 21H5C3.34315 21 2 19.6569 2 18V4ZM5 3C4.44772 3 4 3.44772 4 4V18C4 18.5523 4.44772 19 5 19H8.4V3H5ZM10.4 3V19H19C19.5523 19 20 18.5523 20 18V4C20 3.44771 19.5523 3 19 3H10.4ZM7.49982 21C7.95592 21.6072 8.68209 22 9.5 22C10.3179 22 11.0441 21.6072 11.5002 21H7.49982Z" fill="#000640"/>
</svg>
