<svg width="24" height="24" viewBox="0 0 24 24" fill="none" xmlns="http://www.w3.org/2000/svg">
<path fill-rule="evenodd" clip-rule="evenodd" d="M7.94003 3.54379C6.74784 2.13484 4.54793 2.2251 3.47517 3.72696C1.94262 5.87254 1.43721 8.76597 2.8755 11.2048C3.7486 12.6853 5.00043 14.4651 6.7173 16.1819C8.56919 18.0338 10.6392 19.4894 12.3285 20.5204C14.779 22.016 17.7699 21.6379 19.9953 20.0484C21.4384 19.0176 21.5251 16.9038 20.1713 15.7583L17.8093 13.7597C17.1557 13.2066 16.2226 13.131 15.4884 13.5715L13.0881 15.0117C12.2464 14.4544 11.2686 13.6297 10.3952 12.7563C9.87652 12.2376 9.41145 11.7185 9.04748 11.2508C8.84338 10.9885 8.68383 10.7586 8.56609 10.5659L10.0349 8.11796C10.4754 7.38379 10.3997 6.45067 9.84666 5.79708L7.94003 3.54379ZM5.10263 4.88944C5.41753 4.44858 6.0633 4.42209 6.41326 4.83567L8.31989 7.08897L6.56692 10.0106C6.40767 10.276 6.3803 10.6002 6.49279 10.8885C6.68959 11.393 7.0556 11.9478 7.46916 12.4792C7.89457 13.0258 8.41748 13.607 8.98094 14.1705C10.097 15.2865 11.4392 16.3995 12.5875 17.0515C12.9011 17.2296 13.2864 17.225 13.5958 17.0394L16.5174 15.2865L18.8794 17.2851C19.2378 17.5884 19.2149 18.148 18.8328 18.4209C17.1456 19.6261 15.0242 19.8225 13.3704 18.8132C11.7655 17.8337 9.83586 16.4721 8.13152 14.7677C6.55758 13.1938 5.4046 11.5562 4.59823 10.1889C3.65587 8.59092 3.91121 6.55743 5.10263 4.88944Z" fill="#000640"/>
<path d="M18.9998 9.99999C19.5521 9.99999 19.9998 9.55227 19.9998 8.99999C19.9998 8.4477 19.5521 7.99999 18.9998 7.99999L12.9998 7.99999C12.4475 7.99999 11.9998 8.4477 11.9998 8.99999C11.9998 9.55227 12.4475 9.99999 12.9998 9.99999L18.9998 9.99999Z" fill="#000640"/>
</svg>
