<svg width="24" height="24" viewBox="0 0 24 24" fill="none" xmlns="http://www.w3.org/2000/svg">
<path d="M13.0003 4.1716C13.0003 3.61932 12.5526 3.1716 12.0003 3.1716C11.448 3.1716 11.0003 3.61932 11.0003 4.1716V7.00003C11.0003 7.55231 11.448 8.00003 12.0003 8.00003C12.5526 8.00003 13.0003 7.55231 13.0003 7.00003V4.1716Z" fill="#000640"/>
<path fill-rule="evenodd" clip-rule="evenodd" d="M19.5369 20.7784C21.3898 20.9482 22.9108 19.3348 22.632 17.4952C22.2422 14.9221 20.6377 12.4748 17.9097 11.737C16.4256 11.3357 14.5571 11 12.4547 11C10.1828 11 8.01826 11.3921 6.30517 11.83C3.52533 12.5405 1.75127 14.9672 1.34518 17.6474C1.07817 19.4097 2.53512 20.9552 4.31003 20.7925L6.82301 20.5621C7.68531 20.4831 8.39881 19.8581 8.59071 19.0137L9.20379 16.3161C10.0791 16.1264 11.2002 16.023 12.2926 16.023C12.9533 16.023 13.5779 16.0609 14.1033 16.1329C14.3745 16.1701 14.6012 16.2141 14.7838 16.2601L15.4096 19.0137C15.6015 19.8581 16.315 20.4831 17.1773 20.5621L19.5369 20.7784ZM20.6546 17.7948C20.7388 18.3506 20.2793 18.8381 19.7194 18.7867L17.3598 18.5704L16.6116 15.2784C16.5442 14.9816 16.3452 14.7317 16.0711 14.5994C15.6003 14.3722 14.9894 14.2358 14.375 14.1515C13.7409 14.0645 13.0231 14.023 12.2926 14.023C10.8481 14.023 9.25172 14.1858 8.07362 14.543C7.72977 14.6473 7.46828 14.928 7.38864 15.2784L6.64045 18.5704L4.12746 18.8008C3.64564 18.845 3.25013 18.4254 3.32261 17.947C3.633 15.8985 4.94645 14.2415 6.80042 13.7677C8.41045 13.3562 10.4012 13 12.4547 13C14.3466 13 16.0372 13.3025 17.3876 13.6677C19.1458 14.1432 20.3482 15.7728 20.6546 17.7948Z" fill="#000640"/>
<path d="M14.1217 9.12129C13.7312 8.73077 13.7312 8.0976 14.1217 7.70708L15.5359 6.29286C15.9264 5.90234 16.5596 5.90234 16.9501 6.29286C17.3406 6.68339 17.3406 7.31655 16.9501 7.70708L15.5359 9.12129C15.1454 9.51181 14.5122 9.51181 14.1217 9.12129Z" fill="#000640"/>
<path d="M8.46443 9.12129C8.85495 9.51182 9.48812 9.51182 9.87864 9.12129C10.2692 8.73077 10.2692 8.0976 9.87864 7.70708L8.46443 6.29286C8.0739 5.90234 7.44074 5.90234 7.05021 6.29286C6.65969 6.68339 6.65969 7.31655 7.05021 7.70708L8.46443 9.12129Z" fill="#000640"/>
</svg>
