<svg width="24" height="24" viewBox="0 0 24 24" fill="none" xmlns="http://www.w3.org/2000/svg">
<path fill-rule="evenodd" clip-rule="evenodd" d="M7.94027 3.54382C6.74809 2.13487 4.54817 2.22513 3.47541 3.72699C1.94286 5.87257 1.43745 8.766 2.87574 11.2049C3.74884 12.6853 5.00067 14.4651 6.71755 16.182C8.56944 18.0339 10.6395 19.4894 12.3288 20.5204C14.7792 22.016 17.7702 21.638 19.9955 20.0484C21.4386 19.0177 21.5253 16.9039 20.1716 15.7584L17.8095 13.7597C17.1559 13.2067 16.2228 13.131 15.4886 13.5715L13.0883 15.0117C12.2466 14.4544 11.2688 13.6297 10.3954 12.7563C9.87676 12.2377 9.4117 11.7185 9.04773 11.2508C8.84363 10.9886 8.68408 10.7587 8.56633 10.566L10.0351 8.11799C10.4756 7.38382 10.3999 6.4507 9.84691 5.79711L7.94027 3.54382ZM5.10288 4.88947C5.41778 4.44861 6.06354 4.42212 6.4135 4.8357L8.32014 7.089L6.56716 10.0106C6.40792 10.276 6.38055 10.6002 6.49303 10.8886C6.68983 11.393 7.05585 11.9478 7.46941 12.4792C7.89481 13.0258 8.41772 13.607 8.98119 14.1705C10.0972 15.2865 11.4394 16.3995 12.5877 17.0516C12.9014 17.2297 13.2867 17.2251 13.596 17.0395L16.5176 15.2865L18.8797 17.2851C19.2381 17.5884 19.2151 18.1481 18.8331 18.421C17.1458 19.6261 15.0244 19.8226 13.3707 18.8133C11.7658 17.8337 9.8361 16.4721 8.13176 14.7678C6.55782 13.1938 5.40484 11.5562 4.59848 10.1889C3.65611 8.59095 3.91146 6.55746 5.10288 4.88947Z" fill="#000640"/>
<path d="M13.0001 10C13.5524 10 14.0001 9.5523 14.0001 9.00001C14.0001 8.44772 13.5524 8.00001 13.0001 8.00001C12.4478 8.00001 12.0001 8.44772 12.0001 9.00001C12.0001 9.5523 12.4478 10 13.0001 10Z" fill="#000640"/>
<path d="M17.0001 9.00001C17.0001 9.5523 16.5524 10 16.0001 10C15.4478 10 15.0001 9.5523 15.0001 9.00001C15.0001 8.44772 15.4478 8.00001 16.0001 8.00001C16.5524 8.00001 17.0001 8.44772 17.0001 9.00001Z" fill="#000640"/>
<path d="M19.0001 10C19.5524 10 20.0001 9.5523 20.0001 9.00001C20.0001 8.44772 19.5524 8.00001 19.0001 8.00001C18.4478 8.00001 18.0001 8.44772 18.0001 9.00001C18.0001 9.5523 18.4478 10 19.0001 10Z" fill="#000640"/>
</svg>
