<svg width="24" height="24" viewBox="0 0 24 24" fill="none" xmlns="http://www.w3.org/2000/svg">
<path fill-rule="evenodd" clip-rule="evenodd" d="M1.32293 1.26411C1.62845 0.982984 2.0759 0.919887 2.44725 1.10556L22.4473 11.1056C22.786 11.275 23 11.6212 23 12C23 12.3788 22.786 12.725 22.4473 12.8944L2.44725 22.8944C2.0759 23.0801 1.62845 23.017 1.32293 22.7359C1.01741 22.4547 0.917369 22.0141 1.07156 21.6286L4.92301 12L1.07156 2.37138C0.917369 1.98589 1.01741 1.54523 1.32293 1.26411ZM6.67707 13L3.90535 19.9293L17.764 13H6.67707ZM17.764 11H6.67707L3.90535 4.07068L17.764 11Z" fill="#000640"/>
</svg>
