<svg width="24" height="24" viewBox="0 0 24 24" fill="none" xmlns="http://www.w3.org/2000/svg">
<path fill-rule="evenodd" clip-rule="evenodd" d="M9 9C9 8.44772 9.44771 8 10 8H14C14.5523 8 15 8.44772 15 9V22C15 22.5523 14.5523 23 14 23H10C9.44771 23 9 22.5523 9 22V9ZM11 10V21H13V10H11Z" fill="#000640"/>
<path fill-rule="evenodd" clip-rule="evenodd" d="M1 16C1 15.4477 1.44772 15 2 15H6C6.55228 15 7 15.4477 7 16V22C7 22.5523 6.55228 23 6 23H2C1.44772 23 1 22.5523 1 22V16ZM3 17V21H5V17H3Z" fill="#000640"/>
<path d="M18 21C17.4477 21 17 21.4477 17 22C17 22.5523 17.4477 23 18 23H22C22.5523 23 23 22.5523 23 22C23 21.4477 22.5523 21 22 21H18Z" fill="#000640"/>
</svg>
