<svg width="24" height="24" viewBox="0 0 24 24" fill="none" xmlns="http://www.w3.org/2000/svg">
<path fill-rule="evenodd" clip-rule="evenodd" d="M17 2C17 1.44772 17.4477 1 18 1H22C22.5523 1 23 1.44772 23 2V22C23 22.5523 22.5523 23 22 23H18C17.4477 23 17 22.5523 17 22V2ZM19 3V21H21V3H19Z" fill="#000640"/>
<path fill-rule="evenodd" clip-rule="evenodd" d="M9 9C9 8.44772 9.44771 8 10 8H14C14.5523 8 15 8.44772 15 9V22C15 22.5523 14.5523 23 14 23H10C9.44771 23 9 22.5523 9 22V9ZM11 10V21H13V10H11Z" fill="#000640"/>
<path fill-rule="evenodd" clip-rule="evenodd" d="M2 15C1.44772 15 1 15.4477 1 16V22C1 22.5523 1.44772 23 2 23H6C6.55228 23 7 22.5523 7 22V16C7 15.4477 6.55228 15 6 15H2ZM3 21V17H5V21H3Z" fill="#000640"/>
</svg>
