<svg width="24" height="24" viewBox="0 0 24 24" fill="none" xmlns="http://www.w3.org/2000/svg">
<path d="M14.2929 13.7071C14.6834 14.0976 15.3166 14.0976 15.7071 13.7071C16.0976 13.3166 16.0976 12.6834 15.7071 12.2929L12.7071 9.29289C12.3166 8.90237 11.6834 8.90237 11.2929 9.29289L8.29289 12.2929C7.90237 12.6834 7.90237 13.3166 8.29289 13.7071C8.68342 14.0976 9.31658 14.0976 9.70711 13.7071L11 12.4142V18C11 18.5523 11.4477 19 12 19C12.5523 19 13 18.5523 13 18V12.4142L14.2929 13.7071Z" fill="#000640"/>
<path fill-rule="evenodd" clip-rule="evenodd" d="M1 4C1 2.34315 2.34315 1 4 1H20C21.6569 1 23 2.34315 23 4V9C23 10.6569 21.6569 12 20 12V20C20 21.6569 18.6569 23 17 23H7C5.34315 23 4 21.6569 4 20V12C2.34315 12 1 10.6569 1 9V4ZM21 9C21 9.55228 20.5523 10 20 10V6C20 5.44772 19.5523 5 19 5H5C4.44772 5 4 5.44772 4 6V10C3.44772 10 3 9.55228 3 9V4C3 3.44772 3.44772 3 4 3H20C20.5523 3 21 3.44772 21 4V9ZM6 7V20C6 20.5523 6.44772 21 7 21H17C17.5523 21 18 20.5523 18 20V7H6Z" fill="#000640"/>
</svg>
