<svg width="24" height="24" viewBox="0 0 24 24" fill="none" xmlns="http://www.w3.org/2000/svg">
<path d="M3 2C3 1.44772 2.55228 1 2 1C1.44772 1 1 1.44772 1 2V20C1 21.6569 2.34315 23 4 23H22C22.5523 23 23 22.5523 23 22C23 21.4477 22.5523 21 22 21H4C3.44772 21 3 20.5523 3 20V2Z" fill="#000640"/>
<path d="M13 5C12.4477 5 12 5.44772 12 6C12 6.55228 12.4477 7 13 7H15.5858L7.29289 15.2929C6.90237 15.6834 6.90237 16.3166 7.29289 16.7071C7.68342 17.0976 8.31658 17.0976 8.70711 16.7071L17 8.41421V11C17 11.5523 17.4477 12 18 12C18.5523 12 19 11.5523 19 11V6C19 5.44772 18.5523 5 18 5H13Z" fill="#000640"/>
</svg>
