<svg width="24" height="24" viewBox="0 0 24 24" fill="none" xmlns="http://www.w3.org/2000/svg">
<path d="M3 2C3 1.44772 2.55228 1 2 1C1.44772 1 1 1.44772 1 2V20C1 21.6569 2.34315 23 4 23H22C22.5523 23 23 22.5523 23 22C23 21.4477 22.5523 21 22 21H4C3.44772 21 3 20.5523 3 20V2Z" fill="#000640"/>
<path d="M15 15H17.5858L14 11.4142L11.7071 13.7071C11.3166 14.0976 10.6834 14.0976 10.2929 13.7071L5.29289 8.70711C4.90237 8.31658 4.90237 7.68342 5.29289 7.29289C5.68342 6.90237 6.31658 6.90237 6.70711 7.29289L11 11.5858L13.2929 9.29289C13.4804 9.10536 13.7348 9 14 9C14.2652 9 14.5196 9.10536 14.7071 9.29289L19 13.5858V11C19 10.4477 19.4477 10 20 10C20.5523 10 21 10.4477 21 11V16C21 16.5523 20.5523 17 20 17H15C14.4477 17 14 16.5523 14 16C14 15.4477 14.4477 15 15 15Z" fill="#000640"/>
</svg>
