<svg width="24" height="24" viewBox="0 0 24 24" fill="none" xmlns="http://www.w3.org/2000/svg">
<path d="M2 1C2.55228 1 3 1.44772 3 2V20C3 20.5523 3.44772 21 4 21H22C22.5523 21 23 21.4477 23 22C23 22.5523 22.5523 23 22 23H4C2.34315 23 1 21.6569 1 20V2C1 1.44772 1.44772 1 2 1Z" fill="#000640"/>
<path d="M16 15C16 9.47715 11.5228 5 6 5C5.44771 5 5 4.55228 5 4C5 3.44771 5.44771 3 6 3C12.6274 3 18 8.37258 18 15V15.5858L19.2929 14.2929C19.6834 13.9024 20.3166 13.9024 20.7071 14.2929C21.0976 14.6834 21.0976 15.3166 20.7071 15.7071L17.7071 18.7071C17.5196 18.8946 17.2652 19 17 19C16.7348 19 16.4804 18.8946 16.2929 18.7071L13.2929 15.7071C12.9024 15.3166 12.9024 14.6834 13.2929 14.2929C13.6834 13.9024 14.3166 13.9024 14.7071 14.2929L16 15.5858V15Z" fill="#000640"/>
</svg>
