<svg width="24" height="24" viewBox="0 0 24 24" fill="none" xmlns="http://www.w3.org/2000/svg">
<path d="M2 1C2.55228 1 3 1.44772 3 2V20C3 20.5523 3.44772 21 4 21H22C22.5523 21 23 21.4477 23 22C23 22.5523 22.5523 23 22 23H4C2.34315 23 1 21.6569 1 20V2C1 1.44772 1.44772 1 2 1Z" fill="#000640"/>
<path fill-rule="evenodd" clip-rule="evenodd" d="M14 8C14 7.44772 14.4477 7 15 7H20C20.5523 7 21 7.44772 21 8V13C21 13.5523 20.5523 14 20 14C19.4477 14 19 13.5523 19 13V10.4143L14.1213 15.293C12.9497 16.4645 11.0503 16.4645 9.87868 15.293L5.29289 10.7072C4.90237 10.3167 4.90237 9.68349 5.29289 9.29297C5.68342 8.90244 6.31658 8.90244 6.70711 9.29297L11.2929 13.8788C11.6834 14.2693 12.3166 14.2693 12.7071 13.8788L17.5859 9H15C14.4477 9 14 8.55228 14 8Z" fill="#000640"/>
</svg>
