<svg width="24" height="24" viewBox="0 0 24 24" fill="none" xmlns="http://www.w3.org/2000/svg">
<path d="M10 5C9.44771 5 9 5.44772 9 6C9 6.55228 9.44771 7 10 7H18C18.5523 7 19 6.55228 19 6C19 5.44772 18.5523 5 18 5H10Z" fill="#000640"/>
<path d="M18 11L10 11C9.44771 11 9 10.5523 9 10C9 9.44772 9.44771 9 10 9L18 9C18.5523 9 19 9.44772 19 10C19 10.5523 18.5523 11 18 11Z" fill="#000640"/>
<path d="M10 13C9.44771 13 9 13.4477 9 14C9 14.5523 9.44771 15 10 15H13C13.5523 15 14 14.5523 14 14C14 13.4477 13.5523 13 13 13H10Z" fill="#000640"/>
<path fill-rule="evenodd" clip-rule="evenodd" d="M5 20V13H4C2.34315 13 1 11.6569 1 10V4C1 2.34315 2.34315 1 4 1H20C21.6569 1 23 2.34315 23 4V20C23 21.6569 21.6569 23 20 23H8C6.34315 23 5 21.6569 5 20ZM3 4C3 3.44772 3.44772 3 4 3C4.55228 3 5 3.44772 5 4V11H4C3.44772 11 3 10.5523 3 10V4ZM7 4C7 3.64936 6.93985 3.31278 6.82929 3H20C20.5523 3 21 3.44772 21 4V20C21 20.5523 20.5523 21 20 21H8C7.44772 21 7 20.5523 7 20V4Z" fill="#000640"/>
</svg>
