<svg width="24" height="24" viewBox="0 0 24 24" fill="none" xmlns="http://www.w3.org/2000/svg">
<path d="M5 15C4.44772 15 4 15.4477 4 16C4 16.5523 4.44772 17 5 17H13C13.5523 17 14 16.5523 14 16C14 15.4477 13.5523 15 13 15H5Z" fill="#000640"/>
<path fill-rule="evenodd" clip-rule="evenodd" d="M8.26581 4.8018C7.98967 4.32351 8.15354 3.71192 8.63183 3.43578L12.0959 1.43578C12.5742 1.15963 13.1858 1.32351 13.462 1.8018L15.3084 4.99999H21C22.6569 4.99999 24 6.34313 24 7.99999V18C24 19.6568 22.6569 21 21 21H3C1.34314 21 0 19.6568 0 18V7.99999C0 6.34313 1.34315 4.99999 3 4.99999H8.38023L8.26581 4.8018ZM18.3439 10.2576L16.4631 6.99999H21C21.5523 6.99999 22 7.4477 22 7.99999V18C22 18.5523 21.5523 19 21 19H3C2.44772 19 2 18.5523 2 18V7.99999C2 7.4477 2.44772 6.99999 3 6.99999H9.53493L13.1478 13.2576C13.303 13.5265 13.5187 13.7556 13.7778 13.9266L17.3129 16.2607C17.629 16.4694 18.0359 16.4816 18.3639 16.2922C18.6919 16.1028 18.8848 15.7443 18.8621 15.3662L18.6083 11.1378C18.5897 10.8279 18.4992 10.5265 18.3439 10.2576ZM10.4979 4.66783L14.8798 12.2576L16.7458 13.4897L16.6119 11.2576L12.2299 3.66783L10.4979 4.66783Z" fill="#000640"/>
</svg>
