<svg width="24" height="24" viewBox="0 0 24 24" fill="none" xmlns="http://www.w3.org/2000/svg">
<g clip-path="url(#clip0_1253_5020)">
<path d="M8.70711 6.29289C8.31658 5.90237 7.68342 5.90237 7.29289 6.29289C6.90237 6.68342 6.90237 7.31658 7.29289 7.70711L11 11.4142V12H9C8.44771 12 8 12.4477 8 13C8 13.5523 8.44771 14 9 14H11V18C11 18.5523 11.4477 19 12 19C12.5523 19 13 18.5523 13 18V14H15C15.5523 14 16 13.5523 16 13C16 12.4477 15.5523 12 15 12H13V11.4142L16.7071 7.70711C17.0976 7.31658 17.0976 6.68342 16.7071 6.29289C16.3166 5.90237 15.6834 5.90237 15.2929 6.29289L12 9.58579L8.70711 6.29289Z" fill="#000640"/>
<path fill-rule="evenodd" clip-rule="evenodd" d="M24 12C24 18.6274 18.6274 24 12 24C5.37258 24 0 18.6274 0 12C0 5.37258 5.37258 0 12 0C18.6274 0 24 5.37258 24 12ZM22 12C22 17.5228 17.5228 22 12 22C6.47715 22 2 17.5228 2 12C2 6.47715 6.47715 2 12 2C17.5228 2 22 6.47715 22 12Z" fill="#000640"/>
</g>
<defs>
<clipPath id="clip0_1253_5020">
<rect width="24" height="24" fill="white"/>
</clipPath>
</defs>
</svg>
