<svg width="24" height="24" viewBox="0 0 24 24" fill="none" xmlns="http://www.w3.org/2000/svg">
<path d="M13.0001 15.7858C13.0001 15.4554 12.6619 15.0001 12.0001 15.0001C10.4528 15.0001 9 13.8563 9 12.2143C9 10.9361 9.88017 9.95996 11 9.59006V9C11 8.44772 11.4477 8 12 8C12.5523 8 13 8.44772 13 9V9.58701C13.537 9.76282 14.0113 10.0782 14.3654 10.4991C14.7209 10.9217 14.6665 11.5525 14.2439 11.9081C13.8213 12.2636 13.1905 12.2092 12.8349 11.7866C12.6673 11.5874 12.3707 11.4286 12 11.4286C11.3381 11.4286 11 11.8839 11 12.2143C11 12.5447 11.3382 13.0001 12.0001 13.0001C13.5473 13.0001 15.0001 14.1438 15.0001 15.7858C15.0001 17.064 14.1199 18.0402 13 18.4101V19.0001C13 19.5524 12.5523 20.0001 12 20.0001C11.4477 20.0001 11 19.5524 11 19.0001V18.4131C10.463 18.2373 9.98877 17.9219 9.6347 17.501C9.27916 17.0784 9.33354 16.4476 9.75617 16.092C10.1788 15.7365 10.8096 15.7909 11.1652 16.2135C11.3327 16.4127 11.6294 16.5715 12.0001 16.5715C12.6619 16.5715 13.0001 16.1162 13.0001 15.7858Z" fill="#000640"/>
<path fill-rule="evenodd" clip-rule="evenodd" d="M17 1C17.5523 1 18 1.44772 18 2L18 7.29168C19.8412 8.93964 21 11.3345 21 14C21 18.9706 16.9706 23 12 23C7.02944 23 3 18.9706 3 14C3 11.3345 4.15875 8.93964 6 7.29168V2C6 1.44772 6.44772 1 7 1C7.55228 1 8 1.44772 8 2V5.93552C8.9215 5.47757 9.93262 5.17292 11 5.05493V2C11 1.44772 11.4477 1 12 1C12.5523 1 13 1.44772 13 2V5.05493C14.0674 5.17292 15.0785 5.47757 16 5.93552L16 2C16 1.44772 16.4477 1 17 1ZM12 7C8.13401 7 5 10.134 5 14C5 17.866 8.13401 21 12 21C15.866 21 19 17.866 19 14C19 10.134 15.866 7 12 7Z" fill="#000640"/>
</svg>
