<svg width="24" height="24" viewBox="0 0 24 24" fill="none" xmlns="http://www.w3.org/2000/svg">
<path fill-rule="evenodd" clip-rule="evenodd" d="M17 7C16.4477 7 16 6.55228 16 6C16 5.44772 16.4477 5 17 5H22C22.5523 5 23 5.44772 23 6V11C23 11.5523 22.5523 12 22 12C21.4477 12 21 11.5523 21 11V8.41421L13.7071 15.7071C13.3166 16.0976 12.6834 16.0976 12.2929 15.7071L9 12.4142L2.70711 18.7071C2.31658 19.0976 1.68342 19.0976 1.29289 18.7071C0.902369 18.3166 0.902369 17.6834 1.29289 17.2929L8.29289 10.2929C8.68342 9.90237 9.31658 9.90237 9.70711 10.2929L13 13.5858L19.5858 7H17Z" fill="#000640"/>
</svg>
