<svg width="24" height="24" viewBox="0 0 24 24" fill="none" xmlns="http://www.w3.org/2000/svg">
<path fill-rule="evenodd" clip-rule="evenodd" d="M17 17C16.4477 17 16 17.4477 16 18C16 18.5523 16.4477 19 17 19H22C22.5523 19 23 18.5523 23 18V13C23 12.4477 22.5523 12 22 12C21.4477 12 21 12.4477 21 13V15.5858L13.7071 8.29289C13.3166 7.90237 12.6834 7.90237 12.2929 8.29289L9 11.5858L2.70711 5.29289C2.31658 4.90237 1.68342 4.90237 1.29289 5.29289C0.902369 5.68342 0.902369 6.31658 1.29289 6.70711L8.29289 13.7071C8.68342 14.0976 9.31658 14.0976 9.70711 13.7071L13 10.4142L19.5858 17H17Z" fill="#000640"/>
</svg>
