<svg width="24" height="24" viewBox="0 0 24 24" fill="none" xmlns="http://www.w3.org/2000/svg">
<path fill-rule="evenodd" clip-rule="evenodd" d="M16 12C16 14.2091 14.2091 16 12 16C9.79086 16 8 14.2091 8 12C8 9.79086 9.79086 8 12 8C14.2091 8 16 9.79086 16 12ZM14 12C14 13.1046 13.1046 14 12 14C10.8954 14 10 13.1046 10 12C10 10.8954 10.8954 10 12 10C13.1046 10 14 10.8954 14 12Z" fill="#000640"/>
<path fill-rule="evenodd" clip-rule="evenodd" d="M1 4C0.447715 4 0 4.44772 0 5V19C0 19.5523 0.447715 20 1 20H23C23.5523 20 24 19.5523 24 19V5C24 4.44772 23.5523 4 23 4H1ZM2 14L2 10C4.20914 10 6 8.20914 6 6H18C18 8.20914 19.7909 10 22 10V14C19.7909 14 18 15.7909 18 18H6C6 15.7909 4.20914 14 2 14ZM2 16L2 18H4C4 16.8954 3.10457 16 2 16ZM22 8C20.8954 8 20 7.10457 20 6H22V8ZM20 18H22V16C20.8954 16 20 16.8954 20 18ZM4 6C4 7.10457 3.10457 8 2 8V6H4Z" fill="#000640"/>
</svg>
