<svg width="24" height="24" viewBox="0 0 24 24" fill="none" xmlns="http://www.w3.org/2000/svg">
<g clip-path="url(#clip0_1253_4990)">
<path d="M12 11C11.4477 11 11 11.4477 11 12C11 12.5523 11.4477 13 12 13L16.5858 13L15.2929 14.2929C14.9024 14.6834 14.9024 15.3166 15.2929 15.7071C15.6834 16.0976 16.3166 16.0976 16.7071 15.7071L19.7071 12.7071C20.0976 12.3166 20.0976 11.6834 19.7071 11.2929L16.7071 8.29289C16.3166 7.90237 15.6834 7.90237 15.2929 8.29289C14.9024 8.68342 14.9024 9.31658 15.2929 9.70711L16.5858 11L12 11Z" fill="#000640"/>
<path fill-rule="evenodd" clip-rule="evenodd" d="M12 24C18.6274 24 24 18.6274 24 12C24 5.37258 18.6274 0 12 0C5.37258 0 0 5.37258 0 12C0 18.6274 5.37258 24 12 24ZM13 21.9506C18.0533 21.4489 22 17.1853 22 12C22 6.81465 18.0533 2.5511 13 2.04938V4.5C13 4.87877 12.786 5.22504 12.4472 5.39443L9 7.11803V10C9 11.6569 7.65685 13 6 13H2.04938C2.15433 14.0571 2.4239 15.0658 2.83209 16H8C8.24222 16 8.47621 16.0879 8.6585 16.2474L12.6585 19.7474C12.8755 19.9373 13 20.2116 13 20.5V21.9506ZM11 21.9506C8.14057 21.6667 5.63547 20.1783 3.99927 18H7.62427L11 20.9538V21.9506ZM2.04938 11C2.51844 6.27558 6.27558 2.51844 11 2.04938V3.88197L7.55279 5.60557C7.214 5.77496 7 6.12123 7 6.5V10C7 10.5523 6.55228 11 6 11H2.04938Z" fill="#000640"/>
</g>
<defs>
<clipPath id="clip0_1253_4990">
<rect width="24" height="24" fill="white"/>
</clipPath>
</defs>
</svg>
