<svg width="24" height="24" viewBox="0 0 24 24" fill="none" xmlns="http://www.w3.org/2000/svg">
<g clip-path="url(#clip0_1253_5076)">
<path fill-rule="evenodd" clip-rule="evenodd" d="M11 2.04938C5.94668 2.5511 2 6.81465 2 12C2 17.5228 6.47715 22 12 22C14.4017 22 16.6044 21.1544 18.3288 19.743L11.2929 12.7071C11.1054 12.5196 11 12.2652 11 12V2.04938ZM13 2.04933V3H16.3647C15.3303 2.49736 14.1963 2.168 13 2.04933ZM19.1414 5H13V7H20.6624C20.2402 6.2703 19.7282 5.59857 19.1414 5ZM21.5425 9H13V11H21.9507C21.8823 10.3098 21.7437 9.64081 21.5425 9ZM21.9507 13H14.4142L16.4142 15H21.5425C21.7437 14.3592 21.8823 13.6902 21.9507 13ZM20.6624 17H18.4142L19.743 18.3288C20.0838 17.9124 20.3915 17.4681 20.6624 17ZM0 12C0 5.37258 5.37258 0 12 0C15.1883 0 18.0881 1.24476 20.2364 3.27285C21.5154 4.48035 22.5297 5.96682 23.1816 7.63623C23.7103 8.99002 24 10.4624 24 12C24 13.5376 23.7103 15.01 23.1816 16.3638C22.5725 17.9234 21.6472 19.3234 20.4853 20.4853C18.3148 22.6558 15.3134 24 12 24C5.37258 24 0 18.6274 0 12Z" fill="#000640"/>
</g>
<defs>
<clipPath id="clip0_1253_5076">
<rect width="24" height="24" fill="white"/>
</clipPath>
</defs>
</svg>
