<svg width="24" height="24" viewBox="0 0 24 24" fill="none" xmlns="http://www.w3.org/2000/svg">
<g clip-path="url(#clip0_1253_5088)">
<path fill-rule="evenodd" clip-rule="evenodd" d="M11 2.04938C5.94668 2.5511 2 6.81465 2 12C2 17.5228 6.47715 22 12 22C17.5228 22 22 17.5228 22 12C22 10.8952 21.8212 9.83371 21.4914 8.84192L12.409 12.9125C12.0996 13.0512 11.741 13.0237 11.4564 12.8393C11.1718 12.655 11 12.3391 11 12V2.04938ZM13 2.04938V10.456L20.6724 7.01729C19.1022 4.29043 16.2842 2.37544 13 2.04938ZM0 12C0 5.37258 5.37258 0 12 0C16.88 0 21.0775 2.91284 22.9527 7.09049C23.626 8.59039 24 10.2529 24 12C24 18.6274 18.6274 24 12 24C5.37258 24 0 18.6274 0 12Z" fill="#000640"/>
</g>
<defs>
<clipPath id="clip0_1253_5088">
<rect width="24" height="24" fill="white"/>
</clipPath>
</defs>
</svg>
