<svg width="24" height="24" viewBox="0 0 24 24" fill="none" xmlns="http://www.w3.org/2000/svg">
<g clip-path="url(#clip0_1253_5080)">
<path fill-rule="evenodd" clip-rule="evenodd" d="M11 2.04938C5.94668 2.5511 2 6.81465 2 12C2 17.1853 5.94668 21.4489 11 21.9506V2.04938ZM13 2.04938V11H21.9506C21.4816 6.27558 17.7244 2.51844 13 2.04938ZM21.9506 13H13V21.9506C17.7244 21.4816 21.4816 17.7244 21.9506 13ZM0 12C0 5.37258 5.37258 0 12 0C18.6274 0 24 5.37258 24 12C24 18.6274 18.6274 24 12 24C5.37258 24 0 18.6274 0 12Z" fill="#000640"/>
</g>
<defs>
<clipPath id="clip0_1253_5080">
<rect width="24" height="24" fill="white"/>
</clipPath>
</defs>
</svg>
