<svg width="24" height="24" viewBox="0 0 24 24" fill="none" xmlns="http://www.w3.org/2000/svg">
<g clip-path="url(#clip0_1253_4422)">
<path d="M6.79314 12.7929C7.18366 12.4024 7.81683 12.4024 8.20735 12.7929L9.00024 13.5858L10.586 12L9.79314 11.2071C9.40261 10.8166 9.40261 10.1834 9.79314 9.79289C10.1837 9.40237 10.8168 9.40237 11.2074 9.79289L12.0002 10.5858L13.586 9L12.7931 8.20711C12.4026 7.81658 12.4026 7.18342 12.7931 6.79289C13.1837 6.40237 13.8168 6.40237 14.2074 6.79289L15.0002 7.58579L16.2931 6.29289C16.6837 5.90237 17.3168 5.90237 17.7074 6.29289C18.0979 6.68342 18.0979 7.31658 17.7074 7.70711L16.4145 9L17.2074 9.79289C17.5979 10.1834 17.5979 10.8166 17.2074 11.2071C16.8168 11.5976 16.1837 11.5976 15.7931 11.2071L15.0002 10.4142L13.4145 12L14.2074 12.7929C14.5979 13.1834 14.5979 13.8166 14.2074 14.2071C13.8168 14.5976 13.1837 14.5976 12.7931 14.2071L12.0002 13.4142L10.4145 15L11.2074 15.7929C11.5979 16.1834 11.5979 16.8166 11.2074 17.2071C10.8168 17.5976 10.1837 17.5976 9.79314 17.2071L9.00024 16.4142L7.70735 17.7071C7.31683 18.0976 6.68366 18.0976 6.29314 17.7071C5.90261 17.3166 5.90261 16.6834 6.29314 16.2929L7.58603 15L6.79314 14.2071C6.40261 13.8166 6.40261 13.1834 6.79314 12.7929Z" fill="#000640"/>
<path fill-rule="evenodd" clip-rule="evenodd" d="M5.29301 5.29298C11.561 -0.974944 18.6149 0.995657 20.7458 1.80727C21.4167 2.06283 21.9374 2.58349 22.193 3.25443C23.0046 5.38523 24.9754 12.439 18.7072 18.7072C12.439 24.9754 5.38522 23.0046 3.25447 22.1929C2.58355 21.9373 2.06292 21.4166 1.80735 20.7457C0.995712 18.615 -0.975066 11.5609 5.29301 5.29298ZM20.0339 3.67628C18.1712 2.96681 12.1341 1.28043 6.70721 6.7072C1.28034 12.134 2.96685 18.1712 3.67635 20.0338C3.72888 20.1717 3.82855 20.2714 3.96644 20.3239C5.82899 21.0334 11.866 22.72 17.293 17.293C22.72 11.866 21.0335 5.82897 20.324 3.96638C20.2714 3.82849 20.1718 3.72881 20.0339 3.67628Z" fill="#000640"/>
</g>
<defs>
<clipPath id="clip0_1253_4422">
<rect width="24" height="24" fill="white"/>
</clipPath>
</defs>
</svg>
