<svg width="24" height="24" viewBox="0 0 24 24" fill="none" xmlns="http://www.w3.org/2000/svg">
<path fill-rule="evenodd" clip-rule="evenodd" d="M3.22161 20.7781C3.02115 20.5777 2.91519 20.3016 2.93009 20.0185L3.6372 6.58344C3.65796 6.18907 3.90886 5.84386 4.27755 5.70238C4.64625 5.5609 5.06368 5.64965 5.34292 5.92889L8.17135 8.75732L11.7069 5.22178C12.0974 4.83126 12.7306 4.83126 13.1211 5.22178L18.778 10.8786C19.1685 11.2692 19.1685 11.9023 18.778 12.2929L15.2424 15.8284L18.0708 18.6568C18.3501 18.9361 18.4388 19.3535 18.2974 19.7222C18.1559 20.0909 17.8107 20.3418 17.4163 20.3625L3.98127 21.0696C3.69818 21.0845 3.42206 20.9786 3.22161 20.7781ZM15.0689 18.4833L13.1211 16.5355C12.7306 16.145 12.7306 15.5118 13.1211 15.1213L16.6566 11.5857L12.414 7.3431L8.87846 10.8786C8.48793 11.2692 7.85477 11.2692 7.46425 10.8786L5.51642 8.93081L4.98573 19.014L15.0689 18.4833ZM21.6064 9.46442C21.2159 9.85495 20.5827 9.85495 20.1922 9.46442L14.5353 3.80757C14.1448 3.41705 14.1448 2.78388 14.5353 2.39336C14.9258 2.00283 15.559 2.00283 15.9495 2.39336L21.6064 8.05021C21.9969 8.44073 21.9969 9.0739 21.6064 9.46442Z" fill="#000640"/>
</svg>
