<svg width="24" height="24" viewBox="0 0 24 24" fill="none" xmlns="http://www.w3.org/2000/svg">
<path d="M11.2928 6.2929C11.6833 5.90237 12.3165 5.90237 12.707 6.2929L16.707 10.2929C17.0975 10.6834 17.0975 11.3166 16.707 11.7071C16.3165 12.0976 15.6833 12.0976 15.2928 11.7071L12.9999 9.41422L12.9999 17C12.9999 17.5523 12.5522 18 11.9999 18C11.4476 18 10.9999 17.5523 10.9999 17L10.9999 9.41421L8.70698 11.7071C8.31646 12.0976 7.68329 12.0976 7.29277 11.7071C6.90225 11.3166 6.90225 10.6834 7.29277 10.2929L11.2928 6.2929Z" fill="#000640"/>
<path fill-rule="evenodd" clip-rule="evenodd" d="M22.9999 4C22.9999 2.34315 21.6567 1 19.9999 1L3.99988 1C2.34302 1 0.999879 2.34315 0.999879 4L0.999878 20C0.999878 21.6569 2.34302 23 3.99988 23L19.9999 23C21.6567 23 22.9999 21.6569 22.9999 20L22.9999 4ZM19.9999 3C20.5522 3 20.9999 3.44772 20.9999 4L20.9999 20C20.9999 20.5523 20.5522 21 19.9999 21L3.99988 21C3.44759 21 2.99988 20.5523 2.99988 20L2.99988 4C2.99988 3.44772 3.44759 3 3.99988 3L19.9999 3Z" fill="#000640"/>
</svg>
