<svg width="24" height="24" viewBox="0 0 24 24" fill="none" xmlns="http://www.w3.org/2000/svg">
<path d="M12.7071 17.7071C12.3166 18.0976 11.6834 18.0976 11.2929 17.7071L7.29289 13.7071C6.90237 13.3166 6.90237 12.6834 7.29289 12.2929C7.68342 11.9024 8.31658 11.9024 8.70711 12.2929L11 14.5858L11 7C11 6.44772 11.4477 6 12 6C12.5523 6 13 6.44772 13 7L13 14.5858L15.2929 12.2929C15.6834 11.9024 16.3166 11.9024 16.7071 12.2929C17.0976 12.6834 17.0976 13.3166 16.7071 13.7071L12.7071 17.7071Z" fill="#000640"/>
<path fill-rule="evenodd" clip-rule="evenodd" d="M1 20C1 21.6569 2.34315 23 4 23L20 23C21.6569 23 23 21.6569 23 20L23 4C23 2.34315 21.6569 1 20 1L4 1C2.34315 1 1 2.34315 1 4L1 20ZM4 21C3.44772 21 3 20.5523 3 20L3 4C3 3.44772 3.44772 3 4 3L20 3C20.5523 3 21 3.44772 21 4L21 20C21 20.5523 20.5523 21 20 21L4 21Z" fill="#000640"/>
</svg>
