<svg width="24" height="24" viewBox="0 0 24 24" fill="none" xmlns="http://www.w3.org/2000/svg">
<path d="M21 4C21.5523 4 22 4.44772 22 5V19C22 19.5523 21.5523 20 21 20C20.4477 20 20 19.5523 20 19V5C20 4.44772 20.4477 4 21 4Z" fill="#000640"/>
<path d="M11.2929 6.29289C11.6834 5.90237 12.3166 5.90237 12.7071 6.29289L17.7071 11.2929C18.0976 11.6834 18.0976 12.3166 17.7071 12.7071L12.7071 17.7071C12.3166 18.0976 11.6834 18.0976 11.2929 17.7071C10.9024 17.3166 10.9024 16.6834 11.2929 16.2929L14.5858 13H2C1.44771 13 1 12.5523 1 12C1 11.4477 1.44771 11 2 11H14.5858L11.2929 7.70711C10.9024 7.31658 10.9024 6.68342 11.2929 6.29289Z" fill="#000640"/>
</svg>
