<svg width="24" height="24" viewBox="0 0 24 24" fill="none" xmlns="http://www.w3.org/2000/svg">
<path d="M14.2929 13.2929C13.9024 13.6834 13.9024 14.3166 14.2929 14.7071C14.6834 15.0976 15.3166 15.0976 15.7071 14.7071L20.7071 9.70711C21.0976 9.31658 21.0976 8.68342 20.7071 8.29289L15.7071 3.29289C15.3166 2.90237 14.6834 2.90237 14.2929 3.29289C13.9024 3.68342 13.9024 4.31658 14.2929 4.70711L17.5858 8H12C9.30032 8 7.04475 8.81241 5.45233 10.2601C3.85416 11.7129 3 13.7387 3 16V20C3 20.5523 3.44771 21 4 21C4.55229 21 5 20.552 5 19.9997V16C5 14.2613 5.64584 12.7871 6.79767 11.7399C7.95525 10.6876 9.69968 10 12 10H17.5858L14.2929 13.2929Z" fill="#000640"/>
</svg>
