<svg width="24" height="24" viewBox="0 0 24 24" fill="none" xmlns="http://www.w3.org/2000/svg">
<path d="M19.2929 9.70711C19.6834 10.0976 20.3166 10.0976 20.7071 9.70711C21.0976 9.31658 21.0976 8.68342 20.7071 8.29289L15.7071 3.29289C15.3166 2.90237 14.6834 2.90237 14.2929 3.29289L9.29289 8.29289C8.90237 8.68342 8.90237 9.31658 9.29289 9.70711C9.68342 10.0976 10.3166 10.0976 10.7071 9.70711L14 6.41421V12C14 14.3003 13.3124 16.0448 12.2601 17.2023C11.2129 18.3542 9.73874 19 8 19H4.00028C3.44799 19 3 19.4477 3 20C3 20.5523 3.44772 21 4 21H8C10.2613 21 12.2871 20.1458 13.7399 18.5477C15.1876 16.9552 16 14.6997 16 12V6.41421L19.2929 9.70711Z" fill="#000640"/>
</svg>
