<svg width="24" height="24" viewBox="0 0 24 24" fill="none" xmlns="http://www.w3.org/2000/svg">
<path d="M4.70711 9.70711C4.31658 10.0976 3.68342 10.0976 3.29289 9.70711C2.90237 9.31658 2.90237 8.68342 3.29289 8.29289L8.29289 3.29289C8.68342 2.90237 9.31658 2.90237 9.70711 3.29289L14.7071 8.29289C15.0976 8.68342 15.0976 9.31658 14.7071 9.70711C14.3166 10.0976 13.6834 10.0976 13.2929 9.70711L10 6.41421L10 12C10 14.3003 10.6876 16.0448 11.7399 17.2023C12.7871 18.3542 14.2613 19 16 19H19.9997C20.552 19 21 19.4477 21 20C21 20.5523 20.5523 21 20 21H16C13.7387 21 11.7129 20.1458 10.2601 18.5477C8.8124 16.9552 8 14.6997 8 12L8 6.41421L4.70711 9.70711Z" fill="#000640"/>
</svg>
