<svg width="24" height="24" viewBox="0 0 24 24" fill="none" xmlns="http://www.w3.org/2000/svg">
<path d="M6.41421 14L9.70711 10.7071C10.0976 10.3166 10.0976 9.68342 9.70711 9.29289C9.31658 8.90237 8.68342 8.90237 8.29289 9.29289L3.29289 14.2929C2.90237 14.6834 2.90237 15.3166 3.29289 15.7071L8.29289 20.7071C8.68342 21.0976 9.31658 21.0976 9.70711 20.7071C10.0976 20.3166 10.0976 19.6834 9.70711 19.2929L6.41421 16H14C17.866 16 21 12.866 21 9V4C21 3.44771 20.5523 3 20 3C19.4477 3 19 3.44771 19 4V9C19 11.7614 16.7614 14 14 14H6.41421Z" fill="#000640"/>
</svg>
