<svg width="24" height="24" viewBox="0 0 24 24" fill="none" xmlns="http://www.w3.org/2000/svg">
<path fill-rule="evenodd" clip-rule="evenodd" d="M12 1C12.2835 1 12.5537 1.12032 12.7433 1.33104L21.7433 11.331C22.0075 11.6246 22.0742 12.0461 21.9135 12.4068C21.7529 12.7676 21.3949 13 21 13H17V18C17 18.5523 16.5523 19 16 19H8.00002C7.44773 19 7.00002 18.5523 7.00002 18V13H3.00002C2.60511 13 2.24718 12.7676 2.08652 12.4068C1.92585 12.0461 1.99254 11.6246 2.25672 11.331L11.2567 1.33104C11.4464 1.12032 11.7165 1 12 1ZM5.24538 11H8.00002C8.5523 11 9.00002 11.4477 9.00002 12V17H15V12C15 11.4477 15.4477 11 16 11H18.7547L12 3.49485L5.24538 11ZM7.00002 22C7.00002 21.4477 7.44773 21 8.00002 21H16C16.5523 21 17 21.4477 17 22C17 22.5523 16.5523 23 16 23H8.00002C7.44773 23 7.00002 22.5523 7.00002 22Z" fill="#000640"/>
</svg>
