<svg width="24" height="24" viewBox="0 0 24 24" fill="none" xmlns="http://www.w3.org/2000/svg">
<path d="M7 5C7 4.44772 6.55228 4 6 4C5.44772 4 5 4.44772 5 5V19C5 19.5523 5.44772 20 6 20C6.55228 20 7 19.5523 7 19V5Z" fill="#000640"/>
<path d="M16.5858 12L10.2929 18.2929C9.90237 18.6834 9.90237 19.3166 10.2929 19.7071C10.6834 20.0976 11.3166 20.0976 11.7071 19.7071L18.7071 12.7071C19.0976 12.3166 19.0976 11.6834 18.7071 11.2929L11.7071 4.29289C11.3166 3.90237 10.6834 3.90237 10.2929 4.29289C9.90237 4.68342 9.90237 5.31658 10.2929 5.70711L16.5858 12Z" fill="#000640"/>
</svg>
