<svg width="24" height="24" viewBox="0 0 24 24" fill="none" xmlns="http://www.w3.org/2000/svg">
<path d="M17 19C17 19.5523 17.4477 20 18 20C18.5523 20 19 19.5523 19 19L19 5C19 4.44771 18.5523 4 18 4C17.4477 4 17 4.44771 17 5L17 19Z" fill="#000640"/>
<path d="M13.7071 5.70711C14.0976 5.31658 14.0976 4.68342 13.7071 4.29289C13.3166 3.90237 12.6834 3.90237 12.2929 4.29289L5.29289 11.2929C4.90237 11.6834 4.90237 12.3166 5.29289 12.7071L12.2929 19.7071C12.6834 20.0976 13.3166 20.0976 13.7071 19.7071C14.0976 19.3166 14.0976 18.6834 13.7071 18.2929L7.41421 12L13.7071 5.70711Z" fill="#000640"/>
</svg>
