<svg width="24" height="24" viewBox="0 0 24 24" fill="none" xmlns="http://www.w3.org/2000/svg">
<path d="M6.70711 4.29289C6.31658 3.90237 5.68342 3.90237 5.29289 4.29289C4.90237 4.68342 4.90237 5.31658 5.29289 5.70711L11.5858 12L5.29289 18.2929C4.90237 18.6834 4.90237 19.3166 5.29289 19.7071C5.68342 20.0976 6.31658 20.0976 6.70711 19.7071L13.7071 12.7071C14.0976 12.3166 14.0976 11.6834 13.7071 11.2929L6.70711 4.29289Z" fill="#000640"/>
<path d="M18 20C18.5523 20 19 19.5523 19 19V5C19 4.44772 18.5523 4 18 4C17.4477 4 17 4.44772 17 5V19C17 19.5523 17.4477 20 18 20Z" fill="#000640"/>
</svg>
