<svg width="24" height="24" viewBox="0 0 24 24" fill="none" xmlns="http://www.w3.org/2000/svg">
<path d="M18 12C18 12.2652 17.8946 12.5196 17.7071 12.7071L13.7071 16.7071C13.3166 17.0976 12.6834 17.0976 12.2929 16.7071C11.9024 16.3166 11.9024 15.6834 12.2929 15.2929L15.5858 12L12.2929 8.70711C11.9024 8.31658 11.9024 7.68342 12.2929 7.29289C12.6834 6.90237 13.3166 6.90237 13.7071 7.29289L17.7071 11.2929C17.8946 11.4804 18 11.7348 18 12Z" fill="#000640"/>
<path d="M10 8C10 7.44772 9.55229 7 9 7C8.44772 7 8 7.44772 8 8L8 16C8 16.5523 8.44771 17 9 17C9.55228 17 10 16.5523 10 16L10 8Z" fill="#000640"/>
<path fill-rule="evenodd" clip-rule="evenodd" d="M4 23C2.34315 23 1 21.6569 1 20V4C1 2.34315 2.34315 1 4 1H20C21.6569 1 23 2.34315 23 4V20C23 21.6569 21.6569 23 20 23H4ZM3 20C3 20.5523 3.44772 21 4 21H20C20.5523 21 21 20.5523 21 20V4C21 3.44772 20.5523 3 20 3L4 3C3.44772 3 3 3.44772 3 4L3 20Z" fill="#000640"/>
</svg>
