<svg width="24" height="24" viewBox="0 0 24 24" fill="none" xmlns="http://www.w3.org/2000/svg">
<path fill-rule="evenodd" clip-rule="evenodd" d="M21 12.1716C18.9921 15.0859 15.6575 17 11.8746 17C6.56721 17 2.14484 13.2355 1.02405 8.218C0.903653 7.679 1.243 7.14445 1.78199 7.02405C2.321 6.90365 2.85555 7.24299 2.97595 7.78199C3.90155 11.9256 7.54438 15 11.8746 15C15.3694 15 18.4148 12.9996 19.9486 10.0462L15.5117 11.2508C14.9787 11.3955 14.4293 11.0807 14.2846 10.5477C14.1399 10.0147 14.4547 9.46535 14.9876 9.32065L21.738 7.48799C22.0386 7.40638 22.36 7.46949 22.6075 7.6587C22.8549 7.8479 23 8.14158 23 8.45305L23 15.3102C23 15.8625 22.5523 16.3102 22 16.3102C21.4477 16.3102 21 15.8625 21 15.3102L21 12.1716Z" fill="#000640"/>
</svg>
