<svg width="24" height="24" viewBox="0 0 24 24" fill="none" xmlns="http://www.w3.org/2000/svg">
<path fill-rule="evenodd" clip-rule="evenodd" d="M11.8746 9C7.54436 9 3.90152 12.0744 2.97592 16.218C2.85552 16.757 2.32097 17.0963 1.78197 16.9759C1.24296 16.8555 0.903622 16.321 1.02402 15.782C2.14481 10.7645 6.56718 7 11.8746 7C15.6575 7 18.9921 8.91415 21 11.8284V8.6898C21 8.13752 21.4477 7.6898 22 7.6898C22.5523 7.6898 23 8.13752 23 8.6898V15.5469C23 15.8584 22.8548 16.1521 22.6074 16.3413C22.36 16.5305 22.0386 16.5936 21.738 16.512L14.9876 14.6794C14.4546 14.5346 14.1399 13.9853 14.2846 13.4523C14.4293 12.9193 14.9786 12.6045 15.5116 12.7492L19.9485 13.9538C18.4148 11.0004 15.3694 9 11.8746 9Z" fill="#000640"/>
</svg>
