<svg width="24" height="24" viewBox="0 0 24 24" fill="none" xmlns="http://www.w3.org/2000/svg">
<g clip-path="url(#clip0_1253_5898)">
<path d="M18 12C18 12.2652 17.8946 12.5196 17.7071 12.7071L13.7071 16.7071C13.3166 17.0976 12.6834 17.0976 12.2929 16.7071C11.9024 16.3166 11.9024 15.6834 12.2929 15.2929L15.5858 12L12.2929 8.70711C11.9024 8.31658 11.9024 7.68342 12.2929 7.29289C12.6834 6.90237 13.3166 6.90237 13.7071 7.29289L17.7071 11.2929C17.8946 11.4804 18 11.7348 18 12Z" fill="#000640"/>
<path d="M12.7071 12.7071C12.8946 12.5196 13 12.2652 13 12C13 11.7348 12.8946 11.4804 12.7071 11.2929L8.70711 7.2929C8.31658 6.90237 7.68342 6.90237 7.29289 7.29289C6.90237 7.68342 6.90237 8.31658 7.29289 8.70711L10.5858 12L7.29289 15.2929C6.90237 15.6834 6.90237 16.3166 7.29289 16.7071C7.68341 17.0976 8.31658 17.0976 8.7071 16.7071L12.7071 12.7071Z" fill="#000640"/>
<path fill-rule="evenodd" clip-rule="evenodd" d="M12 0C5.37259 -1.73816e-06 1.73816e-06 5.37258 0 12C-1.73816e-06 18.6274 5.37258 24 12 24C18.6274 24 24 18.6274 24 12C24 5.37259 18.6274 1.73816e-06 12 0ZM12 2C6.47715 2 2 6.47715 2 12C2 17.5228 6.47715 22 12 22C17.5228 22 22 17.5229 22 12C22 6.47715 17.5229 2 12 2Z" fill="#000640"/>
</g>
<defs>
<clipPath id="clip0_1253_5898">
<rect width="24" height="24" fill="white"/>
</clipPath>
</defs>
</svg>
