<svg width="24" height="24" viewBox="0 0 24 24" fill="none" xmlns="http://www.w3.org/2000/svg">
<path d="M11.7071 5.70711C12.0976 5.31658 12.0976 4.68342 11.7071 4.29289C11.3166 3.90237 10.6834 3.90237 10.2929 4.29289L3.29289 11.2929C2.90237 11.6834 2.90237 12.3166 3.29289 12.7071L10.2929 19.7071C10.6834 20.0976 11.3166 20.0976 11.7071 19.7071C12.0976 19.3166 12.0976 18.6834 11.7071 18.2929L5.41421 12L11.7071 5.70711Z" fill="#000640"/>
<path d="M18.7071 5.70711C19.0976 5.31658 19.0976 4.68342 18.7071 4.29289C18.3166 3.90237 17.6834 3.90237 17.2929 4.29289L10.2929 11.2929C9.90237 11.6834 9.90237 12.3166 10.2929 12.7071L17.2929 19.7071C17.6834 20.0976 18.3166 20.0976 18.7071 19.7071C19.0976 19.3166 19.0976 18.6834 18.7071 18.2929L12.4142 12L18.7071 5.70711Z" fill="#000640"/>
</svg>
