<svg width="24" height="24" viewBox="0 0 24 24" fill="none" xmlns="http://www.w3.org/2000/svg">
<path d="M12 9C11.7348 9 11.4804 8.89464 11.2929 8.70711L7.29289 4.70711C6.90237 4.31658 6.90237 3.68342 7.29289 3.29289C7.68342 2.90237 8.31658 2.90237 8.70711 3.29289L12 6.58579L15.2929 3.29289C15.6834 2.90237 16.3166 2.90237 16.7071 3.29289C17.0976 3.68342 17.0976 4.31658 16.7071 4.70711L12.7071 8.70711C12.5196 8.89464 12.2652 9 12 9Z" fill="#000640"/>
<path d="M16.7071 20.7071C16.3166 21.0976 15.6834 21.0976 15.2929 20.7071L12 17.4142L8.70711 20.7071C8.31658 21.0976 7.68342 21.0976 7.29289 20.7071C6.90237 20.3166 6.90237 19.6834 7.29289 19.2929L11.2929 15.2929C11.6834 14.9024 12.3166 14.9024 12.7071 15.2929L16.7071 19.2929C17.0976 19.6834 17.0976 20.3166 16.7071 20.7071Z" fill="#000640"/>
<path d="M20 13C20.5523 13 21 12.5523 21 12C21 11.4477 20.5523 11 20 11H4C3.44771 11 3 11.4477 3 12C3 12.5523 3.44771 13 4 13H20Z" fill="#000640"/>
</svg>
