<svg width="24" height="24" viewBox="0 0 24 24" fill="none" xmlns="http://www.w3.org/2000/svg">
<path d="M6.29289 13.2929C5.90237 13.6834 5.90237 14.3166 6.29289 14.7071C6.68342 15.0976 7.31658 15.0976 7.70711 14.7071L11.7071 10.7071C11.8946 10.5196 12 10.2652 12 10C12 9.73478 11.8946 9.48043 11.7071 9.29289L7.70711 5.29289C7.31658 4.90237 6.68342 4.90237 6.29289 5.29289C5.90237 5.68342 5.90237 6.31658 6.29289 6.70711L8.58579 9H2C1.44772 9 1 9.44772 1 10C1 10.5523 1.44772 11 2 11H8.58578L6.29289 13.2929Z" fill="#000640"/>
<path d="M16.2929 18.7071C16.6834 19.0976 17.3166 19.0976 17.7071 18.7071C18.0976 18.3166 18.0976 17.6834 17.7071 17.2929L15.4142 15H22C22.5523 15 23 14.5523 23 14C23 13.4477 22.5523 13 22 13H15.4142L17.7071 10.7071C18.0976 10.3166 18.0976 9.68342 17.7071 9.29289C17.3166 8.90237 16.6834 8.90237 16.2929 9.29289L12.2929 13.2929C12.1054 13.4804 12 13.7348 12 14C12 14.2652 12.1054 14.5196 12.2929 14.7071L16.2929 18.7071Z" fill="#000640"/>
</svg>
