<svg width="24" height="24" viewBox="0 0 24 24" fill="none" xmlns="http://www.w3.org/2000/svg">
<path d="M13 4C13 3.44772 12.5523 3 12 3C11.4477 3 11 3.44772 11 4L11 20C11 20.5523 11.4477 21 12 21C12.5523 21 13 20.5523 13 20L13 4Z" fill="#000640"/>
<path d="M3 12C3 11.7348 3.10536 11.4804 3.29289 11.2929L7.29289 7.29289C7.68342 6.90237 8.31658 6.90237 8.70711 7.29289C9.09763 7.68342 9.09763 8.31658 8.70711 8.70711L5.41421 12L8.70711 15.2929C9.09763 15.6834 9.09763 16.3166 8.70711 16.7071C8.31658 17.0976 7.68342 17.0976 7.29289 16.7071L3.29289 12.7071C3.10536 12.5196 3 12.2652 3 12Z" fill="#000640"/>
<path d="M15.2929 16.7071C14.9024 16.3166 14.9024 15.6834 15.2929 15.2929L18.5858 12L15.2929 8.70711C14.9024 8.31658 14.9024 7.68342 15.2929 7.29289C15.6834 6.90237 16.3166 6.90237 16.7071 7.29289L20.7071 11.2929C21.0976 11.6834 21.0976 12.3166 20.7071 12.7071L16.7071 16.7071C16.3166 17.0976 15.6834 17.0976 15.2929 16.7071Z" fill="#000640"/>
</svg>
