<svg width="24" height="24" viewBox="0 0 24 24" fill="none" xmlns="http://www.w3.org/2000/svg">
<path d="M6 15V8.5C6 6.01472 8.01472 4 10.5 4C12.9853 4 15 6.01472 15 8.5V17.5858L11.7071 14.2929C11.3166 13.9024 10.6834 13.9024 10.2929 14.2929C9.90237 14.6834 9.90237 15.3166 10.2929 15.7071L15.2929 20.7071C15.6834 21.0976 16.3166 21.0976 16.7071 20.7071L21.7071 15.7071C22.0976 15.3166 22.0976 14.6834 21.7071 14.2929C21.3166 13.9024 20.6834 13.9024 20.2929 14.2929L17 17.5858V8.5C17 4.91015 14.0899 2 10.5 2C6.91015 2 4 4.91015 4 8.5V15C4 15.5523 4.44772 16 5 16C5.55228 16 6 15.5523 6 15Z" fill="#000640"/>
</svg>
