<svg width="24" height="24" viewBox="0 0 24 24" fill="none" xmlns="http://www.w3.org/2000/svg">
<path d="M18 15V8.5C18 6.01472 15.9853 4 13.5 4C11.0147 4 9 6.01472 9 8.5V17.5858L12.2929 14.2929C12.6834 13.9024 13.3166 13.9024 13.7071 14.2929C14.0976 14.6834 14.0976 15.3166 13.7071 15.7071L8.70711 20.7071C8.31658 21.0976 7.68342 21.0976 7.29289 20.7071L2.29289 15.7071C1.90237 15.3166 1.90237 14.6834 2.29289 14.2929C2.68342 13.9024 3.31658 13.9024 3.70711 14.2929L7 17.5858V8.5C7 4.91015 9.91015 2 13.5 2C17.0899 2 20 4.91015 20 8.5V15C20 15.5523 19.5523 16 19 16C18.4477 16 18 15.5523 18 15Z" fill="#000640"/>
</svg>
