<svg width="24" height="24" viewBox="0 0 24 24" fill="none" xmlns="http://www.w3.org/2000/svg">
<path d="M5.41421 15L8.70711 11.7071C9.09763 11.3166 9.09763 10.6834 8.70711 10.2929C8.31658 9.90237 7.68342 9.90237 7.29289 10.2929L2.29289 15.2929C1.90237 15.6834 1.90237 16.3166 2.29289 16.7071L7.29289 21.7071C7.68342 22.0976 8.31658 22.0976 8.70711 21.7071C9.09763 21.3166 9.09763 20.6834 8.70711 20.2929L5.41421 17H15.5C19.0899 17 22 14.0899 22 10.5C22 6.91015 19.0899 4 15.5 4H9C8.44772 4 8 4.44771 8 5C8 5.55229 8.44772 6 9 6H15.5C17.9853 6 20 8.01472 20 10.5C20 12.9853 17.9853 15 15.5 15H5.41421Z" fill="#000640"/>
</svg>
