<svg width="24" height="24" viewBox="0 0 24 24" fill="none" xmlns="http://www.w3.org/2000/svg">
<path fill-rule="evenodd" clip-rule="evenodd" d="M8 5C8 2.79086 9.79086 1 12 1C14.2091 1 16 2.79086 16 5V12.1315L17 11.4648V10C17 8.34315 18.3431 7 20 7C21.6569 7 23 8.34315 23 10V12.9708C23 13.9396 22.5321 14.8488 21.7437 15.412L16 19.5146V22C16 22.5523 15.5523 23 15 23H9C8.44772 23 8 22.5523 8 22V16.5146L2.25629 12.412C1.4679 11.8488 1 10.9396 1 9.97076V7C1 5.34315 2.34315 4 4 4C5.65685 4 7 5.34315 7 7V8.46482L8 9.13148V5ZM16 17.0568L20.5812 13.7845C20.844 13.5968 21 13.2937 21 12.9708V10C21 9.44772 20.5523 9 20 9C19.4477 9 19 9.44772 19 10V12C19 12.3344 18.8329 12.6466 18.5547 12.8321L16 14.5352V17.0568ZM8 11.5352V14.0568L3.41876 10.7845C3.15597 10.5968 3 10.2937 3 9.97076V7C3 6.44772 3.44772 6 4 6C4.55228 6 5 6.44772 5 7V9C5 9.33435 5.1671 9.64658 5.4453 9.83205L8 11.5352ZM12 3C10.8954 3 10 3.89543 10 5V21H14V5C14 3.89543 13.1046 3 12 3Z" fill="#000640"/>
</svg>
