<svg width="24" height="24" viewBox="0 0 24 24" fill="none" xmlns="http://www.w3.org/2000/svg">
<path fill-rule="evenodd" clip-rule="evenodd" d="M13.1903 3.15737C10.6651 3.59794 8.01255 4.94325 6.00558 6.95021C2.24947 10.7063 2.21808 15.2729 4.78499 18.2944C6.8104 17.4297 8.05601 16.4437 8.92786 15.4151C9.89088 14.279 10.4449 13.043 11.0758 11.6352L11.102 11.5768C11.7338 10.1675 12.4408 8.60931 13.7256 7.11261C14.7694 5.89664 16.1649 4.75254 18.1559 3.7164C16.8133 3.0148 15.0832 2.82712 13.1903 3.15737ZM19.8275 5.12149C17.6089 6.15881 16.2156 7.28244 15.2432 8.4153C14.1676 9.6683 13.5607 10.9815 12.9271 12.3949C12.9059 12.442 12.8848 12.4892 12.8636 12.5366C12.2583 13.8883 11.6026 15.3526 10.4535 16.7083C9.4957 17.8383 8.2248 18.8629 6.41186 19.7493C9.40877 21.7566 13.5761 21.4688 17.0502 17.9948C19.0571 15.9878 20.4024 13.3353 20.843 10.8101C21.2361 8.55687 20.8954 6.53435 19.8275 5.12149ZM12.8466 1.18714C15.7698 0.677117 18.7709 1.17051 20.8004 3.19998C22.8299 5.22944 23.3233 8.23059 22.8132 11.1538C22.3008 14.0908 20.7579 17.1155 18.4644 19.409C13.8239 24.0495 7.69229 24.0673 3.81269 20.1877C-0.0669026 16.3081 -0.0491478 10.1765 4.59137 5.536C6.8849 3.24246 9.90956 1.69955 12.8466 1.18714Z" fill="#000640"/>
</svg>
