<svg width="24" height="24" viewBox="0 0 24 24" fill="none" xmlns="http://www.w3.org/2000/svg">
<path fill-rule="evenodd" clip-rule="evenodd" d="M8.00156 5.07408C8.02672 3.81822 8.43005 2.78006 9.18461 2.05196C9.95571 1.3079 10.9774 1 12.0003 1C13.0232 1 14.0449 1.3079 14.816 2.05196C15.5706 2.78007 15.9739 3.81825 15.9991 5.07413C17.0992 4.46808 18.1998 4.29832 19.2076 4.58772C20.2375 4.88349 21.015 5.61436 21.5265 6.50021C22.0379 7.38606 22.2821 8.42483 22.0233 9.46466C21.7701 10.482 21.0728 11.3503 19.998 12C21.0728 12.6497 21.77 13.5179 22.0232 14.5353C22.2821 15.5751 22.0379 16.6139 21.5264 17.4997C21.015 18.3856 20.2375 19.1165 19.2076 19.4122C18.1998 19.7016 17.0992 19.5319 15.9991 18.9259C15.9739 20.1817 15.5706 21.2199 14.8161 21.948C14.045 22.6921 13.0233 23 12.0004 23C10.9775 23 9.95577 22.6921 9.18467 21.948C8.4301 21.2199 8.02677 20.1817 8.00162 18.9258C6.90149 19.5319 5.80083 19.7017 4.79306 19.4123C3.76313 19.1165 2.98563 18.3856 2.47418 17.4998C1.96273 16.6139 1.71853 15.5751 1.97736 14.5353C2.2306 13.5179 2.92785 12.6497 4.00263 12C2.92789 11.3503 2.23065 10.482 1.97742 9.46467C1.71859 8.42485 1.96279 7.38608 2.47424 6.50023C2.98569 5.61437 3.76319 4.8835 4.79312 4.58774C5.80085 4.29835 6.90148 4.46808 8.00156 5.07408ZM7.03863 13.0084C6.36955 13.1101 5.68292 13.3378 5.11149 13.6677C4.33492 14.1161 4.0209 14.6056 3.91814 15.0184C3.81251 15.4428 3.88925 15.9507 4.20623 16.4998C4.52321 17.0488 4.92477 17.3692 5.34508 17.4899C5.754 17.6074 6.33492 17.5802 7.11149 17.1318C7.68341 16.8016 8.22435 16.3203 8.64714 15.7912C8.65576 15.7715 8.66447 15.7519 8.67324 15.7324C7.88739 15.0314 7.32433 14.0858 7.10352 13.0153C7.0819 13.0131 7.06027 13.0108 7.03863 13.0084ZM16.8972 13.0153L16.962 13.0084C17.6311 13.1101 18.3177 13.3378 18.8891 13.6677C19.6657 14.116 19.9797 14.6055 20.0825 15.0184C20.1881 15.4427 20.1114 15.9507 19.7944 16.4997C19.4774 17.0488 19.0758 17.3692 18.6555 17.4899C18.2466 17.6074 17.6657 17.5802 16.8891 17.1318C16.3173 16.8017 15.7765 16.3205 15.3537 15.7915L15.3275 15.7324C16.1133 15.0313 16.6764 14.0858 16.8972 13.0153ZM10.0003 5.2C10.0003 4.3033 10.2672 3.7866 10.5734 3.49118C10.888 3.18753 11.3663 3 12.0003 3C12.6343 3 13.1126 3.18753 13.4272 3.49118C13.7334 3.7866 14.0003 4.3033 14.0003 5.2C14.0003 5.86046 13.8539 6.56965 13.607 7.2004L13.57 7.2513C13.0763 7.08823 12.5487 6.99997 12.0004 6.99997C11.4521 6.99997 10.9244 7.08823 10.4308 7.2513L10.3935 7.20012C10.1467 6.56944 10.0003 5.86036 10.0003 5.2ZM8.64695 8.2085L8.67319 8.26763C7.88346 8.97212 7.31874 9.92353 7.10025 11.0006C6.41187 10.9038 5.70052 10.6723 5.11155 10.3323C4.33498 9.88393 4.02096 9.39444 3.9182 8.98159C3.81257 8.55724 3.88931 8.04925 4.20629 7.50023C4.52327 6.9512 4.92483 6.63075 5.34514 6.51005C5.75406 6.39262 6.33498 6.41982 7.11155 6.86818C7.68336 7.19831 8.22419 7.67951 8.64695 8.2085ZM15.3275 8.26756L15.3535 8.20879C15.7763 7.67968 16.3173 7.19835 16.8892 6.86816C17.6657 6.41981 18.2467 6.3926 18.6556 6.51003C19.0759 6.63073 19.4775 6.95118 19.7944 7.50021C20.1114 8.04923 20.1882 8.55722 20.0825 8.98157C19.9798 9.39442 19.6657 9.88391 18.8892 10.3323C18.3002 10.6723 17.5889 10.9038 16.9005 11.0006C16.682 9.92348 16.1172 8.97206 15.3275 8.26756ZM12.0004 15C13.6572 15 15.0004 13.6568 15.0004 12C15.0004 10.3431 13.6572 8.99997 12.0004 8.99997C10.3435 8.99997 9.00036 10.3431 9.00036 12C9.00036 13.6568 10.3435 15 12.0004 15ZM12.0004 17C12.5542 17 13.087 16.9099 13.5849 16.7437C13.8452 17.3882 14.0004 18.1199 14.0004 18.8C14.0004 19.6967 13.7335 20.2134 13.4273 20.5088C13.1126 20.8124 12.6343 21 12.0004 21C11.3664 21 10.8881 20.8124 10.5734 20.5088C10.2673 20.2134 10.0004 19.6967 10.0004 18.8C10.0004 18.1199 10.1556 17.3882 10.4158 16.7437C10.9138 16.9099 11.4465 17 12.0004 17Z" fill="#000640"/>
</svg>
