<svg width="1352" height="146" viewBox="0 0 1352 146" fill="none" xmlns="http://www.w3.org/2000/svg">
<rect x="96" y="144" width="1160" height="2" rx="0.5" fill="#F5F5F5"/>
<path d="M127.008 92H121.536L105.072 67.088V92H99.6V58.592H105.072L121.536 83.456V58.592H127.008V92ZM132.37 78.656C132.37 76 132.914 73.648 134.002 71.6C135.122 69.552 136.626 67.968 138.514 66.848C140.434 65.696 142.546 65.12 144.85 65.12C146.93 65.12 148.738 65.536 150.274 66.368C151.842 67.168 153.09 68.176 154.018 69.392V65.552H159.538V92H154.018V88.064C153.09 89.312 151.826 90.352 150.226 91.184C148.626 92.016 146.802 92.432 144.754 92.432C142.482 92.432 140.402 91.856 138.514 90.704C136.626 89.52 135.122 87.888 134.002 85.808C132.914 83.696 132.37 81.312 132.37 78.656ZM154.018 78.752C154.018 76.928 153.634 75.344 152.866 74C152.13 72.656 151.154 71.632 149.938 70.928C148.722 70.224 147.41 69.872 146.002 69.872C144.594 69.872 143.282 70.224 142.066 70.928C140.85 71.6 139.858 72.608 139.09 73.952C138.354 75.264 137.986 76.832 137.986 78.656C137.986 80.48 138.354 82.08 139.09 83.456C139.858 84.832 140.85 85.888 142.066 86.624C143.314 87.328 144.626 87.68 146.002 87.68C147.41 87.68 148.722 87.328 149.938 86.624C151.154 85.92 152.13 84.896 152.866 83.552C153.634 82.176 154.018 80.576 154.018 78.752ZM173.109 70.016V84.656C173.109 85.648 173.333 86.368 173.781 86.816C174.261 87.232 175.061 87.44 176.181 87.44H179.541V92H175.221C172.757 92 170.869 91.424 169.557 90.272C168.245 89.12 167.589 87.248 167.589 84.656V70.016H164.469V65.552H167.589V58.976H173.109V65.552H179.541V70.016H173.109ZM208.536 65.552V92H203.064V88.88C202.2 89.968 201.064 90.832 199.656 91.472C198.28 92.08 196.808 92.384 195.24 92.384C193.16 92.384 191.288 91.952 189.624 91.088C187.992 90.224 186.696 88.944 185.736 87.248C184.808 85.552 184.344 83.504 184.344 81.104V65.552H189.768V80.288C189.768 82.656 190.36 84.48 191.544 85.76C192.728 87.008 194.344 87.632 196.392 87.632C198.44 87.632 200.056 87.008 201.24 85.76C202.456 84.48 203.064 82.656 203.064 80.288V65.552H208.536ZM221.228 69.392C222.028 68.048 223.084 67.008 224.396 66.272C225.74 65.504 227.324 65.12 229.148 65.12V70.784H227.756C225.612 70.784 223.98 71.328 222.86 72.416C221.772 73.504 221.228 75.392 221.228 78.08V92H215.756V65.552H221.228V69.392ZM258.418 78.128C258.418 79.12 258.354 80.016 258.226 80.816H238.018C238.178 82.928 238.962 84.624 240.37 85.904C241.778 87.184 243.506 87.824 245.554 87.824C248.498 87.824 250.578 86.592 251.794 84.128H257.698C256.898 86.56 255.442 88.56 253.33 90.128C251.25 91.664 248.658 92.432 245.554 92.432C243.026 92.432 240.754 91.872 238.738 90.752C236.754 89.6 235.186 88 234.034 85.952C232.914 83.872 232.354 81.472 232.354 78.752C232.354 76.032 232.898 73.648 233.986 71.6C235.106 69.52 236.658 67.92 238.642 66.8C240.658 65.68 242.962 65.12 245.554 65.12C248.05 65.12 250.274 65.664 252.226 66.752C254.178 67.84 255.698 69.376 256.786 71.36C257.874 73.312 258.418 75.568 258.418 78.128ZM252.706 76.4C252.674 74.384 251.954 72.768 250.546 71.552C249.138 70.336 247.394 69.728 245.314 69.728C243.426 69.728 241.81 70.336 240.466 71.552C239.122 72.736 238.322 74.352 238.066 76.4H252.706ZM302.048 92L297.92 87.872C296.32 89.472 294.576 90.672 292.688 91.472C290.8 92.24 288.688 92.624 286.352 92.624C283.984 92.624 281.888 92.208 280.064 91.376C278.24 90.544 276.832 89.36 275.84 87.824C274.848 86.256 274.352 84.448 274.352 82.4C274.352 80.096 275.008 78.048 276.32 76.256C277.632 74.432 279.584 72.992 282.176 71.936C281.248 70.816 280.592 69.776 280.208 68.816C279.824 67.824 279.632 66.736 279.632 65.552C279.632 64.08 280 62.768 280.736 61.616C281.504 60.464 282.592 59.552 284 58.88C285.408 58.208 287.04 57.872 288.896 57.872C290.784 57.872 292.384 58.24 293.696 58.976C295.04 59.68 296.032 60.656 296.672 61.904C297.344 63.152 297.616 64.544 297.488 66.08H292.016C292.048 64.896 291.76 63.984 291.152 63.344C290.544 62.672 289.712 62.336 288.656 62.336C287.6 62.336 286.736 62.656 286.064 63.296C285.424 63.904 285.104 64.656 285.104 65.552C285.104 66.416 285.344 67.28 285.824 68.144C286.336 68.976 287.216 70.064 288.464 71.408L297.296 80.192L300.704 74.576H306.608L302.288 81.968L301.088 83.936L309.2 92H302.048ZM286.352 87.968C289.36 87.968 292.016 86.736 294.32 84.272L285.488 75.392C281.712 76.896 279.824 79.168 279.824 82.208C279.824 83.84 280.432 85.216 281.648 86.336C282.864 87.424 284.432 87.968 286.352 87.968ZM344.888 58.64V63.104H330.728V72.944H341.768V77.408H330.728V92H325.256V58.64H344.888ZM361.431 92.432C358.935 92.432 356.679 91.872 354.663 90.752C352.647 89.6 351.063 88 349.911 85.952C348.759 83.872 348.183 81.472 348.183 78.752C348.183 76.064 348.775 73.68 349.959 71.6C351.143 69.52 352.759 67.92 354.807 66.8C356.855 65.68 359.143 65.12 361.671 65.12C364.199 65.12 366.487 65.68 368.535 66.8C370.583 67.92 372.199 69.52 373.383 71.6C374.567 73.68 375.159 76.064 375.159 78.752C375.159 81.44 374.551 83.824 373.335 85.904C372.119 87.984 370.455 89.6 368.343 90.752C366.263 91.872 363.959 92.432 361.431 92.432ZM361.431 87.68C362.839 87.68 364.151 87.344 365.367 86.672C366.615 86 367.623 84.992 368.391 83.648C369.159 82.304 369.543 80.672 369.543 78.752C369.543 76.832 369.175 75.216 368.439 73.904C367.703 72.56 366.727 71.552 365.511 70.88C364.295 70.208 362.983 69.872 361.575 69.872C360.167 69.872 358.855 70.208 357.639 70.88C356.455 71.552 355.511 72.56 354.807 73.904C354.103 75.216 353.751 76.832 353.751 78.752C353.751 81.6 354.471 83.808 355.911 85.376C357.383 86.912 359.223 87.68 361.431 87.68ZM386.041 69.392C386.841 68.048 387.897 67.008 389.209 66.272C390.553 65.504 392.137 65.12 393.961 65.12V70.784H392.569C390.425 70.784 388.793 71.328 387.673 72.416C386.585 73.504 386.041 75.392 386.041 78.08V92H380.569V65.552H386.041V69.392ZM423.231 78.128C423.231 79.12 423.167 80.016 423.039 80.816H402.831C402.991 82.928 403.775 84.624 405.183 85.904C406.591 87.184 408.319 87.824 410.367 87.824C413.311 87.824 415.391 86.592 416.607 84.128H422.511C421.711 86.56 420.255 88.56 418.143 90.128C416.063 91.664 413.471 92.432 410.367 92.432C407.839 92.432 405.567 91.872 403.551 90.752C401.567 89.6 399.999 88 398.847 85.952C397.727 83.872 397.167 81.472 397.167 78.752C397.167 76.032 397.711 73.648 398.799 71.6C399.919 69.52 401.471 67.92 403.455 66.8C405.471 65.68 407.775 65.12 410.367 65.12C412.863 65.12 415.087 65.664 417.039 66.752C418.991 67.84 420.511 69.376 421.599 71.36C422.687 73.312 423.231 75.568 423.231 78.128ZM417.519 76.4C417.487 74.384 416.767 72.768 415.359 71.552C413.951 70.336 412.207 69.728 410.127 69.728C408.239 69.728 406.623 70.336 405.279 71.552C403.935 72.736 403.135 74.352 402.879 76.4H417.519ZM426.792 78.752C426.792 76.032 427.336 73.648 428.424 71.6C429.544 69.52 431.08 67.92 433.032 66.8C434.984 65.68 437.224 65.12 439.752 65.12C442.952 65.12 445.592 65.888 447.672 67.424C449.784 68.928 451.208 71.088 451.944 73.904H446.04C445.56 72.592 444.792 71.568 443.736 70.832C442.68 70.096 441.352 69.728 439.752 69.728C437.512 69.728 435.72 70.528 434.376 72.128C433.064 73.696 432.408 75.904 432.408 78.752C432.408 81.6 433.064 83.824 434.376 85.424C435.72 87.024 437.512 87.824 439.752 87.824C442.92 87.824 445.016 86.432 446.04 83.648H451.944C451.176 86.336 449.736 88.48 447.624 90.08C445.512 91.648 442.888 92.432 439.752 92.432C437.224 92.432 434.984 91.872 433.032 90.752C431.08 89.6 429.544 88 428.424 85.952C427.336 83.872 426.792 81.472 426.792 78.752ZM455.573 78.656C455.573 76 456.117 73.648 457.205 71.6C458.325 69.552 459.829 67.968 461.717 66.848C463.637 65.696 465.749 65.12 468.053 65.12C470.133 65.12 471.941 65.536 473.477 66.368C475.045 67.168 476.293 68.176 477.221 69.392V65.552H482.741V92H477.221V88.064C476.293 89.312 475.029 90.352 473.429 91.184C471.829 92.016 470.005 92.432 467.957 92.432C465.685 92.432 463.605 91.856 461.717 90.704C459.829 89.52 458.325 87.888 457.205 85.808C456.117 83.696 455.573 81.312 455.573 78.656ZM477.221 78.752C477.221 76.928 476.837 75.344 476.069 74C475.333 72.656 474.357 71.632 473.141 70.928C471.925 70.224 470.613 69.872 469.205 69.872C467.797 69.872 466.485 70.224 465.269 70.928C464.053 71.6 463.061 72.608 462.293 73.952C461.557 75.264 461.189 76.832 461.189 78.656C461.189 80.48 461.557 82.08 462.293 83.456C463.061 84.832 464.053 85.888 465.269 86.624C466.517 87.328 467.829 87.68 469.205 87.68C470.613 87.68 471.925 87.328 473.141 86.624C474.357 85.92 475.333 84.896 476.069 83.552C476.837 82.176 477.221 80.576 477.221 78.752ZM499.528 92.432C497.448 92.432 495.576 92.064 493.912 91.328C492.28 90.56 490.984 89.536 490.024 88.256C489.064 86.944 488.552 85.488 488.488 83.888H494.152C494.248 85.008 494.776 85.952 495.736 86.72C496.728 87.456 497.96 87.824 499.432 87.824C500.968 87.824 502.152 87.536 502.984 86.96C503.848 86.352 504.28 85.584 504.28 84.656C504.28 83.664 503.8 82.928 502.84 82.448C501.912 81.968 500.424 81.44 498.376 80.864C496.392 80.32 494.776 79.792 493.528 79.28C492.28 78.768 491.192 77.984 490.264 76.928C489.368 75.872 488.92 74.48 488.92 72.752C488.92 71.344 489.336 70.064 490.168 68.912C491 67.728 492.184 66.8 493.72 66.128C495.288 65.456 497.08 65.12 499.096 65.12C502.104 65.12 504.52 65.888 506.344 67.424C508.2 68.928 509.192 70.992 509.32 73.616H503.848C503.752 72.432 503.272 71.488 502.408 70.784C501.544 70.08 500.376 69.728 498.904 69.728C497.464 69.728 496.36 70 495.592 70.544C494.824 71.088 494.44 71.808 494.44 72.704C494.44 73.408 494.696 74 495.208 74.48C495.72 74.96 496.344 75.344 497.08 75.632C497.816 75.888 498.904 76.224 500.344 76.64C502.264 77.152 503.832 77.68 505.048 78.224C506.296 78.736 507.368 79.504 508.264 80.528C509.16 81.552 509.624 82.912 509.656 84.608C509.656 86.112 509.24 87.456 508.408 88.64C507.576 89.824 506.392 90.752 504.856 91.424C503.352 92.096 501.576 92.432 499.528 92.432ZM521.953 70.016V84.656C521.953 85.648 522.177 86.368 522.625 86.816C523.105 87.232 523.905 87.44 525.025 87.44H528.385V92H524.065C521.601 92 519.713 91.424 518.401 90.272C517.089 89.12 516.433 87.248 516.433 84.656V70.016H513.313V65.552H516.433V58.976H521.953V65.552H528.385V70.016H521.953Z" fill="#000640"/>
<rect x="1116" y="63" width="140" height="24" rx="4" fill="#EBEBEB"/>
<g clip-path="url(#clip0_1253_7211)">
<path d="M1130.86 80.1381C1131.12 80.3984 1131.54 80.3984 1131.8 80.1381C1132.07 79.8777 1132.07 79.4556 1131.8 79.1953L1128.28 75.6667H1137.33C1137.7 75.6667 1138 75.3682 1138 75C1138 74.6318 1137.7 74.3333 1137.33 74.3333H1128.28L1131.8 70.8047C1132.07 70.5444 1132.07 70.1223 1131.8 69.8619C1131.54 69.6016 1131.12 69.6016 1130.86 69.8619L1126.2 74.5286C1125.93 74.7889 1125.93 75.2111 1126.2 75.4714L1130.86 80.1381Z" fill="#696969"/>
</g>
<path d="M1144.59 80V72.2979H1147.48C1148.14 72.2979 1148.7 72.5002 1149.17 72.9048C1149.64 73.3058 1149.88 73.7856 1149.88 74.3442C1149.88 74.6916 1149.77 75.0174 1149.57 75.3218C1149.37 75.6226 1149.12 75.8249 1148.81 75.9287C1149.22 76.0111 1149.56 76.2259 1149.82 76.5732C1150.09 76.9206 1150.23 77.3288 1150.23 77.7979C1150.23 78.4137 1149.99 78.9347 1149.52 79.3608C1149.04 79.7869 1148.47 80 1147.81 80H1144.59ZM1146.21 75.4023H1147.4C1147.63 75.4023 1147.82 75.3271 1147.98 75.1768C1148.14 75.0228 1148.22 74.8384 1148.22 74.6235C1148.22 74.4087 1148.14 74.2279 1147.99 74.0811C1147.83 73.9342 1147.63 73.8608 1147.4 73.8608H1146.21V75.4023ZM1146.21 78.437H1147.66C1147.91 78.437 1148.13 78.3511 1148.3 78.1792C1148.48 78.0037 1148.57 77.7925 1148.57 77.5454C1148.57 77.2983 1148.48 77.0871 1148.3 76.9116C1148.13 76.7326 1147.92 76.6431 1147.68 76.6431H1146.21V78.437ZM1158 80L1157.52 78.7109H1154.55L1154.06 80H1152.33L1155.39 72.2979H1156.7L1159.78 80H1158ZM1155.09 77.3145H1156.98L1156.05 74.8545L1155.09 77.3145ZM1165.68 80.1074C1164.94 80.1074 1164.28 79.9355 1163.68 79.5918C1163.08 79.248 1162.62 78.7736 1162.28 78.1685C1161.94 77.5633 1161.77 76.8901 1161.77 76.1489C1161.77 75.4077 1161.94 74.7345 1162.28 74.1294C1162.62 73.5243 1163.08 73.0498 1163.68 72.7061C1164.28 72.3623 1164.94 72.1904 1165.68 72.1904C1166.27 72.1904 1166.84 72.3122 1167.37 72.5557C1167.91 72.7956 1168.35 73.1322 1168.7 73.5654C1169.05 73.9951 1169.27 74.4749 1169.34 75.0049H1167.52C1167.42 74.6432 1167.2 74.3478 1166.85 74.1187C1166.51 73.8895 1166.12 73.7749 1165.68 73.7749C1165.04 73.7749 1164.51 74.0023 1164.08 74.457C1163.65 74.9082 1163.44 75.4722 1163.44 76.1489C1163.44 76.8257 1163.65 77.3914 1164.08 77.8462C1164.51 78.3009 1165.04 78.5283 1165.68 78.5283C1166.12 78.5283 1166.52 78.403 1166.86 78.1523C1167.21 77.9017 1167.43 77.583 1167.53 77.1963H1169.36C1169.21 78.0521 1168.8 78.7521 1168.11 79.2964C1167.43 79.8371 1166.61 80.1074 1165.68 80.1074ZM1179 80H1176.87L1173.93 76.3262V80H1172.31V72.2979H1173.93V75.5581L1176.67 72.2979H1178.73L1175.64 75.9287L1179 80ZM1191.77 72.2979V73.8608H1189.51V80H1187.89V73.8608H1185.64V72.2979H1191.77ZM1195.79 72.7061C1196.4 72.3623 1197.07 72.1904 1197.8 72.1904C1198.54 72.1904 1199.21 72.3623 1199.81 72.7061C1200.41 73.0498 1200.88 73.5243 1201.22 74.1294C1201.57 74.7345 1201.74 75.4077 1201.74 76.1489C1201.74 76.8901 1201.57 77.5633 1201.22 78.1685C1200.88 78.7736 1200.41 79.248 1199.81 79.5918C1199.21 79.9355 1198.54 80.1074 1197.8 80.1074C1197.07 80.1074 1196.4 79.9355 1195.79 79.5918C1195.2 79.248 1194.73 78.7736 1194.39 78.1685C1194.05 77.5633 1193.88 76.8901 1193.88 76.1489C1193.88 75.4077 1194.05 74.7345 1194.39 74.1294C1194.73 73.5243 1195.2 73.0498 1195.79 72.7061ZM1199.41 74.457C1198.98 74.0023 1198.45 73.7749 1197.8 73.7749C1197.16 73.7749 1196.62 74.0023 1196.19 74.457C1195.76 74.9082 1195.55 75.4722 1195.55 76.1489C1195.55 76.8257 1195.76 77.3914 1196.19 77.8462C1196.62 78.3009 1197.16 78.5283 1197.8 78.5283C1198.45 78.5283 1198.98 78.3009 1199.41 77.8462C1199.84 77.3914 1200.06 76.8257 1200.06 76.1489C1200.06 75.4722 1199.84 74.9082 1199.41 74.457ZM1208.94 72.2979H1210.56V80H1208.94V72.2979ZM1213.73 72.2979H1215.11L1218.25 76.7881V72.2979H1219.87V80H1218.51L1215.36 75.5098V80H1213.73V72.2979ZM1225.68 72.2979C1226.41 72.2979 1227.07 72.4626 1227.67 72.792C1228.27 73.1214 1228.74 73.578 1229.08 74.1616C1229.42 74.7453 1229.59 75.397 1229.59 76.1167C1229.59 76.8507 1229.42 77.515 1229.08 78.1094C1228.74 78.7002 1228.27 79.1639 1227.67 79.5005C1227.07 79.8335 1226.41 80 1225.68 80H1223.04V72.2979H1225.68ZM1225.79 78.437C1226.4 78.437 1226.91 78.2168 1227.3 77.7764C1227.7 77.3359 1227.91 76.7827 1227.91 76.1167C1227.91 75.4614 1227.71 74.9225 1227.31 74.5C1226.92 74.0739 1226.41 73.8608 1225.79 73.8608H1224.67V78.437H1225.79ZM1232.53 72.2979H1237.25V73.8608H1234.16V75.2466H1236.91V76.8096H1234.16V78.437H1237.25V80H1232.53V72.2979ZM1246.96 80H1245.02L1243.33 77.481L1241.66 80H1239.75L1242.39 76.0415L1239.89 72.2979H1241.84L1243.36 74.5859L1244.88 72.2979H1246.78L1244.31 76.02L1246.96 80Z" fill="#696969"/>
<path d="M1144 81.6489H1247.04V82.1968H1144V81.6489Z" fill="#696969"/>
<a href="https://www.figma.com/file/FOhC2ZMBEHzVejIYjN6Qfz/%E2%9C%85-MamaMia!-Design-System?node-id=556%3A3901">
<rect fill="black" fill-opacity="0" y="-0.601074" width="103.041" height="13.2021"/>
</a>
<defs>
<clipPath id="clip0_1253_7211">
<rect width="16" height="16" fill="white" transform="translate(1124 67)"/>
</clipPath>
</defs>
</svg>
