<svg width="24" height="24" viewBox="0 0 24 24" fill="none" xmlns="http://www.w3.org/2000/svg">
<path fill-rule="evenodd" clip-rule="evenodd" d="M11.417 2.67335C11.9383 3.45583 11.8442 4.49577 11.1909 5.17195C9.00102 7.4384 9.02485 11.052 11.2625 13.2897C13.5002 15.5274 17.1138 15.5512 19.3803 13.3614C20.0565 12.708 21.0964 12.6139 21.8789 13.1352C22.6614 13.6565 22.9751 14.6525 22.6326 15.5281C22.1195 16.8402 21.3332 18.0683 20.2781 19.1233C16.1776 23.2239 9.5294 23.2239 5.42889 19.1233C1.32839 15.0228 1.32839 8.37461 5.42889 4.27411C6.48395 3.21905 7.71205 2.43278 9.0241 1.91963C9.89974 1.57716 10.8957 1.89087 11.417 2.67335ZM9.75258 3.78224C8.69273 4.19676 7.69931 4.83212 6.84311 5.68832C6.46513 6.0663 6.13018 6.47103 5.83828 6.8964C3.56669 10.2067 3.90163 14.7677 6.84311 17.7091C9.78458 20.6506 14.3455 20.9856 17.6558 18.714C18.0812 18.4221 18.4859 18.0871 18.8639 17.7091C19.7201 16.8529 20.3555 15.8595 20.77 14.7997C19.8891 15.6508 18.8572 16.2534 17.7623 16.6075C17.453 16.7076 17.1386 16.7878 16.8212 16.8482C14.3726 17.314 11.7437 16.5993 9.84831 14.7039C7.95295 12.8086 7.2382 10.1797 7.70405 7.73106C7.76444 7.41366 7.84467 7.09929 7.94473 6.78994C8.29886 5.69508 8.90148 4.66311 9.75258 3.78224Z" fill="#000640"/>
</svg>
