<svg width="24" height="24" viewBox="0 0 24 24" fill="none" xmlns="http://www.w3.org/2000/svg">
<path fill-rule="evenodd" clip-rule="evenodd" d="M12.9171 3.61725C12.5685 2.81555 11.4315 2.81555 11.0829 3.61725L8.11693 10.4391L9.21868 12.3671L11.2929 10.2929C11.5202 10.0656 11.8429 9.96142 12.1602 10.0129C12.4775 10.0644 12.7507 10.2653 12.8944 10.5528L14.2881 13.34L16.305 11.4095L12.9171 3.61725ZM17.155 13.3645L14.6915 15.7224C14.462 15.942 14.1419 16.0396 13.829 15.9853C13.5161 15.931 13.2476 15.7313 13.1056 15.4472L11.7261 12.6882L9.70711 14.7071C9.48672 14.9275 9.17618 15.0325 8.86727 14.9912C8.55836 14.9498 8.28639 14.7667 8.13176 14.4961L7.12159 12.7283L3.52521 21H20.4748L17.155 13.3645ZM9.24879 2.8198C10.2945 0.414695 13.7055 0.414709 14.7512 2.8198L22.9171 21.6013C23.0515 21.9104 23.0211 22.2664 22.8363 22.5483C22.6515 22.8302 22.3371 23 22 23H2C1.66293 23 1.34854 22.8302 1.16372 22.5483C0.978907 22.2664 0.948534 21.9104 1.08293 21.6013L9.24879 2.8198Z" fill="#000640"/>
</svg>
