<svg width="24" height="24" viewBox="0 0 24 24" fill="none" xmlns="http://www.w3.org/2000/svg">
<g clip-path="url(#clip0_1253_4770)">
<path fill-rule="evenodd" clip-rule="evenodd" d="M12.9143 3.91613C11.8935 1.48402 8.45659 1.45828 7.39951 3.87485L0.0838226 20.5991C-0.0514222 20.9082 -0.0216053 21.2648 0.163114 21.5472C0.347834 21.8296 0.662537 21.9998 1 21.9998L23 22.0001C23.3401 22.0001 23.6569 21.8273 23.8409 21.5413C24.025 21.2553 24.0511 20.8954 23.9102 20.5859L19.1038 10.0259C18.3335 8.33353 16.3438 7.83932 14.9006 8.64861L12.9143 3.91613ZM9.23187 4.67638C9.58423 3.87087 10.7299 3.87944 11.0701 4.69015L17.4958 19.9998H2.52892L9.23187 4.67638ZM15.6922 10.5347L19.6649 20.0001H21.4462L17.2835 10.8544C16.9907 10.2111 16.1692 10.0872 15.6922 10.5347Z" fill="#000640"/>
</g>
<defs>
<clipPath id="clip0_1253_4770">
<rect width="24" height="24" fill="white"/>
</clipPath>
</defs>
</svg>
