<svg width="24" height="24" viewBox="0 0 24 24" fill="none" xmlns="http://www.w3.org/2000/svg">
<path d="M21 4C21 3.44772 20.5523 3 20 3C19.4477 3 19 3.44772 19 4V5H18C17.4477 5 17 5.44771 17 6C17 6.55228 17.4477 7 18 7H19V8C19 8.55228 19.4477 9 20 9C20.5523 9 21 8.55228 21 8V7H22C22.5523 7 23 6.55228 23 6C23 5.44772 22.5523 5 22 5H21V4Z" fill="#000640"/>
<path fill-rule="evenodd" clip-rule="evenodd" d="M10.5 5C6.99227 5 4.1335 7.77853 4.00454 11.2547C2.25419 11.8714 1 13.5386 1 15.5C1 17.9853 3.01472 20 5.5 20H18.5C20.9853 20 23 17.9853 23 15.5C23 13.0147 20.9853 11 18.5 11H16.9811C16.7257 7.64378 13.9216 5 10.5 5ZM6 11.5C6 9.01472 8.01472 7 10.5 7C12.9853 7 15 9.01472 15 11.5V12C15 12.5523 15.4477 13 16 13H18.5C19.8807 13 21 14.1193 21 15.5C21 16.8807 19.8807 18 18.5 18H5.5C4.11929 18 3 16.8807 3 15.5C3 14.2414 3.931 13.1985 5.1416 13.0254C5.63417 12.9549 6 12.533 6 12.0354V11.5Z" fill="#000640"/>
<path d="M15 5C15.5523 5 16 4.55228 16 4C16 3.44772 15.5523 3 15 3C14.4477 3 14 3.44772 14 4C14 4.55228 14.4477 5 15 5Z" fill="#000640"/>
</svg>
