<svg width="24" height="24" viewBox="0 0 24 24" fill="none" xmlns="http://www.w3.org/2000/svg">
<path d="M5 15C5 13.0633 6.13887 10.0033 7.7316 7.35913C8.51601 6.05691 9.37244 4.92046 10.1846 4.12384C11.0472 3.27778 11.672 3 12 3C12.1754 3 12.4788 3.08223 12.9172 3.37534C13.344 3.66062 13.8226 4.09508 14.327 4.66366C14.6936 5.07679 15.3256 5.11456 15.7387 4.74803C16.1519 4.3815 16.1896 3.74946 15.8231 3.33634C15.2487 2.68889 14.6431 2.12335 14.0287 1.71264C13.4261 1.30976 12.7313 1 12 1C10.828 1 9.70282 1.79493 8.78414 2.69602C7.81506 3.64654 6.85899 4.93167 6.0184 6.32716C4.36113 9.07845 3 12.5184 3 15C3 15.5523 3.44772 16 4 16C4.55228 16 5 15.5523 5 15Z" fill="#000640"/>
<path fill-rule="evenodd" clip-rule="evenodd" d="M18.388 7.02626L21.7071 3.70711C22.0976 3.31658 22.0976 2.68342 21.7071 2.29289C21.3166 1.90237 20.6834 1.90237 20.2929 2.29289L2.29289 20.2929C1.90237 20.6834 1.90237 21.3166 2.29289 21.7071C2.68342 22.0976 3.31658 22.0976 3.70711 21.7071L5.07281 20.3414C6.76545 22.1005 9.28989 23 12 23C14.3955 23 16.6345 22.3005 18.2943 20.9274C19.9732 19.5384 21 17.5052 21 15C21 12.7223 19.8536 9.63977 18.388 7.02626ZM16.9142 8.50005C18.1617 10.8482 19 13.3388 19 15C19 16.9131 18.236 18.3799 17.0194 19.3864C15.7837 20.4087 14.0228 21 12 21C9.68556 21 7.72776 20.2301 6.48781 18.9264L16.9142 8.50005Z" fill="#000640"/>
</svg>
