<svg width="24" height="24" viewBox="0 0 24 24" fill="none" xmlns="http://www.w3.org/2000/svg">
<path fill-rule="evenodd" clip-rule="evenodd" d="M11.9999 1C9.79081 1 7.99995 2.79086 7.99995 5C7.99995 6.86384 9.27472 8.42994 10.9999 8.87398V11.382L8.97733 10.3707C8.99229 10.2492 9 10.1255 9 10C9 8.34315 7.65685 7 6 7C4.34315 7 3 8.34315 3 10C3 11.6569 4.34315 13 6 13C6.8089 13 7.54303 12.6799 8.08259 12.1594L10.9999 13.618V16H5C4.66818 16 4.35797 16.1646 4.17194 16.4394C3.98591 16.7141 3.94829 17.0633 4.07153 17.3714L6.07153 22.3714C6.22339 22.751 6.5911 23 7 23H17C17.4089 23 17.7766 22.751 17.9285 22.3714L19.9285 17.3714C20.0517 17.0633 20.0141 16.7141 19.8281 16.4394C19.642 16.1646 19.3318 16 19 16H12.9999V13.618L15.9174 12.1593C16.4569 12.6798 17.1911 13 18 13C19.6569 13 21 11.6569 21 10C21 8.34315 19.6569 7 18 7C16.3431 7 15 8.34315 15 10C15 10.1255 15.0077 10.2492 15.0227 10.3706L12.9999 11.382V8.87398C14.7252 8.42994 15.9999 6.86384 15.9999 5C15.9999 2.79086 14.2091 1 11.9999 1ZM9.99995 5C9.99995 3.89543 10.8954 3 11.9999 3C13.1045 3 13.9999 3.89543 13.9999 5C13.9999 6.10457 13.1045 7 11.9999 7C10.8954 7 9.99995 6.10457 9.99995 5ZM7.67704 21L6.47704 18H17.523L16.323 21H7.67704ZM18 11C18.5523 11 19 10.5523 19 10C19 9.44772 18.5523 9 18 9C17.4477 9 17 9.44772 17 10C17 10.5523 17.4477 11 18 11ZM7 10C7 10.5523 6.55228 11 6 11C5.44772 11 5 10.5523 5 10C5 9.44772 5.44772 9 6 9C6.55228 9 7 9.44772 7 10Z" fill="#000640"/>
</svg>
