<svg width="24" height="24" viewBox="0 0 24 24" fill="none" xmlns="http://www.w3.org/2000/svg">
<path d="M6 8.5C6 6.01472 8.01472 4 10.5 4C12.9853 4 15 6.01472 15 8.5V9C15 9.55228 15.4477 10 16 10H18.5C19.8807 10 21 11.1193 21 12.5C21 13.7586 20.069 14.8015 18.8584 14.9746C18.3117 15.0528 17.9319 15.5594 18.0101 16.1062C18.0883 16.6529 18.5949 17.0327 19.1416 16.9545C21.3233 16.6424 23 14.7679 23 12.5C23 10.0147 20.9853 8 18.5 8H16.9811C16.7257 4.64378 13.9216 2 10.5 2C6.99227 2 4.1335 4.77853 4.00454 8.25473C2.25419 8.87137 1 10.5386 1 12.5C1 14.7679 2.67671 16.6424 4.8584 16.9545C5.40512 17.0327 5.91172 16.6529 5.98992 16.1062C6.06813 15.5594 5.68832 15.0528 5.1416 14.9746C3.931 14.8015 3 13.7586 3 12.5C3 11.2414 3.931 10.1985 5.1416 10.0254C5.63417 9.95491 6 9.53303 6 9.03544V8.5Z" fill="#000640"/>
<path d="M9 14C9 13.4477 8.55228 13 8 13C7.44772 13 7 13.4477 7 14V21C7 21.5523 7.44772 22 8 22C8.55228 22 9 21.5523 9 21V14Z" fill="#000640"/>
<path d="M16 13C16.5523 13 17 13.4477 17 14V21C17 21.5523 16.5523 22 16 22C15.4477 22 15 21.5523 15 21V14C15 13.4477 15.4477 13 16 13Z" fill="#000640"/>
<path d="M13 14C13 13.4477 12.5523 13 12 13C11.4477 13 11 13.4477 11 14V21C11 21.5523 11.4477 22 12 22C12.5523 22 13 21.5523 13 21V14Z" fill="#000640"/>
</svg>
