<svg width="24" height="24" viewBox="0 0 24 24" fill="none" xmlns="http://www.w3.org/2000/svg">
<path d="M6 8.5C6 6.01472 8.01472 4 10.5 4C12.9853 4 15 6.01472 15 8.5V9C15 9.55228 15.4477 10 16 10H18.5C19.8807 10 21 11.1193 21 12.5C21 13.7586 20.069 14.8015 18.8584 14.9746C18.3117 15.0528 17.9319 15.5594 18.0101 16.1062C18.0883 16.6529 18.5949 17.0327 19.1416 16.9545C21.3233 16.6424 23 14.7679 23 12.5C23 10.0147 20.9853 8 18.5 8H16.9811C16.7257 4.64378 13.9216 2 10.5 2C6.99227 2 4.1335 4.77853 4.00454 8.25473C2.25419 8.87137 1 10.5386 1 12.5C1 14.2966 2.05291 15.8453 3.57091 16.5664C4.06976 16.8034 4.66628 16.5911 4.90326 16.0923C5.14024 15.5934 4.92795 14.9969 4.42909 14.7599C3.58215 14.3576 3 13.4958 3 12.5C3 11.2414 3.931 10.1985 5.1416 10.0254C5.63417 9.95491 6 9.53303 6 9.03544V8.5Z" fill="#000640"/>
<path d="M16.9615 14.2745C17.1133 13.7435 16.8058 13.19 16.2747 13.0382C15.7437 12.8865 15.1902 13.194 15.0385 13.725L13.0385 20.725C12.8868 21.2561 13.1943 21.8096 13.7253 21.9613C14.2563 22.113 14.8098 21.8055 14.9615 21.2745L16.9615 14.2745Z" fill="#000640"/>
<path d="M12.2747 13.0382C12.8058 13.19 13.1133 13.7435 12.9615 14.2745L10.9615 21.2745C10.8098 21.8055 10.2563 22.113 9.72529 21.9613C9.19426 21.8096 8.88677 21.2561 9.03849 20.725L11.0385 13.725C11.1902 13.194 11.7437 12.8865 12.2747 13.0382Z" fill="#000640"/>
<path d="M8.96154 14.2745C9.11326 13.7435 8.80577 13.19 8.27473 13.0382C7.7437 12.8865 7.19021 13.194 7.03849 13.725L5.03849 20.725C4.88677 21.2561 5.19426 21.8096 5.72529 21.9613C6.25633 22.113 6.80981 21.8055 6.96154 21.2745L8.96154 14.2745Z" fill="#000640"/>
</svg>
