<svg width="24" height="24" viewBox="0 0 24 24" fill="none" xmlns="http://www.w3.org/2000/svg">
<path d="M8.5 10C9.32843 10 10 9.32843 10 8.5C10 7.67157 9.32843 7 8.5 7C7.67157 7 7 7.67157 7 8.5C7 9.32843 7.67157 10 8.5 10Z" fill="#000640"/>
<path fill-rule="evenodd" clip-rule="evenodd" d="M4 1C2.34315 1 1 2.34315 1 4V20C1 21.6569 2.34315 23 4 23H20C21.6569 23 23 21.6569 23 20V4C23 2.34315 21.6569 1 20 1H4ZM3 4C3 3.44772 3.44772 3 4 3H20C20.5523 3 21 3.44772 21 4V14.5858L16.7071 10.2929C16.3166 9.90237 15.6834 9.90237 15.2929 10.2929L10 15.5858L6.70711 12.2929C6.31658 11.9024 5.68342 11.9024 5.29289 12.2929L3 14.5858V4ZM16 12.4142L21 17.4142V20C21 20.5523 20.5523 21 20 21H4C3.44772 21 3 20.5523 3 20V17.4142L6 14.4142L9.29289 17.7071C9.68342 18.0976 10.3166 18.0976 10.7071 17.7071L16 12.4142Z" fill="#000640"/>
</svg>
