<svg width="24" height="24" viewBox="0 0 24 24" fill="none" xmlns="http://www.w3.org/2000/svg">
<path fill-rule="evenodd" clip-rule="evenodd" d="M1 4C1 2.34315 2.34315 1 4 1H20C21.6569 1 23 2.34315 23 4V20C23 21.6569 21.6569 23 20 23H4C2.34315 23 1 21.6569 1 20V4ZM4 3C3.44772 3 3 3.44772 3 4V14.5858L5.29289 12.2929C5.68342 11.9024 6.31658 11.9024 6.70711 12.2929L10 15.5858L15.2929 10.2929C15.6834 9.90237 16.3166 9.90237 16.7071 10.2929L21 14.5858V4C21 3.44772 20.5523 3 20 3H4ZM21 17.4142L16 12.4142L10.7071 17.7071C10.3166 18.0976 9.68342 18.0976 9.29289 17.7071L6 14.4142L3 17.4142V20C3 20.5523 3.44772 21 4 21H20C20.5523 21 21 20.5523 21 20V17.4142Z" fill="#000640"/>
</svg>
