<svg width="24" height="24" viewBox="0 0 24 24" fill="none" xmlns="http://www.w3.org/2000/svg">
<path d="M12.0002 1C12.5525 1 13.0002 1.44772 13.0002 2V3.23381L13.9857 2.64251C14.4593 2.35836 15.0736 2.51192 15.3577 2.9855C15.6419 3.45908 15.4883 4.07334 15.0147 4.35749L13.0002 5.56619V10.268L17.0721 7.9171L17.1116 5.56815C17.1209 5.01594 17.5761 4.57582 18.1283 4.58511C18.6805 4.5944 19.1206 5.04958 19.1113 5.60179L19.092 6.75091L20.1605 6.13401C20.6388 5.85787 21.2504 6.02175 21.5265 6.50004C21.8027 6.97833 21.6388 7.58992 21.1605 7.86607L20.092 8.48296L21.0968 9.04078C21.5797 9.30884 21.7539 9.91759 21.4858 10.4005C21.2177 10.8833 20.609 11.0575 20.1261 10.7894L18.0721 9.64915L14.0003 12L18.0722 14.3509L20.1262 13.2107C20.6091 12.9426 21.2178 13.1167 21.4859 13.5996C21.7539 14.0825 21.5798 14.6912 21.0969 14.9593L20.0921 15.5171L21.1606 16.134C21.6389 16.4101 21.8028 17.0217 21.5266 17.5C21.2505 17.9783 20.6389 18.1422 20.1606 17.866L19.0921 17.2492L19.1114 18.3983C19.1207 18.9505 18.6806 19.4057 18.1284 19.415C17.5762 19.4242 17.121 18.9841 17.1117 18.4319L17.0722 16.083L13.0002 13.732V18.4338L15.0147 19.6425C15.4883 19.9267 15.6419 20.5409 15.3577 21.0145C15.0736 21.4881 14.4593 21.6416 13.9857 21.3575L13.0002 20.7662V22C13.0002 22.5523 12.5525 23 12.0002 23C11.4479 23 11.0002 22.5523 11.0002 22V20.7662L10.0147 21.3575C9.54113 21.6416 8.92687 21.4881 8.64272 21.0145C8.35857 20.5409 8.51214 19.9267 8.98572 19.6425L11.0002 18.4338V13.7321L6.92842 16.083L6.88891 18.4319C6.87962 18.9841 6.42444 19.4242 5.87223 19.415C5.32002 19.4057 4.8799 18.9505 4.88919 18.3983L4.90852 17.2492L3.84001 17.8661C3.36172 18.1422 2.75013 17.9783 2.47399 17.5C2.19784 17.0217 2.36172 16.4101 2.84001 16.134L3.90852 15.5171L2.90369 14.9593C2.42082 14.6912 2.24668 14.0825 2.51474 13.5996C2.78279 13.1167 3.39154 12.9426 3.87441 13.2107L5.92842 14.3509L10.0003 12L5.92851 9.64915L3.8745 10.7894C3.39163 11.0575 2.78288 10.8833 2.51483 10.4005C2.24677 9.91759 2.42091 9.30884 2.90378 9.04078L3.90861 8.48296L2.8401 7.86606C2.36181 7.58991 2.19793 6.97832 2.47407 6.50003C2.75022 6.02174 3.36181 5.85786 3.8401 6.13401L4.90861 6.75091L4.88928 5.60179C4.87999 5.04958 5.32011 4.5944 5.87232 4.58511C6.42452 4.57582 6.87971 5.01594 6.889 5.56815L6.92851 7.9171L11.0002 10.2679V5.56619L8.98572 4.35749C8.51214 4.07334 8.35857 3.45908 8.64272 2.9855C8.92687 2.51192 9.54113 2.35836 10.0147 2.64251L11.0002 3.23381V2C11.0002 1.44772 11.4479 1 12.0002 1Z" fill="#000640"/>
</svg>
