<svg width="24" height="24" viewBox="0 0 24 24" fill="none" xmlns="http://www.w3.org/2000/svg">
<path fill-rule="evenodd" clip-rule="evenodd" d="M3.01031 7.87573C4.46349 10.3859 7.25388 12.6869 12.0009 12.9707V17.0225C9.68307 17.1306 8.00757 17.6242 6.86173 18.433C5.50055 19.3939 5.00092 20.718 5.00092 22C5.00092 22.5523 5.44863 23 6.00092 23H19.0009C19.5532 23 20.0009 22.5523 20.0009 22C20.0009 20.6767 19.3908 19.3882 18.1763 18.4565C17.1609 17.6776 15.7629 17.1744 14.0009 17.0377V14.962C17.7652 14.6696 19.9341 12.7309 21.0652 10.6683C21.6638 9.57681 21.9629 8.47065 22.0784 7.59106C22.136 7.15217 22.1507 6.74858 22.1262 6.41405C22.114 6.24862 22.0907 6.07692 22.048 5.91581C22.0159 5.79488 21.9341 5.51887 21.708 5.29278C21.4819 5.0667 21.2059 4.98494 21.085 4.95288C20.9239 4.91016 20.7522 4.8868 20.5868 4.87467C20.2522 4.85013 19.8486 4.86486 19.4098 4.9225C18.5302 5.038 17.424 5.33708 16.3326 5.93562C15.3258 6.48774 14.3485 7.28712 13.5778 8.39859C12.7655 5.19757 10.8884 3.17425 8.8768 2.00972C7.56222 1.24868 6.20915 0.864433 5.09561 0.74067C4.54008 0.678927 4.01963 0.67926 3.57627 0.742537C3.19094 0.797531 2.66032 0.926369 2.2939 1.29252C1.92724 1.65891 1.79826 2.18976 1.74321 2.57505C1.67986 3.01843 1.6795 3.53891 1.74123 4.09443C1.86496 5.20799 2.24925 6.5611 3.01031 7.87573ZM8.29381 8.7071L10.3261 10.7394C7.38364 10.1223 5.68353 8.50145 4.74119 6.87369C4.12724 5.81319 3.82401 4.72872 3.72899 3.87356C3.68134 3.44473 3.6888 3.09807 3.72311 2.85794C3.72967 2.81199 3.73661 2.77386 3.74323 2.74265C3.77452 2.73601 3.81275 2.72905 3.85884 2.72247C4.09909 2.68819 4.44582 2.68077 4.87468 2.72843C5.72989 2.82348 6.81434 3.12669 7.87476 3.74059C9.50229 4.6828 11.1229 6.38266 11.74 9.32489L9.70802 7.29289C9.3175 6.90236 8.68434 6.90236 8.29381 7.29289C7.90329 7.68341 7.90329 8.31658 8.29381 8.7071ZM13.0009 19C10.3446 19 8.83562 19.4878 8.0151 20.067C7.62012 20.3458 7.36243 20.6611 7.20567 21H17.7672C17.5998 20.6597 17.3365 20.333 16.959 20.0434C16.2041 19.4644 14.9395 19 13.0009 19ZM19.3116 9.70661C18.5059 11.1759 16.9725 12.6622 14.0508 12.95C14.3387 10.0284 15.8249 8.495 17.2942 7.68924C18.1403 7.22528 19.0029 6.9931 19.6702 6.90547C19.8456 6.88243 20.0018 6.87015 20.1354 6.8655C20.1307 6.99906 20.1184 7.15521 20.0954 7.33067C20.0078 7.99796 19.7756 8.86057 19.3116 9.70661Z" fill="#000640"/>
</svg>
