<svg width="24" height="24" viewBox="0 0 24 24" fill="none" xmlns="http://www.w3.org/2000/svg">
<g clip-path="url(#clip0_1253_4776)">
<path d="M12 0C12.5523 0 13 0.447715 13 1V2C13 2.55228 12.5523 3 12 3C11.4477 3 11 2.55228 11 2V1C11 0.447715 11.4477 0 12 0Z" fill="#000640"/>
<path d="M18.0001 1.60742C18.4784 1.88356 18.6422 2.49515 18.3661 2.97345L17.8661 3.83947C17.5899 4.31777 16.9784 4.48164 16.5001 4.2055C16.0218 3.92936 15.8579 3.31777 16.134 2.83947L16.634 1.97345C16.9102 1.49515 17.5218 1.33128 18.0001 1.60742Z" fill="#000640"/>
<path fill-rule="evenodd" clip-rule="evenodd" d="M12 20C16.4183 20 20 16.4183 20 12C20 7.58172 16.4183 4 12 4C7.58172 4 4 7.58172 4 12C4 16.4183 7.58172 20 12 20ZM12 18C15.3137 18 18 15.3137 18 12C18 8.68629 15.3137 6 12 6C8.68629 6 6 8.68629 6 12C6 15.3137 8.68629 18 12 18Z" fill="#000640"/>
<path d="M22.3923 5.99981C22.6685 6.47811 22.5046 7.0897 22.0263 7.36584L21.1603 7.86584C20.682 8.14198 20.0704 7.97811 19.7943 7.49981C19.5181 7.02152 19.682 6.40993 20.1603 6.13379L21.0263 5.63379C21.5046 5.35765 22.1162 5.52152 22.3923 5.99981Z" fill="#000640"/>
<path d="M3.83979 17.8658C4.31808 17.5897 4.48195 16.9781 4.20581 16.4998C3.92967 16.0215 3.31808 15.8576 2.83979 16.1338L1.97376 16.6338C1.49547 16.9099 1.33159 17.5215 1.60773 17.9998C1.88388 18.4781 2.49547 18.642 2.97376 18.3658L3.83979 17.8658Z" fill="#000640"/>
<path d="M7.86608 21.16C8.14223 20.6817 7.97835 20.0701 7.50006 19.7939C7.02177 19.5178 6.41018 19.6817 6.13403 20.16L5.63403 21.026C5.35789 21.5043 5.52177 22.1159 6.00006 22.392C6.47835 22.6682 7.08994 22.5043 7.36608 22.026L7.86608 21.16Z" fill="#000640"/>
<path d="M13 22C13 21.4477 12.5523 21 12 21C11.4477 21 11 21.4477 11 22V23C11 23.5523 11.4477 24 12 24C12.5523 24 13 23.5523 13 23V22Z" fill="#000640"/>
<path d="M24 12C24 12.5523 23.5523 13 23 13H22C21.4477 13 21 12.5523 21 12C21 11.4477 21.4477 11 22 11H23C23.5523 11 24 11.4477 24 12Z" fill="#000640"/>
<path d="M2 13C2.55228 13 3 12.5523 3 12C3 11.4477 2.55228 11 2 11H1C0.447715 11 0 11.4477 0 12C0 12.5523 0.447715 13 1 13H2Z" fill="#000640"/>
<path d="M6.00006 1.60742C6.47835 1.33128 7.08994 1.49515 7.36608 1.97345L7.86608 2.83947C8.14223 3.31776 7.97835 3.92936 7.50006 4.2055C7.02177 4.48164 6.41018 4.31777 6.13403 3.83947L5.63403 2.97345C5.35789 2.49515 5.52177 1.88356 6.00006 1.60742Z" fill="#000640"/>
<path d="M17.8661 20.16C17.5899 19.6817 16.9784 19.5178 16.5001 19.7939C16.0218 20.0701 15.8579 20.6817 16.134 21.16L16.634 22.026C16.9102 22.5043 17.5218 22.6682 18.0001 22.392C18.4784 22.1159 18.6422 21.5043 18.3661 21.026L17.8661 20.16Z" fill="#000640"/>
<path d="M1.60767 5.9997C1.88381 5.5214 2.4954 5.35753 2.97369 5.63367L3.83972 6.13367C4.31801 6.40981 4.48188 7.0214 4.20574 7.4997C3.9296 7.97799 3.31801 8.14186 2.83972 7.86572L1.97369 7.36572C1.4954 7.08958 1.33152 6.47799 1.60767 5.9997Z" fill="#000640"/>
<path d="M21.1602 16.1337C20.6819 15.8575 20.0703 16.0214 19.7942 16.4997C19.518 16.978 19.6819 17.5896 20.1602 17.8657L21.0262 18.3657C21.5045 18.6419 22.1161 18.478 22.3923 17.9997C22.6684 17.5214 22.5045 16.9098 22.0262 16.6337L21.1602 16.1337Z" fill="#000640"/>
</g>
<defs>
<clipPath id="clip0_1253_4776">
<rect width="24" height="24" fill="white"/>
</clipPath>
</defs>
</svg>
