<svg width="24" height="24" viewBox="0 0 24 24" fill="none" xmlns="http://www.w3.org/2000/svg">
<path fill-rule="evenodd" clip-rule="evenodd" d="M10.5 4C8.01472 4 6 6.01472 6 8.5V9.03544C6 9.53303 5.63417 9.95491 5.1416 10.0254C3.931 10.1985 3 11.2414 3 12.5C3 13.8807 4.11929 15 5.5 15C6.05228 15 6.5 15.4477 6.5 16C6.5 16.5523 6.05228 17 5.5 17C3.01472 17 1 14.9853 1 12.5C1 10.5386 2.25419 8.87137 4.00454 8.25473C4.1335 4.77853 6.99227 2 10.5 2C13.9216 2 16.7257 4.64378 16.9811 8H18.5C20.9853 8 23 10.0147 23 12.5C23 14.9853 20.9853 17 18.5 17C17.9477 17 17.5 16.5523 17.5 16C17.5 15.4477 17.9477 15 18.5 15C19.8807 15 21 13.8807 21 12.5C21 11.1193 19.8807 10 18.5 10H16C15.4477 10 15 9.55228 15 9V8.5C15 6.01472 12.9853 4 10.5 4Z" fill="#000640"/>
<path fill-rule="evenodd" clip-rule="evenodd" d="M12.4472 11.1056C12.9412 11.3526 13.1414 11.9532 12.8944 12.4472L11.618 15H14C14.3603 15 14.6927 15.1938 14.8702 15.5073C15.0477 15.8208 15.0429 16.2056 14.8575 16.5145L11.8575 21.5145C11.5733 21.9881 10.9591 22.1416 10.4855 21.8575C10.0119 21.5733 9.85836 20.9591 10.1425 20.4855L12.2338 17H10C9.65342 17 9.33156 16.8205 9.14935 16.5257C8.96714 16.2309 8.95058 15.8628 9.10557 15.5528L11.1056 11.5528C11.3526 11.0588 11.9532 10.8586 12.4472 11.1056Z" fill="#000640"/>
</svg>
