<svg width="24" height="24" viewBox="0 0 24 24" fill="none" xmlns="http://www.w3.org/2000/svg">
<path fill-rule="evenodd" clip-rule="evenodd" d="M12 3C8.13401 3 5 6.13401 5 10C5 13.5265 7.60771 16.4439 11 16.9291V14.4142L7.79289 11.2071C7.40237 10.8166 7.40237 10.1834 7.79289 9.79289C8.18342 9.40237 8.81658 9.40237 9.20711 9.79289L11 11.5858V8C11 7.44772 11.4477 7 12 7C12.5523 7 13 7.44772 13 8V11.5858L14.7929 9.79289C15.1834 9.40237 15.8166 9.40237 16.2071 9.79289C16.5976 10.1834 16.5976 10.8166 16.2071 11.2071L13 14.4142V16.9291C16.3923 16.4439 19 13.5265 19 10C19 6.13401 15.866 3 12 3ZM13 18.9451C17.5 18.4476 21 14.6326 21 10C21 5.02944 16.9706 1 12 1C7.02944 1 3 5.02944 3 10C3 14.6326 6.50005 18.4476 11 18.9451V21H8C7.44772 21 7 21.4477 7 22C7 22.5523 7.44772 23 8 23H16C16.5523 23 17 22.5523 17 22C17 21.4477 16.5523 21 16 21H13V18.9451Z" fill="#000640"/>
</svg>
