<svg width="24" height="24" viewBox="0 0 24 24" fill="none" xmlns="http://www.w3.org/2000/svg">
<path d="M10.5 6C8.1532 6 6.22501 7.79724 6.01842 10.0898C5.97198 10.6052 5.53997 11 5.02246 11H2C1.44772 11 1 10.5523 1 10C1 9.44772 1.44772 9 2 9H4.17415C4.85162 6.13294 7.42628 4 10.5 4C13.9217 4 16.7258 6.64378 16.9811 10H18.5C20.9853 10 23 12.0147 23 14.5C23 16.9853 20.9853 19 18.5 19H14C13.4477 19 13 18.5523 13 18C13 17.4477 13.4477 17 14 17H18.5C19.8808 17 21 15.8807 21 14.5C21 13.1193 19.8808 12 18.5 12H16C15.4478 12 15 11.5523 15 11V10.5C15 8.01472 12.9853 6 10.5 6Z" fill="#000640"/>
<path d="M1 14C1 13.4477 1.44772 13 2 13H13C13.5523 13 14 13.4477 14 14C14 14.5523 13.5523 15 13 15H2C1.44772 15 1 14.5523 1 14Z" fill="#000640"/>
<path d="M2 17C1.44772 17 1 17.4477 1 18C1 18.5523 1.44772 19 2 19H9C9.55228 19 10 18.5523 10 18C10 17.4477 9.55228 17 9 17H2Z" fill="#000640"/>
</svg>
