<svg xmlns="http://www.w3.org/2000/svg" width="24" height="24" fill="currentColor" class="mmi mmi-1.0x" viewBox="0 0 24 24"><path d="M4.020 7.200 C 3.954 7.221,3.234 7.639,2.421 8.129 C 0.797 9.107,0.730 9.161,0.638 9.574 C 0.473 10.310,1.102 10.976,1.857 10.863 C 1.977 10.845,2.226 10.721,2.635 10.478 C 2.965 10.281,3.245 10.120,3.257 10.120 C 3.269 10.120,3.283 11.438,3.289 13.050 C 3.300 15.856,3.303 15.987,3.377 16.136 C 3.484 16.350,3.697 16.554,3.916 16.652 C 4.137 16.750,4.512 16.758,4.726 16.669 C 4.922 16.586,5.187 16.341,5.293 16.143 L 5.380 15.980 5.391 12.023 C 5.403 7.665,5.413 7.859,5.157 7.549 C 4.961 7.312,4.719 7.191,4.407 7.176 C 4.260 7.168,4.086 7.179,4.020 7.200 M11.380 7.203 C 9.404 7.594,8.002 9.558,8.000 11.935 C 7.999 13.379,8.514 14.717,9.418 15.622 C 9.953 16.157,10.554 16.495,11.271 16.665 C 11.620 16.748,12.331 16.750,12.706 16.668 C 14.311 16.319,15.557 14.875,15.906 12.960 C 16.002 12.432,16.000 11.431,15.902 10.920 C 15.548 9.070,14.435 7.714,12.913 7.278 C 12.574 7.181,11.707 7.139,11.380 7.203 M12.522 9.444 C 13.045 9.723,13.497 10.453,13.642 11.251 C 13.706 11.606,13.696 12.367,13.622 12.727 C 13.459 13.515,13.009 14.205,12.476 14.485 C 12.223 14.618,11.774 14.618,11.513 14.484 C 11.301 14.376,11.007 14.102,10.833 13.849 C 9.929 12.540,10.197 10.306,11.354 9.511 C 11.741 9.244,12.108 9.224,12.522 9.444 M18.120 11.117 C 17.685 11.249,17.402 11.630,17.402 12.080 C 17.402 12.451,17.495 12.589,18.272 13.371 L 18.978 14.081 18.271 14.791 C 17.494 15.570,17.402 15.706,17.401 16.080 C 17.400 16.640,17.814 17.053,18.380 17.057 C 18.786 17.059,18.911 16.977,19.711 16.187 L 20.401 15.504 21.111 16.207 C 21.501 16.594,21.883 16.943,21.960 16.983 C 22.166 17.089,22.611 17.084,22.821 16.973 C 23.186 16.779,23.374 16.476,23.374 16.080 C 23.374 15.690,23.286 15.556,22.507 14.770 L 21.824 14.081 22.507 13.390 C 23.284 12.604,23.374 12.468,23.375 12.080 C 23.377 11.484,22.885 11.031,22.300 11.091 C 22.184 11.103,22.028 11.144,21.955 11.181 C 21.881 11.218,21.501 11.565,21.111 11.952 L 20.403 12.656 19.671 11.935 C 19.055 11.327,18.909 11.203,18.743 11.147 C 18.537 11.077,18.291 11.065,18.120 11.117 M6.840 14.824 C 6.658 14.902,6.455 15.099,6.348 15.300 C 6.228 15.524,6.228 15.956,6.348 16.180 C 6.457 16.386,6.660 16.579,6.849 16.658 C 7.033 16.735,7.438 16.739,7.614 16.665 C 7.803 16.586,8.031 16.374,8.131 16.184 C 8.252 15.955,8.252 15.525,8.131 15.296 C 8.031 15.106,7.803 14.894,7.614 14.815 C 7.441 14.743,7.016 14.747,6.840 14.824 " fill="#000640" stroke="none" fill-rule="evenodd"></path></svg>