<svg xmlns="http://www.w3.org/2000/svg" width="24" height="24" fill="currentColor" class="mmi mmi-1.5x" viewBox="0 0 24 24"><path d="M4.020 7.200 C 3.954 7.221,3.234 7.639,2.421 8.129 C 0.797 9.107,0.730 9.161,0.638 9.574 C 0.473 10.310,1.102 10.976,1.857 10.863 C 1.977 10.845,2.226 10.721,2.635 10.478 C 2.965 10.281,3.245 10.120,3.257 10.120 C 3.269 10.120,3.283 11.438,3.289 13.050 C 3.300 15.856,3.303 15.987,3.377 16.136 C 3.484 16.350,3.697 16.554,3.916 16.652 C 4.137 16.750,4.512 16.758,4.726 16.669 C 4.922 16.586,5.187 16.341,5.293 16.143 L 5.380 15.980 5.391 12.023 C 5.403 7.665,5.413 7.859,5.157 7.549 C 4.961 7.312,4.719 7.191,4.407 7.176 C 4.260 7.168,4.086 7.179,4.020 7.200 M10.617 7.217 C 10.434 7.296,10.206 7.511,10.115 7.690 C 10.011 7.894,9.585 10.909,9.615 11.232 C 9.653 11.645,9.961 11.990,10.374 12.082 C 10.550 12.122,10.659 12.115,11.101 12.041 C 11.742 11.932,12.939 11.887,13.337 11.957 C 13.935 12.061,14.293 12.282,14.428 12.633 C 14.533 12.905,14.521 13.464,14.404 13.768 C 13.991 14.838,12.348 15.055,11.442 14.160 C 11.320 14.039,11.142 13.845,11.047 13.729 C 10.772 13.394,10.462 13.276,10.074 13.358 C 9.625 13.454,9.327 13.794,9.290 14.253 C 9.264 14.581,9.363 14.811,9.722 15.257 C 10.903 16.722,13.112 17.152,14.736 16.233 C 15.457 15.825,15.956 15.261,16.252 14.518 C 16.633 13.560,16.558 12.257,16.075 11.456 C 15.645 10.743,14.929 10.270,13.923 10.033 C 13.648 9.968,13.401 9.949,12.683 9.936 C 12.190 9.927,11.781 9.914,11.775 9.908 C 11.764 9.897,11.830 9.371,11.863 9.210 L 11.882 9.120 13.671 9.119 C 15.661 9.118,15.632 9.122,15.912 8.842 C 16.130 8.624,16.179 8.495,16.179 8.140 C 16.179 7.785,16.130 7.656,15.912 7.438 C 15.625 7.152,15.728 7.162,13.100 7.162 C 11.216 7.163,10.715 7.174,10.617 7.217 M18.120 11.117 C 17.685 11.249,17.402 11.630,17.402 12.080 C 17.402 12.451,17.495 12.589,18.272 13.371 L 18.978 14.081 18.271 14.791 C 17.494 15.570,17.402 15.706,17.401 16.080 C 17.400 16.640,17.814 17.053,18.380 17.057 C 18.786 17.059,18.911 16.977,19.711 16.187 L 20.401 15.504 21.111 16.207 C 21.501 16.594,21.883 16.943,21.960 16.983 C 22.166 17.089,22.611 17.084,22.821 16.973 C 23.186 16.779,23.374 16.476,23.374 16.080 C 23.374 15.690,23.286 15.556,22.507 14.770 L 21.824 14.081 22.507 13.390 C 23.284 12.604,23.374 12.468,23.375 12.080 C 23.377 11.484,22.885 11.031,22.300 11.091 C 22.184 11.103,22.028 11.144,21.955 11.181 C 21.881 11.218,21.501 11.565,21.111 11.952 L 20.403 12.656 19.671 11.935 C 19.055 11.327,18.909 11.203,18.743 11.147 C 18.537 11.077,18.291 11.065,18.120 11.117 M6.840 14.824 C 6.658 14.902,6.455 15.099,6.348 15.300 C 6.228 15.524,6.228 15.956,6.348 16.180 C 6.457 16.386,6.660 16.579,6.849 16.658 C 7.033 16.735,7.438 16.739,7.614 16.665 C 7.803 16.586,8.031 16.374,8.131 16.184 C 8.252 15.955,8.252 15.525,8.131 15.296 C 8.031 15.106,7.803 14.894,7.614 14.815 C 7.441 14.743,7.016 14.747,6.840 14.824 " fill="#000640" stroke="none" fill-rule="evenodd"></path></svg>