<svg xmlns="http://www.w3.org/2000/svg" width="24" height="24" fill="currentColor" class="mmi mmi-1.7x" viewBox="0 0 24 24"><path d="M5.020 7.200 C 4.954 7.221,4.234 7.639,3.421 8.129 C 1.797 9.107,1.730 9.161,1.638 9.574 C 1.473 10.310,2.102 10.976,2.857 10.863 C 2.977 10.845,3.226 10.721,3.635 10.478 C 3.965 10.281,4.245 10.120,4.257 10.120 C 4.269 10.120,4.283 11.438,4.289 13.050 C 4.300 15.856,4.303 15.987,4.377 16.136 C 4.484 16.350,4.697 16.554,4.916 16.652 C 5.137 16.750,5.512 16.758,5.726 16.669 C 5.922 16.586,6.187 16.341,6.293 16.143 L 6.380 15.980 6.391 12.023 C 6.403 7.665,6.413 7.859,6.157 7.549 C 5.961 7.312,5.719 7.191,5.407 7.176 C 5.260 7.168,5.086 7.179,5.020 7.200 M10.225 7.299 C 9.656 7.502,9.405 8.180,9.701 8.717 C 9.828 8.948,10.058 9.128,10.319 9.200 C 10.400 9.223,11.147 9.240,12.090 9.240 C 12.987 9.240,13.720 9.247,13.720 9.256 C 13.720 9.265,12.981 10.652,12.077 12.337 C 10.305 15.642,10.329 15.590,10.435 15.984 C 10.499 16.218,10.686 16.457,10.908 16.587 C 11.069 16.682,11.145 16.700,11.381 16.700 C 11.741 16.700,12.001 16.576,12.182 16.318 C 12.251 16.220,13.224 14.430,14.344 12.340 L 16.380 8.540 16.380 8.240 C 16.380 7.984,16.364 7.912,16.269 7.751 C 16.144 7.538,15.951 7.376,15.730 7.297 C 15.506 7.217,10.450 7.219,10.225 7.299 M18.120 11.117 C 17.685 11.249,17.402 11.630,17.402 12.080 C 17.402 12.451,17.495 12.589,18.272 13.371 L 18.978 14.081 18.271 14.791 C 17.494 15.570,17.402 15.706,17.401 16.080 C 17.400 16.640,17.814 17.053,18.380 17.057 C 18.786 17.059,18.911 16.977,19.711 16.187 L 20.401 15.504 21.111 16.207 C 21.501 16.594,21.883 16.943,21.960 16.983 C 22.166 17.089,22.611 17.084,22.821 16.973 C 23.186 16.779,23.374 16.476,23.374 16.080 C 23.374 15.690,23.286 15.556,22.507 14.770 L 21.824 14.081 22.507 13.390 C 23.284 12.604,23.374 12.468,23.375 12.080 C 23.377 11.484,22.885 11.031,22.300 11.091 C 22.184 11.103,22.028 11.144,21.955 11.181 C 21.881 11.218,21.501 11.565,21.111 11.952 L 20.403 12.656 19.671 11.935 C 19.055 11.327,18.909 11.203,18.743 11.147 C 18.537 11.077,18.291 11.065,18.120 11.117 M7.840 14.824 C 7.658 14.902,7.455 15.099,7.348 15.300 C 7.228 15.524,7.228 15.956,7.348 16.180 C 7.457 16.386,7.660 16.579,7.849 16.658 C 8.033 16.735,8.438 16.739,8.614 16.665 C 8.803 16.586,9.031 16.374,9.131 16.184 C 9.252 15.955,9.252 15.525,9.131 15.296 C 9.031 15.106,8.803 14.894,8.614 14.815 C 8.441 14.743,8.016 14.747,7.840 14.824 " fill="#000640" stroke="none" fill-rule="evenodd"></path></svg>