<svg xmlns="http://www.w3.org/2000/svg" width="24" height="24" fill="currentColor" class="mmi mmi-2.0x" viewBox="0 0 24 24"><path d="M3.520 7.149 C 2.263 7.216,1.240 7.811,0.603 8.848 C 0.076 9.703,0.013 10.337,0.412 10.754 C 0.774 11.131,1.318 11.178,1.728 10.868 C 1.898 10.739,1.965 10.631,2.195 10.113 C 2.476 9.478,2.998 9.147,3.720 9.144 C 4.098 9.142,4.363 9.232,4.574 9.432 C 4.981 9.819,4.931 10.559,4.462 11.120 C 4.204 11.427,3.894 11.666,2.873 12.342 C 1.858 13.014,1.467 13.311,1.168 13.634 C 0.478 14.380,0.165 15.343,0.404 15.982 C 0.510 16.265,0.689 16.470,0.920 16.575 C 1.086 16.650,1.195 16.657,2.360 16.670 C 3.053 16.678,4.197 16.669,4.903 16.652 L 6.186 16.620 6.382 16.499 C 6.503 16.424,6.624 16.303,6.699 16.182 C 6.808 16.006,6.820 15.953,6.820 15.660 C 6.820 15.367,6.808 15.314,6.699 15.138 C 6.624 15.017,6.503 14.896,6.382 14.821 L 6.186 14.700 4.603 14.680 L 3.020 14.660 3.160 14.554 C 3.237 14.495,3.615 14.245,4.000 13.998 C 4.953 13.385,5.233 13.172,5.702 12.702 C 6.246 12.157,6.566 11.630,6.748 10.980 C 6.830 10.685,6.860 9.909,6.803 9.578 C 6.632 8.594,5.946 7.756,4.998 7.373 C 4.590 7.208,4.026 7.123,3.520 7.149 M12.380 7.206 C 10.425 7.567,9.002 9.558,9.000 11.935 C 8.999 13.404,9.522 14.740,10.457 15.660 C 12.320 17.491,15.165 16.920,16.406 14.466 C 16.796 13.694,16.975 12.901,16.974 11.940 C 16.974 11.229,16.907 10.780,16.716 10.190 C 16.452 9.376,16.124 8.837,15.543 8.260 C 14.776 7.499,13.954 7.153,12.940 7.165 C 12.742 7.167,12.490 7.186,12.380 7.206 M13.522 9.444 C 13.845 9.617,14.122 9.933,14.342 10.380 C 14.557 10.817,14.635 11.103,14.673 11.593 C 14.733 12.366,14.588 13.122,14.273 13.671 C 14.101 13.972,13.764 14.323,13.513 14.462 C 13.331 14.562,13.257 14.579,13.000 14.580 C 12.676 14.580,12.483 14.507,12.210 14.282 C 11.879 14.010,11.550 13.436,11.395 12.860 C 11.271 12.402,11.270 11.481,11.394 11.020 C 11.566 10.377,11.931 9.801,12.349 9.514 C 12.741 9.244,13.106 9.223,13.522 9.444 M18.120 11.115 C 17.678 11.259,17.402 11.630,17.402 12.080 C 17.402 12.454,17.493 12.590,18.271 13.370 L 18.979 14.080 18.271 14.790 C 17.494 15.570,17.402 15.706,17.401 16.080 C 17.400 16.640,17.814 17.053,18.380 17.057 C 18.786 17.059,18.911 16.977,19.711 16.187 L 20.401 15.504 21.111 16.207 C 21.501 16.594,21.883 16.943,21.960 16.983 C 22.166 17.089,22.611 17.084,22.821 16.973 C 23.186 16.779,23.374 16.476,23.374 16.080 C 23.374 15.690,23.286 15.556,22.507 14.770 L 21.824 14.081 22.507 13.390 C 23.284 12.604,23.374 12.468,23.375 12.080 C 23.377 11.630,23.106 11.265,22.664 11.121 C 22.475 11.059,22.141 11.087,21.955 11.181 C 21.881 11.218,21.501 11.565,21.111 11.953 L 20.402 12.657 19.691 11.956 C 19.273 11.544,18.914 11.224,18.820 11.180 C 18.645 11.098,18.278 11.064,18.120 11.115 M7.840 14.824 C 7.507 14.968,7.241 15.375,7.241 15.740 C 7.241 16.110,7.510 16.517,7.849 16.658 C 8.033 16.735,8.438 16.739,8.614 16.665 C 8.804 16.586,9.031 16.373,9.130 16.184 C 9.193 16.062,9.215 15.948,9.215 15.740 C 9.215 15.532,9.193 15.418,9.130 15.296 C 9.031 15.107,8.804 14.894,8.614 14.815 C 8.441 14.743,8.016 14.747,7.840 14.824 " fill="#000640" stroke="none" fill-rule="evenodd"></path></svg>