<svg xmlns="http://www.w3.org/2000/svg" width="24" height="24" fill="currentColor" class="mmi mmi-3portaudio" viewBox="0 0 24 24"><path d="M4.960 7.027 C 2.760 7.270,0.919 8.760,0.267 10.825 C 0.081 11.415,0.023 11.809,0.023 12.500 C 0.023 13.191,0.081 13.585,0.267 14.175 C 0.794 15.842,2.158 17.206,3.825 17.733 C 4.659 17.996,4.115 17.980,12.000 17.980 C 18.726 17.980,19.161 17.976,19.495 17.908 C 20.645 17.674,21.588 17.175,22.382 16.382 C 23.176 15.587,23.679 14.635,23.906 13.495 C 24.003 13.012,24.002 11.997,23.905 11.505 C 23.682 10.371,23.177 9.414,22.382 8.618 C 21.610 7.847,20.733 7.372,19.591 7.108 L 19.220 7.023 12.160 7.017 C 8.277 7.014,5.037 7.019,4.960 7.027 M19.452 9.130 C 20.667 9.512,21.500 10.345,21.867 11.548 C 21.962 11.863,21.974 11.963,21.974 12.500 C 21.974 13.037,21.962 13.137,21.867 13.452 C 21.500 14.655,20.667 15.488,19.452 15.870 L 19.100 15.980 12.000 15.980 L 4.900 15.980 4.548 15.870 C 3.333 15.488,2.500 14.655,2.133 13.452 C 2.038 13.137,2.026 13.037,2.026 12.500 C 2.026 11.963,2.038 11.863,2.133 11.548 C 2.432 10.568,3.058 9.814,3.941 9.369 C 4.206 9.236,4.645 9.093,4.946 9.042 C 5.053 9.023,8.281 9.011,12.120 9.014 L 19.100 9.020 19.452 9.130 M6.150 11.041 C 5.722 11.149,5.343 11.465,5.144 11.880 C 5.034 12.111,5.020 12.180,5.020 12.500 C 5.020 12.811,5.035 12.894,5.133 13.104 C 5.276 13.413,5.585 13.721,5.900 13.868 C 6.107 13.965,6.190 13.980,6.500 13.980 C 6.811 13.980,6.894 13.965,7.104 13.867 C 7.413 13.724,7.721 13.415,7.868 13.100 C 7.965 12.893,7.980 12.810,7.980 12.500 C 7.980 12.189,7.965 12.106,7.867 11.896 C 7.725 11.589,7.414 11.278,7.110 11.139 C 6.852 11.022,6.407 10.976,6.150 11.041 M11.601 11.064 C 11.044 11.214,10.632 11.671,10.523 12.260 C 10.405 12.900,10.776 13.583,11.400 13.873 C 11.587 13.961,11.676 13.976,12.000 13.976 C 12.324 13.976,12.413 13.961,12.600 13.873 C 13.224 13.583,13.595 12.900,13.477 12.260 C 13.366 11.662,12.954 11.211,12.381 11.062 C 12.091 10.986,11.888 10.987,11.601 11.064 M17.150 11.041 C 16.722 11.149,16.343 11.465,16.144 11.880 C 16.034 12.111,16.020 12.180,16.020 12.500 C 16.020 12.811,16.035 12.894,16.133 13.104 C 16.276 13.413,16.585 13.721,16.900 13.868 C 17.107 13.965,17.190 13.980,17.500 13.980 C 17.811 13.980,17.894 13.965,18.104 13.867 C 18.413 13.724,18.721 13.415,18.868 13.100 C 18.965 12.893,18.980 12.810,18.980 12.500 C 18.980 12.189,18.965 12.106,18.867 11.896 C 18.725 11.589,18.414 11.278,18.110 11.139 C 17.852 11.022,17.407 10.976,17.150 11.041 " fill="#000640" stroke="none" fill-rule="evenodd"></path></svg>