<svg xmlns="http://www.w3.org/2000/svg" width="24" height="24" fill="currentColor" class="mmi mmi-45degreecorner" viewBox="0 0 24 24"><path d="M17.600 3.083 C 17.458 3.146,15.694 4.888,9.327 11.252 C 4.877 15.700,1.190 19.416,1.135 19.508 C 0.914 19.878,0.984 20.386,1.298 20.700 C 1.626 21.028,0.612 21.000,12.000 21.000 C 23.385 21.000,22.374 21.028,22.701 20.701 C 23.092 20.310,23.092 19.690,22.701 19.299 C 22.381 18.979,22.776 19.000,17.059 19.000 L 11.972 19.000 11.944 18.670 C 11.798 16.910,11.202 15.112,10.344 13.843 L 10.035 13.386 14.436 8.983 C 17.864 5.552,18.854 4.540,18.917 4.400 C 19.022 4.168,19.025 3.799,18.925 3.578 C 18.834 3.377,18.518 3.094,18.325 3.041 C 18.095 2.977,17.797 2.994,17.600 3.083 M8.787 15.110 C 9.411 16.131,9.771 17.274,9.940 18.770 L 9.966 19.000 7.193 19.000 L 4.420 19.000 6.500 16.920 C 7.644 15.776,8.589 14.840,8.601 14.840 C 8.612 14.840,8.696 14.962,8.787 15.110 " fill="#000640" stroke="none" fill-rule="evenodd"></path></svg>