<svg xmlns="http://www.w3.org/2000/svg" width="24" height="24" fill="currentColor" class="mmi mmi-90degreecorner" viewBox="0 0 24 24"><path d="M1.664 1.063 C 1.436 1.146,1.257 1.297,1.131 1.511 L 1.020 1.700 1.020 12.000 L 1.020 22.300 1.131 22.489 C 1.260 22.709,1.437 22.854,1.678 22.939 C 1.830 22.993,3.022 23.000,11.998 23.000 C 23.385 23.000,22.374 23.028,22.701 22.701 C 23.092 22.310,23.092 21.690,22.701 21.299 C 22.381 20.979,22.774 21.000,17.073 21.000 L 12.000 21.000 12.000 20.750 C 12.000 20.398,11.897 19.557,11.797 19.092 C 11.589 18.126,11.090 16.929,10.560 16.120 C 9.646 14.727,8.420 13.643,6.944 12.923 C 5.812 12.370,4.755 12.096,3.450 12.016 L 3.000 11.989 3.000 6.921 C 3.000 1.227,3.021 1.619,2.701 1.299 C 2.429 1.027,2.018 0.933,1.664 1.063 M3.686 14.042 C 5.238 14.199,6.639 14.834,7.793 15.902 C 8.783 16.818,9.564 18.204,9.839 19.530 C 9.915 19.895,10.000 20.600,10.000 20.864 L 10.000 21.000 6.500 21.000 L 3.000 21.000 3.000 17.500 L 3.000 14.000 3.136 14.000 C 3.210 14.000,3.458 14.019,3.686 14.042 " fill="#000640" stroke="none" fill-rule="evenodd"></path></svg>