<svg xmlns="http://www.w3.org/2000/svg" width="24" height="24" fill="currentColor" class="mmi mmi-add-image" viewBox="0 0 24 24"><path d="M19.680 0.841 C 19.445 0.951,19.333 1.058,19.216 1.289 C 19.123 1.471,19.120 1.507,19.120 2.356 L 19.120 3.235 18.207 3.247 L 17.293 3.260 17.097 3.381 C 16.444 3.783,16.444 4.697,17.097 5.099 L 17.293 5.220 18.207 5.233 L 19.120 5.245 19.120 6.124 C 19.120 6.977,19.123 7.008,19.218 7.196 C 19.404 7.562,19.734 7.741,20.174 7.713 C 20.507 7.692,20.768 7.538,20.939 7.262 L 21.060 7.067 21.072 6.153 L 21.084 5.240 21.895 5.240 C 22.841 5.240,23.024 5.204,23.267 4.968 C 23.493 4.749,23.578 4.550,23.578 4.240 C 23.578 3.930,23.493 3.731,23.267 3.512 C 23.024 3.276,22.841 3.240,21.895 3.240 L 21.084 3.240 21.072 2.327 L 21.060 1.413 20.939 1.218 C 20.760 0.928,20.505 0.784,20.144 0.769 C 19.922 0.760,19.821 0.776,19.680 0.841 M3.884 4.223 C 3.274 4.388,2.780 4.842,2.528 5.470 L 2.420 5.740 2.409 12.980 C 2.400 18.243,2.410 20.294,2.443 20.493 C 2.579 21.313,3.280 21.999,4.102 22.118 C 4.481 22.173,18.317 22.173,18.700 22.118 C 19.501 22.004,20.191 21.358,20.356 20.568 C 20.387 20.419,20.400 18.664,20.399 14.648 C 20.398 8.992,20.398 8.938,20.317 8.760 C 20.207 8.518,20.060 8.369,19.820 8.255 C 19.279 7.999,18.629 8.287,18.459 8.857 C 18.408 9.027,18.400 9.836,18.400 14.607 L 18.400 20.160 11.400 20.160 L 4.400 20.160 4.400 13.160 L 4.400 6.160 9.778 6.160 C 13.515 6.160,15.218 6.147,15.360 6.116 C 15.473 6.092,15.638 6.016,15.732 5.945 C 16.206 5.584,16.259 4.865,15.842 4.448 C 15.550 4.156,16.099 4.181,9.780 4.172 C 4.913 4.166,4.069 4.173,3.884 4.223 M13.214 8.564 C 12.957 8.597,12.630 8.772,12.463 8.967 C 12.378 9.067,12.100 9.667,11.622 10.788 C 11.229 11.708,10.895 12.474,10.880 12.492 C 10.865 12.509,10.710 12.207,10.536 11.820 C 10.153 10.968,10.025 10.787,9.685 10.611 C 9.469 10.499,9.392 10.480,9.147 10.480 C 8.749 10.480,8.507 10.573,8.260 10.821 C 8.095 10.987,7.849 11.410,6.843 13.259 L 5.626 15.497 5.608 15.803 C 5.585 16.202,5.666 16.451,5.905 16.717 C 6.008 16.832,6.180 16.963,6.312 17.028 L 6.540 17.140 11.421 17.140 L 16.302 17.140 16.569 17.008 C 17.032 16.780,17.256 16.419,17.255 15.900 L 17.255 15.580 15.908 12.450 C 15.168 10.729,14.527 9.252,14.484 9.168 C 14.389 8.981,14.122 8.733,13.928 8.653 C 13.724 8.567,13.452 8.534,13.214 8.564 M14.136 13.389 C 14.524 14.296,14.852 15.065,14.865 15.099 C 14.886 15.153,14.726 15.160,13.465 15.160 L 12.042 15.160 12.019 15.069 C 12.002 15.004,12.199 14.502,12.678 13.384 C 13.369 11.771,13.399 11.705,13.419 11.727 C 13.425 11.734,13.748 12.482,14.136 13.389 M9.436 14.226 C 9.652 14.701,9.791 15.057,9.776 15.096 C 9.755 15.152,9.649 15.160,8.936 15.160 C 8.487 15.160,8.120 15.144,8.120 15.125 C 8.120 15.106,8.198 14.948,8.293 14.775 C 8.388 14.602,8.597 14.220,8.757 13.927 C 8.917 13.634,9.053 13.400,9.060 13.407 C 9.066 13.414,9.235 13.782,9.436 14.226 " stroke="none" fill-rule="evenodd"></path></svg>