<svg xmlns="http://www.w3.org/2000/svg" width="24" height="24" fill="currentColor" class="mmi mmi-add-action" viewBox="0 0 24 24"><path d="M7.477 2.193 C 6.783 2.374,6.193 3.000,6.044 3.712 C 6.013 3.862,6.000 5.890,6.000 10.634 C 6.000 17.947,5.988 17.542,6.223 18.028 C 6.423 18.440,6.866 18.827,7.350 19.012 L 7.580 19.100 14.480 19.100 L 21.380 19.100 21.640 19.005 C 22.310 18.759,22.764 18.262,22.939 17.582 C 22.993 17.372,23.000 16.526,23.000 10.634 C 23.000 5.890,22.987 3.862,22.956 3.712 C 22.807 3.000,22.217 2.374,21.523 2.193 C 21.279 2.130,20.761 2.125,14.500 2.125 C 8.239 2.125,7.721 2.130,7.477 2.193 M2.670 4.175 C 2.446 4.258,2.255 4.420,2.131 4.631 L 2.020 4.820 2.010 13.039 C 2.003 18.497,2.013 21.332,2.040 21.479 C 2.188 22.279,2.867 22.944,3.672 23.078 C 3.864 23.110,6.124 23.119,11.600 23.111 L 19.260 23.100 19.474 22.982 C 20.149 22.608,20.165 21.668,19.503 21.261 L 19.306 21.140 11.653 21.130 L 4.000 21.119 3.998 13.030 C 3.996 4.284,4.009 4.797,3.783 4.501 C 3.546 4.190,3.032 4.039,2.670 4.175 M21.000 10.620 L 21.000 17.120 14.500 17.120 L 8.000 17.120 8.000 10.620 L 8.000 4.120 14.500 4.120 L 21.000 4.120 21.000 10.620 M18.180 7.169 C 17.931 7.256,17.633 7.536,15.607 9.581 C 14.463 10.735,13.512 11.680,13.493 11.680 C 13.475 11.680,13.037 11.256,12.520 10.737 C 12.003 10.219,11.508 9.756,11.420 9.708 C 11.218 9.599,10.766 9.590,10.575 9.691 C 10.077 9.953,9.866 10.516,10.083 11.000 C 10.194 11.249,12.650 13.718,12.940 13.872 C 13.114 13.965,13.187 13.979,13.500 13.979 C 13.800 13.979,13.890 13.964,14.040 13.886 C 14.287 13.757,19.290 8.766,19.401 8.537 C 19.505 8.324,19.506 7.922,19.405 7.698 C 19.312 7.495,19.013 7.229,18.808 7.167 C 18.618 7.110,18.343 7.111,18.180 7.169 " fill="#000640" stroke="none" fill-rule="evenodd"></path></svg>