<svg xmlns="http://www.w3.org/2000/svg" width="24" height="24" fill="currentColor" class="mmi mmi-add-action-1" viewBox="0 0 24 24"><path d="M19.100 1.215 C 18.863 1.328,18.671 1.519,18.573 1.740 C 18.514 1.873,18.500 2.045,18.488 2.770 L 18.473 3.640 17.615 3.640 C 16.666 3.640,16.570 3.659,16.326 3.892 C 16.104 4.105,16.022 4.301,16.022 4.620 C 16.022 4.955,16.115 5.161,16.358 5.369 C 16.600 5.576,16.733 5.600,17.651 5.600 L 18.473 5.600 18.488 6.470 C 18.503 7.426,18.519 7.499,18.761 7.775 C 18.966 8.008,19.171 8.098,19.500 8.098 C 19.829 8.098,20.034 8.008,20.239 7.775 C 20.481 7.499,20.497 7.426,20.512 6.470 L 20.527 5.600 21.373 5.599 C 22.138 5.598,22.237 5.590,22.400 5.517 C 22.790 5.340,22.978 5.049,22.978 4.620 C 22.978 4.301,22.896 4.105,22.674 3.892 C 22.430 3.659,22.334 3.640,21.385 3.640 L 20.527 3.640 20.512 2.770 C 20.500 2.045,20.486 1.873,20.427 1.740 C 20.198 1.224,19.589 0.984,19.100 1.215 M1.670 2.177 C 1.448 2.256,1.256 2.419,1.131 2.631 L 1.020 2.820 1.020 7.600 C 1.020 12.214,1.023 12.386,1.096 12.540 C 1.183 12.722,10.619 22.203,11.111 22.602 C 12.131 23.429,13.552 23.501,14.663 22.780 C 14.918 22.614,21.073 16.510,21.458 16.040 C 21.910 15.489,22.116 14.958,22.148 14.260 C 22.177 13.613,22.050 13.104,21.715 12.529 C 21.615 12.357,20.355 11.070,16.621 7.327 C 13.733 4.433,11.585 2.310,11.480 2.247 L 11.300 2.140 6.560 2.131 C 2.670 2.124,1.793 2.133,1.670 2.177 M15.324 8.870 C 20.484 14.038,20.161 13.684,20.160 14.145 C 20.159 14.556,20.212 14.497,16.774 17.928 C 14.306 20.392,13.539 21.135,13.400 21.198 C 13.164 21.303,12.836 21.303,12.600 21.198 C 12.459 21.134,11.389 20.086,7.710 16.408 L 3.000 11.700 3.000 7.910 L 3.000 4.120 6.790 4.120 L 10.581 4.120 15.324 8.870 M7.380 6.186 C 5.795 6.524,4.762 8.069,5.057 9.660 C 5.105 9.917,5.182 10.140,5.327 10.438 C 5.505 10.807,5.573 10.900,5.895 11.218 C 6.514 11.832,7.144 12.093,8.000 12.093 C 8.856 12.093,9.486 11.832,10.103 11.220 C 10.412 10.915,10.495 10.802,10.653 10.480 C 10.911 9.954,10.978 9.678,10.978 9.120 C 10.979 8.624,10.933 8.379,10.757 7.953 C 10.219 6.647,8.770 5.890,7.380 6.186 M8.349 8.181 C 9.036 8.468,9.215 9.317,8.695 9.823 C 8.293 10.213,7.707 10.213,7.305 9.823 C 6.808 9.340,6.949 8.508,7.578 8.215 C 7.816 8.104,8.131 8.090,8.349 8.181 " fill="#000640" stroke="none" fill-rule="evenodd"></path></svg>