<svg xmlns="http://www.w3.org/2000/svg" width="24" height="24" fill="currentColor" class="mmi mmi-add-note" viewBox="0 0 24 24"><path d="M19.120 1.203 C 19.021 1.248,18.880 1.342,18.807 1.412 C 18.549 1.659,18.542 1.690,18.520 2.700 L 18.500 3.620 17.580 3.640 C 16.569 3.662,16.537 3.669,16.294 3.927 C 16.085 4.149,16.022 4.309,16.022 4.620 C 16.022 4.830,16.044 4.941,16.109 5.064 C 16.203 5.242,16.427 5.458,16.594 5.532 C 16.659 5.561,17.048 5.587,17.600 5.599 L 18.500 5.620 18.520 6.542 C 18.538 7.354,18.549 7.478,18.615 7.582 C 18.849 7.949,19.101 8.095,19.500 8.095 C 19.899 8.095,20.151 7.949,20.385 7.582 C 20.451 7.478,20.462 7.354,20.480 6.542 L 20.500 5.620 21.400 5.600 C 22.177 5.583,22.319 5.570,22.440 5.505 C 22.807 5.310,22.978 5.029,22.978 4.620 C 22.978 4.309,22.915 4.149,22.706 3.927 C 22.463 3.669,22.431 3.662,21.420 3.640 L 20.500 3.620 20.480 2.700 C 20.458 1.690,20.451 1.659,20.193 1.412 C 20.008 1.234,19.739 1.122,19.500 1.122 C 19.385 1.122,19.224 1.156,19.120 1.203 M3.477 4.193 C 2.783 4.374,2.193 5.000,2.044 5.712 C 2.013 5.862,2.000 8.025,2.000 13.134 C 2.000 20.995,1.987 20.541,2.223 21.028 C 2.423 21.440,2.866 21.827,3.350 22.012 L 3.580 22.100 10.480 22.100 L 17.380 22.100 17.640 22.005 C 18.312 21.759,18.767 21.259,18.940 20.577 C 18.994 20.363,19.000 19.650,18.991 14.574 L 18.980 8.814 18.859 8.617 C 18.457 7.964,17.543 7.964,17.141 8.617 L 17.020 8.814 17.009 14.467 L 16.999 20.120 10.499 20.120 L 4.000 20.120 4.000 13.120 L 4.000 6.120 9.073 6.120 C 14.763 6.120,14.368 6.141,14.695 5.823 C 15.220 5.313,15.023 4.424,14.330 4.177 C 14.208 4.133,13.221 4.124,8.960 4.124 C 4.156 4.125,3.719 4.130,3.477 4.193 M6.670 8.177 C 6.186 8.351,5.918 8.850,6.038 9.353 C 6.103 9.623,6.273 9.841,6.528 9.983 L 6.740 10.100 10.500 10.100 L 14.260 10.100 14.474 9.982 C 15.149 9.608,15.165 8.668,14.503 8.261 L 14.306 8.140 10.563 8.131 C 7.506 8.124,6.793 8.133,6.670 8.177 M6.670 12.177 C 6.186 12.351,5.918 12.850,6.038 13.353 C 6.103 13.623,6.273 13.841,6.528 13.983 L 6.740 14.100 10.500 14.100 L 14.260 14.100 14.474 13.982 C 15.149 13.608,15.165 12.668,14.503 12.261 L 14.306 12.140 10.563 12.131 C 7.506 12.124,6.793 12.133,6.670 12.177 M6.670 16.176 C 6.186 16.351,5.918 16.850,6.038 17.353 C 6.103 17.623,6.273 17.841,6.528 17.983 L 6.740 18.100 9.000 18.100 L 11.260 18.100 11.474 17.982 C 12.149 17.608,12.165 16.668,11.503 16.261 L 11.306 16.140 9.063 16.131 C 7.259 16.124,6.791 16.133,6.670 16.176 " fill="#000640" stroke="none" fill-rule="evenodd"></path></svg>