<svg xmlns="http://www.w3.org/2000/svg" width="24" height="24" fill="currentColor" class="mmi mmi-airballon" viewBox="0 0 24 24"><path d="M11.140 1.024 C 9.303 1.164,8.043 1.469,6.777 2.083 C 4.251 3.308,2.907 5.529,3.013 8.300 C 3.128 11.299,4.952 14.419,8.371 17.465 C 9.539 18.505,11.262 19.792,11.687 19.943 C 11.894 20.016,12.106 20.016,12.312 19.943 C 12.653 19.822,14.029 18.826,15.080 17.938 C 18.839 14.760,20.859 11.472,20.988 8.320 C 21.101 5.543,19.753 3.310,17.223 2.084 C 16.140 1.558,14.986 1.243,13.560 1.081 C 13.167 1.037,11.492 0.997,11.140 1.024 M12.284 3.334 C 13.132 4.034,13.685 5.155,13.898 6.606 C 14.215 8.771,13.689 11.960,12.466 15.280 C 12.066 16.366,12.021 16.480,12.000 16.480 C 11.989 16.480,11.938 16.367,11.886 16.230 C 10.809 13.363,10.323 11.519,10.073 9.340 C 9.997 8.676,10.008 7.202,10.094 6.640 C 10.285 5.391,10.692 4.419,11.324 3.704 C 11.481 3.526,11.949 3.125,12.002 3.121 C 12.014 3.121,12.141 3.216,12.284 3.334 M9.080 3.376 C 9.080 3.385,8.992 3.570,8.885 3.786 C 7.974 5.628,7.770 7.941,8.262 10.860 C 8.475 12.125,8.862 13.634,9.342 15.072 C 9.485 15.501,9.596 15.857,9.589 15.864 C 9.563 15.891,8.512 14.861,8.088 14.391 C 6.423 12.550,5.445 10.823,5.126 9.160 C 4.671 6.791,5.534 4.947,7.580 3.919 C 8.137 3.638,9.080 3.298,9.080 3.376 M15.429 3.503 C 15.956 3.678,16.632 4.002,17.060 4.285 C 17.475 4.559,18.053 5.136,18.313 5.537 C 19.334 7.109,19.196 9.360,17.940 11.640 C 17.296 12.809,16.161 14.226,14.941 15.384 C 14.656 15.655,14.417 15.871,14.411 15.864 C 14.404 15.857,14.515 15.501,14.658 15.072 C 16.003 11.042,16.339 7.649,15.639 5.160 C 15.490 4.631,15.324 4.198,15.097 3.747 C 15.000 3.553,14.920 3.387,14.920 3.377 C 14.920 3.342,15.011 3.364,15.429 3.503 M9.643 21.069 C 9.291 21.193,9.000 21.614,9.000 22.000 C 9.000 22.242,9.119 22.521,9.299 22.701 C 9.601 23.003,9.573 23.000,12.000 23.000 C 14.427 23.000,14.399 23.003,14.701 22.701 C 15.092 22.310,15.092 21.690,14.701 21.299 C 14.398 20.996,14.430 21.000,11.983 21.003 C 10.132 21.006,9.795 21.015,9.643 21.069 " fill="#000640" stroke="none" fill-rule="evenodd"></path></svg>