<svg xmlns="http://www.w3.org/2000/svg" width="24" height="24" fill="currentColor" class="mmi mmi-album-v2" viewBox="0 0 24 24"><path d="M11.160 0.899 C 10.422 1.110,2.925 3.635,2.693 3.750 C 2.025 4.082,1.523 4.616,1.229 5.309 C 0.991 5.870,0.997 5.665,1.010 12.142 C 1.022 18.814,0.992 18.196,1.346 18.918 C 1.503 19.237,1.589 19.355,1.896 19.661 C 2.180 19.945,2.334 20.063,2.595 20.197 C 2.823 20.315,4.195 20.791,6.935 21.705 C 9.138 22.441,11.084 23.079,11.260 23.125 C 11.531 23.195,11.663 23.205,12.120 23.190 C 12.615 23.174,12.690 23.161,13.021 23.035 C 14.039 22.648,14.759 21.798,14.943 20.762 C 15.023 20.315,15.023 3.685,14.943 3.238 C 14.758 2.201,14.020 1.332,13.005 0.956 C 12.687 0.838,12.615 0.828,12.080 0.815 C 11.560 0.802,11.465 0.811,11.160 0.899 M12.283 2.824 C 12.553 2.903,12.876 3.213,12.951 3.465 C 13.022 3.705,13.022 20.295,12.951 20.535 C 12.876 20.787,12.553 21.097,12.283 21.176 C 12.163 21.211,12.029 21.240,11.984 21.240 C 11.939 21.240,10.004 20.608,7.685 19.835 C 3.484 18.435,3.467 18.429,3.300 18.262 C 2.977 17.939,3.000 18.412,3.000 12.000 C 3.000 5.588,2.977 6.061,3.300 5.738 C 3.467 5.571,3.485 5.565,7.684 4.165 C 10.003 3.393,11.937 2.760,11.983 2.760 C 12.028 2.760,12.163 2.789,12.283 2.824 M17.643 3.069 C 17.546 3.103,17.392 3.206,17.300 3.298 C 16.973 3.624,17.000 2.855,17.000 12.000 C 17.000 21.144,16.974 20.376,17.299 20.701 C 17.690 21.092,18.310 21.092,18.701 20.701 C 19.026 20.376,19.000 21.144,19.000 12.000 C 19.000 2.856,19.026 3.624,18.701 3.299 C 18.424 3.021,18.024 2.934,17.643 3.069 M21.643 5.069 C 21.546 5.103,21.392 5.206,21.300 5.298 C 20.976 5.621,21.000 5.096,21.000 12.000 C 21.000 18.903,20.977 18.379,21.299 18.701 C 21.690 19.092,22.310 19.092,22.701 18.701 C 23.023 18.379,23.000 18.903,23.000 12.000 C 23.000 5.097,23.023 5.621,22.701 5.299 C 22.424 5.021,22.024 4.934,21.643 5.069 M7.503 9.040 C 6.828 9.162,6.156 9.550,5.703 10.080 C 4.987 10.917,4.806 12.100,5.234 13.151 C 5.521 13.857,6.143 14.479,6.849 14.766 C 7.989 15.230,9.251 14.978,10.115 14.115 C 11.238 12.992,11.295 11.212,10.246 10.020 C 9.897 9.624,9.276 9.239,8.756 9.097 C 8.491 9.024,7.770 8.991,7.503 9.040 M8.340 11.066 C 8.709 11.192,9.000 11.604,9.000 12.000 C 9.000 12.527,8.527 13.000,8.000 13.000 C 7.758 13.000,7.479 12.881,7.299 12.701 C 6.907 12.309,6.908 11.690,7.300 11.298 C 7.577 11.020,7.957 10.936,8.340 11.066 " fill="#000640" stroke="none" fill-rule="evenodd"></path></svg>