<svg xmlns="http://www.w3.org/2000/svg" width="24" height="24" fill="currentColor" class="mmi mmi-album" viewBox="0 0 24 24"><path d="M4.664 1.063 C 4.436 1.146,4.257 1.297,4.131 1.511 C 4.036 1.672,4.020 1.744,4.020 2.000 C 4.020 2.256,4.036 2.328,4.131 2.489 C 4.192 2.592,4.301 2.723,4.374 2.778 C 4.683 3.014,4.201 3.000,11.998 3.000 C 20.023 3.000,19.377 3.025,19.701 2.701 C 20.092 2.310,20.092 1.690,19.701 1.299 C 19.377 0.975,20.026 1.000,11.983 1.003 C 5.871 1.005,4.797 1.014,4.664 1.063 M3.820 5.060 C 2.661 5.279,1.731 6.164,1.453 7.311 C 1.308 7.914,1.301 7.867,2.437 14.520 C 3.538 20.971,3.555 21.056,3.845 21.550 C 4.018 21.844,4.556 22.382,4.850 22.554 C 5.179 22.748,5.532 22.882,5.878 22.943 C 6.323 23.023,17.677 23.023,18.122 22.943 C 18.468 22.882,18.821 22.748,19.150 22.554 C 19.444 22.382,19.982 21.844,20.155 21.550 C 20.445 21.057,20.462 20.969,21.565 14.520 C 22.501 9.042,22.614 8.335,22.611 7.960 C 22.605 7.130,22.340 6.502,21.740 5.897 C 21.434 5.588,21.323 5.505,21.000 5.347 C 20.267 4.987,21.168 5.021,12.120 5.013 C 5.606 5.008,4.047 5.016,3.820 5.060 M19.956 7.058 C 20.299 7.180,20.565 7.501,20.621 7.862 C 20.650 8.050,18.602 20.134,18.496 20.398 C 18.415 20.601,18.099 20.890,17.889 20.952 C 17.661 21.021,6.339 21.021,6.111 20.952 C 5.901 20.890,5.585 20.601,5.504 20.399 C 5.399 20.136,3.350 8.049,3.379 7.862 C 3.434 7.509,3.699 7.182,4.030 7.061 C 4.262 6.975,19.714 6.973,19.956 7.058 M11.340 9.046 C 10.642 9.135,9.813 9.452,9.192 9.868 C 8.805 10.127,8.289 10.622,7.994 11.016 C 7.683 11.433,7.309 12.196,7.180 12.680 C 6.864 13.865,6.982 15.089,7.517 16.180 C 8.038 17.243,8.814 18.007,9.896 18.524 C 11.462 19.271,13.333 19.118,14.824 18.119 C 15.229 17.848,15.848 17.229,16.119 16.824 C 17.283 15.085,17.283 12.915,16.119 11.176 C 15.848 10.771,15.229 10.152,14.824 9.881 C 13.782 9.183,12.560 8.890,11.340 9.046 M12.581 11.062 C 13.782 11.310,14.690 12.218,14.938 13.419 C 15.365 15.482,13.482 17.365,11.419 16.938 C 10.215 16.690,9.310 15.785,9.062 14.581 C 8.686 12.764,10.102 11.023,11.972 11.003 C 12.143 11.001,12.417 11.028,12.581 11.062 " fill="#000640" stroke="none" fill-rule="evenodd"></path></svg>