<svg xmlns="http://www.w3.org/2000/svg" width="24" height="24" fill="currentColor" class="mmi mmi-align-top" viewBox="0 0 24 24"><path d="M1.664 2.063 C 1.436 2.146,1.257 2.297,1.131 2.511 C 1.036 2.672,1.020 2.744,1.020 3.000 C 1.020 3.256,1.036 3.328,1.131 3.489 C 1.260 3.709,1.437 3.854,1.678 3.939 C 1.830 3.993,3.022 4.000,11.998 4.000 C 23.385 4.000,22.374 4.028,22.701 3.701 C 23.092 3.310,23.092 2.690,22.701 2.299 C 22.374 1.972,23.388 2.000,11.983 2.003 C 3.267 2.005,1.798 2.014,1.664 2.063 M3.643 6.069 C 3.546 6.103,3.392 6.206,3.300 6.298 C 2.975 6.623,3.000 5.975,3.000 14.000 C 3.000 22.023,2.975 21.377,3.299 21.701 C 3.610 22.013,3.456 22.000,7.000 22.000 C 10.544 22.000,10.390 22.013,10.701 21.701 C 11.025 21.377,11.000 22.023,11.000 14.000 C 11.000 5.977,11.025 6.623,10.701 6.299 C 10.389 5.987,10.547 6.000,6.983 6.003 C 4.226 6.006,3.797 6.014,3.643 6.069 M13.643 6.069 C 13.546 6.103,13.392 6.206,13.300 6.298 C 12.982 6.616,13.000 6.336,13.000 11.000 C 13.000 15.663,12.982 15.384,13.299 15.701 C 13.610 16.013,13.456 16.000,17.000 16.000 C 20.544 16.000,20.390 16.013,20.701 15.701 C 21.018 15.384,21.000 15.663,21.000 11.000 C 21.000 6.337,21.018 6.616,20.701 6.299 C 20.389 5.987,20.547 6.000,16.983 6.003 C 14.226 6.006,13.797 6.014,13.643 6.069 M9.000 14.000 L 9.000 20.000 7.000 20.000 L 5.000 20.000 5.000 14.000 L 5.000 8.000 7.000 8.000 L 9.000 8.000 9.000 14.000 M19.000 11.000 L 19.000 14.000 17.000 14.000 L 15.000 14.000 15.000 11.000 L 15.000 8.000 17.000 8.000 L 19.000 8.000 19.000 11.000 " fill="#000640" stroke="none" fill-rule="evenodd"></path></svg>