<svg xmlns="http://www.w3.org/2000/svg" width="24" height="24" fill="currentColor" class="mmi mmi-align-left" viewBox="0 0 24 24"><path d="M2.664 1.063 C 2.436 1.146,2.257 1.297,2.131 1.511 L 2.020 1.700 2.010 11.915 C 2.003 18.860,2.013 22.178,2.041 22.283 C 2.101 22.506,2.313 22.761,2.531 22.874 C 2.932 23.080,3.390 23.012,3.700 22.702 C 4.028 22.374,4.000 23.388,4.000 12.000 C 4.000 0.615,4.028 1.626,3.701 1.299 C 3.429 1.027,3.018 0.933,2.664 1.063 M6.643 3.069 C 6.546 3.103,6.392 3.206,6.300 3.298 C 5.987 3.611,6.000 3.455,6.000 7.000 C 6.000 10.544,5.987 10.390,6.299 10.701 C 6.623 11.025,5.977 11.000,14.000 11.000 C 22.023 11.000,21.377 11.025,21.701 10.701 C 22.013 10.390,22.000 10.544,22.000 7.000 C 22.000 3.456,22.013 3.610,21.701 3.299 C 21.377 2.975,22.026 3.000,13.983 3.003 C 7.602 3.006,6.801 3.013,6.643 3.069 M20.000 7.000 L 20.000 9.000 14.000 9.000 L 8.000 9.000 8.000 7.000 L 8.000 5.000 14.000 5.000 L 20.000 5.000 20.000 7.000 M6.643 13.069 C 6.546 13.103,6.392 13.206,6.300 13.298 C 5.987 13.611,6.000 13.455,6.000 17.000 C 6.000 20.544,5.987 20.390,6.299 20.701 C 6.610 21.013,6.456 21.000,10.000 21.000 C 13.544 21.000,13.390 21.013,13.701 20.701 C 14.013 20.390,14.000 20.544,14.000 17.000 C 14.000 13.456,14.013 13.610,13.701 13.299 C 13.389 12.987,13.547 13.000,9.983 13.003 C 7.226 13.006,6.797 13.014,6.643 13.069 M12.000 17.000 L 12.000 19.000 10.000 19.000 L 8.000 19.000 8.000 17.000 L 8.000 15.000 10.000 15.000 L 12.000 15.000 12.000 17.000 " fill="#000640" stroke="none" fill-rule="evenodd"></path></svg>