<svg xmlns="http://www.w3.org/2000/svg" width="24" height="24" fill="currentColor" class="mmi mmi-align-bottom" viewBox="0 0 24 24"><path d="M3.664 2.063 C 3.436 2.146,3.257 2.297,3.131 2.511 L 3.020 2.700 3.010 9.914 C 3.002 14.806,3.013 17.178,3.041 17.282 C 3.102 17.509,3.313 17.761,3.539 17.878 L 3.738 17.980 6.936 17.991 C 10.548 18.003,10.387 18.015,10.700 17.702 C 11.025 17.377,11.000 18.025,11.000 10.000 C 11.000 1.977,11.025 2.623,10.701 2.299 C 10.389 1.987,10.547 2.000,6.983 2.003 C 4.342 2.005,3.794 2.015,3.664 2.063 M9.000 10.000 L 9.000 16.000 7.000 16.000 L 5.000 16.000 5.000 10.000 L 5.000 4.000 7.000 4.000 L 9.000 4.000 9.000 10.000 M13.643 7.069 C 13.546 7.103,13.392 7.206,13.300 7.298 C 12.980 7.618,13.000 7.276,13.000 12.500 C 13.000 17.723,12.980 17.383,13.299 17.701 C 13.610 18.013,13.456 18.000,17.000 18.000 C 20.544 18.000,20.390 18.013,20.701 17.701 C 21.020 17.383,21.000 17.723,21.000 12.500 C 21.000 7.277,21.020 7.617,20.701 7.299 C 20.389 6.987,20.547 7.000,16.983 7.003 C 14.226 7.006,13.797 7.014,13.643 7.069 M19.000 12.500 L 19.000 16.000 17.000 16.000 L 15.000 16.000 15.000 12.500 L 15.000 9.000 17.000 9.000 L 19.000 9.000 19.000 12.500 M1.643 20.069 C 1.291 20.193,1.000 20.614,1.000 21.000 C 1.000 21.396,1.291 21.808,1.660 21.934 C 1.839 21.995,2.661 22.000,12.000 22.000 C 23.385 22.000,22.374 22.028,22.701 21.701 C 23.092 21.310,23.092 20.690,22.701 20.299 C 22.374 19.972,23.388 20.000,11.983 20.003 C 2.885 20.006,1.801 20.013,1.643 20.069 " fill="#000640" stroke="none" fill-rule="evenodd"></path></svg>