<svg xmlns="http://www.w3.org/2000/svg" width="24" height="24" fill="currentColor" class="mmi mmi-align-paragraph-right" viewBox="0 0 24 24"><path d="M2.664 3.063 C 2.436 3.146,2.257 3.297,2.131 3.511 C 2.036 3.672,2.020 3.744,2.020 4.000 C 2.020 4.256,2.036 4.328,2.131 4.489 C 2.260 4.709,2.437 4.854,2.678 4.939 C 2.830 4.993,3.916 5.000,11.998 5.000 C 22.265 5.000,21.375 5.027,21.701 4.701 C 22.092 4.310,22.092 3.690,21.701 3.299 C 21.375 2.972,22.267 3.000,11.983 3.003 C 4.135 3.005,2.798 3.014,2.664 3.063 M8.664 7.063 C 8.436 7.146,8.257 7.297,8.131 7.511 C 8.036 7.672,8.020 7.744,8.020 8.000 C 8.020 8.256,8.036 8.328,8.131 8.489 C 8.192 8.592,8.301 8.723,8.374 8.778 C 8.682 9.013,8.296 9.000,14.998 9.000 C 21.903 9.000,21.379 9.023,21.701 8.701 C 22.092 8.310,22.092 7.690,21.701 7.299 C 21.379 6.976,21.906 7.000,14.983 7.003 C 9.739 7.005,8.797 7.014,8.664 7.063 M2.664 11.063 C 2.436 11.146,2.257 11.297,2.131 11.511 C 2.036 11.672,2.020 11.744,2.020 12.000 C 2.020 12.256,2.036 12.328,2.131 12.489 C 2.260 12.709,2.437 12.854,2.678 12.939 C 2.830 12.993,3.916 13.000,11.998 13.000 C 22.265 13.000,21.375 13.027,21.701 12.701 C 22.092 12.310,22.092 11.690,21.701 11.299 C 21.375 10.972,22.267 11.000,11.983 11.003 C 4.135 11.005,2.798 11.014,2.664 11.063 M12.664 15.063 C 12.436 15.146,12.257 15.297,12.131 15.511 C 12.036 15.672,12.020 15.744,12.020 16.000 C 12.020 16.256,12.036 16.328,12.131 16.489 C 12.192 16.592,12.301 16.723,12.374 16.778 C 12.677 17.009,12.484 17.000,16.998 17.000 C 21.663 17.000,21.384 17.018,21.701 16.701 C 22.092 16.310,22.092 15.690,21.701 15.299 C 21.384 14.982,21.666 15.000,16.983 15.003 C 13.474 15.005,12.795 15.015,12.664 15.063 M2.664 19.063 C 2.436 19.146,2.257 19.297,2.131 19.511 C 2.036 19.672,2.020 19.744,2.020 20.000 C 2.020 20.256,2.036 20.328,2.131 20.489 C 2.260 20.709,2.437 20.854,2.678 20.939 C 2.830 20.993,3.916 21.000,11.998 21.000 C 22.265 21.000,21.375 21.027,21.701 20.701 C 22.092 20.310,22.092 19.690,21.701 19.299 C 21.375 18.972,22.267 19.000,11.983 19.003 C 4.135 19.005,2.798 19.014,2.664 19.063 " fill="#000640" stroke="none" fill-rule="evenodd"></path></svg>