<svg xmlns="http://www.w3.org/2000/svg" width="24" height="24" fill="currentColor" class="mmi mmi-align-horizontalcenters" viewBox="0 0 24 24"><path d="M11.664 1.063 C 11.436 1.146,11.257 1.297,11.131 1.511 C 11.024 1.693,11.020 1.723,11.007 2.349 L 10.993 2.997 9.365 3.009 L 7.738 3.020 7.539 3.122 C 7.316 3.237,7.104 3.488,7.042 3.711 C 6.985 3.916,6.985 10.084,7.042 10.289 C 7.104 10.512,7.316 10.763,7.539 10.878 L 7.738 10.980 9.369 10.991 L 11.000 11.003 11.000 12.001 L 11.000 13.000 6.925 13.000 C 2.491 13.000,2.677 12.991,2.374 13.222 C 2.301 13.277,2.192 13.408,2.131 13.511 L 2.020 13.700 2.020 17.000 L 2.020 20.300 2.131 20.489 C 2.192 20.592,2.301 20.723,2.374 20.778 C 2.677 21.009,2.491 21.000,6.925 21.000 L 11.000 21.000 11.000 21.570 C 11.000 22.219,11.031 22.370,11.212 22.607 C 11.570 23.076,12.281 23.121,12.700 22.702 C 12.949 22.454,13.000 22.260,13.000 21.573 L 13.000 21.000 17.073 21.000 C 21.654 21.000,21.385 21.017,21.701 20.701 C 22.013 20.390,22.000 20.544,22.000 17.000 C 22.000 13.456,22.013 13.610,21.701 13.299 C 21.385 12.983,21.654 13.000,17.073 13.000 L 13.000 13.000 13.000 12.000 L 13.000 11.000 14.573 11.000 C 16.362 11.000,16.409 10.994,16.701 10.701 C 17.013 10.390,17.000 10.544,17.000 7.000 C 17.000 3.456,17.013 3.610,16.701 3.299 C 16.409 3.006,16.362 3.000,14.573 3.000 L 13.000 3.000 13.000 2.427 C 13.000 1.741,12.948 1.546,12.701 1.299 C 12.429 1.027,12.018 0.933,11.664 1.063 M11.000 7.000 L 11.000 9.000 10.000 9.000 L 9.000 9.000 9.000 7.000 L 9.000 5.000 10.000 5.000 L 11.000 5.000 11.000 7.000 M15.000 7.000 L 15.000 9.000 14.000 9.000 L 13.000 9.000 13.000 7.000 L 13.000 5.000 14.000 5.000 L 15.000 5.000 15.000 7.000 M11.000 17.000 L 11.000 19.000 7.500 19.000 L 4.000 19.000 4.000 17.000 L 4.000 15.000 7.500 15.000 L 11.000 15.000 11.000 17.000 M20.000 17.000 L 20.000 19.000 16.500 19.000 L 13.000 19.000 13.000 17.000 L 13.000 15.000 16.500 15.000 L 20.000 15.000 20.000 17.000 " fill="#000640" stroke="none" fill-rule="evenodd"></path></svg>