<svg xmlns="http://www.w3.org/2000/svg" width="24" height="24" fill="currentColor" class="mmi mmi-alignment-bottomright" viewBox="0 0 24 24"><path d="M3.503 1.042 C 2.818 1.158,2.117 1.573,1.670 2.127 C 1.445 2.407,1.159 2.980,1.074 3.320 C 0.993 3.647,0.993 20.353,1.074 20.680 C 1.159 21.020,1.445 21.593,1.670 21.873 C 1.950 22.220,2.312 22.501,2.740 22.704 C 3.409 23.021,2.760 23.000,12.000 23.000 C 21.240 23.000,20.591 23.021,21.260 22.704 C 21.920 22.391,22.391 21.920,22.704 21.260 C 23.021 20.591,23.000 21.240,23.000 12.000 C 23.000 2.760,23.021 3.409,22.704 2.740 C 22.398 2.095,21.924 1.614,21.296 1.312 C 20.634 0.993,21.532 1.022,12.120 1.015 C 7.489 1.012,3.611 1.024,3.503 1.042 M20.340 3.066 C 20.593 3.153,20.847 3.407,20.934 3.660 C 20.995 3.838,21.000 4.523,21.000 12.000 C 21.000 21.144,21.026 20.376,20.701 20.701 C 20.376 21.026,21.144 21.000,11.998 21.000 C 3.106 21.000,3.684 21.015,3.374 20.778 C 3.301 20.723,3.192 20.592,3.131 20.489 L 3.020 20.300 3.020 12.000 L 3.020 3.700 3.131 3.511 C 3.256 3.298,3.449 3.136,3.670 3.057 C 3.793 3.013,5.268 3.003,11.983 3.002 C 19.479 3.000,20.162 3.005,20.340 3.066 M13.664 11.063 C 13.436 11.146,13.257 11.297,13.131 11.511 L 13.020 11.700 13.009 14.912 C 13.002 17.065,13.012 18.176,13.040 18.281 C 13.101 18.506,13.312 18.761,13.531 18.874 C 13.932 19.080,14.390 19.012,14.700 18.702 C 15.013 18.389,15.000 18.546,15.000 15.000 C 15.000 11.456,15.013 11.610,14.701 11.299 C 14.429 11.027,14.018 10.933,13.664 11.063 M17.664 13.063 C 17.436 13.146,17.257 13.297,17.131 13.511 L 17.020 13.700 17.009 15.911 C 17.001 17.377,17.012 18.175,17.040 18.279 C 17.101 18.506,17.311 18.760,17.531 18.874 C 17.932 19.080,18.390 19.012,18.700 18.702 C 19.003 18.399,19.000 18.429,19.000 16.000 C 19.000 13.573,19.003 13.601,18.701 13.299 C 18.429 13.027,18.018 12.933,17.664 13.063 M9.664 15.063 C 9.436 15.146,9.257 15.297,9.131 15.511 L 9.020 15.700 9.008 16.908 C 8.995 18.232,9.007 18.338,9.211 18.606 C 9.678 19.218,10.688 19.062,10.934 18.340 C 11.032 18.052,11.032 15.948,10.934 15.660 C 10.764 15.160,10.165 14.879,9.664 15.063 " fill="#000640" stroke="none" fill-rule="evenodd"></path></svg>