<svg xmlns="http://www.w3.org/2000/svg" width="24" height="24" fill="currentColor" class="mmi mmi-align-right" viewBox="0 0 24 24"><path d="M20.664 1.063 C 20.436 1.146,20.257 1.297,20.131 1.511 L 20.020 1.700 20.010 11.915 C 20.003 18.860,20.013 22.178,20.041 22.283 C 20.101 22.506,20.313 22.761,20.531 22.874 C 20.932 23.080,21.390 23.012,21.700 22.702 C 22.028 22.374,22.000 23.388,22.000 12.000 C 22.000 0.615,22.028 1.626,21.701 1.299 C 21.429 1.027,21.018 0.933,20.664 1.063 M2.664 3.063 C 2.436 3.146,2.257 3.297,2.131 3.511 L 2.020 3.700 2.020 7.000 L 2.020 10.300 2.131 10.489 C 2.192 10.592,2.301 10.723,2.374 10.778 C 2.683 11.014,2.201 11.000,9.998 11.000 C 18.023 11.000,17.377 11.025,17.701 10.701 C 18.013 10.390,18.000 10.544,18.000 7.000 C 18.000 3.456,18.013 3.610,17.701 3.299 C 17.377 2.975,18.026 3.000,9.983 3.003 C 3.871 3.005,2.797 3.014,2.664 3.063 M16.000 7.000 L 16.000 9.000 10.000 9.000 L 4.000 9.000 4.000 7.000 L 4.000 5.000 10.000 5.000 L 16.000 5.000 16.000 7.000 M10.664 13.063 C 10.436 13.146,10.257 13.297,10.131 13.511 L 10.020 13.700 10.020 17.000 L 10.020 20.300 10.131 20.489 C 10.192 20.592,10.301 20.723,10.374 20.778 C 10.672 21.006,10.578 21.000,13.998 21.000 C 17.545 21.000,17.390 21.013,17.701 20.701 C 18.013 20.390,18.000 20.544,18.000 17.000 C 18.000 13.456,18.013 13.610,17.701 13.299 C 17.389 12.987,17.547 13.000,13.983 13.003 C 11.342 13.005,10.794 13.015,10.664 13.063 M16.000 17.000 L 16.000 19.000 14.000 19.000 L 12.000 19.000 12.000 17.000 L 12.000 15.000 14.000 15.000 L 16.000 15.000 16.000 17.000 " fill="#000640" stroke="none" fill-rule="evenodd"></path></svg>