<svg xmlns="http://www.w3.org/2000/svg" width="24" height="24" fill="currentColor" class="mmi mmi-alignment-centerbottom" viewBox="0 0 24 24"><path d="M3.503 1.042 C 2.818 1.158,2.117 1.573,1.670 2.127 C 1.445 2.407,1.159 2.980,1.074 3.320 C 0.993 3.647,0.993 20.353,1.074 20.680 C 1.159 21.020,1.445 21.593,1.670 21.873 C 1.950 22.220,2.312 22.501,2.740 22.704 C 3.409 23.021,2.760 23.000,12.000 23.000 C 21.240 23.000,20.591 23.021,21.260 22.704 C 21.920 22.391,22.391 21.920,22.704 21.260 C 23.021 20.591,23.000 21.240,23.000 12.000 C 23.000 2.760,23.021 3.409,22.704 2.740 C 22.398 2.095,21.924 1.614,21.296 1.312 C 20.634 0.993,21.532 1.022,12.120 1.015 C 7.489 1.012,3.611 1.024,3.503 1.042 M20.340 3.066 C 20.593 3.153,20.847 3.407,20.934 3.660 C 20.995 3.838,21.000 4.523,21.000 12.000 C 21.000 21.144,21.026 20.376,20.701 20.701 C 20.376 21.026,21.144 21.000,11.998 21.000 C 3.106 21.000,3.684 21.015,3.374 20.778 C 3.301 20.723,3.192 20.592,3.131 20.489 L 3.020 20.300 3.020 12.000 L 3.020 3.700 3.131 3.511 C 3.256 3.298,3.449 3.136,3.670 3.057 C 3.793 3.013,5.268 3.003,11.983 3.002 C 19.479 3.000,20.162 3.005,20.340 3.066 M11.664 11.063 C 11.436 11.146,11.257 11.297,11.131 11.511 L 11.020 11.700 11.009 14.912 C 11.002 17.065,11.012 18.176,11.040 18.281 C 11.101 18.506,11.312 18.761,11.531 18.874 C 11.932 19.080,12.390 19.012,12.700 18.702 C 13.013 18.389,13.000 18.546,13.000 15.000 C 13.000 11.456,13.013 11.610,12.701 11.299 C 12.429 11.027,12.018 10.933,11.664 11.063 M7.664 13.063 C 7.436 13.146,7.257 13.297,7.131 13.511 L 7.020 13.700 7.009 15.911 C 7.001 17.377,7.012 18.175,7.040 18.279 C 7.101 18.506,7.311 18.760,7.531 18.874 C 7.932 19.080,8.390 19.012,8.700 18.702 C 9.003 18.399,9.000 18.429,9.000 16.000 C 9.000 13.573,9.003 13.601,8.701 13.299 C 8.429 13.027,8.018 12.933,7.664 13.063 M15.664 15.063 C 15.436 15.146,15.257 15.297,15.131 15.511 L 15.020 15.700 15.008 16.908 C 14.995 18.232,15.007 18.338,15.211 18.606 C 15.678 19.218,16.688 19.062,16.934 18.340 C 17.032 18.052,17.032 15.948,16.934 15.660 C 16.764 15.160,16.165 14.879,15.664 15.063 " fill="#000640" stroke="none" fill-rule="evenodd"></path></svg>