<svg xmlns="http://www.w3.org/2000/svg" width="24" height="24" fill="currentColor" class="mmi mmi-alphabet-U" viewBox="0 0 24 24"><path d="M11.200 0.025 C 7.091 0.332,3.508 2.609,1.507 6.186 C 0.775 7.494,0.317 8.899,0.094 10.520 C -0.002 11.214,-0.002 12.786,0.094 13.480 C 0.317 15.101,0.775 16.506,1.507 17.814 C 4.173 22.579,9.604 24.939,14.910 23.637 C 19.156 22.595,22.595 19.156,23.637 14.910 C 24.599 10.992,23.592 6.970,20.896 3.958 C 19.003 1.843,16.397 0.483,13.500 0.099 C 13.032 0.037,11.640 -0.007,11.200 0.025 M12.920 2.043 C 14.827 2.219,16.631 2.940,18.200 4.155 C 18.637 4.493,19.507 5.363,19.845 5.800 C 21.878 8.427,22.517 11.768,21.578 14.865 C 21.082 16.499,20.272 17.850,19.061 19.061 C 18.287 19.836,17.547 20.383,16.623 20.863 C 13.714 22.376,10.286 22.376,7.377 20.863 C 6.454 20.383,5.715 19.837,4.938 19.061 C 3.951 18.075,3.213 16.964,2.722 15.728 C 1.390 12.368,1.921 8.686,4.153 5.800 C 4.491 5.363,5.363 4.491,5.800 4.153 C 7.114 3.137,8.541 2.486,10.125 2.181 C 11.037 2.006,12.003 1.958,12.920 2.043 M7.643 6.069 C 7.402 6.154,7.147 6.418,7.064 6.669 C 7.002 6.853,6.998 7.208,7.010 10.785 C 7.024 14.690,7.024 14.701,7.113 15.040 C 7.342 15.910,7.661 16.480,8.247 17.069 C 8.942 17.769,9.948 18.256,11.040 18.422 C 11.527 18.496,12.473 18.496,12.960 18.422 C 13.737 18.304,14.611 17.963,15.196 17.548 C 16.172 16.859,16.808 15.786,16.956 14.580 C 16.985 14.342,17.000 12.977,17.000 10.537 C 17.000 6.392,17.016 6.614,16.701 6.299 C 16.310 5.908,15.690 5.908,15.299 6.299 C 14.984 6.614,15.000 6.387,15.000 10.581 C 15.000 14.134,14.996 14.321,14.923 14.610 C 14.776 15.183,14.498 15.593,14.035 15.918 C 13.492 16.299,12.820 16.487,12.000 16.487 C 11.180 16.487,10.508 16.299,9.965 15.918 C 9.553 15.629,9.313 15.306,9.105 14.762 C 9.022 14.543,9.020 14.491,9.000 10.640 L 8.980 6.740 8.886 6.550 C 8.665 6.101,8.134 5.895,7.643 6.069 " stroke="none" fill-rule="evenodd"></path></svg>