<svg xmlns="http://www.w3.org/2000/svg" width="24" height="24" fill="currentColor" class="mmi mmi-alphabet-A" viewBox="0 0 24 24"><path d="M11.200 0.025 C 7.091 0.332,3.508 2.609,1.507 6.186 C 0.775 7.494,0.317 8.899,0.094 10.520 C -0.002 11.214,-0.002 12.786,0.094 13.480 C 0.317 15.101,0.775 16.506,1.507 17.814 C 4.173 22.579,9.604 24.939,14.910 23.637 C 19.156 22.595,22.595 19.156,23.637 14.910 C 24.599 10.992,23.592 6.970,20.896 3.958 C 19.003 1.843,16.397 0.483,13.500 0.099 C 13.032 0.037,11.640 -0.007,11.200 0.025 M12.920 2.043 C 14.827 2.219,16.631 2.940,18.200 4.155 C 18.637 4.493,19.507 5.363,19.845 5.800 C 21.878 8.427,22.517 11.768,21.578 14.865 C 21.082 16.499,20.272 17.850,19.061 19.061 C 18.287 19.836,17.547 20.383,16.623 20.863 C 13.714 22.376,10.286 22.376,7.377 20.863 C 6.454 20.383,5.715 19.837,4.938 19.061 C 3.951 18.075,3.213 16.964,2.722 15.728 C 1.390 12.368,1.921 8.686,4.153 5.800 C 4.491 5.363,5.363 4.491,5.800 4.153 C 7.114 3.137,8.541 2.486,10.125 2.181 C 11.037 2.006,12.003 1.958,12.920 2.043 M11.580 5.595 C 11.227 5.756,11.294 5.614,8.828 11.368 C 6.616 16.529,6.520 16.764,6.520 16.998 C 6.520 17.286,6.596 17.490,6.772 17.674 C 6.985 17.896,7.181 17.978,7.500 17.978 C 7.709 17.978,7.821 17.956,7.940 17.892 C 8.258 17.723,8.327 17.607,8.895 16.280 L 9.434 15.020 12.000 15.020 L 14.566 15.020 15.104 16.280 C 15.602 17.445,15.656 17.554,15.835 17.727 C 16.282 18.160,17.012 18.071,17.338 17.543 C 17.437 17.384,17.462 17.295,17.474 17.060 L 17.488 16.772 15.176 11.377 C 13.322 7.053,12.836 5.951,12.722 5.825 C 12.528 5.609,12.319 5.522,12.000 5.522 C 11.834 5.522,11.682 5.548,11.580 5.595 M12.829 10.970 C 13.274 12.010,13.649 12.892,13.663 12.930 C 13.687 12.996,13.591 13.000,12.000 13.000 C 10.409 13.000,10.313 12.996,10.337 12.930 C 10.429 12.679,11.983 9.080,12.000 9.080 C 12.011 9.080,12.384 9.931,12.829 10.970 " stroke="none" fill-rule="evenodd"></path></svg>