<svg xmlns="http://www.w3.org/2000/svg" width="24" height="24" fill="currentColor" class="mmi mmi-alphabet-Q" viewBox="0 0 24 24"><path d="M11.200 0.025 C 7.091 0.332,3.508 2.609,1.507 6.186 C 0.775 7.494,0.317 8.899,0.094 10.520 C -0.002 11.214,-0.002 12.786,0.094 13.480 C 0.317 15.101,0.775 16.506,1.507 17.814 C 4.173 22.579,9.604 24.939,14.910 23.637 C 19.156 22.595,22.595 19.156,23.637 14.910 C 24.599 10.992,23.592 6.970,20.896 3.958 C 19.003 1.843,16.397 0.483,13.500 0.099 C 13.032 0.037,11.640 -0.007,11.200 0.025 M12.920 2.043 C 14.827 2.219,16.631 2.940,18.200 4.155 C 18.637 4.493,19.507 5.363,19.845 5.800 C 21.878 8.427,22.517 11.768,21.578 14.865 C 21.082 16.499,20.272 17.850,19.061 19.061 C 18.287 19.836,17.547 20.383,16.623 20.863 C 13.714 22.376,10.286 22.376,7.377 20.863 C 6.454 20.383,5.715 19.837,4.938 19.061 C 3.951 18.075,3.213 16.964,2.722 15.728 C 1.390 12.368,1.921 8.686,4.153 5.800 C 4.491 5.363,5.363 4.491,5.800 4.153 C 7.114 3.137,8.541 2.486,10.125 2.181 C 11.037 2.006,12.003 1.958,12.920 2.043 M11.300 5.043 C 8.699 5.356,6.893 7.416,6.562 10.448 C 6.501 11.013,6.510 12.145,6.582 12.721 C 6.709 13.747,6.943 14.549,7.364 15.399 C 7.684 16.046,8.026 16.540,8.460 16.982 C 9.441 17.984,10.614 18.480,12.000 18.480 C 13.272 18.480,14.283 18.097,15.277 17.238 L 15.605 16.955 15.767 17.102 C 16.020 17.330,16.241 17.411,16.560 17.393 C 17.090 17.363,17.443 17.008,17.474 16.474 C 17.494 16.111,17.381 15.877,17.006 15.505 L 16.729 15.231 16.822 15.019 C 17.098 14.396,17.351 13.383,17.439 12.552 C 17.492 12.048,17.492 10.943,17.438 10.448 C 17.218 8.435,16.314 6.773,14.941 5.859 C 14.374 5.482,13.708 5.215,13.040 5.097 C 12.610 5.021,11.717 4.993,11.300 5.043 M12.880 7.100 C 13.023 7.137,13.311 7.249,13.519 7.349 C 13.850 7.508,13.947 7.580,14.279 7.915 C 14.711 8.352,14.928 8.697,15.138 9.286 C 15.575 10.509,15.619 12.115,15.253 13.448 L 15.191 13.675 15.037 13.578 C 14.362 13.152,13.506 13.611,13.506 14.400 C 13.506 14.732,13.605 14.935,13.932 15.269 L 14.176 15.519 14.058 15.643 C 13.902 15.809,13.512 16.084,13.246 16.218 C 12.696 16.494,11.868 16.572,11.262 16.404 C 10.580 16.215,10.019 15.815,9.550 15.183 C 8.323 13.530,8.143 10.427,9.168 8.606 C 9.406 8.183,9.999 7.589,10.380 7.393 C 10.707 7.224,10.959 7.134,11.320 7.058 C 11.662 6.985,12.528 7.009,12.880 7.100 " stroke="none" fill-rule="evenodd"></path></svg>