<svg xmlns="http://www.w3.org/2000/svg" width="24" height="24" fill="currentColor" class="mmi mmi-alphabet-D" viewBox="0 0 24 24"><path d="M11.200 0.025 C 7.091 0.332,3.508 2.609,1.507 6.186 C 0.775 7.494,0.317 8.899,0.094 10.520 C -0.002 11.214,-0.002 12.786,0.094 13.480 C 0.317 15.101,0.775 16.506,1.507 17.814 C 4.173 22.579,9.604 24.939,14.910 23.637 C 19.156 22.595,22.595 19.156,23.637 14.910 C 24.599 10.992,23.592 6.970,20.896 3.958 C 19.003 1.843,16.397 0.483,13.500 0.099 C 13.032 0.037,11.640 -0.007,11.200 0.025 M12.920 2.043 C 14.827 2.219,16.631 2.940,18.200 4.155 C 18.637 4.493,19.507 5.363,19.845 5.800 C 21.878 8.427,22.517 11.768,21.578 14.865 C 21.082 16.499,20.272 17.850,19.061 19.061 C 18.287 19.836,17.547 20.383,16.623 20.863 C 13.714 22.376,10.286 22.376,7.377 20.863 C 6.454 20.383,5.715 19.837,4.938 19.061 C 3.951 18.075,3.213 16.964,2.722 15.728 C 1.390 12.368,1.921 8.686,4.153 5.800 C 4.491 5.363,5.363 4.491,5.800 4.153 C 7.114 3.137,8.541 2.486,10.125 2.181 C 11.037 2.006,12.003 1.958,12.920 2.043 M8.240 6.036 C 7.947 6.129,7.685 6.362,7.575 6.626 C 7.493 6.822,7.493 17.178,7.575 17.374 C 7.653 17.562,7.866 17.790,8.056 17.892 C 8.218 17.979,8.238 17.980,10.200 17.979 C 11.938 17.979,12.226 17.970,12.557 17.907 C 15.008 17.440,16.864 15.616,17.388 13.160 C 17.491 12.675,17.491 11.325,17.388 10.840 C 16.866 8.393,15.017 6.569,12.578 6.096 C 12.274 6.037,11.926 6.025,10.280 6.015 C 9.213 6.009,8.295 6.018,8.240 6.036 M12.165 8.059 C 13.799 8.345,15.066 9.572,15.426 11.219 C 15.463 11.386,15.488 11.703,15.489 12.000 C 15.493 13.951,14.101 15.602,12.165 15.941 C 11.921 15.984,11.509 16.000,10.655 16.000 L 9.480 16.000 9.480 12.000 L 9.480 8.000 10.655 8.000 C 11.509 8.000,11.921 8.016,12.165 8.059 " stroke="none" fill-rule="evenodd"></path></svg>