<svg xmlns="http://www.w3.org/2000/svg" width="24" height="24" fill="currentColor" class="mmi mmi-alphabet-W" viewBox="0 0 24 24"><path d="M11.200 0.025 C 7.091 0.332,3.508 2.609,1.507 6.186 C 0.775 7.494,0.317 8.899,0.094 10.520 C -0.002 11.214,-0.002 12.786,0.094 13.480 C 0.317 15.101,0.775 16.506,1.507 17.814 C 4.173 22.579,9.604 24.939,14.910 23.637 C 19.156 22.595,22.595 19.156,23.637 14.910 C 24.599 10.992,23.592 6.970,20.896 3.958 C 19.003 1.843,16.397 0.483,13.500 0.099 C 13.032 0.037,11.640 -0.007,11.200 0.025 M12.920 2.043 C 14.827 2.219,16.631 2.940,18.200 4.155 C 18.637 4.493,19.507 5.363,19.845 5.800 C 21.878 8.427,22.517 11.768,21.578 14.865 C 21.082 16.499,20.272 17.850,19.061 19.061 C 18.287 19.836,17.547 20.383,16.623 20.863 C 13.714 22.376,10.286 22.376,7.377 20.863 C 6.454 20.383,5.715 19.837,4.938 19.061 C 3.951 18.075,3.213 16.964,2.722 15.728 C 1.390 12.368,1.921 8.686,4.153 5.800 C 4.491 5.363,5.363 4.491,5.800 4.153 C 7.114 3.137,8.541 2.486,10.125 2.181 C 11.037 2.006,12.003 1.958,12.920 2.043 M7.240 6.035 C 7.042 6.100,6.890 6.198,6.761 6.345 C 6.584 6.547,6.520 6.715,6.520 6.980 C 6.520 7.308,7.514 17.198,7.562 17.344 C 7.619 17.521,7.860 17.788,8.054 17.890 C 8.179 17.956,8.289 17.978,8.500 17.978 C 8.828 17.978,9.034 17.888,9.235 17.659 C 9.307 17.578,9.943 16.353,10.672 14.897 C 11.391 13.457,11.989 12.280,12.000 12.280 C 12.011 12.280,12.609 13.457,13.328 14.897 C 14.057 16.353,14.693 17.578,14.765 17.659 C 14.966 17.888,15.172 17.978,15.500 17.978 C 15.710 17.978,15.821 17.956,15.944 17.891 C 16.134 17.791,16.346 17.563,16.425 17.375 C 16.483 17.236,17.480 7.432,17.480 7.000 C 17.480 6.600,17.297 6.298,16.940 6.108 C 16.716 5.988,16.284 5.988,16.060 6.108 C 15.856 6.216,15.661 6.420,15.585 6.602 C 15.546 6.695,15.408 7.916,15.193 10.072 C 15.010 11.903,14.851 13.400,14.840 13.400 C 14.829 13.400,14.378 12.514,13.840 11.432 C 12.756 9.255,12.707 9.179,12.316 9.063 C 12.048 8.983,11.902 8.984,11.660 9.066 C 11.288 9.193,11.227 9.289,10.160 11.432 C 9.622 12.514,9.171 13.400,9.160 13.400 C 9.149 13.400,8.990 11.903,8.807 10.072 C 8.620 8.205,8.452 6.690,8.422 6.619 C 8.346 6.436,8.131 6.207,7.947 6.113 C 7.771 6.024,7.399 5.983,7.240 6.035 " stroke="none" fill-rule="evenodd"></path></svg>