<svg xmlns="http://www.w3.org/2000/svg" width="24" height="24" fill="currentColor" class="mmi mmi-alphabet-B" viewBox="0 0 24 24"><path d="M11.200 0.025 C 7.091 0.332,3.508 2.609,1.507 6.186 C 0.775 7.494,0.317 8.899,0.094 10.520 C -0.002 11.214,-0.002 12.786,0.094 13.480 C 0.317 15.101,0.775 16.506,1.507 17.814 C 4.173 22.579,9.604 24.939,14.910 23.637 C 19.156 22.595,22.595 19.156,23.637 14.910 C 24.599 10.992,23.592 6.970,20.896 3.958 C 19.003 1.843,16.397 0.483,13.500 0.099 C 13.032 0.037,11.640 -0.007,11.200 0.025 M12.920 2.043 C 14.827 2.219,16.631 2.940,18.200 4.155 C 18.637 4.493,19.507 5.363,19.845 5.800 C 21.878 8.427,22.517 11.768,21.578 14.865 C 21.082 16.499,20.272 17.850,19.061 19.061 C 18.287 19.836,17.547 20.383,16.623 20.863 C 13.714 22.376,10.286 22.376,7.377 20.863 C 6.454 20.383,5.715 19.837,4.938 19.061 C 3.951 18.075,3.213 16.964,2.722 15.728 C 1.390 12.368,1.921 8.686,4.153 5.800 C 4.491 5.363,5.363 4.491,5.800 4.153 C 7.114 3.137,8.541 2.486,10.125 2.181 C 11.037 2.006,12.003 1.958,12.920 2.043 M8.240 6.037 C 7.952 6.125,7.686 6.361,7.575 6.626 C 7.493 6.822,7.493 17.178,7.575 17.374 C 7.653 17.562,7.866 17.790,8.056 17.892 C 8.220 17.980,8.221 17.980,11.180 17.992 C 13.117 17.999,14.253 17.989,14.467 17.961 C 15.933 17.769,17.129 16.649,17.424 15.191 C 17.512 14.756,17.483 13.939,17.365 13.545 C 17.214 13.040,16.988 12.624,16.628 12.188 L 16.470 11.997 16.627 11.808 C 16.986 11.380,17.213 10.962,17.365 10.455 C 17.483 10.061,17.512 9.244,17.424 8.809 C 17.132 7.367,15.949 6.247,14.500 6.041 C 14.172 5.995,8.392 5.991,8.240 6.037 M14.600 8.124 C 15.062 8.344,15.388 8.766,15.477 9.261 C 15.593 9.904,15.227 10.578,14.600 10.876 L 14.380 10.980 11.930 10.991 L 9.480 11.003 9.480 9.500 L 9.480 7.997 11.930 8.009 L 14.380 8.020 14.600 8.124 M14.600 13.124 C 15.062 13.344,15.388 13.766,15.477 14.261 C 15.593 14.904,15.227 15.578,14.600 15.876 L 14.380 15.980 11.930 15.991 L 9.480 16.003 9.480 14.500 L 9.480 12.997 11.930 13.009 L 14.380 13.020 14.600 13.124 " stroke="none" fill-rule="evenodd"></path></svg>