<svg xmlns="http://www.w3.org/2000/svg" width="24" height="24" fill="currentColor" class="mmi mmi-alphabet-N" viewBox="0 0 24 24"><path d="M11.200 0.025 C 7.091 0.332,3.508 2.609,1.507 6.186 C 0.775 7.494,0.317 8.899,0.094 10.520 C -0.002 11.214,-0.002 12.786,0.094 13.480 C 0.317 15.101,0.775 16.506,1.507 17.814 C 4.173 22.579,9.604 24.939,14.910 23.637 C 19.156 22.595,22.595 19.156,23.637 14.910 C 24.599 10.992,23.592 6.970,20.896 3.958 C 19.003 1.843,16.397 0.483,13.500 0.099 C 13.032 0.037,11.640 -0.007,11.200 0.025 M12.920 2.043 C 14.827 2.219,16.631 2.940,18.200 4.155 C 18.637 4.493,19.507 5.363,19.845 5.800 C 21.878 8.427,22.517 11.768,21.578 14.865 C 21.082 16.499,20.272 17.850,19.061 19.061 C 18.287 19.836,17.547 20.383,16.623 20.863 C 13.714 22.376,10.286 22.376,7.377 20.863 C 6.454 20.383,5.715 19.837,4.938 19.061 C 3.951 18.075,3.213 16.964,2.722 15.728 C 1.390 12.368,1.921 8.686,4.153 5.800 C 4.491 5.363,5.363 4.491,5.800 4.153 C 7.114 3.137,8.541 2.486,10.125 2.181 C 11.037 2.006,12.003 1.958,12.920 2.043 M7.643 6.066 C 7.546 6.102,7.392 6.206,7.300 6.298 C 6.979 6.619,7.000 6.216,7.000 12.000 C 7.000 17.783,6.979 17.381,7.299 17.701 C 7.778 18.180,8.590 18.051,8.886 17.450 L 8.980 17.260 9.000 13.567 L 9.020 9.875 12.185 13.832 C 14.976 17.320,15.372 17.799,15.531 17.876 C 15.950 18.079,16.397 18.010,16.703 17.695 C 17.021 17.367,17.000 17.772,17.000 12.000 C 17.000 6.217,17.021 6.619,16.701 6.299 C 16.222 5.820,15.410 5.949,15.114 6.550 L 15.020 6.740 15.000 10.433 L 14.980 14.125 11.815 10.168 C 8.985 6.632,8.629 6.202,8.464 6.122 C 8.223 6.005,7.874 5.982,7.643 6.066 " stroke="none" fill-rule="evenodd"></path></svg>