<svg xmlns="http://www.w3.org/2000/svg" width="24" height="24" fill="currentColor" class="mmi mmi-alphabet-S" viewBox="0 0 24 24"><path d="M11.200 0.025 C 7.091 0.332,3.508 2.609,1.507 6.186 C 0.775 7.494,0.317 8.899,0.094 10.520 C -0.002 11.214,-0.002 12.786,0.094 13.480 C 0.317 15.101,0.775 16.506,1.507 17.814 C 4.173 22.579,9.604 24.939,14.910 23.637 C 19.156 22.595,22.595 19.156,23.637 14.910 C 24.599 10.992,23.592 6.970,20.896 3.958 C 19.003 1.843,16.397 0.483,13.500 0.099 C 13.032 0.037,11.640 -0.007,11.200 0.025 M12.920 2.043 C 14.827 2.219,16.631 2.940,18.200 4.155 C 18.637 4.493,19.507 5.363,19.845 5.800 C 21.878 8.427,22.517 11.768,21.578 14.865 C 21.082 16.499,20.272 17.850,19.061 19.061 C 18.287 19.836,17.547 20.383,16.623 20.863 C 13.714 22.376,10.286 22.376,7.377 20.863 C 6.454 20.383,5.715 19.837,4.938 19.061 C 3.951 18.075,3.213 16.964,2.722 15.728 C 1.390 12.368,1.921 8.686,4.153 5.800 C 4.491 5.363,5.363 4.491,5.800 4.153 C 7.114 3.137,8.541 2.486,10.125 2.181 C 11.037 2.006,12.003 1.958,12.920 2.043 M11.100 5.546 C 9.076 5.789,7.711 6.740,7.205 8.260 C 6.813 9.435,7.008 10.732,7.702 11.573 C 8.488 12.527,9.922 12.997,12.052 12.999 C 13.354 13.001,14.350 13.253,14.734 13.679 C 15.127 14.114,15.074 15.062,14.626 15.610 C 14.092 16.264,12.901 16.595,11.497 16.481 C 10.482 16.399,9.825 16.154,9.357 15.684 C 9.212 15.539,9.029 15.303,8.949 15.160 C 8.692 14.698,8.413 14.508,7.995 14.510 C 7.420 14.514,7.019 14.920,7.021 15.500 C 7.021 15.755,7.037 15.810,7.200 16.113 C 7.899 17.416,9.142 18.193,10.900 18.425 C 11.557 18.512,12.930 18.480,13.484 18.366 C 15.194 18.013,16.339 17.104,16.796 15.740 C 17.099 14.833,17.045 13.762,16.657 12.977 C 16.006 11.658,14.446 11.004,11.948 11.001 C 10.647 10.999,9.650 10.747,9.266 10.322 C 8.853 9.864,8.932 8.866,9.425 8.320 C 9.968 7.719,11.157 7.409,12.503 7.519 C 13.519 7.601,14.176 7.846,14.642 8.316 C 14.790 8.464,14.985 8.721,15.089 8.902 C 15.346 9.351,15.607 9.521,16.040 9.520 C 16.414 9.519,16.848 9.199,16.954 8.846 C 17.047 8.532,17.015 8.314,16.817 7.928 C 16.153 6.628,14.872 5.811,13.135 5.579 C 12.743 5.527,11.437 5.506,11.100 5.546 " stroke="none" fill-rule="evenodd"></path></svg>