<svg xmlns="http://www.w3.org/2000/svg" width="24" height="24" fill="currentColor" class="mmi mmi-alphabet-G" viewBox="0 0 24 24"><path d="M11.200 0.025 C 7.091 0.332,3.508 2.609,1.507 6.186 C 0.775 7.494,0.317 8.899,0.094 10.520 C -0.002 11.214,-0.002 12.786,0.094 13.480 C 0.317 15.101,0.775 16.506,1.507 17.814 C 4.173 22.579,9.604 24.939,14.910 23.637 C 19.156 22.595,22.595 19.156,23.637 14.910 C 24.599 10.992,23.592 6.970,20.896 3.958 C 19.003 1.843,16.397 0.483,13.500 0.099 C 13.032 0.037,11.640 -0.007,11.200 0.025 M12.920 2.043 C 14.827 2.219,16.631 2.940,18.200 4.155 C 18.637 4.493,19.507 5.363,19.845 5.800 C 21.878 8.427,22.517 11.768,21.578 14.865 C 21.082 16.499,20.272 17.850,19.061 19.061 C 18.287 19.836,17.547 20.383,16.623 20.863 C 13.714 22.376,10.286 22.376,7.377 20.863 C 6.454 20.383,5.715 19.837,4.938 19.061 C 3.951 18.075,3.213 16.964,2.722 15.728 C 1.390 12.368,1.921 8.686,4.153 5.800 C 4.491 5.363,5.363 4.491,5.800 4.153 C 7.114 3.137,8.541 2.486,10.125 2.181 C 11.037 2.006,12.003 1.958,12.920 2.043 M11.040 5.577 C 10.114 5.741,9.405 6.027,8.663 6.534 C 7.417 7.386,6.487 8.835,6.162 10.431 C 5.829 12.063,6.040 13.897,6.723 15.318 C 7.035 15.964,7.336 16.408,7.780 16.875 C 8.513 17.645,9.276 18.096,10.280 18.352 C 10.668 18.451,10.763 18.459,11.520 18.460 C 12.161 18.460,12.414 18.444,12.680 18.388 C 13.645 18.182,14.604 17.732,15.266 17.174 C 15.380 17.078,15.482 17.000,15.493 17.000 C 15.504 17.000,15.519 17.186,15.526 17.413 C 15.539 17.791,15.550 17.843,15.661 18.022 C 15.736 18.143,15.857 18.264,15.978 18.339 C 16.154 18.448,16.207 18.460,16.500 18.460 C 16.793 18.460,16.846 18.448,17.022 18.339 C 17.143 18.264,17.264 18.143,17.339 18.022 L 17.460 17.826 17.472 15.323 C 17.480 13.688,17.470 12.771,17.443 12.678 C 17.388 12.490,17.151 12.219,16.946 12.109 C 16.780 12.020,16.773 12.020,14.324 12.009 C 11.541 11.996,11.608 11.990,11.300 12.298 C 10.820 12.778,10.948 13.590,11.550 13.886 C 11.738 13.979,11.756 13.980,13.474 14.000 L 15.208 14.020 15.047 14.331 C 14.407 15.569,13.278 16.335,11.884 16.478 C 10.479 16.622,9.240 15.903,8.558 14.547 C 8.165 13.765,8.023 13.095,8.021 12.020 C 8.020 11.139,8.094 10.711,8.364 10.016 C 9.069 8.206,10.910 7.197,12.804 7.583 C 13.541 7.733,14.133 8.057,14.740 8.643 C 15.197 9.084,15.322 9.161,15.642 9.190 C 15.831 9.207,15.909 9.192,16.095 9.107 C 16.496 8.924,16.695 8.622,16.693 8.200 C 16.691 7.836,16.589 7.658,16.105 7.178 C 15.317 6.397,14.339 5.872,13.200 5.619 C 12.794 5.529,11.458 5.503,11.040 5.577 " stroke="none" fill-rule="evenodd"></path></svg>