<svg xmlns="http://www.w3.org/2000/svg" width="24" height="24" fill="currentColor" class="mmi mmi-alphabet-T" viewBox="0 0 24 24"><path d="M11.200 0.025 C 7.091 0.332,3.508 2.609,1.507 6.186 C 0.775 7.494,0.317 8.899,0.094 10.520 C -0.002 11.214,-0.002 12.786,0.094 13.480 C 0.317 15.101,0.775 16.506,1.507 17.814 C 4.173 22.579,9.604 24.939,14.910 23.637 C 19.156 22.595,22.595 19.156,23.637 14.910 C 24.599 10.992,23.592 6.970,20.896 3.958 C 19.003 1.843,16.397 0.483,13.500 0.099 C 13.032 0.037,11.640 -0.007,11.200 0.025 M12.920 2.043 C 14.827 2.219,16.631 2.940,18.200 4.155 C 18.637 4.493,19.507 5.363,19.845 5.800 C 21.878 8.427,22.517 11.768,21.578 14.865 C 21.082 16.499,20.272 17.850,19.061 19.061 C 18.287 19.836,17.547 20.383,16.623 20.863 C 13.714 22.376,10.286 22.376,7.377 20.863 C 6.454 20.383,5.715 19.837,4.938 19.061 C 3.951 18.075,3.213 16.964,2.722 15.728 C 1.390 12.368,1.921 8.686,4.153 5.800 C 4.491 5.363,5.363 4.491,5.800 4.153 C 7.114 3.137,8.541 2.486,10.125 2.181 C 11.037 2.006,12.003 1.958,12.920 2.043 M7.643 6.069 C 7.291 6.193,7.000 6.614,7.000 7.000 C 7.000 7.242,7.119 7.521,7.299 7.701 C 7.591 7.994,7.638 8.000,9.427 8.000 L 11.000 8.000 11.000 12.573 C 11.000 17.714,10.981 17.383,11.299 17.701 C 11.690 18.092,12.310 18.092,12.701 17.701 C 13.019 17.383,13.000 17.714,13.000 12.573 L 13.000 8.000 14.573 8.000 C 16.362 8.000,16.409 7.994,16.701 7.701 C 17.092 7.310,17.092 6.690,16.701 6.299 C 16.384 5.982,16.666 6.000,11.983 6.003 C 8.320 6.006,7.799 6.014,7.643 6.069 " stroke="none" fill-rule="evenodd"></path></svg>