<svg xmlns="http://www.w3.org/2000/svg" width="24" height="24" fill="currentColor" class="mmi mmi-alphabet-J" viewBox="0 0 24 24"><path d="M11.200 0.025 C 7.091 0.332,3.508 2.609,1.507 6.186 C 0.775 7.494,0.317 8.899,0.094 10.520 C -0.002 11.214,-0.002 12.786,0.094 13.480 C 0.317 15.101,0.775 16.506,1.507 17.814 C 4.173 22.579,9.604 24.939,14.910 23.637 C 19.156 22.595,22.595 19.156,23.637 14.910 C 24.599 10.992,23.592 6.970,20.896 3.958 C 19.003 1.843,16.397 0.483,13.500 0.099 C 13.032 0.037,11.640 -0.007,11.200 0.025 M12.920 2.043 C 14.827 2.219,16.631 2.940,18.200 4.155 C 18.637 4.493,19.507 5.363,19.845 5.800 C 21.878 8.427,22.517 11.768,21.578 14.865 C 21.082 16.499,20.272 17.850,19.061 19.061 C 18.287 19.836,17.547 20.383,16.623 20.863 C 13.714 22.376,10.286 22.376,7.377 20.863 C 6.454 20.383,5.715 19.837,4.938 19.061 C 3.951 18.075,3.213 16.964,2.722 15.728 C 1.390 12.368,1.921 8.686,4.153 5.800 C 4.491 5.363,5.363 4.491,5.800 4.153 C 7.114 3.137,8.541 2.486,10.125 2.181 C 11.037 2.006,12.003 1.958,12.920 2.043 M8.643 6.069 C 8.291 6.193,8.000 6.614,8.000 7.000 C 8.000 7.242,8.119 7.521,8.299 7.701 C 8.600 8.002,8.581 8.000,10.927 8.000 L 13.000 8.000 13.000 11.590 C 12.999 14.541,12.989 15.217,12.943 15.391 C 12.747 16.125,12.003 16.611,11.273 16.479 C 10.784 16.391,10.363 16.078,10.138 15.635 C 9.948 15.261,9.687 15.081,9.292 15.049 C 8.695 15.001,8.243 15.424,8.241 16.034 C 8.240 16.257,8.261 16.328,8.420 16.634 C 8.646 17.068,8.991 17.486,9.346 17.755 C 9.664 17.997,10.235 18.286,10.580 18.381 C 10.940 18.479,11.826 18.503,12.198 18.424 C 13.492 18.150,14.458 17.249,14.867 15.938 L 14.979 15.580 14.991 11.790 C 15.002 8.184,15.007 8.000,15.074 8.000 C 15.246 8.000,15.544 7.858,15.701 7.701 C 16.092 7.310,16.092 6.690,15.701 6.299 C 15.389 5.987,15.547 6.000,11.983 6.003 C 9.226 6.006,8.797 6.014,8.643 6.069 " stroke="none" fill-rule="evenodd"></path></svg>