<svg xmlns="http://www.w3.org/2000/svg" width="24" height="24" fill="currentColor" class="mmi mmi-alphabet-O" viewBox="0 0 24 24"><path d="M11.200 0.025 C 7.091 0.332,3.508 2.609,1.507 6.186 C 0.775 7.494,0.317 8.899,0.094 10.520 C -0.002 11.214,-0.002 12.786,0.094 13.480 C 0.317 15.101,0.775 16.506,1.507 17.814 C 4.173 22.579,9.604 24.939,14.910 23.637 C 19.156 22.595,22.595 19.156,23.637 14.910 C 24.599 10.992,23.592 6.970,20.896 3.958 C 19.003 1.843,16.397 0.483,13.500 0.099 C 13.032 0.037,11.640 -0.007,11.200 0.025 M12.920 2.043 C 14.827 2.219,16.631 2.940,18.200 4.155 C 18.637 4.493,19.507 5.363,19.845 5.800 C 21.878 8.427,22.517 11.768,21.578 14.865 C 21.082 16.499,20.272 17.850,19.061 19.061 C 18.287 19.836,17.547 20.383,16.623 20.863 C 13.714 22.376,10.286 22.376,7.377 20.863 C 6.454 20.383,5.715 19.837,4.938 19.061 C 3.951 18.075,3.213 16.964,2.722 15.728 C 1.390 12.368,1.921 8.686,4.153 5.800 C 4.491 5.363,5.363 4.491,5.800 4.153 C 7.114 3.137,8.541 2.486,10.125 2.181 C 11.037 2.006,12.003 1.958,12.920 2.043 M11.300 5.043 C 8.698 5.356,6.893 7.415,6.562 10.448 C 6.459 11.399,6.533 12.729,6.740 13.648 C 6.952 14.586,7.390 15.598,7.886 16.298 C 8.697 17.440,9.853 18.194,11.135 18.418 C 11.590 18.497,12.410 18.497,12.865 18.418 C 15.282 17.997,17.037 15.799,17.419 12.717 C 17.490 12.145,17.499 11.012,17.438 10.448 C 17.224 8.485,16.357 6.850,15.038 5.924 C 14.474 5.528,13.727 5.218,13.040 5.097 C 12.610 5.021,11.717 4.993,11.300 5.043 M12.880 7.100 C 13.023 7.137,13.311 7.249,13.519 7.349 C 13.850 7.508,13.947 7.580,14.279 7.915 C 14.536 8.174,14.716 8.400,14.832 8.606 C 15.713 10.170,15.722 12.754,14.853 14.515 C 14.223 15.791,13.211 16.492,12.000 16.492 C 11.020 16.492,10.194 16.051,9.550 15.183 C 8.323 13.530,8.143 10.427,9.168 8.606 C 9.406 8.183,9.999 7.589,10.380 7.393 C 10.707 7.224,10.959 7.134,11.320 7.058 C 11.662 6.985,12.528 7.009,12.880 7.100 " stroke="none" fill-rule="evenodd"></path></svg>