<svg xmlns="http://www.w3.org/2000/svg" width="24" height="24" fill="currentColor" class="mmi mmi-alphabet-K" viewBox="0 0 24 24"><path d="M11.200 0.025 C 7.091 0.332,3.508 2.609,1.507 6.186 C 0.775 7.494,0.317 8.899,0.094 10.520 C -0.002 11.214,-0.002 12.786,0.094 13.480 C 0.317 15.101,0.775 16.506,1.507 17.814 C 4.173 22.579,9.604 24.939,14.910 23.637 C 19.156 22.595,22.595 19.156,23.637 14.910 C 24.599 10.992,23.592 6.970,20.896 3.958 C 19.003 1.843,16.397 0.483,13.500 0.099 C 13.032 0.037,11.640 -0.007,11.200 0.025 M12.920 2.043 C 14.827 2.219,16.631 2.940,18.200 4.155 C 18.637 4.493,19.507 5.363,19.845 5.800 C 21.878 8.427,22.517 11.768,21.578 14.865 C 21.082 16.499,20.272 17.850,19.061 19.061 C 18.287 19.836,17.547 20.383,16.623 20.863 C 13.714 22.376,10.286 22.376,7.377 20.863 C 6.454 20.383,5.715 19.837,4.938 19.061 C 3.951 18.075,3.213 16.964,2.722 15.728 C 1.390 12.368,1.921 8.686,4.153 5.800 C 4.491 5.363,5.363 4.491,5.800 4.153 C 7.114 3.137,8.541 2.486,10.125 2.181 C 11.037 2.006,12.003 1.958,12.920 2.043 M7.643 6.069 C 7.546 6.103,7.392 6.206,7.300 6.298 C 6.979 6.619,7.000 6.216,7.000 12.000 C 7.000 17.783,6.979 17.381,7.299 17.701 C 7.690 18.092,8.310 18.092,8.701 17.701 C 8.988 17.414,9.000 17.337,9.000 15.801 L 9.000 14.455 10.143 13.478 C 10.771 12.940,11.305 12.500,11.330 12.500 C 11.354 12.500,12.266 13.688,13.357 15.139 C 15.127 17.495,15.359 17.788,15.521 17.870 C 16.328 18.279,17.206 17.564,16.951 16.705 C 16.918 16.593,16.255 15.676,14.877 13.838 L 12.852 11.135 14.807 9.398 C 16.973 7.474,16.960 7.488,16.960 7.031 C 16.960 6.455,16.548 6.040,15.977 6.040 C 15.783 6.040,15.685 6.064,15.525 6.150 C 15.408 6.213,14.360 7.115,13.052 8.280 C 11.804 9.391,10.386 10.640,9.901 11.056 L 9.020 11.812 9.000 9.276 L 8.980 6.740 8.886 6.550 C 8.665 6.101,8.134 5.895,7.643 6.069 " stroke="none" fill-rule="evenodd"></path></svg>