<svg xmlns="http://www.w3.org/2000/svg" width="24" height="24" fill="currentColor" class="mmi mmi-alphabet-R" viewBox="0 0 24 24"><path d="M11.200 0.025 C 7.091 0.332,3.508 2.609,1.507 6.186 C 0.775 7.494,0.317 8.899,0.094 10.520 C -0.002 11.214,-0.002 12.786,0.094 13.480 C 0.317 15.101,0.775 16.506,1.507 17.814 C 4.173 22.579,9.604 24.939,14.910 23.637 C 19.156 22.595,22.595 19.156,23.637 14.910 C 24.599 10.992,23.592 6.970,20.896 3.958 C 19.003 1.843,16.397 0.483,13.500 0.099 C 13.032 0.037,11.640 -0.007,11.200 0.025 M12.920 2.043 C 14.827 2.219,16.631 2.940,18.200 4.155 C 18.637 4.493,19.507 5.363,19.845 5.800 C 21.878 8.427,22.517 11.768,21.578 14.865 C 21.082 16.499,20.272 17.850,19.061 19.061 C 18.287 19.836,17.547 20.383,16.623 20.863 C 13.714 22.376,10.286 22.376,7.377 20.863 C 6.454 20.383,5.715 19.837,4.938 19.061 C 3.951 18.075,3.213 16.964,2.722 15.728 C 1.390 12.368,1.921 8.686,4.153 5.800 C 4.491 5.363,5.363 4.491,5.800 4.153 C 7.114 3.137,8.541 2.486,10.125 2.181 C 11.037 2.006,12.003 1.958,12.920 2.043 M7.643 6.068 C 7.546 6.103,7.392 6.206,7.300 6.298 C 6.979 6.619,7.000 6.216,7.000 12.000 C 7.000 17.783,6.979 17.381,7.299 17.701 C 7.690 18.092,8.310 18.092,8.701 17.701 C 9.002 17.400,9.000 17.419,9.000 15.073 L 9.000 13.000 10.260 13.000 L 11.519 13.000 13.439 15.399 C 15.166 17.557,15.379 17.808,15.558 17.899 C 15.936 18.091,16.475 18.007,16.748 17.714 C 17.003 17.440,17.078 16.925,16.910 16.597 C 16.860 16.500,16.201 15.649,15.446 14.706 C 14.690 13.763,14.088 12.978,14.106 12.962 C 14.125 12.946,14.239 12.911,14.360 12.885 C 14.481 12.860,14.716 12.779,14.881 12.707 C 16.913 11.822,17.620 9.327,16.358 7.500 C 15.892 6.826,15.202 6.344,14.364 6.108 C 14.066 6.024,13.996 6.022,10.940 6.013 C 8.183 6.006,7.799 6.012,7.643 6.068 M14.104 8.133 C 14.413 8.276,14.721 8.585,14.868 8.900 C 14.965 9.107,14.980 9.190,14.980 9.500 C 14.980 9.810,14.965 9.893,14.868 10.100 C 14.721 10.415,14.413 10.724,14.104 10.867 L 13.860 10.980 11.430 10.991 L 9.000 11.002 9.000 9.500 L 9.000 7.998 11.430 8.009 L 13.860 8.020 14.104 8.133 " stroke="none" fill-rule="evenodd"></path></svg>