<svg xmlns="http://www.w3.org/2000/svg" width="24" height="24" fill="currentColor" class="mmi mmi-alphabet-L" viewBox="0 0 24 24"><path d="M11.200 0.025 C 7.091 0.332,3.508 2.609,1.507 6.186 C 0.775 7.494,0.317 8.899,0.094 10.520 C -0.002 11.214,-0.002 12.786,0.094 13.480 C 0.317 15.101,0.775 16.506,1.507 17.814 C 4.173 22.579,9.604 24.939,14.910 23.637 C 19.156 22.595,22.595 19.156,23.637 14.910 C 24.599 10.992,23.592 6.970,20.896 3.958 C 19.003 1.843,16.397 0.483,13.500 0.099 C 13.032 0.037,11.640 -0.007,11.200 0.025 M12.920 2.043 C 14.827 2.219,16.631 2.940,18.200 4.155 C 18.637 4.493,19.507 5.363,19.845 5.800 C 21.878 8.427,22.517 11.768,21.578 14.865 C 21.082 16.499,20.272 17.850,19.061 19.061 C 18.287 19.836,17.547 20.383,16.623 20.863 C 13.714 22.376,10.286 22.376,7.377 20.863 C 6.454 20.383,5.715 19.837,4.938 19.061 C 3.951 18.075,3.213 16.964,2.722 15.728 C 1.390 12.368,1.921 8.686,4.153 5.800 C 4.491 5.363,5.363 4.491,5.800 4.153 C 7.114 3.137,8.541 2.486,10.125 2.181 C 11.037 2.006,12.003 1.958,12.920 2.043 M8.643 6.069 C 8.546 6.103,8.392 6.206,8.300 6.298 C 7.979 6.619,8.000 6.216,8.000 12.000 C 8.000 17.783,7.979 17.381,8.299 17.701 C 8.610 18.013,8.456 18.000,12.000 18.000 C 15.544 18.000,15.390 18.013,15.701 17.701 C 16.092 17.310,16.092 16.690,15.701 16.299 C 15.394 15.992,15.477 16.000,12.573 16.000 L 10.000 16.000 10.000 11.427 C 10.000 6.286,10.019 6.617,9.701 6.299 C 9.424 6.021,9.024 5.934,8.643 6.069 " stroke="none" fill-rule="evenodd"></path></svg>