<svg xmlns="http://www.w3.org/2000/svg" width="24" height="24" fill="currentColor" class="mmi mmi-alphabet-C" viewBox="0 0 24 24"><path d="M11.200 0.025 C 7.091 0.332,3.508 2.609,1.507 6.186 C 0.775 7.494,0.317 8.899,0.094 10.520 C -0.002 11.214,-0.002 12.786,0.094 13.480 C 0.317 15.101,0.775 16.506,1.507 17.814 C 4.173 22.579,9.604 24.939,14.910 23.637 C 19.156 22.595,22.595 19.156,23.637 14.910 C 24.599 10.992,23.592 6.970,20.896 3.958 C 19.003 1.843,16.397 0.483,13.500 0.099 C 13.032 0.037,11.640 -0.007,11.200 0.025 M12.920 2.043 C 14.827 2.219,16.631 2.940,18.200 4.155 C 18.637 4.493,19.507 5.363,19.845 5.800 C 21.878 8.427,22.517 11.768,21.578 14.865 C 21.082 16.499,20.272 17.850,19.061 19.061 C 18.287 19.836,17.547 20.383,16.623 20.863 C 13.714 22.376,10.286 22.376,7.377 20.863 C 6.454 20.383,5.715 19.837,4.938 19.061 C 3.951 18.075,3.213 16.964,2.722 15.728 C 1.390 12.368,1.921 8.686,4.153 5.800 C 4.491 5.363,5.363 4.491,5.800 4.153 C 7.114 3.137,8.541 2.486,10.125 2.181 C 11.037 2.006,12.003 1.958,12.920 2.043 M11.140 5.584 C 10.574 5.684,10.112 5.836,9.580 6.097 C 8.917 6.422,8.446 6.757,7.941 7.261 C 5.368 9.835,5.368 14.165,7.941 16.739 C 8.446 17.243,8.917 17.578,9.580 17.903 C 10.423 18.316,11.140 18.480,12.097 18.480 C 13.411 18.479,14.519 18.115,15.600 17.328 C 15.971 17.058,16.712 16.315,16.856 16.070 C 17.174 15.528,16.901 14.796,16.316 14.623 C 16.052 14.544,15.948 14.544,15.681 14.623 C 15.493 14.679,15.418 14.739,15.064 15.109 C 14.567 15.628,14.247 15.875,13.780 16.102 C 12.344 16.798,10.715 16.555,9.495 15.463 C 8.824 14.863,8.389 14.117,8.133 13.129 C 8.032 12.739,8.021 12.636,8.021 12.000 C 8.021 11.364,8.032 11.261,8.133 10.871 C 8.389 9.883,8.824 9.137,9.495 8.537 C 10.717 7.444,12.342 7.202,13.780 7.898 C 14.247 8.125,14.567 8.372,15.064 8.891 C 15.418 9.261,15.493 9.321,15.681 9.377 C 15.948 9.456,16.052 9.456,16.316 9.377 C 16.901 9.204,17.174 8.472,16.856 7.930 C 16.712 7.685,15.971 6.942,15.600 6.672 C 14.800 6.090,13.951 5.730,13.021 5.579 C 12.567 5.505,11.569 5.508,11.140 5.584 " stroke="none" fill-rule="evenodd"></path></svg>