<svg xmlns="http://www.w3.org/2000/svg" width="24" height="24" fill="currentColor" class="mmi mmi-alphabet-V" viewBox="0 0 24 24"><path d="M11.200 0.025 C 7.091 0.332,3.508 2.609,1.507 6.186 C 0.775 7.494,0.317 8.899,0.094 10.520 C -0.002 11.214,-0.002 12.786,0.094 13.480 C 0.317 15.101,0.775 16.506,1.507 17.814 C 4.173 22.579,9.604 24.939,14.910 23.637 C 19.156 22.595,22.595 19.156,23.637 14.910 C 24.599 10.992,23.592 6.970,20.896 3.958 C 19.003 1.843,16.397 0.483,13.500 0.099 C 13.032 0.037,11.640 -0.007,11.200 0.025 M12.920 2.043 C 14.827 2.219,16.631 2.940,18.200 4.155 C 18.637 4.493,19.507 5.363,19.845 5.800 C 21.878 8.427,22.517 11.768,21.578 14.865 C 21.082 16.499,20.272 17.850,19.061 19.061 C 18.287 19.836,17.547 20.383,16.623 20.863 C 13.714 22.376,10.286 22.376,7.377 20.863 C 6.454 20.383,5.715 19.837,4.938 19.061 C 3.951 18.075,3.213 16.964,2.722 15.728 C 1.390 12.368,1.921 8.686,4.153 5.800 C 4.491 5.363,5.363 4.491,5.800 4.153 C 7.114 3.137,8.541 2.486,10.125 2.181 C 11.037 2.006,12.003 1.958,12.920 2.043 M15.664 6.063 C 15.440 6.145,15.256 6.297,15.147 6.491 C 15.095 6.584,14.370 8.455,13.536 10.650 C 12.703 12.845,12.011 14.640,12.000 14.640 C 11.988 14.640,11.306 12.872,10.483 10.710 C 9.661 8.549,8.946 6.697,8.896 6.594 C 8.431 5.661,7.021 5.982,7.026 7.019 C 7.028 7.239,7.202 7.718,9.017 12.480 C 10.112 15.351,11.044 17.785,11.088 17.890 C 11.180 18.104,11.407 18.329,11.624 18.419 C 11.811 18.497,12.189 18.497,12.376 18.419 C 12.593 18.329,12.820 18.104,12.912 17.890 C 13.203 17.210,16.975 7.228,16.990 7.096 C 17.001 7.003,16.980 6.832,16.943 6.703 C 16.788 6.171,16.188 5.871,15.664 6.063 " stroke="none" fill-rule="evenodd"></path></svg>