<svg xmlns="http://www.w3.org/2000/svg" width="24" height="24" fill="currentColor" class="mmi mmi-alphabet-P" viewBox="0 0 24 24"><path d="M11.200 0.025 C 7.091 0.332,3.508 2.609,1.507 6.186 C 0.775 7.494,0.317 8.899,0.094 10.520 C -0.002 11.214,-0.002 12.786,0.094 13.480 C 0.317 15.101,0.775 16.506,1.507 17.814 C 4.173 22.579,9.604 24.939,14.910 23.637 C 19.156 22.595,22.595 19.156,23.637 14.910 C 24.599 10.992,23.592 6.970,20.896 3.958 C 19.003 1.843,16.397 0.483,13.500 0.099 C 13.032 0.037,11.640 -0.007,11.200 0.025 M12.920 2.043 C 14.827 2.219,16.631 2.940,18.200 4.155 C 18.637 4.493,19.507 5.363,19.845 5.800 C 21.878 8.427,22.517 11.768,21.578 14.865 C 21.082 16.499,20.272 17.850,19.061 19.061 C 18.287 19.836,17.547 20.383,16.623 20.863 C 13.714 22.376,10.286 22.376,7.377 20.863 C 6.454 20.383,5.715 19.837,4.938 19.061 C 3.951 18.075,3.213 16.964,2.722 15.728 C 1.390 12.368,1.921 8.686,4.153 5.800 C 4.491 5.363,5.363 4.491,5.800 4.153 C 7.114 3.137,8.541 2.486,10.125 2.181 C 11.037 2.006,12.003 1.958,12.920 2.043 M8.643 6.068 C 8.546 6.102,8.392 6.206,8.300 6.298 C 7.979 6.619,8.000 6.216,8.000 12.000 C 8.000 17.783,7.979 17.381,8.299 17.701 C 8.690 18.092,9.310 18.092,9.701 17.701 C 9.993 17.409,10.000 17.362,10.000 15.575 L 10.000 14.005 12.050 13.990 C 14.376 13.973,14.317 13.980,15.020 13.639 C 15.679 13.320,16.123 12.892,16.478 12.232 C 16.839 11.565,16.977 10.946,16.977 10.000 C 16.977 9.054,16.839 8.435,16.478 7.768 C 16.036 6.947,15.320 6.372,14.420 6.115 C 14.103 6.024,14.076 6.023,11.460 6.014 C 9.134 6.005,8.799 6.012,8.643 6.068 M14.087 8.106 C 14.494 8.294,14.790 8.694,14.925 9.240 C 14.958 9.372,14.980 9.677,14.980 10.000 C 14.980 10.323,14.958 10.628,14.925 10.760 C 14.790 11.306,14.494 11.706,14.087 11.894 C 13.905 11.978,13.851 11.980,11.950 11.992 L 10.000 12.004 10.000 10.000 L 10.000 7.996 11.950 8.008 C 13.851 8.020,13.905 8.022,14.087 8.106 " stroke="none" fill-rule="evenodd"></path></svg>