<svg xmlns="http://www.w3.org/2000/svg" width="24" height="24" fill="currentColor" class="mmi mmi-ambulance" viewBox="0 0 24 24"><path d="M2.503 3.042 C 1.574 3.198,0.727 3.840,0.312 4.704 C -0.004 5.360,0.023 4.721,0.010 11.797 C -0.003 18.923,-0.026 18.376,0.298 18.700 C 0.580 18.982,0.683 19.000,2.009 19.000 L 3.163 19.000 3.241 19.182 C 3.601 20.023,4.406 20.697,5.320 20.924 C 5.604 20.995,6.396 20.995,6.680 20.924 C 7.596 20.697,8.380 20.041,8.752 19.190 L 8.836 19.000 11.999 19.000 L 15.163 19.000 15.241 19.182 C 15.601 20.023,16.406 20.697,17.320 20.924 C 17.604 20.995,18.396 20.995,18.680 20.924 C 19.596 20.697,20.380 20.041,20.752 19.190 L 20.836 19.000 21.991 19.000 C 23.318 19.000,23.420 18.982,23.702 18.700 C 24.018 18.384,24.003 18.607,23.991 14.438 L 23.980 10.740 22.686 7.720 C 21.974 6.059,21.312 4.571,21.215 4.414 C 20.902 3.905,20.384 3.466,19.819 3.228 C 19.251 2.989,19.671 3.000,10.806 3.005 C 6.348 3.007,2.611 3.024,2.503 3.042 M15.010 7.270 C 15.027 9.793,15.015 9.680,15.312 10.296 C 15.614 10.924,16.095 11.398,16.740 11.704 C 17.342 11.989,17.460 12.000,19.884 12.000 L 22.000 12.000 22.000 14.500 L 22.000 17.000 21.419 17.000 L 20.837 17.000 20.759 16.818 C 20.543 16.315,20.107 15.799,19.642 15.499 C 19.102 15.150,18.660 15.021,18.000 15.021 C 17.340 15.021,16.898 15.150,16.358 15.499 C 15.893 15.799,15.457 16.315,15.241 16.818 L 15.163 17.000 12.000 17.000 L 8.837 17.000 8.759 16.818 C 8.543 16.315,8.107 15.799,7.642 15.499 C 7.102 15.150,6.660 15.021,6.000 15.021 C 5.340 15.021,4.898 15.150,4.358 15.499 C 3.893 15.799,3.457 16.315,3.241 16.818 L 3.163 17.000 2.581 17.000 L 1.999 17.000 2.009 11.350 L 2.020 5.700 2.131 5.511 C 2.256 5.298,2.449 5.136,2.670 5.057 C 2.793 5.013,3.927 5.003,8.908 5.002 L 14.996 5.000 15.010 7.270 M19.020 5.066 C 19.427 5.205,19.438 5.225,20.507 7.720 L 21.474 9.980 19.687 9.991 C 18.408 10.000,17.851 9.989,17.728 9.956 C 17.487 9.890,17.265 9.716,17.133 9.492 L 17.020 9.300 17.009 7.150 L 16.997 5.000 17.912 5.000 C 18.657 5.000,18.862 5.012,19.020 5.066 M8.664 7.063 C 8.436 7.146,8.257 7.297,8.131 7.511 C 8.024 7.693,8.020 7.723,8.007 8.350 L 7.993 9.000 7.422 9.000 C 6.631 9.000,6.371 9.103,6.131 9.511 C 6.036 9.672,6.020 9.744,6.020 10.000 C 6.020 10.256,6.036 10.328,6.131 10.489 C 6.371 10.898,6.631 11.000,7.425 11.000 L 8.000 11.000 8.000 11.570 C 8.000 12.219,8.031 12.370,8.212 12.607 C 8.570 13.076,9.281 13.121,9.700 12.702 C 9.949 12.454,10.000 12.260,10.000 11.573 L 10.000 11.000 10.573 11.000 C 11.259 11.000,11.454 10.948,11.701 10.701 C 12.092 10.310,12.092 9.690,11.701 9.299 C 11.454 9.052,11.259 9.000,10.573 9.000 L 10.000 9.000 10.000 8.427 C 10.000 7.741,9.948 7.546,9.701 7.299 C 9.429 7.027,9.018 6.933,8.664 7.063 M6.340 17.066 C 6.709 17.192,7.000 17.604,7.000 18.000 C 7.000 18.242,6.881 18.521,6.701 18.701 C 6.234 19.168,5.470 19.065,5.131 18.489 C 5.036 18.328,5.020 18.256,5.020 18.000 C 5.020 17.744,5.036 17.672,5.131 17.511 C 5.386 17.077,5.860 16.903,6.340 17.066 M18.340 17.066 C 18.709 17.192,19.000 17.604,19.000 18.000 C 19.000 18.242,18.881 18.521,18.701 18.701 C 18.234 19.168,17.470 19.065,17.131 18.489 C 17.036 18.328,17.020 18.256,17.020 18.000 C 17.020 17.744,17.036 17.672,17.131 17.511 C 17.386 17.077,17.860 16.903,18.340 17.066 " fill="#000640" stroke="none" fill-rule="evenodd"></path></svg>