<svg xmlns="http://www.w3.org/2000/svg" width="24" height="24" fill="currentColor" class="mmi mmi-americafootball" viewBox="0 0 24 24"><path d="M14.220 0.924 C 11.504 1.176,8.935 2.242,6.680 4.053 C 4.537 5.773,2.837 7.992,1.885 10.312 C 0.768 13.031,0.571 16.122,1.321 19.156 C 1.513 19.936,1.826 20.846,2.004 21.145 C 2.178 21.436,2.564 21.822,2.855 21.996 C 3.328 22.278,4.841 22.726,5.962 22.917 C 6.908 23.078,7.693 23.131,8.800 23.107 C 10.143 23.078,10.989 22.958,12.211 22.622 C 13.646 22.228,15.236 21.462,16.550 20.532 C 18.019 19.492,19.489 18.022,20.532 16.550 C 21.461 15.238,22.228 13.646,22.622 12.211 C 22.958 10.989,23.078 10.143,23.107 8.800 C 23.147 6.953,22.902 5.324,22.340 3.680 C 21.938 2.505,21.496 2.061,20.329 1.664 C 19.274 1.304,18.090 1.051,16.934 0.939 C 16.294 0.877,14.815 0.869,14.220 0.924 M16.220 2.882 C 17.398 2.952,18.397 3.138,19.477 3.488 C 19.926 3.633,20.124 3.718,20.203 3.797 C 20.282 3.876,20.367 4.074,20.512 4.523 C 21.295 6.942,21.341 9.583,20.641 11.856 C 20.343 12.823,19.814 13.984,19.300 14.800 C 18.585 15.933,17.499 17.177,16.408 18.112 C 15.060 19.266,13.494 20.137,11.856 20.641 C 9.579 21.343,6.945 21.296,4.523 20.512 C 4.074 20.367,3.876 20.282,3.797 20.203 C 3.660 20.066,3.342 19.107,3.166 18.300 C 2.217 13.938,3.503 9.841,6.846 6.578 C 8.947 4.527,11.326 3.323,14.000 2.958 C 14.284 2.919,14.889 2.872,15.420 2.846 C 15.486 2.843,15.846 2.859,16.220 2.882 M16.800 6.037 C 16.531 6.093,16.375 6.213,15.691 6.893 L 15.002 7.577 14.551 7.134 C 14.303 6.890,14.039 6.659,13.964 6.621 C 13.753 6.514,13.397 6.495,13.174 6.580 C 12.751 6.742,12.495 7.140,12.530 7.580 C 12.541 7.714,12.581 7.886,12.620 7.962 C 12.659 8.038,12.890 8.303,13.134 8.551 L 13.578 9.002 12.790 9.789 L 12.003 10.577 11.512 10.095 C 10.970 9.563,10.860 9.502,10.460 9.505 C 10.191 9.507,10.013 9.580,9.806 9.774 C 9.594 9.975,9.506 10.181,9.506 10.480 C 9.506 10.847,9.605 11.017,10.133 11.550 L 10.579 12.001 9.791 12.788 L 9.003 13.576 8.532 13.115 C 7.983 12.578,7.837 12.501,7.426 12.527 C 6.917 12.559,6.559 12.917,6.527 13.426 C 6.501 13.837,6.578 13.983,7.115 14.532 L 7.576 15.003 6.892 15.692 C 6.125 16.463,6.031 16.603,6.028 16.981 C 6.022 17.548,6.445 17.970,7.022 17.970 C 7.393 17.970,7.535 17.875,8.310 17.107 L 8.999 16.424 9.450 16.867 C 9.697 17.110,9.961 17.341,10.036 17.379 C 10.247 17.486,10.603 17.505,10.826 17.420 C 11.249 17.258,11.505 16.860,11.470 16.420 C 11.459 16.286,11.419 16.114,11.380 16.038 C 11.341 15.962,11.110 15.697,10.866 15.449 L 10.422 14.998 11.210 14.210 L 11.998 13.422 12.449 13.866 C 12.697 14.110,12.961 14.341,13.036 14.379 C 13.247 14.486,13.603 14.505,13.826 14.420 C 14.249 14.258,14.505 13.860,14.470 13.420 C 14.459 13.286,14.419 13.114,14.380 13.038 C 14.341 12.962,14.110 12.697,13.866 12.449 L 13.422 11.998 14.210 11.210 L 14.998 10.422 15.449 10.866 C 15.697 11.110,15.962 11.341,16.038 11.380 C 16.114 11.419,16.286 11.459,16.420 11.470 C 16.860 11.505,17.258 11.249,17.420 10.826 C 17.505 10.603,17.486 10.247,17.379 10.036 C 17.341 9.961,17.110 9.697,16.867 9.450 L 16.424 8.999 17.107 8.310 C 17.520 7.893,17.826 7.549,17.880 7.442 C 17.987 7.229,18.001 6.855,17.910 6.637 C 17.732 6.212,17.239 5.945,16.800 6.037 " stroke="none" fill-rule="evenodd"></path></svg>