<svg xmlns="http://www.w3.org/2000/svg" width="24" height="24" fill="currentColor" class="mmi mmi-analogcamera" viewBox="0 0 24 24"><path d="M5.674 1.059 C 5.229 1.224,5.164 1.337,4.683 2.774 L 4.276 3.988 3.868 4.013 C 3.377 4.043,3.131 4.106,2.704 4.312 C 2.075 4.614,1.599 5.097,1.298 5.740 C 1.000 6.374,1.020 5.892,1.020 12.500 C 1.020 19.108,1.000 18.626,1.298 19.260 C 1.606 19.918,2.079 20.391,2.740 20.704 C 3.409 21.021,2.760 21.000,12.000 21.000 C 21.240 21.000,20.591 21.021,21.260 20.704 C 21.920 20.391,22.391 19.920,22.704 19.260 C 23.015 18.602,23.000 18.949,23.000 12.500 C 23.000 6.051,23.015 6.398,22.704 5.740 C 22.398 5.095,21.924 4.614,21.296 4.312 C 20.662 4.007,20.924 4.026,17.128 4.002 L 13.716 3.980 13.314 2.767 C 12.869 1.427,12.802 1.298,12.461 1.122 L 12.262 1.020 9.041 1.012 C 6.417 1.006,5.793 1.015,5.674 1.059 M11.682 4.225 C 12.135 5.576,12.201 5.704,12.539 5.878 L 12.738 5.980 16.499 6.000 L 20.260 6.020 20.450 6.114 C 20.555 6.165,20.694 6.272,20.759 6.351 C 21.014 6.661,21.000 6.296,21.000 12.500 C 21.000 18.843,21.022 18.380,20.701 18.701 C 20.376 19.026,21.144 19.000,11.998 19.000 C 3.106 19.000,3.684 19.015,3.374 18.778 C 3.301 18.723,3.192 18.592,3.131 18.489 L 3.020 18.300 3.009 12.586 C 3.003 8.830,3.013 6.821,3.039 6.722 C 3.099 6.502,3.290 6.261,3.508 6.133 C 3.697 6.022,3.713 6.020,4.481 6.000 C 5.220 5.981,5.273 5.974,5.461 5.878 C 5.798 5.704,5.867 5.573,6.297 4.275 C 6.512 3.629,6.694 3.078,6.702 3.050 C 6.714 3.011,7.208 3.000,8.995 3.000 L 11.272 3.000 11.682 4.225 M8.433 8.040 C 7.843 8.134,7.221 8.380,6.731 8.712 C 5.955 9.240,5.394 10.037,5.130 10.989 C 5.034 11.337,5.022 11.449,5.022 12.000 C 5.022 12.553,5.034 12.663,5.132 13.017 C 5.475 14.256,6.357 15.252,7.520 15.715 C 9.334 16.437,11.462 15.710,12.444 14.033 C 13.503 12.224,12.985 9.878,11.269 8.712 C 10.917 8.473,10.343 8.214,9.958 8.120 C 9.572 8.026,8.783 7.984,8.433 8.040 M16.643 9.069 C 16.291 9.193,16.000 9.614,16.000 10.000 C 16.000 10.242,16.119 10.521,16.299 10.701 C 16.553 10.955,16.734 11.000,17.500 11.000 C 18.266 11.000,18.447 10.955,18.701 10.701 C 19.092 10.310,19.092 9.690,18.701 9.299 C 18.445 9.042,18.267 8.999,17.483 9.003 C 16.991 9.005,16.774 9.022,16.643 9.069 M9.383 10.043 C 10.185 10.190,10.839 10.872,10.967 11.695 C 11.153 12.894,10.209 14.000,9.000 14.000 C 8.032 14.000,7.183 13.268,7.033 12.305 C 6.933 11.663,7.132 11.061,7.596 10.596 C 8.085 10.108,8.698 9.918,9.383 10.043 M16.643 13.069 C 16.291 13.193,16.000 13.614,16.000 14.000 C 16.000 14.242,16.119 14.521,16.299 14.701 C 16.553 14.955,16.734 15.000,17.500 15.000 C 18.266 15.000,18.447 14.955,18.701 14.701 C 19.092 14.310,19.092 13.690,18.701 13.299 C 18.445 13.042,18.267 12.999,17.483 13.003 C 16.991 13.005,16.774 13.022,16.643 13.069 " fill="#000640" stroke="none" fill-rule="evenodd"></path></svg>