<svg xmlns="http://www.w3.org/2000/svg" width="24" height="24" fill="currentColor" class="mmi mmi-anchor" viewBox="0 0 24 24"><path d="M11.420 1.041 C 11.047 1.099,10.533 1.271,10.160 1.463 C 9.173 1.971,8.429 2.911,8.134 4.021 C 8.043 4.365,8.028 4.500,8.028 5.000 C 8.028 5.500,8.043 5.635,8.134 5.980 C 8.505 7.383,9.510 8.417,10.930 8.856 C 10.968 8.868,11.000 8.905,11.000 8.939 C 11.000 8.992,10.864 9.000,9.925 9.000 C 8.764 9.000,8.642 9.017,8.374 9.222 C 8.301 9.277,8.192 9.408,8.131 9.511 C 8.036 9.672,8.020 9.744,8.020 10.000 C 8.020 10.256,8.036 10.328,8.131 10.489 C 8.192 10.592,8.301 10.723,8.374 10.778 C 8.642 10.983,8.764 11.000,9.925 11.000 L 11.000 11.000 11.000 15.980 L 11.000 20.961 10.830 20.937 C 9.964 20.816,9.316 20.667,8.620 20.429 C 6.033 19.542,3.978 17.654,3.257 15.501 C 3.182 15.275,3.120 15.070,3.120 15.045 C 3.120 15.014,3.280 15.000,3.633 15.000 C 4.254 15.000,4.460 14.942,4.701 14.701 C 5.092 14.310,5.092 13.690,4.701 13.299 C 4.420 13.018,4.316 13.000,2.998 13.000 C 1.758 13.000,1.645 13.015,1.374 13.222 C 1.041 13.476,0.945 13.888,1.036 14.664 C 1.323 17.097,2.836 19.366,5.240 20.967 C 9.306 23.674,14.694 23.674,18.760 20.967 C 21.140 19.382,22.660 17.120,22.958 14.721 C 23.054 13.950,22.988 13.586,22.701 13.299 C 22.420 13.018,22.316 13.000,20.998 13.000 C 19.758 13.000,19.645 13.015,19.374 13.222 C 19.301 13.277,19.192 13.408,19.131 13.511 C 19.036 13.672,19.020 13.744,19.020 14.000 C 19.020 14.256,19.036 14.328,19.131 14.489 C 19.366 14.888,19.636 15.000,20.365 15.000 C 20.719 15.000,20.880 15.014,20.880 15.045 C 20.880 15.070,20.817 15.278,20.740 15.509 C 20.022 17.652,17.962 19.544,15.380 20.429 C 14.684 20.667,14.036 20.816,13.170 20.937 L 13.000 20.961 13.000 15.980 L 13.000 11.000 14.073 11.000 C 15.308 11.000,15.423 10.979,15.701 10.701 C 16.092 10.310,16.092 9.690,15.701 9.299 C 15.423 9.021,15.308 9.000,14.070 9.000 C 13.098 9.000,12.995 8.994,13.007 8.935 C 13.015 8.895,13.121 8.836,13.280 8.782 C 13.683 8.645,13.885 8.546,14.225 8.316 C 15.050 7.760,15.622 6.938,15.886 5.932 C 15.963 5.637,15.978 5.482,15.976 4.980 C 15.975 4.464,15.960 4.326,15.871 3.995 C 15.617 3.054,15.046 2.240,14.269 1.712 C 13.917 1.473,13.343 1.214,12.958 1.120 C 12.568 1.025,11.785 0.985,11.420 1.041 M12.383 3.043 C 13.185 3.190,13.839 3.872,13.967 4.695 C 14.153 5.894,13.209 7.000,12.000 7.000 C 11.032 7.000,10.183 6.268,10.033 5.305 C 9.933 4.663,10.132 4.061,10.596 3.596 C 11.085 3.108,11.698 2.918,12.383 3.043 " fill="#000640" stroke="none" fill-rule="evenodd"></path></svg>