<svg xmlns="http://www.w3.org/2000/svg" width="24" height="24" fill="currentColor" class="mmi mmi-angry" viewBox="0 0 24 24"><path d="M11.200 0.025 C 7.091 0.332,3.508 2.609,1.507 6.186 C 0.775 7.494,0.317 8.899,0.094 10.520 C -0.002 11.214,-0.002 12.786,0.094 13.480 C 0.317 15.101,0.775 16.506,1.507 17.814 C 4.173 22.579,9.604 24.939,14.910 23.637 C 19.156 22.595,22.595 19.156,23.637 14.910 C 24.599 10.992,23.592 6.970,20.896 3.958 C 19.003 1.843,16.397 0.483,13.500 0.099 C 13.032 0.037,11.640 -0.007,11.200 0.025 M12.920 2.043 C 14.827 2.219,16.631 2.940,18.200 4.155 C 18.637 4.493,19.507 5.363,19.845 5.800 C 21.878 8.427,22.517 11.768,21.578 14.865 C 21.082 16.499,20.272 17.850,19.061 19.061 C 18.287 19.836,17.547 20.383,16.623 20.863 C 13.714 22.376,10.286 22.376,7.377 20.863 C 6.454 20.383,5.715 19.837,4.938 19.061 C 3.951 18.075,3.213 16.964,2.722 15.728 C 1.390 12.368,1.921 8.686,4.153 5.800 C 4.491 5.363,5.363 4.491,5.800 4.153 C 7.114 3.137,8.541 2.486,10.125 2.181 C 11.037 2.006,12.003 1.958,12.920 2.043 M5.643 8.069 C 5.290 8.194,5.000 8.614,5.000 9.002 C 5.000 9.182,5.088 9.443,5.204 9.606 C 5.306 9.749,8.455 11.860,8.690 11.943 C 9.309 12.162,10.000 11.663,10.000 10.998 C 10.000 10.818,9.912 10.557,9.796 10.394 C 9.694 10.251,6.545 8.140,6.310 8.057 C 6.107 7.985,5.869 7.989,5.643 8.069 M17.676 8.059 C 17.445 8.144,14.300 10.260,14.204 10.394 C 14.088 10.557,14.000 10.818,14.000 10.998 C 14.000 11.663,14.691 12.162,15.310 11.943 C 15.545 11.860,18.694 9.749,18.796 9.606 C 19.093 9.189,19.052 8.650,18.697 8.295 C 18.435 8.033,18.012 7.935,17.676 8.059 M11.345 14.043 C 9.650 14.278,8.189 15.335,7.390 16.906 C 7.081 17.513,6.983 17.824,7.012 18.102 C 7.097 18.932,8.110 19.294,8.698 18.704 C 8.812 18.589,8.900 18.439,8.992 18.200 C 9.177 17.724,9.390 17.382,9.721 17.027 C 11.383 15.247,14.120 15.873,15.025 18.240 C 15.263 18.862,15.768 19.129,16.340 18.934 C 16.711 18.807,17.000 18.396,17.000 17.994 C 17.000 17.784,16.913 17.539,16.641 16.978 C 15.914 15.482,14.577 14.430,12.980 14.100 C 12.595 14.020,11.725 13.990,11.345 14.043 " stroke="none" fill-rule="evenodd"></path></svg>