<svg xmlns="http://www.w3.org/2000/svg" width="24" height="24" fill="currentColor" class="mmi mmi-anonymous" viewBox="0 0 24 24"><path d="M11.070 2.043 C 9.203 2.198,7.395 2.904,5.820 4.093 C 5.439 4.381,4.461 5.347,4.153 5.740 C 2.742 7.538,2.000 9.696,2.000 12.000 C 2.000 14.304,2.744 16.467,4.153 18.260 C 4.437 18.621,5.379 19.563,5.740 19.847 C 7.533 21.256,9.696 22.000,12.000 22.000 C 14.339 22.000,16.533 21.231,18.340 19.778 C 18.750 19.448,19.517 18.675,19.845 18.260 C 21.248 16.488,22.000 14.303,22.000 12.000 C 22.000 9.659,21.234 7.473,19.778 5.660 C 19.424 5.218,18.611 4.423,18.180 4.095 C 17.139 3.303,15.934 2.697,14.760 2.375 C 13.585 2.053,12.327 1.940,11.070 2.043 M13.620 3.617 C 14.904 3.826,15.942 4.216,16.920 4.857 C 18.638 5.982,19.842 7.756,20.272 9.800 C 20.434 10.569,20.460 10.872,20.459 12.000 C 20.458 12.951,20.446 13.165,20.371 13.580 C 20.188 14.596,19.820 15.612,19.348 16.405 C 19.090 16.839,18.646 17.480,18.604 17.480 C 18.591 17.480,15.862 14.761,12.540 11.439 L 6.500 5.397 6.600 5.318 C 7.115 4.906,8.081 4.360,8.836 4.054 C 9.268 3.878,10.109 3.662,10.580 3.604 C 10.778 3.580,10.985 3.552,11.040 3.543 C 11.299 3.500,13.240 3.556,13.620 3.617 M11.260 5.977 C 10.827 6.077,10.113 6.367,9.910 6.525 C 9.846 6.575,10.062 6.802,12.274 9.014 L 14.708 11.448 14.835 11.314 C 15.017 11.122,15.184 10.761,15.304 10.300 C 15.391 9.968,15.409 9.809,15.410 9.360 C 15.412 8.771,15.362 8.487,15.168 7.987 C 14.819 7.089,13.960 6.319,12.993 6.037 C 12.614 5.926,11.628 5.892,11.260 5.977 M8.660 9.839 C 8.829 11.218,9.640 12.214,10.890 12.576 C 11.080 12.631,11.370 12.688,11.533 12.703 L 11.831 12.730 13.505 14.406 C 14.978 15.880,15.160 16.075,15.012 16.024 C 14.919 15.991,14.640 15.919,14.392 15.864 C 12.728 15.492,10.802 15.528,9.265 15.960 C 8.413 16.200,7.143 16.769,6.111 17.373 L 5.602 17.671 5.454 17.491 C 5.184 17.161,4.655 16.336,4.431 15.895 C 3.796 14.645,3.520 13.454,3.520 11.958 C 3.520 11.136,3.589 10.518,3.763 9.800 C 4.014 8.759,4.571 7.616,5.271 6.706 L 5.451 6.472 7.044 8.064 C 8.601 9.620,8.638 9.662,8.660 9.839 " fill="#090909" stroke="none" fill-rule="evenodd"></path></svg>