<svg xmlns="http://www.w3.org/2000/svg" width="24" height="24" fill="currentColor" class="mmi mmi-arrow-upleft" viewBox="0 0 24 24"><path d="M5.664 5.063 C 5.436 5.146,5.257 5.297,5.131 5.511 L 5.020 5.700 5.009 10.914 C 5.002 14.436,5.012 16.177,5.041 16.282 C 5.101 16.506,5.312 16.761,5.531 16.874 C 5.932 17.080,6.390 17.012,6.700 16.702 C 7.017 16.385,7.000 16.631,7.000 12.283 L 7.000 8.421 12.230 13.647 C 17.344 18.757,17.465 18.875,17.677 18.937 C 17.949 19.016,18.013 19.016,18.283 18.936 C 18.581 18.847,18.847 18.581,18.936 18.283 C 19.016 18.013,19.016 17.949,18.937 17.677 C 18.875 17.465,18.757 17.344,13.647 12.230 L 8.421 7.000 12.283 7.000 C 16.629 7.000,16.386 7.016,16.701 6.701 C 17.092 6.310,17.092 5.690,16.701 5.299 C 16.381 4.979,16.786 5.000,10.983 5.003 C 6.607 5.005,5.796 5.014,5.664 5.063 " fill="#000640" stroke="none" fill-rule="evenodd"></path></svg>