<svg xmlns="http://www.w3.org/2000/svg" width="24" height="24" fill="currentColor" class="mmi mmi-arrow-squareline-right" viewBox="0 0 24 24"><path d="M3.503 1.042 C 2.488 1.214,1.556 1.976,1.202 2.925 C 1.002 3.460,1.001 3.477,1.001 6.992 C 1.000 10.586,0.999 10.575,1.234 11.151 C 1.521 11.857,2.143 12.479,2.849 12.766 C 3.438 13.006,3.305 13.000,8.147 13.000 L 12.578 13.000 11.371 14.210 C 10.055 15.530,10.002 15.599,10.001 16.011 C 10.000 16.295,10.078 16.492,10.272 16.695 C 10.475 16.907,10.687 16.998,10.982 16.999 C 11.423 17.001,11.417 17.006,13.745 14.671 C 15.663 12.747,15.876 12.521,15.935 12.343 C 16.017 12.094,16.017 11.906,15.935 11.657 C 15.876 11.479,15.663 11.253,13.745 9.329 C 11.455 7.032,11.417 7.000,11.022 7.000 C 10.721 7.001,10.551 7.062,10.339 7.249 C 10.097 7.462,10.002 7.669,10.002 7.980 C 10.002 8.402,10.049 8.464,11.371 9.790 L 12.578 11.000 8.216 11.000 C 3.311 11.000,3.616 11.019,3.299 10.701 C 2.987 10.390,3.000 10.544,3.000 7.000 C 3.000 3.456,2.987 3.610,3.299 3.299 C 3.624 2.974,2.856 3.000,12.000 3.000 C 21.144 3.000,20.376 2.974,20.701 3.299 C 21.026 3.624,21.000 2.856,21.000 12.000 C 21.000 21.144,21.026 20.376,20.701 20.701 C 20.376 21.026,21.144 21.000,12.000 21.000 C 2.856 21.000,3.624 21.026,3.299 20.701 C 3.018 20.421,3.000 20.316,3.000 19.000 C 3.000 17.683,2.982 17.580,2.700 17.298 C 2.390 16.988,1.932 16.920,1.531 17.126 C 1.315 17.238,1.103 17.491,1.042 17.711 C 0.972 17.961,0.988 20.225,1.062 20.581 C 1.310 21.785,2.215 22.690,3.419 22.938 C 3.681 22.993,4.700 23.000,12.000 23.000 C 21.073 23.000,20.544 23.013,21.150 22.767 C 21.850 22.482,22.482 21.850,22.767 21.150 C 23.013 20.544,23.000 21.073,23.000 12.000 C 23.000 2.925,23.014 3.457,22.766 2.849 C 22.499 2.193,21.964 1.633,21.296 1.312 C 20.634 0.993,21.532 1.022,12.120 1.015 C 7.489 1.012,3.611 1.024,3.503 1.042 " fill="#000640" stroke="none" fill-rule="evenodd"></path></svg>