<svg xmlns="http://www.w3.org/2000/svg" width="24" height="24" fill="currentColor" class="mmi mmi-arrow-squareline-left" viewBox="0 0 24 24"><path d="M3.503 1.042 C 2.488 1.214,1.556 1.976,1.202 2.925 C 0.992 3.487,1.001 3.068,1.001 11.992 C 1.000 21.076,0.986 20.543,1.234 21.151 C 1.521 21.857,2.143 22.479,2.849 22.766 C 3.457 23.014,2.925 23.000,12.000 23.000 C 19.300 23.000,20.319 22.993,20.581 22.938 C 21.780 22.691,22.691 21.780,22.938 20.581 C 23.031 20.133,23.028 17.935,22.934 17.660 C 22.796 17.255,22.347 16.968,21.917 17.009 C 21.522 17.047,21.141 17.353,21.042 17.711 C 21.018 17.798,21.000 18.339,21.000 19.003 C 21.000 20.315,20.981 20.421,20.701 20.701 C 20.376 21.026,21.144 21.000,12.000 21.000 C 2.856 21.000,3.624 21.026,3.299 20.701 C 2.974 20.376,3.000 21.144,3.000 12.000 C 3.000 2.856,2.974 3.624,3.299 3.299 C 3.624 2.974,2.856 3.000,12.000 3.000 C 21.144 3.000,20.376 2.974,20.701 3.299 C 21.013 3.610,21.000 3.456,21.000 7.000 C 21.000 10.544,21.013 10.390,20.701 10.701 C 20.384 11.019,20.689 11.000,15.784 11.000 L 11.423 11.000 12.648 9.770 C 13.804 8.609,13.876 8.528,13.936 8.323 C 14.015 8.053,14.016 7.987,13.938 7.725 C 13.764 7.141,13.083 6.852,12.539 7.132 C 12.391 7.208,11.805 7.771,10.235 9.347 C 8.336 11.254,8.124 11.479,8.065 11.657 C 7.983 11.906,7.983 12.094,8.065 12.343 C 8.124 12.521,8.336 12.747,10.255 14.671 C 11.650 16.070,12.435 16.829,12.540 16.879 C 12.790 17.000,12.999 17.018,13.265 16.940 C 13.581 16.849,13.844 16.590,13.936 16.283 C 14.016 16.012,14.016 15.948,13.936 15.677 C 13.876 15.472,13.804 15.391,12.648 14.230 L 11.423 13.000 15.853 13.000 C 19.685 13.000,20.324 12.992,20.581 12.938 C 21.780 12.691,22.691 11.780,22.938 10.581 C 23.030 10.136,23.030 3.864,22.938 3.419 C 22.745 2.480,22.156 1.725,21.296 1.312 C 20.634 0.993,21.532 1.022,12.120 1.015 C 7.489 1.012,3.611 1.024,3.503 1.042 " fill="#000640" stroke="none" fill-rule="evenodd"></path></svg>