<svg xmlns="http://www.w3.org/2000/svg" width="24" height="24" fill="currentColor" class="mmi mmi-arrow-opensquare-inright" viewBox="0 0 24 24"><path d="M3.503 1.042 C 2.488 1.214,1.556 1.976,1.202 2.925 C 1.015 3.425,1.001 3.599,1.001 5.420 C 1.001 6.484,1.016 7.197,1.042 7.289 C 1.103 7.509,1.315 7.762,1.531 7.874 C 1.932 8.080,2.390 8.012,2.700 7.702 C 2.995 7.407,3.000 7.371,3.000 5.500 C 3.000 3.629,3.005 3.593,3.299 3.299 C 3.624 2.974,2.856 3.000,12.000 3.000 C 21.144 3.000,20.376 2.974,20.701 3.299 C 21.026 3.624,21.000 2.856,21.000 12.000 C 21.000 21.144,21.026 20.376,20.701 20.701 C 20.376 21.026,21.144 21.000,12.000 21.000 C 2.856 21.000,3.624 21.026,3.299 20.701 C 3.005 20.407,3.000 20.371,3.000 18.500 C 3.000 16.629,2.995 16.593,2.700 16.298 C 2.390 15.988,1.932 15.920,1.531 16.126 C 1.315 16.238,1.103 16.491,1.042 16.711 C 1.016 16.803,1.000 17.516,1.000 18.572 C 1.000 20.439,1.016 20.616,1.234 21.151 C 1.521 21.857,2.143 22.479,2.849 22.766 C 3.457 23.014,2.925 23.000,12.000 23.000 C 21.073 23.000,20.544 23.013,21.150 22.767 C 21.850 22.482,22.482 21.850,22.767 21.150 C 23.013 20.544,23.000 21.073,23.000 12.000 C 23.000 2.925,23.014 3.457,22.766 2.849 C 22.499 2.193,21.964 1.633,21.296 1.312 C 20.634 0.993,21.532 1.022,12.120 1.015 C 7.489 1.012,3.611 1.024,3.503 1.042 M12.753 7.055 C 12.148 7.220,11.850 7.890,12.130 8.460 C 12.178 8.557,12.672 9.086,13.393 9.810 L 14.578 11.000 10.716 11.000 C 6.371 11.000,6.614 10.984,6.299 11.299 C 6.119 11.479,6.000 11.758,6.000 12.000 C 6.000 12.242,6.119 12.521,6.299 12.701 C 6.614 13.016,6.371 13.000,10.716 13.000 L 14.577 13.000 13.354 14.230 C 12.276 15.315,12.123 15.483,12.066 15.657 C 11.936 16.046,12.020 16.423,12.300 16.702 C 12.603 17.006,13.055 17.076,13.455 16.882 C 13.566 16.828,14.313 16.107,15.745 14.671 C 17.664 12.747,17.876 12.521,17.935 12.343 C 18.017 12.094,18.017 11.906,17.935 11.657 C 17.876 11.479,17.665 11.255,15.769 9.353 C 14.359 7.939,13.607 7.214,13.484 7.148 C 13.251 7.023,12.992 6.990,12.753 7.055 " fill="#000640" stroke="none" fill-rule="evenodd"></path></svg>