<svg xmlns="http://www.w3.org/2000/svg" width="24" height="24" fill="currentColor" class="mmi mmi-arrow-downright" viewBox="0 0 24 24"><path d="M5.758 5.054 C 5.416 5.147,5.160 5.395,5.061 5.729 C 4.985 5.986,4.985 6.053,5.063 6.323 C 5.125 6.535,5.243 6.656,10.353 11.770 L 15.579 17.000 11.715 17.000 C 7.511 17.000,7.676 16.992,7.374 17.222 C 7.301 17.277,7.192 17.408,7.131 17.511 C 7.036 17.672,7.020 17.744,7.020 18.000 C 7.020 18.256,7.036 18.328,7.131 18.489 C 7.192 18.592,7.301 18.723,7.374 18.778 C 7.680 19.011,7.390 19.000,12.998 19.000 C 18.783 19.000,18.381 19.021,18.701 18.701 C 19.021 18.381,19.000 18.783,19.000 13.000 C 19.000 7.216,19.021 7.619,18.700 7.298 C 18.390 6.988,17.932 6.920,17.531 7.126 C 17.315 7.238,17.103 7.491,17.042 7.711 C 17.015 7.809,17.000 9.184,17.000 11.720 L 17.000 15.580 11.810 10.394 C 8.369 6.955,6.566 5.181,6.460 5.129 C 6.243 5.023,5.977 4.994,5.758 5.054 " fill="#000640" stroke="none" fill-rule="evenodd"></path></svg>