<svg xmlns="http://www.w3.org/2000/svg" width="24" height="24" fill="currentColor" class="mmi mmi-arrow-up" viewBox="0 0 24 24"><path d="M11.640 3.068 C 11.484 3.121,10.980 3.609,7.829 6.755 C 5.021 9.559,4.175 10.425,4.099 10.578 C 3.975 10.825,3.966 11.182,4.076 11.420 C 4.169 11.619,4.413 11.856,4.609 11.938 C 4.818 12.025,5.181 12.016,5.400 11.917 C 5.538 11.855,6.208 11.209,8.290 9.129 L 11.000 6.421 11.000 13.280 C 11.000 17.882,11.014 20.189,11.042 20.289 C 11.103 20.509,11.315 20.762,11.531 20.874 C 11.932 21.080,12.390 21.012,12.700 20.702 C 13.025 20.377,13.000 20.991,13.000 13.284 L 13.000 6.421 15.730 9.147 C 18.374 11.787,18.467 11.875,18.677 11.937 C 18.949 12.016,19.013 12.016,19.283 11.936 C 19.590 11.844,19.849 11.581,19.940 11.265 C 20.018 10.999,20.000 10.790,19.879 10.540 C 19.828 10.433,18.600 9.179,16.171 6.755 C 12.850 3.439,12.523 3.124,12.343 3.065 C 12.102 2.986,11.878 2.987,11.640 3.068 " fill="#000640" stroke="none" fill-rule="evenodd"></path></svg>