<svg xmlns="http://www.w3.org/2000/svg" width="24" height="24" fill="currentColor" class="mmi mmi-arrowbold-backline-downleft" viewBox="0 0 24 24"><path d="M14.857 2.177 C 14.674 2.256,14.447 2.471,14.349 2.656 C 14.235 2.871,14.228 3.315,14.335 3.520 C 14.436 3.714,20.259 9.543,20.460 9.651 C 20.683 9.772,21.116 9.772,21.340 9.652 C 21.682 9.470,21.883 9.153,21.890 8.784 C 21.899 8.350,22.033 8.502,18.806 5.266 C 16.763 3.218,15.769 2.248,15.660 2.197 C 15.469 2.107,15.041 2.097,14.857 2.177 M12.084 4.995 C 11.886 5.065,11.721 5.220,10.024 6.916 L 8.180 8.760 6.740 7.317 C 5.948 6.524,5.224 5.830,5.132 5.775 C 4.651 5.488,4.006 5.687,3.751 6.200 L 3.641 6.420 3.280 13.290 C 3.081 17.068,2.930 20.209,2.945 20.270 C 3.035 20.644,3.357 20.966,3.730 21.055 C 3.791 21.070,6.932 20.919,10.710 20.720 L 17.580 20.359 17.800 20.249 C 18.313 19.994,18.512 19.349,18.225 18.868 C 18.170 18.776,17.476 18.052,16.683 17.260 L 15.240 15.821 17.097 13.960 C 18.879 12.174,18.956 12.091,19.017 11.883 C 19.096 11.612,19.096 11.548,19.017 11.277 C 18.955 11.067,18.864 10.971,15.987 8.089 C 14.007 6.107,12.967 5.092,12.860 5.041 C 12.612 4.922,12.337 4.905,12.084 4.995 M14.540 9.480 L 16.660 11.600 14.811 13.450 C 13.541 14.721,12.944 15.347,12.901 15.449 C 12.814 15.659,12.824 16.021,12.923 16.240 C 12.982 16.370,13.290 16.706,14.028 17.446 L 15.051 18.473 14.835 18.496 C 14.410 18.542,5.039 19.012,5.016 18.989 C 4.995 18.968,5.439 10.157,5.505 9.286 L 5.530 8.952 6.555 9.974 C 7.294 10.711,7.630 11.018,7.760 11.077 C 7.994 11.183,8.362 11.186,8.580 11.083 C 8.687 11.033,9.346 10.401,10.560 9.184 C 11.561 8.181,12.389 7.360,12.400 7.360 C 12.411 7.360,13.374 8.314,14.540 9.480 " fill="#000640" stroke="none" fill-rule="evenodd"></path></svg>