<svg xmlns="http://www.w3.org/2000/svg" width="24" height="24" fill="currentColor" class="mmi mmi-arrow-square-downright" viewBox="0 0 24 24"><path d="M3.503 1.042 C 2.818 1.158,2.117 1.573,1.670 2.127 C 1.445 2.407,1.159 2.980,1.074 3.320 C 0.993 3.647,0.993 20.353,1.074 20.680 C 1.159 21.020,1.445 21.593,1.670 21.873 C 1.950 22.220,2.312 22.501,2.740 22.704 C 3.409 23.021,2.760 23.000,12.000 23.000 C 21.240 23.000,20.591 23.021,21.260 22.704 C 21.920 22.391,22.391 21.920,22.704 21.260 C 23.021 20.591,23.000 21.240,23.000 12.000 C 23.000 2.760,23.021 3.409,22.704 2.740 C 22.398 2.095,21.924 1.614,21.296 1.312 C 20.634 0.993,21.532 1.022,12.120 1.015 C 7.489 1.012,3.611 1.024,3.503 1.042 M20.340 3.066 C 20.593 3.153,20.847 3.407,20.934 3.660 C 20.995 3.838,21.000 4.523,21.000 12.000 C 21.000 21.144,21.026 20.376,20.701 20.701 C 20.376 21.026,21.144 21.000,11.998 21.000 C 3.106 21.000,3.684 21.015,3.374 20.778 C 3.301 20.723,3.192 20.592,3.131 20.489 L 3.020 20.300 3.020 12.000 L 3.020 3.700 3.131 3.511 C 3.256 3.298,3.449 3.136,3.670 3.057 C 3.793 3.013,5.268 3.003,11.983 3.002 C 19.479 3.000,20.162 3.005,20.340 3.066 M8.122 7.583 C 7.591 7.813,7.349 8.428,7.597 8.920 C 7.661 9.047,8.479 9.892,10.364 11.780 C 11.836 13.255,13.040 14.474,13.040 14.490 C 13.040 14.507,12.301 14.520,11.399 14.520 C 9.599 14.520,9.623 14.517,9.341 14.765 C 8.893 15.158,8.897 15.838,9.348 16.245 C 9.642 16.509,9.515 16.500,12.780 16.500 L 15.740 16.500 15.955 16.381 C 16.171 16.261,16.288 16.137,16.425 15.880 C 16.496 15.747,16.500 15.594,16.500 12.780 C 16.500 9.519,16.509 9.641,16.248 9.352 C 16.029 9.110,15.831 9.022,15.500 9.022 C 15.181 9.022,14.985 9.104,14.772 9.326 C 14.500 9.610,14.501 9.604,14.488 11.417 L 14.476 13.055 11.788 10.369 C 9.723 8.307,9.058 7.665,8.920 7.603 C 8.703 7.505,8.323 7.496,8.122 7.583 " fill="#000640" stroke="none" fill-rule="evenodd"></path></svg>