<svg xmlns="http://www.w3.org/2000/svg" width="24" height="24" fill="currentColor" class="mmi mmi-arrowbold-backline-downright" viewBox="0 0 24 24"><path d="M8.340 2.197 C 8.231 2.248,7.237 3.218,5.194 5.266 C 1.992 8.477,2.106 8.349,2.106 8.760 C 2.106 9.131,2.317 9.472,2.657 9.652 C 2.885 9.772,3.316 9.772,3.540 9.651 C 3.741 9.543,9.564 3.714,9.665 3.520 C 9.772 3.315,9.765 2.871,9.651 2.656 C 9.551 2.466,9.323 2.254,9.134 2.175 C 8.943 2.095,8.533 2.106,8.340 2.197 M11.318 4.975 C 11.217 5.002,11.082 5.062,11.018 5.109 C 10.953 5.156,9.583 6.514,7.973 8.127 C 5.136 10.971,5.045 11.067,4.983 11.277 C 4.901 11.561,4.903 11.673,4.999 11.928 C 5.071 12.118,5.267 12.328,6.919 13.980 L 8.759 15.819 7.284 17.300 C 6.473 18.114,5.778 18.841,5.740 18.916 C 5.702 18.992,5.662 19.158,5.650 19.286 C 5.612 19.710,5.847 20.107,6.235 20.274 C 6.418 20.353,6.865 20.381,13.295 20.720 C 17.071 20.919,20.209 21.070,20.270 21.055 C 20.643 20.966,20.965 20.644,21.055 20.270 C 21.070 20.209,20.919 17.068,20.720 13.290 L 20.359 6.420 20.249 6.200 C 19.994 5.687,19.349 5.488,18.868 5.775 C 18.776 5.830,18.052 6.524,17.260 7.317 L 15.821 8.760 13.960 6.903 C 12.174 5.121,12.091 5.044,11.883 4.983 C 11.629 4.909,11.563 4.908,11.318 4.975 M13.440 9.184 C 14.654 10.401,15.313 11.033,15.420 11.083 C 15.638 11.186,16.006 11.183,16.240 11.077 C 16.370 11.018,16.706 10.710,17.445 9.973 L 18.471 8.951 18.496 9.306 C 18.567 10.287,19.002 18.971,18.982 18.991 C 18.959 19.015,9.592 18.542,9.165 18.496 L 8.949 18.473 9.972 17.446 C 10.710 16.706,11.018 16.370,11.077 16.240 C 11.176 16.021,11.186 15.659,11.099 15.449 C 11.056 15.347,10.459 14.721,9.189 13.450 L 7.340 11.600 9.460 9.480 C 10.626 8.314,11.589 7.360,11.600 7.360 C 11.611 7.360,12.439 8.181,13.440 9.184 " fill="#000640" stroke="none" fill-rule="evenodd"></path></svg>