<svg xmlns="http://www.w3.org/2000/svg" width="24" height="24" fill="currentColor" class="mmi mmi-arrow-opensquare-inleft" viewBox="0 0 24 24"><path d="M3.503 1.042 C 2.488 1.214,1.556 1.976,1.202 2.925 C 1.015 3.425,1.001 3.599,1.001 5.420 C 1.001 6.484,1.016 7.197,1.042 7.289 C 1.103 7.509,1.315 7.762,1.531 7.874 C 1.932 8.080,2.390 8.012,2.700 7.702 C 2.995 7.407,3.000 7.371,3.000 5.500 C 3.000 3.629,3.005 3.593,3.299 3.299 C 3.624 2.974,2.856 3.000,12.000 3.000 C 21.144 3.000,20.376 2.974,20.701 3.299 C 21.026 3.624,21.000 2.856,21.000 12.000 C 21.000 21.144,21.026 20.376,20.701 20.701 C 20.376 21.026,21.144 21.000,12.000 21.000 C 2.856 21.000,3.624 21.026,3.299 20.701 C 3.005 20.407,3.000 20.371,3.000 18.500 C 3.000 16.629,2.995 16.593,2.700 16.298 C 2.390 15.988,1.932 15.920,1.531 16.126 C 1.315 16.238,1.103 16.491,1.042 16.711 C 1.016 16.803,1.000 17.516,1.000 18.572 C 1.000 20.439,1.016 20.616,1.234 21.151 C 1.521 21.857,2.143 22.479,2.849 22.766 C 3.457 23.014,2.925 23.000,12.000 23.000 C 21.073 23.000,20.544 23.013,21.150 22.767 C 21.850 22.482,22.482 21.850,22.767 21.150 C 23.013 20.544,23.000 21.073,23.000 12.000 C 23.000 2.925,23.014 3.457,22.766 2.849 C 22.499 2.193,21.964 1.633,21.296 1.312 C 20.634 0.993,21.532 1.022,12.120 1.015 C 7.489 1.012,3.611 1.024,3.503 1.042 M10.800 7.037 C 10.723 7.053,10.588 7.104,10.500 7.150 C 10.405 7.200,9.488 8.090,8.235 9.347 C 6.336 11.254,6.124 11.479,6.065 11.657 C 5.983 11.906,5.983 12.094,6.065 12.343 C 6.124 12.521,6.335 12.745,8.231 14.647 C 9.710 16.130,10.391 16.786,10.531 16.862 C 10.886 17.055,11.335 17.000,11.650 16.723 C 11.967 16.445,12.068 15.933,11.881 15.558 C 11.822 15.440,11.391 14.978,10.607 14.190 L 9.422 13.000 13.284 13.000 C 17.629 13.000,17.386 13.016,17.701 12.701 C 18.092 12.310,18.092 11.690,17.701 11.299 C 17.386 10.984,17.629 11.000,13.284 11.000 L 9.422 11.000 10.607 9.810 C 11.391 9.022,11.822 8.560,11.881 8.442 C 11.987 8.229,12.001 7.854,11.910 7.637 C 11.732 7.212,11.238 6.945,10.800 7.037 " fill="#000640" stroke="none" fill-rule="evenodd"></path></svg>