<svg xmlns="http://www.w3.org/2000/svg" width="24" height="24" fill="currentColor" class="mmi mmi-arrow-opensquare-inup" viewBox="0 0 24 24"><path d="M3.503 1.042 C 2.488 1.214,1.556 1.976,1.202 2.925 C 0.992 3.487,1.001 3.068,1.001 11.992 C 1.000 21.076,0.986 20.543,1.234 21.151 C 1.521 21.857,2.143 22.479,2.849 22.766 C 3.384 22.984,3.561 23.000,5.431 23.000 C 7.378 23.000,7.406 22.996,7.701 22.701 C 8.092 22.310,8.092 21.690,7.701 21.299 C 7.407 21.005,7.371 21.000,5.500 21.000 C 3.629 21.000,3.593 20.995,3.299 20.701 C 2.974 20.376,3.000 21.144,3.000 12.000 C 3.000 2.856,2.974 3.624,3.299 3.299 C 3.624 2.974,2.856 3.000,12.000 3.000 C 21.144 3.000,20.376 2.974,20.701 3.299 C 21.026 3.624,21.000 2.856,21.000 12.000 C 21.000 21.144,21.026 20.376,20.701 20.701 C 20.407 20.995,20.371 21.000,18.498 21.000 C 16.715 21.000,16.657 21.006,16.374 21.222 C 16.301 21.277,16.192 21.408,16.131 21.511 C 16.036 21.672,16.020 21.744,16.020 22.000 C 16.020 22.256,16.036 22.328,16.131 22.489 C 16.260 22.709,16.437 22.854,16.678 22.939 C 16.933 23.029,20.145 23.029,20.581 22.938 C 21.780 22.691,22.691 21.780,22.938 20.581 C 22.993 20.319,23.000 19.300,23.000 12.000 C 23.000 2.925,23.014 3.457,22.766 2.849 C 22.499 2.193,21.964 1.633,21.296 1.312 C 20.634 0.993,21.532 1.022,12.120 1.015 C 7.489 1.012,3.611 1.024,3.503 1.042 M11.640 6.068 C 11.486 6.121,11.153 6.435,9.347 8.235 C 7.036 10.537,7.031 10.544,7.029 10.979 C 7.028 11.257,7.097 11.446,7.277 11.650 C 7.555 11.967,8.067 12.068,8.442 11.881 C 8.560 11.822,9.022 11.391,9.810 10.607 L 11.000 9.422 11.000 13.284 C 11.000 17.629,10.984 17.386,11.299 17.701 C 11.690 18.092,12.310 18.092,12.701 17.701 C 13.016 17.386,13.000 17.629,13.000 13.284 L 13.000 9.423 14.230 10.646 C 15.315 11.724,15.483 11.877,15.657 11.934 C 15.903 12.016,16.048 12.017,16.316 11.937 C 16.877 11.771,17.153 11.104,16.888 10.556 C 16.827 10.431,16.187 9.766,14.671 8.255 C 12.747 6.336,12.521 6.124,12.343 6.065 C 12.102 5.986,11.878 5.986,11.640 6.068 " fill="#000640" stroke="none" fill-rule="evenodd"></path></svg>