<svg xmlns="http://www.w3.org/2000/svg" width="24" height="24" fill="currentColor" class="mmi mmi-arrow-frontline-down" viewBox="0 0 24 24"><path d="M11.664 3.063 C 11.436 3.146,11.257 3.297,11.131 3.511 L 11.020 3.700 11.009 9.139 L 10.999 14.578 9.289 12.871 C 7.458 11.042,7.410 11.002,7.020 11.001 C 6.722 11.000,6.551 11.062,6.339 11.249 C 6.097 11.462,6.002 11.669,6.001 11.982 C 5.999 12.429,5.954 12.377,8.829 15.245 C 11.219 17.629,11.478 17.876,11.657 17.935 C 11.906 18.017,12.094 18.017,12.343 17.935 C 12.522 17.876,12.781 17.629,15.171 15.245 C 16.913 13.507,17.828 12.566,17.879 12.460 C 18.125 11.951,17.919 11.362,17.410 11.115 C 17.160 10.994,16.805 10.996,16.558 11.119 C 16.436 11.180,15.854 11.732,14.690 12.894 L 13.000 14.580 13.000 9.217 C 13.000 3.191,13.022 3.620,12.701 3.299 C 12.429 3.027,12.018 2.933,11.664 3.063 M4.664 20.063 C 4.436 20.146,4.257 20.297,4.131 20.511 C 4.036 20.672,4.020 20.744,4.020 21.000 C 4.020 21.256,4.036 21.328,4.131 21.489 C 4.192 21.592,4.301 21.723,4.374 21.778 C 4.683 22.014,4.201 22.000,11.998 22.000 C 20.023 22.000,19.377 22.025,19.701 21.701 C 20.092 21.310,20.092 20.690,19.701 20.299 C 19.377 19.975,20.026 20.000,11.983 20.003 C 5.871 20.005,4.797 20.014,4.664 20.063 " fill="#000640" stroke="none" fill-rule="evenodd"></path></svg>