<svg xmlns="http://www.w3.org/2000/svg" width="24" height="24" fill="currentColor" class="mmi mmi-arrow-down" viewBox="0 0 24 24"><path d="M11.664 3.063 C 11.436 3.146,11.257 3.297,11.131 3.511 L 11.020 3.700 11.010 10.639 L 10.999 17.578 8.310 14.893 C 6.412 12.998,5.567 12.182,5.442 12.119 C 5.195 11.996,4.840 11.994,4.590 12.115 C 4.080 12.362,3.875 12.951,4.121 13.460 C 4.172 13.567,5.400 14.821,7.829 17.245 C 11.150 20.561,11.477 20.876,11.657 20.935 C 11.766 20.971,11.920 21.000,12.000 21.000 C 12.080 21.000,12.234 20.971,12.343 20.935 C 12.523 20.876,12.850 20.561,16.171 17.245 C 18.600 14.821,19.828 13.567,19.879 13.460 C 20.125 12.951,19.920 12.362,19.410 12.115 C 19.160 11.994,18.805 11.996,18.558 12.119 C 18.432 12.181,17.593 12.993,15.690 14.894 L 13.000 17.580 13.000 10.717 C 13.000 3.011,13.025 3.623,12.701 3.299 C 12.429 3.027,12.018 2.933,11.664 3.063 " fill="#000640" stroke="none" fill-rule="evenodd"></path></svg>