<svg xmlns="http://www.w3.org/2000/svg" width="24" height="24" fill="currentColor" class="mmi mmi-arrow-upright" viewBox="0 0 24 24"><path d="M7.664 5.063 C 7.436 5.146,7.257 5.297,7.131 5.511 C 7.036 5.672,7.020 5.744,7.020 6.000 C 7.020 6.256,7.036 6.328,7.131 6.489 C 7.192 6.592,7.301 6.723,7.374 6.778 C 7.676 7.008,7.511 7.000,11.715 7.000 L 15.579 7.000 10.353 12.230 C 5.243 17.344,5.125 17.465,5.063 17.677 C 4.984 17.949,4.984 18.013,5.064 18.283 C 5.153 18.581,5.419 18.847,5.717 18.936 C 5.987 19.016,6.051 19.016,6.323 18.937 C 6.535 18.875,6.656 18.757,11.770 13.647 L 17.000 8.421 17.000 12.280 C 17.000 14.816,17.015 16.191,17.042 16.289 C 17.103 16.509,17.315 16.762,17.531 16.874 C 17.932 17.080,18.390 17.012,18.700 16.702 C 19.021 16.381,19.000 16.784,19.000 11.000 C 19.000 5.217,19.021 5.619,18.701 5.299 C 18.381 4.979,18.786 5.000,12.983 5.003 C 8.607 5.005,7.796 5.014,7.664 5.063 " fill="#000640" stroke="none" fill-rule="evenodd"></path></svg>