<svg xmlns="http://www.w3.org/2000/svg" width="24" height="24" fill="currentColor" class="mmi mmi-arrow-downleft" viewBox="0 0 24 24"><path d="M17.600 5.083 C 17.459 5.146,16.283 6.300,12.210 10.372 L 7.000 15.580 7.000 11.717 C 7.000 7.369,7.017 7.615,6.700 7.298 C 6.390 6.988,5.932 6.920,5.531 7.126 C 5.312 7.239,5.101 7.494,5.041 7.718 C 5.012 7.823,5.002 9.564,5.009 13.086 L 5.020 18.300 5.131 18.489 C 5.192 18.592,5.301 18.723,5.374 18.778 C 5.680 19.011,5.390 19.000,10.998 19.000 C 16.783 19.000,16.381 19.021,16.701 18.701 C 17.092 18.310,17.092 17.690,16.701 17.299 C 16.386 16.984,16.629 17.000,12.283 17.000 L 8.420 17.000 13.628 11.790 C 17.700 7.717,18.854 6.541,18.917 6.400 C 19.022 6.168,19.025 5.799,18.925 5.578 C 18.834 5.377,18.518 5.094,18.325 5.041 C 18.095 4.977,17.797 4.994,17.600 5.083 " fill="#000640" stroke="none" fill-rule="evenodd"></path></svg>