<svg xmlns="http://www.w3.org/2000/svg" width="24" height="24" fill="currentColor" class="mmi mmi-arrow-square-down" viewBox="0 0 24 24"><path d="M3.503 1.042 C 2.818 1.158,2.117 1.573,1.670 2.127 C 1.445 2.407,1.159 2.980,1.074 3.320 C 0.993 3.647,0.993 20.353,1.074 20.680 C 1.159 21.020,1.445 21.593,1.670 21.873 C 1.950 22.220,2.312 22.501,2.740 22.704 C 3.409 23.021,2.760 23.000,12.000 23.000 C 21.240 23.000,20.591 23.021,21.260 22.704 C 21.920 22.391,22.391 21.920,22.704 21.260 C 23.021 20.591,23.000 21.240,23.000 12.000 C 23.000 2.760,23.021 3.409,22.704 2.740 C 22.398 2.095,21.924 1.614,21.296 1.312 C 20.634 0.993,21.532 1.022,12.120 1.015 C 7.489 1.012,3.611 1.024,3.503 1.042 M20.340 3.066 C 20.593 3.153,20.847 3.407,20.934 3.660 C 20.995 3.838,21.000 4.523,21.000 12.000 C 21.000 21.144,21.026 20.376,20.701 20.701 C 20.376 21.026,21.144 21.000,11.998 21.000 C 3.106 21.000,3.684 21.015,3.374 20.778 C 3.301 20.723,3.192 20.592,3.131 20.489 L 3.020 20.300 3.020 12.000 L 3.020 3.700 3.131 3.511 C 3.256 3.298,3.449 3.136,3.670 3.057 C 3.793 3.013,5.268 3.003,11.983 3.002 C 19.479 3.000,20.162 3.005,20.340 3.066 M11.664 6.063 C 11.436 6.146,11.257 6.297,11.131 6.511 L 11.020 6.700 11.009 10.638 L 10.998 14.577 9.789 13.370 C 8.491 12.075,8.396 12.002,8.020 12.001 C 7.722 12.000,7.551 12.062,7.339 12.249 C 7.097 12.462,7.002 12.669,7.001 12.982 C 6.999 13.423,6.994 13.417,9.329 15.745 C 11.253 17.663,11.479 17.876,11.657 17.935 C 11.906 18.017,12.094 18.017,12.343 17.935 C 12.521 17.876,12.747 17.664,14.671 15.745 C 16.070 14.350,16.829 13.565,16.879 13.460 C 17.125 12.951,16.919 12.362,16.410 12.115 C 16.160 11.994,15.805 11.996,15.558 12.119 C 15.439 12.178,14.985 12.602,14.190 13.393 L 13.000 14.579 13.000 10.717 C 13.000 6.371,13.016 6.614,12.701 6.299 C 12.429 6.027,12.018 5.933,11.664 6.063 " fill="#000640" stroke="none" fill-rule="evenodd"></path></svg>