<svg xmlns="http://www.w3.org/2000/svg" width="24" height="24" fill="currentColor" class="mmi mmi-arrow-frontline-up" viewBox="0 0 24 24"><path d="M4.664 2.063 C 4.436 2.146,4.257 2.297,4.131 2.511 C 4.036 2.672,4.020 2.744,4.020 3.000 C 4.020 3.256,4.036 3.328,4.131 3.489 C 4.192 3.592,4.301 3.723,4.374 3.778 C 4.683 4.014,4.201 4.000,11.998 4.000 C 20.023 4.000,19.377 4.025,19.701 3.701 C 20.092 3.310,20.092 2.690,19.701 2.299 C 19.377 1.975,20.026 2.000,11.983 2.003 C 5.871 2.005,4.797 2.014,4.664 2.063 M11.640 6.068 C 11.485 6.121,11.095 6.494,8.829 8.755 C 6.942 10.637,6.174 11.430,6.113 11.556 C 5.922 11.947,5.995 12.398,6.298 12.700 C 6.577 12.979,6.953 13.064,7.343 12.935 C 7.520 12.876,7.719 12.691,9.270 11.146 L 11.000 9.422 11.000 15.281 C 11.000 19.194,11.014 21.189,11.042 21.289 C 11.103 21.509,11.315 21.762,11.531 21.874 C 11.932 22.080,12.390 22.012,12.700 21.702 C 13.023 21.379,13.000 21.870,13.000 15.284 L 13.000 9.422 14.730 11.147 C 16.386 12.799,16.469 12.876,16.677 12.936 C 16.948 13.016,17.013 13.016,17.283 12.936 C 17.590 12.844,17.849 12.581,17.940 12.265 C 18.018 11.999,18.000 11.790,17.879 11.540 C 17.828 11.434,16.913 10.493,15.171 8.755 C 12.781 6.371,12.522 6.124,12.343 6.065 C 12.102 5.986,11.878 5.986,11.640 6.068 " fill="#000640" stroke="none" fill-rule="evenodd"></path></svg>