<svg xmlns="http://www.w3.org/2000/svg" width="24" height="24" fill="currentColor" class="mmi mmi-arrow-opensquare-outbottom" viewBox="0 0 24 24"><path d="M3.503 1.042 C 2.488 1.214,1.556 1.976,1.202 2.925 C 0.992 3.487,1.001 3.068,1.001 11.992 C 1.000 21.076,0.986 20.543,1.234 21.151 C 1.521 21.857,2.143 22.479,2.849 22.766 C 3.384 22.984,3.561 23.000,5.431 23.000 C 7.378 23.000,7.406 22.996,7.701 22.701 C 8.092 22.310,8.092 21.690,7.701 21.299 C 7.407 21.005,7.371 21.000,5.500 21.000 C 3.629 21.000,3.593 20.995,3.299 20.701 C 2.974 20.376,3.000 21.144,3.000 12.000 C 3.000 2.856,2.974 3.624,3.299 3.299 C 3.624 2.974,2.856 3.000,12.000 3.000 C 21.144 3.000,20.376 2.974,20.701 3.299 C 21.026 3.624,21.000 2.856,21.000 12.000 C 21.000 21.144,21.026 20.376,20.701 20.701 C 20.407 20.995,20.371 21.000,18.498 21.000 C 16.715 21.000,16.657 21.006,16.374 21.222 C 16.301 21.277,16.192 21.408,16.131 21.511 C 16.036 21.672,16.020 21.744,16.020 22.000 C 16.020 22.256,16.036 22.328,16.131 22.489 C 16.260 22.709,16.437 22.854,16.678 22.939 C 16.933 23.029,20.145 23.029,20.581 22.938 C 21.780 22.691,22.691 21.780,22.938 20.581 C 22.993 20.319,23.000 19.300,23.000 12.000 C 23.000 2.925,23.014 3.457,22.766 2.849 C 22.499 2.193,21.964 1.633,21.296 1.312 C 20.634 0.993,21.532 1.022,12.120 1.015 C 7.489 1.012,3.611 1.024,3.503 1.042 M11.643 6.069 C 11.546 6.103,11.392 6.206,11.300 6.298 C 10.983 6.615,11.000 6.370,11.000 10.716 L 11.000 14.578 9.790 13.371 C 8.491 12.075,8.397 12.002,8.020 12.001 C 7.692 12.000,7.527 12.068,7.297 12.297 C 7.068 12.527,7.001 12.691,7.000 13.022 C 7.000 13.417,7.032 13.455,9.329 15.745 C 11.253 17.663,11.479 17.876,11.657 17.935 C 11.904 18.016,12.048 18.017,12.323 17.937 C 12.532 17.875,12.619 17.794,14.647 15.770 C 16.128 14.292,16.786 13.609,16.862 13.469 C 16.988 13.237,17.009 12.874,16.910 12.637 C 16.693 12.118,16.052 11.873,15.558 12.119 C 15.439 12.178,14.985 12.602,14.190 13.393 L 13.000 14.579 13.000 10.717 C 13.000 6.371,13.016 6.614,12.701 6.299 C 12.424 6.021,12.024 5.934,11.643 6.069 " fill="#000640" stroke="none" fill-rule="evenodd"></path></svg>