<svg xmlns="http://www.w3.org/2000/svg" width="24" height="24" fill="currentColor" class="mmi mmi-arrow-opensquare-outtop" viewBox="0 0 24 24"><path d="M3.503 1.042 C 2.490 1.212,1.556 1.976,1.202 2.925 C 0.992 3.487,1.001 3.068,1.001 11.992 C 1.000 21.076,0.986 20.543,1.234 21.151 C 1.521 21.857,2.143 22.479,2.849 22.766 C 3.457 23.014,2.925 23.000,12.000 23.000 C 21.073 23.000,20.544 23.013,21.150 22.767 C 21.850 22.482,22.482 21.850,22.767 21.150 C 23.013 20.544,23.000 21.073,23.000 12.000 C 23.000 2.925,23.014 3.457,22.766 2.849 C 22.499 2.193,21.964 1.633,21.296 1.312 C 20.694 1.022,20.741 1.028,18.721 1.010 C 17.379 0.999,16.856 1.007,16.729 1.043 C 16.486 1.111,16.264 1.284,16.133 1.508 C 16.036 1.673,16.020 1.743,16.020 2.000 C 16.020 2.256,16.036 2.328,16.131 2.489 C 16.192 2.592,16.301 2.723,16.374 2.778 C 16.657 2.994,16.715 3.000,18.498 3.000 C 20.371 3.000,20.407 3.005,20.701 3.299 C 21.026 3.624,21.000 2.856,21.000 12.000 C 21.000 21.144,21.026 20.376,20.701 20.701 C 20.376 21.026,21.144 21.000,12.000 21.000 C 2.856 21.000,3.624 21.026,3.299 20.701 C 2.974 20.376,3.000 21.144,3.000 12.000 C 3.000 2.856,2.974 3.624,3.299 3.299 C 3.593 3.005,3.629 3.000,5.500 3.000 C 7.371 3.000,7.407 2.995,7.701 2.701 C 8.092 2.310,8.092 1.690,7.701 1.299 C 7.405 1.003,7.380 0.999,5.423 1.005 C 4.475 1.007,3.611 1.024,3.503 1.042 M11.640 6.068 C 11.486 6.121,11.153 6.435,9.347 8.235 C 7.036 10.537,7.031 10.544,7.029 10.979 C 7.028 11.257,7.097 11.446,7.277 11.650 C 7.555 11.967,8.067 12.068,8.442 11.881 C 8.560 11.822,9.022 11.391,9.810 10.607 L 11.000 9.422 11.000 13.284 C 11.000 17.629,10.984 17.386,11.299 17.701 C 11.690 18.092,12.310 18.092,12.701 17.701 C 13.016 17.386,13.000 17.629,13.000 13.284 L 13.000 9.422 14.190 10.607 C 14.978 11.391,15.440 11.822,15.558 11.881 C 15.933 12.068,16.445 11.967,16.723 11.650 C 17.000 11.335,17.055 10.886,16.862 10.531 C 16.786 10.391,16.130 9.710,14.647 8.231 C 12.745 6.335,12.521 6.124,12.343 6.065 C 12.102 5.986,11.878 5.986,11.640 6.068 " fill="#000640" stroke="none" fill-rule="evenodd"></path></svg>