<svg xmlns="http://www.w3.org/2000/svg" width="24" height="24" fill="currentColor" class="mmi mmi-arrow-circle-right" viewBox="0 0 24 24"><path d="M11.200 0.025 C 7.091 0.332,3.508 2.609,1.507 6.186 C 0.775 7.494,0.317 8.899,0.094 10.520 C -0.002 11.214,-0.002 12.786,0.094 13.480 C 0.317 15.101,0.775 16.506,1.507 17.814 C 4.173 22.579,9.604 24.939,14.910 23.637 C 19.156 22.595,22.595 19.156,23.637 14.910 C 24.599 10.992,23.592 6.970,20.896 3.958 C 19.003 1.843,16.397 0.483,13.500 0.099 C 13.032 0.037,11.640 -0.007,11.200 0.025 M12.920 2.043 C 14.827 2.219,16.631 2.940,18.200 4.155 C 18.637 4.493,19.507 5.363,19.845 5.800 C 21.878 8.427,22.517 11.768,21.578 14.865 C 21.082 16.499,20.272 17.850,19.061 19.061 C 18.287 19.836,17.547 20.383,16.623 20.863 C 13.714 22.376,10.286 22.376,7.377 20.863 C 6.454 20.383,5.715 19.837,4.938 19.061 C 3.951 18.075,3.213 16.964,2.722 15.728 C 1.390 12.368,1.921 8.686,4.153 5.800 C 4.491 5.363,5.363 4.491,5.800 4.153 C 7.114 3.137,8.541 2.486,10.125 2.181 C 11.037 2.006,12.003 1.958,12.920 2.043 M12.753 7.055 C 12.148 7.220,11.850 7.890,12.130 8.460 C 12.178 8.557,12.672 9.086,13.393 9.810 L 14.578 11.000 10.716 11.000 C 6.371 11.000,6.614 10.984,6.299 11.299 C 6.119 11.479,6.000 11.758,6.000 12.000 C 6.000 12.242,6.119 12.521,6.299 12.701 C 6.614 13.016,6.371 13.000,10.717 13.000 L 14.579 13.000 13.393 14.190 C 12.602 14.985,12.178 15.439,12.119 15.558 C 11.873 16.052,12.118 16.693,12.637 16.910 C 12.874 17.009,13.237 16.988,13.469 16.862 C 13.609 16.786,14.290 16.130,15.769 14.647 C 17.665 12.745,17.876 12.521,17.935 12.343 C 18.017 12.094,18.017 11.906,17.935 11.657 C 17.876 11.479,17.665 11.255,15.769 9.353 C 14.359 7.939,13.607 7.214,13.484 7.148 C 13.251 7.023,12.992 6.990,12.753 7.055 " stroke="none" fill-rule="evenodd"></path></svg>