<svg xmlns="http://www.w3.org/2000/svg" width="24" height="24" fill="currentColor" class="mmi mmi-arrow-downupright" viewBox="0 0 24 24"><path d="M13.664 6.063 C 13.436 6.146,13.257 6.297,13.131 6.511 C 13.036 6.672,13.020 6.744,13.020 7.000 C 13.020 7.256,13.036 7.328,13.131 7.489 C 13.192 7.592,13.301 7.723,13.374 7.778 C 13.667 8.001,13.650 8.000,16.215 8.000 L 18.580 8.000 15.080 11.500 C 13.045 13.535,11.521 15.028,11.440 15.067 C 11.251 15.158,10.919 15.181,10.689 15.119 C 10.512 15.072,10.274 14.844,7.060 11.638 C 4.617 9.202,3.568 8.182,3.442 8.119 C 2.913 7.855,2.232 8.154,2.062 8.725 C 1.984 8.987,1.985 9.053,2.063 9.323 C 2.125 9.534,2.221 9.635,5.533 12.953 C 7.407 14.829,9.048 16.448,9.180 16.548 C 10.202 17.328,11.625 17.364,12.709 16.637 C 12.814 16.567,14.498 14.914,16.450 12.965 L 20.000 9.421 20.000 11.781 C 20.000 13.283,20.015 14.194,20.042 14.289 C 20.103 14.509,20.315 14.762,20.531 14.874 C 20.932 15.080,21.390 15.012,21.700 14.702 C 22.016 14.387,22.000 14.605,22.000 10.500 C 22.000 6.396,22.015 6.613,21.701 6.299 C 21.386 5.984,21.606 6.000,17.483 6.003 C 14.408 6.005,13.795 6.015,13.664 6.063 " fill="#000640" stroke="none" fill-rule="evenodd"></path></svg>