<svg xmlns="http://www.w3.org/2000/svg" width="24" height="24" fill="currentColor" class="mmi mmi-arrow-left" viewBox="0 0 24 24"><path d="M10.800 4.037 C 10.723 4.053,10.588 4.104,10.500 4.150 C 10.403 4.201,8.929 5.649,6.735 7.847 C 3.439 11.150,3.124 11.477,3.065 11.657 C 2.983 11.906,2.983 12.094,3.065 12.343 C 3.124 12.523,3.439 12.850,6.755 16.171 C 9.179 18.600,10.433 19.828,10.540 19.879 C 10.790 20.000,10.999 20.018,11.265 19.940 C 11.581 19.849,11.844 19.590,11.936 19.283 C 12.016 19.013,12.016 18.949,11.937 18.677 C 11.875 18.467,11.787 18.374,9.147 15.730 L 6.421 13.000 13.284 13.000 C 20.989 13.000,20.377 13.025,20.701 12.701 C 21.092 12.310,21.092 11.690,20.701 11.299 C 20.377 10.975,20.989 11.000,13.284 11.000 L 6.421 11.000 9.147 8.270 C 11.787 5.626,11.875 5.533,11.937 5.323 C 12.015 5.053,12.016 4.987,11.938 4.725 C 11.797 4.252,11.277 3.937,10.800 4.037 " fill="#000640" stroke="none" fill-rule="evenodd"></path></svg>