<svg xmlns="http://www.w3.org/2000/svg" width="24" height="24" fill="currentColor" class="mmi mmi-arrow-frontline-left" viewBox="0 0 24 24"><path d="M2.664 4.063 C 2.436 4.146,2.257 4.297,2.131 4.511 L 2.020 4.700 2.010 11.914 C 2.002 16.806,2.013 19.178,2.041 19.282 C 2.101 19.506,2.312 19.761,2.531 19.874 C 2.932 20.080,3.390 20.012,3.700 19.702 C 4.025 19.377,4.000 20.025,4.000 12.000 C 4.000 3.977,4.025 4.623,3.701 4.299 C 3.429 4.027,3.018 3.933,2.664 4.063 M11.640 6.068 C 11.485 6.121,11.095 6.494,8.829 8.755 C 6.942 10.637,6.174 11.430,6.113 11.556 C 5.994 11.800,5.976 12.065,6.060 12.326 C 6.126 12.528,6.274 12.685,8.755 15.171 C 10.492 16.913,11.434 17.828,11.540 17.879 C 11.790 18.000,11.999 18.018,12.265 17.940 C 12.581 17.849,12.844 17.590,12.936 17.283 C 13.016 17.013,13.016 16.948,12.936 16.677 C 12.876 16.469,12.799 16.386,11.147 14.730 L 9.422 13.000 15.284 13.000 C 21.869 13.000,21.379 13.023,21.701 12.701 C 22.092 12.310,22.092 11.690,21.701 11.299 C 21.379 10.977,21.869 11.000,15.284 11.000 L 9.422 11.000 11.146 9.270 C 12.691 7.719,12.876 7.520,12.935 7.343 C 13.064 6.954,12.979 6.577,12.701 6.299 C 12.424 6.021,12.028 5.935,11.640 6.068 " fill="#000640" stroke="none" fill-rule="evenodd"></path></svg>