<svg xmlns="http://www.w3.org/2000/svg" width="24" height="24" fill="currentColor" class="mmi mmi-arrow-circle-upright" viewBox="0 0 24 24"><path d="M11.200 0.025 C 7.091 0.332,3.508 2.609,1.507 6.186 C 0.775 7.494,0.317 8.899,0.094 10.520 C -0.002 11.214,-0.002 12.786,0.094 13.480 C 0.317 15.101,0.775 16.506,1.507 17.814 C 4.173 22.579,9.604 24.939,14.910 23.637 C 19.156 22.595,22.595 19.156,23.637 14.910 C 24.599 10.992,23.592 6.970,20.896 3.958 C 19.003 1.843,16.397 0.483,13.500 0.099 C 13.032 0.037,11.640 -0.007,11.200 0.025 M12.920 2.043 C 14.827 2.219,16.631 2.940,18.200 4.155 C 18.637 4.493,19.507 5.363,19.845 5.800 C 21.878 8.427,22.517 11.768,21.578 14.865 C 21.082 16.499,20.272 17.850,19.061 19.061 C 18.287 19.836,17.547 20.383,16.623 20.863 C 13.714 22.376,10.286 22.376,7.377 20.863 C 6.454 20.383,5.715 19.837,4.938 19.061 C 3.951 18.075,3.213 16.964,2.722 15.728 C 1.390 12.368,1.921 8.686,4.153 5.800 C 4.491 5.363,5.363 4.491,5.800 4.153 C 7.114 3.137,8.541 2.486,10.125 2.181 C 11.037 2.006,12.003 1.958,12.920 2.043 M9.617 7.576 C 9.433 7.657,9.207 7.871,9.109 8.056 C 9.044 8.179,9.022 8.290,9.022 8.500 C 9.022 8.829,9.112 9.034,9.345 9.239 C 9.622 9.482,9.602 9.480,11.399 9.480 C 12.301 9.480,13.040 9.493,13.040 9.509 C 13.040 9.525,11.827 10.754,10.345 12.239 C 7.355 15.236,7.495 15.070,7.527 15.574 C 7.559 16.083,7.917 16.441,8.426 16.473 C 8.930 16.505,8.764 16.645,11.761 13.655 C 13.246 12.173,14.475 10.960,14.491 10.960 C 14.507 10.960,14.520 11.699,14.520 12.601 C 14.520 14.398,14.518 14.378,14.761 14.655 C 14.966 14.888,15.171 14.978,15.500 14.978 C 15.711 14.978,15.821 14.956,15.946 14.890 C 16.151 14.782,16.388 14.511,16.443 14.322 C 16.470 14.229,16.480 13.152,16.472 11.177 L 16.460 8.174 16.339 7.978 C 16.264 7.857,16.143 7.736,16.022 7.661 L 15.826 7.540 12.783 7.531 C 10.301 7.524,9.717 7.532,9.617 7.576 " stroke="none" fill-rule="evenodd"></path></svg>