<svg xmlns="http://www.w3.org/2000/svg" width="24" height="24" fill="currentColor" class="mmi mmi-arrow-opensquare-outright" viewBox="0 0 24 24"><path d="M3.503 1.042 C 2.488 1.214,1.556 1.976,1.202 2.925 C 0.992 3.487,1.001 3.068,1.001 11.992 C 1.000 21.076,0.986 20.543,1.234 21.151 C 1.521 21.857,2.143 22.479,2.849 22.766 C 3.457 23.014,2.925 23.000,12.000 23.000 C 19.300 23.000,20.319 22.993,20.581 22.938 C 21.780 22.691,22.691 21.780,22.938 20.581 C 23.033 20.125,23.029 16.939,22.934 16.660 C 22.796 16.255,22.347 15.968,21.917 16.009 C 21.522 16.047,21.141 16.353,21.042 16.711 C 21.016 16.802,21.000 17.495,21.000 18.503 C 21.000 20.370,20.995 20.407,20.701 20.701 C 20.376 21.026,21.144 21.000,12.000 21.000 C 2.856 21.000,3.624 21.026,3.299 20.701 C 2.974 20.376,3.000 21.144,3.000 12.000 C 3.000 2.856,2.974 3.624,3.299 3.299 C 3.624 2.974,2.856 3.000,12.000 3.000 C 21.144 3.000,20.376 2.974,20.701 3.299 C 20.995 3.593,21.000 3.630,21.000 5.497 C 21.000 6.505,21.016 7.198,21.042 7.289 C 21.141 7.647,21.522 7.953,21.917 7.991 C 22.347 8.032,22.796 7.745,22.934 7.340 C 23.029 7.061,23.033 3.875,22.938 3.419 C 22.745 2.480,22.156 1.725,21.296 1.312 C 20.634 0.993,21.532 1.022,12.120 1.015 C 7.489 1.012,3.611 1.024,3.503 1.042 M12.753 7.055 C 12.148 7.220,11.850 7.890,12.130 8.460 C 12.178 8.557,12.672 9.086,13.393 9.810 L 14.578 11.000 10.716 11.000 C 6.371 11.000,6.614 10.984,6.299 11.299 C 6.119 11.479,6.000 11.758,6.000 12.000 C 6.000 12.242,6.119 12.521,6.299 12.701 C 6.614 13.016,6.371 13.000,10.717 13.000 L 14.579 13.000 13.393 14.190 C 12.602 14.985,12.178 15.439,12.119 15.558 C 11.873 16.052,12.118 16.693,12.637 16.910 C 12.874 17.009,13.237 16.988,13.469 16.862 C 13.609 16.786,14.290 16.130,15.769 14.647 C 17.665 12.745,17.876 12.521,17.935 12.343 C 18.017 12.094,18.017 11.906,17.935 11.657 C 17.876 11.479,17.665 11.255,15.769 9.353 C 14.359 7.939,13.607 7.214,13.484 7.148 C 13.251 7.023,12.992 6.990,12.753 7.055 " fill="#000640" stroke="none" fill-rule="evenodd"></path></svg>