<svg xmlns="http://www.w3.org/2000/svg" width="24" height="24" fill="currentColor" class="mmi mmi-arrow-square-upright" viewBox="0 0 24 24"><path d="M3.503 1.042 C 2.818 1.158,2.117 1.573,1.670 2.127 C 1.445 2.407,1.159 2.980,1.074 3.320 C 0.993 3.647,0.993 20.353,1.074 20.680 C 1.159 21.020,1.445 21.593,1.670 21.873 C 1.950 22.220,2.312 22.501,2.740 22.704 C 3.409 23.021,2.760 23.000,12.000 23.000 C 21.240 23.000,20.591 23.021,21.260 22.704 C 21.920 22.391,22.391 21.920,22.704 21.260 C 23.021 20.591,23.000 21.240,23.000 12.000 C 23.000 2.760,23.021 3.409,22.704 2.740 C 22.398 2.095,21.924 1.614,21.296 1.312 C 20.634 0.993,21.532 1.022,12.120 1.015 C 7.489 1.012,3.611 1.024,3.503 1.042 M20.340 3.066 C 20.593 3.153,20.847 3.407,20.934 3.660 C 20.995 3.838,21.000 4.523,21.000 12.000 C 21.000 21.144,21.026 20.376,20.701 20.701 C 20.376 21.026,21.144 21.000,11.998 21.000 C 3.106 21.000,3.684 21.015,3.374 20.778 C 3.301 20.723,3.192 20.592,3.131 20.489 L 3.020 20.300 3.020 12.000 L 3.020 3.700 3.131 3.511 C 3.256 3.298,3.449 3.136,3.670 3.057 C 3.793 3.013,5.268 3.003,11.983 3.002 C 19.479 3.000,20.162 3.005,20.340 3.066 M9.617 7.577 C 9.271 7.727,9.001 8.133,9.001 8.500 C 9.001 8.873,9.264 9.268,9.620 9.428 C 9.763 9.492,9.953 9.502,11.410 9.520 L 13.040 9.540 10.377 12.200 C 8.388 14.188,7.688 14.911,7.611 15.060 C 7.320 15.620,7.629 16.278,8.271 16.465 C 8.503 16.532,8.713 16.505,8.976 16.374 C 9.044 16.340,10.310 15.104,11.788 13.628 L 14.476 10.945 14.488 12.583 C 14.501 14.396,14.500 14.388,14.772 14.675 C 15.182 15.107,15.844 15.096,16.245 14.652 C 16.509 14.358,16.500 14.485,16.500 11.220 L 16.500 8.260 16.381 8.045 C 16.316 7.927,16.207 7.788,16.139 7.736 C 15.844 7.512,15.972 7.520,12.731 7.522 C 10.322 7.523,9.716 7.534,9.617 7.577 " fill="#000640" stroke="none" fill-rule="evenodd"></path></svg>