<svg xmlns="http://www.w3.org/2000/svg" width="24" height="24" fill="currentColor" class="mmi mmi-arrow-squareline-up" viewBox="0 0 24 24"><path d="M3.503 1.042 C 2.488 1.214,1.556 1.976,1.202 2.925 C 0.992 3.487,1.001 3.068,1.001 11.992 C 1.000 19.301,1.007 20.319,1.062 20.581 C 1.310 21.785,2.215 22.690,3.419 22.938 C 3.864 23.030,10.136 23.030,10.581 22.938 C 11.780 22.691,12.691 21.780,12.938 20.581 C 12.992 20.324,13.000 19.685,13.000 15.853 L 13.000 11.423 14.230 12.648 C 15.391 13.804,15.472 13.876,15.677 13.936 C 15.948 14.016,16.012 14.016,16.283 13.936 C 16.590 13.844,16.849 13.581,16.940 13.265 C 17.018 12.999,17.000 12.790,16.879 12.540 C 16.829 12.435,16.070 11.650,14.671 10.255 C 12.747 8.336,12.521 8.124,12.343 8.065 C 12.094 7.983,11.906 7.983,11.657 8.065 C 11.479 8.124,11.253 8.337,9.329 10.255 C 7.003 12.574,7.000 12.578,7.000 13.009 C 7.000 13.295,7.078 13.492,7.272 13.695 C 7.475 13.907,7.688 13.998,7.980 13.998 C 8.402 13.998,8.464 13.951,9.790 12.629 L 11.000 11.422 11.000 15.784 C 11.000 20.689,11.019 20.384,10.701 20.701 C 10.390 21.013,10.544 21.000,7.000 21.000 C 3.456 21.000,3.610 21.013,3.299 20.701 C 2.974 20.376,3.000 21.144,3.000 12.000 C 3.000 2.856,2.974 3.624,3.299 3.299 C 3.624 2.974,2.856 3.000,12.000 3.000 C 21.144 3.000,20.376 2.974,20.701 3.299 C 21.026 3.624,21.000 2.856,21.000 12.000 C 21.000 21.144,21.026 20.376,20.701 20.701 C 20.420 20.982,20.316 21.000,18.998 21.000 C 17.758 21.000,17.645 21.015,17.374 21.222 C 17.301 21.277,17.192 21.408,17.131 21.511 C 17.036 21.672,17.020 21.744,17.020 22.000 C 17.020 22.256,17.036 22.328,17.131 22.489 C 17.260 22.709,17.437 22.854,17.678 22.939 C 17.929 23.028,20.151 23.027,20.581 22.938 C 21.780 22.691,22.691 21.780,22.938 20.581 C 22.993 20.319,23.000 19.300,23.000 12.000 C 23.000 2.925,23.014 3.457,22.766 2.849 C 22.499 2.193,21.964 1.633,21.296 1.312 C 20.634 0.993,21.532 1.022,12.120 1.015 C 7.489 1.012,3.611 1.024,3.503 1.042 " fill="#000640" stroke="none" fill-rule="evenodd"></path></svg>