<svg xmlns="http://www.w3.org/2000/svg" width="24" height="24" fill="currentColor" class="mmi mmi-arrow-curveline-up" viewBox="0 0 24 24"><path d="M11.180 2.024 C 8.449 2.236,6.184 3.065,4.140 4.602 C 3.211 5.300,3.031 5.523,3.029 5.980 C 3.026 6.549,3.453 6.978,4.018 6.973 C 4.325 6.969,4.472 6.903,4.820 6.611 C 6.506 5.198,8.312 4.406,10.560 4.094 C 11.252 3.998,12.748 3.998,13.440 4.094 C 15.687 4.406,17.552 5.225,19.180 6.614 C 19.558 6.937,19.737 7.013,20.080 6.993 C 20.610 6.963,20.963 6.608,20.994 6.074 C 21.022 5.565,20.825 5.316,19.780 4.539 C 17.991 3.209,15.920 2.392,13.600 2.100 C 13.120 2.039,11.596 1.992,11.180 2.024 M11.640 6.068 C 11.486 6.121,11.153 6.435,9.347 8.235 C 7.036 10.537,7.031 10.544,7.029 10.979 C 7.028 11.257,7.097 11.446,7.277 11.650 C 7.555 11.967,8.067 12.068,8.442 11.881 C 8.560 11.822,9.022 11.391,9.810 10.607 L 11.000 9.422 11.000 15.284 C 11.000 21.869,10.977 21.379,11.299 21.701 C 11.690 22.092,12.310 22.092,12.701 21.701 C 13.023 21.379,13.000 21.869,13.000 15.284 L 13.000 9.422 14.190 10.607 C 14.978 11.391,15.440 11.822,15.558 11.881 C 15.933 12.068,16.445 11.967,16.723 11.650 C 17.000 11.335,17.055 10.886,16.862 10.531 C 16.786 10.391,16.130 9.710,14.647 8.231 C 12.745 6.335,12.521 6.124,12.343 6.065 C 12.102 5.986,11.878 5.986,11.640 6.068 " fill="#000640" stroke="none" fill-rule="evenodd"></path></svg>