<svg xmlns="http://www.w3.org/2000/svg" width="24" height="24" fill="currentColor" class="mmi mmi-arrow-square-downleft" viewBox="0 0 24 24"><path d="M3.503 1.042 C 2.818 1.158,2.117 1.573,1.670 2.127 C 1.445 2.407,1.159 2.980,1.074 3.320 C 0.993 3.647,0.993 20.353,1.074 20.680 C 1.159 21.020,1.445 21.593,1.670 21.873 C 1.950 22.220,2.312 22.501,2.740 22.704 C 3.409 23.021,2.760 23.000,12.000 23.000 C 21.240 23.000,20.591 23.021,21.260 22.704 C 21.920 22.391,22.391 21.920,22.704 21.260 C 23.021 20.591,23.000 21.240,23.000 12.000 C 23.000 2.760,23.021 3.409,22.704 2.740 C 22.398 2.095,21.924 1.614,21.296 1.312 C 20.634 0.993,21.532 1.022,12.120 1.015 C 7.489 1.012,3.611 1.024,3.503 1.042 M20.340 3.066 C 20.593 3.153,20.847 3.407,20.934 3.660 C 20.995 3.838,21.000 4.523,21.000 12.000 C 21.000 21.144,21.026 20.376,20.701 20.701 C 20.376 21.026,21.144 21.000,11.998 21.000 C 3.106 21.000,3.684 21.015,3.374 20.778 C 3.301 20.723,3.192 20.592,3.131 20.489 L 3.020 20.300 3.020 12.000 L 3.020 3.700 3.131 3.511 C 3.256 3.298,3.449 3.136,3.670 3.057 C 3.793 3.013,5.268 3.003,11.983 3.002 C 19.479 3.000,20.162 3.005,20.340 3.066 M15.080 7.603 C 14.942 7.665,14.277 8.307,12.212 10.369 L 9.524 13.055 9.512 11.417 C 9.499 9.604,9.500 9.610,9.228 9.326 C 9.015 9.104,8.819 9.022,8.500 9.022 C 8.169 9.022,7.971 9.110,7.752 9.352 C 7.491 9.641,7.500 9.519,7.500 12.780 L 7.500 15.740 7.619 15.955 C 7.739 16.171,7.863 16.288,8.120 16.425 C 8.253 16.496,8.406 16.500,11.220 16.500 C 14.485 16.500,14.358 16.509,14.652 16.245 C 15.103 15.838,15.107 15.158,14.659 14.765 C 14.377 14.517,14.401 14.520,12.601 14.520 C 11.699 14.520,10.960 14.506,10.960 14.490 C 10.960 14.473,12.149 13.272,13.603 11.820 C 15.056 10.368,16.288 9.108,16.340 9.020 C 16.493 8.764,16.534 8.508,16.462 8.262 C 16.327 7.797,15.967 7.519,15.502 7.521 C 15.347 7.521,15.196 7.551,15.080 7.603 " fill="#000640" stroke="none" fill-rule="evenodd"></path></svg>