<svg xmlns="http://www.w3.org/2000/svg" width="24" height="24" fill="currentColor" class="mmi mmi-arrow-curveline-down" viewBox="0 0 24 24"><path d="M11.664 2.063 C 11.436 2.146,11.257 2.297,11.131 2.511 L 11.020 2.700 11.009 8.639 L 10.999 14.577 9.789 13.371 C 8.491 12.075,8.396 12.002,8.020 12.001 C 7.722 12.000,7.551 12.062,7.339 12.249 C 7.097 12.462,7.002 12.669,7.001 12.982 C 6.999 13.423,6.994 13.417,9.329 15.745 C 11.253 17.663,11.479 17.876,11.657 17.935 C 11.906 18.017,12.094 18.017,12.343 17.935 C 12.521 17.876,12.747 17.664,14.671 15.745 C 16.070 14.350,16.829 13.565,16.879 13.460 C 17.125 12.951,16.919 12.362,16.410 12.115 C 16.160 11.994,15.805 11.996,15.558 12.119 C 15.439 12.178,14.985 12.602,14.190 13.393 L 13.000 14.579 13.000 8.717 C 13.000 2.131,13.023 2.621,12.701 2.299 C 12.429 2.027,12.018 1.933,11.664 2.063 M3.643 17.066 C 3.288 17.197,3.000 17.615,3.000 18.000 C 3.000 18.429,3.224 18.709,4.097 19.368 C 6.005 20.810,8.017 21.603,10.580 21.926 C 11.101 21.991,12.899 21.991,13.420 21.926 C 15.954 21.607,17.989 20.811,19.851 19.408 C 20.802 18.693,21.001 18.445,20.999 17.982 C 20.997 17.416,20.583 17.002,20.020 17.002 C 19.707 17.002,19.536 17.083,19.140 17.421 C 17.892 18.485,16.454 19.224,14.816 19.642 C 13.763 19.911,13.219 19.975,12.000 19.975 C 11.101 19.975,10.853 19.962,10.364 19.886 C 8.247 19.557,6.397 18.729,4.864 17.425 C 4.690 17.277,4.492 17.127,4.425 17.092 C 4.249 17.001,3.857 16.988,3.643 17.066 " fill="#000640" stroke="none" fill-rule="evenodd"></path></svg>