<svg xmlns="http://www.w3.org/2000/svg" width="24" height="24" fill="currentColor" class="mmi mmi-arrowbold-backline-upleft" viewBox="0 0 24 24"><path d="M3.700 2.956 C 3.340 3.048,3.033 3.362,2.945 3.730 C 2.930 3.791,3.081 6.929,3.280 10.705 C 3.619 17.135,3.647 17.582,3.726 17.765 C 3.893 18.153,4.290 18.388,4.714 18.350 C 4.842 18.338,5.008 18.298,5.084 18.260 C 5.159 18.222,5.886 17.527,6.700 16.716 L 8.181 15.241 10.020 17.081 C 11.672 18.733,11.882 18.929,12.072 19.001 C 12.327 19.097,12.439 19.099,12.723 19.017 C 12.933 18.955,13.029 18.864,15.911 15.987 C 17.897 14.004,18.908 12.966,18.961 12.858 C 19.081 12.610,19.101 12.365,19.020 12.115 C 18.955 11.913,18.835 11.784,17.096 10.040 L 15.240 8.179 16.683 6.740 C 17.476 5.948,18.172 5.222,18.228 5.127 C 18.302 5.002,18.336 4.880,18.349 4.687 C 18.364 4.453,18.353 4.393,18.253 4.200 C 18.127 3.954,17.880 3.744,17.648 3.683 C 17.567 3.662,14.548 3.491,10.940 3.303 C 7.332 3.115,4.254 2.953,4.100 2.944 C 3.946 2.934,3.766 2.939,3.700 2.956 M10.080 5.260 C 12.789 5.403,15.018 5.520,15.032 5.520 C 15.046 5.520,14.596 5.984,14.031 6.550 C 13.291 7.293,12.982 7.630,12.923 7.760 C 12.824 7.979,12.814 8.341,12.901 8.551 C 12.944 8.653,13.541 9.279,14.811 10.550 L 16.660 12.400 14.530 14.530 L 12.401 16.659 10.530 14.793 C 8.503 12.770,8.588 12.840,8.140 12.841 C 7.771 12.842,7.658 12.927,6.554 14.027 L 5.528 15.050 5.503 14.715 C 5.476 14.359,5.000 5.255,5.000 5.094 C 5.000 5.028,5.023 5.000,5.077 5.000 C 5.119 5.000,7.371 5.117,10.080 5.260 M20.580 14.299 C 20.492 14.332,20.411 14.359,20.401 14.359 C 20.390 14.360,19.043 15.697,17.408 17.330 C 15.672 19.064,14.399 20.367,14.348 20.460 C 14.228 20.683,14.228 21.116,14.348 21.340 C 14.604 21.821,15.168 22.026,15.640 21.811 C 15.778 21.748,16.518 21.029,18.806 18.734 C 22.008 15.523,21.894 15.651,21.894 15.240 C 21.894 14.869,21.681 14.524,21.346 14.353 C 21.136 14.246,20.787 14.221,20.580 14.299 " fill="#000640" stroke="none" fill-rule="evenodd"></path></svg>