<svg xmlns="http://www.w3.org/2000/svg" width="24" height="24" fill="currentColor" class="mmi mmi-arrow-curveline-left" viewBox="0 0 24 24"><path d="M5.498 3.157 C 5.365 3.233,5.188 3.402,4.984 3.647 C 3.408 5.537,2.464 7.730,2.095 10.360 C 1.995 11.068,1.995 12.932,2.095 13.640 C 2.470 16.315,3.404 18.466,5.036 20.414 C 5.431 20.886,5.747 21.038,6.166 20.959 C 6.721 20.854,7.076 20.320,6.958 19.770 C 6.912 19.556,6.857 19.471,6.418 18.940 C 5.581 17.929,4.835 16.505,4.461 15.202 C 4.138 14.077,4.024 13.244,4.024 12.000 C 4.024 10.756,4.138 9.923,4.461 8.798 C 4.835 7.495,5.581 6.071,6.418 5.060 C 6.859 4.527,6.914 4.442,6.959 4.225 C 7.089 3.596,6.622 3.039,5.965 3.040 C 5.746 3.041,5.665 3.061,5.498 3.157 M10.578 7.099 C 10.427 7.174,9.870 7.709,8.255 9.329 C 6.337 11.253,6.124 11.479,6.065 11.657 C 5.983 11.906,5.983 12.094,6.065 12.343 C 6.124 12.521,6.335 12.745,8.231 14.647 C 9.710 16.130,10.391 16.786,10.531 16.862 C 10.886 17.055,11.335 17.000,11.650 16.723 C 11.967 16.445,12.068 15.933,11.881 15.558 C 11.822 15.440,11.391 14.978,10.607 14.190 L 9.422 13.000 15.284 13.000 C 21.869 13.000,21.379 13.023,21.701 12.701 C 22.092 12.310,22.092 11.690,21.701 11.299 C 21.379 10.977,21.869 11.000,15.284 11.000 L 9.422 11.000 10.629 9.790 C 11.925 8.491,11.998 8.397,11.999 8.020 C 12.000 7.692,11.932 7.527,11.703 7.297 C 11.473 7.068,11.309 7.001,10.978 7.000 C 10.843 7.000,10.710 7.033,10.578 7.099 " fill="#000640" stroke="none" fill-rule="evenodd"></path></svg>