<svg xmlns="http://www.w3.org/2000/svg" width="24" height="24" fill="currentColor" class="mmi mmi-arrow-squareline-down" viewBox="0 0 24 24"><path d="M3.503 1.042 C 2.485 1.216,1.556 1.976,1.202 2.925 C 0.992 3.487,1.001 3.068,1.001 11.992 C 1.000 21.076,0.986 20.543,1.234 21.151 C 1.521 21.857,2.143 22.479,2.849 22.766 C 3.457 23.014,2.925 23.000,12.000 23.000 C 21.073 23.000,20.544 23.013,21.150 22.767 C 21.850 22.482,22.482 21.850,22.767 21.150 C 23.013 20.544,23.000 21.073,23.000 12.000 C 23.000 2.925,23.014 3.457,22.766 2.849 C 22.434 2.031,21.668 1.363,20.756 1.092 C 20.467 1.006,18.005 0.966,17.732 1.042 C 17.486 1.111,17.265 1.283,17.133 1.508 C 17.036 1.673,17.020 1.743,17.020 2.000 C 17.020 2.256,17.036 2.328,17.131 2.489 C 17.192 2.592,17.301 2.723,17.374 2.778 C 17.645 2.985,17.758 3.000,18.998 3.000 C 20.316 3.000,20.420 3.018,20.701 3.299 C 21.026 3.624,21.000 2.856,21.000 12.000 C 21.000 21.144,21.026 20.376,20.701 20.701 C 20.376 21.026,21.144 21.000,12.000 21.000 C 2.856 21.000,3.624 21.026,3.299 20.701 C 2.974 20.376,3.000 21.144,3.000 12.000 C 3.000 2.856,2.974 3.624,3.299 3.299 C 3.610 2.987,3.456 3.000,7.000 3.000 C 10.544 3.000,10.390 2.987,10.701 3.299 C 11.019 3.616,11.000 3.311,11.000 8.216 L 11.000 12.578 9.790 11.371 C 8.491 10.075,8.397 10.002,8.020 10.001 C 7.722 10.000,7.551 10.062,7.339 10.249 C 7.097 10.462,7.002 10.669,7.001 10.982 C 6.999 11.423,6.994 11.417,9.329 13.745 C 11.253 15.663,11.479 15.876,11.657 15.935 C 11.906 16.017,12.094 16.017,12.343 15.935 C 12.521 15.876,12.747 15.664,14.671 13.745 C 16.070 12.350,16.829 11.565,16.879 11.460 C 17.125 10.951,16.919 10.362,16.410 10.115 C 16.160 9.994,15.805 9.996,15.558 10.119 C 15.439 10.178,14.985 10.602,14.190 11.393 L 13.000 12.579 13.000 8.148 C 13.000 3.305,13.006 3.438,12.766 2.849 C 12.499 2.193,11.964 1.633,11.296 1.312 C 10.658 1.005,10.932 1.024,7.120 1.016 C 5.239 1.011,3.611 1.023,3.503 1.042 " fill="#000640" stroke="none" fill-rule="evenodd"></path></svg>