<svg xmlns="http://www.w3.org/2000/svg" width="24" height="24" fill="currentColor" class="mmi mmi-arrow-square-upleft" viewBox="0 0 24 24"><path d="M3.503 1.042 C 2.818 1.158,2.117 1.573,1.670 2.127 C 1.445 2.407,1.159 2.980,1.074 3.320 C 0.993 3.647,0.993 20.353,1.074 20.680 C 1.159 21.020,1.445 21.593,1.670 21.873 C 1.950 22.220,2.312 22.501,2.740 22.704 C 3.409 23.021,2.760 23.000,12.000 23.000 C 21.240 23.000,20.591 23.021,21.260 22.704 C 21.920 22.391,22.391 21.920,22.704 21.260 C 23.021 20.591,23.000 21.240,23.000 12.000 C 23.000 2.760,23.021 3.409,22.704 2.740 C 22.398 2.095,21.924 1.614,21.296 1.312 C 20.634 0.993,21.532 1.022,12.120 1.015 C 7.489 1.012,3.611 1.024,3.503 1.042 M20.340 3.066 C 20.593 3.153,20.847 3.407,20.934 3.660 C 20.995 3.838,21.000 4.523,21.000 12.000 C 21.000 21.144,21.026 20.376,20.701 20.701 C 20.376 21.026,21.144 21.000,11.998 21.000 C 3.106 21.000,3.684 21.015,3.374 20.778 C 3.301 20.723,3.192 20.592,3.131 20.489 L 3.020 20.300 3.020 12.000 L 3.020 3.700 3.131 3.511 C 3.256 3.298,3.449 3.136,3.670 3.057 C 3.793 3.013,5.268 3.003,11.983 3.002 C 19.479 3.000,20.162 3.005,20.340 3.066 M8.122 7.583 C 7.889 7.684,7.724 7.835,7.609 8.052 L 7.500 8.260 7.500 11.220 C 7.500 14.485,7.491 14.358,7.755 14.652 C 8.156 15.096,8.818 15.107,9.228 14.675 C 9.500 14.388,9.499 14.396,9.512 12.583 L 9.524 10.945 12.212 13.628 C 13.690 15.104,14.956 16.340,15.024 16.374 C 15.287 16.505,15.497 16.532,15.729 16.465 C 16.188 16.331,16.489 15.955,16.493 15.508 C 16.497 15.073,16.550 15.133,13.631 12.212 L 10.945 9.524 12.583 9.512 C 14.058 9.501,14.236 9.493,14.380 9.428 C 14.736 9.268,14.999 8.873,14.999 8.500 C 14.999 8.128,14.725 7.721,14.374 7.575 C 14.170 7.490,8.320 7.497,8.122 7.583 " fill="#000640" stroke="none" fill-rule="evenodd"></path></svg>