<svg xmlns="http://www.w3.org/2000/svg" width="24" height="24" fill="currentColor" class="mmi mmi-arrow-circle-downleft" viewBox="0 0 24 24"><path d="M11.200 0.025 C 7.107 0.331,3.549 2.581,1.528 6.144 C 0.798 7.429,0.318 8.896,0.094 10.520 C -0.002 11.214,-0.002 12.786,0.094 13.480 C 0.317 15.101,0.775 16.506,1.507 17.814 C 4.173 22.579,9.604 24.939,14.910 23.637 C 19.156 22.595,22.595 19.156,23.637 14.910 C 24.599 10.992,23.592 6.970,20.896 3.958 C 19.003 1.843,16.397 0.483,13.500 0.099 C 13.032 0.037,11.640 -0.007,11.200 0.025 M12.920 2.043 C 14.827 2.219,16.631 2.940,18.200 4.155 C 18.637 4.493,19.507 5.363,19.845 5.800 C 21.878 8.427,22.517 11.768,21.578 14.865 C 21.082 16.499,20.272 17.850,19.061 19.061 C 18.287 19.836,17.547 20.383,16.623 20.863 C 13.714 22.376,10.286 22.376,7.377 20.863 C 6.454 20.383,5.715 19.837,4.938 19.061 C 3.951 18.075,3.213 16.964,2.722 15.728 C 1.390 12.368,1.921 8.686,4.153 5.800 C 4.491 5.363,5.363 4.491,5.800 4.153 C 7.114 3.137,8.541 2.486,10.125 2.181 C 11.037 2.006,12.003 1.958,12.920 2.043 M15.080 7.601 C 14.944 7.663,14.245 8.339,12.220 10.362 C 10.745 11.835,9.526 13.040,9.510 13.040 C 9.493 13.040,9.480 12.301,9.480 11.399 C 9.480 9.602,9.482 9.622,9.239 9.345 C 9.034 9.112,8.829 9.022,8.500 9.022 C 8.289 9.022,8.179 9.044,8.054 9.110 C 7.849 9.218,7.612 9.489,7.557 9.678 C 7.530 9.771,7.520 10.848,7.528 12.823 L 7.540 15.826 7.661 16.022 C 7.736 16.143,7.857 16.264,7.978 16.339 L 8.174 16.460 11.177 16.472 C 13.152 16.480,14.229 16.470,14.322 16.443 C 14.511 16.388,14.782 16.151,14.890 15.946 C 14.956 15.821,14.978 15.711,14.978 15.500 C 14.978 15.171,14.888 14.966,14.655 14.761 C 14.378 14.518,14.398 14.520,12.601 14.520 C 11.699 14.520,10.960 14.507,10.960 14.491 C 10.960 14.475,12.173 13.246,13.655 11.761 C 16.645 8.764,16.505 8.930,16.473 8.426 C 16.452 8.093,16.298 7.832,16.023 7.662 C 15.763 7.501,15.354 7.474,15.080 7.601 " stroke="none" fill-rule="evenodd"></path></svg>