<svg xmlns="http://www.w3.org/2000/svg" width="24" height="24" fill="currentColor" class="mmi mmi-arrow-updownright" viewBox="0 0 24 24"><path d="M10.375 6.900 C 10.070 6.966,9.709 7.110,9.409 7.285 C 9.104 7.463,2.237 14.299,2.121 14.540 C 2.000 14.790,1.982 14.999,2.060 15.265 C 2.151 15.581,2.410 15.844,2.717 15.936 C 2.987 16.016,3.051 16.016,3.323 15.937 C 3.534 15.875,3.635 15.778,6.980 12.438 C 9.641 9.781,10.461 8.985,10.600 8.923 C 10.851 8.810,11.166 8.815,11.420 8.936 C 11.580 9.013,12.309 9.722,15.100 12.516 L 18.580 16.000 16.215 16.000 C 13.650 16.000,13.667 15.999,13.374 16.222 C 13.301 16.277,13.192 16.408,13.131 16.511 C 13.036 16.672,13.020 16.744,13.020 17.000 C 13.020 17.256,13.036 17.328,13.131 17.489 C 13.192 17.592,13.301 17.723,13.374 17.778 C 13.675 18.008,13.531 18.000,17.498 18.000 C 21.604 18.000,21.387 18.015,21.701 17.701 C 22.015 17.387,22.000 17.604,22.000 13.500 C 22.000 9.395,22.016 9.613,21.700 9.298 C 21.390 8.988,20.932 8.920,20.531 9.126 C 20.315 9.238,20.103 9.491,20.042 9.711 C 20.015 9.806,20.000 10.717,20.000 12.219 L 20.000 14.578 16.410 10.998 C 12.679 7.279,12.681 7.280,12.119 7.053 C 11.603 6.845,10.908 6.784,10.375 6.900 " fill="#000640" stroke="none" fill-rule="evenodd"></path></svg>