<svg xmlns="http://www.w3.org/2000/svg" width="24" height="24" fill="currentColor" class="mmi mmi-arrowbold-backline-upright" viewBox="0 0 24 24"><path d="M13.220 3.285 C 9.524 3.483,6.433 3.662,6.352 3.683 C 6.119 3.744,5.873 3.954,5.747 4.200 C 5.647 4.393,5.636 4.453,5.651 4.687 C 5.664 4.880,5.698 5.002,5.772 5.127 C 5.828 5.222,6.524 5.948,7.317 6.740 L 8.760 8.179 6.904 10.040 C 5.165 11.784,5.045 11.913,4.980 12.115 C 4.899 12.365,4.919 12.610,5.039 12.858 C 5.092 12.966,6.103 14.004,8.089 15.987 C 10.971 18.864,11.067 18.955,11.277 19.017 C 11.561 19.099,11.673 19.097,11.928 19.001 C 12.118 18.929,12.328 18.733,13.980 17.081 L 15.819 15.241 17.300 16.716 C 18.114 17.527,18.841 18.222,18.915 18.259 C 19.454 18.530,20.155 18.221,20.321 17.640 C 20.372 17.459,21.089 3.898,21.056 3.740 C 20.965 3.311,20.590 2.980,20.153 2.943 C 20.036 2.934,16.916 3.087,13.220 3.285 M19.000 5.071 C 19.000 5.195,18.525 14.283,18.498 14.675 L 18.472 15.050 17.446 14.027 C 16.342 12.927,16.229 12.842,15.860 12.841 C 15.412 12.840,15.497 12.770,13.470 14.793 L 11.599 16.659 9.470 14.530 L 7.340 12.400 9.189 10.550 C 10.459 9.279,11.056 8.653,11.099 8.551 C 11.186 8.341,11.176 7.979,11.077 7.760 C 11.018 7.630,10.709 7.293,9.969 6.550 C 9.112 5.691,8.958 5.520,9.041 5.517 C 9.095 5.516,11.237 5.401,13.800 5.262 C 19.257 4.967,19.000 4.976,19.000 5.071 M2.840 14.275 C 2.642 14.340,2.492 14.437,2.352 14.592 C 2.186 14.775,2.106 14.987,2.106 15.240 C 2.106 15.651,1.992 15.523,5.194 18.734 C 7.482 21.029,8.222 21.748,8.360 21.811 C 8.832 22.026,9.396 21.821,9.652 21.340 C 9.765 21.129,9.771 20.684,9.665 20.480 C 9.563 20.283,3.740 14.455,3.543 14.353 C 3.372 14.264,2.999 14.223,2.840 14.275 " fill="#000640" stroke="none" fill-rule="evenodd"></path></svg>