<svg xmlns="http://www.w3.org/2000/svg" width="24" height="24" fill="currentColor" class="mmi mmi-arrow-opensquare-indown" viewBox="0 0 24 24"><path d="M3.503 1.042 C 2.490 1.212,1.556 1.976,1.202 2.925 C 0.992 3.487,1.001 3.068,1.001 11.992 C 1.000 21.076,0.986 20.543,1.234 21.151 C 1.521 21.857,2.143 22.479,2.849 22.766 C 3.457 23.014,2.925 23.000,12.000 23.000 C 21.073 23.000,20.544 23.013,21.150 22.767 C 21.850 22.482,22.482 21.850,22.767 21.150 C 23.013 20.544,23.000 21.073,23.000 12.000 C 23.000 2.925,23.014 3.457,22.766 2.849 C 22.499 2.193,21.964 1.633,21.296 1.312 C 20.694 1.022,20.741 1.028,18.721 1.010 C 17.379 0.999,16.856 1.007,16.729 1.043 C 16.486 1.111,16.264 1.284,16.133 1.508 C 16.036 1.673,16.020 1.743,16.020 2.000 C 16.020 2.256,16.036 2.328,16.131 2.489 C 16.192 2.592,16.301 2.723,16.374 2.778 C 16.657 2.994,16.715 3.000,18.498 3.000 C 20.371 3.000,20.407 3.005,20.701 3.299 C 21.026 3.624,21.000 2.856,21.000 12.000 C 21.000 21.144,21.026 20.376,20.701 20.701 C 20.376 21.026,21.144 21.000,12.000 21.000 C 2.856 21.000,3.624 21.026,3.299 20.701 C 2.974 20.376,3.000 21.144,3.000 12.000 C 3.000 2.856,2.974 3.624,3.299 3.299 C 3.593 3.005,3.629 3.000,5.500 3.000 C 7.371 3.000,7.407 2.995,7.701 2.701 C 8.092 2.310,8.092 1.690,7.701 1.299 C 7.405 1.003,7.380 0.999,5.423 1.005 C 4.475 1.007,3.611 1.024,3.503 1.042 M11.643 6.069 C 11.546 6.103,11.392 6.206,11.300 6.298 C 10.983 6.615,11.000 6.370,11.000 10.716 L 11.000 14.578 9.810 13.393 C 9.021 12.608,8.560 12.178,8.442 12.119 C 7.949 11.872,7.312 12.116,7.089 12.637 C 6.989 12.870,7.011 13.236,7.138 13.469 C 7.214 13.609,7.869 14.289,9.353 15.769 C 11.255 17.665,11.479 17.876,11.657 17.935 C 11.904 18.016,12.048 18.017,12.323 17.937 C 12.532 17.875,12.619 17.794,14.647 15.770 C 16.128 14.292,16.786 13.609,16.862 13.469 C 16.988 13.237,17.009 12.874,16.910 12.637 C 16.693 12.118,16.052 11.873,15.558 12.119 C 15.439 12.178,14.985 12.602,14.190 13.393 L 13.000 14.579 13.000 10.717 C 13.000 6.371,13.016 6.614,12.701 6.299 C 12.424 6.021,12.024 5.934,11.643 6.069 " fill="#000640" stroke="none" fill-rule="evenodd"></path></svg>