<svg xmlns="http://www.w3.org/2000/svg" width="24" height="24" fill="currentColor" class="mmi mmi-atm" viewBox="0 0 24 24"><path d="M3.503 1.042 C 2.554 1.203,1.717 1.847,1.298 2.740 C 1.009 3.355,1.020 3.209,1.020 6.500 C 1.020 9.791,1.009 9.645,1.298 10.260 C 1.606 10.918,2.079 11.391,2.740 11.704 C 3.081 11.865,3.601 12.000,3.883 12.000 L 3.998 12.000 4.010 16.270 C 4.024 21.031,4.002 20.651,4.312 21.296 C 4.614 21.924,5.095 22.398,5.740 22.704 C 6.394 23.013,6.109 23.000,12.000 23.000 C 17.891 23.000,17.606 23.013,18.260 22.704 C 18.920 22.391,19.391 21.920,19.704 21.260 C 20.008 20.617,20.000 20.763,20.000 16.116 L 20.000 12.000 20.116 12.000 C 20.621 12.000,21.419 11.696,21.873 11.330 C 22.403 10.903,22.814 10.221,22.937 9.566 C 23.031 9.068,23.031 3.932,22.937 3.434 C 22.767 2.532,22.137 1.716,21.296 1.312 C 20.634 0.993,21.532 1.022,12.120 1.015 C 7.489 1.012,3.611 1.024,3.503 1.042 M20.340 3.066 C 20.593 3.153,20.847 3.407,20.934 3.660 C 20.993 3.833,21.000 4.142,21.000 6.500 C 21.000 9.486,21.009 9.394,20.701 9.701 C 20.544 9.858,20.246 10.000,20.073 10.000 C 20.003 10.000,20.000 9.906,20.000 7.927 C 20.000 5.581,20.002 5.600,19.701 5.299 C 19.377 4.975,20.023 5.000,12.000 5.000 C 3.977 5.000,4.623 4.975,4.299 5.299 C 3.998 5.600,4.000 5.580,4.000 7.932 L 4.000 10.010 3.852 9.986 C 3.485 9.927,3.131 9.619,3.040 9.280 C 3.012 9.176,3.002 8.221,3.009 6.412 L 3.020 3.700 3.131 3.511 C 3.256 3.298,3.449 3.136,3.670 3.057 C 3.793 3.013,5.268 3.003,11.983 3.002 C 19.479 3.000,20.162 3.005,20.340 3.066 M18.000 13.573 C 18.000 20.956,18.024 20.378,17.700 20.702 C 17.380 21.023,17.786 21.002,11.937 20.990 L 6.738 20.980 6.539 20.878 C 6.316 20.763,6.104 20.512,6.042 20.289 C 6.014 20.189,6.000 17.973,6.000 13.570 L 6.000 7.000 12.000 7.000 L 18.000 7.000 18.000 13.573 M14.664 9.063 C 14.436 9.146,14.257 9.297,14.131 9.511 L 14.020 9.700 14.008 10.908 C 13.995 12.232,14.007 12.338,14.211 12.606 C 14.678 13.218,15.688 13.062,15.934 12.340 C 16.032 12.052,16.032 9.948,15.934 9.660 C 15.764 9.160,15.165 8.879,14.664 9.063 M14.664 15.063 C 14.436 15.146,14.257 15.297,14.131 15.511 L 14.020 15.700 14.008 16.908 C 13.995 18.232,14.007 18.338,14.211 18.606 C 14.678 19.218,15.688 19.062,15.934 18.340 C 16.032 18.052,16.032 15.948,15.934 15.660 C 15.764 15.160,15.165 14.879,14.664 15.063 " fill="#000640" stroke="none" fill-rule="evenodd"></path></svg>