<svg xmlns="http://www.w3.org/2000/svg" width="24" height="24" fill="currentColor" class="mmi mmi-audioplayer" viewBox="0 0 24 24"><path d="M5.503 0.042 C 4.817 0.158,4.117 0.573,3.670 1.127 C 3.445 1.407,3.159 1.980,3.074 2.320 C 2.993 2.647,2.993 21.353,3.074 21.680 C 3.159 22.020,3.445 22.593,3.670 22.873 C 3.950 23.220,4.312 23.501,4.740 23.704 C 5.401 24.017,4.993 24.000,12.000 24.000 C 19.007 24.000,18.599 24.017,19.260 23.704 C 19.920 23.391,20.391 22.920,20.704 22.260 C 21.022 21.588,21.000 22.357,21.000 12.000 C 21.000 1.643,21.022 2.412,20.704 1.740 C 20.398 1.095,19.924 0.614,19.296 0.312 C 18.639 -0.004,19.291 0.023,12.120 0.015 C 8.589 0.012,5.611 0.024,5.503 0.042 M18.340 2.066 C 18.593 2.153,18.847 2.407,18.934 2.660 C 18.995 2.839,19.000 3.592,19.000 12.000 C 19.000 22.267,19.028 21.375,18.700 21.702 C 18.378 22.025,18.906 22.002,11.937 21.990 L 5.738 21.980 5.539 21.878 C 5.313 21.761,5.102 21.509,5.041 21.283 C 5.013 21.178,5.003 18.175,5.010 11.914 L 5.020 2.700 5.131 2.511 C 5.256 2.298,5.449 2.136,5.670 2.057 C 5.793 2.013,6.939 2.003,11.983 2.002 C 17.617 2.000,18.162 2.006,18.340 2.066 M6.664 3.063 C 6.436 3.146,6.257 3.297,6.131 3.511 L 6.020 3.700 6.020 7.500 L 6.020 11.300 6.131 11.489 C 6.192 11.592,6.301 11.723,6.374 11.778 C 6.680 12.011,6.390 12.000,11.998 12.000 C 17.783 12.000,17.381 12.021,17.701 11.701 C 18.015 11.387,18.000 11.604,18.000 7.500 C 18.000 3.396,18.015 3.613,17.701 3.299 C 17.381 2.979,17.786 3.000,11.983 3.003 C 7.607 3.005,6.796 3.014,6.664 3.063 M16.000 7.500 L 16.000 10.000 12.000 10.000 L 8.000 10.000 8.000 7.500 L 8.000 5.000 12.000 5.000 L 16.000 5.000 16.000 7.500 M11.433 13.040 C 10.843 13.134,10.221 13.380,9.731 13.712 C 8.955 14.240,8.394 15.037,8.130 15.989 C 8.034 16.337,8.022 16.449,8.022 17.000 C 8.022 17.553,8.034 17.663,8.132 18.017 C 8.475 19.256,9.357 20.252,10.520 20.715 C 12.334 21.437,14.462 20.710,15.444 19.033 C 16.503 17.224,15.985 14.878,14.269 13.712 C 13.917 13.473,13.343 13.214,12.958 13.120 C 12.572 13.026,11.783 12.984,11.433 13.040 M12.383 15.043 C 13.185 15.190,13.839 15.872,13.967 16.695 C 14.153 17.894,13.209 19.000,12.000 19.000 C 11.032 19.000,10.183 18.268,10.033 17.305 C 9.933 16.663,10.132 16.061,10.596 15.596 C 11.085 15.108,11.698 14.918,12.383 15.043 " fill="#000640" stroke="none" fill-rule="evenodd"></path></svg>