<svg xmlns="http://www.w3.org/2000/svg" width="24" height="24" fill="currentColor" class="mmi mmi-audiowave" viewBox="0 0 24 24"><path d="M15.503 2.040 C 14.471 2.227,13.556 2.976,13.202 3.925 C 12.993 4.484,13.001 4.157,13.001 11.923 C 13.000 20.032,13.025 19.377,12.701 19.701 C 12.310 20.092,11.690 20.092,11.299 19.701 C 10.978 19.380,11.000 19.851,11.000 13.431 C 11.000 7.179,11.009 7.447,10.766 6.849 C 10.493 6.176,9.957 5.625,9.260 5.298 C 8.779 5.072,8.546 5.021,8.000 5.021 C 7.454 5.021,7.221 5.072,6.740 5.298 C 6.015 5.638,5.465 6.219,5.202 6.925 C 5.003 7.459,5.001 7.483,5.001 10.923 C 5.000 14.553,5.013 14.389,4.701 14.701 C 4.310 15.092,3.690 15.092,3.299 14.701 C 3.005 14.407,3.000 14.371,3.000 12.500 C 3.000 10.629,2.995 10.593,2.700 10.298 C 2.390 9.988,1.932 9.920,1.531 10.126 C 1.315 10.238,1.103 10.491,1.042 10.711 C 1.016 10.803,1.000 11.516,1.000 12.572 C 1.000 14.439,1.016 14.616,1.234 15.151 C 1.521 15.857,2.143 16.479,2.849 16.766 C 4.610 17.483,6.554 16.445,6.938 14.581 C 6.991 14.328,7.000 13.806,7.000 11.069 C 7.000 7.447,6.987 7.611,7.299 7.299 C 7.690 6.908,8.310 6.908,8.701 7.299 C 9.022 7.620,9.000 7.149,9.000 13.569 C 9.000 19.821,8.991 19.553,9.234 20.151 C 9.521 20.857,10.143 21.479,10.849 21.766 C 12.610 22.483,14.554 21.445,14.938 19.581 C 14.993 19.320,15.000 18.407,15.000 12.069 C 15.000 3.969,14.975 4.623,15.299 4.299 C 15.690 3.908,16.310 3.908,16.701 4.299 C 17.020 4.618,17.000 4.269,17.000 9.569 C 17.000 14.723,16.993 14.560,17.234 15.151 C 17.521 15.857,18.143 16.479,18.849 16.766 C 20.610 17.483,22.554 16.445,22.938 14.581 C 22.991 14.329,23.000 13.830,23.000 11.292 L 22.999 8.300 22.906 8.100 C 22.804 7.882,22.581 7.662,22.374 7.575 C 22.205 7.504,21.795 7.504,21.626 7.575 C 21.419 7.662,21.196 7.882,21.094 8.100 L 21.001 8.300 21.000 11.223 C 21.000 14.518,21.011 14.391,20.701 14.701 C 20.310 15.092,19.690 15.092,19.299 14.701 C 18.980 14.382,19.000 14.731,19.000 9.431 C 19.000 4.277,19.007 4.440,18.766 3.849 C 18.433 3.030,17.641 2.339,16.756 2.097 C 16.491 2.024,15.770 1.991,15.503 2.040 " fill="#000640" stroke="none" fill-rule="evenodd"></path></svg>