<svg xmlns="http://www.w3.org/2000/svg" width="24" height="24" fill="currentColor" class="mmi mmi-audiojack" viewBox="0 0 24 24"><path d="M6.340 2.046 C 5.849 2.108,5.317 2.273,4.820 2.517 C 3.590 3.120,2.688 4.140,2.263 5.407 C 2.010 6.161,2.026 5.789,2.011 11.191 C 2.002 14.573,2.011 16.172,2.040 16.280 C 2.101 16.506,2.311 16.761,2.531 16.874 C 3.036 17.134,3.643 16.944,3.886 16.450 L 3.980 16.260 4.001 11.360 C 4.025 5.899,4.001 6.351,4.312 5.704 C 4.614 5.075,5.097 4.599,5.740 4.298 C 6.221 4.072,6.454 4.021,7.000 4.021 C 7.546 4.021,7.779 4.072,8.260 4.298 C 8.686 4.498,9.049 4.779,9.330 5.127 C 9.548 5.398,9.840 5.974,9.924 6.300 C 9.964 6.456,9.981 7.738,10.000 12.120 C 10.028 18.274,10.010 17.837,10.263 18.593 C 10.673 19.820,11.627 20.914,12.776 21.476 C 13.526 21.842,14.134 21.980,15.000 21.980 C 15.367 21.980,15.734 21.957,15.900 21.925 C 18.196 21.470,19.862 19.571,19.989 17.267 L 20.012 16.834 20.226 16.739 C 20.890 16.445,21.492 15.825,21.767 15.150 C 22.000 14.577,22.000 14.577,22.000 11.069 C 22.000 7.447,22.013 7.611,21.701 7.299 C 21.454 7.052,21.259 7.000,20.573 7.000 L 20.000 7.000 20.000 4.927 C 20.000 2.580,20.002 2.600,19.700 2.298 C 19.390 1.988,18.932 1.920,18.531 2.126 C 18.315 2.238,18.103 2.491,18.042 2.711 C 18.016 2.805,18.000 3.627,18.000 4.927 L 18.000 6.994 17.369 7.007 C 16.783 7.019,16.723 7.027,16.539 7.122 C 16.316 7.237,16.104 7.488,16.042 7.711 C 16.015 7.808,16.000 8.983,16.000 11.072 C 16.000 14.582,16.001 14.600,16.235 15.161 C 16.515 15.829,17.124 16.451,17.783 16.743 L 18.000 16.839 18.000 17.035 C 18.000 18.169,17.210 19.335,16.151 19.766 C 14.660 20.373,13.006 19.740,12.312 18.296 C 12.000 17.647,12.026 18.188,12.000 11.900 L 11.977 6.260 11.869 5.848 C 11.667 5.084,11.365 4.462,10.926 3.912 C 9.822 2.527,8.090 1.823,6.340 2.046 M20.000 11.573 C 20.000 14.477,20.008 14.394,19.701 14.701 C 19.310 15.092,18.690 15.092,18.299 14.701 C 17.992 14.394,18.000 14.477,18.000 11.573 L 18.000 9.000 19.000 9.000 L 20.000 9.000 20.000 11.573 " fill="#000640" stroke="none" fill-rule="evenodd"></path></svg>