<svg xmlns="http://www.w3.org/2000/svg" width="24" height="24" fill="currentColor" class="mmi mmi-audio" viewBox="0 0 24 24"><path d="M11.664 3.063 C 11.436 3.146,11.257 3.297,11.131 3.511 L 11.020 3.700 11.010 11.914 C 11.003 17.490,11.013 20.178,11.041 20.283 C 11.101 20.506,11.312 20.761,11.531 20.874 C 11.932 21.080,12.390 21.012,12.700 20.702 C 13.027 20.376,13.000 21.146,13.000 12.000 C 13.000 2.856,13.026 3.624,12.701 3.299 C 12.429 3.027,12.018 2.933,11.664 3.063 M3.664 7.063 C 3.436 7.146,3.257 7.297,3.131 7.511 L 3.020 7.700 3.009 11.913 C 3.002 14.750,3.012 16.177,3.040 16.281 C 3.101 16.506,3.312 16.761,3.531 16.874 C 3.932 17.080,4.390 17.012,4.700 16.702 C 5.018 16.384,5.000 16.665,5.000 12.000 C 5.000 7.337,5.018 7.616,4.701 7.299 C 4.429 7.027,4.018 6.933,3.664 7.063 M19.664 7.063 C 19.436 7.146,19.257 7.297,19.131 7.511 L 19.020 7.700 19.009 11.913 C 19.002 14.750,19.012 16.177,19.040 16.281 C 19.101 16.506,19.312 16.761,19.531 16.874 C 19.932 17.080,20.390 17.012,20.700 16.702 C 21.018 16.384,21.000 16.665,21.000 12.000 C 21.000 7.337,21.018 7.616,20.701 7.299 C 20.429 7.027,20.018 6.933,19.664 7.063 M7.664 9.063 C 7.436 9.146,7.257 9.297,7.131 9.511 L 7.020 9.700 7.009 11.911 C 7.001 13.377,7.012 14.175,7.040 14.279 C 7.101 14.506,7.311 14.760,7.531 14.874 C 7.932 15.080,8.390 15.012,8.700 14.702 C 9.003 14.399,9.000 14.429,9.000 12.000 C 9.000 9.573,9.003 9.601,8.701 9.299 C 8.429 9.027,8.018 8.933,7.664 9.063 M15.664 9.063 C 15.436 9.146,15.257 9.297,15.131 9.511 L 15.020 9.700 15.009 11.911 C 15.001 13.377,15.012 14.175,15.040 14.279 C 15.101 14.506,15.311 14.760,15.531 14.874 C 15.932 15.080,16.390 15.012,16.700 14.702 C 17.003 14.399,17.000 14.429,17.000 12.000 C 17.000 9.573,17.003 9.601,16.701 9.299 C 16.429 9.027,16.018 8.933,15.664 9.063 " fill="#000640" stroke="none" fill-rule="evenodd"></path></svg>