<svg xmlns="http://www.w3.org/2000/svg" width="24" height="24" fill="currentColor" class="mmi mmi-axis-linegraphs-up" viewBox="0 0 24 24"><path d="M1.664 1.063 C 1.436 1.146,1.257 1.297,1.131 1.511 L 1.020 1.700 1.009 10.980 C 0.997 21.164,0.983 20.536,1.233 21.149 C 1.521 21.857,2.142 22.479,2.849 22.766 C 3.459 23.015,2.832 23.000,12.931 23.000 C 23.273 23.000,22.375 23.027,22.701 22.701 C 23.092 22.310,23.092 21.690,22.701 21.299 C 22.375 20.973,23.264 21.000,13.000 21.000 C 2.736 21.000,3.625 21.027,3.299 20.701 C 2.973 20.375,3.000 21.264,3.000 11.000 C 3.000 0.736,3.027 1.625,2.701 1.299 C 2.429 1.027,2.018 0.933,1.664 1.063 M12.643 5.069 C 12.291 5.193,12.000 5.614,12.000 6.000 C 12.000 6.396,12.291 6.808,12.660 6.934 C 12.826 6.990,13.053 7.000,14.217 7.000 L 15.579 7.000 11.371 11.210 C 8.096 14.487,7.146 15.460,7.083 15.600 C 6.910 15.984,6.991 16.396,7.297 16.703 C 7.604 17.009,8.016 17.090,8.400 16.917 C 8.540 16.854,9.513 15.904,12.790 12.629 L 17.000 8.421 17.000 9.783 C 17.000 11.339,17.012 11.414,17.299 11.701 C 17.690 12.092,18.310 12.092,18.701 11.701 C 19.009 11.394,19.000 11.486,19.000 8.500 C 19.000 5.514,19.009 5.606,18.701 5.299 C 18.393 4.991,18.488 5.000,15.483 5.003 C 13.179 5.006,12.796 5.015,12.643 5.069 " fill="#000640" stroke="none" fill-rule="evenodd"></path></svg>