<svg xmlns="http://www.w3.org/2000/svg" width="24" height="24" fill="currentColor" class="mmi mmi-axis-linegraph-turndup" viewBox="0 0 24 24"><path d="M1.664 1.063 C 1.436 1.146,1.257 1.297,1.131 1.511 L 1.020 1.700 1.009 10.980 C 0.997 21.164,0.983 20.536,1.233 21.149 C 1.521 21.857,2.142 22.479,2.849 22.766 C 3.459 23.015,2.832 23.000,12.931 23.000 C 23.273 23.000,22.375 23.027,22.701 22.701 C 23.092 22.310,23.092 21.690,22.701 21.299 C 22.375 20.973,23.264 21.000,13.000 21.000 C 2.736 21.000,3.625 21.027,3.299 20.701 C 2.973 20.375,3.000 21.264,3.000 11.000 C 3.000 0.736,3.027 1.625,2.701 1.299 C 2.429 1.027,2.018 0.933,1.664 1.063 M14.643 7.069 C 14.291 7.193,14.000 7.614,14.000 8.000 C 14.000 8.396,14.291 8.808,14.660 8.934 C 14.826 8.990,15.053 9.000,16.217 9.000 L 17.580 9.000 15.080 11.500 C 13.647 12.933,12.520 14.029,12.440 14.067 C 12.250 14.158,11.919 14.181,11.689 14.119 C 11.514 14.072,11.324 13.893,9.060 11.638 C 7.356 9.942,6.566 9.181,6.442 9.119 C 5.949 8.872,5.312 9.117,5.089 9.637 C 4.989 9.871,5.011 10.235,5.139 10.471 C 5.295 10.758,10.087 15.526,10.409 15.714 C 11.426 16.310,12.574 16.310,13.591 15.714 C 13.757 15.617,14.529 14.874,16.410 13.002 L 19.000 10.423 19.000 11.784 C 19.000 13.339,19.012 13.414,19.299 13.701 C 19.690 14.092,20.310 14.092,20.701 13.701 C 21.009 13.394,21.000 13.486,21.000 10.500 C 21.000 7.514,21.009 7.606,20.701 7.299 C 20.393 6.991,20.488 7.000,17.483 7.003 C 15.179 7.006,14.796 7.015,14.643 7.069 " fill="#000640" stroke="none" fill-rule="evenodd"></path></svg>