<svg xmlns="http://www.w3.org/2000/svg" width="24" height="24" fill="currentColor" class="mmi mmi-axis-linegraph-progress" viewBox="0 0 24 24"><path d="M1.664 1.063 C 1.436 1.146,1.257 1.297,1.131 1.511 L 1.020 1.700 1.009 10.980 C 0.997 21.164,0.983 20.536,1.233 21.149 C 1.521 21.857,2.142 22.479,2.849 22.766 C 3.459 23.015,2.832 23.000,12.931 23.000 C 23.273 23.000,22.375 23.027,22.701 22.701 C 23.092 22.310,23.092 21.690,22.701 21.299 C 22.375 20.973,23.264 21.000,13.000 21.000 C 2.736 21.000,3.625 21.027,3.299 20.701 C 2.973 20.375,3.000 21.264,3.000 11.000 C 3.000 0.736,3.027 1.625,2.701 1.299 C 2.429 1.027,2.018 0.933,1.664 1.063 M10.674 4.057 C 10.454 4.141,10.320 4.240,10.198 4.410 C 10.121 4.516,9.809 5.394,9.180 7.281 L 8.273 10.000 7.064 10.000 C 5.678 10.000,5.582 10.016,5.299 10.299 C 4.907 10.691,4.908 11.310,5.300 11.702 C 5.598 12.000,5.629 12.004,7.565 11.991 L 9.262 11.980 9.461 11.878 C 9.812 11.697,9.857 11.605,10.445 9.844 C 10.739 8.962,10.989 8.240,11.000 8.240 C 11.011 8.240,11.711 10.311,12.555 12.843 C 13.794 16.559,14.113 17.478,14.215 17.611 C 14.595 18.109,15.407 18.107,15.788 17.607 C 15.891 17.471,16.092 16.910,16.814 14.729 L 17.712 12.020 18.986 12.000 C 20.220 11.981,20.266 11.977,20.450 11.886 C 21.052 11.590,21.180 10.778,20.700 10.298 C 20.402 10.000,20.371 9.996,18.435 10.009 L 16.738 10.020 16.539 10.122 C 16.188 10.303,16.143 10.395,15.555 12.156 C 15.261 13.038,15.011 13.760,15.000 13.760 C 14.989 13.760,14.289 11.689,13.445 9.157 C 12.206 5.441,11.887 4.522,11.785 4.389 C 11.545 4.075,11.030 3.921,10.674 4.057 " fill="#000640" stroke="none" fill-rule="evenodd"></path></svg>