<svg xmlns="http://www.w3.org/2000/svg" width="24" height="24" fill="currentColor" class="mmi mmi-axis-linegraph-sloping-up" viewBox="0 0 24 24"><path d="M1.664 1.063 C 1.436 1.146,1.257 1.297,1.131 1.511 L 1.020 1.700 1.009 10.980 C 0.997 21.164,0.983 20.536,1.233 21.149 C 1.521 21.857,2.142 22.479,2.849 22.766 C 3.459 23.015,2.832 23.000,12.931 23.000 C 23.273 23.000,22.375 23.027,22.701 22.701 C 23.092 22.310,23.092 21.690,22.701 21.299 C 22.375 20.973,23.264 21.000,13.000 21.000 C 2.736 21.000,3.625 21.027,3.299 20.701 C 2.973 20.375,3.000 21.264,3.000 11.000 C 3.000 0.736,3.027 1.625,2.701 1.299 C 2.429 1.027,2.018 0.933,1.664 1.063 M16.640 3.068 C 16.488 3.120,16.211 3.378,14.847 4.735 C 13.073 6.500,13.031 6.552,13.029 6.979 C 13.026 7.550,13.444 7.970,14.015 7.970 C 14.394 7.970,14.531 7.879,15.310 7.107 L 16.000 6.423 16.000 6.941 C 15.999 9.242,15.271 11.358,13.845 13.200 C 13.507 13.637,12.637 14.507,12.200 14.845 C 10.890 15.859,9.468 16.510,7.897 16.815 C 7.328 16.925,6.625 17.000,6.157 17.000 C 5.980 17.000,5.773 17.028,5.660 17.066 C 5.291 17.192,5.000 17.604,5.000 18.000 C 5.000 18.396,5.291 18.808,5.660 18.934 C 5.885 19.010,6.183 19.016,6.904 18.959 C 9.035 18.789,10.985 18.109,12.720 16.929 C 16.054 14.663,18.000 10.969,18.000 6.906 L 18.000 6.423 18.710 7.129 C 19.479 7.894,19.631 7.998,19.980 7.999 C 20.308 8.000,20.473 7.932,20.703 7.703 C 20.932 7.473,20.999 7.309,21.000 6.978 C 21.000 6.591,20.934 6.511,19.171 4.755 C 17.713 3.303,17.519 3.124,17.343 3.065 C 17.102 2.985,16.878 2.986,16.640 3.068 " fill="#000640" stroke="none" fill-rule="evenodd"></path></svg>