<svg xmlns="http://www.w3.org/2000/svg" width="24" height="24" fill="currentColor" class="mmi mmi-axis-linegraphs-down" viewBox="0 0 24 24"><path d="M1.664 1.063 C 1.436 1.146,1.257 1.297,1.131 1.511 L 1.020 1.700 1.009 10.980 C 0.997 21.164,0.983 20.536,1.233 21.149 C 1.521 21.857,2.142 22.479,2.849 22.766 C 3.459 23.015,2.832 23.000,12.931 23.000 C 23.273 23.000,22.375 23.027,22.701 22.701 C 23.092 22.310,23.092 21.690,22.701 21.299 C 22.375 20.973,23.264 21.000,13.000 21.000 C 2.736 21.000,3.625 21.027,3.299 20.701 C 2.973 20.375,3.000 21.264,3.000 11.000 C 3.000 0.736,3.027 1.625,2.701 1.299 C 2.429 1.027,2.018 0.933,1.664 1.063 M7.753 5.055 C 7.148 5.220,6.851 5.889,7.130 6.460 C 7.181 6.566,8.620 8.033,11.394 10.810 L 15.579 15.000 14.217 15.000 C 12.661 15.000,12.586 15.012,12.299 15.299 C 11.908 15.690,11.908 16.310,12.299 16.701 C 12.606 17.009,12.514 17.000,15.500 17.000 C 18.486 17.000,18.394 17.009,18.701 16.701 C 19.009 16.394,19.000 16.486,19.000 13.500 C 19.000 10.514,19.009 10.606,18.701 10.299 C 18.310 9.908,17.690 9.908,17.299 10.299 C 17.012 10.586,17.000 10.661,17.000 12.217 L 17.000 13.579 12.810 9.394 C 10.049 6.635,8.565 5.181,8.460 5.129 C 8.242 5.022,7.977 4.994,7.753 5.055 " fill="#000640" stroke="none" fill-rule="evenodd"></path></svg>