<svg xmlns="http://www.w3.org/2000/svg" width="24" height="24" fill="currentColor" class="mmi mmi-axis-linegraphs-average-down" viewBox="0 0 24 24"><path d="M1.664 1.063 C 1.436 1.146,1.257 1.297,1.131 1.511 L 1.020 1.700 1.009 10.980 C 0.997 21.164,0.983 20.536,1.233 21.149 C 1.521 21.857,2.142 22.479,2.849 22.766 C 3.459 23.015,2.832 23.000,12.931 23.000 C 23.273 23.000,22.375 23.027,22.701 22.701 C 23.092 22.310,23.092 21.690,22.701 21.299 C 22.375 20.973,23.264 21.000,13.000 21.000 C 2.736 21.000,3.625 21.027,3.299 20.701 C 2.973 20.375,3.000 21.264,3.000 11.000 C 3.000 0.736,3.027 1.625,2.701 1.299 C 2.429 1.027,2.018 0.933,1.664 1.063 M5.753 7.055 C 5.115 7.229,4.830 7.951,5.171 8.527 C 5.228 8.622,6.441 9.863,7.867 11.285 C 10.221 13.631,10.478 13.876,10.657 13.935 C 10.904 14.017,11.048 14.017,11.323 13.936 C 11.528 13.876,11.609 13.804,12.771 12.647 L 14.001 11.422 15.791 13.211 L 17.580 15.000 16.217 15.000 C 14.661 15.000,14.586 15.012,14.299 15.299 C 13.908 15.690,13.908 16.310,14.299 16.701 C 14.606 17.009,14.514 17.000,17.500 17.000 C 20.486 17.000,20.394 17.009,20.701 16.701 C 21.009 16.394,21.000 16.486,21.000 13.500 C 21.000 10.514,21.009 10.606,20.701 10.299 C 20.310 9.908,19.690 9.908,19.299 10.299 C 19.012 10.586,19.000 10.661,19.000 12.216 L 19.000 13.578 16.770 11.354 C 14.753 9.343,14.521 9.124,14.343 9.065 C 14.093 8.983,13.906 8.983,13.657 9.066 C 13.483 9.123,13.315 9.276,12.230 10.355 L 10.999 11.578 8.810 9.393 C 7.409 7.996,6.562 7.180,6.460 7.129 C 6.242 7.022,5.977 6.994,5.753 7.055 " fill="#000640" stroke="none" fill-rule="evenodd"></path></svg>