<svg xmlns="http://www.w3.org/2000/svg" width="24" height="24" fill="currentColor" class="mmi mmi-axis-linegraph-turndown" viewBox="0 0 24 24"><path d="M1.664 1.063 C 1.436 1.146,1.257 1.297,1.131 1.511 L 1.020 1.700 1.009 10.980 C 0.997 21.164,0.983 20.536,1.233 21.149 C 1.521 21.857,2.142 22.479,2.849 22.766 C 3.459 23.015,2.832 23.000,12.931 23.000 C 23.273 23.000,22.375 23.027,22.701 22.701 C 23.092 22.310,23.092 21.690,22.701 21.299 C 22.375 20.973,23.264 21.000,13.000 21.000 C 2.736 21.000,3.625 21.027,3.299 20.701 C 2.973 20.375,3.000 21.264,3.000 11.000 C 3.000 0.736,3.027 1.625,2.701 1.299 C 2.429 1.027,2.018 0.933,1.664 1.063 M11.375 5.900 C 11.070 5.966,10.708 6.110,10.409 6.285 C 10.071 6.483,5.236 11.302,5.099 11.578 C 4.990 11.796,4.970 12.071,5.044 12.336 C 5.102 12.546,5.454 12.898,5.664 12.956 C 5.905 13.023,6.200 13.007,6.400 12.917 C 6.537 12.855,7.165 12.253,9.040 10.384 C 11.324 8.107,11.514 7.928,11.689 7.881 C 11.919 7.819,12.250 7.842,12.440 7.933 C 12.520 7.971,13.647 9.067,15.080 10.500 L 17.580 13.000 16.217 13.000 C 14.661 13.000,14.586 13.012,14.299 13.299 C 13.908 13.690,13.908 14.310,14.299 14.701 C 14.606 15.009,14.514 15.000,17.500 15.000 C 20.486 15.000,20.394 15.009,20.701 14.701 C 21.009 14.394,21.000 14.486,21.000 11.500 C 21.000 8.514,21.009 8.606,20.701 8.299 C 20.310 7.908,19.690 7.908,19.299 8.299 C 19.012 8.586,19.000 8.661,19.000 10.216 L 19.000 11.577 16.410 8.998 C 13.728 6.328,13.669 6.276,13.119 6.053 C 12.603 5.845,11.908 5.784,11.375 5.900 " fill="#000640" stroke="none" fill-rule="evenodd"></path></svg>