<svg xmlns="http://www.w3.org/2000/svg" width="24" height="24" fill="currentColor" class="mmi mmi-axis-linegraph-flat" viewBox="0 0 24 24"><path d="M1.664 1.063 C 1.436 1.146,1.257 1.297,1.131 1.511 L 1.020 1.700 1.009 10.980 C 0.997 21.164,0.983 20.536,1.233 21.149 C 1.521 21.857,2.142 22.479,2.849 22.766 C 3.459 23.015,2.832 23.000,12.931 23.000 C 23.273 23.000,22.375 23.027,22.701 22.701 C 23.092 22.310,23.092 21.690,22.701 21.299 C 22.375 20.973,23.264 21.000,13.000 21.000 C 2.736 21.000,3.625 21.027,3.299 20.701 C 2.973 20.375,3.000 21.264,3.000 11.000 C 3.000 0.736,3.027 1.625,2.701 1.299 C 2.429 1.027,2.018 0.933,1.664 1.063 M16.753 7.055 C 16.147 7.220,15.850 7.891,16.130 8.460 C 16.174 8.548,16.516 8.930,16.893 9.310 L 17.577 10.000 11.716 10.000 C 5.131 10.000,5.621 9.977,5.299 10.299 C 4.908 10.690,4.908 11.310,5.299 11.701 C 5.621 12.023,5.132 12.000,11.715 12.000 L 17.575 12.000 16.854 12.730 C 16.088 13.504,16.000 13.636,16.000 14.000 C 16.000 14.733,16.783 15.208,17.455 14.883 C 17.565 14.829,18.165 14.255,19.245 13.171 C 20.698 11.712,20.876 11.519,20.935 11.343 C 21.017 11.094,21.017 10.906,20.935 10.657 C 20.876 10.481,20.699 10.289,19.269 8.853 C 18.211 7.791,17.606 7.213,17.484 7.148 C 17.251 7.023,16.992 6.990,16.753 7.055 " fill="#000640" stroke="none" fill-rule="evenodd"></path></svg>