<svg xmlns="http://www.w3.org/2000/svg" width="24" height="24" fill="currentColor" class="mmi mmi-axis-linegraph-flow" viewBox="0 0 24 24"><path d="M1.664 1.063 C 1.436 1.146,1.257 1.297,1.131 1.511 L 1.020 1.700 1.009 10.980 C 0.997 21.164,0.983 20.536,1.233 21.149 C 1.521 21.857,2.142 22.479,2.849 22.766 C 3.459 23.015,2.832 23.000,12.931 23.000 C 23.273 23.000,22.375 23.027,22.701 22.701 C 23.092 22.310,23.092 21.690,22.701 21.299 C 22.375 20.973,23.264 21.000,13.000 21.000 C 2.736 21.000,3.625 21.027,3.299 20.701 C 2.973 20.375,3.000 21.264,3.000 11.000 C 3.000 0.736,3.027 1.625,2.701 1.299 C 2.429 1.027,2.018 0.933,1.664 1.063 M16.020 9.043 C 14.956 9.188,14.081 9.607,12.679 10.641 C 11.174 11.752,10.692 11.980,9.860 11.978 C 9.005 11.977,8.193 11.621,7.013 10.734 C 6.422 10.289,6.306 10.232,6.000 10.232 C 5.211 10.232,4.734 11.113,5.171 11.764 C 5.392 12.092,6.598 12.938,7.444 13.357 C 8.970 14.113,10.277 14.193,11.676 13.615 C 12.243 13.380,12.745 13.070,13.740 12.338 C 14.736 11.606,15.275 11.293,15.860 11.110 C 16.264 10.983,17.004 10.985,17.480 11.113 C 18.043 11.265,18.517 11.485,19.394 12.002 C 19.750 12.212,20.046 12.254,20.346 12.140 C 20.758 11.982,20.978 11.663,20.978 11.220 C 20.978 10.749,20.816 10.534,20.160 10.136 C 19.344 9.641,18.375 9.243,17.636 9.100 C 17.224 9.021,16.397 8.991,16.020 9.043 " fill="#000640" stroke="none" fill-rule="evenodd"></path></svg>