<svg xmlns="http://www.w3.org/2000/svg" width="24" height="24" fill="currentColor" class="mmi mmi-axis-linegraph-parabola-up" viewBox="0 0 24 24"><path d="M1.664 1.063 C 1.436 1.146,1.257 1.297,1.131 1.511 L 1.020 1.700 1.009 10.980 C 0.997 21.164,0.983 20.536,1.233 21.149 C 1.521 21.857,2.142 22.479,2.849 22.766 C 3.459 23.015,2.832 23.000,12.931 23.000 C 23.273 23.000,22.375 23.027,22.701 22.701 C 23.092 22.310,23.092 21.690,22.701 21.299 C 22.375 20.973,23.264 21.000,13.000 21.000 C 2.736 21.000,3.625 21.027,3.299 20.701 C 2.973 20.375,3.000 21.264,3.000 11.000 C 3.000 0.736,3.027 1.625,2.701 1.299 C 2.429 1.027,2.018 0.933,1.664 1.063 M16.753 3.055 C 16.147 3.220,15.850 3.891,16.130 4.460 C 16.174 4.548,16.514 4.928,16.887 5.304 L 17.565 5.988 16.961 6.016 C 15.909 6.065,15.097 6.181,14.140 6.418 C 10.653 7.281,7.795 9.521,6.257 12.597 C 5.489 14.133,5.098 15.680,5.015 17.514 C 4.983 18.229,5.032 18.434,5.298 18.700 C 5.691 19.093,6.309 19.093,6.702 18.700 C 6.932 18.470,6.988 18.265,7.015 17.554 C 7.113 14.966,8.127 12.677,9.964 10.900 C 11.794 9.129,14.235 8.127,17.000 8.013 L 17.580 7.990 16.856 8.725 C 16.088 9.505,16.000 9.636,16.000 10.000 C 16.000 10.733,16.783 11.208,17.455 10.883 C 17.565 10.829,18.165 10.255,19.245 9.171 C 20.698 7.712,20.876 7.519,20.935 7.343 C 21.017 7.094,21.017 6.906,20.935 6.657 C 20.876 6.481,20.699 6.289,19.269 4.853 C 18.211 3.791,17.606 3.213,17.484 3.148 C 17.251 3.023,16.992 2.990,16.753 3.055 " fill="#000640" stroke="none" fill-rule="evenodd"></path></svg>