<svg xmlns="http://www.w3.org/2000/svg" width="24" height="24" fill="currentColor" class="mmi mmi-axis-linegraphs-average-up" viewBox="0 0 24 24"><path d="M1.664 1.063 C 1.436 1.146,1.257 1.297,1.131 1.511 L 1.020 1.700 1.009 10.980 C 0.997 21.164,0.983 20.536,1.233 21.149 C 1.521 21.857,2.142 22.479,2.849 22.766 C 3.459 23.015,2.832 23.000,12.931 23.000 C 23.273 23.000,22.375 23.027,22.701 22.701 C 23.092 22.310,23.092 21.690,22.701 21.299 C 22.375 20.973,23.264 21.000,13.000 21.000 C 2.736 21.000,3.625 21.027,3.299 20.701 C 2.973 20.375,3.000 21.264,3.000 11.000 C 3.000 0.736,3.027 1.625,2.701 1.299 C 2.429 1.027,2.018 0.933,1.664 1.063 M14.643 7.069 C 14.291 7.193,14.000 7.614,14.000 8.000 C 14.000 8.396,14.291 8.808,14.660 8.934 C 14.826 8.990,15.053 9.000,16.217 9.000 L 17.580 9.000 15.791 10.789 L 14.001 12.578 12.771 11.355 C 11.685 10.276,11.517 10.123,11.343 10.066 C 11.094 9.983,10.907 9.983,10.657 10.065 C 10.478 10.124,10.219 10.370,7.847 12.735 C 5.882 14.695,5.209 15.389,5.132 15.539 C 4.870 16.048,5.106 16.687,5.637 16.910 C 5.854 17.001,6.229 16.987,6.442 16.881 C 6.566 16.819,7.283 16.131,8.810 14.607 L 10.999 12.422 12.230 13.645 C 13.315 14.724,13.483 14.877,13.657 14.934 C 13.904 15.016,14.047 15.017,14.323 14.937 C 14.532 14.875,14.620 14.793,16.770 12.647 L 19.000 10.422 19.000 11.784 C 19.000 13.339,19.012 13.414,19.299 13.701 C 19.690 14.092,20.310 14.092,20.701 13.701 C 21.009 13.394,21.000 13.486,21.000 10.500 C 21.000 7.514,21.009 7.606,20.701 7.299 C 20.393 6.991,20.488 7.000,17.483 7.003 C 15.179 7.006,14.796 7.015,14.643 7.069 " fill="#000640" stroke="none" fill-rule="evenodd"></path></svg>