<svg xmlns="http://www.w3.org/2000/svg" width="24" height="24" fill="currentColor" class="mmi mmi-axis-linegraph-sloping-down" viewBox="0 0 24 24"><path d="M1.664 1.063 C 1.436 1.146,1.257 1.297,1.131 1.511 L 1.020 1.700 1.009 10.980 C 0.997 21.164,0.983 20.536,1.233 21.149 C 1.521 21.857,2.142 22.479,2.849 22.766 C 3.459 23.015,2.832 23.000,12.931 23.000 C 23.273 23.000,22.375 23.027,22.701 22.701 C 23.092 22.310,23.092 21.690,22.701 21.299 C 22.375 20.973,23.264 21.000,13.000 21.000 C 2.736 21.000,3.625 21.027,3.299 20.701 C 2.973 20.375,3.000 21.264,3.000 11.000 C 3.000 0.736,3.027 1.625,2.701 1.299 C 2.429 1.027,2.018 0.933,1.664 1.063 M5.643 3.069 C 5.397 3.156,5.147 3.418,5.060 3.681 C 4.889 4.194,5.124 6.176,5.504 7.430 C 6.421 10.456,8.425 12.948,11.186 14.493 C 12.877 15.439,14.692 15.924,16.773 15.988 L 17.567 16.013 16.887 16.696 C 16.470 17.116,16.173 17.449,16.119 17.558 C 16.012 17.773,15.998 18.150,16.089 18.363 C 16.318 18.899,16.970 19.134,17.470 18.862 C 17.608 18.787,18.159 18.261,19.269 17.147 C 20.699 15.711,20.876 15.519,20.935 15.343 C 21.017 15.094,21.017 14.906,20.935 14.657 C 20.876 14.481,20.699 14.289,19.269 12.853 C 17.507 11.084,17.441 11.031,17.025 11.029 C 16.449 11.026,16.022 11.451,16.028 12.019 C 16.031 12.394,16.126 12.536,16.893 13.310 L 17.577 14.000 17.059 14.000 C 14.758 13.999,12.642 13.271,10.800 11.845 C 10.362 11.506,9.490 10.635,9.153 10.200 C 7.788 8.435,7.001 6.226,7.000 4.157 C 7.000 3.762,6.912 3.510,6.701 3.299 C 6.424 3.021,6.024 2.934,5.643 3.069 " fill="#000640" stroke="none" fill-rule="evenodd"></path></svg>