<svg xmlns="http://www.w3.org/2000/svg" width="24" height="24" fill="currentColor" class="mmi mmi-axis-linegraph-parabola-down" viewBox="0 0 24 24"><path d="M1.664 1.063 C 1.436 1.146,1.257 1.297,1.131 1.511 L 1.020 1.700 1.009 10.980 C 0.997 21.164,0.983 20.536,1.233 21.149 C 1.521 21.857,2.142 22.479,2.849 22.766 C 3.459 23.015,2.832 23.000,12.931 23.000 C 23.273 23.000,22.375 23.027,22.701 22.701 C 23.092 22.310,23.092 21.690,22.701 21.299 C 22.375 20.973,23.264 21.000,13.000 21.000 C 2.736 21.000,3.625 21.027,3.299 20.701 C 2.973 20.375,3.000 21.264,3.000 11.000 C 3.000 0.736,3.027 1.625,2.701 1.299 C 2.429 1.027,2.018 0.933,1.664 1.063 M5.643 3.066 C 5.288 3.197,5.000 3.615,5.000 4.000 C 5.000 4.396,5.291 4.808,5.660 4.934 C 5.773 4.972,5.980 5.000,6.157 5.000 C 6.625 5.000,7.328 5.075,7.897 5.185 C 9.468 5.490,10.890 6.141,12.200 7.155 C 12.637 7.493,13.507 8.363,13.845 8.800 C 15.271 10.642,15.999 12.758,16.000 15.059 L 16.000 15.577 15.310 14.893 C 14.536 14.126,14.394 14.031,14.019 14.028 C 13.451 14.022,13.026 14.449,13.029 15.025 C 13.031 15.441,13.084 15.507,14.853 17.269 C 16.289 18.699,16.481 18.876,16.657 18.935 C 16.904 19.017,17.048 19.017,17.323 18.936 C 17.530 18.876,17.613 18.800,19.147 17.271 C 20.259 16.162,20.787 15.608,20.862 15.470 C 21.134 14.970,20.899 14.318,20.363 14.089 C 20.150 13.998,19.773 14.012,19.558 14.119 C 19.449 14.173,19.114 14.471,18.690 14.893 L 18.000 15.579 18.000 15.095 C 18.000 10.653,15.670 6.664,11.814 4.507 C 10.186 3.596,8.333 3.084,6.433 3.021 C 5.928 3.004,5.789 3.012,5.643 3.066 " fill="#000640" stroke="none" fill-rule="evenodd"></path></svg>