<svg xmlns="http://www.w3.org/2000/svg" width="24" height="24" fill="currentColor" class="mmi mmi-babysuit" viewBox="0 0 24 24"><path d="M7.232 1.278 L 5.645 1.548 3.534 2.864 C 2.374 3.588,1.358 4.245,1.277 4.325 C 1.094 4.505,0.984 4.815,1.009 5.076 C 1.020 5.197,1.404 6.208,2.080 7.900 C 3.056 10.342,3.146 10.548,3.301 10.703 C 3.505 10.907,3.804 11.017,4.082 10.991 C 4.194 10.980,4.420 10.903,4.622 10.806 C 4.812 10.715,4.975 10.640,4.984 10.640 C 4.993 10.640,5.000 12.104,5.000 13.893 C 5.000 17.467,4.992 17.347,5.243 17.651 C 5.316 17.740,5.470 17.847,5.632 17.923 C 6.780 18.460,7.431 18.909,7.970 19.535 C 8.614 20.283,8.917 20.980,8.996 21.890 C 9.037 22.372,9.131 22.593,9.374 22.778 C 9.664 23.000,9.670 23.000,11.998 23.000 C 14.429 23.000,14.399 23.003,14.702 22.700 C 14.904 22.498,14.984 22.269,15.016 21.800 C 15.099 20.584,15.909 19.371,17.189 18.544 C 17.348 18.441,17.740 18.230,18.059 18.075 C 18.486 17.867,18.672 17.755,18.759 17.649 C 19.007 17.347,19.000 17.463,19.000 13.893 C 19.000 12.104,19.007 10.640,19.016 10.640 C 19.025 10.640,19.192 10.717,19.386 10.810 C 19.699 10.960,19.773 10.980,20.020 10.980 C 20.254 10.980,20.331 10.962,20.489 10.869 C 20.592 10.808,20.721 10.700,20.775 10.629 C 20.828 10.558,21.347 9.550,21.926 8.388 L 22.980 6.276 22.980 6.008 C 22.980 5.516,23.033 5.574,20.756 3.581 C 19.633 2.599,18.637 1.740,18.541 1.673 C 18.377 1.557,18.282 1.536,16.734 1.276 L 15.100 1.001 11.960 1.004 L 8.820 1.008 7.232 1.278 M13.880 3.018 C 13.880 3.110,13.571 3.941,13.472 4.115 C 13.280 4.453,12.945 4.769,12.660 4.882 C 12.314 5.019,11.686 5.019,11.340 4.882 C 11.055 4.769,10.719 4.452,10.532 4.120 C 10.417 3.917,10.208 3.370,10.145 3.110 L 10.118 3.000 11.999 3.000 C 13.034 3.000,13.880 3.008,13.880 3.018 M8.217 3.610 C 8.748 5.768,10.122 6.998,12.000 6.998 C 13.911 6.998,15.327 5.689,15.819 3.470 C 15.857 3.300,15.891 3.160,15.894 3.161 C 16.052 3.174,17.534 3.444,17.569 3.465 C 17.597 3.483,18.326 4.115,19.189 4.870 L 20.758 6.244 20.159 7.442 C 19.829 8.101,19.552 8.640,19.542 8.640 C 19.533 8.640,19.249 8.505,18.912 8.339 C 18.547 8.160,18.226 8.029,18.116 8.015 C 17.831 7.978,17.510 8.088,17.303 8.295 C 16.983 8.615,17.000 8.378,17.000 12.603 L 17.000 16.353 16.650 16.542 C 15.306 17.268,14.198 18.373,13.579 19.603 C 13.419 19.919,13.122 20.769,13.121 20.910 L 13.120 21.000 12.000 21.000 L 10.880 21.000 10.879 20.910 C 10.878 20.769,10.581 19.920,10.422 19.604 C 9.800 18.369,8.699 17.271,7.350 16.542 L 7.000 16.353 7.000 12.603 C 7.000 8.378,7.017 8.615,6.697 8.295 C 6.490 8.088,6.169 7.978,5.884 8.015 C 5.776 8.029,5.462 8.156,5.124 8.321 C 4.807 8.477,4.535 8.589,4.520 8.572 C 4.498 8.547,3.912 7.096,3.317 5.592 L 3.243 5.404 4.791 4.433 L 6.340 3.462 7.180 3.315 C 7.642 3.234,8.039 3.166,8.063 3.164 C 8.087 3.162,8.156 3.363,8.217 3.610 " fill="#000640" stroke="none" fill-rule="evenodd"></path></svg>