<svg xmlns="http://www.w3.org/2000/svg" width="24" height="24" fill="currentColor" class="mmi mmi-backward-button" viewBox="0 0 24 24"><path d="M11.200 0.025 C 7.091 0.332,3.508 2.609,1.507 6.186 C 0.775 7.494,0.317 8.899,0.094 10.520 C -0.002 11.214,-0.002 12.786,0.094 13.480 C 0.317 15.101,0.775 16.506,1.507 17.814 C 4.173 22.579,9.604 24.939,14.910 23.637 C 19.156 22.595,22.595 19.156,23.637 14.910 C 24.599 10.992,23.592 6.970,20.896 3.958 C 19.003 1.843,16.397 0.483,13.500 0.099 C 13.032 0.037,11.640 -0.007,11.200 0.025 M12.920 2.043 C 14.827 2.219,16.631 2.940,18.200 4.155 C 18.637 4.493,19.507 5.363,19.845 5.800 C 21.878 8.427,22.517 11.768,21.578 14.865 C 21.082 16.499,20.272 17.850,19.061 19.061 C 18.287 19.836,17.547 20.383,16.623 20.863 C 13.714 22.376,10.286 22.376,7.377 20.863 C 6.454 20.383,5.715 19.837,4.938 19.061 C 3.951 18.075,3.213 16.964,2.722 15.728 C 1.390 12.368,1.921 8.686,4.153 5.800 C 4.491 5.363,5.363 4.491,5.800 4.153 C 7.114 3.137,8.541 2.486,10.125 2.181 C 11.037 2.006,12.003 1.958,12.920 2.043 M10.676 7.059 C 10.597 7.088,9.126 8.049,7.407 9.195 C 4.073 11.418,4.140 11.367,4.034 11.770 C 3.970 12.009,4.032 12.343,4.180 12.568 C 4.260 12.689,4.940 13.160,7.406 14.804 C 9.125 15.950,10.602 16.913,10.690 16.944 C 11.139 17.102,11.674 16.881,11.886 16.450 C 11.977 16.267,11.981 16.216,12.000 15.070 L 12.020 13.880 14.275 15.384 C 15.516 16.211,16.602 16.913,16.690 16.944 C 17.191 17.120,17.788 16.821,17.937 16.316 C 17.992 16.131,18.000 15.610,18.000 12.000 C 18.000 8.390,17.992 7.869,17.937 7.684 C 17.788 7.179,17.191 6.880,16.690 7.056 C 16.602 7.087,15.516 7.789,14.275 8.616 L 12.020 10.120 12.000 8.930 C 11.981 7.784,11.977 7.733,11.886 7.550 C 11.672 7.114,11.127 6.893,10.676 7.059 M9.991 13.060 L 9.980 14.120 8.420 13.080 C 7.562 12.508,6.860 12.022,6.860 12.000 C 6.860 11.978,7.562 11.492,8.420 10.920 L 9.980 9.880 9.991 10.940 C 9.997 11.523,9.997 12.477,9.991 13.060 M15.991 13.060 L 15.980 14.120 14.420 13.080 C 13.562 12.508,12.860 12.022,12.860 12.000 C 12.860 11.978,13.562 11.492,14.420 10.920 L 15.980 9.880 15.991 10.940 C 15.997 11.523,15.997 12.477,15.991 13.060 " stroke="none" fill-rule="evenodd"></path></svg>