<svg xmlns="http://www.w3.org/2000/svg" width="24" height="24" fill="currentColor" class="mmi mmi-backward-tofirst" viewBox="0 0 24 24"><path d="M17.460 3.017 C 17.098 3.087,16.793 3.204,16.487 3.390 C 16.352 3.473,14.353 4.939,12.046 6.648 C 9.287 8.693,7.781 9.833,7.645 9.982 C 7.076 10.605,6.773 11.535,6.881 12.330 C 6.981 13.070,7.264 13.640,7.776 14.131 C 8.259 14.595,16.281 20.522,16.700 20.724 C 17.173 20.952,17.462 21.018,18.000 21.018 C 18.360 21.018,18.530 20.998,18.780 20.926 C 19.666 20.673,20.446 19.989,20.776 19.177 C 21.009 18.604,21.000 18.894,21.000 12.000 C 21.000 5.104,21.009 5.397,20.775 4.820 C 20.436 3.984,19.597 3.269,18.710 3.060 C 18.337 2.972,17.786 2.953,17.460 3.017 M3.643 3.069 C 3.546 3.103,3.392 3.206,3.300 3.298 C 2.973 3.624,3.000 2.855,3.000 12.000 C 3.000 21.144,2.974 20.376,3.299 20.701 C 3.690 21.092,4.310 21.092,4.701 20.701 C 5.026 20.376,5.000 21.144,5.000 12.000 C 5.000 2.856,5.026 3.624,4.701 3.299 C 4.424 3.021,4.024 2.934,3.643 3.069 M18.440 5.080 C 18.623 5.173,18.787 5.339,18.894 5.539 L 18.980 5.700 18.980 12.000 L 18.980 18.300 18.894 18.461 C 18.698 18.827,18.394 19.016,18.000 19.018 C 17.794 19.020,17.703 18.999,17.560 18.918 C 17.351 18.801,9.418 12.930,9.184 12.720 C 8.971 12.529,8.882 12.318,8.881 12.003 C 8.880 11.703,8.970 11.483,9.170 11.293 C 9.320 11.150,17.306 5.229,17.513 5.107 C 17.782 4.948,18.160 4.937,18.440 5.080 " fill="#000640" stroke="none" fill-rule="evenodd"></path></svg>