<svg xmlns="http://www.w3.org/2000/svg" width="24" height="24" fill="currentColor" class="mmi mmi-backpack" viewBox="0 0 24 24"><path d="M11.276 1.060 C 10.446 1.217,9.771 1.579,9.159 2.196 C 8.508 2.851,8.178 3.550,8.020 4.603 C 8.000 4.740,7.981 4.754,7.510 4.989 C 5.635 5.924,4.494 7.309,4.112 9.117 C 4.042 9.445,4.028 9.697,4.011 10.869 L 3.992 12.238 3.866 12.255 C 3.073 12.365,2.748 12.477,2.290 12.799 C 1.886 13.082,1.560 13.459,1.344 13.892 C 1.016 14.546,1.020 14.513,1.020 16.760 C 1.020 18.554,1.027 18.764,1.093 19.000 C 1.446 20.258,2.524 21.150,3.789 21.229 L 4.157 21.252 4.320 21.579 C 4.694 22.335,5.322 22.863,6.161 23.126 L 6.460 23.220 12.000 23.220 L 17.540 23.220 17.840 23.126 C 18.682 22.863,19.331 22.310,19.703 21.536 L 19.840 21.252 20.210 21.229 C 21.476 21.150,22.554 20.259,22.907 19.000 C 22.973 18.764,22.980 18.554,22.980 16.760 C 22.980 14.513,22.984 14.546,22.656 13.892 C 22.440 13.459,22.114 13.082,21.710 12.799 C 21.252 12.477,20.927 12.365,20.134 12.255 L 20.008 12.238 19.989 10.869 C 19.972 9.697,19.958 9.445,19.888 9.117 C 19.506 7.309,18.352 5.908,16.491 4.991 C 16.017 4.758,16.001 4.746,15.980 4.605 C 15.822 3.548,15.494 2.854,14.841 2.195 C 14.304 1.651,13.714 1.311,12.967 1.114 C 12.560 1.007,11.701 0.979,11.276 1.060 M12.475 3.058 C 12.963 3.188,13.419 3.513,13.676 3.914 C 13.744 4.020,13.800 4.115,13.800 4.125 C 13.800 4.135,13.625 4.118,13.410 4.087 C 12.882 4.011,11.118 4.011,10.590 4.087 C 10.376 4.118,10.200 4.135,10.200 4.125 C 10.200 4.057,10.485 3.687,10.664 3.523 C 11.150 3.079,11.864 2.895,12.475 3.058 M13.060 6.061 C 14.670 6.249,16.064 6.839,16.929 7.698 C 17.426 8.192,17.710 8.677,17.892 9.340 L 17.980 9.660 17.980 15.100 L 17.980 20.540 17.894 20.700 C 17.781 20.909,17.622 21.056,17.400 21.157 C 17.222 21.237,17.166 21.238,12.000 21.238 C 6.834 21.238,6.778 21.237,6.600 21.157 C 6.378 21.056,6.219 20.909,6.106 20.700 L 6.020 20.540 6.020 15.100 L 6.020 9.660 6.108 9.340 C 6.290 8.677,6.574 8.192,7.071 7.698 C 8.336 6.442,10.727 5.788,13.060 6.061 M8.664 13.063 C 8.436 13.146,8.257 13.297,8.131 13.511 L 8.020 13.700 8.020 16.500 L 8.020 19.300 8.131 19.489 C 8.192 19.592,8.301 19.723,8.374 19.778 C 8.672 20.006,8.578 20.000,11.998 20.000 C 15.545 20.000,15.390 20.013,15.701 19.701 C 16.009 19.394,16.000 19.486,16.000 16.500 C 16.000 13.514,16.009 13.606,15.701 13.299 C 15.389 12.987,15.547 13.000,11.983 13.003 C 9.342 13.005,8.794 13.015,8.664 13.063 M4.000 16.740 L 4.000 19.240 3.890 19.239 C 3.742 19.238,3.446 19.100,3.306 18.968 C 3.244 18.908,3.154 18.788,3.106 18.700 C 3.022 18.544,3.020 18.493,3.008 16.840 C 2.999 15.649,3.009 15.092,3.041 14.980 C 3.135 14.652,3.362 14.422,3.715 14.295 C 4.028 14.183,4.000 13.942,4.000 16.740 M20.490 14.390 C 20.595 14.447,20.727 14.553,20.783 14.627 C 20.999 14.911,21.004 14.962,20.992 16.824 C 20.980 18.495,20.978 18.544,20.894 18.700 C 20.846 18.788,20.756 18.908,20.694 18.968 C 20.554 19.100,20.258 19.238,20.110 19.239 L 20.000 19.240 20.000 16.736 L 20.000 14.231 20.150 14.259 C 20.233 14.274,20.386 14.333,20.490 14.390 M14.000 16.500 L 14.000 18.000 12.000 18.000 L 10.000 18.000 10.000 16.500 L 10.000 15.000 12.000 15.000 L 14.000 15.000 14.000 16.500 " fill="#000640" stroke="none" fill-rule="evenodd"></path></svg>