<svg xmlns="http://www.w3.org/2000/svg" width="24" height="24" fill="currentColor" class="mmi mmi-backward-button-tofirst" viewBox="0 0 24 24"><path d="M11.200 0.025 C 7.091 0.332,3.508 2.609,1.507 6.186 C 0.775 7.494,0.317 8.899,0.094 10.520 C -0.002 11.214,-0.002 12.786,0.094 13.480 C 0.317 15.101,0.775 16.506,1.507 17.814 C 4.173 22.579,9.604 24.939,14.910 23.637 C 19.156 22.595,22.595 19.156,23.637 14.910 C 24.599 10.992,23.592 6.970,20.896 3.958 C 19.003 1.843,16.397 0.483,13.500 0.099 C 13.032 0.037,11.640 -0.007,11.200 0.025 M12.920 2.043 C 14.827 2.219,16.631 2.940,18.200 4.155 C 18.637 4.493,19.507 5.363,19.845 5.800 C 21.878 8.427,22.517 11.768,21.578 14.865 C 21.082 16.499,20.272 17.850,19.061 19.061 C 18.287 19.836,17.547 20.383,16.623 20.863 C 13.714 22.376,10.286 22.376,7.377 20.863 C 6.454 20.383,5.715 19.837,4.938 19.061 C 3.951 18.075,3.213 16.964,2.722 15.728 C 1.390 12.368,1.921 8.686,4.153 5.800 C 4.491 5.363,5.363 4.491,5.800 4.153 C 7.114 3.137,8.541 2.486,10.125 2.181 C 11.037 2.006,12.003 1.958,12.920 2.043 M6.643 7.069 C 6.546 7.103,6.392 7.206,6.300 7.298 C 5.982 7.616,6.000 7.336,6.000 12.000 C 6.000 16.663,5.982 16.384,6.299 16.701 C 6.690 17.092,7.310 17.092,7.701 16.701 C 8.018 16.384,8.000 16.663,8.000 12.000 C 8.000 7.337,8.018 7.616,7.701 7.299 C 7.424 7.021,7.024 6.934,6.643 7.069 M15.676 7.059 C 15.597 7.088,14.126 8.049,12.407 9.195 C 9.073 11.418,9.140 11.367,9.034 11.770 C 8.970 12.009,9.032 12.343,9.180 12.568 C 9.260 12.689,9.940 13.160,12.406 14.804 C 14.125 15.950,15.602 16.913,15.690 16.944 C 16.191 17.120,16.788 16.821,16.937 16.316 C 16.992 16.131,17.000 15.610,17.000 12.000 C 17.000 7.370,17.015 7.613,16.705 7.303 C 16.432 7.030,16.019 6.932,15.676 7.059 M14.991 13.060 L 14.980 14.120 13.420 13.080 C 12.562 12.508,11.860 12.022,11.860 12.000 C 11.860 11.978,12.562 11.492,13.420 10.920 L 14.980 9.880 14.991 10.940 C 14.997 11.523,14.997 12.477,14.991 13.060 " stroke="none" fill-rule="evenodd"></path></svg>