<svg xmlns="http://www.w3.org/2000/svg" width="24" height="24" fill="currentColor" class="mmi mmi-backward" viewBox="0 0 24 24"><path d="M11.613 3.844 C 11.267 3.884,10.898 4.002,10.600 4.169 C 10.480 4.236,8.635 5.499,6.501 6.976 C 2.427 9.794,2.259 9.921,1.966 10.413 C 1.247 11.618,1.408 13.110,2.360 14.076 C 2.725 14.447,10.381 19.749,10.834 19.944 C 11.293 20.143,11.839 20.226,12.305 20.167 C 12.728 20.114,13.216 19.952,13.541 19.757 C 14.079 19.434,14.582 18.840,14.787 18.283 C 14.852 18.107,14.908 18.012,14.935 18.028 C 14.960 18.042,15.547 18.444,16.240 18.922 C 16.933 19.400,17.572 19.826,17.660 19.870 C 18.119 20.097,18.761 20.226,19.216 20.181 C 20.580 20.047,21.669 19.085,21.940 17.774 C 22.030 17.337,22.030 6.663,21.940 6.226 C 21.542 4.298,19.413 3.257,17.669 4.137 C 17.532 4.206,16.898 4.624,16.260 5.066 C 15.622 5.507,15.053 5.898,14.996 5.935 L 14.891 6.002 14.801 5.751 C 14.347 4.490,13.000 3.684,11.613 3.844 M12.391 5.902 C 12.580 5.981,12.783 6.174,12.892 6.380 C 12.962 6.511,12.977 6.611,12.978 6.939 L 12.980 7.337 11.320 8.484 C 9.573 9.691,9.225 9.975,8.966 10.412 C 8.370 11.414,8.370 12.586,8.966 13.588 C 9.226 14.025,9.573 14.310,11.320 15.519 L 12.980 16.667 12.978 17.063 C 12.977 17.389,12.962 17.489,12.891 17.623 C 12.680 18.025,12.237 18.246,11.817 18.159 C 11.554 18.105,11.905 18.339,7.300 15.149 C 4.286 13.061,3.803 12.713,3.692 12.548 C 3.468 12.213,3.468 11.786,3.692 11.453 C 3.803 11.289,4.338 10.904,7.620 8.629 C 9.710 7.180,11.492 5.960,11.580 5.918 C 11.779 5.823,12.183 5.815,12.391 5.902 M19.391 5.902 C 19.579 5.980,19.782 6.173,19.894 6.380 L 19.980 6.540 19.980 12.000 L 19.980 17.460 19.893 17.623 C 19.677 18.027,19.236 18.246,18.817 18.159 C 18.554 18.105,18.905 18.339,14.300 15.149 C 11.286 13.061,10.803 12.713,10.692 12.548 C 10.468 12.213,10.468 11.786,10.692 11.453 C 10.803 11.289,11.338 10.904,14.620 8.629 C 16.710 7.180,18.492 5.960,18.580 5.918 C 18.779 5.823,19.183 5.815,19.391 5.902 " fill="#000640" stroke="none" fill-rule="evenodd"></path></svg>