<svg xmlns="http://www.w3.org/2000/svg" width="24" height="24" fill="currentColor" class="mmi mmi-bag-v3" viewBox="0 0 24 24"><path d="M11.340 1.046 C 10.630 1.136,9.823 1.448,9.176 1.881 C 8.771 2.152,8.152 2.771,7.881 3.176 C 7.425 3.857,7.129 4.649,7.041 5.420 C 7.019 5.618,7.001 6.053,7.000 6.387 L 7.000 6.993 5.670 7.009 C 4.393 7.024,4.327 7.029,4.019 7.124 C 2.973 7.446,2.145 8.337,1.941 9.360 C 1.867 9.731,1.320 17.371,1.320 18.030 C 1.320 20.410,2.986 22.427,5.349 22.909 C 5.677 22.975,6.108 22.980,12.000 22.980 C 17.892 22.980,18.323 22.975,18.651 22.909 C 20.564 22.519,22.048 21.121,22.546 19.240 C 22.736 18.524,22.725 18.109,22.402 13.600 C 22.245 11.411,22.090 9.494,22.058 9.340 C 21.893 8.541,21.278 7.741,20.524 7.345 C 19.965 7.051,19.817 7.028,18.330 7.010 L 17.000 6.993 17.000 6.366 C 17.000 5.249,16.870 4.609,16.483 3.820 C 16.199 3.241,15.876 2.799,15.429 2.376 C 14.334 1.340,12.841 0.855,11.340 1.046 M12.581 3.062 C 13.785 3.310,14.690 4.215,14.938 5.419 C 14.979 5.615,15.000 5.937,15.000 6.358 L 15.000 7.000 12.000 7.000 L 9.000 7.000 9.000 6.358 C 9.000 5.937,9.021 5.615,9.062 5.419 C 9.398 3.791,10.981 2.731,12.581 3.062 M19.540 9.095 C 19.779 9.209,19.972 9.402,20.063 9.620 C 20.115 9.746,20.192 10.647,20.426 13.900 C 20.747 18.374,20.747 18.342,20.555 18.926 C 20.253 19.846,19.551 20.537,18.580 20.870 L 18.260 20.980 12.020 20.980 L 5.780 20.980 5.440 20.870 C 4.513 20.572,3.803 19.903,3.490 19.035 C 3.251 18.372,3.249 18.504,3.578 13.907 C 3.789 10.962,3.891 9.732,3.932 9.633 C 4.021 9.419,4.239 9.197,4.460 9.094 L 4.660 9.001 12.000 9.001 L 19.340 9.001 19.540 9.095 M7.643 11.069 C 7.397 11.156,7.147 11.418,7.060 11.681 C 6.966 11.963,6.999 12.579,7.139 13.152 C 7.595 15.019,8.978 16.397,10.869 16.869 C 11.247 16.963,11.381 16.976,11.960 16.978 C 12.679 16.980,12.961 16.940,13.535 16.754 C 15.494 16.120,16.871 14.343,16.987 12.300 C 17.014 11.828,16.971 11.633,16.789 11.394 C 16.430 10.924,15.720 10.878,15.299 11.299 C 15.096 11.502,15.016 11.729,14.983 12.200 C 14.888 13.560,13.923 14.661,12.581 14.938 C 11.232 15.217,9.882 14.521,9.285 13.238 C 9.109 12.860,9.056 12.639,9.002 12.068 C 8.974 11.763,8.943 11.638,8.862 11.500 C 8.616 11.080,8.114 10.903,7.643 11.069 " fill="#000640" stroke="none" fill-rule="evenodd"></path></svg>