<svg xmlns="http://www.w3.org/2000/svg" width="24" height="24" fill="currentColor" class="mmi mmi-bag-v2" viewBox="0 0 24 24"><path d="M4.667 1.065 C 4.292 1.180,4.239 1.263,3.080 3.594 L 2.020 5.724 2.020 13.092 C 2.020 19.173,2.030 20.498,2.074 20.680 C 2.159 21.020,2.445 21.593,2.670 21.873 C 2.950 22.220,3.312 22.501,3.740 22.704 C 4.406 23.019,3.877 23.000,12.000 23.000 C 20.123 23.000,19.594 23.019,20.260 22.704 C 20.920 22.391,21.391 21.920,21.704 21.260 C 22.021 20.591,22.002 21.126,21.990 12.972 L 21.980 5.724 20.920 3.597 C 20.092 1.936,19.824 1.432,19.694 1.298 C 19.385 0.976,19.992 1.000,11.983 1.003 C 5.805 1.005,4.834 1.013,4.667 1.065 M18.870 3.980 C 19.140 4.519,19.360 4.969,19.360 4.980 C 19.360 4.991,16.048 5.000,12.000 5.000 C 7.952 5.000,4.640 4.991,4.640 4.980 C 4.640 4.969,4.860 4.519,5.130 3.980 L 5.619 3.000 12.000 3.000 L 18.381 3.000 18.870 3.980 M20.000 13.573 C 20.000 20.954,20.024 20.378,19.701 20.701 C 19.377 21.025,20.023 21.000,11.998 21.000 C 4.201 21.000,4.683 21.014,4.374 20.778 C 4.301 20.723,4.192 20.592,4.131 20.489 L 4.020 20.300 4.010 13.650 L 3.999 7.000 12.000 7.000 L 20.000 7.000 20.000 13.573 M7.664 9.063 C 7.436 9.146,7.257 9.297,7.131 9.511 C 7.027 9.688,7.020 9.729,7.021 10.160 C 7.024 12.194,8.453 14.102,10.461 14.753 C 11.027 14.936,11.324 14.980,12.000 14.980 C 12.676 14.980,12.973 14.936,13.539 14.753 C 15.492 14.120,16.869 12.342,16.988 10.297 C 17.017 9.789,16.948 9.546,16.702 9.300 C 16.238 8.836,15.469 8.935,15.137 9.501 C 15.055 9.641,15.026 9.761,14.999 10.070 C 14.949 10.631,14.894 10.854,14.703 11.260 C 14.375 11.958,13.823 12.493,13.151 12.766 C 11.642 13.380,9.987 12.733,9.298 11.260 C 9.100 10.836,9.045 10.627,9.015 10.186 C 8.984 9.731,8.903 9.501,8.702 9.300 C 8.429 9.027,8.018 8.933,7.664 9.063 " fill="#000640" stroke="none" fill-rule="evenodd"></path></svg>