<svg xmlns="http://www.w3.org/2000/svg" width="24" height="24" fill="currentColor" class="mmi mmi-bag" viewBox="0 0 24 24"><path d="M11.340 1.046 C 10.581 1.143,9.647 1.523,9.019 1.992 C 7.852 2.864,7.115 4.205,7.013 5.644 L 6.988 5.993 5.724 6.011 C 4.322 6.030,4.276 6.037,3.704 6.312 C 2.811 6.741,2.210 7.540,2.041 8.522 C 2.009 8.705,2.001 10.235,2.011 13.760 C 2.026 19.216,2.010 18.838,2.263 19.593 C 2.762 21.079,3.965 22.268,5.461 22.753 C 6.195 22.991,5.892 22.980,12.000 22.980 C 18.108 22.980,17.805 22.991,18.539 22.753 C 19.326 22.498,20.026 22.056,20.605 21.450 C 21.262 20.763,21.657 20.023,21.908 19.013 C 21.969 18.766,21.977 18.271,21.989 13.740 C 22.004 8.257,22.011 8.451,21.767 7.851 C 21.499 7.192,20.965 6.633,20.296 6.312 C 19.724 6.037,19.678 6.030,18.276 6.011 L 17.011 5.993 16.986 5.627 C 16.953 5.165,16.803 4.539,16.617 4.089 C 15.756 2.010,13.587 0.759,11.340 1.046 M12.756 3.097 C 13.336 3.256,13.953 3.660,14.330 4.127 C 14.696 4.581,15.000 5.379,15.000 5.884 L 15.000 6.000 11.994 6.000 L 8.989 6.000 9.017 5.730 C 9.057 5.330,9.112 5.139,9.298 4.740 C 9.715 3.848,10.537 3.215,11.503 3.040 C 11.770 2.991,12.491 3.024,12.756 3.097 M7.000 9.570 C 7.000 10.528,7.017 11.198,7.042 11.289 C 7.103 11.509,7.315 11.762,7.531 11.874 C 7.932 12.080,8.390 12.012,8.700 11.702 C 8.994 11.408,9.000 11.363,9.000 9.573 L 9.000 8.000 12.000 8.000 L 15.000 8.000 15.000 9.570 C 15.000 10.528,15.017 11.198,15.042 11.289 C 15.103 11.509,15.315 11.762,15.531 11.874 C 15.932 12.080,16.390 12.012,16.700 11.702 C 16.994 11.408,17.000 11.363,17.000 9.573 L 17.000 8.000 18.073 8.000 C 19.308 8.000,19.423 8.021,19.701 8.299 C 20.020 8.618,20.000 8.272,20.000 13.543 C 20.000 18.829,20.011 18.611,19.704 19.260 C 19.281 20.152,18.537 20.741,17.581 20.938 C 17.146 21.028,6.849 21.030,6.425 20.940 C 5.466 20.737,4.729 20.164,4.312 19.296 C 4.000 18.647,4.024 19.099,4.010 13.704 C 3.996 8.256,3.977 8.621,4.299 8.299 C 4.574 8.024,4.666 8.007,5.910 8.003 L 7.000 8.000 7.000 9.570 " fill="#000640" stroke="none" fill-rule="evenodd"></path></svg>