<svg xmlns="http://www.w3.org/2000/svg" width="24" height="24" fill="currentColor" class="mmi mmi-barbell" viewBox="0 0 24 24"><path d="M3.664 6.063 C 3.436 6.146,3.257 6.297,3.131 6.511 C 3.024 6.693,3.020 6.723,3.007 7.348 L 2.993 7.997 1.865 8.008 C 0.745 8.020,0.736 8.021,0.539 8.122 C 0.316 8.237,0.104 8.488,0.042 8.711 C -0.015 8.916,-0.015 15.084,0.042 15.289 C 0.104 15.512,0.316 15.763,0.539 15.878 C 0.736 15.979,0.745 15.980,1.865 15.992 L 2.993 16.003 3.007 16.652 C 3.020 17.277,3.024 17.307,3.131 17.489 C 3.192 17.592,3.301 17.723,3.374 17.778 C 3.657 17.994,3.715 18.000,5.498 18.000 C 7.371 18.000,7.407 17.995,7.701 17.701 C 8.002 17.400,8.000 17.419,8.000 15.073 L 8.000 13.000 12.000 13.000 L 16.000 13.000 16.000 15.070 C 16.000 16.373,16.016 17.195,16.042 17.289 C 16.104 17.512,16.316 17.763,16.539 17.878 L 16.738 17.980 18.435 17.991 C 20.371 18.004,20.402 18.000,20.700 17.702 C 20.949 17.454,21.000 17.260,21.000 16.573 L 21.000 16.000 22.073 16.000 C 23.308 16.000,23.423 15.979,23.701 15.701 C 24.013 15.390,24.000 15.544,24.000 12.000 C 24.000 8.456,24.013 8.610,23.701 8.299 C 23.423 8.021,23.308 8.000,22.073 8.000 L 21.000 8.000 21.000 7.427 C 21.000 6.740,20.949 6.546,20.700 6.298 C 20.402 6.000,20.371 5.996,18.435 6.009 L 16.738 6.020 16.539 6.122 C 16.316 6.237,16.104 6.488,16.042 6.711 C 16.016 6.805,16.000 7.627,16.000 8.930 L 16.000 11.000 12.000 11.000 L 8.000 11.000 8.000 8.927 C 8.000 6.581,8.002 6.600,7.701 6.299 C 7.406 6.004,7.373 6.000,5.483 6.003 C 4.145 6.005,3.789 6.017,3.664 6.063 M6.000 12.000 L 6.000 16.000 5.500 16.000 L 5.000 16.000 5.000 12.000 L 5.000 8.000 5.500 8.000 L 6.000 8.000 6.000 12.000 M19.000 12.000 L 19.000 16.000 18.500 16.000 L 18.000 16.000 18.000 12.000 L 18.000 8.000 18.500 8.000 L 19.000 8.000 19.000 12.000 M3.000 12.000 L 3.000 14.000 2.500 14.000 L 2.000 14.000 2.000 12.000 L 2.000 10.000 2.500 10.000 L 3.000 10.000 3.000 12.000 M22.000 12.000 L 22.000 14.000 21.500 14.000 L 21.000 14.000 21.000 12.000 L 21.000 10.000 21.500 10.000 L 22.000 10.000 22.000 12.000 " fill="#000640" stroke="none" fill-rule="evenodd"></path></svg>