<svg xmlns="http://www.w3.org/2000/svg" width="24" height="24" fill="currentColor" class="mmi mmi-barbell-v2" viewBox="0 0 24 24"><path d="M1.664 6.063 C 1.436 6.146,1.257 6.297,1.131 6.511 L 1.020 6.700 1.009 11.914 C 1.002 15.436,1.012 17.177,1.041 17.282 C 1.102 17.509,1.313 17.761,1.539 17.878 L 1.738 17.980 4.436 17.991 C 7.488 18.003,7.390 18.012,7.700 17.702 C 8.002 17.400,8.000 17.420,8.000 15.073 L 8.000 13.000 11.999 13.000 L 15.997 13.000 16.009 15.150 L 16.020 17.300 16.131 17.489 C 16.192 17.592,16.301 17.723,16.374 17.778 C 16.669 18.003,16.624 18.000,19.498 18.000 C 22.486 18.000,22.393 18.009,22.701 17.701 C 23.021 17.381,23.000 17.783,23.000 12.000 C 23.000 6.217,23.021 6.619,22.701 6.299 C 22.393 5.991,22.486 6.000,19.498 6.000 C 16.624 6.000,16.669 5.997,16.374 6.222 C 16.301 6.277,16.192 6.408,16.131 6.511 L 16.020 6.700 16.009 8.850 L 15.997 11.000 11.999 11.000 L 8.000 11.000 8.000 8.927 C 8.000 6.581,8.002 6.600,7.701 6.299 C 7.393 5.991,7.488 6.000,4.483 6.003 C 2.276 6.005,1.793 6.015,1.664 6.063 M6.000 12.000 L 6.000 16.000 4.500 16.000 L 3.000 16.000 3.000 12.000 L 3.000 8.000 4.500 8.000 L 6.000 8.000 6.000 12.000 M21.000 12.000 L 21.000 16.000 19.500 16.000 L 18.000 16.000 18.000 12.000 L 18.000 8.000 19.500 8.000 L 21.000 8.000 21.000 12.000 " fill="#000640" stroke="none" fill-rule="evenodd"></path></svg>