<svg xmlns="http://www.w3.org/2000/svg" width="24" height="24" fill="currentColor" class="mmi mmi-barcode" viewBox="0 0 24 24"><path d="M1.670 5.175 C 1.446 5.258,1.255 5.420,1.131 5.631 L 1.020 5.820 1.010 12.038 C 0.998 19.046,0.974 18.501,1.305 18.823 C 1.706 19.213,2.294 19.213,2.694 18.824 C 3.025 18.502,3.000 19.042,2.998 12.103 C 2.996 5.445,3.008 5.795,2.783 5.501 C 2.546 5.190,2.032 5.039,1.670 5.175 M5.670 5.175 C 5.446 5.258,5.255 5.420,5.131 5.631 L 5.020 5.820 5.010 12.038 C 4.998 19.046,4.974 18.501,5.305 18.823 C 5.706 19.213,6.294 19.213,6.694 18.824 C 7.025 18.502,7.000 19.042,6.998 12.103 C 6.996 5.445,7.008 5.795,6.783 5.501 C 6.546 5.190,6.032 5.039,5.670 5.175 M8.670 5.175 C 8.446 5.258,8.255 5.420,8.131 5.631 L 8.020 5.820 8.010 12.038 C 7.998 19.046,7.974 18.501,8.305 18.823 C 8.706 19.213,9.294 19.213,9.694 18.824 C 10.025 18.502,10.000 19.042,9.998 12.103 C 9.996 5.445,10.008 5.795,9.783 5.501 C 9.546 5.190,9.032 5.039,8.670 5.175 M13.670 5.175 C 13.446 5.258,13.255 5.420,13.131 5.631 L 13.020 5.820 13.010 12.038 C 12.998 19.046,12.974 18.501,13.305 18.823 C 13.706 19.213,14.294 19.213,14.694 18.824 C 15.025 18.502,15.000 19.042,14.998 12.103 C 14.996 5.445,15.008 5.795,14.783 5.501 C 14.546 5.190,14.032 5.039,13.670 5.175 M18.670 5.175 C 18.446 5.258,18.255 5.420,18.131 5.631 L 18.020 5.820 18.010 12.038 C 17.998 19.046,17.974 18.501,18.305 18.823 C 18.706 19.213,19.294 19.213,19.694 18.824 C 20.025 18.502,20.000 19.042,19.998 12.103 C 19.996 5.445,20.008 5.795,19.783 5.501 C 19.546 5.190,19.032 5.039,18.670 5.175 M21.670 5.175 C 21.446 5.258,21.255 5.420,21.131 5.631 L 21.020 5.820 21.010 12.038 C 20.998 19.046,20.974 18.501,21.305 18.823 C 21.706 19.213,22.294 19.213,22.694 18.824 C 23.025 18.502,23.000 19.042,22.998 12.103 C 22.996 5.445,23.008 5.795,22.783 5.501 C 22.546 5.190,22.032 5.039,21.670 5.175 " fill="#000640" stroke="none" fill-rule="evenodd"></path></svg>