<svg xmlns="http://www.w3.org/2000/svg" width="24" height="24" fill="currentColor" class="mmi mmi-barchart" viewBox="0 0 24 24"><path d="M9.664 1.063 C 9.436 1.146,9.257 1.297,9.131 1.511 L 9.020 1.700 9.010 11.915 C 9.003 18.860,9.013 22.178,9.041 22.283 C 9.102 22.509,9.313 22.761,9.539 22.878 L 9.738 22.980 11.936 22.991 C 14.429 23.003,14.395 23.007,14.700 22.702 C 15.028 22.374,15.000 23.388,15.000 12.000 C 15.000 0.615,15.028 1.626,14.701 1.299 C 14.398 0.996,14.430 1.000,11.983 1.003 C 10.210 1.005,9.792 1.016,9.664 1.063 M13.000 12.000 L 13.000 21.000 12.000 21.000 L 11.000 21.000 11.000 12.000 L 11.000 3.000 12.000 3.000 L 13.000 3.000 13.000 12.000 M17.664 8.063 C 17.436 8.146,17.257 8.297,17.131 8.511 L 17.020 8.700 17.010 15.414 C 17.002 19.963,17.012 22.178,17.041 22.282 C 17.102 22.509,17.313 22.761,17.539 22.878 L 17.738 22.980 19.936 22.991 C 22.429 23.003,22.395 23.007,22.700 22.702 C 23.024 22.378,23.000 22.965,23.000 15.500 C 23.000 8.037,23.024 8.622,22.701 8.299 C 22.398 7.996,22.430 8.000,19.983 8.003 C 18.210 8.005,17.792 8.016,17.664 8.063 M21.000 15.500 L 21.000 21.000 20.000 21.000 L 19.000 21.000 19.000 15.500 L 19.000 10.000 20.000 10.000 L 21.000 10.000 21.000 15.500 M1.664 12.063 C 1.436 12.146,1.257 12.297,1.131 12.511 L 1.020 12.700 1.009 17.413 C 1.002 20.593,1.012 22.177,1.040 22.282 C 1.102 22.509,1.313 22.761,1.539 22.878 L 1.738 22.980 3.936 22.991 C 6.429 23.003,6.395 23.007,6.700 22.702 C 7.020 22.382,7.000 22.724,7.000 17.500 C 7.000 12.277,7.020 12.617,6.701 12.299 C 6.398 11.996,6.430 12.000,3.983 12.003 C 2.210 12.005,1.792 12.016,1.664 12.063 M5.000 17.500 L 5.000 21.000 4.000 21.000 L 3.000 21.000 3.000 17.500 L 3.000 14.000 4.000 14.000 L 5.000 14.000 5.000 17.500 " fill="#000640" stroke="none" fill-rule="evenodd"></path></svg>