<svg xmlns="http://www.w3.org/2000/svg" width="24" height="24" fill="currentColor" class="mmi mmi-baseballcap" viewBox="0 0 24 24"><path d="M11.660 1.035 C 11.220 1.151,10.810 1.493,10.639 1.886 L 10.540 2.112 10.060 2.200 C 7.052 2.753,3.849 4.310,2.598 5.828 C 2.040 6.505,1.766 7.201,1.522 8.555 C 1.235 10.156,1.002 13.259,1.001 15.520 L 1.000 16.141 1.622 18.320 C 1.964 19.519,2.290 20.623,2.347 20.774 C 2.566 21.354,3.077 21.951,3.635 22.277 C 4.198 22.606,4.993 22.792,5.638 22.747 C 6.114 22.713,6.570 22.571,7.289 22.235 C 9.122 21.379,10.502 21.024,12.000 21.024 C 13.487 21.024,14.890 21.383,16.697 22.227 C 17.047 22.391,17.487 22.569,17.675 22.623 C 19.039 23.019,20.596 22.475,21.357 21.337 C 21.465 21.176,21.592 20.940,21.640 20.812 C 21.689 20.684,22.014 19.582,22.364 18.361 L 23.000 16.142 22.999 15.541 C 22.998 13.318,22.776 10.284,22.499 8.685 C 22.245 7.224,21.977 6.526,21.402 5.828 C 20.149 4.308,16.972 2.764,13.940 2.201 L 13.460 2.112 13.361 1.886 C 13.235 1.596,12.928 1.287,12.624 1.143 C 12.371 1.024,11.901 0.971,11.660 1.035 M12.349 4.579 C 12.963 5.150,13.493 5.878,13.861 6.655 C 14.203 7.379,14.408 8.104,14.568 9.160 C 14.619 9.490,14.646 12.167,14.600 12.213 C 14.589 12.224,14.496 12.218,14.393 12.198 C 13.167 11.969,11.152 11.961,9.760 12.179 C 9.573 12.209,9.411 12.224,9.400 12.213 C 9.354 12.168,9.381 9.490,9.432 9.160 C 9.592 8.104,9.797 7.379,10.139 6.655 C 10.394 6.115,10.632 5.740,11.029 5.249 C 11.302 4.912,11.935 4.280,12.000 4.280 C 12.015 4.280,12.172 4.415,12.349 4.579 M9.054 4.530 C 9.038 4.558,8.940 4.709,8.837 4.867 C 7.736 6.560,7.215 8.941,7.355 11.640 C 7.380 12.113,7.400 12.540,7.400 12.588 C 7.400 12.664,7.357 12.689,7.110 12.761 C 6.113 13.050,4.868 13.506,3.929 13.925 C 3.583 14.080,3.239 14.233,3.164 14.266 L 3.029 14.326 3.056 13.733 C 3.214 10.281,3.518 8.101,3.942 7.374 C 4.285 6.786,5.250 6.076,6.573 5.439 C 7.258 5.109,7.589 4.974,8.400 4.697 C 9.087 4.462,9.097 4.459,9.054 4.530 M15.584 4.695 C 16.406 4.973,16.735 5.105,17.427 5.439 C 18.741 6.072,19.654 6.738,20.041 7.348 C 20.448 7.988,20.769 10.143,20.923 13.263 C 20.948 13.771,20.962 14.215,20.954 14.251 C 20.943 14.304,20.831 14.266,20.334 14.040 C 19.287 13.565,17.925 13.059,16.888 12.760 L 16.595 12.675 16.628 12.088 C 16.678 11.166,16.658 9.810,16.583 9.160 C 16.390 7.478,15.902 6.003,15.163 4.867 C 14.924 4.501,14.912 4.480,14.932 4.480 C 14.941 4.480,15.234 4.577,15.584 4.695 M13.643 14.117 C 15.204 14.319,16.853 14.767,18.532 15.446 C 19.590 15.874,20.800 16.447,20.800 16.522 C 20.800 16.593,19.841 19.936,19.784 20.061 C 19.535 20.613,18.778 20.903,18.156 20.684 C 18.037 20.642,17.733 20.509,17.480 20.387 C 15.371 19.377,13.188 18.894,11.363 19.032 C 9.758 19.154,8.158 19.604,6.483 20.404 C 6.210 20.534,5.897 20.668,5.786 20.700 C 5.170 20.883,4.456 20.593,4.216 20.061 C 4.159 19.936,3.200 16.593,3.200 16.521 C 3.200 16.444,4.442 15.856,5.500 15.432 C 7.439 14.655,9.306 14.188,11.058 14.039 C 11.667 13.988,12.936 14.026,13.643 14.117 " fill="#000640" stroke="none" fill-rule="evenodd"></path></svg>