<svg xmlns="http://www.w3.org/2000/svg" width="24" height="24" fill="currentColor" class="mmi mmi-baseballcap-v2" viewBox="0 0 24 24"><path d="M11.660 1.035 C 11.220 1.151,10.810 1.493,10.639 1.886 L 10.540 2.112 10.060 2.200 C 7.746 2.625,5.216 3.677,3.622 4.877 C 2.358 5.829,1.875 6.666,1.544 8.480 C 1.268 9.996,1.118 11.769,1.034 14.540 L 0.987 16.100 1.615 18.300 C 1.960 19.510,2.289 20.617,2.345 20.760 C 2.711 21.692,3.496 22.365,4.540 22.644 C 4.792 22.711,4.975 22.730,5.400 22.730 C 6.086 22.730,6.347 22.663,7.213 22.264 C 8.363 21.735,9.250 21.419,10.126 21.226 C 10.909 21.053,11.191 21.022,12.000 21.022 C 13.520 21.022,14.820 21.360,16.787 22.264 C 17.657 22.664,17.915 22.731,18.600 22.731 C 19.027 22.731,19.207 22.713,19.460 22.645 C 20.513 22.362,21.310 21.672,21.660 20.744 C 21.715 20.598,22.035 19.529,22.370 18.369 L 22.980 16.260 22.973 15.200 C 22.952 12.229,22.672 9.181,22.278 7.653 C 22.038 6.723,21.704 6.110,21.107 5.508 C 19.695 4.086,16.732 2.719,13.940 2.201 L 13.460 2.112 13.361 1.886 C 13.235 1.596,12.928 1.287,12.624 1.143 C 12.371 1.024,11.901 0.971,11.660 1.035 M12.926 4.063 C 15.277 4.362,18.245 5.579,19.547 6.777 C 20.159 7.340,20.366 7.869,20.597 9.460 C 20.772 10.667,20.987 13.465,20.953 14.088 L 20.940 14.315 20.340 14.044 C 17.987 12.978,15.681 12.320,13.440 12.074 C 12.847 12.009,11.153 12.009,10.560 12.074 C 8.319 12.320,6.013 12.978,3.660 14.044 L 3.060 14.315 3.047 14.088 C 3.029 13.756,3.151 11.707,3.243 10.800 C 3.442 8.838,3.670 7.784,4.004 7.284 C 4.684 6.265,7.048 5.007,9.460 4.380 C 10.842 4.021,11.864 3.928,12.926 4.063 M11.503 5.040 C 10.828 5.162,10.156 5.550,9.703 6.080 C 8.987 6.917,8.806 8.100,9.234 9.151 C 9.521 9.857,10.143 10.479,10.849 10.766 C 11.989 11.230,13.251 10.978,14.115 10.115 C 15.238 8.992,15.295 7.212,14.246 6.020 C 13.897 5.624,13.276 5.239,12.756 5.097 C 12.491 5.024,11.770 4.991,11.503 5.040 M12.340 7.066 C 12.709 7.192,13.000 7.604,13.000 8.000 C 13.000 8.527,12.527 9.000,12.000 9.000 C 11.758 9.000,11.479 8.881,11.299 8.701 C 10.907 8.309,10.908 7.690,11.300 7.298 C 11.577 7.020,11.957 6.936,12.340 7.066 M13.600 14.099 C 15.391 14.334,17.401 14.925,19.386 15.803 C 20.118 16.126,20.800 16.473,20.800 16.521 C 20.800 16.543,20.575 17.347,20.301 18.308 C 19.966 19.478,19.768 20.104,19.700 20.207 C 19.490 20.524,19.018 20.760,18.595 20.760 C 18.341 20.760,18.087 20.676,17.517 20.404 C 15.842 19.604,14.242 19.154,12.637 19.032 C 10.812 18.894,8.629 19.377,6.520 20.387 C 6.267 20.509,5.963 20.642,5.844 20.684 C 5.222 20.903,4.465 20.613,4.216 20.061 C 4.159 19.935,3.200 16.593,3.200 16.521 C 3.200 16.473,3.880 16.127,4.614 15.803 C 6.883 14.800,9.052 14.207,11.120 14.024 C 11.525 13.989,13.125 14.037,13.600 14.099 " fill="#000640" stroke="none" fill-rule="evenodd"></path></svg>