<svg xmlns="http://www.w3.org/2000/svg" width="24" height="24" fill="currentColor" class="mmi mmi-basketball" viewBox="0 0 24 24"><path d="M10.940 0.044 C 6.839 0.427,3.272 2.815,1.354 6.462 C 0.752 7.607,0.330 8.920,0.115 10.320 C 0.039 10.811,0.025 11.072,0.023 12.020 C 0.020 13.275,0.073 13.750,0.339 14.828 C 1.428 19.242,4.839 22.633,9.240 23.677 C 10.259 23.919,10.786 23.975,12.020 23.976 C 12.979 23.977,13.220 23.964,13.700 23.889 C 16.343 23.474,18.644 22.318,20.481 20.481 C 22.847 18.115,24.088 14.968,23.988 11.588 C 23.875 7.745,21.874 4.161,18.640 2.011 C 16.924 0.870,14.999 0.208,12.922 0.043 C 12.311 -0.006,11.471 -0.005,10.940 0.044 M11.000 6.520 L 11.000 11.000 9.460 11.000 L 7.920 11.000 7.920 10.896 C 7.920 10.692,7.753 9.971,7.596 9.500 C 7.115 8.053,6.185 6.744,4.934 5.751 C 4.706 5.571,4.520 5.407,4.520 5.388 C 4.520 5.325,5.047 4.800,5.500 4.410 C 6.911 3.196,8.649 2.400,10.496 2.120 C 10.762 2.080,10.985 2.045,10.990 2.044 C 10.995 2.042,11.000 4.056,11.000 6.520 M14.080 2.222 C 15.692 2.566,17.258 3.341,18.500 4.410 C 18.954 4.800,19.480 5.325,19.480 5.388 C 19.480 5.407,19.294 5.571,19.066 5.751 C 17.815 6.744,16.885 8.053,16.404 9.500 C 16.247 9.971,16.080 10.692,16.080 10.896 L 16.080 11.000 14.540 11.000 L 13.000 11.000 13.000 6.526 L 13.000 2.052 13.390 2.105 C 13.605 2.135,13.915 2.187,14.080 2.222 M4.223 7.820 C 4.805 8.398,5.157 8.886,5.455 9.523 C 5.623 9.882,5.803 10.416,5.860 10.720 C 5.874 10.797,5.895 10.892,5.906 10.930 C 5.924 10.996,5.814 11.000,3.989 11.000 L 2.052 11.000 2.105 10.610 C 2.217 9.789,2.428 9.001,2.742 8.233 C 2.915 7.807,3.157 7.302,3.269 7.131 L 3.328 7.041 3.514 7.170 C 3.616 7.242,3.935 7.534,4.223 7.820 M20.926 7.494 C 21.408 8.445,21.749 9.543,21.895 10.610 L 21.948 11.000 20.015 11.000 L 18.082 11.000 18.105 10.870 C 18.343 9.543,19.166 8.224,20.340 7.292 C 20.710 6.999,20.667 6.984,20.926 7.494 M5.901 13.090 C 5.890 13.139,5.862 13.270,5.839 13.380 C 5.721 13.949,5.406 14.663,5.015 15.251 C 4.710 15.709,4.123 16.340,3.660 16.708 C 3.290 17.001,3.333 17.016,3.074 16.506 C 2.592 15.555,2.251 14.457,2.105 13.390 L 2.052 13.000 3.987 13.000 L 5.922 13.000 5.901 13.090 M11.000 17.482 L 11.000 21.964 10.870 21.943 C 10.798 21.932,10.605 21.903,10.440 21.878 C 8.835 21.640,7.071 20.859,5.740 19.799 C 5.374 19.507,4.520 18.681,4.520 18.618 C 4.520 18.596,4.709 18.427,4.940 18.243 C 6.491 17.013,7.573 15.231,7.872 13.410 L 7.940 13.000 9.470 13.000 L 11.000 13.000 11.000 17.482 M16.080 13.104 C 16.080 13.308,16.247 14.029,16.404 14.500 C 16.895 15.976,17.863 17.320,19.159 18.324 C 19.336 18.461,19.480 18.590,19.480 18.610 C 19.480 18.674,18.960 19.194,18.500 19.591 C 17.139 20.763,15.283 21.622,13.560 21.878 C 13.395 21.903,13.202 21.932,13.130 21.943 L 13.000 21.964 13.000 17.482 L 13.000 13.000 14.540 13.000 L 16.080 13.000 16.080 13.104 M21.894 13.390 C 21.740 14.523,21.328 15.794,20.823 16.697 L 20.675 16.962 20.490 16.831 C 20.230 16.647,19.513 15.953,19.278 15.657 C 18.709 14.942,18.224 13.902,18.108 13.150 L 18.085 13.000 20.016 13.000 L 21.948 13.000 21.894 13.390 " fill="#000640" stroke="none" fill-rule="evenodd"></path></svg>