<svg xmlns="http://www.w3.org/2000/svg" width="24" height="24" fill="currentColor" class="mmi mmi-battery-charging" viewBox="0 0 24 24"><path d="M9.643 1.069 C 9.546 1.103,9.392 1.206,9.300 1.298 C 9.052 1.546,9.000 1.741,9.000 2.424 L 9.000 2.993 7.730 3.011 C 6.321 3.030,6.276 3.037,5.704 3.312 C 5.307 3.502,4.941 3.792,4.670 4.127 C 4.445 4.407,4.159 4.980,4.074 5.320 C 3.994 5.647,3.994 20.353,4.074 20.680 C 4.159 21.020,4.445 21.593,4.670 21.873 C 4.950 22.220,5.312 22.501,5.740 22.704 C 6.394 23.013,6.109 23.000,12.000 23.000 C 17.891 23.000,17.606 23.013,18.260 22.704 C 18.920 22.391,19.391 21.920,19.704 21.260 C 20.019 20.594,20.000 21.123,20.000 13.000 C 20.000 4.877,20.019 5.406,19.704 4.740 C 19.398 4.095,18.924 3.614,18.296 3.312 C 17.724 3.037,17.679 3.030,16.270 3.011 L 15.000 2.993 15.000 2.424 C 15.000 1.741,14.948 1.546,14.701 1.299 C 14.398 0.996,14.430 1.000,11.983 1.003 C 10.132 1.006,9.795 1.015,9.643 1.069 M17.340 5.066 C 17.455 5.105,17.603 5.201,17.701 5.299 C 18.025 5.623,18.000 4.977,18.000 13.000 C 18.000 21.025,18.025 20.377,17.700 20.702 C 17.380 21.023,17.786 21.002,11.937 20.990 L 6.738 20.980 6.539 20.878 C 6.313 20.761,6.102 20.509,6.041 20.282 C 6.013 20.178,6.002 17.806,6.010 12.914 L 6.020 5.700 6.131 5.511 C 6.256 5.298,6.449 5.136,6.670 5.057 C 6.792 5.013,7.774 5.003,11.983 5.002 C 16.686 5.000,17.163 5.006,17.340 5.066 M12.699 8.056 C 12.611 8.083,12.486 8.140,12.422 8.182 C 12.358 8.224,11.584 9.222,10.701 10.399 C 9.450 12.068,9.084 12.582,9.043 12.731 C 8.937 13.107,9.078 13.553,9.374 13.778 C 9.642 13.983,9.764 14.000,10.925 14.000 L 12.000 14.000 11.042 15.278 C 10.016 16.647,9.973 16.724,10.013 17.112 C 10.068 17.651,10.559 18.044,11.106 17.988 C 11.546 17.942,11.531 17.959,13.294 15.607 C 14.376 14.163,14.918 13.406,14.951 13.295 C 15.059 12.931,14.966 12.564,14.697 12.295 C 14.427 12.025,14.289 12.000,13.053 12.000 L 12.000 12.000 12.958 10.722 C 13.984 9.353,14.027 9.276,13.987 8.888 C 13.923 8.267,13.304 7.866,12.699 8.056 " fill="#000640" stroke="none" fill-rule="evenodd"></path></svg>