<svg xmlns="http://www.w3.org/2000/svg" width="24" height="24" fill="currentColor" class="mmi mmi-battery" viewBox="0 0 24 24"><path d="M9.643 1.069 C 9.546 1.103,9.392 1.206,9.300 1.298 C 9.052 1.546,9.000 1.741,9.000 2.424 L 9.000 2.993 7.730 3.011 C 6.321 3.030,6.276 3.037,5.704 3.312 C 5.307 3.502,4.941 3.792,4.670 4.127 C 4.445 4.407,4.159 4.980,4.074 5.320 C 3.994 5.647,3.994 20.353,4.074 20.680 C 4.159 21.020,4.445 21.593,4.670 21.873 C 4.950 22.220,5.312 22.501,5.740 22.704 C 6.394 23.013,6.109 23.000,12.000 23.000 C 17.891 23.000,17.606 23.013,18.260 22.704 C 18.920 22.391,19.391 21.920,19.704 21.260 C 20.019 20.594,20.000 21.123,20.000 13.000 C 20.000 4.877,20.019 5.406,19.704 4.740 C 19.398 4.095,18.924 3.614,18.296 3.312 C 17.724 3.037,17.679 3.030,16.270 3.011 L 15.000 2.993 15.000 2.424 C 15.000 1.741,14.948 1.546,14.701 1.299 C 14.398 0.996,14.430 1.000,11.983 1.003 C 10.132 1.006,9.795 1.015,9.643 1.069 M17.340 5.066 C 17.455 5.105,17.603 5.201,17.701 5.299 C 18.025 5.623,18.000 4.977,18.000 13.000 C 18.000 21.025,18.025 20.377,17.700 20.702 C 17.380 21.023,17.786 21.002,11.937 20.990 L 6.738 20.980 6.539 20.878 C 6.313 20.761,6.102 20.509,6.041 20.282 C 6.013 20.178,6.002 17.806,6.010 12.914 L 6.020 5.700 6.131 5.511 C 6.256 5.298,6.449 5.136,6.670 5.057 C 6.792 5.013,7.774 5.003,11.983 5.002 C 16.686 5.000,17.163 5.006,17.340 5.066 M8.664 11.063 C 8.436 11.146,8.257 11.297,8.131 11.511 C 8.036 11.672,8.020 11.744,8.020 12.000 C 8.020 12.256,8.036 12.328,8.131 12.489 C 8.192 12.592,8.301 12.723,8.374 12.778 C 8.672 13.006,8.578 13.000,11.998 13.000 C 15.545 13.000,15.390 13.013,15.701 12.701 C 16.092 12.310,16.092 11.690,15.701 11.299 C 15.389 10.987,15.547 11.000,11.983 11.003 C 9.342 11.005,8.794 11.015,8.664 11.063 M8.664 14.063 C 8.436 14.146,8.257 14.297,8.131 14.511 C 8.036 14.672,8.020 14.744,8.020 15.000 C 8.020 15.256,8.036 15.328,8.131 15.489 C 8.192 15.592,8.301 15.723,8.374 15.778 C 8.672 16.006,8.578 16.000,11.998 16.000 C 15.545 16.000,15.390 16.013,15.701 15.701 C 16.092 15.310,16.092 14.690,15.701 14.299 C 15.389 13.987,15.547 14.000,11.983 14.003 C 9.342 14.005,8.794 14.015,8.664 14.063 M8.664 17.063 C 8.436 17.146,8.257 17.297,8.131 17.511 C 8.036 17.672,8.020 17.744,8.020 18.000 C 8.020 18.256,8.036 18.328,8.131 18.489 C 8.192 18.592,8.301 18.723,8.374 18.778 C 8.672 19.006,8.578 19.000,11.998 19.000 C 15.545 19.000,15.390 19.013,15.701 18.701 C 16.092 18.310,16.092 17.690,15.701 17.299 C 15.389 16.987,15.547 17.000,11.983 17.003 C 9.342 17.005,8.794 17.015,8.664 17.063 " fill="#000640" stroke="none" fill-rule="evenodd"></path></svg>