<svg xmlns="http://www.w3.org/2000/svg" width="24" height="24" fill="currentColor" class="mmi mmi-battery-add" viewBox="0 0 24 24"><path d="M9.643 1.069 C 9.546 1.103,9.392 1.206,9.300 1.298 C 9.052 1.546,9.000 1.741,9.000 2.424 L 9.000 2.993 7.730 3.011 C 6.321 3.030,6.276 3.037,5.704 3.312 C 5.307 3.502,4.941 3.792,4.670 4.127 C 4.445 4.407,4.159 4.980,4.074 5.320 C 3.994 5.647,3.994 20.353,4.074 20.680 C 4.159 21.020,4.445 21.593,4.670 21.873 C 4.950 22.220,5.312 22.501,5.740 22.704 C 6.394 23.013,6.109 23.000,12.000 23.000 C 17.891 23.000,17.606 23.013,18.260 22.704 C 18.920 22.391,19.391 21.920,19.704 21.260 C 20.019 20.594,20.000 21.123,20.000 13.000 C 20.000 4.877,20.019 5.406,19.704 4.740 C 19.398 4.095,18.924 3.614,18.296 3.312 C 17.724 3.037,17.679 3.030,16.270 3.011 L 15.000 2.993 15.000 2.424 C 15.000 1.741,14.948 1.546,14.701 1.299 C 14.398 0.996,14.430 1.000,11.983 1.003 C 10.132 1.006,9.795 1.015,9.643 1.069 M17.340 5.066 C 17.455 5.105,17.603 5.201,17.701 5.299 C 18.025 5.623,18.000 4.977,18.000 13.000 C 18.000 21.025,18.025 20.377,17.700 20.702 C 17.380 21.023,17.786 21.002,11.937 20.990 L 6.738 20.980 6.539 20.878 C 6.313 20.761,6.102 20.509,6.041 20.282 C 6.013 20.178,6.002 17.806,6.010 12.914 L 6.020 5.700 6.131 5.511 C 6.256 5.298,6.449 5.136,6.670 5.057 C 6.792 5.013,7.774 5.003,11.983 5.002 C 16.686 5.000,17.163 5.006,17.340 5.066 M11.664 9.063 C 11.436 9.146,11.257 9.297,11.131 9.511 L 11.020 9.700 11.008 10.850 L 10.995 12.000 9.923 12.000 C 8.764 12.000,8.642 12.018,8.374 12.222 C 8.301 12.277,8.192 12.408,8.131 12.511 C 8.036 12.672,8.020 12.744,8.020 13.000 C 8.020 13.256,8.036 13.328,8.131 13.489 C 8.192 13.592,8.301 13.723,8.374 13.778 C 8.642 13.983,8.764 14.000,9.925 14.000 L 11.000 14.000 11.000 15.070 C 11.000 15.684,11.018 16.204,11.042 16.289 C 11.103 16.509,11.315 16.762,11.531 16.874 C 11.932 17.080,12.390 17.012,12.700 16.702 C 12.979 16.423,13.000 16.309,13.000 15.073 L 13.000 14.000 14.073 14.000 C 15.308 14.000,15.423 13.979,15.701 13.701 C 16.092 13.310,16.092 12.690,15.701 12.299 C 15.423 12.021,15.308 12.000,14.073 12.000 L 13.000 12.000 13.000 10.927 C 13.000 9.692,12.979 9.577,12.701 9.299 C 12.429 9.027,12.018 8.933,11.664 9.063 " fill="#000640" stroke="none" fill-rule="evenodd"></path></svg>