<svg xmlns="http://www.w3.org/2000/svg" width="24" height="24" fill="currentColor" class="mmi mmi-battery-empty" viewBox="0 0 24 24"><path d="M9.664 1.063 C 9.436 1.146,9.257 1.297,9.131 1.511 C 9.024 1.693,9.020 1.724,9.007 2.347 L 8.993 2.993 7.727 3.011 C 6.322 3.030,6.276 3.037,5.704 3.312 C 4.836 3.729,4.263 4.466,4.060 5.425 C 3.969 5.851,3.971 20.144,4.062 20.581 C 4.310 21.785,5.215 22.690,6.419 22.938 C 6.678 22.992,7.400 23.000,12.000 23.000 C 17.777 23.000,17.556 23.008,18.150 22.767 C 18.850 22.482,19.482 21.850,19.767 21.150 C 20.012 20.547,20.000 20.974,20.000 13.000 C 20.000 5.024,20.012 5.453,19.766 4.849 C 19.499 4.193,18.964 3.633,18.296 3.312 C 17.724 3.037,17.679 3.030,16.270 3.011 L 15.000 2.993 15.000 2.424 C 15.000 1.741,14.948 1.546,14.701 1.299 C 14.398 0.996,14.430 1.000,11.983 1.003 C 10.210 1.005,9.792 1.016,9.664 1.063 M17.340 5.066 C 17.455 5.105,17.603 5.201,17.701 5.299 C 18.025 5.623,18.000 4.977,18.000 13.000 C 18.000 21.023,18.025 20.377,17.701 20.701 C 17.381 21.021,17.783 21.000,12.000 21.000 C 6.217 21.000,6.619 21.021,6.299 20.701 C 5.975 20.377,6.000 21.023,6.000 13.000 C 6.000 4.975,5.975 5.623,6.300 5.298 C 6.612 4.986,6.207 5.007,11.983 5.003 C 16.689 5.000,17.163 5.006,17.340 5.066 " fill="#000640" stroke="none" fill-rule="evenodd"></path></svg>