<svg xmlns="http://www.w3.org/2000/svg" width="24" height="24" fill="currentColor" class="mmi mmi-beaniehat" viewBox="0 0 24 24"><path d="M11.378 1.055 C 9.937 1.292,8.718 2.302,8.243 3.655 C 8.009 4.323,7.944 5.018,8.058 5.640 C 8.122 5.989,8.165 5.928,7.612 6.272 C 6.176 7.163,4.923 8.652,4.136 10.405 C 3.582 11.640,3.191 13.158,3.075 14.520 C 3.017 15.206,3.031 15.169,2.811 15.256 C 1.954 15.599,1.259 16.455,1.063 17.408 C 0.973 17.848,0.972 20.147,1.062 20.581 C 1.310 21.785,2.215 22.690,3.419 22.938 C 3.681 22.993,4.700 23.000,12.000 23.000 C 19.300 23.000,20.319 22.993,20.581 22.938 C 21.780 22.691,22.691 21.780,22.938 20.581 C 23.027 20.152,23.027 17.848,22.938 17.419 C 22.738 16.450,22.052 15.601,21.189 15.256 C 20.969 15.169,20.984 15.211,20.921 14.500 C 20.798 13.110,20.418 11.640,19.864 10.405 C 19.077 8.652,17.824 7.163,16.388 6.272 C 15.835 5.928,15.878 5.989,15.942 5.640 C 16.118 4.681,15.860 3.550,15.272 2.706 C 14.827 2.066,14.069 1.492,13.329 1.236 C 12.744 1.033,11.959 0.960,11.378 1.055 M12.383 3.043 C 13.151 3.184,13.816 3.849,13.957 4.617 C 14.020 4.965,14.014 5.254,13.944 5.227 C 13.914 5.216,13.657 5.165,13.374 5.115 C 12.634 4.985,11.366 4.985,10.626 5.115 C 10.343 5.165,10.086 5.216,10.056 5.227 C 10.013 5.244,10.000 5.203,10.000 5.052 C 10.000 4.482,10.201 3.992,10.596 3.597 C 11.084 3.111,11.702 2.919,12.383 3.043 M9.788 7.493 C 9.451 8.007,8.908 9.168,8.662 9.900 C 8.226 11.195,8.001 12.765,8.000 14.510 L 8.000 15.000 6.517 15.000 L 5.034 15.000 5.060 14.730 C 5.199 13.319,5.523 12.114,6.058 11.020 C 6.843 9.414,7.914 8.303,9.336 7.615 C 9.580 7.497,9.796 7.401,9.815 7.400 C 9.834 7.400,9.822 7.442,9.788 7.493 M14.664 7.615 C 16.049 8.285,17.130 9.388,17.896 10.912 C 18.458 12.031,18.783 13.223,18.942 14.750 L 18.968 15.000 17.484 15.000 L 16.000 15.000 16.000 14.530 C 15.998 12.945,15.807 11.441,15.461 10.283 C 15.194 9.390,14.630 8.131,14.211 7.491 C 14.178 7.441,14.166 7.400,14.185 7.400 C 14.204 7.401,14.420 7.497,14.664 7.615 M12.266 8.150 C 13.216 9.657,13.698 10.962,13.878 12.520 C 13.924 12.921,13.999 14.274,13.999 14.730 L 14.000 15.000 11.994 15.000 L 9.989 15.000 10.016 14.210 C 10.090 12.043,10.306 10.973,10.959 9.547 C 11.188 9.047,11.937 7.760,12.000 7.760 C 12.011 7.760,12.131 7.935,12.266 8.150 M6.000 19.000 L 6.000 21.000 4.927 21.000 C 3.692 21.000,3.577 20.979,3.299 20.701 C 3.018 20.421,3.000 20.316,3.000 19.000 C 3.000 17.684,3.018 17.580,3.300 17.298 C 3.574 17.024,3.667 17.007,4.910 17.003 L 6.000 17.000 6.000 19.000 M11.000 19.000 L 11.000 21.000 9.500 21.000 L 8.000 21.000 8.000 19.000 L 8.000 17.000 9.500 17.000 L 11.000 17.000 11.000 19.000 M16.000 19.000 L 16.000 21.000 14.500 21.000 L 13.000 21.000 13.000 19.000 L 13.000 17.000 14.500 17.000 L 16.000 17.000 16.000 19.000 M20.340 17.066 C 20.593 17.153,20.847 17.407,20.934 17.660 C 20.989 17.823,21.000 18.038,21.000 19.000 C 21.000 20.316,20.982 20.421,20.701 20.701 C 20.423 20.979,20.308 21.000,19.073 21.000 L 18.000 21.000 18.000 19.000 L 18.000 17.000 19.073 17.000 C 19.967 17.000,20.178 17.011,20.340 17.066 " fill="#000640" stroke="none" fill-rule="evenodd"></path></svg>