<svg xmlns="http://www.w3.org/2000/svg" width="24" height="24" fill="currentColor" class="mmi mmi-bell-sleep" viewBox="0 0 24 24"><path d="M11.491 1.062 C 11.160 1.151,10.882 1.311,10.616 1.567 C 10.241 1.927,10.062 2.311,10.006 2.878 L 9.980 3.135 9.600 3.203 C 7.393 3.598,5.851 4.680,5.022 6.416 C 4.529 7.446,4.317 8.385,4.001 10.930 C 3.768 12.795,3.618 13.567,3.319 14.420 C 3.153 14.894,2.809 15.552,2.549 15.895 C 2.149 16.423,2.081 16.528,2.036 16.693 C 1.944 17.037,2.068 17.436,2.342 17.677 C 2.505 17.819,3.456 18.293,4.140 18.572 C 5.094 18.962,6.235 19.298,7.417 19.540 L 8.054 19.670 8.128 19.982 C 8.320 20.795,8.880 21.643,9.568 22.161 C 11.420 23.557,14.028 23.133,15.317 21.227 C 15.525 20.920,15.792 20.321,15.872 19.982 L 15.946 19.670 16.583 19.540 C 17.754 19.301,18.916 18.957,19.860 18.572 C 20.544 18.293,21.495 17.819,21.658 17.677 C 21.932 17.436,22.056 17.037,21.964 16.693 C 21.919 16.528,21.851 16.423,21.451 15.895 C 21.029 15.339,20.650 14.474,20.426 13.557 C 20.267 12.908,20.176 12.345,19.999 10.930 C 19.909 10.209,19.791 9.350,19.736 9.020 C 19.412 7.082,18.872 5.868,17.902 4.898 C 17.015 4.010,15.903 3.472,14.400 3.203 L 14.020 3.135 13.994 2.878 C 13.939 2.327,13.787 1.984,13.433 1.616 C 12.932 1.094,12.173 0.878,11.491 1.062 M13.740 5.115 C 15.074 5.323,15.891 5.685,16.522 6.345 C 16.932 6.774,17.157 7.146,17.378 7.760 C 17.638 8.483,17.771 9.193,18.018 11.160 C 18.357 13.860,18.656 15.040,19.302 16.225 C 19.516 16.618,19.575 16.550,18.743 16.859 C 16.723 17.608,14.409 18.000,12.000 18.000 C 9.591 18.000,7.277 17.608,5.257 16.859 C 4.423 16.550,4.483 16.624,4.717 16.188 C 4.956 15.744,5.232 15.049,5.395 14.479 C 5.638 13.632,5.787 12.769,6.021 10.864 C 6.254 8.969,6.451 8.077,6.799 7.333 C 6.995 6.915,7.151 6.687,7.478 6.345 C 8.207 5.583,9.267 5.185,11.000 5.025 C 11.099 5.016,11.639 5.014,12.200 5.021 C 12.979 5.031,13.343 5.053,13.740 5.115 M9.664 8.063 C 9.436 8.146,9.257 8.297,9.131 8.511 C 9.036 8.672,9.020 8.744,9.020 9.000 C 9.020 9.256,9.036 9.328,9.131 9.489 C 9.192 9.592,9.301 9.723,9.374 9.778 C 9.640 9.981,9.767 10.000,10.886 10.000 L 11.921 10.000 10.551 11.710 C 9.798 12.650,9.147 13.489,9.104 13.574 C 8.922 13.941,9.001 14.403,9.298 14.700 C 9.601 15.003,9.571 15.000,12.000 15.000 C 14.427 15.000,14.399 15.003,14.701 14.701 C 15.092 14.310,15.092 13.690,14.701 13.299 C 14.425 13.023,14.304 13.000,13.112 13.000 L 12.079 13.000 13.449 11.290 C 14.202 10.350,14.853 9.511,14.896 9.426 C 15.156 8.904,14.868 8.226,14.316 8.063 C 14.016 7.973,9.907 7.974,9.664 8.063 M11.497 19.984 C 12.049 19.997,12.779 19.990,13.120 19.968 C 13.461 19.947,13.746 19.935,13.754 19.942 C 13.786 19.971,13.507 20.324,13.317 20.495 C 12.577 21.160,11.423 21.160,10.683 20.495 C 10.494 20.326,10.240 20.005,10.240 19.938 C 10.240 19.923,10.297 19.921,10.367 19.935 C 10.436 19.949,10.945 19.971,11.497 19.984 " fill="#000640" stroke="none" fill-rule="evenodd"></path></svg>