<svg xmlns="http://www.w3.org/2000/svg" width="24" height="24" fill="currentColor" class="mmi mmi-bell" viewBox="0 0 24 24"><path d="M11.491 1.062 C 11.160 1.151,10.882 1.311,10.616 1.567 C 10.241 1.927,10.056 2.325,10.004 2.878 L 9.980 3.136 9.600 3.203 C 8.098 3.472,6.985 4.010,6.098 4.898 C 5.337 5.659,4.876 6.504,4.521 7.787 C 4.342 8.434,4.215 9.185,4.018 10.760 C 3.831 12.255,3.703 13.038,3.535 13.700 C 3.320 14.547,2.961 15.341,2.543 15.893 C 2.409 16.069,2.252 16.277,2.193 16.356 C 1.896 16.756,1.961 17.342,2.340 17.675 C 2.500 17.816,3.203 18.179,3.844 18.452 C 4.905 18.904,6.180 19.296,7.380 19.537 C 7.666 19.594,7.937 19.649,7.982 19.659 C 8.046 19.673,8.075 19.731,8.115 19.925 C 8.273 20.691,8.792 21.535,9.429 22.060 C 10.144 22.650,10.937 22.953,11.860 22.989 C 13.542 23.055,15.091 22.044,15.715 20.473 C 15.781 20.308,15.857 20.061,15.885 19.925 C 15.925 19.731,15.954 19.673,16.018 19.659 C 16.063 19.649,16.334 19.594,16.620 19.537 C 18.192 19.221,19.711 18.706,21.044 18.038 C 21.745 17.687,21.942 17.475,21.988 17.021 C 22.020 16.715,21.950 16.554,21.564 16.040 C 20.664 14.843,20.360 13.827,19.979 10.740 C 19.634 7.950,19.323 6.837,18.571 5.702 C 17.699 4.386,16.288 3.541,14.400 3.203 L 14.020 3.136 13.996 2.878 C 13.946 2.341,13.787 1.984,13.433 1.616 C 12.932 1.094,12.173 0.878,11.491 1.062 M13.600 5.102 C 15.584 5.363,16.707 6.112,17.302 7.570 C 17.598 8.298,17.746 9.041,18.000 11.080 C 18.326 13.700,18.599 14.822,19.201 16.024 C 19.517 16.655,19.573 16.551,18.743 16.859 C 16.723 17.608,14.409 18.000,12.000 18.000 C 9.591 18.000,7.277 17.608,5.257 16.859 C 4.427 16.551,4.483 16.655,4.799 16.024 C 5.083 15.457,5.364 14.669,5.538 13.949 C 5.690 13.325,5.813 12.553,5.998 11.080 C 6.248 9.084,6.391 8.355,6.676 7.618 C 7.291 6.026,8.596 5.237,10.940 5.042 C 11.555 4.991,13.003 5.023,13.600 5.102 M13.720 20.004 C 13.720 20.062,13.476 20.357,13.299 20.513 C 12.572 21.153,11.427 21.152,10.699 20.511 C 10.524 20.357,10.280 20.062,10.280 20.004 C 10.280 19.991,11.054 19.980,12.000 19.980 C 12.946 19.980,13.720 19.991,13.720 20.004 " fill="#000640" stroke="none" fill-rule="evenodd"></path></svg>