<svg xmlns="http://www.w3.org/2000/svg" width="24" height="24" fill="currentColor" class="mmi mmi-bell-ringing" viewBox="0 0 24 24"><path d="M6.618 1.073 C 6.352 1.198,5.521 1.677,5.200 1.892 C 4.193 2.565,3.375 3.411,2.716 4.460 C 2.295 5.130,2.037 5.655,2.012 5.893 C 1.930 6.688,2.753 7.242,3.469 6.874 C 3.692 6.759,3.803 6.616,4.123 6.030 C 4.896 4.613,5.682 3.847,7.213 3.018 C 7.717 2.745,7.890 2.574,7.981 2.263 C 8.104 1.840,7.923 1.376,7.544 1.142 C 7.290 0.985,6.873 0.954,6.618 1.073 M11.491 1.062 C 11.160 1.151,10.882 1.311,10.616 1.567 C 10.241 1.927,10.062 2.311,10.006 2.878 L 9.980 3.135 9.600 3.203 C 7.393 3.598,5.851 4.680,5.022 6.416 C 4.528 7.450,4.318 8.375,4.001 10.930 C 3.825 12.344,3.733 12.907,3.574 13.557 C 3.350 14.474,2.971 15.339,2.549 15.895 C 2.149 16.423,2.081 16.528,2.036 16.693 C 1.944 17.037,2.068 17.436,2.342 17.677 C 2.506 17.820,3.460 18.295,4.143 18.573 C 5.103 18.963,6.246 19.301,7.417 19.540 L 8.054 19.670 8.125 19.965 C 8.467 21.398,9.599 22.521,11.071 22.889 C 11.568 23.014,12.433 23.014,12.931 22.889 C 14.383 22.525,15.541 21.376,15.876 19.965 L 15.946 19.670 16.583 19.540 C 17.765 19.298,18.906 18.962,19.860 18.572 C 20.544 18.293,21.495 17.819,21.658 17.677 C 21.932 17.436,22.056 17.037,21.964 16.693 C 21.919 16.528,21.851 16.423,21.451 15.895 C 21.029 15.339,20.650 14.474,20.426 13.557 C 20.267 12.907,20.175 12.344,19.999 10.930 C 19.683 8.385,19.471 7.446,18.978 6.416 C 18.145 4.672,16.545 3.558,14.340 3.188 L 14.020 3.135 13.994 2.870 C 13.938 2.310,13.729 1.882,13.332 1.513 C 12.857 1.073,12.121 0.892,11.491 1.062 M16.667 1.063 C 16.109 1.241,15.846 1.924,16.126 2.469 C 16.242 2.694,16.409 2.823,16.965 3.120 C 18.337 3.852,19.113 4.626,19.872 6.020 C 20.004 6.262,20.163 6.531,20.226 6.618 C 20.489 6.981,21.094 7.101,21.492 6.867 C 21.714 6.737,21.901 6.498,21.965 6.264 C 22.042 5.975,21.987 5.717,21.749 5.269 C 20.742 3.365,19.602 2.226,17.740 1.262 C 17.238 1.002,16.996 0.957,16.667 1.063 M13.740 5.115 C 14.986 5.311,15.776 5.640,16.393 6.220 C 16.925 6.721,17.230 7.248,17.492 8.120 C 17.676 8.731,17.807 9.468,17.979 10.864 C 18.213 12.769,18.362 13.632,18.605 14.479 C 18.768 15.050,19.044 15.744,19.284 16.191 L 19.484 16.563 19.272 16.656 C 18.987 16.782,18.219 17.056,17.800 17.181 C 14.157 18.272,9.843 18.272,6.200 17.181 C 5.781 17.056,5.013 16.782,4.728 16.656 L 4.516 16.563 4.716 16.191 C 5.356 15.001,5.674 13.722,6.001 11.020 C 6.203 9.345,6.338 8.619,6.580 7.893 C 6.814 7.192,7.039 6.804,7.478 6.345 C 8.207 5.583,9.267 5.185,11.000 5.025 C 11.099 5.016,11.639 5.014,12.200 5.021 C 12.982 5.031,13.341 5.053,13.740 5.115 M11.497 19.984 C 12.049 19.997,12.779 19.990,13.120 19.968 C 13.461 19.947,13.746 19.935,13.754 19.942 C 13.786 19.971,13.507 20.324,13.317 20.495 C 12.577 21.160,11.423 21.160,10.683 20.495 C 10.494 20.326,10.240 20.005,10.240 19.938 C 10.240 19.923,10.297 19.921,10.367 19.935 C 10.436 19.949,10.945 19.971,11.497 19.984 " fill="#000640" stroke="none" fill-rule="evenodd"></path></svg>