<svg xmlns="http://www.w3.org/2000/svg" width="24" height="24" fill="currentColor" class="mmi mmi-bell-add" viewBox="0 0 24 24"><path d="M11.491 1.062 C 11.160 1.151,10.882 1.311,10.616 1.567 C 10.241 1.927,10.062 2.311,10.006 2.878 L 9.980 3.135 9.600 3.203 C 7.393 3.598,5.853 4.678,5.022 6.416 C 4.528 7.447,4.316 8.383,4.002 10.921 C 3.828 12.324,3.734 12.904,3.574 13.557 C 3.350 14.474,2.971 15.339,2.549 15.895 C 2.149 16.423,2.081 16.528,2.036 16.693 C 1.944 17.037,2.068 17.436,2.342 17.677 C 2.505 17.819,3.456 18.293,4.140 18.572 C 5.084 18.957,6.246 19.301,7.417 19.540 L 8.054 19.670 8.128 19.982 C 8.320 20.795,8.880 21.643,9.568 22.161 C 11.420 23.557,14.028 23.133,15.317 21.227 C 15.525 20.920,15.792 20.321,15.872 19.982 L 15.946 19.670 16.583 19.540 C 17.754 19.301,18.916 18.957,19.860 18.572 C 20.544 18.293,21.495 17.819,21.658 17.677 C 21.932 17.436,22.056 17.037,21.964 16.693 C 21.919 16.528,21.851 16.423,21.451 15.895 C 21.029 15.339,20.650 14.474,20.426 13.557 C 20.267 12.908,20.176 12.345,19.999 10.930 C 19.741 8.858,19.575 7.984,19.277 7.135 C 18.511 4.952,16.888 3.643,14.400 3.203 L 14.020 3.135 13.994 2.870 C 13.938 2.310,13.729 1.882,13.332 1.513 C 12.857 1.073,12.121 0.892,11.491 1.062 M13.740 5.115 C 15.074 5.323,15.891 5.685,16.522 6.345 C 17.353 7.214,17.655 8.171,17.999 11.020 C 18.331 13.766,18.645 15.021,19.302 16.226 L 19.482 16.557 19.371 16.613 C 19.203 16.699,18.311 17.022,17.860 17.161 C 14.246 18.271,9.865 18.279,6.200 17.181 C 5.781 17.056,5.013 16.782,4.728 16.656 L 4.516 16.563 4.716 16.191 C 4.956 15.744,5.232 15.050,5.395 14.479 C 5.638 13.632,5.787 12.769,6.021 10.864 C 6.254 8.969,6.451 8.077,6.799 7.333 C 6.995 6.915,7.151 6.687,7.478 6.345 C 8.207 5.583,9.267 5.185,11.000 5.025 C 11.099 5.016,11.639 5.014,12.200 5.021 C 12.979 5.031,13.343 5.053,13.740 5.115 M11.664 8.063 C 11.436 8.146,11.257 8.297,11.131 8.511 L 11.020 8.700 11.008 9.850 L 10.995 11.000 9.923 11.000 C 8.764 11.000,8.642 11.018,8.374 11.222 C 8.301 11.277,8.192 11.408,8.131 11.511 C 8.036 11.672,8.020 11.744,8.020 12.000 C 8.020 12.256,8.036 12.328,8.131 12.489 C 8.192 12.592,8.301 12.723,8.374 12.778 C 8.642 12.983,8.764 13.000,9.925 13.000 L 11.000 13.000 11.000 14.070 C 11.000 14.684,11.018 15.204,11.042 15.289 C 11.103 15.509,11.315 15.762,11.531 15.874 C 11.932 16.080,12.390 16.012,12.700 15.702 C 12.979 15.423,13.000 15.309,13.000 14.073 L 13.000 13.000 14.073 13.000 C 15.308 13.000,15.423 12.979,15.701 12.701 C 16.092 12.310,16.092 11.690,15.701 11.299 C 15.423 11.021,15.308 11.000,14.073 11.000 L 13.000 11.000 13.000 9.927 C 13.000 8.692,12.979 8.577,12.701 8.299 C 12.429 8.027,12.018 7.933,11.664 8.063 M11.497 19.984 C 12.049 19.997,12.779 19.990,13.120 19.968 C 13.461 19.947,13.746 19.935,13.754 19.942 C 13.786 19.971,13.507 20.324,13.317 20.495 C 12.577 21.160,11.423 21.160,10.683 20.495 C 10.494 20.326,10.240 20.005,10.240 19.938 C 10.240 19.923,10.297 19.921,10.367 19.935 C 10.436 19.949,10.945 19.971,11.497 19.984 " fill="#000640" stroke="none" fill-rule="evenodd"></path></svg>