<svg xmlns="http://www.w3.org/2000/svg" width="24" height="24" fill="currentColor" class="mmi mmi-bell-deduct" viewBox="0 0 24 24"><path d="M11.491 1.062 C 11.160 1.151,10.882 1.311,10.616 1.567 C 10.241 1.927,10.062 2.311,10.006 2.878 L 9.980 3.135 9.600 3.203 C 7.393 3.598,5.853 4.678,5.022 6.416 C 4.528 7.447,4.316 8.383,4.002 10.921 C 3.828 12.324,3.734 12.904,3.574 13.557 C 3.350 14.474,2.971 15.339,2.549 15.895 C 2.149 16.423,2.081 16.528,2.036 16.693 C 1.944 17.037,2.068 17.436,2.342 17.677 C 2.505 17.819,3.456 18.293,4.140 18.572 C 5.094 18.962,6.235 19.298,7.417 19.540 L 8.054 19.670 8.124 19.965 C 8.346 20.901,8.984 21.798,9.807 22.335 C 10.525 22.803,11.119 22.977,12.000 22.977 C 12.881 22.977,13.475 22.803,14.193 22.335 C 15.009 21.803,15.657 20.892,15.875 19.970 L 15.946 19.670 16.583 19.540 C 17.765 19.298,18.906 18.962,19.860 18.572 C 20.544 18.293,21.495 17.819,21.658 17.677 C 21.932 17.436,22.056 17.037,21.964 16.693 C 21.919 16.528,21.851 16.423,21.451 15.895 C 21.029 15.339,20.650 14.474,20.426 13.557 C 20.267 12.908,20.176 12.345,19.999 10.930 C 19.741 8.858,19.575 7.984,19.277 7.135 C 18.511 4.952,16.888 3.643,14.400 3.203 L 14.020 3.135 13.994 2.870 C 13.938 2.310,13.729 1.882,13.332 1.513 C 12.857 1.073,12.121 0.892,11.491 1.062 M13.740 5.115 C 15.074 5.323,15.891 5.685,16.522 6.345 C 16.932 6.774,17.157 7.146,17.378 7.760 C 17.638 8.483,17.771 9.193,18.018 11.160 C 18.357 13.860,18.656 15.040,19.302 16.225 C 19.516 16.618,19.575 16.550,18.743 16.859 C 16.723 17.608,14.409 18.000,12.000 18.000 C 9.591 18.000,7.277 17.608,5.257 16.859 C 4.423 16.550,4.483 16.624,4.717 16.188 C 4.956 15.744,5.232 15.049,5.395 14.479 C 5.638 13.632,5.787 12.769,6.021 10.864 C 6.254 8.969,6.451 8.077,6.799 7.333 C 6.995 6.915,7.151 6.687,7.478 6.345 C 8.207 5.583,9.267 5.185,11.000 5.025 C 11.099 5.016,11.639 5.014,12.200 5.021 C 12.979 5.031,13.343 5.053,13.740 5.115 M8.664 11.063 C 8.436 11.146,8.257 11.297,8.131 11.511 C 8.036 11.672,8.020 11.744,8.020 12.000 C 8.020 12.256,8.036 12.328,8.131 12.489 C 8.192 12.592,8.301 12.723,8.374 12.778 C 8.672 13.006,8.578 13.000,11.998 13.000 C 15.545 13.000,15.390 13.013,15.701 12.701 C 16.092 12.310,16.092 11.690,15.701 11.299 C 15.389 10.987,15.547 11.000,11.983 11.003 C 9.342 11.005,8.794 11.015,8.664 11.063 M11.480 19.983 C 12.063 19.996,12.810 19.990,13.140 19.969 C 13.470 19.949,13.746 19.937,13.754 19.943 C 13.787 19.970,13.506 20.325,13.317 20.495 C 12.578 21.160,11.422 21.159,10.681 20.493 C 10.495 20.326,10.240 20.005,10.240 19.938 C 10.240 19.923,10.280 19.922,10.330 19.935 C 10.380 19.948,10.897 19.970,11.480 19.983 " fill="#000640" stroke="none" fill-rule="evenodd"></path></svg>