<svg xmlns="http://www.w3.org/2000/svg" width="24" height="24" fill="currentColor" class="mmi mmi-bell-disable" viewBox="0 0 24 24"><path d="M11.491 1.062 C 10.844 1.236,10.286 1.771,10.080 2.414 C 10.053 2.499,10.020 2.696,10.006 2.852 L 9.980 3.135 9.578 3.206 C 7.101 3.643,5.473 4.972,4.707 7.183 C 4.410 8.042,4.245 8.905,3.999 10.898 C 3.698 13.335,3.478 14.231,2.909 15.327 C 2.673 15.784,2.635 16.005,2.741 16.322 C 2.991 17.074,4.012 17.229,4.487 16.587 C 4.669 16.341,5.050 15.528,5.235 14.990 C 5.572 14.010,5.749 13.105,6.002 11.060 C 6.193 9.510,6.279 8.983,6.440 8.366 C 6.822 6.906,7.480 6.066,8.644 5.552 C 9.488 5.179,10.476 5.024,12.000 5.025 C 13.151 5.025,13.712 5.079,14.473 5.261 C 14.960 5.378,15.081 5.382,15.340 5.294 C 15.908 5.100,16.168 4.382,15.860 3.856 C 15.661 3.517,15.326 3.367,14.400 3.203 L 14.020 3.136 13.996 2.878 C 13.946 2.341,13.787 1.984,13.433 1.616 C 12.932 1.094,12.173 0.878,11.491 1.062 M20.600 2.083 C 20.341 2.199,2.284 20.245,2.132 20.539 C 1.929 20.934,2.021 21.434,2.350 21.723 C 2.552 21.901,2.741 21.970,3.025 21.970 C 3.428 21.970,3.527 21.893,4.917 20.503 L 6.169 19.251 6.534 19.344 C 6.735 19.396,7.134 19.485,7.420 19.541 C 7.706 19.598,7.967 19.653,8.000 19.662 C 8.039 19.673,8.086 19.793,8.131 19.990 C 8.271 20.602,8.687 21.333,9.177 21.823 C 9.675 22.321,10.376 22.716,11.062 22.887 C 11.580 23.015,12.433 23.014,12.940 22.885 C 13.359 22.777,13.922 22.523,14.285 22.277 C 14.611 22.055,15.055 21.611,15.277 21.285 C 15.523 20.922,15.786 20.346,15.872 19.982 L 15.946 19.670 16.583 19.540 C 17.765 19.298,18.906 18.962,19.860 18.572 C 20.544 18.293,21.495 17.819,21.658 17.677 C 21.932 17.436,22.056 17.037,21.964 16.693 C 21.919 16.527,21.845 16.413,21.450 15.895 C 21.034 15.351,20.649 14.473,20.426 13.557 C 20.266 12.904,20.177 12.352,19.982 10.812 C 19.883 10.024,19.764 9.164,19.719 8.900 C 19.571 8.050,19.338 7.218,19.096 6.679 L 18.987 6.435 20.411 5.007 C 21.939 3.477,21.998 3.403,21.999 3.020 C 22.000 2.692,21.932 2.527,21.703 2.297 C 21.396 1.991,20.984 1.910,20.600 2.083 M17.480 8.018 C 17.480 8.029,17.524 8.213,17.578 8.428 C 17.731 9.035,17.826 9.621,18.001 11.035 C 18.226 12.843,18.296 13.265,18.520 14.162 C 18.685 14.818,18.928 15.478,19.219 16.059 C 19.514 16.649,19.573 16.551,18.743 16.859 C 15.659 18.003,11.732 18.310,8.282 17.677 C 8.053 17.635,7.855 17.600,7.842 17.600 C 7.830 17.600,9.980 15.440,12.620 12.800 C 15.260 10.160,17.433 8.000,17.450 8.000 C 17.466 8.000,17.480 8.008,17.480 8.018 M11.497 19.984 C 12.049 19.997,12.779 19.990,13.120 19.968 C 13.461 19.947,13.746 19.935,13.754 19.942 C 13.786 19.971,13.508 20.323,13.319 20.493 C 12.578 21.159,11.422 21.160,10.683 20.495 C 10.494 20.326,10.240 20.005,10.240 19.938 C 10.240 19.923,10.297 19.921,10.367 19.935 C 10.436 19.949,10.945 19.971,11.497 19.984 " fill="#000640" stroke="none" fill-rule="evenodd"></path></svg>