<svg xmlns="http://www.w3.org/2000/svg" width="24" height="24" fill="currentColor" class="mmi mmi-bell-warning" viewBox="0 0 24 24"><path d="M11.491 1.062 C 11.160 1.151,10.882 1.311,10.616 1.567 C 10.241 1.927,10.062 2.311,10.006 2.878 L 9.980 3.135 9.600 3.203 C 7.393 3.598,5.851 4.680,5.022 6.416 C 4.529 7.446,4.317 8.385,4.001 10.930 C 3.768 12.795,3.618 13.567,3.319 14.420 C 3.153 14.894,2.809 15.552,2.549 15.895 C 2.149 16.423,2.081 16.528,2.036 16.693 C 1.944 17.037,2.068 17.436,2.342 17.677 C 2.505 17.819,3.456 18.293,4.140 18.572 C 5.094 18.962,6.235 19.298,7.417 19.540 L 8.054 19.670 8.122 19.956 C 8.288 20.662,8.742 21.440,9.272 21.924 C 9.751 22.362,10.440 22.732,11.062 22.887 C 11.571 23.013,12.429 23.013,12.938 22.887 C 13.346 22.785,13.912 22.530,14.285 22.278 C 14.611 22.058,15.058 21.611,15.278 21.285 C 15.524 20.920,15.787 20.344,15.872 19.982 L 15.946 19.670 16.583 19.540 C 17.765 19.298,18.906 18.962,19.860 18.572 C 20.544 18.293,21.495 17.819,21.658 17.677 C 21.932 17.436,22.056 17.037,21.964 16.693 C 21.919 16.528,21.851 16.423,21.451 15.895 C 21.029 15.339,20.650 14.474,20.426 13.557 C 20.267 12.908,20.176 12.345,19.999 10.930 C 19.909 10.209,19.791 9.350,19.736 9.020 C 19.412 7.082,18.872 5.868,17.902 4.898 C 17.015 4.010,15.903 3.472,14.400 3.203 L 14.020 3.135 13.994 2.878 C 13.939 2.327,13.787 1.984,13.433 1.616 C 12.932 1.094,12.173 0.878,11.491 1.062 M13.740 5.115 C 15.074 5.323,15.891 5.685,16.522 6.345 C 16.932 6.774,17.157 7.146,17.378 7.760 C 17.638 8.483,17.771 9.193,18.018 11.160 C 18.357 13.860,18.656 15.040,19.302 16.225 C 19.516 16.618,19.575 16.550,18.743 16.859 C 16.723 17.608,14.409 18.000,12.000 18.000 C 9.591 18.000,7.277 17.608,5.257 16.859 C 4.423 16.550,4.483 16.624,4.717 16.188 C 4.956 15.744,5.232 15.049,5.395 14.479 C 5.638 13.632,5.787 12.769,6.021 10.864 C 6.254 8.969,6.451 8.077,6.799 7.333 C 6.995 6.915,7.151 6.687,7.478 6.345 C 8.207 5.583,9.267 5.185,11.000 5.025 C 11.099 5.016,11.639 5.014,12.200 5.021 C 12.979 5.031,13.343 5.053,13.740 5.115 M11.320 7.036 C 11.005 7.137,10.729 7.398,10.646 7.674 C 10.577 7.907,10.585 8.069,10.783 10.433 C 10.912 11.978,10.983 12.648,11.025 12.729 C 11.147 12.966,11.269 13.000,12.000 13.000 C 12.731 13.000,12.853 12.966,12.975 12.729 C 13.017 12.648,13.088 11.978,13.217 10.433 C 13.415 8.069,13.423 7.907,13.354 7.674 C 13.293 7.473,13.075 7.220,12.866 7.109 C 12.717 7.030,12.633 7.020,12.060 7.012 C 11.708 7.007,11.375 7.018,11.320 7.036 M11.601 14.064 C 11.044 14.214,10.632 14.671,10.523 15.260 C 10.405 15.900,10.776 16.583,11.400 16.873 C 11.587 16.961,11.676 16.976,12.000 16.976 C 12.324 16.976,12.413 16.961,12.600 16.873 C 13.224 16.583,13.595 15.900,13.477 15.260 C 13.366 14.662,12.954 14.211,12.381 14.062 C 12.091 13.986,11.888 13.987,11.601 14.064 M11.480 19.983 C 12.063 19.996,12.810 19.990,13.140 19.969 C 13.470 19.949,13.746 19.937,13.754 19.943 C 13.787 19.970,13.506 20.325,13.317 20.495 C 12.578 21.160,11.422 21.159,10.681 20.493 C 10.495 20.326,10.240 20.005,10.240 19.938 C 10.240 19.923,10.280 19.922,10.330 19.935 C 10.380 19.948,10.897 19.970,11.480 19.983 " fill="#000640" stroke="none" fill-rule="evenodd"></path></svg>