<svg xmlns="http://www.w3.org/2000/svg" width="24" height="24" fill="currentColor" class="mmi mmi-bendarrow-rightup" viewBox="0 0 24 24"><path d="M14.640 3.068 C 14.485 3.121,14.095 3.494,11.829 5.755 C 10.087 7.493,9.172 8.434,9.121 8.540 C 9.000 8.790,8.982 8.999,9.060 9.265 C 9.151 9.581,9.410 9.844,9.717 9.936 C 9.987 10.016,10.052 10.016,10.323 9.936 C 10.531 9.876,10.614 9.799,12.270 8.147 L 14.000 6.422 14.000 9.401 C 13.999 11.079,13.981 12.590,13.958 12.860 C 13.791 14.836,13.122 16.387,11.965 17.489 C 11.221 18.197,10.371 18.635,9.255 18.885 C 8.877 18.969,8.750 18.974,6.299 18.997 L 3.738 19.020 3.539 19.122 C 2.747 19.530,2.870 20.716,3.730 20.957 C 3.861 20.994,4.526 21.002,6.442 20.989 C 8.814 20.973,9.009 20.966,9.420 20.887 C 10.790 20.626,11.906 20.127,12.897 19.334 C 14.331 18.186,15.317 16.498,15.755 14.438 C 15.970 13.432,15.973 13.373,15.989 9.783 L 16.005 6.427 17.732 8.150 C 19.386 9.799,19.469 9.876,19.677 9.936 C 19.948 10.016,20.013 10.016,20.283 9.936 C 20.590 9.844,20.849 9.581,20.940 9.265 C 21.018 8.999,21.000 8.790,20.879 8.540 C 20.828 8.434,19.913 7.493,18.171 5.755 C 15.781 3.371,15.522 3.124,15.343 3.065 C 15.102 2.986,14.878 2.986,14.640 3.068 " fill="#000640" stroke="none" fill-rule="evenodd"></path></svg>