<svg xmlns="http://www.w3.org/2000/svg" width="24" height="24" fill="currentColor" class="mmi mmi-bendarrow-leftup" viewBox="0 0 24 24"><path d="M8.640 3.068 C 8.485 3.121,8.095 3.494,5.829 5.755 C 4.087 7.493,3.172 8.434,3.121 8.540 C 3.000 8.790,2.982 8.999,3.060 9.265 C 3.151 9.581,3.410 9.844,3.717 9.936 C 3.987 10.016,4.052 10.016,4.323 9.936 C 4.531 9.876,4.614 9.799,6.270 8.147 L 8.000 6.422 8.000 9.501 C 8.000 12.642,8.017 13.104,8.162 13.978 C 8.725 17.376,10.776 19.852,13.717 20.684 C 14.719 20.967,14.754 20.970,17.571 20.989 C 20.466 21.008,20.387 21.015,20.700 20.702 C 21.180 20.222,21.052 19.410,20.450 19.114 L 20.260 19.020 17.700 18.997 C 15.244 18.974,15.124 18.970,14.740 18.884 C 12.532 18.391,11.017 16.919,10.353 14.620 C 10.037 13.528,10.001 12.990,10.000 9.401 L 10.000 6.422 11.730 8.147 C 13.386 9.799,13.469 9.876,13.677 9.936 C 13.948 10.016,14.013 10.016,14.283 9.936 C 14.590 9.844,14.849 9.581,14.940 9.265 C 15.018 8.999,15.000 8.790,14.879 8.540 C 14.828 8.434,13.913 7.493,12.171 5.755 C 9.781 3.371,9.522 3.124,9.343 3.065 C 9.102 2.986,8.878 2.986,8.640 3.068 " fill="#000640" stroke="none" fill-rule="evenodd"></path></svg>