<svg xmlns="http://www.w3.org/2000/svg" width="24" height="24" fill="currentColor" class="mmi mmi-bendarrow-leftdown" viewBox="0 0 24 24"><path d="M15.180 3.043 C 12.921 3.274,11.070 4.307,9.770 6.060 C 8.796 7.374,8.215 9.022,8.041 10.960 C 8.018 11.227,8.000 12.715,8.000 14.499 L 8.000 17.579 6.290 15.871 C 4.458 14.042,4.410 14.002,4.020 14.001 C 3.722 14.000,3.551 14.062,3.339 14.249 C 3.097 14.462,3.002 14.669,3.001 14.982 C 2.999 15.429,2.954 15.377,5.829 18.245 C 8.219 20.629,8.478 20.876,8.657 20.935 C 8.906 21.017,9.094 21.017,9.343 20.935 C 9.522 20.876,9.781 20.629,12.171 18.245 C 13.913 16.507,14.828 15.566,14.879 15.460 C 15.125 14.951,14.919 14.362,14.410 14.115 C 14.160 13.994,13.805 13.996,13.558 14.119 C 13.436 14.180,12.854 14.732,11.690 15.894 L 10.000 17.580 10.000 14.600 C 10.001 12.922,10.019 11.410,10.042 11.140 C 10.205 9.217,10.818 7.744,11.918 6.634 C 12.714 5.832,13.607 5.359,14.791 5.114 C 15.200 5.029,15.338 5.024,17.740 5.002 L 20.260 4.980 20.450 4.886 C 21.051 4.590,21.180 3.778,20.701 3.299 C 20.396 2.994,20.449 2.999,17.823 3.005 C 16.545 3.008,15.356 3.025,15.180 3.043 " fill="#000640" stroke="none" fill-rule="evenodd"></path></svg>