<svg xmlns="http://www.w3.org/2000/svg" width="24" height="24" fill="currentColor" class="mmi mmi-bendarrow-downright" viewBox="0 0 24 24"><path d="M3.664 3.063 C 3.436 3.146,3.257 3.297,3.131 3.511 L 3.020 3.700 3.008 6.520 C 3.000 8.411,3.011 9.472,3.041 9.740 C 3.368 12.665,5.427 15.043,8.274 15.783 C 9.086 15.994,9.242 16.000,13.571 16.000 L 17.578 16.000 15.853 17.730 C 14.201 19.386,14.124 19.469,14.064 19.677 C 13.984 19.948,13.984 20.013,14.064 20.283 C 14.156 20.590,14.419 20.849,14.735 20.940 C 15.001 21.018,15.210 21.000,15.460 20.879 C 15.566 20.828,16.507 19.913,18.245 18.171 C 20.629 15.781,20.876 15.522,20.935 15.343 C 21.017 15.094,21.017 14.906,20.935 14.657 C 20.876 14.478,20.629 14.219,18.245 11.829 C 15.421 8.998,15.423 9.000,15.022 9.000 C 14.721 9.001,14.551 9.062,14.339 9.249 C 14.097 9.462,14.002 9.669,14.002 9.980 C 14.002 10.416,14.010 10.426,15.872 12.291 L 17.580 14.002 13.420 13.989 C 9.684 13.976,9.232 13.968,8.987 13.907 C 7.979 13.659,7.237 13.262,6.550 12.606 C 5.728 11.820,5.180 10.728,5.042 9.601 C 5.017 9.397,5.000 8.184,5.000 6.558 C 5.000 3.508,5.009 3.607,4.701 3.299 C 4.429 3.027,4.018 2.933,3.664 3.063 " fill="#000640" stroke="none" fill-rule="evenodd"></path></svg>