<svg xmlns="http://www.w3.org/2000/svg" width="24" height="24" fill="currentColor" class="mmi mmi-bendarrow-rightdown" viewBox="0 0 24 24"><path d="M3.664 3.063 C 3.303 3.195,3.051 3.514,3.013 3.888 C 2.970 4.307,3.174 4.690,3.539 4.878 L 3.738 4.980 6.259 5.002 C 8.662 5.024,8.800 5.029,9.209 5.114 C 10.391 5.359,11.280 5.829,12.082 6.636 C 13.179 7.738,13.795 9.216,13.958 11.140 C 13.981 11.410,13.999 12.922,14.000 14.599 L 14.000 17.579 12.310 15.893 C 11.151 14.738,10.564 14.180,10.442 14.119 C 10.195 13.996,9.840 13.994,9.590 14.115 C 9.081 14.362,8.875 14.951,9.121 15.460 C 9.172 15.566,10.087 16.507,11.829 18.245 C 14.219 20.629,14.478 20.876,14.657 20.935 C 14.906 21.017,15.094 21.017,15.343 20.935 C 15.522 20.876,15.781 20.629,18.171 18.245 C 19.913 16.507,20.828 15.566,20.879 15.460 C 21.125 14.951,20.919 14.362,20.410 14.115 C 20.160 13.994,19.805 13.996,19.558 14.119 C 19.436 14.180,18.855 14.732,17.692 15.891 L 16.005 17.575 15.989 14.218 C 15.976 11.308,15.965 10.799,15.905 10.402 C 15.571 8.162,14.789 6.492,13.463 5.180 C 12.198 3.929,10.656 3.227,8.766 3.041 C 8.535 3.018,7.350 3.001,6.086 3.003 C 4.224 3.005,3.792 3.016,3.664 3.063 " fill="#000640" stroke="none" fill-rule="evenodd"></path></svg>