<svg xmlns="http://www.w3.org/2000/svg" width="24" height="24" fill="currentColor" class="mmi mmi-bendarrow-upleft" viewBox="0 0 24 24"><path d="M8.800 3.037 C 8.723 3.053,8.588 3.104,8.500 3.150 C 8.404 3.201,7.301 4.276,5.735 5.847 C 3.370 8.219,3.124 8.478,3.065 8.657 C 2.983 8.906,2.983 9.094,3.065 9.343 C 3.124 9.522,3.371 9.781,5.755 12.171 C 7.493 13.913,8.434 14.828,8.540 14.879 C 8.790 15.000,8.999 15.018,9.265 14.940 C 9.581 14.849,9.844 14.590,9.936 14.283 C 10.016 14.013,10.016 13.948,9.936 13.677 C 9.876 13.469,9.799 13.386,8.147 11.730 L 6.422 10.000 9.401 10.000 C 11.079 10.001,12.590 10.019,12.860 10.042 C 14.784 10.205,16.262 10.821,17.364 11.918 C 18.164 12.714,18.634 13.597,18.886 14.782 C 18.966 15.155,18.972 15.338,18.995 17.740 L 19.020 20.300 19.131 20.489 C 19.470 21.065,20.234 21.168,20.702 20.700 C 21.015 20.387,21.008 20.466,20.989 17.571 C 20.970 14.754,20.967 14.719,20.684 13.717 C 19.893 10.920,17.552 8.875,14.420 8.244 C 13.362 8.031,13.323 8.029,9.764 8.011 L 6.428 7.994 8.150 6.267 C 9.799 4.614,9.876 4.531,9.936 4.323 C 10.015 4.053,10.016 3.987,9.938 3.725 C 9.797 3.252,9.277 2.937,8.800 3.037 " fill="#000640" stroke="none" fill-rule="evenodd"></path></svg>