<svg xmlns="http://www.w3.org/2000/svg" width="24" height="24" fill="currentColor" class="mmi mmi-bendarrow-downleft" viewBox="0 0 24 24"><path d="M19.664 3.063 C 19.436 3.146,19.257 3.297,19.131 3.511 L 19.020 3.700 18.997 6.700 C 18.971 9.955,18.977 9.870,18.737 10.591 C 18.254 12.041,17.043 13.252,15.593 13.737 C 14.844 13.988,15.127 13.973,10.580 13.989 L 6.420 14.003 8.146 12.271 C 9.799 10.614,9.876 10.531,9.936 10.323 C 10.015 10.053,10.016 9.987,9.938 9.725 C 9.764 9.141,9.083 8.852,8.539 9.132 C 8.389 9.209,7.695 9.882,5.735 11.847 C 3.370 14.219,3.124 14.478,3.065 14.657 C 2.983 14.906,2.983 15.094,3.065 15.343 C 3.124 15.522,3.371 15.781,5.755 18.171 C 7.493 19.913,8.434 20.828,8.540 20.879 C 8.790 21.000,8.999 21.018,9.265 20.940 C 9.581 20.849,9.844 20.590,9.936 20.283 C 10.016 20.013,10.016 19.948,9.936 19.677 C 9.876 19.469,9.799 19.386,8.147 17.730 L 6.422 16.000 10.429 16.000 C 14.758 16.000,14.914 15.994,15.726 15.783 C 18.520 15.057,20.566 12.745,20.940 9.894 C 20.988 9.525,21.000 8.896,21.000 6.645 C 21.000 3.497,21.010 3.608,20.701 3.299 C 20.429 3.027,20.018 2.933,19.664 3.063 " fill="#000640" stroke="none" fill-rule="evenodd"></path></svg>