<svg xmlns="http://www.w3.org/2000/svg" width="24" height="24" fill="currentColor" class="mmi mmi-bendarrow-upright" viewBox="0 0 24 24"><path d="M14.656 3.043 C 14.480 3.094,14.162 3.388,14.075 3.578 C 13.975 3.799,13.978 4.168,14.083 4.400 C 14.144 4.535,14.587 5.004,15.868 6.287 L 17.573 7.994 14.237 8.011 C 10.676 8.029,10.637 8.031,9.580 8.244 C 6.445 8.876,4.107 10.919,3.316 13.717 C 3.033 14.719,3.030 14.755,3.011 17.565 C 2.999 19.339,3.008 20.160,3.038 20.273 C 3.101 20.506,3.309 20.759,3.531 20.874 C 4.036 21.134,4.643 20.944,4.886 20.450 L 4.980 20.260 5.003 17.740 C 5.023 15.640,5.037 15.165,5.092 14.888 C 5.334 13.657,5.815 12.730,6.634 11.918 C 7.744 10.818,9.217 10.205,11.140 10.042 C 11.410 10.019,12.921 10.001,14.599 10.000 L 17.578 10.000 15.853 11.730 C 14.201 13.386,14.124 13.469,14.064 13.677 C 13.984 13.948,13.984 14.013,14.064 14.283 C 14.156 14.590,14.419 14.849,14.735 14.940 C 15.001 15.018,15.210 15.000,15.460 14.879 C 15.566 14.828,16.507 13.913,18.245 12.171 C 20.629 9.781,20.876 9.522,20.935 9.343 C 20.971 9.234,21.000 9.080,21.000 9.000 C 21.000 8.920,20.971 8.766,20.935 8.657 C 20.876 8.478,20.629 8.219,18.245 5.829 C 16.234 3.813,15.574 3.175,15.422 3.099 C 15.212 2.994,14.903 2.972,14.656 3.043 " fill="#000640" stroke="none" fill-rule="evenodd"></path></svg>