<svg xmlns="http://www.w3.org/2000/svg" width="24" height="24" fill="currentColor" class="mmi mmi-bicycle-rider" viewBox="0 0 24 24"><path d="M16.580 1.047 C 15.859 1.185,15.199 1.848,15.044 2.592 C 14.789 3.816,15.751 5.000,17.000 5.000 C 18.080 5.000,19.000 4.080,19.000 3.000 C 19.000 2.477,18.790 1.983,18.404 1.596 C 17.913 1.106,17.277 0.914,16.580 1.047 M13.220 4.138 C 10.120 4.821,8.330 5.717,5.810 7.847 C 5.110 8.438,5.020 8.570,5.020 9.001 C 5.020 9.203,5.043 9.307,5.122 9.461 C 5.313 9.831,5.301 9.826,8.276 10.819 L 11.000 11.727 11.000 13.436 C 11.000 15.378,11.004 15.406,11.299 15.701 C 11.691 16.093,12.310 16.092,12.702 15.700 C 13.007 15.395,13.003 15.429,12.991 12.936 L 12.980 10.738 12.880 10.543 C 12.690 10.174,12.679 10.169,10.252 9.358 L 8.030 8.615 8.385 8.352 C 9.446 7.566,10.452 7.034,11.640 6.631 C 12.074 6.484,13.246 6.161,13.346 6.160 C 13.371 6.160,13.785 7.145,14.266 8.350 C 15.081 10.393,15.151 10.551,15.310 10.706 C 15.614 11.004,15.581 11.000,18.000 11.000 C 20.427 11.000,20.399 11.003,20.701 10.701 C 21.180 10.222,21.051 9.410,20.450 9.114 C 20.261 9.021,20.247 9.020,18.464 9.000 L 16.668 8.980 15.768 6.722 C 14.918 4.591,14.858 4.456,14.694 4.296 C 14.502 4.109,14.233 3.998,13.983 4.003 C 13.893 4.005,13.550 4.065,13.220 4.138 M5.340 13.046 C 4.642 13.135,3.813 13.452,3.192 13.868 C 2.805 14.127,2.289 14.622,1.994 15.016 C 1.683 15.433,1.309 16.196,1.180 16.680 C 0.864 17.865,0.982 19.089,1.517 20.180 C 2.038 21.243,2.814 22.007,3.896 22.524 C 5.462 23.271,7.333 23.118,8.824 22.119 C 9.229 21.848,9.848 21.229,10.119 20.824 C 11.283 19.085,11.283 16.915,10.119 15.176 C 9.848 14.771,9.229 14.152,8.824 13.881 C 7.782 13.183,6.560 12.890,5.340 13.046 M17.340 13.046 C 16.642 13.135,15.813 13.452,15.192 13.868 C 14.805 14.127,14.289 14.622,13.994 15.016 C 13.683 15.433,13.309 16.196,13.180 16.680 C 12.864 17.865,12.982 19.089,13.517 20.180 C 14.038 21.243,14.814 22.007,15.896 22.524 C 17.462 23.271,19.333 23.118,20.824 22.119 C 21.229 21.848,21.848 21.229,22.119 20.824 C 23.283 19.085,23.283 16.915,22.119 15.176 C 21.848 14.771,21.229 14.152,20.824 13.881 C 19.782 13.183,18.560 12.890,17.340 13.046 M6.581 15.062 C 7.182 15.186,7.669 15.445,8.096 15.868 C 9.290 17.052,9.299 18.931,8.115 20.115 C 7.251 20.978,5.989 21.230,4.849 20.766 C 4.143 20.479,3.521 19.857,3.234 19.151 C 2.431 17.178,3.851 15.025,5.972 15.003 C 6.143 15.001,6.417 15.028,6.581 15.062 M18.581 15.062 C 19.182 15.186,19.669 15.445,20.096 15.868 C 21.290 17.052,21.299 18.931,20.115 20.115 C 19.251 20.978,17.989 21.230,16.849 20.766 C 16.143 20.479,15.521 19.857,15.234 19.151 C 14.431 17.178,15.851 15.025,17.972 15.003 C 18.143 15.001,18.417 15.028,18.581 15.062 " fill="#000640" stroke="none" fill-rule="evenodd"></path></svg>