<svg xmlns="http://www.w3.org/2000/svg" width="24" height="24" fill="currentColor" class="mmi mmi-bicycle-deliveryrider" viewBox="0 0 24 24"><path d="M9.073 1.018 C 8.214 1.197,7.080 1.852,6.315 2.610 C 5.048 3.866,4.716 5.047,5.247 6.400 C 5.381 6.740,5.616 7.159,5.849 7.473 C 5.936 7.590,6.001 7.690,5.994 7.695 C 5.986 7.700,5.805 7.853,5.591 8.036 C 5.116 8.444,5.020 8.608,5.020 9.020 C 5.020 9.255,5.038 9.331,5.133 9.492 C 5.195 9.597,5.317 9.736,5.405 9.799 C 5.521 9.883,6.322 10.167,8.283 10.821 L 11.000 11.727 11.000 13.433 C 11.000 14.486,11.016 15.197,11.042 15.289 C 11.103 15.509,11.315 15.762,11.531 15.874 C 11.932 16.080,12.390 16.012,12.701 15.701 C 13.007 15.395,13.003 15.430,12.991 12.936 L 12.980 10.738 12.880 10.543 C 12.690 10.174,12.679 10.169,10.251 9.358 L 8.028 8.615 8.393 8.348 C 9.461 7.563,10.503 7.016,11.680 6.619 C 12.197 6.444,13.349 6.136,13.377 6.164 C 13.385 6.173,13.785 7.160,14.264 8.358 C 15.062 10.354,15.149 10.551,15.300 10.702 C 15.601 11.003,15.574 11.000,18.000 11.000 C 20.427 11.000,20.399 11.003,20.701 10.701 C 21.180 10.222,21.051 9.410,20.450 9.114 C 20.261 9.021,20.246 9.020,18.466 9.000 L 16.672 8.980 15.777 6.742 C 15.205 5.312,14.840 4.453,14.767 4.363 C 14.630 4.194,14.352 4.042,14.124 4.012 C 14.027 3.998,13.771 4.027,13.492 4.081 C 13.175 4.144,13.020 4.160,13.010 4.130 C 13.002 4.106,12.829 3.809,12.625 3.469 C 11.804 2.102,11.102 1.358,10.366 1.076 C 10.079 0.966,9.457 0.938,9.073 1.018 M16.580 1.047 C 16.037 1.151,15.452 1.610,15.207 2.125 C 14.629 3.339,15.374 4.762,16.695 4.967 C 17.782 5.136,18.798 4.392,18.967 3.305 C 19.067 2.663,18.868 2.061,18.404 1.596 C 17.913 1.106,17.277 0.914,16.580 1.047 M9.902 3.126 C 10.127 3.333,10.458 3.771,10.786 4.296 L 11.039 4.700 10.930 4.748 C 10.869 4.774,10.604 4.880,10.340 4.983 C 9.696 5.233,8.720 5.730,8.137 6.104 C 7.875 6.272,7.638 6.418,7.612 6.428 C 7.545 6.454,7.219 5.941,7.098 5.620 C 7.044 5.476,7.000 5.291,7.000 5.209 C 7.000 4.854,7.445 4.227,8.027 3.760 C 8.437 3.432,8.719 3.262,9.133 3.094 C 9.575 2.915,9.677 2.919,9.902 3.126 M5.340 13.046 C 4.642 13.135,3.813 13.452,3.192 13.868 C 2.805 14.127,2.289 14.622,1.994 15.016 C 1.683 15.433,1.309 16.196,1.180 16.680 C 0.864 17.865,0.982 19.089,1.517 20.180 C 2.038 21.243,2.814 22.007,3.896 22.524 C 5.462 23.271,7.333 23.118,8.824 22.119 C 9.229 21.848,9.848 21.229,10.119 20.824 C 11.283 19.085,11.283 16.915,10.119 15.176 C 9.848 14.771,9.229 14.152,8.824 13.881 C 7.782 13.183,6.560 12.890,5.340 13.046 M17.340 13.046 C 16.642 13.135,15.813 13.452,15.192 13.868 C 14.805 14.127,14.289 14.622,13.994 15.016 C 13.683 15.433,13.309 16.196,13.180 16.680 C 12.864 17.865,12.982 19.089,13.517 20.180 C 14.038 21.243,14.814 22.007,15.896 22.524 C 17.462 23.271,19.333 23.118,20.824 22.119 C 21.229 21.848,21.848 21.229,22.119 20.824 C 23.283 19.085,23.283 16.915,22.119 15.176 C 21.848 14.771,21.229 14.152,20.824 13.881 C 19.782 13.183,18.560 12.890,17.340 13.046 M6.581 15.062 C 7.182 15.186,7.669 15.445,8.096 15.868 C 9.290 17.052,9.299 18.931,8.115 20.115 C 7.251 20.978,5.989 21.230,4.849 20.766 C 4.143 20.479,3.521 19.857,3.234 19.151 C 2.431 17.178,3.851 15.025,5.972 15.003 C 6.143 15.001,6.417 15.028,6.581 15.062 M18.581 15.062 C 19.182 15.186,19.669 15.445,20.096 15.868 C 21.290 17.052,21.299 18.931,20.115 20.115 C 19.251 20.978,17.989 21.230,16.849 20.766 C 16.143 20.479,15.521 19.857,15.234 19.151 C 14.431 17.178,15.851 15.025,17.972 15.003 C 18.143 15.001,18.417 15.028,18.581 15.062 " fill="#000640" stroke="none" fill-rule="evenodd"></path></svg>