<svg xmlns="http://www.w3.org/2000/svg" width="24" height="24" fill="currentColor" class="mmi mmi-bikini-onepiece" viewBox="0 0 24 24"><path d="M6.240 1.035 C 6.055 1.096,5.901 1.192,5.775 1.327 C 5.604 1.509,5.565 1.596,5.500 1.935 C 5.429 2.306,5.370 2.453,4.887 3.469 C 4.277 4.751,4.002 5.523,3.857 6.360 C 3.759 6.930,3.794 7.886,3.933 8.413 C 4.045 8.837,4.339 9.489,4.574 9.834 C 4.654 9.952,4.720 10.054,4.720 10.060 C 4.720 10.067,4.609 10.259,4.473 10.486 C 3.874 11.491,3.430 12.647,3.203 13.791 C 3.032 14.652,2.948 15.952,3.042 16.289 C 3.102 16.506,3.314 16.762,3.520 16.867 C 3.619 16.918,3.844 16.984,4.020 17.015 C 4.408 17.082,4.829 17.242,5.440 17.553 C 7.602 18.653,9.273 20.368,10.025 22.259 C 10.161 22.601,10.386 22.840,10.660 22.934 C 10.948 23.032,13.052 23.032,13.340 22.934 C 13.614 22.840,13.839 22.601,13.975 22.259 C 14.645 20.574,16.056 19.015,17.913 17.907 C 18.727 17.422,19.710 17.000,20.029 17.000 C 20.408 17.000,20.815 16.695,20.941 16.318 C 21.074 15.917,20.953 14.418,20.704 13.384 C 20.436 12.272,20.053 11.372,19.331 10.160 C 19.274 10.066,19.279 10.048,19.421 9.840 C 19.658 9.493,19.946 8.856,20.063 8.420 C 20.207 7.884,20.243 6.966,20.143 6.374 C 20.000 5.528,19.731 4.769,19.110 3.460 C 18.622 2.431,18.571 2.304,18.501 1.937 C 18.435 1.592,18.373 1.464,18.193 1.294 C 17.971 1.085,17.811 1.022,17.500 1.022 C 17.291 1.022,17.179 1.044,17.060 1.108 C 16.852 1.219,16.661 1.420,16.575 1.620 C 16.490 1.819,16.491 2.296,16.578 2.580 C 16.612 2.690,16.639 2.794,16.640 2.810 C 16.640 2.827,16.564 2.871,16.470 2.908 C 16.146 3.037,15.450 3.393,15.119 3.598 C 14.051 4.261,13.072 5.205,12.307 6.310 C 12.151 6.535,12.012 6.720,11.998 6.720 C 11.983 6.720,11.885 6.589,11.780 6.430 C 10.795 4.939,9.316 3.663,7.799 2.997 C 7.591 2.905,7.408 2.819,7.393 2.805 C 7.378 2.791,7.392 2.681,7.424 2.560 C 7.508 2.246,7.509 1.816,7.425 1.620 C 7.338 1.419,7.147 1.217,6.943 1.112 C 6.771 1.024,6.399 0.983,6.240 1.035 M6.842 4.761 C 8.637 5.501,10.125 7.102,11.023 9.260 C 11.275 9.866,11.780 10.124,12.340 9.934 C 12.609 9.842,12.834 9.604,12.976 9.260 C 13.310 8.454,13.842 7.548,14.352 6.916 C 14.725 6.453,15.422 5.807,15.897 5.484 C 16.323 5.194,17.218 4.732,17.393 4.711 C 17.477 4.701,17.508 4.750,17.701 5.200 C 18.458 6.965,18.372 8.088,17.393 9.185 C 17.020 9.602,16.922 9.929,17.055 10.307 C 17.086 10.394,17.263 10.688,17.448 10.962 C 18.294 12.211,18.743 13.378,18.924 14.792 C 18.951 15.009,18.956 15.178,18.936 15.196 C 18.916 15.213,18.810 15.259,18.700 15.299 C 17.694 15.663,16.383 16.431,15.340 17.267 C 14.818 17.686,14.008 18.485,13.627 18.960 C 13.251 19.426,12.724 20.228,12.515 20.650 L 12.342 21.000 11.999 21.000 L 11.656 21.000 11.498 20.672 C 11.308 20.277,10.749 19.427,10.374 18.960 C 9.991 18.485,9.182 17.686,8.660 17.267 C 7.617 16.431,6.306 15.663,5.300 15.299 C 5.190 15.259,5.084 15.213,5.065 15.196 C 5.017 15.155,5.101 14.488,5.226 13.925 C 5.443 12.940,5.863 11.989,6.500 11.040 C 6.713 10.721,6.914 10.390,6.944 10.305 C 7.075 9.941,6.978 9.603,6.633 9.213 C 6.324 8.865,6.184 8.660,6.039 8.349 C 5.835 7.912,5.787 7.642,5.812 7.080 C 5.843 6.410,5.986 5.885,6.386 4.986 C 6.470 4.796,6.541 4.640,6.544 4.640 C 6.547 4.640,6.681 4.694,6.842 4.761 " fill="#000640" stroke="none" fill-rule="evenodd"></path></svg>