<svg xmlns="http://www.w3.org/2000/svg" width="24" height="24" fill="currentColor" class="mmi mmi-bikini-twopiece" viewBox="0 0 24 24"><path d="M6.670 1.055 C 6.451 1.136,6.255 1.299,6.145 1.491 C 6.081 1.601,5.877 2.331,5.560 3.580 C 5.155 5.175,5.051 5.537,4.941 5.720 C 4.205 6.946,3.839 8.416,3.996 9.522 C 4.171 10.754,4.865 11.851,5.810 12.392 C 6.446 12.755,7.152 12.920,8.075 12.920 C 9.040 12.920,10.169 12.707,11.280 12.316 C 12.068 12.039,11.968 12.046,12.442 12.231 C 13.149 12.507,14.089 12.761,14.860 12.886 C 15.278 12.953,16.546 12.954,16.860 12.887 C 17.878 12.670,18.629 12.220,19.165 11.506 C 19.926 10.493,20.202 9.220,19.940 7.940 C 19.798 7.247,19.450 6.370,19.058 5.719 C 18.948 5.536,18.843 5.177,18.441 3.608 C 18.175 2.568,17.940 1.672,17.918 1.616 C 17.810 1.330,17.474 1.077,17.129 1.020 C 16.745 0.958,16.287 1.195,16.119 1.543 C 15.948 1.896,15.956 1.959,16.402 3.711 C 16.627 4.597,16.805 5.327,16.796 5.334 C 16.787 5.341,16.393 5.538,15.920 5.772 C 14.560 6.444,13.790 6.968,13.020 7.743 C 12.778 7.987,12.454 8.359,12.300 8.570 C 12.146 8.781,12.009 8.951,11.995 8.947 C 11.982 8.943,11.835 8.760,11.670 8.540 C 10.776 7.351,9.562 6.446,7.708 5.583 C 7.428 5.453,7.200 5.328,7.200 5.306 C 7.200 5.284,7.380 4.558,7.600 3.694 C 7.820 2.830,8.000 2.061,8.000 1.986 C 8.000 1.660,7.793 1.309,7.497 1.136 C 7.277 1.007,6.897 0.970,6.670 1.055 M7.094 7.513 C 8.433 8.161,9.236 8.733,9.861 9.484 C 10.148 9.828,10.581 10.437,10.553 10.456 C 10.530 10.473,9.829 10.675,9.580 10.737 C 8.900 10.906,7.929 10.973,7.454 10.883 C 6.854 10.769,6.466 10.483,6.205 9.961 C 5.866 9.283,5.886 8.513,6.269 7.550 C 6.346 7.357,6.417 7.200,6.428 7.200 C 6.439 7.200,6.739 7.341,7.094 7.513 M17.691 7.430 C 18.090 8.331,18.136 9.208,17.818 9.878 C 17.557 10.426,17.273 10.684,16.740 10.852 C 16.343 10.977,15.410 10.973,14.800 10.844 C 14.355 10.750,13.563 10.531,13.480 10.480 C 13.445 10.458,13.488 10.365,13.633 10.150 C 14.427 8.974,15.215 8.338,16.900 7.514 C 17.252 7.342,17.551 7.201,17.565 7.200 C 17.578 7.200,17.635 7.304,17.691 7.430 M4.664 15.063 C 4.436 15.146,4.257 15.297,4.131 15.511 C 4.036 15.672,4.020 15.744,4.020 16.000 C 4.020 16.256,4.036 16.328,4.131 16.489 C 4.343 16.850,4.411 16.881,5.880 17.303 C 6.628 17.518,6.797 17.581,6.880 17.671 C 6.935 17.732,7.964 18.906,9.167 20.281 C 10.751 22.092,11.402 22.809,11.527 22.880 C 11.665 22.959,11.757 22.979,11.980 22.979 C 12.489 22.980,12.366 23.096,14.917 20.199 C 16.175 18.770,17.235 17.585,17.272 17.565 C 17.310 17.546,17.581 17.463,17.876 17.382 C 18.171 17.300,18.664 17.153,18.971 17.054 C 19.483 16.889,19.546 16.858,19.716 16.687 C 19.924 16.479,20.000 16.284,20.000 15.964 C 20.000 15.581,19.794 15.272,19.420 15.095 C 19.128 14.957,18.941 14.973,18.216 15.196 C 15.421 16.058,13.417 16.372,11.317 16.276 C 9.636 16.199,7.750 15.821,5.530 15.117 C 5.124 14.989,4.903 14.975,4.664 15.063 M11.335 18.279 C 12.009 18.309,13.120 18.280,13.739 18.216 L 14.018 18.187 13.839 18.393 C 12.767 19.624,12.016 20.475,12.000 20.474 C 11.989 20.474,11.532 19.960,10.984 19.331 L 9.987 18.188 10.304 18.217 C 10.478 18.233,10.942 18.261,11.335 18.279 " fill="#000640" stroke="none" fill-rule="evenodd"></path></svg>