<svg xmlns="http://www.w3.org/2000/svg" width="24" height="24" fill="currentColor" class="mmi mmi-bill" viewBox="0 0 24 24"><path d="M3.503 1.042 C 2.554 1.203,1.717 1.847,1.298 2.740 C 1.007 3.361,1.020 3.156,1.020 7.000 C 1.020 10.844,1.007 10.639,1.298 11.260 C 1.606 11.918,2.079 12.391,2.740 12.704 C 3.219 12.931,3.604 13.000,4.383 13.000 L 4.997 13.000 5.010 16.770 C 5.025 20.971,5.004 20.656,5.312 21.296 C 5.614 21.924,6.095 22.398,6.740 22.704 C 7.401 23.017,6.993 23.000,14.000 23.000 C 21.007 23.000,20.599 23.017,21.260 22.704 C 21.920 22.391,22.391 21.920,22.704 21.260 C 23.021 20.591,23.000 21.240,23.000 12.000 C 23.000 2.760,23.021 3.409,22.704 2.740 C 22.398 2.095,21.924 1.614,21.296 1.312 C 20.634 0.993,21.532 1.022,12.120 1.015 C 7.489 1.012,3.611 1.024,3.503 1.042 M4.340 3.066 C 4.455 3.105,4.603 3.201,4.701 3.299 C 5.015 3.613,5.000 3.405,5.000 7.430 L 5.000 11.006 4.369 10.993 C 3.783 10.981,3.723 10.973,3.539 10.878 C 3.312 10.761,3.102 10.509,3.040 10.281 C 3.012 10.176,3.002 9.065,3.009 6.912 L 3.020 3.700 3.131 3.511 C 3.386 3.077,3.860 2.903,4.340 3.066 M20.340 3.066 C 20.593 3.153,20.847 3.407,20.934 3.660 C 20.995 3.838,21.000 4.523,21.000 12.000 C 21.000 21.144,21.026 20.376,20.701 20.701 C 20.379 21.023,20.903 21.000,13.998 21.000 C 7.296 21.000,7.682 21.013,7.374 20.778 C 7.301 20.723,7.192 20.592,7.131 20.489 L 7.020 20.300 7.000 11.880 C 6.981 4.015,6.975 3.447,6.910 3.260 C 6.872 3.150,6.841 3.046,6.840 3.030 C 6.840 3.014,9.834 3.000,13.493 3.000 C 19.580 3.000,20.162 3.006,20.340 3.066 M9.664 5.063 C 9.436 5.146,9.257 5.297,9.131 5.511 C 9.036 5.672,9.020 5.744,9.020 6.000 C 9.020 6.256,9.036 6.328,9.131 6.489 C 9.192 6.592,9.301 6.723,9.374 6.778 C 9.677 7.009,9.484 7.000,13.998 7.000 C 18.663 7.000,18.384 7.018,18.701 6.701 C 19.092 6.310,19.092 5.690,18.701 5.299 C 18.384 4.982,18.666 5.000,13.983 5.003 C 10.474 5.005,9.795 5.015,9.664 5.063 M9.664 9.063 C 9.436 9.146,9.257 9.297,9.131 9.511 C 9.036 9.672,9.020 9.744,9.020 10.000 C 9.020 10.256,9.036 10.328,9.131 10.489 C 9.192 10.592,9.301 10.723,9.374 10.778 C 9.677 11.009,9.484 11.000,13.998 11.000 C 18.663 11.000,18.384 11.018,18.701 10.701 C 19.092 10.310,19.092 9.690,18.701 9.299 C 18.384 8.982,18.666 9.000,13.983 9.003 C 10.474 9.005,9.795 9.015,9.664 9.063 M9.664 13.063 C 9.436 13.146,9.257 13.297,9.131 13.511 C 9.036 13.672,9.020 13.744,9.020 14.000 C 9.020 14.256,9.036 14.328,9.131 14.489 C 9.192 14.592,9.301 14.723,9.374 14.778 C 9.657 14.994,9.715 15.000,11.498 15.000 C 13.371 15.000,13.407 14.995,13.701 14.701 C 14.092 14.310,14.092 13.690,13.701 13.299 C 13.406 13.004,13.373 13.000,11.483 13.003 C 10.145 13.005,9.789 13.017,9.664 13.063 " fill="#000640" stroke="none" fill-rule="evenodd"></path></svg>