<svg xmlns="http://www.w3.org/2000/svg" width="24" height="24" fill="currentColor" class="mmi mmi-birdhouse" viewBox="0 0 24 24"><path d="M11.579 0.917 C 11.272 0.966,10.929 1.075,10.675 1.202 C 10.372 1.356,2.568 6.428,2.262 6.671 C 1.632 7.171,1.231 7.960,1.174 8.815 C 1.155 9.097,1.262 9.909,1.977 14.906 C 2.615 19.361,2.825 20.739,2.902 20.965 C 3.049 21.398,3.294 21.782,3.638 22.120 C 4.100 22.573,4.597 22.836,5.198 22.943 C 5.644 23.023,18.356 23.023,18.802 22.943 C 19.403 22.836,19.900 22.573,20.362 22.120 C 20.706 21.782,20.951 21.398,21.098 20.965 C 21.175 20.739,21.385 19.361,22.023 14.906 C 22.738 9.909,22.845 9.097,22.826 8.815 C 22.769 7.960,22.368 7.171,21.738 6.671 C 21.434 6.429,13.616 1.350,13.313 1.197 C 12.842 0.959,12.083 0.836,11.579 0.917 M12.284 2.934 C 12.466 2.989,20.325 8.075,20.534 8.273 C 20.689 8.420,20.801 8.649,20.824 8.873 C 20.851 9.117,19.273 20.156,19.178 20.394 C 19.095 20.601,18.781 20.889,18.569 20.952 C 18.340 21.021,5.660 21.021,5.431 20.952 C 5.219 20.889,4.905 20.601,4.822 20.394 C 4.727 20.156,3.149 9.117,3.176 8.873 C 3.200 8.640,3.312 8.418,3.486 8.256 C 3.696 8.061,11.521 2.993,11.700 2.936 C 11.911 2.869,12.069 2.868,12.284 2.934 M11.340 8.046 C 10.849 8.108,10.317 8.273,9.820 8.517 C 8.374 9.226,7.390 10.510,7.075 12.100 C 7.002 12.468,7.002 13.532,7.075 13.900 C 7.482 15.953,9.047 17.518,11.100 17.925 C 11.468 17.998,12.532 17.998,12.900 17.925 C 14.723 17.564,16.191 16.273,16.753 14.539 C 16.940 13.961,16.980 13.680,16.978 12.960 C 16.976 12.381,16.963 12.247,16.869 11.869 C 16.678 11.104,16.374 10.473,15.926 9.912 C 14.822 8.527,13.090 7.823,11.340 8.046 M12.756 10.097 C 13.093 10.189,13.595 10.447,13.873 10.671 C 14.554 11.219,15.000 12.140,15.000 13.000 C 15.000 14.170,14.225 15.329,13.151 15.766 C 11.642 16.380,9.989 15.734,9.298 14.260 C 9.072 13.779,9.021 13.546,9.021 13.000 C 9.021 12.454,9.072 12.221,9.298 11.740 C 9.716 10.848,10.537 10.215,11.503 10.040 C 11.770 9.991,12.491 10.024,12.756 10.097 " fill="#000640" stroke="none" fill-rule="evenodd"></path></svg>