<svg xmlns="http://www.w3.org/2000/svg" width="24" height="24" fill="currentColor" class="mmi mmi-block-diagonal" viewBox="0 0 24 24"><path d="M11.375 0.897 C 11.066 0.967,10.704 1.113,10.409 1.285 C 10.238 1.385,9.102 2.494,5.907 5.679 C 3.557 8.023,1.552 10.048,1.452 10.180 C 0.672 11.202,0.636 12.624,1.363 13.709 C 1.523 13.948,9.852 22.298,10.180 22.548 C 11.246 23.362,12.754 23.362,13.820 22.548 C 14.148 22.298,22.477 13.948,22.637 13.709 C 23.364 12.624,23.328 11.202,22.548 10.180 C 22.448 10.048,20.452 8.030,18.113 5.695 C 13.432 1.022,13.647 1.216,12.900 0.974 C 12.502 0.846,11.765 0.808,11.375 0.897 M12.420 2.936 C 12.576 3.011,12.998 3.411,14.350 4.766 L 16.080 6.500 14.040 8.540 L 12.000 10.580 9.960 8.540 L 7.920 6.500 9.650 4.766 C 11.537 2.874,11.578 2.841,12.000 2.841 C 12.149 2.841,12.284 2.871,12.420 2.936 M8.540 14.040 L 6.500 16.080 4.766 14.350 C 2.874 12.462,2.840 12.422,2.841 12.000 C 2.842 11.585,2.861 11.562,4.752 9.670 L 6.500 7.920 8.540 9.960 L 10.580 12.000 8.540 14.040 M21.064 11.580 C 21.129 11.716,21.159 11.851,21.159 12.000 C 21.159 12.422,21.126 12.463,19.234 14.350 L 17.500 16.080 15.460 14.040 L 13.420 12.000 15.460 9.960 L 17.500 7.920 19.234 9.650 C 20.589 11.002,20.989 11.424,21.064 11.580 M14.051 15.471 L 16.081 17.501 14.290 19.284 C 12.365 21.201,12.415 21.160,12.000 21.160 C 11.585 21.160,11.635 21.201,9.710 19.284 L 7.919 17.501 9.949 15.471 C 11.066 14.354,11.989 13.440,12.000 13.440 C 12.011 13.440,12.934 14.354,14.051 15.471 " fill="#000640" stroke="none" fill-rule="evenodd"></path></svg>