<svg xmlns="http://www.w3.org/2000/svg" width="24" height="24" fill="currentColor" class="mmi mmi-bluetooth" viewBox="0 0 24 24"><path d="M10.643 1.067 C 10.546 1.102,10.392 1.206,10.300 1.298 C 9.983 1.615,10.000 1.370,10.000 5.716 L 10.000 9.579 8.310 7.893 C 7.151 6.738,6.564 6.180,6.442 6.119 C 5.913 5.855,5.232 6.154,5.062 6.725 C 4.984 6.987,4.985 7.053,5.063 7.323 C 5.125 7.532,5.207 7.620,7.353 9.770 L 9.578 12.000 7.353 14.230 C 5.207 16.380,5.125 16.468,5.063 16.677 C 4.984 16.948,4.984 17.013,5.064 17.283 C 5.153 17.581,5.419 17.847,5.717 17.936 C 5.987 18.016,6.052 18.016,6.323 17.936 C 6.531 17.876,6.614 17.799,8.270 16.147 L 10.000 14.422 10.000 18.286 C 10.000 22.489,9.992 22.324,10.222 22.626 C 10.277 22.699,10.408 22.808,10.511 22.869 C 10.672 22.964,10.744 22.980,11.000 22.980 C 11.237 22.980,11.331 22.962,11.448 22.892 C 11.586 22.811,17.118 18.450,17.591 18.050 C 17.708 17.952,17.840 17.799,17.885 17.711 C 18.061 17.364,18.012 16.894,17.769 16.615 C 17.709 16.546,16.512 15.487,15.110 14.262 C 13.707 13.037,12.560 12.027,12.560 12.017 C 12.560 12.008,13.735 11.022,15.170 9.825 C 17.175 8.154,17.803 7.609,17.880 7.475 C 17.962 7.331,17.980 7.247,17.980 7.000 C 17.980 6.753,17.962 6.669,17.880 6.525 C 17.803 6.390,17.076 5.763,14.680 3.766 C 12.975 2.344,11.509 1.146,11.422 1.103 C 11.217 1.000,10.869 0.984,10.643 1.067 M13.750 5.592 C 14.658 6.348,15.400 6.982,15.400 7.000 C 15.400 7.029,12.178 9.736,12.050 9.814 C 12.010 9.838,12.000 9.265,12.000 7.000 C 12.000 4.735,12.010 4.162,12.050 4.186 C 12.078 4.203,12.843 4.835,13.750 5.592 M13.750 15.735 L 15.435 17.210 15.327 17.299 C 15.247 17.365,13.383 18.839,12.050 19.890 C 12.010 19.922,12.000 19.355,12.000 17.082 C 12.000 15.515,12.015 14.239,12.033 14.247 C 12.051 14.254,12.824 14.924,13.750 15.735 " fill="#000640" stroke="none" fill-rule="evenodd"></path></svg>