<svg xmlns="http://www.w3.org/2000/svg" width="24" height="24" fill="currentColor" class="mmi mmi-boat" viewBox="0 0 24 24"><path d="M10.643 1.067 C 10.546 1.102,10.392 1.206,10.300 1.298 C 9.974 1.624,10.000 0.924,10.000 9.427 L 10.000 17.000 8.500 17.000 L 7.000 17.000 7.000 15.427 C 7.000 13.637,6.994 13.592,6.700 13.298 C 6.390 12.988,5.932 12.920,5.531 13.126 C 5.315 13.238,5.103 13.491,5.042 13.711 C 5.017 13.802,5.000 14.472,5.000 15.430 L 5.000 17.000 3.447 17.000 C 1.658 17.000,1.588 17.010,1.303 17.295 C 1.041 17.556,0.942 17.930,1.040 18.282 C 1.062 18.361,1.208 18.649,1.364 18.922 C 2.024 20.077,2.658 20.941,3.358 21.642 C 3.916 22.200,4.396 22.548,4.897 22.756 C 5.522 23.016,4.989 23.002,13.532 22.990 L 21.306 22.980 21.502 22.859 C 21.871 22.631,21.869 22.637,22.461 20.278 C 22.756 19.102,22.998 18.076,22.999 17.997 C 23.001 17.758,22.881 17.478,22.697 17.295 C 22.383 16.981,22.740 17.000,17.053 17.000 L 12.000 17.000 12.000 16.000 L 12.000 15.000 17.073 15.000 C 22.776 15.000,22.381 15.021,22.702 14.700 C 23.011 14.392,23.081 13.925,22.876 13.543 C 22.822 13.442,20.357 10.722,17.201 7.281 C 12.668 2.338,11.589 1.182,11.442 1.111 C 11.213 1.000,10.876 0.981,10.643 1.067 M15.840 8.760 C 17.782 10.883,19.454 12.706,19.554 12.810 L 19.737 13.000 15.868 13.000 L 12.000 13.000 12.000 8.791 L 12.000 4.581 12.155 4.741 C 12.240 4.828,13.898 6.637,15.840 8.760 M20.710 19.050 C 20.700 19.078,20.586 19.527,20.457 20.050 L 20.222 21.000 13.036 21.000 L 5.851 21.000 5.564 20.856 C 5.125 20.637,4.506 20.022,3.926 19.230 L 3.757 19.000 12.243 19.000 C 19.014 19.000,20.725 19.010,20.710 19.050 " fill="#000640" stroke="none" fill-rule="evenodd"></path></svg>