<svg xmlns="http://www.w3.org/2000/svg" width="24" height="24" fill="currentColor" class="mmi mmi-boldarrow-backline-left" viewBox="0 0 24 24"><path d="M11.679 2.061 C 11.463 2.128,11.926 1.721,5.892 7.152 C 2.660 10.061,1.182 11.417,1.116 11.532 C 1.038 11.669,1.020 11.756,1.020 12.003 C 1.020 12.271,1.034 12.328,1.140 12.495 C 1.222 12.625,2.861 14.124,6.367 17.277 C 11.799 22.162,11.605 22.000,12.000 22.000 C 12.242 22.000,12.521 21.881,12.701 21.701 C 13.002 21.400,13.000 21.419,13.000 19.073 L 13.000 17.000 15.573 17.000 C 18.477 17.000,18.394 17.008,18.701 16.701 C 19.018 16.384,19.000 16.663,19.000 12.000 C 19.000 7.337,19.018 7.616,18.701 7.299 C 18.394 6.992,18.477 7.000,15.573 7.000 L 13.000 7.000 13.000 4.927 C 13.000 2.577,13.003 2.601,12.697 2.295 C 12.431 2.029,12.061 1.944,11.679 2.061 M11.008 6.790 L 11.020 8.300 11.131 8.489 C 11.192 8.592,11.301 8.723,11.374 8.778 C 11.668 9.003,11.631 9.000,14.425 9.000 L 17.000 9.000 17.000 12.000 L 17.000 15.000 14.425 15.000 C 11.631 15.000,11.668 14.997,11.374 15.222 C 11.301 15.277,11.192 15.408,11.131 15.511 L 11.020 15.700 11.008 17.213 C 11.002 18.045,10.982 18.720,10.965 18.713 C 10.888 18.681,3.520 12.020,3.530 11.990 C 3.544 11.948,10.931 5.287,10.968 5.283 C 10.984 5.281,11.002 5.960,11.008 6.790 M21.664 7.063 C 21.436 7.146,21.257 7.297,21.131 7.511 L 21.020 7.700 21.009 11.913 C 21.002 14.750,21.012 16.177,21.040 16.281 C 21.101 16.506,21.312 16.761,21.531 16.874 C 21.932 17.080,22.390 17.012,22.700 16.702 C 23.018 16.384,23.000 16.665,23.000 12.000 C 23.000 7.337,23.018 7.616,22.701 7.299 C 22.429 7.027,22.018 6.933,21.664 7.063 " fill="#000640" stroke="none" fill-rule="evenodd"></path></svg>