<svg xmlns="http://www.w3.org/2000/svg" width="24" height="24" fill="currentColor" class="mmi mmi-boldarrow-upleft" viewBox="0 0 24 24"><path d="M3.700 2.956 C 3.340 3.048,3.033 3.362,2.945 3.730 C 2.930 3.791,3.081 6.929,3.280 10.705 C 3.619 17.135,3.647 17.582,3.726 17.765 C 3.955 18.297,4.635 18.521,5.130 18.226 C 5.224 18.171,5.948 17.476,6.740 16.683 L 8.179 15.240 11.460 18.516 C 14.161 21.213,14.768 21.801,14.900 21.843 C 15.131 21.918,15.434 21.904,15.641 21.810 C 15.778 21.748,16.527 21.019,18.806 18.734 C 22.008 15.523,21.894 15.651,21.894 15.240 C 21.894 14.827,22.031 14.980,18.516 11.460 L 15.240 8.179 16.683 6.740 C 17.476 5.948,18.172 5.222,18.228 5.127 C 18.302 5.002,18.336 4.880,18.349 4.687 C 18.364 4.453,18.353 4.393,18.253 4.200 C 18.127 3.954,17.880 3.744,17.648 3.683 C 17.567 3.662,14.548 3.491,10.940 3.303 C 7.332 3.115,4.254 2.953,4.100 2.944 C 3.946 2.934,3.766 2.939,3.700 2.956 M9.748 5.238 C 12.251 5.369,14.469 5.488,14.675 5.502 L 15.050 5.528 14.027 6.554 C 13.290 7.294,12.982 7.630,12.923 7.760 C 12.824 7.979,12.814 8.341,12.901 8.551 C 12.945 8.656,13.935 9.672,16.231 11.970 L 19.500 15.240 17.370 17.370 L 15.241 19.499 11.950 16.213 C 8.374 12.642,8.598 12.840,8.140 12.841 C 7.771 12.842,7.658 12.927,6.554 14.027 L 5.528 15.050 5.502 14.675 C 5.472 14.230,5.000 5.239,5.000 5.098 C 5.000 5.021,5.021 5.000,5.098 5.000 C 5.151 5.000,7.244 5.107,9.748 5.238 " fill="#000640" stroke="none" fill-rule="evenodd"></path></svg>