<svg xmlns="http://www.w3.org/2000/svg" width="24" height="24" fill="currentColor" class="mmi mmi-boldarrow-backline-up" viewBox="0 0 24 24"><path d="M11.655 1.063 C 11.564 1.096,11.425 1.181,11.347 1.252 C 11.269 1.322,9.163 3.651,6.667 6.427 C 1.841 11.795,2.000 11.605,2.000 12.000 C 2.000 12.242,2.119 12.521,2.299 12.701 C 2.600 13.002,2.581 13.000,4.926 13.000 L 6.998 13.000 7.009 15.650 L 7.020 18.300 7.131 18.489 C 7.192 18.592,7.301 18.723,7.374 18.778 C 7.677 19.009,7.484 19.000,11.998 19.000 C 16.663 19.000,16.384 19.018,16.701 18.701 C 17.008 18.394,17.000 18.477,17.000 15.573 L 17.000 13.000 19.073 13.000 C 21.420 13.000,21.400 13.002,21.702 12.700 C 21.999 12.403,22.078 11.942,21.895 11.572 C 21.852 11.485,19.749 9.116,17.220 6.307 C 13.550 2.229,12.589 1.182,12.451 1.116 C 12.227 1.007,11.869 0.983,11.655 1.063 M15.379 7.249 C 17.217 9.289,18.720 10.967,18.720 10.978 C 18.720 10.988,18.049 11.002,17.229 11.009 L 15.738 11.020 15.539 11.122 C 15.316 11.237,15.104 11.488,15.042 11.711 C 15.015 11.806,15.000 12.783,15.000 14.430 L 15.000 17.000 12.000 17.000 L 9.000 17.000 9.000 14.427 C 9.000 11.523,9.008 11.606,8.701 11.299 C 8.412 11.010,8.347 11.000,6.710 11.000 C 5.920 11.000,5.279 10.985,5.287 10.967 C 5.317 10.893,11.979 3.520,12.008 3.529 C 12.024 3.535,13.542 5.209,15.379 7.249 M7.664 21.063 C 7.436 21.146,7.257 21.297,7.131 21.511 C 7.036 21.672,7.020 21.744,7.020 22.000 C 7.020 22.256,7.036 22.328,7.131 22.489 C 7.192 22.592,7.301 22.723,7.374 22.778 C 7.677 23.009,7.484 23.000,11.998 23.000 C 16.663 23.000,16.384 23.018,16.701 22.701 C 17.092 22.310,17.092 21.690,16.701 21.299 C 16.384 20.982,16.666 21.000,11.983 21.003 C 8.474 21.005,7.795 21.015,7.664 21.063 " fill="#000640" stroke="none" fill-rule="evenodd"></path></svg>