<svg xmlns="http://www.w3.org/2000/svg" width="24" height="24" fill="currentColor" class="mmi mmi-boldarrow-backline-right" viewBox="0 0 24 24"><path d="M11.667 2.065 C 11.415 2.142,11.155 2.400,11.066 2.660 C 11.008 2.831,11.000 3.103,11.000 4.926 L 11.000 6.998 8.369 7.009 L 5.738 7.020 5.539 7.122 C 5.316 7.237,5.104 7.488,5.042 7.711 C 4.985 7.917,4.985 16.083,5.042 16.289 C 5.104 16.512,5.316 16.763,5.539 16.878 L 5.738 16.980 8.369 16.991 L 11.000 17.002 11.000 19.074 C 11.000 21.420,10.998 21.400,11.300 21.702 C 11.597 21.999,12.058 22.078,12.428 21.895 C 12.515 21.852,14.884 19.749,17.693 17.220 C 21.872 13.459,22.817 12.590,22.890 12.442 C 23.014 12.191,23.014 11.809,22.890 11.558 C 22.817 11.410,21.944 10.605,18.115 7.158 C 12.012 1.665,12.541 2.129,12.304 2.059 C 12.061 1.987,11.917 1.988,11.667 2.065 M16.773 8.639 C 18.812 10.475,20.480 11.988,20.480 12.001 C 20.480 12.027,13.085 18.692,13.033 18.713 C 13.015 18.721,13.000 18.080,13.000 17.290 C 13.000 15.653,12.990 15.588,12.701 15.299 C 12.394 14.992,12.477 15.000,9.573 15.000 L 7.000 15.000 7.000 12.000 L 7.000 9.000 9.573 9.000 C 12.477 9.000,12.394 9.008,12.701 8.701 C 12.990 8.412,13.000 8.347,13.000 6.710 C 13.000 5.920,13.015 5.279,13.033 5.287 C 13.051 5.294,14.734 6.802,16.773 8.639 M1.664 7.063 C 1.436 7.146,1.257 7.297,1.131 7.511 L 1.020 7.700 1.009 11.913 C 1.002 14.750,1.012 16.177,1.040 16.281 C 1.101 16.506,1.312 16.761,1.531 16.874 C 1.932 17.080,2.390 17.012,2.700 16.702 C 3.018 16.384,3.000 16.665,3.000 12.000 C 3.000 7.337,3.018 7.616,2.701 7.299 C 2.429 7.027,2.018 6.933,1.664 7.063 " fill="#000640" stroke="none" fill-rule="evenodd"></path></svg>