<svg xmlns="http://www.w3.org/2000/svg" width="24" height="24" fill="currentColor" class="mmi mmi-boldarrow-upright" viewBox="0 0 24 24"><path d="M13.220 3.285 C 9.524 3.483,6.433 3.662,6.352 3.683 C 6.119 3.744,5.873 3.954,5.747 4.200 C 5.647 4.393,5.636 4.453,5.651 4.687 C 5.664 4.880,5.698 5.002,5.772 5.127 C 5.828 5.222,6.524 5.948,7.317 6.740 L 8.760 8.179 5.484 11.460 C 2.787 14.161,2.199 14.768,2.157 14.900 C 2.082 15.131,2.096 15.434,2.190 15.641 C 2.252 15.778,2.981 16.527,5.266 18.806 C 8.477 22.008,8.349 21.894,8.760 21.894 C 9.173 21.894,9.020 22.031,12.540 18.516 L 15.821 15.240 17.260 16.683 C 18.052 17.476,18.776 18.170,18.868 18.225 C 19.408 18.547,20.147 18.249,20.321 17.640 C 20.372 17.459,21.089 3.898,21.056 3.740 C 20.965 3.311,20.590 2.980,20.153 2.943 C 20.036 2.934,16.916 3.087,13.220 3.285 M19.000 5.071 C 19.000 5.195,18.525 14.283,18.498 14.675 L 18.472 15.050 17.446 14.027 C 16.342 12.927,16.229 12.842,15.860 12.841 C 15.402 12.840,15.626 12.642,12.050 16.213 L 8.759 19.499 6.630 17.370 L 4.500 15.240 7.769 11.970 C 10.065 9.672,11.055 8.656,11.099 8.551 C 11.186 8.341,11.176 7.979,11.077 7.760 C 11.018 7.630,10.709 7.293,9.969 6.550 C 9.112 5.691,8.958 5.520,9.041 5.517 C 9.095 5.516,11.237 5.401,13.800 5.262 C 19.257 4.967,19.000 4.976,19.000 5.071 " fill="#000640" stroke="none" fill-rule="evenodd"></path></svg>