<svg xmlns="http://www.w3.org/2000/svg" width="24" height="24" fill="currentColor" class="mmi mmi-boldarrow-up" viewBox="0 0 24 24"><path d="M11.655 1.063 C 11.564 1.096,11.425 1.181,11.347 1.252 C 11.269 1.322,9.163 3.651,6.667 6.427 C 1.841 11.795,2.000 11.605,2.000 12.000 C 2.000 12.242,2.119 12.521,2.299 12.701 C 2.600 13.002,2.581 13.000,4.927 13.000 L 7.000 13.000 7.000 17.570 C 7.000 20.595,7.014 22.190,7.042 22.289 C 7.104 22.512,7.316 22.763,7.539 22.878 L 7.738 22.980 11.937 22.991 C 16.667 23.002,16.382 23.020,16.700 22.702 C 17.019 22.383,17.000 22.716,17.000 17.573 L 17.000 13.000 19.073 13.000 C 21.420 13.000,21.400 13.002,21.702 12.700 C 21.999 12.403,22.078 11.942,21.895 11.572 C 21.852 11.485,19.749 9.116,17.220 6.307 C 13.550 2.229,12.589 1.182,12.451 1.116 C 12.227 1.007,11.869 0.983,11.655 1.063 M15.379 7.249 C 17.217 9.289,18.720 10.967,18.720 10.978 C 18.720 10.988,18.049 11.002,17.229 11.009 L 15.738 11.020 15.539 11.122 C 15.316 11.237,15.104 11.488,15.042 11.711 C 15.014 11.810,15.000 13.405,15.000 16.430 L 15.000 21.000 12.000 21.000 L 9.000 21.000 9.000 16.427 C 9.000 11.286,9.019 11.617,8.701 11.299 C 8.412 11.010,8.347 11.000,6.710 11.000 C 5.920 11.000,5.279 10.985,5.287 10.967 C 5.317 10.893,11.979 3.520,12.008 3.529 C 12.024 3.535,13.542 5.209,15.379 7.249 " fill="#000640" stroke="none" fill-rule="evenodd"></path></svg>