<svg xmlns="http://www.w3.org/2000/svg" width="24" height="24" fill="currentColor" class="mmi mmi-boldarrow-downright" viewBox="0 0 24 24"><path d="M8.340 2.197 C 8.231 2.248,7.237 3.218,5.194 5.266 C 1.992 8.477,2.106 8.349,2.106 8.760 C 2.106 9.173,1.969 9.020,5.484 12.540 L 8.760 15.821 7.317 17.260 C 6.524 18.052,5.829 18.776,5.774 18.870 C 5.479 19.365,5.703 20.045,6.235 20.274 C 6.418 20.353,6.865 20.381,13.295 20.720 C 17.071 20.919,20.209 21.070,20.270 21.055 C 20.643 20.966,20.965 20.644,21.055 20.270 C 21.070 20.209,20.919 17.068,20.720 13.290 L 20.359 6.420 20.249 6.200 C 19.994 5.687,19.349 5.488,18.868 5.775 C 18.776 5.830,18.052 6.524,17.260 7.317 L 15.821 8.760 12.560 5.501 C 10.274 3.217,9.256 2.225,9.151 2.182 C 8.944 2.096,8.539 2.104,8.340 2.197 M12.020 7.764 C 14.235 9.982,15.311 11.032,15.420 11.083 C 15.638 11.186,16.006 11.183,16.240 11.077 C 16.370 11.018,16.706 10.710,17.445 9.973 L 18.471 8.951 18.496 9.306 C 18.567 10.287,19.002 18.971,18.982 18.991 C 18.959 19.015,9.592 18.542,9.165 18.496 L 8.949 18.473 9.972 17.446 C 10.710 16.706,11.018 16.370,11.077 16.240 C 11.176 16.021,11.186 15.659,11.099 15.449 C 11.055 15.344,10.065 14.328,7.769 12.030 L 4.500 8.760 6.620 6.640 C 7.786 5.474,8.749 4.520,8.760 4.520 C 8.771 4.520,10.238 5.980,12.020 7.764 " fill="#000640" stroke="none" fill-rule="evenodd"></path></svg>