<svg xmlns="http://www.w3.org/2000/svg" width="24" height="24" fill="currentColor" class="mmi mmi-boldarrow-right" viewBox="0 0 24 24"><path d="M11.667 2.065 C 11.415 2.142,11.155 2.400,11.066 2.660 C 11.008 2.831,11.000 3.103,11.000 4.927 L 11.000 7.000 6.425 7.000 C 1.444 7.000,1.678 6.990,1.374 7.222 C 1.301 7.277,1.192 7.408,1.131 7.511 L 1.020 7.700 1.020 12.000 L 1.020 16.300 1.131 16.489 C 1.192 16.592,1.301 16.723,1.374 16.778 C 1.678 17.010,1.444 17.000,6.425 17.000 L 11.000 17.000 11.000 19.073 C 11.000 21.420,10.998 21.400,11.300 21.702 C 11.597 21.999,12.058 22.078,12.428 21.895 C 12.515 21.852,14.884 19.749,17.693 17.220 C 21.872 13.459,22.817 12.590,22.890 12.442 C 23.014 12.191,23.014 11.809,22.890 11.558 C 22.817 11.410,21.944 10.605,18.115 7.158 C 12.012 1.665,12.541 2.129,12.304 2.059 C 12.061 1.987,11.917 1.988,11.667 2.065 M16.773 8.639 C 18.812 10.475,20.480 11.988,20.480 12.001 C 20.480 12.027,13.085 18.692,13.033 18.713 C 13.015 18.721,13.000 18.080,13.000 17.290 C 13.000 15.653,12.990 15.588,12.701 15.299 C 12.383 14.981,12.714 15.000,7.573 15.000 L 3.000 15.000 3.000 12.000 L 3.000 9.000 7.573 9.000 C 12.714 9.000,12.383 9.019,12.701 8.701 C 12.990 8.412,13.000 8.347,13.000 6.710 C 13.000 5.920,13.015 5.279,13.033 5.287 C 13.051 5.294,14.734 6.802,16.773 8.639 " fill="#000640" stroke="none" fill-rule="evenodd"></path></svg>