<svg xmlns="http://www.w3.org/2000/svg" width="24" height="24" fill="currentColor" class="mmi mmi-boldarrow-downleft" viewBox="0 0 24 24"><path d="M14.840 2.183 C 14.750 2.222,13.543 3.400,11.440 5.502 L 8.179 8.760 6.740 7.317 C 5.948 6.524,5.224 5.830,5.132 5.775 C 4.651 5.488,4.006 5.687,3.751 6.200 L 3.641 6.420 3.280 13.290 C 3.081 17.068,2.930 20.209,2.945 20.270 C 3.035 20.644,3.357 20.966,3.730 21.055 C 3.791 21.070,6.929 20.919,10.705 20.720 C 17.135 20.381,17.582 20.353,17.765 20.274 C 18.297 20.045,18.521 19.365,18.226 18.870 C 18.171 18.776,17.476 18.052,16.683 17.260 L 15.240 15.821 18.516 12.540 C 22.031 9.020,21.894 9.173,21.894 8.760 C 21.894 8.349,22.008 8.477,18.806 5.266 C 16.763 3.218,15.769 2.248,15.660 2.197 C 15.463 2.104,15.040 2.097,14.840 2.183 M17.380 6.640 L 19.500 8.760 16.231 12.030 C 13.935 14.328,12.945 15.344,12.901 15.449 C 12.814 15.659,12.824 16.021,12.923 16.240 C 12.982 16.370,13.290 16.706,14.028 17.446 L 15.051 18.473 14.835 18.496 C 14.410 18.542,5.039 19.012,5.016 18.989 C 4.995 18.968,5.439 10.157,5.505 9.286 L 5.530 8.952 6.555 9.974 C 7.294 10.711,7.630 11.018,7.760 11.077 C 7.994 11.183,8.362 11.186,8.580 11.083 C 8.689 11.032,9.765 9.982,11.980 7.764 C 13.762 5.980,15.229 4.520,15.240 4.520 C 15.251 4.520,16.214 5.474,17.380 6.640 " fill="#000640" stroke="none" fill-rule="evenodd"></path></svg>