<svg xmlns="http://www.w3.org/2000/svg" width="24" height="24" fill="currentColor" class="mmi mmi-boldarrow-backline-down" viewBox="0 0 24 24"><path d="M7.664 1.063 C 7.436 1.146,7.257 1.297,7.131 1.511 C 7.036 1.672,7.020 1.744,7.020 2.000 C 7.020 2.256,7.036 2.328,7.131 2.489 C 7.192 2.592,7.301 2.723,7.374 2.778 C 7.677 3.009,7.484 3.000,11.998 3.000 C 16.663 3.000,16.384 3.018,16.701 2.701 C 17.092 2.310,17.092 1.690,16.701 1.299 C 16.384 0.982,16.666 1.000,11.983 1.003 C 8.474 1.005,7.795 1.015,7.664 1.063 M7.664 5.063 C 7.436 5.146,7.257 5.297,7.131 5.511 L 7.020 5.700 7.009 8.350 L 6.998 11.000 4.926 11.000 C 2.580 11.000,2.600 10.998,2.298 11.300 C 2.001 11.597,1.922 12.058,2.105 12.428 C 2.148 12.515,4.251 14.884,6.780 17.693 C 10.541 21.872,11.410 22.817,11.558 22.890 C 11.809 23.014,12.191 23.014,12.442 22.890 C 12.590 22.817,13.459 21.872,17.220 17.693 C 19.749 14.884,21.852 12.515,21.895 12.428 C 22.078 12.058,21.999 11.597,21.702 11.300 C 21.400 10.998,21.420 11.000,19.073 11.000 L 17.000 11.000 17.000 8.427 C 17.000 5.523,17.008 5.606,16.701 5.299 C 16.384 4.982,16.666 5.000,11.983 5.003 C 8.474 5.005,7.795 5.015,7.664 5.063 M15.000 9.570 C 15.000 11.217,15.015 12.194,15.042 12.289 C 15.104 12.512,15.316 12.763,15.539 12.878 L 15.738 12.980 17.232 12.991 C 18.053 12.998,18.720 13.017,18.713 13.034 C 18.691 13.087,12.026 20.480,12.000 20.480 C 11.974 20.480,5.308 13.086,5.287 13.033 C 5.279 13.015,5.920 13.000,6.710 13.000 C 8.347 13.000,8.412 12.990,8.701 12.701 C 9.008 12.394,9.000 12.477,9.000 9.573 L 9.000 7.000 12.000 7.000 L 15.000 7.000 15.000 9.570 " fill="#000640" stroke="none" fill-rule="evenodd"></path></svg>