<svg xmlns="http://www.w3.org/2000/svg" width="24" height="24" fill="currentColor" class="mmi mmi-book" viewBox="0 0 24 24"><path d="M3.582 1.724 C 2.606 1.867,1.763 2.473,1.339 3.336 C 0.991 4.044,1.020 3.345,1.020 11.100 C 1.020 18.869,0.990 18.153,1.347 18.880 C 1.505 19.202,1.588 19.315,1.897 19.620 C 2.488 20.206,2.277 20.128,7.376 21.657 C 9.839 22.396,11.909 23.000,11.977 23.000 C 12.204 23.000,20.691 21.284,20.997 21.177 C 21.545 20.984,22.133 20.545,22.439 20.100 C 22.620 19.837,22.825 19.398,22.905 19.100 C 22.977 18.831,22.980 18.540,22.980 11.520 C 22.980 3.291,23.009 4.045,22.661 3.336 C 22.116 2.226,20.858 1.553,19.638 1.720 C 19.417 1.750,18.033 2.146,15.650 2.861 L 12.000 3.956 8.350 2.861 C 6.181 2.211,4.573 1.749,4.387 1.723 C 4.035 1.675,3.923 1.675,3.582 1.724 M7.550 4.709 L 10.999 5.740 11.000 11.194 L 11.000 16.649 10.910 16.626 C 10.283 16.466,3.685 14.456,3.532 14.378 C 3.417 14.320,3.277 14.211,3.220 14.137 C 2.990 13.835,3.000 14.065,3.000 9.100 C 3.000 4.170,2.992 4.370,3.207 4.079 C 3.359 3.874,3.721 3.687,3.980 3.681 C 4.046 3.679,5.652 4.142,7.550 4.709 M20.479 3.823 C 20.707 3.947,20.856 4.122,20.942 4.364 C 21.032 4.620,21.029 14.420,20.939 14.685 C 20.857 14.925,20.678 15.135,20.466 15.237 C 20.353 15.292,19.024 15.575,16.697 16.041 C 14.719 16.436,13.078 16.760,13.051 16.760 C 13.010 16.760,13.000 15.668,13.000 11.250 L 13.001 5.740 16.430 4.709 C 20.236 3.566,20.072 3.602,20.479 3.823 M4.689 6.059 C 3.869 6.315,3.765 7.507,4.530 7.874 C 4.623 7.919,5.645 8.193,6.800 8.482 C 9.075 9.051,9.129 9.059,9.469 8.886 C 9.967 8.632,10.151 7.970,9.857 7.494 C 9.630 7.128,9.634 7.130,7.266 6.537 C 6.085 6.242,5.060 6.001,4.989 6.003 C 4.918 6.004,4.783 6.029,4.689 6.059 M16.703 6.541 C 14.369 7.130,14.369 7.130,14.143 7.494 C 13.849 7.970,14.033 8.632,14.531 8.886 C 14.871 9.059,14.925 9.051,17.200 8.483 C 18.355 8.195,19.368 7.929,19.451 7.893 C 19.632 7.814,19.855 7.578,19.939 7.376 C 20.015 7.194,20.018 6.801,19.945 6.626 C 19.797 6.273,19.389 5.998,19.020 6.004 C 18.905 6.006,17.919 6.234,16.703 6.541 M4.689 10.059 C 3.869 10.315,3.765 11.507,4.530 11.874 C 4.623 11.919,5.645 12.193,6.800 12.482 C 9.075 13.051,9.129 13.059,9.469 12.886 C 9.967 12.632,10.151 11.970,9.857 11.494 C 9.630 11.128,9.634 11.130,7.266 10.537 C 6.085 10.242,5.060 10.001,4.989 10.003 C 4.918 10.004,4.783 10.029,4.689 10.059 M16.723 10.536 C 14.368 11.130,14.369 11.129,14.143 11.494 C 13.849 11.970,14.033 12.632,14.531 12.886 C 14.871 13.059,14.925 13.051,17.194 12.482 C 18.346 12.194,19.345 11.934,19.414 11.905 C 19.840 11.726,20.082 11.137,19.923 10.665 C 19.857 10.471,19.632 10.218,19.436 10.118 C 19.096 9.945,19.038 9.954,16.723 10.536 M7.083 17.567 L 10.999 18.740 11.000 19.694 L 11.000 20.649 10.910 20.626 C 10.283 20.466,3.685 18.456,3.532 18.378 C 3.417 18.320,3.277 18.211,3.220 18.137 C 3.032 17.891,3.000 17.725,3.000 17.010 C 3.000 16.362,3.001 16.351,3.083 16.372 C 3.129 16.384,4.929 16.922,7.083 17.567 M21.000 17.855 C 21.000 18.564,20.965 18.741,20.778 18.986 C 20.560 19.272,20.597 19.262,16.720 20.037 C 14.729 20.435,13.078 20.760,13.050 20.760 C 13.011 20.760,13.000 20.539,13.000 19.790 L 13.000 18.819 16.790 18.062 C 18.875 17.646,20.661 17.283,20.760 17.256 C 20.859 17.229,20.953 17.206,20.970 17.204 C 20.987 17.202,21.000 17.495,21.000 17.855 " fill="#000640" stroke="none" fill-rule="evenodd"></path></svg>