<svg xmlns="http://www.w3.org/2000/svg" width="24" height="24" fill="currentColor" class="mmi mmi-book-v2" viewBox="0 0 24 24"><path d="M3.582 1.724 C 2.606 1.867,1.763 2.473,1.339 3.336 C 0.991 4.044,1.020 3.345,1.020 11.100 C 1.020 18.869,0.990 18.153,1.347 18.880 C 1.505 19.202,1.588 19.315,1.897 19.620 C 2.166 19.887,2.343 20.023,2.580 20.147 C 2.837 20.281,3.775 20.577,7.320 21.644 C 11.165 22.801,11.774 22.974,12.000 22.974 C 12.226 22.974,12.835 22.801,16.680 21.644 C 20.225 20.577,21.163 20.281,21.420 20.147 C 21.657 20.023,21.834 19.887,22.103 19.620 C 22.412 19.315,22.495 19.202,22.653 18.880 C 23.010 18.153,22.980 18.869,22.980 11.100 C 22.980 3.345,23.009 4.044,22.661 3.336 C 22.116 2.226,20.858 1.553,19.638 1.720 C 19.417 1.750,18.033 2.146,15.650 2.861 L 12.000 3.956 8.350 2.861 C 6.181 2.211,4.573 1.749,4.387 1.723 C 4.035 1.675,3.923 1.675,3.582 1.724 M7.550 4.709 L 10.999 5.740 11.000 13.194 L 11.000 20.649 10.910 20.626 C 10.283 20.466,3.685 18.456,3.532 18.378 C 3.417 18.320,3.277 18.211,3.220 18.137 C 2.987 17.831,3.000 18.248,3.000 11.100 C 3.000 4.000,2.989 4.374,3.207 4.079 C 3.359 3.874,3.721 3.687,3.980 3.681 C 4.046 3.679,5.652 4.142,7.550 4.709 M20.479 3.823 C 20.590 3.884,20.726 3.993,20.782 4.066 C 21.013 4.369,21.000 3.958,21.000 11.099 C 21.000 15.973,20.988 17.703,20.954 17.804 C 20.867 18.057,20.694 18.263,20.472 18.376 C 20.316 18.455,13.728 20.463,13.090 20.626 L 13.000 20.649 13.000 13.194 L 13.001 5.740 16.430 4.709 C 20.236 3.566,20.072 3.602,20.479 3.823 M4.664 6.063 C 4.436 6.146,4.257 6.297,4.131 6.511 L 4.020 6.700 4.020 9.003 L 4.020 11.306 4.141 11.502 C 4.369 11.871,4.361 11.868,6.742 12.466 C 8.582 12.928,8.931 13.004,9.112 12.986 C 9.506 12.947,9.850 12.657,9.956 12.272 C 9.991 12.146,10.001 11.509,9.992 9.897 L 9.980 7.694 9.860 7.502 C 9.625 7.126,9.637 7.130,7.265 6.537 C 6.084 6.242,5.051 6.001,4.969 6.003 C 4.887 6.004,4.750 6.031,4.664 6.063 M16.707 6.540 C 14.401 7.122,14.372 7.132,14.160 7.467 C 13.863 7.935,14.009 8.559,14.484 8.851 C 14.839 9.069,14.861 9.066,17.192 8.483 C 18.343 8.195,19.342 7.935,19.412 7.906 C 19.764 7.758,19.999 7.392,20.000 6.989 C 20.000 6.862,19.975 6.698,19.945 6.626 C 19.797 6.273,19.389 5.998,19.020 6.004 C 18.905 6.006,17.921 6.234,16.707 6.540 M7.050 8.543 L 8.000 8.778 8.000 9.753 C 8.000 10.517,7.989 10.725,7.950 10.710 C 7.923 10.700,7.473 10.586,6.950 10.457 L 6.000 10.222 6.000 9.247 C 6.000 8.483,6.011 8.275,6.050 8.290 C 6.078 8.300,6.527 8.414,7.050 8.543 M16.728 10.537 C 14.399 11.121,14.373 11.131,14.160 11.467 C 13.863 11.935,14.009 12.559,14.484 12.851 C 14.839 13.069,14.860 13.067,17.200 12.481 C 18.355 12.193,19.377 11.920,19.470 11.875 C 19.678 11.775,19.857 11.564,19.939 11.325 C 20.159 10.678,19.666 9.994,18.983 10.001 C 18.915 10.002,17.901 10.243,16.728 10.537 M4.670 15.057 C 4.449 15.136,4.256 15.298,4.131 15.511 C 4.036 15.673,4.020 15.744,4.020 16.003 C 4.020 16.271,4.034 16.329,4.141 16.502 C 4.370 16.872,4.362 16.869,6.743 17.466 C 8.497 17.906,8.935 18.003,9.087 17.986 C 9.800 17.905,10.203 17.137,9.856 16.522 C 9.633 16.127,9.657 16.136,7.276 15.538 C 6.101 15.243,5.068 15.002,4.980 15.003 C 4.892 15.003,4.752 15.028,4.670 15.057 " fill="#000640" stroke="none" fill-rule="evenodd"></path></svg>