<svg xmlns="http://www.w3.org/2000/svg" width="24" height="24" fill="currentColor" class="mmi mmi-bookmark" viewBox="0 0 24 24"><path d="M5.503 1.042 C 4.487 1.214,3.556 1.976,3.202 2.925 C 2.991 3.489,3.001 2.991,3.001 12.925 C 3.000 22.996,2.984 22.315,3.222 22.626 C 3.366 22.815,3.638 22.961,3.893 22.988 C 4.359 23.036,4.156 23.193,8.246 19.614 C 10.374 17.753,11.993 16.364,12.023 16.376 C 12.052 16.387,13.731 17.845,15.755 19.615 C 17.779 21.386,19.494 22.867,19.567 22.907 C 19.661 22.957,19.789 22.979,20.000 22.979 C 20.257 22.980,20.327 22.964,20.489 22.869 C 20.709 22.740,20.854 22.563,20.939 22.322 C 20.993 22.170,21.000 21.077,21.000 12.933 C 21.000 2.832,21.015 3.459,20.766 2.849 C 20.499 2.193,19.964 1.633,19.296 1.312 C 18.639 0.996,19.291 1.023,12.120 1.015 C 8.589 1.012,5.611 1.024,5.503 1.042 M18.340 3.066 C 18.593 3.153,18.847 3.407,18.934 3.660 C 18.995 3.838,19.000 4.511,19.000 11.826 L 19.000 19.798 15.950 17.127 C 14.273 15.658,12.800 14.375,12.677 14.276 C 12.552 14.173,12.373 14.072,12.266 14.042 C 12.048 13.981,11.742 14.006,11.559 14.100 C 11.491 14.136,9.996 15.424,8.237 16.962 C 6.479 18.501,5.031 19.760,5.020 19.760 C 5.009 19.760,5.000 16.181,5.000 11.807 C 5.000 2.878,4.974 3.624,5.300 3.298 C 5.614 2.984,5.091 3.007,11.983 3.003 C 17.620 3.000,18.162 3.006,18.340 3.066 " fill="#000640" stroke="none" fill-rule="evenodd"></path></svg>