<svg xmlns="http://www.w3.org/2000/svg" width="24" height="24" fill="currentColor" class="mmi mmi-bookmark-filled" viewBox="0 0 24 24"><path d="M5.503 1.042 C 4.487 1.214,3.556 1.976,3.202 2.925 C 2.991 3.489,3.001 2.991,3.001 12.925 C 3.000 22.996,2.984 22.315,3.222 22.626 C 3.366 22.815,3.638 22.961,3.893 22.988 C 4.359 23.036,4.156 23.193,8.246 19.614 C 10.374 17.753,11.993 16.364,12.023 16.376 C 12.052 16.387,13.731 17.845,15.755 19.615 C 17.779 21.386,19.494 22.867,19.567 22.907 C 19.661 22.957,19.789 22.979,20.000 22.979 C 20.257 22.980,20.327 22.964,20.489 22.869 C 20.709 22.740,20.854 22.563,20.939 22.322 C 20.993 22.170,21.000 21.077,21.000 12.933 C 21.000 2.832,21.015 3.459,20.766 2.849 C 20.499 2.193,19.964 1.633,19.296 1.312 C 18.639 0.996,19.291 1.023,12.120 1.015 C 8.589 1.012,5.611 1.024,5.503 1.042 " fill="#000640" stroke="none" fill-rule="evenodd"></path></svg>