<svg xmlns="http://www.w3.org/2000/svg" width="24" height="24" fill="currentColor" class="mmi mmi-bookmark-multiple" viewBox="0 0 24 24"><path d="M6.664 1.063 C 6.303 1.195,6.051 1.514,6.013 1.888 C 5.970 2.307,6.174 2.690,6.539 2.878 L 6.738 2.980 12.139 3.001 C 18.161 3.025,17.646 2.999,18.296 3.312 C 18.924 3.614,19.398 4.095,19.704 4.740 C 20.013 5.394,20.000 5.114,20.000 10.954 C 20.000 14.403,20.014 16.190,20.042 16.289 C 20.103 16.509,20.315 16.762,20.531 16.874 C 20.932 17.080,21.390 17.012,21.701 16.701 C 22.025 16.377,22.004 16.817,21.990 10.696 L 21.978 5.260 21.869 4.848 C 21.599 3.824,21.138 3.038,20.409 2.353 C 19.657 1.647,18.632 1.168,17.601 1.042 C 17.381 1.015,15.426 1.001,12.041 1.003 C 7.614 1.005,6.796 1.014,6.664 1.063 M4.503 5.042 C 3.571 5.200,2.727 5.840,2.312 6.704 C 1.995 7.363,2.023 6.600,2.010 14.797 C 1.997 23.046,1.973 22.375,2.299 22.701 C 2.597 22.999,3.060 23.079,3.426 22.895 C 3.511 22.853,5.011 21.739,6.760 20.420 C 8.509 19.102,9.967 18.023,10.000 18.023 C 10.033 18.023,11.492 19.102,13.240 20.420 C 14.989 21.739,16.488 22.852,16.572 22.894 C 16.935 23.076,17.390 22.999,17.694 22.704 C 18.025 22.382,18.000 23.015,18.000 14.937 C 18.000 6.884,18.019 7.405,17.704 6.740 C 17.398 6.095,16.924 5.614,16.296 5.312 C 15.643 4.998,16.171 5.023,10.120 5.015 C 7.139 5.012,4.611 5.023,4.503 5.042 M15.340 7.066 C 15.456 7.106,15.603 7.201,15.702 7.300 C 16.024 7.622,16.002 7.111,15.990 13.921 L 15.980 19.981 13.260 17.933 C 11.764 16.806,10.471 15.852,10.387 15.814 C 10.157 15.710,9.770 15.725,9.553 15.847 C 9.406 15.929,6.059 18.430,4.490 19.630 L 3.999 20.005 4.010 13.852 L 4.020 7.700 4.131 7.511 C 4.256 7.298,4.449 7.136,4.670 7.057 C 4.792 7.013,5.774 7.003,9.983 7.002 C 14.686 7.000,15.163 7.006,15.340 7.066 " fill="#000640" stroke="none" fill-rule="evenodd"></path></svg>