<svg xmlns="http://www.w3.org/2000/svg" width="24" height="24" fill="currentColor" class="mmi mmi-book-empty" viewBox="0 0 24 24"><path d="M3.582 1.724 C 2.887 1.826,2.297 2.135,1.814 2.651 C 1.498 2.990,1.314 3.298,1.152 3.762 L 1.020 4.140 1.009 10.969 C 0.998 18.406,0.987 18.030,1.222 18.625 C 1.467 19.245,2.008 19.850,2.589 20.152 C 2.834 20.279,3.852 20.599,7.377 21.657 C 9.839 22.396,11.909 23.000,11.976 23.000 C 12.232 23.000,20.731 21.275,21.058 21.156 C 21.443 21.017,21.771 20.806,22.092 20.492 C 22.505 20.088,22.749 19.670,22.904 19.100 C 22.977 18.830,22.980 18.570,22.980 11.480 L 22.980 4.140 22.848 3.762 C 22.435 2.578,21.492 1.839,20.218 1.700 C 19.743 1.649,19.415 1.732,15.650 2.861 L 12.000 3.956 8.350 2.861 C 6.181 2.211,4.573 1.749,4.387 1.723 C 4.035 1.675,3.923 1.675,3.582 1.724 M7.610 4.726 L 10.999 5.740 11.000 11.194 L 11.000 16.649 10.910 16.626 C 10.287 16.467,3.685 14.456,3.533 14.379 C 3.314 14.267,3.151 14.073,3.058 13.812 C 3.013 13.688,3.003 12.837,3.002 9.120 C 3.001 5.974,3.014 4.532,3.044 4.424 C 3.169 3.974,3.611 3.658,4.060 3.699 C 4.148 3.706,5.745 4.169,7.610 4.726 M20.493 3.831 C 20.709 3.948,20.888 4.176,20.955 4.421 C 20.987 4.533,21.000 6.043,21.000 9.543 C 21.000 14.995,21.013 14.700,20.759 15.009 C 20.694 15.088,20.562 15.191,20.466 15.237 C 20.353 15.292,19.024 15.575,16.697 16.041 C 14.719 16.436,13.078 16.760,13.051 16.760 C 13.010 16.760,13.000 15.668,13.000 11.250 L 13.001 5.740 16.266 4.763 C 18.061 4.225,19.613 3.762,19.715 3.733 C 19.962 3.664,20.254 3.701,20.493 3.831 M7.083 17.567 L 10.999 18.740 11.000 19.694 L 11.000 20.649 10.910 20.626 C 10.292 20.468,3.686 18.456,3.535 18.380 C 3.305 18.263,3.114 18.029,3.045 17.780 C 3.020 17.692,3.000 17.334,3.000 16.985 C 3.000 16.363,3.002 16.351,3.083 16.372 C 3.129 16.384,4.929 16.922,7.083 17.567 M21.000 17.853 C 21.000 18.579,20.962 18.763,20.759 19.009 C 20.694 19.088,20.562 19.191,20.466 19.237 C 20.353 19.292,19.024 19.575,16.697 20.041 C 14.719 20.436,13.078 20.760,13.051 20.760 C 13.011 20.760,13.000 20.546,13.000 19.790 L 13.000 18.819 16.790 18.062 C 18.875 17.646,20.661 17.283,20.760 17.256 C 20.859 17.229,20.953 17.206,20.970 17.204 C 20.987 17.202,21.000 17.494,21.000 17.853 " fill="#000640" stroke="none" fill-rule="evenodd"></path></svg>