<svg xmlns="http://www.w3.org/2000/svg" width="24" height="24" fill="currentColor" class="mmi mmi-bottle-nolabel-v5" viewBox="0 0 24 24"><path d="M9.664 1.063 C 9.436 1.146,9.257 1.297,9.131 1.511 L 9.020 1.700 9.009 5.638 L 8.998 9.577 8.007 10.578 C 7.366 11.226,6.948 11.682,6.826 11.868 C 6.298 12.671,6.074 13.568,6.163 14.517 C 6.185 14.750,6.345 16.209,6.519 17.760 C 6.751 19.834,6.857 20.654,6.921 20.860 C 7.234 21.872,8.002 22.613,9.040 22.906 C 9.281 22.975,9.500 22.980,12.000 22.980 C 14.500 22.980,14.719 22.975,14.960 22.906 C 15.998 22.613,16.769 21.868,17.077 20.862 C 17.184 20.514,17.845 14.708,17.847 14.100 C 17.849 13.635,17.797 13.307,17.653 12.860 C 17.400 12.080,17.178 11.775,15.992 10.578 L 15.000 9.575 15.000 5.715 C 15.000 1.371,15.016 1.614,14.701 1.299 C 14.398 0.996,14.430 1.000,11.983 1.003 C 10.210 1.005,9.792 1.016,9.664 1.063 M13.000 3.500 L 13.000 4.000 12.000 4.000 L 11.000 4.000 11.000 3.500 L 11.000 3.000 12.000 3.000 L 13.000 3.000 13.000 3.500 M13.000 8.073 C 13.000 9.890,13.008 10.170,13.066 10.343 C 13.124 10.516,13.275 10.685,14.300 11.720 C 14.976 12.402,15.515 12.981,15.579 13.091 C 15.745 13.380,15.840 13.729,15.840 14.054 C 15.840 14.502,15.206 20.153,15.133 20.354 C 15.053 20.574,14.874 20.780,14.664 20.892 C 14.500 20.980,14.496 20.980,12.000 20.980 C 9.504 20.980,9.500 20.980,9.336 20.892 C 9.126 20.780,8.947 20.574,8.867 20.354 C 8.794 20.153,8.160 14.502,8.160 14.054 C 8.160 13.729,8.255 13.380,8.421 13.091 C 8.485 12.981,9.024 12.402,9.700 11.720 C 10.725 10.685,10.876 10.516,10.934 10.343 C 10.992 10.170,11.000 9.890,11.000 8.073 L 11.000 6.000 12.000 6.000 L 13.000 6.000 13.000 8.073 " fill="#000640" stroke="none" fill-rule="evenodd"></path></svg>