<svg xmlns="http://www.w3.org/2000/svg" width="24" height="24" fill="currentColor" class="mmi mmi-bottle" viewBox="0 0 24 24"><path d="M9.643 1.069 C 9.546 1.103,9.392 1.206,9.300 1.298 C 8.984 1.614,9.000 1.374,9.000 5.678 L 9.000 9.501 7.771 10.421 C 7.095 10.926,6.400 11.474,6.228 11.638 C 5.720 12.121,5.312 12.805,5.141 13.461 C 5.007 13.977,4.996 14.317,5.010 17.440 C 5.025 20.891,5.008 20.664,5.312 21.296 C 5.614 21.924,6.095 22.398,6.740 22.704 C 7.385 23.009,7.224 23.000,12.000 23.000 C 16.776 23.000,16.615 23.009,17.260 22.704 C 17.920 22.391,18.391 21.920,18.704 21.260 C 19.007 20.621,19.005 20.644,18.991 17.053 L 18.978 13.900 18.873 13.515 C 18.665 12.758,18.304 12.143,17.765 11.632 C 17.597 11.471,16.905 10.926,16.229 10.421 L 15.000 9.501 15.000 5.678 C 15.000 1.375,15.016 1.614,14.701 1.299 C 14.398 0.996,14.430 1.000,11.983 1.003 C 10.132 1.006,9.795 1.015,9.643 1.069 M13.000 3.500 L 13.000 4.000 12.000 4.000 L 11.000 4.000 11.000 3.500 L 11.000 3.000 12.000 3.000 L 13.000 3.000 13.000 3.500 M13.009 8.131 L 13.020 10.262 13.121 10.461 C 13.213 10.642,13.362 10.765,14.801 11.848 C 16.399 13.051,16.586 13.217,16.785 13.609 C 17.001 14.036,17.000 14.022,17.000 17.201 C 17.000 20.521,17.011 20.391,16.701 20.701 C 16.384 21.018,16.663 21.000,11.998 21.000 C 7.484 21.000,7.677 21.009,7.374 20.778 C 7.301 20.723,7.192 20.592,7.131 20.489 L 7.020 20.300 7.009 17.301 C 7.002 15.306,7.012 14.234,7.040 14.099 C 7.097 13.827,7.274 13.463,7.465 13.228 C 7.562 13.108,8.208 12.594,9.199 11.848 C 10.638 10.765,10.787 10.642,10.879 10.461 L 10.980 10.262 10.991 8.131 L 11.003 6.000 12.000 6.000 L 12.997 6.000 13.009 8.131 M11.503 13.040 C 10.828 13.162,10.156 13.550,9.703 14.080 C 8.987 14.917,8.806 16.100,9.234 17.151 C 9.521 17.857,10.143 18.479,10.849 18.766 C 11.989 19.230,13.251 18.978,14.115 18.115 C 15.238 16.992,15.295 15.212,14.246 14.020 C 13.897 13.624,13.276 13.239,12.756 13.097 C 12.491 13.024,11.770 12.991,11.503 13.040 M12.340 15.066 C 12.709 15.192,13.000 15.604,13.000 16.000 C 13.000 16.527,12.527 17.000,12.000 17.000 C 11.758 17.000,11.479 16.881,11.299 16.701 C 10.907 16.309,10.908 15.690,11.300 15.298 C 11.577 15.020,11.957 14.936,12.340 15.066 " fill="#000640" stroke="none" fill-rule="evenodd"></path></svg>