<svg xmlns="http://www.w3.org/2000/svg" width="24" height="24" fill="currentColor" class="mmi mmi-bottle-nolabel-v3" viewBox="0 0 24 24"><path d="M9.664 1.063 C 9.436 1.146,9.257 1.297,9.131 1.511 L 9.020 1.700 9.008 2.845 L 8.996 3.991 8.228 4.011 C 7.373 4.034,7.217 4.065,6.704 4.312 C 5.836 4.729,5.263 5.466,5.060 6.425 C 4.970 6.848,4.975 9.071,5.066 9.343 C 5.122 9.511,5.247 9.656,5.921 10.337 L 6.711 11.134 5.912 12.332 C 5.473 12.990,5.088 13.601,5.057 13.690 C 4.969 13.939,4.973 20.154,5.062 20.581 C 5.310 21.785,6.215 22.690,7.419 22.938 C 7.867 23.031,16.133 23.031,16.581 22.938 C 17.780 22.691,18.691 21.780,18.938 20.581 C 19.027 20.154,19.031 13.939,18.943 13.690 C 18.912 13.601,18.527 12.990,18.088 12.332 L 17.289 11.134 18.079 10.337 C 18.753 9.656,18.878 9.511,18.934 9.343 C 19.028 9.063,19.031 6.866,18.938 6.419 C 18.745 5.480,18.156 4.725,17.296 4.312 C 16.783 4.065,16.627 4.034,15.770 4.011 L 15.000 3.991 15.000 2.922 C 15.000 1.693,14.979 1.577,14.701 1.299 C 14.398 0.996,14.430 1.000,11.983 1.003 C 10.210 1.005,9.792 1.016,9.664 1.063 M13.000 3.500 L 13.000 4.000 12.000 4.000 L 11.000 4.000 11.000 3.500 L 11.000 3.000 12.000 3.000 L 13.000 3.000 13.000 3.500 M16.340 6.066 C 16.593 6.153,16.847 6.407,16.934 6.660 C 16.987 6.817,17.000 7.019,17.000 7.715 L 17.000 8.576 16.066 9.518 C 15.256 10.334,15.123 10.486,15.066 10.657 C 14.985 10.899,14.982 11.100,15.056 11.310 C 15.087 11.398,15.537 12.107,16.056 12.885 L 17.000 14.300 17.000 17.223 C 17.000 20.518,17.011 20.391,16.701 20.701 C 16.384 21.018,16.663 21.000,12.000 21.000 C 7.337 21.000,7.616 21.018,7.299 20.701 C 6.989 20.391,7.000 20.518,7.000 17.223 L 7.000 14.300 7.944 12.885 C 8.463 12.107,8.913 11.398,8.944 11.310 C 9.018 11.100,9.015 10.899,8.934 10.657 C 8.877 10.486,8.744 10.334,7.934 9.518 L 7.000 8.576 7.000 7.715 C 7.000 6.713,7.031 6.567,7.300 6.298 C 7.609 5.989,7.322 6.007,11.983 6.003 C 15.758 6.000,16.164 6.006,16.340 6.066 " fill="#000640" stroke="none" fill-rule="evenodd"></path></svg>