<svg xmlns="http://www.w3.org/2000/svg" width="24" height="24" fill="currentColor" class="mmi mmi-bottle-nolabel-v4" viewBox="0 0 24 24"><path d="M9.664 1.063 C 9.436 1.146,9.257 1.297,9.131 1.511 L 9.020 1.700 9.009 5.137 L 8.998 8.574 8.440 9.144 C 7.601 10.001,7.264 10.578,7.082 11.471 C 7.002 11.860,7.000 12.000,7.000 16.078 C 7.000 19.707,7.008 20.324,7.062 20.581 C 7.310 21.785,8.215 22.690,9.419 22.938 C 9.859 23.029,14.141 23.029,14.581 22.938 C 15.780 22.691,16.691 21.780,16.938 20.581 C 16.992 20.324,17.000 19.707,17.000 16.078 C 17.000 12.000,16.998 11.860,16.918 11.471 C 16.736 10.578,16.399 10.001,15.559 9.143 L 15.000 8.573 15.000 5.213 C 15.000 1.430,15.014 1.612,14.701 1.299 C 14.398 0.996,14.430 1.000,11.983 1.003 C 10.210 1.005,9.792 1.016,9.664 1.063 M13.000 3.500 L 13.000 4.000 12.000 4.000 L 11.000 4.000 11.000 3.500 L 11.000 3.000 12.000 3.000 L 13.000 3.000 13.000 3.500 M13.008 7.650 C 13.019 9.175,13.026 9.311,13.095 9.440 C 13.136 9.517,13.489 9.904,13.880 10.300 C 14.621 11.052,14.726 11.185,14.884 11.580 L 14.980 11.820 14.991 15.976 C 15.004 20.661,15.021 20.381,14.702 20.700 C 14.399 21.003,14.429 21.000,12.000 21.000 C 9.571 21.000,9.601 21.003,9.298 20.700 C 8.979 20.381,8.996 20.661,9.009 15.976 L 9.020 11.820 9.116 11.580 C 9.274 11.186,9.378 11.054,10.139 10.280 C 10.753 9.656,10.877 9.509,10.934 9.343 C 10.991 9.172,11.000 8.933,11.000 7.573 L 11.000 6.000 11.998 6.000 L 12.997 6.000 13.008 7.650 " fill="#000640" stroke="none" fill-rule="evenodd"></path></svg>