<svg xmlns="http://www.w3.org/2000/svg" width="24" height="24" fill="currentColor" class="mmi mmi-bottle-nolabel" viewBox="0 0 24 24"><path d="M8.664 1.063 C 8.436 1.146,8.257 1.297,8.131 1.511 L 8.020 1.700 8.009 3.585 L 7.997 5.470 7.130 6.045 C 6.654 6.361,6.162 6.704,6.038 6.806 C 5.585 7.181,5.234 7.767,5.080 8.407 C 5.003 8.732,5.001 8.884,5.000 14.512 C 5.000 19.552,5.008 20.321,5.062 20.581 C 5.310 21.785,6.215 22.690,7.419 22.938 C 7.867 23.031,16.133 23.031,16.581 22.938 C 17.780 22.691,18.691 21.780,18.938 20.581 C 18.992 20.321,19.000 19.554,19.000 14.540 C 19.000 9.463,18.993 8.761,18.937 8.491 C 18.809 7.872,18.534 7.360,18.103 6.940 C 17.962 6.803,17.460 6.436,16.928 6.084 L 16.000 5.468 16.000 3.661 C 16.000 1.611,15.998 1.596,15.701 1.299 C 15.389 0.987,15.547 1.000,11.983 1.003 C 9.342 1.005,8.794 1.015,8.664 1.063 M14.000 4.000 L 14.000 5.000 12.000 5.000 L 10.000 5.000 10.000 4.000 L 10.000 3.000 12.000 3.000 L 14.000 3.000 14.000 4.000 M15.686 7.658 C 16.278 8.052,16.716 8.372,16.781 8.458 C 17.008 8.755,16.996 8.442,16.998 14.523 C 17.000 20.841,17.022 20.380,16.701 20.701 C 16.384 21.018,16.663 21.000,12.000 21.000 C 7.337 21.000,7.616 21.018,7.299 20.701 C 6.978 20.380,7.000 20.841,7.002 14.523 C 7.004 8.442,6.992 8.755,7.219 8.458 C 7.284 8.372,7.722 8.052,8.314 7.658 L 9.300 7.000 12.000 7.000 L 14.700 7.000 15.686 7.658 " fill="#000640" stroke="none" fill-rule="evenodd"></path></svg>