<svg xmlns="http://www.w3.org/2000/svg" width="24" height="24" fill="currentColor" class="mmi mmi-bottle-nolabel-v2" viewBox="0 0 24 24"><path d="M8.664 1.063 C 8.436 1.146,8.257 1.297,8.131 1.511 L 8.020 1.700 8.000 3.800 L 7.980 5.900 6.594 9.580 C 5.832 11.604,5.166 13.386,5.114 13.540 L 5.020 13.820 5.009 17.040 C 4.999 19.827,5.005 20.301,5.059 20.568 C 5.304 21.779,6.210 22.689,7.419 22.938 C 7.867 23.031,16.133 23.031,16.581 22.938 C 17.786 22.690,18.697 21.774,18.941 20.568 C 18.995 20.301,19.001 19.828,18.991 17.040 C 18.980 14.059,18.973 13.804,18.906 13.600 C 18.866 13.479,18.196 11.677,17.417 9.596 L 16.000 5.813 16.000 3.833 C 16.000 1.592,16.001 1.599,15.701 1.299 C 15.389 0.987,15.547 1.000,11.983 1.003 C 9.342 1.005,8.794 1.015,8.664 1.063 M14.000 4.000 L 14.000 5.000 12.000 5.000 L 10.000 5.000 10.000 4.000 L 10.000 3.000 12.000 3.000 L 14.000 3.000 14.000 4.000 M15.643 10.550 L 16.980 14.100 16.991 17.117 C 17.003 20.525,17.015 20.388,16.702 20.700 C 16.384 21.018,16.665 21.000,12.000 21.000 C 7.337 21.000,7.616 21.018,7.299 20.701 C 6.989 20.391,7.000 20.525,7.000 17.167 L 7.000 14.189 8.347 10.595 L 9.694 7.000 12.000 7.000 L 14.305 7.000 15.643 10.550 " fill="#000640" stroke="none" fill-rule="evenodd"></path></svg>