<svg xmlns="http://www.w3.org/2000/svg" width="24" height="24" fill="currentColor" class="mmi mmi-bottle-roundlabel" viewBox="0 0 24 24"><path d="M8.643 1.069 C 8.407 1.152,8.149 1.416,8.066 1.660 C 8.008 1.831,8.000 2.097,8.000 3.842 L 8.000 5.831 6.582 9.605 C 5.802 11.681,5.131 13.497,5.092 13.640 C 5.025 13.880,5.020 14.150,5.020 17.180 C 5.020 20.825,5.007 20.641,5.298 21.260 C 5.606 21.918,6.079 22.391,6.740 22.704 C 7.385 23.009,7.224 23.000,12.000 23.000 C 16.776 23.000,16.615 23.009,17.260 22.704 C 17.920 22.391,18.391 21.920,18.704 21.260 C 19.001 20.633,19.000 20.643,19.000 17.179 C 19.000 14.671,18.990 14.073,18.942 13.822 C 18.905 13.629,18.355 12.107,17.442 9.672 L 16.000 5.826 16.000 3.840 C 16.000 1.591,16.001 1.599,15.701 1.299 C 15.389 0.987,15.547 1.000,11.983 1.003 C 9.226 1.006,8.797 1.014,8.643 1.069 M14.000 4.000 L 14.000 5.000 12.000 5.000 L 10.000 5.000 10.000 4.000 L 10.000 3.000 12.000 3.000 L 14.000 3.000 14.000 4.000 M15.645 10.550 L 16.980 14.100 16.991 17.117 C 17.003 20.526,17.014 20.388,16.702 20.700 C 16.384 21.018,16.665 21.000,11.998 21.000 C 7.484 21.000,7.677 21.009,7.374 20.778 C 7.301 20.723,7.192 20.592,7.131 20.489 L 7.020 20.300 7.020 17.200 L 7.020 14.100 8.355 10.550 L 9.690 7.000 12.000 7.000 L 14.310 7.000 15.645 10.550 M11.503 13.040 C 10.828 13.162,10.156 13.550,9.703 14.080 C 8.987 14.917,8.806 16.100,9.234 17.151 C 9.521 17.857,10.143 18.479,10.849 18.766 C 11.989 19.230,13.251 18.978,14.115 18.115 C 15.238 16.992,15.295 15.212,14.246 14.020 C 13.897 13.624,13.276 13.239,12.756 13.097 C 12.491 13.024,11.770 12.991,11.503 13.040 M12.340 15.066 C 12.709 15.192,13.000 15.604,13.000 16.000 C 13.000 16.527,12.527 17.000,12.000 17.000 C 11.758 17.000,11.479 16.881,11.299 16.701 C 10.907 16.309,10.908 15.690,11.300 15.298 C 11.577 15.020,11.957 14.936,12.340 15.066 " fill="#000640" stroke="none" fill-rule="evenodd"></path></svg>