<svg xmlns="http://www.w3.org/2000/svg" width="24" height="24" fill="currentColor" class="mmi mmi-bottle-squarelabel" viewBox="0 0 24 24"><path d="M8.643 1.069 C 8.407 1.152,8.149 1.416,8.066 1.660 C 8.008 1.830,8.000 2.084,8.000 3.661 L 8.000 5.467 7.170 6.019 C 6.714 6.322,6.242 6.644,6.123 6.735 C 5.684 7.069,5.262 7.719,5.093 8.320 C 5.024 8.566,5.020 8.894,5.020 14.520 C 5.020 21.106,5.000 20.626,5.298 21.260 C 5.606 21.918,6.079 22.391,6.740 22.704 C 7.385 23.009,7.224 23.000,12.000 23.000 C 16.776 23.000,16.615 23.009,17.260 22.704 C 17.920 22.391,18.391 21.920,18.704 21.260 C 19.018 20.596,19.003 20.960,18.990 14.378 C 18.978 8.898,18.973 8.525,18.906 8.300 C 18.726 7.700,18.306 7.061,17.877 6.735 C 17.758 6.644,17.287 6.322,16.830 6.019 L 16.000 5.467 16.000 3.661 C 16.000 1.611,15.998 1.596,15.701 1.299 C 15.389 0.987,15.547 1.000,11.983 1.003 C 9.226 1.006,8.797 1.014,8.643 1.069 M14.000 4.000 L 14.000 5.000 12.000 5.000 L 10.000 5.000 10.000 4.000 L 10.000 3.000 12.000 3.000 L 14.000 3.000 14.000 4.000 M15.640 7.625 C 16.675 8.313,16.768 8.386,16.894 8.620 L 16.980 8.780 16.991 14.458 C 17.002 20.844,17.024 20.378,16.702 20.700 C 16.384 21.018,16.665 21.000,11.998 21.000 C 7.484 21.000,7.677 21.009,7.374 20.778 C 7.301 20.723,7.192 20.592,7.131 20.489 L 7.020 20.300 7.020 14.540 L 7.020 8.780 7.106 8.620 C 7.232 8.386,7.325 8.313,8.360 7.625 L 9.300 7.000 12.000 7.000 L 14.700 7.000 15.640 7.625 M8.664 10.063 C 8.436 10.146,8.257 10.297,8.131 10.511 L 8.020 10.700 8.020 13.500 L 8.020 16.300 8.131 16.489 C 8.192 16.592,8.301 16.723,8.374 16.778 C 8.672 17.006,8.578 17.000,11.998 17.000 C 15.545 17.000,15.390 17.013,15.701 16.701 C 16.009 16.394,16.000 16.486,16.000 13.500 C 16.000 10.514,16.009 10.606,15.701 10.299 C 15.389 9.987,15.547 10.000,11.983 10.003 C 9.342 10.005,8.794 10.015,8.664 10.063 M14.000 13.500 L 14.000 15.000 12.000 15.000 L 10.000 15.000 10.000 13.500 L 10.000 12.000 12.000 12.000 L 14.000 12.000 14.000 13.500 " fill="#000640" stroke="none" fill-rule="evenodd"></path></svg>