<svg xmlns="http://www.w3.org/2000/svg" width="24" height="24" fill="currentColor" class="mmi mmi-bottleteat" viewBox="0 0 24 24"><path d="M11.442 1.044 C 10.196 1.235,9.067 2.176,8.652 3.368 C 8.523 3.739,8.443 4.182,8.441 4.540 C 8.440 4.759,8.769 7.038,8.857 7.420 C 8.873 7.489,8.825 7.518,8.508 7.633 C 7.535 7.984,6.332 8.694,5.500 9.408 C 4.744 10.057,4.188 10.691,3.632 11.539 C 2.788 12.825,2.313 14.131,2.057 15.865 C 2.040 15.977,2.021 15.992,1.875 16.012 C 1.503 16.061,1.137 16.369,1.042 16.711 C 1.016 16.803,1.000 17.516,1.000 18.572 C 1.000 20.439,1.016 20.616,1.234 21.151 C 1.521 21.857,2.143 22.479,2.849 22.766 C 3.457 23.014,2.925 23.000,12.000 23.000 C 19.300 23.000,20.319 22.993,20.581 22.938 C 21.780 22.691,22.691 21.780,22.938 20.581 C 23.033 20.125,23.029 16.939,22.934 16.660 C 22.816 16.315,22.397 16.000,22.055 16.000 C 21.983 16.000,21.960 15.973,21.944 15.870 C 21.679 14.089,21.202 12.795,20.321 11.469 C 19.345 10.000,18.050 8.856,16.460 8.060 C 16.152 7.906,15.725 7.717,15.512 7.640 C 15.176 7.519,15.127 7.489,15.143 7.420 C 15.229 7.047,15.560 4.759,15.559 4.540 C 15.551 2.957,14.428 1.513,12.898 1.119 C 12.524 1.023,11.817 0.986,11.442 1.044 M12.391 3.057 C 12.992 3.217,13.423 3.698,13.529 4.327 C 13.568 4.561,13.550 4.714,13.285 6.360 C 13.128 7.339,12.999 8.192,13.000 8.255 C 13.000 8.488,13.097 8.699,13.299 8.907 C 13.462 9.074,13.545 9.125,13.740 9.178 C 15.387 9.627,16.514 10.243,17.575 11.275 C 18.637 12.308,19.386 13.602,19.741 15.017 C 19.813 15.305,19.885 15.643,19.901 15.770 L 19.929 16.000 12.005 16.000 C 4.175 16.000,4.080 15.999,4.080 15.922 C 4.080 15.730,4.260 14.942,4.404 14.503 C 4.993 12.710,6.245 11.136,7.856 10.163 C 8.543 9.748,9.270 9.450,10.252 9.180 C 10.649 9.071,10.998 8.651,11.000 8.280 C 11.001 8.203,10.872 7.339,10.715 6.360 C 10.450 4.714,10.432 4.561,10.471 4.327 C 10.627 3.402,11.505 2.821,12.391 3.057 M21.000 19.073 C 21.000 20.308,20.979 20.423,20.701 20.701 C 20.376 21.026,21.144 21.000,12.000 21.000 C 2.856 21.000,3.624 21.026,3.299 20.701 C 3.021 20.423,3.000 20.308,3.000 19.073 L 3.000 18.000 12.000 18.000 L 21.000 18.000 21.000 19.073 " fill="#000640" stroke="none" fill-rule="evenodd"></path></svg>