<svg xmlns="http://www.w3.org/2000/svg" width="24" height="24" fill="currentColor" class="mmi mmi-bottleandglass" viewBox="0 0 24 24"><path d="M7.664 1.063 C 7.436 1.146,7.257 1.297,7.131 1.511 L 7.020 1.700 7.009 5.137 L 6.998 8.574 6.440 9.144 C 5.601 10.001,5.264 10.578,5.082 11.471 C 5.002 11.860,5.000 12.000,5.000 16.078 C 5.000 20.673,4.995 20.565,5.234 21.151 C 5.521 21.858,6.143 22.479,6.851 22.767 C 7.447 23.010,7.306 23.004,12.260 22.991 L 16.780 22.980 17.169 22.845 C 18.118 22.517,18.856 21.744,19.115 20.808 C 19.162 20.638,19.366 19.154,19.607 17.224 L 20.018 13.931 19.946 13.701 C 19.895 13.540,19.821 13.419,19.700 13.298 C 19.402 13.000,19.400 13.000,17.053 13.000 L 15.000 13.000 15.000 12.436 C 15.000 11.482,14.801 10.762,14.343 10.059 C 14.200 9.840,13.912 9.503,13.559 9.143 L 13.000 8.573 13.000 5.213 C 13.000 1.430,13.014 1.612,12.701 1.299 C 12.398 0.996,12.430 1.000,9.983 1.003 C 8.210 1.005,7.792 1.016,7.664 1.063 M11.000 3.500 L 11.000 4.000 10.000 4.000 L 9.000 4.000 9.000 3.500 L 9.000 3.000 10.000 3.000 L 11.000 3.000 11.000 3.500 M11.008 7.650 C 11.019 9.175,11.026 9.311,11.095 9.440 C 11.136 9.517,11.489 9.904,11.880 10.300 C 12.888 11.324,12.960 11.460,12.991 12.410 L 13.010 13.000 12.432 13.000 C 11.738 13.000,11.547 13.051,11.296 13.302 C 11.179 13.419,11.105 13.542,11.055 13.701 L 10.982 13.930 11.375 17.095 C 11.733 19.974,11.825 20.641,11.903 20.910 L 11.929 21.000 9.892 21.000 C 7.584 21.000,7.600 21.002,7.298 20.700 C 6.979 20.381,6.996 20.661,7.009 15.976 L 7.020 11.820 7.116 11.580 C 7.274 11.186,7.378 11.054,8.139 10.280 C 8.753 9.656,8.877 9.509,8.934 9.343 C 8.991 9.172,9.000 8.933,9.000 7.573 L 9.000 6.000 9.998 6.000 L 10.997 6.000 11.008 7.650 M17.535 17.640 C 17.225 20.117,17.198 20.293,17.096 20.481 C 16.973 20.707,16.798 20.856,16.556 20.942 C 16.313 21.027,14.682 21.025,14.438 20.939 C 14.190 20.852,14.034 20.718,13.907 20.485 C 13.801 20.292,13.778 20.138,13.465 17.640 L 13.135 15.000 15.500 15.000 L 17.865 15.000 17.535 17.640 " fill="#000640" stroke="none" fill-rule="evenodd"></path></svg>