<svg xmlns="http://www.w3.org/2000/svg" width="24" height="24" fill="currentColor" class="mmi mmi-bowlerhat" viewBox="0 0 24 24"><path d="M11.200 4.044 C 8.467 4.307,6.006 6.031,4.800 8.529 C 4.402 9.351,4.142 10.259,4.042 11.168 C 4.017 11.400,4.000 12.564,4.000 14.058 C 4.000 15.554,3.985 16.560,3.963 16.560 C 3.884 16.560,2.998 16.120,2.600 15.883 C 2.369 15.745,2.025 15.518,1.836 15.377 C 1.334 15.004,1.056 14.928,0.678 15.061 C 0.437 15.146,0.260 15.291,0.131 15.511 C 0.036 15.673,0.020 15.744,0.020 16.003 C 0.020 16.414,0.136 16.602,0.610 16.959 C 2.476 18.364,5.307 19.371,8.540 19.779 C 9.892 19.950,10.394 19.979,12.000 19.979 C 13.607 19.979,14.109 19.950,15.460 19.779 C 18.690 19.371,21.470 18.385,23.361 16.977 C 23.871 16.598,23.972 16.447,23.992 16.040 C 24.002 15.832,23.987 15.696,23.945 15.595 C 23.789 15.229,23.439 15.001,23.029 15.000 C 22.731 15.000,22.585 15.064,22.164 15.377 C 21.601 15.796,20.516 16.403,20.090 16.537 L 20.000 16.565 20.000 14.053 C 19.999 12.636,19.982 11.383,19.959 11.180 C 19.645 8.369,17.951 5.982,15.412 4.773 C 14.124 4.159,12.651 3.904,11.200 4.044 M13.041 6.097 C 14.371 6.333,15.638 7.046,16.506 8.045 C 17.417 9.095,17.910 10.332,17.986 11.761 L 18.011 12.221 17.296 12.372 C 15.720 12.705,14.546 12.879,13.341 12.958 C 11.208 13.098,9.031 12.882,6.140 12.242 L 6.020 12.216 6.026 11.778 C 6.050 9.922,7.064 8.091,8.660 7.025 C 9.725 6.313,10.873 5.981,12.140 6.019 C 12.448 6.029,12.853 6.063,13.041 6.097 M6.787 14.420 C 10.494 15.172,13.439 15.183,17.074 14.458 C 17.565 14.360,17.975 14.280,17.984 14.280 C 17.993 14.280,18.000 14.952,18.000 15.773 L 18.000 17.266 17.550 17.371 C 13.937 18.215,10.063 18.215,6.450 17.371 L 6.000 17.266 6.000 15.773 C 6.000 14.605,6.011 14.280,6.050 14.280 C 6.078 14.280,6.409 14.343,6.787 14.420 " fill="#000640" stroke="none" fill-rule="evenodd"></path></svg>