<svg xmlns="http://www.w3.org/2000/svg" width="24" height="24" fill="currentColor" class="mmi mmi-bowtie" viewBox="0 0 24 24"><path d="M3.380 4.097 C 2.884 4.214,2.522 4.389,2.109 4.712 C 1.669 5.057,1.351 5.523,1.133 6.141 L 1.020 6.460 1.009 11.640 C 0.996 17.292,0.990 17.123,1.223 17.695 C 1.551 18.503,2.302 19.167,3.200 19.445 C 3.633 19.580,4.373 19.580,4.799 19.446 C 5.205 19.319,5.317 19.259,7.425 18.054 L 9.270 17.000 12.000 17.000 L 14.730 17.000 16.575 18.054 C 18.683 19.259,18.795 19.319,19.201 19.446 C 19.627 19.580,20.367 19.580,20.800 19.445 C 21.699 19.167,22.440 18.513,22.768 17.708 C 23.011 17.109,23.004 17.317,22.991 11.640 L 22.980 6.460 22.867 6.141 C 22.581 5.329,22.122 4.781,21.398 4.387 C 20.935 4.134,20.615 4.060,20.000 4.061 C 19.595 4.062,19.400 4.080,19.220 4.135 C 19.088 4.175,18.038 4.611,16.886 5.104 L 14.792 6.000 11.999 6.000 L 9.207 6.000 7.193 5.137 C 6.086 4.662,5.045 4.229,4.880 4.174 C 4.501 4.047,3.754 4.009,3.380 4.097 M6.108 6.849 L 8.000 7.659 8.000 9.329 L 8.000 11.000 6.925 11.000 C 5.764 11.000,5.642 11.017,5.374 11.222 C 5.301 11.277,5.192 11.408,5.131 11.511 C 5.036 11.672,5.020 11.744,5.020 12.000 C 5.020 12.256,5.036 12.328,5.131 12.489 C 5.192 12.592,5.301 12.723,5.374 12.778 C 5.642 12.983,5.764 13.000,6.925 13.000 L 8.000 13.000 8.000 14.212 L 8.000 15.423 6.258 16.422 C 4.520 17.417,4.249 17.555,4.017 17.558 C 3.601 17.564,3.173 17.254,3.060 16.865 C 3.006 16.681,3.000 16.040,3.009 11.698 L 3.020 6.740 3.131 6.551 C 3.322 6.226,3.637 6.045,4.018 6.042 C 4.189 6.040,4.479 6.153,6.108 6.849 M20.499 6.177 C 20.710 6.301,20.902 6.544,20.961 6.763 C 20.987 6.861,20.998 8.616,20.991 11.867 L 20.980 16.820 20.863 17.032 C 20.646 17.423,20.216 17.624,19.801 17.528 C 19.671 17.498,18.984 17.128,17.802 16.453 L 16.000 15.423 16.000 14.211 L 16.000 13.000 17.073 13.000 C 17.967 13.000,18.178 12.989,18.340 12.934 C 18.709 12.808,19.000 12.396,19.000 12.000 C 19.000 11.604,18.709 11.192,18.340 11.066 C 18.178 11.011,17.967 11.000,17.073 11.000 L 16.000 11.000 16.000 9.329 L 16.000 7.659 17.890 6.847 L 19.780 6.036 20.047 6.052 C 20.244 6.065,20.362 6.097,20.499 6.177 M14.000 11.500 L 14.000 15.000 12.000 15.000 L 10.000 15.000 10.000 11.500 L 10.000 8.000 12.000 8.000 L 14.000 8.000 14.000 11.500 " fill="#000640" stroke="none" fill-rule="evenodd"></path></svg>