<svg xmlns="http://www.w3.org/2000/svg" width="24" height="24" fill="currentColor" class="mmi mmi-boxpackage" viewBox="0 0 24 24"><path d="M11.746 1.039 C 11.684 1.059,9.344 1.990,6.546 3.108 C 1.797 5.005,1.449 5.151,1.296 5.304 C 0.976 5.621,0.998 5.127,1.009 11.822 L 1.020 17.780 1.106 17.940 C 1.154 18.028,1.253 18.157,1.326 18.228 C 1.426 18.323,2.766 18.943,6.520 20.631 C 9.303 21.883,11.641 22.928,11.716 22.953 C 11.889 23.013,12.111 23.013,12.284 22.953 C 12.359 22.928,14.697 21.883,17.480 20.631 C 21.234 18.943,22.574 18.323,22.674 18.228 C 22.747 18.157,22.846 18.028,22.894 17.940 L 22.980 17.780 22.991 11.822 C 23.002 5.127,23.024 5.621,22.704 5.304 C 22.550 5.151,22.200 5.004,17.400 3.086 C 12.124 0.978,12.036 0.946,11.746 1.039 M15.670 4.549 C 17.633 5.334,19.240 5.987,19.240 6.000 C 19.240 6.014,18.734 6.227,18.116 6.474 L 16.992 6.923 13.376 5.472 C 11.387 4.675,9.760 4.011,9.760 3.998 C 9.760 3.955,11.979 3.084,12.040 3.103 C 12.073 3.114,13.707 3.765,15.670 4.549 M10.670 6.549 C 12.633 7.334,14.240 7.987,14.240 8.000 C 14.240 8.014,13.734 8.227,13.116 8.474 L 11.992 8.923 8.376 7.472 C 6.387 6.675,4.760 6.011,4.760 5.998 C 4.760 5.955,6.979 5.084,7.040 5.103 C 7.073 5.114,8.707 5.765,10.670 6.549 M7.140 9.136 L 10.980 10.672 10.990 15.559 C 10.997 18.682,10.986 20.442,10.962 20.433 C 10.941 20.426,9.141 19.619,6.963 18.640 L 3.002 16.860 3.001 12.170 L 3.000 7.481 3.150 7.540 C 3.232 7.573,5.028 8.291,7.140 9.136 M20.999 12.170 L 20.998 16.860 17.037 18.640 C 14.859 19.619,13.059 20.426,13.038 20.433 C 13.014 20.442,13.003 18.682,13.010 15.559 L 13.020 10.672 17.000 9.078 C 19.189 8.201,20.984 7.483,20.990 7.482 C 20.996 7.481,21.000 9.591,20.999 12.170 " fill="#000640" stroke="none" fill-rule="evenodd"></path></svg>