<svg xmlns="http://www.w3.org/2000/svg" width="24" height="24" fill="currentColor" class="mmi mmi-boxpackage-v2" viewBox="0 0 24 24"><path d="M3.503 2.042 C 2.572 2.199,1.727 2.840,1.312 3.704 C 1.057 4.233,1.033 4.364,1.011 5.320 C 0.989 6.278,1.034 6.654,1.224 7.122 C 1.508 7.821,2.094 8.428,2.789 8.741 L 2.998 8.835 3.010 14.187 C 3.024 20.161,2.998 19.644,3.312 20.296 C 3.614 20.924,4.095 21.398,4.740 21.704 C 5.401 22.017,4.993 22.000,12.000 22.000 C 19.007 22.000,18.599 22.017,19.260 21.704 C 19.920 21.391,20.391 20.920,20.704 20.260 C 21.013 19.606,21.000 19.887,21.000 14.033 L 21.000 8.836 21.190 8.752 C 22.101 8.353,22.771 7.501,22.941 6.525 C 23.022 6.061,23.020 4.875,22.937 4.434 C 22.767 3.532,22.137 2.716,21.296 2.312 C 20.634 1.993,21.532 2.022,12.120 2.015 C 7.489 2.012,3.611 2.024,3.503 2.042 M20.340 4.066 C 20.593 4.153,20.847 4.407,20.934 4.660 C 20.985 4.809,21.000 5.004,21.000 5.500 C 21.000 6.266,20.955 6.447,20.701 6.701 C 20.376 7.026,21.144 7.000,11.998 7.000 C 3.106 7.000,3.684 7.015,3.374 6.778 C 3.301 6.723,3.192 6.592,3.131 6.489 L 3.020 6.300 3.020 5.500 L 3.020 4.700 3.131 4.511 C 3.256 4.298,3.449 4.136,3.670 4.057 C 3.793 4.013,5.268 4.003,11.983 4.002 C 19.479 4.000,20.162 4.005,20.340 4.066 M19.000 14.073 C 19.000 19.774,19.021 19.381,18.701 19.701 C 18.379 20.023,18.903 20.000,11.998 20.000 C 5.296 20.000,5.682 20.013,5.374 19.778 C 5.301 19.723,5.192 19.592,5.131 19.489 L 5.020 19.300 5.009 14.150 L 4.999 9.000 11.999 9.000 L 19.000 9.000 19.000 14.073 M9.664 11.063 C 9.436 11.146,9.257 11.297,9.131 11.511 C 9.036 11.672,9.020 11.744,9.020 12.000 C 9.020 12.256,9.036 12.328,9.131 12.489 C 9.192 12.592,9.301 12.723,9.374 12.778 C 9.664 13.000,9.670 13.000,11.998 13.000 C 14.428 13.000,14.399 13.003,14.701 12.701 C 15.092 12.310,15.092 11.690,14.701 11.299 C 14.398 10.996,14.430 11.000,11.983 11.003 C 10.210 11.005,9.792 11.016,9.664 11.063 " fill="#000640" stroke="none" fill-rule="evenodd"></path></svg>