<svg xmlns="http://www.w3.org/2000/svg" width="24" height="24" fill="currentColor" class="mmi mmi-bra" viewBox="0 0 24 24"><path d="M5.664 2.063 C 5.456 2.139,5.267 2.287,5.162 2.457 C 5.115 2.533,4.628 4.163,4.080 6.079 L 3.084 9.563 2.824 10.012 C 2.038 11.366,1.463 12.954,1.213 14.460 C 1.112 15.068,1.112 16.535,1.213 17.069 C 1.650 19.390,2.963 21.025,4.910 21.675 C 6.671 22.263,8.931 22.121,11.468 21.265 L 11.996 21.087 12.308 21.204 C 13.623 21.698,15.172 22.023,16.420 22.067 C 18.842 22.151,20.681 21.312,21.782 19.620 C 23.466 17.033,23.230 13.534,21.130 9.926 C 20.916 9.558,20.895 9.493,19.917 6.071 C 18.871 2.411,18.882 2.445,18.589 2.227 C 18.060 1.834,17.276 2.085,17.061 2.715 C 17.028 2.814,17.000 2.950,17.000 3.017 C 17.000 3.085,17.405 4.558,17.900 6.290 C 18.395 8.022,18.800 9.456,18.800 9.477 C 18.800 9.498,18.643 9.609,18.450 9.724 C 17.265 10.434,16.361 11.119,15.507 11.956 C 14.155 13.280,13.193 14.756,12.104 17.177 L 11.998 17.415 11.682 16.726 C 10.712 14.612,9.761 13.194,8.473 11.938 C 7.655 11.141,6.665 10.391,5.550 9.724 C 5.357 9.609,5.200 9.498,5.200 9.477 C 5.200 9.456,5.605 8.022,6.100 6.290 C 6.595 4.558,7.000 3.076,7.000 2.997 C 7.000 2.326,6.293 1.832,5.664 2.063 M4.913 11.684 C 5.889 12.307,6.528 12.811,7.206 13.492 C 8.376 14.668,9.219 16.045,10.296 18.540 L 10.676 19.420 10.528 19.472 C 10.181 19.594,9.296 19.807,8.740 19.901 C 7.270 20.152,6.071 20.052,5.140 19.600 C 4.441 19.262,3.997 18.810,3.630 18.065 C 2.932 16.651,2.955 14.906,3.696 12.870 C 3.886 12.348,4.334 11.360,4.381 11.360 C 4.395 11.360,4.635 11.506,4.913 11.684 M19.735 11.530 C 19.889 11.795,20.195 12.496,20.368 12.980 C 21.006 14.756,21.055 16.493,20.504 17.767 C 20.252 18.350,20.038 18.680,19.679 19.039 C 19.137 19.581,18.490 19.887,17.592 20.025 C 16.827 20.142,15.602 20.051,14.560 19.799 C 14.119 19.692,13.388 19.478,13.351 19.444 C 13.315 19.411,13.915 18.009,14.346 17.120 C 15.449 14.844,16.595 13.423,18.320 12.193 C 18.647 11.960,19.571 11.364,19.608 11.362 C 19.624 11.361,19.681 11.437,19.735 11.530 " fill="#000640" stroke="none" fill-rule="evenodd"></path></svg>