<svg xmlns="http://www.w3.org/2000/svg" width="24" height="24" fill="currentColor" class="mmi mmi-breadloaf" viewBox="0 0 24 24"><path d="M11.920 1.005 C 8.146 1.111,5.037 1.872,3.097 3.165 C 2.584 3.506,1.854 4.206,1.604 4.597 C 1.372 4.958,1.237 5.407,1.212 5.900 C 1.178 6.576,1.249 6.818,2.123 9.008 C 2.596 10.190,2.900 11.005,2.910 11.117 C 2.922 11.243,2.690 12.608,2.159 15.520 C 1.407 19.651,1.392 19.749,1.411 20.160 C 1.441 20.815,1.666 21.399,2.083 21.908 C 2.455 22.363,3.042 22.739,3.640 22.907 C 3.888 22.977,4.284 22.980,12.000 22.980 C 19.716 22.980,20.112 22.977,20.360 22.907 C 21.208 22.669,21.930 22.072,22.301 21.301 C 22.489 20.910,22.564 20.605,22.588 20.140 C 22.608 19.752,22.585 19.611,21.844 15.540 C 21.424 13.230,21.080 11.264,21.080 11.171 C 21.080 11.046,21.264 10.539,21.793 9.211 C 22.186 8.226,22.536 7.312,22.572 7.180 C 22.722 6.630,22.732 5.935,22.598 5.431 C 22.457 4.901,22.168 4.446,21.630 3.905 C 20.176 2.446,18.182 1.478,15.940 1.143 C 15.073 1.013,13.522 0.960,11.920 1.005 M15.586 3.117 C 17.464 3.397,18.935 4.082,20.125 5.229 C 20.602 5.689,20.696 5.880,20.672 6.331 C 20.655 6.647,20.626 6.732,19.929 8.480 C 19.530 9.481,19.176 10.417,19.142 10.560 C 19.011 11.120,19.021 11.190,19.845 15.740 C 20.473 19.207,20.608 20.014,20.584 20.169 C 20.545 20.423,20.346 20.710,20.103 20.859 L 19.906 20.980 13.550 20.990 L 7.193 21.001 7.217 20.890 C 7.230 20.830,7.619 18.701,8.080 16.160 C 8.979 11.215,8.985 11.173,8.861 10.586 C 8.829 10.435,8.474 9.490,8.072 8.486 C 7.363 6.712,7.342 6.650,7.327 6.329 C 7.306 5.876,7.400 5.687,7.875 5.229 C 9.232 3.921,10.928 3.224,13.240 3.024 C 13.680 2.986,15.081 3.041,15.586 3.117 M6.198 4.070 C 5.752 4.553,5.475 5.063,5.357 5.620 C 5.276 6.003,5.295 6.642,5.400 7.060 C 5.449 7.258,5.804 8.203,6.187 9.160 C 6.626 10.257,6.892 10.974,6.906 11.100 C 6.923 11.255,6.736 12.361,6.064 16.060 C 5.589 18.678,5.190 20.862,5.178 20.914 C 5.157 21.007,5.155 21.008,4.625 20.994 C 4.115 20.981,4.086 20.975,3.897 20.859 C 3.654 20.710,3.454 20.423,3.416 20.169 C 3.392 20.014,3.527 19.207,4.155 15.740 C 4.975 11.214,4.982 11.161,4.860 10.584 C 4.828 10.432,4.460 9.451,4.042 8.404 C 3.624 7.357,3.261 6.408,3.236 6.296 C 3.161 5.967,3.214 5.756,3.440 5.484 C 3.780 5.076,4.480 4.596,5.213 4.269 C 5.498 4.142,6.356 3.814,6.434 3.802 C 6.441 3.801,6.335 3.921,6.198 4.070 " fill="#000640" stroke="none" fill-rule="evenodd"></path></svg>