<svg xmlns="http://www.w3.org/2000/svg" width="24" height="24" fill="currentColor" class="mmi mmi-brightness-down" viewBox="0 0 24 24"><path d="M11.664 3.063 C 11.436 3.146,11.257 3.297,11.131 3.511 C 11.036 3.672,11.020 3.744,11.020 4.000 C 11.020 4.256,11.036 4.328,11.131 4.489 C 11.470 5.065,12.234 5.168,12.701 4.701 C 12.881 4.521,13.000 4.242,13.000 4.000 C 13.000 3.326,12.295 2.832,11.664 3.063 M7.577 4.175 C 6.951 4.467,6.821 5.303,7.326 5.788 C 7.515 5.969,7.737 6.052,8.025 6.051 C 9.081 6.047,9.368 4.601,8.400 4.163 C 8.150 4.050,7.836 4.055,7.577 4.175 M15.665 4.136 C 15.090 4.350,14.844 5.025,15.146 5.563 C 15.360 5.946,15.811 6.143,16.238 6.041 C 16.926 5.875,17.220 5.066,16.802 4.489 C 16.558 4.153,16.047 3.994,15.665 4.136 M11.200 6.058 C 9.140 6.356,7.476 7.579,6.577 9.455 C 6.182 10.279,6.024 11.009,6.024 12.000 C 6.024 12.991,6.182 13.721,6.577 14.545 C 7.439 16.344,9.016 17.549,10.980 17.909 C 11.468 17.999,12.532 17.999,13.020 17.909 C 14.662 17.608,16.079 16.685,16.986 15.325 C 17.661 14.312,17.975 13.257,17.975 12.000 C 17.975 11.006,17.817 10.279,17.423 9.455 C 16.564 7.663,14.967 6.439,13.041 6.097 C 12.552 6.010,11.660 5.991,11.200 6.058 M4.747 7.063 C 4.178 7.244,3.911 7.976,4.220 8.504 C 4.669 9.270,5.834 9.100,6.041 8.238 C 6.221 7.485,5.494 6.824,4.747 7.063 M18.635 7.055 C 18.255 7.191,17.992 7.497,17.937 7.868 C 17.856 8.406,18.266 8.932,18.808 8.987 C 19.543 9.062,20.092 8.379,19.860 7.679 C 19.693 7.178,19.116 6.884,18.635 7.055 M13.038 8.138 C 15.074 8.700,16.334 10.728,15.917 12.774 C 15.542 14.618,14.024 15.910,12.140 15.988 C 10.282 16.065,8.639 14.848,8.132 13.017 C 8.034 12.663,8.022 12.553,8.022 12.000 C 8.022 11.449,8.034 11.337,8.130 10.989 C 8.565 9.421,9.764 8.338,11.397 8.038 C 11.498 8.019,11.823 8.011,12.120 8.019 C 12.545 8.031,12.741 8.056,13.038 8.138 M3.643 11.069 C 3.291 11.193,3.000 11.614,3.000 12.000 C 3.000 12.527,3.473 13.000,4.000 13.000 C 4.242 13.000,4.521 12.881,4.701 12.701 C 5.454 11.948,4.653 10.712,3.643 11.069 M19.643 11.069 C 19.291 11.193,19.000 11.614,19.000 12.000 C 19.000 12.527,19.473 13.000,20.000 13.000 C 20.242 13.000,20.521 12.881,20.701 12.701 C 21.454 11.948,20.653 10.712,19.643 11.069 M4.750 15.055 C 4.056 15.314,3.862 16.184,4.382 16.704 C 5.076 17.398,6.270 16.720,6.041 15.762 C 5.937 15.332,5.592 15.043,5.148 15.015 C 4.995 15.005,4.842 15.020,4.750 15.055 M18.585 15.056 C 17.814 15.344,17.702 16.406,18.399 16.828 C 18.657 16.985,18.890 17.025,19.162 16.960 C 19.841 16.797,20.136 15.981,19.722 15.409 C 19.478 15.073,18.967 14.914,18.585 15.056 M7.689 17.976 C 7.452 18.054,7.262 18.209,7.131 18.431 C 7.036 18.592,7.020 18.664,7.020 18.920 C 7.020 19.177,7.036 19.247,7.133 19.412 C 7.577 20.168,8.690 20.046,8.946 19.212 C 9.077 18.785,8.879 18.288,8.492 18.071 C 8.243 17.932,7.937 17.896,7.689 17.976 M15.796 17.956 C 15.284 18.059,14.933 18.568,15.016 19.086 C 15.182 20.121,16.651 20.213,16.945 19.206 C 17.152 18.499,16.520 17.811,15.796 17.956 M11.643 19.069 C 11.291 19.193,11.000 19.614,11.000 20.000 C 11.000 20.527,11.473 21.000,12.000 21.000 C 12.242 21.000,12.521 20.881,12.701 20.701 C 13.454 19.948,12.653 18.712,11.643 19.069 " fill="#000640" stroke="none" fill-rule="evenodd"></path></svg>