<svg xmlns="http://www.w3.org/2000/svg" width="24" height="24" fill="currentColor" class="mmi mmi-brightness-up" viewBox="0 0 24 24"><path d="M11.664 1.063 C 11.436 1.146,11.257 1.297,11.131 1.511 L 11.020 1.700 11.008 2.908 C 10.995 4.232,11.007 4.338,11.211 4.606 C 11.678 5.218,12.688 5.062,12.934 4.340 C 13.032 4.052,13.032 1.948,12.934 1.660 C 12.764 1.160,12.165 0.879,11.664 1.063 M6.813 2.363 C 6.229 2.473,5.860 3.097,6.055 3.644 C 6.138 3.876,7.165 5.629,7.298 5.767 C 7.656 6.135,8.301 6.145,8.674 5.788 C 8.932 5.540,9.044 5.184,8.968 4.852 C 8.918 4.634,7.876 2.826,7.688 2.630 C 7.474 2.408,7.132 2.303,6.813 2.363 M16.813 2.364 C 16.593 2.405,16.448 2.484,16.294 2.647 C 16.117 2.834,15.079 4.648,15.032 4.852 C 14.956 5.184,15.068 5.540,15.326 5.788 C 15.699 6.145,16.344 6.135,16.702 5.767 C 16.844 5.621,17.866 3.867,17.951 3.624 C 17.986 3.523,18.000 3.381,17.987 3.255 C 17.927 2.657,17.398 2.256,16.813 2.364 M3.080 6.037 C 2.792 6.125,2.526 6.361,2.415 6.626 C 2.385 6.698,2.360 6.869,2.360 7.006 C 2.360 7.296,2.452 7.520,2.650 7.708 C 2.866 7.914,4.706 8.953,4.909 8.983 C 5.577 9.084,6.166 8.515,6.063 7.869 C 6.024 7.624,5.845 7.327,5.662 7.202 C 5.380 7.010,3.794 6.108,3.644 6.055 C 3.485 5.998,3.234 5.990,3.080 6.037 M11.200 6.058 C 9.140 6.356,7.476 7.579,6.577 9.455 C 6.182 10.279,6.024 11.009,6.024 12.000 C 6.024 12.991,6.182 13.721,6.577 14.545 C 7.439 16.344,9.016 17.549,10.980 17.909 C 11.468 17.999,12.532 17.999,13.020 17.909 C 14.662 17.608,16.079 16.685,16.986 15.325 C 17.661 14.312,17.975 13.257,17.975 12.000 C 17.975 11.006,17.817 10.279,17.423 9.455 C 16.564 7.663,14.967 6.439,13.041 6.097 C 12.552 6.010,11.660 5.991,11.200 6.058 M20.356 6.053 C 20.116 6.142,18.356 7.172,18.232 7.295 C 17.961 7.564,17.870 8.026,18.018 8.381 C 18.207 8.834,18.743 9.092,19.200 8.950 C 19.436 8.876,21.182 7.868,21.350 7.708 C 21.547 7.520,21.640 7.296,21.640 7.006 C 21.640 6.869,21.615 6.698,21.585 6.626 C 21.506 6.436,21.293 6.208,21.107 6.113 C 20.904 6.010,20.547 5.981,20.356 6.053 M13.038 8.138 C 15.074 8.700,16.334 10.728,15.917 12.774 C 15.542 14.618,14.024 15.910,12.140 15.988 C 10.282 16.065,8.639 14.848,8.132 13.017 C 8.034 12.663,8.022 12.553,8.022 12.000 C 8.022 11.449,8.034 11.337,8.130 10.989 C 8.565 9.421,9.764 8.338,11.397 8.038 C 11.498 8.019,11.823 8.011,12.120 8.019 C 12.545 8.031,12.741 8.056,13.038 8.138 M1.643 11.069 C 1.291 11.193,1.000 11.614,1.000 12.000 C 1.000 12.396,1.291 12.808,1.660 12.934 C 1.823 12.989,2.038 13.000,3.000 13.000 C 4.316 13.000,4.421 12.982,4.701 12.701 C 5.092 12.310,5.092 11.690,4.701 11.299 C 4.419 11.017,4.318 11.000,2.983 11.003 C 2.038 11.006,1.787 11.018,1.643 11.069 M19.643 11.069 C 19.291 11.193,19.000 11.614,19.000 12.000 C 19.000 12.396,19.291 12.808,19.660 12.934 C 19.823 12.989,20.038 13.000,21.000 13.000 C 22.316 13.000,22.421 12.982,22.701 12.701 C 23.092 12.310,23.092 11.690,22.701 11.299 C 22.419 11.017,22.318 11.000,20.983 11.003 C 20.038 11.006,19.787 11.018,19.643 11.069 M4.760 15.052 C 4.520 15.143,2.787 16.162,2.650 16.292 C 2.453 16.480,2.360 16.704,2.360 16.994 C 2.360 17.284,2.420 17.449,2.601 17.655 C 2.828 17.913,3.157 18.033,3.497 17.983 C 3.619 17.964,3.945 17.801,4.547 17.455 C 5.760 16.760,5.786 16.741,5.922 16.504 C 6.066 16.251,6.103 16.022,6.041 15.762 C 5.937 15.332,5.592 15.043,5.148 15.015 C 5.000 15.005,4.844 15.020,4.760 15.052 M18.680 15.037 C 18.387 15.126,18.128 15.354,18.018 15.618 C 17.874 15.963,17.967 16.442,18.228 16.700 C 18.367 16.839,20.131 17.865,20.376 17.951 C 20.712 18.068,21.146 17.943,21.399 17.655 C 21.580 17.449,21.640 17.284,21.640 16.994 C 21.640 16.704,21.548 16.480,21.350 16.292 C 21.177 16.128,19.358 15.080,19.168 15.036 C 18.991 14.995,18.817 14.996,18.680 15.037 M7.813 17.963 C 7.597 18.004,7.444 18.085,7.296 18.237 C 7.164 18.371,6.138 20.125,6.055 20.356 C 5.937 20.686,6.041 21.113,6.304 21.376 C 6.675 21.747,7.350 21.737,7.706 21.355 C 7.885 21.163,8.922 19.350,8.968 19.148 C 9.125 18.465,8.508 17.832,7.813 17.963 M15.813 17.964 C 15.270 18.064,14.909 18.612,15.032 19.148 C 15.078 19.350,16.115 21.163,16.294 21.355 C 16.650 21.737,17.327 21.747,17.694 21.376 C 17.951 21.116,18.060 20.691,17.951 20.376 C 17.866 20.133,16.844 18.379,16.702 18.233 C 16.486 18.011,16.135 17.904,15.813 17.964 M11.643 19.069 C 11.407 19.152,11.149 19.416,11.066 19.660 C 10.968 19.948,10.968 22.052,11.066 22.340 C 11.192 22.709,11.604 23.000,12.000 23.000 C 12.396 23.000,12.808 22.709,12.934 22.340 C 13.032 22.052,13.032 19.948,12.934 19.660 C 12.761 19.152,12.172 18.882,11.643 19.069 " fill="#000640" stroke="none" fill-rule="evenodd"></path></svg>