<svg xmlns="http://www.w3.org/2000/svg" width="24" height="24" fill="currentColor" class="mmi mmi-browser" viewBox="0 0 24 24"><path d="M3.503 1.042 C 2.818 1.158,2.117 1.573,1.670 2.127 C 1.445 2.407,1.159 2.980,1.074 3.320 C 0.993 3.647,0.993 20.353,1.074 20.680 C 1.159 21.020,1.445 21.593,1.670 21.873 C 1.950 22.220,2.312 22.501,2.740 22.704 C 3.409 23.021,2.760 23.000,12.000 23.000 C 21.240 23.000,20.591 23.021,21.260 22.704 C 21.920 22.391,22.391 21.920,22.704 21.260 C 23.021 20.591,23.000 21.240,23.000 12.000 C 23.000 2.760,23.021 3.409,22.704 2.740 C 22.398 2.095,21.924 1.614,21.296 1.312 C 20.634 0.993,21.532 1.022,12.120 1.015 C 7.489 1.012,3.611 1.024,3.503 1.042 M20.340 3.066 C 20.593 3.153,20.847 3.407,20.934 3.660 C 20.989 3.822,21.000 4.033,21.000 4.927 L 21.000 6.000 11.998 6.000 L 2.995 6.000 3.008 4.850 L 3.020 3.700 3.131 3.511 C 3.256 3.298,3.449 3.136,3.670 3.057 C 3.793 3.013,5.268 3.003,11.983 3.002 C 19.479 3.000,20.162 3.005,20.340 3.066 M21.000 14.073 C 21.000 20.894,21.023 20.379,20.701 20.701 C 20.376 21.026,21.144 21.000,11.998 21.000 C 3.106 21.000,3.684 21.015,3.374 20.778 C 3.301 20.723,3.192 20.592,3.131 20.489 L 3.020 20.300 3.010 14.150 L 2.999 8.000 12.000 8.000 L 21.000 8.000 21.000 14.073 M7.875 11.062 C 7.151 11.193,6.585 11.495,6.040 12.040 C 5.484 12.596,5.191 13.153,5.060 13.908 C 4.917 14.726,5.058 15.511,5.484 16.268 C 5.724 16.693,6.307 17.276,6.732 17.516 C 7.869 18.156,9.131 18.156,10.268 17.516 C 10.693 17.276,11.276 16.693,11.516 16.268 C 11.942 15.511,12.083 14.726,11.940 13.908 C 11.809 13.153,11.516 12.596,10.960 12.040 C 10.123 11.203,9.023 10.855,7.875 11.062 M14.664 12.063 C 14.436 12.146,14.257 12.297,14.131 12.511 C 14.036 12.672,14.020 12.744,14.020 13.000 C 14.020 13.256,14.036 13.328,14.131 13.489 C 14.192 13.592,14.301 13.723,14.374 13.778 C 14.657 13.994,14.715 14.000,16.498 14.000 C 18.371 14.000,18.407 13.995,18.701 13.701 C 19.092 13.310,19.092 12.690,18.701 12.299 C 18.406 12.004,18.373 12.000,16.483 12.003 C 15.145 12.005,14.789 12.017,14.664 12.063 M9.101 13.135 C 9.414 13.278,9.723 13.585,9.867 13.896 C 9.965 14.106,9.980 14.189,9.980 14.500 C 9.980 14.810,9.965 14.893,9.868 15.100 C 9.721 15.415,9.413 15.724,9.104 15.867 C 8.894 15.965,8.811 15.980,8.500 15.980 C 8.190 15.980,8.107 15.965,7.900 15.868 C 7.585 15.721,7.276 15.413,7.133 15.104 C 7.035 14.894,7.020 14.811,7.020 14.500 C 7.020 14.180,7.034 14.111,7.144 13.880 C 7.417 13.307,7.939 12.987,8.561 13.013 C 8.784 13.022,8.923 13.054,9.101 13.135 M14.643 15.069 C 14.291 15.193,14.000 15.614,14.000 16.000 C 14.000 16.242,14.119 16.521,14.299 16.701 C 14.593 16.995,14.629 17.000,16.500 17.000 C 18.371 17.000,18.407 16.995,18.701 16.701 C 19.092 16.310,19.092 15.690,18.701 15.299 C 18.406 15.004,18.373 15.000,16.483 15.003 C 15.085 15.006,14.792 15.016,14.643 15.069 " fill="#000640" stroke="none" fill-rule="evenodd"></path></svg>