<svg xmlns="http://www.w3.org/2000/svg" width="24" height="24" fill="currentColor" class="mmi mmi-buckethat" viewBox="0 0 24 24"><path d="M11.440 2.165 C 8.375 2.328,5.551 4.135,4.064 6.886 C 3.698 7.563,3.378 8.432,3.201 9.233 C 3.054 9.899,3.000 10.553,3.000 11.689 L 3.000 12.758 2.015 14.731 C 0.935 16.894,0.926 16.918,1.059 17.316 C 1.279 17.979,2.887 19.088,4.620 19.773 C 6.661 20.579,9.192 21.000,12.000 21.000 C 14.808 21.000,17.339 20.579,19.380 19.773 C 21.105 19.091,22.722 17.975,22.941 17.316 C 23.073 16.919,23.064 16.894,21.986 14.722 L 21.001 12.740 20.986 11.460 C 20.970 10.166,20.944 9.874,20.776 9.140 C 20.176 6.519,18.458 4.328,16.047 3.106 C 14.615 2.380,13.123 2.076,11.440 2.165 M12.686 4.042 C 15.133 4.289,17.234 5.757,18.299 7.965 C 18.552 8.490,18.791 9.185,18.737 9.238 C 18.650 9.322,16.259 9.767,15.200 9.896 C 14.023 10.040,13.666 10.059,12.240 10.060 C 10.722 10.060,10.289 10.034,8.880 9.857 C 7.748 9.715,5.315 9.288,5.247 9.220 C 5.236 9.209,5.287 9.016,5.361 8.790 C 5.536 8.258,5.973 7.392,6.290 6.952 C 7.772 4.895,10.200 3.791,12.686 4.042 M5.661 11.359 C 9.299 12.075,12.156 12.245,15.100 11.919 C 15.941 11.826,17.471 11.575,18.371 11.384 L 19.002 11.250 18.991 11.814 L 18.980 12.379 18.636 12.526 C 15.045 14.063,10.882 14.291,7.118 13.157 C 6.539 12.982,5.655 12.661,5.250 12.478 L 5.000 12.365 5.000 11.803 C 5.000 11.493,5.014 11.240,5.030 11.240 C 5.046 11.240,5.331 11.294,5.661 11.359 M5.040 14.552 C 6.822 15.260,8.787 15.699,10.793 15.838 C 13.513 16.025,16.490 15.550,19.046 14.519 C 19.315 14.411,19.539 14.326,19.543 14.331 C 19.575 14.368,20.762 16.771,20.752 16.780 C 20.634 16.893,19.824 17.380,19.460 17.557 C 17.594 18.463,15.341 18.927,12.520 18.987 C 9.533 19.049,6.993 18.635,4.971 17.754 C 4.322 17.472,3.867 17.215,3.269 16.796 C 3.223 16.764,4.449 14.314,4.500 14.336 C 4.522 14.345,4.765 14.442,5.040 14.552 " fill="#000640" stroke="none" fill-rule="evenodd"></path></svg>