<svg xmlns="http://www.w3.org/2000/svg" width="24" height="24" fill="currentColor" class="mmi mmi-bug" viewBox="0 0 24 24"><path d="M4.664 1.063 C 4.436 1.146,4.257 1.297,4.131 1.511 L 4.020 1.700 4.008 3.400 C 3.999 4.588,4.009 5.148,4.041 5.260 C 4.135 5.591,4.241 5.688,5.409 6.522 C 6.031 6.966,6.555 7.343,6.573 7.360 C 6.592 7.377,6.544 7.559,6.467 7.765 C 6.284 8.256,6.094 8.914,5.979 9.453 C 5.929 9.691,5.881 9.892,5.874 9.899 C 5.866 9.906,5.085 10.298,4.139 10.771 C 2.826 11.427,2.382 11.668,2.270 11.783 C 2.010 12.051,2.000 12.122,2.000 13.717 C 2.000 14.574,2.017 15.199,2.042 15.289 C 2.103 15.509,2.315 15.762,2.531 15.874 C 2.932 16.080,3.390 16.012,3.700 15.702 C 3.977 15.425,4.000 15.305,4.000 14.113 L 4.000 13.080 4.840 12.660 L 5.680 12.240 5.680 12.830 C 5.680 13.848,5.807 14.864,6.046 15.770 L 6.170 16.239 6.017 16.410 C 5.932 16.503,5.494 16.981,5.042 17.472 C 4.590 17.962,4.175 18.448,4.120 18.551 L 4.020 18.738 4.009 20.430 C 4.001 21.530,4.012 22.177,4.040 22.279 C 4.101 22.506,4.311 22.760,4.531 22.874 C 4.932 23.080,5.390 23.012,5.700 22.702 C 5.989 22.413,6.000 22.342,6.001 20.763 L 6.003 19.380 6.585 18.750 L 7.168 18.120 7.449 18.421 C 8.495 19.541,9.986 20.087,12.000 20.087 C 14.014 20.087,15.505 19.541,16.551 18.421 L 16.832 18.120 17.416 18.756 L 18.000 19.392 18.000 20.766 C 18.000 21.589,18.017 22.200,18.042 22.289 C 18.141 22.647,18.522 22.953,18.917 22.991 C 19.351 23.032,19.800 22.743,19.936 22.332 C 19.995 22.156,20.001 21.931,19.991 20.435 L 19.980 18.738 19.880 18.550 C 19.825 18.447,19.410 17.962,18.958 17.472 C 18.506 16.981,18.067 16.504,17.984 16.411 L 17.833 16.242 17.977 15.671 C 18.187 14.838,18.280 14.121,18.308 13.113 L 18.332 12.245 19.166 12.663 L 20.000 13.080 20.000 14.110 C 20.000 14.696,20.018 15.204,20.042 15.289 C 20.141 15.647,20.522 15.953,20.917 15.991 C 21.347 16.032,21.796 15.745,21.934 15.340 C 22.030 15.058,22.033 12.391,21.937 12.111 C 21.819 11.764,21.721 11.701,19.866 10.774 C 18.917 10.299,18.134 9.906,18.127 9.899 C 18.119 9.892,18.069 9.684,18.016 9.437 C 17.894 8.875,17.714 8.253,17.532 7.766 C 17.455 7.561,17.407 7.378,17.426 7.361 C 17.445 7.343,17.967 6.967,18.587 6.524 C 19.207 6.082,19.752 5.667,19.798 5.603 C 19.993 5.329,20.000 5.258,20.000 3.502 C 20.000 1.628,19.995 1.593,19.700 1.298 C 19.390 0.988,18.932 0.920,18.531 1.126 C 18.315 1.238,18.103 1.491,18.042 1.711 C 18.017 1.799,18.000 2.400,17.999 3.180 L 17.997 4.500 17.448 4.887 C 17.147 5.100,16.799 5.347,16.675 5.436 L 16.450 5.598 16.166 5.226 C 15.796 4.740,15.067 4.036,14.635 3.749 C 14.175 3.443,13.607 3.179,13.131 3.050 C 12.774 2.954,12.675 2.944,12.000 2.944 C 11.323 2.944,11.226 2.953,10.860 3.052 C 10.360 3.186,9.609 3.556,9.180 3.878 C 8.753 4.200,8.177 4.777,7.832 5.229 L 7.550 5.598 7.325 5.436 C 7.201 5.347,6.853 5.100,6.552 4.887 L 6.003 4.500 6.002 3.177 C 6.000 1.666,5.987 1.585,5.701 1.299 C 5.429 1.027,5.018 0.933,4.664 1.063 M12.582 4.982 C 14.086 5.370,15.411 7.161,15.997 9.600 C 16.245 10.628,16.296 11.130,16.297 12.500 C 16.298 13.478,16.283 13.841,16.227 14.220 C 15.872 16.638,14.906 17.766,12.954 18.042 C 12.524 18.103,11.476 18.103,11.046 18.042 C 9.094 17.766,8.128 16.638,7.773 14.220 C 7.717 13.841,7.702 13.478,7.703 12.500 C 7.703 11.418,7.715 11.186,7.793 10.680 C 7.901 9.979,8.074 9.246,8.264 8.680 C 8.459 8.102,8.979 7.053,9.286 6.622 C 9.891 5.770,10.646 5.185,11.400 4.984 C 11.693 4.906,12.284 4.905,12.582 4.982 " fill="#000640" stroke="none" fill-rule="evenodd"></path></svg>