<svg xmlns="http://www.w3.org/2000/svg" width="24" height="24" fill="currentColor" class="mmi mmi-building" viewBox="0 0 24 24"><path d="M3.503 1.042 C 2.570 1.201,1.727 1.840,1.312 2.704 C 0.993 3.367,1.023 2.359,1.010 12.798 C 0.997 23.284,0.971 22.373,1.298 22.700 C 1.626 23.028,0.612 23.000,12.000 23.000 C 23.385 23.000,22.374 23.028,22.701 22.701 C 23.021 22.381,23.000 22.788,23.000 16.957 C 23.000 11.114,23.013 11.394,22.704 10.740 C 22.398 10.095,21.924 9.614,21.296 9.312 C 20.669 9.010,20.852 9.026,17.770 9.010 L 15.000 8.996 15.000 6.383 C 15.000 3.406,14.996 3.357,14.704 2.740 C 14.398 2.095,13.924 1.614,13.296 1.312 C 12.649 1.001,13.051 1.024,8.120 1.015 C 5.689 1.012,3.611 1.023,3.503 1.042 M12.340 3.066 C 12.593 3.153,12.847 3.407,12.934 3.660 C 12.995 3.838,13.000 4.552,13.000 12.427 L 13.000 21.000 8.000 21.000 L 2.999 21.000 3.010 12.350 L 3.020 3.700 3.131 3.511 C 3.256 3.298,3.449 3.136,3.670 3.057 C 3.792 3.014,4.610 3.003,7.983 3.002 C 11.756 3.000,12.164 3.006,12.340 3.066 M5.664 5.063 C 5.436 5.146,5.257 5.297,5.131 5.511 C 5.036 5.672,5.020 5.744,5.020 6.000 C 5.020 6.256,5.036 6.328,5.131 6.489 C 5.470 7.065,6.234 7.168,6.701 6.701 C 7.092 6.310,7.092 5.690,6.701 5.299 C 6.429 5.027,6.018 4.933,5.664 5.063 M5.664 9.063 C 5.436 9.146,5.257 9.297,5.131 9.511 C 5.036 9.672,5.020 9.744,5.020 10.000 C 5.020 10.256,5.036 10.328,5.131 10.489 C 5.470 11.065,6.234 11.168,6.701 10.701 C 7.092 10.310,7.092 9.690,6.701 9.299 C 6.429 9.027,6.018 8.933,5.664 9.063 M9.664 9.063 C 9.436 9.146,9.257 9.297,9.131 9.511 C 9.036 9.672,9.020 9.744,9.020 10.000 C 9.020 10.256,9.036 10.328,9.131 10.489 C 9.470 11.065,10.234 11.168,10.701 10.701 C 10.881 10.521,11.000 10.242,11.000 10.000 C 11.000 9.326,10.295 8.832,9.664 9.063 M20.340 11.066 C 20.455 11.105,20.603 11.201,20.701 11.299 C 21.019 11.617,21.000 11.286,21.000 16.427 L 21.000 21.000 18.000 21.000 L 15.000 21.000 15.000 16.000 L 15.000 11.000 17.573 11.000 C 19.863 11.000,20.167 11.007,20.340 11.066 M5.664 13.063 C 5.436 13.146,5.257 13.297,5.131 13.511 C 5.036 13.672,5.020 13.744,5.020 14.000 C 5.020 14.256,5.036 14.328,5.131 14.489 C 5.470 15.065,6.234 15.168,6.701 14.701 C 7.092 14.310,7.092 13.690,6.701 13.299 C 6.429 13.027,6.018 12.933,5.664 13.063 M9.664 13.063 C 9.436 13.146,9.257 13.297,9.131 13.511 C 9.036 13.672,9.020 13.744,9.020 14.000 C 9.020 14.256,9.036 14.328,9.131 14.489 C 9.470 15.065,10.234 15.168,10.701 14.701 C 10.881 14.521,11.000 14.242,11.000 14.000 C 11.000 13.326,10.295 12.832,9.664 13.063 M17.664 13.063 C 17.436 13.146,17.257 13.297,17.131 13.511 C 17.036 13.672,17.020 13.744,17.020 14.000 C 17.020 14.256,17.036 14.328,17.131 14.489 C 17.470 15.065,18.234 15.168,18.701 14.701 C 18.881 14.521,19.000 14.242,19.000 14.000 C 19.000 13.326,18.295 12.832,17.664 13.063 M17.664 17.063 C 17.436 17.146,17.257 17.297,17.131 17.511 C 17.036 17.672,17.020 17.744,17.020 18.000 C 17.020 18.256,17.036 18.328,17.131 18.489 C 17.470 19.065,18.234 19.168,18.701 18.701 C 18.881 18.521,19.000 18.242,19.000 18.000 C 19.000 17.326,18.295 16.832,17.664 17.063 " fill="#000640" stroke="none" fill-rule="evenodd"></path></svg>