<svg xmlns="http://www.w3.org/2000/svg" width="24" height="24" fill="currentColor" class="mmi mmi-bulletlist" viewBox="0 0 24 24"><path d="M2.956 4.612 C 2.668 4.733,2.516 4.843,2.343 5.053 C 2.098 5.352,2.025 5.570,2.025 6.000 C 2.024 6.324,2.039 6.412,2.127 6.600 C 2.417 7.224,3.095 7.593,3.739 7.477 C 4.235 7.387,4.660 7.059,4.873 6.600 C 4.961 6.413,4.976 6.324,4.976 6.000 C 4.976 5.676,4.961 5.587,4.873 5.400 C 4.722 5.076,4.480 4.825,4.169 4.671 C 3.936 4.557,3.856 4.539,3.541 4.529 C 3.236 4.520,3.145 4.533,2.956 4.612 M7.664 5.063 C 7.436 5.146,7.257 5.297,7.131 5.511 C 7.036 5.672,7.020 5.744,7.020 6.000 C 7.020 6.256,7.036 6.328,7.131 6.489 C 7.192 6.592,7.301 6.723,7.374 6.778 C 7.683 7.014,7.248 7.000,14.498 7.000 C 21.963 7.000,21.378 7.024,21.701 6.701 C 21.881 6.521,22.000 6.242,22.000 6.000 C 22.000 5.758,21.881 5.479,21.701 5.299 C 21.378 4.976,21.966 5.000,14.483 5.003 C 8.805 5.005,7.797 5.014,7.664 5.063 M2.956 10.612 C 2.668 10.733,2.516 10.843,2.343 11.053 C 2.098 11.352,2.025 11.570,2.025 12.000 C 2.024 12.324,2.039 12.412,2.127 12.600 C 2.417 13.224,3.095 13.593,3.739 13.477 C 4.235 13.387,4.660 13.059,4.873 12.600 C 4.961 12.413,4.976 12.324,4.976 12.000 C 4.976 11.676,4.961 11.587,4.873 11.400 C 4.722 11.076,4.480 10.825,4.169 10.671 C 3.936 10.557,3.856 10.539,3.541 10.529 C 3.236 10.520,3.145 10.533,2.956 10.612 M7.664 11.063 C 7.436 11.146,7.257 11.297,7.131 11.511 C 7.036 11.672,7.020 11.744,7.020 12.000 C 7.020 12.256,7.036 12.328,7.131 12.489 C 7.192 12.592,7.301 12.723,7.374 12.778 C 7.683 13.014,7.248 13.000,14.498 13.000 C 21.963 13.000,21.378 13.024,21.701 12.701 C 21.881 12.521,22.000 12.242,22.000 12.000 C 22.000 11.758,21.881 11.479,21.701 11.299 C 21.378 10.976,21.966 11.000,14.483 11.003 C 8.805 11.005,7.797 11.014,7.664 11.063 M2.956 16.612 C 2.668 16.733,2.516 16.843,2.343 17.053 C 2.098 17.352,2.025 17.570,2.025 18.000 C 2.024 18.324,2.039 18.412,2.127 18.600 C 2.417 19.224,3.095 19.593,3.739 19.477 C 4.235 19.387,4.660 19.059,4.873 18.600 C 4.961 18.413,4.976 18.324,4.976 18.000 C 4.976 17.676,4.961 17.587,4.873 17.400 C 4.722 17.076,4.480 16.825,4.169 16.671 C 3.936 16.557,3.856 16.539,3.541 16.529 C 3.236 16.520,3.145 16.533,2.956 16.612 M7.664 17.063 C 7.436 17.146,7.257 17.297,7.131 17.511 C 7.036 17.672,7.020 17.744,7.020 18.000 C 7.020 18.256,7.036 18.328,7.131 18.489 C 7.192 18.592,7.301 18.723,7.374 18.778 C 7.683 19.014,7.248 19.000,14.498 19.000 C 21.963 19.000,21.378 19.024,21.701 18.701 C 21.881 18.521,22.000 18.242,22.000 18.000 C 22.000 17.758,21.881 17.479,21.701 17.299 C 21.378 16.976,21.966 17.000,14.483 17.003 C 8.805 17.005,7.797 17.014,7.664 17.063 " fill="#000640" stroke="none" fill-rule="evenodd"></path></svg>