<svg xmlns="http://www.w3.org/2000/svg" width="24" height="24" fill="currentColor" class="mmi mmi-bus" viewBox="0 0 24 24"><path d="M4.503 1.042 C 3.571 1.200,2.727 1.840,2.312 2.704 C 1.993 3.367,2.023 2.359,2.010 12.798 C 1.997 23.284,1.971 22.373,2.298 22.700 C 2.601 23.003,2.571 23.000,5.000 23.000 C 7.427 23.000,7.399 23.003,7.701 22.701 C 7.979 22.423,8.000 22.308,8.000 21.073 L 8.000 20.000 12.000 20.000 L 16.000 20.000 16.000 21.073 C 16.000 22.308,16.021 22.423,16.299 22.701 C 16.601 23.003,16.573 23.000,19.000 23.000 C 21.427 23.000,21.399 23.003,21.701 22.701 C 22.027 22.375,22.000 23.270,22.000 12.957 C 22.000 2.648,22.022 3.412,21.704 2.740 C 21.398 2.095,20.924 1.614,20.296 1.312 C 19.636 0.994,20.412 1.023,12.120 1.015 C 8.039 1.012,4.611 1.024,4.503 1.042 M19.340 3.066 C 19.455 3.105,19.603 3.201,19.701 3.299 C 20.015 3.613,20.000 3.405,20.000 7.427 L 20.000 11.000 15.431 11.000 C 11.563 11.000,10.872 10.992,10.921 10.945 C 10.954 10.915,11.605 10.392,12.368 9.782 C 13.651 8.759,13.765 8.658,13.863 8.457 C 13.954 8.272,13.967 8.201,13.954 7.966 C 13.934 7.614,13.786 7.356,13.504 7.182 C 13.245 7.022,12.859 6.992,12.591 7.111 C 12.492 7.155,11.340 8.048,10.031 9.095 L 7.650 11.000 5.824 11.000 L 3.998 11.000 4.009 7.350 L 4.020 3.700 4.131 3.511 C 4.256 3.298,4.449 3.136,4.670 3.057 C 4.793 3.013,6.104 3.003,11.983 3.002 C 18.548 3.000,19.162 3.006,19.340 3.066 M20.000 15.500 L 20.000 18.000 12.000 18.000 L 4.000 18.000 4.000 15.500 L 4.000 13.000 12.000 13.000 L 20.000 13.000 20.000 15.500 M6.150 14.041 C 5.722 14.149,5.343 14.465,5.144 14.880 C 5.034 15.111,5.020 15.180,5.020 15.500 C 5.020 15.811,5.035 15.894,5.133 16.104 C 5.276 16.413,5.585 16.721,5.900 16.868 C 6.107 16.965,6.190 16.980,6.500 16.980 C 6.811 16.980,6.894 16.965,7.104 16.867 C 7.413 16.724,7.721 16.415,7.868 16.100 C 7.965 15.893,7.980 15.810,7.980 15.500 C 7.980 15.189,7.965 15.106,7.867 14.896 C 7.725 14.589,7.414 14.278,7.110 14.139 C 6.852 14.022,6.407 13.976,6.150 14.041 M17.150 14.041 C 16.722 14.149,16.343 14.465,16.144 14.880 C 16.034 15.111,16.020 15.180,16.020 15.500 C 16.020 15.811,16.035 15.894,16.133 16.104 C 16.276 16.413,16.585 16.721,16.900 16.868 C 17.107 16.965,17.190 16.980,17.500 16.980 C 17.811 16.980,17.894 16.965,18.104 16.867 C 18.413 16.724,18.721 16.415,18.868 16.100 C 18.965 15.893,18.980 15.810,18.980 15.500 C 18.980 15.189,18.965 15.106,18.867 14.896 C 18.725 14.589,18.414 14.278,18.110 14.139 C 17.852 14.022,17.407 13.976,17.150 14.041 M6.000 20.500 L 6.000 21.000 5.000 21.000 L 4.000 21.000 4.000 20.500 L 4.000 20.000 5.000 20.000 L 6.000 20.000 6.000 20.500 M20.000 20.500 L 20.000 21.000 19.000 21.000 L 18.000 21.000 18.000 20.500 L 18.000 20.000 19.000 20.000 L 20.000 20.000 20.000 20.500 " fill="#000640" stroke="none" fill-rule="evenodd"></path></svg>