<svg xmlns="http://www.w3.org/2000/svg" width="24" height="24" fill="currentColor" class="mmi mmi-cablecar" viewBox="0 0 24 24"><path d="M7.664 1.063 C 7.436 1.146,7.257 1.297,7.131 1.511 C 7.036 1.672,7.020 1.744,7.020 2.000 C 7.020 2.256,7.036 2.328,7.131 2.489 C 7.192 2.592,7.301 2.723,7.374 2.778 C 7.656 2.993,7.721 3.000,9.425 3.000 L 11.000 3.000 11.000 4.998 L 11.000 6.996 8.490 7.010 C 5.684 7.026,5.806 7.015,5.177 7.323 C 4.580 7.616,4.102 8.099,3.815 8.700 C 3.664 9.014,2.000 14.777,2.000 14.982 C 2.000 15.282,2.802 20.675,2.883 20.920 C 3.196 21.869,3.929 22.577,4.920 22.886 L 5.220 22.980 12.020 22.980 L 18.820 22.980 19.140 22.870 C 20.113 22.536,20.811 21.848,21.117 20.920 C 21.198 20.675,22.000 15.282,22.000 14.982 C 22.000 14.914,21.622 13.536,21.160 11.919 C 20.256 8.753,20.191 8.569,19.800 8.090 C 19.442 7.651,18.852 7.270,18.260 7.095 C 18.044 7.032,17.766 7.023,15.510 7.010 L 13.000 6.996 13.000 4.998 L 13.000 3.000 14.573 3.000 C 16.362 3.000,16.409 2.994,16.701 2.701 C 17.092 2.310,17.092 1.690,16.701 1.299 C 16.384 0.982,16.666 1.000,11.983 1.003 C 8.474 1.005,7.795 1.015,7.664 1.063 M11.000 11.500 L 11.000 14.000 7.661 14.000 C 5.008 14.000,4.326 13.990,4.340 13.950 C 4.349 13.922,4.629 12.946,4.961 11.780 C 5.294 10.614,5.605 9.590,5.653 9.504 C 5.758 9.315,5.975 9.134,6.185 9.059 C 6.310 9.014,6.794 9.003,8.670 9.002 L 11.000 9.000 11.000 11.500 M17.769 9.042 C 17.974 9.099,18.243 9.312,18.347 9.502 C 18.395 9.589,18.706 10.614,19.039 11.780 C 19.371 12.946,19.651 13.922,19.660 13.950 C 19.674 13.990,18.992 14.000,16.339 14.000 L 13.000 14.000 13.000 11.500 L 13.000 9.000 15.310 9.000 C 16.778 9.000,17.674 9.016,17.769 9.042 M19.840 16.012 C 19.840 16.186,19.222 20.272,19.178 20.389 C 19.099 20.598,18.787 20.887,18.569 20.952 C 18.340 21.021,5.660 21.021,5.431 20.952 C 5.213 20.887,4.901 20.598,4.822 20.389 C 4.778 20.272,4.160 16.186,4.160 16.012 C 4.160 16.005,7.688 16.000,12.000 16.000 C 16.312 16.000,19.840 16.005,19.840 16.012 " fill="#000640" stroke="none" fill-rule="evenodd"></path></svg>