<svg xmlns="http://www.w3.org/2000/svg" width="24" height="24" fill="currentColor" class="mmi mmi-cactus" viewBox="0 0 24 24"><path d="M11.433 1.040 C 10.843 1.134,10.221 1.380,9.731 1.712 C 8.964 2.233,8.406 3.021,8.132 3.968 L 8.024 4.340 8.002 6.730 L 7.980 9.119 7.490 8.794 L 7.000 8.468 7.000 7.592 C 7.000 6.629,6.959 6.322,6.766 5.849 C 6.493 5.176,5.957 4.625,5.260 4.298 C 4.779 4.072,4.546 4.021,4.000 4.021 C 3.454 4.021,3.221 4.072,2.740 4.298 C 1.843 4.718,1.267 5.448,1.060 6.425 C 0.971 6.842,0.974 10.118,1.063 10.549 C 1.194 11.181,1.470 11.688,1.915 12.113 C 2.061 12.252,3.485 13.297,5.080 14.435 L 7.980 16.503 8.000 19.402 L 8.020 22.300 8.131 22.489 C 8.260 22.709,8.437 22.854,8.678 22.939 C 8.938 23.031,15.056 23.031,15.325 22.939 C 15.570 22.855,15.774 22.677,15.886 22.450 C 15.978 22.265,15.980 22.226,16.000 20.882 L 16.020 19.503 18.920 17.434 C 20.515 16.297,21.939 15.252,22.085 15.113 C 22.530 14.688,22.806 14.181,22.937 13.549 C 23.029 13.105,23.030 9.861,22.938 9.419 C 22.741 8.462,22.149 7.715,21.260 7.298 C 20.779 7.072,20.546 7.021,20.000 7.021 C 19.454 7.021,19.221 7.072,18.740 7.298 C 18.015 7.638,17.465 8.219,17.202 8.925 C 17.036 9.369,17.001 9.656,17.001 10.584 L 17.000 11.468 16.510 11.794 L 16.020 12.119 16.000 8.250 L 15.979 4.380 15.873 3.995 C 15.612 3.046,15.045 2.239,14.269 1.712 C 13.917 1.473,13.343 1.214,12.958 1.120 C 12.572 1.026,11.783 0.984,11.433 1.040 M12.383 3.043 C 12.762 3.113,13.106 3.299,13.404 3.596 C 13.701 3.894,13.887 4.238,13.957 4.617 C 13.987 4.783,14.000 7.302,14.000 12.927 L 14.000 21.000 12.000 21.000 L 10.000 21.000 10.000 12.927 C 10.000 7.302,10.013 4.783,10.043 4.617 C 10.113 4.238,10.299 3.894,10.596 3.596 C 11.085 3.108,11.698 2.918,12.383 3.043 M4.340 6.066 C 4.593 6.153,4.847 6.407,4.934 6.660 C 4.989 6.823,5.000 7.039,5.000 8.002 C 5.000 9.235,5.016 9.356,5.215 9.617 C 5.267 9.685,5.914 10.143,6.654 10.636 L 8.000 11.533 8.000 12.789 C 8.000 13.783,7.990 14.039,7.950 14.015 C 7.923 13.999,6.870 13.251,5.612 12.352 C 4.309 11.423,3.278 10.659,3.217 10.580 C 3.008 10.305,3.004 10.265,3.002 8.497 C 3.000 6.629,3.005 6.593,3.300 6.298 C 3.577 6.020,3.957 5.936,4.340 6.066 M20.340 9.066 C 20.599 9.154,20.850 9.408,20.936 9.669 C 20.996 9.847,21.002 10.067,20.992 11.565 C 20.979 13.408,20.983 13.371,20.745 13.635 C 20.678 13.709,16.249 16.898,16.050 17.015 C 16.010 17.039,16.000 16.783,16.000 15.789 L 16.000 14.533 17.346 13.636 C 18.086 13.143,18.733 12.685,18.785 12.617 C 18.984 12.356,19.000 12.235,19.000 11.002 C 19.000 9.683,19.018 9.580,19.300 9.298 C 19.577 9.020,19.957 8.936,20.340 9.066 " fill="#000640" stroke="none" fill-rule="evenodd"></path></svg>