<svg xmlns="http://www.w3.org/2000/svg" width="24" height="24" fill="currentColor" class="mmi mmi-Calendar-v3" viewBox="0 0 24 24"><path d="M6.643 1.069 C 6.546 1.103,6.392 1.206,6.300 1.298 C 6.052 1.546,6.000 1.741,6.000 2.424 L 6.000 2.993 4.730 3.011 C 3.321 3.030,3.276 3.037,2.704 3.312 C 2.307 3.502,1.941 3.792,1.670 4.127 C 1.445 4.407,1.159 4.980,1.074 5.320 C 0.994 5.647,0.994 19.353,1.074 19.680 C 1.159 20.020,1.445 20.593,1.670 20.873 C 1.950 21.220,2.312 21.501,2.740 21.704 C 3.409 22.021,2.760 22.000,12.000 22.000 C 21.240 22.000,20.591 22.021,21.260 21.704 C 21.458 21.610,21.734 21.442,21.873 21.330 C 22.220 21.050,22.501 20.688,22.704 20.260 C 23.018 19.597,23.000 20.065,23.000 12.500 C 23.000 4.935,23.018 5.403,22.704 4.740 C 22.398 4.095,21.924 3.614,21.296 3.312 C 20.724 3.037,20.679 3.030,19.270 3.011 L 18.000 2.993 18.000 2.424 C 18.000 1.741,17.948 1.546,17.701 1.299 C 17.310 0.908,16.690 0.908,16.299 1.299 C 16.052 1.546,16.000 1.741,16.000 2.427 L 16.000 3.000 12.000 3.000 L 8.000 3.000 8.000 2.427 C 8.000 1.741,7.948 1.546,7.701 1.299 C 7.424 1.021,7.024 0.934,6.643 1.069 M20.340 5.066 C 20.593 5.153,20.847 5.407,20.934 5.660 C 20.989 5.822,21.000 6.033,21.000 6.927 L 21.000 8.000 11.998 8.000 L 2.995 8.000 3.008 6.850 L 3.020 5.700 3.131 5.511 C 3.256 5.298,3.449 5.136,3.670 5.057 C 3.793 5.013,5.268 5.003,11.983 5.002 C 19.479 5.000,20.162 5.005,20.340 5.066 M21.000 14.573 C 21.000 19.714,21.019 19.383,20.701 19.701 C 20.376 20.026,21.144 20.000,11.998 20.000 C 3.106 20.000,3.684 20.015,3.374 19.778 C 3.301 19.723,3.192 19.592,3.131 19.489 L 3.020 19.300 3.009 14.650 L 2.999 10.000 11.999 10.000 L 21.000 10.000 21.000 14.573 M6.664 12.063 C 6.436 12.146,6.257 12.297,6.131 12.511 C 6.036 12.672,6.020 12.744,6.020 13.000 C 6.020 13.256,6.036 13.328,6.131 13.489 C 6.470 14.065,7.234 14.168,7.701 13.701 C 8.092 13.310,8.092 12.690,7.701 12.299 C 7.429 12.027,7.018 11.933,6.664 12.063 M10.664 12.063 C 10.436 12.146,10.257 12.297,10.131 12.511 C 10.036 12.672,10.020 12.744,10.020 13.000 C 10.020 13.256,10.036 13.328,10.131 13.489 C 10.470 14.065,11.234 14.168,11.701 13.701 C 11.881 13.521,12.000 13.242,12.000 13.000 C 12.000 12.326,11.295 11.832,10.664 12.063 M14.664 12.063 C 14.436 12.146,14.257 12.297,14.131 12.511 C 14.036 12.672,14.020 12.744,14.020 13.000 C 14.020 13.256,14.036 13.328,14.131 13.489 C 14.470 14.065,15.234 14.168,15.701 13.701 C 15.881 13.521,16.000 13.242,16.000 13.000 C 16.000 12.326,15.295 11.832,14.664 12.063 M6.664 16.063 C 6.436 16.146,6.257 16.297,6.131 16.511 C 6.036 16.672,6.020 16.744,6.020 17.000 C 6.020 17.256,6.036 17.328,6.131 17.489 C 6.470 18.065,7.234 18.168,7.701 17.701 C 8.092 17.310,8.092 16.690,7.701 16.299 C 7.429 16.027,7.018 15.933,6.664 16.063 M10.664 16.063 C 10.436 16.146,10.257 16.297,10.131 16.511 C 10.036 16.672,10.020 16.744,10.020 17.000 C 10.020 17.256,10.036 17.328,10.131 17.489 C 10.470 18.065,11.234 18.168,11.701 17.701 C 11.881 17.521,12.000 17.242,12.000 17.000 C 12.000 16.326,11.295 15.832,10.664 16.063 " fill="#000640" stroke="none" fill-rule="evenodd"></path></svg>