<svg xmlns="http://www.w3.org/2000/svg" width="24" height="24" fill="currentColor" class="mmi mmi-Calendar-v2" viewBox="0 0 24 24"><path d="M6.643 1.069 C 6.546 1.103,6.392 1.206,6.300 1.298 C 6.052 1.546,6.000 1.741,6.000 2.424 L 6.000 2.993 4.730 3.011 C 3.321 3.030,3.276 3.037,2.704 3.312 C 2.307 3.502,1.941 3.792,1.670 4.127 C 1.445 4.407,1.159 4.980,1.074 5.320 C 0.994 5.647,0.994 19.353,1.074 19.680 C 1.159 20.020,1.445 20.593,1.670 20.873 C 1.950 21.220,2.312 21.501,2.740 21.704 C 3.409 22.021,2.760 22.000,12.000 22.000 C 21.240 22.000,20.591 22.021,21.260 21.704 C 21.458 21.610,21.734 21.442,21.873 21.330 C 22.220 21.050,22.501 20.688,22.704 20.260 C 23.018 19.597,23.000 20.065,23.000 12.500 C 23.000 4.935,23.018 5.403,22.704 4.740 C 22.398 4.095,21.924 3.614,21.296 3.312 C 20.724 3.037,20.679 3.030,19.270 3.011 L 18.000 2.993 18.000 2.424 C 18.000 1.741,17.948 1.546,17.701 1.299 C 17.310 0.908,16.690 0.908,16.299 1.299 C 16.052 1.546,16.000 1.741,16.000 2.427 L 16.000 3.000 12.000 3.000 L 8.000 3.000 8.000 2.427 C 8.000 1.741,7.948 1.546,7.701 1.299 C 7.424 1.021,7.024 0.934,6.643 1.069 M20.340 5.066 C 20.593 5.153,20.847 5.407,20.934 5.660 C 20.989 5.822,21.000 6.033,21.000 6.927 L 21.000 8.000 11.998 8.000 L 2.995 8.000 3.008 6.850 L 3.020 5.700 3.131 5.511 C 3.256 5.298,3.449 5.136,3.670 5.057 C 3.793 5.013,5.268 5.003,11.983 5.002 C 19.479 5.000,20.162 5.005,20.340 5.066 M21.000 14.573 C 21.000 19.714,21.019 19.383,20.701 19.701 C 20.376 20.026,21.144 20.000,11.998 20.000 C 3.106 20.000,3.684 20.015,3.374 19.778 C 3.301 19.723,3.192 19.592,3.131 19.489 L 3.020 19.300 3.009 14.650 L 2.999 10.000 11.999 10.000 L 21.000 10.000 21.000 14.573 M7.150 13.041 C 6.722 13.149,6.343 13.465,6.144 13.880 C 6.034 14.111,6.020 14.180,6.020 14.500 C 6.020 14.811,6.035 14.894,6.133 15.104 C 6.276 15.413,6.585 15.721,6.900 15.868 C 7.107 15.965,7.190 15.980,7.500 15.980 C 7.811 15.980,7.894 15.965,8.104 15.867 C 8.413 15.724,8.721 15.415,8.868 15.100 C 8.965 14.893,8.980 14.810,8.980 14.500 C 8.980 14.189,8.965 14.106,8.867 13.896 C 8.725 13.589,8.414 13.278,8.110 13.139 C 7.852 13.022,7.407 12.976,7.150 13.041 M11.601 13.064 C 11.044 13.214,10.632 13.671,10.523 14.260 C 10.405 14.900,10.776 15.583,11.400 15.873 C 11.587 15.961,11.676 15.976,12.000 15.976 C 12.324 15.976,12.413 15.961,12.600 15.873 C 13.224 15.583,13.595 14.900,13.477 14.260 C 13.366 13.662,12.954 13.211,12.381 13.062 C 12.091 12.986,11.888 12.987,11.601 13.064 M16.150 13.041 C 15.722 13.149,15.343 13.465,15.144 13.880 C 15.034 14.111,15.020 14.180,15.020 14.500 C 15.020 14.811,15.035 14.894,15.133 15.104 C 15.276 15.413,15.585 15.721,15.900 15.868 C 16.107 15.965,16.190 15.980,16.500 15.980 C 16.811 15.980,16.894 15.965,17.104 15.867 C 17.413 15.724,17.721 15.415,17.868 15.100 C 17.965 14.893,17.980 14.810,17.980 14.500 C 17.980 14.189,17.965 14.106,17.867 13.896 C 17.725 13.589,17.414 13.278,17.110 13.139 C 16.852 13.022,16.407 12.976,16.150 13.041 " fill="#000640" stroke="none" fill-rule="evenodd"></path></svg>