<svg xmlns="http://www.w3.org/2000/svg" width="24" height="24" fill="currentColor" class="mmi mmi-calendar-event" viewBox="0 0 24 24"><path d="M6.670 1.175 C 6.446 1.258,6.255 1.420,6.131 1.631 C 6.024 1.813,6.020 1.844,6.007 2.467 L 5.993 3.114 4.727 3.131 C 3.678 3.144,3.419 3.159,3.220 3.217 C 2.197 3.513,1.405 4.304,1.094 5.340 C 1.026 5.566,1.021 5.969,1.010 12.480 C 0.999 18.525,1.005 19.417,1.059 19.682 C 1.281 20.789,2.080 21.656,3.200 22.006 L 3.500 22.100 12.000 22.100 L 20.500 22.100 20.800 22.006 C 21.920 21.656,22.719 20.789,22.941 19.682 C 22.995 19.417,23.001 18.525,22.990 12.480 C 22.979 5.969,22.974 5.566,22.906 5.340 C 22.595 4.304,21.803 3.513,20.780 3.217 C 20.581 3.159,20.322 3.144,19.273 3.131 L 18.007 3.114 17.993 2.464 C 17.980 1.820,17.979 1.811,17.859 1.617 C 17.457 0.964,16.543 0.964,16.141 1.617 C 16.021 1.812,16.020 1.820,16.007 2.467 L 15.993 3.120 11.997 3.120 L 8.000 3.120 7.998 2.530 C 7.996 1.893,7.964 1.738,7.783 1.501 C 7.546 1.190,7.032 1.039,6.670 1.175 M20.330 5.177 C 20.551 5.256,20.744 5.418,20.869 5.631 L 20.980 5.820 20.992 6.970 L 21.005 8.120 12.000 8.120 L 2.995 8.120 3.008 6.970 L 3.020 5.820 3.131 5.631 C 3.256 5.418,3.449 5.256,3.670 5.177 C 3.893 5.098,20.107 5.098,20.330 5.177 M20.991 14.750 C 20.980 19.258,20.978 19.384,20.902 19.538 C 20.858 19.625,20.754 19.763,20.670 19.845 C 20.364 20.142,21.069 20.120,12.000 20.120 C 2.848 20.120,3.634 20.148,3.300 19.814 C 2.982 19.496,3.000 19.807,3.000 14.673 L 3.000 10.120 12.001 10.120 L 21.001 10.120 20.991 14.750 M14.670 13.177 C 14.449 13.256,14.256 13.418,14.131 13.631 L 14.020 13.820 14.007 15.480 C 13.998 16.596,14.009 17.207,14.039 17.344 C 14.098 17.616,14.269 17.839,14.528 17.983 L 14.740 18.100 16.500 18.100 L 18.260 18.100 18.474 17.982 C 18.717 17.847,18.894 17.619,18.960 17.356 C 18.989 17.238,19.000 16.627,18.992 15.500 L 18.980 13.820 18.869 13.631 C 18.744 13.418,18.551 13.256,18.330 13.177 C 18.112 13.099,14.888 13.099,14.670 13.177 " fill="#000640" stroke="none" fill-rule="evenodd"></path></svg>