<svg xmlns="http://www.w3.org/2000/svg" width="24" height="24" fill="currentColor" class="mmi mmi-calendar" viewBox="0 0 24 24"><path d="M6.664 1.063 C 6.436 1.146,6.257 1.297,6.131 1.511 C 6.024 1.693,6.020 1.724,6.007 2.347 L 5.993 2.993 4.727 3.011 C 3.322 3.030,3.276 3.037,2.704 3.312 C 1.836 3.729,1.263 4.466,1.060 5.425 C 0.969 5.851,0.971 19.144,1.062 19.581 C 1.310 20.785,2.215 21.690,3.419 21.938 C 3.681 21.993,4.700 22.000,12.000 22.000 C 21.073 22.000,20.544 22.013,21.150 21.767 C 21.850 21.482,22.482 20.850,22.767 20.150 C 23.011 19.549,23.000 19.925,23.000 12.500 C 23.000 5.074,23.012 5.452,22.766 4.849 C 22.499 4.193,21.964 3.633,21.296 3.312 C 20.724 3.037,20.679 3.030,19.270 3.011 L 18.000 2.993 18.000 2.424 C 18.000 1.741,17.948 1.546,17.700 1.298 C 17.281 0.879,16.570 0.924,16.212 1.393 C 16.031 1.630,16.000 1.781,16.000 2.430 L 16.000 3.000 12.000 3.000 L 8.000 3.000 8.000 2.427 C 8.000 1.741,7.948 1.546,7.701 1.299 C 7.429 1.027,7.018 0.933,6.664 1.063 M20.340 5.066 C 20.593 5.153,20.847 5.407,20.934 5.660 C 20.989 5.822,21.000 6.033,21.000 6.927 L 21.000 8.000 12.000 8.000 L 3.000 8.000 3.000 6.927 C 3.000 5.691,3.021 5.577,3.300 5.298 C 3.617 4.981,2.858 5.007,11.983 5.003 C 19.481 5.000,20.162 5.005,20.340 5.066 M21.000 14.573 C 21.000 19.714,21.019 19.383,20.701 19.701 C 20.376 20.026,21.144 20.000,12.000 20.000 C 2.856 20.000,3.624 20.026,3.299 19.701 C 2.981 19.383,3.000 19.714,3.000 14.573 L 3.000 10.000 12.000 10.000 L 21.000 10.000 21.000 14.573 " fill="#000640" stroke="none" fill-rule="evenodd"></path></svg>