<svg xmlns="http://www.w3.org/2000/svg" width="24" height="24" fill="currentColor" class="mmi mmi-camera-add" viewBox="0 0 24 24"><path d="M4.643 2.069 C 4.407 2.152,4.149 2.416,4.066 2.660 C 4.011 2.822,4.000 3.033,4.000 3.927 L 4.000 5.000 2.927 5.000 C 1.692 5.000,1.577 5.021,1.299 5.299 C 0.908 5.690,0.908 6.310,1.299 6.701 C 1.577 6.979,1.692 7.000,2.927 7.000 L 4.000 7.000 4.000 8.073 C 4.000 9.308,4.021 9.423,4.299 9.701 C 4.690 10.092,5.310 10.092,5.701 9.701 C 5.979 9.423,6.000 9.308,6.000 8.073 L 6.000 7.000 7.073 7.000 C 8.308 7.000,8.423 6.979,8.701 6.701 C 9.092 6.310,9.092 5.690,8.701 5.299 C 8.423 5.021,8.308 5.000,7.073 5.000 L 6.000 5.000 6.000 3.927 C 6.000 2.692,5.979 2.577,5.701 2.299 C 5.424 2.021,5.024 1.934,4.643 2.069 M9.664 2.063 C 9.435 2.147,9.257 2.297,9.131 2.511 C 9.036 2.672,9.020 2.744,9.020 3.000 C 9.020 3.256,9.036 3.328,9.131 3.489 C 9.192 3.592,9.301 3.723,9.374 3.778 C 9.670 4.004,9.618 4.000,12.562 4.000 L 15.273 4.000 15.681 5.222 C 16.131 6.572,16.198 6.702,16.539 6.878 L 16.738 6.980 18.499 7.000 C 20.245 7.020,20.262 7.021,20.450 7.114 C 20.555 7.165,20.694 7.272,20.759 7.351 C 21.014 7.661,21.000 7.296,21.000 13.500 C 21.000 19.843,21.022 19.380,20.701 19.701 C 20.376 20.026,21.144 20.000,12.000 20.000 C 2.856 20.000,3.624 20.026,3.299 19.701 C 2.982 19.384,3.000 19.663,3.000 15.000 C 3.000 10.335,3.018 10.616,2.700 10.298 C 2.390 9.988,1.932 9.920,1.531 10.126 C 1.315 10.238,1.103 10.491,1.042 10.711 C 1.015 10.809,1.000 12.294,1.000 15.072 C 1.000 19.674,0.995 19.564,1.234 20.151 C 1.521 20.857,2.143 21.479,2.849 21.766 C 3.457 22.014,2.925 22.000,12.000 22.000 C 21.073 22.000,20.544 22.013,21.150 21.767 C 21.850 21.482,22.482 20.850,22.767 20.150 C 23.010 19.554,23.000 19.826,23.000 13.500 C 23.000 7.172,23.010 7.447,22.766 6.849 C 22.499 6.193,21.964 5.633,21.296 5.312 C 20.719 5.034,20.692 5.030,19.126 5.004 L 17.711 4.980 17.315 3.772 C 16.875 2.433,16.806 2.300,16.461 2.122 L 16.262 2.020 13.041 2.012 C 10.322 2.006,9.796 2.014,9.664 2.063 M11.340 8.046 C 10.642 8.135,9.813 8.452,9.192 8.868 C 8.805 9.127,8.289 9.622,7.994 10.016 C 7.683 10.433,7.309 11.196,7.180 11.680 C 6.864 12.865,6.982 14.089,7.517 15.180 C 8.038 16.243,8.814 17.007,9.896 17.524 C 11.462 18.271,13.333 18.118,14.824 17.119 C 15.229 16.848,15.848 16.229,16.119 15.824 C 17.283 14.085,17.283 11.915,16.119 10.176 C 15.848 9.771,15.229 9.152,14.824 8.881 C 13.782 8.183,12.560 7.890,11.340 8.046 M12.581 10.062 C 13.782 10.310,14.690 11.218,14.938 12.419 C 15.365 14.482,13.482 16.365,11.419 15.938 C 10.215 15.690,9.310 14.785,9.062 13.581 C 8.686 11.764,10.102 10.023,11.972 10.003 C 12.143 10.001,12.417 10.028,12.581 10.062 " fill="#000640" stroke="none" fill-rule="evenodd"></path></svg>