<svg xmlns="http://www.w3.org/2000/svg" width="24" height="24" fill="currentColor" class="mmi mmi-cameraroll" viewBox="0 0 24 24"><path d="M10.069 1.039 C 7.821 1.258,5.861 2.044,4.101 3.433 C 3.738 3.719,2.719 4.738,2.433 5.101 C 1.175 6.696,0.423 8.428,0.115 10.440 C -0.013 11.274,-0.013 12.726,0.115 13.560 C 0.423 15.572,1.175 17.304,2.433 18.899 C 2.719 19.262,3.738 20.281,4.101 20.567 C 5.686 21.818,7.386 22.559,9.420 22.887 L 9.980 22.977 16.556 22.990 C 23.953 23.004,23.374 23.028,23.700 22.702 C 24.180 22.222,24.052 21.410,23.450 21.114 L 23.260 21.020 20.310 21.000 L 17.360 20.980 17.729 20.700 C 18.229 20.321,19.136 19.433,19.547 18.921 C 20.839 17.310,21.594 15.547,21.905 13.420 C 22.012 12.685,22.003 11.208,21.885 10.440 C 21.578 8.428,20.826 6.696,19.567 5.101 C 19.281 4.738,18.262 3.719,17.899 3.433 C 16.308 2.178,14.548 1.412,12.580 1.120 C 11.946 1.026,10.638 0.984,10.069 1.039 M12.008 3.059 C 14.702 3.374,17.062 4.837,18.560 7.120 C 19.090 7.929,19.589 9.126,19.797 10.092 C 20.669 14.142,18.669 18.255,14.940 20.083 C 11.817 21.614,8.096 21.198,5.369 19.013 C 4.341 18.189,3.507 17.145,2.917 15.940 C 1.698 13.454,1.699 10.515,2.920 8.048 C 3.825 6.220,5.240 4.808,7.060 3.916 C 8.592 3.166,10.337 2.864,12.008 3.059 M10.503 4.040 C 9.828 4.162,9.156 4.550,8.703 5.080 C 7.987 5.917,7.806 7.100,8.234 8.151 C 8.521 8.857,9.143 9.479,9.849 9.766 C 10.989 10.230,12.251 9.978,13.115 9.115 C 14.238 7.992,14.295 6.212,13.246 5.020 C 12.897 4.624,12.276 4.239,11.756 4.097 C 11.491 4.024,10.770 3.991,10.503 4.040 M11.340 6.066 C 11.709 6.192,12.000 6.604,12.000 7.000 C 12.000 7.242,11.881 7.521,11.701 7.701 C 11.310 8.092,10.690 8.092,10.299 7.701 C 9.907 7.309,9.908 6.690,10.300 6.298 C 10.577 6.020,10.957 5.936,11.340 6.066 M5.503 9.040 C 4.828 9.162,4.156 9.550,3.703 10.080 C 2.987 10.917,2.806 12.100,3.234 13.151 C 3.521 13.857,4.143 14.479,4.849 14.766 C 5.989 15.230,7.251 14.978,8.115 14.115 C 9.238 12.992,9.295 11.212,8.246 10.020 C 7.897 9.624,7.276 9.239,6.756 9.097 C 6.491 9.024,5.770 8.991,5.503 9.040 M15.503 9.040 C 14.828 9.162,14.156 9.550,13.703 10.080 C 12.987 10.917,12.806 12.100,13.234 13.151 C 13.521 13.857,14.143 14.479,14.849 14.766 C 15.989 15.230,17.251 14.978,18.115 14.115 C 19.238 12.992,19.295 11.212,18.246 10.020 C 17.897 9.624,17.276 9.239,16.756 9.097 C 16.491 9.024,15.770 8.991,15.503 9.040 M6.340 11.066 C 6.709 11.192,7.000 11.604,7.000 12.000 C 7.000 12.527,6.527 13.000,6.000 13.000 C 5.758 13.000,5.479 12.881,5.299 12.701 C 4.907 12.309,4.908 11.690,5.300 11.298 C 5.577 11.020,5.957 10.936,6.340 11.066 M16.340 11.066 C 16.709 11.192,17.000 11.604,17.000 12.000 C 17.000 12.527,16.527 13.000,16.000 13.000 C 15.758 13.000,15.479 12.881,15.299 12.701 C 14.907 12.309,14.908 11.690,15.300 11.298 C 15.577 11.020,15.957 10.936,16.340 11.066 M10.503 14.040 C 9.828 14.162,9.156 14.550,8.703 15.080 C 7.987 15.917,7.806 17.100,8.234 18.151 C 8.521 18.857,9.143 19.479,9.849 19.766 C 10.989 20.230,12.251 19.978,13.115 19.115 C 14.238 17.992,14.295 16.212,13.246 15.020 C 12.897 14.624,12.276 14.239,11.756 14.097 C 11.491 14.024,10.770 13.991,10.503 14.040 M11.340 16.066 C 11.709 16.192,12.000 16.604,12.000 17.000 C 12.000 17.527,11.527 18.000,11.000 18.000 C 10.758 18.000,10.479 17.881,10.299 17.701 C 9.907 17.309,9.908 16.690,10.300 16.298 C 10.577 16.020,10.957 15.936,11.340 16.066 " fill="#000640" stroke="none" fill-rule="evenodd"></path></svg>