<svg xmlns="http://www.w3.org/2000/svg" width="24" height="24" fill="currentColor" class="mmi mmi-camera" viewBox="0 0 24 24"><path d="M7.674 2.059 C 7.229 2.224,7.164 2.336,6.682 3.776 L 6.274 4.994 4.867 5.011 C 3.306 5.029,3.285 5.032,2.704 5.312 C 2.075 5.614,1.599 6.097,1.298 6.740 C 1.000 7.374,1.020 6.892,1.020 13.500 C 1.020 20.108,1.000 19.626,1.298 20.260 C 1.606 20.918,2.079 21.391,2.740 21.704 C 3.409 22.021,2.760 22.000,12.000 22.000 C 21.240 22.000,20.591 22.021,21.260 21.704 C 21.920 21.391,22.391 20.920,22.704 20.260 C 23.015 19.602,23.000 19.949,23.000 13.500 C 23.000 7.051,23.015 7.398,22.704 6.740 C 22.398 6.095,21.924 5.614,21.296 5.312 C 20.719 5.034,20.691 5.030,19.126 5.004 L 17.712 4.980 17.313 3.769 C 16.871 2.429,16.804 2.299,16.461 2.122 L 16.262 2.020 12.041 2.013 C 8.580 2.006,7.794 2.015,7.674 2.059 M15.682 5.225 C 16.135 6.576,16.201 6.704,16.539 6.878 L 16.738 6.980 18.499 7.000 C 20.245 7.020,20.262 7.021,20.450 7.114 C 20.555 7.165,20.694 7.272,20.759 7.351 C 21.014 7.661,21.000 7.296,21.000 13.500 C 21.000 19.843,21.022 19.380,20.701 19.701 C 20.376 20.026,21.144 20.000,11.998 20.000 C 3.106 20.000,3.684 20.015,3.374 19.778 C 3.301 19.723,3.192 19.592,3.131 19.489 L 3.020 19.300 3.009 13.586 C 3.003 9.830,3.013 7.821,3.039 7.722 C 3.099 7.502,3.290 7.261,3.508 7.133 L 3.700 7.020 5.481 7.000 L 7.262 6.980 7.461 6.878 C 7.798 6.704,7.867 6.573,8.297 5.275 C 8.512 4.629,8.694 4.077,8.702 4.050 C 8.714 4.011,9.408 4.000,11.995 4.000 L 15.272 4.000 15.682 5.225 M11.340 8.046 C 10.849 8.108,10.317 8.273,9.820 8.517 C 8.374 9.226,7.390 10.510,7.075 12.100 C 7.002 12.468,7.002 13.532,7.075 13.900 C 7.482 15.953,9.047 17.518,11.100 17.925 C 11.468 17.998,12.532 17.998,12.900 17.925 C 14.723 17.564,16.191 16.273,16.753 14.539 C 16.940 13.961,16.980 13.680,16.978 12.960 C 16.976 12.381,16.963 12.247,16.869 11.869 C 16.678 11.104,16.374 10.473,15.926 9.912 C 14.822 8.527,13.090 7.823,11.340 8.046 M12.756 10.097 C 13.093 10.189,13.595 10.447,13.873 10.671 C 14.554 11.219,15.000 12.140,15.000 13.000 C 15.000 14.170,14.225 15.329,13.151 15.766 C 11.642 16.380,9.989 15.734,9.298 14.260 C 9.072 13.779,9.021 13.546,9.021 13.000 C 9.021 12.454,9.072 12.221,9.298 11.740 C 9.716 10.848,10.537 10.215,11.503 10.040 C 11.770 9.991,12.491 10.024,12.756 10.097 " fill="#000640" stroke="none" fill-rule="evenodd"></path></svg>