<svg xmlns="http://www.w3.org/2000/svg" width="24" height="24" fill="currentColor" class="mmi mmi-candlegraphs" viewBox="0 0 24 24"><path d="M6.664 1.063 C 6.436 1.146,6.257 1.297,6.131 1.511 L 6.020 1.700 6.009 5.345 L 5.998 8.989 5.729 9.017 C 5.330 9.057,5.138 9.112,4.740 9.298 C 3.844 9.717,3.267 10.448,3.060 11.425 C 2.971 11.844,2.973 17.151,3.062 17.581 C 3.310 18.785,4.215 19.690,5.419 19.938 C 5.583 19.972,5.780 20.000,5.858 20.000 L 6.000 20.000 6.000 21.070 C 6.000 21.684,6.018 22.204,6.042 22.289 C 6.103 22.509,6.315 22.762,6.531 22.874 C 6.932 23.080,7.390 23.012,7.700 22.702 C 7.979 22.423,8.000 22.309,8.000 21.073 L 8.000 20.000 8.142 20.000 C 8.220 20.000,8.417 19.972,8.581 19.938 C 9.780 19.691,10.691 18.780,10.938 17.581 C 11.030 17.138,11.030 11.862,10.938 11.419 C 10.741 10.462,10.149 9.714,9.260 9.298 C 8.861 9.112,8.670 9.057,8.270 9.017 L 8.000 8.989 8.000 5.422 C 8.000 1.406,8.015 1.613,7.701 1.299 C 7.429 1.027,7.018 0.933,6.664 1.063 M16.664 1.063 C 16.436 1.146,16.257 1.297,16.131 1.511 L 16.020 1.700 16.008 2.845 L 15.996 3.989 15.728 4.017 C 15.330 4.057,15.138 4.112,14.740 4.298 C 13.844 4.717,13.267 5.448,13.060 6.425 C 12.970 6.847,12.972 14.148,13.062 14.581 C 13.310 15.785,14.215 16.690,15.419 16.938 C 15.583 16.972,15.780 17.000,15.858 17.000 L 16.000 17.000 16.000 19.570 C 16.000 21.217,16.015 22.194,16.042 22.289 C 16.103 22.509,16.315 22.762,16.531 22.874 C 16.932 23.080,17.390 23.012,17.700 22.702 C 18.008 22.394,18.000 22.478,18.000 19.573 L 18.000 17.000 18.142 17.000 C 18.220 17.000,18.417 16.972,18.581 16.938 C 19.780 16.691,20.691 15.780,20.938 14.581 C 21.031 14.135,21.031 6.865,20.938 6.419 C 20.741 5.462,20.149 4.714,19.260 4.298 C 18.861 4.112,18.670 4.057,18.270 4.017 L 18.000 3.989 18.000 2.922 C 18.000 1.693,17.979 1.577,17.701 1.299 C 17.429 1.027,17.018 0.933,16.664 1.063 M18.340 6.066 C 18.455 6.105,18.603 6.201,18.701 6.299 C 19.015 6.613,19.000 6.396,19.000 10.500 C 19.000 14.604,19.015 14.387,18.701 14.701 C 18.421 14.982,18.316 15.000,17.000 15.000 C 15.684 15.000,15.579 14.982,15.299 14.701 C 14.985 14.387,15.000 14.604,15.000 10.500 C 15.000 6.395,14.984 6.613,15.300 6.298 C 15.577 6.021,15.659 6.007,16.983 6.003 C 17.966 6.000,18.176 6.010,18.340 6.066 M8.340 11.066 C 8.593 11.153,8.847 11.407,8.934 11.660 C 8.993 11.833,9.000 12.142,9.000 14.500 C 9.000 17.486,9.009 17.394,8.701 17.701 C 8.421 17.982,8.316 18.000,7.000 18.000 C 5.684 18.000,5.579 17.982,5.299 17.701 C 4.991 17.394,5.000 17.486,5.000 14.500 C 5.000 11.513,4.991 11.607,5.300 11.298 C 5.577 11.021,5.659 11.007,6.983 11.003 C 7.966 11.000,8.176 11.010,8.340 11.066 " fill="#000640" stroke="none" fill-rule="evenodd"></path></svg>