<svg xmlns="http://www.w3.org/2000/svg" width="24" height="24" fill="currentColor" class="mmi mmi-capejacket" viewBox="0 0 24 24"><path d="M8.640 2.047 C 7.943 2.198,6.991 2.518,6.021 2.928 C 5.354 3.210,3.536 4.098,3.375 4.221 C 3.155 4.389,3.060 4.616,2.806 5.580 C 1.836 9.259,1.204 12.741,1.036 15.329 C 0.954 16.594,1.004 16.919,1.326 17.228 C 1.425 17.322,2.677 17.903,6.140 19.461 C 8.714 20.620,10.955 21.614,11.120 21.671 C 11.389 21.764,11.479 21.775,12.000 21.775 C 12.521 21.775,12.611 21.764,12.880 21.671 C 13.045 21.614,15.286 20.620,17.860 19.461 C 21.323 17.903,22.575 17.322,22.674 17.228 C 22.996 16.919,23.046 16.594,22.964 15.329 C 22.808 12.924,22.302 10.022,21.432 6.541 C 21.235 5.749,21.030 4.966,20.978 4.801 C 20.822 4.309,20.763 4.260,19.685 3.726 C 17.820 2.801,16.263 2.207,15.250 2.033 C 14.944 1.981,14.978 1.976,14.160 2.191 C 13.180 2.449,12.273 2.546,11.491 2.479 C 10.896 2.428,10.154 2.290,9.560 2.120 C 9.125 1.996,8.946 1.981,8.640 2.047 M8.234 4.670 C 8.617 6.259,9.530 7.379,10.784 7.797 C 12.026 8.212,13.359 7.979,14.333 7.177 C 14.974 6.649,15.518 5.697,15.766 4.670 C 15.818 4.456,15.879 4.281,15.902 4.280 C 16.051 4.279,17.430 4.856,18.406 5.328 L 19.151 5.689 19.315 6.314 C 19.735 7.926,20.124 9.682,20.419 11.297 C 20.518 11.845,20.596 12.296,20.590 12.300 C 20.585 12.304,18.699 12.889,16.400 13.600 C 13.059 14.633,12.176 14.893,12.000 14.893 C 11.824 14.893,10.943 14.634,7.600 13.600 C 5.301 12.889,3.415 12.304,3.410 12.300 C 3.393 12.288,3.746 10.391,3.916 9.580 C 4.168 8.380,4.803 5.744,4.853 5.694 C 4.920 5.627,6.653 4.828,7.180 4.621 C 7.554 4.475,7.896 4.339,7.940 4.320 C 8.117 4.244,8.137 4.267,8.234 4.670 M10.640 4.398 C 11.545 4.528,12.581 4.523,13.440 4.384 C 13.627 4.354,13.783 4.332,13.787 4.335 C 13.791 4.338,13.759 4.439,13.717 4.560 C 13.487 5.220,13.094 5.711,12.660 5.883 C 12.321 6.017,11.684 6.019,11.354 5.887 C 10.948 5.725,10.592 5.327,10.371 4.787 C 10.209 4.392,10.192 4.312,10.272 4.336 C 10.309 4.346,10.475 4.375,10.640 4.398 M7.244 15.578 C 10.023 16.437,11.428 16.852,11.660 16.885 C 11.922 16.921,12.077 16.921,12.339 16.885 C 12.570 16.852,13.961 16.441,16.689 15.598 C 18.895 14.916,20.738 14.348,20.784 14.336 C 20.865 14.315,20.870 14.336,20.913 14.847 C 20.938 15.140,20.962 15.486,20.967 15.615 C 20.975 15.846,20.973 15.852,20.838 15.920 C 20.762 15.959,18.810 16.843,16.500 17.885 L 12.300 19.780 12.000 19.780 L 11.700 19.780 7.500 17.885 C 5.190 16.843,3.238 15.959,3.162 15.921 C 3.027 15.852,3.025 15.846,3.033 15.615 C 3.046 15.246,3.130 14.320,3.150 14.320 C 3.160 14.320,5.002 14.886,7.244 15.578 " fill="#000640" stroke="none" fill-rule="evenodd"></path></svg>