<svg xmlns="http://www.w3.org/2000/svg" width="24" height="24" fill="currentColor" class="mmi mmi-capejacket-v2" viewBox="0 0 24 24"><path d="M8.640 2.047 C 7.504 2.293,6.114 2.834,4.348 3.716 C 3.535 4.123,3.319 4.248,3.226 4.367 C 3.096 4.533,2.790 5.341,2.442 6.440 C 1.546 9.264,1.030 12.026,1.023 14.040 C 1.020 14.725,1.026 14.792,1.106 14.940 C 1.262 15.228,1.426 15.339,2.230 15.702 L 3.000 16.050 3.000 17.095 C 3.000 17.691,3.018 18.204,3.042 18.289 C 3.103 18.509,3.315 18.762,3.531 18.874 C 3.932 19.080,4.390 19.012,4.700 18.702 C 4.950 18.452,5.000 18.262,5.000 17.553 C 5.000 17.227,5.006 16.960,5.014 16.960 C 5.021 16.960,5.449 17.151,5.964 17.383 C 6.479 17.616,6.923 17.816,6.950 17.828 C 6.988 17.844,7.000 18.072,7.000 18.774 C 7.001 19.660,7.005 19.709,7.094 19.900 C 7.384 20.522,8.155 20.693,8.652 20.245 C 8.740 20.165,8.855 20.010,8.906 19.900 C 8.987 19.726,8.999 19.638,9.000 19.230 C 9.000 18.972,9.006 18.760,9.014 18.760 C 9.021 18.760,9.449 18.951,9.964 19.183 C 10.479 19.416,10.922 19.616,10.950 19.628 C 10.987 19.643,11.000 19.836,11.000 20.394 C 11.000 20.804,11.019 21.207,11.042 21.289 C 11.103 21.509,11.315 21.762,11.531 21.874 C 11.932 22.080,12.390 22.012,12.700 21.702 C 12.962 21.440,13.000 21.276,13.000 20.397 C 13.000 19.836,13.013 19.643,13.050 19.628 C 13.078 19.616,13.521 19.416,14.036 19.183 C 14.551 18.951,14.979 18.760,14.986 18.760 C 14.994 18.760,15.000 18.972,15.000 19.230 C 15.001 19.638,15.013 19.726,15.094 19.900 C 15.464 20.692,16.536 20.692,16.906 19.900 C 16.995 19.709,16.999 19.660,17.000 18.774 C 17.000 18.072,17.012 17.844,17.050 17.828 C 17.078 17.816,17.521 17.616,18.036 17.383 C 18.551 17.151,18.979 16.960,18.986 16.960 C 18.994 16.960,19.000 17.226,19.000 17.550 C 19.000 18.219,19.030 18.369,19.212 18.607 C 19.570 19.076,20.281 19.121,20.700 18.702 C 20.978 18.424,21.000 18.306,21.000 17.098 L 21.000 16.050 21.770 15.702 C 22.847 15.216,22.963 15.090,22.992 14.373 C 23.034 13.341,22.767 11.192,22.380 9.460 C 21.966 7.604,21.075 4.774,20.783 4.384 C 20.677 4.242,20.530 4.155,19.700 3.738 C 17.866 2.818,16.277 2.209,15.250 2.033 C 14.944 1.981,14.978 1.976,14.160 2.191 C 13.180 2.449,12.273 2.546,11.491 2.479 C 10.896 2.428,10.154 2.290,9.560 2.120 C 9.125 1.996,8.946 1.981,8.640 2.047 M8.234 4.670 C 8.617 6.259,9.530 7.379,10.784 7.797 C 12.026 8.212,13.359 7.979,14.333 7.177 C 14.974 6.649,15.518 5.697,15.766 4.670 C 15.818 4.456,15.879 4.281,15.902 4.280 C 15.961 4.280,16.790 4.597,17.326 4.826 C 17.576 4.933,18.103 5.182,18.497 5.380 L 19.215 5.740 19.349 6.120 C 20.233 8.627,20.843 11.476,20.970 13.683 L 20.980 13.865 16.509 15.877 C 13.475 17.242,12.009 17.883,11.949 17.869 C 11.885 17.855,4.179 14.395,3.144 13.916 L 3.029 13.862 3.053 13.381 C 3.146 11.558,3.733 8.845,4.572 6.360 L 4.782 5.740 5.501 5.378 C 6.391 4.930,7.892 4.293,8.080 4.284 C 8.123 4.282,8.166 4.388,8.234 4.670 M10.640 4.398 C 11.545 4.528,12.581 4.523,13.440 4.384 C 13.627 4.354,13.783 4.332,13.787 4.335 C 13.791 4.338,13.759 4.439,13.717 4.560 C 13.487 5.220,13.094 5.711,12.660 5.883 C 12.321 6.017,11.684 6.019,11.354 5.887 C 10.948 5.725,10.592 5.327,10.371 4.787 C 10.209 4.392,10.192 4.312,10.272 4.336 C 10.309 4.346,10.475 4.375,10.640 4.398 " fill="#000640" stroke="none" fill-rule="evenodd"></path></svg>