<svg xmlns="http://www.w3.org/2000/svg" width="24" height="24" fill="currentColor" class="mmi mmi-caption" viewBox="0 0 24 24"><path d="M2.620 3.025 C 2.576 3.034,2.442 3.061,2.322 3.085 C 1.845 3.182,1.253 3.511,0.886 3.883 C 0.466 4.309,0.217 4.756,0.078 5.335 C 0.003 5.650,0.001 5.858,0.000 11.972 C -0.000 18.880,-0.011 18.550,0.234 19.151 C 0.521 19.857,1.143 20.479,1.849 20.766 C 2.459 21.015,1.826 21.000,12.000 21.000 C 22.173 21.000,21.541 21.014,22.150 20.767 C 22.850 20.482,23.482 19.850,23.767 19.150 C 24.011 18.551,24.000 18.876,24.000 12.000 C 24.000 5.123,24.011 5.449,23.766 4.849 C 23.499 4.193,22.964 3.633,22.296 3.312 C 21.632 2.992,22.653 3.022,12.120 3.015 C 6.939 3.012,2.664 3.016,2.620 3.025 M21.340 5.066 C 21.455 5.105,21.603 5.201,21.701 5.299 C 22.023 5.621,22.000 5.097,22.000 12.000 C 22.000 18.903,22.023 18.379,21.701 18.701 C 21.375 19.027,22.264 19.000,12.000 19.000 C 1.736 19.000,2.625 19.027,2.299 18.701 C 1.977 18.379,2.000 18.903,2.000 12.000 C 2.000 5.096,1.976 5.621,2.300 5.298 C 2.618 4.980,1.742 5.007,11.983 5.003 C 20.412 5.000,21.161 5.005,21.340 5.066 M8.019 8.040 C 7.320 8.142,6.619 8.522,6.120 9.067 C 4.642 10.685,4.642 13.315,6.120 14.933 C 7.178 16.090,8.860 16.324,10.186 15.498 C 10.897 15.054,11.124 14.618,10.934 14.060 C 10.847 13.807,10.593 13.553,10.340 13.466 C 9.963 13.338,9.687 13.397,9.285 13.693 C 8.831 14.027,8.425 14.079,7.978 13.861 C 7.729 13.739,7.401 13.398,7.255 13.111 C 6.925 12.459,6.925 11.541,7.255 10.889 C 7.401 10.602,7.729 10.261,7.978 10.139 C 8.425 9.921,8.831 9.973,9.285 10.307 C 9.687 10.603,9.963 10.662,10.340 10.534 C 10.593 10.447,10.847 10.193,10.934 9.940 C 11.124 9.383,10.897 8.945,10.190 8.505 C 9.532 8.095,8.763 7.930,8.019 8.040 M16.019 8.040 C 15.320 8.142,14.619 8.522,14.120 9.067 C 12.642 10.685,12.642 13.315,14.120 14.933 C 15.178 16.090,16.860 16.324,18.186 15.498 C 18.897 15.054,19.124 14.618,18.934 14.060 C 18.847 13.807,18.593 13.553,18.340 13.466 C 17.963 13.338,17.687 13.397,17.285 13.693 C 16.831 14.027,16.425 14.079,15.978 13.861 C 15.729 13.739,15.401 13.398,15.255 13.111 C 15.107 12.819,15.000 12.351,15.000 12.000 C 15.000 11.649,15.107 11.181,15.255 10.889 C 15.401 10.602,15.729 10.261,15.978 10.139 C 16.425 9.921,16.831 9.973,17.285 10.307 C 17.687 10.603,17.963 10.662,18.340 10.534 C 18.593 10.447,18.847 10.193,18.934 9.940 C 19.124 9.383,18.897 8.945,18.190 8.505 C 17.532 8.095,16.763 7.930,16.019 8.040 " fill="#000640" stroke="none" fill-rule="evenodd"></path></svg>