<svg xmlns="http://www.w3.org/2000/svg" width="24" height="24" fill="currentColor" class="mmi mmi-car-taxi" viewBox="0 0 24 24"><path d="M9.667 1.065 C 9.345 1.164,9.189 1.365,8.763 2.227 L 8.386 2.991 7.663 3.011 C 6.832 3.034,6.633 3.075,6.100 3.338 C 5.508 3.629,5.077 4.056,4.784 4.641 C 4.689 4.830,4.418 5.569,4.181 6.282 C 3.944 6.996,3.738 7.593,3.724 7.609 C 3.709 7.625,3.374 7.500,2.979 7.330 C 2.321 7.048,2.238 7.022,2.000 7.024 C 1.702 7.026,1.495 7.115,1.292 7.326 C 0.917 7.718,0.943 8.373,1.348 8.744 C 1.433 8.822,1.774 8.993,2.262 9.201 L 3.041 9.533 2.349 10.236 C 1.497 11.104,1.297 11.395,1.094 12.066 C 1.028 12.283,1.022 12.627,1.010 16.716 C 0.996 21.692,0.978 21.380,1.298 21.700 C 1.601 22.003,1.571 22.000,4.000 22.000 C 6.427 22.000,6.399 22.003,6.701 21.701 C 6.979 21.423,7.000 21.308,7.000 20.073 L 7.000 19.000 12.000 19.000 L 17.000 19.000 17.000 20.073 C 17.000 21.308,17.021 21.423,17.299 21.701 C 17.601 22.003,17.573 22.000,20.000 22.000 C 22.429 22.000,22.399 22.003,22.702 21.700 C 23.022 21.380,23.004 21.692,22.990 16.716 C 22.978 12.627,22.972 12.283,22.906 12.066 C 22.703 11.395,22.503 11.104,21.651 10.236 L 20.959 9.533 21.737 9.201 C 22.164 9.019,22.581 8.815,22.662 8.748 C 22.975 8.490,23.089 7.980,22.917 7.600 C 22.741 7.212,22.450 7.024,22.020 7.022 C 21.758 7.020,21.694 7.040,21.021 7.329 C 20.626 7.499,20.291 7.625,20.276 7.609 C 20.262 7.593,20.058 7.001,19.823 6.293 C 19.427 5.102,19.208 4.557,19.006 4.263 C 18.853 4.041,18.459 3.667,18.200 3.500 C 17.635 3.134,17.112 3.004,16.199 3.001 L 15.618 3.000 15.239 2.232 C 14.816 1.373,14.664 1.177,14.340 1.066 C 14.168 1.008,13.897 1.000,12.003 1.003 C 10.228 1.005,9.827 1.016,9.667 1.065 M16.900 5.066 C 17.015 5.106,17.163 5.201,17.262 5.300 C 17.424 5.462,17.447 5.522,18.000 7.183 C 18.315 8.128,18.580 8.922,18.590 8.950 C 18.605 8.990,17.270 9.000,12.000 9.000 C 6.730 9.000,5.395 8.990,5.410 8.950 C 5.420 8.922,5.685 8.128,6.000 7.183 C 6.554 5.519,6.576 5.462,6.739 5.299 C 7.051 4.987,6.696 5.007,11.983 5.003 C 16.279 5.000,16.723 5.006,16.900 5.066 M20.207 11.630 C 20.551 11.977,20.865 12.323,20.906 12.400 C 20.975 12.531,20.981 12.690,20.991 14.770 L 21.003 17.000 12.000 17.000 L 2.997 17.000 3.009 14.770 C 3.019 12.690,3.025 12.531,3.094 12.400 C 3.135 12.323,3.449 11.977,3.793 11.630 L 4.419 11.000 12.000 11.000 L 19.581 11.000 20.207 11.630 M5.150 13.041 C 4.722 13.149,4.343 13.465,4.144 13.880 C 4.034 14.111,4.020 14.180,4.020 14.500 C 4.020 14.811,4.035 14.894,4.133 15.104 C 4.276 15.413,4.585 15.721,4.900 15.868 C 5.107 15.965,5.190 15.980,5.500 15.980 C 5.811 15.980,5.894 15.965,6.104 15.867 C 6.413 15.724,6.721 15.415,6.868 15.100 C 6.965 14.893,6.980 14.810,6.980 14.500 C 6.980 14.189,6.965 14.106,6.867 13.896 C 6.725 13.589,6.414 13.278,6.110 13.139 C 5.852 13.022,5.407 12.976,5.150 13.041 M18.150 13.041 C 17.722 13.149,17.343 13.465,17.144 13.880 C 17.034 14.111,17.020 14.180,17.020 14.500 C 17.020 14.811,17.035 14.894,17.133 15.104 C 17.276 15.413,17.585 15.721,17.900 15.868 C 18.107 15.965,18.190 15.980,18.500 15.980 C 18.811 15.980,18.894 15.965,19.104 15.867 C 19.413 15.724,19.721 15.415,19.868 15.100 C 19.965 14.893,19.980 14.810,19.980 14.500 C 19.980 14.189,19.965 14.106,19.867 13.896 C 19.725 13.589,19.414 13.278,19.110 13.139 C 18.852 13.022,18.407 12.976,18.150 13.041 M9.664 14.063 C 9.436 14.146,9.257 14.297,9.131 14.511 C 9.036 14.672,9.020 14.744,9.020 15.000 C 9.020 15.256,9.036 15.328,9.131 15.489 C 9.192 15.592,9.301 15.723,9.374 15.778 C 9.664 16.000,9.670 16.000,11.998 16.000 C 14.428 16.000,14.399 16.003,14.701 15.701 C 15.092 15.310,15.092 14.690,14.701 14.299 C 14.398 13.996,14.430 14.000,11.983 14.003 C 10.210 14.005,9.792 14.016,9.664 14.063 M5.000 19.500 L 5.000 20.000 4.000 20.000 L 3.000 20.000 3.000 19.500 L 3.000 19.000 4.000 19.000 L 5.000 19.000 5.000 19.500 M21.000 19.500 L 21.000 20.000 20.000 20.000 L 19.000 20.000 19.000 19.500 L 19.000 19.000 20.000 19.000 L 21.000 19.000 21.000 19.500 " fill="#000640" stroke="none" fill-rule="evenodd"></path></svg>