<svg xmlns="http://www.w3.org/2000/svg" width="24" height="24" fill="currentColor" class="mmi mmi-car-suv" viewBox="0 0 24 24"><path d="M3.139 4.058 C 2.081 4.250,1.172 5.052,0.844 6.083 C 0.799 6.224,0.590 7.370,0.381 8.629 L -0.000 10.917 0.000 14.529 C 0.000 16.893,0.015 18.191,0.042 18.289 C 0.104 18.512,0.316 18.763,0.539 18.878 C 0.737 18.980,0.739 18.980,1.947 18.992 L 3.156 19.003 3.299 19.300 C 3.668 20.068,4.402 20.675,5.240 20.906 C 5.599 21.004,6.401 21.004,6.760 20.906 C 7.599 20.675,8.332 20.068,8.702 19.298 L 8.846 19.000 12.000 19.000 L 15.154 19.000 15.298 19.298 C 15.579 19.884,16.115 20.421,16.692 20.697 C 17.154 20.918,17.432 20.977,18.000 20.977 C 18.568 20.977,18.846 20.918,19.308 20.697 C 19.885 20.421,20.421 19.884,20.702 19.298 L 20.846 19.000 21.996 19.000 C 23.316 19.000,23.420 18.982,23.701 18.701 C 23.875 18.527,24.000 18.243,24.000 18.019 C 24.000 17.719,23.199 12.326,23.117 12.080 C 22.835 11.224,22.203 10.554,21.354 10.211 C 20.941 10.045,20.585 10.003,19.560 10.001 L 18.619 10.000 17.500 7.753 C 16.315 5.375,16.133 5.066,15.714 4.726 C 15.254 4.352,14.772 4.129,14.237 4.042 C 13.835 3.977,3.505 3.992,3.139 4.058 M8.000 8.000 L 8.000 10.000 5.100 10.000 C 2.510 10.000,2.200 9.993,2.200 9.938 C 2.200 9.764,2.730 6.732,2.783 6.607 C 2.889 6.353,3.152 6.125,3.440 6.037 C 3.495 6.021,4.543 6.005,5.770 6.003 L 8.000 6.000 8.000 8.000 M14.096 6.065 C 14.463 6.190,14.518 6.275,15.475 8.190 C 15.962 9.163,16.360 9.969,16.360 9.980 C 16.360 9.991,14.929 10.000,13.180 10.000 L 10.000 10.000 10.000 8.000 L 10.000 6.000 11.953 6.000 C 13.650 6.000,13.931 6.009,14.096 6.065 M20.703 12.107 C 20.906 12.216,21.136 12.467,21.195 12.645 C 21.226 12.741,21.840 16.871,21.840 16.988 C 21.840 16.995,21.615 17.000,21.339 17.000 L 20.839 17.000 20.742 16.780 C 20.376 15.953,19.588 15.301,18.680 15.076 C 18.558 15.045,18.255 15.021,18.000 15.021 C 17.745 15.021,17.442 15.045,17.320 15.076 C 16.412 15.301,15.624 15.953,15.258 16.780 L 15.161 17.000 12.000 17.000 L 8.839 17.000 8.742 16.780 C 8.376 15.953,7.588 15.301,6.680 15.076 C 6.558 15.045,6.255 15.021,6.000 15.021 C 5.745 15.021,5.442 15.045,5.320 15.076 C 4.412 15.301,3.624 15.953,3.258 16.780 L 3.161 17.000 2.581 17.000 L 2.000 17.000 2.000 14.500 L 2.000 11.999 11.270 12.010 L 20.540 12.020 20.703 12.107 M6.340 17.066 C 6.709 17.192,7.000 17.604,7.000 18.000 C 7.000 18.527,6.527 19.000,6.000 19.000 C 5.758 19.000,5.479 18.881,5.299 18.701 C 4.907 18.309,4.908 17.690,5.300 17.298 C 5.577 17.020,5.957 16.936,6.340 17.066 M18.340 17.066 C 18.709 17.192,19.000 17.604,19.000 18.000 C 19.000 18.527,18.527 19.000,18.000 19.000 C 17.758 19.000,17.479 18.881,17.299 18.701 C 16.907 18.309,16.908 17.690,17.300 17.298 C 17.577 17.020,17.957 16.936,18.340 17.066 " fill="#000640" stroke="none" fill-rule="evenodd"></path></svg>