<svg xmlns="http://www.w3.org/2000/svg" width="24" height="24" fill="currentColor" class="mmi mmi-car-sedan" viewBox="0 0 24 24"><path d="M7.010 2.044 C 6.061 2.204,5.229 2.832,4.815 3.700 C 4.737 3.863,4.469 4.724,4.174 5.760 C 3.895 6.739,3.653 7.556,3.636 7.576 C 3.618 7.596,3.316 7.486,2.948 7.326 C 2.586 7.169,2.212 7.029,2.115 7.016 C 1.735 6.964,1.333 7.174,1.139 7.526 C 0.917 7.929,1.011 8.478,1.350 8.758 C 1.421 8.817,1.830 9.017,2.257 9.203 L 3.034 9.540 2.346 10.240 C 1.497 11.104,1.297 11.396,1.094 12.066 C 1.028 12.283,1.022 12.627,1.010 16.716 C 0.996 21.692,0.978 21.380,1.298 21.700 C 1.601 22.003,1.571 22.000,4.000 22.000 C 6.427 22.000,6.399 22.003,6.701 21.701 C 6.979 21.423,7.000 21.308,7.000 20.073 L 7.000 19.000 12.000 19.000 L 17.000 19.000 17.000 20.073 C 17.000 21.308,17.021 21.423,17.299 21.701 C 17.601 22.003,17.573 22.000,20.000 22.000 C 22.429 22.000,22.399 22.003,22.702 21.700 C 23.022 21.380,23.004 21.692,22.990 16.716 C 22.978 12.627,22.972 12.283,22.906 12.066 C 22.703 11.395,22.503 11.104,21.653 10.239 L 20.964 9.538 21.745 9.199 C 22.175 9.013,22.586 8.811,22.659 8.750 C 22.973 8.491,23.088 7.979,22.917 7.600 C 22.741 7.212,22.450 7.024,22.020 7.022 C 21.758 7.020,21.697 7.039,21.068 7.316 C 20.693 7.480,20.381 7.595,20.364 7.576 C 20.347 7.556,20.105 6.739,19.827 5.760 C 19.278 3.832,19.166 3.539,18.800 3.090 C 18.443 2.651,17.856 2.272,17.260 2.094 C 17.036 2.027,16.701 2.022,12.120 2.016 C 9.403 2.012,7.126 2.024,7.010 2.044 M16.765 4.041 C 16.844 4.063,16.969 4.121,17.041 4.170 C 17.352 4.382,17.357 4.396,18.034 6.761 L 18.669 8.980 15.335 8.990 C 13.501 8.996,10.500 8.996,8.666 8.990 L 5.332 8.980 5.925 6.900 C 6.251 5.756,6.548 4.742,6.584 4.646 C 6.695 4.351,6.933 4.131,7.240 4.037 C 7.396 3.990,16.593 3.993,16.765 4.041 M20.207 11.630 C 20.551 11.977,20.865 12.323,20.906 12.400 C 20.975 12.531,20.981 12.690,20.991 14.770 L 21.003 17.000 12.000 17.000 L 2.997 17.000 3.009 14.770 C 3.019 12.690,3.025 12.531,3.094 12.400 C 3.135 12.323,3.449 11.977,3.793 11.630 L 4.419 11.000 12.000 11.000 L 19.581 11.000 20.207 11.630 M5.150 13.041 C 4.722 13.149,4.343 13.465,4.144 13.880 C 4.034 14.111,4.020 14.180,4.020 14.500 C 4.020 14.811,4.035 14.894,4.133 15.104 C 4.276 15.413,4.585 15.721,4.900 15.868 C 5.107 15.965,5.190 15.980,5.500 15.980 C 5.811 15.980,5.894 15.965,6.104 15.867 C 6.413 15.724,6.721 15.415,6.868 15.100 C 6.965 14.893,6.980 14.810,6.980 14.500 C 6.980 14.189,6.965 14.106,6.867 13.896 C 6.725 13.589,6.414 13.278,6.110 13.139 C 5.852 13.022,5.407 12.976,5.150 13.041 M18.150 13.041 C 17.722 13.149,17.343 13.465,17.144 13.880 C 17.034 14.111,17.020 14.180,17.020 14.500 C 17.020 14.811,17.035 14.894,17.133 15.104 C 17.276 15.413,17.585 15.721,17.900 15.868 C 18.107 15.965,18.190 15.980,18.500 15.980 C 18.811 15.980,18.894 15.965,19.104 15.867 C 19.413 15.724,19.721 15.415,19.868 15.100 C 19.965 14.893,19.980 14.810,19.980 14.500 C 19.980 14.189,19.965 14.106,19.867 13.896 C 19.725 13.589,19.414 13.278,19.110 13.139 C 18.852 13.022,18.407 12.976,18.150 13.041 M9.664 14.063 C 9.436 14.146,9.257 14.297,9.131 14.511 C 9.036 14.672,9.020 14.744,9.020 15.000 C 9.020 15.256,9.036 15.328,9.131 15.489 C 9.192 15.592,9.301 15.723,9.374 15.778 C 9.664 16.000,9.670 16.000,11.998 16.000 C 14.428 16.000,14.399 16.003,14.701 15.701 C 15.092 15.310,15.092 14.690,14.701 14.299 C 14.398 13.996,14.430 14.000,11.983 14.003 C 10.210 14.005,9.792 14.016,9.664 14.063 M5.000 19.500 L 5.000 20.000 4.000 20.000 L 3.000 20.000 3.000 19.500 L 3.000 19.000 4.000 19.000 L 5.000 19.000 5.000 19.500 M21.000 19.500 L 21.000 20.000 20.000 20.000 L 19.000 20.000 19.000 19.500 L 19.000 19.000 20.000 19.000 L 21.000 19.000 21.000 19.500 " fill="#000640" stroke="none" fill-rule="evenodd"></path></svg>