<svg xmlns="http://www.w3.org/2000/svg" width="24" height="24" fill="currentColor" class="mmi mmi-card" viewBox="0 0 24 24"><path d="M2.620 3.025 C 2.576 3.034,2.442 3.061,2.322 3.085 C 1.189 3.315,0.223 4.355,0.041 5.541 C 0.011 5.734,0.001 7.790,0.010 12.180 C 0.023 19.282,-0.004 18.640,0.312 19.296 C 0.614 19.924,1.095 20.398,1.740 20.704 C 2.412 21.022,1.643 21.000,12.000 21.000 C 22.357 21.000,21.588 21.022,22.260 20.704 C 22.920 20.391,23.391 19.920,23.704 19.260 C 24.017 18.599,24.000 19.007,24.000 12.000 C 24.000 4.993,24.017 5.401,23.704 4.740 C 23.398 4.095,22.924 3.614,22.296 3.312 C 21.632 2.992,22.653 3.022,12.120 3.015 C 6.939 3.012,2.664 3.016,2.620 3.025 M21.340 5.066 C 21.593 5.153,21.847 5.407,21.934 5.660 C 21.989 5.822,22.000 6.033,22.000 6.927 L 22.000 8.000 11.998 8.000 L 1.995 8.000 2.008 6.850 L 2.020 5.700 2.131 5.511 C 2.256 5.298,2.449 5.136,2.670 5.057 C 2.794 5.013,4.433 5.003,11.983 5.002 C 20.410 5.000,21.161 5.005,21.340 5.066 M22.000 14.073 C 22.000 18.654,22.017 18.385,21.701 18.701 C 21.375 19.027,22.265 19.000,11.998 19.000 C 3.916 19.000,2.830 18.993,2.678 18.939 C 2.437 18.854,2.260 18.709,2.131 18.489 L 2.020 18.300 2.009 14.150 L 1.999 10.000 11.999 10.000 L 22.000 10.000 22.000 14.073 M5.664 15.063 C 5.436 15.146,5.257 15.297,5.131 15.511 C 5.036 15.672,5.020 15.744,5.020 16.000 C 5.020 16.256,5.036 16.328,5.131 16.489 C 5.260 16.709,5.437 16.854,5.678 16.939 C 5.931 17.029,7.073 17.025,7.340 16.934 C 7.709 16.808,8.000 16.396,8.000 16.000 C 8.000 15.604,7.709 15.192,7.340 15.066 C 7.081 14.978,5.902 14.976,5.664 15.063 M10.664 15.063 C 10.436 15.146,10.257 15.297,10.131 15.511 C 10.036 15.672,10.020 15.744,10.020 16.000 C 10.020 16.256,10.036 16.328,10.131 16.489 C 10.192 16.592,10.301 16.723,10.374 16.778 C 10.664 17.000,10.670 17.000,12.998 17.000 C 15.428 17.000,15.399 17.003,15.701 16.701 C 16.092 16.310,16.092 15.690,15.701 15.299 C 15.398 14.996,15.430 15.000,12.983 15.003 C 11.210 15.005,10.792 15.016,10.664 15.063 " fill="#000640" stroke="none" fill-rule="evenodd"></path></svg>