<svg xmlns="http://www.w3.org/2000/svg" width="24" height="24" fill="currentColor" class="mmi mmi-cardinalpoints" viewBox="0 0 24 24"><path d="M11.620 1.022 C 11.576 1.032,11.441 1.061,11.320 1.085 C 10.642 1.221,9.907 1.730,9.496 2.349 C 9.039 3.037,8.882 3.994,9.098 4.780 C 9.322 5.594,9.940 6.336,10.702 6.702 L 11.000 6.846 11.000 8.923 L 11.000 11.000 8.919 11.000 L 6.839 11.000 6.742 10.780 C 6.376 9.953,5.590 9.303,4.680 9.075 C 4.354 8.993,3.563 9.006,3.240 9.098 C 2.728 9.243,2.249 9.522,1.885 9.885 C 0.548 11.222,0.762 13.418,2.333 14.489 C 3.148 15.043,4.241 15.150,5.161 14.765 C 5.841 14.480,6.446 13.888,6.742 13.220 L 6.839 13.000 8.919 13.000 L 11.000 13.000 11.000 15.079 L 11.000 17.158 10.786 17.259 C 9.872 17.691,9.258 18.457,9.063 19.408 C 8.822 20.587,9.322 21.800,10.333 22.488 C 10.849 22.840,11.320 22.978,12.000 22.978 C 12.680 22.978,13.151 22.840,13.667 22.488 C 15.238 21.419,15.452 19.221,14.115 17.885 C 13.855 17.626,13.659 17.488,13.284 17.299 L 13.000 17.157 13.000 15.078 L 13.000 13.000 15.081 13.000 L 17.161 13.000 17.258 13.220 C 18.003 14.904,20.149 15.522,21.667 14.489 C 22.115 14.183,22.538 13.684,22.737 13.227 C 22.926 12.792,22.978 12.526,22.978 12.000 C 22.978 11.320,22.840 10.849,22.488 10.333 C 22.086 9.742,21.465 9.298,20.760 9.098 C 20.437 9.006,19.646 8.993,19.320 9.075 C 18.410 9.303,17.624 9.953,17.258 10.780 L 17.161 11.000 15.081 11.000 L 13.000 11.000 13.000 8.919 L 13.000 6.839 13.217 6.743 C 13.962 6.413,14.566 5.741,14.841 4.935 C 14.967 4.568,14.976 4.504,14.978 4.020 C 14.979 3.469,14.930 3.219,14.731 2.766 C 14.396 2.002,13.650 1.361,12.809 1.115 C 12.550 1.040,11.799 0.981,11.620 1.022 M12.340 3.066 C 12.709 3.192,13.000 3.604,13.000 4.000 C 13.000 4.527,12.527 5.000,12.000 5.000 C 11.758 5.000,11.479 4.881,11.299 4.701 C 10.907 4.309,10.908 3.690,11.300 3.298 C 11.577 3.020,11.957 2.936,12.340 3.066 M4.340 11.066 C 4.709 11.192,5.000 11.604,5.000 12.000 C 5.000 12.527,4.527 13.000,4.000 13.000 C 3.758 13.000,3.479 12.881,3.299 12.701 C 2.907 12.309,2.908 11.690,3.300 11.298 C 3.577 11.020,3.957 10.936,4.340 11.066 M20.340 11.066 C 20.709 11.192,21.000 11.604,21.000 12.000 C 21.000 12.527,20.527 13.000,20.000 13.000 C 19.758 13.000,19.479 12.881,19.299 12.701 C 18.907 12.309,18.908 11.690,19.300 11.298 C 19.577 11.020,19.957 10.936,20.340 11.066 M12.340 19.066 C 12.709 19.192,13.000 19.604,13.000 20.000 C 13.000 20.527,12.527 21.000,12.000 21.000 C 11.758 21.000,11.479 20.881,11.299 20.701 C 10.907 20.309,10.908 19.690,11.300 19.298 C 11.577 19.020,11.957 18.936,12.340 19.066 " fill="#000640" stroke="none" fill-rule="evenodd"></path></svg>