<svg xmlns="http://www.w3.org/2000/svg" width="24" height="24" fill="currentColor" class="mmi mmi-card copy" viewBox="0 0 24 24"><path d="M2.503 2.042 C 1.818 2.158,1.117 2.573,0.670 3.127 C 0.445 3.407,0.159 3.980,0.074 4.320 C -0.006 4.647,-0.006 19.353,0.074 19.680 C 0.159 20.020,0.445 20.593,0.670 20.873 C 0.950 21.220,1.312 21.501,1.740 21.704 C 2.412 22.022,1.643 22.000,12.000 22.000 C 22.357 22.000,21.588 22.022,22.260 21.704 C 22.920 21.391,23.391 20.920,23.704 20.260 C 24.019 19.594,24.000 20.123,24.000 12.000 C 24.000 3.877,24.019 4.406,23.704 3.740 C 23.398 3.095,22.924 2.614,22.296 2.312 C 21.632 1.992,22.653 2.022,12.120 2.015 C 6.939 2.012,2.611 2.024,2.503 2.042 M21.340 4.066 C 21.455 4.105,21.603 4.201,21.701 4.299 C 22.025 4.623,22.000 3.977,22.000 12.000 C 22.000 20.023,22.025 19.377,21.701 19.701 C 21.375 20.027,22.265 20.000,11.998 20.000 C 3.916 20.000,2.830 19.993,2.678 19.939 C 2.437 19.854,2.260 19.709,2.131 19.489 L 2.020 19.300 2.020 12.000 L 2.020 4.700 2.131 4.511 C 2.256 4.298,2.449 4.136,2.670 4.057 C 2.794 4.013,4.433 4.003,11.983 4.002 C 20.410 4.000,21.161 4.005,21.340 4.066 M4.643 7.069 C 4.291 7.193,4.000 7.614,4.000 8.000 C 4.000 8.242,4.119 8.521,4.299 8.701 C 4.601 9.003,4.573 9.000,7.000 9.000 C 9.427 9.000,9.399 9.003,9.701 8.701 C 9.881 8.521,10.000 8.242,10.000 8.000 C 10.000 7.758,9.881 7.479,9.701 7.299 C 9.398 6.996,9.430 7.000,6.983 7.003 C 5.132 7.006,4.795 7.015,4.643 7.069 M12.664 7.063 C 12.436 7.146,12.257 7.297,12.131 7.511 L 12.020 7.700 12.020 12.000 L 12.020 16.300 12.131 16.489 C 12.192 16.592,12.301 16.723,12.374 16.778 C 12.672 17.006,12.578 17.000,15.998 17.000 C 19.545 17.000,19.390 17.013,19.701 16.701 C 20.018 16.384,20.000 16.663,20.000 12.000 C 20.000 7.337,20.018 7.616,19.701 7.299 C 19.389 6.987,19.547 7.000,15.983 7.003 C 13.342 7.005,12.794 7.015,12.664 7.063 M18.000 12.000 L 18.000 15.000 16.000 15.000 L 14.000 15.000 14.000 12.000 L 14.000 9.000 16.000 9.000 L 18.000 9.000 18.000 12.000 M4.643 11.069 C 4.291 11.193,4.000 11.614,4.000 12.000 C 4.000 12.242,4.119 12.521,4.299 12.701 C 4.601 13.003,4.573 13.000,7.000 13.000 C 9.427 13.000,9.399 13.003,9.701 12.701 C 10.092 12.310,10.092 11.690,9.701 11.299 C 9.398 10.996,9.430 11.000,6.983 11.003 C 5.132 11.006,4.795 11.015,4.643 11.069 " fill="#000640" stroke="none" fill-rule="evenodd"></path></svg>