<svg xmlns="http://www.w3.org/2000/svg" width="24" height="24" fill="currentColor" class="mmi mmi-cards" viewBox="0 0 24 24"><path d="M12.248 1.042 C 11.832 1.117,4.095 3.209,3.837 3.317 C 2.545 3.856,1.793 5.245,2.057 6.606 C 2.112 6.889,5.602 19.954,5.762 20.474 C 6.044 21.394,6.778 22.137,7.707 22.444 C 8.071 22.564,8.139 22.574,8.620 22.573 L 9.140 22.572 13.165 21.488 C 15.379 20.892,17.291 20.369,17.414 20.325 C 17.781 20.197,18.119 19.968,18.481 19.603 C 18.908 19.173,19.113 18.799,19.282 18.138 C 19.347 17.884,20.060 15.431,20.865 12.688 L 22.330 7.700 22.350 7.217 C 22.366 6.815,22.355 6.677,22.285 6.397 C 22.066 5.517,21.468 4.780,20.660 4.396 C 20.421 4.282,19.737 4.082,17.945 3.603 C 16.627 3.251,15.547 2.958,15.544 2.951 C 15.405 2.640,15.250 2.366,15.097 2.165 C 14.742 1.693,14.090 1.259,13.500 1.102 C 13.203 1.023,12.532 0.991,12.248 1.042 M13.234 3.148 C 13.613 3.381,13.484 2.964,15.500 10.480 C 16.974 15.974,17.339 17.385,17.336 17.567 C 17.330 17.852,17.163 18.170,16.931 18.334 C 16.798 18.428,16.088 18.631,12.755 19.524 C 10.547 20.115,8.682 20.600,8.612 20.600 C 8.281 20.600,7.898 20.357,7.742 20.047 C 7.662 19.888,4.046 6.420,4.014 6.160 C 3.969 5.800,4.180 5.389,4.502 5.213 C 4.589 5.166,6.346 4.675,8.407 4.123 C 10.467 3.572,12.249 3.093,12.367 3.060 C 12.677 2.973,13.004 3.006,13.234 3.148 M17.960 5.679 C 18.873 5.922,19.707 6.161,19.814 6.209 C 20.139 6.357,20.356 6.694,20.361 7.060 C 20.363 7.209,20.121 8.092,19.414 10.509 C 18.891 12.295,18.459 13.753,18.454 13.747 C 18.448 13.742,17.938 11.848,17.320 9.539 C 16.702 7.229,16.186 5.307,16.174 5.266 C 16.157 5.208,16.168 5.197,16.226 5.215 C 16.267 5.227,17.047 5.436,17.960 5.679 " fill="#000640" stroke="none" fill-rule="evenodd"></path></svg>