<svg xmlns="http://www.w3.org/2000/svg" width="24" height="24" fill="currentColor" class="mmi mmi-cardigan" viewBox="0 0 24 24"><path d="M6.913 1.635 C 4.938 2.297,4.521 2.468,3.979 2.843 C 2.848 3.625,2.064 4.908,1.881 6.277 C 1.807 6.831,1.112 18.884,1.135 19.228 C 1.160 19.623,1.339 20.189,1.550 20.538 C 1.735 20.846,2.151 21.282,2.460 21.493 C 2.993 21.856,3.546 22.000,4.413 22.000 L 4.990 22.000 5.017 22.170 C 5.052 22.388,5.205 22.650,5.374 22.778 C 5.664 23.000,5.670 23.000,7.998 23.000 C 10.428 23.000,10.399 23.003,10.701 22.701 C 10.858 22.544,11.000 22.246,11.000 22.073 C 11.000 22.004,11.059 22.000,11.995 22.000 L 12.990 22.000 13.017 22.170 C 13.052 22.388,13.205 22.650,13.374 22.778 C 13.664 23.000,13.670 23.000,15.998 23.000 C 18.428 23.000,18.399 23.003,18.701 22.701 C 18.858 22.544,19.000 22.246,19.000 22.073 C 19.000 22.006,19.046 22.000,19.582 22.000 C 20.455 22.000,21.006 21.857,21.540 21.493 C 21.849 21.282,22.265 20.846,22.450 20.538 C 22.659 20.191,22.834 19.640,22.863 19.236 C 22.888 18.885,22.197 6.860,22.119 6.281 C 21.895 4.630,20.866 3.204,19.356 2.454 C 19.141 2.347,18.219 2.014,17.087 1.635 C 14.888 0.897,14.991 0.914,14.375 1.191 C 13.475 1.594,12.864 1.734,12.000 1.734 C 11.136 1.734,10.525 1.594,9.625 1.191 C 9.009 0.914,9.112 0.897,6.913 1.635 M8.202 3.570 C 8.335 4.132,8.587 4.767,8.846 5.194 L 9.000 5.448 9.000 13.224 L 9.000 21.000 8.000 21.000 L 7.000 21.000 7.000 15.427 C 7.000 9.164,7.022 9.620,6.700 9.298 C 6.390 8.988,5.932 8.920,5.531 9.126 C 5.315 9.238,5.103 9.491,5.042 9.711 C 5.014 9.810,5.000 11.561,5.000 14.930 L 5.000 20.000 4.487 20.000 C 3.863 20.000,3.661 19.943,3.415 19.697 C 3.298 19.581,3.225 19.461,3.182 19.314 C 3.121 19.110,3.134 18.818,3.479 12.900 C 3.695 9.184,3.864 6.564,3.900 6.360 C 3.944 6.116,4.018 5.903,4.165 5.603 C 4.337 5.254,4.423 5.134,4.695 4.859 C 5.180 4.371,5.395 4.263,6.825 3.782 C 7.504 3.553,8.081 3.365,8.106 3.363 C 8.131 3.361,8.174 3.454,8.202 3.570 M17.156 3.779 C 18.606 4.263,18.818 4.369,19.301 4.856 C 19.773 5.332,20.059 5.921,20.137 6.580 C 20.150 6.690,20.323 9.550,20.522 12.936 C 20.865 18.800,20.879 19.102,20.819 19.309 C 20.775 19.462,20.705 19.577,20.585 19.697 C 20.339 19.943,20.137 20.000,19.513 20.000 L 19.000 20.000 19.000 14.927 C 19.000 9.224,19.021 9.619,18.700 9.298 C 18.390 8.988,17.932 8.920,17.531 9.126 C 17.315 9.238,17.103 9.491,17.042 9.711 C 17.014 9.810,17.000 11.716,17.000 15.430 L 17.000 21.000 16.000 21.000 L 15.000 21.000 15.000 13.224 L 15.000 5.448 15.154 5.194 C 15.413 4.767,15.665 4.132,15.798 3.570 C 15.826 3.454,15.860 3.360,15.875 3.360 C 15.889 3.360,16.466 3.548,17.156 3.779 M10.900 3.665 C 11.161 3.715,11.464 3.734,12.000 3.734 C 12.536 3.734,12.839 3.715,13.100 3.665 C 13.791 3.532,13.728 3.533,13.678 3.665 C 13.597 3.879,13.392 4.259,13.281 4.400 C 13.221 4.477,13.137 4.603,13.095 4.680 C 13.022 4.816,13.020 5.058,13.010 12.410 L 12.999 20.000 12.000 20.000 L 11.001 20.000 10.990 12.410 C 10.980 5.039,10.978 4.816,10.904 4.680 C 10.862 4.603,10.768 4.461,10.694 4.365 C 10.570 4.202,10.414 3.908,10.319 3.657 C 10.272 3.534,10.212 3.533,10.900 3.665 " fill="#000640" stroke="none" fill-rule="evenodd"></path></svg>