<svg xmlns="http://www.w3.org/2000/svg" width="24" height="24" fill="currentColor" class="mmi mmi-cart-basket-v3" viewBox="0 0 24 24"><path d="M4.240 1.035 C 3.787 1.184,3.508 1.552,3.509 2.000 C 3.509 2.194,3.689 2.682,5.015 6.087 C 5.843 8.214,6.520 9.965,6.520 9.977 C 6.520 9.990,5.479 10.000,4.206 10.000 C 1.701 10.000,1.661 10.003,1.379 10.218 C 1.194 10.359,1.042 10.630,1.015 10.866 C 0.997 11.016,1.189 12.143,1.857 15.820 C 2.332 18.438,2.759 20.706,2.804 20.860 C 3.100 21.857,3.895 22.625,4.928 22.910 C 5.163 22.975,5.641 22.980,12.000 22.980 C 18.359 22.980,18.837 22.975,19.072 22.910 C 20.064 22.636,20.832 21.924,21.164 20.971 C 21.248 20.730,23.000 11.195,23.000 10.978 C 23.000 10.755,22.875 10.473,22.697 10.295 C 22.399 9.997,22.425 10.000,19.793 10.000 C 18.521 10.000,17.480 9.990,17.480 9.977 C 17.480 9.965,18.157 8.214,18.984 6.087 L 20.488 2.220 20.473 1.955 C 20.453 1.601,20.302 1.351,20.000 1.170 C 19.810 1.056,19.749 1.040,19.502 1.041 C 19.271 1.042,19.185 1.062,19.023 1.151 C 18.915 1.211,18.777 1.323,18.715 1.400 C 18.643 1.491,18.039 2.992,16.978 5.720 C 16.084 8.019,15.343 9.922,15.332 9.950 C 15.316 9.989,14.611 10.000,11.999 10.000 L 8.687 10.000 8.425 9.330 C 8.280 8.961,7.534 7.043,6.765 5.066 C 5.260 1.196,5.308 1.300,4.943 1.112 C 4.771 1.024,4.399 0.983,4.240 1.035 M20.783 12.110 C 20.770 12.171,20.428 14.042,20.023 16.269 C 19.431 19.528,19.269 20.350,19.194 20.487 C 19.083 20.687,18.818 20.900,18.609 20.958 C 18.509 20.986,16.326 20.999,11.980 20.998 C 4.978 20.996,5.355 21.008,5.061 20.783 C 4.745 20.543,4.779 20.682,3.977 16.271 C 3.572 14.043,3.230 12.171,3.217 12.110 L 3.194 12.000 12.000 12.000 L 20.806 12.000 20.783 12.110 M7.643 14.069 C 7.407 14.152,7.149 14.416,7.066 14.660 C 7.009 14.828,7.000 15.073,7.000 16.500 C 7.000 18.371,7.005 18.407,7.299 18.701 C 7.479 18.881,7.758 19.000,8.000 19.000 C 8.242 19.000,8.521 18.881,8.701 18.701 C 8.995 18.407,9.000 18.371,9.000 16.500 C 9.000 14.629,8.995 14.593,8.701 14.299 C 8.424 14.021,8.024 13.934,7.643 14.069 M11.643 14.069 C 11.407 14.152,11.149 14.416,11.066 14.660 C 11.009 14.828,11.000 15.073,11.000 16.500 C 11.000 18.371,11.005 18.407,11.299 18.701 C 11.479 18.881,11.758 19.000,12.000 19.000 C 12.242 19.000,12.521 18.881,12.701 18.701 C 12.995 18.407,13.000 18.371,13.000 16.500 C 13.000 14.629,12.995 14.593,12.701 14.299 C 12.424 14.021,12.024 13.934,11.643 14.069 M15.643 14.069 C 15.407 14.152,15.149 14.416,15.066 14.660 C 15.009 14.828,15.000 15.073,15.000 16.500 C 15.000 18.371,15.005 18.407,15.299 18.701 C 15.479 18.881,15.758 19.000,16.000 19.000 C 16.242 19.000,16.521 18.881,16.701 18.701 C 16.995 18.407,17.000 18.371,17.000 16.500 C 17.000 14.629,16.995 14.593,16.701 14.299 C 16.424 14.021,16.024 13.934,15.643 14.069 " fill="#000640" stroke="none" fill-rule="evenodd"></path></svg>