<svg xmlns="http://www.w3.org/2000/svg" width="24" height="24" fill="currentColor" class="mmi mmi-cart-trolley-v2" viewBox="0 0 24 24"><path d="M1.664 1.063 C 1.303 1.195,1.051 1.514,1.013 1.888 C 0.970 2.307,1.174 2.690,1.539 2.878 C 1.737 2.980,1.739 2.980,3.056 3.000 L 4.374 3.020 4.925 4.180 L 5.476 5.340 6.139 9.155 C 6.504 11.254,6.794 12.979,6.784 12.990 C 6.773 13.000,6.624 13.033,6.453 13.063 C 5.482 13.232,4.619 13.923,4.236 14.837 C 3.734 16.038,4.062 17.426,5.047 18.270 C 5.156 18.363,5.274 18.455,5.309 18.474 C 5.364 18.506,5.357 18.545,5.249 18.805 C 4.757 19.992,5.015 21.265,5.927 22.142 C 6.291 22.493,6.595 22.679,7.082 22.847 C 7.436 22.969,7.494 22.977,8.000 22.977 C 8.508 22.977,8.563 22.969,8.933 22.842 C 9.399 22.683,9.727 22.483,10.074 22.146 C 10.911 21.333,11.192 20.239,10.857 19.090 L 10.831 19.000 13.498 19.000 C 16.080 19.000,16.165 19.002,16.142 19.074 C 15.600 20.780,16.658 22.575,18.419 22.938 C 19.885 23.241,21.375 22.363,21.844 20.920 C 22.404 19.197,21.330 17.401,19.533 17.057 C 19.281 17.009,18.251 17.000,13.026 16.998 C 7.946 16.997,6.793 16.987,6.670 16.943 C 6.449 16.864,6.256 16.702,6.131 16.489 C 6.036 16.328,6.020 16.256,6.020 16.000 C 6.020 15.744,6.036 15.672,6.131 15.511 C 6.375 15.096,6.626 15.000,7.469 15.000 C 8.019 15.000,8.697 14.927,13.594 14.342 C 16.622 13.980,19.244 13.654,19.420 13.618 C 20.434 13.410,21.281 12.686,21.628 11.730 C 21.730 11.450,23.000 5.200,23.000 4.979 C 23.000 4.755,22.875 4.473,22.697 4.295 C 22.378 3.976,23.028 4.000,14.583 4.000 L 7.060 4.000 6.460 2.730 C 5.799 1.332,5.703 1.190,5.340 1.066 C 5.171 1.009,4.931 1.000,3.483 1.003 C 2.145 1.005,1.789 1.017,1.664 1.063 M20.760 6.051 C 20.760 6.175,19.795 10.917,19.740 11.063 C 19.655 11.288,19.391 11.543,19.165 11.618 C 19.015 11.668,9.145 12.880,8.894 12.880 C 8.827 12.880,8.762 12.548,8.228 9.470 C 7.902 7.594,7.637 6.046,7.638 6.030 C 7.639 6.014,10.592 6.000,14.200 6.000 C 19.486 6.000,20.760 6.010,20.760 6.051 M8.340 19.066 C 8.709 19.192,9.000 19.604,9.000 20.000 C 9.000 20.527,8.527 21.000,8.000 21.000 C 7.758 21.000,7.479 20.881,7.299 20.701 C 6.907 20.309,6.908 19.690,7.300 19.298 C 7.577 19.020,7.957 18.936,8.340 19.066 M19.340 19.066 C 19.709 19.192,20.000 19.604,20.000 20.000 C 20.000 20.527,19.527 21.000,19.000 21.000 C 18.758 21.000,18.479 20.881,18.299 20.701 C 17.907 20.309,17.908 19.690,18.300 19.298 C 18.577 19.020,18.957 18.936,19.340 19.066 " fill="#000640" stroke="none" fill-rule="evenodd"></path></svg>