<svg xmlns="http://www.w3.org/2000/svg" width="24" height="24" fill="currentColor" class="mmi mmi-cart-trolley" viewBox="0 0 24 24"><path d="M1.664 1.063 C 1.303 1.195,1.051 1.514,1.013 1.888 C 0.970 2.307,1.174 2.690,1.539 2.878 C 1.737 2.980,1.739 2.980,3.057 3.000 L 4.375 3.020 4.928 4.177 L 5.481 5.333 6.503 9.317 C 7.644 13.764,7.674 13.873,7.862 14.239 C 8.361 15.216,9.380 15.840,10.476 15.840 C 10.687 15.840,12.651 15.678,14.840 15.479 C 19.046 15.098,19.214 15.076,19.691 14.835 C 20.420 14.468,21.002 13.769,21.236 12.980 C 21.281 12.826,21.698 10.990,22.163 8.900 C 23.087 4.740,23.069 4.853,22.862 4.499 C 22.805 4.402,22.696 4.276,22.621 4.218 C 22.320 3.988,22.754 4.000,14.584 4.000 L 7.060 4.000 6.460 2.730 C 5.799 1.332,5.703 1.190,5.340 1.066 C 5.171 1.009,4.931 1.000,3.483 1.003 C 2.145 1.005,1.789 1.017,1.664 1.063 M20.718 6.150 C 20.699 6.232,20.377 7.683,20.001 9.373 C 19.626 11.063,19.285 12.512,19.243 12.593 C 19.143 12.787,18.937 12.981,18.744 13.061 C 18.630 13.109,17.536 13.222,14.667 13.483 C 12.510 13.679,10.654 13.840,10.543 13.840 C 10.431 13.840,10.276 13.822,10.197 13.800 C 10.013 13.749,9.738 13.512,9.641 13.321 C 9.599 13.239,9.157 11.589,8.660 9.656 C 8.164 7.722,7.747 6.109,7.736 6.070 C 7.716 6.004,8.044 6.000,14.233 6.000 L 20.751 6.000 20.718 6.150 M7.503 17.040 C 6.828 17.162,6.156 17.550,5.703 18.080 C 4.987 18.917,4.806 20.100,5.234 21.151 C 5.521 21.857,6.143 22.479,6.849 22.766 C 7.989 23.230,9.251 22.978,10.115 22.115 C 11.238 20.992,11.295 19.212,10.246 18.020 C 9.897 17.624,9.276 17.239,8.756 17.097 C 8.491 17.024,7.770 16.991,7.503 17.040 M18.503 17.040 C 17.828 17.162,17.156 17.550,16.703 18.080 C 15.987 18.917,15.806 20.100,16.234 21.151 C 16.521 21.857,17.143 22.479,17.849 22.766 C 18.989 23.230,20.251 22.978,21.115 22.115 C 22.238 20.992,22.295 19.212,21.246 18.020 C 20.897 17.624,20.276 17.239,19.756 17.097 C 19.491 17.024,18.770 16.991,18.503 17.040 M8.340 19.066 C 8.709 19.192,9.000 19.604,9.000 20.000 C 9.000 20.527,8.527 21.000,8.000 21.000 C 7.758 21.000,7.479 20.881,7.299 20.701 C 6.907 20.309,6.908 19.690,7.300 19.298 C 7.577 19.020,7.957 18.936,8.340 19.066 M19.340 19.066 C 19.709 19.192,20.000 19.604,20.000 20.000 C 20.000 20.527,19.527 21.000,19.000 21.000 C 18.758 21.000,18.479 20.881,18.299 20.701 C 17.907 20.309,17.908 19.690,18.300 19.298 C 18.577 19.020,18.957 18.936,19.340 19.066 " fill="#000640" stroke="none" fill-rule="evenodd"></path></svg>