<svg xmlns="http://www.w3.org/2000/svg" width="24" height="24" fill="currentColor" class="mmi mmi-cart-basket-v2" viewBox="0 0 24 24"><path d="M7.643 1.069 C 7.546 1.103,7.392 1.206,7.300 1.298 C 7.052 1.546,7.000 1.740,7.000 2.427 L 7.000 3.000 6.750 3.001 C 6.406 3.003,5.943 3.091,5.646 3.211 C 4.814 3.547,4.141 4.264,3.886 5.084 C 3.828 5.270,3.672 6.233,3.465 7.680 L 3.137 9.980 2.438 10.000 C 1.810 10.018,1.721 10.029,1.550 10.114 C 1.240 10.266,1.000 10.639,1.000 10.968 C 1.000 11.169,2.754 20.732,2.833 20.961 C 3.160 21.909,3.934 22.631,4.920 22.907 C 5.167 22.976,5.523 22.980,12.000 22.980 C 18.477 22.980,18.833 22.976,19.080 22.907 C 20.066 22.631,20.840 21.909,21.167 20.961 C 21.246 20.732,23.000 11.169,23.000 10.968 C 23.000 10.639,22.760 10.266,22.450 10.114 C 22.279 10.029,22.190 10.018,21.562 10.000 L 20.863 9.980 20.535 7.680 C 20.328 6.233,20.172 5.270,20.114 5.084 C 19.859 4.264,19.186 3.547,18.354 3.211 C 18.057 3.091,17.594 3.003,17.250 3.001 L 17.000 3.000 17.000 2.427 C 17.000 1.741,16.948 1.546,16.701 1.299 C 16.384 0.982,16.666 1.000,11.983 1.003 C 8.320 1.006,7.799 1.014,7.643 1.069 M15.000 3.500 L 15.000 4.000 12.000 4.000 L 9.000 4.000 9.000 3.500 L 9.000 3.000 12.000 3.000 L 15.000 3.000 15.000 3.500 M7.000 5.073 C 7.000 5.246,7.142 5.544,7.299 5.701 C 7.616 6.018,7.337 6.000,12.000 6.000 C 16.663 6.000,16.384 6.018,16.701 5.701 C 16.858 5.544,17.000 5.246,17.000 5.073 C 17.000 5.012,17.033 5.000,17.205 5.000 C 17.318 5.000,17.482 5.021,17.569 5.048 C 17.781 5.111,18.095 5.399,18.177 5.605 C 18.227 5.728,18.840 9.767,18.840 9.968 C 18.840 9.986,15.762 10.000,12.000 10.000 C 8.238 10.000,5.160 9.986,5.160 9.968 C 5.160 9.767,5.773 5.728,5.823 5.605 C 5.900 5.411,6.216 5.112,6.407 5.051 C 6.480 5.027,6.644 5.006,6.770 5.004 C 6.967 5.001,7.000 5.010,7.000 5.073 M20.780 12.130 C 20.767 12.202,20.427 14.071,20.024 16.285 C 19.426 19.570,19.274 20.341,19.196 20.483 C 19.084 20.686,18.820 20.900,18.609 20.958 C 18.402 21.016,5.598 21.016,5.391 20.958 C 5.180 20.900,4.916 20.686,4.804 20.483 C 4.726 20.341,4.574 19.570,3.976 16.285 C 3.573 14.071,3.233 12.202,3.220 12.130 L 3.196 12.000 12.000 12.000 L 20.804 12.000 20.780 12.130 M7.664 14.063 C 7.436 14.146,7.257 14.297,7.131 14.511 L 7.020 14.700 7.008 16.410 C 7.001 17.533,7.011 18.174,7.039 18.278 C 7.101 18.506,7.311 18.760,7.531 18.874 C 7.932 19.080,8.390 19.012,8.700 18.702 C 8.995 18.407,9.000 18.371,9.000 16.500 C 9.000 14.629,8.995 14.593,8.701 14.299 C 8.429 14.027,8.018 13.933,7.664 14.063 M11.664 14.063 C 11.436 14.146,11.257 14.297,11.131 14.511 L 11.020 14.700 11.008 16.410 C 11.001 17.533,11.011 18.174,11.039 18.278 C 11.101 18.506,11.311 18.760,11.531 18.874 C 11.932 19.080,12.390 19.012,12.700 18.702 C 12.995 18.407,13.000 18.371,13.000 16.500 C 13.000 14.629,12.995 14.593,12.701 14.299 C 12.429 14.027,12.018 13.933,11.664 14.063 M15.664 14.063 C 15.436 14.146,15.257 14.297,15.131 14.511 L 15.020 14.700 15.008 16.410 C 15.001 17.533,15.011 18.174,15.039 18.278 C 15.101 18.506,15.311 18.760,15.531 18.874 C 15.932 19.080,16.390 19.012,16.700 18.702 C 16.995 18.407,17.000 18.371,17.000 16.500 C 17.000 14.629,16.995 14.593,16.701 14.299 C 16.429 14.027,16.018 13.933,15.664 14.063 " fill="#000640" stroke="none" fill-rule="evenodd"></path></svg>