<svg xmlns="http://www.w3.org/2000/svg" width="24" height="24" fill="currentColor" class="mmi mmi-cart-basket-v4" viewBox="0 0 24 24"><path d="M11.579 1.517 C 10.961 1.616,10.409 1.884,9.973 2.296 C 9.720 2.536,9.267 3.160,7.083 6.280 L 4.494 9.980 3.117 10.000 C 1.774 10.019,1.735 10.022,1.550 10.114 C 1.240 10.266,1.000 10.639,1.000 10.968 C 1.000 11.169,2.754 20.732,2.833 20.961 C 3.160 21.909,3.934 22.631,4.920 22.907 C 5.167 22.976,5.523 22.980,12.000 22.980 C 18.477 22.980,18.833 22.976,19.080 22.907 C 20.066 22.631,20.840 21.909,21.167 20.961 C 21.246 20.732,23.000 11.169,23.000 10.968 C 23.000 10.639,22.760 10.266,22.450 10.114 C 22.265 10.022,22.226 10.019,20.883 10.000 L 19.506 9.980 16.917 6.280 C 14.733 3.160,14.280 2.536,14.027 2.296 C 13.684 1.972,13.254 1.728,12.800 1.603 C 12.465 1.510,11.880 1.469,11.579 1.517 M12.492 3.631 C 12.690 3.742,12.806 3.899,14.883 6.864 L 17.067 9.980 14.533 9.990 C 13.140 9.996,10.860 9.996,9.467 9.990 L 6.933 9.980 9.104 6.881 C 11.340 3.688,11.388 3.626,11.722 3.524 C 11.945 3.457,12.259 3.501,12.492 3.631 M20.780 12.130 C 20.767 12.202,20.427 14.071,20.024 16.285 C 19.426 19.570,19.274 20.341,19.196 20.483 C 19.084 20.686,18.820 20.900,18.609 20.958 C 18.402 21.016,5.598 21.016,5.391 20.958 C 5.180 20.900,4.916 20.686,4.804 20.483 C 4.726 20.341,4.574 19.570,3.976 16.285 C 3.573 14.071,3.233 12.202,3.220 12.130 L 3.196 12.000 12.000 12.000 L 20.804 12.000 20.780 12.130 M11.503 13.040 C 10.828 13.162,10.156 13.550,9.703 14.080 C 8.987 14.917,8.806 16.100,9.234 17.151 C 9.521 17.857,10.143 18.479,10.849 18.766 C 11.989 19.230,13.251 18.978,14.115 18.115 C 15.238 16.992,15.295 15.212,14.246 14.020 C 13.897 13.624,13.276 13.239,12.756 13.097 C 12.491 13.024,11.770 12.991,11.503 13.040 M12.340 15.066 C 12.709 15.192,13.000 15.604,13.000 16.000 C 13.000 16.527,12.527 17.000,12.000 17.000 C 11.758 17.000,11.479 16.881,11.299 16.701 C 10.907 16.309,10.908 15.690,11.300 15.298 C 11.577 15.020,11.957 14.936,12.340 15.066 " fill="#000640" stroke="none" fill-rule="evenodd"></path></svg>