<svg xmlns="http://www.w3.org/2000/svg" width="24" height="24" fill="currentColor" class="mmi mmi-cassettetape" viewBox="0 0 24 24"><path d="M2.620 3.025 C 2.576 3.034,2.442 3.061,2.322 3.085 C 1.189 3.315,0.223 4.355,0.041 5.541 C 0.011 5.734,0.001 7.790,0.010 12.180 C 0.023 19.282,-0.004 18.640,0.312 19.296 C 0.614 19.924,1.095 20.398,1.740 20.704 C 2.412 21.022,1.643 21.000,12.000 21.000 C 22.357 21.000,21.588 21.022,22.260 20.704 C 22.920 20.391,23.391 19.920,23.704 19.260 C 24.017 18.599,24.000 19.007,24.000 12.000 C 24.000 4.993,24.017 5.401,23.704 4.740 C 23.398 4.095,22.924 3.614,22.296 3.312 C 21.632 2.992,22.653 3.022,12.120 3.015 C 6.939 3.012,2.664 3.016,2.620 3.025 M6.364 6.346 C 6.864 7.096,7.317 7.734,7.388 7.789 C 7.671 8.005,7.564 8.000,12.000 8.000 C 16.436 8.000,16.329 8.005,16.612 7.789 C 16.683 7.734,17.136 7.096,17.636 6.346 L 18.533 5.000 19.839 5.000 C 21.333 5.000,21.415 5.013,21.701 5.299 C 22.023 5.621,22.000 5.097,22.000 12.000 C 22.000 18.903,22.023 18.379,21.701 18.701 C 21.375 19.027,22.265 19.000,11.998 19.000 C 3.916 19.000,2.830 18.993,2.678 18.939 C 2.437 18.854,2.260 18.709,2.131 18.489 L 2.020 18.300 2.020 12.000 L 2.020 5.700 2.131 5.511 C 2.192 5.408,2.304 5.275,2.381 5.217 C 2.649 5.012,2.720 5.004,4.144 5.002 L 5.467 5.000 6.364 6.346 M16.058 5.110 C 16.018 5.170,15.869 5.395,15.727 5.610 L 15.468 6.000 12.000 6.000 L 8.532 6.000 8.273 5.610 C 8.131 5.395,7.982 5.170,7.942 5.110 L 7.871 5.000 12.000 5.000 L 16.129 5.000 16.058 5.110 M7.067 10.040 C 5.886 10.186,4.807 10.979,4.316 12.063 C 4.082 12.578,4.021 12.884,4.024 13.520 C 4.027 14.029,4.040 14.143,4.134 14.452 C 4.499 15.655,5.344 16.499,6.548 16.867 C 6.863 16.962,6.963 16.974,7.500 16.974 C 8.037 16.974,8.137 16.962,8.452 16.867 C 9.061 16.681,9.495 16.426,9.954 15.985 C 10.310 15.643,10.659 15.099,10.798 14.670 L 10.846 14.520 12.000 14.520 L 13.154 14.520 13.202 14.670 C 13.285 14.924,13.502 15.328,13.692 15.581 C 14.471 16.617,15.797 17.160,17.028 16.945 C 18.442 16.698,19.491 15.755,19.889 14.372 C 19.964 14.110,19.978 13.967,19.976 13.480 C 19.973 12.971,19.960 12.857,19.866 12.548 C 19.665 11.887,19.361 11.395,18.868 10.936 C 17.480 9.642,15.288 9.709,13.978 11.085 C 13.612 11.469,13.426 11.774,13.167 12.410 L 13.122 12.520 12.000 12.520 L 10.878 12.520 10.834 12.410 C 10.809 12.350,10.722 12.156,10.640 11.980 C 10.029 10.666,8.541 9.859,7.067 10.040 M8.110 12.139 C 8.415 12.278,8.725 12.589,8.866 12.896 C 8.962 13.105,8.978 13.191,8.978 13.500 C 8.979 13.810,8.963 13.893,8.867 14.100 C 8.722 14.415,8.413 14.724,8.104 14.867 C 7.894 14.965,7.811 14.980,7.500 14.980 C 7.190 14.980,7.107 14.965,6.900 14.868 C 6.584 14.721,6.275 14.413,6.134 14.104 C 6.038 13.895,6.022 13.809,6.022 13.500 C 6.021 13.190,6.037 13.107,6.133 12.900 C 6.324 12.489,6.727 12.148,7.150 12.041 C 7.407 11.976,7.852 12.022,8.110 12.139 M17.110 12.139 C 17.415 12.278,17.725 12.589,17.866 12.896 C 17.962 13.105,17.978 13.191,17.978 13.500 C 17.979 13.810,17.963 13.893,17.867 14.100 C 17.722 14.415,17.413 14.724,17.104 14.867 C 16.894 14.965,16.811 14.980,16.500 14.980 C 16.190 14.980,16.107 14.965,15.900 14.868 C 15.584 14.721,15.275 14.413,15.134 14.104 C 15.038 13.895,15.022 13.809,15.022 13.500 C 15.021 13.190,15.037 13.107,15.133 12.900 C 15.324 12.489,15.727 12.148,16.150 12.041 C 16.407 11.976,16.852 12.022,17.110 12.139 " fill="#000640" stroke="none" fill-rule="evenodd"></path></svg>