<svg xmlns="http://www.w3.org/2000/svg" width="24" height="24" fill="currentColor" class="mmi mmi-cast" viewBox="0 0 24 24"><path d="M2.503 2.042 C 1.488 2.214,0.556 2.976,0.202 3.925 C -0.006 4.481,0.001 4.233,0.001 10.992 C -0.000 17.878,-0.011 17.550,0.234 18.151 C 0.521 18.857,1.143 19.479,1.849 19.766 C 2.355 19.972,2.603 20.000,3.931 20.000 C 5.323 20.000,5.418 19.984,5.701 19.701 C 6.092 19.310,6.092 18.690,5.701 18.299 C 5.421 18.018,5.316 18.000,4.000 18.000 C 2.684 18.000,2.579 17.982,2.299 17.701 C 1.977 17.379,2.000 17.903,2.000 11.000 C 2.000 4.097,1.977 4.621,2.299 4.299 C 2.625 3.973,1.736 4.000,12.000 4.000 C 22.264 4.000,21.375 3.973,21.701 4.299 C 22.023 4.621,22.000 4.097,22.000 11.000 C 22.000 17.903,22.023 17.379,21.701 17.701 C 21.420 17.982,21.316 18.000,19.998 18.000 C 18.758 18.000,18.645 18.015,18.374 18.222 C 18.301 18.277,18.192 18.408,18.131 18.511 C 18.036 18.672,18.020 18.744,18.020 19.000 C 18.020 19.256,18.036 19.328,18.131 19.489 C 18.260 19.709,18.437 19.854,18.678 19.939 C 18.929 20.028,21.151 20.027,21.581 19.938 C 22.780 19.691,23.691 18.780,23.938 17.581 C 23.992 17.321,24.000 16.500,24.000 11.000 C 24.000 4.123,24.011 4.449,23.766 3.849 C 23.499 3.193,22.964 2.633,22.296 2.312 C 21.632 1.992,22.653 2.022,12.120 2.015 C 6.939 2.012,2.611 2.024,2.503 2.042 M11.668 14.061 C 11.585 14.092,11.462 14.156,11.395 14.204 C 11.250 14.307,7.141 20.450,7.056 20.690 C 6.880 21.191,7.179 21.788,7.684 21.937 C 7.869 21.992,8.390 22.000,12.000 22.000 C 15.610 22.000,16.131 21.992,16.316 21.937 C 16.821 21.788,17.120 21.191,16.944 20.690 C 16.857 20.444,12.749 14.306,12.600 14.200 C 12.337 14.013,11.956 13.956,11.668 14.061 M13.080 18.420 L 14.120 19.980 13.060 19.991 C 12.477 19.997,11.523 19.997,10.940 19.991 L 9.880 19.980 10.927 18.409 C 11.503 17.545,11.989 16.843,12.007 16.849 C 12.025 16.855,12.508 17.562,13.080 18.420 " fill="#000640" stroke="none" fill-rule="evenodd"></path></svg>