<svg xmlns="http://www.w3.org/2000/svg" width="24" height="24" fill="currentColor" class="mmi mmi-castletower" viewBox="0 0 24 24"><path d="M11.699 1.053 C 11.611 1.082,11.486 1.140,11.422 1.182 C 11.244 1.299,5.108 9.504,5.049 9.705 C 5.011 9.831,5.000 11.303,5.000 16.008 C 5.000 22.902,4.977 22.379,5.299 22.701 C 5.621 23.023,5.097 23.000,12.000 23.000 C 18.903 23.000,18.379 23.023,18.701 22.701 C 19.023 22.379,19.000 22.903,19.000 16.000 C 19.000 10.588,18.993 9.833,18.939 9.677 C 18.898 9.560,17.827 8.101,15.769 5.361 C 12.945 1.601,12.643 1.213,12.476 1.128 C 12.251 1.015,11.916 0.982,11.699 1.053 M14.010 6.342 L 16.000 9.000 12.000 9.000 L 8.000 9.000 9.990 6.342 C 11.084 4.880,11.989 3.684,12.000 3.684 C 12.011 3.684,12.916 4.880,14.010 6.342 M17.000 16.000 L 17.000 21.000 12.000 21.000 L 7.000 21.000 7.000 16.000 L 7.000 11.000 12.000 11.000 L 17.000 11.000 17.000 16.000 M11.503 13.040 C 10.471 13.227,9.556 13.976,9.202 14.925 C 9.017 15.422,9.001 15.604,9.001 17.350 L 9.000 19.000 12.000 19.000 L 15.000 19.000 15.000 17.358 C 15.000 15.567,14.983 15.380,14.766 14.849 C 14.433 14.030,13.641 13.339,12.756 13.097 C 12.491 13.024,11.770 12.991,11.503 13.040 M12.340 15.066 C 12.593 15.153,12.847 15.407,12.934 15.660 C 12.983 15.805,13.000 15.999,13.000 16.427 L 13.000 17.000 12.000 17.000 L 11.000 17.000 11.000 16.427 C 11.000 15.740,11.052 15.546,11.300 15.298 C 11.577 15.020,11.957 14.936,12.340 15.066 " fill="#000640" stroke="none" fill-rule="evenodd"></path></svg>