<svg xmlns="http://www.w3.org/2000/svg" width="24" height="24" fill="currentColor" class="mmi mmi-cast-v2" viewBox="0 0 24 24"><path d="M2.503 3.042 C 1.488 3.214,0.556 3.976,0.202 4.925 C 0.044 5.348,0.001 5.665,0.001 6.420 C 0.000 7.221,0.025 7.362,0.212 7.607 C 0.570 8.076,1.281 8.121,1.700 7.702 C 1.955 7.447,2.000 7.266,2.000 6.500 C 2.000 5.734,2.045 5.553,2.299 5.299 C 2.625 4.973,1.736 5.000,12.000 5.000 C 22.264 5.000,21.375 4.973,21.701 5.299 C 22.023 5.621,22.000 5.097,22.000 12.000 C 22.000 18.903,22.023 18.379,21.701 18.701 C 21.387 19.015,21.604 19.000,17.498 19.000 C 13.531 19.000,13.675 18.992,13.374 19.222 C 13.301 19.277,13.192 19.408,13.131 19.511 C 13.036 19.672,13.020 19.744,13.020 20.000 C 13.020 20.256,13.036 20.328,13.131 20.489 C 13.260 20.709,13.437 20.854,13.678 20.939 C 13.938 21.031,21.136 21.030,21.581 20.938 C 22.780 20.691,23.691 19.780,23.938 18.581 C 23.992 18.321,24.000 17.500,24.000 12.000 C 24.000 5.123,24.011 5.449,23.766 4.849 C 23.499 4.193,22.964 3.633,22.296 3.312 C 21.632 2.992,22.653 3.022,12.120 3.015 C 6.939 3.012,2.611 3.024,2.503 3.042 M0.643 10.066 C 0.288 10.197,-0.000 10.615,0.000 11.000 C 0.000 11.396,0.291 11.808,0.660 11.934 C 0.773 11.972,0.981 12.000,1.157 12.000 C 1.324 12.001,1.622 12.019,1.820 12.041 C 4.608 12.352,6.994 14.031,8.200 16.529 C 8.694 17.549,8.999 18.814,9.000 19.843 C 9.000 20.238,9.088 20.490,9.299 20.701 C 9.691 21.093,10.310 21.092,10.702 20.700 C 10.965 20.437,11.017 20.226,10.984 19.559 C 10.937 18.601,10.745 17.585,10.455 16.751 C 9.092 12.837,5.499 10.166,1.400 10.021 C 0.925 10.004,0.788 10.012,0.643 10.066 M0.643 14.066 C 0.288 14.197,-0.000 14.615,0.000 15.000 C 0.000 15.401,0.295 15.815,0.664 15.931 C 0.772 15.965,1.040 16.003,1.260 16.015 C 2.773 16.100,4.149 17.098,4.715 18.520 C 4.863 18.893,5.000 19.549,5.000 19.889 C 5.000 20.237,5.096 20.498,5.299 20.701 C 5.691 21.093,6.310 21.092,6.702 20.700 C 6.951 20.451,7.018 20.213,6.984 19.690 C 6.911 18.560,6.583 17.568,5.986 16.675 C 5.076 15.315,3.642 14.377,2.044 14.098 C 1.499 14.003,0.853 13.988,0.643 14.066 M1.150 18.041 C 0.717 18.150,0.342 18.463,0.144 18.880 C 0.033 19.112,0.020 19.179,0.021 19.500 C 0.022 19.807,0.039 19.896,0.134 20.104 C 0.275 20.413,0.584 20.721,0.900 20.867 C 1.107 20.963,1.190 20.979,1.500 20.978 C 1.809 20.978,1.895 20.962,2.104 20.866 C 2.413 20.725,2.721 20.416,2.867 20.100 C 2.963 19.893,2.979 19.810,2.978 19.500 C 2.978 19.191,2.962 19.105,2.866 18.896 C 2.725 18.589,2.415 18.278,2.110 18.139 C 1.852 18.022,1.407 17.976,1.150 18.041 " fill="#000640" stroke="none" fill-rule="evenodd"></path></svg>