<svg xmlns="http://www.w3.org/2000/svg" width="24" height="24" fill="currentColor" class="mmi mmi-chair" viewBox="0 0 24 24"><path d="M16.940 1.025 C 16.506 1.110,16.388 1.142,16.180 1.229 C 15.648 1.451,15.130 1.876,14.817 2.347 C 14.664 2.577,14.307 3.369,14.157 3.811 C 14.095 3.991,14.066 4.199,14.051 4.561 C 14.027 5.144,14.103 5.526,14.339 6.004 C 14.609 6.550,14.962 6.926,15.549 7.292 C 15.764 7.427,15.877 7.521,15.868 7.560 C 15.860 7.593,15.703 8.380,15.518 9.309 L 15.182 10.998 10.601 11.009 L 6.020 11.020 5.760 11.109 C 4.987 11.374,4.406 11.950,4.130 12.727 C 4.040 12.979,4.026 13.087,4.025 13.500 C 4.024 13.920,4.037 14.017,4.129 14.273 C 4.364 14.926,4.798 15.434,5.363 15.717 C 5.543 15.807,5.713 15.880,5.742 15.880 C 5.771 15.880,5.807 15.899,5.822 15.922 C 5.836 15.946,5.654 17.319,5.418 18.974 C 5.095 21.236,4.995 22.030,5.016 22.171 C 5.054 22.423,5.255 22.710,5.497 22.859 C 5.671 22.966,5.729 22.980,5.997 22.980 C 6.256 22.980,6.327 22.964,6.489 22.869 C 6.712 22.738,6.859 22.557,6.939 22.315 C 6.971 22.219,7.187 20.799,7.419 19.160 C 7.651 17.521,7.850 16.139,7.861 16.090 L 7.882 16.000 11.566 16.010 L 15.251 16.020 16.165 19.218 C 16.810 21.474,17.110 22.461,17.182 22.570 C 17.310 22.764,17.598 22.949,17.825 22.983 C 18.401 23.069,18.929 22.673,18.987 22.113 C 19.008 21.914,18.921 21.585,18.005 18.377 L 17.000 14.859 17.000 13.479 L 17.000 12.098 17.480 9.699 L 17.960 7.300 18.967 4.782 C 19.611 3.171,19.980 2.197,19.991 2.076 C 20.033 1.639,19.732 1.186,19.316 1.063 C 19.146 1.012,18.903 1.001,18.063 1.005 C 17.489 1.007,16.984 1.016,16.940 1.025 M17.444 3.190 C 16.873 4.634,16.506 5.520,16.479 5.520 C 16.403 5.520,16.127 5.146,16.080 4.981 C 16.001 4.697,16.047 4.428,16.263 3.920 C 16.551 3.246,16.824 3.012,17.329 3.003 L 17.519 3.000 17.444 3.190 M15.000 13.500 L 15.000 14.000 10.698 14.000 C 5.948 14.000,6.242 14.016,6.078 13.748 C 5.935 13.513,6.009 13.226,6.252 13.078 C 6.377 13.002,6.486 13.000,10.690 13.000 L 15.000 13.000 15.000 13.500 " fill="#000640" stroke="none" fill-rule="evenodd"></path></svg>