<svg xmlns="http://www.w3.org/2000/svg" width="24" height="24" fill="currentColor" class="mmi mmi-chatbubble-message-v3" viewBox="0 0 24 24"><path d="M3.503 2.042 C 2.554 2.203,1.717 2.847,1.298 3.740 C 1.000 4.374,1.020 3.892,1.020 10.500 C 1.020 17.108,1.000 16.626,1.298 17.260 C 1.606 17.918,2.079 18.391,2.740 18.704 C 3.349 18.992,3.437 19.000,6.102 19.000 L 8.436 19.000 9.364 20.550 C 9.875 21.402,10.364 22.190,10.450 22.299 C 10.653 22.558,10.973 22.795,11.288 22.920 C 11.505 23.006,11.603 23.020,12.000 23.020 C 12.397 23.020,12.495 23.006,12.712 22.920 C 13.027 22.795,13.347 22.558,13.550 22.299 C 13.636 22.190,14.125 21.402,14.636 20.550 L 15.564 19.000 17.898 19.000 C 20.563 19.000,20.651 18.992,21.260 18.704 C 21.920 18.391,22.391 17.920,22.704 17.260 C 23.015 16.602,23.000 16.949,23.000 10.500 C 23.000 4.051,23.015 4.398,22.704 3.740 C 22.398 3.095,21.924 2.614,21.296 2.312 C 20.634 1.993,21.532 2.022,12.120 2.015 C 7.489 2.012,3.611 2.024,3.503 2.042 M20.340 4.066 C 20.455 4.105,20.603 4.201,20.701 4.299 C 21.022 4.620,21.000 4.157,21.000 10.500 C 21.000 16.843,21.022 16.380,20.701 16.701 C 20.394 17.008,20.483 17.000,17.520 17.000 C 14.577 17.000,14.608 16.997,14.329 17.272 C 14.240 17.359,13.731 18.167,13.099 19.229 C 12.505 20.224,12.011 21.038,12.000 21.038 C 11.989 21.038,11.494 20.224,10.900 19.230 C 10.306 18.237,9.779 17.375,9.729 17.315 C 9.679 17.255,9.553 17.164,9.449 17.113 L 9.260 17.020 6.499 17.000 L 3.738 16.980 3.539 16.878 C 3.313 16.761,3.102 16.509,3.041 16.282 C 3.012 16.177,3.002 14.278,3.009 10.414 L 3.020 4.700 3.131 4.511 C 3.256 4.298,3.449 4.136,3.670 4.057 C 3.793 4.013,5.268 4.003,11.983 4.002 C 19.479 4.000,20.162 4.005,20.340 4.066 M5.664 7.063 C 5.436 7.146,5.257 7.297,5.131 7.511 C 5.036 7.672,5.020 7.744,5.020 8.000 C 5.020 8.256,5.036 8.328,5.131 8.489 C 5.192 8.592,5.301 8.723,5.374 8.778 C 5.677 9.009,5.484 9.000,9.998 9.000 C 14.663 9.000,14.384 9.018,14.701 8.701 C 15.092 8.310,15.092 7.690,14.701 7.299 C 14.384 6.982,14.666 7.000,9.983 7.003 C 6.474 7.005,5.795 7.015,5.664 7.063 M5.664 11.063 C 5.436 11.146,5.257 11.297,5.131 11.511 C 5.036 11.672,5.020 11.744,5.020 12.000 C 5.020 12.256,5.036 12.328,5.131 12.489 C 5.192 12.592,5.301 12.723,5.374 12.778 C 5.664 13.000,5.670 13.000,7.998 13.000 C 10.428 13.000,10.399 13.003,10.701 12.701 C 11.092 12.310,11.092 11.690,10.701 11.299 C 10.398 10.996,10.430 11.000,7.983 11.003 C 6.210 11.005,5.792 11.016,5.664 11.063 " fill="#000640" stroke="none" fill-rule="evenodd"></path></svg>