<svg xmlns="http://www.w3.org/2000/svg" width="24" height="24" fill="currentColor" class="mmi mmi-chatbubble-v3" viewBox="0 0 24 24"><path d="M3.503 2.042 C 2.488 2.214,1.556 2.976,1.202 3.925 C 0.995 4.479,1.001 4.274,1.001 10.492 C 1.000 16.829,0.990 16.553,1.234 17.151 C 1.521 17.857,2.143 18.479,2.849 18.766 C 3.406 18.993,3.503 19.000,6.072 19.000 L 8.428 19.000 9.401 20.622 C 10.473 22.407,10.622 22.602,11.087 22.830 C 11.409 22.989,11.625 23.038,12.000 23.038 C 12.375 23.038,12.591 22.989,12.912 22.831 C 13.372 22.605,13.509 22.425,14.583 20.635 L 15.564 19.000 17.924 19.000 C 20.497 19.000,20.594 18.993,21.150 18.767 C 21.850 18.482,22.482 17.850,22.767 17.150 C 23.010 16.554,23.000 16.826,23.000 10.500 C 23.000 4.172,23.010 4.447,22.766 3.849 C 22.499 3.193,21.964 2.633,21.296 2.312 C 20.634 1.993,21.532 2.022,12.120 2.015 C 7.489 2.012,3.611 2.024,3.503 2.042 M20.340 4.066 C 20.455 4.105,20.603 4.201,20.701 4.299 C 21.022 4.620,21.000 4.157,21.000 10.500 C 21.000 16.843,21.022 16.380,20.701 16.701 C 20.394 17.008,20.483 17.000,17.519 17.000 C 14.678 17.000,14.664 17.001,14.382 17.216 C 14.288 17.288,13.912 17.874,13.136 19.160 C 12.525 20.173,12.011 20.997,11.994 20.991 C 11.977 20.985,11.475 20.170,10.880 19.180 C 10.188 18.029,9.745 17.333,9.651 17.249 C 9.372 16.999,9.380 17.000,6.480 17.000 C 3.517 17.000,3.606 17.008,3.299 16.701 C 2.978 16.380,3.000 16.843,3.000 10.500 C 3.000 4.156,2.978 4.620,3.300 4.298 C 3.617 3.981,2.858 4.007,11.983 4.003 C 19.481 4.000,20.162 4.005,20.340 4.066 " fill="#000640" stroke="none" fill-rule="evenodd"></path></svg>