<svg xmlns="http://www.w3.org/2000/svg" width="24" height="24" fill="currentColor" class="mmi mmi-chatsticker" viewBox="0 0 24 24"><path d="M10.740 0.065 C 10.674 0.075,10.431 0.110,10.200 0.142 C 7.563 0.519,4.921 1.930,3.130 3.920 C 1.491 5.741,0.491 7.862,0.114 10.320 C -0.013 11.148,-0.015 12.841,0.109 13.641 C 0.563 16.554,1.872 19.025,3.948 20.887 C 5.791 22.541,7.832 23.497,10.359 23.891 C 11.159 24.015,12.852 24.013,13.680 23.886 C 16.906 23.391,19.645 21.771,21.590 19.207 C 22.368 18.181,22.995 16.981,23.397 15.743 C 23.855 14.338,24.068 12.801,23.901 12.112 C 23.819 11.772,23.660 11.404,23.478 11.133 C 23.328 10.908,13.367 0.917,13.040 0.663 C 12.482 0.229,12.059 0.077,11.360 0.059 C 11.085 0.053,10.806 0.055,10.740 0.065 M10.057 2.370 C 10.172 3.285,10.214 3.564,10.299 3.971 C 10.814 6.456,11.956 8.603,13.677 10.323 C 15.641 12.288,18.221 13.524,21.100 13.878 C 21.298 13.903,21.537 13.932,21.631 13.944 L 21.803 13.965 21.776 14.113 C 21.721 14.418,21.470 15.237,21.294 15.680 C 20.777 16.987,19.881 18.313,18.877 19.257 C 17.018 21.004,14.529 22.001,12.023 22.000 C 8.737 21.999,5.691 20.413,3.806 17.720 C 1.279 14.111,1.428 9.237,4.171 5.789 C 5.542 4.065,7.409 2.857,9.560 2.302 C 9.769 2.248,9.961 2.203,9.988 2.202 C 10.014 2.201,10.045 2.276,10.057 2.370 M21.466 11.908 C 21.459 11.914,21.231 11.883,20.957 11.838 C 19.343 11.575,17.847 10.998,16.593 10.156 C 15.456 9.391,14.376 8.274,13.670 7.133 C 13.137 6.271,12.673 5.194,12.422 4.234 C 12.303 3.778,12.248 3.503,12.099 2.620 C 12.083 2.523,12.987 3.408,16.778 7.198 C 19.362 9.782,21.472 11.902,21.466 11.908 " fill="#000640" stroke="none" fill-rule="evenodd"></path></svg>