<svg xmlns="http://www.w3.org/2000/svg" width="24" height="24" fill="currentColor" class="mmi mmi-chatbubble-filled" viewBox="0 0 24 24"><path d="M10.780 1.025 C 8.362 1.154,6.551 1.543,5.130 2.238 C 2.703 3.427,1.470 5.310,1.093 8.400 C 1.003 9.139,0.991 11.729,1.074 12.540 C 1.267 14.427,1.712 15.897,2.423 16.990 C 3.609 18.816,5.449 19.768,8.203 19.982 L 8.505 20.005 9.473 21.298 C 10.006 22.009,10.537 22.681,10.654 22.791 C 11.405 23.501,12.595 23.501,13.346 22.791 C 13.463 22.681,13.994 22.009,14.527 21.298 L 15.495 20.005 15.797 19.982 C 15.964 19.969,16.361 19.923,16.680 19.880 C 19.817 19.456,21.800 17.682,22.579 14.603 C 22.843 13.560,22.956 12.559,22.987 11.000 C 23.012 9.721,22.968 8.794,22.840 7.923 C 22.225 3.730,19.515 1.578,14.247 1.097 C 13.613 1.040,11.379 0.993,10.780 1.025 " fill="#000640" stroke="none" fill-rule="evenodd"></path></svg>