<svg xmlns="http://www.w3.org/2000/svg" width="24" height="24" fill="currentColor" class="mmi mmi-chatbubble-voicechat-v2" viewBox="0 0 24 24"><path d="M3.503 2.042 C 2.572 2.199,1.727 2.840,1.312 3.704 C 0.994 4.365,1.023 3.506,1.009 12.580 C 1.001 18.183,1.010 20.777,1.039 20.949 C 1.259 22.236,2.687 22.952,3.880 22.374 C 4.162 22.238,4.280 22.130,5.802 20.614 L 7.423 19.000 13.827 19.000 C 21.027 19.000,20.598 19.017,21.260 18.704 C 21.920 18.391,22.391 17.920,22.704 17.260 C 23.015 16.602,23.000 16.949,23.000 10.500 C 23.000 4.051,23.015 4.398,22.704 3.740 C 22.398 3.095,21.924 2.614,21.296 2.312 C 20.634 1.993,21.532 2.022,12.120 2.015 C 7.489 2.012,3.611 2.024,3.503 2.042 M20.340 4.066 C 20.455 4.105,20.603 4.201,20.701 4.299 C 21.022 4.620,21.000 4.157,21.000 10.500 C 21.000 16.843,21.022 16.380,20.701 16.701 C 20.378 17.024,20.963 17.000,13.500 17.000 C 7.460 17.000,6.836 17.006,6.657 17.065 C 6.480 17.124,6.281 17.309,4.730 18.855 L 2.999 20.579 3.010 12.639 L 3.020 4.700 3.131 4.511 C 3.256 4.298,3.449 4.136,3.670 4.057 C 3.793 4.013,5.268 4.003,11.983 4.002 C 19.479 4.000,20.162 4.005,20.340 4.066 M11.664 6.063 C 11.436 6.146,11.257 6.297,11.131 6.511 L 11.020 6.700 11.009 10.413 C 11.002 12.908,11.012 14.176,11.040 14.281 C 11.101 14.506,11.312 14.761,11.531 14.874 C 11.932 15.080,12.390 15.012,12.700 14.702 C 13.016 14.387,13.000 14.605,13.000 10.500 C 13.000 6.396,13.015 6.613,12.701 6.299 C 12.429 6.027,12.018 5.933,11.664 6.063 M7.664 8.063 C 7.436 8.146,7.257 8.297,7.131 8.511 L 7.020 8.700 7.008 10.410 C 7.001 11.533,7.011 12.174,7.039 12.278 C 7.101 12.506,7.311 12.760,7.531 12.874 C 7.932 13.080,8.390 13.012,8.700 12.702 C 8.995 12.407,9.000 12.371,9.000 10.500 C 9.000 8.629,8.995 8.593,8.701 8.299 C 8.429 8.027,8.018 7.933,7.664 8.063 M15.664 8.063 C 15.436 8.146,15.257 8.297,15.131 8.511 L 15.020 8.700 15.008 10.410 C 15.001 11.533,15.011 12.174,15.039 12.278 C 15.101 12.506,15.311 12.760,15.531 12.874 C 15.932 13.080,16.390 13.012,16.700 12.702 C 16.995 12.407,17.000 12.371,17.000 10.500 C 17.000 8.629,16.995 8.593,16.701 8.299 C 16.429 8.027,16.018 7.933,15.664 8.063 " fill="#000640" stroke="none" fill-rule="evenodd"></path></svg>