<svg xmlns="http://www.w3.org/2000/svg" width="24" height="24" fill="currentColor" class="mmi mmi-chatbubble-add-v2" viewBox="0 0 24 24"><path d="M3.503 2.042 C 2.572 2.199,1.727 2.840,1.312 3.704 C 0.994 4.365,1.023 3.506,1.009 12.580 C 1.001 18.183,1.010 20.777,1.039 20.949 C 1.259 22.236,2.687 22.952,3.880 22.374 C 4.162 22.238,4.280 22.130,5.802 20.614 L 7.423 19.000 13.827 19.000 C 21.027 19.000,20.598 19.017,21.260 18.704 C 21.920 18.391,22.391 17.920,22.704 17.260 C 23.015 16.602,23.000 16.949,23.000 10.500 C 23.000 4.051,23.015 4.398,22.704 3.740 C 22.398 3.095,21.924 2.614,21.296 2.312 C 20.634 1.993,21.532 2.022,12.120 2.015 C 7.489 2.012,3.611 2.024,3.503 2.042 M20.340 4.066 C 20.455 4.105,20.603 4.201,20.701 4.299 C 21.022 4.620,21.000 4.157,21.000 10.500 C 21.000 16.843,21.022 16.380,20.701 16.701 C 20.378 17.024,20.963 17.000,13.500 17.000 C 7.460 17.000,6.836 17.006,6.657 17.065 C 6.480 17.124,6.281 17.309,4.730 18.855 L 2.999 20.579 3.010 12.639 L 3.020 4.700 3.131 4.511 C 3.256 4.298,3.449 4.136,3.670 4.057 C 3.793 4.013,5.268 4.003,11.983 4.002 C 19.479 4.000,20.162 4.005,20.340 4.066 M11.664 7.063 C 11.436 7.146,11.257 7.297,11.131 7.511 L 11.020 7.700 11.008 8.850 L 10.995 10.000 9.923 10.000 C 8.764 10.000,8.642 10.018,8.374 10.222 C 8.301 10.277,8.192 10.408,8.131 10.511 C 8.036 10.672,8.020 10.744,8.020 11.000 C 8.020 11.256,8.036 11.328,8.131 11.489 C 8.192 11.592,8.301 11.723,8.374 11.778 C 8.642 11.983,8.764 12.000,9.925 12.000 L 11.000 12.000 11.000 13.070 C 11.000 13.684,11.018 14.204,11.042 14.289 C 11.103 14.509,11.315 14.762,11.531 14.874 C 11.932 15.080,12.390 15.012,12.700 14.702 C 12.979 14.423,13.000 14.309,13.000 13.073 L 13.000 12.000 14.073 12.000 C 15.308 12.000,15.423 11.979,15.701 11.701 C 16.092 11.310,16.092 10.690,15.701 10.299 C 15.423 10.021,15.308 10.000,14.073 10.000 L 13.000 10.000 13.000 8.927 C 13.000 7.692,12.979 7.577,12.701 7.299 C 12.429 7.027,12.018 6.933,11.664 7.063 " fill="#000640" stroke="none" fill-rule="evenodd"></path></svg>