<svg xmlns="http://www.w3.org/2000/svg" width="24" height="24" fill="currentColor" class="mmi mmi-chatbubble-v2" viewBox="0 0 24 24"><path d="M3.503 2.042 C 2.488 2.214,1.556 2.976,1.202 3.925 C 0.992 4.486,1.001 4.089,1.001 12.748 C 1.000 18.472,1.013 20.857,1.044 21.008 C 1.264 22.061,2.383 22.786,3.416 22.543 C 3.982 22.410,4.041 22.363,5.802 20.612 L 7.423 19.000 13.853 19.000 C 20.890 19.000,20.550 19.011,21.150 18.767 C 21.850 18.482,22.482 17.850,22.767 17.150 C 23.010 16.554,23.000 16.826,23.000 10.500 C 23.000 4.172,23.010 4.447,22.766 3.849 C 22.499 3.193,21.964 2.633,21.296 2.312 C 20.634 1.993,21.532 2.022,12.120 2.015 C 7.489 2.012,3.611 2.024,3.503 2.042 M20.340 4.066 C 20.455 4.105,20.603 4.201,20.701 4.299 C 21.022 4.620,21.000 4.157,21.000 10.500 C 21.000 16.843,21.022 16.380,20.701 16.701 C 20.378 17.024,20.963 17.000,13.500 17.000 C 7.460 17.000,6.836 17.006,6.657 17.065 C 6.480 17.124,6.281 17.309,4.730 18.854 L 3.000 20.578 3.000 12.716 C 3.000 3.889,2.974 4.624,3.300 4.298 C 3.617 3.981,2.858 4.007,11.983 4.003 C 19.481 4.000,20.162 4.005,20.340 4.066 " fill="#000640" stroke="none" fill-rule="evenodd"></path></svg>