<svg xmlns="http://www.w3.org/2000/svg" width="24" height="24" fill="currentColor" class="mmi mmi-chatbubble-idle" viewBox="0 0 24 24"><path d="M10.840 1.023 C 8.668 1.166,7.588 1.343,6.295 1.766 C 5.223 2.117,4.155 2.707,3.432 3.347 C 2.383 4.277,1.652 5.587,1.304 7.160 C 0.924 8.882,0.898 11.669,1.244 13.733 C 1.410 14.727,1.665 15.538,2.063 16.340 C 2.686 17.596,3.612 18.533,4.824 19.138 C 5.646 19.547,6.674 19.827,7.700 19.921 C 7.964 19.946,8.253 19.974,8.341 19.984 C 8.501 20.002,8.510 20.013,9.472 21.296 C 10.006 22.008,10.537 22.681,10.654 22.791 C 11.401 23.498,12.599 23.498,13.346 22.791 C 13.463 22.681,13.994 22.008,14.528 21.296 C 15.490 20.013,15.499 20.002,15.659 19.984 C 15.747 19.974,16.036 19.946,16.300 19.921 C 17.326 19.827,18.354 19.547,19.176 19.138 C 21.211 18.123,22.412 16.211,22.818 13.340 C 23.037 11.791,23.053 9.587,22.857 8.082 C 22.298 3.789,19.579 1.583,14.247 1.097 C 13.625 1.041,11.334 0.991,10.840 1.023 M14.280 3.098 C 18.157 3.523,20.045 4.783,20.694 7.380 C 20.907 8.230,21.000 9.189,21.000 10.516 C 20.999 15.031,19.869 17.114,17.060 17.781 C 16.530 17.907,16.130 17.958,15.362 17.995 C 14.411 18.042,14.575 17.909,13.180 19.769 C 12.542 20.620,12.011 21.316,12.000 21.316 C 11.989 21.316,11.458 20.620,10.820 19.769 C 9.423 17.906,9.592 18.042,8.619 17.994 C 6.758 17.903,5.583 17.491,4.698 16.620 C 4.137 16.069,3.812 15.523,3.519 14.644 C 3.190 13.659,3.045 12.603,3.012 10.960 C 2.939 7.324,3.579 5.550,5.389 4.371 C 6.526 3.630,8.316 3.169,10.620 3.025 C 11.222 2.987,13.726 3.037,14.280 3.098 M9.664 7.063 C 9.436 7.146,9.257 7.297,9.131 7.511 C 9.036 7.672,9.020 7.744,9.020 8.000 C 9.020 8.256,9.036 8.328,9.131 8.489 C 9.192 8.592,9.301 8.723,9.374 8.778 C 9.640 8.981,9.767 9.000,10.886 9.000 L 11.921 9.000 10.551 10.710 C 9.798 11.650,9.147 12.489,9.104 12.574 C 8.922 12.941,9.001 13.403,9.298 13.700 C 9.601 14.003,9.571 14.000,12.000 14.000 C 14.427 14.000,14.399 14.003,14.701 13.701 C 15.092 13.310,15.092 12.690,14.701 12.299 C 14.425 12.023,14.304 12.000,13.112 12.000 L 12.079 12.000 13.449 10.290 C 14.202 9.350,14.853 8.511,14.896 8.426 C 15.156 7.904,14.868 7.226,14.316 7.063 C 14.016 6.973,9.907 6.974,9.664 7.063 " fill="#000640" stroke="none" fill-rule="evenodd"></path></svg>