<svg xmlns="http://www.w3.org/2000/svg" width="24" height="24" fill="currentColor" class="mmi mmi-chatbubble-notification-v2" viewBox="0 0 24 24"><path d="M3.503 2.042 C 2.572 2.199,1.727 2.840,1.312 3.704 C 0.994 4.365,1.023 3.506,1.009 12.580 C 1.001 18.183,1.010 20.777,1.039 20.949 C 1.259 22.236,2.687 22.952,3.880 22.374 C 4.162 22.238,4.280 22.130,5.802 20.614 L 7.423 19.000 13.827 19.000 C 21.027 19.000,20.598 19.017,21.260 18.704 C 21.920 18.391,22.391 17.920,22.704 17.260 C 23.015 16.602,23.000 16.949,23.000 10.500 C 23.000 4.051,23.015 4.398,22.704 3.740 C 22.398 3.095,21.924 2.614,21.296 2.312 C 20.634 1.993,21.532 2.022,12.120 2.015 C 7.489 2.012,3.611 2.024,3.503 2.042 M20.340 4.066 C 20.455 4.105,20.603 4.201,20.701 4.299 C 21.022 4.620,21.000 4.157,21.000 10.500 C 21.000 16.843,21.022 16.380,20.701 16.701 C 20.378 17.024,20.963 17.000,13.500 17.000 C 7.460 17.000,6.836 17.006,6.657 17.065 C 6.480 17.124,6.281 17.309,4.730 18.855 L 2.999 20.579 3.010 12.639 L 3.020 4.700 3.131 4.511 C 3.256 4.298,3.449 4.136,3.670 4.057 C 3.793 4.013,5.268 4.003,11.983 4.002 C 19.479 4.000,20.162 4.005,20.340 4.066 M11.273 6.063 C 11.011 6.144,10.743 6.419,10.655 6.698 C 10.589 6.909,10.591 6.950,10.755 8.607 C 10.978 10.856,10.949 10.669,11.103 10.837 L 11.234 10.980 12.000 10.980 L 12.766 10.980 12.897 10.837 C 13.051 10.669,13.022 10.855,13.244 8.618 C 13.405 6.986,13.408 6.929,13.345 6.711 C 13.258 6.411,12.999 6.147,12.710 6.061 C 12.440 5.981,11.537 5.982,11.273 6.063 M11.601 12.064 C 11.044 12.214,10.632 12.671,10.523 13.260 C 10.405 13.900,10.776 14.583,11.400 14.873 C 11.587 14.961,11.676 14.976,12.000 14.976 C 12.324 14.976,12.413 14.961,12.600 14.873 C 13.224 14.583,13.595 13.900,13.477 13.260 C 13.366 12.662,12.954 12.211,12.381 12.062 C 12.091 11.986,11.888 11.987,11.601 12.064 " fill="#000640" stroke="none" fill-rule="evenodd"></path></svg>