<svg xmlns="http://www.w3.org/2000/svg" width="24" height="24" fill="currentColor" class="mmi mmi-chatbubble-voicechat" viewBox="0 0 24 24"><path d="M10.840 1.023 C 8.668 1.166,7.588 1.343,6.295 1.766 C 5.223 2.117,4.155 2.707,3.432 3.347 C 2.383 4.277,1.652 5.587,1.304 7.160 C 0.924 8.882,0.898 11.669,1.244 13.733 C 1.410 14.727,1.665 15.538,2.063 16.340 C 2.686 17.596,3.612 18.533,4.824 19.138 C 5.646 19.547,6.674 19.827,7.700 19.921 C 7.964 19.946,8.253 19.974,8.341 19.984 C 8.501 20.002,8.510 20.013,9.472 21.296 C 10.006 22.008,10.537 22.681,10.654 22.791 C 11.401 23.498,12.599 23.498,13.346 22.791 C 13.463 22.681,13.994 22.008,14.528 21.296 C 15.490 20.013,15.499 20.002,15.659 19.984 C 15.747 19.974,16.036 19.946,16.300 19.921 C 17.326 19.827,18.354 19.547,19.176 19.138 C 21.211 18.123,22.412 16.211,22.818 13.340 C 23.037 11.791,23.053 9.587,22.857 8.082 C 22.298 3.789,19.579 1.583,14.247 1.097 C 13.625 1.041,11.334 0.991,10.840 1.023 M14.280 3.098 C 18.157 3.523,20.045 4.783,20.694 7.380 C 20.907 8.230,21.000 9.189,21.000 10.516 C 20.999 15.031,19.869 17.114,17.060 17.781 C 16.530 17.907,16.130 17.958,15.362 17.995 C 14.411 18.042,14.575 17.909,13.180 19.769 C 12.542 20.620,12.011 21.316,12.000 21.316 C 11.989 21.316,11.458 20.620,10.820 19.769 C 9.423 17.906,9.592 18.042,8.619 17.994 C 6.758 17.903,5.583 17.491,4.698 16.620 C 4.137 16.069,3.812 15.523,3.519 14.644 C 3.190 13.659,3.045 12.603,3.012 10.960 C 2.939 7.324,3.579 5.550,5.389 4.371 C 6.526 3.630,8.316 3.169,10.620 3.025 C 11.222 2.987,13.726 3.037,14.280 3.098 M11.664 6.063 C 11.436 6.146,11.257 6.297,11.131 6.511 L 11.020 6.700 11.009 10.413 C 11.002 12.908,11.012 14.176,11.040 14.281 C 11.101 14.506,11.312 14.761,11.531 14.874 C 11.932 15.080,12.390 15.012,12.700 14.702 C 13.016 14.387,13.000 14.605,13.000 10.500 C 13.000 6.396,13.015 6.613,12.701 6.299 C 12.429 6.027,12.018 5.933,11.664 6.063 M7.664 8.063 C 7.436 8.146,7.257 8.297,7.131 8.511 L 7.020 8.700 7.008 10.410 C 7.001 11.533,7.011 12.174,7.039 12.278 C 7.101 12.506,7.311 12.760,7.531 12.874 C 7.932 13.080,8.390 13.012,8.700 12.702 C 8.995 12.407,9.000 12.371,9.000 10.500 C 9.000 8.629,8.995 8.593,8.701 8.299 C 8.429 8.027,8.018 7.933,7.664 8.063 M15.664 8.063 C 15.436 8.146,15.257 8.297,15.131 8.511 L 15.020 8.700 15.008 10.410 C 15.001 11.533,15.011 12.174,15.039 12.278 C 15.101 12.506,15.311 12.760,15.531 12.874 C 15.932 13.080,16.390 13.012,16.700 12.702 C 16.995 12.407,17.000 12.371,17.000 10.500 C 17.000 8.629,16.995 8.593,16.701 8.299 C 16.429 8.027,16.018 7.933,15.664 8.063 " fill="#000640" stroke="none" fill-rule="evenodd"></path></svg>