<svg xmlns="http://www.w3.org/2000/svg" width="24" height="24" fill="currentColor" class="mmi mmi-chatbubble-loading-v2" viewBox="0 0 24 24"><path d="M3.503 2.042 C 2.572 2.199,1.727 2.840,1.312 3.704 C 0.994 4.365,1.023 3.506,1.009 12.580 C 1.001 18.183,1.010 20.777,1.039 20.949 C 1.259 22.236,2.687 22.952,3.880 22.374 C 4.162 22.238,4.280 22.130,5.802 20.614 L 7.423 19.000 13.827 19.000 C 21.027 19.000,20.598 19.017,21.260 18.704 C 21.920 18.391,22.391 17.920,22.704 17.260 C 23.015 16.602,23.000 16.949,23.000 10.500 C 23.000 4.051,23.015 4.398,22.704 3.740 C 22.398 3.095,21.924 2.614,21.296 2.312 C 20.634 1.993,21.532 2.022,12.120 2.015 C 7.489 2.012,3.611 2.024,3.503 2.042 M20.340 4.066 C 20.455 4.105,20.603 4.201,20.701 4.299 C 21.022 4.620,21.000 4.157,21.000 10.500 C 21.000 16.843,21.022 16.380,20.701 16.701 C 20.378 17.024,20.963 17.000,13.500 17.000 C 7.460 17.000,6.836 17.006,6.657 17.065 C 6.480 17.124,6.281 17.309,4.730 18.855 L 2.999 20.579 3.010 12.639 L 3.020 4.700 3.131 4.511 C 3.256 4.298,3.449 4.136,3.670 4.057 C 3.793 4.013,5.268 4.003,11.983 4.002 C 19.479 4.000,20.162 4.005,20.340 4.066 M7.150 9.041 C 6.722 9.149,6.343 9.465,6.144 9.880 C 6.034 10.111,6.020 10.180,6.020 10.500 C 6.020 10.811,6.035 10.894,6.133 11.104 C 6.276 11.413,6.585 11.721,6.900 11.868 C 7.107 11.965,7.190 11.980,7.500 11.980 C 7.811 11.980,7.894 11.965,8.104 11.867 C 8.413 11.724,8.721 11.415,8.868 11.100 C 8.965 10.893,8.980 10.810,8.980 10.500 C 8.980 10.189,8.965 10.106,8.867 9.896 C 8.725 9.589,8.414 9.278,8.110 9.139 C 7.852 9.022,7.407 8.976,7.150 9.041 M11.601 9.064 C 11.044 9.214,10.632 9.671,10.523 10.260 C 10.405 10.900,10.776 11.583,11.400 11.873 C 11.587 11.961,11.676 11.976,12.000 11.976 C 12.324 11.976,12.413 11.961,12.600 11.873 C 13.224 11.583,13.595 10.900,13.477 10.260 C 13.366 9.662,12.954 9.211,12.381 9.062 C 12.091 8.986,11.888 8.987,11.601 9.064 M16.150 9.041 C 15.722 9.149,15.343 9.465,15.144 9.880 C 15.034 10.111,15.020 10.180,15.020 10.500 C 15.020 10.811,15.035 10.894,15.133 11.104 C 15.276 11.413,15.585 11.721,15.900 11.868 C 16.107 11.965,16.190 11.980,16.500 11.980 C 16.811 11.980,16.894 11.965,17.104 11.867 C 17.413 11.724,17.721 11.415,17.868 11.100 C 17.965 10.893,17.980 10.810,17.980 10.500 C 17.980 10.189,17.965 10.106,17.867 9.896 C 17.725 9.589,17.414 9.278,17.110 9.139 C 16.852 9.022,16.407 8.976,16.150 9.041 " fill="#000640" stroke="none" fill-rule="evenodd"></path></svg>