<svg xmlns="http://www.w3.org/2000/svg" width="24" height="24" fill="currentColor" class="mmi mmi-chatbubble-idle-v2" viewBox="0 0 24 24"><path d="M3.503 2.042 C 2.572 2.199,1.727 2.840,1.312 3.704 C 0.994 4.365,1.023 3.506,1.009 12.580 C 1.001 18.183,1.010 20.777,1.039 20.949 C 1.259 22.236,2.687 22.952,3.880 22.374 C 4.162 22.238,4.280 22.130,5.802 20.614 L 7.423 19.000 13.827 19.000 C 21.027 19.000,20.598 19.017,21.260 18.704 C 21.920 18.391,22.391 17.920,22.704 17.260 C 23.015 16.602,23.000 16.949,23.000 10.500 C 23.000 4.051,23.015 4.398,22.704 3.740 C 22.398 3.095,21.924 2.614,21.296 2.312 C 20.634 1.993,21.532 2.022,12.120 2.015 C 7.489 2.012,3.611 2.024,3.503 2.042 M20.340 4.066 C 20.455 4.105,20.603 4.201,20.701 4.299 C 21.022 4.620,21.000 4.157,21.000 10.500 C 21.000 16.843,21.022 16.380,20.701 16.701 C 20.378 17.024,20.963 17.000,13.500 17.000 C 7.460 17.000,6.836 17.006,6.657 17.065 C 6.480 17.124,6.281 17.309,4.730 18.855 L 2.999 20.579 3.010 12.639 L 3.020 4.700 3.131 4.511 C 3.256 4.298,3.449 4.136,3.670 4.057 C 3.793 4.013,5.268 4.003,11.983 4.002 C 19.479 4.000,20.162 4.005,20.340 4.066 M9.664 7.063 C 9.436 7.146,9.257 7.297,9.131 7.511 C 9.036 7.672,9.020 7.744,9.020 8.000 C 9.020 8.256,9.036 8.328,9.131 8.489 C 9.192 8.592,9.301 8.723,9.374 8.778 C 9.640 8.981,9.767 9.000,10.886 9.000 L 11.921 9.000 10.551 10.710 C 9.798 11.650,9.147 12.489,9.104 12.574 C 8.922 12.941,9.001 13.403,9.298 13.700 C 9.601 14.003,9.571 14.000,12.000 14.000 C 14.427 14.000,14.399 14.003,14.701 13.701 C 15.092 13.310,15.092 12.690,14.701 12.299 C 14.425 12.023,14.304 12.000,13.112 12.000 L 12.079 12.000 13.449 10.290 C 14.202 9.350,14.853 8.511,14.896 8.426 C 15.156 7.904,14.868 7.226,14.316 7.063 C 14.016 6.973,9.907 6.974,9.664 7.063 " fill="#000640" stroke="none" fill-rule="evenodd"></path></svg>