<svg xmlns="http://www.w3.org/2000/svg" width="24" height="24" fill="currentColor" class="mmi mmi-chatbubble-add-v3" viewBox="0 0 24 24"><path d="M3.503 2.042 C 2.554 2.203,1.717 2.847,1.298 3.740 C 1.000 4.374,1.020 3.892,1.020 10.500 C 1.020 17.108,1.000 16.626,1.298 17.260 C 1.606 17.918,2.079 18.391,2.740 18.704 C 3.349 18.992,3.437 19.000,6.102 19.000 L 8.436 19.000 9.364 20.550 C 9.875 21.402,10.364 22.190,10.450 22.299 C 10.653 22.558,10.973 22.795,11.288 22.920 C 11.505 23.006,11.603 23.020,12.000 23.020 C 12.397 23.020,12.495 23.006,12.712 22.920 C 13.027 22.795,13.347 22.558,13.550 22.299 C 13.636 22.190,14.125 21.402,14.636 20.550 L 15.564 19.000 17.898 19.000 C 20.563 19.000,20.651 18.992,21.260 18.704 C 21.920 18.391,22.391 17.920,22.704 17.260 C 23.015 16.602,23.000 16.949,23.000 10.500 C 23.000 4.051,23.015 4.398,22.704 3.740 C 22.398 3.095,21.924 2.614,21.296 2.312 C 20.634 1.993,21.532 2.022,12.120 2.015 C 7.489 2.012,3.611 2.024,3.503 2.042 M20.340 4.066 C 20.455 4.105,20.603 4.201,20.701 4.299 C 21.022 4.620,21.000 4.157,21.000 10.500 C 21.000 16.843,21.022 16.380,20.701 16.701 C 20.394 17.008,20.483 17.000,17.520 17.000 C 14.577 17.000,14.608 16.997,14.329 17.272 C 14.240 17.359,13.731 18.167,13.099 19.229 C 12.505 20.224,12.011 21.038,12.000 21.038 C 11.989 21.038,11.494 20.224,10.900 19.230 C 10.306 18.237,9.779 17.375,9.729 17.315 C 9.679 17.255,9.553 17.164,9.449 17.113 L 9.260 17.020 6.499 17.000 L 3.738 16.980 3.539 16.878 C 3.313 16.761,3.102 16.509,3.041 16.282 C 3.012 16.177,3.002 14.278,3.009 10.414 L 3.020 4.700 3.131 4.511 C 3.256 4.298,3.449 4.136,3.670 4.057 C 3.793 4.013,5.268 4.003,11.983 4.002 C 19.479 4.000,20.162 4.005,20.340 4.066 M11.664 7.063 C 11.436 7.146,11.257 7.297,11.131 7.511 L 11.020 7.700 11.008 8.850 L 10.995 10.000 9.923 10.000 C 8.764 10.000,8.642 10.018,8.374 10.222 C 8.301 10.277,8.192 10.408,8.131 10.511 C 8.036 10.672,8.020 10.744,8.020 11.000 C 8.020 11.256,8.036 11.328,8.131 11.489 C 8.192 11.592,8.301 11.723,8.374 11.778 C 8.642 11.983,8.764 12.000,9.925 12.000 L 11.000 12.000 11.000 13.070 C 11.000 13.684,11.018 14.204,11.042 14.289 C 11.103 14.509,11.315 14.762,11.531 14.874 C 11.932 15.080,12.390 15.012,12.700 14.702 C 12.979 14.423,13.000 14.309,13.000 13.073 L 13.000 12.000 14.073 12.000 C 15.308 12.000,15.423 11.979,15.701 11.701 C 16.092 11.310,16.092 10.690,15.701 10.299 C 15.423 10.021,15.308 10.000,14.073 10.000 L 13.000 10.000 13.000 8.927 C 13.000 7.692,12.979 7.577,12.701 7.299 C 12.429 7.027,12.018 6.933,11.664 7.063 " fill="#000640" stroke="none" fill-rule="evenodd"></path></svg>