<svg xmlns="http://www.w3.org/2000/svg" width="24" height="24" fill="currentColor" class="mmi mmi-chatbubble-notification" viewBox="0 0 24 24"><path d="M10.780 1.025 C 7.818 1.183,5.710 1.745,4.160 2.791 C 2.669 3.797,1.730 5.234,1.304 7.160 C 0.924 8.882,0.898 11.669,1.244 13.733 C 1.410 14.727,1.665 15.538,2.063 16.340 C 2.686 17.596,3.612 18.533,4.824 19.138 C 5.646 19.547,6.674 19.827,7.700 19.921 C 7.964 19.946,8.253 19.974,8.341 19.984 C 8.501 20.002,8.510 20.013,9.472 21.296 C 10.006 22.008,10.537 22.681,10.654 22.791 C 11.401 23.498,12.599 23.498,13.346 22.791 C 13.463 22.681,13.994 22.008,14.528 21.296 C 15.490 20.013,15.499 20.002,15.659 19.984 C 15.747 19.974,16.036 19.946,16.300 19.921 C 17.326 19.827,18.354 19.547,19.176 19.138 C 21.211 18.123,22.412 16.211,22.818 13.340 C 23.037 11.791,23.053 9.587,22.857 8.082 C 22.298 3.789,19.579 1.583,14.247 1.097 C 13.613 1.040,11.379 0.993,10.780 1.025 M14.280 3.098 C 18.157 3.523,20.045 4.783,20.694 7.380 C 20.907 8.230,21.000 9.189,21.000 10.516 C 20.999 15.031,19.869 17.114,17.060 17.781 C 16.530 17.907,16.130 17.958,15.362 17.995 C 14.411 18.042,14.575 17.909,13.180 19.769 C 12.542 20.620,12.011 21.316,12.000 21.316 C 11.989 21.316,11.458 20.620,10.820 19.769 C 9.423 17.906,9.592 18.042,8.619 17.994 C 6.758 17.903,5.583 17.491,4.698 16.620 C 4.137 16.069,3.812 15.523,3.519 14.644 C 3.190 13.659,3.045 12.603,3.012 10.960 C 2.939 7.324,3.579 5.550,5.389 4.371 C 6.526 3.630,8.316 3.169,10.620 3.025 C 11.222 2.987,13.726 3.037,14.280 3.098 M11.320 6.036 C 11.005 6.137,10.729 6.398,10.646 6.674 C 10.577 6.907,10.585 7.069,10.783 9.433 C 10.912 10.978,10.983 11.648,11.025 11.729 C 11.147 11.966,11.269 12.000,12.000 12.000 C 12.731 12.000,12.853 11.966,12.975 11.729 C 13.017 11.648,13.088 10.978,13.217 9.433 C 13.415 7.069,13.423 6.907,13.354 6.674 C 13.293 6.473,13.075 6.220,12.866 6.109 C 12.717 6.030,12.633 6.020,12.060 6.012 C 11.708 6.007,11.375 6.018,11.320 6.036 M11.601 13.064 C 11.044 13.214,10.632 13.671,10.523 14.260 C 10.405 14.900,10.776 15.583,11.400 15.873 C 11.587 15.961,11.676 15.976,12.000 15.976 C 12.324 15.976,12.413 15.961,12.600 15.873 C 13.224 15.583,13.595 14.900,13.477 14.260 C 13.366 13.662,12.954 13.211,12.381 13.062 C 12.091 12.986,11.888 12.987,11.601 13.064 " fill="#000640" stroke="none" fill-rule="evenodd"></path></svg>