<svg xmlns="http://www.w3.org/2000/svg" width="24" height="24" fill="currentColor" class="mmi mmi-chatbubble-loading" viewBox="0 0 24 24"><path d="M10.840 1.023 C 8.668 1.166,7.588 1.343,6.295 1.766 C 5.223 2.117,4.155 2.707,3.432 3.347 C 2.383 4.277,1.652 5.587,1.304 7.160 C 0.924 8.882,0.898 11.669,1.244 13.733 C 1.410 14.727,1.665 15.538,2.063 16.340 C 2.686 17.596,3.612 18.533,4.824 19.138 C 5.646 19.547,6.674 19.827,7.700 19.921 C 7.964 19.946,8.253 19.974,8.341 19.984 C 8.501 20.002,8.510 20.013,9.472 21.296 C 10.006 22.008,10.537 22.681,10.654 22.791 C 11.401 23.498,12.599 23.498,13.346 22.791 C 13.463 22.681,13.994 22.008,14.528 21.296 C 15.490 20.013,15.499 20.002,15.659 19.984 C 15.747 19.974,16.036 19.946,16.300 19.921 C 17.326 19.827,18.354 19.547,19.176 19.138 C 21.211 18.123,22.412 16.211,22.818 13.340 C 23.037 11.791,23.053 9.587,22.857 8.082 C 22.298 3.789,19.579 1.583,14.247 1.097 C 13.625 1.041,11.334 0.991,10.840 1.023 M14.280 3.098 C 18.157 3.523,20.045 4.783,20.694 7.380 C 20.907 8.230,21.000 9.189,21.000 10.516 C 20.999 15.031,19.869 17.114,17.060 17.781 C 16.530 17.907,16.130 17.958,15.362 17.995 C 14.411 18.042,14.575 17.909,13.180 19.769 C 12.542 20.620,12.011 21.316,12.000 21.316 C 11.989 21.316,11.458 20.620,10.820 19.769 C 9.423 17.906,9.592 18.042,8.619 17.994 C 6.758 17.903,5.583 17.491,4.698 16.620 C 4.137 16.069,3.812 15.523,3.519 14.644 C 3.190 13.659,3.045 12.603,3.012 10.960 C 2.939 7.324,3.579 5.550,5.389 4.371 C 6.526 3.630,8.316 3.169,10.620 3.025 C 11.222 2.987,13.726 3.037,14.280 3.098 M7.150 9.041 C 6.722 9.149,6.343 9.465,6.144 9.880 C 6.034 10.111,6.020 10.180,6.020 10.500 C 6.020 10.811,6.035 10.894,6.133 11.104 C 6.276 11.413,6.585 11.721,6.900 11.868 C 7.107 11.965,7.190 11.980,7.500 11.980 C 7.811 11.980,7.894 11.965,8.104 11.867 C 8.413 11.724,8.721 11.415,8.868 11.100 C 8.965 10.893,8.980 10.810,8.980 10.500 C 8.980 10.189,8.965 10.106,8.867 9.896 C 8.725 9.589,8.414 9.278,8.110 9.139 C 7.852 9.022,7.407 8.976,7.150 9.041 M11.601 9.064 C 11.044 9.214,10.632 9.671,10.523 10.260 C 10.405 10.900,10.776 11.583,11.400 11.873 C 11.587 11.961,11.676 11.976,12.000 11.976 C 12.324 11.976,12.413 11.961,12.600 11.873 C 13.224 11.583,13.595 10.900,13.477 10.260 C 13.366 9.662,12.954 9.211,12.381 9.062 C 12.091 8.986,11.888 8.987,11.601 9.064 M16.150 9.041 C 15.722 9.149,15.343 9.465,15.144 9.880 C 15.034 10.111,15.020 10.180,15.020 10.500 C 15.020 10.811,15.035 10.894,15.133 11.104 C 15.276 11.413,15.585 11.721,15.900 11.868 C 16.107 11.965,16.190 11.980,16.500 11.980 C 16.811 11.980,16.894 11.965,17.104 11.867 C 17.413 11.724,17.721 11.415,17.868 11.100 C 17.965 10.893,17.980 10.810,17.980 10.500 C 17.980 10.189,17.965 10.106,17.867 9.896 C 17.725 9.589,17.414 9.278,17.110 9.139 C 16.852 9.022,16.407 8.976,16.150 9.041 " fill="#000640" stroke="none" fill-rule="evenodd"></path></svg>