<svg xmlns="http://www.w3.org/2000/svg" width="24" height="24" fill="currentColor" class="mmi mmi-check" viewBox="0 0 24 24"><path d="M20.640 5.068 C 20.483 5.121,19.738 5.850,14.730 10.854 L 9.000 16.579 6.290 13.871 C 4.208 11.791,3.538 11.145,3.400 11.083 C 3.203 10.994,2.905 10.977,2.675 11.041 C 2.482 11.094,2.166 11.377,2.075 11.578 C 1.966 11.819,1.976 12.176,2.099 12.422 C 2.175 12.575,2.917 13.338,5.329 15.745 C 8.299 18.710,8.471 18.874,8.674 18.940 C 8.935 19.024,9.200 19.006,9.444 18.887 C 9.573 18.825,11.264 17.156,15.745 12.671 C 21.388 7.023,21.875 6.524,21.935 6.343 C 22.063 5.953,21.979 5.577,21.701 5.299 C 21.424 5.022,21.028 4.935,20.640 5.068 " fill="#000640" stroke="none" fill-rule="evenodd"></path></svg>