<svg xmlns="http://www.w3.org/2000/svg" width="24" height="24" fill="currentColor" class="mmi mmi-check-bold" viewBox="0 0 24 24"><path d="M17.640 3.068 C 17.483 3.121,16.911 3.678,13.230 7.354 L 9.000 11.579 7.550 10.131 C 6.472 9.055,6.054 8.663,5.920 8.603 C 5.680 8.495,5.320 8.495,5.080 8.603 C 4.824 8.718,0.761 12.770,0.610 13.060 C 0.463 13.344,0.465 13.668,0.615 13.944 C 0.696 14.092,1.759 15.179,4.593 18.009 C 8.275 21.686,8.470 21.874,8.674 21.940 C 8.935 22.024,9.200 22.006,9.444 21.887 C 9.573 21.825,11.393 20.027,16.246 15.171 C 22.594 8.817,22.874 8.531,22.940 8.326 C 23.024 8.065,23.006 7.800,22.888 7.556 C 22.827 7.431,22.187 6.766,20.671 5.255 C 18.747 3.336,18.521 3.124,18.343 3.065 C 18.102 2.986,17.878 2.986,17.640 3.068 M19.300 6.720 L 20.580 8.000 14.790 13.790 L 9.000 19.580 5.960 16.540 L 2.920 13.500 4.209 12.211 L 5.499 10.921 6.979 12.395 C 8.353 13.763,8.476 13.875,8.674 13.940 C 8.935 14.024,9.200 14.006,9.444 13.887 C 9.572 13.825,10.772 12.650,13.800 9.621 C 16.099 7.321,17.989 5.440,18.000 5.440 C 18.011 5.440,18.596 6.016,19.300 6.720 " fill="#000640" stroke="none" fill-rule="evenodd"></path></svg>