<svg xmlns="http://www.w3.org/2000/svg" width="24" height="24" fill="currentColor" class="mmi mmi-check-circle-filled" viewBox="0 0 24 24"><path d="M11.200 0.025 C 7.677 0.288,4.535 1.992,2.410 4.793 C 1.201 6.386,0.442 8.222,0.109 10.359 C -0.013 11.143,-0.013 12.857,0.109 13.641 C 0.563 16.554,1.872 19.025,3.948 20.887 C 5.791 22.541,7.832 23.497,10.359 23.891 C 11.143 24.013,12.857 24.013,13.641 23.891 C 16.557 23.436,19.036 22.122,20.896 20.043 C 22.545 18.200,23.498 16.163,23.891 13.641 C 24.013 12.857,24.013 11.143,23.891 10.359 C 23.557 8.220,22.799 6.386,21.588 4.790 C 19.607 2.179,16.767 0.532,13.500 0.099 C 13.032 0.037,11.640 -0.007,11.200 0.025 M17.340 8.066 C 17.887 8.252,18.147 8.909,17.887 9.444 C 17.826 9.571,16.800 10.620,14.171 13.245 C 10.850 16.561,10.523 16.876,10.343 16.935 C 10.093 17.017,9.906 17.017,9.657 16.935 C 9.479 16.876,9.253 16.663,7.329 14.745 C 5.032 12.455,5.000 12.417,5.000 12.022 C 5.001 11.691,5.068 11.527,5.297 11.297 C 5.527 11.068,5.692 11.000,6.020 11.001 C 6.410 11.002,6.458 11.042,8.290 12.871 L 10.000 14.579 13.230 11.354 C 16.026 8.563,16.484 8.121,16.640 8.068 C 16.879 7.986,17.104 7.986,17.340 8.066 " fill="#000640" stroke="none" fill-rule="evenodd"></path></svg>