<svg xmlns="http://www.w3.org/2000/svg" width="24" height="24" fill="currentColor" class="mmi mmi-checknote" viewBox="0 0 24 24"><path d="M12.257 1.359 C 12.060 1.438,8.530 3.499,8.430 3.592 C 8.136 3.867,8.059 4.386,8.255 4.765 C 8.313 4.876,8.360 4.974,8.360 4.982 C 8.360 4.990,7.032 5.003,5.410 5.010 C 2.229 5.025,2.374 5.016,1.840 5.241 C 0.891 5.642,0.196 6.530,0.041 7.541 C 0.011 7.733,0.001 9.495,0.010 13.180 C 0.024 19.161,-0.002 18.644,0.312 19.296 C 0.614 19.924,1.095 20.398,1.740 20.704 C 2.412 21.022,1.643 21.000,12.000 21.000 C 22.357 21.000,21.588 21.022,22.260 20.704 C 22.920 20.391,23.391 19.920,23.704 19.260 C 24.013 18.606,24.000 18.891,24.000 13.000 C 24.000 7.109,24.013 7.394,23.704 6.740 C 23.398 6.095,22.924 5.614,22.296 5.312 C 21.663 5.007,21.893 5.025,18.420 5.010 L 15.300 4.996 14.380 3.395 C 13.874 2.515,13.402 1.727,13.331 1.643 C 13.149 1.427,12.900 1.319,12.590 1.323 C 12.453 1.324,12.302 1.340,12.257 1.359 M14.434 7.482 L 16.616 11.260 16.683 12.360 C 16.720 12.965,16.745 13.466,16.739 13.473 C 16.733 13.480,16.310 13.207,15.800 12.867 L 14.872 12.248 12.695 8.477 C 11.497 6.403,10.523 4.692,10.529 4.673 C 10.544 4.628,12.171 3.685,12.216 3.696 C 12.236 3.700,13.234 5.404,14.434 7.482 M11.398 10.222 C 12.674 12.433,13.311 13.500,13.431 13.625 C 13.596 13.797,17.065 16.129,17.443 16.321 C 17.644 16.424,18.033 16.437,18.244 16.349 C 18.448 16.264,18.662 16.063,18.757 15.866 C 18.868 15.637,18.866 15.466,18.720 13.029 C 18.642 11.737,18.577 10.925,18.536 10.753 C 18.485 10.536,18.287 10.164,17.476 8.759 C 16.928 7.810,16.480 7.025,16.480 7.016 C 16.480 7.007,17.530 7.000,18.813 7.000 C 21.449 7.000,21.397 6.995,21.701 7.299 C 22.021 7.619,22.000 7.217,22.000 13.000 C 22.000 18.783,22.021 18.381,21.701 18.701 C 21.375 19.027,22.265 19.000,11.998 19.000 C 3.916 19.000,2.830 18.993,2.678 18.939 C 2.437 18.854,2.260 18.709,2.131 18.489 L 2.020 18.300 2.020 13.000 L 2.020 7.700 2.131 7.511 C 2.256 7.298,2.449 7.136,2.670 7.057 C 2.791 7.014,3.477 7.003,6.180 7.002 L 9.540 7.001 11.398 10.222 M4.664 15.063 C 4.436 15.146,4.257 15.297,4.131 15.511 C 4.036 15.672,4.020 15.744,4.020 16.000 C 4.020 16.256,4.036 16.328,4.131 16.489 C 4.192 16.592,4.301 16.723,4.374 16.778 C 4.677 17.009,4.484 17.000,8.998 17.000 C 13.663 17.000,13.384 17.018,13.701 16.701 C 14.092 16.310,14.092 15.690,13.701 15.299 C 13.384 14.982,13.666 15.000,8.983 15.003 C 5.474 15.005,4.795 15.015,4.664 15.063 " fill="#000640" stroke="none" fill-rule="evenodd"></path></svg>