<svg xmlns="http://www.w3.org/2000/svg" width="24" height="24" fill="currentColor" class="mmi mmi-check-circle" viewBox="0 0 24 24"><path d="M11.200 0.025 C 7.091 0.332,3.508 2.609,1.507 6.186 C 0.775 7.494,0.317 8.899,0.094 10.520 C -0.002 11.214,-0.002 12.786,0.094 13.480 C 0.317 15.101,0.775 16.506,1.507 17.814 C 4.173 22.579,9.604 24.939,14.910 23.637 C 19.156 22.595,22.595 19.156,23.637 14.910 C 24.599 10.992,23.592 6.970,20.896 3.958 C 19.003 1.843,16.397 0.483,13.500 0.099 C 13.032 0.037,11.640 -0.007,11.200 0.025 M12.920 2.043 C 14.827 2.219,16.631 2.940,18.200 4.155 C 18.637 4.493,19.507 5.363,19.845 5.800 C 21.878 8.427,22.517 11.768,21.578 14.865 C 21.082 16.499,20.272 17.850,19.061 19.061 C 18.287 19.836,17.547 20.383,16.623 20.863 C 13.714 22.376,10.286 22.376,7.377 20.863 C 6.454 20.383,5.715 19.837,4.938 19.061 C 3.951 18.075,3.213 16.964,2.722 15.728 C 1.390 12.368,1.921 8.686,4.153 5.800 C 4.491 5.363,5.363 4.491,5.800 4.153 C 7.114 3.137,8.541 2.486,10.125 2.181 C 11.037 2.006,12.003 1.958,12.920 2.043 M16.800 8.037 C 16.723 8.053,16.597 8.098,16.520 8.137 C 16.443 8.176,14.945 9.641,13.190 11.393 L 10.001 14.579 8.310 12.894 C 7.151 11.738,6.564 11.180,6.442 11.119 C 6.195 10.996,5.840 10.994,5.590 11.115 C 5.081 11.362,4.875 11.951,5.121 12.460 C 5.171 12.565,5.930 13.350,7.329 14.745 C 9.253 16.664,9.479 16.876,9.657 16.935 C 9.906 17.017,10.093 17.017,10.343 16.935 C 10.523 16.876,10.850 16.561,14.171 13.245 C 16.600 10.821,17.828 9.567,17.879 9.460 C 17.999 9.212,18.018 9.001,17.943 8.743 C 17.800 8.254,17.286 7.936,16.800 8.037 " fill="#000640" stroke="none" fill-rule="evenodd"></path></svg>