<svg xmlns="http://www.w3.org/2000/svg" width="24" height="24" fill="currentColor" class="mmi mmi-cheese" viewBox="0 0 24 24"><path d="M7.520 2.116 C 6.730 2.410,5.697 2.982,4.969 3.529 C 4.519 3.867,3.742 4.606,3.376 5.045 C 2.265 6.377,1.463 8.184,1.162 10.037 C 1.012 10.960,0.994 11.608,1.009 15.660 C 1.025 19.984,1.003 19.655,1.312 20.296 C 1.614 20.924,2.095 21.398,2.740 21.704 C 3.409 22.021,2.760 22.000,12.000 22.000 C 21.240 22.000,20.591 22.021,21.260 21.704 C 21.920 21.391,22.391 20.920,22.704 20.260 C 23.006 19.623,23.000 19.712,23.000 15.563 C 23.000 11.516,23.007 11.634,22.751 11.350 C 22.578 11.159,8.522 2.127,8.284 2.054 C 8.028 1.976,7.858 1.990,7.520 2.116 M13.255 7.565 L 18.571 10.980 10.819 10.990 C 6.555 10.996,3.060 10.993,3.052 10.985 C 3.026 10.959,3.162 10.113,3.260 9.700 C 3.737 7.679,4.848 6.025,6.480 4.909 C 6.921 4.608,7.831 4.112,7.900 4.136 C 7.922 4.144,10.332 5.687,13.255 7.565 M21.000 16.073 C 21.000 19.536,21.012 19.390,20.701 19.701 C 20.376 20.026,21.144 20.000,11.998 20.000 C 3.106 20.000,3.684 20.015,3.374 19.778 C 3.301 19.723,3.192 19.592,3.131 19.489 L 3.020 19.300 3.009 16.150 L 2.998 13.000 11.999 13.000 L 21.000 13.000 21.000 16.073 M5.664 15.063 C 5.436 15.146,5.257 15.297,5.131 15.511 C 5.036 15.672,5.020 15.744,5.020 16.000 C 5.020 16.256,5.036 16.328,5.131 16.489 C 5.470 17.065,6.234 17.168,6.701 16.701 C 7.092 16.310,7.092 15.690,6.701 15.299 C 6.429 15.027,6.018 14.933,5.664 15.063 M16.580 15.047 C 15.707 15.214,15.000 16.087,15.000 17.000 C 15.000 17.920,15.690 18.768,16.592 18.956 C 17.816 19.211,19.000 18.249,19.000 17.000 C 19.000 16.477,18.790 15.983,18.404 15.596 C 17.913 15.106,17.277 14.914,16.580 15.047 " fill="#000640" stroke="none" fill-rule="evenodd"></path></svg>