<svg xmlns="http://www.w3.org/2000/svg" width="24" height="24" fill="currentColor" class="mmi mmi-chevron-circle-down" viewBox="0 0 24 24"><path d="M11.200 0.025 C 7.091 0.332,3.508 2.609,1.507 6.186 C 0.775 7.494,0.317 8.899,0.094 10.520 C -0.002 11.214,-0.002 12.786,0.094 13.480 C 0.317 15.101,0.775 16.506,1.507 17.814 C 4.173 22.579,9.604 24.939,14.910 23.637 C 19.156 22.595,22.595 19.156,23.637 14.910 C 24.599 10.992,23.592 6.970,20.896 3.958 C 19.003 1.843,16.397 0.483,13.500 0.099 C 13.032 0.037,11.640 -0.007,11.200 0.025 M12.920 2.043 C 14.827 2.219,16.631 2.940,18.200 4.155 C 18.637 4.493,19.507 5.363,19.845 5.800 C 21.878 8.427,22.517 11.768,21.578 14.865 C 21.082 16.499,20.272 17.850,19.061 19.061 C 18.287 19.836,17.547 20.383,16.623 20.863 C 13.714 22.376,10.286 22.376,7.377 20.863 C 6.454 20.383,5.715 19.837,4.938 19.061 C 3.951 18.075,3.213 16.964,2.722 15.728 C 1.390 12.368,1.921 8.686,4.153 5.800 C 4.491 5.363,5.363 4.491,5.800 4.153 C 7.114 3.137,8.541 2.486,10.125 2.181 C 11.037 2.006,12.003 1.958,12.920 2.043 M7.645 10.046 C 7.456 10.100,7.098 10.468,7.044 10.664 C 6.970 10.929,6.990 11.204,7.099 11.422 C 7.174 11.573,7.709 12.130,9.329 13.745 C 11.253 15.663,11.479 15.876,11.657 15.935 C 11.904 16.016,12.048 16.017,12.323 15.937 C 12.532 15.875,12.619 15.794,14.647 13.770 C 16.128 12.292,16.786 11.609,16.862 11.469 C 16.988 11.237,17.009 10.874,16.910 10.637 C 16.693 10.119,16.052 9.873,15.558 10.119 C 15.436 10.180,14.854 10.732,13.690 11.893 L 12.000 13.579 10.290 11.872 C 9.005 10.588,8.535 10.144,8.400 10.083 C 8.205 9.995,7.878 9.979,7.645 10.046 " stroke="none" fill-rule="evenodd"></path></svg>