<svg xmlns="http://www.w3.org/2000/svg" width="24" height="24" fill="currentColor" class="mmi mmi-chevron-frontline-right" viewBox="0 0 24 24"><path d="M5.758 4.054 C 5.416 4.147,5.160 4.395,5.061 4.729 C 4.985 4.987,4.985 5.053,5.063 5.323 C 5.125 5.534,5.219 5.632,8.353 8.770 L 11.579 12.000 8.371 15.210 C 5.893 17.690,5.145 18.461,5.083 18.600 C 4.984 18.819,4.975 19.182,5.062 19.391 C 5.144 19.587,5.381 19.831,5.580 19.924 C 5.818 20.034,6.175 20.025,6.422 19.901 C 6.575 19.825,7.441 18.980,10.245 16.171 C 13.561 12.850,13.876 12.523,13.935 12.343 C 14.017 12.094,14.017 11.906,13.935 11.657 C 13.876 11.477,13.562 11.152,10.268 7.853 C 7.803 5.383,6.608 4.214,6.483 4.147 C 6.252 4.024,5.992 3.990,5.758 4.054 M17.664 4.063 C 17.436 4.146,17.257 4.297,17.131 4.511 L 17.020 4.700 17.010 11.914 C 17.002 16.806,17.013 19.178,17.041 19.282 C 17.101 19.506,17.312 19.761,17.531 19.874 C 17.932 20.080,18.390 20.012,18.700 19.702 C 19.025 19.377,19.000 20.025,19.000 12.000 C 19.000 3.977,19.025 4.623,18.701 4.299 C 18.429 4.027,18.018 3.933,17.664 4.063 " fill="#000640" stroke="none" fill-rule="evenodd"></path></svg>