<svg xmlns="http://www.w3.org/2000/svg" width="24" height="24" fill="currentColor" class="mmi mmi-chevron-square-up" viewBox="0 0 24 24"><path d="M3.503 1.042 C 2.818 1.158,2.117 1.573,1.670 2.127 C 1.445 2.407,1.159 2.980,1.074 3.320 C 0.993 3.647,0.993 20.353,1.074 20.680 C 1.159 21.020,1.445 21.593,1.670 21.873 C 1.950 22.220,2.312 22.501,2.740 22.704 C 3.409 23.021,2.760 23.000,12.000 23.000 C 21.240 23.000,20.591 23.021,21.260 22.704 C 21.920 22.391,22.391 21.920,22.704 21.260 C 23.021 20.591,23.000 21.240,23.000 12.000 C 23.000 2.760,23.021 3.409,22.704 2.740 C 22.398 2.095,21.924 1.614,21.296 1.312 C 20.634 0.993,21.532 1.022,12.120 1.015 C 7.489 1.012,3.611 1.024,3.503 1.042 M20.340 3.066 C 20.593 3.153,20.847 3.407,20.934 3.660 C 20.995 3.838,21.000 4.523,21.000 12.000 C 21.000 21.144,21.026 20.376,20.701 20.701 C 20.376 21.026,21.144 21.000,11.998 21.000 C 3.106 21.000,3.684 21.015,3.374 20.778 C 3.301 20.723,3.192 20.592,3.131 20.489 L 3.020 20.300 3.020 12.000 L 3.020 3.700 3.131 3.511 C 3.256 3.298,3.449 3.136,3.670 3.057 C 3.793 3.013,5.268 3.003,11.983 3.002 C 19.479 3.000,20.162 3.005,20.340 3.066 M11.640 8.068 C 11.486 8.121,11.152 8.437,9.329 10.255 C 7.930 11.649,7.171 12.435,7.121 12.540 C 7.000 12.790,6.982 12.999,7.060 13.265 C 7.151 13.581,7.410 13.844,7.717 13.936 C 7.987 14.016,8.052 14.016,8.323 13.936 C 8.531 13.876,8.614 13.799,10.270 12.147 L 12.000 10.422 13.730 12.147 C 15.386 13.799,15.469 13.876,15.677 13.936 C 15.948 14.016,16.013 14.016,16.283 13.936 C 16.590 13.844,16.849 13.581,16.940 13.265 C 17.018 12.999,17.000 12.790,16.879 12.540 C 16.829 12.435,16.070 11.650,14.671 10.255 C 12.747 8.336,12.521 8.124,12.343 8.065 C 12.102 7.986,11.878 7.986,11.640 8.068 " fill="#000640" stroke="none" fill-rule="evenodd"></path></svg>