<svg xmlns="http://www.w3.org/2000/svg" width="24" height="24" fill="currentColor" class="mmi mmi-chevron-frontlinesquare-down" viewBox="0 0 24 24"><path d="M3.503 1.042 C 2.818 1.158,2.117 1.573,1.670 2.127 C 1.445 2.407,1.159 2.980,1.074 3.320 C 0.993 3.647,0.993 20.353,1.074 20.680 C 1.159 21.020,1.445 21.593,1.670 21.873 C 1.950 22.220,2.312 22.501,2.740 22.704 C 3.409 23.021,2.760 23.000,12.000 23.000 C 21.240 23.000,20.591 23.021,21.260 22.704 C 21.920 22.391,22.391 21.920,22.704 21.260 C 23.021 20.591,23.000 21.240,23.000 12.000 C 23.000 2.760,23.021 3.409,22.704 2.740 C 22.398 2.095,21.924 1.614,21.296 1.312 C 20.634 0.993,21.532 1.022,12.120 1.015 C 7.489 1.012,3.611 1.024,3.503 1.042 M20.340 3.066 C 20.593 3.153,20.847 3.407,20.934 3.660 C 20.995 3.838,21.000 4.523,21.000 12.000 C 21.000 21.144,21.026 20.376,20.701 20.701 C 20.376 21.026,21.144 21.000,11.998 21.000 C 3.106 21.000,3.684 21.015,3.374 20.778 C 3.301 20.723,3.192 20.592,3.131 20.489 L 3.020 20.300 3.020 12.000 L 3.020 3.700 3.131 3.511 C 3.256 3.298,3.449 3.136,3.670 3.057 C 3.793 3.013,5.268 3.003,11.983 3.002 C 19.479 3.000,20.162 3.005,20.340 3.066 M7.758 7.054 C 7.409 7.149,7.158 7.397,7.056 7.748 C 6.982 8.001,7.002 8.214,7.121 8.460 C 7.171 8.565,7.930 9.350,9.329 10.745 C 11.253 12.664,11.479 12.876,11.657 12.935 C 11.906 13.017,12.094 13.017,12.343 12.935 C 12.521 12.876,12.747 12.663,14.671 10.745 C 17.006 8.417,17.001 8.423,16.999 7.982 C 16.998 7.669,16.903 7.462,16.661 7.249 C 16.449 7.062,16.278 7.000,15.980 7.001 C 15.590 7.002,15.542 7.042,13.710 8.871 L 12.000 10.579 10.310 8.893 C 9.250 7.836,8.560 7.179,8.460 7.129 C 8.244 7.023,7.978 6.994,7.758 7.054 M7.664 15.063 C 7.436 15.146,7.257 15.297,7.131 15.511 C 7.036 15.672,7.020 15.744,7.020 16.000 C 7.020 16.256,7.036 16.328,7.131 16.489 C 7.192 16.592,7.301 16.723,7.374 16.778 C 7.677 17.009,7.484 17.000,11.998 17.000 C 16.663 17.000,16.384 17.018,16.701 16.701 C 17.092 16.310,17.092 15.690,16.701 15.299 C 16.384 14.982,16.666 15.000,11.983 15.003 C 8.474 15.005,7.795 15.015,7.664 15.063 " fill="#000640" stroke="none" fill-rule="evenodd"></path></svg>