<svg xmlns="http://www.w3.org/2000/svg" width="24" height="24" fill="currentColor" class="mmi mmi-chevron-circle-right" viewBox="0 0 24 24"><path d="M11.200 0.025 C 7.091 0.332,3.508 2.609,1.507 6.186 C 0.775 7.494,0.317 8.899,0.094 10.520 C -0.002 11.214,-0.002 12.786,0.094 13.480 C 0.317 15.101,0.775 16.506,1.507 17.814 C 4.173 22.579,9.604 24.939,14.910 23.637 C 19.156 22.595,22.595 19.156,23.637 14.910 C 24.599 10.992,23.592 6.970,20.896 3.958 C 19.003 1.843,16.397 0.483,13.500 0.099 C 13.032 0.037,11.640 -0.007,11.200 0.025 M12.920 2.043 C 14.827 2.219,16.631 2.940,18.200 4.155 C 18.637 4.493,19.507 5.363,19.845 5.800 C 21.878 8.427,22.517 11.768,21.578 14.865 C 21.082 16.499,20.272 17.850,19.061 19.061 C 18.287 19.836,17.547 20.383,16.623 20.863 C 13.714 22.376,10.286 22.376,7.377 20.863 C 6.454 20.383,5.715 19.837,4.938 19.061 C 3.951 18.075,3.213 16.964,2.722 15.728 C 1.390 12.368,1.921 8.686,4.153 5.800 C 4.491 5.363,5.363 4.491,5.800 4.153 C 7.114 3.137,8.541 2.486,10.125 2.181 C 11.037 2.006,12.003 1.958,12.920 2.043 M10.645 7.046 C 10.456 7.100,10.098 7.468,10.044 7.664 C 9.977 7.904,9.993 8.200,10.083 8.400 C 10.144 8.535,10.588 9.005,11.871 10.290 L 13.579 12.000 11.871 13.710 C 10.042 15.542,10.002 15.590,10.001 15.980 C 10.000 16.308,10.068 16.473,10.297 16.703 C 10.527 16.932,10.691 16.999,11.022 17.000 C 11.417 17.000,11.455 16.968,13.745 14.671 C 15.663 12.747,15.876 12.521,15.935 12.343 C 16.017 12.094,16.017 11.906,15.935 11.657 C 15.876 11.479,15.663 11.253,13.745 9.329 C 11.430 7.008,11.418 6.997,11.002 7.004 C 10.880 7.006,10.719 7.025,10.645 7.046 " stroke="none" fill-rule="evenodd"></path></svg>