<svg xmlns="http://www.w3.org/2000/svg" width="24" height="24" fill="currentColor" class="mmi mmi-chevron-square-right" viewBox="0 0 24 24"><path d="M3.503 1.042 C 2.818 1.158,2.117 1.573,1.670 2.127 C 1.445 2.407,1.159 2.980,1.074 3.320 C 0.993 3.647,0.993 20.353,1.074 20.680 C 1.159 21.020,1.445 21.593,1.670 21.873 C 1.950 22.220,2.312 22.501,2.740 22.704 C 3.409 23.021,2.760 23.000,12.000 23.000 C 21.240 23.000,20.591 23.021,21.260 22.704 C 21.920 22.391,22.391 21.920,22.704 21.260 C 23.021 20.591,23.000 21.240,23.000 12.000 C 23.000 2.760,23.021 3.409,22.704 2.740 C 22.398 2.095,21.924 1.614,21.296 1.312 C 20.634 0.993,21.532 1.022,12.120 1.015 C 7.489 1.012,3.611 1.024,3.503 1.042 M20.340 3.066 C 20.593 3.153,20.847 3.407,20.934 3.660 C 20.995 3.838,21.000 4.523,21.000 12.000 C 21.000 21.144,21.026 20.376,20.701 20.701 C 20.376 21.026,21.144 21.000,11.998 21.000 C 3.106 21.000,3.684 21.015,3.374 20.778 C 3.301 20.723,3.192 20.592,3.131 20.489 L 3.020 20.300 3.020 12.000 L 3.020 3.700 3.131 3.511 C 3.256 3.298,3.449 3.136,3.670 3.057 C 3.793 3.013,5.268 3.003,11.983 3.002 C 19.479 3.000,20.162 3.005,20.340 3.066 M10.656 7.043 C 10.480 7.094,10.162 7.388,10.075 7.578 C 9.975 7.799,9.978 8.168,10.083 8.400 C 10.144 8.535,10.588 9.005,11.871 10.290 L 13.579 12.000 11.871 13.710 C 10.010 15.574,10.002 15.584,10.002 16.020 C 10.002 16.312,10.093 16.525,10.305 16.728 C 10.508 16.922,10.705 17.000,10.991 17.000 C 11.422 17.000,11.426 16.997,13.745 14.671 C 15.663 12.747,15.876 12.521,15.935 12.343 C 16.017 12.094,16.017 11.906,15.935 11.657 C 15.876 11.479,15.663 11.253,13.745 9.329 C 11.430 7.008,11.418 6.997,11.002 7.004 C 10.880 7.006,10.724 7.023,10.656 7.043 " fill="#000640" stroke="none" fill-rule="evenodd"></path></svg>