<svg xmlns="http://www.w3.org/2000/svg" width="24" height="24" fill="currentColor" class="mmi mmi-chevron-frontlinecircle-right" viewBox="0 0 24 24"><path d="M11.200 0.025 C 7.091 0.332,3.508 2.609,1.507 6.186 C 0.775 7.494,0.317 8.899,0.094 10.520 C -0.002 11.214,-0.002 12.786,0.094 13.480 C 0.317 15.101,0.775 16.506,1.507 17.814 C 4.173 22.579,9.604 24.939,14.910 23.637 C 19.156 22.595,22.595 19.156,23.637 14.910 C 24.599 10.992,23.592 6.970,20.896 3.958 C 19.003 1.843,16.397 0.483,13.500 0.099 C 13.032 0.037,11.640 -0.007,11.200 0.025 M12.920 2.043 C 14.827 2.219,16.631 2.940,18.200 4.155 C 18.637 4.493,19.507 5.363,19.845 5.800 C 21.878 8.427,22.517 11.768,21.578 14.865 C 21.082 16.499,20.272 17.850,19.061 19.061 C 18.287 19.836,17.547 20.383,16.623 20.863 C 13.714 22.376,10.286 22.376,7.377 20.863 C 6.454 20.383,5.715 19.837,4.938 19.061 C 3.951 18.075,3.213 16.964,2.722 15.728 C 1.390 12.368,1.921 8.686,4.153 5.800 C 4.491 5.363,5.363 4.491,5.800 4.153 C 7.114 3.137,8.541 2.486,10.125 2.181 C 11.037 2.006,12.003 1.958,12.920 2.043 M7.753 7.055 C 7.148 7.220,6.850 7.890,7.130 8.460 C 7.179 8.561,7.830 9.243,8.894 10.310 L 10.579 12.000 8.893 13.690 C 7.732 14.854,7.180 15.436,7.119 15.558 C 6.873 16.052,7.119 16.693,7.637 16.910 C 7.874 17.009,8.237 16.988,8.469 16.862 C 8.609 16.786,9.290 16.130,10.769 14.647 C 12.665 12.745,12.876 12.521,12.935 12.343 C 13.017 12.094,13.017 11.906,12.935 11.657 C 12.876 11.479,12.665 11.255,10.769 9.353 C 9.359 7.939,8.607 7.214,8.484 7.148 C 8.251 7.023,7.992 6.990,7.753 7.055 M15.643 7.069 C 15.546 7.103,15.392 7.206,15.300 7.298 C 14.982 7.616,15.000 7.336,15.000 12.000 C 15.000 16.663,14.982 16.384,15.299 16.701 C 15.690 17.092,16.310 17.092,16.701 16.701 C 17.018 16.384,17.000 16.663,17.000 12.000 C 17.000 7.337,17.018 7.616,16.701 7.299 C 16.424 7.021,16.024 6.934,15.643 7.069 " stroke="none" fill-rule="evenodd"></path></svg>