<svg xmlns="http://www.w3.org/2000/svg" width="24" height="24" fill="currentColor" class="mmi mmi-chevron-frontline-left" viewBox="0 0 24 24"><path d="M5.664 4.063 C 5.436 4.146,5.257 4.297,5.131 4.511 L 5.020 4.700 5.010 11.914 C 5.002 16.806,5.013 19.178,5.041 19.282 C 5.101 19.506,5.312 19.761,5.531 19.874 C 5.932 20.080,6.390 20.012,6.700 19.702 C 7.025 19.377,7.000 20.025,7.000 12.000 C 7.000 3.977,7.025 4.623,6.701 4.299 C 6.429 4.027,6.018 3.933,5.664 4.063 M17.800 4.037 C 17.723 4.053,17.588 4.104,17.500 4.150 C 17.403 4.201,15.929 5.649,13.735 7.847 C 10.439 11.150,10.124 11.477,10.065 11.657 C 9.983 11.906,9.983 12.094,10.065 12.343 C 10.124 12.523,10.439 12.850,13.755 16.171 C 16.179 18.600,17.433 19.828,17.540 19.879 C 17.790 20.000,17.999 20.018,18.265 19.940 C 18.581 19.849,18.844 19.590,18.936 19.283 C 19.016 19.013,19.016 18.949,18.937 18.677 C 18.875 18.466,18.781 18.368,15.647 15.230 L 12.421 12.000 15.647 8.770 C 18.781 5.632,18.875 5.534,18.937 5.323 C 19.015 5.053,19.016 4.987,18.938 4.725 C 18.797 4.252,18.277 3.937,17.800 4.037 " fill="#000640" stroke="none" fill-rule="evenodd"></path></svg>