<svg xmlns="http://www.w3.org/2000/svg" width="24" height="24" fill="currentColor" class="mmi mmi-chevron-backlinecircle-right" viewBox="0 0 24 24"><path d="M11.200 0.025 C 7.091 0.332,3.508 2.609,1.507 6.186 C 0.775 7.494,0.317 8.899,0.094 10.520 C -0.002 11.214,-0.002 12.786,0.094 13.480 C 0.236 14.512,0.460 15.408,0.797 16.290 C 2.240 20.073,5.587 22.928,9.520 23.735 C 10.462 23.928,10.948 23.975,12.000 23.975 C 13.052 23.975,13.538 23.928,14.480 23.735 C 18.413 22.928,21.760 20.073,23.203 16.290 C 23.747 14.865,23.975 13.598,23.975 12.000 C 23.975 10.948,23.928 10.462,23.735 9.520 C 22.928 5.587,20.073 2.240,16.290 0.797 C 15.407 0.460,14.489 0.230,13.500 0.099 C 13.032 0.037,11.640 -0.007,11.200 0.025 M12.920 2.043 C 14.827 2.219,16.631 2.940,18.200 4.155 C 18.637 4.493,19.507 5.363,19.845 5.800 C 21.878 8.427,22.517 11.768,21.578 14.865 C 21.082 16.499,20.272 17.850,19.061 19.061 C 18.287 19.836,17.547 20.383,16.623 20.863 C 13.714 22.376,10.286 22.376,7.377 20.863 C 6.454 20.383,5.715 19.837,4.938 19.061 C 3.951 18.075,3.213 16.964,2.722 15.728 C 1.390 12.368,1.921 8.686,4.153 5.800 C 4.491 5.363,5.363 4.491,5.800 4.153 C 7.114 3.137,8.541 2.486,10.125 2.181 C 11.037 2.006,12.003 1.958,12.920 2.043 M8.643 7.069 C 8.546 7.103,8.392 7.206,8.300 7.298 C 7.982 7.616,8.000 7.336,8.000 12.000 C 8.000 16.663,7.982 16.384,8.299 16.701 C 8.690 17.092,9.310 17.092,9.701 16.701 C 10.018 16.384,10.000 16.663,10.000 12.000 C 10.000 7.337,10.018 7.616,9.701 7.299 C 9.424 7.021,9.024 6.934,8.643 7.069 M12.753 7.055 C 12.148 7.220,11.850 7.890,12.130 8.460 C 12.179 8.561,12.830 9.243,13.894 10.310 L 15.579 12.000 13.893 13.690 C 12.732 14.854,12.180 15.436,12.119 15.558 C 11.873 16.052,12.119 16.693,12.637 16.910 C 12.874 17.009,13.237 16.988,13.469 16.862 C 13.609 16.786,14.290 16.130,15.769 14.647 C 17.665 12.745,17.876 12.521,17.935 12.343 C 18.017 12.094,18.017 11.906,17.935 11.657 C 17.876 11.479,17.665 11.255,15.769 9.353 C 14.359 7.939,13.607 7.214,13.484 7.148 C 13.251 7.023,12.992 6.990,12.753 7.055 " stroke="none" fill-rule="evenodd"></path></svg>