<svg xmlns="http://www.w3.org/2000/svg" width="24" height="24" fill="currentColor" class="mmi mmi-chevron-backlinecircle-down" viewBox="0 0 24 24"><path d="M11.200 0.025 C 7.091 0.332,3.508 2.609,1.507 6.186 C 0.775 7.494,0.317 8.899,0.094 10.520 C -0.002 11.214,-0.002 12.786,0.094 13.480 C 0.317 15.101,0.775 16.506,1.507 17.814 C 4.173 22.579,9.604 24.939,14.910 23.637 C 19.156 22.595,22.595 19.156,23.637 14.910 C 24.599 10.992,23.592 6.970,20.896 3.958 C 19.003 1.843,16.397 0.483,13.500 0.099 C 13.032 0.037,11.640 -0.007,11.200 0.025 M12.920 2.043 C 14.827 2.219,16.631 2.940,18.200 4.155 C 18.637 4.493,19.507 5.363,19.845 5.800 C 21.878 8.427,22.517 11.768,21.578 14.865 C 21.082 16.499,20.272 17.850,19.061 19.061 C 18.287 19.836,17.547 20.383,16.623 20.863 C 13.714 22.376,10.286 22.376,7.377 20.863 C 6.454 20.383,5.715 19.837,4.938 19.061 C 3.951 18.075,3.213 16.964,2.722 15.728 C 1.390 12.368,1.921 8.686,4.153 5.800 C 4.491 5.363,5.363 4.491,5.800 4.153 C 7.114 3.137,8.541 2.486,10.125 2.181 C 11.037 2.006,12.003 1.958,12.920 2.043 M7.643 8.069 C 7.291 8.193,7.000 8.614,7.000 9.000 C 7.000 9.242,7.119 9.521,7.299 9.701 C 7.616 10.018,7.337 10.000,12.000 10.000 C 16.663 10.000,16.384 10.018,16.701 9.701 C 17.092 9.310,17.092 8.690,16.701 8.299 C 16.384 7.982,16.666 8.000,11.983 8.003 C 8.320 8.006,7.799 8.014,7.643 8.069 M7.645 12.046 C 7.456 12.100,7.098 12.468,7.044 12.664 C 6.970 12.929,6.990 13.204,7.099 13.422 C 7.174 13.573,7.709 14.130,9.329 15.745 C 11.253 17.663,11.479 17.876,11.657 17.935 C 11.906 18.017,12.094 18.017,12.343 17.935 C 12.521 17.876,12.745 17.665,14.647 15.769 C 16.130 14.290,16.786 13.609,16.862 13.469 C 16.988 13.237,17.009 12.874,16.910 12.637 C 16.693 12.119,16.052 11.873,15.558 12.119 C 15.436 12.180,14.854 12.732,13.690 13.893 L 12.000 15.579 10.290 13.872 C 9.005 12.588,8.535 12.144,8.400 12.083 C 8.205 11.995,7.878 11.979,7.645 12.046 " stroke="none" fill-rule="evenodd"></path></svg>