<svg xmlns="http://www.w3.org/2000/svg" width="24" height="24" fill="currentColor" class="mmi mmi-chevron-circle-up" viewBox="0 0 24 24"><path d="M11.200 0.025 C 7.091 0.332,3.508 2.609,1.507 6.186 C 0.775 7.494,0.317 8.899,0.094 10.520 C -0.002 11.214,-0.002 12.786,0.094 13.480 C 0.317 15.101,0.775 16.506,1.507 17.814 C 4.173 22.579,9.604 24.939,14.910 23.637 C 19.156 22.595,22.595 19.156,23.637 14.910 C 24.599 10.992,23.592 6.970,20.896 3.958 C 19.003 1.843,16.397 0.483,13.500 0.099 C 13.032 0.037,11.640 -0.007,11.200 0.025 M12.920 2.043 C 14.827 2.219,16.631 2.940,18.200 4.155 C 18.637 4.493,19.507 5.363,19.845 5.800 C 21.878 8.427,22.517 11.768,21.578 14.865 C 21.082 16.499,20.272 17.850,19.061 19.061 C 18.287 19.836,17.547 20.383,16.623 20.863 C 13.714 22.376,10.286 22.376,7.377 20.863 C 6.454 20.383,5.715 19.837,4.938 19.061 C 3.951 18.075,3.213 16.964,2.722 15.728 C 1.390 12.368,1.921 8.686,4.153 5.800 C 4.491 5.363,5.363 4.491,5.800 4.153 C 7.114 3.137,8.541 2.486,10.125 2.181 C 11.037 2.006,12.003 1.958,12.920 2.043 M11.640 8.068 C 11.486 8.121,11.152 8.437,9.329 10.255 C 7.032 12.545,7.000 12.583,7.000 12.978 C 7.001 13.309,7.068 13.473,7.297 13.703 C 7.527 13.932,7.692 14.000,8.020 13.999 C 8.410 13.998,8.458 13.958,10.290 12.129 L 12.000 10.421 13.690 12.107 C 14.848 13.261,15.436 13.820,15.558 13.881 C 15.933 14.068,16.445 13.967,16.723 13.650 C 17.000 13.335,17.055 12.886,16.862 12.531 C 16.786 12.391,16.130 11.710,14.647 10.231 C 12.745 8.335,12.521 8.124,12.343 8.065 C 12.102 7.986,11.878 7.986,11.640 8.068 " stroke="none" fill-rule="evenodd"></path></svg>