<svg xmlns="http://www.w3.org/2000/svg" width="24" height="24" fill="currentColor" class="mmi mmi-chevron-backline-left" viewBox="0 0 24 24"><path d="M12.800 4.037 C 12.723 4.053,12.588 4.104,12.500 4.150 C 12.403 4.201,10.929 5.649,8.735 7.847 C 5.439 11.150,5.124 11.477,5.065 11.657 C 4.983 11.906,4.983 12.094,5.065 12.343 C 5.124 12.523,5.439 12.850,8.755 16.171 C 11.179 18.600,12.433 19.828,12.540 19.879 C 12.790 20.000,12.999 20.018,13.265 19.940 C 13.581 19.849,13.844 19.590,13.936 19.283 C 14.016 19.013,14.016 18.949,13.937 18.677 C 13.875 18.466,13.781 18.368,10.647 15.230 L 7.421 12.000 10.647 8.770 C 13.781 5.632,13.875 5.534,13.937 5.323 C 14.015 5.053,14.016 4.987,13.938 4.725 C 13.797 4.252,13.277 3.937,12.800 4.037 M17.664 4.063 C 17.436 4.146,17.257 4.297,17.131 4.511 L 17.020 4.700 17.010 11.914 C 17.002 16.806,17.013 19.178,17.041 19.282 C 17.101 19.506,17.312 19.761,17.531 19.874 C 17.932 20.080,18.390 20.012,18.700 19.702 C 19.025 19.377,19.000 20.025,19.000 12.000 C 19.000 3.977,19.025 4.623,18.701 4.299 C 18.429 4.027,18.018 3.933,17.664 4.063 " fill="#000640" stroke="none" fill-rule="evenodd"></path></svg>