<svg xmlns="http://www.w3.org/2000/svg" width="24" height="24" fill="currentColor" class="mmi mmi-chevron-frontlinesquare-left" viewBox="0 0 24 24"><path d="M3.503 1.042 C 2.818 1.158,2.117 1.573,1.670 2.127 C 1.445 2.407,1.159 2.980,1.074 3.320 C 0.993 3.647,0.993 20.353,1.074 20.680 C 1.159 21.020,1.445 21.593,1.670 21.873 C 1.950 22.220,2.312 22.501,2.740 22.704 C 3.409 23.021,2.760 23.000,12.000 23.000 C 21.240 23.000,20.591 23.021,21.260 22.704 C 21.920 22.391,22.391 21.920,22.704 21.260 C 23.021 20.591,23.000 21.240,23.000 12.000 C 23.000 2.760,23.021 3.409,22.704 2.740 C 22.398 2.095,21.924 1.614,21.296 1.312 C 20.634 0.993,21.532 1.022,12.120 1.015 C 7.489 1.012,3.611 1.024,3.503 1.042 M20.340 3.066 C 20.593 3.153,20.847 3.407,20.934 3.660 C 20.995 3.838,21.000 4.523,21.000 12.000 C 21.000 21.144,21.026 20.376,20.701 20.701 C 20.376 21.026,21.144 21.000,11.998 21.000 C 3.106 21.000,3.684 21.015,3.374 20.778 C 3.301 20.723,3.192 20.592,3.131 20.489 L 3.020 20.300 3.020 12.000 L 3.020 3.700 3.131 3.511 C 3.256 3.298,3.449 3.136,3.670 3.057 C 3.793 3.013,5.268 3.003,11.983 3.002 C 19.479 3.000,20.162 3.005,20.340 3.066 M7.664 7.063 C 7.436 7.146,7.257 7.297,7.131 7.511 L 7.020 7.700 7.009 11.913 C 7.002 14.750,7.012 16.177,7.040 16.281 C 7.101 16.506,7.312 16.761,7.531 16.874 C 7.932 17.080,8.390 17.012,8.700 16.702 C 9.018 16.384,9.000 16.665,9.000 12.000 C 9.000 7.337,9.018 7.616,8.701 7.299 C 8.429 7.027,8.018 6.933,7.664 7.063 M15.578 7.099 C 15.427 7.174,14.870 7.709,13.255 9.329 C 11.337 11.253,11.124 11.479,11.065 11.657 C 10.983 11.906,10.983 12.094,11.065 12.343 C 11.124 12.521,11.336 12.747,13.255 14.671 C 14.650 16.070,15.435 16.829,15.540 16.879 C 15.790 17.000,15.999 17.018,16.265 16.940 C 16.581 16.849,16.844 16.590,16.936 16.283 C 17.016 16.013,17.016 15.948,16.936 15.677 C 16.876 15.469,16.799 15.386,15.147 13.730 L 13.422 12.000 15.129 10.290 C 16.990 8.426,16.998 8.416,16.998 7.980 C 16.998 7.669,16.903 7.462,16.661 7.249 C 16.350 6.975,15.939 6.918,15.578 7.099 " fill="#000640" stroke="none" fill-rule="evenodd"></path></svg>