<svg xmlns="http://www.w3.org/2000/svg" width="24" height="24" fill="currentColor" class="mmi mmi-chevron-square-left" viewBox="0 0 24 24"><path d="M3.503 1.042 C 2.818 1.158,2.117 1.573,1.670 2.127 C 1.445 2.407,1.159 2.980,1.074 3.320 C 0.993 3.647,0.993 20.353,1.074 20.680 C 1.159 21.020,1.445 21.593,1.670 21.873 C 1.950 22.220,2.312 22.501,2.740 22.704 C 3.409 23.021,2.760 23.000,12.000 23.000 C 21.240 23.000,20.591 23.021,21.260 22.704 C 21.920 22.391,22.391 21.920,22.704 21.260 C 23.021 20.591,23.000 21.240,23.000 12.000 C 23.000 2.760,23.021 3.409,22.704 2.740 C 22.398 2.095,21.924 1.614,21.296 1.312 C 20.634 0.993,21.532 1.022,12.120 1.015 C 7.489 1.012,3.611 1.024,3.503 1.042 M20.340 3.066 C 20.593 3.153,20.847 3.407,20.934 3.660 C 20.995 3.838,21.000 4.523,21.000 12.000 C 21.000 21.144,21.026 20.376,20.701 20.701 C 20.376 21.026,21.144 21.000,11.998 21.000 C 3.106 21.000,3.684 21.015,3.374 20.778 C 3.301 20.723,3.192 20.592,3.131 20.489 L 3.020 20.300 3.020 12.000 L 3.020 3.700 3.131 3.511 C 3.256 3.298,3.449 3.136,3.670 3.057 C 3.793 3.013,5.268 3.003,11.983 3.002 C 19.479 3.000,20.162 3.005,20.340 3.066 M12.800 7.037 C 12.723 7.053,12.588 7.104,12.500 7.150 C 12.405 7.200,11.488 8.090,10.235 9.347 C 8.336 11.254,8.124 11.479,8.065 11.657 C 7.983 11.906,7.983 12.094,8.065 12.343 C 8.124 12.521,8.336 12.747,10.255 14.671 C 11.650 16.070,12.435 16.829,12.540 16.879 C 12.790 17.000,12.999 17.018,13.265 16.940 C 13.581 16.849,13.844 16.590,13.936 16.283 C 14.016 16.013,14.016 15.948,13.936 15.677 C 13.876 15.469,13.799 15.386,12.147 13.730 L 10.422 12.000 12.147 10.270 C 13.799 8.614,13.876 8.531,13.936 8.323 C 14.015 8.053,14.016 7.987,13.938 7.725 C 13.797 7.252,13.277 6.937,12.800 7.037 " fill="#000640" stroke="none" fill-rule="evenodd"></path></svg>