<svg xmlns="http://www.w3.org/2000/svg" width="24" height="24" fill="currentColor" class="mmi mmi-chevron-left" viewBox="0 0 24 24"><path d="M14.640 3.068 C 14.483 3.121,13.922 3.666,10.329 7.255 C 7.329 10.251,6.175 11.428,6.113 11.556 C 5.994 11.800,5.976 12.065,6.060 12.326 C 6.126 12.530,6.323 12.734,10.255 16.671 C 13.022 19.442,14.433 20.827,14.540 20.879 C 14.790 21.000,14.999 21.018,15.265 20.940 C 15.581 20.849,15.844 20.590,15.936 20.283 C 16.016 20.013,16.016 19.949,15.937 19.677 C 15.875 19.466,15.775 19.362,12.147 15.730 L 8.421 12.000 12.146 8.270 C 15.554 4.857,15.876 4.523,15.935 4.343 C 16.063 3.953,15.979 3.577,15.701 3.299 C 15.424 3.022,15.028 2.935,14.640 3.068 " fill="#000640" stroke="none" fill-rule="evenodd"></path></svg>