<svg xmlns="http://www.w3.org/2000/svg" width="24" height="24" fill="currentColor" class="mmi mmi-chevron-frontlinesquare-up" viewBox="0 0 24 24"><path d="M3.503 1.042 C 2.818 1.158,2.117 1.573,1.670 2.127 C 1.445 2.407,1.159 2.980,1.074 3.320 C 0.993 3.647,0.993 20.353,1.074 20.680 C 1.159 21.020,1.445 21.593,1.670 21.873 C 1.950 22.220,2.312 22.501,2.740 22.704 C 3.409 23.021,2.760 23.000,12.000 23.000 C 21.240 23.000,20.591 23.021,21.260 22.704 C 21.920 22.391,22.391 21.920,22.704 21.260 C 23.021 20.591,23.000 21.240,23.000 12.000 C 23.000 2.760,23.021 3.409,22.704 2.740 C 22.398 2.095,21.924 1.614,21.296 1.312 C 20.634 0.993,21.532 1.022,12.120 1.015 C 7.489 1.012,3.611 1.024,3.503 1.042 M20.340 3.066 C 20.593 3.153,20.847 3.407,20.934 3.660 C 20.995 3.838,21.000 4.523,21.000 12.000 C 21.000 21.144,21.026 20.376,20.701 20.701 C 20.376 21.026,21.144 21.000,11.998 21.000 C 3.106 21.000,3.684 21.015,3.374 20.778 C 3.301 20.723,3.192 20.592,3.131 20.489 L 3.020 20.300 3.020 12.000 L 3.020 3.700 3.131 3.511 C 3.256 3.298,3.449 3.136,3.670 3.057 C 3.793 3.013,5.268 3.003,11.983 3.002 C 19.479 3.000,20.162 3.005,20.340 3.066 M7.664 7.063 C 7.436 7.146,7.257 7.297,7.131 7.511 C 7.036 7.672,7.020 7.744,7.020 8.000 C 7.020 8.256,7.036 8.328,7.131 8.489 C 7.192 8.592,7.301 8.723,7.374 8.778 C 7.677 9.009,7.484 9.000,11.998 9.000 C 16.663 9.000,16.384 9.018,16.701 8.701 C 17.092 8.310,17.092 7.690,16.701 7.299 C 16.384 6.982,16.666 7.000,11.983 7.003 C 8.474 7.005,7.795 7.015,7.664 7.063 M11.640 11.068 C 11.486 11.121,11.152 11.437,9.329 13.255 C 7.930 14.649,7.171 15.435,7.121 15.540 C 7.000 15.790,6.982 15.999,7.060 16.265 C 7.151 16.581,7.410 16.844,7.717 16.936 C 7.987 17.016,8.052 17.016,8.323 16.936 C 8.531 16.876,8.614 16.799,10.270 15.147 L 12.000 13.422 13.730 15.147 C 15.386 16.799,15.469 16.876,15.677 16.936 C 15.948 17.016,16.013 17.016,16.283 16.936 C 16.590 16.844,16.849 16.581,16.940 16.265 C 17.018 15.999,17.000 15.790,16.879 15.540 C 16.829 15.435,16.070 14.650,14.671 13.255 C 12.747 11.336,12.521 11.124,12.343 11.065 C 12.102 10.986,11.878 10.986,11.640 11.068 " fill="#000640" stroke="none" fill-rule="evenodd"></path></svg>