<svg xmlns="http://www.w3.org/2000/svg" width="24" height="24" fill="currentColor" class="mmi mmi-chevron-backline-up" viewBox="0 0 24 24"><path d="M11.640 5.068 C 11.484 5.121,10.980 5.609,7.829 8.755 C 5.021 11.559,4.175 12.425,4.099 12.578 C 3.975 12.825,3.966 13.182,4.076 13.420 C 4.169 13.619,4.413 13.856,4.609 13.938 C 4.818 14.025,5.181 14.016,5.400 13.917 C 5.539 13.855,6.310 13.107,8.790 10.629 L 12.000 7.421 15.230 10.647 C 18.368 13.781,18.466 13.875,18.677 13.937 C 18.949 14.016,19.013 14.016,19.283 13.936 C 19.590 13.844,19.849 13.581,19.940 13.265 C 20.018 12.999,20.000 12.790,19.879 12.540 C 19.828 12.433,18.600 11.179,16.171 8.755 C 12.850 5.439,12.523 5.124,12.343 5.065 C 12.102 4.986,11.878 4.987,11.640 5.068 M4.664 17.063 C 4.436 17.146,4.257 17.297,4.131 17.511 C 4.036 17.672,4.020 17.744,4.020 18.000 C 4.020 18.256,4.036 18.328,4.131 18.489 C 4.192 18.592,4.301 18.723,4.374 18.778 C 4.683 19.014,4.201 19.000,11.998 19.000 C 20.023 19.000,19.377 19.025,19.701 18.701 C 20.092 18.310,20.092 17.690,19.701 17.299 C 19.377 16.975,20.026 17.000,11.983 17.003 C 5.871 17.005,4.797 17.014,4.664 17.063 " fill="#000640" stroke="none" fill-rule="evenodd"></path></svg>