<svg xmlns="http://www.w3.org/2000/svg" width="24" height="24" fill="currentColor" class="mmi mmi-chevron-backline-down" viewBox="0 0 24 24"><path d="M4.664 5.063 C 4.436 5.146,4.257 5.297,4.131 5.511 C 4.036 5.672,4.020 5.744,4.020 6.000 C 4.020 6.256,4.036 6.328,4.131 6.489 C 4.192 6.592,4.301 6.723,4.374 6.778 C 4.683 7.014,4.201 7.000,11.998 7.000 C 20.023 7.000,19.377 7.025,19.701 6.701 C 20.092 6.310,20.092 5.690,19.701 5.299 C 19.377 4.975,20.026 5.000,11.983 5.003 C 5.871 5.005,4.797 5.014,4.664 5.063 M4.656 10.043 C 4.480 10.094,4.162 10.388,4.075 10.578 C 3.966 10.819,3.976 11.176,4.099 11.422 C 4.175 11.575,5.020 12.441,7.829 15.245 C 11.150 18.561,11.477 18.876,11.657 18.935 C 11.906 19.017,12.094 19.017,12.343 18.935 C 12.523 18.876,12.850 18.561,16.171 15.245 C 18.600 12.821,19.828 11.567,19.879 11.460 C 20.125 10.951,19.920 10.362,19.410 10.115 C 19.160 9.994,18.805 9.996,18.558 10.119 C 18.431 10.182,17.462 11.124,15.190 13.393 L 12.000 16.580 8.790 13.372 C 6.310 10.893,5.539 10.145,5.400 10.083 C 5.208 9.997,4.877 9.979,4.656 10.043 " fill="#000640" stroke="none" fill-rule="evenodd"></path></svg>