<svg xmlns="http://www.w3.org/2000/svg" width="24" height="24" fill="currentColor" class="mmi mmi-chevron-backline-right" viewBox="0 0 24 24"><path d="M5.664 4.063 C 5.436 4.146,5.257 4.297,5.131 4.511 L 5.020 4.700 5.010 11.914 C 5.002 16.806,5.013 19.178,5.041 19.282 C 5.101 19.506,5.312 19.761,5.531 19.874 C 5.932 20.080,6.390 20.012,6.700 19.702 C 7.025 19.377,7.000 20.025,7.000 12.000 C 7.000 3.977,7.025 4.623,6.701 4.299 C 6.429 4.027,6.018 3.933,5.664 4.063 M10.656 4.043 C 10.480 4.094,10.162 4.388,10.075 4.578 C 9.975 4.799,9.978 5.168,10.083 5.400 C 10.145 5.539,10.893 6.310,13.371 8.790 L 16.579 12.000 13.371 15.210 C 10.893 17.690,10.145 18.461,10.083 18.600 C 9.984 18.819,9.975 19.182,10.062 19.391 C 10.144 19.587,10.381 19.831,10.580 19.924 C 10.818 20.034,11.175 20.025,11.422 19.901 C 11.575 19.825,12.441 18.980,15.245 16.171 C 18.561 12.850,18.876 12.523,18.935 12.343 C 19.017 12.094,19.017 11.906,18.935 11.657 C 18.876 11.477,18.561 11.150,15.245 7.829 C 12.441 5.020,11.575 4.175,11.422 4.099 C 11.212 3.994,10.903 3.972,10.656 4.043 " fill="#000640" stroke="none" fill-rule="evenodd"></path></svg>