<svg xmlns="http://www.w3.org/2000/svg" width="24" height="24" fill="currentColor" class="mmi mmi-chevron-backlinesquare-down" viewBox="0 0 24 24"><path d="M3.503 1.042 C 2.818 1.158,2.117 1.573,1.670 2.127 C 1.445 2.407,1.159 2.980,1.074 3.320 C 0.993 3.647,0.993 20.353,1.074 20.680 C 1.159 21.020,1.445 21.593,1.670 21.873 C 1.950 22.220,2.312 22.501,2.740 22.704 C 3.409 23.021,2.760 23.000,12.000 23.000 C 21.240 23.000,20.591 23.021,21.260 22.704 C 21.920 22.391,22.391 21.920,22.704 21.260 C 23.021 20.591,23.000 21.240,23.000 12.000 C 23.000 2.760,23.021 3.409,22.704 2.740 C 22.398 2.095,21.924 1.614,21.296 1.312 C 20.634 0.993,21.532 1.022,12.120 1.015 C 7.489 1.012,3.611 1.024,3.503 1.042 M20.340 3.066 C 20.593 3.153,20.847 3.407,20.934 3.660 C 20.995 3.838,21.000 4.523,21.000 12.000 C 21.000 21.144,21.026 20.376,20.701 20.701 C 20.376 21.026,21.144 21.000,11.998 21.000 C 3.106 21.000,3.684 21.015,3.374 20.778 C 3.301 20.723,3.192 20.592,3.131 20.489 L 3.020 20.300 3.020 12.000 L 3.020 3.700 3.131 3.511 C 3.256 3.298,3.449 3.136,3.670 3.057 C 3.793 3.013,5.268 3.003,11.983 3.002 C 19.479 3.000,20.162 3.005,20.340 3.066 M7.664 8.063 C 7.436 8.146,7.257 8.297,7.131 8.511 C 7.036 8.672,7.020 8.744,7.020 9.000 C 7.020 9.256,7.036 9.328,7.131 9.489 C 7.192 9.592,7.301 9.723,7.374 9.778 C 7.677 10.009,7.484 10.000,11.998 10.000 C 16.663 10.000,16.384 10.018,16.701 9.701 C 17.092 9.310,17.092 8.690,16.701 8.299 C 16.384 7.982,16.666 8.000,11.983 8.003 C 8.474 8.005,7.795 8.015,7.664 8.063 M7.656 12.043 C 7.480 12.094,7.162 12.388,7.075 12.578 C 6.966 12.819,6.976 13.176,7.099 13.422 C 7.174 13.573,7.709 14.130,9.329 15.745 C 11.253 17.663,11.479 17.876,11.657 17.935 C 11.906 18.017,12.094 18.017,12.343 17.935 C 12.521 17.876,12.747 17.664,14.671 15.745 C 16.070 14.350,16.829 13.565,16.879 13.460 C 17.125 12.951,16.919 12.362,16.410 12.115 C 16.160 11.994,15.805 11.996,15.558 12.119 C 15.436 12.180,14.854 12.732,13.690 13.893 L 12.000 15.579 10.290 13.872 C 9.005 12.588,8.535 12.144,8.400 12.083 C 8.208 11.996,7.878 11.979,7.656 12.043 " fill="#000640" stroke="none" fill-rule="evenodd"></path></svg>