<svg xmlns="http://www.w3.org/2000/svg" width="24" height="24" fill="currentColor" class="mmi mmi-chevron-frontline-down" viewBox="0 0 24 24"><path d="M4.758 5.054 C 4.409 5.149,4.158 5.397,4.056 5.748 C 3.982 6.001,4.002 6.214,4.121 6.460 C 4.172 6.567,5.400 7.821,7.829 10.245 C 11.150 13.561,11.477 13.876,11.657 13.935 C 11.906 14.017,12.094 14.017,12.343 13.935 C 12.523 13.876,12.850 13.561,16.171 10.245 C 18.600 7.821,19.828 6.567,19.879 6.460 C 20.125 5.951,19.920 5.362,19.410 5.115 C 19.160 4.994,18.805 4.996,18.558 5.119 C 18.431 5.182,17.462 6.124,15.190 8.393 L 12.000 11.580 8.810 8.394 C 6.729 6.315,5.564 5.180,5.460 5.129 C 5.243 5.023,4.977 4.994,4.758 5.054 M4.664 17.063 C 4.436 17.146,4.257 17.297,4.131 17.511 C 4.036 17.672,4.020 17.744,4.020 18.000 C 4.020 18.256,4.036 18.328,4.131 18.489 C 4.192 18.592,4.301 18.723,4.374 18.778 C 4.683 19.014,4.201 19.000,11.998 19.000 C 20.023 19.000,19.377 19.025,19.701 18.701 C 20.092 18.310,20.092 17.690,19.701 17.299 C 19.377 16.975,20.026 17.000,11.983 17.003 C 5.871 17.005,4.797 17.014,4.664 17.063 " fill="#000640" stroke="none" fill-rule="evenodd"></path></svg>