<svg xmlns="http://www.w3.org/2000/svg" width="24" height="24" fill="currentColor" class="mmi mmi-chevron-square-down" viewBox="0 0 24 24"><path d="M3.503 1.042 C 2.818 1.158,2.117 1.573,1.670 2.127 C 1.445 2.407,1.159 2.980,1.074 3.320 C 0.993 3.647,0.993 20.353,1.074 20.680 C 1.159 21.020,1.445 21.593,1.670 21.873 C 1.950 22.220,2.312 22.501,2.740 22.704 C 3.409 23.021,2.760 23.000,12.000 23.000 C 21.240 23.000,20.591 23.021,21.260 22.704 C 21.920 22.391,22.391 21.920,22.704 21.260 C 23.021 20.591,23.000 21.240,23.000 12.000 C 23.000 2.760,23.021 3.409,22.704 2.740 C 22.398 2.095,21.924 1.614,21.296 1.312 C 20.634 0.993,21.532 1.022,12.120 1.015 C 7.489 1.012,3.611 1.024,3.503 1.042 M20.340 3.066 C 20.593 3.153,20.847 3.407,20.934 3.660 C 20.995 3.838,21.000 4.523,21.000 12.000 C 21.000 21.144,21.026 20.376,20.701 20.701 C 20.376 21.026,21.144 21.000,11.998 21.000 C 3.106 21.000,3.684 21.015,3.374 20.778 C 3.301 20.723,3.192 20.592,3.131 20.489 L 3.020 20.300 3.020 12.000 L 3.020 3.700 3.131 3.511 C 3.256 3.298,3.449 3.136,3.670 3.057 C 3.793 3.013,5.268 3.003,11.983 3.002 C 19.479 3.000,20.162 3.005,20.340 3.066 M7.656 10.043 C 7.480 10.094,7.162 10.388,7.075 10.578 C 6.966 10.819,6.976 11.176,7.099 11.422 C 7.174 11.573,7.709 12.130,9.329 13.745 C 11.253 15.663,11.479 15.876,11.657 15.935 C 11.906 16.017,12.094 16.017,12.343 15.935 C 12.521 15.876,12.747 15.664,14.671 13.745 C 16.070 12.350,16.829 11.565,16.879 11.460 C 17.125 10.951,16.919 10.362,16.410 10.115 C 16.160 9.994,15.805 9.996,15.558 10.119 C 15.436 10.180,14.854 10.732,13.690 11.893 L 12.000 13.579 10.290 11.872 C 9.005 10.588,8.535 10.144,8.400 10.083 C 8.208 9.996,7.878 9.979,7.656 10.043 " fill="#000640" stroke="none" fill-rule="evenodd"></path></svg>