<svg xmlns="http://www.w3.org/2000/svg" width="24" height="24" fill="currentColor" class="mmi mmi-chevron-up" viewBox="0 0 24 24"><path d="M11.640 6.068 C 11.483 6.121,10.922 6.666,7.329 10.255 C 4.557 13.022,3.173 14.433,3.121 14.540 C 3.000 14.790,2.982 14.999,3.060 15.265 C 3.151 15.581,3.410 15.844,3.717 15.936 C 3.987 16.016,4.051 16.016,4.323 15.937 C 4.534 15.875,4.638 15.775,8.270 12.147 L 12.000 8.421 15.730 12.147 C 19.362 15.775,19.466 15.875,19.677 15.937 C 19.949 16.016,20.013 16.016,20.283 15.936 C 20.590 15.844,20.849 15.581,20.940 15.265 C 21.018 14.999,21.000 14.790,20.879 14.540 C 20.827 14.433,19.443 13.023,16.671 10.255 C 12.885 6.474,12.524 6.124,12.343 6.065 C 12.102 5.986,11.878 5.987,11.640 6.068 " fill="#000640" stroke="none" fill-rule="evenodd"></path></svg>