<svg xmlns="http://www.w3.org/2000/svg" width="24" height="24" fill="currentColor" class="mmi mmi-chevron-frontline-up" viewBox="0 0 24 24"><path d="M4.664 5.063 C 4.436 5.146,4.257 5.297,4.131 5.511 C 4.036 5.672,4.020 5.744,4.020 6.000 C 4.020 6.256,4.036 6.328,4.131 6.489 C 4.192 6.592,4.301 6.723,4.374 6.778 C 4.683 7.014,4.201 7.000,11.998 7.000 C 20.023 7.000,19.377 7.025,19.701 6.701 C 20.092 6.310,20.092 5.690,19.701 5.299 C 19.377 4.975,20.026 5.000,11.983 5.003 C 5.871 5.005,4.797 5.014,4.664 5.063 M11.640 10.068 C 11.484 10.121,10.980 10.609,7.829 13.755 C 5.021 16.559,4.175 17.425,4.099 17.578 C 3.975 17.825,3.966 18.182,4.076 18.420 C 4.169 18.619,4.413 18.856,4.609 18.938 C 4.818 19.025,5.181 19.016,5.400 18.917 C 5.539 18.855,6.310 18.107,8.790 15.629 L 12.000 12.421 15.230 15.647 C 18.368 18.781,18.466 18.875,18.677 18.937 C 18.949 19.016,19.013 19.016,19.283 18.936 C 19.590 18.844,19.849 18.581,19.940 18.265 C 20.018 17.999,20.000 17.790,19.879 17.540 C 19.828 17.433,18.600 16.179,16.171 13.755 C 12.850 10.439,12.523 10.124,12.343 10.065 C 12.102 9.986,11.878 9.987,11.640 10.068 " fill="#000640" stroke="none" fill-rule="evenodd"></path></svg>