<svg xmlns="http://www.w3.org/2000/svg" width="24" height="24" fill="currentColor" class="mmi mmi-church" viewBox="0 0 24 24"><path d="M14.664 0.063 C 14.436 0.146,14.257 0.297,14.131 0.511 C 14.024 0.693,14.020 0.723,14.007 1.350 L 13.993 2.000 13.422 2.000 C 12.631 2.000,12.371 2.103,12.131 2.511 C 12.036 2.672,12.020 2.744,12.020 3.000 C 12.020 3.256,12.036 3.328,12.131 3.489 C 12.371 3.898,12.631 4.000,13.425 4.000 L 14.000 4.000 14.000 4.734 L 14.000 5.467 11.155 7.364 C 9.554 8.430,8.268 9.314,8.215 9.383 C 8.008 9.654,8.000 9.730,8.000 11.422 L 8.000 12.995 6.230 13.010 C 4.265 13.028,4.304 13.023,3.704 13.312 C 2.811 13.741,2.209 14.541,2.041 15.522 C 2.010 15.700,2.000 16.791,2.008 19.040 L 2.020 22.300 2.131 22.489 C 2.260 22.709,2.437 22.854,2.678 22.939 C 2.830 22.993,3.916 23.000,11.998 23.000 C 22.265 23.000,21.375 23.027,21.701 22.701 C 22.023 22.379,22.000 22.903,22.000 15.998 C 22.000 9.317,22.012 9.680,21.785 9.383 C 21.732 9.314,20.446 8.430,18.845 7.364 L 16.000 5.467 16.000 4.734 L 16.000 4.000 16.573 4.000 C 17.259 4.000,17.454 3.948,17.701 3.701 C 18.092 3.310,18.092 2.690,17.701 2.299 C 17.454 2.052,17.259 2.000,16.573 2.000 L 16.000 2.000 16.000 1.427 C 16.000 0.741,15.948 0.546,15.701 0.299 C 15.429 0.027,15.018 -0.067,14.664 0.063 M17.500 8.867 L 20.000 10.533 20.000 15.767 L 20.000 21.000 19.000 21.000 L 18.000 21.000 18.000 18.858 C 18.000 17.086,17.989 16.665,17.938 16.419 C 17.741 15.462,17.149 14.715,16.260 14.298 C 15.779 14.072,15.546 14.021,15.000 14.021 C 14.454 14.021,14.221 14.072,13.740 14.298 C 13.015 14.638,12.465 15.219,12.202 15.925 C 12.010 16.439,12.001 16.567,12.001 18.850 L 12.000 21.000 11.000 21.000 L 10.000 21.000 10.000 15.767 L 10.000 10.533 12.490 8.869 C 13.860 7.954,14.985 7.204,14.990 7.203 C 14.996 7.201,16.125 7.950,17.500 8.867 M8.000 18.000 L 8.000 21.000 6.000 21.000 L 4.000 21.000 4.000 18.427 C 4.000 15.522,3.992 15.606,4.300 15.298 C 4.588 15.010,4.614 15.007,6.410 15.003 L 8.000 15.000 8.000 18.000 M15.340 16.066 C 15.593 16.153,15.847 16.407,15.934 16.660 C 15.992 16.831,16.000 17.103,16.000 18.927 L 16.000 21.000 15.000 21.000 L 14.000 21.000 14.000 18.927 C 14.000 16.580,13.998 16.600,14.300 16.298 C 14.577 16.020,14.957 15.936,15.340 16.066 " fill="#000640" stroke="none" fill-rule="evenodd"></path></svg>