<svg xmlns="http://www.w3.org/2000/svg" width="24" height="24" fill="currentColor" class="mmi mmi-circle-sliced-diagonal" viewBox="0 0 24 24"><path d="M1.758 1.054 C 1.416 1.147,1.160 1.395,1.061 1.729 C 0.984 1.987,0.985 2.054,1.064 2.323 C 1.124 2.530,1.199 2.612,2.687 4.105 L 4.247 5.670 3.972 6.045 C 3.547 6.622,3.338 6.968,3.020 7.620 C 2.384 8.923,2.066 10.192,2.013 11.640 C 1.926 14.017,2.662 16.272,4.153 18.200 C 4.490 18.635,5.362 19.506,5.800 19.845 C 7.110 20.859,8.532 21.510,10.103 21.815 C 12.861 22.349,15.681 21.708,17.955 20.029 L 18.330 19.753 19.895 21.313 C 21.388 22.801,21.470 22.876,21.677 22.936 C 21.948 23.016,22.013 23.016,22.283 22.936 C 22.581 22.847,22.847 22.581,22.936 22.283 C 23.016 22.013,23.016 21.948,22.936 21.677 C 22.876 21.470,22.801 21.388,21.313 19.895 L 19.753 18.330 20.029 17.955 C 22.930 14.026,22.597 8.656,19.235 5.103 C 16.922 2.659,13.509 1.564,10.134 2.183 C 8.649 2.455,7.070 3.161,5.908 4.073 L 5.676 4.255 4.148 2.731 C 3.198 1.785,2.559 1.178,2.460 1.129 C 2.244 1.023,1.978 0.994,1.758 1.054 M12.766 4.042 C 14.353 4.205,15.824 4.806,17.040 5.789 C 17.394 6.075,18.067 6.761,18.326 7.100 C 19.569 8.727,20.159 10.775,19.958 12.766 C 19.861 13.733,19.605 14.634,19.182 15.500 C 18.970 15.934,18.496 16.714,18.356 16.859 C 18.332 16.884,16.289 14.869,12.719 11.299 C 9.640 8.220,7.120 5.687,7.120 5.672 C 7.120 5.609,8.010 5.058,8.500 4.817 C 9.816 4.169,11.326 3.895,12.766 4.042 M11.290 12.710 C 14.364 15.784,16.880 18.312,16.880 18.328 C 16.880 18.343,16.688 18.484,16.453 18.641 C 13.873 20.366,10.522 20.449,7.866 18.853 C 7.177 18.439,6.303 17.676,5.789 17.040 C 3.833 14.619,3.452 11.273,4.817 8.500 C 5.058 8.010,5.609 7.120,5.671 7.120 C 5.687 7.120,8.215 9.635,11.290 12.710 " fill="#000640" stroke="none" fill-rule="evenodd"></path></svg>