<svg xmlns="http://www.w3.org/2000/svg" width="24" height="24" fill="currentColor" class="mmi mmi-circle-double" viewBox="0 0 24 24"><path d="M9.340 3.024 C 8.026 3.160,7.091 3.415,6.060 3.918 C 3.287 5.272,1.420 7.913,1.059 10.992 C 0.666 14.352,2.239 17.669,5.120 19.560 C 5.929 20.090,7.126 20.589,8.092 20.797 C 12.142 21.669,16.255 19.669,18.083 15.940 C 19.302 13.453,19.302 10.547,18.083 8.060 C 17.190 6.237,15.762 4.810,13.944 3.923 C 13.066 3.494,12.269 3.244,11.320 3.101 C 10.911 3.039,9.662 2.991,9.340 3.024 M18.645 3.135 C 18.453 3.205,18.213 3.419,18.111 3.613 C 18.044 3.739,18.022 3.849,18.022 4.060 C 18.022 4.390,18.089 4.538,18.400 4.900 C 20.042 6.811,21.000 9.425,21.000 12.000 C 21.000 14.473,20.129 16.965,18.612 18.835 C 18.051 19.526,17.971 19.688,18.013 20.047 C 18.074 20.558,18.487 20.917,19.017 20.919 C 19.440 20.921,19.645 20.766,20.250 19.991 C 21.698 18.137,22.584 15.985,22.906 13.540 C 23.001 12.819,23.001 11.181,22.906 10.460 C 22.626 8.335,21.954 6.511,20.830 4.821 C 20.231 3.923,19.701 3.296,19.426 3.163 C 19.231 3.068,18.865 3.055,18.645 3.135 M10.686 5.042 C 12.238 5.199,13.639 5.834,14.793 6.902 C 15.782 7.817,16.558 9.192,16.841 10.529 C 17.093 11.723,17.019 13.072,16.639 14.211 C 16.054 15.963,14.783 17.427,13.125 18.258 C 9.887 19.881,5.938 18.752,4.039 15.660 C 2.538 13.217,2.688 10.083,4.416 7.787 C 5.877 5.846,8.272 4.797,10.686 5.042 " fill="#000640" stroke="none" fill-rule="evenodd"></path></svg>