<svg xmlns="http://www.w3.org/2000/svg" width="24" height="24" fill="currentColor" class="mmi mmi-circle" viewBox="0 0 24 24"><path d="M11.200 0.025 C 7.677 0.288,4.535 1.992,2.410 4.793 C 1.201 6.386,0.442 8.222,0.109 10.359 C -0.013 11.143,-0.013 12.857,0.109 13.641 C 0.563 16.554,1.872 19.025,3.948 20.887 C 5.791 22.541,7.832 23.497,10.359 23.891 C 11.143 24.013,12.857 24.013,13.641 23.891 C 16.557 23.436,19.036 22.122,20.896 20.043 C 22.545 18.200,23.498 16.163,23.891 13.641 C 24.013 12.857,24.013 11.143,23.891 10.359 C 23.557 8.220,22.799 6.386,21.588 4.790 C 19.607 2.179,16.767 0.532,13.500 0.099 C 13.032 0.037,11.640 -0.007,11.200 0.025 M13.493 2.119 C 15.385 2.416,17.005 3.154,18.480 4.391 C 20.082 5.735,21.282 7.711,21.740 9.760 C 21.932 10.616,21.976 11.044,21.975 12.020 C 21.973 13.016,21.910 13.560,21.697 14.429 C 21.026 17.162,19.139 19.554,16.623 20.863 C 12.156 23.186,6.696 21.847,3.806 17.720 C 2.916 16.449,2.375 15.092,2.113 13.472 C 1.989 12.708,1.989 11.292,2.113 10.528 C 2.582 7.628,4.103 5.247,6.499 3.659 C 7.918 2.719,9.490 2.181,11.280 2.024 C 11.711 1.986,12.998 2.041,13.493 2.119 " fill="#000640" stroke="none" fill-rule="evenodd"></path></svg>