<svg xmlns="http://www.w3.org/2000/svg" width="24" height="24" fill="currentColor" class="mmi mmi-city" viewBox="0 0 24 24"><path d="M7.503 1.042 C 6.570 1.201,5.727 1.840,5.312 2.704 C 5.010 3.331,5.026 3.149,5.010 6.225 L 4.996 8.991 4.228 9.011 C 3.373 9.034,3.217 9.065,2.704 9.312 C 2.090 9.607,1.607 10.090,1.312 10.704 C 0.998 11.356,1.024 10.841,1.010 16.797 C 0.996 22.803,0.976 22.378,1.298 22.700 C 1.626 23.028,0.612 23.000,12.000 23.000 C 23.385 23.000,22.374 23.028,22.701 22.701 C 23.021 22.381,23.000 22.788,23.000 16.957 C 23.000 11.114,23.013 11.394,22.704 10.740 C 22.398 10.095,21.924 9.614,21.296 9.312 C 20.783 9.065,20.627 9.034,19.770 9.011 L 19.000 8.991 19.000 6.380 C 19.000 3.406,18.996 3.357,18.704 2.740 C 18.398 2.095,17.924 1.614,17.296 1.312 C 16.649 1.001,17.051 1.024,12.120 1.015 C 9.689 1.012,7.611 1.023,7.503 1.042 M16.340 3.066 C 16.593 3.153,16.847 3.407,16.934 3.660 C 16.995 3.838,17.000 4.552,17.000 12.427 L 17.000 21.000 12.000 21.000 L 6.999 21.000 7.010 12.350 L 7.020 3.700 7.131 3.511 C 7.256 3.298,7.449 3.136,7.670 3.057 C 7.792 3.014,8.610 3.003,11.983 3.002 C 15.756 3.000,16.164 3.006,16.340 3.066 M9.664 5.063 C 9.436 5.146,9.257 5.297,9.131 5.511 C 9.036 5.672,9.020 5.744,9.020 6.000 C 9.020 6.256,9.036 6.328,9.131 6.489 C 9.470 7.065,10.234 7.168,10.701 6.701 C 10.881 6.521,11.000 6.242,11.000 6.000 C 11.000 5.326,10.295 4.832,9.664 5.063 M13.664 5.063 C 13.436 5.146,13.257 5.297,13.131 5.511 C 13.036 5.672,13.020 5.744,13.020 6.000 C 13.020 6.256,13.036 6.328,13.131 6.489 C 13.470 7.065,14.234 7.168,14.701 6.701 C 14.881 6.521,15.000 6.242,15.000 6.000 C 15.000 5.326,14.295 4.832,13.664 5.063 M9.664 9.063 C 9.436 9.146,9.257 9.297,9.131 9.511 C 9.036 9.672,9.020 9.744,9.020 10.000 C 9.020 10.256,9.036 10.328,9.131 10.489 C 9.470 11.065,10.234 11.168,10.701 10.701 C 10.881 10.521,11.000 10.242,11.000 10.000 C 11.000 9.326,10.295 8.832,9.664 9.063 M5.000 16.000 L 5.000 21.000 3.999 21.000 L 2.999 21.000 3.009 16.350 L 3.020 11.700 3.131 11.511 C 3.256 11.298,3.449 11.136,3.670 11.057 C 3.768 11.022,4.023 11.003,4.410 11.002 L 5.000 11.000 5.000 16.000 M20.340 11.066 C 20.455 11.105,20.603 11.201,20.701 11.299 C 21.019 11.617,21.000 11.286,21.000 16.427 L 21.000 21.000 20.000 21.000 L 19.000 21.000 19.000 16.000 L 19.000 11.000 19.573 11.000 C 20.001 11.000,20.195 11.017,20.340 11.066 M9.664 13.063 C 9.436 13.146,9.257 13.297,9.131 13.511 C 9.036 13.672,9.020 13.744,9.020 14.000 C 9.020 14.256,9.036 14.328,9.131 14.489 C 9.470 15.065,10.234 15.168,10.701 14.701 C 10.881 14.521,11.000 14.242,11.000 14.000 C 11.000 13.326,10.295 12.832,9.664 13.063 M13.664 13.063 C 13.436 13.146,13.257 13.297,13.131 13.511 C 13.036 13.672,13.020 13.744,13.020 14.000 C 13.020 14.256,13.036 14.328,13.131 14.489 C 13.470 15.065,14.234 15.168,14.701 14.701 C 14.881 14.521,15.000 14.242,15.000 14.000 C 15.000 13.326,14.295 12.832,13.664 13.063 M13.664 17.063 C 13.436 17.146,13.257 17.297,13.131 17.511 C 13.036 17.672,13.020 17.744,13.020 18.000 C 13.020 18.256,13.036 18.328,13.131 18.489 C 13.470 19.065,14.234 19.168,14.701 18.701 C 14.881 18.521,15.000 18.242,15.000 18.000 C 15.000 17.326,14.295 16.832,13.664 17.063 " fill="#000640" stroke="none" fill-rule="evenodd"></path></svg>