<svg xmlns="http://www.w3.org/2000/svg" width="24" height="24" fill="currentColor" class="mmi mmi-classicphone" viewBox="0 0 24 24"><path d="M10.700 1.023 C 8.480 1.157,7.497 1.268,6.100 1.544 C 4.680 1.824,3.151 2.297,2.385 2.692 C 1.801 2.993,1.364 3.528,1.126 4.233 L 1.022 4.540 1.009 6.311 C 0.993 8.353,0.998 8.400,1.295 8.697 C 1.472 8.874,1.755 9.000,1.974 9.000 C 2.040 9.000,3.140 8.792,4.417 8.537 C 7.060 8.010,7.132 7.988,7.559 7.561 C 7.972 7.148,8.024 6.994,8.449 4.966 C 8.710 3.717,8.838 3.183,8.880 3.161 C 9.246 2.969,14.897 2.983,15.135 3.176 C 15.167 3.202,15.338 3.935,15.556 4.980 C 15.975 6.993,16.029 7.149,16.441 7.561 C 16.868 7.988,16.940 8.010,19.583 8.537 C 20.860 8.792,21.960 9.000,22.026 9.000 C 22.245 9.000,22.528 8.874,22.705 8.697 C 23.002 8.400,23.007 8.353,22.991 6.311 L 22.978 4.540 22.874 4.233 C 22.720 3.777,22.501 3.417,22.191 3.111 C 21.847 2.772,21.401 2.547,20.400 2.207 C 18.665 1.619,16.738 1.260,14.340 1.079 C 13.777 1.037,11.148 0.997,10.700 1.023 M6.442 4.801 C 6.287 5.533,6.156 6.137,6.150 6.142 C 6.135 6.157,3.108 6.760,3.050 6.760 C 2.983 6.760,2.979 4.996,3.046 4.796 C 3.108 4.610,3.225 4.490,3.436 4.397 C 3.768 4.250,4.777 3.916,5.320 3.773 C 5.861 3.630,6.690 3.444,6.711 3.460 C 6.717 3.465,6.596 4.068,6.442 4.801 M18.700 3.779 C 19.240 3.921,20.246 4.254,20.561 4.395 C 20.775 4.491,20.892 4.610,20.954 4.796 C 21.021 4.996,21.017 6.760,20.950 6.760 C 20.892 6.760,17.865 6.157,17.850 6.142 C 17.840 6.133,17.280 3.500,17.280 3.464 C 17.280 3.440,18.116 3.625,18.700 3.779 M10.300 6.047 C 10.010 6.102,9.639 6.292,9.397 6.510 C 9.034 6.836,8.925 7.053,8.525 8.248 L 8.159 9.341 5.870 10.820 C 4.612 11.634,3.481 12.384,3.357 12.486 C 2.936 12.835,2.557 13.441,2.422 13.980 C 2.389 14.112,2.153 15.390,1.897 16.820 C 1.379 19.715,1.332 20.123,1.459 20.652 C 1.671 21.538,2.266 22.292,3.060 22.682 C 3.721 23.007,2.902 22.980,12.080 22.980 L 20.260 22.980 20.560 22.886 C 21.109 22.715,21.462 22.501,21.862 22.101 C 22.165 21.797,22.253 21.677,22.410 21.359 C 22.672 20.825,22.736 20.556,22.733 20.000 C 22.728 19.357,22.118 14.289,21.998 13.900 C 21.825 13.343,21.490 12.824,21.084 12.486 C 20.961 12.384,19.753 11.645,18.400 10.844 C 17.047 10.043,15.911 9.359,15.875 9.324 C 15.839 9.289,15.652 8.786,15.460 8.208 C 15.077 7.060,14.964 6.834,14.611 6.517 C 14.360 6.292,13.977 6.100,13.663 6.043 C 13.369 5.990,10.584 5.993,10.300 6.047 M13.352 8.210 C 13.394 8.325,13.569 8.843,13.740 9.360 C 14.090 10.417,14.138 10.528,14.326 10.706 C 14.400 10.775,15.621 11.519,17.040 12.359 C 18.459 13.199,19.683 13.935,19.760 13.995 C 19.837 14.055,19.948 14.202,20.007 14.322 C 20.106 14.524,20.137 14.738,20.436 17.300 C 20.663 19.243,20.748 20.101,20.725 20.200 C 20.677 20.407,20.578 20.579,20.416 20.736 C 20.123 21.020,20.767 21.000,12.043 20.999 C 4.219 20.998,4.179 20.998,4.000 20.917 C 3.901 20.872,3.768 20.787,3.705 20.728 C 3.539 20.572,3.401 20.256,3.400 20.030 C 3.400 19.718,4.349 14.459,4.436 14.288 C 4.478 14.207,4.564 14.093,4.626 14.035 C 4.689 13.977,5.820 13.233,7.140 12.381 C 8.460 11.529,9.600 10.775,9.674 10.706 C 9.865 10.525,9.908 10.424,10.320 9.180 C 10.524 8.564,10.698 8.046,10.708 8.030 C 10.717 8.014,11.298 8.000,11.999 8.000 L 13.274 8.000 13.352 8.210 M8.643 14.069 C 8.291 14.193,8.000 14.614,8.000 15.000 C 8.000 15.242,8.119 15.521,8.299 15.701 C 8.690 16.092,9.310 16.092,9.701 15.701 C 10.454 14.948,9.653 13.712,8.643 14.069 M11.643 14.069 C 11.291 14.193,11.000 14.614,11.000 15.000 C 11.000 15.527,11.473 16.000,12.000 16.000 C 12.242 16.000,12.521 15.881,12.701 15.701 C 13.454 14.948,12.653 13.712,11.643 14.069 M14.643 14.069 C 14.291 14.193,14.000 14.614,14.000 15.000 C 14.000 15.527,14.473 16.000,15.000 16.000 C 15.242 16.000,15.521 15.881,15.701 15.701 C 16.454 14.948,15.653 13.712,14.643 14.069 M8.643 17.069 C 8.291 17.193,8.000 17.614,8.000 18.000 C 8.000 18.242,8.119 18.521,8.299 18.701 C 8.690 19.092,9.310 19.092,9.701 18.701 C 10.454 17.948,9.653 16.712,8.643 17.069 M11.643 17.069 C 11.291 17.193,11.000 17.614,11.000 18.000 C 11.000 18.527,11.473 19.000,12.000 19.000 C 12.242 19.000,12.521 18.881,12.701 18.701 C 13.454 17.948,12.653 16.712,11.643 17.069 M14.643 17.069 C 14.291 17.193,14.000 17.614,14.000 18.000 C 14.000 18.527,14.473 19.000,15.000 19.000 C 15.242 19.000,15.521 18.881,15.701 18.701 C 16.454 17.948,15.653 16.712,14.643 17.069 " fill="#000640" stroke="none" fill-rule="evenodd"></path></svg>