<svg xmlns="http://www.w3.org/2000/svg" width="24" height="24" fill="currentColor" class="mmi mmi-classichandphone" viewBox="0 0 24 24"><path d="M2.560 0.875 C 2.354 0.942,2.204 1.043,2.065 1.205 C 1.879 1.423,1.828 1.588,1.848 1.914 C 1.864 2.180,1.865 2.182,2.954 4.066 L 4.044 5.953 3.925 6.146 C 3.543 6.770,3.498 7.686,3.818 8.348 C 3.935 8.591,11.244 21.275,11.505 21.688 C 11.763 22.096,12.288 22.541,12.766 22.756 C 13.505 23.088,14.461 23.098,15.180 22.781 C 15.458 22.659,20.565 19.708,20.860 19.500 C 21.646 18.944,22.087 18.075,22.089 17.080 C 22.090 16.585,22.016 16.234,21.825 15.827 C 21.569 15.285,14.411 2.944,14.208 2.696 C 13.951 2.381,13.608 2.118,13.192 1.919 C 12.729 1.697,12.373 1.629,11.780 1.649 C 11.025 1.675,10.986 1.693,8.145 3.334 C 6.784 4.120,5.666 4.758,5.660 4.752 C 5.654 4.745,5.204 3.966,4.659 3.020 C 4.114 2.074,3.612 1.240,3.544 1.166 C 3.476 1.093,3.349 0.997,3.263 0.952 C 3.091 0.864,2.719 0.823,2.560 0.875 M12.342 3.723 C 12.431 3.765,12.559 3.858,12.628 3.930 C 12.727 4.034,19.650 15.965,20.003 16.640 C 20.074 16.775,20.097 16.885,20.097 17.080 C 20.097 17.377,20.010 17.580,19.794 17.788 C 19.587 17.986,14.437 20.943,14.199 21.000 C 13.863 21.081,13.437 20.927,13.217 20.646 C 13.172 20.588,11.440 17.602,9.367 14.012 C 5.276 6.921,5.481 7.310,5.710 7.086 C 5.869 6.931,11.466 3.712,11.680 3.653 C 11.893 3.594,12.119 3.618,12.342 3.723 M10.776 5.337 C 10.472 5.406,10.394 5.445,9.263 6.094 C 8.194 6.707,7.920 6.930,7.704 7.363 C 7.526 7.719,7.465 8.020,7.490 8.422 C 7.517 8.855,7.595 9.033,8.279 10.220 C 8.725 10.992,8.907 11.270,9.079 11.440 C 9.326 11.684,9.709 11.893,10.041 11.964 C 10.334 12.027,10.889 11.989,11.149 11.889 C 11.384 11.798,13.016 10.871,13.369 10.628 C 13.917 10.250,14.237 9.564,14.186 8.875 C 14.173 8.707,14.127 8.473,14.082 8.355 C 13.952 8.014,12.879 6.170,12.680 5.948 C 12.217 5.429,11.450 5.183,10.776 5.337 M11.719 8.175 C 11.985 8.634,12.198 9.015,12.192 9.020 C 12.159 9.048,10.569 9.959,10.518 9.979 C 10.474 9.995,10.336 9.788,9.992 9.191 C 9.736 8.745,9.520 8.355,9.513 8.325 C 9.498 8.263,11.161 7.271,11.208 7.314 C 11.223 7.328,11.453 7.716,11.719 8.175 M15.240 11.535 C 15.051 11.588,11.289 13.744,11.125 13.893 C 10.856 14.138,10.758 14.686,10.923 15.027 C 11.028 15.242,11.306 15.491,11.512 15.553 C 11.723 15.616,12.013 15.612,12.175 15.545 C 12.464 15.424,16.074 13.311,16.199 13.190 C 16.681 12.720,16.521 11.842,15.905 11.584 C 15.703 11.500,15.435 11.480,15.240 11.535 M16.860 14.652 C 16.584 14.784,13.037 16.834,12.946 16.914 C 12.708 17.124,12.577 17.529,12.645 17.844 C 12.745 18.314,13.139 18.640,13.606 18.640 C 13.736 18.640,13.904 18.614,13.978 18.583 C 14.053 18.552,14.948 18.047,15.967 17.460 C 17.999 16.291,18.100 16.218,18.224 15.825 C 18.286 15.627,18.289 15.565,18.248 15.368 C 18.150 14.899,17.795 14.592,17.325 14.569 C 17.111 14.559,17.022 14.575,16.860 14.652 " fill="#000640" stroke="none" fill-rule="evenodd"></path></svg>