<svg xmlns="http://www.w3.org/2000/svg" width="24" height="24" fill="currentColor" class="mmi mmi-classicsyringe" viewBox="0 0 24 24"><path d="M17.656 1.043 C 17.480 1.094,17.162 1.388,17.075 1.578 C 16.975 1.800,16.978 2.168,17.083 2.400 C 17.139 2.524,17.387 2.803,17.872 3.291 L 18.578 4.001 17.790 4.789 L 17.002 5.578 16.271 4.855 C 15.652 4.243,15.510 4.122,15.343 4.066 C 14.927 3.927,14.596 4.014,14.223 4.363 L 13.975 4.595 13.926 4.358 C 13.716 3.340,12.957 2.510,11.906 2.150 C 11.574 2.037,11.494 2.025,11.040 2.024 C 10.481 2.023,10.200 2.080,9.746 2.289 C 8.281 2.964,7.614 4.673,8.235 6.161 C 8.601 7.034,9.447 7.740,10.351 7.925 L 10.602 7.976 8.366 10.218 C 6.344 12.246,6.124 12.479,6.065 12.657 C 6.029 12.766,6.000 12.926,6.000 13.014 C 6.000 13.109,6.170 13.686,6.424 14.452 L 6.849 15.730 4.506 18.075 C 2.717 19.866,2.145 20.462,2.083 20.600 C 1.984 20.819,1.975 21.182,2.062 21.391 C 2.144 21.587,2.381 21.831,2.580 21.924 C 2.798 22.025,3.166 22.022,3.400 21.917 C 3.538 21.855,4.134 21.283,5.925 19.494 L 8.270 17.151 9.548 17.576 C 10.314 17.830,10.891 18.000,10.986 18.000 C 11.074 18.000,11.234 17.971,11.343 17.935 C 11.521 17.876,11.754 17.656,13.782 15.634 L 16.024 13.398 16.073 13.638 C 16.283 14.655,17.040 15.488,18.080 15.846 C 18.437 15.969,18.493 15.977,19.000 15.977 C 19.500 15.976,19.569 15.966,19.926 15.847 C 21.943 15.176,22.657 12.680,21.292 11.075 C 20.892 10.606,20.276 10.227,19.693 10.091 L 19.405 10.025 19.638 9.776 C 19.986 9.404,20.073 9.073,19.934 8.657 C 19.878 8.490,19.757 8.348,19.145 7.729 L 18.422 6.998 19.211 6.210 L 19.999 5.422 20.709 6.128 C 21.500 6.915,21.626 6.998,22.020 6.998 C 22.312 6.998,22.525 6.907,22.728 6.695 C 22.922 6.492,23.000 6.295,23.000 6.009 C 23.000 5.579,22.995 5.573,20.691 3.272 C 19.087 1.670,18.537 1.144,18.400 1.083 C 18.208 0.997,17.878 0.979,17.656 1.043 M11.340 4.066 C 11.709 4.192,12.000 4.604,12.000 5.000 C 12.000 5.242,11.881 5.521,11.701 5.701 C 11.310 6.092,10.690 6.092,10.299 5.701 C 9.907 5.309,9.908 4.690,10.300 4.298 C 10.577 4.020,10.957 3.936,11.340 4.066 M16.300 7.720 L 17.579 9.000 16.580 10.000 L 15.581 11.000 13.000 11.000 L 10.420 11.000 12.700 8.720 C 13.954 7.466,14.989 6.440,15.000 6.440 C 15.011 6.440,15.596 7.016,16.300 7.720 M19.340 12.066 C 19.709 12.192,20.000 12.604,20.000 13.000 C 20.000 13.527,19.527 14.000,19.000 14.000 C 18.758 14.000,18.479 13.881,18.299 13.701 C 17.907 13.309,17.908 12.690,18.300 12.298 C 18.577 12.020,18.957 11.936,19.340 12.066 M12.155 14.425 L 10.730 15.850 9.795 15.540 C 9.281 15.370,8.840 15.210,8.815 15.185 C 8.790 15.160,8.630 14.720,8.460 14.207 L 8.151 13.273 8.283 13.137 L 8.416 13.000 10.998 13.000 L 13.580 13.000 12.155 14.425 " fill="#000640" stroke="none" fill-rule="evenodd"></path></svg>