<svg xmlns="http://www.w3.org/2000/svg" width="24" height="24" fill="currentColor" class="mmi mmi-classicphone-v2" viewBox="0 0 24 24"><path d="M10.680 1.024 C 7.621 1.168,5.282 1.584,3.160 2.360 C 1.953 2.802,1.440 3.278,1.115 4.260 C 1.025 4.533,1.022 4.584,1.009 6.327 C 1.000 7.526,1.010 8.168,1.039 8.276 C 1.135 8.633,1.508 8.946,1.889 8.989 C 2.009 9.002,2.757 8.869,4.400 8.542 C 7.060 8.013,7.128 7.992,7.560 7.560 C 7.974 7.146,8.027 6.992,8.453 4.962 C 8.814 3.241,8.829 3.183,8.925 3.158 C 9.578 2.983,14.421 2.983,15.073 3.157 C 15.171 3.183,15.184 3.230,15.548 4.962 C 15.978 7.009,16.031 7.163,16.438 7.561 C 16.880 7.994,16.945 8.014,19.600 8.542 C 21.243 8.869,21.991 9.002,22.111 8.989 C 22.492 8.946,22.865 8.633,22.961 8.276 C 22.990 8.168,23.000 7.526,22.991 6.327 C 22.978 4.584,22.975 4.533,22.885 4.260 C 22.726 3.781,22.526 3.444,22.218 3.138 C 21.886 2.809,21.549 2.621,20.800 2.346 C 19.007 1.688,17.096 1.305,14.580 1.100 C 13.866 1.041,11.348 0.993,10.680 1.024 M6.705 3.550 C 6.693 3.589,6.565 4.186,6.420 4.878 C 6.275 5.570,6.153 6.140,6.148 6.144 C 6.134 6.158,3.103 6.760,3.050 6.760 C 3.011 6.760,3.000 6.547,3.000 5.828 C 3.000 4.942,3.004 4.888,3.090 4.718 C 3.165 4.570,3.224 4.518,3.440 4.412 C 3.805 4.231,4.913 3.869,5.600 3.705 C 5.919 3.628,6.252 3.549,6.340 3.527 C 6.610 3.462,6.729 3.469,6.705 3.550 M17.802 3.562 C 18.822 3.784,20.063 4.166,20.560 4.412 C 20.776 4.518,20.835 4.570,20.910 4.718 C 20.996 4.888,21.000 4.942,21.000 5.828 C 21.000 6.547,20.989 6.760,20.950 6.760 C 20.897 6.760,17.866 6.158,17.852 6.144 C 17.847 6.140,17.725 5.570,17.580 4.878 C 17.435 4.186,17.307 3.589,17.295 3.550 C 17.268 3.458,17.331 3.460,17.802 3.562 M10.300 6.047 C 10.010 6.102,9.639 6.292,9.397 6.510 C 9.034 6.836,8.925 7.053,8.525 8.248 L 8.159 9.341 5.871 10.820 C 4.613 11.634,3.489 12.377,3.374 12.471 C 3.005 12.770,2.645 13.304,2.483 13.787 C 2.356 14.169,1.435 19.387,1.411 19.863 C 1.349 21.061,1.988 22.153,3.057 22.677 C 3.733 23.009,2.886 22.980,12.060 22.980 L 20.220 22.980 20.532 22.889 C 21.413 22.634,22.113 22.036,22.482 21.223 C 22.652 20.847,22.727 20.481,22.727 20.020 C 22.728 19.458,22.109 14.275,21.996 13.901 C 21.831 13.352,21.492 12.826,21.084 12.486 C 20.961 12.384,19.753 11.645,18.400 10.844 C 17.047 10.043,15.911 9.359,15.875 9.324 C 15.840 9.289,15.655 8.795,15.465 8.226 C 15.250 7.580,15.067 7.104,14.979 6.959 C 14.703 6.503,14.175 6.137,13.663 6.043 C 13.369 5.990,10.584 5.993,10.300 6.047 M13.680 9.180 C 13.893 9.818,14.096 10.394,14.130 10.460 C 14.165 10.526,14.253 10.636,14.327 10.705 C 14.400 10.774,15.639 11.527,17.080 12.379 C 18.521 13.232,19.757 13.983,19.827 14.050 C 20.081 14.290,20.090 14.339,20.439 17.281 C 20.632 18.909,20.754 20.077,20.739 20.160 C 20.701 20.367,20.526 20.666,20.374 20.782 C 20.070 21.014,20.600 21.000,12.045 21.000 L 4.180 20.999 3.980 20.906 C 3.762 20.804,3.542 20.581,3.455 20.374 C 3.425 20.302,3.400 20.147,3.400 20.029 C 3.400 19.688,4.338 14.479,4.433 14.295 C 4.477 14.210,4.564 14.092,4.626 14.034 C 4.689 13.975,5.820 13.230,7.140 12.378 C 8.460 11.526,9.600 10.773,9.674 10.704 C 9.865 10.526,9.907 10.425,10.320 9.180 C 10.524 8.564,10.699 8.046,10.708 8.029 C 10.718 8.013,11.303 8.004,12.009 8.009 L 13.293 8.020 13.680 9.180 M11.433 12.040 C 10.843 12.134,10.221 12.380,9.731 12.712 C 8.955 13.240,8.394 14.037,8.130 14.989 C 8.034 15.337,8.022 15.449,8.022 16.000 C 8.022 16.553,8.034 16.663,8.132 17.017 C 8.475 18.256,9.357 19.252,10.520 19.715 C 12.334 20.437,14.462 19.710,15.444 18.033 C 16.503 16.224,15.985 13.878,14.269 12.712 C 13.917 12.473,13.343 12.214,12.958 12.120 C 12.572 12.026,11.783 11.984,11.433 12.040 M12.383 14.043 C 13.185 14.190,13.839 14.872,13.967 15.695 C 14.153 16.894,13.209 18.000,12.000 18.000 C 11.032 18.000,10.183 17.268,10.033 16.305 C 9.933 15.663,10.132 15.061,10.596 14.596 C 11.085 14.108,11.698 13.918,12.383 14.043 " fill="#000640" stroke="none" fill-rule="evenodd"></path></svg>