<svg xmlns="http://www.w3.org/2000/svg" width="24" height="24" fill="currentColor" class="mmi mmi-clock-progress" viewBox="0 0 24 24"><path d="M11.200 0.028 C 10.108 0.095,8.785 0.386,7.710 0.797 C 3.927 2.240,1.072 5.587,0.265 9.520 C 0.072 10.462,0.025 10.948,0.025 12.000 C 0.025 13.598,0.253 14.865,0.797 16.290 C 2.240 20.073,5.588 22.929,9.520 23.735 C 12.728 24.392,15.954 23.774,18.640 21.988 C 19.390 21.490,19.964 21.013,20.106 20.772 C 20.459 20.174,20.058 19.375,19.365 19.293 C 19.030 19.253,18.837 19.334,18.364 19.713 C 16.564 21.155,14.581 21.906,12.360 21.987 C 9.981 22.074,7.730 21.339,5.800 19.845 C 5.362 19.506,4.490 18.635,4.153 18.200 C 1.703 15.033,1.314 10.883,3.137 7.377 C 3.620 6.449,4.163 5.713,4.938 4.938 C 6.148 3.729,7.500 2.918,9.135 2.422 C 9.959 2.173,11.063 2.000,11.843 2.000 C 12.020 2.000,12.227 1.972,12.340 1.934 C 12.709 1.808,13.000 1.396,13.000 1.000 C 13.000 0.604,12.709 0.192,12.340 0.066 C 12.152 0.002,11.811 -0.009,11.200 0.028 M15.338 0.775 C 14.710 1.067,14.587 1.944,15.110 2.403 C 15.312 2.581,15.478 2.640,15.769 2.639 C 16.375 2.637,16.799 2.184,16.751 1.588 C 16.728 1.301,16.658 1.145,16.472 0.958 C 16.183 0.670,15.724 0.595,15.338 0.775 M18.725 2.655 C 18.533 2.725,18.293 2.939,18.191 3.133 C 18.069 3.364,18.067 3.794,18.188 4.020 C 18.581 4.760,19.670 4.727,19.989 3.965 C 20.020 3.891,20.045 3.716,20.045 3.575 C 20.045 3.151,19.799 2.796,19.410 2.657 C 19.225 2.591,18.905 2.590,18.725 2.655 M11.643 4.069 C 11.546 4.103,11.392 4.206,11.300 4.298 C 10.984 4.613,11.000 4.395,11.000 8.500 C 11.000 11.764,11.007 12.166,11.065 12.343 C 11.124 12.520,11.318 12.728,12.975 14.393 C 13.990 15.412,14.896 16.291,14.990 16.347 C 15.222 16.485,15.575 16.516,15.826 16.420 C 16.401 16.200,16.654 15.507,16.347 14.992 C 16.291 14.897,15.515 14.091,14.623 13.200 L 13.000 11.580 13.000 8.217 C 13.000 4.430,13.014 4.612,12.701 4.299 C 12.424 4.021,12.024 3.934,11.643 4.069 M21.190 5.537 C 20.969 5.616,20.776 5.778,20.651 5.991 C 20.558 6.149,20.540 6.226,20.540 6.460 C 20.541 7.059,20.950 7.477,21.537 7.479 C 22.273 7.482,22.750 6.690,22.408 6.035 C 22.172 5.582,21.655 5.371,21.190 5.537 M22.620 9.116 C 22.202 9.224,21.904 9.565,21.853 9.993 C 21.767 10.728,22.562 11.304,23.240 10.997 C 23.839 10.726,24.023 9.991,23.623 9.467 C 23.422 9.203,22.937 9.033,22.620 9.116 M22.408 13.024 C 21.468 13.492,21.792 14.892,22.840 14.895 C 23.914 14.899,24.221 13.447,23.240 13.003 C 22.980 12.886,22.669 12.893,22.408 13.024 M21.140 16.576 C 20.558 16.830,20.355 17.588,20.733 18.091 C 20.996 18.441,21.548 18.584,21.942 18.405 C 22.145 18.312,22.411 18.013,22.473 17.808 C 22.675 17.134,22.219 16.517,21.522 16.522 C 21.378 16.522,21.206 16.547,21.140 16.576 " stroke="none" fill-rule="evenodd"></path></svg>