<svg xmlns="http://www.w3.org/2000/svg" width="24" height="24" fill="currentColor" class="mmi mmi-close" viewBox="0 0 24 24"><path d="M4.758 4.054 C 4.416 4.147,4.160 4.395,4.061 4.729 C 3.985 4.987,3.985 5.053,4.063 5.323 C 4.125 5.534,4.219 5.632,7.353 8.770 L 10.579 12.000 7.353 15.230 C 4.219 18.368,4.125 18.466,4.063 18.677 C 3.984 18.949,3.984 19.013,4.064 19.283 C 4.153 19.581,4.419 19.847,4.717 19.936 C 4.987 20.016,5.051 20.016,5.323 19.937 C 5.534 19.875,5.632 19.781,8.770 16.647 L 12.000 13.421 15.230 16.647 C 18.368 19.781,18.466 19.875,18.677 19.937 C 18.949 20.016,19.013 20.016,19.283 19.936 C 19.581 19.847,19.847 19.581,19.936 19.283 C 20.016 19.013,20.016 18.949,19.937 18.677 C 19.875 18.466,19.781 18.368,16.647 15.230 L 13.421 12.000 16.647 8.770 C 19.781 5.632,19.875 5.534,19.937 5.323 C 20.015 5.053,20.016 4.987,19.938 4.725 C 19.768 4.154,19.088 3.855,18.558 4.119 C 18.431 4.182,17.462 5.124,15.190 7.393 L 12.000 10.580 8.810 7.394 C 6.729 5.315,5.564 4.180,5.460 4.129 C 5.243 4.023,4.977 3.994,4.758 4.054 " fill="#000640" stroke="none" fill-rule="evenodd"></path></svg>