<svg xmlns="http://www.w3.org/2000/svg" width="24" height="24" fill="currentColor" class="mmi mmi-clothhanger" viewBox="0 0 24 24"><path d="M11.433 2.043 C 10.861 2.127,10.225 2.377,9.731 2.712 C 8.960 3.236,8.389 4.045,8.139 4.968 C 8.019 5.411,7.970 6.026,8.036 6.268 C 8.139 6.645,8.513 6.952,8.917 6.991 C 9.477 7.044,10.000 6.566,10.000 6.000 C 10.000 5.034,10.734 4.182,11.695 4.033 C 12.782 3.864,13.798 4.608,13.967 5.695 C 14.059 6.290,13.878 6.896,13.478 7.334 C 13.105 7.742,12.687 7.940,12.076 7.996 C 11.827 8.019,11.664 8.058,11.531 8.127 C 11.315 8.238,11.103 8.491,11.042 8.711 C 11.017 8.799,11.000 9.384,11.000 10.148 L 11.000 11.436 6.628 14.059 C 4.223 15.503,2.160 16.762,2.043 16.857 C 1.579 17.238,1.234 17.802,1.074 18.439 C 1.004 18.720,0.993 18.852,1.012 19.199 C 1.081 20.501,1.858 21.490,3.122 21.886 L 3.420 21.980 12.000 21.980 L 20.580 21.980 20.878 21.886 C 21.895 21.567,22.570 20.893,22.886 19.880 C 23.021 19.449,23.021 18.711,22.886 18.280 C 22.705 17.698,22.382 17.208,21.944 16.847 C 21.836 16.758,19.779 15.504,17.374 14.060 L 13.000 11.436 13.000 10.657 C 13.000 9.950,13.006 9.875,13.070 9.856 C 14.493 9.416,15.492 8.386,15.868 6.971 C 15.957 6.636,15.972 6.497,15.972 6.000 C 15.972 5.504,15.957 5.364,15.869 5.032 C 15.678 4.315,15.337 3.708,14.842 3.206 C 13.952 2.301,12.665 1.862,11.433 2.043 M16.264 15.723 C 18.613 17.132,20.585 18.321,20.647 18.365 C 20.709 18.409,20.809 18.530,20.870 18.633 C 20.960 18.786,20.980 18.867,20.979 19.080 C 20.976 19.487,20.807 19.750,20.440 19.917 C 20.261 19.998,20.228 19.998,12.025 19.999 C 5.968 20.000,3.749 19.988,3.637 19.954 C 3.200 19.823,2.915 19.303,3.036 18.856 C 3.138 18.477,3.005 18.566,7.640 15.777 C 10.027 14.341,11.983 13.165,11.987 13.163 C 11.991 13.161,13.915 14.313,16.264 15.723 " fill="#000640" stroke="none" fill-rule="evenodd"></path></svg>