<svg xmlns="http://www.w3.org/2000/svg" width="24" height="24" fill="currentColor" class="mmi mmi-cloud-download" viewBox="0 0 24 24"><path d="M11.260 2.044 C 9.224 2.256,7.315 3.412,6.176 5.122 C 5.676 5.874,5.240 6.954,5.114 7.749 L 5.064 8.069 4.659 8.172 C 2.897 8.618,1.560 9.870,1.130 11.475 C 1.040 11.810,1.026 11.944,1.024 12.500 C 1.021 13.079,1.032 13.177,1.130 13.531 C 1.622 15.300,3.128 16.582,5.114 16.922 C 5.969 17.069,6.392 17.010,6.701 16.701 C 7.352 16.050,6.873 15.001,5.923 15.000 C 5.414 14.999,4.723 14.810,4.292 14.555 C 3.788 14.255,3.328 13.716,3.119 13.180 C 3.041 12.980,3.026 12.866,3.026 12.500 C 3.026 12.030,3.079 11.827,3.310 11.413 C 3.570 10.948,4.195 10.439,4.771 10.222 C 5.081 10.105,5.635 10.000,5.938 10.000 C 6.555 10.000,7.000 9.557,7.000 8.942 C 7.000 8.269,7.191 7.484,7.517 6.820 C 7.801 6.241,8.124 5.799,8.571 5.376 C 10.283 3.757,12.843 3.554,14.824 4.881 C 15.223 5.148,15.847 5.769,16.108 6.160 C 16.666 6.994,16.918 7.751,16.996 8.829 C 17.026 9.247,17.046 9.343,17.136 9.497 C 17.324 9.817,17.660 10.000,18.060 10.000 C 18.365 10.000,18.918 10.105,19.229 10.222 C 19.984 10.506,20.604 11.106,20.881 11.820 C 21.016 12.167,21.016 12.834,20.881 13.180 C 20.672 13.716,20.212 14.255,19.708 14.555 C 19.276 14.811,18.586 14.999,18.075 15.000 C 17.655 15.000,17.327 15.178,17.131 15.511 C 17.036 15.672,17.020 15.744,17.020 16.000 C 17.020 16.256,17.036 16.328,17.131 16.489 C 17.419 16.978,17.885 17.094,18.886 16.922 C 20.873 16.582,22.399 15.281,22.871 13.525 C 22.961 13.187,22.974 13.062,22.974 12.500 C 22.974 11.933,22.962 11.815,22.867 11.463 C 22.438 9.859,21.068 8.594,19.290 8.158 C 18.942 8.073,18.920 8.061,18.919 7.964 C 18.918 7.799,18.776 7.199,18.642 6.793 C 18.471 6.274,18.012 5.372,17.690 4.922 C 17.203 4.240,16.396 3.492,15.659 3.039 C 14.364 2.242,12.785 1.885,11.260 2.044 M11.643 9.069 C 11.546 9.103,11.392 9.206,11.300 9.298 C 10.981 9.617,11.000 9.310,11.000 14.216 L 11.000 18.577 10.310 17.893 C 9.893 17.480,9.549 17.174,9.442 17.120 C 9.227 17.012,8.851 16.997,8.637 17.089 C 8.099 17.319,7.865 17.968,8.138 18.470 C 8.213 18.608,8.739 19.159,9.853 20.270 C 11.351 21.762,11.475 21.875,11.675 21.940 C 11.930 22.023,12.207 22.002,12.455 21.883 C 12.565 21.829,13.165 21.255,14.245 20.171 C 15.698 18.712,15.876 18.519,15.935 18.343 C 16.064 17.954,15.979 17.577,15.701 17.299 C 15.422 17.020,15.045 16.936,14.657 17.066 C 14.490 17.122,14.348 17.243,13.730 17.854 L 13.000 18.575 13.000 14.215 C 13.000 9.311,13.019 9.616,12.701 9.299 C 12.424 9.021,12.024 8.934,11.643 9.069 " fill="#000640" stroke="none" fill-rule="evenodd"></path></svg>