<svg xmlns="http://www.w3.org/2000/svg" width="24" height="24" fill="currentColor" class="mmi mmi-cloud" viewBox="0 0 24 24"><path d="M11.260 4.044 C 9.224 4.256,7.315 5.412,6.176 7.122 C 5.676 7.874,5.240 8.954,5.114 9.749 L 5.064 10.069 4.659 10.172 C 2.897 10.618,1.560 11.870,1.130 13.475 C 1.040 13.810,1.026 13.944,1.024 14.500 C 1.021 15.079,1.032 15.177,1.130 15.531 C 1.622 17.300,3.128 18.582,5.114 18.922 C 5.551 18.997,5.812 19.000,12.000 19.000 C 18.188 19.000,18.449 18.997,18.886 18.922 C 20.873 18.582,22.399 17.281,22.871 15.525 C 22.961 15.187,22.974 15.062,22.974 14.500 C 22.974 13.933,22.962 13.815,22.867 13.463 C 22.438 11.859,21.068 10.594,19.290 10.158 C 18.942 10.073,18.920 10.061,18.919 9.964 C 18.918 9.799,18.776 9.199,18.642 8.793 C 18.471 8.274,18.012 7.372,17.690 6.922 C 17.203 6.240,16.396 5.492,15.659 5.039 C 14.364 4.242,12.785 3.885,11.260 4.044 M12.601 6.042 C 13.369 6.136,14.154 6.432,14.824 6.881 C 15.223 7.148,15.847 7.769,16.108 8.160 C 16.666 8.994,16.918 9.751,16.996 10.829 C 17.026 11.247,17.046 11.343,17.136 11.497 C 17.324 11.817,17.660 12.000,18.060 12.000 C 18.365 12.000,18.918 12.105,19.229 12.222 C 19.984 12.506,20.604 13.106,20.881 13.820 C 21.016 14.167,21.016 14.834,20.881 15.180 C 20.672 15.716,20.212 16.255,19.708 16.555 C 19.431 16.719,18.911 16.901,18.560 16.958 C 18.200 17.015,5.800 17.015,5.440 16.958 C 5.089 16.901,4.569 16.719,4.292 16.555 C 3.788 16.255,3.328 15.716,3.119 15.180 C 3.041 14.980,3.026 14.866,3.026 14.500 C 3.026 14.030,3.079 13.827,3.310 13.413 C 3.570 12.948,4.195 12.439,4.771 12.222 C 5.081 12.105,5.635 12.000,5.938 12.000 C 6.555 12.000,7.000 11.557,7.000 10.942 C 7.000 9.984,7.397 8.816,7.994 8.016 C 9.061 6.588,10.840 5.826,12.601 6.042 " fill="#000640" stroke="none" fill-rule="evenodd"></path></svg>