<svg xmlns="http://www.w3.org/2000/svg" width="24" height="24" fill="currentColor" class="mmi mmi-cloud copy" viewBox="0 0 24 24"><path d="M10.100 5.025 C 9.154 5.095,8.331 5.324,7.516 5.744 C 5.574 6.747,4.272 8.652,4.035 10.839 C 4.008 11.082,3.971 11.280,3.951 11.280 C 3.862 11.280,3.280 11.579,2.979 11.779 C 2.172 12.316,1.533 13.162,1.227 14.100 C 0.458 16.451,1.727 18.974,4.072 19.759 C 4.823 20.011,4.459 20.000,11.998 20.000 C 18.143 20.000,18.906 19.993,19.243 19.935 C 21.137 19.610,22.610 18.137,22.935 16.243 C 23.298 14.131,22.070 12.019,20.052 11.282 C 19.461 11.066,19.188 11.029,18.040 11.003 L 16.980 10.980 16.948 10.687 C 16.904 10.283,16.718 9.565,16.540 9.115 C 15.695 6.979,13.723 5.414,11.460 5.086 C 11.127 5.038,10.381 5.004,10.100 5.025 M11.172 7.060 C 13.029 7.339,14.512 8.740,14.901 10.582 C 14.938 10.760,14.980 11.211,14.995 11.602 C 15.022 12.270,15.028 12.313,15.132 12.491 C 15.193 12.593,15.301 12.723,15.374 12.778 C 15.653 12.991,15.733 13.000,17.295 13.001 C 18.951 13.001,19.107 13.021,19.639 13.289 C 20.703 13.824,21.241 15.100,20.884 16.240 C 20.687 16.867,20.208 17.434,19.637 17.716 C 19.026 18.017,19.517 17.999,11.976 17.999 C 5.375 18.000,5.205 17.998,4.904 17.921 C 3.720 17.618,2.941 16.555,3.013 15.340 C 3.081 14.198,3.870 13.311,5.058 13.040 C 5.516 12.936,5.724 12.799,5.878 12.501 C 5.972 12.318,5.982 12.247,6.006 11.601 C 6.034 10.840,6.099 10.449,6.282 9.948 C 6.668 8.891,7.490 7.974,8.511 7.464 C 9.289 7.074,10.274 6.924,11.172 7.060 " fill="#000640" stroke="none" fill-rule="evenodd"></path></svg>