<svg xmlns="http://www.w3.org/2000/svg" width="24" height="24" fill="currentColor" class="mmi mmi-cocktail" viewBox="0 0 24 24"><path d="M2.664 1.063 C 2.303 1.195,2.051 1.514,2.013 1.888 C 1.970 2.307,2.174 2.690,2.539 2.878 C 2.737 2.980,2.743 2.980,3.995 3.000 L 5.252 3.020 5.960 5.500 L 6.668 7.980 5.203 8.000 L 3.738 8.020 3.539 8.122 C 3.309 8.241,3.102 8.491,3.035 8.732 C 2.995 8.874,3.055 9.777,3.416 14.520 C 3.652 17.611,3.871 20.300,3.903 20.495 C 4.090 21.627,4.896 22.529,6.040 22.886 L 6.340 22.980 11.000 22.980 L 15.660 22.980 15.960 22.886 C 17.028 22.553,17.799 21.750,18.059 20.702 C 18.105 20.514,18.222 19.202,18.419 16.649 C 18.579 14.572,18.726 12.860,18.745 12.843 C 18.764 12.827,18.897 12.772,19.040 12.721 C 20.069 12.359,21.025 11.505,21.510 10.517 C 21.858 9.808,21.973 9.308,21.975 8.500 C 21.976 7.981,21.962 7.843,21.871 7.480 C 21.639 6.558,21.261 5.899,20.594 5.256 C 19.928 4.612,19.088 4.199,18.160 4.058 C 16.012 3.732,13.937 5.002,13.237 7.070 C 13.176 7.251,13.103 7.534,13.075 7.700 L 13.024 8.001 10.887 7.990 L 8.749 7.980 7.836 4.787 C 7.334 3.031,6.885 1.533,6.838 1.457 C 6.730 1.282,6.543 1.139,6.322 1.061 C 6.076 0.974,2.902 0.976,2.664 1.063 M18.200 6.102 C 18.736 6.259,19.242 6.631,19.554 7.099 C 19.914 7.637,20.052 8.204,19.970 8.814 C 19.913 9.237,19.800 9.534,19.554 9.901 C 19.381 10.160,18.944 10.599,18.903 10.556 C 18.895 10.547,18.916 10.171,18.950 9.720 C 19.019 8.794,19.004 8.677,18.789 8.394 C 18.717 8.300,18.570 8.178,18.461 8.122 L 18.262 8.020 16.654 8.009 L 15.045 7.997 15.106 7.789 C 15.372 6.883,16.193 6.172,17.140 6.025 C 17.358 5.991,17.976 6.036,18.200 6.102 M16.902 10.210 C 16.889 10.325,16.833 11.032,16.776 11.780 C 16.720 12.528,16.662 13.152,16.647 13.166 C 16.605 13.206,15.796 13.313,15.160 13.363 C 14.276 13.431,13.243 13.359,12.234 13.157 C 12.006 13.112,11.376 12.968,10.834 12.837 C 9.113 12.424,8.186 12.315,7.087 12.397 C 6.540 12.438,5.530 12.593,5.345 12.664 C 5.296 12.682,5.280 12.665,5.280 12.594 C 5.280 12.482,5.133 10.559,5.099 10.230 L 5.076 10.000 11.001 10.000 L 16.926 10.000 16.902 10.210 M8.959 14.481 C 9.233 14.526,9.899 14.669,10.439 14.799 C 12.055 15.187,12.635 15.288,13.684 15.364 C 14.359 15.412,15.128 15.389,15.954 15.296 C 16.248 15.263,16.494 15.241,16.500 15.248 C 16.507 15.255,16.425 16.388,16.318 17.767 C 16.104 20.532,16.120 20.441,15.817 20.735 C 15.530 21.014,15.779 21.000,11.000 21.000 C 6.221 21.000,6.470 21.014,6.183 20.735 C 5.878 20.439,5.898 20.559,5.661 17.507 C 5.544 15.985,5.459 14.728,5.474 14.714 C 5.544 14.645,6.635 14.432,7.160 14.385 C 7.527 14.351,8.476 14.402,8.959 14.481 " fill="#000640" stroke="none" fill-rule="evenodd"></path></svg>