<svg xmlns="http://www.w3.org/2000/svg" width="24" height="24" fill="currentColor" class="mmi mmi-codemarkup" viewBox="0 0 24 24"><path d="M14.664 2.063 C 14.440 2.145,14.257 2.297,14.145 2.491 C 14.092 2.584,12.686 6.753,11.019 11.756 C 8.084 20.570,7.991 20.859,8.011 21.086 C 8.062 21.641,8.540 22.043,9.089 21.990 C 9.347 21.965,9.634 21.809,9.786 21.610 C 9.890 21.474,10.455 19.815,12.961 12.296 C 15.916 3.430,16.009 3.141,15.989 2.914 C 15.930 2.262,15.273 1.840,14.664 2.063 M5.640 7.068 C 5.486 7.121,5.152 7.437,3.329 9.255 C 1.813 10.766,1.173 11.431,1.112 11.556 C 0.994 11.800,0.976 12.065,1.060 12.326 C 1.125 12.527,1.258 12.668,3.255 14.671 C 5.574 16.997,5.578 17.000,6.009 17.000 C 6.295 17.000,6.492 16.922,6.695 16.728 C 6.907 16.525,6.998 16.312,6.998 16.020 C 6.998 15.584,6.990 15.574,5.129 13.710 L 3.422 12.000 5.146 10.270 C 6.691 8.719,6.876 8.520,6.935 8.343 C 7.064 7.954,6.979 7.577,6.701 7.299 C 6.423 7.021,6.027 6.935,5.640 7.068 M17.758 7.054 C 17.416 7.147,17.160 7.395,17.061 7.729 C 16.984 7.987,16.985 8.054,17.064 8.323 C 17.124 8.531,17.201 8.614,18.853 10.270 L 20.578 12.000 18.853 13.730 C 17.201 15.386,17.124 15.469,17.064 15.677 C 16.984 15.948,16.984 16.013,17.064 16.283 C 17.156 16.590,17.419 16.849,17.735 16.940 C 18.001 17.018,18.210 17.000,18.460 16.879 C 18.565 16.829,19.350 16.070,20.745 14.671 C 22.664 12.747,22.876 12.521,22.935 12.343 C 23.017 12.094,23.017 11.906,22.935 11.657 C 22.876 11.479,22.665 11.255,20.769 9.353 C 19.359 7.939,18.607 7.214,18.484 7.148 C 18.252 7.024,17.992 6.990,17.758 7.054 " fill="#000640" stroke="none" fill-rule="evenodd"></path></svg>