<svg xmlns="http://www.w3.org/2000/svg" width="24" height="24" fill="currentColor" class="mmi mmi-coffeebean" viewBox="0 0 24 24"><path d="M13.960 1.042 C 11.530 1.256,8.877 2.255,6.712 3.772 C 5.915 4.330,5.367 4.791,4.636 5.519 C 3.830 6.322,3.429 6.806,2.850 7.673 C 1.586 9.565,0.937 11.738,1.013 13.820 C 1.102 16.260,2.053 18.417,3.818 20.182 C 6.088 22.452,9.098 23.400,12.238 22.836 C 13.976 22.523,15.801 21.656,17.361 20.403 C 17.852 20.008,18.984 18.887,19.385 18.400 C 21.129 16.276,22.252 13.953,22.756 11.420 C 22.938 10.506,22.980 10.067,22.980 9.060 C 22.980 7.813,22.871 7.090,22.530 6.060 C 21.988 4.424,20.941 3.080,19.518 2.196 C 18.613 1.634,17.424 1.233,16.200 1.079 C 15.723 1.019,14.460 0.998,13.960 1.042 M15.743 3.043 C 16.239 3.091,16.938 3.237,17.355 3.378 C 17.708 3.498,18.120 3.682,18.120 3.719 C 18.120 3.735,18.071 3.769,18.011 3.797 C 17.767 3.908,17.026 4.350,16.499 4.699 C 14.951 5.725,13.752 6.913,12.782 8.380 C 12.174 9.300,11.863 9.892,11.085 11.611 C 10.564 12.760,10.208 13.492,9.949 13.940 C 9.134 15.355,8.102 16.426,6.705 17.308 C 6.317 17.553,4.903 18.280,4.814 18.280 C 4.759 18.280,4.467 17.906,4.190 17.480 C 2.872 15.449,2.648 12.960,3.570 10.580 C 4.732 7.579,7.809 4.835,11.360 3.633 C 12.866 3.123,14.421 2.914,15.743 3.043 M20.138 5.600 C 20.820 6.751,21.105 8.236,20.959 9.880 C 20.905 10.486,20.755 11.301,20.585 11.920 C 20.154 13.487,19.327 15.167,18.328 16.502 C 15.115 20.797,10.461 22.174,6.708 19.939 C 6.561 19.851,6.442 19.771,6.442 19.760 C 6.442 19.749,6.679 19.614,6.968 19.460 C 8.726 18.524,10.184 17.236,11.196 15.725 C 11.732 14.924,12.121 14.179,12.903 12.453 C 13.439 11.271,13.663 10.813,13.973 10.260 C 15.167 8.129,16.783 6.655,19.340 5.365 L 19.820 5.123 19.890 5.212 C 19.929 5.260,20.040 5.435,20.138 5.600 " fill="#000640" stroke="none" fill-rule="evenodd"></path></svg>