<svg xmlns="http://www.w3.org/2000/svg" width="24" height="24" fill="currentColor" class="mmi mmi-coin-yen" viewBox="0 0 24 24"><path d="M11.200 0.025 C 7.091 0.332,3.508 2.609,1.507 6.186 C 0.775 7.494,0.317 8.899,0.094 10.520 C -0.002 11.214,-0.002 12.786,0.094 13.480 C 0.317 15.101,0.775 16.506,1.507 17.814 C 4.173 22.579,9.604 24.939,14.910 23.637 C 19.156 22.595,22.595 19.156,23.637 14.910 C 24.599 10.992,23.592 6.970,20.896 3.958 C 19.003 1.843,16.397 0.483,13.500 0.099 C 13.032 0.037,11.640 -0.007,11.200 0.025 M12.920 2.043 C 14.827 2.219,16.631 2.940,18.200 4.155 C 18.637 4.493,19.507 5.363,19.845 5.800 C 21.878 8.427,22.517 11.768,21.578 14.865 C 21.082 16.499,20.272 17.850,19.061 19.061 C 18.287 19.836,17.547 20.383,16.623 20.863 C 13.714 22.376,10.286 22.376,7.377 20.863 C 6.454 20.383,5.715 19.837,4.938 19.061 C 3.951 18.075,3.213 16.964,2.722 15.728 C 1.390 12.368,1.921 8.686,4.153 5.800 C 4.491 5.363,5.363 4.491,5.800 4.153 C 7.114 3.137,8.541 2.486,10.125 2.181 C 11.037 2.006,12.003 1.958,12.920 2.043 M7.643 6.069 C 7.291 6.193,7.000 6.614,7.000 7.000 C 7.000 7.080,7.029 7.234,7.065 7.343 C 7.124 7.520,7.309 7.719,8.854 9.270 L 10.578 11.000 9.716 11.000 C 8.714 11.000,8.567 11.031,8.299 11.299 C 7.908 11.690,7.908 12.310,8.299 12.701 C 8.577 12.979,8.692 13.000,9.927 13.000 L 11.000 13.000 11.000 13.500 L 11.000 14.000 9.927 14.000 C 8.692 14.000,8.577 14.021,8.299 14.299 C 7.908 14.690,7.908 15.310,8.299 15.701 C 8.577 15.979,8.692 16.000,9.927 16.000 L 11.000 16.000 11.000 17.073 C 11.000 18.308,11.021 18.423,11.299 18.701 C 11.690 19.092,12.310 19.092,12.701 18.701 C 12.979 18.423,13.000 18.308,13.000 17.073 L 13.000 16.000 14.073 16.000 C 15.308 16.000,15.423 15.979,15.701 15.701 C 16.092 15.310,16.092 14.690,15.701 14.299 C 15.423 14.021,15.308 14.000,14.073 14.000 L 13.000 14.000 13.000 13.500 L 13.000 13.000 14.073 13.000 C 15.308 13.000,15.423 12.979,15.701 12.701 C 16.092 12.310,16.092 11.690,15.701 11.299 C 15.433 11.031,15.286 11.000,14.284 11.000 L 13.421 11.000 15.129 9.290 C 16.958 7.458,16.998 7.410,16.999 7.020 C 17.000 6.692,16.932 6.527,16.703 6.297 C 16.473 6.068,16.308 6.000,15.980 6.001 C 15.590 6.002,15.542 6.042,13.710 7.871 L 12.000 9.578 10.270 7.854 C 8.719 6.309,8.520 6.124,8.343 6.065 C 8.101 5.985,7.876 5.986,7.643 6.069 " stroke="none" fill-rule="evenodd"></path></svg>