<svg xmlns="http://www.w3.org/2000/svg" width="24" height="24" fill="currentColor" class="mmi mmi-coin-stack" viewBox="0 0 24 24"><path d="M10.360 1.044 C 7.661 1.177,5.265 1.650,3.816 2.337 C 3.067 2.692,2.473 3.174,2.231 3.624 C 1.986 4.081,2.000 3.566,2.000 12.000 C 2.000 20.434,1.986 19.919,2.231 20.376 C 2.368 20.631,2.783 21.054,3.114 21.278 C 4.682 22.333,8.121 23.000,12.000 23.000 C 15.879 23.000,19.318 22.333,20.886 21.278 C 21.217 21.054,21.632 20.631,21.769 20.376 C 22.014 19.919,22.000 20.434,22.000 12.000 C 22.000 5.208,21.993 4.269,21.939 4.061 C 21.673 3.040,20.461 2.238,18.380 1.707 C 16.183 1.147,13.233 0.903,10.360 1.044 M13.480 3.041 C 16.106 3.176,18.217 3.585,19.426 4.193 C 19.599 4.280,19.784 4.387,19.838 4.431 L 19.937 4.510 19.698 4.663 C 18.471 5.450,15.306 5.999,12.000 5.999 C 8.694 5.999,5.529 5.450,4.302 4.663 L 4.063 4.510 4.162 4.431 C 4.216 4.387,4.401 4.280,4.574 4.193 C 6.272 3.339,9.972 2.860,13.480 3.041 M4.804 7.060 C 5.474 7.291,6.754 7.575,7.760 7.716 C 11.858 8.290,16.732 7.971,19.507 6.948 L 19.980 6.774 19.990 8.274 C 19.996 9.100,19.987 9.788,19.970 9.805 C 19.919 9.855,18.772 10.184,18.120 10.335 C 16.393 10.734,14.538 10.945,12.380 10.987 C 9.393 11.045,6.666 10.703,4.502 9.999 L 4.000 9.836 4.000 8.300 L 4.000 6.764 4.270 6.866 C 4.419 6.923,4.659 7.010,4.804 7.060 M19.990 13.370 L 19.980 14.820 19.360 15.006 C 17.321 15.617,15.057 15.935,12.380 15.987 C 9.393 16.045,6.666 15.703,4.502 14.999 L 4.000 14.836 4.000 13.398 C 4.000 12.607,4.011 11.960,4.024 11.960 C 4.037 11.960,4.231 12.013,4.454 12.078 C 6.372 12.637,8.613 12.938,11.220 12.987 C 13.551 13.031,15.788 12.846,17.860 12.436 C 18.443 12.321,19.836 11.977,19.874 11.939 C 19.885 11.929,19.918 11.920,19.947 11.920 C 19.991 11.920,19.999 12.176,19.990 13.370 M20.000 18.177 L 20.000 19.434 19.852 19.556 C 19.118 20.161,16.966 20.687,14.240 20.928 C 13.466 20.996,10.534 20.996,9.760 20.928 C 7.034 20.687,4.882 20.161,4.148 19.556 L 4.000 19.434 4.000 18.197 C 4.000 17.517,4.011 16.960,4.024 16.960 C 4.037 16.960,4.231 17.013,4.454 17.078 C 6.372 17.637,8.613 17.938,11.220 17.987 C 14.080 18.041,16.748 17.755,19.158 17.137 C 19.541 17.038,19.864 16.949,19.874 16.939 C 19.885 16.929,19.917 16.920,19.947 16.920 C 19.990 16.920,20.000 17.156,20.000 18.177 " fill="#000640" stroke="none" fill-rule="evenodd"></path></svg>