<svg xmlns="http://www.w3.org/2000/svg" width="24" height="24" fill="currentColor" class="mmi mmi-coin-drop" viewBox="0 0 24 24"><path d="M6.643 1.069 C 6.546 1.103,6.392 1.206,6.300 1.298 C 5.991 1.607,6.000 1.506,6.000 4.566 L 6.000 7.278 5.646 7.632 C 2.141 11.137,2.130 16.811,5.620 20.340 C 6.974 21.709,8.745 22.600,10.726 22.906 C 11.352 23.003,12.648 23.003,13.274 22.906 C 15.257 22.599,17.011 21.717,18.380 20.340 C 20.660 18.045,21.532 14.683,20.658 11.555 C 20.254 10.111,19.431 8.710,18.351 7.629 L 18.000 7.278 18.000 4.566 C 18.000 1.507,18.009 1.607,17.701 1.299 C 17.310 0.908,16.690 0.908,16.299 1.299 C 15.998 1.600,16.000 1.585,16.000 3.891 C 16.000 5.506,15.990 5.924,15.950 5.908 C 15.923 5.896,15.736 5.814,15.535 5.726 C 14.865 5.432,13.879 5.160,13.239 5.094 L 13.000 5.069 13.000 3.461 C 13.000 1.634,12.994 1.592,12.701 1.299 C 12.310 0.908,11.690 0.908,11.299 1.299 C 11.006 1.592,11.000 1.634,11.000 3.461 L 11.000 5.069 10.761 5.094 C 10.105 5.162,9.020 5.469,8.345 5.777 C 8.172 5.855,8.023 5.920,8.015 5.920 C 8.007 5.920,8.000 5.005,8.000 3.887 C 8.000 1.585,8.002 1.600,7.701 1.299 C 7.424 1.021,7.024 0.934,6.643 1.069 M12.894 7.060 C 15.215 7.364,17.209 8.782,18.258 10.875 C 19.987 14.325,18.584 18.527,15.125 20.258 C 11.671 21.986,7.476 20.586,5.742 17.125 C 4.582 14.810,4.799 12.057,6.311 9.920 C 6.656 9.433,7.433 8.656,7.920 8.311 C 9.374 7.283,11.162 6.833,12.894 7.060 M11.664 8.063 C 11.436 8.146,11.257 8.297,11.131 8.511 C 11.032 8.680,11.019 8.746,11.005 9.140 L 10.990 9.580 10.605 9.768 C 9.990 10.068,9.564 10.483,9.277 11.060 C 8.896 11.829,8.915 12.708,9.330 13.491 C 9.598 13.998,10.222 14.535,10.801 14.758 C 11.206 14.914,11.409 14.958,11.927 15.000 C 12.417 15.040,12.589 15.109,12.810 15.355 C 13.268 15.861,12.798 16.560,12.000 16.560 C 11.663 16.560,11.435 16.464,11.144 16.201 C 10.853 15.937,10.677 15.863,10.353 15.868 C 9.653 15.880,9.195 16.624,9.495 17.260 C 9.669 17.629,10.306 18.153,10.810 18.340 L 11.000 18.411 11.000 18.775 C 11.000 19.217,11.043 19.386,11.212 19.607 C 11.570 20.076,12.281 20.121,12.700 19.702 C 12.922 19.480,13.000 19.243,13.002 18.783 L 13.003 18.420 13.392 18.234 C 13.999 17.943,14.434 17.521,14.723 16.940 C 15.203 15.973,15.041 14.816,14.313 14.022 C 13.741 13.397,13.053 13.082,12.097 13.005 C 11.590 12.964,11.415 12.895,11.190 12.645 C 10.710 12.115,11.237 11.399,12.073 11.446 C 12.393 11.464,12.623 11.571,12.880 11.821 C 13.096 12.031,13.303 12.124,13.557 12.126 C 13.825 12.128,14.056 12.048,14.242 11.889 C 14.485 11.681,14.578 11.475,14.578 11.140 C 14.578 10.776,14.495 10.621,14.105 10.250 C 13.869 10.026,13.715 9.921,13.403 9.771 L 13.003 9.580 13.002 9.217 C 13.000 8.758,12.922 8.520,12.701 8.299 C 12.429 8.027,12.018 7.933,11.664 8.063 " fill="#000640" stroke="none" fill-rule="evenodd"></path></svg>