<svg xmlns="http://www.w3.org/2000/svg" width="24" height="24" fill="currentColor" class="mmi mmi-coin-rupiah" viewBox="0 0 24 24"><path d="M11.200 0.025 C 7.091 0.332,3.508 2.609,1.507 6.186 C 0.775 7.494,0.317 8.899,0.094 10.520 C -0.002 11.214,-0.002 12.786,0.094 13.480 C 0.317 15.101,0.775 16.506,1.507 17.814 C 4.173 22.579,9.604 24.939,14.910 23.637 C 19.156 22.595,22.595 19.156,23.637 14.910 C 24.599 10.992,23.592 6.970,20.896 3.958 C 19.003 1.843,16.397 0.483,13.500 0.099 C 13.032 0.037,11.640 -0.007,11.200 0.025 M12.920 2.043 C 14.827 2.219,16.631 2.940,18.200 4.155 C 18.637 4.493,19.507 5.363,19.845 5.800 C 21.878 8.427,22.517 11.768,21.578 14.865 C 21.082 16.499,20.272 17.850,19.061 19.061 C 18.287 19.836,17.547 20.383,16.623 20.863 C 13.714 22.376,10.286 22.376,7.377 20.863 C 6.454 20.383,5.715 19.837,4.938 19.061 C 3.951 18.075,3.213 16.964,2.722 15.728 C 1.390 12.368,1.921 8.686,4.153 5.800 C 4.491 5.363,5.363 4.491,5.800 4.153 C 7.114 3.137,8.541 2.486,10.125 2.181 C 11.037 2.006,12.003 1.958,12.920 2.043 M6.643 6.069 C 6.546 6.103,6.392 6.206,6.300 6.298 C 5.984 6.613,6.000 6.395,6.000 10.500 C 6.000 14.604,5.985 14.387,6.299 14.701 C 6.690 15.092,7.310 15.092,7.701 14.701 C 7.986 14.416,8.000 14.331,8.000 12.853 L 8.000 11.560 8.330 11.560 L 8.660 11.560 9.408 13.057 C 9.820 13.880,10.212 14.616,10.280 14.694 C 10.573 15.028,11.081 15.113,11.480 14.896 C 11.827 14.707,12.000 14.410,12.000 14.003 C 12.000 13.774,11.972 13.708,11.346 12.452 L 10.691 11.140 10.929 10.960 C 11.367 10.630,11.756 10.040,11.907 9.480 C 11.956 9.299,11.977 9.073,11.976 8.740 C 11.975 8.308,11.963 8.225,11.852 7.910 C 11.691 7.450,11.518 7.167,11.199 6.841 C 10.786 6.419,10.325 6.174,9.726 6.057 C 9.289 5.972,6.892 5.981,6.643 6.069 M9.540 8.076 C 10.024 8.299,10.149 8.922,9.788 9.315 C 9.597 9.523,9.438 9.558,8.690 9.559 L 8.000 9.560 8.000 8.780 L 8.000 8.000 8.690 8.001 C 9.275 8.002,9.404 8.013,9.540 8.076 M13.643 9.067 C 13.546 9.102,13.392 9.206,13.300 9.298 C 12.984 9.613,13.000 9.395,13.000 13.500 C 13.000 17.604,12.985 17.387,13.299 17.701 C 13.690 18.092,14.310 18.092,14.701 17.701 C 14.979 17.423,15.000 17.308,15.000 16.073 L 15.000 15.000 15.616 15.000 C 16.396 15.000,16.781 14.931,17.260 14.704 C 17.920 14.391,18.391 13.920,18.704 13.260 C 19.092 12.441,19.092 11.559,18.704 10.740 C 18.325 9.939,17.631 9.352,16.756 9.092 C 16.429 8.994,13.899 8.974,13.643 9.067 M16.340 11.066 C 16.709 11.192,17.000 11.604,17.000 12.000 C 17.000 12.242,16.881 12.521,16.701 12.701 C 16.454 12.948,16.259 13.000,15.573 13.000 L 15.000 13.000 15.000 12.000 L 15.000 11.000 15.573 11.000 C 16.001 11.000,16.195 11.017,16.340 11.066 " stroke="none" fill-rule="evenodd"></path></svg>