<svg xmlns="http://www.w3.org/2000/svg" width="24" height="24" fill="currentColor" class="mmi mmi-coin-dollar" viewBox="0 0 24 24"><path d="M11.200 0.025 C 7.091 0.332,3.508 2.609,1.507 6.186 C 0.775 7.494,0.317 8.899,0.094 10.520 C -0.002 11.214,-0.002 12.786,0.094 13.480 C 0.317 15.101,0.775 16.506,1.507 17.814 C 4.173 22.579,9.604 24.939,14.910 23.637 C 19.156 22.595,22.595 19.156,23.637 14.910 C 24.599 10.992,23.592 6.970,20.896 3.958 C 19.003 1.843,16.397 0.483,13.500 0.099 C 13.032 0.037,11.640 -0.007,11.200 0.025 M12.920 2.043 C 14.827 2.219,16.631 2.940,18.200 4.155 C 18.637 4.493,19.507 5.363,19.845 5.800 C 21.878 8.427,22.517 11.768,21.578 14.865 C 21.082 16.499,20.272 17.850,19.061 19.061 C 18.287 19.836,17.547 20.383,16.623 20.863 C 13.714 22.376,10.286 22.376,7.377 20.863 C 6.454 20.383,5.715 19.837,4.938 19.061 C 3.951 18.075,3.213 16.964,2.722 15.728 C 1.390 12.368,1.921 8.686,4.153 5.800 C 4.491 5.363,5.363 4.491,5.800 4.153 C 7.114 3.137,8.541 2.486,10.125 2.181 C 11.037 2.006,12.003 1.958,12.920 2.043 M11.643 4.069 C 11.407 4.152,11.149 4.416,11.066 4.660 C 11.016 4.808,11.000 5.003,11.000 5.486 L 11.000 6.117 10.830 6.161 C 9.489 6.509,8.426 7.504,8.094 8.720 C 7.987 9.113,7.996 9.921,8.113 10.332 C 8.555 11.895,10.162 12.991,12.024 12.999 C 12.354 13.000,12.828 13.112,13.111 13.255 C 13.406 13.405,13.739 13.729,13.868 13.992 C 13.958 14.176,13.980 14.274,13.980 14.500 C 13.980 14.726,13.958 14.824,13.868 15.008 C 13.739 15.271,13.406 15.595,13.111 15.745 C 12.826 15.889,12.352 16.000,12.024 15.999 C 11.391 15.998,10.867 15.799,10.405 15.384 C 9.997 15.018,9.669 14.923,9.284 15.058 C 8.596 15.301,8.388 16.117,8.870 16.681 C 9.243 17.116,10.124 17.656,10.730 17.819 L 11.000 17.892 11.000 18.519 C 11.000 19.264,11.047 19.449,11.299 19.701 C 11.690 20.092,12.310 20.092,12.701 19.701 C 12.953 19.449,13.000 19.264,13.000 18.518 L 13.000 17.889 13.349 17.781 C 14.223 17.508,15.018 16.936,15.460 16.260 C 16.084 15.308,16.163 14.078,15.664 13.087 C 15.033 11.836,13.570 11.008,11.976 11.001 C 11.646 11.000,11.172 10.888,10.889 10.745 C 10.594 10.595,10.261 10.271,10.132 10.008 C 10.042 9.824,10.020 9.726,10.020 9.500 C 10.020 9.274,10.042 9.176,10.132 8.992 C 10.261 8.729,10.594 8.405,10.889 8.255 C 11.174 8.111,11.648 8.000,11.976 8.001 C 12.609 8.002,13.133 8.201,13.595 8.616 C 14.010 8.987,14.324 9.076,14.733 8.936 C 15.105 8.810,15.400 8.395,15.400 8.000 C 15.400 7.780,15.293 7.509,15.129 7.318 C 14.757 6.884,13.875 6.344,13.270 6.181 L 13.000 6.108 13.000 5.481 C 13.000 4.736,12.953 4.551,12.701 4.299 C 12.424 4.021,12.024 3.934,11.643 4.069 " stroke="none" fill-rule="evenodd"></path></svg>