<svg xmlns="http://www.w3.org/2000/svg" width="24" height="24" fill="currentColor" class="mmi mmi-coin-euro" viewBox="0 0 24 24"><path d="M11.200 0.025 C 7.091 0.332,3.508 2.609,1.507 6.186 C 0.775 7.494,0.317 8.899,0.094 10.520 C -0.002 11.214,-0.002 12.786,0.094 13.480 C 0.317 15.101,0.775 16.506,1.507 17.814 C 4.173 22.579,9.604 24.939,14.910 23.637 C 19.156 22.595,22.595 19.156,23.637 14.910 C 24.599 10.992,23.592 6.970,20.896 3.958 C 19.003 1.843,16.397 0.483,13.500 0.099 C 13.032 0.037,11.640 -0.007,11.200 0.025 M12.920 2.043 C 14.827 2.219,16.631 2.940,18.200 4.155 C 18.637 4.493,19.507 5.363,19.845 5.800 C 21.878 8.427,22.517 11.768,21.578 14.865 C 21.082 16.499,20.272 17.850,19.061 19.061 C 18.287 19.836,17.547 20.383,16.623 20.863 C 13.714 22.376,10.286 22.376,7.377 20.863 C 6.454 20.383,5.715 19.837,4.938 19.061 C 3.951 18.075,3.213 16.964,2.722 15.728 C 1.390 12.368,1.921 8.686,4.153 5.800 C 4.491 5.363,5.363 4.491,5.800 4.153 C 7.114 3.137,8.541 2.486,10.125 2.181 C 11.037 2.006,12.003 1.958,12.920 2.043 M12.414 5.042 C 10.435 5.300,8.923 6.878,8.321 9.313 C 8.258 9.570,8.195 9.830,8.182 9.890 L 8.158 10.000 7.506 10.000 C 6.734 10.000,6.553 10.045,6.299 10.299 C 6.119 10.479,6.000 10.758,6.000 11.000 C 6.000 11.242,6.119 11.521,6.299 11.701 C 6.546 11.948,6.741 12.000,7.427 12.000 L 8.000 12.000 8.000 12.194 C 8.000 12.301,8.012 12.526,8.026 12.694 L 8.052 13.000 7.453 13.000 C 6.739 13.000,6.549 13.049,6.299 13.299 C 5.908 13.690,5.908 14.310,6.299 14.701 C 6.561 14.964,6.723 15.000,7.622 15.000 L 8.390 15.000 8.518 15.370 C 9.068 16.960,10.039 18.110,11.280 18.643 C 12.382 19.116,13.671 19.108,14.739 18.622 C 15.560 18.248,16.378 17.486,16.844 16.660 C 16.963 16.449,16.980 16.386,16.979 16.140 C 16.977 15.811,16.887 15.605,16.655 15.401 C 16.450 15.221,16.285 15.160,16.000 15.160 C 15.582 15.160,15.361 15.304,15.032 15.792 C 14.618 16.406,14.086 16.804,13.495 16.944 C 12.952 17.072,12.295 16.963,11.775 16.660 C 11.546 16.526,11.150 16.139,10.965 15.869 C 10.832 15.674,10.520 15.087,10.520 15.031 C 10.520 15.014,11.336 15.000,12.333 15.000 C 14.389 15.000,14.404 14.998,14.701 14.701 C 15.092 14.310,15.092 13.690,14.701 13.299 C 14.400 12.998,14.416 13.000,12.098 13.000 L 10.051 13.000 10.026 12.790 C 10.012 12.675,10.001 12.450,10.000 12.290 L 10.000 12.000 12.073 12.000 C 14.419 12.000,14.400 12.002,14.701 11.701 C 15.092 11.310,15.092 10.690,14.701 10.299 C 14.401 9.999,14.408 10.000,12.172 10.000 L 10.198 10.000 10.224 9.890 C 10.360 9.314,10.685 8.542,10.963 8.134 C 11.428 7.453,12.098 7.056,12.860 7.012 C 13.713 6.963,14.469 7.369,14.999 8.163 C 15.319 8.642,15.543 8.817,15.894 8.865 C 16.123 8.897,16.459 8.797,16.646 8.641 C 16.858 8.466,17.000 8.159,17.000 7.875 C 17.000 7.693,16.973 7.593,16.867 7.391 C 16.483 6.653,15.726 5.898,14.960 5.486 C 14.225 5.091,13.289 4.928,12.414 5.042 " stroke="none" fill-rule="evenodd"></path></svg>