<svg xmlns="http://www.w3.org/2000/svg" width="24" height="24" fill="currentColor" class="mmi mmi-coin-pound" viewBox="0 0 24 24"><path d="M11.200 0.025 C 7.091 0.332,3.508 2.609,1.507 6.186 C 0.775 7.494,0.317 8.899,0.094 10.520 C -0.002 11.214,-0.002 12.786,0.094 13.480 C 0.317 15.101,0.775 16.506,1.507 17.814 C 4.173 22.579,9.604 24.939,14.910 23.637 C 19.156 22.595,22.595 19.156,23.637 14.910 C 24.599 10.992,23.592 6.970,20.896 3.958 C 19.003 1.843,16.397 0.483,13.500 0.099 C 13.032 0.037,11.640 -0.007,11.200 0.025 M12.920 2.043 C 14.827 2.219,16.631 2.940,18.200 4.155 C 18.637 4.493,19.507 5.363,19.845 5.800 C 21.878 8.427,22.517 11.768,21.578 14.865 C 21.082 16.499,20.272 17.850,19.061 19.061 C 18.287 19.836,17.547 20.383,16.623 20.863 C 13.714 22.376,10.286 22.376,7.377 20.863 C 6.454 20.383,5.715 19.837,4.938 19.061 C 3.951 18.075,3.213 16.964,2.722 15.728 C 1.390 12.368,1.921 8.686,4.153 5.800 C 4.491 5.363,5.363 4.491,5.800 4.153 C 7.114 3.137,8.541 2.486,10.125 2.181 C 11.037 2.006,12.003 1.958,12.920 2.043 M12.378 5.058 C 10.565 5.340,9.179 6.836,9.016 8.690 L 8.989 9.000 8.422 9.000 C 7.741 9.000,7.546 9.052,7.299 9.299 C 6.908 9.690,6.908 10.310,7.299 10.701 C 7.546 10.948,7.741 11.000,8.427 11.000 L 9.000 11.000 9.000 11.500 L 9.000 12.000 8.427 12.000 C 7.741 12.000,7.546 12.052,7.299 12.299 C 6.908 12.690,6.908 13.310,7.299 13.701 C 7.546 13.948,7.741 14.000,8.427 14.000 L 9.000 14.000 9.000 15.000 L 9.000 16.000 8.427 16.000 C 7.741 16.000,7.546 16.052,7.299 16.299 C 6.908 16.690,6.908 17.310,7.299 17.701 C 7.616 18.018,7.337 18.000,12.000 18.000 C 16.663 18.000,16.384 18.018,16.701 17.701 C 17.092 17.310,17.092 16.690,16.701 16.299 C 16.394 15.992,16.477 16.000,13.573 16.000 L 11.000 16.000 11.000 15.000 L 11.000 14.000 12.073 14.000 C 13.308 14.000,13.423 13.979,13.701 13.701 C 14.092 13.310,14.092 12.690,13.701 12.299 C 13.423 12.021,13.308 12.000,12.073 12.000 L 11.000 12.000 11.000 11.500 L 11.000 11.000 12.073 11.000 C 13.308 11.000,13.423 10.979,13.701 10.701 C 14.092 10.310,14.092 9.690,13.701 9.299 C 13.423 9.021,13.309 9.000,12.067 9.000 L 10.989 9.000 11.015 8.777 C 11.133 7.773,11.996 7.001,13.000 7.001 C 13.786 7.001,14.479 7.460,14.837 8.220 C 15.113 8.805,15.337 8.978,15.820 8.978 C 16.409 8.978,16.812 8.579,16.812 7.997 C 16.812 7.768,16.788 7.685,16.630 7.350 C 16.316 6.687,15.957 6.234,15.432 5.839 C 14.534 5.162,13.466 4.889,12.378 5.058 " stroke="none" fill-rule="evenodd"></path></svg>