<svg xmlns="http://www.w3.org/2000/svg" width="24" height="24" fill="currentColor" class="mmi mmi-coin" viewBox="0 0 24 24"><path d="M10.820 1.044 C 8.024 1.230,5.458 2.085,3.606 3.446 C 3.055 3.851,2.239 4.686,1.909 5.182 C 1.492 5.811,1.209 6.479,1.072 7.160 C 0.996 7.540,0.996 16.460,1.072 16.840 C 1.448 18.714,2.882 20.358,5.117 21.479 C 6.604 22.224,8.197 22.676,10.152 22.907 C 10.979 23.005,13.021 23.005,13.848 22.907 C 15.869 22.668,17.503 22.194,19.020 21.406 C 20.002 20.896,20.710 20.374,21.412 19.641 C 22.216 18.802,22.722 17.868,22.928 16.840 C 23.004 16.460,23.004 7.540,22.928 7.160 C 22.698 6.017,22.135 5.044,21.152 4.095 C 18.937 1.956,14.922 0.770,10.820 1.044 M13.720 3.099 C 15.273 3.278,16.579 3.639,17.800 4.226 C 19.100 4.852,20.019 5.609,20.554 6.495 C 21.839 8.623,20.218 11.012,16.647 12.255 C 13.430 13.374,9.374 13.219,6.365 11.863 C 4.627 11.079,3.411 9.897,3.091 8.680 C 3.000 8.333,3.000 7.667,3.091 7.320 C 3.328 6.419,4.040 5.550,5.140 4.819 C 6.679 3.797,8.697 3.192,11.120 3.024 C 11.575 2.993,13.200 3.040,13.720 3.099 M3.646 12.578 C 5.244 13.785,7.502 14.594,10.152 14.907 C 10.979 15.005,13.021 15.005,13.848 14.907 C 16.650 14.576,18.981 13.699,20.660 12.346 C 20.836 12.204,20.986 12.094,20.994 12.101 C 21.032 12.137,20.902 12.728,20.795 13.008 C 19.912 15.296,16.159 17.000,12.000 17.000 C 7.354 17.000,3.335 14.898,3.021 12.304 L 2.993 12.069 3.126 12.178 C 3.200 12.238,3.434 12.418,3.646 12.578 M3.566 16.521 C 5.160 17.752,7.472 18.590,10.152 18.907 C 10.979 19.005,13.021 19.005,13.848 18.907 C 16.646 18.576,18.999 17.692,20.660 16.347 C 20.836 16.205,20.986 16.094,20.994 16.101 C 21.032 16.137,20.902 16.728,20.795 17.008 C 19.912 19.296,16.159 21.000,12.000 21.000 C 7.354 21.000,3.335 18.898,3.021 16.304 L 2.993 16.069 3.126 16.177 C 3.200 16.236,3.398 16.391,3.566 16.521 " fill="#000640" stroke="none" fill-rule="evenodd"></path></svg>