<svg xmlns="http://www.w3.org/2000/svg" width="24" height="24" fill="currentColor" class="mmi mmi-colordrop-v2" viewBox="0 0 24 24"><path d="M8.643 1.069 C 8.291 1.193,8.000 1.614,8.000 2.000 C 8.000 2.364,8.088 2.495,8.855 3.271 L 9.577 4.002 7.034 6.551 C 5.636 7.953,4.434 9.186,4.363 9.291 C 3.667 10.328,3.667 11.673,4.363 12.709 C 4.525 12.950,8.856 17.302,9.180 17.548 C 10.247 18.362,11.754 18.362,12.820 17.548 C 12.952 17.448,14.367 16.055,15.965 14.453 C 18.716 11.695,18.874 11.529,18.940 11.326 C 19.024 11.065,19.006 10.800,18.887 10.556 C 18.825 10.428,17.542 9.122,14.171 5.755 C 9.919 1.508,9.524 1.124,9.343 1.065 C 9.101 0.985,8.876 0.987,8.643 1.069 M13.800 8.220 L 16.579 11.000 16.080 11.500 L 15.581 12.000 10.999 12.000 L 6.417 12.000 6.211 11.790 C 5.953 11.528,5.842 11.290,5.842 11.000 C 5.842 10.576,5.806 10.618,8.492 7.930 C 9.860 6.560,10.989 5.440,11.000 5.440 C 11.011 5.440,12.271 6.691,13.800 8.220 M18.292 13.579 C 18.181 13.627,18.117 13.727,17.827 14.307 C 17.453 15.054,17.158 15.765,17.057 16.159 C 16.882 16.843,17.236 17.559,17.900 17.867 C 18.106 17.963,18.190 17.979,18.500 17.979 C 18.810 17.979,18.894 17.963,19.100 17.867 C 19.764 17.559,20.118 16.843,19.943 16.159 C 19.843 15.767,19.547 15.055,19.177 14.316 C 18.886 13.733,18.828 13.644,18.707 13.586 C 18.540 13.507,18.461 13.505,18.292 13.579 M12.580 15.000 C 12.030 15.550,11.517 16.030,11.440 16.067 C 11.250 16.158,10.919 16.181,10.689 16.119 C 10.519 16.073,10.396 15.964,9.460 15.034 L 8.420 14.001 11.000 14.000 L 13.579 14.000 12.580 15.000 M2.643 20.069 C 2.291 20.193,2.000 20.614,2.000 21.000 C 2.000 21.242,2.119 21.521,2.299 21.701 C 2.625 22.027,1.736 22.000,12.000 22.000 C 22.264 22.000,21.375 22.027,21.701 21.701 C 22.092 21.310,22.092 20.690,21.701 20.299 C 21.375 19.972,22.268 20.000,11.983 20.003 C 3.791 20.006,2.801 20.013,2.643 20.069 " fill="#000640" stroke="none" fill-rule="evenodd"></path></svg>