<svg xmlns="http://www.w3.org/2000/svg" width="24" height="24" fill="currentColor" class="mmi mmi-colordrop" viewBox="0 0 24 24"><path d="M8.643 1.069 C 8.291 1.193,8.000 1.614,8.000 2.000 C 8.000 2.364,8.088 2.495,8.855 3.271 L 9.577 4.002 7.034 6.551 C 5.636 7.953,4.434 9.186,4.363 9.291 C 3.667 10.328,3.667 11.673,4.363 12.709 C 4.525 12.950,8.856 17.302,9.180 17.548 C 10.247 18.362,11.754 18.362,12.820 17.548 C 12.952 17.448,14.367 16.055,15.965 14.453 C 18.716 11.695,18.874 11.529,18.940 11.326 C 19.024 11.065,19.006 10.800,18.887 10.556 C 18.825 10.428,17.542 9.122,14.171 5.755 C 9.919 1.508,9.524 1.124,9.343 1.065 C 9.101 0.985,8.876 0.987,8.643 1.069 M13.800 8.220 L 16.580 11.000 14.080 13.500 C 12.647 14.933,11.520 16.029,11.440 16.067 C 11.250 16.158,10.919 16.181,10.689 16.119 C 10.514 16.072,10.335 15.904,8.266 13.844 C 5.833 11.422,5.840 11.431,5.841 11.000 C 5.842 10.576,5.807 10.617,8.492 7.930 C 9.860 6.560,10.989 5.440,11.000 5.440 C 11.011 5.440,12.271 6.691,13.800 8.220 M18.292 13.579 C 18.181 13.627,18.117 13.727,17.827 14.307 C 17.453 15.054,17.158 15.765,17.057 16.159 C 16.882 16.843,17.236 17.559,17.900 17.867 C 18.106 17.963,18.190 17.979,18.500 17.979 C 18.810 17.979,18.894 17.963,19.100 17.867 C 19.764 17.559,20.118 16.843,19.943 16.159 C 19.843 15.767,19.547 15.055,19.177 14.316 C 18.886 13.733,18.828 13.644,18.707 13.586 C 18.540 13.507,18.461 13.505,18.292 13.579 M2.664 20.063 C 2.436 20.146,2.257 20.297,2.131 20.511 C 2.036 20.672,2.020 20.744,2.020 21.000 C 2.020 21.256,2.036 21.328,2.131 21.489 C 2.260 21.709,2.437 21.854,2.678 21.939 C 2.830 21.993,3.916 22.000,11.998 22.000 C 22.265 22.000,21.375 22.027,21.701 21.701 C 22.092 21.310,22.092 20.690,21.701 20.299 C 21.375 19.972,22.267 20.000,11.983 20.003 C 4.135 20.005,2.798 20.014,2.664 20.063 " fill="#000640" stroke="none" fill-rule="evenodd"></path></svg>