<svg xmlns="http://www.w3.org/2000/svg" width="24" height="24" fill="currentColor" class="mmi mmi-colorchannel-mixer" viewBox="0 0 24 24"><path d="M11.180 1.044 C 9.656 1.205,8.151 1.827,6.960 2.789 C 6.606 3.075,5.934 3.761,5.674 4.100 C 4.927 5.079,4.368 6.312,4.157 7.450 C 4.112 7.698,4.066 7.936,4.057 7.980 C 4.047 8.027,3.942 8.116,3.805 8.194 C 3.216 8.529,2.419 9.221,1.886 9.860 C 0.945 10.987,0.321 12.396,0.102 13.885 C 0.030 14.376,0.020 15.419,0.082 15.921 C 0.200 16.875,0.442 17.681,0.870 18.540 C 1.794 20.398,3.409 21.836,5.337 22.517 C 7.383 23.239,9.548 23.120,11.519 22.177 L 12.000 21.947 12.481 22.177 C 14.212 23.005,16.100 23.201,17.912 22.742 C 20.252 22.149,22.135 20.608,23.176 18.435 C 23.456 17.849,23.594 17.470,23.739 16.884 C 23.917 16.161,23.940 15.941,23.939 14.940 C 23.938 14.046,23.930 13.944,23.827 13.460 C 23.470 11.783,22.695 10.357,21.529 9.233 C 21.148 8.865,20.494 8.359,20.160 8.173 C 20.044 8.108,19.951 8.026,19.942 7.980 C 19.933 7.936,19.888 7.698,19.843 7.450 C 19.632 6.312,19.073 5.079,18.326 4.100 C 18.051 3.740,17.384 3.067,17.000 2.761 C 15.354 1.451,13.241 0.828,11.180 1.044 M12.590 3.040 C 13.330 3.118,13.897 3.276,14.558 3.585 C 15.950 4.238,17.075 5.457,17.618 6.899 C 17.733 7.203,17.764 7.188,17.210 7.094 C 16.660 7.000,15.409 6.999,14.820 7.092 C 13.951 7.230,13.067 7.515,12.339 7.893 L 12.006 8.065 11.575 7.853 C 10.786 7.464,10.044 7.229,9.180 7.092 C 8.591 6.999,7.340 7.000,6.790 7.094 C 6.236 7.188,6.267 7.203,6.382 6.899 C 7.336 4.365,9.920 2.759,12.590 3.040 M8.638 9.042 C 9.058 9.085,9.821 9.262,10.096 9.379 L 10.251 9.446 10.091 9.613 C 9.264 10.475,8.575 11.761,8.238 13.068 C 8.172 13.326,8.110 13.543,8.102 13.552 C 8.073 13.580,7.461 12.936,7.230 12.635 C 6.601 11.814,6.153 10.700,6.052 9.707 C 6.009 9.288,5.974 9.323,6.571 9.179 C 7.287 9.007,7.901 8.966,8.638 9.042 M17.154 9.118 C 17.381 9.165,17.660 9.234,17.773 9.271 L 17.978 9.340 17.966 9.540 C 17.947 9.847,17.854 10.343,17.740 10.741 C 17.598 11.236,17.141 12.144,16.819 12.570 C 16.565 12.907,15.930 13.583,15.898 13.552 C 15.890 13.543,15.828 13.326,15.762 13.068 C 15.425 11.761,14.736 10.475,13.909 9.613 L 13.749 9.446 13.904 9.379 C 14.138 9.279,14.923 9.086,15.272 9.043 C 15.752 8.983,16.675 9.021,17.154 9.118 M4.239 10.931 C 4.511 12.005,5.000 13.017,5.674 13.900 C 5.919 14.221,6.593 14.913,6.926 15.185 C 7.074 15.306,7.388 15.535,7.626 15.694 L 8.057 15.983 8.104 16.289 C 8.329 17.745,9.118 19.372,10.090 20.386 C 10.278 20.582,10.287 20.572,9.761 20.738 C 8.226 21.221,6.412 21.020,5.020 20.214 C 3.529 19.350,2.478 17.893,2.114 16.188 C 1.997 15.640,1.986 14.483,2.092 13.940 C 2.334 12.711,2.924 11.591,3.775 10.748 C 3.948 10.576,4.097 10.444,4.106 10.453 C 4.115 10.462,4.175 10.677,4.239 10.931 M20.551 11.100 C 21.256 11.936,21.694 12.853,21.908 13.940 C 22.014 14.483,22.003 15.640,21.886 16.188 C 21.432 18.319,19.919 20.027,17.891 20.697 C 16.771 21.067,15.475 21.096,14.368 20.776 C 14.185 20.722,13.969 20.652,13.890 20.618 L 13.745 20.558 13.907 20.389 C 14.882 19.372,15.670 17.746,15.896 16.289 L 15.943 15.983 16.374 15.694 C 16.952 15.306,17.265 15.045,17.742 14.553 C 18.838 13.422,19.449 12.265,19.856 10.549 L 19.882 10.438 20.065 10.589 C 20.165 10.672,20.384 10.902,20.551 11.100 M12.228 10.752 C 13.173 11.697,13.826 13.026,13.940 14.240 C 13.954 14.383,13.972 14.538,13.982 14.584 C 13.996 14.658,13.963 14.678,13.709 14.751 C 13.049 14.942,12.769 14.979,12.000 14.979 C 11.231 14.979,10.951 14.942,10.291 14.751 C 10.037 14.678,10.004 14.658,10.018 14.584 C 10.028 14.538,10.046 14.383,10.060 14.240 C 10.170 13.075,10.799 11.760,11.691 10.830 C 11.834 10.682,11.970 10.560,11.993 10.560 C 12.017 10.560,12.123 10.646,12.228 10.752 M10.770 16.909 C 11.046 16.960,11.358 16.977,12.000 16.977 C 12.642 16.977,12.954 16.960,13.230 16.909 C 13.753 16.812,13.732 16.807,13.655 17.010 C 13.527 17.350,13.161 18.067,12.973 18.346 C 12.737 18.696,12.282 19.234,12.119 19.354 L 12.000 19.442 11.881 19.354 C 11.722 19.237,11.269 18.703,11.024 18.346 C 10.839 18.076,10.487 17.384,10.345 17.010 C 10.268 16.807,10.247 16.812,10.770 16.909 " fill="#000640" stroke="none" fill-rule="evenodd"></path></svg>