<svg xmlns="http://www.w3.org/2000/svg" width="24" height="24" fill="currentColor" class="mmi mmi-compactdisc" viewBox="0 0 24 24"><path d="M11.200 0.028 C 10.795 0.053,10.025 0.162,9.520 0.265 C 5.794 1.029,2.578 3.637,1.018 7.160 C 0.916 7.391,0.736 7.868,0.619 8.220 C 0.228 9.397,0.050 10.415,0.013 11.680 C -0.013 12.558,0.024 13.111,0.164 13.960 C 0.995 19.014,4.986 23.005,10.040 23.836 C 11.579 24.090,13.111 24.044,14.661 23.700 C 17.014 23.177,19.282 21.847,20.896 20.043 C 22.545 18.200,23.499 16.159,23.891 13.641 C 24.014 12.848,24.014 11.136,23.892 10.359 C 23.380 7.116,21.836 4.453,19.340 2.510 C 17.055 0.731,14.156 -0.153,11.200 0.028 M12.840 2.041 C 14.187 2.161,15.482 2.538,16.640 3.146 C 17.034 3.352,17.940 3.935,18.157 4.121 L 18.255 4.205 16.102 6.358 L 13.950 8.510 13.620 8.356 C 13.092 8.108,12.683 8.024,12.000 8.024 C 11.535 8.024,11.349 8.042,11.062 8.113 C 10.437 8.269,9.751 8.638,9.266 9.081 C 8.820 9.489,8.374 10.188,8.199 10.755 L 8.129 10.980 5.092 10.990 L 2.054 11.000 2.089 10.710 C 2.266 9.204,2.895 7.581,3.806 6.280 C 5.854 3.354,9.321 1.728,12.840 2.041 M19.849 5.810 C 20.321 6.390,20.879 7.330,21.194 8.079 C 21.414 8.601,21.578 9.076,21.549 9.105 C 21.538 9.115,20.209 9.399,18.595 9.735 L 15.660 10.345 15.532 10.122 L 15.403 9.900 17.532 7.770 C 18.702 6.598,19.671 5.640,19.685 5.640 C 19.699 5.640,19.773 5.716,19.849 5.810 M12.383 10.043 C 13.185 10.190,13.839 10.872,13.967 11.695 C 14.153 12.894,13.209 14.000,12.000 14.000 C 11.032 14.000,10.183 13.268,10.033 12.305 C 9.933 11.663,10.132 11.061,10.596 10.596 C 11.085 10.108,11.698 9.918,12.383 10.043 M21.982 11.470 C 22.043 12.281,21.925 13.499,21.697 14.430 C 21.026 17.162,19.139 19.554,16.623 20.863 C 13.381 22.549,9.508 22.345,6.480 20.328 C 6.183 20.131,5.871 19.908,5.786 19.834 L 5.632 19.699 7.791 17.571 L 9.950 15.443 10.225 15.578 C 11.784 16.342,13.599 16.044,14.821 14.821 C 15.425 14.218,15.790 13.516,15.935 12.681 C 15.966 12.502,16.002 12.344,16.015 12.332 C 16.035 12.312,21.764 11.100,21.906 11.085 C 21.937 11.082,21.963 11.213,21.982 11.470 M8.221 13.300 C 8.274 13.454,8.370 13.681,8.433 13.804 L 8.548 14.028 6.384 16.153 L 4.220 18.278 4.128 18.169 C 3.933 17.940,3.357 17.042,3.146 16.640 C 2.580 15.563,2.201 14.343,2.136 13.390 L 2.109 12.999 5.116 13.010 L 8.124 13.020 8.221 13.300 " fill="#000640" stroke="none" fill-rule="evenodd"></path></svg>