<svg xmlns="http://www.w3.org/2000/svg" width="24" height="24" fill="currentColor" class="mmi mmi-compas" viewBox="0 0 24 24"><path d="M11.200 0.025 C 7.091 0.332,3.508 2.609,1.507 6.186 C 0.775 7.494,0.317 8.899,0.094 10.520 C -0.002 11.214,-0.002 12.786,0.094 13.480 C 0.317 15.101,0.775 16.506,1.507 17.814 C 4.173 22.579,9.604 24.939,14.910 23.637 C 19.156 22.595,22.595 19.156,23.637 14.910 C 24.599 10.992,23.592 6.970,20.896 3.958 C 19.003 1.843,16.397 0.483,13.500 0.099 C 13.032 0.037,11.640 -0.007,11.200 0.025 M12.920 2.043 C 14.827 2.219,16.631 2.940,18.200 4.155 C 18.637 4.493,19.507 5.363,19.845 5.800 C 21.878 8.427,22.517 11.768,21.578 14.865 C 21.082 16.499,20.272 17.850,19.061 19.061 C 18.287 19.836,17.547 20.383,16.623 20.863 C 13.714 22.376,10.286 22.376,7.377 20.863 C 6.454 20.383,5.715 19.837,4.938 19.061 C 3.951 18.075,3.213 16.964,2.722 15.728 C 1.390 12.368,1.921 8.686,4.153 5.800 C 4.491 5.363,5.363 4.491,5.800 4.153 C 7.114 3.137,8.541 2.486,10.125 2.181 C 11.037 2.006,12.003 1.958,12.920 2.043 M12.989 7.277 C 10.881 7.979,9.076 8.602,8.976 8.660 C 8.870 8.723,8.746 8.843,8.678 8.950 C 8.533 9.178,6.000 16.758,6.000 16.964 C 6.000 17.534,6.457 18.000,7.016 18.000 C 7.218 18.000,14.782 15.486,15.034 15.335 C 15.129 15.278,15.259 15.149,15.323 15.049 C 15.467 14.821,18.000 7.241,18.000 7.036 C 18.000 6.466,17.542 6.000,16.983 6.000 C 16.876 6.000,15.500 6.440,12.989 7.277 M15.390 8.650 C 15.380 8.678,14.997 9.826,14.539 11.203 L 13.705 13.705 11.165 14.552 C 9.768 15.017,8.620 15.393,8.613 15.387 C 8.607 15.380,8.983 14.232,9.448 12.835 L 10.295 10.295 12.817 9.451 C 14.205 8.986,15.355 8.605,15.374 8.603 C 15.393 8.601,15.400 8.623,15.390 8.650 M11.643 11.069 C 11.291 11.193,11.000 11.614,11.000 12.000 C 11.000 12.527,11.473 13.000,12.000 13.000 C 12.242 13.000,12.521 12.881,12.701 12.701 C 13.454 11.948,12.653 10.712,11.643 11.069 " stroke="none" fill-rule="evenodd"></path></svg>