<svg xmlns="http://www.w3.org/2000/svg" width="24" height="24" fill="currentColor" class="mmi mmi-connectedroll" viewBox="0 0 24 24"><path d="M4.960 7.025 C 3.613 7.196,2.519 7.717,1.618 8.618 C 0.524 9.713,-0.050 11.170,0.013 12.700 C 0.071 14.128,0.616 15.379,1.619 16.381 C 2.399 17.162,3.349 17.671,4.460 17.904 C 4.805 17.977,5.113 17.980,12.000 17.980 C 18.780 17.980,19.199 17.976,19.520 17.908 C 20.666 17.663,21.595 17.167,22.381 16.381 C 23.168 15.595,23.664 14.664,23.907 13.520 C 24.009 13.042,24.008 11.955,23.905 11.480 C 23.653 10.315,23.167 9.402,22.382 8.620 C 21.585 7.827,20.624 7.318,19.499 7.095 C 19.007 6.997,17.995 6.997,17.505 7.094 C 16.366 7.320,15.413 7.824,14.619 8.618 C 13.832 9.405,13.336 10.336,13.093 11.480 C 12.990 11.962,12.992 13.042,13.096 13.540 C 13.256 14.307,13.536 14.966,13.978 15.619 L 14.237 16.000 12.000 16.000 L 9.763 16.000 10.022 15.619 C 10.351 15.133,10.530 14.775,10.700 14.266 C 10.929 13.576,10.979 13.260,10.979 12.500 C 10.979 11.740,10.929 11.424,10.700 10.734 C 10.081 8.873,8.479 7.482,6.517 7.100 C 6.186 7.036,5.236 6.990,4.960 7.025 M6.092 9.060 C 6.847 9.191,7.404 9.484,7.960 10.040 C 8.516 10.596,8.809 11.153,8.940 11.908 C 9.128 12.982,8.804 14.074,8.064 14.868 C 7.605 15.361,7.114 15.665,6.452 15.867 C 6.137 15.962,6.037 15.974,5.500 15.974 C 4.963 15.974,4.863 15.962,4.548 15.867 C 3.886 15.665,3.395 15.361,2.936 14.868 C 1.890 13.746,1.711 12.106,2.484 10.732 C 2.724 10.307,3.307 9.724,3.732 9.484 C 4.489 9.058,5.274 8.917,6.092 9.060 M19.092 9.060 C 19.847 9.191,20.404 9.484,20.960 10.040 C 21.516 10.596,21.809 11.153,21.940 11.908 C 22.128 12.982,21.804 14.074,21.064 14.868 C 20.605 15.361,20.114 15.665,19.452 15.867 C 19.137 15.962,19.037 15.974,18.500 15.974 C 17.963 15.974,17.863 15.962,17.548 15.867 C 16.886 15.665,16.395 15.361,15.936 14.868 C 15.196 14.074,14.872 12.982,15.060 11.908 C 15.191 11.153,15.484 10.596,16.040 10.040 C 16.874 9.206,17.950 8.861,19.092 9.060 " fill="#000640" stroke="none" fill-rule="evenodd"></path></svg>