<svg xmlns="http://www.w3.org/2000/svg" width="24" height="24" fill="currentColor" class="mmi mmi-controlleroptionr-x" viewBox="0 0 24 24"><path d="M7.600 2.583 C 7.511 2.621,6.587 3.515,5.066 5.032 C 2.505 7.586,2.511 7.580,2.507 7.979 C 2.503 8.400,2.473 8.364,4.354 10.250 L 6.099 12.000 4.354 13.750 C 2.487 15.622,2.506 15.599,2.506 16.000 C 2.506 16.408,2.437 16.327,5.014 18.914 C 7.587 21.497,7.579 21.489,7.979 21.493 C 8.400 21.497,8.364 21.527,10.250 19.646 L 12.000 17.901 13.750 19.646 C 15.636 21.527,15.600 21.497,16.021 21.493 C 16.421 21.489,16.413 21.497,18.986 18.914 C 21.563 16.327,21.494 16.408,21.494 16.000 C 21.494 15.599,21.513 15.622,19.646 13.750 L 17.901 12.000 19.646 10.250 C 21.527 8.364,21.497 8.400,21.493 7.979 C 21.489 7.580,21.495 7.586,18.934 5.032 C 17.277 3.379,16.494 2.624,16.391 2.582 C 16.200 2.502,15.800 2.503,15.609 2.582 C 15.507 2.624,14.909 3.193,13.730 4.371 L 12.000 6.099 10.270 4.371 C 9.091 3.193,8.493 2.624,8.391 2.582 C 8.203 2.504,7.783 2.504,7.600 2.583 M10.010 6.910 L 12.000 8.900 14.000 6.900 L 16.000 4.900 17.550 6.450 L 19.100 8.000 17.100 10.000 L 15.100 12.000 17.100 14.000 L 19.100 16.000 17.550 17.550 L 16.000 19.100 14.000 17.100 L 12.000 15.100 10.000 17.100 L 8.000 19.100 6.450 17.550 L 4.900 16.000 6.900 14.000 L 8.900 12.000 6.900 10.000 L 4.900 8.000 6.440 6.460 C 7.287 5.613,7.989 4.920,8.000 4.920 C 8.011 4.920,8.915 5.815,10.010 6.910 " fill="#000640" stroke="none" fill-rule="evenodd"></path></svg>