<svg xmlns="http://www.w3.org/2000/svg" width="24" height="24" fill="currentColor" class="mmi mmi-controlleroption" viewBox="0 0 24 24"><path d="M5.671 1.064 C 5.279 1.184,5.343 1.073,3.101 5.557 C 1.386 8.988,1.029 9.730,1.011 9.902 C 0.981 10.195,1.087 10.489,1.298 10.700 C 1.616 11.018,1.335 11.000,6.000 11.000 C 10.665 11.000,10.384 11.018,10.702 10.700 C 10.913 10.489,11.019 10.195,10.989 9.902 C 10.971 9.730,10.614 8.988,8.899 5.557 C 6.642 1.043,6.723 1.183,6.313 1.062 C 6.061 0.987,5.919 0.987,5.671 1.064 M17.340 1.046 C 16.642 1.135,15.813 1.452,15.192 1.868 C 14.805 2.127,14.289 2.622,13.994 3.016 C 13.683 3.433,13.309 4.196,13.180 4.680 C 12.864 5.865,12.982 7.089,13.517 8.180 C 14.038 9.243,14.814 10.007,15.896 10.524 C 17.462 11.271,19.333 11.118,20.824 10.119 C 21.229 9.848,21.848 9.229,22.119 8.824 C 23.283 7.085,23.283 4.915,22.119 3.176 C 21.848 2.771,21.229 2.152,20.824 1.881 C 19.782 1.183,18.560 0.890,17.340 1.046 M18.581 3.062 C 19.782 3.310,20.690 4.218,20.938 5.419 C 21.365 7.482,19.482 9.365,17.419 8.938 C 16.215 8.690,15.310 7.785,15.062 6.581 C 14.686 4.764,16.102 3.023,17.972 3.003 C 18.143 3.001,18.417 3.028,18.581 3.062 M7.190 6.620 C 7.834 7.907,8.360 8.969,8.360 8.980 C 8.360 8.991,7.298 9.000,6.000 9.000 C 4.702 9.000,3.640 8.991,3.640 8.980 C 3.640 8.941,5.980 4.280,6.000 4.280 C 6.011 4.280,6.547 5.333,7.190 6.620 M1.664 13.063 C 1.436 13.146,1.257 13.297,1.131 13.511 L 1.020 13.700 1.020 18.000 L 1.020 22.300 1.131 22.489 C 1.192 22.592,1.301 22.723,1.374 22.778 C 1.677 23.009,1.484 23.000,5.998 23.000 C 10.663 23.000,10.384 23.018,10.701 22.701 C 11.018 22.384,11.000 22.663,11.000 18.000 C 11.000 13.337,11.018 13.616,10.701 13.299 C 10.384 12.982,10.666 13.000,5.983 13.003 C 2.474 13.005,1.795 13.015,1.664 13.063 M14.047 13.624 C 13.705 13.794,13.519 14.107,13.521 14.509 C 13.522 14.929,13.557 14.973,15.131 16.550 L 16.579 18.000 15.134 19.450 C 14.339 20.247,13.657 20.962,13.619 21.038 C 13.581 21.114,13.541 21.286,13.530 21.420 C 13.495 21.860,13.751 22.258,14.174 22.420 C 14.396 22.504,14.752 22.487,14.964 22.380 C 15.039 22.342,15.752 21.661,16.550 20.866 L 18.000 19.421 19.450 20.866 C 20.247 21.661,20.962 22.343,21.038 22.381 C 21.114 22.419,21.286 22.459,21.420 22.470 C 21.860 22.505,22.258 22.249,22.420 21.826 C 22.504 21.604,22.487 21.248,22.380 21.036 C 22.342 20.961,21.661 20.247,20.866 19.450 L 19.421 18.000 20.866 16.550 C 21.661 15.752,22.342 15.039,22.380 14.964 C 22.487 14.752,22.504 14.396,22.420 14.174 C 22.258 13.751,21.860 13.495,21.420 13.530 C 21.286 13.541,21.114 13.581,21.038 13.619 C 20.962 13.657,20.247 14.339,19.450 15.134 L 18.000 16.579 16.550 15.131 C 15.472 14.055,15.054 13.663,14.920 13.603 C 14.655 13.484,14.312 13.492,14.047 13.624 M9.000 18.000 L 9.000 21.000 6.000 21.000 L 3.000 21.000 3.000 18.000 L 3.000 15.000 6.000 15.000 L 9.000 15.000 9.000 18.000 " fill="#000640" stroke="none" fill-rule="evenodd"></path></svg>