<svg xmlns="http://www.w3.org/2000/svg" width="24" height="24" fill="currentColor" class="mmi mmi-controlleroption-triangle" viewBox="0 0 24 24"><path d="M11.671 2.064 C 11.562 2.097,11.415 2.186,11.328 2.271 C 11.215 2.381,9.841 4.821,6.133 11.500 C 3.360 16.494,1.071 20.641,1.046 20.716 C 0.887 21.187,1.181 21.771,1.660 21.934 C 1.839 21.995,2.661 22.000,12.000 22.000 C 21.339 22.000,22.161 21.995,22.340 21.934 C 22.819 21.771,23.113 21.187,22.954 20.716 C 22.929 20.641,20.640 16.494,17.867 11.500 C 14.169 4.839,12.785 2.380,12.673 2.272 C 12.513 2.116,12.208 1.998,11.983 2.003 C 11.915 2.004,11.775 2.032,11.671 2.064 M16.163 12.561 C 18.427 16.637,20.280 19.978,20.280 19.986 C 20.280 19.994,16.553 20.000,11.997 20.000 C 7.441 20.000,3.719 19.985,3.727 19.966 C 3.816 19.742,11.989 5.097,12.013 5.119 C 12.031 5.136,13.898 8.484,16.163 12.561 " fill="#000640" stroke="none" fill-rule="evenodd"></path></svg>