<svg xmlns="http://www.w3.org/2000/svg" width="24" height="24" fill="currentColor" class="mmi mmi-convetti" viewBox="0 0 24 24"><path d="M11.114 1.056 C 10.423 1.303,10.261 2.160,10.797 2.741 C 11.239 3.221,11.446 3.718,11.471 4.360 C 11.498 5.060,11.311 5.606,10.864 6.134 C 10.592 6.454,10.518 6.597,10.493 6.855 C 10.452 7.263,10.722 7.705,11.113 7.868 C 11.316 7.953,11.674 7.944,11.885 7.850 C 12.085 7.760,12.469 7.372,12.707 7.020 C 13.549 5.772,13.724 4.267,13.191 2.850 C 12.918 2.127,12.318 1.306,11.916 1.105 C 11.677 0.986,11.363 0.967,11.114 1.056 M17.643 2.069 C 17.291 2.193,17.000 2.614,17.000 3.000 C 17.000 3.527,17.473 4.000,18.000 4.000 C 18.242 4.000,18.521 3.881,18.701 3.701 C 19.454 2.948,18.653 1.712,17.643 2.069 M8.643 3.069 C 8.291 3.193,8.000 3.614,8.000 4.000 C 8.000 4.242,8.119 4.521,8.299 4.701 C 8.690 5.092,9.310 5.092,9.701 4.701 C 10.454 3.948,9.653 2.712,8.643 3.069 M17.340 5.505 C 17.006 5.588,16.972 5.617,15.367 7.215 C 14.480 8.098,13.708 8.897,13.652 8.992 C 13.346 9.508,13.599 10.200,14.174 10.420 C 14.396 10.504,14.752 10.487,14.964 10.380 C 15.039 10.342,15.817 9.598,16.693 8.726 C 17.852 7.572,18.314 7.086,18.390 6.940 C 18.711 6.325,18.305 5.573,17.616 5.505 C 17.508 5.494,17.384 5.494,17.340 5.505 M7.644 7.066 C 7.262 7.206,7.342 7.057,4.651 12.620 C 3.279 15.458,2.103 17.902,2.039 18.051 C 1.805 18.595,1.743 19.209,1.863 19.792 C 1.988 20.396,2.241 20.849,2.719 21.325 C 3.013 21.617,3.128 21.701,3.483 21.876 C 3.946 22.105,4.340 22.200,4.814 22.199 C 5.100 22.199,5.554 22.121,5.780 22.035 C 6.128 21.902,16.521 16.855,16.640 16.762 C 16.811 16.627,16.963 16.342,16.989 16.107 C 17.001 16.003,16.982 15.835,16.942 15.696 L 16.874 15.460 12.747 11.329 C 9.704 8.283,8.573 7.175,8.441 7.111 C 8.213 7.000,7.876 6.982,7.644 7.066 M20.643 7.069 C 20.291 7.193,20.000 7.614,20.000 8.000 C 20.000 8.242,20.119 8.521,20.299 8.701 C 20.690 9.092,21.310 9.092,21.701 8.701 C 22.454 7.948,21.653 6.712,20.643 7.069 M14.249 15.726 C 14.198 15.775,5.224 20.106,5.064 20.159 C 4.359 20.391,3.606 19.618,3.850 18.913 C 3.896 18.780,8.063 10.133,8.248 9.784 C 8.284 9.718,8.661 10.082,11.283 12.703 C 12.930 14.350,14.265 15.711,14.249 15.726 M19.100 10.468 C 18.125 10.557,17.243 10.936,16.489 11.590 C 16.076 11.949,15.934 12.297,16.037 12.704 C 16.152 13.161,16.533 13.460,17.000 13.458 C 17.309 13.457,17.485 13.377,17.818 13.085 C 18.228 12.726,18.744 12.506,19.296 12.457 C 19.890 12.403,20.665 12.664,21.120 13.071 C 21.442 13.360,21.622 13.440,21.950 13.440 C 22.187 13.440,22.252 13.423,22.440 13.310 C 22.746 13.127,22.893 12.880,22.914 12.514 C 22.935 12.132,22.812 11.883,22.447 11.573 C 21.491 10.761,20.280 10.361,19.100 10.468 " fill="#000640" stroke="none" fill-rule="evenodd"></path></svg>