<svg xmlns="http://www.w3.org/2000/svg" width="24" height="24" fill="currentColor" class="mmi mmi-cowboyhat" viewBox="0 0 24 24"><path d="M8.414 2.763 C 7.486 2.854,6.663 3.436,6.223 4.312 C 5.858 5.038,5.006 7.190,4.540 8.560 C 3.683 11.082,2.873 14.326,2.477 16.820 C 2.428 17.128,2.378 17.393,2.364 17.408 C 2.351 17.423,2.097 17.354,1.800 17.254 C 0.960 16.971,0.624 17.002,0.269 17.395 C 0.088 17.595,-0.018 17.930,0.021 18.171 C 0.061 18.418,0.232 18.707,0.417 18.844 C 0.744 19.084,3.142 19.790,4.940 20.176 C 7.300 20.683,9.556 20.941,12.020 20.986 C 15.578 21.052,18.682 20.616,21.600 19.641 C 22.762 19.253,23.476 18.950,23.662 18.767 C 23.965 18.468,24.049 18.041,23.880 17.649 C 23.722 17.282,23.397 17.071,22.988 17.069 C 22.777 17.068,22.659 17.101,22.192 17.294 C 21.891 17.418,21.637 17.520,21.627 17.520 C 21.617 17.520,21.597 17.417,21.581 17.290 C 21.531 16.875,21.241 15.318,21.036 14.362 C 20.352 11.173,19.351 7.969,18.175 5.210 C 18.013 4.830,17.829 4.416,17.765 4.289 C 17.597 3.957,17.305 3.585,17.046 3.373 C 16.785 3.159,16.287 2.910,15.940 2.819 C 15.590 2.728,14.899 2.735,14.513 2.836 C 14.146 2.931,14.078 2.964,13.083 3.534 L 12.306 3.980 12.000 3.980 L 11.694 3.980 10.916 3.532 C 10.488 3.286,10.039 3.039,9.919 2.983 C 9.520 2.798,8.933 2.712,8.414 2.763 M9.180 4.850 C 9.268 4.895,9.631 5.100,9.986 5.307 C 10.342 5.514,10.743 5.727,10.878 5.782 C 11.434 6.008,12.090 6.059,12.665 5.922 C 13.090 5.820,13.297 5.725,14.040 5.292 C 14.381 5.094,14.741 4.890,14.840 4.839 C 15.207 4.652,15.695 4.759,15.906 5.072 C 16.150 5.435,17.169 8.024,17.671 9.560 C 18.061 10.752,18.748 13.149,18.710 13.182 C 18.704 13.187,18.367 13.238,17.960 13.295 C 14.202 13.827,11.122 13.888,7.640 13.498 C 6.733 13.396,5.312 13.205,5.289 13.182 C 5.254 13.148,5.779 11.249,6.141 10.100 C 6.720 8.262,7.895 5.270,8.148 4.991 C 8.385 4.729,8.822 4.669,9.180 4.850 M5.780 15.278 C 10.224 15.905,13.536 15.910,18.073 15.296 C 18.653 15.217,19.137 15.164,19.150 15.176 C 19.191 15.218,19.680 17.913,19.680 18.099 C 19.680 18.155,18.884 18.348,17.880 18.535 C 14.274 19.209,10.086 19.146,6.040 18.357 C 5.547 18.260,4.345 17.996,4.328 17.980 C 4.312 17.965,4.487 16.914,4.667 15.950 C 4.784 15.322,4.827 15.160,4.877 15.160 C 4.912 15.160,5.318 15.213,5.780 15.278 " fill="#000640" stroke="none" fill-rule="evenodd"></path></svg>