<svg xmlns="http://www.w3.org/2000/svg" width="24" height="24" fill="currentColor" class="mmi mmi-crown" viewBox="0 0 24 24"><path d="M11.694 2.057 C 11.602 2.086,11.474 2.148,11.408 2.194 C 11.343 2.241,10.267 3.710,9.017 5.460 C 7.768 7.209,6.730 8.640,6.709 8.640 C 6.689 8.640,5.713 8.064,4.540 7.360 C 3.001 6.436,2.351 6.067,2.205 6.034 C 1.645 5.904,1.094 6.298,1.017 6.882 C 0.988 7.107,2.826 18.163,2.958 18.560 C 3.193 19.261,3.742 19.889,4.421 20.234 C 4.975 20.515,6.736 21.112,7.798 21.379 C 9.223 21.738,10.219 21.877,11.588 21.908 C 13.294 21.947,14.611 21.785,16.380 21.321 C 17.527 21.020,19.097 20.477,19.660 20.187 C 20.255 19.880,20.824 19.209,21.042 18.560 C 21.174 18.163,23.012 7.107,22.983 6.882 C 22.927 6.458,22.627 6.130,22.209 6.035 C 21.824 5.947,21.774 5.972,19.460 7.360 C 18.287 8.064,17.311 8.640,17.291 8.640 C 17.270 8.640,16.232 7.209,14.983 5.460 C 13.733 3.710,12.658 2.241,12.593 2.195 C 12.449 2.093,12.152 1.999,11.984 2.003 C 11.916 2.004,11.785 2.029,11.694 2.057 M14.160 7.740 C 15.331 9.380,16.340 10.757,16.402 10.801 C 16.667 10.990,17.019 11.046,17.305 10.945 C 17.390 10.914,18.169 10.464,19.035 9.943 C 19.902 9.423,20.619 9.006,20.629 9.016 C 20.659 9.046,19.202 17.765,19.136 17.948 C 19.018 18.273,18.829 18.407,18.109 18.672 C 16.314 19.333,14.681 19.737,13.220 19.882 C 12.648 19.938,11.300 19.938,10.740 19.881 C 9.595 19.764,8.529 19.542,7.289 19.161 C 6.541 18.932,5.366 18.493,5.192 18.379 C 4.862 18.162,4.908 18.369,4.093 13.479 C 3.686 11.034,3.361 9.026,3.371 9.016 C 3.381 9.006,4.110 9.430,4.991 9.958 C 6.740 11.008,6.832 11.050,7.211 10.965 C 7.329 10.939,7.489 10.874,7.566 10.821 C 7.662 10.756,8.396 9.762,9.838 7.743 C 11.010 6.102,11.983 4.760,12.000 4.760 C 12.017 4.760,12.990 6.101,14.160 7.740 M11.433 10.040 C 10.843 10.134,10.221 10.380,9.731 10.712 C 8.955 11.240,8.394 12.037,8.130 12.989 C 8.034 13.337,8.022 13.449,8.022 14.000 C 8.022 14.553,8.034 14.663,8.132 15.017 C 8.475 16.256,9.357 17.252,10.520 17.715 C 12.334 18.437,14.462 17.710,15.444 16.033 C 16.503 14.224,15.985 11.878,14.269 10.712 C 13.917 10.473,13.343 10.214,12.958 10.120 C 12.572 10.026,11.783 9.984,11.433 10.040 M12.383 12.043 C 13.185 12.190,13.839 12.872,13.967 13.695 C 14.153 14.894,13.209 16.000,12.000 16.000 C 11.032 16.000,10.183 15.268,10.033 14.305 C 9.933 13.663,10.132 13.061,10.596 12.596 C 11.085 12.108,11.698 11.918,12.383 12.043 " fill="#000640" stroke="none" fill-rule="evenodd"></path></svg>