<svg xmlns="http://www.w3.org/2000/svg" width="24" height="24" fill="currentColor" class="mmi mmi-cupcake" viewBox="0 0 24 24"><path d="M11.680 1.024 C 11.472 1.063,11.093 1.216,10.900 1.339 C 10.371 1.676,10.000 2.353,10.000 2.981 C 10.000 3.132,9.987 3.162,9.910 3.179 C 9.861 3.190,9.640 3.237,9.420 3.283 C 8.849 3.403,8.019 3.688,7.449 3.961 C 5.236 5.019,3.602 6.718,2.401 9.211 C 1.916 10.218,1.447 11.550,1.358 12.171 C 1.209 13.226,1.846 14.299,2.896 14.761 L 3.193 14.891 3.902 17.736 C 4.292 19.300,4.663 20.745,4.726 20.946 C 4.872 21.409,5.132 21.811,5.526 22.180 C 5.995 22.620,6.463 22.853,7.091 22.961 C 7.261 22.990,8.876 23.000,12.160 22.992 L 16.980 22.980 17.320 22.867 C 18.186 22.578,18.892 21.925,19.212 21.119 C 19.269 20.975,19.652 19.511,20.064 17.865 C 20.628 15.609,20.828 14.868,20.876 14.852 C 21.645 14.599,22.268 13.991,22.526 13.242 C 22.720 12.681,22.698 12.229,22.437 11.360 C 21.650 8.745,20.178 6.464,18.377 5.073 C 17.240 4.195,15.789 3.521,14.480 3.262 C 13.969 3.161,14.000 3.180,14.000 2.966 C 14.000 2.726,13.906 2.360,13.777 2.092 C 13.575 1.676,13.145 1.302,12.662 1.123 C 12.428 1.037,11.900 0.983,11.680 1.024 M13.400 5.099 C 16.527 5.549,18.828 7.533,20.171 10.940 C 20.454 11.657,20.640 12.265,20.640 12.471 C 20.640 12.662,20.515 12.835,20.304 12.935 C 20.180 12.994,19.445 13.000,12.000 13.000 C 2.975 13.000,3.685 13.021,3.460 12.752 C 3.322 12.588,3.330 12.401,3.502 11.852 C 3.962 10.378,4.745 8.888,5.591 7.879 C 7.034 6.157,8.891 5.222,11.260 5.025 C 11.645 4.993,12.984 5.039,13.400 5.099 M18.719 15.010 C 18.718 15.015,18.414 16.230,18.044 17.709 C 17.423 20.184,17.358 20.413,17.233 20.587 C 17.148 20.706,17.023 20.815,16.900 20.878 C 16.713 20.975,16.663 20.981,15.972 20.992 C 15.382 21.003,15.244 20.995,15.258 20.952 C 15.268 20.924,15.441 20.153,15.642 19.240 C 16.048 17.405,16.057 17.313,15.860 16.976 C 15.649 16.616,15.201 16.420,14.799 16.513 C 14.468 16.589,14.186 16.820,14.078 17.106 C 14.056 17.164,13.857 18.024,13.637 19.016 C 13.416 20.008,13.226 20.861,13.214 20.910 L 13.191 21.000 12.000 21.000 L 10.809 21.000 10.786 20.910 C 10.774 20.861,10.584 20.008,10.363 19.016 C 10.143 18.024,9.944 17.164,9.922 17.106 C 9.814 16.820,9.532 16.589,9.201 16.513 C 8.799 16.420,8.351 16.616,8.140 16.976 C 7.943 17.313,7.952 17.405,8.358 19.240 C 8.559 20.153,8.732 20.924,8.742 20.953 C 8.757 20.996,8.619 21.004,8.007 20.993 L 7.253 20.980 7.062 20.860 C 6.680 20.621,6.705 20.692,5.958 17.716 C 5.586 16.233,5.282 15.015,5.281 15.010 C 5.280 15.005,8.304 15.000,12.000 15.000 C 15.696 15.000,18.720 15.005,18.719 15.010 " fill="#000640" stroke="none" fill-rule="evenodd"></path></svg>