<svg xmlns="http://www.w3.org/2000/svg" width="24" height="24" fill="currentColor" class="mmi mmi-curtain" viewBox="0 0 24 24"><path d="M3.503 1.042 C 2.488 1.214,1.556 1.976,1.202 2.925 C 0.992 3.487,1.001 3.068,1.001 11.992 C 1.000 19.301,1.007 20.319,1.062 20.581 C 1.310 21.785,2.215 22.690,3.419 22.938 C 3.816 23.021,5.186 23.023,5.567 22.942 C 6.576 22.728,7.372 22.046,7.666 21.143 C 7.753 20.877,7.772 20.746,7.771 20.400 C 7.771 20.038,7.749 19.894,7.608 19.352 C 7.246 17.965,6.720 16.518,5.857 14.534 L 5.802 14.408 6.251 14.127 C 8.569 12.680,10.120 10.907,11.122 8.560 C 11.358 8.006,11.960 6.269,11.960 6.141 C 11.960 6.108,11.978 6.080,12.000 6.080 C 12.022 6.080,12.040 6.108,12.040 6.141 C 12.040 6.269,12.642 8.006,12.878 8.560 C 13.884 10.916,15.453 12.703,17.798 14.163 L 18.197 14.411 18.142 14.535 C 17.282 16.511,16.753 17.966,16.392 19.352 C 16.251 19.894,16.229 20.038,16.229 20.400 C 16.228 20.746,16.247 20.877,16.334 21.143 C 16.628 22.046,17.424 22.728,18.433 22.942 C 18.814 23.023,20.184 23.021,20.581 22.938 C 21.780 22.691,22.691 21.780,22.938 20.581 C 22.993 20.319,23.000 19.300,23.000 12.000 C 23.000 2.925,23.014 3.457,22.766 2.849 C 22.499 2.193,21.964 1.633,21.296 1.312 C 20.634 0.993,21.532 1.022,12.120 1.015 C 7.489 1.012,3.611 1.024,3.503 1.042 M5.905 3.110 C 5.894 3.171,5.873 3.337,5.859 3.480 C 5.815 3.928,5.640 5.067,5.537 5.574 C 5.148 7.487,4.466 9.355,3.294 11.720 L 3.006 12.300 3.003 8.077 C 3.000 3.326,2.982 3.616,3.300 3.298 C 3.573 3.025,3.670 3.007,4.873 3.003 L 5.926 3.000 5.905 3.110 M10.704 3.070 C 10.693 3.109,10.618 3.401,10.539 3.720 C 9.738 6.928,9.128 8.469,8.124 9.820 C 7.578 10.554,6.669 11.416,5.800 12.024 C 5.407 12.298,5.251 12.400,5.222 12.400 C 5.211 12.400,5.263 12.269,5.336 12.110 C 6.283 10.068,6.637 9.170,7.058 7.740 C 7.454 6.400,7.760 4.779,7.901 3.290 L 7.928 3.000 9.327 3.000 C 10.640 3.000,10.724 3.004,10.704 3.070 M16.015 3.250 C 16.026 3.388,16.055 3.806,16.077 4.180 C 16.234 6.737,16.805 8.999,17.882 11.330 C 18.052 11.698,18.183 12.000,18.173 12.000 C 18.103 12.000,17.256 11.298,16.846 10.900 C 15.249 9.352,14.513 7.827,13.556 4.082 C 13.423 3.564,13.306 3.109,13.295 3.070 C 13.276 3.004,13.358 3.000,14.634 3.000 L 15.994 3.000 16.015 3.250 M20.340 3.066 C 20.455 3.105,20.603 3.201,20.701 3.299 C 21.019 3.617,21.000 3.292,21.000 8.377 L 20.999 12.900 20.776 12.520 C 19.013 9.521,18.180 6.805,18.053 3.650 L 18.027 3.000 19.087 3.000 C 19.968 3.000,20.178 3.011,20.340 3.066 M4.141 15.610 C 4.954 17.451,5.759 19.825,5.760 20.384 C 5.760 20.593,5.632 20.786,5.420 20.897 C 5.279 20.970,5.177 20.982,4.568 20.993 C 3.744 21.008,3.564 20.966,3.300 20.702 C 2.992 20.394,3.000 20.478,3.000 17.573 L 3.000 15.000 3.436 15.000 L 3.872 15.000 4.141 15.610 M21.000 17.573 C 21.000 20.478,21.008 20.394,20.700 20.702 C 20.436 20.966,20.256 21.008,19.432 20.993 C 18.823 20.982,18.721 20.970,18.580 20.897 C 18.365 20.785,18.240 20.593,18.240 20.378 C 18.240 19.824,19.044 17.457,19.859 15.610 L 20.128 15.000 20.564 15.000 L 21.000 15.000 21.000 17.573 " fill="#000640" stroke="none" fill-rule="evenodd"></path></svg>