<svg xmlns="http://www.w3.org/2000/svg" width="24" height="24" fill="currentColor" class="mmi mmi-curvearrow-rightup" viewBox="0 0 24 24"><path d="M1.568 7.144 C 1.323 7.265,1.146 7.465,1.061 7.715 C 0.974 7.970,0.983 8.074,1.142 8.675 C 1.973 11.825,4.209 14.529,7.132 15.919 C 11.014 17.766,15.564 17.206,18.886 14.472 C 19.428 14.026,20.303 13.117,20.680 12.609 L 20.980 12.204 21.000 13.892 C 21.015 15.119,21.034 15.611,21.070 15.693 C 21.311 16.236,21.962 16.463,22.470 16.183 C 22.586 16.119,22.727 16.007,22.783 15.933 C 23.009 15.636,23.002 15.770,22.991 11.819 C 22.981 8.410,22.975 8.171,22.908 8.036 C 22.734 7.685,22.390 7.471,22.005 7.473 C 21.839 7.474,20.885 7.718,18.380 8.398 C 16.510 8.905,14.912 9.351,14.829 9.387 C 14.649 9.466,14.417 9.712,14.330 9.914 C 14.249 10.106,14.252 10.460,14.336 10.660 C 14.480 10.999,14.886 11.279,15.235 11.280 C 15.337 11.280,16.331 11.030,17.617 10.680 C 18.831 10.350,19.846 10.080,19.873 10.080 C 19.938 10.080,19.791 10.364,19.479 10.840 C 17.973 13.140,15.587 14.625,12.892 14.940 C 9.943 15.285,6.967 14.107,5.008 11.820 C 4.110 10.772,3.424 9.476,3.078 8.178 C 3.008 7.915,2.918 7.637,2.879 7.560 C 2.643 7.099,2.041 6.908,1.568 7.144 " fill="#000640" stroke="none" fill-rule="evenodd"></path></svg>