<svg xmlns="http://www.w3.org/2000/svg" width="24" height="24" fill="currentColor" class="mmi mmi-curvearrow-rightdown" viewBox="0 0 24 24"><path d="M10.944 7.041 C 6.718 7.421,3.133 10.114,1.546 14.100 C 1.317 14.675,1.054 15.556,1.013 15.885 C 0.965 16.269,1.209 16.694,1.577 16.865 C 1.935 17.031,2.351 16.978,2.642 16.729 C 2.853 16.549,2.925 16.398,3.078 15.820 C 3.589 13.889,4.810 12.068,6.402 10.864 C 7.695 9.885,9.098 9.306,10.740 9.073 C 11.269 8.998,12.600 9.008,13.142 9.092 C 14.732 9.338,16.060 9.894,17.322 10.845 C 18.296 11.578,19.199 12.610,19.778 13.652 C 19.861 13.802,19.923 13.929,19.915 13.935 C 19.907 13.941,18.928 13.678,17.740 13.350 C 15.341 12.689,15.144 12.653,14.820 12.827 C 14.611 12.939,14.421 13.141,14.336 13.340 C 14.252 13.540,14.249 13.894,14.330 14.086 C 14.416 14.288,14.649 14.534,14.829 14.613 C 14.912 14.650,16.510 15.097,18.380 15.606 C 22.065 16.610,22.097 16.617,22.425 16.448 C 22.637 16.339,22.893 16.048,22.953 15.848 C 22.987 15.732,23.000 14.739,23.000 12.112 C 23.000 8.140,23.011 8.307,22.735 8.023 C 22.516 7.798,22.303 7.706,22.000 7.706 C 21.704 7.706,21.492 7.794,21.279 8.007 C 21.020 8.266,21.022 8.249,21.000 10.108 L 20.980 11.796 20.680 11.391 C 20.308 10.889,19.449 9.995,18.914 9.553 C 17.291 8.212,15.432 7.397,13.320 7.101 C 12.769 7.023,11.495 6.991,10.944 7.041 " fill="#000640" stroke="none" fill-rule="evenodd"></path></svg>