<svg xmlns="http://www.w3.org/2000/svg" width="24" height="24" fill="currentColor" class="mmi mmi-curvearrow-leftdown" viewBox="0 0 24 24"><path d="M11.400 7.027 C 9.075 7.189,6.887 8.065,5.086 9.553 C 4.551 9.995,3.692 10.889,3.320 11.391 L 3.020 11.796 3.000 10.108 C 2.978 8.249,2.980 8.266,2.721 8.007 C 2.508 7.794,2.296 7.706,2.000 7.706 C 1.697 7.706,1.484 7.798,1.264 8.024 C 0.987 8.309,0.998 8.138,1.009 12.182 C 1.019 15.590,1.025 15.829,1.092 15.964 C 1.187 16.156,1.379 16.347,1.578 16.450 C 1.902 16.617,1.942 16.608,5.620 15.606 C 7.490 15.097,9.088 14.650,9.171 14.613 C 9.352 14.534,9.584 14.287,9.668 14.087 C 9.747 13.897,9.744 13.536,9.662 13.338 C 9.580 13.141,9.389 12.939,9.180 12.828 C 8.855 12.655,8.689 12.684,6.270 13.347 C 5.066 13.677,4.080 13.940,4.080 13.932 C 4.080 13.875,4.328 13.452,4.595 13.053 C 5.451 11.773,6.604 10.736,7.960 10.027 C 11.035 8.419,14.772 8.734,17.564 10.837 C 19.195 12.065,20.413 13.885,20.936 15.873 C 21.013 16.166,21.121 16.482,21.175 16.576 C 21.487 17.108,22.296 17.190,22.728 16.734 C 22.887 16.566,22.998 16.289,22.999 16.060 C 23.000 15.803,22.768 14.926,22.535 14.305 C 21.110 10.512,17.796 7.771,13.880 7.144 C 13.133 7.025,12.116 6.977,11.400 7.027 " fill="#000640" stroke="none" fill-rule="evenodd"></path></svg>