<svg xmlns="http://www.w3.org/2000/svg" width="24" height="24" fill="currentColor" class="mmi mmi-curvearrow-leftup" viewBox="0 0 24 24"><path d="M21.698 7.011 C 21.264 7.187,21.132 7.380,20.936 8.127 C 20.436 10.031,19.290 11.795,17.764 13.011 C 17.256 13.416,16.649 13.798,16.053 14.087 C 11.943 16.084,7.054 14.707,4.521 10.840 C 4.209 10.364,4.062 10.080,4.127 10.080 C 4.154 10.080,5.169 10.350,6.383 10.680 C 7.669 11.030,8.663 11.280,8.765 11.280 C 9.114 11.279,9.520 10.999,9.664 10.660 C 9.747 10.463,9.749 10.107,9.668 9.913 C 9.584 9.712,9.352 9.466,9.171 9.387 C 9.088 9.351,7.490 8.905,5.620 8.398 C 3.115 7.718,2.161 7.474,1.995 7.473 C 1.610 7.471,1.266 7.685,1.092 8.036 C 1.025 8.171,1.019 8.410,1.009 11.819 C 0.998 15.770,0.991 15.636,1.217 15.933 C 1.273 16.007,1.414 16.119,1.530 16.183 C 2.038 16.463,2.689 16.236,2.930 15.693 C 2.966 15.611,2.985 15.119,3.000 13.892 L 3.020 12.204 3.320 12.609 C 3.697 13.117,4.572 14.026,5.114 14.472 C 8.437 17.206,12.985 17.766,16.868 15.919 C 19.112 14.852,20.984 12.992,22.080 10.740 C 22.561 9.753,23.001 8.412,22.999 7.940 C 22.998 7.583,22.784 7.237,22.461 7.071 C 22.270 6.973,21.870 6.941,21.698 7.011 " fill="#000640" stroke="none" fill-rule="evenodd"></path></svg>