<svg xmlns="http://www.w3.org/2000/svg" width="24" height="24" fill="currentColor" class="mmi mmi-customersupport" viewBox="0 0 24 24"><path d="M11.207 1.043 C 9.717 1.187,8.130 1.834,7.000 2.759 C 6.061 3.527,5.337 4.435,4.817 5.501 C 4.357 6.441,4.114 7.346,4.034 8.420 C 3.997 8.913,4.004 9.116,4.091 10.120 C 4.146 10.747,4.185 11.266,4.179 11.273 C 4.172 11.280,3.744 11.417,3.227 11.577 C 2.710 11.736,2.183 11.919,2.057 11.984 C 1.581 12.224,1.174 12.765,1.059 13.309 C 0.973 13.715,0.975 17.469,1.062 17.836 C 1.147 18.198,1.342 18.541,1.613 18.810 C 1.827 19.020,1.989 19.111,3.493 19.866 L 5.140 20.692 5.232 20.976 C 5.368 21.395,5.612 21.780,5.958 22.120 C 6.429 22.582,6.922 22.839,7.547 22.947 C 7.808 22.992,8.250 23.001,9.632 22.992 L 11.386 22.980 11.581 22.860 C 11.828 22.707,11.961 22.463,11.989 22.109 C 12.017 21.765,11.923 21.445,11.739 21.262 C 11.496 21.019,11.360 21.000,9.843 21.000 L 8.501 21.000 7.830 20.732 L 7.159 20.465 7.099 20.265 C 7.067 20.155,7.040 20.010,7.040 19.942 C 7.040 19.875,7.022 19.757,7.000 19.680 C 6.959 19.538,6.280 12.443,6.280 12.156 L 6.280 12.000 12.019 12.000 L 17.758 12.000 17.740 12.110 C 17.730 12.171,17.556 13.993,17.355 16.160 C 17.038 19.567,16.994 20.129,17.033 20.315 C 17.124 20.751,17.434 20.971,17.967 20.977 L 18.279 20.980 20.215 20.011 C 22.009 19.113,22.168 19.026,22.385 18.811 C 22.666 18.533,22.863 18.179,22.941 17.811 C 23.025 17.417,23.025 13.703,22.941 13.309 C 22.826 12.765,22.419 12.224,21.943 11.984 C 21.817 11.919,21.290 11.736,20.773 11.577 C 20.256 11.417,19.828 11.280,19.821 11.273 C 19.815 11.266,19.854 10.747,19.909 10.120 C 19.998 9.101,20.004 8.918,19.964 8.400 C 19.776 5.912,18.465 3.683,16.380 2.309 C 14.896 1.330,13.011 0.869,11.207 1.043 " stroke="none" fill-rule="evenodd"></path></svg>