<svg xmlns="http://www.w3.org/2000/svg" width="24" height="24" fill="currentColor" class="mmi mmi-datastorage" viewBox="0 0 24 24"><path d="M6.940 2.028 C 6.045 2.156,5.202 2.730,4.749 3.520 C 4.693 3.619,3.825 5.748,2.822 8.251 L 0.997 12.801 1.010 16.171 C 1.025 19.923,1.006 19.660,1.312 20.296 C 1.614 20.924,2.095 21.398,2.740 21.704 C 3.409 22.021,2.760 22.000,12.000 22.000 C 21.240 22.000,20.591 22.021,21.260 21.704 C 21.688 21.501,22.050 21.220,22.330 20.873 C 22.442 20.734,22.610 20.458,22.704 20.260 C 23.002 19.630,23.000 19.661,23.000 16.018 L 23.000 12.804 21.176 8.252 C 20.173 5.748,19.306 3.619,19.250 3.520 C 18.871 2.854,18.197 2.330,17.420 2.095 C 17.194 2.027,16.879 2.022,12.120 2.017 C 9.337 2.014,7.006 2.019,6.940 2.028 M17.129 4.131 C 17.232 4.192,17.364 4.303,17.422 4.379 C 17.479 4.454,18.198 6.195,19.019 8.248 L 20.512 11.980 12.009 11.990 C 7.333 11.996,3.502 11.995,3.496 11.989 C 3.471 11.964,6.479 4.514,6.558 4.402 C 6.663 4.256,6.844 4.124,7.035 4.055 C 7.152 4.013,8.140 4.005,12.060 4.011 L 16.940 4.020 17.129 4.131 M21.000 16.573 C 21.000 19.477,21.008 19.394,20.701 19.701 C 20.376 20.026,21.144 20.000,11.998 20.000 C 3.106 20.000,3.684 20.015,3.374 19.778 C 3.301 19.723,3.192 19.592,3.131 19.489 L 3.020 19.300 3.009 16.650 L 2.998 14.000 11.999 14.000 L 21.000 14.000 21.000 16.573 M13.664 16.063 C 13.436 16.146,13.257 16.297,13.131 16.511 C 13.036 16.672,13.020 16.744,13.020 17.000 C 13.020 17.256,13.036 17.328,13.131 17.489 C 13.470 18.065,14.234 18.168,14.701 17.701 C 14.881 17.521,15.000 17.242,15.000 17.000 C 15.000 16.326,14.295 15.832,13.664 16.063 M17.664 16.063 C 17.436 16.146,17.257 16.297,17.131 16.511 C 17.036 16.672,17.020 16.744,17.020 17.000 C 17.020 17.256,17.036 17.328,17.131 17.489 C 17.470 18.065,18.234 18.168,18.701 17.701 C 18.881 17.521,19.000 17.242,19.000 17.000 C 19.000 16.326,18.295 15.832,17.664 16.063 " fill="#000640" stroke="none" fill-rule="evenodd"></path></svg>