<svg xmlns="http://www.w3.org/2000/svg" width="24" height="24" fill="currentColor" class="mmi mmi-dead-v2" viewBox="0 0 24 24"><path d="M11.200 0.025 C 7.091 0.332,3.508 2.609,1.507 6.186 C 0.775 7.494,0.317 8.899,0.094 10.520 C -0.002 11.214,-0.002 12.786,0.094 13.480 C 0.317 15.101,0.775 16.506,1.507 17.814 C 4.173 22.579,9.604 24.939,14.910 23.637 C 19.156 22.595,22.595 19.156,23.637 14.910 C 24.599 10.992,23.592 6.970,20.896 3.958 C 19.003 1.843,16.397 0.483,13.500 0.099 C 13.032 0.037,11.640 -0.007,11.200 0.025 M12.920 2.043 C 14.827 2.219,16.631 2.940,18.200 4.155 C 18.637 4.493,19.507 5.363,19.845 5.800 C 21.878 8.427,22.517 11.768,21.578 14.865 C 21.082 16.499,20.272 17.850,19.061 19.061 C 18.287 19.836,17.547 20.383,16.623 20.863 C 13.714 22.376,10.286 22.376,7.377 20.863 C 6.454 20.383,5.715 19.837,4.938 19.061 C 3.951 18.075,3.213 16.964,2.722 15.728 C 1.390 12.368,1.921 8.686,4.153 5.800 C 4.491 5.363,5.363 4.491,5.800 4.153 C 7.114 3.137,8.541 2.486,10.125 2.181 C 11.037 2.006,12.003 1.958,12.920 2.043 M5.753 7.055 C 5.268 7.187,4.945 7.691,5.035 8.173 C 5.086 8.446,5.235 8.661,5.677 9.099 L 6.079 9.497 5.621 9.961 C 5.118 10.470,5.002 10.660,5.001 10.980 C 5.000 11.308,5.068 11.473,5.297 11.703 C 5.527 11.932,5.691 11.999,6.022 12.000 C 6.336 12.000,6.560 11.862,7.059 11.362 L 7.497 10.921 7.939 11.356 C 8.459 11.868,8.633 11.970,8.985 11.970 C 9.557 11.970,9.970 11.555,9.970 10.978 C 9.970 10.634,9.865 10.456,9.356 9.939 L 8.921 9.497 9.338 9.082 C 9.846 8.576,9.970 8.368,9.970 8.025 C 9.970 7.741,9.901 7.552,9.723 7.350 C 9.434 7.021,8.934 6.929,8.539 7.132 C 8.421 7.193,8.170 7.406,7.921 7.656 L 7.503 8.079 7.061 7.644 C 6.819 7.406,6.548 7.174,6.460 7.130 C 6.243 7.022,5.978 6.994,5.753 7.055 M14.643 7.069 C 14.291 7.193,14.000 7.614,14.000 8.000 C 14.000 8.332,14.108 8.513,14.606 9.022 L 15.078 9.504 14.656 9.922 C 14.405 10.170,14.193 10.421,14.132 10.539 C 13.929 10.934,14.021 11.434,14.350 11.723 C 14.552 11.901,14.741 11.970,15.025 11.970 C 15.368 11.970,15.576 11.846,16.082 11.338 L 16.497 10.921 16.939 11.356 C 17.459 11.868,17.633 11.970,17.985 11.970 C 18.557 11.970,18.970 11.555,18.970 10.978 C 18.970 10.634,18.865 10.456,18.356 9.939 L 17.921 9.497 18.362 9.059 C 18.862 8.560,19.000 8.336,19.000 8.022 C 18.999 7.691,18.932 7.527,18.703 7.297 C 18.473 7.068,18.309 7.001,17.978 7.000 C 17.664 7.000,17.440 7.138,16.942 7.638 L 16.504 8.078 16.022 7.606 C 15.637 7.228,15.500 7.120,15.343 7.067 C 15.103 6.985,14.878 6.986,14.643 7.069 M6.643 15.069 C 6.291 15.193,6.000 15.614,6.000 16.000 C 6.000 16.242,6.119 16.521,6.299 16.701 C 6.619 17.021,6.217 17.000,12.000 17.000 C 17.783 17.000,17.381 17.021,17.701 16.701 C 18.092 16.310,18.092 15.690,17.701 15.299 C 17.381 14.979,17.786 15.000,11.983 15.003 C 7.414 15.006,6.800 15.013,6.643 15.069 " stroke="none" fill-rule="evenodd"></path></svg>