<svg xmlns="http://www.w3.org/2000/svg" width="24" height="24" fill="currentColor" class="mmi mmi-desktop" viewBox="0 0 24 24"><path d="M3.503 1.041 C 2.810 1.162,2.116 1.574,1.670 2.127 C 1.445 2.407,1.159 2.980,1.074 3.320 C 0.993 3.647,0.993 20.353,1.074 20.680 C 1.159 21.020,1.445 21.593,1.670 21.873 C 1.950 22.220,2.312 22.501,2.740 22.704 C 3.295 22.966,3.551 23.000,5.000 23.000 C 6.449 23.000,6.705 22.966,7.260 22.704 C 7.920 22.391,8.391 21.920,8.704 21.260 C 9.021 20.591,9.000 21.240,9.000 12.000 C 9.000 2.760,9.021 3.409,8.704 2.740 C 8.398 2.095,7.924 1.614,7.296 1.312 C 6.711 1.030,6.698 1.028,5.120 1.017 C 4.339 1.011,3.611 1.022,3.503 1.041 M6.340 3.066 C 6.593 3.153,6.847 3.407,6.934 3.660 C 6.995 3.838,7.000 4.523,7.000 12.000 C 7.000 21.146,7.027 20.376,6.700 20.702 C 6.413 20.989,6.313 21.005,4.933 20.992 C 3.740 20.980,3.737 20.980,3.539 20.878 C 3.313 20.761,3.102 20.509,3.041 20.283 C 3.013 20.178,3.003 17.490,3.010 11.914 L 3.020 3.700 3.131 3.511 C 3.192 3.408,3.304 3.275,3.381 3.217 C 3.645 3.015,3.733 3.004,4.983 3.002 C 5.964 3.000,6.176 3.010,6.340 3.066 M10.643 4.068 C 10.290 4.194,10.000 4.614,10.000 5.000 C 10.000 5.242,10.119 5.521,10.299 5.701 C 10.617 6.020,10.277 6.000,15.500 6.000 C 20.723 6.000,20.383 5.980,20.701 6.299 C 21.020 6.617,21.000 6.277,21.000 11.500 C 21.000 16.723,21.020 16.383,20.701 16.701 C 20.383 17.020,20.723 17.000,15.500 17.000 C 10.277 17.000,10.617 16.980,10.299 17.299 C 9.908 17.690,9.908 18.310,10.299 18.701 C 10.591 18.994,10.638 19.000,12.427 19.000 L 14.000 19.000 14.000 20.000 L 14.000 21.000 12.427 21.000 C 10.638 21.000,10.591 21.006,10.299 21.299 C 10.119 21.479,10.000 21.758,10.000 22.000 C 10.000 22.242,10.119 22.521,10.299 22.701 C 10.613 23.015,10.396 23.000,14.500 23.000 C 18.604 23.000,18.387 23.015,18.701 22.701 C 19.092 22.310,19.092 21.690,18.701 21.299 C 18.423 21.021,18.308 21.000,17.073 21.000 L 16.000 21.000 16.000 20.000 L 16.000 19.000 18.116 19.000 C 20.540 19.000,20.658 18.989,21.260 18.704 C 21.920 18.391,22.391 17.920,22.704 17.260 C 23.011 16.610,23.000 16.833,23.000 11.500 C 23.000 6.167,23.011 6.390,22.704 5.740 C 22.398 5.095,21.924 4.614,21.296 4.312 C 20.647 3.999,21.103 4.024,15.680 4.014 C 11.347 4.006,10.801 4.012,10.643 4.068 M4.664 17.063 C 4.436 17.146,4.257 17.297,4.131 17.511 C 4.036 17.672,4.020 17.744,4.020 18.000 C 4.020 18.256,4.036 18.328,4.131 18.489 C 4.470 19.065,5.234 19.168,5.701 18.701 C 6.092 18.310,6.092 17.690,5.701 17.299 C 5.429 17.027,5.018 16.933,4.664 17.063 " fill="#000640" stroke="none" fill-rule="evenodd"></path></svg>