<svg xmlns="http://www.w3.org/2000/svg" width="24" height="24" fill="currentColor" class="mmi mmi-devide-incircle" viewBox="0 0 24 24"><path d="M11.200 0.025 C 7.091 0.332,3.508 2.609,1.507 6.186 C 0.775 7.494,0.317 8.899,0.094 10.520 C -0.002 11.214,-0.002 12.786,0.094 13.480 C 0.317 15.101,0.775 16.506,1.507 17.814 C 4.173 22.579,9.604 24.939,14.910 23.637 C 19.156 22.595,22.595 19.156,23.637 14.910 C 24.599 10.992,23.592 6.970,20.896 3.958 C 19.003 1.843,16.397 0.483,13.500 0.099 C 13.032 0.037,11.640 -0.007,11.200 0.025 M12.920 2.043 C 14.827 2.219,16.631 2.940,18.200 4.155 C 18.637 4.493,19.507 5.363,19.845 5.800 C 21.878 8.427,22.517 11.768,21.578 14.865 C 21.082 16.499,20.272 17.850,19.061 19.061 C 18.287 19.836,17.547 20.383,16.623 20.863 C 13.714 22.376,10.286 22.376,7.377 20.863 C 6.454 20.383,5.715 19.837,4.938 19.061 C 3.951 18.075,3.213 16.964,2.722 15.728 C 1.390 12.368,1.921 8.686,4.153 5.800 C 4.491 5.363,5.363 4.491,5.800 4.153 C 7.114 3.137,8.541 2.486,10.125 2.181 C 11.037 2.006,12.003 1.958,12.920 2.043 M11.664 7.063 C 11.436 7.146,11.257 7.297,11.131 7.511 C 11.036 7.672,11.020 7.744,11.020 8.000 C 11.020 8.256,11.036 8.328,11.131 8.489 C 11.470 9.065,12.234 9.168,12.701 8.701 C 12.881 8.521,13.000 8.242,13.000 8.000 C 13.000 7.326,12.295 6.832,11.664 7.063 M6.664 11.063 C 6.436 11.146,6.257 11.297,6.131 11.511 C 6.036 11.672,6.020 11.744,6.020 12.000 C 6.020 12.256,6.036 12.328,6.131 12.489 C 6.192 12.592,6.301 12.723,6.374 12.778 C 6.680 13.011,6.390 13.000,11.998 13.000 C 17.783 13.000,17.381 13.021,17.701 12.701 C 18.092 12.310,18.092 11.690,17.701 11.299 C 17.381 10.979,17.786 11.000,11.983 11.003 C 7.607 11.005,6.796 11.014,6.664 11.063 M11.664 15.063 C 11.436 15.146,11.257 15.297,11.131 15.511 C 11.036 15.672,11.020 15.744,11.020 16.000 C 11.020 16.256,11.036 16.328,11.131 16.489 C 11.470 17.065,12.234 17.168,12.701 16.701 C 12.881 16.521,13.000 16.242,13.000 16.000 C 13.000 15.326,12.295 14.832,11.664 15.063 " fill="#000640" stroke="none" fill-rule="evenodd"></path></svg>