<svg xmlns="http://www.w3.org/2000/svg" width="24" height="24" fill="currentColor" class="mmi mmi-devide" viewBox="0 0 24 24"><path d="M11.601 5.064 C 11.044 5.214,10.632 5.671,10.523 6.260 C 10.405 6.900,10.776 7.583,11.400 7.873 C 11.587 7.961,11.676 7.976,12.000 7.976 C 12.324 7.976,12.413 7.961,12.600 7.873 C 13.224 7.583,13.595 6.900,13.477 6.260 C 13.366 5.662,12.954 5.211,12.381 5.062 C 12.091 4.986,11.888 4.987,11.601 5.064 M4.664 11.063 C 4.436 11.146,4.257 11.297,4.131 11.511 C 4.036 11.672,4.020 11.744,4.020 12.000 C 4.020 12.256,4.036 12.328,4.131 12.489 C 4.192 12.592,4.301 12.723,4.374 12.778 C 4.683 13.014,4.201 13.000,11.998 13.000 C 20.023 13.000,19.377 13.025,19.701 12.701 C 20.092 12.310,20.092 11.690,19.701 11.299 C 19.377 10.975,20.026 11.000,11.983 11.003 C 5.871 11.005,4.797 11.014,4.664 11.063 M11.601 16.064 C 11.044 16.214,10.632 16.671,10.523 17.260 C 10.405 17.900,10.776 18.583,11.400 18.873 C 11.587 18.961,11.676 18.976,12.000 18.976 C 12.324 18.976,12.413 18.961,12.600 18.873 C 13.224 18.583,13.595 17.900,13.477 17.260 C 13.366 16.662,12.954 16.211,12.381 16.062 C 12.091 15.986,11.888 15.987,11.601 16.064 " fill="#000640" stroke="none" fill-rule="evenodd"></path></svg>