<svg xmlns="http://www.w3.org/2000/svg" width="24" height="24" fill="currentColor" class="mmi mmi-diagonal-mirror" viewBox="0 0 24 24"><path d="M2.643 2.069 C 2.291 2.193,2.000 2.614,2.000 3.000 C 2.000 3.080,2.029 3.234,2.065 3.343 C 2.125 3.525,2.819 4.230,11.255 12.671 C 17.457 18.876,20.431 21.827,20.540 21.879 C 20.942 22.074,21.370 22.002,21.686 21.686 C 22.002 21.370,22.074 20.942,21.879 20.540 C 21.827 20.431,18.876 17.457,12.671 11.255 C 4.230 2.819,3.525 2.125,3.343 2.065 C 3.101 1.985,2.876 1.987,2.643 2.069 M8.643 3.069 C 8.109 3.257,7.859 3.922,8.119 4.458 C 8.173 4.568,10.005 6.426,13.829 10.247 C 19.339 15.752,19.465 15.875,19.677 15.937 C 19.949 16.016,20.052 16.016,20.317 15.937 C 20.467 15.893,20.578 15.823,20.700 15.698 C 21.023 15.366,21.000 15.836,21.000 9.500 C 21.000 3.157,21.022 3.620,20.701 3.299 C 20.380 2.977,20.846 3.000,14.483 3.003 C 9.461 3.006,8.800 3.013,8.643 3.069 M19.000 8.780 C 19.000 10.859,18.995 12.560,18.990 12.560 C 18.984 12.560,17.279 10.859,15.200 8.780 L 11.420 5.000 15.210 5.000 L 19.000 5.000 19.000 8.780 M3.643 8.069 C 3.546 8.103,3.392 8.206,3.300 8.298 C 2.978 8.620,3.000 8.156,3.000 14.500 C 3.000 20.843,2.978 20.380,3.299 20.701 C 3.620 21.022,3.157 21.000,9.500 21.000 C 15.837 21.000,15.366 21.023,15.698 20.700 C 16.004 20.403,16.076 19.944,15.881 19.542 C 15.827 19.432,13.997 17.577,10.171 13.755 C 4.988 8.577,4.524 8.124,4.343 8.065 C 4.101 7.985,3.876 7.987,3.643 8.069 M8.800 15.220 L 12.580 19.000 8.790 19.000 L 5.000 19.000 5.000 15.220 C 5.000 13.141,5.005 11.440,5.010 11.440 C 5.016 11.440,6.721 13.141,8.800 15.220 " fill="#000640" stroke="none" fill-rule="evenodd"></path></svg>