<svg xmlns="http://www.w3.org/2000/svg" width="24" height="24" fill="currentColor" class="mmi mmi-diamondline" viewBox="0 0 24 24"><path d="M11.640 1.066 C 11.484 1.120,10.763 1.825,6.329 6.255 C 2.587 9.993,1.175 11.428,1.113 11.556 C 0.994 11.800,0.976 12.065,1.060 12.326 C 1.126 12.530,1.356 12.768,6.254 17.671 C 9.993 21.413,11.428 22.825,11.556 22.887 C 11.800 23.006,12.065 23.024,12.326 22.940 C 12.530 22.874,12.768 22.644,17.671 17.746 C 21.413 14.007,22.825 12.572,22.887 12.444 C 23.006 12.200,23.024 11.935,22.940 11.674 C 22.874 11.470,22.644 11.232,17.746 6.329 C 13.948 2.528,12.574 1.176,12.441 1.111 C 12.214 1.001,11.877 0.982,11.640 1.066 M11.000 7.720 L 11.000 11.000 7.710 11.000 L 4.420 11.000 7.700 7.720 C 9.504 5.916,10.984 4.440,10.990 4.440 C 10.995 4.440,11.000 5.916,11.000 7.720 M16.300 7.720 L 19.580 11.000 16.290 11.000 L 13.000 11.000 13.000 7.720 C 13.000 5.916,13.005 4.440,13.010 4.440 C 13.016 4.440,14.496 5.916,16.300 7.720 M11.000 16.280 C 11.000 18.084,10.995 19.560,10.990 19.560 C 10.984 19.560,9.504 18.084,7.700 16.280 L 4.420 13.000 7.710 13.000 L 11.000 13.000 11.000 16.280 M19.560 13.010 C 19.560 13.016,18.084 14.496,16.280 16.300 L 13.000 19.580 13.000 16.290 L 13.000 13.000 16.280 13.000 C 18.084 13.000,19.560 13.005,19.560 13.010 " fill="#000640" stroke="none" fill-rule="evenodd"></path></svg>