<svg xmlns="http://www.w3.org/2000/svg" width="24" height="24" fill="currentColor" class="mmi mmi-diamond" viewBox="0 0 24 24"><path d="M5.694 1.057 C 5.602 1.086,5.470 1.150,5.400 1.200 C 5.251 1.306,1.144 7.443,1.056 7.690 C 0.987 7.887,0.985 8.079,1.049 8.295 C 1.107 8.489,11.122 22.546,11.346 22.748 C 11.709 23.074,12.291 23.074,12.654 22.748 C 12.878 22.546,22.893 8.489,22.951 8.295 C 23.015 8.079,23.013 7.887,22.944 7.690 C 22.857 7.444,18.749 1.306,18.600 1.200 C 18.308 0.992,18.563 1.000,11.984 1.003 C 7.074 1.005,5.827 1.016,5.694 1.057 M8.600 3.030 C 8.600 3.079,7.322 6.896,7.287 6.950 C 7.262 6.990,6.891 6.999,5.567 6.990 L 3.880 6.980 5.207 4.990 L 6.533 3.000 7.566 3.000 C 8.135 3.000,8.600 3.013,8.600 3.030 M13.923 4.950 C 14.280 6.022,14.580 6.923,14.590 6.950 C 14.605 6.990,14.070 7.000,12.000 7.000 C 9.930 7.000,9.395 6.990,9.410 6.950 C 9.420 6.923,9.720 6.022,10.077 4.950 L 10.727 3.000 12.000 3.000 L 13.273 3.000 13.923 4.950 M18.726 4.890 C 19.419 5.930,20.018 6.830,20.058 6.890 L 20.129 7.000 18.428 7.000 L 16.727 7.000 16.077 5.050 C 15.720 3.978,15.420 3.078,15.410 3.050 C 15.395 3.011,15.616 3.000,16.429 3.000 L 17.467 3.000 18.726 4.890 M8.344 12.840 C 8.946 14.941,9.438 16.667,9.439 16.676 C 9.440 16.692,4.048 9.150,3.986 9.050 C 3.961 9.009,4.285 9.001,5.603 9.010 L 7.251 9.020 8.344 12.840 M14.597 9.270 C 14.555 9.418,13.958 11.507,13.272 13.910 C 12.585 16.313,12.013 18.280,12.000 18.280 C 11.987 18.280,11.415 16.313,10.728 13.910 C 10.042 11.507,9.445 9.418,9.403 9.270 L 9.326 9.000 12.000 9.000 L 14.674 9.000 14.597 9.270 M20.014 9.050 C 19.902 9.231,14.552 16.688,14.569 16.640 C 14.580 16.607,15.069 14.897,15.656 12.840 C 16.243 10.783,16.730 9.078,16.740 9.050 C 16.754 9.011,17.122 9.000,18.401 9.000 C 19.706 9.000,20.038 9.010,20.014 9.050 " fill="#000640" stroke="none" fill-rule="evenodd"></path></svg>