<svg xmlns="http://www.w3.org/2000/svg" width="24" height="24" fill="currentColor" class="mmi mmi-digitalcard" viewBox="0 0 24 24"><path d="M10.503 1.042 C 9.486 1.215,8.556 1.976,8.202 2.925 C 8.048 3.337,8.001 3.668,8.001 4.349 L 8.000 4.999 4.869 5.009 L 1.738 5.020 1.539 5.122 C 1.316 5.237,1.104 5.488,1.042 5.711 C 0.985 5.917,0.985 15.083,1.042 15.289 C 1.104 15.512,1.316 15.763,1.539 15.878 L 1.738 15.980 4.869 15.991 L 8.000 16.001 8.000 18.142 C 8.000 19.914,8.011 20.335,8.062 20.581 C 8.310 21.785,9.215 22.690,10.419 22.938 C 10.867 23.031,20.133 23.031,20.581 22.938 C 21.780 22.691,22.691 21.780,22.938 20.581 C 22.993 20.319,23.000 19.300,23.000 12.000 C 23.000 2.925,23.014 3.457,22.766 2.849 C 22.499 2.193,21.964 1.633,21.296 1.312 C 20.646 0.999,21.111 1.023,15.620 1.015 C 12.914 1.012,10.611 1.023,10.503 1.042 M20.340 3.066 C 20.593 3.153,20.847 3.407,20.934 3.660 C 20.995 3.838,21.000 4.523,21.000 12.000 C 21.000 21.144,21.026 20.376,20.701 20.701 C 20.383 21.020,20.723 21.000,15.500 21.000 C 10.277 21.000,10.617 21.020,10.299 20.701 C 9.998 20.400,10.000 20.419,10.000 18.073 L 10.000 16.000 12.573 16.000 C 15.477 16.000,15.394 16.008,15.701 15.701 C 16.020 15.383,16.000 15.723,16.000 10.500 C 16.000 5.277,16.020 5.617,15.701 5.299 C 15.394 4.992,15.477 5.000,12.573 5.000 L 10.000 5.000 10.000 4.427 C 10.000 3.740,10.052 3.546,10.300 3.298 C 10.611 2.987,10.264 3.007,15.483 3.003 C 19.723 3.000,20.163 3.006,20.340 3.066 M14.000 7.500 L 14.000 8.000 8.500 8.000 L 3.000 8.000 3.000 7.500 L 3.000 7.000 8.500 7.000 L 14.000 7.000 14.000 7.500 M14.000 12.000 L 14.000 14.000 8.500 14.000 L 3.000 14.000 3.000 12.000 L 3.000 10.000 8.500 10.000 L 14.000 10.000 14.000 12.000 " fill="#000640" stroke="none" fill-rule="evenodd"></path></svg>