<svg xmlns="http://www.w3.org/2000/svg" width="24" height="24" fill="currentColor" class="mmi mmi-digitalcoin" viewBox="0 0 24 24"><path d="M10.503 1.042 C 9.667 1.184,8.816 1.774,8.401 2.500 C 8.183 2.880,8.002 3.496,8.001 3.864 L 8.000 4.028 7.690 4.052 C 6.978 4.107,6.039 4.367,5.309 4.712 C 3.119 5.747,1.601 7.709,1.110 10.137 C 1.033 10.519,1.021 10.706,1.021 11.500 C 1.021 12.294,1.033 12.481,1.110 12.863 C 1.701 15.782,3.805 18.034,6.621 18.760 C 6.873 18.825,7.246 18.898,7.450 18.923 C 8.072 18.997,8.000 18.903,8.000 19.642 C 8.000 20.064,8.021 20.386,8.062 20.581 C 8.310 21.785,9.215 22.690,10.419 22.938 C 10.867 23.031,20.133 23.031,20.581 22.938 C 21.780 22.691,22.691 21.780,22.938 20.581 C 22.993 20.319,23.000 19.300,23.000 12.000 C 23.000 2.925,23.014 3.457,22.766 2.849 C 22.499 2.193,21.964 1.633,21.296 1.312 C 20.646 0.999,21.111 1.023,15.620 1.015 C 12.914 1.012,10.611 1.023,10.503 1.042 M20.340 3.066 C 20.593 3.153,20.847 3.407,20.934 3.660 C 20.995 3.838,21.000 4.523,21.000 12.000 C 21.000 21.144,21.026 20.376,20.701 20.701 C 20.383 21.020,20.723 21.000,15.500 21.000 C 10.277 21.000,10.617 21.020,10.299 20.701 C 10.045 20.447,10.000 20.266,10.000 19.496 L 10.000 18.847 10.210 18.802 C 10.624 18.713,11.428 18.420,11.860 18.201 C 14.935 16.642,16.559 13.227,15.815 9.885 C 15.195 7.102,13.034 4.885,10.290 4.220 L 10.000 4.149 10.000 4.002 C 10.000 3.758,10.119 3.479,10.300 3.298 C 10.611 2.987,10.264 3.007,15.483 3.003 C 19.723 3.000,20.163 3.006,20.340 3.066 M9.517 6.100 C 10.624 6.315,11.591 6.828,12.382 7.618 C 13.177 8.414,13.682 9.371,13.905 10.505 C 14.002 10.997,14.003 12.012,13.906 12.495 C 13.679 13.635,13.176 14.587,12.382 15.381 C 11.600 16.163,10.648 16.673,9.540 16.904 C 9.035 17.009,7.965 17.009,7.460 16.904 C 6.352 16.673,5.400 16.163,4.618 15.381 C 3.824 14.587,3.320 13.634,3.094 12.495 C 2.997 12.007,2.997 10.993,3.094 10.505 C 3.320 9.366,3.824 8.413,4.618 7.618 C 5.519 6.717,6.613 6.196,7.960 6.025 C 8.236 5.990,9.186 6.036,9.517 6.100 " fill="#000640" stroke="none" fill-rule="evenodd"></path></svg>