<svg xmlns="http://www.w3.org/2000/svg" width="24" height="24" fill="currentColor" class="mmi mmi-direction-twoway" viewBox="0 0 24 24"><path d="M17.758 1.054 C 17.416 1.147,17.160 1.395,17.061 1.729 C 16.984 1.987,16.985 2.054,17.064 2.323 C 17.123 2.521,17.192 2.604,17.852 3.270 L 18.575 4.000 11.898 4.000 C 4.577 4.000,4.810 3.993,4.078 4.238 C 3.409 4.463,2.839 4.813,2.344 5.305 C -0.029 7.662,0.876 11.635,4.040 12.751 C 4.778 13.011,4.435 13.000,11.937 13.001 C 19.531 13.001,19.032 12.983,19.639 13.289 C 20.703 13.824,21.241 15.100,20.884 16.240 C 20.687 16.867,20.208 17.434,19.637 17.716 C 19.026 18.017,19.505 17.999,12.082 17.999 L 5.425 18.000 6.148 17.270 C 6.808 16.604,6.877 16.521,6.936 16.323 C 7.015 16.053,7.016 15.987,6.938 15.725 C 6.764 15.141,6.083 14.852,5.539 15.132 C 5.393 15.207,4.916 15.660,3.735 16.847 C 2.302 18.288,2.124 18.481,2.065 18.657 C 1.983 18.906,1.983 19.094,2.065 19.343 C 2.124 19.519,2.303 19.713,3.755 21.171 C 5.536 22.960,5.586 23.000,6.009 23.000 C 6.295 23.000,6.492 22.922,6.695 22.728 C 6.907 22.525,6.998 22.312,6.998 22.020 C 6.998 21.626,6.915 21.500,6.129 20.710 L 5.423 20.000 12.144 20.000 C 19.557 20.000,19.223 20.011,19.960 19.751 C 20.646 19.509,21.173 19.179,21.676 18.676 C 23.447 16.905,23.438 14.075,21.656 12.305 C 21.161 11.813,20.591 11.463,19.922 11.238 C 19.190 10.993,19.431 11.001,12.020 11.000 C 4.481 10.999,4.975 11.017,4.361 10.714 C 3.556 10.317,3.001 9.415,3.001 8.500 C 3.001 7.583,3.545 6.699,4.362 6.288 C 4.968 5.983,4.486 6.001,11.918 6.001 L 18.575 6.000 17.854 6.730 C 17.088 7.504,17.000 7.636,17.000 8.000 C 17.000 8.563,17.523 9.044,18.078 8.991 C 18.454 8.955,18.541 8.882,20.245 7.171 C 21.698 5.712,21.876 5.519,21.935 5.343 C 22.017 5.094,22.017 4.906,21.935 4.657 C 21.876 4.481,21.699 4.289,20.269 2.853 C 19.211 1.791,18.606 1.213,18.484 1.148 C 18.252 1.024,17.992 0.990,17.758 1.054 " fill="#000640" stroke="none" fill-rule="evenodd"></path></svg>