<svg xmlns="http://www.w3.org/2000/svg" width="24" height="24" fill="currentColor" class="mmi mmi-direction-locationmap" viewBox="0 0 24 24"><path d="M5.433 1.040 C 4.843 1.134,4.221 1.380,3.731 1.712 C 2.955 2.240,2.394 3.037,2.130 3.989 C 2.034 4.337,2.022 4.449,2.022 5.000 C 2.022 5.553,2.034 5.663,2.132 6.017 C 2.475 7.256,3.357 8.252,4.520 8.715 C 6.334 9.437,8.462 8.710,9.444 7.033 C 10.503 5.224,9.985 2.878,8.269 1.712 C 7.917 1.473,7.343 1.214,6.958 1.120 C 6.572 1.026,5.783 0.984,5.433 1.040 M6.383 3.043 C 7.185 3.190,7.839 3.872,7.967 4.695 C 8.153 5.894,7.209 7.000,6.000 7.000 C 5.032 7.000,4.183 6.268,4.033 5.305 C 3.933 4.663,4.132 4.061,4.596 3.596 C 5.085 3.108,5.698 2.918,6.383 3.043 M13.643 4.069 C 13.291 4.193,13.000 4.614,13.000 5.000 C 13.000 5.242,13.119 5.521,13.299 5.701 C 13.605 6.007,13.535 6.000,16.321 6.000 C 18.645 6.000,18.805 6.005,19.096 6.079 C 20.211 6.364,20.999 7.366,20.999 8.500 C 20.999 9.421,20.450 10.315,19.638 10.715 C 19.025 11.017,19.518 10.999,11.980 11.000 C 4.569 11.001,4.810 10.993,4.078 11.238 C 3.400 11.466,2.832 11.817,2.325 12.325 C 1.638 13.012,1.204 13.870,1.060 14.828 C 0.985 15.324,0.985 15.676,1.060 16.172 C 1.204 17.130,1.638 17.988,2.325 18.675 C 2.832 19.183,3.400 19.534,4.078 19.762 C 4.743 19.984,4.973 20.000,7.683 20.000 C 10.464 20.000,10.395 20.007,10.701 19.701 C 10.881 19.521,11.000 19.242,11.000 19.000 C 11.000 18.758,10.881 18.479,10.701 18.299 C 10.396 17.993,10.462 18.000,7.703 17.999 C 4.953 17.999,4.934 17.997,4.362 17.715 C 3.346 17.214,2.796 16.010,3.079 14.904 C 3.312 13.995,3.995 13.312,4.904 13.079 C 5.205 13.002,5.376 13.000,11.996 13.000 C 19.434 13.000,19.190 13.007,19.922 12.762 C 20.600 12.534,21.168 12.183,21.675 11.675 C 22.362 10.988,22.796 10.130,22.940 9.172 C 23.015 8.676,23.015 8.324,22.940 7.828 C 22.796 6.870,22.362 6.012,21.675 5.325 C 20.988 4.638,20.130 4.204,19.172 4.060 C 18.580 3.970,13.900 3.978,13.643 4.069 M14.670 15.577 C 14.296 15.711,14.035 16.074,14.028 16.473 C 14.021 16.902,14.043 16.933,15.114 18.010 L 16.098 19.000 15.114 19.990 C 14.043 21.067,14.021 21.098,14.028 21.527 C 14.040 22.230,14.784 22.687,15.420 22.384 C 15.569 22.313,15.854 22.053,16.540 21.364 C 17.045 20.856,17.478 20.440,17.500 20.440 C 17.522 20.440,17.955 20.856,18.460 21.364 C 19.146 22.053,19.431 22.313,19.580 22.384 C 20.216 22.687,20.960 22.230,20.972 21.527 C 20.979 21.098,20.957 21.067,19.886 19.990 L 18.902 19.000 19.886 18.010 C 20.957 16.933,20.979 16.902,20.972 16.473 C 20.960 15.770,20.216 15.313,19.580 15.616 C 19.431 15.687,19.146 15.947,18.460 16.636 C 17.955 17.144,17.522 17.560,17.500 17.560 C 17.478 17.560,17.045 17.144,16.540 16.636 C 15.535 15.626,15.390 15.520,15.020 15.522 C 14.910 15.523,14.752 15.548,14.670 15.577 " fill="#000640" stroke="none" fill-rule="evenodd"></path></svg>