<svg xmlns="http://www.w3.org/2000/svg" width="24" height="24" fill="currentColor" class="mmi mmi-distribute-horizontalspacing" viewBox="0 0 24 24"><path d="M2.664 1.063 C 2.436 1.146,2.257 1.297,2.131 1.511 L 2.020 1.700 2.010 11.915 C 2.003 18.860,2.013 22.178,2.041 22.283 C 2.101 22.506,2.313 22.761,2.531 22.874 C 2.932 23.080,3.390 23.012,3.700 22.702 C 4.028 22.374,4.000 23.388,4.000 12.000 C 4.000 0.615,4.028 1.626,3.701 1.299 C 3.429 1.027,3.018 0.933,2.664 1.063 M20.664 1.063 C 20.436 1.146,20.257 1.297,20.131 1.511 L 20.020 1.700 20.010 11.915 C 20.003 18.860,20.013 22.178,20.041 22.283 C 20.101 22.506,20.313 22.761,20.531 22.874 C 20.932 23.080,21.390 23.012,21.700 22.702 C 22.028 22.374,22.000 23.388,22.000 12.000 C 22.000 0.615,22.028 1.626,21.701 1.299 C 21.429 1.027,21.018 0.933,20.664 1.063 M6.643 8.069 C 6.546 8.103,6.392 8.206,6.300 8.298 C 5.987 8.611,6.000 8.455,6.000 12.000 C 6.000 15.544,5.987 15.390,6.299 15.701 C 6.619 16.021,6.217 16.000,12.000 16.000 C 17.783 16.000,17.381 16.021,17.701 15.701 C 18.013 15.390,18.000 15.544,18.000 12.000 C 18.000 8.456,18.013 8.610,17.701 8.299 C 17.381 7.979,17.786 8.000,11.983 8.003 C 7.414 8.006,6.800 8.013,6.643 8.069 M16.000 12.000 L 16.000 14.000 12.000 14.000 L 8.000 14.000 8.000 12.000 L 8.000 10.000 12.000 10.000 L 16.000 10.000 16.000 12.000 " fill="#000640" stroke="none" fill-rule="evenodd"></path></svg>