<svg xmlns="http://www.w3.org/2000/svg" width="24" height="24" fill="currentColor" class="mmi mmi-distribute-verticalspacing" viewBox="0 0 24 24"><path d="M1.664 2.063 C 1.436 2.146,1.257 2.297,1.131 2.511 C 1.036 2.672,1.020 2.744,1.020 3.000 C 1.020 3.256,1.036 3.328,1.131 3.489 C 1.260 3.709,1.437 3.854,1.678 3.939 C 1.830 3.993,3.022 4.000,11.998 4.000 C 23.385 4.000,22.374 4.028,22.701 3.701 C 23.092 3.310,23.092 2.690,22.701 2.299 C 22.374 1.972,23.388 2.000,11.983 2.003 C 3.267 2.005,1.798 2.014,1.664 2.063 M8.643 6.069 C 8.546 6.103,8.392 6.206,8.300 6.298 C 7.979 6.619,8.000 6.216,8.000 12.000 C 8.000 17.783,7.979 17.381,8.299 17.701 C 8.610 18.013,8.456 18.000,12.000 18.000 C 15.544 18.000,15.390 18.013,15.701 17.701 C 16.021 17.381,16.000 17.783,16.000 12.000 C 16.000 6.217,16.021 6.619,15.701 6.299 C 15.389 5.987,15.547 6.000,11.983 6.003 C 9.226 6.006,8.797 6.014,8.643 6.069 M14.000 12.000 L 14.000 16.000 12.000 16.000 L 10.000 16.000 10.000 12.000 L 10.000 8.000 12.000 8.000 L 14.000 8.000 14.000 12.000 M1.664 20.063 C 1.436 20.146,1.257 20.297,1.131 20.511 C 1.036 20.672,1.020 20.744,1.020 21.000 C 1.020 21.256,1.036 21.328,1.131 21.489 C 1.260 21.709,1.437 21.854,1.678 21.939 C 1.830 21.993,3.022 22.000,11.998 22.000 C 23.385 22.000,22.374 22.028,22.701 21.701 C 23.092 21.310,23.092 20.690,22.701 20.299 C 22.374 19.972,23.388 20.000,11.983 20.003 C 3.267 20.005,1.798 20.014,1.664 20.063 " fill="#000640" stroke="none" fill-rule="evenodd"></path></svg>