<svg xmlns="http://www.w3.org/2000/svg" width="24" height="24" fill="currentColor" class="mmi mmi-documenttray-filled" viewBox="0 0 24 24"><path d="M5.180 1.025 C 5.136 1.034,5.001 1.061,4.880 1.085 C 3.853 1.291,2.916 2.204,2.660 3.250 C 2.626 3.388,2.238 6.082,1.797 9.238 L 0.996 14.976 1.010 17.758 C 1.026 20.853,1.010 20.669,1.312 21.296 C 1.614 21.924,2.095 22.398,2.740 22.704 C 3.409 23.021,2.760 23.000,12.000 23.000 C 21.240 23.000,20.591 23.021,21.260 22.704 C 21.920 22.391,22.391 21.920,22.704 21.260 C 22.996 20.642,23.000 20.597,23.000 17.590 L 23.000 14.949 22.200 9.225 C 21.760 6.076,21.380 3.410,21.355 3.300 C 21.123 2.273,20.298 1.426,19.204 1.091 C 18.996 1.027,18.480 1.022,12.120 1.015 C 8.347 1.012,5.224 1.016,5.180 1.025 M18.932 3.133 C 19.148 3.260,19.342 3.502,19.398 3.716 C 19.432 3.844,20.840 13.842,20.840 13.954 C 20.840 13.988,20.190 14.000,18.347 14.000 C 15.532 14.000,15.605 13.993,15.298 14.299 C 15.157 14.441,15.109 14.535,14.987 14.913 C 14.806 15.476,14.580 15.864,14.240 16.200 C 13.707 16.726,12.940 16.999,12.000 16.999 C 11.060 16.999,10.293 16.726,9.761 16.201 C 9.414 15.859,9.198 15.487,9.016 14.923 C 8.891 14.535,8.843 14.441,8.702 14.299 C 8.395 13.993,8.468 14.000,5.653 14.000 C 3.767 14.000,3.160 13.989,3.160 13.953 C 3.160 13.884,4.515 4.184,4.564 3.900 C 4.636 3.484,4.872 3.185,5.230 3.057 C 5.354 3.012,6.549 3.005,12.060 3.012 L 18.740 3.020 18.932 3.133 M6.664 6.063 C 6.436 6.146,6.257 6.297,6.131 6.511 C 6.036 6.672,6.020 6.744,6.020 7.000 C 6.020 7.256,6.036 7.328,6.131 7.489 C 6.192 7.592,6.301 7.723,6.374 7.778 C 6.680 8.011,6.390 8.000,11.998 8.000 C 17.783 8.000,17.381 8.021,17.701 7.701 C 18.092 7.310,18.092 6.690,17.701 6.299 C 17.381 5.979,17.786 6.000,11.983 6.003 C 7.607 6.005,6.796 6.014,6.664 6.063 M6.240 10.037 C 6.048 10.096,5.893 10.196,5.752 10.352 C 5.307 10.845,5.480 11.617,6.100 11.906 L 6.300 11.999 12.000 11.999 L 17.700 11.999 17.900 11.906 C 18.672 11.546,18.696 10.510,17.943 10.107 L 17.780 10.020 12.060 10.013 C 8.914 10.009,6.295 10.020,6.240 10.037 M7.415 16.310 C 8.059 17.614,9.174 18.499,10.600 18.839 C 11.694 19.099,13.043 19.020,14.060 18.637 C 15.143 18.230,16.050 17.393,16.585 16.310 L 16.738 16.000 18.869 16.000 L 21.000 16.000 21.000 18.073 C 21.000 20.419,21.002 20.400,20.701 20.701 C 20.376 21.026,21.144 21.000,11.998 21.000 C 3.106 21.000,3.684 21.015,3.374 20.778 C 3.301 20.723,3.192 20.592,3.131 20.489 L 3.020 20.300 3.009 18.150 L 2.997 16.000 5.130 16.000 L 7.262 16.000 7.415 16.310 " fill="#000640" stroke="none" fill-rule="evenodd"></path></svg>