<svg xmlns="http://www.w3.org/2000/svg" width="24" height="24" fill="currentColor" class="mmi mmi-document-paper" viewBox="0 0 24 24"><path d="M3.503 1.042 C 2.553 1.203,1.717 1.847,1.298 2.740 C 1.017 3.338,1.020 3.312,1.020 5.500 C 1.020 7.688,1.017 7.662,1.298 8.260 C 1.606 8.918,2.079 9.391,2.740 9.704 C 3.219 9.931,3.604 10.000,4.383 10.000 L 4.998 10.000 5.010 15.270 C 5.024 21.151,4.998 20.645,5.312 21.296 C 5.614 21.924,6.095 22.398,6.740 22.704 C 7.401 23.017,6.993 23.000,14.000 23.000 C 21.007 23.000,20.599 23.017,21.260 22.704 C 21.920 22.391,22.391 21.920,22.704 21.260 C 22.980 20.676,23.000 20.495,23.000 18.543 C 23.000 16.625,22.996 16.594,22.701 16.299 C 22.454 16.052,22.259 16.000,21.573 16.000 L 21.000 16.000 21.000 9.884 C 21.000 3.007,21.016 3.400,20.704 2.740 C 20.398 2.095,19.924 1.614,19.296 1.312 C 18.636 0.994,19.412 1.023,11.120 1.015 C 7.039 1.012,3.611 1.024,3.503 1.042 M4.340 3.066 C 4.593 3.153,4.847 3.407,4.934 3.660 C 4.992 3.831,5.000 4.103,5.000 5.930 L 5.000 8.006 4.369 7.993 C 3.783 7.981,3.723 7.973,3.539 7.878 C 3.312 7.761,3.102 7.508,3.039 7.278 C 3.011 7.174,3.001 6.533,3.008 5.410 L 3.020 3.700 3.131 3.511 C 3.386 3.077,3.860 2.903,4.340 3.066 M18.340 3.066 C 18.455 3.105,18.603 3.201,18.701 3.299 C 19.023 3.621,19.000 3.106,19.000 9.927 L 19.000 16.000 14.427 16.000 C 9.286 16.000,9.617 15.981,9.299 16.299 C 9.005 16.593,9.000 16.629,9.000 18.500 C 9.000 20.371,8.995 20.407,8.701 20.701 C 8.234 21.168,7.470 21.065,7.131 20.489 L 7.020 20.300 7.000 11.880 C 6.981 4.015,6.975 3.447,6.910 3.260 C 6.872 3.150,6.841 3.046,6.840 3.030 C 6.840 3.014,9.384 3.000,12.493 3.000 C 17.650 3.000,18.163 3.006,18.340 3.066 M9.664 5.063 C 9.436 5.146,9.257 5.297,9.131 5.511 C 9.036 5.672,9.020 5.744,9.020 6.000 C 9.020 6.256,9.036 6.328,9.131 6.489 C 9.192 6.592,9.301 6.723,9.374 6.778 C 9.672 7.006,9.578 7.000,12.998 7.000 C 16.545 7.000,16.390 7.013,16.701 6.701 C 17.092 6.310,17.092 5.690,16.701 5.299 C 16.389 4.987,16.547 5.000,12.983 5.003 C 10.342 5.005,9.794 5.015,9.664 5.063 M9.664 9.063 C 9.436 9.146,9.257 9.297,9.131 9.511 C 9.036 9.672,9.020 9.744,9.020 10.000 C 9.020 10.256,9.036 10.328,9.131 10.489 C 9.192 10.592,9.301 10.723,9.374 10.778 C 9.672 11.006,9.578 11.000,12.998 11.000 C 16.545 11.000,16.390 11.013,16.701 10.701 C 17.092 10.310,17.092 9.690,16.701 9.299 C 16.389 8.987,16.547 9.000,12.983 9.003 C 10.342 9.005,9.794 9.015,9.664 9.063 M21.000 19.073 C 21.000 20.308,20.979 20.423,20.701 20.701 C 20.383 21.020,20.724 21.000,15.493 21.000 C 12.934 21.000,10.840 20.987,10.840 20.970 C 10.841 20.953,10.871 20.850,10.908 20.740 C 10.962 20.575,10.977 20.317,10.990 19.270 L 11.007 18.000 16.003 18.000 L 21.000 18.000 21.000 19.073 " fill="#000640" stroke="none" fill-rule="evenodd"></path></svg>