<svg xmlns="http://www.w3.org/2000/svg" width="24" height="24" fill="currentColor" class="mmi mmi-document-format-v3" viewBox="0 0 24 24"><path d="M5.503 1.042 C 4.487 1.214,3.556 1.976,3.202 2.925 C 3.014 3.427,3.001 3.594,3.001 5.492 C 3.000 7.446,3.014 7.612,3.234 8.151 C 3.521 8.857,4.143 9.479,4.849 9.766 C 5.449 10.011,5.123 10.000,12.000 10.000 C 17.500 10.000,18.321 9.992,18.581 9.938 C 19.780 9.691,20.691 8.780,20.938 7.581 C 21.029 7.145,21.029 3.855,20.938 3.419 C 20.745 2.480,20.156 1.725,19.296 1.312 C 18.639 0.996,19.291 1.023,12.120 1.015 C 8.589 1.012,5.611 1.024,5.503 1.042 M18.340 3.066 C 18.593 3.153,18.847 3.407,18.934 3.660 C 18.991 3.828,19.000 4.073,19.000 5.500 C 19.000 7.371,18.995 7.407,18.701 7.701 C 18.379 8.023,18.903 8.000,12.000 8.000 C 5.097 8.000,5.621 8.023,5.299 7.701 C 5.005 7.407,5.000 7.371,5.000 5.500 C 5.000 3.629,5.005 3.593,5.300 3.298 C 5.614 2.984,5.091 3.007,11.983 3.003 C 17.620 3.000,18.162 3.006,18.340 3.066 M3.643 12.069 C 3.291 12.193,3.000 12.614,3.000 13.000 C 3.000 13.242,3.119 13.521,3.299 13.701 C 3.624 14.026,2.856 14.000,12.000 14.000 C 21.144 14.000,20.376 14.026,20.701 13.701 C 21.092 13.310,21.092 12.690,20.701 12.299 C 20.376 11.973,21.147 12.000,11.983 12.003 C 4.697 12.006,3.801 12.013,3.643 12.069 M3.643 16.069 C 3.291 16.193,3.000 16.614,3.000 17.000 C 3.000 17.242,3.119 17.521,3.299 17.701 C 3.624 18.026,2.856 18.000,12.000 18.000 C 21.144 18.000,20.376 18.026,20.701 17.701 C 21.092 17.310,21.092 16.690,20.701 16.299 C 20.376 15.973,21.147 16.000,11.983 16.003 C 4.697 16.006,3.801 16.013,3.643 16.069 M3.643 20.069 C 3.291 20.193,3.000 20.614,3.000 21.000 C 3.000 21.242,3.119 21.521,3.299 21.701 C 3.616 22.018,3.337 22.000,8.000 22.000 C 12.663 22.000,12.384 22.018,12.701 21.701 C 13.092 21.310,13.092 20.690,12.701 20.299 C 12.384 19.982,12.666 20.000,7.983 20.003 C 4.320 20.006,3.799 20.014,3.643 20.069 " fill="#000640" stroke="none" fill-rule="evenodd"></path></svg>