<svg xmlns="http://www.w3.org/2000/svg" width="24" height="24" fill="currentColor" class="mmi mmi-documenttray-deduct" viewBox="0 0 24 24"><path d="M5.180 1.025 C 5.136 1.034,5.001 1.061,4.880 1.085 C 3.853 1.291,2.916 2.204,2.660 3.250 C 2.626 3.388,2.238 6.082,1.797 9.238 L 0.996 14.976 1.010 17.758 C 1.026 20.853,1.010 20.669,1.312 21.296 C 1.614 21.924,2.095 22.398,2.740 22.704 C 3.409 23.021,2.760 23.000,12.000 23.000 C 21.240 23.000,20.591 23.021,21.260 22.704 C 21.920 22.391,22.391 21.920,22.704 21.260 C 22.996 20.642,23.000 20.597,23.000 17.590 L 23.000 14.949 22.200 9.225 C 21.760 6.076,21.380 3.410,21.355 3.300 C 21.123 2.273,20.298 1.426,19.204 1.091 C 18.996 1.027,18.480 1.022,12.120 1.015 C 8.347 1.012,5.224 1.016,5.180 1.025 M18.932 3.133 C 19.148 3.260,19.342 3.502,19.398 3.716 C 19.432 3.844,20.840 13.842,20.840 13.954 C 20.840 13.988,20.190 14.000,18.347 14.000 C 15.532 14.000,15.605 13.993,15.298 14.299 C 15.157 14.441,15.109 14.535,14.984 14.923 C 14.802 15.487,14.586 15.859,14.239 16.201 C 13.707 16.726,12.940 16.999,12.000 16.999 C 11.060 16.999,10.293 16.726,9.760 16.200 C 9.420 15.864,9.194 15.476,9.013 14.913 C 8.891 14.535,8.843 14.441,8.702 14.299 C 8.395 13.993,8.468 14.000,5.653 14.000 C 3.810 14.000,3.160 13.988,3.160 13.954 C 3.160 13.884,4.561 3.874,4.587 3.760 C 4.626 3.589,4.796 3.327,4.941 3.217 C 5.237 2.991,4.833 3.002,12.060 3.012 L 18.740 3.020 18.932 3.133 M8.664 8.063 C 8.436 8.146,8.257 8.297,8.131 8.511 C 8.036 8.672,8.020 8.744,8.020 9.000 C 8.020 9.256,8.036 9.328,8.131 9.489 C 8.192 9.592,8.301 9.723,8.374 9.778 C 8.672 10.006,8.578 10.000,11.998 10.000 C 15.545 10.000,15.390 10.013,15.701 9.701 C 16.092 9.310,16.092 8.690,15.701 8.299 C 15.389 7.987,15.547 8.000,11.983 8.003 C 9.342 8.005,8.794 8.015,8.664 8.063 M7.415 16.310 C 8.059 17.614,9.174 18.499,10.600 18.839 C 11.694 19.099,13.043 19.020,14.060 18.637 C 15.147 18.228,16.045 17.401,16.584 16.310 L 16.738 16.000 18.869 16.000 L 21.000 16.000 21.000 18.073 C 21.000 20.419,21.002 20.400,20.701 20.701 C 20.376 21.026,21.144 21.000,11.998 21.000 C 3.106 21.000,3.684 21.015,3.374 20.778 C 3.301 20.723,3.192 20.592,3.131 20.489 L 3.020 20.300 3.009 18.150 L 2.997 16.000 5.130 16.000 L 7.262 16.000 7.415 16.310 " fill="#000640" stroke="none" fill-rule="evenodd"></path></svg>