<svg xmlns="http://www.w3.org/2000/svg" width="24" height="24" fill="currentColor" class="mmi mmi-document" viewBox="0 0 24 24"><path d="M4.503 1.042 C 3.818 1.158,3.117 1.573,2.670 2.127 C 2.445 2.407,2.159 2.980,2.074 3.320 C 1.993 3.647,1.993 20.353,2.074 20.680 C 2.159 21.020,2.445 21.593,2.670 21.873 C 2.950 22.220,3.312 22.501,3.740 22.704 C 4.406 23.019,3.877 23.000,12.000 23.000 C 20.123 23.000,19.594 23.019,20.260 22.704 C 20.920 22.391,21.391 21.920,21.704 21.260 C 22.021 20.591,22.000 21.240,22.000 12.000 C 22.000 2.760,22.021 3.409,21.704 2.740 C 21.398 2.095,20.924 1.614,20.296 1.312 C 19.636 0.994,20.412 1.023,12.120 1.015 C 8.039 1.012,4.611 1.024,4.503 1.042 M19.340 3.066 C 19.593 3.153,19.847 3.407,19.934 3.660 C 19.995 3.838,20.000 4.523,20.000 12.000 C 20.000 21.144,20.026 20.376,19.701 20.701 C 19.377 21.025,20.023 21.000,11.998 21.000 C 4.201 21.000,4.683 21.014,4.374 20.778 C 4.301 20.723,4.192 20.592,4.131 20.489 L 4.020 20.300 4.020 12.000 L 4.020 3.700 4.131 3.511 C 4.256 3.298,4.449 3.136,4.670 3.057 C 4.793 3.013,6.104 3.003,11.983 3.002 C 18.548 3.000,19.162 3.006,19.340 3.066 M9.664 5.063 C 9.436 5.146,9.257 5.297,9.131 5.511 C 9.036 5.672,9.020 5.744,9.020 6.000 C 9.020 6.256,9.036 6.328,9.131 6.489 C 9.192 6.592,9.301 6.723,9.374 6.778 C 9.672 7.006,9.578 7.000,12.998 7.000 C 16.545 7.000,16.390 7.013,16.701 6.701 C 17.092 6.310,17.092 5.690,16.701 5.299 C 16.389 4.987,16.547 5.000,12.983 5.003 C 10.342 5.005,9.794 5.015,9.664 5.063 M7.664 9.063 C 7.436 9.146,7.257 9.297,7.131 9.511 C 7.036 9.672,7.020 9.744,7.020 10.000 C 7.020 10.256,7.036 10.328,7.131 10.489 C 7.192 10.592,7.301 10.723,7.374 10.778 C 7.677 11.009,7.484 11.000,11.998 11.000 C 16.663 11.000,16.384 11.018,16.701 10.701 C 17.092 10.310,17.092 9.690,16.701 9.299 C 16.384 8.982,16.666 9.000,11.983 9.003 C 8.474 9.005,7.795 9.015,7.664 9.063 M7.664 13.063 C 7.436 13.146,7.257 13.297,7.131 13.511 C 7.036 13.672,7.020 13.744,7.020 14.000 C 7.020 14.256,7.036 14.328,7.131 14.489 C 7.192 14.592,7.301 14.723,7.374 14.778 C 7.677 15.009,7.484 15.000,11.998 15.000 C 16.663 15.000,16.384 15.018,16.701 14.701 C 17.092 14.310,17.092 13.690,16.701 13.299 C 16.384 12.982,16.666 13.000,11.983 13.003 C 8.474 13.005,7.795 13.015,7.664 13.063 M7.664 17.063 C 7.436 17.146,7.257 17.297,7.131 17.511 C 7.036 17.672,7.020 17.744,7.020 18.000 C 7.020 18.256,7.036 18.328,7.131 18.489 C 7.192 18.592,7.301 18.723,7.374 18.778 C 7.664 19.000,7.670 19.000,9.998 19.000 C 12.428 19.000,12.399 19.003,12.701 18.701 C 13.092 18.310,13.092 17.690,12.701 17.299 C 12.398 16.996,12.430 17.000,9.983 17.003 C 8.210 17.005,7.792 17.016,7.664 17.063 " fill="#000640" stroke="none" fill-rule="evenodd"></path></svg>