<svg xmlns="http://www.w3.org/2000/svg" width="24" height="24" fill="currentColor" class="mmi mmi-document-format" viewBox="0 0 24 24"><path d="M5.503 1.042 C 4.487 1.214,3.556 1.976,3.202 2.925 C 3.000 3.466,3.001 3.437,3.001 7.492 C 3.000 11.634,2.997 11.569,3.234 12.151 C 3.521 12.857,4.143 13.479,4.849 13.766 C 5.449 14.011,5.123 14.000,12.000 14.000 C 17.500 14.000,18.321 13.992,18.581 13.938 C 19.780 13.691,20.691 12.780,20.938 11.581 C 21.031 11.135,21.031 3.865,20.938 3.419 C 20.745 2.480,20.156 1.725,19.296 1.312 C 18.639 0.996,19.291 1.023,12.120 1.015 C 8.589 1.012,5.611 1.024,5.503 1.042 M18.340 3.066 C 18.455 3.105,18.603 3.201,18.701 3.299 C 19.015 3.613,19.000 3.396,19.000 7.500 C 19.000 11.604,19.015 11.387,18.701 11.701 C 18.379 12.023,18.903 12.000,12.000 12.000 C 5.097 12.000,5.621 12.023,5.299 11.701 C 4.985 11.387,5.000 11.604,5.000 7.500 C 5.000 3.395,4.984 3.613,5.300 3.298 C 5.614 2.984,5.091 3.007,11.983 3.003 C 17.620 3.000,18.162 3.006,18.340 3.066 M3.643 16.069 C 3.291 16.193,3.000 16.614,3.000 17.000 C 3.000 17.242,3.119 17.521,3.299 17.701 C 3.624 18.026,2.856 18.000,12.000 18.000 C 21.144 18.000,20.376 18.026,20.701 17.701 C 21.092 17.310,21.092 16.690,20.701 16.299 C 20.376 15.973,21.147 16.000,11.983 16.003 C 4.697 16.006,3.801 16.013,3.643 16.069 M3.643 20.069 C 3.291 20.193,3.000 20.614,3.000 21.000 C 3.000 21.242,3.119 21.521,3.299 21.701 C 3.616 22.018,3.337 22.000,8.000 22.000 C 12.663 22.000,12.384 22.018,12.701 21.701 C 13.092 21.310,13.092 20.690,12.701 20.299 C 12.384 19.982,12.666 20.000,7.983 20.003 C 4.320 20.006,3.799 20.014,3.643 20.069 " fill="#000640" stroke="none" fill-rule="evenodd"></path></svg>