<svg xmlns="http://www.w3.org/2000/svg" width="24" height="24" fill="currentColor" class="mmi mmi-document-v2" viewBox="0 0 24 24"><path d="M4.503 1.042 C 3.818 1.158,3.117 1.573,2.670 2.127 C 2.445 2.407,2.159 2.980,2.074 3.320 C 1.993 3.647,1.993 20.353,2.074 20.680 C 2.159 21.020,2.445 21.593,2.670 21.873 C 2.950 22.220,3.312 22.501,3.740 22.704 C 4.406 23.019,3.877 23.000,12.000 23.000 C 20.123 23.000,19.594 23.019,20.260 22.704 C 20.920 22.391,21.391 21.920,21.704 21.260 C 22.021 20.591,22.000 21.240,22.000 12.000 C 22.000 2.760,22.021 3.409,21.704 2.740 C 21.398 2.095,20.924 1.614,20.296 1.312 C 19.636 0.994,20.412 1.023,12.120 1.015 C 8.039 1.012,4.611 1.024,4.503 1.042 M19.340 3.066 C 19.593 3.153,19.847 3.407,19.934 3.660 C 19.995 3.838,20.000 4.523,20.000 12.000 C 20.000 21.144,20.026 20.376,19.701 20.701 C 19.377 21.025,20.023 21.000,11.998 21.000 C 4.201 21.000,4.683 21.014,4.374 20.778 C 4.301 20.723,4.192 20.592,4.131 20.489 L 4.020 20.300 4.020 12.000 L 4.020 3.700 4.131 3.511 C 4.256 3.298,4.449 3.136,4.670 3.057 C 4.793 3.013,6.104 3.003,11.983 3.002 C 18.548 3.000,19.162 3.006,19.340 3.066 M7.664 5.063 C 7.436 5.146,7.257 5.297,7.131 5.511 L 7.020 5.700 7.020 8.000 L 7.020 10.300 7.131 10.489 C 7.192 10.592,7.301 10.723,7.374 10.778 C 7.669 11.003,7.624 11.000,10.498 11.000 C 13.486 11.000,13.393 11.009,13.701 10.701 C 14.003 10.399,14.000 10.427,14.000 8.000 C 14.000 5.573,14.003 5.601,13.701 5.299 C 13.393 4.991,13.488 5.000,10.483 5.003 C 8.276 5.005,7.793 5.015,7.664 5.063 M12.000 8.000 L 12.000 9.000 10.500 9.000 L 9.000 9.000 9.000 8.000 L 9.000 7.000 10.500 7.000 L 12.000 7.000 12.000 8.000 M7.643 13.069 C 7.291 13.193,7.000 13.614,7.000 14.000 C 7.000 14.242,7.119 14.521,7.299 14.701 C 7.616 15.018,7.337 15.000,12.000 15.000 C 16.663 15.000,16.384 15.018,16.701 14.701 C 17.092 14.310,17.092 13.690,16.701 13.299 C 16.384 12.982,16.666 13.000,11.983 13.003 C 8.320 13.006,7.799 13.014,7.643 13.069 M7.643 17.069 C 7.291 17.193,7.000 17.614,7.000 18.000 C 7.000 18.242,7.119 18.521,7.299 18.701 C 7.616 19.018,7.337 19.000,12.000 19.000 C 16.663 19.000,16.384 19.018,16.701 18.701 C 17.092 18.310,17.092 17.690,16.701 17.299 C 16.384 16.982,16.666 17.000,11.983 17.003 C 8.320 17.006,7.799 17.014,7.643 17.069 " fill="#000640" stroke="none" fill-rule="evenodd"></path></svg>