<svg xmlns="http://www.w3.org/2000/svg" width="24" height="24" fill="currentColor" class="mmi mmi-documenttray-out" viewBox="0 0 24 24"><path d="M5.340 1.025 C 4.906 1.110,4.789 1.142,4.582 1.228 C 3.719 1.589,3.044 2.354,2.821 3.222 C 2.788 3.354,2.364 6.035,1.880 9.180 L 1.000 14.898 1.000 17.591 C 1.000 20.528,1.004 20.586,1.234 21.151 C 1.521 21.857,2.143 22.479,2.849 22.766 C 3.457 23.014,2.925 23.000,12.000 23.000 C 21.073 23.000,20.544 23.013,21.150 22.767 C 21.850 22.482,22.482 21.850,22.767 21.150 C 22.996 20.587,23.000 20.528,23.000 17.591 L 23.000 14.898 22.122 9.192 C 21.639 6.053,21.215 3.375,21.180 3.240 C 20.914 2.212,20.106 1.401,19.044 1.095 C 18.741 1.007,17.000 0.967,16.735 1.042 C 16.486 1.111,16.265 1.282,16.133 1.508 C 16.036 1.673,16.020 1.743,16.020 2.000 C 16.020 2.256,16.036 2.328,16.131 2.489 C 16.192 2.592,16.301 2.723,16.374 2.778 C 16.629 2.972,16.786 3.000,17.655 3.002 C 18.521 3.004,18.649 3.026,18.899 3.217 C 19.224 3.465,19.165 3.170,20.020 8.744 C 20.449 11.536,20.809 13.861,20.821 13.910 L 20.842 14.000 18.346 14.000 C 15.642 14.000,15.667 13.998,15.377 14.220 C 15.199 14.355,15.090 14.545,14.997 14.881 C 14.620 16.242,13.548 16.999,12.000 16.999 C 10.424 16.999,9.424 16.280,8.983 14.827 C 8.894 14.536,8.845 14.443,8.705 14.303 C 8.394 13.992,8.473 14.000,5.652 14.000 L 3.158 14.000 3.179 13.910 C 3.191 13.861,3.551 11.536,3.980 8.744 C 4.835 3.170,4.776 3.465,5.101 3.217 C 5.351 3.026,5.479 3.004,6.343 3.002 C 7.280 3.000,7.437 2.965,7.701 2.701 C 7.881 2.521,8.000 2.242,8.000 2.000 C 8.000 1.604,7.709 1.192,7.340 1.066 C 7.181 1.012,6.990 1.001,6.283 1.005 C 5.808 1.007,5.384 1.016,5.340 1.025 M11.640 1.068 C 11.486 1.121,11.152 1.437,9.329 3.255 C 7.813 4.766,7.173 5.431,7.112 5.556 C 6.853 6.091,7.113 6.748,7.660 6.934 C 7.903 7.017,8.047 7.017,8.323 6.936 C 8.528 6.876,8.609 6.804,9.770 5.648 L 11.000 4.423 11.000 8.284 C 11.000 12.629,10.984 12.386,11.299 12.701 C 11.690 13.092,12.310 13.092,12.701 12.701 C 13.016 12.386,13.000 12.629,13.000 8.284 L 13.000 4.422 14.190 5.607 C 14.978 6.391,15.440 6.822,15.558 6.881 C 15.933 7.068,16.445 6.967,16.723 6.650 C 17.000 6.335,17.055 5.886,16.862 5.531 C 16.786 5.391,16.130 4.710,14.647 3.231 C 12.745 1.335,12.521 1.124,12.343 1.065 C 12.102 0.986,11.878 0.986,11.640 1.068 M7.402 16.290 C 7.810 17.145,8.545 17.928,9.360 18.374 C 10.878 19.205,13.122 19.205,14.640 18.374 C 15.454 17.928,16.221 17.111,16.613 16.270 L 16.739 16.000 18.869 16.000 L 21.000 16.000 21.000 18.073 C 21.000 20.419,21.002 20.400,20.701 20.701 C 20.376 21.026,21.144 21.000,12.000 21.000 C 2.856 21.000,3.624 21.026,3.299 20.701 C 2.998 20.400,3.000 20.419,3.000 18.073 L 3.000 16.000 5.132 16.000 L 7.263 16.000 7.402 16.290 " fill="#000640" stroke="none" fill-rule="evenodd"></path></svg>