<svg xmlns="http://www.w3.org/2000/svg" width="24" height="24" fill="currentColor" class="mmi mmi-documenttray-stack" viewBox="0 0 24 24"><path d="M5.579 1.058 C 4.987 1.166,4.483 1.438,4.019 1.900 C 3.716 2.202,3.626 2.341,2.395 4.400 C 1.678 5.599,1.071 6.641,1.046 6.716 C 1.014 6.812,1.000 7.507,1.000 9.068 C 1.000 11.487,1.010 11.622,1.235 12.161 C 1.435 12.638,1.862 13.175,2.244 13.427 C 2.330 13.484,2.400 13.547,2.400 13.566 C 2.400 13.585,2.111 14.035,1.757 14.565 C 1.403 15.095,1.088 15.601,1.057 15.689 C 0.970 15.936,0.974 20.157,1.062 20.581 C 1.310 21.785,2.215 22.690,3.419 22.938 C 3.681 22.993,4.700 23.000,12.000 23.000 C 19.300 23.000,20.319 22.993,20.581 22.938 C 21.780 22.691,22.691 21.780,22.938 20.581 C 23.026 20.157,23.030 15.936,22.943 15.689 C 22.912 15.601,22.597 15.095,22.243 14.565 C 21.889 14.035,21.600 13.585,21.600 13.566 C 21.600 13.547,21.667 13.486,21.750 13.431 C 22.316 13.054,22.787 12.324,22.937 11.592 C 23.028 11.147,23.031 6.939,22.941 6.682 C 22.908 6.590,22.302 5.548,21.594 4.367 C 20.375 2.335,20.288 2.203,19.983 1.900 C 19.509 1.430,19.013 1.166,18.402 1.057 C 17.971 0.980,6.003 0.981,5.579 1.058 M18.300 3.106 C 18.388 3.154,18.516 3.253,18.584 3.326 C 18.693 3.443,20.200 5.915,20.200 5.976 C 20.200 5.989,19.188 6.001,17.950 6.002 C 15.522 6.004,15.542 6.002,15.257 6.220 C 15.077 6.357,14.983 6.509,14.875 6.840 C 14.705 7.359,14.488 7.714,14.101 8.105 C 13.793 8.415,13.684 8.497,13.360 8.655 C 12.832 8.912,12.556 8.978,12.000 8.978 C 11.444 8.978,11.168 8.912,10.640 8.655 C 10.316 8.497,10.207 8.415,9.899 8.105 C 9.511 7.713,9.295 7.359,9.123 6.833 C 9.011 6.491,8.853 6.274,8.612 6.133 L 8.420 6.020 6.092 6.009 L 3.765 5.998 4.526 4.729 C 4.944 4.031,5.344 3.400,5.413 3.327 C 5.543 3.190,5.701 3.092,5.880 3.037 C 5.935 3.020,8.716 3.009,12.060 3.013 L 18.140 3.020 18.300 3.106 M7.573 8.315 C 8.001 9.192,8.964 10.115,9.891 10.537 C 10.599 10.860,11.166 10.979,12.000 10.979 C 12.834 10.979,13.401 10.860,14.109 10.537 C 15.036 10.115,15.999 9.192,16.427 8.315 L 16.580 8.001 18.790 8.000 L 21.000 8.000 21.000 9.573 C 21.000 11.362,20.994 11.409,20.701 11.701 C 20.376 12.026,21.144 12.000,12.000 12.000 C 2.856 12.000,3.624 12.026,3.299 11.701 C 3.006 11.409,3.000 11.362,3.000 9.573 L 3.000 8.000 5.210 8.000 L 7.420 8.001 7.573 8.315 M19.794 14.490 L 20.119 14.980 17.850 15.000 L 15.580 15.020 15.391 15.131 C 15.132 15.283,15.011 15.458,14.859 15.901 C 14.514 16.905,13.780 17.604,12.760 17.903 C 12.561 17.961,12.378 17.979,11.980 17.977 C 11.509 17.975,11.425 17.964,11.090 17.852 C 10.148 17.538,9.444 16.815,9.123 15.833 C 9.011 15.491,8.853 15.274,8.612 15.133 L 8.420 15.020 6.150 15.000 L 3.881 14.980 4.206 14.490 L 4.532 14.000 12.000 14.000 L 19.468 14.000 19.794 14.490 M7.573 17.315 C 8.001 18.192,8.964 19.115,9.891 19.537 C 10.599 19.860,11.166 19.979,12.000 19.979 C 12.834 19.979,13.401 19.860,14.109 19.537 C 15.036 19.115,15.999 18.192,16.427 17.315 L 16.580 17.001 18.790 17.000 L 21.000 17.000 21.000 18.573 C 21.000 20.362,20.994 20.409,20.701 20.701 C 20.376 21.026,21.144 21.000,12.000 21.000 C 2.856 21.000,3.624 21.026,3.299 20.701 C 3.006 20.409,3.000 20.362,3.000 18.573 L 3.000 17.000 5.210 17.000 L 7.420 17.001 7.573 17.315 " fill="#000640" stroke="none" fill-rule="evenodd"></path></svg>