<svg xmlns="http://www.w3.org/2000/svg" width="24" height="24" fill="currentColor" class="mmi mmi-documenttray-in" viewBox="0 0 24 24"><path d="M5.340 1.025 C 4.906 1.110,4.789 1.142,4.582 1.228 C 3.719 1.589,3.044 2.354,2.821 3.222 C 2.788 3.354,2.364 6.035,1.880 9.180 L 1.000 14.898 1.000 17.591 C 1.000 20.528,1.004 20.586,1.234 21.151 C 1.521 21.857,2.143 22.479,2.849 22.766 C 3.457 23.014,2.925 23.000,12.000 23.000 C 21.073 23.000,20.544 23.013,21.150 22.767 C 21.850 22.482,22.482 21.850,22.767 21.150 C 22.996 20.587,23.000 20.528,23.000 17.591 L 23.000 14.898 22.122 9.192 C 21.639 6.053,21.215 3.375,21.180 3.240 C 20.906 2.183,20.050 1.348,18.960 1.075 C 18.793 1.033,18.387 1.020,17.280 1.020 C 15.863 1.020,15.815 1.023,15.659 1.106 C 15.292 1.303,15.103 1.607,15.103 2.000 C 15.103 2.302,15.195 2.514,15.423 2.735 C 15.680 2.984,15.783 3.000,17.197 3.002 C 18.555 3.004,18.633 3.013,18.899 3.217 C 19.224 3.465,19.165 3.170,20.020 8.744 C 20.449 11.536,20.809 13.861,20.821 13.910 L 20.842 14.000 18.346 14.000 C 15.642 14.000,15.667 13.998,15.377 14.220 C 15.199 14.355,15.090 14.545,14.997 14.881 C 14.620 16.242,13.548 16.999,12.000 16.999 C 10.424 16.999,9.424 16.280,8.983 14.827 C 8.894 14.536,8.845 14.443,8.705 14.303 C 8.394 13.992,8.473 14.000,5.652 14.000 L 3.158 14.000 3.179 13.910 C 3.191 13.861,3.551 11.536,3.980 8.744 C 4.835 3.170,4.776 3.465,5.101 3.217 C 5.367 3.013,5.445 3.004,6.805 3.002 C 8.169 3.000,8.264 2.988,8.534 2.782 C 8.607 2.726,8.719 2.586,8.783 2.470 C 9.091 1.911,8.789 1.214,8.161 1.040 C 8.029 1.003,5.519 0.990,5.340 1.025 M11.643 1.069 C 11.546 1.103,11.392 1.206,11.300 1.298 C 10.983 1.615,11.000 1.370,11.000 5.716 L 11.000 9.577 9.770 8.354 C 8.685 7.276,8.517 7.123,8.343 7.066 C 7.954 6.936,7.577 7.021,7.299 7.299 C 7.021 7.577,6.936 7.953,7.065 8.343 C 7.124 8.521,7.336 8.747,9.255 10.671 C 10.750 12.170,11.431 12.827,11.554 12.886 C 11.797 13.004,12.026 13.021,12.304 12.941 C 12.538 12.874,12.555 12.859,14.671 10.747 C 16.967 8.455,17.000 8.417,17.000 8.022 C 16.999 7.691,16.932 7.527,16.703 7.297 C 16.473 7.068,16.308 7.000,15.980 7.001 C 15.603 7.002,15.509 7.075,14.210 8.371 L 13.000 9.578 13.000 5.716 C 13.000 1.371,13.016 1.614,12.701 1.299 C 12.424 1.021,12.024 0.934,11.643 1.069 M7.402 16.290 C 7.810 17.145,8.545 17.928,9.360 18.374 C 10.878 19.205,13.122 19.205,14.640 18.374 C 15.454 17.928,16.221 17.111,16.613 16.270 L 16.739 16.000 18.869 16.000 L 21.000 16.000 21.000 18.073 C 21.000 20.419,21.002 20.400,20.701 20.701 C 20.376 21.026,21.144 21.000,12.000 21.000 C 2.856 21.000,3.624 21.026,3.299 20.701 C 2.998 20.400,3.000 20.419,3.000 18.073 L 3.000 16.000 5.132 16.000 L 7.263 16.000 7.402 16.290 " fill="#000640" stroke="none" fill-rule="evenodd"></path></svg>