<svg xmlns="http://www.w3.org/2000/svg" width="24" height="24" fill="currentColor" class="mmi mmi-document-check" viewBox="0 0 24 24"><path d="M3.503 1.042 C 2.818 1.158,2.117 1.573,1.670 2.127 C 1.445 2.407,1.159 2.980,1.074 3.320 C 0.993 3.647,0.993 20.353,1.074 20.680 C 1.159 21.020,1.445 21.593,1.670 21.873 C 1.950 22.220,2.312 22.501,2.740 22.704 C 3.406 23.019,2.877 23.000,11.000 23.000 C 19.123 23.000,18.594 23.019,19.260 22.704 C 19.920 22.391,20.391 21.920,20.704 21.260 C 20.979 20.678,21.000 20.492,21.000 18.576 L 21.000 16.921 21.325 16.534 C 22.185 15.512,22.712 14.354,22.925 13.020 C 22.953 12.844,22.976 12.385,22.976 12.000 C 22.976 11.257,22.935 10.905,22.774 10.260 C 22.520 9.247,21.980 8.215,21.284 7.412 L 21.000 7.085 21.000 5.427 C 21.000 3.508,20.980 3.322,20.704 2.740 C 20.398 2.095,19.924 1.614,19.296 1.312 C 18.636 0.994,19.412 1.023,11.120 1.015 C 7.039 1.012,3.611 1.024,3.503 1.042 M18.340 3.066 C 18.593 3.153,18.847 3.407,18.934 3.660 C 18.988 3.818,19.000 4.022,19.000 4.762 L 19.000 5.670 18.622 5.515 C 17.127 4.899,15.349 4.845,13.780 5.369 C 12.661 5.742,11.508 6.506,10.757 7.371 C 8.666 9.781,8.430 13.236,10.177 15.859 C 10.774 16.755,11.449 17.408,12.361 17.971 C 14.206 19.110,16.622 19.309,18.622 18.485 L 19.000 18.330 19.000 19.238 C 19.000 20.291,18.971 20.431,18.701 20.701 C 18.377 21.025,19.023 21.000,10.998 21.000 C 3.201 21.000,3.683 21.014,3.374 20.778 C 3.301 20.723,3.192 20.592,3.131 20.489 L 3.020 20.300 3.020 12.000 L 3.020 3.700 3.131 3.511 C 3.256 3.298,3.449 3.136,3.670 3.057 C 3.793 3.013,5.104 3.003,10.983 3.002 C 17.548 3.000,18.162 3.006,18.340 3.066 M16.994 7.096 C 17.932 7.302,18.734 7.719,19.408 8.352 C 20.149 9.048,20.615 9.851,20.869 10.869 C 20.963 11.247,20.976 11.381,20.978 11.960 C 20.980 12.680,20.940 12.961,20.753 13.539 C 20.344 14.802,19.395 15.904,18.224 16.476 C 17.474 16.842,16.866 16.980,16.000 16.980 C 15.325 16.980,15.027 16.936,14.465 16.754 C 12.943 16.261,11.740 15.059,11.247 13.539 C 11.064 12.973,11.020 12.676,11.020 12.000 C 11.020 11.325,11.064 11.027,11.246 10.465 C 11.552 9.520,12.119 8.707,12.912 8.074 C 13.576 7.544,14.419 7.180,15.301 7.042 C 15.645 6.988,16.647 7.020,16.994 7.096 M18.140 9.581 C 18.052 9.613,17.972 9.639,17.962 9.639 C 17.953 9.640,17.282 10.301,16.472 11.109 L 15.000 12.577 14.310 11.893 C 13.536 11.126,13.394 11.031,13.019 11.028 C 12.273 11.020,11.795 11.783,12.121 12.461 C 12.170 12.562,12.614 13.035,13.329 13.745 C 14.321 14.731,14.484 14.877,14.657 14.934 C 14.906 15.017,15.093 15.017,15.343 14.935 C 15.520 14.876,15.729 14.681,17.411 13.005 C 18.825 11.596,19.307 11.092,19.381 10.942 C 19.555 10.595,19.501 10.172,19.246 9.874 C 18.978 9.561,18.527 9.442,18.140 9.581 " fill="#000640" stroke="none" fill-rule="evenodd"></path></svg>