<svg xmlns="http://www.w3.org/2000/svg" width="24" height="24" fill="currentColor" class="mmi mmi-document-format-v2" viewBox="0 0 24 24"><path d="M5.503 2.042 C 4.487 2.214,3.556 2.976,3.202 3.925 C 3.005 4.452,3.001 4.517,3.001 7.492 C 3.000 10.538,3.003 10.584,3.234 11.151 C 3.521 11.857,4.143 12.479,4.849 12.766 C 5.449 13.011,5.123 13.000,12.000 13.000 C 17.500 13.000,18.321 12.992,18.581 12.938 C 19.780 12.691,20.691 11.780,20.938 10.581 C 21.030 10.138,21.030 4.862,20.938 4.419 C 20.745 3.480,20.156 2.725,19.296 2.312 C 18.639 1.996,19.291 2.023,12.120 2.015 C 8.589 2.012,5.611 2.024,5.503 2.042 M18.340 4.066 C 18.593 4.153,18.847 4.407,18.934 4.660 C 18.993 4.833,19.000 5.142,19.000 7.500 C 19.000 10.486,19.009 10.394,18.701 10.701 C 18.379 11.023,18.903 11.000,12.000 11.000 C 5.097 11.000,5.621 11.023,5.299 10.701 C 4.991 10.394,5.000 10.486,5.000 7.500 C 5.000 4.513,4.991 4.607,5.300 4.298 C 5.614 3.984,5.091 4.007,11.983 4.003 C 17.620 4.000,18.162 4.006,18.340 4.066 M3.643 15.069 C 3.291 15.193,3.000 15.614,3.000 16.000 C 3.000 16.242,3.119 16.521,3.299 16.701 C 3.624 17.026,2.856 17.000,12.000 17.000 C 21.144 17.000,20.376 17.026,20.701 16.701 C 21.092 16.310,21.092 15.690,20.701 15.299 C 20.376 14.973,21.147 15.000,11.983 15.003 C 4.697 15.006,3.801 15.013,3.643 15.069 M3.643 19.069 C 3.291 19.193,3.000 19.614,3.000 20.000 C 3.000 20.242,3.119 20.521,3.299 20.701 C 3.624 21.026,2.856 21.000,12.000 21.000 C 21.144 21.000,20.376 21.026,20.701 20.701 C 21.092 20.310,21.092 19.690,20.701 19.299 C 20.376 18.973,21.147 19.000,11.983 19.003 C 4.697 19.006,3.801 19.013,3.643 19.069 " fill="#000640" stroke="none" fill-rule="evenodd"></path></svg>