<svg xmlns="http://www.w3.org/2000/svg" width="24" height="24" fill="currentColor" class="mmi mmi-documenttray" viewBox="0 0 24 24"><path d="M5.180 1.025 C 5.136 1.034,5.001 1.061,4.880 1.085 C 3.864 1.288,2.927 2.193,2.663 3.226 C 2.628 3.362,2.240 6.046,1.800 9.191 L 1.000 14.910 1.000 17.597 C 1.000 20.528,1.004 20.586,1.234 21.151 C 1.521 21.857,2.143 22.479,2.849 22.766 C 3.457 23.014,2.925 23.000,12.000 23.000 C 21.073 23.000,20.544 23.013,21.150 22.767 C 21.850 22.482,22.482 21.850,22.767 21.150 C 22.996 20.587,23.000 20.527,23.000 17.596 L 23.000 14.909 22.199 9.188 C 21.759 6.042,21.371 3.358,21.337 3.224 C 21.081 2.224,20.276 1.419,19.204 1.091 C 18.996 1.027,18.480 1.022,12.120 1.015 C 8.347 1.012,5.224 1.016,5.180 1.025 M18.770 3.057 C 18.987 3.134,19.183 3.297,19.300 3.497 C 19.394 3.657,19.457 4.065,20.121 8.805 C 20.516 11.629,20.840 13.954,20.840 13.970 C 20.840 13.987,19.717 14.000,18.345 14.000 C 15.642 14.000,15.667 13.998,15.377 14.220 C 15.199 14.355,15.090 14.545,14.997 14.881 C 14.842 15.439,14.478 16.027,14.091 16.342 C 13.004 17.228,10.996 17.228,9.909 16.342 C 9.522 16.027,9.158 15.439,9.003 14.881 C 8.910 14.545,8.801 14.355,8.623 14.220 C 8.333 13.998,8.358 14.000,5.655 14.000 C 4.283 14.000,3.160 13.987,3.160 13.970 C 3.160 13.954,3.484 11.630,3.878 8.807 C 4.544 4.049,4.604 3.661,4.699 3.498 C 4.817 3.297,5.012 3.135,5.230 3.057 C 5.452 2.978,18.548 2.978,18.770 3.057 M7.402 16.290 C 7.810 17.145,8.545 17.928,9.360 18.374 C 10.878 19.205,13.122 19.205,14.640 18.374 C 15.454 17.928,16.221 17.111,16.613 16.270 L 16.739 16.000 18.869 16.000 L 21.000 16.000 21.000 18.073 C 21.000 20.419,21.002 20.400,20.701 20.701 C 20.376 21.026,21.144 21.000,12.000 21.000 C 2.856 21.000,3.624 21.026,3.299 20.701 C 2.998 20.400,3.000 20.419,3.000 18.073 L 3.000 16.000 5.132 16.000 L 7.263 16.000 7.402 16.290 " fill="#000640" stroke="none" fill-rule="evenodd"></path></svg>