<svg xmlns="http://www.w3.org/2000/svg" width="24" height="24" fill="currentColor" class="mmi mmi-document-clipper" viewBox="0 0 24 24"><path d="M16.500 1.085 C 16.101 1.135,15.553 1.297,15.173 1.478 C 14.433 1.830,14.558 1.713,8.907 7.355 C 5.985 10.273,3.482 12.795,3.344 12.960 C 2.667 13.771,2.242 14.670,2.033 15.738 C 1.919 16.315,1.912 17.235,2.017 17.820 C 2.171 18.685,2.568 19.632,3.068 20.328 C 3.353 20.727,3.920 21.304,4.321 21.604 C 5.381 22.399,6.586 22.801,7.907 22.802 C 9.219 22.804,10.348 22.447,11.440 21.687 C 11.778 21.452,17.896 15.357,18.005 15.147 C 18.332 14.518,17.852 13.722,17.145 13.720 C 16.692 13.719,16.882 13.553,13.560 16.860 C 10.241 20.165,10.154 20.243,9.454 20.512 C 8.834 20.751,8.676 20.779,7.940 20.779 C 7.352 20.780,7.214 20.767,6.920 20.687 C 5.788 20.378,4.879 19.631,4.346 18.572 C 3.691 17.270,3.859 15.565,4.759 14.392 C 4.866 14.253,7.344 11.753,10.266 8.835 C 16.090 3.021,15.754 3.330,16.420 3.160 C 16.798 3.063,17.325 3.055,17.662 3.141 C 18.344 3.314,18.990 3.831,19.292 4.445 C 19.668 5.209,19.638 6.100,19.213 6.840 C 19.088 7.056,18.171 7.994,13.825 12.347 C 10.217 15.962,8.530 17.626,8.401 17.695 C 8.140 17.838,7.936 17.862,7.663 17.783 C 7.111 17.622,6.805 17.055,6.980 16.515 C 7.046 16.311,7.205 16.144,10.061 13.280 C 12.981 10.352,13.075 10.253,13.136 10.043 C 13.215 9.773,13.216 9.707,13.138 9.445 C 12.963 8.858,12.265 8.567,11.730 8.858 C 11.442 9.015,5.552 14.928,5.365 15.249 C 4.750 16.302,4.775 17.542,5.431 18.507 C 5.700 18.903,6.142 19.288,6.566 19.496 C 7.086 19.752,7.364 19.818,7.920 19.818 C 8.468 19.818,8.845 19.726,9.340 19.469 C 9.651 19.308,9.812 19.152,15.145 13.822 C 18.825 10.145,20.685 8.258,20.796 8.091 C 21.142 7.571,21.406 6.928,21.523 6.318 C 21.598 5.928,21.588 5.084,21.502 4.680 C 21.093 2.736,19.557 1.319,17.601 1.081 C 17.213 1.034,16.900 1.035,16.500 1.085 " fill="#000640" stroke="none" fill-rule="evenodd"></path></svg>