<svg xmlns="http://www.w3.org/2000/svg" width="24" height="24" fill="currentColor" class="mmi mmi-document-envelope" viewBox="0 0 24 24"><path d="M2.643 1.068 C 2.403 1.154,2.147 1.418,2.065 1.666 C 2.004 1.848,2.000 2.617,2.010 11.202 C 2.023 21.641,1.993 20.633,2.312 21.296 C 2.614 21.924,3.095 22.398,3.740 22.704 C 4.406 23.019,3.877 23.000,12.000 23.000 C 20.123 23.000,19.594 23.019,20.260 22.704 C 20.920 22.391,21.391 21.920,21.704 21.260 C 22.018 20.597,22.000 21.067,22.000 13.485 L 22.000 6.738 22.143 6.661 C 22.357 6.546,22.736 6.118,22.877 5.833 C 23.067 5.446,23.141 5.020,23.085 4.627 C 23.027 4.214,22.941 4.032,22.331 3.042 C 21.906 2.351,21.770 2.165,21.480 1.876 C 21.195 1.590,21.071 1.499,20.758 1.346 C 20.026 0.987,20.993 1.021,11.360 1.013 C 3.695 1.006,2.802 1.012,2.643 1.068 M19.731 3.063 C 19.834 3.098,19.985 3.193,20.069 3.275 C 20.273 3.475,21.126 4.858,21.095 4.938 C 21.074 4.994,20.355 5.000,13.905 4.990 L 6.738 4.980 6.539 4.879 C 6.364 4.790,6.258 4.669,5.669 3.889 L 4.998 3.000 12.272 3.000 C 18.799 3.000,19.565 3.006,19.731 3.063 M4.368 5.490 C 4.554 5.737,4.795 6.029,4.903 6.137 C 5.236 6.470,5.722 6.752,6.236 6.909 C 6.443 6.973,6.964 6.979,13.230 6.990 L 20.000 7.002 20.000 13.574 C 20.000 20.956,20.024 20.378,19.700 20.702 C 19.376 21.026,20.026 21.002,11.938 20.990 L 4.738 20.980 4.539 20.878 C 4.316 20.763,4.104 20.512,4.042 20.289 C 4.003 20.149,3.977 5.040,4.015 5.040 C 4.023 5.040,4.182 5.242,4.368 5.490 M11.664 9.063 C 11.436 9.146,11.257 9.297,11.131 9.511 C 11.036 9.672,11.020 9.744,11.020 10.000 C 11.020 10.256,11.036 10.328,11.131 10.489 C 11.470 11.065,12.234 11.168,12.701 10.701 C 12.881 10.521,13.000 10.242,13.000 10.000 C 13.000 9.326,12.295 8.832,11.664 9.063 " fill="#000640" stroke="none" fill-rule="evenodd"></path></svg>