<svg xmlns="http://www.w3.org/2000/svg" width="24" height="24" fill="currentColor" class="mmi mmi-document-clipped-v2" viewBox="0 0 24 24"><path d="M11.503 0.040 C 10.537 0.215,9.715 0.848,9.298 1.740 C 9.112 2.138,9.057 2.330,9.017 2.727 L 8.989 2.995 7.225 3.010 C 5.266 3.028,5.304 3.023,4.704 3.312 C 4.307 3.502,3.941 3.792,3.670 4.127 C 3.445 4.407,3.159 4.980,3.074 5.320 C 2.994 5.647,2.994 20.353,3.074 20.680 C 3.159 21.020,3.445 21.593,3.670 21.873 C 3.950 22.220,4.312 22.501,4.740 22.704 C 5.401 23.017,4.993 23.000,12.000 23.000 C 19.007 23.000,18.599 23.017,19.260 22.704 C 19.920 22.391,20.391 21.920,20.704 21.260 C 21.019 20.594,21.000 21.123,21.000 13.000 C 21.000 4.877,21.019 5.406,20.704 4.740 C 20.398 4.095,19.924 3.614,19.296 3.312 C 18.696 3.023,18.735 3.028,16.770 3.010 L 15.000 2.995 15.000 2.882 C 15.000 2.379,14.695 1.580,14.330 1.127 C 13.953 0.660,13.336 0.256,12.756 0.097 C 12.491 0.024,11.770 -0.009,11.503 0.040 M12.340 2.066 C 12.593 2.153,12.847 2.407,12.934 2.660 C 13.059 3.027,13.134 3.000,11.995 3.000 L 10.990 3.000 11.017 2.830 C 11.114 2.223,11.740 1.862,12.340 2.066 M18.340 5.066 C 18.455 5.105,18.603 5.201,18.701 5.299 C 19.025 5.623,19.000 4.977,19.000 13.000 C 19.000 21.023,19.025 20.377,18.701 20.701 C 18.379 21.023,18.903 21.000,11.998 21.000 C 5.296 21.000,5.682 21.013,5.374 20.778 C 5.301 20.723,5.192 20.592,5.131 20.489 L 5.020 20.300 5.020 13.000 L 5.020 5.700 5.131 5.511 C 5.256 5.298,5.449 5.136,5.670 5.057 C 5.793 5.013,6.939 5.003,11.983 5.002 C 17.617 5.000,18.162 5.006,18.340 5.066 M7.643 7.069 C 7.546 7.103,7.392 7.206,7.300 7.298 C 6.997 7.601,7.000 7.572,7.000 10.000 C 7.000 12.427,6.997 12.399,7.299 12.701 C 7.616 13.018,7.337 13.000,12.000 13.000 C 16.663 13.000,16.384 13.018,16.701 12.701 C 17.003 12.399,17.000 12.427,17.000 10.000 C 17.000 7.573,17.003 7.601,16.701 7.299 C 16.384 6.982,16.666 7.000,11.983 7.003 C 8.320 7.006,7.799 7.014,7.643 7.069 M15.000 10.000 L 15.000 11.000 12.000 11.000 L 9.000 11.000 9.000 10.000 L 9.000 9.000 12.000 9.000 L 15.000 9.000 15.000 10.000 M7.664 15.063 C 7.436 15.146,7.257 15.297,7.131 15.511 C 7.036 15.672,7.020 15.744,7.020 16.000 C 7.020 16.256,7.036 16.328,7.131 16.489 C 7.192 16.592,7.301 16.723,7.374 16.778 C 7.664 17.000,7.670 17.000,9.998 17.000 C 12.428 17.000,12.399 17.003,12.701 16.701 C 13.092 16.310,13.092 15.690,12.701 15.299 C 12.398 14.996,12.430 15.000,9.983 15.003 C 8.210 15.005,7.792 15.016,7.664 15.063 " fill="#000640" stroke="none" fill-rule="evenodd"></path></svg>