<svg xmlns="http://www.w3.org/2000/svg" width="24" height="24" fill="currentColor" class="mmi mmi-document-paper-v2" viewBox="0 0 24 24"><path d="M3.503 1.042 C 2.817 1.158,2.117 1.573,1.670 2.127 C 1.445 2.407,1.159 2.980,1.074 3.320 C 0.993 3.647,0.993 20.353,1.074 20.680 C 1.159 21.020,1.445 21.593,1.670 21.873 C 1.950 22.220,2.312 22.501,2.740 22.704 C 3.409 23.021,2.760 23.000,12.000 23.000 C 21.240 23.000,20.591 23.021,21.260 22.704 C 21.920 22.391,22.391 21.920,22.704 21.260 C 22.980 20.676,23.000 20.495,23.000 18.543 C 23.000 16.625,22.996 16.594,22.701 16.299 C 22.409 16.006,22.362 16.000,20.573 16.000 L 19.000 16.000 19.000 9.884 C 19.000 3.007,19.016 3.400,18.704 2.740 C 18.398 2.095,17.924 1.614,17.296 1.312 C 16.639 0.996,17.291 1.023,10.120 1.015 C 6.589 1.012,3.611 1.024,3.503 1.042 M16.340 3.066 C 16.455 3.105,16.603 3.201,16.701 3.299 C 17.023 3.621,17.000 3.106,17.000 9.927 L 17.000 16.000 11.427 16.000 C 5.166 16.000,5.620 15.978,5.299 16.299 C 5.005 16.593,5.000 16.629,5.000 18.500 C 5.000 20.371,4.995 20.407,4.700 20.702 C 4.390 21.012,3.932 21.080,3.531 20.874 C 3.312 20.761,3.101 20.506,3.041 20.283 C 3.013 20.178,3.003 17.490,3.010 11.914 L 3.020 3.700 3.131 3.511 C 3.256 3.298,3.449 3.136,3.670 3.057 C 3.793 3.013,4.939 3.003,9.983 3.002 C 15.617 3.000,16.162 3.006,16.340 3.066 M5.664 5.063 C 5.436 5.146,5.257 5.297,5.131 5.511 C 5.036 5.672,5.020 5.744,5.020 6.000 C 5.020 6.256,5.036 6.328,5.131 6.489 C 5.192 6.592,5.301 6.723,5.374 6.778 C 5.677 7.009,5.484 7.000,9.998 7.000 C 14.663 7.000,14.384 7.018,14.701 6.701 C 15.092 6.310,15.092 5.690,14.701 5.299 C 14.384 4.982,14.666 5.000,9.983 5.003 C 6.474 5.005,5.795 5.015,5.664 5.063 M5.664 9.063 C 5.436 9.146,5.257 9.297,5.131 9.511 C 5.036 9.672,5.020 9.744,5.020 10.000 C 5.020 10.256,5.036 10.328,5.131 10.489 C 5.192 10.592,5.301 10.723,5.374 10.778 C 5.677 11.009,5.484 11.000,9.998 11.000 C 14.663 11.000,14.384 11.018,14.701 10.701 C 15.092 10.310,15.092 9.690,14.701 9.299 C 14.384 8.982,14.666 9.000,9.983 9.003 C 6.474 9.005,5.795 9.015,5.664 9.063 M21.000 19.073 C 21.000 20.308,20.979 20.423,20.701 20.701 C 20.378 21.024,20.964 21.000,13.493 21.000 C 9.834 21.000,6.840 20.987,6.840 20.970 C 6.841 20.953,6.871 20.850,6.908 20.740 C 6.962 20.575,6.977 20.317,6.990 19.270 L 7.007 18.000 14.003 18.000 L 21.000 18.000 21.000 19.073 " fill="#000640" stroke="none" fill-rule="evenodd"></path></svg>