<svg xmlns="http://www.w3.org/2000/svg" width="24" height="24" fill="currentColor" class="mmi mmi-dollar" viewBox="0 0 24 24"><path d="M11.664 2.063 C 11.436 2.146,11.257 2.297,11.131 2.511 C 11.023 2.695,11.020 2.720,11.007 3.384 L 10.994 4.067 10.677 4.116 C 10.208 4.187,9.631 4.345,9.180 4.525 C 7.604 5.153,6.542 6.208,6.133 7.549 C 6.038 7.863,6.026 7.964,6.026 8.500 C 6.026 9.036,6.038 9.137,6.133 9.451 C 6.643 11.123,8.238 12.391,10.388 12.836 C 10.612 12.882,10.841 12.920,10.898 12.920 L 11.000 12.920 11.000 15.420 C 11.000 16.855,10.985 17.920,10.964 17.920 C 10.888 17.920,10.169 17.718,9.967 17.641 C 8.805 17.191,8.093 16.435,8.006 15.560 C 7.985 15.353,7.939 15.156,7.888 15.056 C 7.792 14.867,7.565 14.655,7.374 14.575 C 7.204 14.504,6.795 14.504,6.623 14.576 C 6.410 14.665,6.177 14.903,6.079 15.130 C 5.999 15.316,5.992 15.383,6.013 15.720 C 6.133 17.662,7.896 19.321,10.388 19.836 C 10.612 19.882,10.841 19.920,10.898 19.920 L 11.000 19.920 11.000 20.530 C 11.000 21.220,11.030 21.368,11.212 21.607 C 11.570 22.076,12.281 22.121,12.700 21.702 C 12.952 21.450,13.000 21.263,13.000 20.533 L 13.000 19.920 13.102 19.920 C 13.159 19.920,13.388 19.882,13.612 19.836 C 15.762 19.391,17.357 18.123,17.867 16.451 C 17.962 16.137,17.974 16.036,17.974 15.500 C 17.974 14.964,17.962 14.863,17.867 14.549 C 17.458 13.208,16.396 12.153,14.820 11.525 C 14.368 11.345,13.792 11.187,13.319 11.115 L 13.000 11.066 13.000 8.572 L 13.000 6.078 13.110 6.104 C 14.182 6.348,14.816 6.655,15.362 7.196 C 15.765 7.596,15.946 7.951,15.994 8.440 C 16.034 8.836,16.125 9.043,16.352 9.248 C 16.613 9.484,16.989 9.558,17.337 9.442 C 17.557 9.368,17.815 9.115,17.921 8.869 C 18.001 8.684,18.008 8.617,17.987 8.280 C 17.916 7.126,17.239 6.009,16.140 5.232 C 15.358 4.679,14.321 4.268,13.319 4.115 L 13.000 4.066 13.000 3.460 C 13.000 2.738,12.951 2.549,12.701 2.299 C 12.429 2.027,12.018 1.933,11.664 2.063 M11.000 8.500 C 11.000 9.888,10.985 10.920,10.964 10.920 C 10.888 10.920,10.169 10.718,9.967 10.640 C 9.104 10.307,8.481 9.797,8.172 9.172 C 8.030 8.884,8.020 8.841,8.020 8.500 C 8.020 8.158,8.029 8.117,8.176 7.818 C 8.539 7.078,9.442 6.457,10.560 6.180 C 10.769 6.128,10.954 6.084,10.970 6.083 C 10.987 6.081,11.000 7.169,11.000 8.500 M13.527 13.204 C 14.561 13.460,15.472 14.100,15.824 14.818 C 15.971 15.117,15.980 15.158,15.980 15.500 C 15.980 15.841,15.970 15.884,15.829 16.170 C 15.520 16.795,14.894 17.307,14.033 17.641 C 13.831 17.718,13.112 17.920,13.036 17.920 C 13.015 17.920,13.000 16.888,13.000 15.499 L 13.000 13.078 13.110 13.104 C 13.171 13.117,13.358 13.163,13.527 13.204 " fill="#000640" stroke="none" fill-rule="evenodd"></path></svg>