<svg xmlns="http://www.w3.org/2000/svg" width="24" height="24" fill="currentColor" class="mmi mmi-domino" viewBox="0 0 24 24"><path d="M3.503 1.042 C 2.818 1.158,2.117 1.573,1.670 2.127 C 1.445 2.407,1.159 2.980,1.074 3.320 C 0.993 3.647,0.993 20.353,1.074 20.680 C 1.159 21.020,1.445 21.593,1.670 21.873 C 1.950 22.220,2.312 22.501,2.740 22.704 C 3.409 23.021,2.760 23.000,12.000 23.000 C 21.240 23.000,20.591 23.021,21.260 22.704 C 21.920 22.391,22.391 21.920,22.704 21.260 C 23.021 20.591,23.000 21.240,23.000 12.000 C 23.000 2.760,23.021 3.409,22.704 2.740 C 22.398 2.095,21.924 1.614,21.296 1.312 C 20.634 0.993,21.532 1.022,12.120 1.015 C 7.489 1.012,3.611 1.024,3.503 1.042 M20.340 3.066 C 20.593 3.153,20.847 3.407,20.934 3.660 C 20.995 3.838,21.000 4.523,21.000 12.000 C 21.000 21.144,21.026 20.376,20.701 20.701 C 20.376 21.026,21.144 21.000,11.998 21.000 C 3.106 21.000,3.684 21.015,3.374 20.778 C 3.301 20.723,3.192 20.592,3.131 20.489 L 3.020 20.300 3.020 12.000 L 3.020 3.700 3.131 3.511 C 3.256 3.298,3.449 3.136,3.670 3.057 C 3.793 3.013,5.268 3.003,11.983 3.002 C 19.479 3.000,20.162 3.005,20.340 3.066 M6.580 5.047 C 5.859 5.185,5.199 5.848,5.044 6.592 C 4.905 7.257,5.105 7.912,5.596 8.404 C 6.393 9.200,7.607 9.200,8.404 8.404 C 9.200 7.607,9.200 6.393,8.404 5.596 C 7.913 5.106,7.277 4.914,6.580 5.047 M16.580 5.047 C 15.859 5.185,15.199 5.848,15.044 6.592 C 14.789 7.816,15.751 9.000,17.000 9.000 C 18.080 9.000,19.000 8.080,19.000 7.000 C 19.000 6.477,18.790 5.983,18.404 5.596 C 17.913 5.106,17.277 4.914,16.580 5.047 M11.580 10.047 C 10.707 10.214,10.000 11.087,10.000 12.000 C 10.000 12.920,10.690 13.768,11.592 13.956 C 12.816 14.211,14.000 13.249,14.000 12.000 C 14.000 11.477,13.790 10.983,13.404 10.596 C 12.913 10.106,12.277 9.914,11.580 10.047 M6.580 15.047 C 5.859 15.185,5.199 15.848,5.044 16.592 C 4.905 17.257,5.105 17.912,5.596 18.404 C 6.393 19.200,7.607 19.200,8.404 18.404 C 9.200 17.607,9.200 16.393,8.404 15.596 C 7.913 15.106,7.277 14.914,6.580 15.047 M16.580 15.047 C 15.707 15.214,15.000 16.087,15.000 17.000 C 15.000 17.920,15.690 18.768,16.592 18.956 C 17.816 19.211,19.000 18.249,19.000 17.000 C 19.000 16.477,18.790 15.983,18.404 15.596 C 17.913 15.106,17.277 14.914,16.580 15.047 " fill="#000640" stroke="none" fill-rule="evenodd"></path></svg>