<svg xmlns="http://www.w3.org/2000/svg" width="24" height="24" fill="currentColor" class="mmi mmi-dottedcircle" viewBox="0 0 24 24"><path d="M11.665 0.059 C 11.279 0.196,11.000 0.591,11.000 0.997 C 11.002 1.641,11.616 2.128,12.221 1.965 C 12.866 1.791,13.173 1.100,12.860 0.526 C 12.627 0.100,12.114 -0.101,11.665 0.059 M7.819 0.755 C 7.632 0.840,7.425 1.035,7.333 1.214 C 7.238 1.398,7.216 1.826,7.293 2.010 C 7.464 2.419,7.795 2.640,8.235 2.640 C 8.808 2.640,9.214 2.233,9.211 1.660 C 9.209 1.253,9.014 0.939,8.662 0.775 C 8.409 0.657,8.052 0.649,7.819 0.755 M15.377 0.737 C 15.040 0.884,14.761 1.293,14.760 1.643 C 14.760 2.054,15.016 2.443,15.380 2.582 C 15.659 2.689,16.070 2.650,16.288 2.498 C 17.115 1.919,16.740 0.677,15.740 0.682 C 15.608 0.683,15.445 0.707,15.377 0.737 M4.590 2.657 C 4.204 2.795,3.955 3.152,3.953 3.572 C 3.952 3.709,3.977 3.884,4.009 3.961 C 4.330 4.727,5.417 4.762,5.812 4.020 C 5.933 3.794,5.931 3.364,5.810 3.134 C 5.580 2.698,5.053 2.492,4.590 2.657 M18.687 2.661 C 18.347 2.809,18.146 3.056,18.074 3.416 C 18.014 3.713,18.107 4.024,18.325 4.261 C 18.822 4.800,19.738 4.618,19.983 3.930 C 20.108 3.580,20.001 3.121,19.735 2.872 C 19.469 2.624,18.994 2.528,18.687 2.661 M2.145 5.536 C 1.482 5.783,1.266 6.614,1.727 7.139 C 1.955 7.397,2.179 7.492,2.517 7.473 C 2.987 7.447,3.339 7.151,3.444 6.695 C 3.581 6.096,3.164 5.534,2.552 5.495 C 2.393 5.485,2.243 5.500,2.145 5.536 M21.120 5.603 C 20.897 5.704,20.739 5.851,20.628 6.060 C 20.508 6.284,20.509 6.717,20.628 6.940 C 20.815 7.292,21.135 7.488,21.520 7.488 C 21.905 7.488,22.225 7.292,22.412 6.940 C 22.531 6.717,22.532 6.284,22.412 6.060 C 22.234 5.725,21.897 5.522,21.520 5.522 C 21.384 5.522,21.231 5.553,21.120 5.603 M0.933 9.116 C 0.449 9.239,0.122 9.696,0.172 10.181 C 0.244 10.887,0.974 11.289,1.603 10.970 C 2.213 10.660,2.339 9.870,1.855 9.385 C 1.625 9.156,1.231 9.041,0.933 9.116 M22.549 9.135 C 22.131 9.251,21.839 9.647,21.841 10.097 C 21.842 10.409,21.937 10.618,22.172 10.825 C 22.665 11.258,23.412 11.124,23.698 10.549 C 23.831 10.282,23.839 9.906,23.717 9.654 C 23.513 9.231,23.009 9.008,22.549 9.135 M0.760 13.003 C 0.414 13.160,0.210 13.443,0.171 13.821 C 0.130 14.221,0.326 14.583,0.690 14.782 C 1.307 15.118,2.063 14.717,2.147 14.007 C 2.233 13.272,1.438 12.696,0.760 13.003 M22.489 12.968 C 22.301 13.031,22.001 13.309,21.915 13.498 C 21.801 13.749,21.815 14.097,21.950 14.363 C 22.299 15.050,23.235 15.089,23.669 14.433 C 23.769 14.283,23.780 14.231,23.780 13.920 C 23.780 13.604,23.769 13.556,23.659 13.378 C 23.484 13.095,23.237 12.953,22.891 12.936 C 22.742 12.929,22.561 12.943,22.489 12.968 M2.013 16.619 C 1.436 16.911,1.301 17.654,1.735 18.148 C 1.942 18.383,2.151 18.478,2.463 18.479 C 3.462 18.483,3.833 17.206,2.993 16.651 C 2.854 16.559,2.774 16.538,2.523 16.527 C 2.261 16.517,2.192 16.529,2.013 16.619 M21.099 16.593 C 20.771 16.746,20.568 17.029,20.531 17.383 C 20.501 17.675,20.579 17.925,20.766 18.137 C 21.081 18.496,21.539 18.585,21.963 18.370 C 22.647 18.023,22.686 17.083,22.033 16.651 C 21.812 16.504,21.350 16.476,21.099 16.593 M4.520 19.523 C 4.297 19.624,4.139 19.771,4.028 19.980 C 3.908 20.204,3.909 20.637,4.028 20.860 C 4.215 21.212,4.535 21.408,4.920 21.408 C 5.305 21.408,5.625 21.212,5.812 20.860 C 5.931 20.637,5.932 20.204,5.812 19.980 C 5.634 19.645,5.297 19.442,4.920 19.442 C 4.784 19.442,4.631 19.473,4.520 19.523 M18.609 19.542 C 17.868 19.916,17.912 21.029,18.679 21.351 C 18.756 21.383,18.927 21.408,19.059 21.407 C 19.470 21.404,19.766 21.224,19.946 20.868 C 20.033 20.696,20.046 20.626,20.034 20.379 C 20.006 19.825,19.654 19.473,19.104 19.448 C 18.860 19.437,18.790 19.450,18.609 19.542 M7.764 21.465 C 7.538 21.578,7.357 21.788,7.277 22.029 C 7.218 22.208,7.249 22.623,7.334 22.788 C 7.577 23.259,8.170 23.454,8.662 23.225 C 9.014 23.061,9.209 22.747,9.211 22.340 C 9.213 22.063,9.143 21.874,8.963 21.670 C 8.679 21.346,8.176 21.260,7.764 21.465 M15.337 21.434 C 14.692 21.735,14.567 22.607,15.101 23.075 C 15.308 23.258,15.474 23.320,15.749 23.320 C 16.203 23.319,16.579 23.039,16.705 22.608 C 16.827 22.192,16.666 21.766,16.287 21.501 C 16.136 21.396,16.073 21.379,15.807 21.369 C 15.571 21.360,15.462 21.375,15.337 21.434 M11.720 22.035 C 11.106 22.236,10.826 22.883,11.110 23.443 C 11.583 24.374,12.974 24.044,12.974 23.000 C 12.974 22.603,12.788 22.298,12.438 22.119 C 12.253 22.024,11.883 21.981,11.720 22.035 " stroke="none" fill-rule="evenodd"></path></svg>