<svg xmlns="http://www.w3.org/2000/svg" width="24" height="24" fill="currentColor" class="mmi mmi-doublechevron-circle-left" viewBox="0 0 24 24"><path d="M11.200 0.025 C 7.091 0.332,3.508 2.609,1.507 6.186 C 0.775 7.494,0.317 8.899,0.094 10.520 C -0.002 11.214,-0.002 12.786,0.094 13.480 C 0.317 15.101,0.775 16.506,1.507 17.814 C 4.173 22.579,9.604 24.939,14.910 23.637 C 19.156 22.595,22.595 19.156,23.637 14.910 C 24.599 10.992,23.592 6.970,20.896 3.958 C 19.003 1.843,16.397 0.483,13.500 0.099 C 13.032 0.037,11.640 -0.007,11.200 0.025 M12.920 2.043 C 14.827 2.219,16.631 2.940,18.200 4.155 C 18.637 4.493,19.507 5.363,19.845 5.800 C 21.878 8.427,22.517 11.768,21.578 14.865 C 21.082 16.499,20.272 17.850,19.061 19.061 C 18.287 19.836,17.547 20.383,16.623 20.863 C 13.714 22.376,10.286 22.376,7.377 20.863 C 6.454 20.383,5.715 19.837,4.938 19.061 C 3.951 18.075,3.213 16.964,2.722 15.728 C 1.390 12.368,1.921 8.686,4.153 5.800 C 4.491 5.363,5.363 4.491,5.800 4.153 C 7.114 3.137,8.541 2.486,10.125 2.181 C 11.037 2.006,12.003 1.958,12.920 2.043 M10.578 7.099 C 10.427 7.174,9.870 7.709,8.255 9.329 C 6.337 11.253,6.124 11.479,6.065 11.657 C 5.983 11.906,5.983 12.094,6.065 12.343 C 6.124 12.521,6.335 12.745,8.231 14.647 C 9.710 16.130,10.391 16.786,10.531 16.862 C 10.886 17.055,11.335 17.000,11.650 16.723 C 11.967 16.445,12.068 15.933,11.881 15.558 C 11.820 15.436,11.261 14.848,10.107 13.690 L 8.421 12.000 10.129 10.290 C 11.958 8.458,11.998 8.410,11.999 8.020 C 12.000 7.692,11.932 7.527,11.703 7.297 C 11.473 7.068,11.309 7.001,10.978 7.000 C 10.843 7.000,10.710 7.033,10.578 7.099 M15.800 7.037 C 15.723 7.053,15.588 7.104,15.500 7.150 C 15.405 7.200,14.488 8.090,13.235 9.347 C 11.336 11.254,11.124 11.479,11.065 11.657 C 11.029 11.766,11.000 11.920,11.000 12.000 C 11.000 12.080,11.029 12.234,11.065 12.343 C 11.124 12.521,11.335 12.745,13.231 14.647 C 14.710 16.130,15.391 16.786,15.531 16.862 C 15.886 17.055,16.335 17.000,16.650 16.723 C 16.967 16.445,17.068 15.933,16.881 15.558 C 16.820 15.436,16.261 14.848,15.107 13.690 L 13.421 12.000 15.107 10.310 C 16.261 9.152,16.820 8.564,16.881 8.442 C 16.987 8.229,17.001 7.854,16.910 7.637 C 16.732 7.212,16.238 6.945,15.800 7.037 " stroke="none" fill-rule="evenodd"></path></svg>