<svg xmlns="http://www.w3.org/2000/svg" width="24" height="24" fill="currentColor" class="mmi mmi-doublechevron-square-up" viewBox="0 0 24 24"><path d="M3.503 1.042 C 2.818 1.158,2.117 1.573,1.670 2.127 C 1.445 2.407,1.159 2.980,1.074 3.320 C 0.993 3.647,0.993 20.353,1.074 20.680 C 1.159 21.020,1.445 21.593,1.670 21.873 C 1.950 22.220,2.312 22.501,2.740 22.704 C 3.409 23.021,2.760 23.000,12.000 23.000 C 21.240 23.000,20.591 23.021,21.260 22.704 C 21.920 22.391,22.391 21.920,22.704 21.260 C 23.021 20.591,23.000 21.240,23.000 12.000 C 23.000 2.760,23.021 3.409,22.704 2.740 C 22.398 2.095,21.924 1.614,21.296 1.312 C 20.634 0.993,21.532 1.022,12.120 1.015 C 7.489 1.012,3.611 1.024,3.503 1.042 M20.340 3.066 C 20.593 3.153,20.847 3.407,20.934 3.660 C 20.995 3.838,21.000 4.523,21.000 12.000 C 21.000 21.144,21.026 20.376,20.701 20.701 C 20.376 21.026,21.144 21.000,11.998 21.000 C 3.106 21.000,3.684 21.015,3.374 20.778 C 3.301 20.723,3.192 20.592,3.131 20.489 L 3.020 20.300 3.020 12.000 L 3.020 3.700 3.131 3.511 C 3.256 3.298,3.449 3.136,3.670 3.057 C 3.793 3.013,5.268 3.003,11.983 3.002 C 19.479 3.000,20.162 3.005,20.340 3.066 M11.640 6.068 C 11.486 6.121,11.152 6.437,9.329 8.255 C 7.930 9.649,7.171 10.435,7.121 10.540 C 7.000 10.790,6.982 10.999,7.060 11.265 C 7.151 11.581,7.410 11.844,7.717 11.936 C 7.987 12.016,8.052 12.016,8.323 11.936 C 8.531 11.876,8.614 11.799,10.270 10.147 L 12.000 8.422 13.730 10.147 C 15.386 11.799,15.469 11.876,15.677 11.936 C 15.948 12.016,16.013 12.016,16.283 11.936 C 16.590 11.844,16.849 11.581,16.940 11.265 C 17.018 10.999,17.000 10.790,16.879 10.540 C 16.829 10.435,16.070 9.650,14.671 8.255 C 12.747 6.336,12.521 6.124,12.343 6.065 C 12.102 5.986,11.878 5.986,11.640 6.068 M11.640 11.068 C 11.486 11.121,11.152 11.437,9.329 13.255 C 7.032 15.545,7.000 15.583,7.000 15.978 C 7.001 16.309,7.068 16.473,7.297 16.703 C 7.527 16.932,7.692 17.000,8.020 16.999 C 8.410 16.998,8.458 16.958,10.290 15.129 L 12.000 13.421 13.690 15.107 C 14.848 16.261,15.436 16.820,15.558 16.881 C 15.933 17.068,16.445 16.967,16.723 16.650 C 17.000 16.335,17.055 15.886,16.862 15.531 C 16.786 15.391,16.130 14.710,14.647 13.231 C 12.745 11.335,12.521 11.124,12.343 11.065 C 12.102 10.986,11.878 10.986,11.640 11.068 " fill="#000640" stroke="none" fill-rule="evenodd"></path></svg>