<svg xmlns="http://www.w3.org/2000/svg" width="24" height="24" fill="currentColor" class="mmi mmi-doublechevron-left" viewBox="0 0 24 24"><path d="M10.800 4.037 C 10.723 4.053,10.588 4.104,10.500 4.150 C 10.403 4.201,8.929 5.649,6.735 7.847 C 3.439 11.150,3.124 11.477,3.065 11.657 C 2.983 11.906,2.983 12.094,3.065 12.343 C 3.124 12.523,3.439 12.850,6.755 16.171 C 9.179 18.600,10.433 19.828,10.540 19.879 C 10.790 20.000,10.999 20.018,11.265 19.940 C 11.581 19.849,11.844 19.590,11.936 19.283 C 12.016 19.013,12.016 18.949,11.937 18.677 C 11.875 18.466,11.781 18.368,8.647 15.230 L 5.421 12.000 8.647 8.770 C 11.781 5.632,11.875 5.534,11.937 5.323 C 12.015 5.053,12.016 4.987,11.938 4.725 C 11.797 4.252,11.277 3.937,10.800 4.037 M17.800 4.037 C 17.723 4.053,17.588 4.104,17.500 4.150 C 17.403 4.201,15.929 5.649,13.735 7.847 C 10.439 11.150,10.124 11.477,10.065 11.657 C 9.983 11.906,9.983 12.094,10.065 12.343 C 10.124 12.523,10.438 12.848,13.732 16.147 C 16.318 18.737,17.389 19.785,17.531 19.862 C 18.030 20.134,18.686 19.896,18.910 19.363 C 19.001 19.146,18.987 18.771,18.881 18.558 C 18.818 18.432,17.869 17.456,15.606 15.190 L 12.421 12.000 15.606 8.810 C 17.869 6.544,18.818 5.568,18.881 5.442 C 18.987 5.229,19.001 4.854,18.910 4.637 C 18.732 4.212,18.238 3.945,17.800 4.037 " fill="#000640" stroke="none" fill-rule="evenodd"></path></svg>