<svg xmlns="http://www.w3.org/2000/svg" width="24" height="24" fill="currentColor" class="mmi mmi-doublecircle-dottedline" viewBox="0 0 24 24"><path d="M11.665 0.059 C 11.279 0.196,11.000 0.591,11.000 0.997 C 11.002 1.641,11.616 2.128,12.221 1.965 C 12.866 1.791,13.173 1.100,12.860 0.526 C 12.627 0.100,12.114 -0.101,11.665 0.059 M7.819 0.755 C 7.731 0.795,7.600 0.887,7.528 0.958 C 7.311 1.175,7.262 1.304,7.261 1.663 C 7.260 1.953,7.272 2.006,7.381 2.182 C 7.556 2.464,7.813 2.614,8.162 2.633 C 8.490 2.652,8.657 2.601,8.871 2.419 C 9.414 1.954,9.302 1.073,8.662 0.775 C 8.409 0.657,8.052 0.649,7.819 0.755 M15.377 0.737 C 15.040 0.884,14.761 1.293,14.760 1.643 C 14.760 2.054,15.016 2.443,15.380 2.582 C 15.659 2.689,16.070 2.650,16.288 2.498 C 17.115 1.919,16.740 0.677,15.740 0.682 C 15.608 0.683,15.445 0.707,15.377 0.737 M4.733 2.604 C 4.513 2.645,4.367 2.724,4.214 2.887 C 4.005 3.109,3.942 3.269,3.942 3.580 C 3.942 3.891,4.025 4.097,4.226 4.288 C 4.705 4.741,5.500 4.606,5.812 4.020 C 5.931 3.797,5.931 3.364,5.813 3.139 C 5.596 2.729,5.178 2.522,4.733 2.604 M18.847 2.603 C 18.389 2.692,18.082 3.084,18.082 3.580 C 18.082 3.862,18.171 4.084,18.358 4.272 C 18.575 4.489,18.704 4.538,19.063 4.539 C 19.353 4.540,19.406 4.528,19.582 4.419 C 19.871 4.241,20.015 3.985,20.033 3.624 C 20.042 3.429,20.026 3.294,19.983 3.191 C 19.799 2.757,19.324 2.511,18.847 2.603 M11.260 5.044 C 9.116 5.269,7.149 6.513,6.030 8.352 C 4.967 10.097,4.718 12.273,5.360 14.211 C 5.704 15.249,6.422 16.372,7.207 17.098 C 9.729 19.433,13.489 19.632,16.224 17.575 C 17.534 16.591,18.502 15.072,18.841 13.471 C 19.093 12.278,19.020 10.935,18.640 9.789 C 18.481 9.309,18.107 8.548,17.819 8.120 C 16.357 5.946,13.854 4.772,11.260 5.044 M2.058 5.595 C 1.855 5.688,1.589 5.987,1.527 6.192 C 1.381 6.680,1.585 7.169,2.023 7.383 C 2.210 7.475,2.278 7.487,2.533 7.474 C 2.772 7.462,2.859 7.438,2.994 7.349 C 3.646 6.917,3.607 5.977,2.923 5.630 C 2.657 5.495,2.309 5.481,2.058 5.595 M21.098 5.595 C 20.883 5.693,20.623 5.995,20.560 6.221 C 20.500 6.435,20.526 6.779,20.617 6.954 C 20.712 7.138,20.948 7.349,21.142 7.423 C 21.407 7.524,21.821 7.490,22.035 7.348 C 22.686 6.917,22.647 5.977,21.963 5.630 C 21.697 5.495,21.349 5.481,21.098 5.595 M12.994 7.096 C 13.932 7.302,14.734 7.719,15.408 8.352 C 16.149 9.048,16.615 9.851,16.869 10.869 C 16.963 11.247,16.976 11.381,16.978 11.960 C 16.980 12.680,16.940 12.961,16.753 13.539 C 16.344 14.802,15.395 15.904,14.224 16.476 C 13.474 16.842,12.866 16.980,12.000 16.980 C 11.325 16.980,11.027 16.936,10.465 16.754 C 8.943 16.261,7.740 15.059,7.247 13.539 C 7.064 12.973,7.020 12.676,7.020 12.000 C 7.020 11.325,7.064 11.027,7.246 10.465 C 7.552 9.520,8.119 8.707,8.912 8.074 C 9.576 7.544,10.419 7.180,11.301 7.042 C 11.645 6.988,12.647 7.020,12.994 7.096 M0.933 9.116 C 0.449 9.239,0.122 9.696,0.172 10.181 C 0.244 10.887,0.974 11.289,1.603 10.970 C 2.213 10.660,2.339 9.870,1.855 9.385 C 1.625 9.156,1.231 9.041,0.933 9.116 M22.549 9.137 C 22.132 9.249,21.839 9.647,21.841 10.097 C 21.842 10.410,21.937 10.618,22.174 10.826 C 22.634 11.232,23.342 11.135,23.658 10.623 C 23.824 10.355,23.852 9.932,23.721 9.662 C 23.607 9.427,23.355 9.214,23.104 9.139 C 22.869 9.069,22.802 9.069,22.549 9.137 M0.760 13.003 C 0.414 13.160,0.210 13.443,0.171 13.821 C 0.130 14.221,0.326 14.583,0.690 14.782 C 1.307 15.118,2.063 14.717,2.147 14.007 C 2.233 13.272,1.438 12.696,0.760 13.003 M22.496 12.961 C 22.318 13.016,22.001 13.310,21.915 13.498 C 21.801 13.749,21.815 14.097,21.950 14.363 C 22.297 15.047,23.237 15.086,23.669 14.433 C 23.769 14.283,23.780 14.231,23.780 13.920 C 23.780 13.604,23.769 13.556,23.659 13.378 C 23.484 13.096,23.237 12.953,22.891 12.936 C 22.742 12.929,22.564 12.940,22.496 12.961 M2.018 16.575 C 1.654 16.745,1.466 17.044,1.463 17.460 C 1.462 17.783,1.548 17.987,1.784 18.216 C 2.221 18.641,2.976 18.545,3.298 18.023 C 3.397 17.864,3.422 17.775,3.434 17.541 C 3.446 17.295,3.433 17.224,3.347 17.053 C 3.234 16.832,3.016 16.619,2.814 16.535 C 2.607 16.448,2.252 16.466,2.018 16.575 M21.165 16.575 C 20.809 16.704,20.521 17.118,20.521 17.500 C 20.521 17.870,20.790 18.277,21.129 18.418 C 21.313 18.495,21.718 18.499,21.894 18.425 C 22.679 18.097,22.709 16.972,21.943 16.615 C 21.716 16.510,21.392 16.493,21.165 16.575 M4.520 19.523 C 4.297 19.624,4.139 19.771,4.028 19.980 C 3.908 20.204,3.909 20.637,4.028 20.860 C 4.215 21.212,4.535 21.408,4.920 21.408 C 5.305 21.408,5.625 21.212,5.812 20.860 C 5.931 20.637,5.932 20.204,5.812 19.980 C 5.634 19.645,5.297 19.442,4.920 19.442 C 4.784 19.442,4.631 19.473,4.520 19.523 M18.714 19.496 C 18.173 19.689,17.924 20.323,18.176 20.865 C 18.394 21.334,18.974 21.533,19.460 21.306 C 20.261 20.933,20.216 19.793,19.387 19.482 C 19.235 19.425,18.892 19.432,18.714 19.496 M7.764 21.465 C 7.538 21.578,7.357 21.788,7.277 22.029 C 7.218 22.208,7.249 22.623,7.334 22.788 C 7.577 23.259,8.170 23.454,8.662 23.225 C 9.014 23.061,9.209 22.747,9.211 22.340 C 9.213 22.063,9.143 21.874,8.963 21.670 C 8.679 21.346,8.176 21.260,7.764 21.465 M15.337 21.434 C 14.692 21.735,14.567 22.607,15.101 23.075 C 15.308 23.258,15.474 23.320,15.749 23.320 C 16.203 23.319,16.579 23.039,16.705 22.608 C 16.827 22.192,16.666 21.766,16.287 21.501 C 16.136 21.396,16.073 21.379,15.807 21.369 C 15.571 21.360,15.462 21.375,15.337 21.434 M11.720 22.035 C 11.106 22.236,10.826 22.883,11.110 23.443 C 11.583 24.374,12.974 24.044,12.974 23.000 C 12.974 22.603,12.788 22.298,12.438 22.119 C 12.253 22.024,11.883 21.981,11.720 22.035 " stroke="none" fill-rule="evenodd"></path></svg>