<svg xmlns="http://www.w3.org/2000/svg" width="24" height="24" fill="currentColor" class="mmi mmi-doublesricle-dot" viewBox="0 0 24 24"><path d="M11.200 0.025 C 7.091 0.332,3.508 2.609,1.507 6.186 C 0.775 7.494,0.317 8.899,0.094 10.520 C -0.002 11.214,-0.002 12.786,0.094 13.480 C 0.317 15.101,0.775 16.506,1.507 17.814 C 4.173 22.579,9.604 24.939,14.910 23.637 C 19.156 22.595,22.595 19.156,23.637 14.910 C 24.599 10.992,23.592 6.970,20.896 3.958 C 19.003 1.843,16.397 0.483,13.500 0.099 C 13.032 0.037,11.640 -0.007,11.200 0.025 M12.920 2.043 C 14.827 2.219,16.631 2.940,18.200 4.155 C 18.637 4.493,19.507 5.363,19.845 5.800 C 21.878 8.427,22.517 11.768,21.578 14.865 C 21.082 16.499,20.272 17.850,19.061 19.061 C 18.287 19.836,17.547 20.383,16.623 20.863 C 13.714 22.376,10.286 22.376,7.377 20.863 C 6.454 20.383,5.715 19.837,4.938 19.061 C 3.951 18.075,3.213 16.964,2.722 15.728 C 1.390 12.368,1.921 8.686,4.153 5.800 C 4.491 5.363,5.363 4.491,5.800 4.153 C 7.114 3.137,8.541 2.486,10.125 2.181 C 11.037 2.006,12.003 1.958,12.920 2.043 M11.260 5.044 C 9.116 5.269,7.149 6.513,6.030 8.352 C 4.967 10.097,4.718 12.273,5.360 14.211 C 5.704 15.249,6.422 16.372,7.207 17.098 C 9.729 19.433,13.489 19.632,16.224 17.575 C 17.534 16.591,18.502 15.072,18.841 13.471 C 19.093 12.278,19.020 10.935,18.640 9.789 C 18.481 9.309,18.107 8.548,17.819 8.120 C 16.357 5.946,13.854 4.772,11.260 5.044 M12.994 7.096 C 13.932 7.302,14.734 7.719,15.408 8.352 C 16.149 9.048,16.615 9.851,16.869 10.869 C 16.963 11.247,16.976 11.381,16.978 11.960 C 16.980 12.680,16.940 12.961,16.753 13.539 C 16.344 14.802,15.395 15.904,14.224 16.476 C 13.474 16.842,12.866 16.980,12.000 16.980 C 11.325 16.980,11.027 16.936,10.465 16.754 C 8.943 16.261,7.740 15.059,7.247 13.539 C 7.064 12.973,7.020 12.676,7.020 12.000 C 7.020 11.325,7.064 11.027,7.246 10.465 C 7.552 9.520,8.119 8.707,8.912 8.074 C 9.576 7.544,10.419 7.180,11.301 7.042 C 11.645 6.988,12.647 7.020,12.994 7.096 M11.580 10.047 C 11.037 10.151,10.452 10.610,10.207 11.125 C 9.629 12.339,10.374 13.762,11.695 13.967 C 12.782 14.136,13.798 13.392,13.967 12.305 C 14.067 11.663,13.868 11.061,13.404 10.596 C 12.913 10.106,12.277 9.914,11.580 10.047 " stroke="none" fill-rule="evenodd"></path></svg>