<svg xmlns="http://www.w3.org/2000/svg" width="24" height="24" fill="currentColor" class="mmi mmi-doublechevron-circle-up" viewBox="0 0 24 24"><path d="M11.200 0.025 C 7.091 0.332,3.508 2.609,1.507 6.186 C 0.775 7.494,0.317 8.899,0.094 10.520 C -0.002 11.214,-0.002 12.786,0.094 13.480 C 0.317 15.101,0.775 16.506,1.507 17.814 C 4.173 22.579,9.604 24.939,14.910 23.637 C 19.156 22.595,22.595 19.156,23.637 14.910 C 24.599 10.992,23.592 6.970,20.896 3.958 C 19.003 1.843,16.397 0.483,13.500 0.099 C 13.032 0.037,11.640 -0.007,11.200 0.025 M12.920 2.043 C 14.827 2.219,16.631 2.940,18.200 4.155 C 18.637 4.493,19.507 5.363,19.845 5.800 C 21.878 8.427,22.517 11.768,21.578 14.865 C 21.082 16.499,20.272 17.850,19.061 19.061 C 18.287 19.836,17.547 20.383,16.623 20.863 C 13.714 22.376,10.286 22.376,7.377 20.863 C 6.454 20.383,5.715 19.837,4.938 19.061 C 3.951 18.075,3.213 16.964,2.722 15.728 C 1.390 12.368,1.921 8.686,4.153 5.800 C 4.491 5.363,5.363 4.491,5.800 4.153 C 7.114 3.137,8.541 2.486,10.125 2.181 C 11.037 2.006,12.003 1.958,12.920 2.043 M11.640 6.068 C 11.486 6.121,11.153 6.435,9.347 8.235 C 7.036 10.537,7.031 10.544,7.029 10.979 C 7.028 11.257,7.097 11.446,7.277 11.650 C 7.555 11.967,8.067 12.068,8.442 11.881 C 8.564 11.820,9.152 11.261,10.310 10.107 L 12.000 8.421 13.690 10.107 C 14.848 11.261,15.436 11.820,15.558 11.881 C 15.933 12.068,16.445 11.967,16.723 11.650 C 17.000 11.335,17.055 10.886,16.862 10.531 C 16.786 10.391,16.130 9.710,14.647 8.231 C 12.745 6.335,12.521 6.124,12.343 6.065 C 12.102 5.986,11.878 5.986,11.640 6.068 M11.640 11.068 C 11.486 11.121,11.152 11.437,9.329 13.255 C 7.032 15.545,7.000 15.583,7.000 15.978 C 7.001 16.309,7.068 16.473,7.297 16.703 C 7.527 16.932,7.692 17.000,8.020 16.999 C 8.410 16.998,8.458 16.958,10.290 15.129 L 12.000 13.421 13.690 15.107 C 14.848 16.261,15.436 16.820,15.558 16.881 C 15.933 17.068,16.445 16.967,16.723 16.650 C 17.000 16.335,17.055 15.886,16.862 15.531 C 16.786 15.391,16.130 14.710,14.647 13.231 C 12.745 11.335,12.521 11.124,12.343 11.065 C 12.102 10.986,11.878 10.986,11.640 11.068 " stroke="none" fill-rule="evenodd"></path></svg>