<svg xmlns="http://www.w3.org/2000/svg" width="24" height="24" fill="currentColor" class="mmi mmi-doublecircle-v2" viewBox="0 0 24 24"><path d="M11.200 0.025 C 7.091 0.332,3.508 2.609,1.507 6.186 C 0.775 7.494,0.317 8.899,0.094 10.520 C -0.002 11.214,-0.002 12.786,0.094 13.480 C 0.317 15.101,0.775 16.506,1.507 17.814 C 4.173 22.579,9.604 24.939,14.910 23.637 C 19.156 22.595,22.595 19.156,23.637 14.910 C 24.599 10.992,23.592 6.970,20.896 3.958 C 19.003 1.843,16.397 0.483,13.500 0.099 C 13.032 0.037,11.640 -0.007,11.200 0.025 M12.920 2.043 C 14.827 2.219,16.631 2.940,18.200 4.155 C 18.637 4.493,19.507 5.363,19.845 5.800 C 21.878 8.427,22.517 11.768,21.578 14.865 C 21.082 16.499,20.272 17.850,19.061 19.061 C 18.287 19.836,17.547 20.383,16.623 20.863 C 13.714 22.376,10.286 22.376,7.377 20.863 C 6.454 20.383,5.715 19.837,4.938 19.061 C 3.951 18.075,3.213 16.964,2.722 15.728 C 1.390 12.368,1.921 8.686,4.153 5.800 C 4.491 5.363,5.363 4.491,5.800 4.153 C 7.114 3.137,8.541 2.486,10.125 2.181 C 11.037 2.006,12.003 1.958,12.920 2.043 M11.200 4.044 C 9.666 4.191,8.083 4.856,6.881 5.859 C 4.059 8.213,3.206 12.200,4.818 15.500 C 6.429 18.799,10.045 20.569,13.648 19.822 C 16.724 19.184,19.184 16.724,19.822 13.648 C 20.185 11.897,19.961 10.095,19.182 8.500 C 17.710 5.486,14.549 3.721,11.200 4.044 M13.174 6.116 C 15.581 6.626,17.351 8.395,17.887 10.826 C 18.013 11.397,18.013 12.603,17.887 13.174 C 17.351 15.605,15.605 17.351,13.174 17.887 C 12.603 18.013,11.397 18.013,10.826 17.887 C 10.287 17.768,9.783 17.594,9.347 17.376 C 7.665 16.536,6.530 15.059,6.111 13.170 C 5.986 12.605,5.986 11.395,6.111 10.830 C 6.683 8.248,8.661 6.402,11.243 6.041 C 11.674 5.980,12.727 6.022,13.174 6.116 " stroke="none" fill-rule="evenodd"></path></svg>