<svg xmlns="http://www.w3.org/2000/svg" width="24" height="24" fill="currentColor" class="mmi mmi-doublecircle" viewBox="0 0 24 24"><path d="M11.200 0.025 C 7.091 0.332,3.508 2.609,1.507 6.186 C 0.775 7.494,0.317 8.899,0.094 10.520 C -0.002 11.214,-0.002 12.786,0.094 13.480 C 0.317 15.101,0.775 16.506,1.507 17.814 C 4.173 22.579,9.604 24.939,14.910 23.637 C 19.156 22.595,22.595 19.156,23.637 14.910 C 24.599 10.992,23.592 6.970,20.896 3.958 C 19.003 1.843,16.397 0.483,13.500 0.099 C 13.032 0.037,11.640 -0.007,11.200 0.025 M12.920 2.043 C 14.827 2.219,16.631 2.940,18.200 4.155 C 18.637 4.493,19.507 5.363,19.845 5.800 C 21.878 8.427,22.517 11.768,21.578 14.865 C 21.082 16.499,20.272 17.850,19.061 19.061 C 18.287 19.836,17.547 20.383,16.623 20.863 C 13.714 22.376,10.286 22.376,7.377 20.863 C 6.454 20.383,5.715 19.837,4.938 19.061 C 3.951 18.075,3.213 16.964,2.722 15.728 C 1.390 12.368,1.921 8.686,4.153 5.800 C 4.491 5.363,5.363 4.491,5.800 4.153 C 7.114 3.137,8.541 2.486,10.125 2.181 C 11.037 2.006,12.003 1.958,12.920 2.043 M11.200 6.058 C 9.140 6.356,7.476 7.579,6.577 9.455 C 6.182 10.279,6.024 11.009,6.024 12.000 C 6.024 12.991,6.182 13.721,6.577 14.545 C 7.439 16.344,9.016 17.549,10.980 17.909 C 11.468 17.999,12.532 17.999,13.020 17.909 C 14.662 17.608,16.079 16.685,16.986 15.325 C 17.661 14.312,17.975 13.257,17.975 12.000 C 17.975 11.006,17.817 10.279,17.423 9.455 C 16.564 7.663,14.967 6.439,13.041 6.097 C 12.552 6.010,11.660 5.991,11.200 6.058 M13.038 8.138 C 15.074 8.700,16.334 10.728,15.917 12.774 C 15.542 14.618,14.024 15.910,12.140 15.988 C 10.282 16.065,8.639 14.848,8.132 13.017 C 8.034 12.663,8.022 12.553,8.022 12.000 C 8.022 11.449,8.034 11.337,8.130 10.989 C 8.565 9.421,9.764 8.338,11.397 8.038 C 11.498 8.019,11.823 8.011,12.120 8.019 C 12.545 8.031,12.741 8.056,13.038 8.138 " stroke="none" fill-rule="evenodd"></path></svg>