<svg xmlns="http://www.w3.org/2000/svg" width="24" height="24" fill="currentColor" class="mmi mmi-doublearrow-down" viewBox="0 0 24 24"><path d="M4.758 5.054 C 4.409 5.149,4.158 5.397,4.056 5.748 C 3.982 6.001,4.002 6.214,4.121 6.460 C 4.172 6.567,5.400 7.821,7.829 10.245 C 11.150 13.561,11.477 13.876,11.657 13.935 C 11.906 14.017,12.094 14.017,12.343 13.935 C 12.523 13.876,12.850 13.561,16.171 10.245 C 18.600 7.821,19.828 6.567,19.879 6.460 C 20.125 5.951,19.920 5.362,19.410 5.115 C 19.160 4.994,18.805 4.996,18.558 5.119 C 18.431 5.182,17.462 6.124,15.190 8.393 L 12.000 11.580 8.810 8.394 C 6.729 6.315,5.564 5.180,5.460 5.129 C 5.243 5.023,4.977 4.994,4.758 5.054 M4.753 12.055 C 4.115 12.229,3.830 12.952,4.171 13.527 C 4.228 13.622,5.891 15.313,7.867 17.285 C 11.152 20.563,11.477 20.876,11.657 20.935 C 11.904 21.016,12.048 21.017,12.323 20.937 C 12.534 20.875,12.637 20.777,16.147 17.270 C 18.736 14.684,19.785 13.610,19.862 13.469 C 20.134 12.970,19.898 12.318,19.363 12.089 C 19.150 11.998,18.773 12.012,18.558 12.119 C 18.431 12.182,17.462 13.124,15.190 15.393 L 12.000 18.580 8.810 15.394 C 6.729 13.315,5.564 12.180,5.460 12.129 C 5.242 12.022,4.977 11.994,4.753 12.055 " fill="#000640" stroke="none" fill-rule="evenodd"></path></svg>