<svg xmlns="http://www.w3.org/2000/svg" width="24" height="24" fill="currentColor" class="mmi mmi-doublecloud" viewBox="0 0 24 24"><path d="M13.905 3.045 C 12.727 3.197,11.609 3.824,10.876 4.745 L 10.673 5.000 10.435 5.000 C 9.849 5.000,9.077 5.132,8.420 5.346 C 7.036 5.795,5.685 6.887,4.905 8.188 C 4.440 8.964,4.105 10.017,4.019 10.970 C 4.003 11.140,3.973 11.280,3.951 11.280 C 3.930 11.280,3.761 11.351,3.577 11.437 C 2.249 12.059,1.312 13.301,1.054 14.779 C 0.963 15.302,0.998 16.090,1.138 16.620 C 1.593 18.352,3.018 19.647,4.790 19.939 C 5.140 19.997,5.907 20.002,12.180 19.992 L 19.180 19.980 19.563 19.874 C 20.576 19.594,21.323 19.122,21.970 18.351 C 22.401 17.837,22.705 17.222,22.890 16.488 C 23.015 15.992,23.015 15.016,22.889 14.512 C 22.706 13.778,22.403 13.166,21.962 12.639 L 21.724 12.354 21.932 12.170 C 22.243 11.895,22.514 11.538,22.685 11.180 C 22.884 10.764,22.960 10.467,22.988 9.999 C 23.063 8.746,22.350 7.587,21.156 7.022 C 20.702 6.806,20.305 6.721,19.634 6.692 L 19.048 6.668 18.980 6.384 C 18.634 4.942,17.479 3.723,15.999 3.240 C 15.357 3.030,14.585 2.958,13.905 3.045 M15.072 5.062 C 16.245 5.299,17.080 6.257,17.080 7.366 C 17.080 7.976,17.236 8.340,17.587 8.546 L 17.780 8.660 18.900 8.684 C 20.228 8.713,20.293 8.728,20.647 9.081 C 20.828 9.262,20.888 9.355,20.942 9.541 C 21.098 10.079,20.860 10.587,20.329 10.849 L 20.062 10.980 18.521 10.980 L 16.980 10.980 16.949 10.700 C 16.906 10.306,16.747 9.670,16.577 9.211 C 16.022 7.712,14.834 6.396,13.404 5.697 C 13.183 5.588,13.002 5.487,13.001 5.471 C 12.999 5.418,13.658 5.127,13.880 5.084 C 14.001 5.060,14.136 5.034,14.180 5.025 C 14.371 4.987,14.787 5.005,15.072 5.062 M11.172 7.060 C 13.029 7.339,14.512 8.740,14.901 10.582 C 14.938 10.760,14.980 11.211,14.995 11.602 C 15.022 12.270,15.028 12.313,15.132 12.491 C 15.193 12.593,15.301 12.723,15.374 12.778 C 15.653 12.991,15.733 13.000,17.295 13.001 C 18.951 13.001,19.107 13.021,19.639 13.289 C 20.703 13.824,21.241 15.100,20.884 16.240 C 20.687 16.867,20.208 17.434,19.637 17.716 C 19.026 18.017,19.517 17.999,11.976 17.999 C 5.375 18.000,5.205 17.998,4.904 17.921 C 3.720 17.618,2.941 16.555,3.013 15.340 C 3.081 14.198,3.870 13.311,5.058 13.040 C 5.516 12.936,5.724 12.799,5.878 12.501 C 5.972 12.318,5.982 12.247,6.006 11.601 C 6.034 10.840,6.099 10.449,6.282 9.948 C 6.668 8.891,7.490 7.974,8.511 7.464 C 9.289 7.074,10.274 6.924,11.172 7.060 " fill="#000640" stroke="none" fill-rule="evenodd"></path></svg>