<svg xmlns="http://www.w3.org/2000/svg" width="24" height="24" fill="currentColor" class="mmi mmi-doublechevron-circle-right" viewBox="0 0 24 24"><path d="M11.200 0.025 C 7.091 0.332,3.508 2.609,1.507 6.186 C 0.775 7.494,0.317 8.899,0.094 10.520 C -0.002 11.214,-0.002 12.786,0.094 13.480 C 0.317 15.101,0.775 16.506,1.507 17.814 C 4.173 22.579,9.604 24.939,14.910 23.637 C 19.156 22.595,22.595 19.156,23.637 14.910 C 24.599 10.992,23.592 6.970,20.896 3.958 C 19.003 1.843,16.397 0.483,13.500 0.099 C 13.032 0.037,11.640 -0.007,11.200 0.025 M12.920 2.043 C 14.827 2.219,16.631 2.940,18.200 4.155 C 18.637 4.493,19.507 5.363,19.845 5.800 C 21.878 8.427,22.517 11.768,21.578 14.865 C 21.082 16.499,20.272 17.850,19.061 19.061 C 18.287 19.836,17.547 20.383,16.623 20.863 C 13.714 22.376,10.286 22.376,7.377 20.863 C 6.454 20.383,5.715 19.837,4.938 19.061 C 3.951 18.075,3.213 16.964,2.722 15.728 C 1.390 12.368,1.921 8.686,4.153 5.800 C 4.491 5.363,5.363 4.491,5.800 4.153 C 7.114 3.137,8.541 2.486,10.125 2.181 C 11.037 2.006,12.003 1.958,12.920 2.043 M7.645 7.046 C 7.456 7.100,7.098 7.468,7.044 7.664 C 6.977 7.904,6.993 8.200,7.083 8.400 C 7.144 8.535,7.588 9.005,8.871 10.290 L 10.579 12.000 8.871 13.710 C 7.042 15.542,7.002 15.590,7.001 15.980 C 7.000 16.308,7.068 16.473,7.297 16.703 C 7.527 16.932,7.691 16.999,8.022 17.000 C 8.417 17.000,8.455 16.968,10.745 14.671 C 12.663 12.747,12.876 12.521,12.935 12.343 C 13.017 12.094,13.017 11.906,12.935 11.657 C 12.876 11.479,12.663 11.253,10.745 9.329 C 8.430 7.008,8.418 6.997,8.002 7.004 C 7.880 7.006,7.719 7.025,7.645 7.046 M12.753 7.055 C 12.148 7.220,11.850 7.890,12.130 8.460 C 12.179 8.561,12.830 9.243,13.894 10.310 L 15.579 12.000 13.893 13.690 C 12.732 14.854,12.180 15.436,12.119 15.558 C 11.873 16.052,12.119 16.693,12.637 16.910 C 12.874 17.009,13.237 16.988,13.469 16.862 C 13.609 16.786,14.290 16.130,15.769 14.647 C 17.665 12.745,17.876 12.521,17.935 12.343 C 18.017 12.094,18.017 11.906,17.935 11.657 C 17.876 11.479,17.665 11.255,15.769 9.353 C 14.359 7.939,13.607 7.214,13.484 7.148 C 13.251 7.023,12.992 6.990,12.753 7.055 " stroke="none" fill-rule="evenodd"></path></svg>