<svg xmlns="http://www.w3.org/2000/svg" width="24" height="24" fill="currentColor" class="mmi mmi-doublechevron-square-right" viewBox="0 0 24 24"><path d="M3.503 1.042 C 2.818 1.158,2.117 1.573,1.670 2.127 C 1.445 2.407,1.159 2.980,1.074 3.320 C 0.993 3.647,0.993 20.353,1.074 20.680 C 1.159 21.020,1.445 21.593,1.670 21.873 C 1.950 22.220,2.312 22.501,2.740 22.704 C 3.409 23.021,2.760 23.000,12.000 23.000 C 21.240 23.000,20.591 23.021,21.260 22.704 C 21.920 22.391,22.391 21.920,22.704 21.260 C 23.021 20.591,23.000 21.240,23.000 12.000 C 23.000 2.760,23.021 3.409,22.704 2.740 C 22.398 2.095,21.924 1.614,21.296 1.312 C 20.634 0.993,21.532 1.022,12.120 1.015 C 7.489 1.012,3.611 1.024,3.503 1.042 M20.340 3.066 C 20.593 3.153,20.847 3.407,20.934 3.660 C 20.995 3.838,21.000 4.523,21.000 12.000 C 21.000 21.144,21.026 20.376,20.701 20.701 C 20.376 21.026,21.144 21.000,11.998 21.000 C 3.106 21.000,3.684 21.015,3.374 20.778 C 3.301 20.723,3.192 20.592,3.131 20.489 L 3.020 20.300 3.020 12.000 L 3.020 3.700 3.131 3.511 C 3.256 3.298,3.449 3.136,3.670 3.057 C 3.793 3.013,5.268 3.003,11.983 3.002 C 19.479 3.000,20.162 3.005,20.340 3.066 M7.753 7.055 C 7.148 7.220,6.850 7.890,7.130 8.460 C 7.179 8.561,7.830 9.243,8.893 10.310 L 10.579 12.000 8.871 13.710 C 7.042 15.542,7.002 15.590,7.001 15.980 C 7.000 16.308,7.068 16.473,7.297 16.703 C 7.527 16.932,7.691 16.999,8.022 17.000 C 8.417 17.000,8.455 16.968,10.745 14.671 C 12.663 12.747,12.876 12.521,12.935 12.343 C 13.017 12.094,13.017 11.906,12.935 11.657 C 12.876 11.479,12.665 11.255,10.769 9.353 C 9.359 7.939,8.607 7.214,8.484 7.148 C 8.251 7.023,7.992 6.990,7.753 7.055 M12.758 7.054 C 12.416 7.147,12.160 7.395,12.061 7.729 C 11.984 7.987,11.985 8.054,12.064 8.323 C 12.124 8.531,12.201 8.614,13.853 10.270 L 15.578 12.000 13.853 13.730 C 12.201 15.386,12.124 15.469,12.064 15.677 C 11.984 15.948,11.984 16.013,12.064 16.283 C 12.156 16.590,12.419 16.849,12.735 16.940 C 13.001 17.018,13.210 17.000,13.460 16.879 C 13.565 16.829,14.350 16.070,15.745 14.671 C 17.664 12.747,17.876 12.521,17.935 12.343 C 18.017 12.094,18.017 11.906,17.935 11.657 C 17.876 11.479,17.665 11.255,15.769 9.353 C 14.359 7.939,13.607 7.214,13.484 7.148 C 13.252 7.024,12.992 6.990,12.758 7.054 " fill="#000640" stroke="none" fill-rule="evenodd"></path></svg>