<svg xmlns="http://www.w3.org/2000/svg" width="24" height="24" fill="currentColor" class="mmi mmi-doublechevron-right" viewBox="0 0 24 24"><path d="M5.758 4.054 C 5.416 4.147,5.160 4.395,5.061 4.729 C 4.985 4.987,4.985 5.053,5.063 5.323 C 5.125 5.534,5.219 5.632,8.353 8.770 L 11.579 12.000 8.371 15.210 C 5.893 17.690,5.145 18.461,5.083 18.600 C 4.984 18.819,4.975 19.182,5.062 19.391 C 5.144 19.587,5.381 19.831,5.580 19.924 C 5.818 20.034,6.175 20.025,6.422 19.901 C 6.575 19.825,7.441 18.980,10.245 16.171 C 13.561 12.850,13.876 12.523,13.935 12.343 C 14.017 12.094,14.017 11.906,13.935 11.657 C 13.876 11.477,13.562 11.152,10.268 7.853 C 7.803 5.383,6.608 4.214,6.483 4.147 C 6.252 4.024,5.992 3.990,5.758 4.054 M12.645 4.046 C 12.456 4.100,12.098 4.468,12.044 4.664 C 11.977 4.904,11.993 5.200,12.083 5.400 C 12.145 5.539,12.893 6.310,15.372 8.790 L 18.580 12.000 15.393 15.190 C 13.124 17.462,12.182 18.431,12.119 18.558 C 12.012 18.773,11.998 19.150,12.089 19.363 C 12.318 19.898,12.970 20.134,13.469 19.862 C 13.611 19.785,14.682 18.737,17.268 16.147 C 20.562 12.848,20.876 12.523,20.935 12.343 C 21.017 12.094,21.017 11.906,20.935 11.657 C 20.876 11.477,20.561 11.150,17.245 7.829 C 14.441 5.020,13.575 4.175,13.422 4.099 C 13.209 3.993,12.903 3.972,12.645 4.046 " fill="#000640" stroke="none" fill-rule="evenodd"></path></svg>