<svg xmlns="http://www.w3.org/2000/svg" width="24" height="24" fill="currentColor" class="mmi mmi-doublechevron-up" viewBox="0 0 24 24"><path d="M11.640 3.068 C 11.484 3.121,10.980 3.609,7.829 6.755 C 5.021 9.559,4.175 10.425,4.099 10.578 C 3.975 10.825,3.966 11.182,4.076 11.420 C 4.169 11.619,4.413 11.856,4.609 11.938 C 4.818 12.025,5.181 12.016,5.400 11.917 C 5.539 11.855,6.310 11.107,8.790 8.629 L 12.000 5.421 15.230 8.647 C 18.368 11.781,18.466 11.875,18.677 11.937 C 18.949 12.016,19.013 12.016,19.283 11.936 C 19.590 11.844,19.849 11.581,19.940 11.265 C 20.018 10.999,20.000 10.790,19.879 10.540 C 19.828 10.433,18.600 9.179,16.171 6.755 C 12.850 3.439,12.523 3.124,12.343 3.065 C 12.102 2.986,11.878 2.987,11.640 3.068 M11.640 10.068 C 11.484 10.121,10.980 10.609,7.829 13.755 C 3.928 17.649,4.000 17.570,4.000 17.978 C 4.001 18.309,4.068 18.473,4.297 18.703 C 4.604 19.010,5.016 19.090,5.400 18.917 C 5.539 18.855,6.310 18.107,8.790 15.629 L 12.000 12.421 15.190 15.606 C 17.456 17.869,18.432 18.818,18.558 18.881 C 18.933 19.068,19.445 18.967,19.723 18.650 C 20.000 18.335,20.055 17.886,19.862 17.531 C 19.785 17.389,18.737 16.318,16.147 13.732 C 12.848 10.438,12.523 10.124,12.343 10.065 C 12.102 9.986,11.878 9.987,11.640 10.068 " fill="#000640" stroke="none" fill-rule="evenodd"></path></svg>