<svg xmlns="http://www.w3.org/2000/svg" width="24" height="24" fill="currentColor" class="mmi mmi-download" viewBox="0 0 24 24"><path d="M11.664 1.063 C 11.436 1.146,11.257 1.297,11.131 1.511 L 11.020 1.700 11.009 7.639 L 10.999 13.578 9.289 11.871 C 7.458 10.042,7.410 10.002,7.020 10.001 C 6.722 10.000,6.551 10.062,6.339 10.249 C 6.097 10.462,6.002 10.669,6.001 10.982 C 5.999 11.429,5.954 11.377,8.829 14.245 C 11.219 16.629,11.478 16.876,11.657 16.935 C 11.906 17.017,12.094 17.017,12.343 16.935 C 12.522 16.876,12.781 16.629,15.171 14.245 C 18.046 11.377,18.001 11.429,17.999 10.982 C 17.998 10.669,17.903 10.462,17.661 10.249 C 17.449 10.062,17.278 10.000,16.980 10.001 C 16.590 10.002,16.542 10.042,14.710 11.871 L 13.000 13.579 13.000 7.716 C 13.000 1.131,13.023 1.621,12.701 1.299 C 12.429 1.027,12.018 0.933,11.664 1.063 M1.643 15.069 C 1.402 15.154,1.147 15.418,1.063 15.670 C 1.002 15.853,0.997 16.101,1.010 18.207 C 1.026 20.800,1.014 20.678,1.312 21.296 C 1.614 21.924,2.095 22.398,2.740 22.704 C 3.409 23.021,2.760 23.000,12.000 23.000 C 21.240 23.000,20.591 23.021,21.260 22.704 C 21.920 22.391,22.391 21.920,22.704 21.260 C 22.990 20.655,23.000 20.548,23.000 18.043 C 23.000 15.568,23.004 15.602,22.701 15.299 C 22.310 14.908,21.690 14.908,21.299 15.299 C 20.997 15.601,21.000 15.573,21.000 18.000 C 21.000 20.427,21.003 20.399,20.701 20.701 C 20.376 21.026,21.144 21.000,11.998 21.000 C 3.106 21.000,3.684 21.015,3.374 20.778 C 3.301 20.723,3.192 20.592,3.131 20.489 L 3.020 20.300 3.000 18.020 L 2.980 15.740 2.886 15.550 C 2.665 15.101,2.134 14.895,1.643 15.069 " fill="#000640" stroke="none" fill-rule="evenodd"></path></svg>