<svg xmlns="http://www.w3.org/2000/svg" width="24" height="24" fill="currentColor" class="mmi mmi-drag-indicator" viewBox="0 0 24 24"><path d="M8.477 4.193 C 7.783 4.374,7.193 5.000,7.044 5.712 C 6.842 6.683,7.398 7.661,8.350 8.008 C 8.690 8.132,9.330 8.129,9.660 8.001 C 11.028 7.473,11.438 5.821,10.462 4.770 C 9.948 4.217,9.209 4.002,8.477 4.193 M14.477 4.193 C 13.783 4.374,13.193 5.000,13.044 5.712 C 12.842 6.683,13.398 7.661,14.350 8.008 C 14.690 8.132,15.330 8.129,15.660 8.001 C 17.028 7.473,17.438 5.821,16.462 4.770 C 15.948 4.217,15.209 4.002,14.477 4.193 M8.477 10.193 C 7.783 10.374,7.193 11.000,7.044 11.712 C 6.842 12.683,7.398 13.661,8.350 14.008 C 8.690 14.132,9.330 14.129,9.660 14.001 C 10.322 13.746,10.767 13.252,10.939 12.582 C 11.253 11.357,10.281 10.125,9.000 10.125 C 8.857 10.125,8.622 10.156,8.477 10.193 M14.477 10.193 C 13.783 10.374,13.193 11.000,13.044 11.712 C 12.842 12.683,13.398 13.661,14.350 14.008 C 14.690 14.132,15.330 14.129,15.660 14.001 C 16.322 13.746,16.767 13.252,16.939 12.582 C 17.253 11.357,16.281 10.125,15.000 10.125 C 14.857 10.125,14.622 10.156,14.477 10.193 M8.477 16.193 C 7.783 16.374,7.193 17.000,7.044 17.712 C 6.842 18.683,7.398 19.661,8.350 20.008 C 8.690 20.132,9.330 20.129,9.660 20.001 C 10.322 19.746,10.767 19.252,10.939 18.582 C 11.253 17.357,10.281 16.125,9.000 16.125 C 8.857 16.125,8.622 16.156,8.477 16.193 M14.477 16.193 C 13.783 16.374,13.193 17.000,13.044 17.712 C 12.842 18.683,13.398 19.661,14.350 20.008 C 14.690 20.132,15.330 20.129,15.660 20.001 C 16.322 19.746,16.767 19.252,16.939 18.582 C 17.253 17.357,16.281 16.125,15.000 16.125 C 14.857 16.125,14.622 16.156,14.477 16.193 " fill="#000640" stroke="none" fill-rule="evenodd"></path></svg>