<svg xmlns="http://www.w3.org/2000/svg" width="24" height="24" fill="currentColor" class="mmi mmi-dress" viewBox="0 0 24 24"><path d="M7.664 1.063 C 7.455 1.140,7.267 1.288,7.161 1.459 C 7.112 1.538,6.963 2.034,6.822 2.590 C 6.573 3.571,6.568 3.584,6.324 3.970 C 5.868 4.690,5.431 5.655,5.260 6.319 C 5.081 7.012,5.023 7.896,5.118 8.485 C 5.222 9.133,5.564 9.968,5.917 10.437 C 6.007 10.557,6.080 10.667,6.080 10.683 C 6.080 10.698,5.955 10.785,5.802 10.876 C 4.987 11.360,3.904 12.347,3.310 13.148 C 2.150 14.711,1.447 16.532,1.137 18.780 C 0.969 20.004,1.185 20.754,1.917 21.481 C 2.284 21.846,2.687 22.091,3.120 22.213 C 3.827 22.412,6.757 22.826,8.520 22.977 C 10.312 23.130,13.113 23.159,14.680 23.042 C 16.663 22.893,19.039 22.590,20.500 22.299 C 21.212 22.158,21.625 21.942,22.102 21.463 C 22.394 21.170,22.496 21.034,22.631 20.760 C 22.925 20.160,22.980 19.676,22.860 18.757 C 22.555 16.426,21.697 14.334,20.419 12.800 C 19.840 12.106,18.907 11.297,18.198 10.876 C 18.045 10.785,17.920 10.702,17.920 10.690 C 17.920 10.679,17.980 10.586,18.052 10.485 C 18.963 9.214,19.171 7.666,18.652 6.021 C 18.438 5.343,17.958 4.361,17.549 3.765 C 17.455 3.627,17.376 3.379,17.178 2.595 C 16.918 1.567,16.847 1.390,16.623 1.220 C 16.135 0.847,15.444 0.978,15.138 1.499 C 14.965 1.795,14.969 2.005,15.158 2.760 C 15.249 3.123,15.333 3.451,15.344 3.488 C 15.360 3.542,14.997 3.802,13.682 4.679 L 12.000 5.800 10.318 4.679 C 9.003 3.802,8.640 3.542,8.656 3.488 C 8.667 3.451,8.751 3.123,8.842 2.760 C 9.031 2.005,9.035 1.795,8.862 1.499 C 8.623 1.092,8.103 0.902,7.664 1.063 M11.690 7.944 C 11.894 8.015,12.106 8.015,12.310 7.944 C 12.398 7.912,13.308 7.328,14.332 6.645 L 16.194 5.403 16.293 5.572 C 16.452 5.844,16.715 6.489,16.804 6.827 C 16.910 7.227,16.948 7.950,16.882 8.288 C 16.745 8.991,16.283 9.628,15.570 10.096 C 15.256 10.303,15.150 10.424,15.059 10.682 C 14.934 11.037,15.027 11.429,15.301 11.703 C 15.440 11.842,15.537 11.893,15.864 11.997 C 18.143 12.725,19.888 14.789,20.601 17.600 C 20.743 18.157,20.871 18.892,20.906 19.341 C 20.928 19.631,20.920 19.694,20.844 19.853 C 20.748 20.051,20.576 20.200,20.360 20.275 C 20.199 20.330,18.864 20.556,17.980 20.678 C 17.650 20.724,17.322 20.771,17.250 20.782 L 17.120 20.804 17.120 20.206 C 17.120 18.423,16.668 16.507,15.888 14.980 C 15.446 14.115,14.835 13.320,14.470 13.135 C 13.914 12.853,13.237 13.137,13.062 13.725 C 12.985 13.985,12.985 14.054,13.060 14.306 C 13.101 14.446,13.194 14.592,13.363 14.784 C 14.440 16.004,15.118 18.166,15.120 20.386 L 15.120 20.992 14.890 21.017 C 13.662 21.150,10.485 21.151,9.124 21.017 L 8.869 20.992 8.892 20.146 C 8.905 19.681,8.943 19.115,8.977 18.888 C 9.234 17.172,9.846 15.669,10.661 14.756 C 10.873 14.518,11.000 14.242,11.000 14.020 C 11.000 13.829,10.869 13.508,10.728 13.351 C 10.529 13.131,10.284 13.026,9.975 13.028 C 9.629 13.031,9.379 13.174,9.049 13.560 C 7.786 15.034,6.951 17.523,6.890 19.991 L 6.870 20.802 6.745 20.781 C 6.676 20.770,6.350 20.724,6.020 20.678 C 5.136 20.556,3.801 20.330,3.640 20.275 C 3.424 20.200,3.252 20.051,3.157 19.853 C 3.080 19.694,3.073 19.634,3.097 19.337 C 3.246 17.496,3.967 15.556,4.987 14.249 C 5.824 13.178,6.876 12.421,8.093 12.016 C 8.460 11.893,8.561 11.841,8.701 11.701 C 9.025 11.377,9.088 10.868,8.851 10.484 C 8.771 10.354,8.637 10.233,8.399 10.073 C 7.749 9.638,7.270 8.991,7.139 8.370 C 6.964 7.544,7.145 6.660,7.713 5.570 L 7.801 5.400 9.666 6.644 C 10.691 7.328,11.602 7.912,11.690 7.944 " fill="#000640" stroke="none" fill-rule="evenodd"></path></svg>