<svg xmlns="http://www.w3.org/2000/svg" width="24" height="24" fill="currentColor" class="mmi mmi-dropwater" viewBox="0 0 24 24"><path d="M11.530 1.042 C 11.019 1.133,10.338 1.449,9.745 1.870 C 9.345 2.153,8.125 3.362,7.705 3.890 C 5.456 6.721,3.663 10.525,3.116 13.623 C 2.997 14.299,2.985 15.670,3.093 16.300 C 3.420 18.202,4.287 19.736,5.700 20.914 C 6.937 21.945,8.627 22.653,10.440 22.899 C 10.693 22.934,11.233 22.973,11.640 22.987 C 14.617 23.086,17.285 22.090,19.016 20.233 C 20.644 18.487,21.301 16.076,20.856 13.480 C 20.596 11.960,19.926 10.064,18.974 8.160 C 18.055 6.321,17.046 4.757,15.983 3.525 C 15.503 2.967,14.632 2.140,14.218 1.846 C 13.806 1.554,13.089 1.193,12.740 1.102 C 12.440 1.023,11.807 0.992,11.530 1.042 M12.337 3.076 C 12.806 3.240,13.561 3.823,14.157 4.479 C 16.238 6.771,18.234 10.632,18.821 13.500 C 19.196 15.334,18.942 16.897,18.046 18.257 C 17.808 18.619,17.191 19.260,16.795 19.559 C 15.913 20.224,14.709 20.701,13.396 20.907 C 12.755 21.007,11.245 21.007,10.604 20.907 C 7.558 20.429,5.573 18.698,5.093 16.100 C 4.990 15.542,5.000 14.477,5.114 13.831 C 5.481 11.761,6.663 8.982,8.150 6.700 C 9.395 4.789,10.728 3.410,11.654 3.077 C 11.918 2.982,12.070 2.982,12.337 3.076 " fill="#000640" stroke="none" fill-rule="evenodd"></path></svg>