<svg xmlns="http://www.w3.org/2000/svg" width="24" height="24" fill="currentColor" class="mmi mmi-drum" viewBox="0 0 24 24"><path d="M5.149 1.041 C 4.736 1.145,4.318 1.496,4.135 1.891 C 4.035 2.107,4.020 2.188,4.020 2.500 C 4.020 2.820,4.034 2.889,4.144 3.120 C 4.298 3.441,4.581 3.725,4.870 3.848 L 5.086 3.940 5.763 5.289 L 6.439 6.638 6.210 6.702 C 5.171 6.993,4.257 7.338,3.600 7.686 C 2.177 8.440,1.345 9.329,1.080 10.376 C 1.002 10.683,1.000 10.824,1.001 14.976 L 1.002 19.260 1.097 19.529 C 1.650 21.096,4.514 22.371,8.480 22.816 C 9.707 22.953,10.248 22.978,12.000 22.978 C 13.752 22.978,14.293 22.953,15.520 22.816 C 19.418 22.378,22.228 21.152,22.887 19.599 L 22.980 19.380 22.991 15.042 C 23.001 10.806,23.000 10.697,22.921 10.382 C 22.519 8.778,20.810 7.552,17.791 6.703 L 17.563 6.639 18.222 5.309 L 18.882 3.980 19.111 3.867 C 19.422 3.714,19.728 3.405,19.867 3.104 C 19.965 2.894,19.980 2.811,19.980 2.500 C 19.980 2.188,19.965 2.107,19.865 1.891 C 19.724 1.586,19.411 1.278,19.090 1.128 C 18.895 1.037,18.806 1.021,18.500 1.021 C 18.180 1.020,18.111 1.034,17.880 1.144 C 17.236 1.450,16.892 2.140,17.038 2.832 L 17.088 3.065 16.299 4.642 C 15.866 5.510,15.507 6.224,15.503 6.230 C 15.498 6.235,15.189 6.205,14.817 6.162 C 12.944 5.949,10.866 5.957,9.027 6.184 C 8.745 6.219,8.504 6.238,8.493 6.226 C 8.482 6.215,8.122 5.498,7.693 4.633 L 6.914 3.060 6.962 2.830 C 7.152 1.931,6.497 1.067,5.590 1.018 C 5.430 1.010,5.232 1.020,5.149 1.041 M13.940 8.083 C 14.248 8.109,14.508 8.137,14.518 8.146 C 14.528 8.155,14.439 8.359,14.320 8.600 C 14.105 9.035,14.104 9.037,13.862 9.156 C 13.542 9.314,13.297 9.561,13.144 9.880 C 13.034 10.111,13.020 10.180,13.020 10.500 C 13.020 10.821,13.034 10.888,13.145 11.120 C 13.304 11.452,13.551 11.698,13.880 11.856 C 14.111 11.966,14.180 11.980,14.500 11.980 C 14.820 11.980,14.889 11.966,15.120 11.856 C 15.765 11.549,16.108 10.860,15.962 10.168 L 15.912 9.935 16.277 9.205 C 16.570 8.621,16.656 8.479,16.711 8.495 C 16.749 8.506,17.032 8.580,17.340 8.660 C 18.765 9.029,19.995 9.632,20.591 10.253 C 21.130 10.816,21.130 11.184,20.591 11.747 C 19.559 12.822,17.142 13.615,13.940 13.928 C 13.252 13.995,10.748 13.995,10.060 13.928 C 7.838 13.711,6.101 13.297,4.805 12.677 C 3.698 12.148,3.002 11.500,3.002 11.000 C 3.002 10.529,3.664 9.886,4.660 9.389 C 5.172 9.134,6.008 8.829,6.660 8.660 C 6.968 8.580,7.251 8.506,7.289 8.495 C 7.344 8.479,7.430 8.621,7.723 9.205 L 8.088 9.935 8.038 10.168 C 7.892 10.859,8.249 11.565,8.900 11.868 C 9.108 11.965,9.188 11.980,9.500 11.979 C 9.808 11.978,9.895 11.962,10.100 11.867 C 10.414 11.722,10.724 11.414,10.867 11.104 C 10.965 10.894,10.980 10.811,10.980 10.500 C 10.980 10.180,10.966 10.111,10.856 9.880 C 10.702 9.559,10.419 9.275,10.130 9.152 C 9.917 9.061,9.910 9.053,9.697 8.631 C 9.578 8.395,9.480 8.185,9.480 8.165 C 9.480 8.131,9.749 8.103,10.720 8.038 C 11.325 7.997,13.233 8.024,13.940 8.083 M3.284 14.142 C 4.046 14.605,5.683 15.214,6.770 15.438 L 7.000 15.486 7.000 18.023 C 7.000 20.080,6.990 20.560,6.948 20.560 C 6.919 20.560,6.636 20.497,6.318 20.419 C 4.882 20.069,3.704 19.568,3.190 19.087 L 3.000 18.909 3.000 16.455 C 3.000 15.105,3.011 14.000,3.025 14.000 C 3.038 14.000,3.155 14.064,3.284 14.142 M21.000 16.456 L 21.000 18.913 20.793 19.099 C 20.394 19.457,19.691 19.809,18.760 20.114 C 18.297 20.266,17.172 20.560,17.052 20.560 C 17.010 20.560,17.000 20.080,17.000 18.023 L 17.000 15.486 17.230 15.439 C 17.595 15.364,18.618 15.061,19.120 14.878 C 19.633 14.692,20.435 14.320,20.740 14.128 C 20.850 14.058,20.953 14.001,20.970 14.001 C 20.987 14.000,21.000 15.105,21.000 16.456 M10.000 15.930 C 10.288 15.957,11.135 15.978,12.000 15.978 C 13.349 15.978,13.765 15.959,14.750 15.855 L 15.000 15.829 15.000 18.349 L 15.000 20.870 14.650 20.896 C 13.675 20.971,12.963 20.998,12.000 20.998 C 11.037 20.998,10.325 20.971,9.350 20.896 L 9.000 20.870 9.000 18.349 L 9.000 15.829 9.250 15.855 C 9.388 15.870,9.725 15.903,10.000 15.930 " fill="#000640" stroke="none" fill-rule="evenodd"></path></svg>