<svg xmlns="http://www.w3.org/2000/svg" width="24" height="24" fill="currentColor" class="mmi mmi-duplicate" viewBox="0 0 24 24"><path d="M7.380 2.164 C 5.849 2.387,4.556 3.559,4.127 5.112 L 4.020 5.500 4.008 11.820 C 3.999 16.318,4.008 18.199,4.039 18.344 C 4.175 18.973,4.903 19.296,5.474 18.981 C 5.709 18.851,5.885 18.631,5.955 18.379 C 5.987 18.266,6.000 16.437,6.000 12.072 C 6.000 7.739,6.013 5.861,6.044 5.712 C 6.180 5.062,6.669 4.493,7.316 4.231 L 7.540 4.140 11.400 4.120 L 15.260 4.100 15.474 3.982 C 16.149 3.608,16.165 2.668,15.503 2.261 L 15.306 2.140 11.463 2.134 C 9.349 2.131,7.512 2.145,7.380 2.164 M8.477 5.193 C 7.783 5.374,7.193 6.000,7.044 6.712 C 7.013 6.862,7.000 9.025,7.000 14.134 C 7.000 21.995,6.987 21.541,7.223 22.028 C 7.423 22.440,7.866 22.827,8.350 23.012 L 8.580 23.100 13.480 23.100 L 18.380 23.100 18.640 23.005 C 19.310 22.759,19.764 22.262,19.939 21.582 C 19.993 21.372,20.000 20.475,20.000 14.134 C 20.000 9.025,19.987 6.862,19.956 6.712 C 19.807 6.000,19.217 5.374,18.523 5.193 C 18.282 5.130,17.871 5.125,13.500 5.125 C 9.129 5.125,8.718 5.130,8.477 5.193 M18.000 14.120 L 18.000 21.120 13.500 21.120 L 9.000 21.120 9.000 14.120 L 9.000 7.120 13.500 7.120 L 18.000 7.120 18.000 14.120 " fill="#000640" stroke="none" fill-rule="evenodd"></path></svg>