<svg xmlns="http://www.w3.org/2000/svg" width="24" height="24" fill="currentColor" class="mmi mmi-earphone" viewBox="0 0 24 24"><path d="M13.791 1.062 C 12.879 1.204,12.006 1.647,11.344 2.305 C 8.971 4.662,9.876 8.635,13.040 9.751 C 13.691 9.980,13.933 10.000,16.067 10.000 L 18.000 10.000 18.000 16.070 C 18.000 20.128,18.014 22.189,18.042 22.289 C 18.103 22.509,18.315 22.762,18.531 22.874 C 18.932 23.080,19.390 23.012,19.700 22.702 C 20.023 22.379,20.000 22.896,20.000 16.073 L 20.000 10.000 20.573 10.000 C 21.259 10.000,21.454 9.948,21.701 9.701 C 22.015 9.387,22.000 9.604,22.000 5.500 C 22.000 1.396,22.015 1.613,21.701 1.299 C 21.387 0.985,21.588 1.000,17.643 1.004 C 14.907 1.007,14.064 1.020,13.791 1.062 M16.000 5.500 L 16.000 8.000 15.130 7.999 C 14.108 7.998,13.855 7.958,13.361 7.714 C 12.556 7.317,12.001 6.415,12.001 5.500 C 12.001 4.583,12.544 3.700,13.362 3.288 C 13.848 3.043,14.069 3.007,15.110 3.003 L 16.000 3.000 16.000 5.500 M20.000 5.500 L 20.000 8.000 19.000 8.000 L 18.000 8.000 18.000 5.500 L 18.000 3.000 19.000 3.000 L 20.000 3.000 20.000 5.500 M2.643 10.069 C 2.546 10.103,2.392 10.206,2.300 10.298 C 1.984 10.613,2.000 10.395,2.000 14.500 C 2.000 18.604,1.985 18.387,2.299 18.701 C 2.546 18.948,2.741 19.000,3.427 19.000 L 4.000 19.000 4.000 20.573 C 4.000 22.362,4.006 22.409,4.299 22.701 C 4.690 23.092,5.310 23.092,5.701 22.701 C 5.994 22.409,6.000 22.362,6.000 20.573 L 6.000 19.000 7.890 19.000 C 9.353 19.000,9.869 18.986,10.172 18.940 C 11.130 18.796,11.988 18.362,12.675 17.675 C 13.362 16.988,13.796 16.130,13.940 15.172 C 14.048 14.458,13.988 13.754,13.762 13.078 C 13.534 12.400,13.183 11.832,12.675 11.325 C 11.988 10.638,11.130 10.204,10.172 10.060 C 9.573 9.969,2.902 9.977,2.643 10.069 M6.000 14.500 L 6.000 17.000 5.000 17.000 L 4.000 17.000 4.000 14.500 L 4.000 12.000 5.000 12.000 L 6.000 12.000 6.000 14.500 M10.096 12.079 C 11.411 12.415,12.216 13.699,11.940 15.020 C 11.789 15.741,11.287 16.395,10.638 16.715 C 10.145 16.958,9.892 16.998,8.870 16.999 L 8.000 17.000 8.000 14.500 L 8.000 12.000 8.894 12.000 C 9.652 12.000,9.834 12.012,10.096 12.079 " fill="#000640" stroke="none" fill-rule="evenodd"></path></svg>