<svg xmlns="http://www.w3.org/2000/svg" width="24" height="24" fill="currentColor" class="mmi mmi-earth" viewBox="0 0 24 24"><path d="M11.080 0.027 C 10.981 0.035,10.639 0.077,10.320 0.122 C 7.593 0.503,4.992 1.873,3.151 3.900 C 1.345 5.890,0.288 8.289,0.037 10.975 C -0.021 11.598,0.010 12.954,0.097 13.560 C 0.504 16.415,1.830 18.962,3.880 20.830 C 6.235 22.976,9.188 24.078,12.336 23.988 C 16.007 23.883,19.377 22.144,21.584 19.215 C 23.963 16.056,24.629 11.975,23.378 8.210 C 22.100 4.365,18.995 1.449,15.060 0.398 C 13.903 0.089,12.277 -0.062,11.080 0.027 M12.860 2.043 C 14.409 2.178,16.040 2.718,17.261 3.499 L 17.480 3.639 17.480 4.431 C 17.480 5.329,17.447 5.521,17.211 5.976 C 17.008 6.368,16.587 6.783,16.196 6.975 C 15.804 7.168,15.446 7.238,14.852 7.239 C 14.237 7.240,14.032 7.283,13.566 7.506 C 12.942 7.806,12.460 8.351,12.208 9.047 C 12.111 9.313,12.101 9.391,12.102 9.900 C 12.103 10.400,12.115 10.490,12.206 10.740 C 12.263 10.894,12.910 12.289,13.644 13.840 L 14.980 16.660 14.991 19.104 L 15.002 21.548 14.611 21.650 C 13.721 21.883,13.219 21.957,12.320 21.987 C 10.396 22.052,8.466 21.552,6.842 20.568 C 6.507 20.365,5.862 19.908,5.628 19.707 L 5.476 19.577 6.428 18.734 C 7.636 17.664,7.867 17.421,8.076 16.993 C 8.294 16.550,8.372 16.223,8.374 15.760 C 8.375 15.177,8.211 14.666,7.849 14.133 C 7.482 13.591,7.360 13.215,7.360 12.620 C 7.360 12.018,7.526 11.517,7.870 11.080 C 8.043 10.860,8.065 10.840,8.692 10.330 C 9.271 9.859,9.536 9.554,9.758 9.100 C 9.990 8.627,10.055 8.342,10.056 7.780 C 10.057 7.241,9.998 6.963,9.782 6.500 C 9.597 6.102,9.468 5.945,8.186 4.561 L 7.041 3.323 7.210 3.224 C 7.570 3.013,8.282 2.705,8.839 2.520 C 10.140 2.086,11.507 1.924,12.860 2.043 M6.663 5.858 C 7.341 6.594,7.927 7.255,7.965 7.328 C 8.074 7.536,8.096 7.805,8.024 8.052 C 7.942 8.335,7.870 8.421,7.386 8.807 C 6.663 9.385,6.272 9.803,5.951 10.340 C 5.647 10.849,5.431 11.517,5.357 12.175 C 5.258 13.056,5.490 14.121,5.942 14.855 C 6.018 14.979,6.143 15.182,6.220 15.308 C 6.395 15.592,6.413 15.889,6.269 16.131 C 6.169 16.300,4.126 18.129,4.074 18.096 C 4.001 18.051,3.353 17.035,3.146 16.640 C 1.624 13.741,1.631 10.200,3.166 7.321 C 3.419 6.845,3.811 6.243,4.156 5.800 C 4.453 5.418,5.316 4.519,5.385 4.520 C 5.409 4.520,5.984 5.122,6.663 5.858 M19.830 5.790 C 22.067 8.603,22.615 12.444,21.254 15.780 C 20.614 17.348,19.502 18.825,18.178 19.862 C 17.835 20.131,17.085 20.640,17.032 20.640 C 17.014 20.640,17.000 19.752,17.000 18.667 C 17.000 16.696,16.985 16.437,16.852 16.020 C 16.816 15.910,16.184 14.542,15.446 12.980 C 14.144 10.224,14.104 10.133,14.102 9.893 C 14.100 9.619,14.168 9.488,14.391 9.336 C 14.499 9.262,14.593 9.249,15.147 9.228 C 15.583 9.212,15.883 9.180,16.109 9.123 C 17.090 8.880,17.939 8.347,18.526 7.609 C 19.013 6.996,19.279 6.398,19.459 5.510 C 19.471 5.450,19.490 5.400,19.500 5.400 C 19.511 5.400,19.659 5.576,19.830 5.790 " fill="#000640" stroke="none" fill-rule="evenodd"></path></svg>