<svg xmlns="http://www.w3.org/2000/svg" width="24" height="24" fill="currentColor" class="mmi mmi-eight" viewBox="0 0 24 24"><path d="M11.200 0.025 C 7.091 0.332,3.508 2.609,1.507 6.186 C 0.775 7.494,0.317 8.899,0.094 10.520 C -0.002 11.214,-0.002 12.786,0.094 13.480 C 0.317 15.101,0.775 16.506,1.507 17.814 C 4.173 22.579,9.604 24.939,14.910 23.637 C 19.156 22.595,22.595 19.156,23.637 14.910 C 24.599 10.992,23.592 6.970,20.896 3.958 C 19.003 1.843,16.397 0.483,13.500 0.099 C 13.032 0.037,11.640 -0.007,11.200 0.025 M12.920 2.043 C 14.827 2.219,16.631 2.940,18.200 4.155 C 18.637 4.493,19.507 5.363,19.845 5.800 C 21.878 8.427,22.517 11.768,21.578 14.865 C 21.082 16.499,20.272 17.850,19.061 19.061 C 18.287 19.836,17.547 20.383,16.623 20.863 C 13.714 22.376,10.286 22.376,7.377 20.863 C 6.454 20.383,5.715 19.837,4.938 19.061 C 3.951 18.075,3.213 16.964,2.722 15.728 C 1.390 12.368,1.921 8.686,4.153 5.800 C 4.491 5.363,5.363 4.491,5.800 4.153 C 7.114 3.137,8.541 2.486,10.125 2.181 C 11.037 2.006,12.003 1.958,12.920 2.043 M11.220 5.545 C 9.506 5.794,8.326 6.544,7.784 7.726 C 7.593 8.142,7.520 8.512,7.520 9.062 C 7.520 10.129,7.854 11.018,8.523 11.734 L 8.809 12.041 8.559 12.308 C 7.885 13.028,7.569 13.796,7.531 14.806 C 7.506 15.446,7.568 15.805,7.783 16.274 C 8.279 17.353,9.299 18.068,10.800 18.388 C 11.287 18.491,12.713 18.491,13.200 18.388 C 13.885 18.242,14.304 18.085,14.819 17.781 C 15.662 17.285,16.229 16.535,16.421 15.666 C 16.515 15.240,16.486 14.397,16.362 13.945 C 16.196 13.335,15.884 12.781,15.441 12.308 L 15.191 12.041 15.477 11.734 C 15.958 11.220,16.253 10.643,16.397 9.934 C 16.500 9.428,16.508 8.722,16.415 8.308 C 16.160 7.168,15.231 6.239,13.905 5.797 C 13.331 5.606,12.972 5.554,12.140 5.540 C 11.700 5.533,11.286 5.535,11.220 5.545 M12.416 7.521 C 13.201 7.597,13.806 7.843,14.168 8.234 C 14.428 8.514,14.505 8.730,14.490 9.139 C 14.458 10.070,13.932 10.682,12.970 10.907 C 12.538 11.009,11.466 11.010,11.038 10.909 C 10.056 10.678,9.540 10.075,9.509 9.120 C 9.496 8.730,9.576 8.511,9.832 8.234 C 10.181 7.856,10.814 7.592,11.533 7.523 C 11.994 7.478,11.978 7.478,12.416 7.521 M12.900 13.098 C 13.292 13.203,13.703 13.419,13.943 13.646 C 14.479 14.153,14.665 15.115,14.322 15.597 C 13.979 16.078,13.292 16.395,12.406 16.479 C 11.240 16.591,10.130 16.231,9.678 15.597 C 9.540 15.403,9.478 15.069,9.520 14.739 C 9.632 13.857,10.261 13.263,11.300 13.057 C 11.662 12.986,12.568 13.009,12.900 13.098 " stroke="none" fill-rule="evenodd"></path></svg>