<svg xmlns="http://www.w3.org/2000/svg" width="24" height="24" fill="currentColor" class="mmi mmi-eject-button" viewBox="0 0 24 24"><path d="M11.200 0.025 C 7.091 0.332,3.508 2.609,1.507 6.186 C 0.775 7.494,0.317 8.899,0.094 10.520 C -0.002 11.214,-0.002 12.786,0.094 13.480 C 0.317 15.101,0.775 16.506,1.507 17.814 C 4.173 22.579,9.604 24.939,14.910 23.637 C 19.156 22.595,22.595 19.156,23.637 14.910 C 24.599 10.992,23.592 6.970,20.896 3.958 C 19.003 1.843,16.397 0.483,13.500 0.099 C 13.032 0.037,11.640 -0.007,11.200 0.025 M12.920 2.043 C 14.827 2.219,16.631 2.940,18.200 4.155 C 18.637 4.493,19.507 5.363,19.845 5.800 C 21.878 8.427,22.517 11.768,21.578 14.865 C 21.082 16.499,20.272 17.850,19.061 19.061 C 18.287 19.836,17.547 20.383,16.623 20.863 C 13.714 22.376,10.286 22.376,7.377 20.863 C 6.454 20.383,5.715 19.837,4.938 19.061 C 3.951 18.075,3.213 16.964,2.722 15.728 C 1.390 12.368,1.921 8.686,4.153 5.800 C 4.491 5.363,5.363 4.491,5.800 4.153 C 7.114 3.137,8.541 2.486,10.125 2.181 C 11.037 2.006,12.003 1.958,12.920 2.043 M11.668 6.061 C 11.585 6.092,11.462 6.156,11.395 6.204 C 11.250 6.307,7.141 12.450,7.056 12.690 C 6.880 13.191,7.179 13.788,7.684 13.937 C 7.869 13.992,8.390 14.000,12.000 14.000 C 15.610 14.000,16.131 13.992,16.316 13.937 C 16.821 13.788,17.120 13.191,16.944 12.690 C 16.857 12.444,12.749 6.306,12.600 6.200 C 12.337 6.013,11.956 5.956,11.668 6.061 M13.080 10.420 L 14.120 11.980 13.060 11.991 C 12.477 11.997,11.523 11.997,10.940 11.991 L 9.880 11.980 10.927 10.409 C 11.503 9.545,11.989 8.843,12.007 8.849 C 12.025 8.855,12.508 9.562,13.080 10.420 M7.643 15.069 C 7.291 15.193,7.000 15.614,7.000 16.000 C 7.000 16.242,7.119 16.521,7.299 16.701 C 7.616 17.018,7.337 17.000,12.000 17.000 C 16.663 17.000,16.384 17.018,16.701 16.701 C 17.092 16.310,17.092 15.690,16.701 15.299 C 16.384 14.982,16.666 15.000,11.983 15.003 C 8.320 15.006,7.799 15.014,7.643 15.069 " stroke="none" fill-rule="evenodd"></path></svg>