<svg xmlns="http://www.w3.org/2000/svg" width="24" height="24" fill="currentColor" class="mmi mmi-eject" viewBox="0 0 24 24"><path d="M11.640 2.463 C 10.903 2.591,10.350 2.860,9.890 3.316 C 9.717 3.488,3.648 11.925,3.308 12.466 C 2.898 13.119,2.772 14.085,3.001 14.820 C 3.167 15.355,3.382 15.705,3.798 16.122 C 4.113 16.437,4.239 16.533,4.520 16.670 C 5.214 17.008,4.548 16.980,12.000 16.980 C 19.452 16.980,18.786 17.008,19.480 16.670 C 19.946 16.442,20.506 15.891,20.748 15.420 C 21.028 14.876,21.099 14.581,21.098 13.980 C 21.097 13.498,21.088 13.432,20.966 13.080 C 20.894 12.872,20.780 12.611,20.712 12.500 C 20.644 12.390,19.181 10.329,17.460 7.920 C 13.965 3.029,14.038 3.120,13.354 2.784 C 13.148 2.683,12.872 2.573,12.740 2.539 C 12.499 2.477,11.827 2.430,11.640 2.463 M12.305 4.499 C 12.415 4.532,12.570 4.617,12.649 4.689 C 12.796 4.823,18.813 13.230,18.996 13.557 C 19.075 13.698,19.096 13.793,19.096 13.999 C 19.096 14.438,18.845 14.797,18.436 14.942 C 18.180 15.032,5.813 15.029,5.558 14.939 C 5.307 14.851,5.153 14.718,5.021 14.475 C 4.862 14.183,4.856 13.823,5.004 13.557 C 5.187 13.229,11.205 4.823,11.352 4.689 C 11.600 4.463,11.949 4.394,12.305 4.499 M3.643 19.069 C 3.291 19.193,3.000 19.614,3.000 20.000 C 3.000 20.242,3.119 20.521,3.299 20.701 C 3.624 21.026,2.856 21.000,12.000 21.000 C 21.144 21.000,20.376 21.026,20.701 20.701 C 21.092 20.310,21.092 19.690,20.701 19.299 C 20.376 18.973,21.147 19.000,11.983 19.003 C 4.697 19.006,3.801 19.013,3.643 19.069 " fill="#000640" stroke="none" fill-rule="evenodd"></path></svg>