<svg xmlns="http://www.w3.org/2000/svg" width="24" height="24" fill="currentColor" class="mmi mmi-electricstation" viewBox="0 0 24 24"><path d="M3.503 1.042 C 2.815 1.159,2.117 1.573,1.670 2.127 C 1.445 2.407,1.159 2.980,1.074 3.320 C 0.993 3.647,0.993 20.353,1.074 20.680 C 1.159 21.020,1.445 21.593,1.670 21.873 C 1.950 22.220,2.312 22.501,2.740 22.704 C 3.370 23.002,3.337 23.000,7.000 23.000 C 10.663 23.000,10.630 23.002,11.260 22.704 C 11.920 22.391,12.391 21.920,12.704 21.260 C 13.001 20.632,13.000 20.650,13.000 17.116 L 13.000 14.000 13.573 14.000 C 14.213 14.000,14.410 14.044,14.649 14.241 C 14.728 14.306,14.835 14.445,14.886 14.550 L 14.980 14.740 15.002 17.640 C 15.027 20.863,15.011 20.671,15.312 21.296 C 15.614 21.924,16.095 22.398,16.740 22.704 C 17.127 22.887,17.607 23.000,18.000 23.000 C 18.621 23.000,19.376 22.730,19.873 22.330 C 20.220 22.050,20.501 21.688,20.704 21.260 C 21.014 20.604,21.000 20.918,21.000 14.765 L 21.000 9.300 21.947 7.880 C 22.494 7.060,22.916 6.385,22.947 6.284 C 22.988 6.147,23.000 5.633,23.000 3.981 C 23.000 1.575,23.003 1.601,22.701 1.299 C 22.399 0.997,22.427 1.000,20.000 1.000 C 17.573 1.000,17.601 0.997,17.299 1.299 C 16.997 1.601,17.000 1.572,17.000 4.002 C 17.000 5.749,17.011 6.180,17.056 6.310 C 17.087 6.398,17.537 7.107,18.056 7.885 L 19.000 9.300 19.000 14.723 C 19.000 20.818,19.022 20.380,18.700 20.702 C 18.390 21.012,17.932 21.080,17.531 20.874 C 17.315 20.762,17.103 20.509,17.042 20.289 C 17.015 20.193,17.000 19.181,17.000 17.454 C 17.000 14.398,16.997 14.359,16.704 13.740 C 16.398 13.095,15.924 12.614,15.296 12.312 C 14.783 12.065,14.627 12.034,13.770 12.011 L 13.000 11.991 13.000 7.880 C 13.000 3.238,13.008 3.383,12.704 2.740 C 12.398 2.095,11.924 1.614,11.296 1.312 C 10.658 1.005,10.932 1.024,7.120 1.016 C 5.239 1.011,3.611 1.023,3.503 1.042 M10.340 3.066 C 10.593 3.153,10.847 3.407,10.934 3.660 C 10.991 3.828,11.000 4.068,11.000 5.427 L 11.000 7.000 6.998 7.000 L 2.997 7.000 3.008 5.350 L 3.020 3.700 3.131 3.511 C 3.256 3.298,3.449 3.136,3.670 3.057 C 3.790 3.014,4.445 3.003,6.983 3.002 C 9.825 3.000,10.165 3.007,10.340 3.066 M21.000 4.349 L 21.000 5.698 20.514 6.429 C 20.247 6.831,20.015 7.160,20.000 7.160 C 19.985 7.160,19.753 6.831,19.486 6.429 L 19.000 5.698 19.000 4.349 L 19.000 3.000 20.000 3.000 L 21.000 3.000 21.000 4.349 M11.000 14.573 C 11.000 20.836,11.022 20.380,10.700 20.702 C 10.387 21.015,10.548 21.003,6.936 20.991 L 3.738 20.980 3.539 20.878 C 3.316 20.763,3.104 20.512,3.042 20.289 C 3.014 20.190,3.000 18.284,3.000 14.570 L 3.000 9.000 7.000 9.000 L 11.000 9.000 11.000 14.573 M6.694 11.057 C 6.602 11.086,6.470 11.150,6.401 11.200 C 6.260 11.299,4.139 14.447,4.054 14.680 C 3.893 15.127,4.117 15.673,4.550 15.886 C 4.733 15.977,4.784 15.981,5.930 16.000 L 7.120 16.020 6.600 16.800 C 6.313 17.229,6.061 17.643,6.040 17.720 C 5.824 18.489,6.572 19.204,7.318 18.941 C 7.410 18.908,7.539 18.843,7.606 18.796 C 7.749 18.694,9.860 15.545,9.943 15.310 C 10.103 14.857,9.885 14.328,9.450 14.114 C 9.267 14.023,9.216 14.019,8.070 14.000 L 6.880 13.980 7.383 13.225 C 7.660 12.810,7.912 12.399,7.943 12.310 C 8.210 11.553,7.473 10.814,6.694 11.057 " fill="#000640" stroke="none" fill-rule="evenodd"></path></svg>