<svg xmlns="http://www.w3.org/2000/svg" width="24" height="24" fill="currentColor" class="mmi mmi-email" viewBox="0 0 24 24"><path d="M3.503 3.042 C 2.488 3.214,1.556 3.976,1.202 4.925 C 0.994 5.481,1.001 5.233,1.001 11.992 C 1.000 18.878,0.989 18.550,1.234 19.151 C 1.521 19.857,2.143 20.479,2.849 20.766 C 3.457 21.014,2.925 21.000,12.000 21.000 C 21.073 21.000,20.544 21.013,21.150 20.767 C 21.850 20.482,22.482 19.850,22.767 19.150 C 23.011 18.551,23.000 18.876,23.000 12.000 C 23.000 5.123,23.011 5.449,22.766 4.849 C 22.499 4.193,21.964 3.633,21.296 3.312 C 20.634 2.993,21.532 3.022,12.120 3.015 C 7.489 3.012,3.611 3.024,3.503 3.042 M20.340 5.066 C 20.593 5.153,20.847 5.407,20.934 5.660 C 20.987 5.815,21.000 6.014,21.000 6.645 L 21.000 7.436 16.500 10.136 L 12.000 12.836 7.500 10.136 L 3.000 7.436 3.000 6.645 C 3.000 5.720,3.035 5.563,3.300 5.298 C 3.617 4.981,2.858 5.007,11.983 5.003 C 19.481 5.000,20.162 5.005,20.340 5.066 M11.340 14.722 C 11.683 14.854,12.315 14.854,12.660 14.722 C 12.792 14.671,14.723 13.535,16.950 12.198 L 21.000 9.765 21.000 13.955 C 21.000 18.668,21.018 18.384,20.701 18.701 C 20.376 19.026,21.144 19.000,12.000 19.000 C 2.856 19.000,3.624 19.026,3.299 18.701 C 2.982 18.384,3.000 18.668,3.000 13.959 L 3.000 9.772 7.050 12.200 C 9.277 13.536,11.208 14.671,11.340 14.722 " fill="#000640" stroke="none" fill-rule="evenodd"></path></svg>