<svg xmlns="http://www.w3.org/2000/svg" width="24" height="24" fill="currentColor" class="mmi mmi-email-open" viewBox="0 0 24 24"><path d="M11.576 1.220 C 11.441 1.249,11.252 1.313,11.156 1.361 C 11.059 1.410,8.807 2.753,6.151 4.347 C 2.693 6.421,1.293 7.280,1.222 7.374 C 0.988 7.681,1.000 7.338,1.000 13.567 C 1.000 19.821,0.990 19.553,1.234 20.151 C 1.521 20.857,2.143 21.479,2.849 21.766 C 3.457 22.014,2.925 22.000,12.000 22.000 C 21.073 22.000,20.544 22.013,21.150 21.767 C 21.850 21.482,22.482 20.850,22.767 20.150 C 23.009 19.554,23.000 19.820,23.000 13.567 C 23.000 7.338,23.012 7.681,22.778 7.374 C 22.707 7.280,21.307 6.421,17.849 4.347 C 15.193 2.753,12.942 1.410,12.846 1.362 C 12.643 1.259,12.209 1.160,11.980 1.164 C 11.892 1.165,11.710 1.190,11.576 1.220 M15.980 5.556 C 18.158 6.863,19.963 7.950,19.991 7.972 C 20.028 8.000,18.936 8.674,16.021 10.424 L 12.000 12.836 7.974 10.421 L 3.948 8.005 4.124 7.899 C 4.221 7.841,6.028 6.753,8.140 5.481 C 10.252 4.209,11.989 3.171,12.000 3.174 C 12.012 3.177,13.803 4.249,15.980 5.556 M11.340 14.722 C 11.683 14.854,12.315 14.854,12.660 14.722 C 12.792 14.671,14.723 13.535,16.950 12.198 L 21.000 9.765 21.000 14.455 C 21.000 19.728,21.020 19.382,20.701 19.701 C 20.376 20.026,21.144 20.000,12.000 20.000 C 2.856 20.000,3.624 20.026,3.299 19.701 C 2.980 19.382,3.000 19.728,3.000 14.459 L 3.000 9.772 7.050 12.200 C 9.277 13.536,11.208 14.671,11.340 14.722 " fill="#000640" stroke="none" fill-rule="evenodd"></path></svg>