<svg xmlns="http://www.w3.org/2000/svg" width="24" height="24" fill="currentColor" class="mmi mmi-equal-incircle" viewBox="0 0 24 24"><path d="M11.200 0.025 C 7.091 0.332,3.508 2.609,1.507 6.186 C 0.775 7.494,0.317 8.899,0.094 10.520 C -0.002 11.214,-0.002 12.786,0.094 13.480 C 0.317 15.101,0.775 16.506,1.507 17.814 C 4.173 22.579,9.604 24.939,14.910 23.637 C 19.156 22.595,22.595 19.156,23.637 14.910 C 24.599 10.992,23.592 6.970,20.896 3.958 C 19.003 1.843,16.397 0.483,13.500 0.099 C 13.032 0.037,11.640 -0.007,11.200 0.025 M12.920 2.043 C 14.827 2.219,16.631 2.940,18.200 4.155 C 18.637 4.493,19.507 5.363,19.845 5.800 C 21.878 8.427,22.517 11.768,21.578 14.865 C 21.082 16.499,20.272 17.850,19.061 19.061 C 18.287 19.836,17.547 20.383,16.623 20.863 C 13.714 22.376,10.286 22.376,7.377 20.863 C 6.454 20.383,5.715 19.837,4.938 19.061 C 3.951 18.075,3.213 16.964,2.722 15.728 C 1.390 12.368,1.921 8.686,4.153 5.800 C 4.491 5.363,5.363 4.491,5.800 4.153 C 7.114 3.137,8.541 2.486,10.125 2.181 C 11.037 2.006,12.003 1.958,12.920 2.043 M6.664 9.063 C 6.436 9.146,6.257 9.297,6.131 9.511 C 6.036 9.672,6.020 9.744,6.020 10.000 C 6.020 10.256,6.036 10.328,6.131 10.489 C 6.192 10.592,6.301 10.723,6.374 10.778 C 6.680 11.011,6.390 11.000,11.998 11.000 C 17.783 11.000,17.381 11.021,17.701 10.701 C 18.092 10.310,18.092 9.690,17.701 9.299 C 17.381 8.979,17.786 9.000,11.983 9.003 C 7.607 9.005,6.796 9.014,6.664 9.063 M6.664 13.063 C 6.436 13.146,6.257 13.297,6.131 13.511 C 6.036 13.672,6.020 13.744,6.020 14.000 C 6.020 14.256,6.036 14.328,6.131 14.489 C 6.192 14.592,6.301 14.723,6.374 14.778 C 6.680 15.011,6.390 15.000,11.998 15.000 C 17.783 15.000,17.381 15.021,17.701 14.701 C 18.092 14.310,18.092 13.690,17.701 13.299 C 17.381 12.979,17.786 13.000,11.983 13.003 C 7.607 13.005,6.796 13.014,6.664 13.063 " fill="#000640" stroke="none" fill-rule="evenodd"></path></svg>