<svg xmlns="http://www.w3.org/2000/svg" width="24" height="24" fill="currentColor" class="mmi mmi-equal" viewBox="0 0 24 24"><path d="M4.664 8.063 C 4.436 8.146,4.257 8.297,4.131 8.511 C 4.036 8.672,4.020 8.744,4.020 9.000 C 4.020 9.256,4.036 9.328,4.131 9.489 C 4.192 9.592,4.301 9.723,4.374 9.778 C 4.683 10.014,4.201 10.000,11.998 10.000 C 20.023 10.000,19.377 10.025,19.701 9.701 C 20.092 9.310,20.092 8.690,19.701 8.299 C 19.377 7.975,20.026 8.000,11.983 8.003 C 5.871 8.005,4.797 8.014,4.664 8.063 M4.664 14.063 C 4.436 14.146,4.257 14.297,4.131 14.511 C 4.036 14.672,4.020 14.744,4.020 15.000 C 4.020 15.256,4.036 15.328,4.131 15.489 C 4.192 15.592,4.301 15.723,4.374 15.778 C 4.683 16.014,4.201 16.000,11.998 16.000 C 20.023 16.000,19.377 16.025,19.701 15.701 C 20.092 15.310,20.092 14.690,19.701 14.299 C 19.377 13.975,20.026 14.000,11.983 14.003 C 5.871 14.005,4.797 14.014,4.664 14.063 " fill="#000640" stroke="none" fill-rule="evenodd"></path></svg>