<svg xmlns="http://www.w3.org/2000/svg" width="24" height="24" fill="currentColor" class="mmi mmi-euro" viewBox="0 0 24 24"><path d="M12.961 3.043 C 10.496 3.321,8.267 4.999,7.040 7.500 C 6.834 7.919,6.610 8.475,6.491 8.860 L 6.453 8.980 5.595 9.000 C 4.774 9.019,4.729 9.024,4.539 9.122 C 3.767 9.520,3.853 10.648,4.678 10.939 C 4.802 10.983,5.014 11.000,5.435 11.000 L 6.020 11.000 6.020 12.000 L 6.020 13.000 5.435 13.000 C 4.636 13.000,4.371 13.102,4.138 13.499 C 3.855 13.982,4.041 14.621,4.539 14.878 C 4.729 14.976,4.774 14.981,5.595 15.000 L 6.453 15.020 6.491 15.140 C 6.725 15.899,7.140 16.773,7.590 17.460 C 9.010 19.626,11.109 20.892,13.440 20.988 C 15.187 21.060,16.866 20.460,18.280 19.260 C 18.988 18.658,19.830 17.640,19.961 17.224 C 20.024 17.025,19.990 16.696,19.887 16.495 C 19.646 16.026,19.062 15.829,18.580 16.054 C 18.366 16.153,18.247 16.275,17.961 16.684 C 17.691 17.070,16.873 17.865,16.480 18.125 C 14.723 19.284,12.729 19.288,10.988 18.136 C 10.425 17.763,9.712 17.046,9.321 16.460 C 9.072 16.087,8.561 15.126,8.560 15.030 C 8.560 15.013,9.592 15.000,10.853 15.000 C 13.445 15.000,13.397 15.005,13.701 14.701 C 14.092 14.310,14.092 13.690,13.701 13.299 C 13.394 12.992,13.474 13.000,10.597 13.000 L 8.048 13.000 8.019 12.500 C 8.003 12.225,8.003 11.775,8.019 11.500 L 8.048 11.000 10.597 11.000 C 13.474 11.000,13.394 11.008,13.701 10.701 C 14.092 10.310,14.092 9.690,13.701 9.299 C 13.397 8.995,13.445 9.000,10.853 9.000 C 9.592 9.000,8.560 8.986,8.560 8.970 C 8.561 8.874,9.073 7.913,9.322 7.540 C 9.672 7.016,10.421 6.245,10.887 5.928 C 11.983 5.183,13.198 4.881,14.400 5.057 C 14.900 5.130,15.527 5.322,15.927 5.523 C 16.669 5.897,17.418 6.547,17.996 7.318 C 18.270 7.683,18.379 7.797,18.531 7.874 C 19.340 8.287,20.230 7.531,19.940 6.677 C 19.847 6.405,19.279 5.671,18.764 5.158 C 17.658 4.056,16.403 3.386,14.940 3.117 C 14.427 3.022,13.465 2.986,12.961 3.043 " fill="#000640" stroke="none" fill-rule="evenodd"></path></svg>