<svg xmlns="http://www.w3.org/2000/svg" width="24" height="24" fill="currentColor" class="mmi mmi-expand-less" viewBox="0 0 24 24"><path d="M12.670 4.175 C 12.446 4.258,12.255 4.420,12.131 4.631 L 12.020 4.820 12.009 7.575 C 11.997 10.571,11.996 10.561,12.223 11.028 C 12.423 11.440,12.868 11.829,13.350 12.012 C 13.577 12.098,13.614 12.099,16.355 12.111 C 19.490 12.125,19.374 12.135,19.694 11.824 C 20.220 11.313,20.023 10.424,19.330 10.177 C 19.211 10.134,18.649 10.123,16.590 10.122 L 14.000 10.120 13.998 7.530 C 13.996 4.739,14.000 4.784,13.783 4.501 C 13.546 4.190,13.032 4.039,12.670 4.175 M4.670 12.177 C 3.977 12.424,3.780 13.313,4.305 13.823 C 4.620 14.129,4.529 14.120,7.427 14.120 L 10.000 14.120 10.000 16.693 C 10.000 19.609,9.991 19.518,10.306 19.824 C 10.706 20.213,11.294 20.213,11.694 19.824 C 12.010 19.517,12.000 19.620,12.000 16.595 C 12.000 14.799,11.986 13.854,11.956 13.712 C 11.807 13.000,11.217 12.374,10.523 12.193 C 10.287 12.132,9.981 12.125,7.540 12.124 C 5.368 12.124,4.790 12.134,4.670 12.177 " fill="#000640" stroke="none" fill-rule="evenodd"></path></svg>