<svg xmlns="http://www.w3.org/2000/svg" width="24" height="24" fill="currentColor" class="mmi mmi-ey-close" viewBox="0 0 24 24"><path d="M0.659 8.061 C 0.417 8.151,0.218 8.335,0.097 8.582 C 0.004 8.773,-0.008 8.837,0.010 9.060 C 0.024 9.234,0.063 9.372,0.132 9.488 C 0.279 9.739,0.815 10.363,1.256 10.800 C 1.467 11.009,1.640 11.194,1.640 11.210 C 1.640 11.227,1.289 11.767,0.860 12.411 C -0.033 13.750,-0.067 13.829,0.058 14.260 C 0.154 14.587,0.409 14.845,0.729 14.939 C 1.017 15.022,1.240 14.993,1.516 14.835 C 1.706 14.726,1.778 14.632,2.467 13.599 C 2.877 12.983,3.227 12.480,3.245 12.480 C 3.263 12.480,3.426 12.577,3.609 12.696 C 4.053 12.985,4.814 13.398,5.280 13.603 C 5.489 13.695,5.674 13.783,5.692 13.798 C 5.709 13.814,5.561 14.398,5.362 15.096 C 5.163 15.794,5.000 16.424,5.000 16.496 C 5.000 16.687,5.106 16.964,5.241 17.129 C 5.676 17.656,6.571 17.564,6.879 16.960 C 6.918 16.883,7.098 16.298,7.280 15.660 C 7.461 15.022,7.616 14.489,7.624 14.475 C 7.632 14.462,7.841 14.500,8.089 14.560 C 8.872 14.751,10.288 14.959,10.810 14.960 L 11.000 14.960 11.000 16.050 C 11.000 16.677,11.018 17.203,11.042 17.289 C 11.103 17.509,11.315 17.762,11.531 17.874 C 11.932 18.080,12.390 18.012,12.700 17.702 C 12.979 17.423,13.000 17.310,13.000 16.061 L 13.000 14.977 13.590 14.929 C 14.407 14.863,15.778 14.627,16.325 14.458 C 16.380 14.441,16.436 14.623,16.681 15.609 C 16.841 16.253,17.008 16.857,17.051 16.951 C 17.190 17.252,17.608 17.520,17.940 17.520 C 18.261 17.520,18.686 17.255,18.822 16.971 C 18.987 16.624,18.982 16.577,18.642 15.209 C 18.469 14.511,18.321 13.908,18.313 13.868 C 18.303 13.811,18.402 13.749,18.800 13.565 C 19.375 13.300,19.915 13.004,20.394 12.693 C 20.578 12.574,20.744 12.482,20.764 12.488 C 20.783 12.495,21.137 13.004,21.550 13.620 C 22.387 14.869,22.459 14.943,22.889 14.987 C 23.610 15.062,24.180 14.360,23.943 13.690 C 23.912 13.601,23.543 13.014,23.123 12.385 C 22.704 11.756,22.360 11.229,22.360 11.215 C 22.360 11.201,22.599 10.944,22.890 10.644 C 23.508 10.009,23.898 9.508,23.963 9.269 C 24.144 8.601,23.585 7.934,22.911 8.014 C 22.555 8.056,22.388 8.170,22.030 8.614 C 20.230 10.850,17.408 12.384,14.260 12.837 C 10.256 13.413,6.375 12.467,3.601 10.237 C 3.059 9.802,2.381 9.127,1.969 8.614 C 1.727 8.313,1.596 8.186,1.461 8.120 C 1.229 8.008,0.873 7.982,0.659 8.061 " fill="#000640" stroke="none" fill-rule="evenodd"></path></svg>