<svg xmlns="http://www.w3.org/2000/svg" width="24" height="24" fill="currentColor" class="mmi mmi-eye-open" viewBox="0 0 24 24"><path d="M11.060 3.043 C 8.449 3.288,5.897 4.392,3.697 6.230 C 1.688 7.907,0.247 10.033,0.035 11.630 C -0.150 13.025,0.867 15.015,2.710 16.863 C 5.745 19.907,9.823 21.426,13.500 20.883 C 15.696 20.558,17.848 19.567,19.900 17.934 C 20.451 17.496,21.802 16.151,22.223 15.621 C 22.686 15.037,23.237 14.194,23.494 13.674 C 24.152 12.348,24.152 11.652,23.494 10.326 C 23.237 9.806,22.686 8.963,22.223 8.379 C 21.802 7.849,20.451 6.504,19.900 6.066 C 17.854 4.438,15.702 3.445,13.512 3.117 C 12.889 3.024,11.656 2.987,11.060 3.043 M13.400 5.120 C 14.369 5.290,15.275 5.594,16.240 6.074 C 17.921 6.911,19.435 8.133,20.680 9.660 C 21.246 10.354,21.776 11.240,21.942 11.770 C 22.011 11.987,22.011 12.012,21.948 12.212 C 21.682 13.055,20.806 14.312,19.740 15.380 C 17.870 17.254,15.619 18.496,13.400 18.878 C 10.421 19.392,7.047 18.205,4.376 15.702 C 3.628 15.001,2.899 14.090,2.475 13.325 C 2.225 12.876,2.001 12.249,2.001 12.000 C 2.001 11.751,2.225 11.124,2.475 10.675 C 3.443 8.932,5.400 7.151,7.459 6.140 C 8.672 5.544,9.741 5.212,10.930 5.060 C 11.578 4.978,12.750 5.007,13.400 5.120 M11.340 7.046 C 10.849 7.108,10.317 7.273,9.820 7.517 C 8.374 8.226,7.390 9.510,7.075 11.100 C 7.002 11.468,7.002 12.532,7.075 12.900 C 7.482 14.953,9.047 16.518,11.100 16.925 C 11.468 16.998,12.532 16.998,12.900 16.925 C 14.723 16.564,16.191 15.273,16.753 13.539 C 16.940 12.961,16.980 12.680,16.978 11.960 C 16.976 11.381,16.963 11.247,16.869 10.869 C 16.678 10.104,16.374 9.473,15.926 8.912 C 14.822 7.527,13.090 6.823,11.340 7.046 M12.756 9.097 C 13.093 9.189,13.595 9.447,13.873 9.671 C 14.554 10.219,15.000 11.140,15.000 12.000 C 15.000 13.170,14.225 14.329,13.151 14.766 C 11.642 15.380,9.989 14.734,9.298 13.260 C 9.072 12.779,9.021 12.546,9.021 12.000 C 9.021 11.454,9.072 11.221,9.298 10.740 C 9.716 9.848,10.537 9.215,11.503 9.040 C 11.770 8.991,12.491 9.024,12.756 9.097 " fill="#000640" stroke="none" fill-rule="evenodd"></path></svg>