<svg xmlns="http://www.w3.org/2000/svg" width="24" height="24" fill="currentColor" class="mmi mmi-facetime" viewBox="0 0 24 24"><path d="M2.380 3.186 C 1.425 3.391,0.610 4.064,0.236 4.957 C -0.010 5.547,0.000 5.231,-0.000 12.120 C -0.000 17.568,0.008 18.442,0.060 18.696 C 0.288 19.797,1.086 20.658,2.200 21.006 L 2.500 21.100 9.000 21.100 L 15.500 21.100 15.800 21.006 C 16.914 20.658,17.712 19.797,17.940 18.696 C 17.983 18.486,18.000 18.152,18.000 17.517 C 18.000 16.692,18.005 16.632,18.070 16.651 C 18.108 16.662,19.179 17.105,20.450 17.636 C 22.577 18.523,22.779 18.600,22.995 18.600 C 23.383 18.600,23.710 18.405,23.892 18.064 L 23.980 17.900 23.991 12.446 C 23.998 8.863,23.987 6.941,23.961 6.843 C 23.859 6.464,23.495 6.168,23.087 6.131 C 22.865 6.111,22.733 6.150,20.477 6.901 C 19.170 7.336,18.079 7.699,18.053 7.709 C 18.019 7.721,18.002 7.446,17.989 6.653 C 17.970 5.469,17.950 5.343,17.696 4.812 C 17.340 4.065,16.622 3.467,15.780 3.214 C 15.554 3.146,15.173 3.142,9.100 3.134 C 3.502 3.127,2.623 3.134,2.380 3.186 M15.330 5.177 C 15.551 5.256,15.744 5.418,15.869 5.631 L 15.980 5.820 15.980 12.100 C 15.980 18.259,15.978 18.383,15.902 18.538 C 15.858 18.625,15.754 18.763,15.670 18.845 C 15.366 19.140,15.844 19.120,9.000 19.120 C 2.087 19.120,2.631 19.145,2.299 18.813 C 1.976 18.490,1.998 18.997,2.010 12.018 L 2.020 5.820 2.131 5.631 C 2.256 5.418,2.449 5.256,2.670 5.177 C 2.892 5.098,15.108 5.098,15.330 5.177 M8.440 7.182 C 7.759 7.328,7.077 7.874,6.769 8.520 C 6.680 8.707,6.588 8.955,6.564 9.072 C 6.501 9.374,6.510 9.943,6.580 10.222 C 6.794 11.066,7.482 11.770,8.340 12.024 C 8.666 12.120,9.334 12.120,9.660 12.024 C 10.518 11.770,11.206 11.066,11.420 10.222 C 11.490 9.943,11.499 9.374,11.436 9.072 C 11.255 8.188,10.431 7.366,9.540 7.180 C 9.195 7.108,8.783 7.109,8.440 7.182 M22.000 12.318 L 22.000 16.116 21.550 15.929 C 21.303 15.826,20.407 15.453,19.560 15.100 L 18.020 14.458 18.020 12.142 L 18.020 9.827 19.960 9.176 C 21.027 8.819,21.922 8.525,21.950 8.523 C 21.990 8.521,22.000 9.305,22.000 12.318 M8.120 13.165 C 6.627 13.336,5.500 13.929,4.739 14.940 C 4.538 15.207,4.217 15.869,4.156 16.141 C 4.073 16.511,4.224 16.824,4.575 17.012 L 4.740 17.100 9.000 17.100 L 13.260 17.100 13.425 17.012 C 13.773 16.826,13.928 16.508,13.846 16.151 C 13.789 15.904,13.498 15.279,13.320 15.021 C 12.718 14.145,11.686 13.503,10.498 13.265 C 9.794 13.124,8.831 13.083,8.120 13.165 " fill="#000640" stroke="none" fill-rule="evenodd"></path></svg>