<svg xmlns="http://www.w3.org/2000/svg" width="24" height="24" fill="currentColor" class="mmi mmi-fan" viewBox="0 0 24 24"><path d="M11.336 1.058 C 10.091 1.252,8.955 2.002,8.167 3.153 C 6.960 4.915,6.670 7.261,7.401 9.340 C 7.555 9.777,7.857 10.391,8.077 10.716 C 8.167 10.848,8.240 10.966,8.240 10.978 C 8.240 10.990,6.802 11.000,5.045 11.000 C 2.289 11.000,1.826 11.008,1.678 11.061 C 1.258 11.209,1.036 11.519,1.009 11.995 C 0.976 12.580,1.201 13.482,1.528 14.074 C 2.762 16.310,5.813 17.481,8.645 16.805 C 9.351 16.637,10.192 16.278,10.716 15.923 C 10.848 15.833,10.966 15.760,10.978 15.760 C 10.990 15.760,11.000 17.195,11.000 18.950 C 11.000 21.024,11.015 22.192,11.042 22.289 C 11.103 22.511,11.316 22.763,11.536 22.876 C 11.880 23.053,12.486 23.031,13.236 22.814 C 15.924 22.037,17.576 18.585,16.805 15.355 C 16.637 14.649,16.278 13.808,15.923 13.284 C 15.833 13.152,15.760 13.034,15.760 13.022 C 15.760 13.010,17.197 13.000,18.953 13.000 C 22.550 13.000,22.389 13.013,22.701 12.701 C 22.994 12.408,23.063 12.011,22.941 11.313 C 22.671 9.764,21.680 8.523,20.067 7.714 C 17.970 6.661,15.267 6.802,13.309 8.065 C 13.160 8.161,13.029 8.240,13.019 8.240 C 13.008 8.240,13.000 6.803,13.000 5.047 C 13.000 1.450,13.013 1.611,12.701 1.299 C 12.411 1.009,12.055 0.947,11.336 1.058 M11.000 7.003 L 11.000 10.765 10.836 10.673 C 10.319 10.383,9.819 9.824,9.500 9.180 C 8.849 7.869,8.841 6.167,9.480 4.854 C 9.684 4.435,10.021 3.973,10.317 3.707 C 10.463 3.576,10.944 3.240,10.986 3.240 C 10.994 3.240,11.000 4.933,11.000 7.003 M17.720 9.059 C 18.311 9.140,18.673 9.249,19.180 9.500 C 19.824 9.819,20.382 10.319,20.673 10.836 L 20.765 11.000 17.000 11.000 L 13.235 11.000 13.327 10.836 C 13.618 10.319,14.176 9.819,14.820 9.500 C 15.699 9.065,16.676 8.916,17.720 9.059 M10.716 13.090 C 10.603 13.308,10.307 13.683,10.090 13.884 C 8.485 15.371,5.515 15.371,3.910 13.884 C 3.693 13.683,3.397 13.308,3.284 13.090 L 3.237 13.000 7.000 13.000 L 10.763 13.000 10.716 13.090 M13.424 13.503 C 14.504 14.266,15.127 15.878,14.967 17.493 C 14.861 18.563,14.508 19.405,13.876 20.096 C 13.684 20.306,13.309 20.603,13.090 20.716 L 13.000 20.763 13.000 17.000 L 13.000 13.237 13.090 13.284 C 13.139 13.310,13.290 13.408,13.424 13.503 " fill="#000640" stroke="none" fill-rule="evenodd"></path></svg>