<svg xmlns="http://www.w3.org/2000/svg" width="24" height="24" fill="currentColor" class="mmi mmi-femaletanktop" viewBox="0 0 24 24"><path d="M6.664 1.063 C 6.441 1.144,6.257 1.296,6.144 1.491 C 6.073 1.615,5.918 2.240,5.560 3.855 L 5.073 6.051 4.734 6.534 C 3.792 7.874,3.186 9.118,3.042 10.003 C 2.889 10.951,3.196 12.185,3.811 13.096 L 3.944 13.292 3.473 16.576 C 3.215 18.382,3.002 19.924,3.001 20.003 C 2.999 20.240,3.119 20.521,3.300 20.702 C 3.439 20.841,3.576 20.912,4.104 21.119 C 6.722 22.148,8.724 22.670,10.716 22.843 C 11.411 22.904,13.133 22.870,13.800 22.783 C 15.171 22.603,16.544 22.273,18.140 21.740 C 19.552 21.268,20.451 20.918,20.636 20.768 C 20.825 20.615,20.971 20.325,20.988 20.067 C 20.996 19.943,20.811 18.536,20.529 16.576 L 20.056 13.292 20.190 13.096 C 20.673 12.392,21.001 11.353,21.000 10.527 C 20.999 9.514,20.415 8.169,19.266 6.534 L 18.927 6.051 18.439 3.855 C 18.171 2.648,17.919 1.597,17.879 1.520 C 17.654 1.082,17.032 0.869,16.578 1.075 C 16.255 1.222,16.000 1.619,16.000 1.975 C 16.000 2.055,16.181 2.935,16.401 3.930 C 16.622 4.926,16.807 5.764,16.811 5.794 C 16.835 5.941,14.879 6.395,13.580 6.544 C 12.312 6.689,10.623 6.623,9.280 6.376 C 8.269 6.189,7.174 5.885,7.189 5.794 C 7.193 5.764,7.379 4.921,7.602 3.920 C 8.048 1.914,8.057 1.833,7.862 1.499 C 7.621 1.088,7.107 0.901,6.664 1.063 M7.063 7.900 C 8.799 8.403,10.243 8.611,12.000 8.611 C 13.382 8.611,14.474 8.493,15.780 8.201 C 16.252 8.096,17.532 7.742,17.605 7.697 C 17.679 7.651,18.529 9.072,18.760 9.625 C 19.004 10.212,19.039 10.470,18.942 10.974 C 18.866 11.375,18.669 11.784,18.347 12.214 C 18.083 12.566,18.001 12.749,18.000 12.981 C 18.000 13.048,18.198 14.488,18.440 16.180 C 18.682 17.872,18.880 19.280,18.880 19.308 C 18.880 19.378,18.736 19.434,17.520 19.841 C 15.319 20.576,13.689 20.879,11.940 20.879 C 10.521 20.879,9.329 20.702,7.760 20.259 C 6.691 19.957,5.166 19.422,5.133 19.337 C 5.124 19.311,5.314 17.897,5.558 16.195 C 5.801 14.493,6.000 13.045,6.000 12.977 C 6.000 12.761,5.885 12.508,5.659 12.227 C 5.227 11.690,4.959 10.928,5.014 10.396 C 5.059 9.964,5.373 9.247,5.868 8.444 C 6.195 7.916,6.364 7.678,6.398 7.699 C 6.413 7.708,6.712 7.799,7.063 7.900 " fill="#000640" stroke="none" fill-rule="evenodd"></path></svg>