<svg xmlns="http://www.w3.org/2000/svg" width="24" height="24" fill="currentColor" class="mmi mmi-female" viewBox="0 0 24 24"><path d="M11.200 1.044 C 8.467 1.307,6.006 3.031,4.800 5.529 C 3.458 8.307,3.829 11.579,5.761 14.000 C 6.070 14.387,6.695 15.006,7.080 15.307 C 7.752 15.832,8.650 16.314,9.457 16.582 C 9.896 16.729,10.714 16.920,10.900 16.920 L 11.000 16.920 11.000 17.960 L 11.000 19.000 9.927 19.000 C 8.692 19.000,8.577 19.021,8.299 19.299 C 7.908 19.690,7.908 20.310,8.299 20.701 C 8.577 20.979,8.692 21.000,9.927 21.000 L 11.000 21.000 11.000 22.073 C 11.000 23.308,11.021 23.423,11.299 23.701 C 11.690 24.092,12.310 24.092,12.701 23.701 C 12.979 23.423,13.000 23.308,13.000 22.073 L 13.000 21.000 14.073 21.000 C 15.308 21.000,15.423 20.979,15.701 20.701 C 16.092 20.310,16.092 19.690,15.701 19.299 C 15.423 19.021,15.308 19.000,14.073 19.000 L 13.000 19.000 13.000 17.960 L 13.000 16.920 13.100 16.920 C 13.155 16.920,13.404 16.877,13.653 16.824 C 17.338 16.043,19.999 12.763,19.999 9.000 C 19.999 5.917,18.217 3.108,15.412 1.773 C 14.124 1.159,12.651 0.904,11.200 1.044 M13.041 3.097 C 14.371 3.333,15.638 4.046,16.506 5.045 C 17.229 5.879,17.707 6.879,17.909 7.980 C 17.999 8.468,17.999 9.532,17.909 10.020 C 17.805 10.587,17.653 11.064,17.423 11.545 C 16.584 13.296,15.102 14.462,13.174 14.887 C 12.603 15.013,11.397 15.013,10.826 14.887 C 8.341 14.339,6.548 12.496,6.090 10.020 C 6.000 9.531,6.000 8.469,6.090 7.980 C 6.394 6.335,7.309 4.928,8.660 4.025 C 9.725 3.313,10.873 2.981,12.140 3.019 C 12.448 3.029,12.853 3.063,13.041 3.097 " fill="#000640" stroke="none" fill-rule="evenodd"></path></svg>