<svg xmlns="http://www.w3.org/2000/svg" width="24" height="24" fill="currentColor" class="mmi mmi-ferriswheel" viewBox="0 0 24 24"><path d="M11.096 0.038 C 7.724 0.343,4.749 2.071,2.875 4.814 C 1.309 7.106,0.676 10.024,1.161 12.715 C 1.485 14.515,2.251 16.206,3.391 17.640 C 3.760 18.103,4.579 18.925,5.040 19.294 C 5.513 19.673,6.297 20.188,6.823 20.466 L 7.265 20.700 6.889 21.740 C 6.586 22.578,6.513 22.823,6.513 23.002 C 6.512 23.405,6.720 23.724,7.100 23.905 L 7.300 23.999 12.223 24.000 C 17.758 24.000,17.381 24.021,17.702 23.700 C 17.905 23.497,18.017 23.196,17.991 22.925 C 17.981 22.817,17.789 22.277,17.531 21.630 L 17.089 20.520 17.454 20.314 C 18.846 19.530,20.104 18.391,21.027 17.080 C 22.379 15.158,23.068 12.850,22.987 10.520 C 22.887 7.681,21.716 5.066,19.654 3.080 C 18.794 2.252,17.981 1.688,16.860 1.140 C 15.357 0.405,13.914 0.056,12.240 0.021 C 11.811 0.013,11.296 0.020,11.096 0.038 M13.300 2.099 C 13.820 2.178,14.433 2.317,14.461 2.362 C 14.484 2.399,12.040 8.240,12.002 8.240 C 11.976 8.239,9.537 2.402,9.547 2.365 C 9.565 2.300,10.525 2.107,11.160 2.040 C 11.624 1.992,12.813 2.024,13.300 2.099 M7.854 3.550 C 8.874 5.970,10.117 8.977,10.103 8.990 C 10.077 9.016,4.161 6.585,4.161 6.549 C 4.160 6.532,4.250 6.374,4.360 6.197 C 5.046 5.089,6.106 4.041,7.234 3.354 C 7.445 3.225,7.629 3.120,7.645 3.120 C 7.660 3.120,7.754 3.314,7.854 3.550 M17.060 3.545 C 18.147 4.265,19.092 5.268,19.793 6.444 L 19.879 6.588 16.889 7.807 C 15.245 8.477,13.894 9.022,13.887 9.016 C 13.874 9.007,16.244 3.349,16.328 3.188 C 16.363 3.120,16.377 3.122,16.553 3.224 C 16.656 3.284,16.884 3.428,17.060 3.545 M6.750 9.802 C 8.163 10.382,9.306 10.869,9.290 10.885 C 9.259 10.914,3.503 13.263,3.404 13.287 C 3.282 13.316,3.054 12.104,3.015 11.220 C 2.978 10.391,3.098 9.291,3.301 8.610 L 3.361 8.406 3.771 8.576 C 3.996 8.670,5.336 9.222,6.750 9.802 M20.759 8.854 C 20.932 9.598,20.973 9.988,20.973 10.880 C 20.973 11.494,20.954 11.854,20.907 12.140 C 20.826 12.626,20.681 13.247,20.638 13.295 C 20.608 13.328,14.681 10.925,14.681 10.880 C 14.681 10.841,20.620 8.445,20.648 8.472 C 20.663 8.488,20.713 8.659,20.759 8.854 M9.037 15.774 L 7.949 18.796 7.725 18.681 C 6.387 18.000,5.041 16.718,4.243 15.366 L 4.126 15.167 4.573 14.983 C 6.573 14.159,10.102 12.730,10.113 12.740 C 10.120 12.747,9.636 14.112,9.037 15.774 M16.935 13.984 C 18.522 14.635,19.826 15.173,19.833 15.180 C 19.880 15.225,19.326 16.054,18.938 16.520 C 18.569 16.964,17.914 17.585,17.454 17.928 C 17.051 18.227,16.368 18.661,16.341 18.634 C 16.331 18.623,14.512 14.091,14.076 12.990 C 14.035 12.886,14.012 12.800,14.026 12.800 C 14.039 12.800,15.348 13.333,16.935 13.984 M13.817 17.740 L 15.512 21.980 13.879 21.990 C 12.981 21.996,11.500 21.996,10.589 21.990 L 8.932 21.980 10.457 17.740 C 11.296 15.408,11.998 13.464,12.016 13.420 L 12.048 13.340 12.085 13.420 C 12.105 13.464,12.884 15.408,13.817 17.740 " fill="#000640" stroke="none" fill-rule="evenodd"></path></svg>