<svg xmlns="http://www.w3.org/2000/svg" width="24" height="24" fill="currentColor" class="mmi mmi-file-delete" viewBox="0 0 24 24"><path d="M4.503 1.042 C 3.820 1.157,3.117 1.573,2.670 2.127 C 2.445 2.407,2.159 2.980,2.074 3.320 C 1.993 3.647,1.993 20.353,2.074 20.680 C 2.159 21.020,2.445 21.593,2.670 21.873 C 2.950 22.220,3.312 22.501,3.740 22.704 C 4.406 23.019,3.877 23.000,12.000 23.000 C 20.123 23.000,19.594 23.019,20.260 22.704 C 20.920 22.391,21.391 21.920,21.704 21.260 C 22.015 20.603,22.000 20.944,22.000 14.543 C 22.000 9.408,21.994 8.835,21.935 8.657 C 21.876 8.477,21.563 8.152,18.205 4.795 C 14.848 1.437,14.523 1.124,14.343 1.065 C 14.165 1.006,13.676 1.000,9.423 1.005 C 6.825 1.007,4.611 1.024,4.503 1.042 M13.010 5.270 C 13.027 7.793,13.015 7.680,13.312 8.296 C 13.614 8.924,14.095 9.398,14.740 9.704 C 15.342 9.989,15.460 10.000,17.884 10.000 L 20.000 10.000 20.000 15.073 C 20.000 20.774,20.021 20.381,19.701 20.701 C 19.377 21.025,20.023 21.000,11.998 21.000 C 4.201 21.000,4.683 21.014,4.374 20.778 C 4.301 20.723,4.192 20.592,4.131 20.489 L 4.020 20.300 4.020 12.000 L 4.020 3.700 4.131 3.511 C 4.256 3.298,4.449 3.136,4.670 3.057 C 4.791 3.014,5.598 3.003,8.908 3.002 L 12.996 3.000 13.010 5.270 M17.230 7.991 C 16.299 7.999,15.848 7.989,15.728 7.956 C 15.487 7.890,15.265 7.716,15.133 7.492 L 15.020 7.300 15.009 5.860 L 14.997 4.420 16.779 6.200 L 18.560 7.980 17.230 7.991 M9.122 11.583 C 8.734 11.751,8.507 12.090,8.506 12.500 C 8.506 12.886,8.589 12.999,9.633 14.050 L 10.578 15.000 9.631 15.950 C 8.615 16.970,8.522 17.095,8.521 17.455 C 8.519 17.771,8.597 17.960,8.819 18.181 C 9.040 18.403,9.229 18.481,9.545 18.479 C 9.905 18.478,10.030 18.385,11.050 17.369 L 12.000 16.422 12.950 17.369 C 13.970 18.385,14.095 18.478,14.455 18.479 C 14.771 18.481,14.960 18.403,15.181 18.181 C 15.403 17.960,15.481 17.771,15.479 17.455 C 15.478 17.095,15.385 16.970,14.369 15.950 L 13.422 15.000 14.369 14.050 C 15.046 13.371,15.339 13.049,15.397 12.920 C 15.622 12.422,15.384 11.820,14.873 11.601 C 14.627 11.495,14.269 11.503,14.038 11.619 C 13.962 11.658,13.473 12.114,12.950 12.633 L 12.000 13.578 11.050 12.631 C 10.371 11.954,10.049 11.661,9.920 11.603 C 9.703 11.505,9.323 11.496,9.122 11.583 " fill="#000640" stroke="none" fill-rule="evenodd"></path></svg>