<svg xmlns="http://www.w3.org/2000/svg" width="24" height="24" fill="currentColor" class="mmi mmi-file-document" viewBox="0 0 24 24"><path d="M4.503 1.042 C 3.820 1.157,3.117 1.573,2.670 2.127 C 2.445 2.407,2.159 2.980,2.074 3.320 C 1.993 3.647,1.993 20.353,2.074 20.680 C 2.159 21.020,2.445 21.593,2.670 21.873 C 2.950 22.220,3.312 22.501,3.740 22.704 C 4.406 23.019,3.877 23.000,12.000 23.000 C 20.123 23.000,19.594 23.019,20.260 22.704 C 20.920 22.391,21.391 21.920,21.704 21.260 C 22.015 20.603,22.000 20.944,22.000 14.543 C 22.000 9.408,21.994 8.835,21.935 8.657 C 21.876 8.477,21.563 8.152,18.205 4.795 C 14.848 1.437,14.523 1.124,14.343 1.065 C 14.165 1.006,13.676 1.000,9.423 1.005 C 6.825 1.007,4.611 1.024,4.503 1.042 M13.010 5.270 C 13.027 7.793,13.015 7.680,13.312 8.296 C 13.614 8.924,14.095 9.398,14.740 9.704 C 15.342 9.989,15.460 10.000,17.884 10.000 L 20.000 10.000 20.000 15.073 C 20.000 20.774,20.021 20.381,19.701 20.701 C 19.377 21.025,20.023 21.000,11.998 21.000 C 4.201 21.000,4.683 21.014,4.374 20.778 C 4.301 20.723,4.192 20.592,4.131 20.489 L 4.020 20.300 4.020 12.000 L 4.020 3.700 4.131 3.511 C 4.256 3.298,4.449 3.136,4.670 3.057 C 4.791 3.014,5.598 3.003,8.908 3.002 L 12.996 3.000 13.010 5.270 M17.230 7.991 C 16.299 7.999,15.848 7.989,15.728 7.956 C 15.487 7.890,15.265 7.716,15.133 7.492 L 15.020 7.300 15.009 5.860 L 14.997 4.420 16.779 6.200 L 18.560 7.980 17.230 7.991 M7.664 12.063 C 7.436 12.146,7.257 12.297,7.131 12.511 C 7.036 12.672,7.020 12.744,7.020 13.000 C 7.020 13.256,7.036 13.328,7.131 13.489 C 7.192 13.592,7.301 13.723,7.374 13.778 C 7.677 14.009,7.484 14.000,11.998 14.000 C 16.663 14.000,16.384 14.018,16.701 13.701 C 17.092 13.310,17.092 12.690,16.701 12.299 C 16.384 11.982,16.666 12.000,11.983 12.003 C 8.474 12.005,7.795 12.015,7.664 12.063 M7.664 16.063 C 7.436 16.146,7.257 16.297,7.131 16.511 C 7.036 16.672,7.020 16.744,7.020 17.000 C 7.020 17.256,7.036 17.328,7.131 17.489 C 7.192 17.592,7.301 17.723,7.374 17.778 C 7.677 18.009,7.484 18.000,11.998 18.000 C 16.663 18.000,16.384 18.018,16.701 17.701 C 17.092 17.310,17.092 16.690,16.701 16.299 C 16.384 15.982,16.666 16.000,11.983 16.003 C 8.474 16.005,7.795 16.015,7.664 16.063 " fill="#000640" stroke="none" fill-rule="evenodd"></path></svg>