<svg xmlns="http://www.w3.org/2000/svg" width="24" height="24" fill="currentColor" class="mmi mmi-file" viewBox="0 0 24 24"><path d="M4.503 1.042 C 3.490 1.212,2.556 1.976,2.202 2.925 C 1.992 3.487,2.001 3.068,2.001 11.992 C 2.000 21.076,1.986 20.543,2.234 21.151 C 2.521 21.857,3.143 22.479,3.849 22.766 C 4.453 23.012,4.024 23.000,12.000 23.000 C 19.974 23.000,19.547 23.012,20.150 22.767 C 20.850 22.482,21.482 21.850,21.767 21.150 C 22.009 20.554,22.000 20.820,22.000 14.569 C 22.000 9.410,21.994 8.835,21.935 8.657 C 21.876 8.477,21.563 8.152,18.205 4.795 C 14.848 1.437,14.523 1.124,14.343 1.065 C 14.165 1.006,13.676 1.000,9.423 1.005 C 6.825 1.007,4.611 1.024,4.503 1.042 M13.000 5.142 C 13.000 7.477,13.010 7.600,13.234 8.151 C 13.521 8.857,14.143 9.479,14.849 9.766 C 15.400 9.990,15.523 10.000,17.858 10.000 L 20.000 10.000 20.000 15.073 C 20.000 20.774,20.021 20.381,19.701 20.701 C 19.377 21.025,20.023 21.000,12.000 21.000 C 3.977 21.000,4.623 21.025,4.299 20.701 C 3.974 20.376,4.000 21.144,4.000 12.000 C 4.000 2.855,3.973 3.624,4.300 3.298 C 4.609 2.989,4.331 3.007,8.910 3.003 L 13.000 3.000 13.000 5.142 M17.212 7.991 C 15.665 8.003,15.589 7.991,15.300 7.702 C 15.012 7.414,15.000 7.340,15.000 5.783 L 15.000 4.420 16.780 6.200 L 18.560 7.980 17.212 7.991 " fill="#000640" stroke="none" fill-rule="evenodd"></path></svg>