<svg xmlns="http://www.w3.org/2000/svg" width="24" height="24" fill="currentColor" class="mmi mmi-filter" viewBox="0 0 24 24"><path d="M1.689 2.059 C 1.179 2.218,0.881 2.793,1.051 3.291 C 1.084 3.389,2.662 5.905,4.556 8.882 L 8.000 14.294 8.000 17.720 C 8.000 21.579,7.986 21.388,8.300 21.702 C 8.509 21.911,8.803 22.018,9.093 21.990 C 9.390 21.961,15.455 18.940,15.702 18.697 C 16.000 18.405,16.000 18.403,16.000 16.220 L 16.000 14.294 19.443 8.884 C 21.336 5.908,22.911 3.401,22.943 3.312 C 23.066 2.962,22.971 2.569,22.697 2.295 C 22.376 1.974,23.334 2.000,11.983 2.003 C 3.655 2.005,1.830 2.015,1.689 2.059 M20.090 4.130 C 20.048 4.202,18.686 6.345,17.064 8.893 C 15.441 11.441,14.089 13.599,14.057 13.688 C 14.011 13.819,14.000 14.187,14.000 15.615 L 14.000 17.380 12.020 18.370 C 10.931 18.915,10.031 19.360,10.020 19.360 C 10.009 19.360,10.000 18.120,10.000 16.605 C 10.000 14.319,9.990 13.822,9.943 13.688 C 9.911 13.599,8.559 11.441,6.936 8.893 C 5.314 6.345,3.952 4.202,3.910 4.130 L 3.832 4.000 12.000 4.000 L 20.168 4.000 20.090 4.130 " fill="#000640" stroke="none" fill-rule="evenodd"></path></svg>