<svg xmlns="http://www.w3.org/2000/svg" width="24" height="24" fill="currentColor" class="mmi mmi-filter copy" viewBox="0 0 24 24"><path d="M3.670 6.177 C 2.977 6.424,2.780 7.313,3.305 7.823 C 3.638 8.146,2.873 8.120,12.000 8.120 C 21.127 8.120,20.362 8.146,20.695 7.823 C 21.220 7.313,21.023 6.424,20.330 6.177 C 20.107 6.098,3.893 6.098,3.670 6.177 M6.670 11.177 C 5.977 11.424,5.780 12.313,6.305 12.823 C 6.633 13.141,6.228 13.120,12.000 13.120 C 17.772 13.120,17.367 13.141,17.695 12.823 C 18.220 12.313,18.023 11.424,17.330 11.177 C 17.108 11.098,6.892 11.098,6.670 11.177 M9.670 16.177 C 8.977 16.424,8.780 17.313,9.305 17.823 C 9.615 18.124,9.578 18.120,12.000 18.120 C 14.422 18.120,14.385 18.124,14.695 17.823 C 15.220 17.313,15.023 16.424,14.330 16.177 C 14.111 16.099,9.889 16.099,9.670 16.177 " fill="#000640" stroke="none" fill-rule="evenodd"></path></svg>