<svg xmlns="http://www.w3.org/2000/svg" width="24" height="24" fill="currentColor" class="mmi mmi-fire" viewBox="0 0 24 24"><path d="M12.480 1.067 C 12.059 1.221,11.187 2.366,10.537 3.617 C 10.086 4.487,9.626 5.797,9.478 6.632 C 9.450 6.792,9.416 6.930,9.403 6.938 C 9.390 6.946,9.168 6.605,8.909 6.180 C 8.649 5.755,8.389 5.359,8.329 5.300 C 7.977 4.948,7.428 4.911,7.032 5.213 C 6.795 5.393,6.700 5.588,6.586 6.121 C 6.391 7.044,6.049 7.773,5.038 9.426 C 4.703 9.973,4.307 10.645,4.156 10.920 C 3.302 12.482,2.951 13.904,3.012 15.560 C 3.070 17.137,3.531 18.492,4.405 19.653 C 4.749 20.110,5.429 20.789,5.880 21.125 C 7.109 22.040,8.646 22.633,10.500 22.906 C 11.184 23.006,12.906 23.007,13.580 22.906 C 14.183 22.816,14.519 22.747,15.000 22.614 C 18.912 21.528,21.132 18.207,20.987 13.660 C 20.915 11.440,20.373 9.801,19.072 7.874 C 18.449 6.952,17.902 6.284,16.153 4.313 C 15.170 3.204,14.202 2.084,13.768 1.550 C 13.627 1.378,13.436 1.194,13.336 1.136 C 13.107 1.001,12.741 0.972,12.480 1.067 M13.745 4.602 C 14.100 5.008,14.701 5.691,15.081 6.120 C 17.094 8.392,17.887 9.512,18.421 10.840 C 18.992 12.259,19.146 14.091,18.838 15.801 C 18.524 17.545,17.689 18.913,16.395 19.801 C 16.070 20.024,15.245 20.458,15.211 20.425 C 15.203 20.416,15.279 20.280,15.381 20.123 C 16.031 19.119,16.166 17.793,15.781 16.210 C 15.444 14.827,14.695 13.567,13.731 12.761 C 13.096 12.231,12.421 11.960,11.864 12.013 C 10.355 12.155,8.758 13.994,8.219 16.210 C 7.831 17.804,7.977 19.183,8.636 20.154 C 8.730 20.293,8.799 20.414,8.789 20.424 C 8.764 20.450,8.147 20.181,7.840 20.011 C 5.812 18.887,4.839 17.048,5.034 14.710 C 5.153 13.271,5.399 12.679,6.898 10.223 C 7.179 9.762,7.525 9.165,7.667 8.894 L 7.926 8.403 8.328 9.011 C 8.828 9.766,9.350 10.472,9.575 10.697 C 10.058 11.180,10.871 11.054,11.166 10.450 C 11.256 10.266,11.259 10.227,11.262 9.160 C 11.264 8.348,11.282 7.949,11.330 7.636 C 11.547 6.246,11.963 5.075,12.634 3.968 L 12.860 3.595 12.980 3.730 C 13.046 3.803,13.390 4.196,13.745 4.602 M12.264 14.153 C 12.982 14.619,13.649 15.742,13.877 16.871 C 14.124 18.089,13.987 18.820,13.404 19.404 C 12.607 20.200,11.393 20.200,10.596 19.404 C 10.136 18.943,9.965 18.431,10.015 17.665 C 10.083 16.623,10.425 15.659,11.002 14.881 C 11.296 14.484,11.832 14.014,12.004 14.002 C 12.017 14.001,12.134 14.069,12.264 14.153 " fill="#000640" stroke="none" fill-rule="evenodd"></path></svg>