<svg xmlns="http://www.w3.org/2000/svg" width="24" height="24" fill="currentColor" class="mmi mmi-firewire" viewBox="0 0 24 24"><path d="M6.155 1.575 C 6.076 1.604,5.959 1.665,5.895 1.711 C 5.832 1.757,4.858 2.718,3.732 3.847 C 1.544 6.040,1.523 6.065,1.521 6.455 C 1.519 6.771,1.597 6.960,1.819 7.181 C 2.123 7.486,2.542 7.568,2.920 7.397 C 3.180 7.280,7.239 3.227,7.381 2.942 C 7.626 2.452,7.409 1.851,6.902 1.615 C 6.674 1.509,6.385 1.493,6.155 1.575 M17.058 1.619 C 16.911 1.692,16.508 2.071,15.495 3.089 C 14.285 4.305,14.124 4.482,14.065 4.657 C 13.983 4.906,13.983 5.093,14.065 5.343 C 14.124 5.521,14.336 5.747,16.255 7.671 C 17.750 9.170,18.431 9.827,18.554 9.886 C 18.797 10.005,19.026 10.021,19.304 9.941 C 19.535 9.874,19.569 9.845,20.911 8.507 C 21.927 7.494,22.308 7.089,22.381 6.942 C 22.508 6.688,22.514 6.340,22.397 6.080 C 22.280 5.820,18.227 1.761,17.942 1.619 C 17.670 1.483,17.331 1.483,17.058 1.619 M19.540 7.040 L 19.000 7.580 17.710 6.290 L 16.421 5.000 16.960 4.460 L 17.499 3.920 18.790 5.210 L 20.080 6.500 19.540 7.040 M8.600 4.083 C 8.340 4.200,4.241 8.293,4.099 8.578 C 3.975 8.825,3.966 9.182,4.076 9.420 C 4.169 9.619,4.413 9.856,4.609 9.938 C 4.818 10.025,5.181 10.016,5.400 9.917 C 5.660 9.800,9.759 5.707,9.901 5.422 C 10.024 5.176,10.034 4.819,9.925 4.578 C 9.834 4.377,9.518 4.094,9.325 4.041 C 9.095 3.977,8.797 3.994,8.600 4.083 M11.340 7.046 C 10.642 7.135,9.813 7.452,9.192 7.868 C 8.805 8.127,8.289 8.622,7.994 9.016 C 7.683 9.433,7.309 10.196,7.180 10.680 C 6.864 11.865,6.982 13.089,7.517 14.180 C 8.038 15.243,8.814 16.007,9.896 16.524 C 11.462 17.271,13.333 17.118,14.824 16.119 C 15.229 15.848,15.848 15.229,16.119 14.824 C 17.283 13.085,17.283 10.915,16.119 9.176 C 15.848 8.771,15.229 8.152,14.824 7.881 C 13.782 7.183,12.560 6.890,11.340 7.046 M12.581 9.062 C 13.782 9.310,14.690 10.218,14.938 11.419 C 15.365 13.482,13.482 15.365,11.419 14.938 C 10.215 14.690,9.310 13.785,9.062 12.581 C 8.686 10.764,10.102 9.023,11.972 9.003 C 12.143 9.001,12.417 9.028,12.581 9.062 M8.643 18.069 C 8.291 18.193,8.000 18.614,8.000 19.000 C 8.000 19.242,8.119 19.521,8.299 19.701 C 8.610 20.013,8.456 20.000,12.000 20.000 C 15.544 20.000,15.390 20.013,15.701 19.701 C 16.092 19.310,16.092 18.690,15.701 18.299 C 15.389 17.987,15.547 18.000,11.983 18.003 C 9.226 18.006,8.797 18.014,8.643 18.069 M8.643 21.069 C 8.291 21.193,8.000 21.614,8.000 22.000 C 8.000 22.242,8.119 22.521,8.299 22.701 C 8.610 23.013,8.456 23.000,12.000 23.000 C 15.544 23.000,15.390 23.013,15.701 22.701 C 16.092 22.310,16.092 21.690,15.701 21.299 C 15.389 20.987,15.547 21.000,11.983 21.003 C 9.226 21.006,8.797 21.014,8.643 21.069 " fill="#000640" stroke="none" fill-rule="evenodd"></path></svg>