<svg xmlns="http://www.w3.org/2000/svg" width="24" height="24" fill="currentColor" class="mmi mmi-firstaidkit" viewBox="0 0 24 24"><path d="M11.200 1.058 C 10.498 1.173,9.705 1.497,9.126 1.907 C 8.756 2.168,8.210 2.708,7.948 3.073 C 7.684 3.440,7.403 3.987,7.266 4.400 C 7.078 4.965,7.035 5.259,7.012 6.147 L 6.990 6.993 5.725 7.011 C 4.322 7.030,4.276 7.037,3.704 7.312 C 3.075 7.614,2.599 8.097,2.298 8.740 C 2.001 9.373,2.020 8.945,2.020 15.000 C 2.020 21.055,2.001 20.627,2.298 21.260 C 2.606 21.918,3.079 22.391,3.740 22.704 C 4.406 23.019,3.877 23.000,12.000 23.000 C 20.123 23.000,19.594 23.019,20.260 22.704 C 20.920 22.391,21.391 21.920,21.704 21.260 C 22.013 20.606,22.000 20.891,22.000 15.000 C 22.000 9.109,22.013 9.394,21.704 8.740 C 21.398 8.095,20.924 7.614,20.296 7.312 C 19.724 7.037,19.678 7.030,18.275 7.011 L 17.010 6.993 16.988 6.147 C 16.958 5.026,16.847 4.522,16.454 3.740 C 15.778 2.394,14.509 1.423,13.000 1.097 C 12.589 1.008,11.633 0.987,11.200 1.058 M12.900 3.138 C 13.700 3.405,14.351 3.968,14.696 4.692 C 14.930 5.180,14.967 5.380,14.989 6.230 L 15.008 7.000 12.000 7.000 L 8.992 7.000 9.011 6.230 C 9.033 5.380,9.070 5.180,9.304 4.692 C 9.639 3.991,10.301 3.406,11.040 3.159 C 11.454 3.021,11.590 3.003,12.100 3.018 C 12.488 3.029,12.641 3.052,12.900 3.138 M19.340 9.066 C 19.455 9.105,19.603 9.201,19.701 9.299 C 20.021 9.619,20.000 9.217,20.000 15.000 C 20.000 20.783,20.021 20.381,19.701 20.701 C 19.377 21.025,20.023 21.000,11.998 21.000 C 4.201 21.000,4.683 21.014,4.374 20.778 C 4.301 20.723,4.192 20.592,4.131 20.489 L 4.020 20.300 4.020 15.000 L 4.020 9.700 4.131 9.511 C 4.256 9.298,4.449 9.136,4.670 9.057 C 4.793 9.013,6.104 9.003,11.983 9.002 C 18.548 9.000,19.162 9.006,19.340 9.066 M11.664 11.063 C 11.436 11.146,11.257 11.297,11.131 11.511 L 11.020 11.700 11.008 12.850 L 10.995 14.000 9.923 14.000 C 8.764 14.000,8.642 14.018,8.374 14.222 C 8.301 14.277,8.192 14.408,8.131 14.511 C 8.036 14.672,8.020 14.744,8.020 15.000 C 8.020 15.256,8.036 15.328,8.131 15.489 C 8.192 15.592,8.301 15.723,8.374 15.778 C 8.642 15.983,8.764 16.000,9.925 16.000 L 11.000 16.000 11.000 17.070 C 11.000 17.684,11.018 18.204,11.042 18.289 C 11.103 18.509,11.315 18.762,11.531 18.874 C 11.932 19.080,12.390 19.012,12.700 18.702 C 12.979 18.423,13.000 18.309,13.000 17.073 L 13.000 16.000 14.073 16.000 C 15.308 16.000,15.423 15.979,15.701 15.701 C 16.092 15.310,16.092 14.690,15.701 14.299 C 15.423 14.021,15.308 14.000,14.073 14.000 L 13.000 14.000 13.000 12.927 C 13.000 11.692,12.979 11.577,12.701 11.299 C 12.429 11.027,12.018 10.933,11.664 11.063 " fill="#000640" stroke="none" fill-rule="evenodd"></path></svg>