<svg xmlns="http://www.w3.org/2000/svg" width="24" height="24" fill="currentColor" class="mmi mmi-five" viewBox="0 0 24 24"><path d="M11.200 0.025 C 7.091 0.332,3.508 2.609,1.507 6.186 C 0.775 7.494,0.317 8.899,0.094 10.520 C -0.002 11.214,-0.002 12.786,0.094 13.480 C 0.317 15.101,0.775 16.506,1.507 17.814 C 4.173 22.579,9.604 24.939,14.910 23.637 C 19.156 22.595,22.595 19.156,23.637 14.910 C 24.599 10.992,23.592 6.970,20.896 3.958 C 19.003 1.843,16.397 0.483,13.500 0.099 C 13.032 0.037,11.640 -0.007,11.200 0.025 M12.920 2.043 C 14.827 2.219,16.631 2.940,18.200 4.155 C 18.637 4.493,19.507 5.363,19.845 5.800 C 21.878 8.427,22.517 11.768,21.578 14.865 C 21.082 16.499,20.272 17.850,19.061 19.061 C 18.287 19.836,17.547 20.383,16.623 20.863 C 13.714 22.376,10.286 22.376,7.377 20.863 C 6.454 20.383,5.715 19.837,4.938 19.061 C 3.951 18.075,3.213 16.964,2.722 15.728 C 1.390 12.368,1.921 8.686,4.153 5.800 C 4.491 5.363,5.363 4.491,5.800 4.153 C 7.114 3.137,8.541 2.486,10.125 2.181 C 11.037 2.006,12.003 1.958,12.920 2.043 M9.240 6.037 C 8.986 6.115,8.781 6.276,8.625 6.524 C 8.588 6.581,8.324 7.679,8.037 8.964 C 7.448 11.605,7.440 11.665,7.662 12.024 C 7.830 12.296,8.094 12.452,8.420 12.473 C 8.758 12.494,8.879 12.447,9.344 12.114 C 9.809 11.780,10.319 11.525,10.820 11.375 C 11.139 11.279,11.249 11.266,11.780 11.264 C 12.291 11.262,12.427 11.275,12.698 11.353 C 13.181 11.491,13.539 11.696,13.864 12.018 C 14.315 12.464,14.495 12.906,14.492 13.560 C 14.489 14.553,14.030 15.312,13.191 15.716 C 12.332 16.129,11.149 16.083,10.417 15.607 C 10.154 15.436,9.685 14.960,9.481 14.657 C 9.155 14.172,8.923 14.022,8.500 14.022 C 8.290 14.022,8.179 14.044,8.056 14.109 C 7.866 14.209,7.654 14.437,7.575 14.626 C 7.494 14.820,7.504 15.233,7.595 15.410 C 7.749 15.712,8.153 16.231,8.540 16.624 C 9.209 17.303,9.918 17.697,10.807 17.884 C 11.361 18.001,12.423 18.014,12.902 17.910 C 13.869 17.701,14.606 17.315,15.243 16.681 C 15.805 16.123,16.128 15.553,16.351 14.723 C 16.445 14.375,16.455 14.268,16.457 13.560 C 16.460 12.852,16.451 12.749,16.364 12.440 C 16.162 11.729,15.833 11.160,15.324 10.643 C 14.122 9.421,12.246 8.958,10.391 9.426 C 10.172 9.481,9.988 9.521,9.981 9.513 C 9.974 9.506,10.043 9.163,10.134 8.750 L 10.300 8.000 12.723 8.000 C 15.460 8.000,15.396 8.006,15.701 7.701 C 16.092 7.310,16.092 6.690,15.701 6.299 C 15.391 5.989,15.517 6.000,12.243 6.003 C 10.646 6.005,9.295 6.021,9.240 6.037 " stroke="none" fill-rule="evenodd"></path></svg>