<svg xmlns="http://www.w3.org/2000/svg" width="24" height="24" fill="currentColor" class="mmi mmi-flashdisk" viewBox="0 0 24 24"><path d="M17.640 1.068 C 17.488 1.120,17.227 1.363,15.980 2.603 L 14.500 4.076 14.020 3.604 C 13.616 3.208,13.506 3.121,13.326 3.062 C 13.057 2.973,12.785 2.994,12.543 3.124 C 12.357 3.223,3.891 11.323,3.328 11.940 C 1.425 14.025,1.203 17.142,2.788 19.538 C 3.149 20.083,3.917 20.851,4.462 21.212 C 6.911 22.831,10.084 22.565,12.171 20.564 C 13.049 19.723,20.783 11.632,20.876 11.457 C 21.006 11.215,21.027 10.943,20.938 10.674 C 20.879 10.494,20.792 10.384,20.396 9.980 L 19.924 9.500 21.397 8.020 C 22.763 6.647,22.875 6.524,22.940 6.326 C 23.024 6.066,23.006 5.801,22.888 5.556 C 22.827 5.431,22.187 4.766,20.671 3.255 C 18.747 1.336,18.521 1.124,18.343 1.065 C 18.102 0.985,17.878 0.986,17.640 1.068 M19.300 4.720 L 20.579 6.000 19.540 7.040 L 18.501 8.080 17.210 6.790 L 15.920 5.501 16.950 4.470 C 17.516 3.904,17.989 3.440,18.000 3.440 C 18.011 3.440,18.596 4.016,19.300 4.720 M18.207 11.420 C 13.947 15.881,10.673 19.256,10.431 19.436 C 9.459 20.159,8.176 20.430,7.012 20.159 C 6.203 19.970,5.586 19.629,4.995 19.042 C 4.391 18.443,4.066 17.876,3.858 17.056 C 3.545 15.824,3.844 14.471,4.649 13.467 C 4.789 13.293,6.690 11.437,8.940 9.279 L 12.980 5.403 15.787 8.209 L 18.595 11.014 18.207 11.420 M7.503 13.040 C 6.828 13.162,6.156 13.550,5.703 14.080 C 4.987 14.917,4.806 16.100,5.234 17.151 C 5.521 17.857,6.143 18.479,6.849 18.766 C 7.989 19.230,9.251 18.978,10.115 18.115 C 11.238 16.992,11.295 15.212,10.246 14.020 C 9.897 13.624,9.276 13.239,8.756 13.097 C 8.491 13.024,7.770 12.991,7.503 13.040 M8.340 15.066 C 8.709 15.192,9.000 15.604,9.000 16.000 C 9.000 16.527,8.527 17.000,8.000 17.000 C 7.758 17.000,7.479 16.881,7.299 16.701 C 6.907 16.309,6.908 15.690,7.300 15.298 C 7.577 15.020,7.957 14.936,8.340 15.066 " fill="#000640" stroke="none" fill-rule="evenodd"></path></svg>