<svg xmlns="http://www.w3.org/2000/svg" width="24" height="24" fill="currentColor" class="mmi mmi-flashlight" viewBox="0 0 24 24"><path d="M11.664 1.063 C 11.436 1.146,11.257 1.297,11.131 1.511 L 11.020 1.700 11.009 3.911 C 11.001 5.377,11.012 6.175,11.040 6.279 C 11.101 6.506,11.311 6.760,11.531 6.874 C 11.932 7.080,12.390 7.012,12.700 6.702 C 13.003 6.399,13.000 6.429,13.000 4.000 C 13.000 1.573,13.003 1.601,12.701 1.299 C 12.429 1.027,12.018 0.933,11.664 1.063 M2.753 4.055 C 2.115 4.229,1.830 4.951,2.171 5.527 C 2.228 5.622,2.982 6.406,3.847 7.268 C 5.533 8.948,5.593 8.998,5.980 8.999 C 6.308 9.000,6.473 8.932,6.703 8.703 C 6.932 8.473,6.999 8.309,7.000 7.978 C 7.000 7.593,6.931 7.508,5.211 5.794 C 4.219 4.805,3.560 4.178,3.460 4.129 C 3.242 4.022,2.977 3.994,2.753 4.055 M20.640 4.068 C 20.488 4.121,20.209 4.380,18.829 5.755 C 17.066 7.511,17.000 7.591,17.000 7.978 C 17.001 8.309,17.068 8.473,17.297 8.703 C 17.527 8.932,17.691 8.999,18.022 9.000 C 18.409 9.000,18.489 8.934,20.245 7.171 C 21.697 5.713,21.876 5.519,21.935 5.343 C 22.064 4.954,21.979 4.577,21.701 4.299 C 21.423 4.021,21.027 3.935,20.640 4.068 M5.643 11.069 C 5.403 11.154,5.147 11.418,5.064 11.668 C 5.004 11.847,4.999 12.103,5.009 14.064 L 5.020 16.260 5.116 16.454 C 5.199 16.623,5.363 16.770,6.366 17.572 L 7.520 18.496 7.520 20.369 C 7.520 21.868,7.531 22.269,7.575 22.374 C 7.653 22.562,7.866 22.790,8.056 22.892 L 8.220 22.980 12.000 22.980 L 15.780 22.980 15.944 22.892 C 16.134 22.790,16.347 22.562,16.425 22.374 C 16.469 22.269,16.480 21.868,16.480 20.369 L 16.480 18.496 17.634 17.572 C 18.637 16.770,18.801 16.623,18.884 16.454 L 18.980 16.260 18.991 14.064 C 19.004 11.572,19.008 11.606,18.702 11.300 C 18.378 10.976,18.908 11.000,11.983 11.003 C 6.508 11.006,5.800 11.013,5.643 11.069 M17.000 14.259 L 17.000 15.518 15.891 16.409 C 15.215 16.952,14.735 17.368,14.661 17.473 L 14.540 17.647 14.529 19.323 L 14.517 21.000 12.000 21.000 L 9.483 21.000 9.471 19.323 L 9.460 17.647 9.339 17.473 C 9.265 17.368,8.785 16.952,8.109 16.409 L 7.000 15.518 7.000 14.259 L 7.000 13.000 12.000 13.000 L 17.000 13.000 17.000 14.259 " fill="#000640" stroke="none" fill-rule="evenodd"></path></svg>