<svg xmlns="http://www.w3.org/2000/svg" width="24" height="24" fill="currentColor" class="mmi mmi-flip-vertical" viewBox="0 0 24 24"><path d="M1.667 1.063 C 1.411 1.144,1.152 1.404,1.065 1.666 C 1.005 1.847,1.000 2.251,1.009 6.082 L 1.020 10.300 1.131 10.489 C 1.260 10.709,1.437 10.854,1.678 10.939 C 1.830 10.993,3.022 11.000,11.998 11.000 C 23.388 11.000,22.374 11.028,22.702 10.700 C 23.116 10.286,23.080 9.574,22.628 9.228 C 22.550 9.170,18.101 7.369,12.376 5.078 C 4.840 2.064,2.209 1.028,2.060 1.017 C 1.946 1.008,1.777 1.027,1.667 1.063 M10.040 6.298 L 16.780 8.996 9.890 8.998 L 3.000 9.000 3.000 6.240 L 3.000 3.481 3.150 3.540 C 3.232 3.573,6.333 4.814,10.040 6.298 M1.664 13.063 C 1.436 13.146,1.257 13.297,1.131 13.511 L 1.020 13.700 1.009 17.918 C 0.997 22.670,0.980 22.382,1.299 22.701 C 1.504 22.906,1.803 23.018,2.078 22.991 C 2.320 22.968,22.441 14.926,22.630 14.777 C 23.080 14.422,23.114 13.712,22.702 13.300 C 22.374 12.971,23.391 13.000,11.983 13.003 C 3.267 13.005,1.798 13.014,1.664 13.063 M4.990 17.364 L 4.980 19.728 4.160 20.056 C 3.709 20.236,3.264 20.414,3.170 20.452 L 3.000 20.519 3.000 17.760 L 3.000 15.000 4.000 15.000 L 5.001 15.000 4.990 17.364 M8.990 16.564 L 8.980 18.128 8.160 18.456 C 7.709 18.636,7.264 18.814,7.170 18.852 L 7.000 18.919 7.000 16.960 L 7.000 15.000 8.000 15.000 L 9.001 15.000 8.990 16.564 M12.991 15.764 L 12.980 16.528 12.160 16.856 C 11.709 17.036,11.263 17.214,11.170 17.252 L 11.000 17.319 11.000 16.160 L 11.000 15.000 12.001 15.000 L 13.002 15.000 12.991 15.764 M16.060 15.294 C 15.664 15.453,15.263 15.615,15.170 15.652 L 15.000 15.719 15.000 15.360 L 15.000 15.000 15.890 15.002 L 16.780 15.004 16.060 15.294 " fill="#000640" stroke="none" fill-rule="evenodd"></path></svg>