<svg xmlns="http://www.w3.org/2000/svg" width="24" height="24" fill="currentColor" class="mmi mmi-flip-horizontal" viewBox="0 0 24 24"><path d="M9.723 1.047 C 9.528 1.102,9.261 1.296,9.167 1.449 C 9.123 1.521,7.273 6.114,5.057 11.657 C 2.342 18.444,1.021 21.795,1.009 21.922 C 0.983 22.196,1.094 22.496,1.298 22.700 C 1.616 23.018,1.335 23.000,6.000 23.000 C 10.663 23.000,10.384 23.018,10.701 22.701 C 11.028 22.374,11.000 23.385,11.000 12.000 C 11.000 0.602,11.029 1.622,10.697 1.300 C 10.436 1.046,10.063 0.949,9.723 1.047 M13.673 1.061 C 13.423 1.141,13.152 1.408,13.066 1.659 C 13.005 1.839,13.000 2.652,13.000 11.997 C 13.000 18.861,13.014 22.188,13.042 22.289 C 13.104 22.512,13.316 22.763,13.539 22.878 L 13.738 22.980 17.937 22.991 C 22.668 23.002,22.382 23.020,22.701 22.701 C 22.906 22.496,23.018 22.197,22.991 21.922 C 22.979 21.795,21.651 18.429,18.920 11.600 C 15.293 2.533,14.852 1.452,14.722 1.322 C 14.443 1.043,14.041 0.943,13.673 1.061 M8.987 20.987 C 8.979 20.994,7.739 20.996,6.230 20.990 L 3.488 20.980 6.234 14.115 L 8.980 7.250 8.990 14.111 C 8.996 17.885,8.994 20.979,8.987 20.987 M15.652 8.830 L 15.719 9.000 15.360 9.000 L 15.000 9.000 15.002 8.110 L 15.004 7.220 15.294 7.940 C 15.453 8.336,15.615 8.736,15.652 8.830 M16.856 11.840 C 17.036 12.291,17.214 12.737,17.252 12.830 L 17.319 13.000 16.160 13.000 L 15.000 13.000 15.000 11.999 L 15.000 10.998 15.764 11.009 L 16.528 11.020 16.856 11.840 M18.456 15.840 C 18.636 16.291,18.814 16.736,18.852 16.830 L 18.919 17.000 16.960 17.000 L 15.000 17.000 15.000 16.000 L 15.000 14.999 16.564 15.010 L 18.128 15.020 18.456 15.840 M20.056 19.840 C 20.236 20.291,20.414 20.737,20.452 20.830 L 20.519 21.000 17.760 21.000 L 15.000 21.000 15.000 20.000 L 15.000 18.999 17.364 19.010 L 19.728 19.020 20.056 19.840 " fill="#000640" stroke="none" fill-rule="evenodd"></path></svg>