<svg xmlns="http://www.w3.org/2000/svg" width="24" height="24" fill="currentColor" class="mmi mmi-floppydisk" viewBox="0 0 24 24"><path d="M3.503 1.042 C 2.818 1.158,2.117 1.573,1.670 2.127 C 1.445 2.407,1.159 2.980,1.074 3.320 C 0.993 3.647,0.993 20.353,1.074 20.680 C 1.159 21.020,1.445 21.593,1.670 21.873 C 1.950 22.220,2.312 22.501,2.740 22.704 C 3.409 23.021,2.760 23.000,12.000 23.000 C 21.240 23.000,20.591 23.021,21.260 22.704 C 21.920 22.391,22.391 21.920,22.704 21.260 C 23.018 20.597,23.003 20.953,22.990 14.438 C 22.980 9.029,22.975 8.645,22.908 8.420 C 22.730 7.821,22.616 7.658,20.093 4.381 C 17.850 1.470,17.644 1.215,17.461 1.121 L 17.262 1.020 10.481 1.014 C 6.751 1.011,3.611 1.024,3.503 1.042 M5.010 4.770 C 5.028 6.735,5.023 6.696,5.312 7.296 C 5.614 7.924,6.095 8.398,6.740 8.704 C 7.378 9.006,7.281 9.000,11.500 9.000 C 15.719 9.000,15.622 9.006,16.260 8.704 C 16.921 8.391,17.393 7.919,17.703 7.260 C 17.933 6.771,17.969 6.580,17.996 5.713 L 18.020 4.965 19.420 6.785 C 20.190 7.785,20.856 8.670,20.900 8.752 C 20.979 8.898,20.980 8.986,20.991 14.518 C 21.002 20.836,21.024 20.378,20.702 20.700 C 20.376 21.027,21.146 21.000,11.998 21.000 C 3.106 21.000,3.684 21.015,3.374 20.778 C 3.301 20.723,3.192 20.592,3.131 20.489 L 3.020 20.300 3.020 12.000 L 3.020 3.700 3.131 3.511 C 3.256 3.298,3.449 3.136,3.670 3.057 C 3.768 3.022,4.022 3.003,4.407 3.002 L 4.995 3.000 5.010 4.770 M16.000 4.573 C 16.000 6.362,15.994 6.409,15.701 6.701 C 15.387 7.015,15.604 7.000,11.498 7.000 C 7.531 7.000,7.675 7.008,7.374 6.778 C 7.301 6.723,7.192 6.592,7.131 6.489 L 7.020 6.300 7.008 4.650 L 6.997 3.000 11.498 3.000 L 16.000 3.000 16.000 4.573 M11.433 11.040 C 10.843 11.134,10.221 11.380,9.731 11.712 C 8.955 12.240,8.394 13.037,8.130 13.989 C 8.034 14.337,8.022 14.449,8.022 15.000 C 8.022 15.553,8.034 15.663,8.132 16.017 C 8.475 17.256,9.357 18.252,10.520 18.715 C 12.334 19.437,14.462 18.710,15.444 17.033 C 16.503 15.224,15.985 12.878,14.269 11.712 C 13.917 11.473,13.343 11.214,12.958 11.120 C 12.572 11.026,11.783 10.984,11.433 11.040 M12.383 13.043 C 13.185 13.190,13.839 13.872,13.967 14.695 C 14.153 15.894,13.209 17.000,12.000 17.000 C 11.032 17.000,10.183 16.268,10.033 15.305 C 9.933 14.663,10.132 14.061,10.596 13.596 C 11.085 13.108,11.698 12.918,12.383 13.043 " fill="#000640" stroke="none" fill-rule="evenodd"></path></svg>