<svg xmlns="http://www.w3.org/2000/svg" width="24" height="24" fill="currentColor" class="mmi mmi-flower" viewBox="0 0 24 24"><path d="M11.374 1.042 C 10.236 1.190,9.269 1.775,8.683 2.667 C 8.321 3.219,8.115 3.837,8.031 4.624 L 7.984 5.067 7.622 4.896 C 6.511 4.371,5.303 4.321,4.335 4.759 C 3.113 5.313,2.146 6.631,1.919 8.050 C 1.851 8.470,1.889 9.173,2.000 9.560 C 2.242 10.407,2.856 11.220,3.678 11.782 C 3.833 11.887,3.960 11.986,3.960 12.000 C 3.960 12.014,3.833 12.113,3.678 12.218 C 2.857 12.780,2.243 13.592,1.999 14.440 C 1.877 14.865,1.849 15.587,1.937 16.052 C 2.197 17.431,3.127 18.682,4.295 19.222 C 4.801 19.455,5.187 19.535,5.800 19.533 C 6.246 19.531,6.407 19.513,6.723 19.429 C 7.131 19.321,7.656 19.125,7.870 18.999 L 8.000 18.923 8.000 19.071 C 8.001 19.362,8.121 20.026,8.243 20.406 C 8.754 22.008,10.190 23.000,12.000 23.000 C 13.810 23.000,15.246 22.008,15.757 20.406 C 15.879 20.026,15.999 19.362,16.000 19.071 L 16.000 18.923 16.130 18.999 C 16.344 19.125,16.869 19.321,17.277 19.429 C 17.593 19.513,17.754 19.531,18.200 19.533 C 18.818 19.535,19.192 19.459,19.694 19.227 C 20.751 18.738,21.601 17.697,21.986 16.420 C 22.084 16.096,22.095 15.997,22.097 15.420 C 22.100 14.865,22.088 14.737,22.007 14.460 C 21.756 13.589,21.150 12.785,20.322 12.218 C 20.167 12.113,20.040 12.014,20.040 12.000 C 20.040 11.986,20.167 11.887,20.322 11.782 C 21.144 11.220,21.758 10.407,22.000 9.560 C 22.111 9.173,22.149 8.470,22.081 8.050 C 21.856 6.644,20.902 5.331,19.705 4.779 C 18.710 4.319,17.508 4.362,16.378 4.896 L 16.016 5.067 15.969 4.624 C 15.856 3.562,15.492 2.736,14.858 2.102 C 14.020 1.264,12.715 0.867,11.374 1.042 M12.762 3.117 C 13.674 3.400,14.103 4.294,13.969 5.635 C 13.922 6.097,13.783 6.732,13.654 7.071 C 13.599 7.215,13.572 7.243,13.503 7.227 C 13.457 7.217,13.249 7.167,13.040 7.117 C 12.492 6.986,11.508 6.986,10.960 7.117 C 10.751 7.167,10.542 7.217,10.496 7.227 C 10.425 7.244,10.400 7.212,10.327 7.013 C 10.086 6.359,9.957 5.401,10.028 4.793 C 10.149 3.768,10.633 3.203,11.534 3.041 C 11.843 2.985,12.460 3.023,12.762 3.117 M6.480 6.586 C 7.125 6.799,7.936 7.374,8.463 7.993 L 8.683 8.250 8.409 8.535 C 8.077 8.880,7.863 9.165,7.647 9.550 C 7.447 9.905,7.224 10.461,7.157 10.770 C 7.130 10.897,7.088 11.000,7.064 10.999 C 6.937 10.997,6.294 10.830,5.980 10.719 C 4.451 10.176,3.702 9.270,3.919 8.226 C 3.999 7.840,4.292 7.307,4.595 7.000 C 4.741 6.852,4.941 6.689,5.040 6.638 C 5.457 6.422,5.932 6.405,6.480 6.586 M18.501 6.484 C 19.044 6.584,19.537 7.003,19.852 7.632 C 20.166 8.259,20.201 8.757,19.968 9.256 C 19.596 10.050,18.426 10.739,17.037 10.981 L 16.894 11.006 16.843 10.773 C 16.774 10.455,16.543 9.879,16.350 9.540 C 16.130 9.156,15.915 8.872,15.590 8.535 L 15.316 8.250 15.553 7.975 C 16.195 7.232,17.182 6.603,17.893 6.484 C 18.187 6.435,18.237 6.435,18.501 6.484 M12.756 9.097 C 13.093 9.189,13.595 9.447,13.873 9.671 C 14.554 10.219,15.000 11.140,15.000 12.000 C 15.000 13.170,14.225 14.329,13.151 14.766 C 11.642 15.380,9.989 14.734,9.298 13.260 C 9.072 12.779,9.021 12.546,9.021 12.000 C 9.021 11.454,9.072 11.221,9.298 10.740 C 9.716 9.848,10.537 9.215,11.503 9.040 C 11.770 8.991,12.491 9.024,12.756 9.097 M7.201 13.383 C 7.440 14.202,7.816 14.849,8.410 15.465 L 8.684 15.750 8.447 16.025 C 7.781 16.796,6.819 17.397,6.046 17.525 C 5.279 17.651,4.574 17.218,4.142 16.355 C 3.934 15.940,3.864 15.638,3.890 15.275 C 3.950 14.430,4.803 13.654,6.147 13.221 C 6.476 13.115,6.988 13.000,7.058 13.017 C 7.079 13.022,7.144 13.186,7.201 13.383 M17.320 13.079 C 17.654 13.144,18.143 13.309,18.512 13.482 C 19.718 14.045,20.272 14.854,20.081 15.774 C 19.959 16.361,19.438 17.103,18.973 17.349 C 18.487 17.607,18.013 17.609,17.358 17.357 C 16.795 17.140,16.024 16.571,15.552 16.024 L 15.314 15.748 15.571 15.484 C 15.712 15.339,15.891 15.139,15.970 15.040 C 16.310 14.610,16.680 13.863,16.820 13.320 C 16.903 12.999,16.905 12.996,17.012 13.018 C 17.061 13.028,17.199 13.056,17.320 13.079 M10.751 16.839 C 11.589 17.055,12.413 17.054,13.255 16.838 C 13.428 16.793,13.578 16.765,13.588 16.774 C 13.633 16.819,13.809 17.409,13.886 17.774 C 13.991 18.269,14.012 19.211,13.925 19.560 C 13.752 20.256,13.388 20.673,12.766 20.888 C 12.381 21.021,11.619 21.021,11.234 20.888 C 10.612 20.673,10.247 20.255,10.075 19.560 C 9.996 19.242,10.007 18.309,10.095 17.861 C 10.166 17.503,10.387 16.760,10.423 16.760 C 10.433 16.760,10.581 16.796,10.751 16.839 " fill="#000640" stroke="none" fill-rule="evenodd"></path></svg>