<svg xmlns="http://www.w3.org/2000/svg" width="24" height="24" fill="currentColor" class="mmi mmi-folder" viewBox="0 0 24 24"><path d="M3.503 2.042 C 2.490 2.212,1.556 2.976,1.202 3.925 C 0.993 4.484,1.001 4.151,1.001 11.992 C 1.000 19.977,0.988 19.546,1.234 20.151 C 1.521 20.857,2.143 21.479,2.849 21.766 C 3.457 22.014,2.925 22.000,12.000 22.000 C 21.073 22.000,20.544 22.013,21.150 21.767 C 21.850 21.482,22.482 20.850,22.767 20.150 C 23.010 19.554,23.000 19.826,23.000 13.500 C 23.000 7.172,23.010 7.447,22.766 6.849 C 22.499 6.193,21.964 5.633,21.296 5.312 C 20.653 5.003,20.999 5.024,16.535 5.010 L 12.531 4.997 11.635 3.653 C 11.136 2.903,10.683 2.266,10.612 2.211 C 10.332 1.998,10.363 2.000,6.904 2.005 C 5.142 2.007,3.611 2.024,3.503 2.042 M10.364 5.346 C 10.857 6.086,11.315 6.733,11.383 6.785 C 11.676 7.008,11.500 7.000,15.998 7.000 C 20.663 7.000,20.384 6.982,20.701 7.299 C 21.022 7.620,21.000 7.157,21.000 13.500 C 21.000 19.843,21.022 19.380,20.701 19.701 C 20.376 20.026,21.144 20.000,12.000 20.000 C 2.856 20.000,3.624 20.026,3.299 19.701 C 2.975 19.377,3.000 20.023,3.000 12.000 C 3.000 3.975,2.975 4.623,3.300 4.298 C 3.602 3.996,3.476 4.007,6.644 4.003 L 9.467 4.000 10.364 5.346 " fill="#000640" stroke="none" fill-rule="evenodd"></path></svg>