<svg xmlns="http://www.w3.org/2000/svg" width="24" height="24" fill="currentColor" class="mmi mmi-folder-check" viewBox="0 0 24 24"><path d="M3.503 2.042 C 2.820 2.157,2.117 2.573,1.670 3.127 C 1.445 3.407,1.159 3.980,1.074 4.320 C 0.994 4.647,0.994 19.353,1.074 19.680 C 1.159 20.020,1.445 20.593,1.670 20.873 C 1.950 21.220,2.312 21.501,2.740 21.704 C 3.409 22.021,2.760 22.000,12.000 22.000 C 21.240 22.000,20.591 22.021,21.260 21.704 C 21.920 21.391,22.391 20.920,22.704 20.260 C 23.015 19.602,23.000 19.949,23.000 13.500 C 23.000 7.051,23.015 7.398,22.704 6.740 C 22.398 6.095,21.924 5.614,21.296 5.312 C 20.653 5.003,20.999 5.024,16.535 5.010 L 12.531 4.997 11.635 3.653 C 11.136 2.903,10.683 2.266,10.612 2.211 C 10.332 1.998,10.363 2.000,6.904 2.005 C 5.142 2.007,3.611 2.024,3.503 2.042 M10.364 5.346 C 10.864 6.096,11.317 6.734,11.388 6.789 C 11.671 7.005,11.563 7.000,16.019 7.000 C 20.661 7.000,20.384 6.982,20.701 7.299 C 21.022 7.620,21.000 7.157,21.000 13.500 C 21.000 19.843,21.022 19.380,20.701 19.701 C 20.376 20.026,21.144 20.000,11.998 20.000 C 3.106 20.000,3.684 20.015,3.374 19.778 C 3.301 19.723,3.192 19.592,3.131 19.489 L 3.020 19.300 3.020 12.000 L 3.020 4.700 3.131 4.511 C 3.256 4.298,3.449 4.136,3.670 4.057 C 3.790 4.014,4.390 4.003,6.644 4.002 L 9.467 4.000 10.364 5.346 M16.800 10.037 C 16.723 10.053,16.597 10.098,16.520 10.137 C 16.443 10.176,15.170 11.416,13.690 12.893 L 11.001 15.579 9.810 14.394 C 9.021 13.608,8.560 13.178,8.442 13.119 C 8.195 12.996,7.840 12.994,7.590 13.115 C 7.081 13.362,6.875 13.950,7.120 14.460 C 7.170 14.564,7.773 15.193,8.829 16.245 C 10.288 17.698,10.481 17.876,10.657 17.935 C 10.906 18.017,11.093 18.017,11.343 17.935 C 11.523 17.876,11.816 17.595,14.671 14.745 C 16.756 12.664,17.828 11.567,17.879 11.460 C 17.999 11.212,18.018 11.001,17.943 10.743 C 17.800 10.254,17.286 9.936,16.800 10.037 " fill="#000640" stroke="none" fill-rule="evenodd"></path></svg>