<svg xmlns="http://www.w3.org/2000/svg" width="24" height="24" fill="currentColor" class="mmi mmi-foldedpaper" viewBox="0 0 24 24"><path d="M2.620 3.025 C 2.576 3.034,2.442 3.061,2.322 3.085 C 1.845 3.182,1.253 3.511,0.886 3.883 C 0.466 4.309,0.217 4.756,0.078 5.335 C 0.003 5.650,0.001 5.858,0.000 11.972 C -0.000 18.880,-0.011 18.550,0.234 19.151 C 0.521 19.857,1.143 20.479,1.849 20.766 C 2.459 21.015,1.826 21.000,12.000 21.000 C 22.173 21.000,21.541 21.014,22.150 20.767 C 22.850 20.482,23.482 19.850,23.767 19.150 C 24.011 18.551,24.000 18.876,24.000 12.000 C 24.000 5.123,24.011 5.449,23.766 4.849 C 23.499 4.193,22.964 3.633,22.296 3.312 C 21.632 2.992,22.653 3.022,12.120 3.015 C 6.939 3.012,2.664 3.016,2.620 3.025 M7.000 12.000 L 7.000 19.000 4.927 19.000 C 2.581 19.000,2.600 19.002,2.299 18.701 C 1.977 18.379,2.000 18.903,2.000 12.000 C 2.000 5.096,1.976 5.621,2.300 5.298 C 2.595 5.003,2.558 5.007,4.910 5.003 L 7.000 5.000 7.000 12.000 M15.000 12.000 L 15.000 19.000 12.000 19.000 L 9.000 19.000 9.000 12.000 L 9.000 5.000 12.000 5.000 L 15.000 5.000 15.000 12.000 M21.340 5.066 C 21.455 5.105,21.603 5.201,21.701 5.299 C 22.023 5.621,22.000 5.097,22.000 12.000 C 22.000 18.903,22.023 18.379,21.701 18.701 C 21.400 19.002,21.419 19.000,19.073 19.000 L 17.000 19.000 17.000 12.000 L 17.000 5.000 19.073 5.000 C 20.897 5.000,21.169 5.008,21.340 5.066 " fill="#000640" stroke="none" fill-rule="evenodd"></path></svg>