<svg xmlns="http://www.w3.org/2000/svg" width="24" height="24" fill="currentColor" class="mmi mmi-folder-open" viewBox="0 0 24 24"><path d="M3.503 2.042 C 2.667 2.182,1.817 2.773,1.396 3.508 C 1.244 3.773,1.097 4.191,1.041 4.522 C 1.010 4.705,1.001 7.173,1.009 13.040 L 1.020 21.300 1.131 21.489 C 1.192 21.592,1.301 21.723,1.374 21.778 C 1.685 22.015,1.076 22.000,10.315 21.999 C 19.511 21.999,18.995 22.011,19.586 21.778 C 20.241 21.519,20.831 20.975,21.141 20.345 C 21.295 20.031,21.461 19.462,22.322 16.300 C 22.873 14.276,23.342 12.479,23.364 12.307 C 23.536 10.943,22.576 9.505,21.244 9.135 L 21.000 9.067 21.000 8.392 C 21.000 7.643,20.947 7.293,20.766 6.849 C 20.499 6.193,19.964 5.633,19.296 5.312 C 18.665 5.008,18.880 5.025,15.535 5.010 L 12.530 4.997 11.635 3.653 C 11.136 2.903,10.683 2.266,10.612 2.211 C 10.332 1.998,10.363 2.000,6.904 2.005 C 5.142 2.007,3.611 2.024,3.503 2.042 M10.364 5.346 C 10.857 6.086,11.315 6.733,11.383 6.785 C 11.671 7.005,11.591 7.000,14.998 7.000 C 18.545 7.000,18.390 6.987,18.701 7.299 C 18.948 7.546,19.000 7.741,19.000 8.426 L 19.000 8.998 12.510 9.010 C 5.191 9.022,5.887 8.990,5.160 9.347 C 4.840 9.504,4.723 9.590,4.417 9.897 C 3.889 10.424,3.772 10.681,3.350 12.239 L 3.020 13.457 3.010 9.159 C 2.998 4.320,2.981 4.617,3.299 4.299 C 3.603 3.995,3.475 4.007,6.644 4.003 L 9.467 4.000 10.364 5.346 M20.820 11.106 C 21.027 11.218,21.220 11.421,21.298 11.609 C 21.431 11.928,21.411 12.021,20.400 15.734 C 19.872 17.673,19.409 19.329,19.372 19.412 C 19.336 19.496,19.236 19.634,19.151 19.719 C 18.848 20.023,19.508 20.000,10.973 20.000 C 6.764 20.000,3.320 19.992,3.320 19.983 C 3.320 19.914,5.575 11.708,5.625 11.593 C 5.735 11.341,5.988 11.126,6.280 11.037 C 6.335 11.020,9.593 11.009,13.520 11.013 L 20.660 11.020 20.820 11.106 " fill="#000640" stroke="none" fill-rule="evenodd"></path></svg>