<svg xmlns="http://www.w3.org/2000/svg" width="24" height="24" fill="currentColor" class="mmi mmi-folder-reduct" viewBox="0 0 24 24"><path d="M3.503 2.042 C 2.820 2.157,2.117 2.573,1.670 3.127 C 1.445 3.407,1.159 3.980,1.074 4.320 C 0.994 4.647,0.994 19.353,1.074 19.680 C 1.159 20.020,1.445 20.593,1.670 20.873 C 1.950 21.220,2.312 21.501,2.740 21.704 C 3.409 22.021,2.760 22.000,12.000 22.000 C 21.240 22.000,20.591 22.021,21.260 21.704 C 21.920 21.391,22.391 20.920,22.704 20.260 C 23.015 19.602,23.000 19.949,23.000 13.500 C 23.000 7.051,23.015 7.398,22.704 6.740 C 22.398 6.095,21.924 5.614,21.296 5.312 C 20.653 5.003,20.999 5.024,16.535 5.010 L 12.531 4.997 11.635 3.653 C 11.136 2.903,10.683 2.266,10.612 2.211 C 10.332 1.998,10.363 2.000,6.904 2.005 C 5.142 2.007,3.611 2.024,3.503 2.042 M10.364 5.346 C 10.864 6.096,11.317 6.734,11.388 6.789 C 11.671 7.005,11.563 7.000,16.019 7.000 C 20.661 7.000,20.384 6.982,20.701 7.299 C 21.022 7.620,21.000 7.157,21.000 13.500 C 21.000 19.843,21.022 19.380,20.701 19.701 C 20.376 20.026,21.144 20.000,11.998 20.000 C 3.106 20.000,3.684 20.015,3.374 19.778 C 3.301 19.723,3.192 19.592,3.131 19.489 L 3.020 19.300 3.020 12.000 L 3.020 4.700 3.131 4.511 C 3.256 4.298,3.449 4.136,3.670 4.057 C 3.790 4.014,4.390 4.003,6.644 4.002 L 9.467 4.000 10.364 5.346 M8.664 13.063 C 8.436 13.146,8.257 13.297,8.131 13.511 C 8.036 13.672,8.020 13.744,8.020 14.000 C 8.020 14.256,8.036 14.328,8.131 14.489 C 8.192 14.592,8.301 14.723,8.374 14.778 C 8.672 15.006,8.578 15.000,11.998 15.000 C 15.545 15.000,15.390 15.013,15.701 14.701 C 16.092 14.310,16.092 13.690,15.701 13.299 C 15.389 12.987,15.547 13.000,11.983 13.003 C 9.342 13.005,8.794 13.015,8.664 13.063 " fill="#000640" stroke="none" fill-rule="evenodd"></path></svg>