<svg xmlns="http://www.w3.org/2000/svg" width="24" height="24" fill="currentColor" class="mmi mmi-fontsize-decrease" viewBox="0 0 24 24"><path d="M1.664 3.063 C 1.436 3.146,1.257 3.297,1.131 3.511 L 1.020 3.700 1.008 4.908 C 0.995 6.232,1.007 6.338,1.211 6.606 C 1.570 7.076,2.280 7.122,2.700 6.702 C 2.949 6.454,3.000 6.260,3.000 5.573 L 3.000 5.000 5.000 5.000 L 7.000 5.000 7.000 12.000 L 7.000 19.000 5.925 19.000 C 4.764 19.000,4.642 19.017,4.374 19.222 C 4.301 19.277,4.192 19.408,4.131 19.511 C 4.036 19.672,4.020 19.744,4.020 20.000 C 4.020 20.256,4.036 20.328,4.131 20.489 C 4.192 20.592,4.301 20.723,4.374 20.778 C 4.672 21.006,4.578 21.000,7.998 21.000 C 11.545 21.000,11.390 21.013,11.701 20.701 C 12.092 20.310,12.092 19.690,11.701 19.299 C 11.423 19.021,11.308 19.000,10.073 19.000 L 9.000 19.000 9.000 12.000 L 9.000 5.000 11.000 5.000 L 13.000 5.000 13.000 5.570 C 13.000 6.219,13.031 6.370,13.212 6.607 C 13.570 7.076,14.281 7.121,14.700 6.702 C 14.982 6.420,15.000 6.317,15.000 5.000 C 15.000 3.684,14.982 3.579,14.701 3.299 C 14.379 2.976,14.906 3.000,7.983 3.003 C 2.739 3.005,1.797 3.014,1.664 3.063 M13.643 10.069 C 13.401 10.154,13.147 10.418,13.063 10.672 C 13.005 10.846,12.997 11.016,13.007 11.828 C 13.022 12.899,13.039 12.970,13.345 13.239 C 13.550 13.419,13.715 13.480,14.000 13.480 C 14.285 13.480,14.450 13.419,14.655 13.239 C 14.898 13.025,14.973 12.838,14.992 12.390 L 15.009 12.000 16.005 12.000 L 17.000 12.000 17.000 15.495 L 17.000 18.991 16.610 19.008 C 16.314 19.021,16.181 19.045,16.056 19.110 C 15.867 19.209,15.654 19.437,15.575 19.626 C 15.504 19.795,15.504 20.205,15.575 20.374 C 15.653 20.562,15.866 20.790,16.056 20.892 C 16.218 20.979,16.245 20.980,18.000 20.980 C 19.755 20.980,19.782 20.979,19.944 20.892 C 20.134 20.790,20.347 20.562,20.425 20.374 C 20.496 20.205,20.496 19.795,20.425 19.626 C 20.346 19.437,20.133 19.209,19.944 19.110 C 19.819 19.045,19.686 19.021,19.390 19.008 L 19.000 18.991 19.000 15.495 L 19.000 12.000 19.995 12.000 L 20.991 12.000 21.008 12.390 C 21.027 12.838,21.102 13.025,21.345 13.239 C 21.550 13.419,21.715 13.480,22.000 13.480 C 22.285 13.480,22.450 13.419,22.655 13.239 C 22.961 12.970,22.978 12.899,22.993 11.828 C 23.007 10.718,22.981 10.579,22.702 10.300 C 22.384 9.982,22.668 10.000,17.983 10.003 C 14.320 10.006,13.799 10.014,13.643 10.069 " fill="#000640" stroke="none" fill-rule="evenodd"></path></svg>