<svg xmlns="http://www.w3.org/2000/svg" width="24" height="24" fill="currentColor" class="mmi mmi-fontsizev-increase" viewBox="0 0 24 24"><path d="M9.664 3.063 C 9.436 3.146,9.257 3.297,9.131 3.511 L 9.020 3.700 9.008 4.908 C 8.995 6.232,9.007 6.338,9.211 6.606 C 9.570 7.076,10.280 7.122,10.700 6.702 C 10.949 6.454,11.000 6.260,11.000 5.573 L 11.000 5.000 13.000 5.000 L 15.000 5.000 15.000 12.000 L 15.000 19.000 13.925 19.000 C 12.764 19.000,12.642 19.017,12.374 19.222 C 12.301 19.277,12.192 19.408,12.131 19.511 C 12.036 19.672,12.020 19.744,12.020 20.000 C 12.020 20.256,12.036 20.328,12.131 20.489 C 12.192 20.592,12.301 20.723,12.374 20.778 C 12.672 21.006,12.578 21.000,15.998 21.000 C 19.545 21.000,19.390 21.013,19.701 20.701 C 20.092 20.310,20.092 19.690,19.701 19.299 C 19.423 19.021,19.308 19.000,18.073 19.000 L 17.000 19.000 17.000 12.000 L 17.000 5.000 19.000 5.000 L 21.000 5.000 21.000 5.570 C 21.000 6.219,21.031 6.370,21.212 6.607 C 21.570 7.076,22.281 7.121,22.700 6.702 C 22.982 6.420,23.000 6.317,23.000 5.000 C 23.000 3.684,22.982 3.579,22.701 3.299 C 22.379 2.976,22.906 3.000,15.983 3.003 C 10.739 3.005,9.797 3.014,9.664 3.063 M1.643 10.069 C 1.401 10.154,1.147 10.418,1.063 10.672 C 1.005 10.846,0.997 11.016,1.007 11.828 C 1.022 12.899,1.039 12.970,1.345 13.239 C 1.550 13.419,1.715 13.480,2.000 13.480 C 2.285 13.480,2.450 13.419,2.655 13.239 C 2.898 13.025,2.973 12.838,2.992 12.390 L 3.009 12.000 4.005 12.000 L 5.000 12.000 5.000 15.495 L 5.000 18.991 4.610 19.008 C 4.314 19.021,4.181 19.045,4.056 19.110 C 3.867 19.209,3.654 19.437,3.575 19.626 C 3.504 19.795,3.504 20.205,3.575 20.374 C 3.653 20.562,3.866 20.790,4.056 20.892 C 4.218 20.979,4.245 20.980,6.000 20.980 C 7.755 20.980,7.782 20.979,7.944 20.892 C 8.134 20.790,8.347 20.562,8.425 20.374 C 8.455 20.302,8.480 20.133,8.480 20.000 C 8.480 19.715,8.419 19.550,8.239 19.345 C 8.025 19.102,7.838 19.027,7.390 19.008 L 7.000 18.991 7.000 15.495 L 7.000 12.000 7.995 12.000 L 8.991 12.000 9.008 12.390 C 9.027 12.838,9.102 13.025,9.345 13.239 C 9.550 13.419,9.715 13.480,10.000 13.480 C 10.285 13.480,10.450 13.419,10.655 13.239 C 10.961 12.970,10.978 12.899,10.993 11.828 C 11.007 10.718,10.981 10.579,10.702 10.300 C 10.384 9.982,10.668 10.000,5.983 10.003 C 2.320 10.006,1.799 10.014,1.643 10.069 " fill="#000640" stroke="none" fill-rule="evenodd"></path></svg>