<svg xmlns="http://www.w3.org/2000/svg" width="24" height="24" fill="currentColor" class="mmi mmi-foodtruck-icecream" viewBox="0 0 24 24"><path d="M10.433 3.040 C 9.843 3.134,9.221 3.380,8.731 3.712 C 7.954 4.240,7.390 5.042,7.132 5.989 C 7.045 6.306,7.025 6.468,7.024 6.840 L 7.023 7.300 8.575 10.900 C 9.428 12.880,10.170 14.558,10.224 14.629 C 10.278 14.700,10.408 14.808,10.511 14.869 C 10.672 14.964,10.744 14.980,11.000 14.980 C 11.256 14.980,11.328 14.964,11.489 14.869 C 11.592 14.808,11.722 14.700,11.776 14.629 C 11.830 14.558,12.572 12.880,13.425 10.900 L 14.977 7.300 14.974 6.840 C 14.967 5.623,14.312 4.421,13.269 3.712 C 12.917 3.473,12.343 3.214,11.958 3.120 C 11.572 3.026,10.783 2.984,10.433 3.040 M2.503 4.042 C 1.574 4.198,0.727 4.840,0.312 5.704 C -0.003 6.358,0.024 5.781,0.010 12.297 C -0.003 18.863,-0.025 18.377,0.298 18.700 C 0.580 18.982,0.683 19.000,2.009 19.000 L 3.163 19.000 3.241 19.182 C 3.457 19.685,3.893 20.201,4.358 20.501 C 4.898 20.850,5.340 20.979,6.000 20.979 C 6.255 20.979,6.558 20.955,6.680 20.924 C 7.596 20.697,8.380 20.041,8.752 19.190 L 8.836 19.000 11.999 19.000 L 15.163 19.000 15.241 19.182 C 15.457 19.685,15.893 20.201,16.358 20.501 C 16.898 20.850,17.340 20.979,18.000 20.979 C 18.255 20.979,18.558 20.955,18.680 20.924 C 19.596 20.697,20.380 20.041,20.752 19.190 L 20.836 19.000 21.991 19.000 C 23.317 19.000,23.420 18.982,23.701 18.701 C 24.008 18.394,24.000 18.483,24.000 15.520 C 24.000 12.559,24.004 12.604,23.718 12.318 C 23.608 12.208,23.306 12.033,22.710 11.736 C 22.243 11.502,21.855 11.307,21.849 11.301 C 21.843 11.296,21.497 10.096,21.079 8.636 C 20.262 5.773,20.186 5.564,19.800 5.090 C 19.439 4.646,18.832 4.257,18.260 4.100 C 18.121 4.062,17.783 4.025,17.456 4.012 C 16.771 3.984,16.562 4.036,16.300 4.298 C 15.820 4.778,15.948 5.592,16.550 5.886 C 16.708 5.963,16.828 5.982,17.260 6.002 C 17.679 6.021,17.811 6.041,17.940 6.109 C 18.124 6.205,18.283 6.365,18.374 6.545 C 18.408 6.613,18.798 7.936,19.241 9.485 C 19.683 11.033,20.081 12.376,20.125 12.469 C 20.244 12.717,20.375 12.808,21.228 13.234 L 22.000 13.619 22.000 15.310 L 22.000 17.000 21.419 17.000 L 20.837 17.000 20.759 16.818 C 20.399 15.977,19.594 15.303,18.680 15.076 C 18.396 15.005,17.604 15.005,17.320 15.076 C 16.406 15.303,15.601 15.977,15.241 16.818 L 15.163 17.000 12.000 17.000 L 8.837 17.000 8.759 16.818 C 8.543 16.315,8.107 15.799,7.642 15.499 C 7.102 15.150,6.660 15.021,6.000 15.021 C 5.340 15.021,4.898 15.150,4.358 15.499 C 3.893 15.799,3.457 16.315,3.241 16.818 L 3.163 17.000 2.581 17.000 L 2.000 17.000 2.002 11.910 C 2.003 7.762,2.013 6.792,2.057 6.670 C 2.136 6.449,2.298 6.256,2.511 6.131 L 2.700 6.020 3.980 6.000 C 5.221 5.981,5.266 5.977,5.450 5.886 C 6.051 5.590,6.180 4.778,5.701 4.299 C 5.417 4.015,5.325 3.999,3.923 4.005 C 3.250 4.007,2.611 4.024,2.503 4.042 M11.383 5.043 C 11.513 5.067,11.732 5.140,11.870 5.205 C 12.137 5.332,12.534 5.672,12.652 5.876 L 12.725 6.000 11.000 6.000 L 9.275 6.000 9.348 5.876 C 9.466 5.672,9.863 5.332,10.131 5.205 C 10.531 5.013,10.934 4.961,11.383 5.043 M12.469 8.030 C 12.460 8.046,12.132 8.812,11.739 9.730 C 11.347 10.648,11.014 11.400,11.000 11.400 C 10.986 11.400,10.653 10.648,10.261 9.730 C 9.868 8.812,9.540 8.046,9.531 8.030 C 9.522 8.014,10.183 8.000,11.000 8.000 C 11.817 8.000,12.478 8.014,12.469 8.030 M6.340 17.066 C 6.709 17.192,7.000 17.604,7.000 18.000 C 7.000 18.242,6.881 18.521,6.701 18.701 C 6.234 19.168,5.470 19.065,5.131 18.489 C 5.036 18.328,5.020 18.256,5.020 18.000 C 5.020 17.744,5.036 17.672,5.131 17.511 C 5.386 17.077,5.860 16.903,6.340 17.066 M18.340 17.066 C 18.709 17.192,19.000 17.604,19.000 18.000 C 19.000 18.242,18.881 18.521,18.701 18.701 C 18.234 19.168,17.470 19.065,17.131 18.489 C 17.036 18.328,17.020 18.256,17.020 18.000 C 17.020 17.744,17.036 17.672,17.131 17.511 C 17.386 17.077,17.860 16.903,18.340 17.066 " fill="#000640" stroke="none" fill-rule="evenodd"></path></svg>