<svg xmlns="http://www.w3.org/2000/svg" width="24" height="24" fill="currentColor" class="mmi mmi-foodcover" viewBox="0 0 24 24"><path d="M11.503 2.040 C 10.828 2.162,10.156 2.550,9.703 3.080 C 9.243 3.618,9.002 4.297,9.001 5.062 L 9.000 5.424 8.710 5.517 C 8.014 5.741,7.076 6.201,6.420 6.642 C 4.710 7.791,3.277 9.561,2.345 11.678 C 1.523 13.545,1.035 15.727,1.024 17.580 C 1.020 18.298,1.020 18.300,1.131 18.489 C 1.260 18.709,1.437 18.854,1.678 18.939 C 1.830 18.993,3.022 19.000,11.998 19.000 C 23.388 19.000,22.374 19.028,22.702 18.700 C 22.973 18.429,23.017 18.236,22.987 17.441 C 22.883 14.690,22.019 11.907,20.597 9.742 C 19.252 7.692,17.349 6.178,15.290 5.517 L 15.000 5.424 15.000 5.070 C 15.000 4.284,14.743 3.585,14.246 3.020 C 13.897 2.624,13.276 2.239,12.756 2.097 C 12.491 2.024,11.770 1.991,11.503 2.040 M12.340 4.066 C 12.593 4.153,12.847 4.407,12.934 4.660 C 13.066 5.048,13.140 5.020,12.000 5.020 C 10.860 5.020,10.934 5.048,11.066 4.660 C 11.239 4.153,11.812 3.886,12.340 4.066 M13.320 7.101 C 15.949 7.496,18.046 9.087,19.480 11.773 C 20.159 13.045,20.704 14.804,20.877 16.280 C 20.902 16.489,20.931 16.736,20.943 16.830 L 20.965 17.000 12.002 17.000 C 7.073 17.000,3.040 16.986,3.040 16.969 C 3.040 16.952,3.067 16.713,3.101 16.439 C 3.549 12.781,5.285 9.693,7.753 8.162 C 8.785 7.522,9.864 7.176,11.300 7.024 C 11.622 6.991,12.911 7.039,13.320 7.101 M1.643 20.069 C 1.291 20.193,1.000 20.614,1.000 21.000 C 1.000 21.396,1.291 21.808,1.660 21.934 C 1.839 21.995,2.661 22.000,12.000 22.000 C 23.385 22.000,22.374 22.028,22.701 21.701 C 23.092 21.310,23.092 20.690,22.701 20.299 C 22.374 19.972,23.388 20.000,11.983 20.003 C 2.885 20.006,1.801 20.013,1.643 20.069 " fill="#000640" stroke="none" fill-rule="evenodd"></path></svg>