<svg xmlns="http://www.w3.org/2000/svg" width="24" height="24" fill="currentColor" class="mmi mmi-formalshirt-v2" viewBox="0 0 24 24"><path d="M6.671 1.064 C 6.340 1.165,6.214 1.332,5.729 2.300 L 5.289 3.180 4.815 3.334 C 3.721 3.689,3.293 3.911,2.870 4.344 C 2.439 4.785,2.189 5.253,2.060 5.862 C 1.969 6.291,1.971 20.141,2.062 20.581 C 2.310 21.785,3.215 22.690,4.419 22.938 C 4.680 22.993,5.600 23.000,12.000 23.000 C 19.974 23.000,19.547 23.012,20.150 22.767 C 20.850 22.482,21.482 21.850,21.767 21.150 C 22.012 20.548,22.000 20.953,22.000 13.220 C 22.000 5.557,22.010 5.906,21.784 5.331 C 21.593 4.844,21.134 4.267,20.705 3.975 C 20.447 3.801,19.934 3.580,19.305 3.375 L 18.711 3.180 18.271 2.300 C 17.779 1.316,17.662 1.165,17.313 1.062 C 17.009 0.971,6.964 0.973,6.671 1.064 M14.079 3.055 C 14.046 3.084,13.566 3.472,13.010 3.915 L 12.000 4.722 10.990 3.915 C 10.434 3.472,9.954 3.084,9.921 3.055 C 9.872 3.008,10.194 3.000,12.000 3.000 C 13.806 3.000,14.128 3.008,14.079 3.055 M8.774 4.698 C 9.514 5.290,10.120 5.785,10.120 5.798 C 10.120 5.820,8.502 6.640,8.460 6.640 C 8.449 6.640,8.143 6.046,7.780 5.321 L 7.120 4.001 7.227 3.783 C 7.296 3.643,7.352 3.574,7.381 3.592 C 7.407 3.607,8.034 4.105,8.774 4.698 M16.220 5.319 C 15.857 6.046,15.551 6.640,15.540 6.640 C 15.482 6.640,13.881 5.816,13.890 5.790 C 13.896 5.773,14.520 5.264,15.278 4.657 L 16.656 3.555 16.769 3.777 L 16.881 3.999 16.220 5.319 M6.320 6.888 C 7.224 8.706,7.295 8.812,7.678 8.939 C 8.067 9.068,8.153 9.040,9.628 8.305 C 10.362 7.939,10.971 7.640,10.981 7.640 C 10.992 7.640,11.000 10.646,11.000 14.320 L 11.000 21.000 7.927 21.000 C 4.464 21.000,4.610 21.012,4.299 20.701 C 3.975 20.377,4.000 20.997,4.000 13.220 C 4.000 5.458,3.975 6.076,4.297 5.745 C 4.443 5.595,4.532 5.549,4.943 5.409 C 5.205 5.319,5.438 5.245,5.460 5.243 C 5.483 5.241,5.870 5.982,6.320 6.888 M19.037 5.406 C 19.472 5.551,19.555 5.593,19.703 5.745 C 20.019 6.070,20.000 5.762,20.000 10.647 L 20.000 15.000 18.425 15.000 C 16.721 15.000,16.656 15.007,16.374 15.222 C 16.301 15.277,16.192 15.408,16.131 15.511 C 16.036 15.672,16.020 15.744,16.020 16.000 C 16.020 16.256,16.036 16.328,16.131 16.489 C 16.192 16.592,16.301 16.723,16.374 16.778 C 16.656 16.993,16.721 17.000,18.425 17.000 L 20.000 17.000 20.000 18.573 C 20.000 20.362,19.994 20.409,19.701 20.701 C 19.390 21.012,19.536 21.000,16.073 21.000 L 13.000 21.000 13.000 14.320 C 13.000 10.646,13.008 7.640,13.019 7.640 C 13.029 7.640,13.638 7.939,14.372 8.305 C 15.847 9.040,15.933 9.068,16.322 8.939 C 16.705 8.812,16.776 8.706,17.680 6.888 C 18.130 5.982,18.508 5.240,18.520 5.240 C 18.531 5.240,18.764 5.315,19.037 5.406 " fill="#000640" stroke="none" fill-rule="evenodd"></path></svg>