<svg xmlns="http://www.w3.org/2000/svg" width="24" height="24" fill="currentColor" class="mmi mmi-forward-toend" viewBox="0 0 24 24"><path d="M5.582 3.002 C 4.521 3.168,3.610 3.872,3.223 4.824 C 2.991 5.396,3.000 5.109,3.000 12.000 C 3.000 18.894,2.991 18.604,3.224 19.177 C 3.511 19.883,4.167 20.523,4.909 20.821 C 5.668 21.126,6.511 21.099,7.263 20.744 C 7.597 20.586,7.306 20.797,12.141 17.220 C 14.521 15.460,16.088 14.274,16.263 14.100 C 17.385 12.991,17.426 11.154,16.355 9.982 C 16.220 9.834,14.745 8.716,12.065 6.730 C 7.401 3.275,7.572 3.399,7.234 3.241 C 6.743 3.013,6.103 2.920,5.582 3.002 M19.643 3.069 C 19.546 3.103,19.392 3.206,19.300 3.298 C 18.973 3.624,19.000 2.855,19.000 12.000 C 19.000 21.144,18.974 20.376,19.299 20.701 C 19.690 21.092,20.310 21.092,20.701 20.701 C 21.026 20.376,21.000 21.144,21.000 12.000 C 21.000 2.856,21.026 3.624,20.701 3.299 C 20.424 3.021,20.024 2.934,19.643 3.069 M6.460 5.097 C 6.659 5.206,14.651 11.122,14.830 11.292 C 15.029 11.481,15.120 11.704,15.120 12.000 C 15.120 12.305,15.029 12.519,14.811 12.725 C 14.612 12.913,6.673 18.787,6.440 18.918 C 6.038 19.145,5.460 18.999,5.199 18.606 C 5.133 18.506,5.061 18.358,5.039 18.276 C 5.013 18.180,5.003 15.962,5.010 11.914 L 5.020 5.700 5.106 5.539 C 5.382 5.023,5.975 4.830,6.460 5.097 " fill="#000640" stroke="none" fill-rule="evenodd"></path></svg>