<svg xmlns="http://www.w3.org/2000/svg" width="24" height="24" fill="currentColor" class="mmi mmi-forward-button" viewBox="0 0 24 24"><path d="M11.200 0.025 C 7.091 0.332,3.508 2.609,1.507 6.186 C 0.775 7.494,0.317 8.899,0.094 10.520 C -0.002 11.214,-0.002 12.786,0.094 13.480 C 0.317 15.101,0.775 16.506,1.507 17.814 C 4.173 22.579,9.604 24.939,14.910 23.637 C 19.156 22.595,22.595 19.156,23.637 14.910 C 24.599 10.992,23.592 6.970,20.896 3.958 C 19.003 1.843,16.397 0.483,13.500 0.099 C 13.032 0.037,11.640 -0.007,11.200 0.025 M12.920 2.043 C 14.827 2.219,16.631 2.940,18.200 4.155 C 18.637 4.493,19.507 5.363,19.845 5.800 C 21.878 8.427,22.517 11.768,21.578 14.865 C 21.082 16.499,20.272 17.850,19.061 19.061 C 18.287 19.836,17.547 20.383,16.623 20.863 C 13.714 22.376,10.286 22.376,7.377 20.863 C 6.454 20.383,5.715 19.837,4.938 19.061 C 3.951 18.075,3.213 16.964,2.722 15.728 C 1.390 12.368,1.921 8.686,4.153 5.800 C 4.491 5.363,5.363 4.491,5.800 4.153 C 7.114 3.137,8.541 2.486,10.125 2.181 C 11.037 2.006,12.003 1.958,12.920 2.043 M6.667 7.065 C 6.542 7.103,6.412 7.186,6.299 7.299 C 5.981 7.616,5.997 7.357,6.009 12.084 L 6.020 16.262 6.122 16.461 C 6.253 16.714,6.495 16.900,6.779 16.963 C 7.214 17.061,7.188 17.075,9.701 15.399 L 11.980 13.880 12.000 15.071 C 12.020 16.252,12.021 16.264,12.122 16.461 C 12.254 16.716,12.495 16.900,12.785 16.965 C 13.223 17.063,13.140 17.110,16.588 14.810 C 18.969 13.221,19.739 12.687,19.816 12.574 C 20.042 12.242,20.042 11.758,19.816 11.426 C 19.739 11.312,18.972 10.781,16.592 9.195 C 14.875 8.050,13.398 7.087,13.310 7.056 C 12.861 6.898,12.326 7.119,12.114 7.550 C 12.023 7.733,12.019 7.784,12.000 8.930 L 11.980 10.120 9.725 8.616 C 8.484 7.789,7.398 7.087,7.310 7.056 C 7.110 6.986,6.915 6.989,6.667 7.065 M9.690 10.994 C 10.498 11.532,11.160 11.985,11.160 12.000 C 11.160 12.020,8.981 13.490,8.110 14.058 L 8.000 14.129 8.000 12.000 L 8.000 9.871 8.110 9.942 C 8.171 9.982,8.882 10.455,9.690 10.994 M15.690 10.994 C 16.498 11.532,17.160 11.985,17.160 12.000 C 17.160 12.020,14.981 13.490,14.110 14.058 L 14.000 14.129 14.000 12.000 L 14.000 9.871 14.110 9.942 C 14.171 9.982,14.882 10.455,15.690 10.994 " stroke="none" fill-rule="evenodd"></path></svg>