<svg xmlns="http://www.w3.org/2000/svg" width="24" height="24" fill="currentColor" class="mmi mmi-forward-button-toend" viewBox="0 0 24 24"><path d="M11.200 0.025 C 7.091 0.332,3.508 2.609,1.507 6.186 C 0.775 7.494,0.317 8.899,0.094 10.520 C -0.002 11.214,-0.002 12.786,0.094 13.480 C 0.317 15.101,0.775 16.506,1.507 17.814 C 4.173 22.579,9.604 24.939,14.910 23.637 C 19.156 22.595,22.595 19.156,23.637 14.910 C 24.599 10.992,23.592 6.970,20.896 3.958 C 19.003 1.843,16.397 0.483,13.500 0.099 C 13.032 0.037,11.640 -0.007,11.200 0.025 M12.920 2.043 C 14.827 2.219,16.631 2.940,18.200 4.155 C 18.637 4.493,19.507 5.363,19.845 5.800 C 21.878 8.427,22.517 11.768,21.578 14.865 C 21.082 16.499,20.272 17.850,19.061 19.061 C 18.287 19.836,17.547 20.383,16.623 20.863 C 13.714 22.376,10.286 22.376,7.377 20.863 C 6.454 20.383,5.715 19.837,4.938 19.061 C 3.951 18.075,3.213 16.964,2.722 15.728 C 1.390 12.368,1.921 8.686,4.153 5.800 C 4.491 5.363,5.363 4.491,5.800 4.153 C 7.114 3.137,8.541 2.486,10.125 2.181 C 11.037 2.006,12.003 1.958,12.920 2.043 M7.667 7.065 C 7.542 7.103,7.412 7.186,7.299 7.299 C 6.981 7.616,6.997 7.357,7.009 12.084 L 7.020 16.262 7.122 16.461 C 7.254 16.716,7.495 16.900,7.785 16.965 C 8.223 17.063,8.140 17.110,11.588 14.810 C 13.969 13.221,14.739 12.687,14.816 12.574 C 15.042 12.242,15.042 11.758,14.816 11.426 C 14.739 11.312,13.972 10.781,11.592 9.195 C 9.875 8.050,8.398 7.087,8.310 7.056 C 8.110 6.986,7.915 6.989,7.667 7.065 M16.643 7.069 C 16.546 7.103,16.392 7.206,16.300 7.298 C 15.982 7.616,16.000 7.336,16.000 12.000 C 16.000 16.663,15.982 16.384,16.299 16.701 C 16.690 17.092,17.310 17.092,17.701 16.701 C 18.018 16.384,18.000 16.663,18.000 12.000 C 18.000 7.337,18.018 7.616,17.701 7.299 C 17.424 7.021,17.024 6.934,16.643 7.069 M10.690 10.994 C 11.498 11.532,12.160 11.985,12.160 12.000 C 12.160 12.020,9.981 13.490,9.110 14.058 L 9.000 14.129 9.000 12.000 L 9.000 9.871 9.110 9.942 C 9.171 9.982,9.882 10.455,10.690 10.994 " stroke="none" fill-rule="evenodd"></path></svg>