<svg xmlns="http://www.w3.org/2000/svg" width="24" height="24" fill="currentColor" class="mmi mmi-forward" viewBox="0 0 24 24"><path d="M4.650 3.844 C 3.602 3.967,2.620 4.699,2.236 5.643 C 1.991 6.246,2.000 5.995,2.000 12.000 C 2.000 17.946,1.993 17.741,2.217 18.313 C 2.708 19.566,4.146 20.374,5.475 20.143 C 6.097 20.035,6.319 19.917,7.771 18.914 C 8.892 18.139,9.103 18.007,9.126 18.068 C 9.341 18.649,9.576 19.017,9.957 19.368 C 10.453 19.825,11.010 20.081,11.695 20.167 C 12.161 20.226,12.707 20.143,13.166 19.944 C 13.619 19.749,21.275 14.447,21.640 14.076 C 22.592 13.110,22.753 11.618,22.034 10.413 C 21.741 9.921,21.574 9.794,17.480 6.961 C 15.335 5.477,13.463 4.205,13.320 4.135 C 12.953 3.954,12.729 3.886,12.350 3.844 C 11.239 3.719,10.107 4.241,9.505 5.155 C 9.334 5.414,9.161 5.765,9.159 5.855 C 9.157 6.036,9.071 5.990,7.911 5.186 C 6.486 4.198,6.454 4.178,6.115 4.038 C 5.666 3.853,5.152 3.785,4.650 3.844 M5.417 5.920 C 5.507 5.964,7.290 7.184,9.380 8.632 C 12.665 10.906,13.197 11.289,13.308 11.453 C 13.532 11.786,13.532 12.213,13.308 12.548 C 13.197 12.713,12.714 13.061,9.700 15.149 C 5.095 18.339,5.446 18.105,5.183 18.159 C 4.764 18.246,4.323 18.027,4.107 17.623 L 4.020 17.460 4.020 12.000 L 4.020 6.540 4.106 6.380 C 4.216 6.178,4.419 5.982,4.600 5.904 C 4.807 5.814,5.219 5.823,5.417 5.920 M12.417 5.920 C 12.507 5.964,14.290 7.184,16.380 8.632 C 19.665 10.906,20.197 11.289,20.308 11.453 C 20.532 11.786,20.532 12.213,20.308 12.548 C 20.197 12.713,19.714 13.061,16.700 15.149 C 12.095 18.339,12.446 18.105,12.183 18.159 C 11.763 18.246,11.320 18.025,11.109 17.623 C 11.038 17.489,11.023 17.389,11.022 17.063 L 11.020 16.667 12.680 15.519 C 14.427 14.310,14.774 14.025,15.034 13.588 C 15.630 12.586,15.630 11.414,15.034 10.412 C 14.775 9.975,14.427 9.691,12.680 8.484 L 11.020 7.337 11.022 6.939 C 11.023 6.611,11.038 6.511,11.108 6.380 C 11.215 6.179,11.418 5.982,11.600 5.904 C 11.807 5.814,12.219 5.823,12.417 5.920 " fill="#000640" stroke="none" fill-rule="evenodd"></path></svg>