<svg xmlns="http://www.w3.org/2000/svg" width="24" height="24" fill="currentColor" class="mmi mmi-four" viewBox="0 0 24 24"><path d="M11.200 0.025 C 7.091 0.332,3.508 2.609,1.507 6.186 C 0.775 7.494,0.317 8.899,0.094 10.520 C -0.002 11.214,-0.002 12.786,0.094 13.480 C 0.317 15.101,0.775 16.506,1.507 17.814 C 4.173 22.579,9.604 24.939,14.910 23.637 C 19.156 22.595,22.595 19.156,23.637 14.910 C 24.599 10.992,23.592 6.970,20.896 3.958 C 19.003 1.843,16.397 0.483,13.500 0.099 C 13.032 0.037,11.640 -0.007,11.200 0.025 M12.920 2.043 C 14.827 2.219,16.631 2.940,18.200 4.155 C 18.637 4.493,19.507 5.363,19.845 5.800 C 21.878 8.427,22.517 11.768,21.578 14.865 C 21.082 16.499,20.272 17.850,19.061 19.061 C 18.287 19.836,17.547 20.383,16.623 20.863 C 13.714 22.376,10.286 22.376,7.377 20.863 C 6.454 20.383,5.715 19.837,4.938 19.061 C 3.951 18.075,3.213 16.964,2.722 15.728 C 1.390 12.368,1.921 8.686,4.153 5.800 C 4.491 5.363,5.363 4.491,5.800 4.153 C 7.114 3.137,8.541 2.486,10.125 2.181 C 11.037 2.006,12.003 1.958,12.920 2.043 M10.664 6.063 C 10.458 6.138,10.267 6.287,10.167 6.449 C 10.123 6.521,9.509 8.197,8.803 10.173 C 7.666 13.359,7.520 13.794,7.520 14.005 C 7.520 14.136,7.545 14.302,7.575 14.374 C 7.653 14.562,7.866 14.790,8.056 14.892 C 8.219 14.979,8.238 14.980,10.610 14.991 L 13.000 15.002 13.000 16.074 C 13.000 17.308,13.021 17.423,13.299 17.701 C 13.690 18.092,14.310 18.092,14.701 17.701 C 14.979 17.423,15.000 17.307,15.000 16.078 L 15.000 15.009 15.390 14.992 C 15.838 14.973,16.025 14.898,16.239 14.655 C 16.419 14.450,16.480 14.285,16.480 14.000 C 16.480 13.715,16.419 13.550,16.239 13.345 C 16.025 13.102,15.838 13.027,15.390 13.008 L 15.000 12.991 15.000 9.922 C 15.000 6.465,15.012 6.610,14.701 6.299 C 14.521 6.119,14.242 6.000,14.000 6.000 C 13.758 6.000,13.479 6.119,13.299 6.299 C 12.988 6.610,13.000 6.464,13.000 9.927 L 13.000 13.000 11.456 13.000 C 10.001 13.000,9.913 12.996,9.939 12.930 C 10.205 12.267,11.977 7.208,11.991 7.074 C 12.061 6.379,11.327 5.820,10.664 6.063 " stroke="none" fill-rule="evenodd"></path></svg>