<svg xmlns="http://www.w3.org/2000/svg" width="24" height="24" fill="currentColor" class="mmi mmi-frame" viewBox="0 0 24 24"><path d="M4.664 1.063 C 4.436 1.146,4.257 1.297,4.131 1.511 L 4.020 1.700 4.008 2.850 L 3.995 4.000 2.923 4.000 C 1.764 4.000,1.642 4.018,1.374 4.222 C 1.301 4.277,1.192 4.408,1.131 4.511 C 1.036 4.672,1.020 4.744,1.020 5.000 C 1.020 5.256,1.036 5.328,1.131 5.489 C 1.192 5.592,1.301 5.723,1.374 5.778 C 1.642 5.983,1.764 6.000,2.925 6.000 L 4.000 6.000 4.000 12.000 L 4.000 18.000 2.925 18.000 C 1.764 18.000,1.642 18.017,1.374 18.222 C 1.301 18.277,1.192 18.408,1.131 18.511 C 1.036 18.672,1.020 18.744,1.020 19.000 C 1.020 19.256,1.036 19.328,1.131 19.489 C 1.192 19.592,1.301 19.723,1.374 19.778 C 1.642 19.983,1.764 20.000,2.925 20.000 L 4.000 20.000 4.000 21.070 C 4.000 21.684,4.018 22.204,4.042 22.289 C 4.103 22.509,4.315 22.762,4.531 22.874 C 4.932 23.080,5.390 23.012,5.700 22.702 C 5.979 22.423,6.000 22.309,6.000 21.073 L 6.000 20.000 12.000 20.000 L 18.000 20.000 18.000 21.070 C 18.000 21.684,18.018 22.204,18.042 22.289 C 18.103 22.509,18.315 22.762,18.531 22.874 C 18.932 23.080,19.390 23.012,19.700 22.702 C 19.979 22.423,20.000 22.309,20.000 21.073 L 20.000 20.000 21.073 20.000 C 22.308 20.000,22.423 19.979,22.701 19.701 C 23.092 19.310,23.092 18.690,22.701 18.299 C 22.423 18.021,22.308 18.000,21.073 18.000 L 20.000 18.000 20.000 12.000 L 20.000 6.000 21.073 6.000 C 22.308 6.000,22.423 5.979,22.701 5.701 C 23.092 5.310,23.092 4.690,22.701 4.299 C 22.423 4.021,22.308 4.000,21.073 4.000 L 20.000 4.000 20.000 2.927 C 20.000 1.691,19.979 1.577,19.700 1.298 C 19.390 0.988,18.932 0.920,18.531 1.126 C 18.315 1.238,18.103 1.491,18.042 1.711 C 18.018 1.796,18.000 2.316,18.000 2.930 L 18.000 4.000 12.000 4.000 L 6.000 4.000 6.000 2.927 C 6.000 1.692,5.979 1.577,5.701 1.299 C 5.429 1.027,5.018 0.933,4.664 1.063 M18.000 12.000 L 18.000 18.000 12.000 18.000 L 6.000 18.000 6.000 12.000 L 6.000 6.000 12.000 6.000 L 18.000 6.000 18.000 12.000 " fill="#000640" stroke="none" fill-rule="evenodd"></path></svg>