<svg xmlns="http://www.w3.org/2000/svg" width="24" height="24" fill="currentColor" class="mmi mmi-Frame 842" viewBox="0 0 24 24"><path d="M12.413 1.200 C 11.731 1.378,11.704 1.403,9.036 4.319 C 7.730 5.747,6.657 6.910,6.651 6.904 C 6.645 6.899,6.639 6.578,6.638 6.193 C 6.635 5.370,6.583 5.066,6.374 4.642 C 6.178 4.243,5.800 3.868,5.396 3.671 C 5.043 3.499,4.780 3.440,4.374 3.440 C 3.765 3.440,3.269 3.650,2.820 4.100 C 2.472 4.447,2.354 4.682,2.082 5.569 C 1.561 7.270,1.233 8.911,1.059 10.680 C 0.919 12.105,0.942 14.535,1.104 15.500 C 1.382 17.152,2.108 18.774,3.097 19.950 C 4.375 21.471,6.023 22.412,8.060 22.785 C 8.375 22.843,8.660 22.858,9.400 22.858 C 10.230 22.858,10.389 22.847,10.760 22.766 C 11.389 22.629,12.096 22.386,12.627 22.125 C 13.139 21.872,13.869 21.402,14.057 21.204 C 14.122 21.136,14.190 21.080,14.208 21.080 C 14.227 21.080,15.947 19.919,18.031 18.499 C 21.058 16.437,21.869 15.866,22.063 15.662 C 22.926 14.753,22.885 13.324,21.968 12.388 C 21.644 12.057,21.143 11.813,20.688 11.764 C 20.506 11.745,20.321 11.738,20.278 11.749 C 20.235 11.760,20.200 11.753,20.200 11.733 C 20.200 11.713,20.747 11.080,21.416 10.326 C 22.699 8.881,22.847 8.677,22.977 8.174 C 23.056 7.865,23.057 7.377,22.978 7.044 C 22.872 6.591,22.700 6.292,22.344 5.938 C 21.860 5.457,21.346 5.240,20.693 5.240 C 20.378 5.240,19.907 5.342,19.678 5.461 L 19.567 5.519 19.705 5.289 C 19.990 4.815,20.098 4.180,19.984 3.640 C 19.884 3.162,19.678 2.790,19.320 2.434 C 18.842 1.961,18.327 1.748,17.660 1.748 C 17.252 1.748,16.979 1.811,16.600 1.991 C 16.343 2.114,16.228 2.207,15.792 2.649 L 15.284 3.165 15.241 2.993 C 15.106 2.460,14.903 2.107,14.530 1.755 C 13.947 1.205,13.169 1.001,12.413 1.200 M13.340 2.729 C 13.709 2.923,13.898 3.459,13.746 3.880 C 13.718 3.957,12.915 5.064,11.962 6.340 C 11.008 7.616,10.204 8.718,10.174 8.789 C 10.050 9.083,10.153 9.461,10.410 9.653 C 10.573 9.776,10.688 9.811,10.910 9.806 C 11.285 9.799,11.263 9.820,14.245 6.582 C 15.786 4.909,17.118 3.483,17.205 3.413 C 17.624 3.077,18.288 3.220,18.518 3.696 C 18.624 3.914,18.629 4.288,18.528 4.482 C 18.489 4.558,17.335 6.039,15.966 7.774 C 14.596 9.509,13.458 10.972,13.438 11.026 C 13.417 11.081,13.389 11.248,13.375 11.397 C 13.354 11.622,13.363 11.692,13.423 11.795 C 13.464 11.864,13.526 11.920,13.561 11.920 C 13.596 11.920,13.685 11.965,13.760 12.020 C 13.931 12.146,14.240 12.158,14.420 12.044 C 14.486 12.003,15.800 10.822,17.340 9.421 C 18.880 8.019,20.207 6.838,20.288 6.796 C 20.493 6.691,20.773 6.699,21.025 6.816 C 21.469 7.023,21.642 7.551,21.408 7.986 C 21.370 8.056,20.197 9.383,18.801 10.937 C 17.404 12.490,16.228 13.827,16.186 13.907 C 16.077 14.120,16.106 14.518,16.242 14.663 C 16.401 14.833,16.533 14.880,16.848 14.880 L 17.140 14.879 18.515 14.080 C 19.272 13.640,19.958 13.260,20.041 13.235 C 20.571 13.076,21.115 13.562,21.072 14.157 C 21.061 14.321,21.025 14.437,20.958 14.537 C 20.888 14.640,20.083 15.215,18.120 16.566 C 15.042 18.683,13.466 19.776,13.200 19.978 C 11.818 21.030,10.382 21.489,8.874 21.361 C 6.009 21.119,3.815 19.316,2.858 16.418 C 2.532 15.431,2.440 14.656,2.440 12.887 C 2.440 10.582,2.716 8.554,3.322 6.418 C 3.590 5.473,3.655 5.312,3.839 5.146 C 4.220 4.801,4.863 5.003,4.996 5.509 C 5.017 5.592,5.074 6.497,5.121 7.520 C 5.246 10.210,5.253 10.311,5.352 10.504 C 5.513 10.821,5.833 11.000,6.236 11.000 C 6.428 11.000,6.968 11.156,7.268 11.298 C 8.375 11.822,9.149 12.822,9.561 14.260 C 9.631 14.502,9.730 14.756,9.782 14.824 C 9.974 15.079,10.397 15.185,10.668 15.046 C 10.986 14.884,11.153 14.560,11.100 14.209 C 10.999 13.529,10.660 12.648,10.261 12.024 C 9.555 10.920,8.375 10.029,7.124 9.655 L 6.757 9.545 6.768 9.296 L 6.780 9.046 9.532 6.005 C 11.045 4.332,12.357 2.900,12.447 2.823 C 12.701 2.606,13.038 2.571,13.340 2.729 " fill="#000640" stroke="none" fill-rule="evenodd"></path></svg>