<svg xmlns="http://www.w3.org/2000/svg" width="24" height="24" fill="currentColor" class="mmi mmi-frenchfries" viewBox="0 0 24 24"><path d="M9.664 1.063 C 9.436 1.146,9.257 1.297,9.131 1.511 C 9.024 1.693,9.020 1.723,9.007 2.350 L 8.993 3.000 7.422 3.000 C 5.721 3.000,5.656 3.007,5.374 3.222 C 5.301 3.277,5.192 3.408,5.131 3.511 C 5.020 3.700,5.020 3.700,5.007 4.585 L 4.995 5.469 4.487 5.811 C 3.826 6.257,3.440 6.590,3.120 6.994 C 2.526 7.743,2.173 8.565,2.043 9.499 C 2.019 9.668,2.000 10.097,2.000 10.454 L 2.000 11.102 2.878 15.921 C 3.360 18.571,3.792 20.844,3.836 20.971 C 4.168 21.924,4.936 22.636,5.928 22.910 C 6.162 22.975,6.591 22.980,12.000 22.980 C 17.409 22.980,17.838 22.975,18.072 22.910 C 19.064 22.636,19.832 21.924,20.164 20.971 C 20.208 20.844,20.640 18.571,21.122 15.921 L 22.000 11.102 22.000 10.454 C 22.000 10.097,21.981 9.668,21.957 9.499 C 21.827 8.565,21.474 7.743,20.880 6.994 C 20.560 6.590,20.174 6.257,19.510 5.809 L 19.000 5.465 19.000 5.160 C 19.000 4.762,18.913 4.511,18.701 4.299 C 18.409 4.006,18.362 4.000,16.573 4.000 L 15.000 4.000 15.000 2.927 C 15.000 1.692,14.979 1.577,14.701 1.299 C 14.398 0.996,14.430 1.000,11.983 1.003 C 10.210 1.005,9.792 1.016,9.664 1.063 M13.000 7.415 L 13.000 11.829 12.814 11.855 C 12.574 11.888,11.426 11.888,11.186 11.855 L 11.000 11.829 11.000 7.415 L 11.000 3.000 12.000 3.000 L 13.000 3.000 13.000 7.415 M9.000 8.305 L 9.000 11.610 8.790 11.583 C 8.583 11.556,7.443 11.316,7.150 11.237 L 7.000 11.197 7.000 8.098 L 7.000 5.000 8.000 5.000 L 9.000 5.000 9.000 8.305 M17.000 8.598 L 17.000 11.197 16.850 11.237 C 16.557 11.316,15.417 11.556,15.210 11.583 L 15.000 11.610 15.000 8.805 L 15.000 6.000 16.000 6.000 L 17.000 6.000 17.000 8.598 M4.983 10.590 C 4.973 10.600,4.752 10.537,4.492 10.450 L 4.020 10.292 4.026 9.976 C 4.039 9.303,4.301 8.673,4.806 8.102 L 4.980 7.905 4.991 9.239 C 4.996 9.972,4.993 10.580,4.983 10.590 M19.390 8.340 C 19.747 8.810,19.963 9.415,19.974 9.976 L 19.980 10.291 19.521 10.446 C 19.269 10.531,19.049 10.600,19.031 10.600 C 19.014 10.600,19.000 9.994,19.000 9.253 L 19.000 7.906 19.104 8.003 C 19.161 8.056,19.290 8.208,19.390 8.340 M5.008 12.716 C 10.131 14.260,13.874 14.260,18.990 12.717 C 19.349 12.609,19.657 12.520,19.674 12.520 C 19.692 12.520,19.386 14.275,18.996 16.421 C 18.224 20.668,18.254 20.543,17.939 20.783 C 17.646 21.007,17.941 20.996,12.000 20.996 C 6.059 20.996,6.354 21.007,6.061 20.783 C 5.746 20.543,5.776 20.668,5.004 16.421 C 4.614 14.275,4.308 12.520,4.326 12.520 C 4.343 12.520,4.650 12.608,5.008 12.716 " fill="#000640" stroke="none" fill-rule="evenodd"></path></svg>