<svg xmlns="http://www.w3.org/2000/svg" width="24" height="24" fill="currentColor" class="mmi mmi-fullscreen" viewBox="0 0 24 24"><path d="M4.503 2.042 C 3.490 2.212,2.556 2.976,2.202 3.925 C 2.010 4.441,2.001 4.561,2.001 6.920 C 2.001 8.328,2.016 9.194,2.042 9.289 C 2.103 9.509,2.315 9.762,2.531 9.874 C 2.932 10.080,3.390 10.012,3.700 9.702 C 4.003 9.399,4.000 9.429,4.000 7.000 C 4.000 4.573,3.997 4.601,4.299 4.299 C 4.601 3.997,4.573 4.000,7.000 4.000 C 9.427 4.000,9.399 4.003,9.701 3.701 C 10.092 3.310,10.092 2.690,9.701 2.299 C 9.397 1.995,9.438 1.999,6.923 2.005 C 5.700 2.007,4.611 2.024,4.503 2.042 M14.664 2.062 C 14.435 2.147,14.256 2.298,14.131 2.511 C 14.036 2.672,14.020 2.744,14.020 3.000 C 14.020 3.256,14.036 3.328,14.131 3.489 C 14.192 3.592,14.301 3.723,14.374 3.778 C 14.664 4.000,14.670 4.000,16.998 4.000 C 19.428 4.000,19.399 3.997,19.701 4.299 C 20.003 4.601,20.000 4.573,20.000 6.997 C 20.000 8.350,20.016 9.195,20.042 9.289 C 20.103 9.509,20.315 9.762,20.531 9.874 C 20.932 10.080,21.390 10.012,21.700 9.702 C 22.004 9.398,22.000 9.437,22.000 6.931 C 22.000 4.516,21.991 4.402,21.766 3.849 C 21.434 3.032,20.678 2.370,19.756 2.090 C 19.445 1.996,14.908 1.971,14.664 2.062 M2.664 14.063 C 2.436 14.146,2.257 14.297,2.131 14.511 L 2.020 14.700 2.009 16.980 C 1.996 19.477,2.004 19.586,2.233 20.149 C 2.521 20.857,3.142 21.479,3.849 21.766 C 4.402 21.991,4.516 22.000,6.931 22.000 C 9.435 22.000,9.398 22.004,9.701 21.701 C 10.092 21.310,10.092 20.690,9.701 20.299 C 9.399 19.997,9.427 20.000,7.000 20.000 C 4.573 20.000,4.601 20.003,4.299 19.701 C 3.997 19.399,4.000 19.427,4.000 17.000 C 4.000 14.573,4.003 14.601,3.701 14.299 C 3.429 14.027,3.018 13.933,2.664 14.063 M20.664 14.063 C 20.436 14.146,20.257 14.297,20.131 14.511 L 20.020 14.700 20.000 16.980 L 19.980 19.260 19.886 19.450 C 19.835 19.555,19.728 19.694,19.649 19.759 C 19.356 20.000,19.354 20.000,16.998 20.000 C 14.670 20.000,14.664 20.000,14.374 20.222 C 14.301 20.277,14.192 20.408,14.131 20.511 C 14.036 20.672,14.020 20.744,14.020 21.000 C 14.020 21.256,14.036 21.328,14.131 21.489 C 14.260 21.709,14.437 21.854,14.678 21.939 C 14.935 22.030,19.141 22.029,19.581 21.938 C 20.780 21.691,21.691 20.780,21.938 19.581 C 21.990 19.334,22.000 18.906,22.000 17.069 C 22.000 14.565,22.004 14.602,21.701 14.299 C 21.429 14.027,21.018 13.933,20.664 14.063 " fill="#000640" stroke="none" fill-rule="evenodd"></path></svg>