<svg xmlns="http://www.w3.org/2000/svg" width="24" height="24" fill="currentColor" class="mmi mmi-gasstation" viewBox="0 0 24 24"><path d="M3.503 1.042 C 2.815 1.159,2.117 1.573,1.670 2.127 C 1.445 2.407,1.159 2.980,1.074 3.320 C 0.993 3.647,0.993 20.353,1.074 20.680 C 1.159 21.020,1.445 21.593,1.670 21.873 C 1.950 22.220,2.312 22.501,2.740 22.704 C 3.370 23.002,3.337 23.000,7.000 23.000 C 10.663 23.000,10.630 23.002,11.260 22.704 C 11.920 22.391,12.391 21.920,12.704 21.260 C 13.001 20.632,13.000 20.650,13.000 17.116 L 13.000 14.000 13.573 14.000 C 14.213 14.000,14.410 14.044,14.649 14.241 C 14.728 14.306,14.835 14.445,14.886 14.550 L 14.980 14.740 15.002 17.640 C 15.027 20.863,15.011 20.671,15.312 21.296 C 15.721 22.147,16.531 22.768,17.460 22.942 C 17.886 23.022,18.683 23.002,19.044 22.902 C 20.085 22.616,20.918 21.784,21.176 20.773 C 21.208 20.645,21.634 17.948,22.121 14.781 C 22.781 10.483,23.000 8.976,22.980 8.845 C 22.946 8.618,19.419 1.550,19.236 1.341 C 19.034 1.112,18.828 1.022,18.500 1.022 C 18.171 1.022,17.966 1.112,17.761 1.345 C 17.579 1.553,17.520 1.716,17.520 2.015 C 17.520 2.263,17.537 2.308,17.942 3.123 C 18.385 4.012,18.391 4.038,18.158 4.039 C 18.103 4.040,17.950 4.067,17.818 4.101 C 16.770 4.368,15.928 5.206,15.657 6.251 C 15.289 7.673,16.040 9.184,17.400 9.759 C 17.892 9.967,17.937 9.972,19.431 9.989 L 20.842 10.006 20.819 10.133 C 20.806 10.203,20.448 12.523,20.023 15.288 C 19.307 19.943,19.242 20.330,19.142 20.500 C 19.017 20.714,18.775 20.902,18.546 20.964 C 18.269 21.038,17.768 20.996,17.539 20.878 C 17.316 20.763,17.104 20.512,17.042 20.289 C 17.015 20.193,17.000 19.181,17.000 17.454 C 17.000 14.398,16.997 14.359,16.704 13.740 C 16.398 13.095,15.924 12.614,15.296 12.312 C 14.783 12.065,14.627 12.034,13.770 12.011 L 13.000 11.991 13.000 7.880 C 13.000 3.238,13.008 3.383,12.704 2.740 C 12.398 2.095,11.924 1.614,11.296 1.312 C 10.658 1.005,10.932 1.024,7.120 1.016 C 5.239 1.011,3.611 1.023,3.503 1.042 M10.340 3.066 C 10.593 3.153,10.847 3.407,10.934 3.660 C 10.991 3.828,11.000 4.068,11.000 5.427 L 11.000 7.000 6.998 7.000 L 2.997 7.000 3.008 5.350 L 3.020 3.700 3.131 3.511 C 3.256 3.298,3.449 3.136,3.670 3.057 C 3.790 3.014,4.445 3.003,6.983 3.002 C 9.825 3.000,10.165 3.007,10.340 3.066 M19.870 6.980 C 20.140 7.519,20.360 7.969,20.360 7.980 C 20.360 7.991,19.922 8.000,19.387 8.000 C 18.262 8.000,18.132 7.975,17.859 7.701 C 17.467 7.309,17.468 6.690,17.860 6.298 C 18.097 6.060,18.283 6.007,18.880 6.003 L 19.381 6.000 19.870 6.980 M11.000 14.573 C 11.000 20.836,11.022 20.380,10.700 20.702 C 10.387 21.015,10.548 21.003,6.936 20.991 L 3.738 20.980 3.539 20.878 C 3.316 20.763,3.104 20.512,3.042 20.289 C 3.014 20.190,3.000 18.284,3.000 14.570 L 3.000 9.000 7.000 9.000 L 11.000 9.000 11.000 14.573 M5.664 12.063 C 5.436 12.146,5.257 12.297,5.131 12.511 C 5.036 12.672,5.020 12.744,5.020 13.000 C 5.020 13.256,5.036 13.328,5.131 13.489 C 5.260 13.709,5.437 13.854,5.678 13.939 C 5.941 14.032,8.064 14.028,8.340 13.934 C 8.709 13.808,9.000 13.396,9.000 13.000 C 9.000 12.604,8.709 12.192,8.340 12.066 C 8.073 11.975,5.910 11.973,5.664 12.063 " fill="#000640" stroke="none" fill-rule="evenodd"></path></svg>