<svg xmlns="http://www.w3.org/2000/svg" width="24" height="24" fill="currentColor" class="mmi mmi-gearring" viewBox="0 0 24 24"><path d="M11.503 0.040 C 10.555 0.212,9.727 0.841,9.312 1.704 C 9.091 2.162,9.038 2.388,9.012 2.987 L 8.989 3.514 8.664 3.642 C 7.965 3.916,6.989 4.483,6.404 4.955 L 6.149 5.161 5.981 5.063 C 5.335 4.684,4.966 4.562,4.377 4.531 C 3.819 4.502,3.419 4.586,2.885 4.845 C 2.535 5.015,2.419 5.097,2.141 5.373 C 1.552 5.958,1.284 6.557,1.249 7.364 C 1.225 7.929,1.297 8.309,1.518 8.780 C 1.803 9.389,2.149 9.754,2.823 10.162 C 3.075 10.314,3.158 10.384,3.143 10.434 C 3.012 10.873,2.980 12.566,3.091 13.259 C 3.126 13.479,3.151 13.661,3.147 13.663 C 3.143 13.666,2.960 13.772,2.740 13.900 C 1.761 14.471,1.216 15.331,1.169 16.380 C 1.144 16.950,1.221 17.338,1.456 17.820 C 1.934 18.802,2.831 19.416,3.917 19.504 C 4.529 19.553,5.091 19.414,5.728 19.053 C 5.970 18.916,6.136 18.845,6.168 18.865 C 6.197 18.882,6.319 18.977,6.440 19.075 C 6.971 19.508,7.983 20.091,8.665 20.358 L 8.989 20.486 9.011 21.033 C 9.026 21.435,9.055 21.654,9.119 21.860 C 9.368 22.658,9.958 23.346,10.696 23.698 C 11.138 23.910,11.433 23.973,11.980 23.975 C 12.560 23.977,12.827 23.915,13.360 23.653 C 13.682 23.495,13.795 23.412,14.100 23.103 C 14.700 22.498,14.939 21.925,14.987 20.973 L 15.012 20.485 15.336 20.358 C 16.035 20.084,17.011 19.517,17.596 19.045 C 17.830 18.856,17.859 18.843,17.936 18.893 C 18.505 19.263,19.015 19.439,19.605 19.469 C 20.512 19.516,21.252 19.234,21.883 18.603 C 22.513 17.973,22.794 17.235,22.750 16.325 C 22.699 15.275,22.156 14.414,21.190 13.853 C 21.020 13.754,20.874 13.661,20.866 13.647 C 20.857 13.632,20.878 13.458,20.910 13.260 C 20.951 13.016,20.970 12.611,20.970 12.000 C 20.970 11.389,20.951 10.984,20.910 10.740 C 20.878 10.542,20.857 10.369,20.864 10.356 C 20.871 10.343,21.018 10.251,21.190 10.151 C 22.164 9.584,22.697 8.733,22.749 7.660 C 22.778 7.063,22.703 6.705,22.434 6.160 C 22.257 5.801,22.178 5.692,21.884 5.399 C 21.470 4.987,21.011 4.729,20.454 4.596 C 19.961 4.478,19.319 4.502,18.860 4.657 C 18.580 4.752,18.204 4.935,17.936 5.107 C 17.859 5.157,17.829 5.143,17.596 4.956 C 16.985 4.467,16.039 3.917,15.330 3.639 L 15.000 3.510 15.000 3.139 C 15.000 2.134,14.598 1.254,13.873 0.671 C 13.595 0.447,13.093 0.189,12.756 0.097 C 12.491 0.024,11.770 -0.009,11.503 0.040 M12.340 2.066 C 12.593 2.153,12.847 2.407,12.934 2.660 C 12.986 2.814,13.000 3.017,13.002 3.637 C 13.004 4.483,13.026 4.609,13.220 4.863 C 13.374 5.065,13.508 5.136,14.094 5.325 C 15.168 5.670,16.008 6.173,16.911 7.008 C 17.129 7.210,17.254 7.293,17.408 7.339 C 17.810 7.458,17.923 7.425,18.720 6.960 C 19.462 6.527,19.667 6.455,19.977 6.519 C 20.749 6.680,21.051 7.621,20.509 8.173 C 20.409 8.275,20.075 8.496,19.689 8.716 C 19.281 8.949,19.001 9.136,18.940 9.216 C 18.705 9.525,18.669 9.802,18.796 10.340 C 18.953 11.005,18.980 11.255,18.978 12.040 C 18.977 12.753,18.967 12.866,18.858 13.360 C 18.703 14.068,18.701 14.392,18.851 14.648 C 18.982 14.871,19.012 14.894,19.780 15.339 C 20.437 15.719,20.565 15.820,20.692 16.060 C 20.812 16.284,20.811 16.716,20.692 16.943 C 20.494 17.317,20.049 17.556,19.660 17.498 C 19.536 17.479,19.259 17.345,18.789 17.076 C 18.026 16.639,17.818 16.569,17.501 16.640 C 17.243 16.698,17.188 16.731,16.883 17.016 C 16.034 17.810,15.164 18.328,14.095 18.675 C 13.513 18.864,13.402 18.919,13.263 19.083 C 13.029 19.362,13.023 19.392,13.001 20.360 L 12.980 21.260 12.864 21.470 C 12.457 22.203,11.428 22.163,11.083 21.400 C 11.010 21.238,11.001 21.136,10.999 20.400 C 10.996 19.515,10.975 19.392,10.780 19.137 C 10.626 18.935,10.490 18.862,9.916 18.678 C 8.832 18.329,7.948 17.799,7.080 16.979 C 6.757 16.674,6.542 16.584,6.189 16.607 C 5.951 16.622,5.890 16.649,5.237 17.029 C 4.830 17.267,4.462 17.453,4.351 17.478 C 3.841 17.591,3.317 17.240,3.197 16.704 C 3.158 16.527,3.161 16.457,3.217 16.265 C 3.318 15.918,3.480 15.770,4.215 15.354 C 4.952 14.939,5.054 14.857,5.185 14.580 C 5.301 14.334,5.306 14.093,5.204 13.660 C 5.038 12.951,5.020 12.783,5.021 11.980 C 5.022 11.243,5.032 11.137,5.141 10.640 C 5.213 10.313,5.259 9.989,5.258 9.820 C 5.255 9.332,5.130 9.190,4.270 8.693 C 3.585 8.298,3.433 8.179,3.309 7.944 C 3.188 7.715,3.188 7.285,3.308 7.057 C 3.437 6.813,3.681 6.613,3.945 6.537 C 4.277 6.440,4.472 6.497,5.143 6.885 C 6.029 7.398,5.987 7.380,6.300 7.379 C 6.638 7.378,6.764 7.318,7.100 7.002 C 7.946 6.205,8.798 5.692,9.860 5.341 C 10.502 5.128,10.597 5.082,10.737 4.917 C 10.972 4.637,10.977 4.610,10.999 3.620 C 11.020 2.703,11.020 2.699,11.131 2.511 C 11.386 2.077,11.860 1.903,12.340 2.066 M11.340 7.046 C 10.849 7.108,10.317 7.273,9.820 7.517 C 8.374 8.226,7.390 9.510,7.075 11.100 C 7.002 11.468,7.002 12.532,7.075 12.900 C 7.482 14.953,9.047 16.518,11.100 16.925 C 11.468 16.998,12.532 16.998,12.900 16.925 C 14.723 16.564,16.191 15.273,16.753 13.539 C 16.940 12.961,16.980 12.680,16.978 11.960 C 16.976 11.381,16.963 11.247,16.869 10.869 C 16.678 10.104,16.374 9.473,15.926 8.912 C 14.822 7.527,13.090 6.823,11.340 7.046 M12.756 9.097 C 13.093 9.189,13.595 9.447,13.873 9.671 C 14.554 10.219,15.000 11.140,15.000 12.000 C 15.000 13.170,14.225 14.329,13.151 14.766 C 11.642 15.380,9.989 14.734,9.298 13.260 C 9.072 12.779,9.021 12.546,9.021 12.000 C 9.021 11.454,9.072 11.221,9.298 10.740 C 9.716 9.848,10.537 9.215,11.503 9.040 C 11.770 8.991,12.491 9.024,12.756 9.097 " fill="#000640" stroke="none" fill-rule="evenodd"></path></svg>