<svg xmlns="http://www.w3.org/2000/svg" width="24" height="24" fill="currentColor" class="mmi mmi-gift" viewBox="0 0 24 24"><path d="M5.780 0.867 C 4.887 0.919,4.181 1.191,3.660 1.686 C 3.339 1.992,3.158 2.269,3.010 2.687 C 2.922 2.934,2.906 3.050,2.905 3.420 C 2.904 3.941,2.969 4.214,3.223 4.740 C 3.442 5.195,3.703 5.538,4.158 5.972 C 4.495 6.292,5.237 6.830,5.446 6.906 C 5.501 6.926,4.749 6.948,3.640 6.960 L 1.740 6.980 1.530 7.096 C 1.414 7.160,1.274 7.273,1.218 7.346 C 0.997 7.636,1.000 7.593,1.000 10.435 L 1.001 13.060 1.095 13.262 C 1.199 13.485,1.463 13.737,1.656 13.796 C 1.724 13.816,1.866 13.845,1.970 13.859 L 2.160 13.885 2.161 18.252 C 2.162 22.396,2.166 22.628,2.235 22.780 C 2.327 22.982,2.619 23.253,2.823 23.325 C 2.955 23.371,4.426 23.380,12.000 23.380 C 20.585 23.380,21.029 23.377,21.206 23.308 C 21.438 23.219,21.737 22.908,21.796 22.695 C 21.826 22.589,21.840 21.183,21.840 18.212 L 21.840 13.885 22.030 13.859 C 22.134 13.845,22.276 13.816,22.344 13.796 C 22.518 13.742,22.786 13.502,22.891 13.306 C 22.980 13.140,22.980 13.139,22.991 10.482 C 23.003 7.597,23.006 7.640,22.783 7.347 C 22.727 7.273,22.586 7.160,22.470 7.096 L 22.260 6.980 20.382 6.960 L 18.504 6.940 18.768 6.786 C 19.674 6.256,20.472 5.431,20.819 4.665 C 21.034 4.190,21.096 3.911,21.095 3.420 C 21.094 3.050,21.078 2.934,20.990 2.687 C 20.840 2.264,20.659 1.988,20.333 1.682 C 19.917 1.293,19.377 1.034,18.743 0.922 C 18.390 0.860,17.465 0.870,17.055 0.942 C 16.276 1.077,15.388 1.463,14.640 1.991 C 13.875 2.531,12.767 3.747,12.200 4.670 C 12.102 4.830,12.012 4.960,12.001 4.960 C 11.989 4.959,11.900 4.829,11.801 4.670 C 11.233 3.748,10.117 2.523,9.360 1.991 C 8.241 1.203,6.956 0.800,5.780 0.867 M6.820 2.964 C 7.414 3.107,8.072 3.476,8.692 4.013 C 9.141 4.402,9.902 5.368,10.298 6.051 L 10.409 6.242 10.174 6.217 C 8.897 6.084,7.642 5.756,6.740 5.319 C 6.172 5.043,5.869 4.834,5.475 4.442 C 4.990 3.961,4.809 3.567,4.934 3.267 C 5.089 2.898,5.964 2.757,6.820 2.964 M18.520 2.925 C 19.095 3.054,19.236 3.380,18.954 3.931 C 18.737 4.357,17.915 5.023,17.195 5.355 C 16.294 5.772,15.051 6.090,13.826 6.217 L 13.591 6.242 13.702 6.051 C 13.934 5.650,14.369 5.042,14.712 4.639 C 15.863 3.287,17.283 2.648,18.520 2.925 M11.000 10.420 L 11.000 11.880 7.000 11.880 L 3.000 11.880 3.000 10.420 L 3.000 8.960 7.000 8.960 L 11.000 8.960 11.000 10.420 M21.000 10.420 L 21.000 11.880 17.000 11.880 L 13.000 11.880 13.000 10.420 L 13.000 8.960 17.000 8.960 L 21.000 8.960 21.000 10.420 M11.000 17.640 L 11.000 21.400 7.580 21.400 L 4.160 21.400 4.160 17.640 L 4.160 13.880 7.580 13.880 L 11.000 13.880 11.000 17.640 M19.840 17.640 L 19.840 21.400 16.420 21.400 L 13.000 21.400 13.000 17.640 L 13.000 13.880 16.420 13.880 L 19.840 13.880 19.840 17.640 " fill="#000640" stroke="none" fill-rule="evenodd"></path></svg>