<svg xmlns="http://www.w3.org/2000/svg" width="24" height="24" fill="currentColor" class="mmi mmi-glassofwater" viewBox="0 0 24 24"><path d="M3.664 1.063 C 3.311 1.192,3.055 1.509,3.016 1.866 C 2.982 2.171,4.821 20.425,4.923 20.798 C 5.063 21.311,5.290 21.694,5.698 22.102 C 6.098 22.501,6.454 22.716,7.000 22.886 L 7.300 22.980 12.000 22.980 L 16.700 22.980 17.000 22.886 C 18.037 22.562,18.802 21.794,19.077 20.800 C 19.136 20.590,19.404 18.042,20.086 11.218 L 21.016 1.923 20.944 1.697 C 20.895 1.542,20.820 1.418,20.704 1.302 C 20.375 0.973,21.153 1.000,11.983 1.003 C 5.003 1.005,3.797 1.014,3.664 1.063 M18.881 3.050 C 18.882 3.141,18.517 6.818,18.497 6.910 L 18.478 7.000 12.000 7.000 L 5.522 7.000 5.503 6.910 C 5.483 6.818,5.118 3.141,5.119 3.050 C 5.120 3.010,6.523 3.000,12.000 3.000 C 17.477 3.000,18.880 3.010,18.881 3.050 M18.280 9.070 C 18.279 9.109,18.028 11.645,17.722 14.707 C 17.110 20.812,17.164 20.437,16.857 20.735 C 16.570 21.014,16.823 21.000,12.000 21.000 C 7.177 21.000,7.430 21.014,7.143 20.735 C 6.836 20.437,6.890 20.812,6.278 14.707 C 5.972 11.645,5.721 9.109,5.720 9.070 C 5.720 9.004,6.046 9.000,12.000 9.000 C 17.954 9.000,18.280 9.004,18.280 9.070 " fill="#000640" stroke="none" fill-rule="evenodd"></path></svg>