<svg xmlns="http://www.w3.org/2000/svg" width="24" height="24" fill="currentColor" class="mmi mmi-glasses" viewBox="0 0 24 24"><path d="M5.090 2.044 C 4.071 2.214,3.156 2.962,2.796 3.918 C 2.751 4.040,2.176 6.489,1.519 9.360 C 0.862 12.231,0.271 14.787,0.206 15.040 C -0.073 16.117,-0.068 17.027,0.220 18.018 C 1.023 20.776,3.800 22.458,6.598 21.881 C 8.497 21.490,10.078 20.106,10.686 18.302 C 10.903 17.660,10.961 17.336,10.988 16.630 L 11.011 16.000 12.000 16.000 L 12.989 16.000 13.010 16.610 C 13.036 17.310,13.102 17.677,13.319 18.311 C 14.251 21.042,17.234 22.586,20.017 21.780 C 22.098 21.177,23.614 19.438,23.942 17.280 C 24.045 16.601,23.997 15.740,23.820 15.120 C 23.786 14.999,23.202 12.479,22.522 9.519 C 21.843 6.560,21.250 4.043,21.206 3.926 C 20.876 3.059,20.107 2.366,19.174 2.097 C 18.862 2.007,17.008 1.965,16.734 2.042 C 16.486 2.111,16.265 2.283,16.133 2.508 C 16.036 2.673,16.020 2.743,16.020 3.000 C 16.020 3.256,16.036 3.328,16.131 3.489 C 16.192 3.592,16.301 3.723,16.374 3.778 C 16.632 3.975,16.781 4.000,17.715 4.002 C 18.646 4.004,18.766 4.023,19.019 4.217 C 19.300 4.431,19.306 4.452,20.137 8.089 C 20.568 9.975,20.920 11.526,20.920 11.536 C 20.920 11.545,20.766 11.490,20.579 11.414 C 19.153 10.833,17.523 10.880,16.136 11.542 C 15.160 12.008,14.365 12.727,13.794 13.662 L 13.588 14.000 12.000 14.000 L 10.412 14.000 10.206 13.662 C 8.787 11.341,5.926 10.393,3.421 11.414 C 3.234 11.490,3.080 11.545,3.080 11.534 C 3.080 11.524,3.432 9.973,3.863 8.088 C 4.694 4.449,4.699 4.432,4.981 4.217 C 5.234 4.024,5.355 4.004,6.283 4.002 C 7.286 4.000,7.434 3.968,7.701 3.701 C 8.092 3.310,8.092 2.690,7.701 2.299 C 7.428 2.026,7.293 1.999,6.223 2.005 C 5.715 2.007,5.205 2.025,5.090 2.044 M6.092 13.060 C 6.847 13.191,7.404 13.484,7.960 14.040 C 8.516 14.596,8.809 15.153,8.940 15.908 C 9.128 16.982,8.804 18.074,8.064 18.868 C 7.605 19.361,7.114 19.665,6.452 19.867 C 6.137 19.962,6.037 19.974,5.500 19.974 C 4.963 19.974,4.863 19.962,4.548 19.867 C 3.886 19.665,3.395 19.361,2.936 18.868 C 1.890 17.746,1.711 16.105,2.484 14.732 C 2.724 14.308,3.308 13.724,3.732 13.484 C 4.488 13.058,5.274 12.917,6.092 13.060 M19.092 13.060 C 19.847 13.191,20.404 13.484,20.960 14.040 C 21.516 14.596,21.809 15.153,21.940 15.908 C 22.128 16.982,21.804 18.074,21.064 18.868 C 20.605 19.361,20.114 19.665,19.452 19.867 C 19.137 19.962,19.037 19.974,18.500 19.974 C 17.963 19.974,17.863 19.962,17.548 19.867 C 16.886 19.665,16.395 19.361,15.936 18.868 C 15.196 18.074,14.872 16.982,15.060 15.908 C 15.191 15.153,15.484 14.596,16.040 14.040 C 16.874 13.206,17.950 12.861,19.092 13.060 " fill="#000640" stroke="none" fill-rule="evenodd"></path></svg>