<svg xmlns="http://www.w3.org/2000/svg" width="24" height="24" fill="currentColor" class="mmi mmi-globe" viewBox="0 0 24 24"><path d="M11.020 0.044 C 8.203 0.273,5.551 1.498,3.542 3.500 C 1.673 5.362,0.523 7.649,0.115 10.320 C 0.042 10.802,0.026 11.079,0.023 11.960 C 0.020 13.043,0.047 13.376,0.204 14.200 C 0.775 17.183,2.381 19.773,4.785 21.584 C 6.412 22.809,8.218 23.561,10.320 23.885 C 10.816 23.962,11.060 23.975,12.000 23.975 C 13.210 23.975,13.753 23.917,14.745 23.680 C 19.172 22.624,22.596 19.222,23.661 14.820 C 23.916 13.764,23.975 13.235,23.975 12.000 C 23.975 10.765,23.916 10.236,23.661 9.180 C 22.872 5.919,20.781 3.172,17.820 1.508 C 15.820 0.384,13.358 -0.146,11.020 0.044 M9.497 2.727 C 8.883 3.761,8.249 5.185,7.859 6.410 L 7.671 7.000 5.515 7.000 C 4.330 7.000,3.360 6.988,3.360 6.973 C 3.360 6.904,4.071 5.898,4.372 5.540 C 5.631 4.047,7.369 2.927,9.273 2.383 C 9.530 2.310,9.746 2.255,9.753 2.262 C 9.761 2.268,9.646 2.477,9.497 2.727 M15.523 2.646 C 17.064 3.218,18.559 4.272,19.628 5.540 C 19.929 5.898,20.640 6.904,20.640 6.973 C 20.640 6.988,19.670 7.000,18.485 7.000 L 16.329 7.000 16.141 6.410 C 15.753 5.191,15.102 3.732,14.483 2.692 C 14.349 2.467,14.240 2.277,14.240 2.268 C 14.240 2.234,15.084 2.482,15.523 2.646 M12.372 3.110 C 13.081 4.179,13.695 5.428,14.122 6.670 L 14.235 7.000 12.000 7.000 L 9.765 7.000 9.878 6.670 C 10.172 5.813,10.623 4.809,11.080 3.994 C 11.338 3.533,11.954 2.600,12.000 2.600 C 12.018 2.600,12.186 2.829,12.372 3.110 M7.227 9.090 C 7.117 9.534,7.000 11.030,7.001 11.980 C 7.001 12.948,7.106 14.324,7.224 14.890 L 7.246 15.000 4.849 15.000 L 2.451 15.000 2.347 14.610 C 2.139 13.830,2.000 12.785,2.000 12.000 C 2.001 11.196,2.136 10.182,2.347 9.390 L 2.451 9.000 4.850 9.000 L 7.249 9.000 7.227 9.090 M14.738 9.090 C 15.057 10.533,15.057 13.467,14.738 14.910 L 14.718 15.000 12.002 15.000 C 9.450 15.000,9.284 14.996,9.264 14.930 C 9.229 14.816,9.129 14.099,9.073 13.560 C 9.008 12.927,9.008 11.048,9.073 10.440 C 9.129 9.920,9.233 9.175,9.265 9.070 C 9.284 9.004,9.449 9.000,12.002 9.000 L 14.718 9.000 14.738 9.090 M21.653 9.390 C 22.099 11.063,22.099 12.937,21.653 14.610 L 21.549 15.000 19.150 15.000 L 16.751 15.000 16.775 14.910 C 16.788 14.861,16.839 14.496,16.887 14.100 C 16.963 13.485,16.976 13.179,16.976 12.000 C 16.976 10.821,16.963 10.515,16.887 9.900 C 16.839 9.504,16.788 9.139,16.775 9.090 L 16.751 9.000 19.150 9.000 L 21.549 9.000 21.653 9.390 M7.859 17.590 C 8.249 18.815,8.883 20.239,9.497 21.273 C 9.646 21.523,9.761 21.732,9.753 21.740 C 9.746 21.747,9.524 21.690,9.260 21.615 C 7.360 21.068,5.629 19.951,4.372 18.460 C 4.071 18.102,3.360 17.096,3.360 17.027 C 3.360 17.012,4.330 17.000,5.515 17.000 L 7.671 17.000 7.859 17.590 M14.095 17.410 C 13.734 18.453,13.108 19.747,12.531 20.645 C 12.338 20.945,12.139 21.242,12.090 21.305 L 12.000 21.420 11.910 21.305 C 11.620 20.935,11.060 19.988,10.700 19.260 C 10.296 18.444,10.112 18.011,9.878 17.330 L 9.765 17.000 12.001 17.000 L 14.237 17.000 14.095 17.410 M20.640 17.023 C 20.640 17.036,20.527 17.220,20.390 17.433 C 19.089 19.446,17.060 20.948,14.740 21.615 C 14.476 21.690,14.254 21.747,14.247 21.740 C 14.240 21.733,14.344 21.541,14.480 21.313 C 15.103 20.268,15.752 18.812,16.141 17.590 L 16.329 17.000 18.485 17.000 C 19.670 17.000,20.640 17.010,20.640 17.023 " fill="#000640" stroke="none" fill-rule="evenodd"></path></svg>