<svg xmlns="http://www.w3.org/2000/svg" width="24" height="24" fill="currentColor" class="mmi mmi-globe-v2" viewBox="0 0 24 24"><path d="M6.170 1.782 C 5.662 2.036,4.620 3.403,4.039 4.580 C 2.327 8.045,2.757 12.117,5.160 15.207 C 5.785 16.011,6.887 16.986,7.800 17.543 C 8.855 18.186,10.267 18.704,11.440 18.878 C 11.605 18.903,11.798 18.932,11.870 18.943 L 12.000 18.964 12.000 19.982 L 12.000 21.000 10.425 21.000 C 8.721 21.000,8.656 21.007,8.374 21.222 C 8.301 21.277,8.192 21.408,8.131 21.511 C 8.036 21.672,8.020 21.744,8.020 22.000 C 8.020 22.256,8.036 22.328,8.131 22.489 C 8.192 22.592,8.301 22.723,8.374 22.778 C 8.677 23.009,8.484 23.000,12.998 23.000 C 17.663 23.000,17.384 23.018,17.701 22.701 C 18.092 22.310,18.092 21.690,17.701 21.299 C 17.409 21.006,17.362 21.000,15.573 21.000 L 14.000 21.000 14.000 19.982 L 14.000 18.964 14.130 18.944 C 14.700 18.859,15.335 18.729,15.733 18.615 C 17.302 18.167,18.794 17.314,19.881 16.243 C 20.361 15.769,20.452 15.490,20.278 15.025 C 20.189 14.787,19.966 14.552,19.737 14.456 C 19.543 14.375,19.135 14.386,18.932 14.478 C 18.840 14.520,18.622 14.688,18.447 14.851 C 17.393 15.837,16.072 16.523,14.653 16.824 C 14.404 16.877,14.155 16.920,14.100 16.920 L 14.000 16.920 14.000 16.428 L 14.000 15.936 14.370 15.865 C 14.573 15.826,14.953 15.722,15.214 15.635 C 18.690 14.473,20.681 10.832,19.780 7.280 C 19.087 4.549,16.855 2.531,14.020 2.075 C 13.504 1.992,12.312 2.011,11.757 2.112 C 10.805 2.285,9.906 2.655,9.041 3.229 C 8.497 3.590,7.681 4.381,7.304 4.913 C 6.639 5.850,6.222 6.896,6.057 8.040 C 5.967 8.664,5.997 9.808,6.118 10.371 C 6.584 12.535,7.962 14.324,9.900 15.279 C 10.386 15.518,11.130 15.771,11.630 15.865 L 12.000 15.936 12.000 16.428 L 12.000 16.920 11.900 16.920 C 11.714 16.920,10.896 16.729,10.457 16.582 C 9.893 16.395,9.134 16.028,8.646 15.707 C 7.454 14.924,6.476 13.830,5.850 12.578 C 5.281 11.440,5.023 10.325,5.023 9.000 C 5.023 8.176,5.086 7.662,5.276 6.940 C 5.570 5.823,6.155 4.706,6.894 3.849 C 7.470 3.181,7.516 3.120,7.558 2.971 C 7.666 2.582,7.581 2.259,7.298 1.974 C 6.982 1.656,6.565 1.585,6.170 1.782 M13.601 4.042 C 14.369 4.136,15.154 4.432,15.824 4.881 C 15.998 4.997,16.313 5.265,16.524 5.476 C 18.687 7.640,18.425 11.175,15.964 13.022 C 15.405 13.441,14.631 13.780,13.900 13.925 C 13.532 13.998,12.468 13.998,12.100 13.925 C 11.425 13.791,10.678 13.478,10.155 13.111 C 9.462 12.624,8.901 11.963,8.517 11.180 C 7.982 10.089,7.864 8.865,8.180 7.680 C 8.309 7.196,8.683 6.433,8.994 6.016 C 10.061 4.588,11.840 3.826,13.601 4.042 " fill="#000640" stroke="none" fill-rule="evenodd"></path></svg>