<svg xmlns="http://www.w3.org/2000/svg" width="24" height="24" fill="currentColor" class="mmi mmi-glowingstar" viewBox="0 0 24 24"><path d="M11.359 1.371 C 10.855 1.543,10.442 1.895,10.229 2.334 C 10.148 2.500,9.458 4.602,8.561 7.410 L 8.436 7.800 5.588 7.800 C 3.308 7.801,2.699 7.812,2.535 7.856 C 1.673 8.085,1.063 8.891,1.063 9.800 C 1.063 10.326,1.225 10.742,1.574 11.111 C 1.691 11.234,2.738 12.029,4.000 12.951 C 5.221 13.844,6.225 14.578,6.232 14.583 C 6.239 14.587,5.853 15.803,5.375 17.285 C 4.603 19.679,4.504 20.016,4.488 20.304 C 4.457 20.870,4.668 21.382,5.102 21.799 C 5.685 22.359,6.479 22.524,7.205 22.238 C 7.459 22.138,7.430 22.158,9.372 20.736 L 10.980 19.558 11.000 20.929 L 11.020 22.300 11.131 22.489 C 11.536 23.178,12.539 23.156,12.886 22.450 C 12.978 22.265,12.981 22.224,13.000 20.909 L 13.020 19.558 14.628 20.736 C 16.570 22.158,16.541 22.138,16.795 22.238 C 17.521 22.524,18.315 22.359,18.898 21.799 C 19.332 21.382,19.543 20.869,19.512 20.304 C 19.496 20.016,19.396 19.677,18.625 17.285 C 18.147 15.803,17.761 14.587,17.768 14.583 C 17.775 14.578,18.779 13.844,20.000 12.951 C 21.262 12.029,22.309 11.234,22.426 11.111 C 22.773 10.744,22.934 10.331,22.936 9.800 C 22.940 8.894,22.328 8.085,21.465 7.856 C 21.301 7.812,20.692 7.801,18.412 7.800 L 15.564 7.800 15.439 7.410 C 14.508 4.494,13.849 2.498,13.759 2.320 C 13.527 1.864,13.109 1.514,12.609 1.359 C 12.245 1.247,11.708 1.252,11.359 1.371 M4.240 3.035 C 3.944 3.132,3.685 3.362,3.575 3.626 C 3.502 3.802,3.505 4.207,3.582 4.391 C 3.674 4.613,5.842 6.783,6.080 6.891 C 6.594 7.127,7.234 6.859,7.423 6.330 C 7.501 6.110,7.491 5.808,7.397 5.600 C 7.298 5.379,5.187 3.240,4.943 3.113 C 4.772 3.024,4.399 2.983,4.240 3.035 M19.340 3.027 C 19.017 3.101,18.966 3.143,17.846 4.255 C 16.979 5.115,16.689 5.427,16.616 5.580 C 16.313 6.216,16.770 6.960,17.473 6.972 C 17.907 6.979,17.921 6.969,19.154 5.745 C 20.389 4.520,20.480 4.401,20.478 4.020 C 20.475 3.631,20.299 3.327,19.975 3.154 C 19.781 3.050,19.492 2.992,19.340 3.027 M12.834 5.850 C 13.281 7.242,13.696 8.488,13.757 8.620 C 13.987 9.117,14.363 9.463,14.905 9.673 L 15.180 9.780 18.038 9.800 L 20.896 9.820 18.738 11.396 C 17.551 12.263,16.477 13.071,16.352 13.193 C 16.094 13.442,15.911 13.756,15.821 14.102 C 15.750 14.375,15.742 14.791,15.803 15.020 C 15.840 15.157,17.145 19.235,17.419 20.070 C 17.472 20.230,17.511 20.360,17.507 20.360 C 17.503 20.360,16.519 19.640,15.320 18.760 C 14.114 17.875,13.015 17.098,12.860 17.021 C 12.311 16.747,11.690 16.747,11.140 17.020 C 10.984 17.098,9.895 17.868,8.680 18.760 C 7.481 19.640,6.497 20.360,6.494 20.360 C 6.486 20.360,6.587 20.044,7.419 17.460 C 8.283 14.779,8.239 14.930,8.240 14.598 C 8.240 14.063,8.029 13.561,7.648 13.193 C 7.523 13.072,6.449 12.263,5.263 11.396 L 3.105 9.820 5.963 9.800 L 8.820 9.780 9.095 9.673 C 9.637 9.463,10.013 9.117,10.243 8.620 C 10.304 8.488,10.719 7.242,11.166 5.850 C 11.614 4.458,11.989 3.320,12.000 3.320 C 12.011 3.320,12.386 4.458,12.834 5.850 M3.663 15.063 C 3.512 15.119,1.600 16.519,1.326 16.775 C 1.106 16.982,1.022 17.180,1.022 17.500 C 1.022 17.710,1.044 17.821,1.109 17.944 C 1.209 18.134,1.437 18.346,1.626 18.425 C 1.824 18.508,2.224 18.495,2.417 18.400 C 2.507 18.356,3.075 17.946,3.679 17.490 C 4.882 16.582,4.950 16.509,4.991 16.083 C 5.058 15.377,4.331 14.818,3.663 15.063 M19.667 15.065 C 19.265 15.188,18.968 15.649,19.009 16.083 C 19.050 16.509,19.118 16.582,20.321 17.490 C 20.925 17.946,21.493 18.356,21.583 18.400 C 21.776 18.495,22.176 18.508,22.374 18.425 C 22.563 18.346,22.791 18.134,22.891 17.944 C 23.011 17.716,23.012 17.285,22.892 17.060 C 22.772 16.834,22.667 16.744,21.500 15.874 C 20.274 14.959,20.166 14.912,19.667 15.065 " fill="#000640" stroke="none" fill-rule="evenodd"></path></svg>