<svg xmlns="http://www.w3.org/2000/svg" width="24" height="24" fill="currentColor" class="mmi mmi-go-back" viewBox="0 0 24 24"><path d="M4.520 1.441 C 4.296 1.545,4.136 1.694,4.034 1.894 C 3.931 2.093,2.798 7.539,2.795 7.844 C 2.794 7.967,2.823 8.138,2.859 8.224 C 2.980 8.514,3.287 8.760,3.603 8.819 C 3.786 8.854,9.033 8.300,9.315 8.217 C 10.099 7.984,10.228 6.880,9.521 6.452 C 9.404 6.381,9.235 6.313,9.144 6.300 C 9.054 6.287,8.413 6.339,7.720 6.414 C 7.027 6.490,6.451 6.543,6.440 6.532 C 6.417 6.509,6.728 6.221,7.140 5.882 C 8.712 4.592,10.813 3.961,12.863 4.163 C 16.145 4.487,18.872 6.795,19.717 9.964 C 20.372 12.418,19.804 15.062,18.203 17.016 C 17.894 17.393,17.213 18.047,16.840 18.325 C 15.774 19.121,14.459 19.658,13.120 19.843 C 12.637 19.910,11.568 19.911,11.100 19.844 C 9.269 19.583,7.684 18.784,6.439 17.494 C 5.048 16.055,4.332 14.361,4.217 12.240 C 4.185 11.646,4.109 11.426,3.865 11.217 C 3.456 10.867,2.861 10.897,2.494 11.286 C 2.245 11.552,2.220 11.642,2.224 12.260 C 2.246 15.074,3.658 17.926,5.920 19.728 C 8.213 21.554,11.116 22.269,13.989 21.717 C 16.791 21.179,19.250 19.418,20.687 16.920 C 22.706 13.412,22.356 8.973,19.812 5.820 C 18.227 3.856,15.986 2.584,13.460 2.214 C 12.865 2.128,11.442 2.116,10.880 2.194 C 9.570 2.376,8.330 2.785,7.265 3.387 C 6.664 3.727,6.314 3.973,5.559 4.589 L 5.450 4.678 5.686 3.530 C 5.950 2.249,5.952 2.177,5.746 1.832 C 5.569 1.538,5.327 1.395,4.971 1.373 C 4.755 1.360,4.663 1.374,4.520 1.441 M9.960 9.029 C 9.927 9.041,9.480 9.302,8.967 9.609 C 7.970 10.206,7.905 10.264,7.856 10.590 C 7.821 10.825,7.963 11.104,8.182 11.232 C 8.435 11.378,8.667 11.341,9.088 11.087 C 9.277 10.973,9.451 10.880,9.476 10.880 C 9.507 10.880,9.520 11.393,9.520 12.702 C 9.520 14.716,9.513 14.659,9.778 14.862 C 9.942 14.986,10.177 15.027,10.368 14.964 C 10.555 14.902,10.759 14.683,10.802 14.495 C 10.852 14.280,10.850 9.658,10.800 9.478 C 10.755 9.317,10.555 9.106,10.387 9.042 C 10.269 8.998,10.061 8.991,9.960 9.029 M13.851 9.058 C 12.987 9.255,12.229 10.058,11.952 11.069 C 11.829 11.517,11.829 12.483,11.952 12.931 C 12.091 13.440,12.371 13.932,12.719 14.284 C 14.097 15.675,16.231 14.916,16.724 12.860 C 16.844 12.360,16.844 11.640,16.724 11.140 C 16.493 10.179,15.841 9.400,15.034 9.123 C 14.706 9.011,14.184 8.982,13.851 9.058 M14.717 10.470 C 14.943 10.610,15.168 10.926,15.288 11.274 C 15.417 11.648,15.416 12.385,15.286 12.740 C 15.109 13.222,14.773 13.587,14.439 13.660 C 14.254 13.701,14.021 13.611,13.804 13.416 C 13.086 12.771,13.087 11.229,13.805 10.583 C 14.130 10.291,14.377 10.260,14.717 10.470 " fill="#000640" stroke="none" fill-rule="evenodd"></path></svg>