<svg xmlns="http://www.w3.org/2000/svg" width="24" height="24" fill="currentColor" class="mmi mmi-gold" viewBox="0 0 24 24"><path d="M7.670 3.057 C 7.452 3.135,7.256 3.298,7.137 3.501 C 7.041 3.665,6.991 3.967,6.514 7.290 C 6.202 9.461,6.002 10.975,6.012 11.089 C 6.044 11.464,6.314 11.816,6.665 11.941 C 6.800 11.989,6.508 11.997,4.400 11.998 C 2.862 12.000,1.926 12.016,1.831 12.042 C 1.590 12.109,1.352 12.315,1.233 12.560 C 1.139 12.752,1.054 13.230,0.559 16.360 C 0.202 18.619,0.000 20.003,0.012 20.111 C 0.052 20.485,0.363 20.862,0.711 20.958 C 0.810 20.986,2.583 21.000,6.003 21.000 C 11.789 21.000,11.380 21.022,11.705 20.698 C 11.803 20.599,11.895 20.458,11.924 20.364 C 11.981 20.171,12.021 20.156,12.053 20.314 C 12.089 20.496,12.323 20.766,12.539 20.878 L 12.738 20.980 17.933 20.990 C 21.431 20.997,23.179 20.987,23.282 20.959 C 23.634 20.865,23.947 20.488,23.988 20.111 C 24.000 20.002,23.801 18.635,23.441 16.360 C 22.947 13.238,22.860 12.752,22.767 12.560 C 22.648 12.315,22.410 12.109,22.169 12.042 C 22.075 12.016,21.134 11.999,19.600 11.997 C 17.357 11.994,17.193 11.989,17.357 11.931 C 17.701 11.810,18.000 11.386,18.000 11.020 C 18.000 10.951,17.768 9.271,17.484 7.287 C 17.008 3.964,16.959 3.666,16.863 3.501 C 16.805 3.403,16.699 3.277,16.626 3.222 C 16.323 2.991,16.518 3.000,11.985 3.002 C 8.610 3.003,7.792 3.014,7.670 3.057 M15.139 5.090 C 15.150 5.140,15.304 6.206,15.481 7.460 C 15.658 8.714,15.813 9.799,15.826 9.870 L 15.849 10.000 12.000 10.000 L 8.151 10.000 8.174 9.870 C 8.187 9.799,8.342 8.714,8.519 7.460 C 8.696 6.206,8.850 5.140,8.861 5.090 L 8.882 5.000 12.000 5.000 L 15.118 5.000 15.139 5.090 M13.785 12.059 C 13.546 12.144,13.350 12.322,13.233 12.562 C 13.139 12.753,13.056 13.220,12.573 16.288 C 12.269 18.217,12.009 19.783,11.995 19.768 C 11.982 19.753,11.724 18.174,11.423 16.260 C 10.942 13.207,10.862 12.753,10.768 12.562 C 10.649 12.322,10.454 12.144,10.215 12.059 C 10.079 12.010,10.302 12.004,12.000 12.004 C 13.698 12.004,13.921 12.010,13.785 12.059 M9.061 14.170 C 9.075 14.263,9.253 15.384,9.455 16.660 L 9.823 18.980 7.912 18.990 C 6.860 18.996,5.140 18.996,4.088 18.990 L 2.176 18.980 2.542 16.680 C 2.743 15.415,2.921 14.295,2.936 14.190 L 2.965 14.000 6.000 14.000 L 9.035 14.000 9.061 14.170 M21.063 14.189 C 21.079 14.293,21.256 15.414,21.457 16.679 L 21.823 18.980 19.911 18.990 C 18.860 18.996,17.140 18.996,16.088 18.990 L 14.176 18.980 14.542 16.680 C 14.743 15.415,14.921 14.295,14.936 14.190 L 14.965 14.000 18.000 14.000 L 21.035 14.000 21.063 14.189 " fill="#000640" stroke="none" fill-rule="evenodd"></path></svg>