<svg xmlns="http://www.w3.org/2000/svg" width="24" height="24" fill="currentColor" class="mmi mmi-graduatecap" viewBox="0 0 24 24"><path d="M11.440 3.155 C 10.791 3.415,0.749 7.644,0.580 7.729 C 0.237 7.900,0.045 8.180,0.011 8.559 C -0.015 8.838,0.097 9.123,0.312 9.331 C 0.407 9.422,0.961 9.730,1.860 10.192 L 3.260 10.910 3.280 14.385 L 3.300 17.860 3.395 18.051 C 3.506 18.275,3.674 18.426,4.220 18.796 C 5.842 19.894,7.845 20.599,10.220 20.906 C 10.653 20.962,11.056 20.978,12.000 20.978 C 12.944 20.978,13.347 20.962,13.780 20.906 C 16.147 20.600,18.116 19.910,19.773 18.807 C 20.294 18.460,20.491 18.281,20.605 18.051 L 20.700 17.860 20.711 14.392 L 20.723 10.923 21.291 10.624 C 21.604 10.460,21.891 10.313,21.929 10.299 C 21.994 10.274,21.998 10.436,22.009 12.966 C 22.020 15.651,22.020 15.661,22.108 15.824 C 22.210 16.014,22.438 16.227,22.626 16.305 C 22.795 16.376,23.205 16.376,23.374 16.305 C 23.562 16.227,23.790 16.014,23.892 15.824 L 23.980 15.660 23.980 12.000 L 23.980 8.340 23.894 8.180 C 23.788 7.983,23.631 7.834,23.420 7.729 C 23.228 7.634,12.527 3.134,12.305 3.055 C 12.055 2.967,11.850 2.990,11.440 3.155 M16.318 6.900 C 18.673 7.890,20.599 8.709,20.599 8.720 C 20.598 8.731,18.663 9.727,16.299 10.934 L 11.999 13.128 7.701 10.934 C 5.337 9.727,3.402 8.731,3.402 8.720 C 3.401 8.695,11.970 5.084,12.009 5.093 C 12.024 5.097,13.964 5.910,16.318 6.900 M9.200 13.944 L 11.700 15.220 12.000 15.220 L 12.300 15.220 14.800 13.944 C 16.175 13.242,17.610 12.507,17.990 12.311 L 18.680 11.953 18.680 14.550 L 18.680 17.146 18.270 17.389 C 16.904 18.198,15.343 18.699,13.480 18.928 C 12.928 18.996,11.072 18.996,10.520 18.928 C 9.229 18.770,8.062 18.471,6.986 18.024 C 6.516 17.829,6.223 17.681,5.730 17.389 L 5.320 17.146 5.320 14.550 L 5.320 11.953 6.010 12.311 C 6.390 12.507,7.825 13.242,9.200 13.944 " fill="#000640" stroke="none" fill-rule="evenodd"></path></svg>