<svg xmlns="http://www.w3.org/2000/svg" width="24" height="24" fill="currentColor" class="mmi mmi-gridlayout-v53" viewBox="0 0 24 24"><path d="M3.503 1.042 C 2.459 1.219,1.527 2.000,1.181 2.990 C 1.000 3.507,0.996 3.603,1.008 7.040 L 1.020 10.300 1.131 10.489 C 1.260 10.709,1.437 10.854,1.678 10.939 C 1.830 10.993,3.022 11.000,11.998 11.000 C 23.385 11.000,22.374 11.028,22.701 10.701 C 23.013 10.389,23.000 10.553,23.000 6.931 C 23.000 3.422,23.000 3.423,22.766 2.849 C 22.499 2.193,21.964 1.633,21.296 1.312 C 20.634 0.993,21.532 1.022,12.120 1.015 C 7.489 1.012,3.611 1.024,3.503 1.042 M20.340 3.066 C 20.593 3.153,20.847 3.407,20.934 3.660 C 20.993 3.833,21.000 4.137,21.000 6.427 L 21.000 9.000 12.000 9.000 L 3.000 9.000 3.000 6.427 C 3.000 3.522,2.992 3.606,3.300 3.298 C 3.617 2.981,2.858 3.007,11.983 3.003 C 19.481 3.000,20.162 3.005,20.340 3.066 M1.664 13.063 C 1.436 13.146,1.257 13.297,1.131 13.511 L 1.020 13.700 1.009 16.980 C 0.996 20.572,0.996 20.567,1.233 21.149 C 1.521 21.857,2.142 22.479,2.849 22.766 C 3.423 23.000,3.422 23.000,6.931 23.000 C 10.553 23.000,10.389 23.013,10.701 22.701 C 11.018 22.384,11.000 22.663,11.000 18.000 C 11.000 13.337,11.018 13.616,10.701 13.299 C 10.384 12.982,10.666 13.000,5.983 13.003 C 2.474 13.005,1.795 13.015,1.664 13.063 M13.664 13.063 C 13.436 13.146,13.257 13.297,13.131 13.511 L 13.020 13.700 13.020 18.000 L 13.020 22.300 13.131 22.489 C 13.260 22.709,13.437 22.854,13.678 22.939 C 13.938 23.031,20.137 23.030,20.581 22.938 C 21.780 22.691,22.691 21.780,22.938 20.581 C 22.991 20.328,23.000 19.806,23.000 17.069 C 23.000 13.447,23.013 13.611,22.701 13.299 C 22.384 12.982,22.666 13.000,17.983 13.003 C 14.474 13.005,13.795 13.015,13.664 13.063 M9.000 18.000 L 9.000 21.000 6.427 21.000 C 3.523 21.000,3.606 21.008,3.299 20.701 C 2.992 20.394,3.000 20.477,3.000 17.573 L 3.000 15.000 6.000 15.000 L 9.000 15.000 9.000 18.000 M21.000 17.573 C 21.000 20.477,21.008 20.394,20.701 20.701 C 20.394 21.008,20.477 21.000,17.573 21.000 L 15.000 21.000 15.000 18.000 L 15.000 15.000 18.000 15.000 L 21.000 15.000 21.000 17.573 " fill="#000640" stroke="none" fill-rule="evenodd"></path></svg>