<svg xmlns="http://www.w3.org/2000/svg" width="24" height="24" fill="currentColor" class="mmi mmi-gridlayout-v49" viewBox="0 0 24 24"><path d="M3.503 1.042 C 2.488 1.214,1.556 1.976,1.202 2.925 C 0.992 3.487,1.001 3.068,1.001 11.992 C 1.000 21.076,0.986 20.543,1.234 21.151 C 1.521 21.857,2.143 22.479,2.849 22.766 C 3.457 23.014,2.925 23.000,12.000 23.000 C 21.073 23.000,20.544 23.013,21.150 22.767 C 21.850 22.482,22.482 21.850,22.767 21.150 C 23.013 20.544,23.000 21.073,23.000 12.000 C 23.000 2.925,23.014 3.457,22.766 2.849 C 22.499 2.193,21.964 1.633,21.296 1.312 C 20.634 0.993,21.532 1.022,12.120 1.015 C 7.489 1.012,3.611 1.024,3.503 1.042 M6.000 12.000 L 6.000 21.000 4.927 21.000 C 3.692 21.000,3.577 20.979,3.299 20.701 C 2.974 20.376,3.000 21.144,3.000 12.000 C 3.000 2.855,2.973 3.624,3.300 3.298 C 3.574 3.024,3.667 3.007,4.910 3.003 L 6.000 3.000 6.000 12.000 M11.000 12.000 L 11.000 21.000 9.500 21.000 L 8.000 21.000 8.000 12.000 L 8.000 3.000 9.500 3.000 L 11.000 3.000 11.000 12.000 M20.340 3.066 C 20.593 3.153,20.847 3.407,20.934 3.660 C 20.995 3.838,21.000 4.523,21.000 12.000 C 21.000 21.144,21.026 20.376,20.701 20.701 C 20.387 21.015,20.595 21.000,16.573 21.000 L 13.000 21.000 13.000 12.000 L 13.000 3.000 16.573 3.000 C 19.794 3.000,20.165 3.007,20.340 3.066 " fill="#000640" stroke="none" fill-rule="evenodd"></path></svg>