<svg xmlns="http://www.w3.org/2000/svg" width="24" height="24" fill="currentColor" class="mmi mmi-gridlayout-v56" viewBox="0 0 24 24"><path d="M3.503 2.042 C 2.484 2.217,1.556 2.976,1.202 3.925 C 0.993 4.484,1.001 4.151,1.001 11.992 C 1.000 18.401,1.007 19.319,1.062 19.581 C 1.310 20.785,2.215 21.690,3.419 21.938 C 3.862 22.030,9.138 22.030,9.581 21.938 C 10.780 21.691,11.691 20.780,11.938 19.581 C 11.993 19.320,12.000 18.400,12.000 12.000 C 12.000 4.024,12.012 4.453,11.766 3.849 C 11.499 3.193,10.964 2.633,10.296 2.312 C 9.665 2.008,9.872 2.025,6.620 2.016 C 5.014 2.011,3.611 2.023,3.503 2.042 M14.643 3.069 C 14.291 3.193,14.000 3.614,14.000 4.000 C 14.000 4.242,14.119 4.521,14.299 4.701 C 14.613 5.015,14.396 5.000,18.500 5.000 C 22.604 5.000,22.387 5.015,22.701 4.701 C 22.881 4.521,23.000 4.242,23.000 4.000 C 23.000 3.758,22.881 3.479,22.701 3.299 C 22.386 2.984,22.607 3.000,18.483 3.003 C 15.273 3.006,14.798 3.014,14.643 3.069 M9.340 4.066 C 9.455 4.105,9.603 4.201,9.701 4.299 C 10.025 4.623,10.000 3.977,10.000 12.000 C 10.000 20.023,10.025 19.377,9.701 19.701 C 9.394 20.009,9.486 20.000,6.500 20.000 C 3.514 20.000,3.606 20.009,3.299 19.701 C 2.975 19.377,3.000 20.023,3.000 12.000 C 3.000 3.975,2.975 4.623,3.300 4.298 C 3.601 3.997,3.494 4.007,6.483 4.003 C 8.862 4.000,9.166 4.007,9.340 4.066 M14.643 7.069 C 14.291 7.193,14.000 7.614,14.000 8.000 C 14.000 8.242,14.119 8.521,14.299 8.701 C 14.613 9.015,14.396 9.000,18.500 9.000 C 22.604 9.000,22.387 9.015,22.701 8.701 C 22.881 8.521,23.000 8.242,23.000 8.000 C 23.000 7.758,22.881 7.479,22.701 7.299 C 22.386 6.984,22.607 7.000,18.483 7.003 C 15.273 7.006,14.798 7.014,14.643 7.069 M14.643 11.069 C 14.291 11.193,14.000 11.614,14.000 12.000 C 14.000 12.242,14.119 12.521,14.299 12.701 C 14.613 13.015,14.396 13.000,18.500 13.000 C 22.604 13.000,22.387 13.015,22.701 12.701 C 22.881 12.521,23.000 12.242,23.000 12.000 C 23.000 11.758,22.881 11.479,22.701 11.299 C 22.386 10.984,22.607 11.000,18.483 11.003 C 15.273 11.006,14.798 11.014,14.643 11.069 M14.643 15.069 C 14.291 15.193,14.000 15.614,14.000 16.000 C 14.000 16.242,14.119 16.521,14.299 16.701 C 14.613 17.015,14.396 17.000,18.500 17.000 C 22.604 17.000,22.387 17.015,22.701 16.701 C 22.881 16.521,23.000 16.242,23.000 16.000 C 23.000 15.758,22.881 15.479,22.701 15.299 C 22.386 14.984,22.607 15.000,18.483 15.003 C 15.273 15.006,14.798 15.014,14.643 15.069 M14.643 19.069 C 14.291 19.193,14.000 19.614,14.000 20.000 C 14.000 20.242,14.119 20.521,14.299 20.701 C 14.613 21.015,14.396 21.000,18.500 21.000 C 22.604 21.000,22.387 21.015,22.701 20.701 C 22.881 20.521,23.000 20.242,23.000 20.000 C 23.000 19.758,22.881 19.479,22.701 19.299 C 22.386 18.984,22.607 19.000,18.483 19.003 C 15.273 19.006,14.798 19.014,14.643 19.069 " fill="#000640" stroke="none" fill-rule="evenodd"></path></svg>