<svg xmlns="http://www.w3.org/2000/svg" width="24" height="24" fill="currentColor" class="mmi mmi-gridlayout-v46" viewBox="0 0 24 24"><path d="M3.503 1.042 C 2.818 1.158,2.117 1.573,1.670 2.127 C 1.445 2.407,1.159 2.980,1.074 3.320 C 0.993 3.647,0.993 20.353,1.074 20.680 C 1.159 21.020,1.445 21.593,1.670 21.873 C 1.950 22.220,2.312 22.501,2.740 22.704 C 3.409 23.021,2.760 23.000,12.000 23.000 C 21.240 23.000,20.591 23.021,21.260 22.704 C 21.920 22.391,22.391 21.920,22.704 21.260 C 23.021 20.591,23.000 21.240,23.000 12.000 C 23.000 2.760,23.021 3.409,22.704 2.740 C 22.398 2.095,21.924 1.614,21.296 1.312 C 20.634 0.993,21.532 1.022,12.120 1.015 C 7.489 1.012,3.611 1.024,3.503 1.042 M8.000 12.001 L 8.000 21.002 5.869 20.991 L 3.738 20.980 3.539 20.878 C 3.313 20.761,3.102 20.509,3.041 20.283 C 3.013 20.178,3.003 17.490,3.010 11.914 L 3.020 3.700 3.131 3.511 C 3.256 3.298,3.449 3.136,3.670 3.057 C 3.788 3.015,4.269 3.003,5.910 3.002 L 8.000 3.000 8.000 12.001 M20.340 3.066 C 20.593 3.153,20.847 3.407,20.934 3.660 C 20.995 3.838,21.000 4.523,21.000 12.000 C 21.000 21.144,21.026 20.376,20.701 20.701 C 20.381 21.021,20.774 21.000,15.073 21.000 L 10.000 21.000 10.000 12.000 L 10.000 3.000 15.073 3.000 C 19.690 3.000,20.163 3.006,20.340 3.066 M14.875 5.062 C 13.568 5.299,12.533 6.237,12.133 7.548 C 12.038 7.863,12.026 7.963,12.026 8.500 C 12.026 9.037,12.038 9.137,12.133 9.452 C 12.501 10.656,13.344 11.499,14.548 11.867 C 14.863 11.962,14.963 11.974,15.500 11.974 C 16.037 11.974,16.137 11.962,16.452 11.867 C 17.656 11.499,18.499 10.656,18.867 9.452 C 18.962 9.137,18.974 9.037,18.974 8.500 C 18.974 7.963,18.962 7.863,18.867 7.548 C 18.665 6.886,18.361 6.395,17.868 5.936 C 17.071 5.193,15.954 4.867,14.875 5.062 M16.110 7.139 C 16.415 7.278,16.725 7.589,16.866 7.896 C 16.962 8.105,16.978 8.191,16.978 8.500 C 16.979 8.810,16.963 8.893,16.867 9.100 C 16.722 9.415,16.413 9.724,16.104 9.867 C 15.894 9.965,15.811 9.980,15.500 9.980 C 15.190 9.980,15.107 9.965,14.900 9.868 C 14.584 9.721,14.275 9.413,14.134 9.104 C 14.038 8.895,14.022 8.809,14.022 8.500 C 14.021 8.190,14.037 8.107,14.133 7.900 C 14.324 7.489,14.727 7.148,15.150 7.041 C 15.407 6.976,15.852 7.022,16.110 7.139 M12.643 14.069 C 12.291 14.193,12.000 14.614,12.000 15.000 C 12.000 15.242,12.119 15.521,12.299 15.701 C 12.606 16.009,12.514 16.000,15.500 16.000 C 18.486 16.000,18.394 16.009,18.701 15.701 C 18.881 15.521,19.000 15.242,19.000 15.000 C 19.000 14.758,18.881 14.479,18.701 14.299 C 18.393 13.991,18.488 14.000,15.483 14.003 C 13.179 14.006,12.796 14.015,12.643 14.069 M12.643 17.069 C 12.291 17.193,12.000 17.614,12.000 18.000 C 12.000 18.242,12.119 18.521,12.299 18.701 C 12.606 19.009,12.514 19.000,15.500 19.000 C 18.486 19.000,18.394 19.009,18.701 18.701 C 18.881 18.521,19.000 18.242,19.000 18.000 C 19.000 17.758,18.881 17.479,18.701 17.299 C 18.393 16.991,18.488 17.000,15.483 17.003 C 13.179 17.006,12.796 17.015,12.643 17.069 " fill="#000640" stroke="none" fill-rule="evenodd"></path></svg>