<svg xmlns="http://www.w3.org/2000/svg" width="24" height="24" fill="currentColor" class="mmi mmi-gridlayout-v42" viewBox="0 0 24 24"><path d="M3.503 1.042 C 2.818 1.158,2.117 1.573,1.670 2.127 C 1.445 2.407,1.159 2.980,1.074 3.320 C 0.993 3.647,0.993 20.353,1.074 20.680 C 1.159 21.020,1.445 21.593,1.670 21.873 C 1.950 22.220,2.312 22.501,2.740 22.704 C 3.409 23.021,2.760 23.000,12.000 23.000 C 21.240 23.000,20.591 23.021,21.260 22.704 C 21.920 22.391,22.391 21.920,22.704 21.260 C 23.021 20.591,23.000 21.240,23.000 12.000 C 23.000 2.760,23.021 3.409,22.704 2.740 C 22.398 2.095,21.924 1.614,21.296 1.312 C 20.634 0.993,21.532 1.022,12.120 1.015 C 7.489 1.012,3.611 1.024,3.503 1.042 M14.000 4.500 L 14.000 6.000 8.498 6.000 L 2.995 6.000 3.008 4.850 L 3.020 3.700 3.131 3.511 C 3.256 3.298,3.449 3.136,3.670 3.057 C 3.792 3.013,4.762 3.003,8.910 3.002 L 14.000 3.000 14.000 4.500 M20.340 3.066 C 20.593 3.153,20.847 3.407,20.934 3.660 C 20.995 3.838,21.000 4.523,21.000 12.000 C 21.000 21.144,21.026 20.376,20.701 20.701 C 20.400 21.002,20.419 21.000,18.073 21.000 L 16.000 21.000 16.000 12.000 L 16.000 3.000 18.073 3.000 C 19.897 3.000,20.169 3.008,20.340 3.066 M14.000 14.500 L 14.000 21.001 8.869 20.990 L 3.738 20.980 3.539 20.878 C 3.316 20.763,3.104 20.512,3.042 20.289 C 3.014 20.189,3.000 18.128,3.000 14.070 L 3.000 8.000 8.500 8.000 L 14.000 8.000 14.000 14.500 M5.664 10.063 C 5.436 10.146,5.257 10.297,5.131 10.511 C 5.036 10.672,5.020 10.744,5.020 11.000 C 5.020 11.256,5.036 11.328,5.131 11.489 C 5.192 11.592,5.301 11.723,5.374 11.778 C 5.669 12.003,5.624 12.000,8.498 12.000 C 11.486 12.000,11.393 12.009,11.701 11.701 C 11.881 11.521,12.000 11.242,12.000 11.000 C 12.000 10.758,11.881 10.479,11.701 10.299 C 11.393 9.991,11.488 10.000,8.483 10.003 C 6.276 10.005,5.793 10.015,5.664 10.063 M5.664 13.063 C 5.436 13.146,5.257 13.297,5.131 13.511 C 5.036 13.672,5.020 13.744,5.020 14.000 C 5.020 14.256,5.036 14.328,5.131 14.489 C 5.192 14.592,5.301 14.723,5.374 14.778 C 5.669 15.003,5.624 15.000,8.498 15.000 C 11.486 15.000,11.393 15.009,11.701 14.701 C 11.881 14.521,12.000 14.242,12.000 14.000 C 12.000 13.758,11.881 13.479,11.701 13.299 C 11.393 12.991,11.488 13.000,8.483 13.003 C 6.276 13.005,5.793 13.015,5.664 13.063 M5.664 16.063 C 5.436 16.146,5.257 16.297,5.131 16.511 C 5.036 16.672,5.020 16.744,5.020 17.000 C 5.020 17.256,5.036 17.328,5.131 17.489 C 5.260 17.709,5.437 17.854,5.678 17.939 C 5.941 18.032,8.064 18.028,8.340 17.934 C 8.709 17.808,9.000 17.396,9.000 17.000 C 9.000 16.604,8.709 16.192,8.340 16.066 C 8.073 15.975,5.910 15.973,5.664 16.063 " fill="#000640" stroke="none" fill-rule="evenodd"></path></svg>