<svg xmlns="http://www.w3.org/2000/svg" width="24" height="24" fill="currentColor" class="mmi mmi-gridlayout-v45" viewBox="0 0 24 24"><path d="M3.503 1.042 C 2.818 1.158,2.117 1.573,1.670 2.127 C 1.445 2.407,1.159 2.980,1.074 3.320 C 0.993 3.647,0.993 20.353,1.074 20.680 C 1.159 21.020,1.445 21.593,1.670 21.873 C 1.950 22.220,2.312 22.501,2.740 22.704 C 3.409 23.021,2.760 23.000,12.000 23.000 C 21.240 23.000,20.591 23.021,21.260 22.704 C 21.920 22.391,22.391 21.920,22.704 21.260 C 23.021 20.591,23.000 21.240,23.000 12.000 C 23.000 2.760,23.021 3.409,22.704 2.740 C 22.398 2.095,21.924 1.614,21.296 1.312 C 20.634 0.993,21.532 1.022,12.120 1.015 C 7.489 1.012,3.611 1.024,3.503 1.042 M14.000 12.000 L 14.000 21.001 8.869 20.990 L 3.738 20.980 3.539 20.878 C 3.313 20.761,3.102 20.509,3.041 20.283 C 3.013 20.178,3.003 17.490,3.010 11.914 L 3.020 3.700 3.131 3.511 C 3.256 3.298,3.449 3.136,3.670 3.057 C 3.792 3.013,4.762 3.003,8.910 3.002 L 14.000 3.000 14.000 12.000 M20.340 3.066 C 20.593 3.153,20.847 3.407,20.934 3.660 C 20.995 3.838,21.000 4.523,21.000 12.000 C 21.000 21.144,21.026 20.376,20.701 20.701 C 20.400 21.002,20.419 21.000,18.073 21.000 L 16.000 21.000 16.000 12.000 L 16.000 3.000 18.073 3.000 C 19.897 3.000,20.169 3.008,20.340 3.066 M7.875 5.062 C 6.568 5.299,5.533 6.237,5.133 7.548 C 5.038 7.863,5.026 7.963,5.026 8.500 C 5.026 9.037,5.038 9.137,5.133 9.452 C 5.501 10.656,6.344 11.499,7.548 11.867 C 7.863 11.962,7.963 11.974,8.500 11.974 C 9.037 11.974,9.137 11.962,9.452 11.867 C 10.656 11.499,11.499 10.656,11.867 9.452 C 11.962 9.137,11.974 9.037,11.974 8.500 C 11.974 7.963,11.962 7.863,11.867 7.548 C 11.665 6.886,11.361 6.395,10.868 5.936 C 10.071 5.193,8.954 4.867,7.875 5.062 M9.110 7.139 C 9.415 7.278,9.725 7.589,9.866 7.896 C 9.962 8.105,9.978 8.191,9.978 8.500 C 9.979 8.810,9.963 8.893,9.867 9.100 C 9.722 9.415,9.413 9.724,9.104 9.867 C 8.894 9.965,8.811 9.980,8.500 9.980 C 8.190 9.980,8.107 9.965,7.900 9.868 C 7.584 9.721,7.275 9.413,7.134 9.104 C 7.038 8.895,7.022 8.809,7.022 8.500 C 7.021 8.190,7.037 8.107,7.133 7.900 C 7.324 7.489,7.727 7.148,8.150 7.041 C 8.407 6.976,8.852 7.022,9.110 7.139 M5.643 14.069 C 5.291 14.193,5.000 14.614,5.000 15.000 C 5.000 15.242,5.119 15.521,5.299 15.701 C 5.606 16.009,5.514 16.000,8.500 16.000 C 11.486 16.000,11.394 16.009,11.701 15.701 C 11.881 15.521,12.000 15.242,12.000 15.000 C 12.000 14.758,11.881 14.479,11.701 14.299 C 11.393 13.991,11.488 14.000,8.483 14.003 C 6.179 14.006,5.796 14.015,5.643 14.069 M5.643 17.069 C 5.291 17.193,5.000 17.614,5.000 18.000 C 5.000 18.242,5.119 18.521,5.299 18.701 C 5.606 19.009,5.514 19.000,8.500 19.000 C 11.486 19.000,11.394 19.009,11.701 18.701 C 11.881 18.521,12.000 18.242,12.000 18.000 C 12.000 17.758,11.881 17.479,11.701 17.299 C 11.393 16.991,11.488 17.000,8.483 17.003 C 6.179 17.006,5.796 17.015,5.643 17.069 " fill="#000640" stroke="none" fill-rule="evenodd"></path></svg>