<svg xmlns="http://www.w3.org/2000/svg" width="24" height="24" fill="currentColor" class="mmi mmi-gridlayout-v40" viewBox="0 0 24 24"><path d="M3.503 1.042 C 2.818 1.158,2.117 1.573,1.670 2.127 C 1.445 2.407,1.159 2.980,1.074 3.320 C 0.993 3.647,0.993 20.353,1.074 20.680 C 1.159 21.020,1.445 21.593,1.670 21.873 C 1.950 22.220,2.312 22.501,2.740 22.704 C 3.409 23.021,2.760 23.000,12.000 23.000 C 21.240 23.000,20.591 23.021,21.260 22.704 C 21.920 22.391,22.391 21.920,22.704 21.260 C 23.021 20.591,23.000 21.240,23.000 12.000 C 23.000 2.760,23.021 3.409,22.704 2.740 C 22.398 2.095,21.924 1.614,21.296 1.312 C 20.634 0.993,21.532 1.022,12.120 1.015 C 7.489 1.012,3.611 1.024,3.503 1.042 M14.000 12.000 L 14.000 21.001 8.869 20.990 L 3.738 20.980 3.539 20.878 C 3.313 20.761,3.102 20.509,3.041 20.283 C 3.013 20.178,3.003 17.490,3.010 11.914 L 3.020 3.700 3.131 3.511 C 3.256 3.298,3.449 3.136,3.670 3.057 C 3.792 3.013,4.762 3.003,8.910 3.002 L 14.000 3.000 14.000 12.000 M20.340 3.066 C 20.593 3.153,20.847 3.407,20.934 3.660 C 20.995 3.838,21.000 4.523,21.000 12.000 C 21.000 21.144,21.026 20.376,20.701 20.701 C 20.400 21.002,20.419 21.000,18.073 21.000 L 16.000 21.000 16.000 12.000 L 16.000 3.000 18.073 3.000 C 19.897 3.000,20.169 3.008,20.340 3.066 M5.664 5.063 C 5.436 5.146,5.257 5.297,5.131 5.511 C 5.036 5.672,5.020 5.744,5.020 6.000 C 5.020 6.256,5.036 6.328,5.131 6.489 C 5.192 6.592,5.301 6.723,5.374 6.778 C 5.669 7.003,5.624 7.000,8.498 7.000 C 11.486 7.000,11.393 7.009,11.701 6.701 C 11.881 6.521,12.000 6.242,12.000 6.000 C 12.000 5.758,11.881 5.479,11.701 5.299 C 11.393 4.991,11.488 5.000,8.483 5.003 C 6.276 5.005,5.793 5.015,5.664 5.063 M5.664 8.063 C 5.436 8.146,5.257 8.297,5.131 8.511 C 5.036 8.672,5.020 8.744,5.020 9.000 C 5.020 9.256,5.036 9.328,5.131 9.489 C 5.192 9.592,5.301 9.723,5.374 9.778 C 5.669 10.003,5.624 10.000,8.498 10.000 C 11.486 10.000,11.393 10.009,11.701 9.701 C 11.881 9.521,12.000 9.242,12.000 9.000 C 12.000 8.758,11.881 8.479,11.701 8.299 C 11.393 7.991,11.488 8.000,8.483 8.003 C 6.276 8.005,5.793 8.015,5.664 8.063 M5.664 11.063 C 5.436 11.146,5.257 11.297,5.131 11.511 C 5.036 11.672,5.020 11.744,5.020 12.000 C 5.020 12.256,5.036 12.328,5.131 12.489 C 5.192 12.592,5.301 12.723,5.374 12.778 C 5.669 13.003,5.624 13.000,8.498 13.000 C 11.486 13.000,11.393 13.009,11.701 12.701 C 11.881 12.521,12.000 12.242,12.000 12.000 C 12.000 11.758,11.881 11.479,11.701 11.299 C 11.393 10.991,11.488 11.000,8.483 11.003 C 6.276 11.005,5.793 11.015,5.664 11.063 M5.664 14.063 C 5.436 14.146,5.257 14.297,5.131 14.511 C 5.036 14.672,5.020 14.744,5.020 15.000 C 5.020 15.256,5.036 15.328,5.131 15.489 C 5.192 15.592,5.301 15.723,5.374 15.778 C 5.657 15.994,5.715 16.000,7.498 16.000 C 9.371 16.000,9.407 15.995,9.701 15.701 C 10.092 15.310,10.092 14.690,9.701 14.299 C 9.406 14.004,9.373 14.000,7.483 14.003 C 6.145 14.005,5.789 14.017,5.664 14.063 " fill="#000640" stroke="none" fill-rule="evenodd"></path></svg>