<svg xmlns="http://www.w3.org/2000/svg" width="24" height="24" fill="currentColor" class="mmi mmi-gridlayout-v35" viewBox="0 0 24 24"><path d="M3.503 1.042 C 2.488 1.214,1.556 1.976,1.202 2.925 C 0.992 3.487,1.001 3.068,1.001 11.992 C 1.000 21.076,0.986 20.543,1.234 21.151 C 1.521 21.857,2.143 22.479,2.849 22.766 C 3.457 23.014,2.925 23.000,12.000 23.000 C 21.073 23.000,20.544 23.013,21.150 22.767 C 21.850 22.482,22.482 21.850,22.767 21.150 C 23.013 20.544,23.000 21.073,23.000 12.000 C 23.000 2.925,23.014 3.457,22.766 2.849 C 22.499 2.193,21.964 1.633,21.296 1.312 C 20.634 0.993,21.532 1.022,12.120 1.015 C 7.489 1.012,3.611 1.024,3.503 1.042 M20.340 3.066 C 20.455 3.105,20.603 3.201,20.701 3.299 C 21.015 3.613,21.000 3.405,21.000 7.427 L 21.000 11.000 12.000 11.000 L 3.000 11.000 3.000 7.427 C 3.000 3.404,2.985 3.613,3.300 3.298 C 3.617 2.981,2.858 3.007,11.983 3.003 C 19.481 3.000,20.162 3.005,20.340 3.066 M5.000 17.000 L 5.000 21.000 4.427 21.000 C 3.741 21.000,3.546 20.948,3.299 20.701 C 2.985 20.387,3.000 20.595,3.000 16.573 L 3.000 13.000 4.000 13.000 L 5.000 13.000 5.000 17.000 M9.000 17.000 L 9.000 21.000 8.000 21.000 L 7.000 21.000 7.000 17.000 L 7.000 13.000 8.000 13.000 L 9.000 13.000 9.000 17.000 M13.000 17.000 L 13.000 21.000 12.000 21.000 L 11.000 21.000 11.000 17.000 L 11.000 13.000 12.000 13.000 L 13.000 13.000 13.000 17.000 M17.000 17.000 L 17.000 21.000 16.000 21.000 L 15.000 21.000 15.000 17.000 L 15.000 13.000 16.000 13.000 L 17.000 13.000 17.000 17.000 M21.000 16.573 C 21.000 20.595,21.015 20.387,20.701 20.701 C 20.454 20.948,20.259 21.000,19.573 21.000 L 19.000 21.000 19.000 17.000 L 19.000 13.000 20.000 13.000 L 21.000 13.000 21.000 16.573 " fill="#000640" stroke="none" fill-rule="evenodd"></path></svg>