<svg xmlns="http://www.w3.org/2000/svg" width="24" height="24" fill="currentColor" class="mmi mmi-gridlayout-v55" viewBox="0 0 24 24"><path d="M3.503 1.042 C 2.461 1.217,1.527 2.000,1.181 2.990 C 1.000 3.507,0.996 3.603,1.008 7.040 L 1.020 10.300 1.131 10.489 C 1.192 10.592,1.301 10.723,1.374 10.778 C 1.677 11.009,1.484 11.000,5.998 11.000 C 10.663 11.000,10.384 11.018,10.701 10.701 C 11.018 10.384,11.000 10.663,11.000 6.000 C 11.000 1.337,11.018 1.616,10.701 1.299 C 10.389 0.986,10.555 0.999,6.923 1.005 C 5.150 1.007,3.611 1.024,3.503 1.042 M13.664 1.062 C 13.435 1.147,13.257 1.298,13.131 1.511 L 13.020 1.700 13.020 6.000 L 13.020 10.300 13.131 10.489 C 13.192 10.592,13.301 10.723,13.374 10.778 C 13.677 11.009,13.484 11.000,17.998 11.000 C 22.663 11.000,22.384 11.018,22.701 10.701 C 23.013 10.389,23.000 10.553,23.000 6.931 C 23.000 3.422,23.000 3.423,22.766 2.849 C 22.499 2.193,21.964 1.633,21.296 1.312 C 20.659 1.005,20.924 1.025,17.180 1.014 C 14.324 1.006,13.797 1.013,13.664 1.062 M9.000 6.000 L 9.000 9.000 6.000 9.000 L 3.000 9.000 3.000 6.427 C 3.000 3.522,2.992 3.606,3.300 3.298 C 3.601 2.997,3.502 3.007,6.410 3.003 L 9.000 3.000 9.000 6.000 M20.340 3.066 C 20.593 3.153,20.847 3.407,20.934 3.660 C 20.993 3.833,21.000 4.137,21.000 6.427 L 21.000 9.000 18.000 9.000 L 15.000 9.000 15.000 6.000 L 15.000 3.000 17.573 3.000 C 19.863 3.000,20.167 3.007,20.340 3.066 M1.664 13.063 C 1.436 13.146,1.257 13.297,1.131 13.511 L 1.020 13.700 1.009 16.980 C 0.996 20.572,0.996 20.567,1.233 21.149 C 1.521 21.857,2.142 22.479,2.849 22.766 C 3.423 23.000,3.422 23.000,6.931 23.000 C 10.553 23.000,10.389 23.013,10.701 22.701 C 11.018 22.384,11.000 22.663,11.000 18.000 C 11.000 13.337,11.018 13.616,10.701 13.299 C 10.384 12.982,10.666 13.000,5.983 13.003 C 2.474 13.005,1.795 13.015,1.664 13.063 M13.664 13.063 C 13.436 13.146,13.257 13.297,13.131 13.511 L 13.020 13.700 13.020 18.000 L 13.020 22.300 13.131 22.489 C 13.260 22.709,13.437 22.854,13.678 22.939 C 13.938 23.031,20.137 23.030,20.581 22.938 C 21.780 22.691,22.691 21.780,22.938 20.581 C 22.991 20.328,23.000 19.806,23.000 17.069 C 23.000 13.447,23.013 13.611,22.701 13.299 C 22.384 12.982,22.666 13.000,17.983 13.003 C 14.474 13.005,13.795 13.015,13.664 13.063 M9.000 18.000 L 9.000 21.000 6.427 21.000 C 3.523 21.000,3.606 21.008,3.299 20.701 C 2.992 20.394,3.000 20.477,3.000 17.573 L 3.000 15.000 6.000 15.000 L 9.000 15.000 9.000 18.000 M21.000 17.573 C 21.000 20.477,21.008 20.394,20.701 20.701 C 20.394 21.008,20.477 21.000,17.573 21.000 L 15.000 21.000 15.000 18.000 L 15.000 15.000 18.000 15.000 L 21.000 15.000 21.000 17.573 " fill="#000640" stroke="none" fill-rule="evenodd"></path></svg>