<svg xmlns="http://www.w3.org/2000/svg" width="24" height="24" fill="currentColor" class="mmi mmi-gridlayout-v41" viewBox="0 0 24 24"><path d="M3.503 1.042 C 2.818 1.158,2.117 1.573,1.670 2.127 C 1.445 2.407,1.159 2.980,1.074 3.320 C 0.993 3.647,0.993 20.353,1.074 20.680 C 1.159 21.020,1.445 21.593,1.670 21.873 C 1.950 22.220,2.312 22.501,2.740 22.704 C 3.409 23.021,2.760 23.000,12.000 23.000 C 21.240 23.000,20.591 23.021,21.260 22.704 C 21.920 22.391,22.391 21.920,22.704 21.260 C 23.021 20.591,23.000 21.240,23.000 12.000 C 23.000 2.760,23.021 3.409,22.704 2.740 C 22.398 2.095,21.924 1.614,21.296 1.312 C 20.634 0.993,21.532 1.022,12.120 1.015 C 7.489 1.012,3.611 1.024,3.503 1.042 M8.000 12.001 L 8.000 21.002 5.869 20.991 L 3.738 20.980 3.539 20.878 C 3.313 20.761,3.102 20.509,3.041 20.283 C 3.013 20.178,3.003 17.490,3.010 11.914 L 3.020 3.700 3.131 3.511 C 3.256 3.298,3.449 3.136,3.670 3.057 C 3.788 3.015,4.269 3.003,5.910 3.002 L 8.000 3.000 8.000 12.001 M20.340 3.066 C 20.593 3.153,20.847 3.407,20.934 3.660 C 20.989 3.822,21.000 4.033,21.000 4.927 L 21.000 6.000 15.500 6.000 L 10.000 6.000 10.000 4.500 L 10.000 3.000 15.073 3.000 C 19.690 3.000,20.163 3.006,20.340 3.066 M21.000 14.073 C 21.000 20.894,21.023 20.379,20.701 20.701 C 20.381 21.021,20.774 21.000,15.073 21.000 L 10.000 21.000 10.000 14.500 L 10.000 8.000 15.500 8.000 L 21.000 8.000 21.000 14.073 M12.664 10.063 C 12.436 10.146,12.257 10.297,12.131 10.511 C 12.036 10.672,12.020 10.744,12.020 11.000 C 12.020 11.256,12.036 11.328,12.131 11.489 C 12.192 11.592,12.301 11.723,12.374 11.778 C 12.669 12.003,12.624 12.000,15.498 12.000 C 18.486 12.000,18.393 12.009,18.701 11.701 C 18.881 11.521,19.000 11.242,19.000 11.000 C 19.000 10.758,18.881 10.479,18.701 10.299 C 18.393 9.991,18.488 10.000,15.483 10.003 C 13.276 10.005,12.793 10.015,12.664 10.063 M12.664 13.063 C 12.436 13.146,12.257 13.297,12.131 13.511 C 12.036 13.672,12.020 13.744,12.020 14.000 C 12.020 14.256,12.036 14.328,12.131 14.489 C 12.192 14.592,12.301 14.723,12.374 14.778 C 12.669 15.003,12.624 15.000,15.498 15.000 C 18.486 15.000,18.393 15.009,18.701 14.701 C 18.881 14.521,19.000 14.242,19.000 14.000 C 19.000 13.758,18.881 13.479,18.701 13.299 C 18.393 12.991,18.488 13.000,15.483 13.003 C 13.276 13.005,12.793 13.015,12.664 13.063 M12.664 16.063 C 12.436 16.146,12.257 16.297,12.131 16.511 C 12.036 16.672,12.020 16.744,12.020 17.000 C 12.020 17.256,12.036 17.328,12.131 17.489 C 12.260 17.709,12.437 17.854,12.678 17.939 C 12.941 18.032,15.064 18.028,15.340 17.934 C 15.709 17.808,16.000 17.396,16.000 17.000 C 16.000 16.604,15.709 16.192,15.340 16.066 C 15.073 15.975,12.910 15.973,12.664 16.063 " fill="#000640" stroke="none" fill-rule="evenodd"></path></svg>