<svg xmlns="http://www.w3.org/2000/svg" width="24" height="24" fill="currentColor" class="mmi mmi-gridlayout-v39" viewBox="0 0 24 24"><path d="M3.503 1.042 C 2.818 1.158,2.117 1.573,1.670 2.127 C 1.445 2.407,1.159 2.980,1.074 3.320 C 0.993 3.647,0.993 20.353,1.074 20.680 C 1.159 21.020,1.445 21.593,1.670 21.873 C 1.950 22.220,2.312 22.501,2.740 22.704 C 3.409 23.021,2.760 23.000,12.000 23.000 C 21.240 23.000,20.591 23.021,21.260 22.704 C 21.920 22.391,22.391 21.920,22.704 21.260 C 23.021 20.591,23.000 21.240,23.000 12.000 C 23.000 2.760,23.021 3.409,22.704 2.740 C 22.398 2.095,21.924 1.614,21.296 1.312 C 20.634 0.993,21.532 1.022,12.120 1.015 C 7.489 1.012,3.611 1.024,3.503 1.042 M8.000 12.001 L 8.000 21.002 5.869 20.991 L 3.738 20.980 3.539 20.878 C 3.313 20.761,3.102 20.509,3.041 20.283 C 3.013 20.178,3.003 17.490,3.010 11.914 L 3.020 3.700 3.131 3.511 C 3.256 3.298,3.449 3.136,3.670 3.057 C 3.788 3.015,4.269 3.003,5.910 3.002 L 8.000 3.000 8.000 12.001 M20.340 3.066 C 20.593 3.153,20.847 3.407,20.934 3.660 C 20.995 3.838,21.000 4.523,21.000 12.000 C 21.000 21.144,21.026 20.376,20.701 20.701 C 20.381 21.021,20.774 21.000,15.073 21.000 L 10.000 21.000 10.000 12.000 L 10.000 3.000 15.073 3.000 C 19.690 3.000,20.163 3.006,20.340 3.066 M12.664 5.063 C 12.436 5.146,12.257 5.297,12.131 5.511 C 12.036 5.672,12.020 5.744,12.020 6.000 C 12.020 6.256,12.036 6.328,12.131 6.489 C 12.192 6.592,12.301 6.723,12.374 6.778 C 12.669 7.003,12.624 7.000,15.498 7.000 C 18.486 7.000,18.393 7.009,18.701 6.701 C 18.881 6.521,19.000 6.242,19.000 6.000 C 19.000 5.758,18.881 5.479,18.701 5.299 C 18.393 4.991,18.488 5.000,15.483 5.003 C 13.276 5.005,12.793 5.015,12.664 5.063 M12.664 8.063 C 12.436 8.146,12.257 8.297,12.131 8.511 C 12.036 8.672,12.020 8.744,12.020 9.000 C 12.020 9.256,12.036 9.328,12.131 9.489 C 12.192 9.592,12.301 9.723,12.374 9.778 C 12.669 10.003,12.624 10.000,15.498 10.000 C 18.486 10.000,18.393 10.009,18.701 9.701 C 18.881 9.521,19.000 9.242,19.000 9.000 C 19.000 8.758,18.881 8.479,18.701 8.299 C 18.393 7.991,18.488 8.000,15.483 8.003 C 13.276 8.005,12.793 8.015,12.664 8.063 M12.664 11.063 C 12.436 11.146,12.257 11.297,12.131 11.511 C 12.036 11.672,12.020 11.744,12.020 12.000 C 12.020 12.256,12.036 12.328,12.131 12.489 C 12.192 12.592,12.301 12.723,12.374 12.778 C 12.669 13.003,12.624 13.000,15.498 13.000 C 18.486 13.000,18.393 13.009,18.701 12.701 C 18.881 12.521,19.000 12.242,19.000 12.000 C 19.000 11.758,18.881 11.479,18.701 11.299 C 18.393 10.991,18.488 11.000,15.483 11.003 C 13.276 11.005,12.793 11.015,12.664 11.063 M12.664 14.063 C 12.436 14.146,12.257 14.297,12.131 14.511 C 12.036 14.672,12.020 14.744,12.020 15.000 C 12.020 15.256,12.036 15.328,12.131 15.489 C 12.192 15.592,12.301 15.723,12.374 15.778 C 12.657 15.994,12.715 16.000,14.498 16.000 C 16.371 16.000,16.407 15.995,16.701 15.701 C 17.092 15.310,17.092 14.690,16.701 14.299 C 16.406 14.004,16.373 14.000,14.483 14.003 C 13.145 14.005,12.789 14.017,12.664 14.063 " fill="#000640" stroke="none" fill-rule="evenodd"></path></svg>