<svg xmlns="http://www.w3.org/2000/svg" width="24" height="24" fill="currentColor" class="mmi mmi-gridlayout-v17" viewBox="0 0 24 24"><path d="M3.503 1.042 C 2.488 1.214,1.556 1.976,1.202 2.925 C 0.992 3.487,1.001 3.068,1.001 11.992 C 1.000 21.076,0.986 20.543,1.234 21.151 C 1.521 21.857,2.143 22.479,2.849 22.766 C 3.457 23.014,2.925 23.000,12.000 23.000 C 21.073 23.000,20.544 23.013,21.150 22.767 C 21.850 22.482,22.482 21.850,22.767 21.150 C 23.013 20.544,23.000 21.073,23.000 12.000 C 23.000 2.925,23.014 3.457,22.766 2.849 C 22.499 2.193,21.964 1.633,21.296 1.312 C 20.634 0.993,21.532 1.022,12.120 1.015 C 7.489 1.012,3.611 1.024,3.503 1.042 M8.000 12.000 L 8.000 21.000 5.927 21.000 C 3.581 21.000,3.600 21.002,3.299 20.701 C 2.974 20.376,3.000 21.144,3.000 12.000 C 3.000 2.855,2.973 3.624,3.300 3.298 C 3.595 3.003,3.558 3.007,5.910 3.003 L 8.000 3.000 8.000 12.000 M20.340 3.066 C 20.593 3.153,20.847 3.407,20.934 3.660 C 20.989 3.822,21.000 4.033,21.000 4.927 L 21.000 6.000 15.500 6.000 L 10.000 6.000 10.000 4.500 L 10.000 3.000 15.073 3.000 C 19.690 3.000,20.163 3.006,20.340 3.066 M21.000 14.073 C 21.000 20.894,21.023 20.379,20.701 20.701 C 20.381 21.021,20.774 21.000,15.073 21.000 L 10.000 21.000 10.000 14.500 L 10.000 8.000 15.500 8.000 L 21.000 8.000 21.000 14.073 " fill="#000640" stroke="none" fill-rule="evenodd"></path></svg>