<svg xmlns="http://www.w3.org/2000/svg" width="24" height="24" fill="currentColor" class="mmi mmi-grocerybasket" viewBox="0 0 24 24"><path d="M13.643 1.069 C 13.407 1.152,13.149 1.416,13.066 1.660 C 13.009 1.828,13.000 2.067,13.000 3.414 L 13.000 4.974 12.621 5.330 C 12.131 5.789,11.810 6.223,11.517 6.820 C 11.245 7.376,11.102 7.871,11.030 8.513 L 10.980 8.964 10.484 7.132 C 10.211 6.124,9.952 5.215,9.909 5.110 C 9.822 4.901,9.585 4.663,9.377 4.576 C 9.093 4.457,8.901 4.495,5.750 5.282 C 4.072 5.701,2.623 6.081,2.530 6.126 C 2.233 6.268,2.000 6.647,2.000 6.988 C 2.000 7.090,2.586 9.535,2.704 9.930 C 2.723 9.994,2.687 10.000,2.310 10.000 C 1.768 10.000,1.527 10.070,1.303 10.295 C 1.128 10.470,1.000 10.755,1.000 10.968 C 1.000 11.169,2.754 20.732,2.833 20.961 C 3.160 21.909,3.934 22.631,4.920 22.907 C 5.167 22.976,5.523 22.980,12.000 22.980 C 18.477 22.980,18.833 22.976,19.080 22.907 C 20.066 22.631,20.840 21.909,21.167 20.961 C 21.246 20.732,23.000 11.169,23.000 10.968 C 23.000 10.755,22.872 10.470,22.697 10.295 C 22.457 10.055,22.243 10.000,21.553 10.000 L 21.000 10.000 21.000 9.369 C 21.000 8.256,20.867 7.598,20.484 6.820 C 20.189 6.222,19.868 5.788,19.379 5.330 L 19.000 4.974 19.000 3.414 C 19.000 1.639,18.993 1.591,18.701 1.299 C 18.398 0.996,18.430 1.000,15.983 1.003 C 14.132 1.006,13.795 1.015,13.643 1.069 M17.000 3.542 L 17.000 4.085 16.710 4.052 C 16.550 4.035,16.231 4.020,16.000 4.020 C 15.769 4.020,15.450 4.035,15.290 4.052 L 15.000 4.085 15.000 3.542 L 15.000 3.000 16.000 3.000 L 17.000 3.000 17.000 3.542 M16.679 6.082 C 17.750 6.339,18.602 7.158,18.902 8.220 C 18.950 8.392,18.975 8.678,18.989 9.230 L 19.008 10.000 16.004 10.000 L 13.000 10.000 13.000 9.358 C 13.000 8.641,13.059 8.261,13.236 7.837 C 13.797 6.496,15.271 5.744,16.679 6.082 M8.676 8.110 C 8.883 8.875,9.085 9.613,9.124 9.750 L 9.194 10.000 6.987 10.000 L 4.779 10.000 4.495 8.863 L 4.212 7.727 6.196 7.227 C 7.287 6.952,8.207 6.726,8.240 6.724 C 8.286 6.721,8.391 7.055,8.676 8.110 M20.780 12.130 C 20.767 12.202,20.427 14.071,20.024 16.285 C 19.426 19.570,19.274 20.341,19.196 20.483 C 19.084 20.686,18.820 20.900,18.609 20.958 C 18.402 21.016,5.598 21.016,5.391 20.958 C 5.180 20.900,4.916 20.686,4.804 20.483 C 4.726 20.341,4.574 19.570,3.976 16.285 C 3.573 14.071,3.233 12.202,3.220 12.130 L 3.196 12.000 12.000 12.000 L 20.804 12.000 20.780 12.130 M7.664 14.063 C 7.436 14.146,7.257 14.297,7.131 14.511 L 7.020 14.700 7.008 16.410 C 7.001 17.533,7.011 18.174,7.039 18.278 C 7.101 18.506,7.311 18.760,7.531 18.874 C 7.932 19.080,8.390 19.012,8.700 18.702 C 8.995 18.407,9.000 18.371,9.000 16.500 C 9.000 14.629,8.995 14.593,8.701 14.299 C 8.429 14.027,8.018 13.933,7.664 14.063 M11.664 14.063 C 11.436 14.146,11.257 14.297,11.131 14.511 L 11.020 14.700 11.008 16.410 C 11.001 17.533,11.011 18.174,11.039 18.278 C 11.101 18.506,11.311 18.760,11.531 18.874 C 11.932 19.080,12.390 19.012,12.700 18.702 C 12.995 18.407,13.000 18.371,13.000 16.500 C 13.000 14.629,12.995 14.593,12.701 14.299 C 12.429 14.027,12.018 13.933,11.664 14.063 M15.664 14.063 C 15.436 14.146,15.257 14.297,15.131 14.511 L 15.020 14.700 15.008 16.410 C 15.001 17.533,15.011 18.174,15.039 18.278 C 15.101 18.506,15.311 18.760,15.531 18.874 C 15.932 19.080,16.390 19.012,16.700 18.702 C 16.995 18.407,17.000 18.371,17.000 16.500 C 17.000 14.629,16.995 14.593,16.701 14.299 C 16.429 14.027,16.018 13.933,15.664 14.063 " fill="#000640" stroke="none" fill-rule="evenodd"></path></svg>