<svg xmlns="http://www.w3.org/2000/svg" width="24" height="24" fill="currentColor" class="mmi mmi-groupchat" viewBox="0 0 24 24"><path d="M9.503 1.042 C 8.487 1.215,7.556 1.976,7.202 2.925 C 7.099 3.200,7.002 3.648,7.001 3.847 L 7.000 3.995 5.230 4.010 C 3.265 4.028,3.304 4.023,2.704 4.312 C 2.008 4.646,1.459 5.236,1.202 5.925 C 0.993 6.484,1.001 6.171,1.001 13.748 C 1.000 18.741,1.013 20.858,1.044 21.008 C 1.264 22.061,2.383 22.786,3.416 22.543 C 3.982 22.410,4.041 22.363,5.802 20.612 L 7.423 19.000 10.853 19.000 C 14.598 19.000,14.574 19.001,15.150 18.767 C 15.850 18.482,16.482 17.850,16.767 17.150 C 16.887 16.855,17.000 16.366,17.000 16.142 L 17.000 16.000 17.259 16.000 L 17.518 16.000 18.569 17.309 C 19.234 18.138,19.693 18.674,19.820 18.770 C 20.221 19.072,20.814 19.213,21.313 19.124 C 22.131 18.978,22.792 18.352,22.956 17.568 C 22.987 17.418,23.000 15.361,23.000 10.536 C 23.000 3.070,23.012 3.452,22.766 2.849 C 22.499 2.193,21.964 1.633,21.296 1.312 C 20.643 0.998,21.171 1.023,15.120 1.015 C 12.139 1.012,9.611 1.023,9.503 1.042 M20.340 3.066 C 20.456 3.106,20.603 3.201,20.702 3.300 C 21.025 3.623,21.001 3.042,20.990 10.493 L 20.980 17.125 19.814 15.668 C 18.407 13.910,18.561 14.026,17.630 14.006 L 17.000 13.993 17.000 10.355 C 17.000 6.382,17.002 6.429,16.766 5.849 C 16.499 5.193,15.964 4.633,15.296 4.312 C 14.669 4.010,14.852 4.026,11.770 4.010 C 9.148 3.997,9.000 3.993,9.000 3.925 C 9.000 3.753,9.142 3.455,9.300 3.298 C 9.612 2.986,9.207 3.007,14.983 3.003 C 19.689 3.000,20.163 3.006,20.340 3.066 M14.340 6.066 C 14.455 6.105,14.603 6.201,14.701 6.299 C 15.020 6.617,15.000 6.277,15.000 11.500 C 15.000 16.723,15.020 16.383,14.701 16.701 C 14.387 17.015,14.604 17.000,10.500 17.000 C 7.235 17.000,6.834 17.007,6.657 17.065 C 6.480 17.124,6.281 17.309,4.730 18.854 L 3.000 20.578 3.000 13.716 C 3.000 6.009,2.975 6.623,3.300 6.298 C 3.612 5.986,3.207 6.007,8.983 6.003 C 13.689 6.000,14.163 6.006,14.340 6.066 " fill="#000640" stroke="none" fill-rule="evenodd"></path></svg>