<svg xmlns="http://www.w3.org/2000/svg" width="24" height="24" fill="currentColor" class="mmi mmi-guitar-ukulele" viewBox="0 0 24 24"><path d="M19.052 0.622 C 18.874 0.710,18.645 0.960,17.274 2.559 C 16.408 3.569,15.658 4.476,15.606 4.575 C 15.492 4.793,15.480 5.145,15.578 5.382 C 15.615 5.471,15.794 5.692,15.991 5.890 L 16.339 6.240 15.662 6.918 L 14.986 7.595 14.748 7.388 C 13.612 6.393,12.489 5.677,11.613 5.389 C 10.321 4.964,9.181 5.160,8.354 5.951 C 7.853 6.429,7.546 6.946,7.280 7.755 L 7.130 8.213 6.595 8.399 C 4.342 9.183,3.113 10.134,2.330 11.700 C 1.149 14.062,1.275 16.706,2.669 18.820 C 3.709 20.396,5.236 21.609,6.845 22.136 C 8.597 22.710,10.553 22.545,12.283 21.679 C 13.019 21.311,13.578 20.886,14.024 20.357 C 14.702 19.552,15.130 18.757,15.581 17.463 L 15.789 16.866 16.185 16.740 C 17.007 16.478,17.572 16.145,18.055 15.640 C 18.719 14.946,18.973 13.983,18.762 12.963 C 18.536 11.873,17.908 10.759,16.769 9.433 L 16.408 9.012 17.083 8.337 L 17.758 7.663 18.129 8.026 C 18.380 8.271,18.552 8.406,18.660 8.442 C 18.902 8.522,19.220 8.502,19.427 8.393 C 19.525 8.342,20.432 7.591,21.442 6.725 C 23.101 5.302,23.289 5.129,23.385 4.933 C 23.519 4.659,23.526 4.380,23.404 4.098 C 23.332 3.930,23.042 3.621,21.708 2.290 C 20.504 1.087,20.055 0.664,19.920 0.603 C 19.657 0.485,19.312 0.492,19.052 0.622 M20.300 3.720 C 21.013 4.433,21.018 4.440,20.939 4.516 C 20.759 4.690,19.072 6.120,19.047 6.120 C 19.031 6.120,18.761 5.861,18.445 5.545 C 18.015 5.114,17.879 4.955,17.905 4.911 C 17.964 4.812,19.529 3.000,19.556 3.000 C 19.570 3.000,19.904 3.324,20.300 3.720 M10.760 7.222 C 11.086 7.298,11.715 7.603,12.160 7.901 C 12.504 8.131,13.362 8.807,13.489 8.947 C 13.555 9.020,13.496 9.084,11.864 10.716 L 10.171 12.408 9.815 12.266 C 9.188 12.015,8.556 11.947,7.908 12.060 C 6.573 12.293,5.537 13.222,5.134 14.548 C 5.040 14.857,5.027 14.971,5.024 15.480 C 5.021 16.132,5.085 16.436,5.341 16.989 C 5.930 18.266,7.280 19.068,8.700 18.987 C 10.178 18.903,11.425 17.907,11.864 16.458 C 11.960 16.142,11.973 16.032,11.976 15.520 C 11.979 14.891,11.916 14.569,11.691 14.067 L 11.586 13.834 13.282 12.138 C 14.916 10.504,14.980 10.445,15.053 10.511 C 15.193 10.638,15.869 11.496,16.099 11.840 C 16.535 12.491,16.838 13.228,16.839 13.640 C 16.841 14.223,16.321 14.655,15.320 14.901 C 14.547 15.092,14.496 15.112,14.305 15.297 C 14.138 15.459,14.113 15.514,13.919 16.125 C 13.145 18.569,12.465 19.480,10.966 20.082 C 9.817 20.542,8.548 20.600,7.474 20.240 C 6.594 19.945,5.781 19.402,5.051 18.622 C 3.791 17.275,3.302 15.711,3.621 14.045 C 3.803 13.095,4.304 12.082,4.839 11.587 C 5.476 10.998,6.351 10.564,7.874 10.081 C 8.473 9.891,8.543 9.859,8.701 9.702 C 8.886 9.516,8.920 9.430,9.098 8.680 C 9.278 7.928,9.640 7.356,10.024 7.219 C 10.228 7.146,10.440 7.147,10.760 7.222 M9.110 14.139 C 9.415 14.278,9.725 14.589,9.866 14.896 C 9.962 15.105,9.978 15.191,9.978 15.500 C 9.979 15.810,9.963 15.893,9.867 16.100 C 9.722 16.415,9.413 16.724,9.104 16.867 C 8.894 16.965,8.811 16.980,8.500 16.980 C 8.190 16.980,8.107 16.965,7.900 16.868 C 7.584 16.721,7.275 16.413,7.134 16.104 C 7.038 15.895,7.022 15.809,7.022 15.500 C 7.021 15.190,7.037 15.107,7.133 14.900 C 7.324 14.489,7.727 14.148,8.150 14.041 C 8.407 13.976,8.852 14.022,9.110 14.139 " fill="#000640" stroke="none" fill-rule="evenodd"></path></svg>