<svg xmlns="http://www.w3.org/2000/svg" width="24" height="24" fill="currentColor" class="mmi mmi-hanginglamp" viewBox="0 0 24 24"><path d="M11.664 1.063 C 11.436 1.146,11.257 1.297,11.131 1.511 L 11.020 1.700 11.008 3.370 C 11.002 4.289,10.984 5.040,10.968 5.040 C 10.952 5.040,10.706 5.067,10.420 5.101 C 6.332 5.579,2.885 7.924,1.580 11.114 C 1.244 11.937,1.170 12.437,1.302 12.996 C 1.481 13.757,1.988 14.349,2.780 14.723 C 3.332 14.983,3.496 15.000,5.418 15.000 C 7.067 15.000,7.120 15.002,7.120 15.076 C 7.120 15.118,7.173 15.314,7.237 15.512 C 7.810 17.263,9.215 18.515,11.049 18.908 C 11.506 19.006,12.494 19.006,12.951 18.908 C 14.517 18.573,15.780 17.607,16.479 16.212 C 16.642 15.886,16.880 15.212,16.880 15.076 C 16.880 15.002,16.933 15.000,18.582 15.000 C 20.504 15.000,20.668 14.983,21.220 14.723 C 22.012 14.349,22.519 13.757,22.698 12.996 C 22.830 12.437,22.756 11.937,22.420 11.114 C 21.115 7.924,17.668 5.579,13.580 5.101 C 13.294 5.067,13.047 5.040,13.030 5.040 C 13.014 5.040,13.000 4.323,13.000 3.447 C 13.000 1.635,12.994 1.592,12.701 1.299 C 12.429 1.027,12.018 0.933,11.664 1.063 M13.620 7.121 C 15.797 7.428,17.708 8.335,19.082 9.716 C 19.592 10.227,19.912 10.636,20.209 11.152 C 20.466 11.598,20.727 12.213,20.751 12.430 C 20.769 12.589,20.759 12.613,20.613 12.753 C 20.526 12.835,20.382 12.925,20.293 12.951 C 20.066 13.019,3.943 13.022,3.717 12.954 C 3.497 12.889,3.288 12.702,3.259 12.547 C 3.228 12.381,3.345 12.030,3.609 11.501 C 4.463 9.789,6.083 8.441,8.260 7.632 C 8.983 7.363,10.146 7.119,11.080 7.038 C 11.694 6.986,12.947 7.026,13.620 7.121 M14.752 15.190 C 14.188 16.477,12.775 17.219,11.419 16.938 C 10.448 16.738,9.683 16.121,9.249 15.190 L 9.161 15.000 11.998 15.000 L 14.836 15.000 14.752 15.190 M5.640 18.070 C 5.507 18.117,5.340 18.251,4.996 18.587 C 4.438 19.134,4.310 19.340,4.310 19.695 C 4.310 20.276,4.721 20.690,5.298 20.690 C 5.661 20.690,5.863 20.566,6.412 20.004 C 6.891 19.514,7.000 19.328,7.000 19.000 C 7.000 18.314,6.302 17.836,5.640 18.070 M17.643 18.069 C 17.291 18.193,17.000 18.614,17.000 19.000 C 17.000 19.328,17.109 19.514,17.588 20.004 C 18.137 20.566,18.339 20.690,18.702 20.690 C 19.279 20.690,19.690 20.276,19.690 19.695 C 19.690 19.340,19.562 19.134,19.004 18.588 C 18.636 18.227,18.499 18.120,18.343 18.067 C 18.103 17.985,17.878 17.986,17.643 18.069 M11.643 20.069 C 11.407 20.152,11.149 20.416,11.066 20.660 C 11.015 20.809,11.000 21.004,11.000 21.500 C 11.000 22.266,11.045 22.447,11.299 22.701 C 11.690 23.092,12.310 23.092,12.701 22.701 C 12.955 22.447,13.000 22.266,13.000 21.500 C 13.000 20.734,12.955 20.553,12.701 20.299 C 12.424 20.021,12.024 19.934,11.643 20.069 " fill="#000640" stroke="none" fill-rule="evenodd"></path></svg>