<svg xmlns="http://www.w3.org/2000/svg" width="24" height="24" fill="currentColor" class="mmi mmi-happy" viewBox="0 0 24 24"><path d="M11.200 0.025 C 7.091 0.332,3.508 2.609,1.507 6.186 C 0.775 7.494,0.317 8.899,0.094 10.520 C -0.002 11.214,-0.002 12.786,0.094 13.480 C 0.317 15.101,0.775 16.506,1.507 17.814 C 4.173 22.579,9.604 24.939,14.910 23.637 C 19.156 22.595,22.595 19.156,23.637 14.910 C 24.599 10.992,23.592 6.970,20.896 3.958 C 19.003 1.843,16.397 0.483,13.500 0.099 C 13.032 0.037,11.640 -0.007,11.200 0.025 M12.920 2.043 C 14.827 2.219,16.631 2.940,18.200 4.155 C 18.637 4.493,19.507 5.363,19.845 5.800 C 21.878 8.427,22.517 11.768,21.578 14.865 C 21.082 16.499,20.272 17.850,19.061 19.061 C 18.287 19.836,17.547 20.383,16.623 20.863 C 13.714 22.376,10.286 22.376,7.377 20.863 C 6.454 20.383,5.715 19.837,4.938 19.061 C 3.951 18.075,3.213 16.964,2.722 15.728 C 1.390 12.368,1.921 8.686,4.153 5.800 C 4.491 5.363,5.363 4.491,5.800 4.153 C 7.114 3.137,8.541 2.486,10.125 2.181 C 11.037 2.006,12.003 1.958,12.920 2.043 M7.150 8.041 C 6.727 8.148,6.324 8.489,6.133 8.900 C 6.037 9.107,6.021 9.190,6.022 9.500 C 6.022 9.809,6.038 9.895,6.134 10.104 C 6.275 10.413,6.584 10.721,6.900 10.867 C 7.107 10.963,7.190 10.979,7.500 10.978 C 7.809 10.978,7.895 10.962,8.104 10.866 C 8.413 10.725,8.721 10.416,8.867 10.100 C 8.963 9.893,8.979 9.810,8.978 9.500 C 8.978 9.191,8.962 9.105,8.866 8.896 C 8.725 8.589,8.415 8.278,8.110 8.139 C 7.852 8.022,7.407 7.976,7.150 8.041 M16.150 8.041 C 15.727 8.148,15.324 8.489,15.133 8.900 C 15.037 9.107,15.021 9.190,15.022 9.500 C 15.022 9.809,15.038 9.895,15.134 10.104 C 15.275 10.413,15.584 10.721,15.900 10.867 C 16.107 10.963,16.190 10.979,16.500 10.978 C 16.809 10.978,16.895 10.962,17.104 10.866 C 17.413 10.725,17.721 10.416,17.867 10.100 C 17.963 9.893,17.979 9.810,17.978 9.500 C 17.978 9.191,17.962 9.105,17.866 8.896 C 17.725 8.589,17.415 8.278,17.110 8.139 C 16.852 8.022,16.407 7.976,16.150 8.041 M6.667 14.065 C 6.296 14.179,6.000 14.599,6.000 15.010 C 6.000 15.362,6.492 16.490,6.938 17.160 C 7.749 18.379,8.925 19.292,10.225 19.714 C 10.832 19.911,11.267 19.975,12.000 19.975 C 12.473 19.975,12.768 19.955,13.040 19.902 C 14.990 19.528,16.632 18.211,17.554 16.280 C 17.824 15.714,17.956 15.349,17.988 15.077 C 18.039 14.647,17.734 14.187,17.316 14.063 C 17.130 14.007,16.521 14.000,11.983 14.003 C 7.573 14.005,6.833 14.014,6.667 14.065 M15.312 16.188 C 15.113 16.472,14.617 16.981,14.322 17.204 C 13.985 17.459,13.437 17.730,12.980 17.866 C 12.657 17.963,12.557 17.974,12.000 17.974 C 11.443 17.974,11.343 17.963,11.020 17.866 C 10.563 17.730,10.015 17.459,9.678 17.204 C 9.383 16.981,8.887 16.472,8.688 16.188 L 8.555 16.000 12.000 16.000 L 15.445 16.000 15.312 16.188 " stroke="none" fill-rule="evenodd"></path></svg>