<svg xmlns="http://www.w3.org/2000/svg" width="24" height="24" fill="currentColor" class="mmi mmi-hdmiport" viewBox="0 0 24 24"><path d="M3.503 6.042 C 2.554 6.203,1.717 6.847,1.298 7.740 C 1.011 8.351,1.020 8.240,1.020 11.200 C 1.020 14.155,1.013 14.063,1.295 14.662 C 1.438 14.965,2.547 16.653,2.813 16.974 C 3.141 17.368,3.754 17.748,4.320 17.907 C 4.567 17.976,4.942 17.980,12.000 17.980 C 19.058 17.980,19.433 17.976,19.680 17.907 C 20.244 17.749,20.883 17.350,21.205 16.954 C 21.469 16.631,22.570 14.946,22.704 14.662 C 22.984 14.068,22.975 14.172,22.990 11.347 C 23.006 8.425,23.001 8.367,22.704 7.740 C 22.398 7.094,21.924 6.614,21.296 6.312 C 20.634 5.993,21.532 6.022,12.120 6.015 C 7.489 6.012,3.611 6.024,3.503 6.042 M20.340 8.066 C 20.593 8.153,20.847 8.407,20.934 8.660 C 20.992 8.832,21.000 9.122,21.000 11.202 C 21.000 13.127,20.990 13.579,20.943 13.711 C 20.883 13.882,19.822 15.502,19.645 15.694 C 19.587 15.756,19.468 15.846,19.380 15.894 L 19.220 15.980 12.000 15.980 L 4.780 15.980 4.620 15.894 C 4.532 15.846,4.413 15.756,4.355 15.694 C 4.171 15.494,3.113 13.875,3.054 13.701 C 3.007 13.563,3.000 13.121,3.009 11.117 L 3.020 8.700 3.131 8.511 C 3.256 8.298,3.449 8.136,3.670 8.057 C 3.793 8.013,5.268 8.003,11.983 8.002 C 19.479 8.000,20.162 8.005,20.340 8.066 M5.664 10.063 C 5.436 10.146,5.257 10.297,5.131 10.511 C 5.036 10.672,5.020 10.744,5.020 11.000 C 5.020 11.256,5.036 11.328,5.131 11.489 C 5.192 11.592,5.301 11.723,5.374 11.778 C 5.682 12.013,5.296 12.000,11.998 12.000 C 18.903 12.000,18.379 12.023,18.701 11.701 C 19.092 11.310,19.092 10.690,18.701 10.299 C 18.379 9.976,18.906 10.000,11.983 10.003 C 6.739 10.005,5.797 10.014,5.664 10.063 " fill="#000640" stroke="none" fill-rule="evenodd"></path></svg>