<svg xmlns="http://www.w3.org/2000/svg" width="24" height="24" fill="currentColor" class="mmi mmi-headphone-filled" viewBox="0 0 24 24"><path d="M11.200 2.044 C 8.467 2.307,6.006 4.031,4.800 6.529 C 4.374 7.410,4.121 8.331,4.030 9.326 C 3.989 9.788,3.994 9.973,4.082 11.062 L 4.181 12.281 3.721 12.423 C 2.300 12.862,2.135 12.921,1.887 13.084 C 1.489 13.345,1.187 13.777,1.060 14.268 C 0.970 14.611,0.972 18.514,1.061 18.858 C 1.151 19.205,1.350 19.549,1.609 19.809 C 1.823 20.023,1.972 20.105,3.771 21.004 C 5.338 21.788,5.741 21.974,5.907 21.990 C 6.366 22.034,6.805 21.744,6.944 21.305 L 7.015 21.080 6.626 16.930 C 5.953 9.733,5.954 9.745,6.101 8.899 C 6.328 7.600,7.051 6.317,8.045 5.454 C 8.878 4.731,9.874 4.255,10.980 4.050 C 11.464 3.960,12.527 3.961,13.020 4.051 C 14.659 4.350,16.072 5.268,16.975 6.620 C 17.550 7.480,17.865 8.373,17.962 9.414 C 18.016 9.994,17.980 10.453,17.373 16.928 L 16.984 21.076 17.055 21.302 C 17.195 21.744,17.633 22.034,18.093 21.990 C 18.259 21.974,18.662 21.788,20.229 21.004 C 22.028 20.105,22.177 20.023,22.391 19.809 C 22.650 19.549,22.849 19.205,22.939 18.858 C 23.028 18.514,23.030 14.611,22.940 14.268 C 22.813 13.777,22.511 13.345,22.113 13.084 C 21.865 12.921,21.700 12.862,20.279 12.423 L 19.819 12.281 19.918 11.063 C 20.007 9.958,20.012 9.794,19.967 9.312 C 19.703 6.450,17.999 4.005,15.412 2.773 C 14.124 2.159,12.651 1.904,11.200 2.044 " fill="#000640" stroke="none" fill-rule="evenodd"></path></svg>