<svg xmlns="http://www.w3.org/2000/svg" width="24" height="24" fill="currentColor" class="mmi mmi-hearth-filled" viewBox="0 0 24 24"><path d="M5.980 2.042 C 3.895 2.325,2.224 3.657,1.455 5.647 C 1.172 6.381,1.000 7.336,1.000 8.180 C 1.000 10.909,2.660 13.943,5.958 17.242 C 7.486 18.770,9.193 20.220,10.923 21.461 C 11.918 22.174,12.075 22.177,13.016 21.505 C 15.863 19.471,18.609 16.901,20.331 14.660 C 22.383 11.989,23.240 9.554,22.938 7.252 C 22.750 5.816,22.209 4.627,21.329 3.713 C 20.861 3.227,20.399 2.886,19.820 2.601 C 19.282 2.335,19.002 2.237,18.420 2.111 C 17.842 1.986,16.759 1.988,16.160 2.116 C 15.564 2.242,15.101 2.406,14.564 2.680 C 13.756 3.092,12.971 3.705,12.440 4.340 C 12.297 4.511,12.139 4.698,12.090 4.755 L 12.000 4.860 11.910 4.755 C 11.861 4.698,11.703 4.511,11.560 4.340 C 11.029 3.705,10.244 3.092,9.436 2.680 C 8.574 2.240,7.801 2.043,6.840 2.019 C 6.521 2.011,6.134 2.022,5.980 2.042 " fill="#000640" stroke="none" fill-rule="evenodd"></path></svg>