<svg xmlns="http://www.w3.org/2000/svg" width="24" height="24" fill="currentColor" class="mmi mmi-hearth" viewBox="0 0 24 24"><path d="M6.024 2.042 C 3.955 2.283,2.230 3.642,1.458 5.639 C 1.174 6.374,1.000 7.341,1.000 8.180 C 1.000 10.916,2.659 13.942,5.979 17.261 C 7.524 18.806,9.222 20.246,10.984 21.505 C 11.925 22.177,12.082 22.174,13.077 21.461 C 15.893 19.442,18.625 16.881,20.331 14.660 C 22.383 11.989,23.240 9.554,22.938 7.252 C 22.750 5.816,22.209 4.627,21.329 3.713 C 20.861 3.227,20.399 2.886,19.820 2.601 C 19.282 2.335,19.002 2.237,18.420 2.111 C 17.842 1.986,16.759 1.988,16.160 2.116 C 14.599 2.447,13.190 3.348,12.165 4.670 C 12.093 4.763,12.019 4.840,12.002 4.840 C 11.985 4.840,11.830 4.667,11.656 4.455 C 10.244 2.734,8.075 1.805,6.024 2.042 M7.300 4.059 C 8.822 4.307,10.059 5.307,10.961 7.020 C 11.077 7.240,11.228 7.481,11.296 7.555 C 11.656 7.947,12.344 7.947,12.704 7.555 C 12.772 7.481,12.923 7.240,13.039 7.020 C 13.706 5.752,14.465 4.960,15.505 4.444 C 17.752 3.328,20.215 4.430,20.822 6.823 C 21.272 8.599,20.829 10.376,19.403 12.508 C 18.337 14.102,16.803 15.788,14.917 17.440 C 13.707 18.501,12.070 19.780,11.973 19.743 C 11.790 19.673,10.065 18.300,9.087 17.447 C 8.314 16.772,6.659 15.131,6.134 14.520 C 4.458 12.568,3.423 10.767,3.120 9.279 C 2.956 8.476,2.977 7.618,3.178 6.823 C 3.667 4.895,5.380 3.746,7.300 4.059 " fill="#000640" stroke="none" fill-rule="evenodd"></path></svg>