<svg xmlns="http://www.w3.org/2000/svg" width="24" height="24" fill="currentColor" class="mmi mmi-hearth-broken" viewBox="0 0 24 24"><path d="M6.024 2.042 C 3.955 2.283,2.230 3.642,1.458 5.639 C 1.174 6.374,1.000 7.341,1.000 8.180 C 1.000 10.916,2.659 13.942,5.979 17.261 C 7.524 18.806,9.222 20.246,10.984 21.505 C 11.925 22.177,12.082 22.174,13.077 21.461 C 15.893 19.442,18.625 16.881,20.331 14.660 C 22.383 11.989,23.240 9.554,22.938 7.252 C 22.750 5.816,22.209 4.627,21.329 3.713 C 20.861 3.227,20.399 2.886,19.820 2.601 C 19.282 2.335,19.002 2.237,18.420 2.111 C 17.842 1.986,16.759 1.988,16.160 2.116 C 14.599 2.447,13.190 3.348,12.165 4.670 C 12.093 4.763,12.019 4.840,12.002 4.840 C 11.985 4.840,11.830 4.667,11.656 4.455 C 10.244 2.734,8.075 1.805,6.024 2.042 M7.280 4.058 C 8.617 4.262,9.852 5.148,10.656 6.478 L 10.850 6.798 9.982 8.162 C 9.505 8.913,9.088 9.599,9.057 9.688 C 8.982 9.900,8.985 10.100,9.065 10.343 C 9.124 10.520,9.320 10.730,11.003 12.420 L 12.876 14.300 12.153 16.828 L 11.429 19.357 11.185 19.170 C 10.649 18.762,9.720 17.999,9.087 17.447 C 8.314 16.772,6.659 15.131,6.134 14.520 C 4.458 12.568,3.423 10.767,3.120 9.279 C 2.904 8.220,3.019 7.000,3.415 6.143 C 4.129 4.597,5.602 3.802,7.280 4.058 M18.220 4.119 C 19.501 4.449,20.477 5.462,20.822 6.823 C 21.023 7.618,21.044 8.476,20.880 9.279 C 20.488 11.206,18.898 13.606,16.375 16.081 C 15.443 16.996,13.863 18.396,13.816 18.350 C 13.808 18.342,14.071 17.391,14.401 16.237 C 14.730 15.084,15.000 14.076,15.000 13.997 C 15.000 13.919,14.971 13.766,14.935 13.657 C 14.876 13.480,14.686 13.276,13.074 11.658 L 11.278 9.856 12.005 8.718 C 12.404 8.092,12.848 7.364,12.991 7.100 C 13.318 6.494,13.549 6.136,13.845 5.774 C 14.587 4.866,15.607 4.246,16.673 4.057 C 17.087 3.984,17.806 4.012,18.220 4.119 " fill="#000640" stroke="none" fill-rule="evenodd"></path></svg>