<svg xmlns="http://www.w3.org/2000/svg" width="24" height="24" fill="currentColor" class="mmi mmi-heels" viewBox="0 0 24 24"><path d="M2.694 2.057 C 2.439 2.137,2.287 2.266,2.091 2.569 C 1.695 3.182,1.358 4.030,1.205 4.800 C 1.066 5.500,1.039 5.814,1.015 6.960 L 0.993 8.060 1.498 14.600 C 1.776 18.197,2.021 21.207,2.043 21.288 C 2.102 21.509,2.315 21.762,2.539 21.878 L 2.738 21.980 4.199 21.992 C 5.836 22.004,5.866 22.000,6.173 21.724 C 6.474 21.453,6.452 21.590,6.822 17.648 C 7.008 15.675,7.170 13.982,7.183 13.886 L 7.206 13.711 7.586 14.423 C 8.856 16.806,9.938 18.399,11.097 19.591 C 12.121 20.643,13.050 21.287,14.080 21.659 C 15.712 22.248,17.841 22.052,19.713 21.140 C 20.602 20.708,21.321 20.191,22.047 19.464 C 22.733 18.777,23.000 18.364,23.000 17.988 C 23.000 17.810,22.010 14.770,21.865 14.503 C 21.800 14.383,21.164 13.853,19.180 12.264 C 17.750 11.119,16.512 10.147,16.428 10.106 C 16.210 9.997,15.968 9.980,15.707 10.056 C 15.309 10.172,15.253 10.252,14.423 11.913 L 13.677 13.405 13.516 13.213 C 12.897 12.473,12.388 11.491,11.523 9.368 C 10.715 7.385,10.336 6.576,9.832 5.754 C 8.697 3.905,7.237 2.777,5.342 2.283 C 4.447 2.049,3.089 1.934,2.694 2.057 M4.366 4.118 C 5.974 4.394,7.149 5.226,8.098 6.760 C 8.547 7.486,8.950 8.354,9.741 10.300 C 10.592 12.390,11.108 13.376,11.861 14.342 C 12.198 14.775,12.736 15.307,13.154 15.621 C 13.653 15.995,13.937 16.071,14.329 15.938 C 14.700 15.811,14.746 15.743,15.576 14.087 L 16.344 12.555 18.242 14.074 L 20.140 15.593 20.509 16.705 L 20.879 17.817 20.769 17.934 C 20.520 18.199,19.955 18.666,19.569 18.924 C 18.587 19.580,17.502 19.933,16.300 19.985 C 15.860 20.005,15.663 19.995,15.381 19.942 C 13.438 19.574,11.678 17.743,9.592 13.920 C 9.382 13.535,8.957 12.730,8.647 12.132 C 7.878 10.648,7.591 10.180,6.996 9.439 C 6.025 8.233,4.709 7.403,3.338 7.134 C 2.945 7.057,2.981 7.164,3.041 6.260 C 3.100 5.366,3.218 4.789,3.442 4.290 L 3.555 4.040 3.734 4.040 C 3.832 4.040,4.116 4.075,4.366 4.118 M3.363 9.204 C 3.717 9.319,4.266 9.608,4.568 9.837 C 4.707 9.943,4.965 10.181,5.143 10.366 C 5.437 10.674,5.465 10.716,5.451 10.842 C 5.399 11.342,4.600 19.867,4.600 19.926 C 4.600 19.992,4.564 20.000,4.260 20.000 C 3.957 20.000,3.920 19.992,3.920 19.927 C 3.920 19.845,3.133 9.556,3.107 9.290 C 3.097 9.197,3.094 9.120,3.098 9.120 C 3.103 9.120,3.222 9.158,3.363 9.204 " fill="#000640" stroke="none" fill-rule="evenodd"></path></svg>