<svg xmlns="http://www.w3.org/2000/svg" width="24" height="24" fill="currentColor" class="mmi mmi-heelsboot" viewBox="0 0 24 24"><path d="M3.664 1.063 C 3.436 1.146,3.257 1.297,3.131 1.511 L 3.020 1.700 3.000 6.040 L 2.980 10.380 2.809 10.916 C 2.352 12.350,2.065 13.971,2.015 15.400 L 1.992 16.060 2.495 19.080 C 2.772 20.741,3.027 22.197,3.062 22.315 C 3.145 22.588,3.389 22.842,3.660 22.934 C 3.828 22.991,4.073 23.000,5.500 23.000 C 7.371 23.000,7.407 22.995,7.701 22.701 C 8.006 22.396,8.000 22.459,8.000 19.731 L 8.000 17.317 8.090 17.364 C 8.266 17.456,8.798 18.044,9.054 18.429 C 9.314 18.822,9.623 19.368,10.237 20.520 C 10.704 21.396,11.035 21.883,11.437 22.281 C 11.810 22.652,12.189 22.873,12.592 22.956 C 12.737 22.986,14.119 23.000,16.975 23.000 C 21.668 23.000,21.384 23.018,21.702 22.700 C 21.989 22.413,22.012 22.285,21.989 21.067 C 21.972 20.090,21.963 19.995,21.865 19.648 C 21.660 18.919,21.289 18.282,20.775 17.774 C 20.615 17.616,20.218 17.302,19.892 17.077 C 17.080 15.128,14.991 13.273,14.153 11.984 L 14.000 11.748 14.000 6.801 C 14.000 1.241,14.020 1.618,13.701 1.299 C 13.382 0.980,13.726 1.000,8.483 1.003 C 4.541 1.005,3.796 1.014,3.664 1.063 M7.000 5.070 C 7.000 6.373,7.016 7.195,7.042 7.289 C 7.103 7.509,7.315 7.762,7.531 7.874 C 7.932 8.080,8.390 8.012,8.700 7.702 C 9.002 7.400,9.000 7.420,9.000 5.073 L 9.000 3.000 10.499 3.000 L 11.999 3.000 12.009 7.650 L 12.020 12.300 12.174 12.580 C 13.088 14.242,15.196 16.228,18.520 18.557 C 19.311 19.111,19.426 19.211,19.631 19.519 C 19.850 19.849,19.963 20.200,19.989 20.630 L 20.012 21.000 16.490 21.000 L 12.968 21.000 12.770 20.783 C 12.536 20.528,12.274 20.095,11.738 19.080 C 10.537 16.807,9.801 15.937,8.586 15.357 C 7.913 15.035,7.848 15.027,5.827 15.010 L 4.035 14.994 4.060 14.767 C 4.216 13.354,4.530 11.922,4.898 10.949 L 5.000 10.678 5.000 6.839 L 5.000 3.000 6.000 3.000 L 7.000 3.000 7.000 5.070 M6.000 19.000 L 6.000 21.000 5.420 21.000 C 5.101 21.000,4.840 20.990,4.840 20.978 C 4.840 20.967,4.696 20.094,4.520 19.040 C 4.344 17.986,4.200 17.095,4.200 17.062 C 4.200 17.008,4.317 17.000,5.100 17.000 L 6.000 17.000 6.000 19.000 " fill="#000640" stroke="none" fill-rule="evenodd"></path></svg>