<svg xmlns="http://www.w3.org/2000/svg" width="24" height="24" fill="currentColor" class="mmi mmi-helmet" viewBox="0 0 24 24"><path d="M7.680 1.045 C 4.849 1.231,2.987 2.164,1.948 3.915 C 1.230 5.123,0.910 6.819,1.032 8.770 C 1.150 10.668,1.567 12.389,2.362 14.262 C 2.980 15.717,4.030 17.523,4.420 17.803 C 4.667 17.980,18.669 22.348,19.143 22.396 C 20.253 22.508,21.296 22.041,21.920 21.152 C 22.259 20.670,22.332 20.432,22.685 18.669 L 23.008 17.060 22.962 16.360 C 22.720 12.726,22.013 9.440,21.020 7.334 C 20.594 6.431,20.154 5.774,19.536 5.118 C 17.606 3.068,15.508 1.890,12.820 1.344 C 11.407 1.057,9.326 0.936,7.680 1.045 M11.120 3.097 C 13.516 3.377,15.235 4.053,16.880 5.360 C 17.628 5.955,18.582 6.980,18.825 7.450 L 18.885 7.566 18.673 7.543 C 18.556 7.530,17.533 7.455,16.400 7.376 C 14.040 7.212,13.597 7.211,13.109 7.371 C 12.283 7.640,11.585 8.299,11.253 9.122 C 11.040 9.649,10.989 10.352,11.123 10.900 C 11.179 11.131,11.753 12.591,11.907 12.893 C 12.124 13.322,12.493 13.729,12.923 14.013 C 13.042 14.092,14.868 14.924,16.980 15.862 C 19.092 16.800,20.828 17.576,20.839 17.586 C 20.875 17.621,20.433 19.737,20.360 19.881 C 20.207 20.181,19.786 20.440,19.453 20.440 C 19.402 20.440,16.278 19.477,12.510 18.300 C 6.419 16.398,5.650 16.149,5.572 16.053 C 5.436 15.884,5.029 15.187,4.724 14.597 C 3.930 13.063,3.369 11.349,3.115 9.680 C 2.998 8.914,2.984 7.241,3.090 6.640 C 3.505 4.286,4.757 3.296,7.640 3.043 C 8.267 2.988,10.477 3.022,11.120 3.097 M8.150 9.041 C 7.722 9.149,7.343 9.465,7.144 9.880 C 7.034 10.111,7.020 10.180,7.020 10.500 C 7.020 10.811,7.035 10.894,7.133 11.104 C 7.276 11.413,7.585 11.721,7.900 11.868 C 8.107 11.965,8.190 11.980,8.500 11.980 C 8.811 11.980,8.894 11.965,9.104 11.867 C 9.413 11.724,9.721 11.415,9.868 11.100 C 9.965 10.893,9.980 10.810,9.980 10.500 C 9.980 10.189,9.965 10.106,9.867 9.896 C 9.725 9.589,9.414 9.278,9.110 9.139 C 8.852 9.022,8.407 8.976,8.150 9.041 M17.040 9.422 C 18.503 9.522,19.719 9.610,19.742 9.617 C 19.826 9.646,20.190 11.018,20.420 12.177 C 20.612 13.142,20.921 15.333,20.872 15.381 C 20.863 15.391,19.318 14.715,17.440 13.880 C 14.465 12.557,14.003 12.340,13.859 12.199 C 13.718 12.061,13.646 11.918,13.377 11.248 C 13.092 10.539,13.060 10.434,13.062 10.200 C 13.066 9.610,13.565 9.165,14.160 9.220 C 14.281 9.231,15.577 9.322,17.040 9.422 " fill="#000640" stroke="none" fill-rule="evenodd"></path></svg>