<svg xmlns="http://www.w3.org/2000/svg" width="24" height="24" fill="currentColor" class="mmi mmi-highboot" viewBox="0 0 24 24"><path d="M10.664 1.063 C 10.436 1.146,10.257 1.297,10.131 1.511 C 10.024 1.693,10.020 1.723,10.007 2.350 L 9.993 3.000 6.444 3.000 C 2.430 3.000,2.611 2.987,2.300 3.298 C 2.181 3.417,2.105 3.541,2.057 3.692 C 1.991 3.902,1.991 3.954,2.054 4.667 C 2.169 5.966,2.199 6.587,2.199 7.680 C 2.200 9.014,2.167 9.284,1.894 10.160 C 1.157 12.524,1.001 13.910,1.000 18.072 C 1.000 20.484,1.009 20.598,1.234 21.151 C 1.521 21.857,2.143 22.479,2.849 22.766 C 3.414 22.996,3.470 23.000,6.431 23.000 C 9.514 23.000,9.403 23.011,9.697 22.691 C 10.263 22.077,10.370 22.022,11.000 22.022 C 11.630 22.022,11.737 22.077,12.303 22.691 C 12.604 23.017,12.366 23.000,16.569 23.000 C 20.625 23.000,20.570 23.003,21.150 22.767 C 21.851 22.481,22.482 21.850,22.768 21.148 C 22.993 20.594,23.007 20.428,22.990 18.435 L 22.975 16.620 22.868 16.300 C 22.509 15.230,21.604 14.389,20.501 14.102 C 20.373 14.069,19.988 14.014,19.644 13.980 C 17.971 13.815,16.776 13.509,15.660 12.963 C 14.982 12.631,14.515 12.305,14.049 11.838 C 13.041 10.830,12.462 9.525,12.203 7.680 C 12.063 6.686,12.035 6.125,12.014 3.960 C 11.992 1.586,11.992 1.590,11.702 1.300 C 11.429 1.027,11.018 0.933,10.664 1.063 M10.018 5.650 C 10.043 6.251,10.125 7.297,10.185 7.786 L 10.210 7.991 9.715 8.007 C 9.150 8.025,8.998 8.080,8.752 8.352 C 8.307 8.845,8.480 9.616,9.100 9.906 C 9.285 9.992,9.352 9.999,9.985 10.000 L 10.670 10.000 10.778 10.310 C 10.837 10.480,11.011 10.877,11.163 11.190 C 11.315 11.504,11.440 11.769,11.440 11.779 C 11.440 11.788,11.300 11.903,11.130 12.033 C 10.750 12.324,10.663 12.417,10.576 12.621 C 10.371 13.104,10.602 13.668,11.100 13.905 C 11.529 14.108,11.813 14.023,12.547 13.474 L 12.715 13.349 12.987 13.589 C 13.137 13.721,13.370 13.909,13.504 14.007 L 13.749 14.185 13.637 14.463 C 13.479 14.855,13.459 15.027,13.540 15.306 C 13.634 15.629,13.891 15.886,14.214 15.980 C 14.505 16.065,14.710 16.038,14.987 15.880 C 15.214 15.751,15.317 15.627,15.442 15.335 C 15.488 15.229,15.530 15.137,15.536 15.131 C 15.542 15.125,15.788 15.199,16.083 15.296 C 17.108 15.633,18.043 15.824,19.323 15.958 C 20.135 16.043,20.357 16.117,20.634 16.394 C 20.930 16.690,20.976 16.825,20.993 17.453 L 21.008 18.006 18.314 17.989 C 15.428 17.971,15.276 17.962,13.920 17.737 C 13.196 17.616,12.804 17.534,11.180 17.160 C 7.801 16.382,5.936 16.112,3.373 16.030 C 3.193 16.024,3.039 16.011,3.030 16.000 C 3.001 15.965,3.076 14.565,3.140 13.940 C 3.263 12.740,3.438 11.906,3.816 10.729 C 3.938 10.349,4.065 9.881,4.099 9.689 C 4.245 8.858,4.258 7.288,4.134 5.390 L 4.108 5.000 7.049 5.000 L 9.991 5.000 10.018 5.650 M3.920 18.059 C 5.615 18.120,7.625 18.405,9.720 18.881 C 12.278 19.462,12.804 19.575,13.540 19.699 C 15.069 19.958,15.268 19.970,18.270 19.989 C 20.830 20.006,21.000 20.011,21.000 20.076 C 21.000 20.246,20.857 20.545,20.701 20.701 C 20.389 21.014,20.564 21.000,16.832 21.000 L 13.518 21.000 13.249 20.777 C 12.924 20.509,12.375 20.230,11.940 20.114 C 11.480 19.990,10.520 19.990,10.060 20.114 C 9.625 20.230,9.076 20.509,8.751 20.777 L 8.482 21.000 6.168 21.000 C 3.553 21.000,3.603 21.005,3.299 20.701 C 3.021 20.423,3.000 20.308,3.000 19.072 L 3.000 17.999 3.150 18.018 C 3.232 18.028,3.579 18.047,3.920 18.059 " fill="#000640" stroke="none" fill-rule="evenodd"></path></svg>