<svg xmlns="http://www.w3.org/2000/svg" width="24" height="24" fill="currentColor" class="mmi mmi-history" viewBox="0 0 24 24"><path d="M11.060 3.167 C 10.104 3.263,8.978 3.586,8.092 4.017 C 6.252 4.913,4.845 6.305,3.943 8.123 C 3.378 9.261,3.000 10.754,3.000 11.845 L 3.000 12.093 2.730 11.832 C 2.370 11.485,2.173 11.386,1.840 11.385 C 1.627 11.384,1.541 11.405,1.366 11.500 C 0.880 11.765,0.700 12.387,0.974 12.852 C 1.029 12.944,1.565 13.507,2.167 14.103 C 3.429 15.353,3.464 15.377,4.000 15.379 C 4.541 15.381,4.567 15.363,5.849 14.063 C 6.555 13.349,6.989 12.877,7.044 12.767 C 7.174 12.505,7.163 12.150,7.016 11.880 C 6.828 11.535,6.529 11.359,6.131 11.361 C 5.809 11.362,5.621 11.460,5.282 11.805 L 4.992 12.100 5.020 11.680 C 5.083 10.707,5.338 9.783,5.780 8.928 C 7.748 5.117,12.569 3.948,16.080 6.431 C 16.567 6.776,17.344 7.553,17.689 8.040 C 18.215 8.784,18.624 9.701,18.817 10.570 C 19.238 12.454,18.882 14.389,17.823 15.979 C 16.921 17.333,15.671 18.281,14.140 18.771 C 12.699 19.233,11.303 19.233,9.860 18.772 C 8.845 18.447,7.999 17.945,7.155 17.168 C 6.741 16.787,6.549 16.699,6.200 16.731 C 5.498 16.794,5.087 17.510,5.386 18.150 C 5.513 18.420,6.334 19.153,7.025 19.611 C 8.719 20.735,10.837 21.273,12.806 21.079 C 14.612 20.902,16.262 20.231,17.660 19.106 C 18.116 18.739,18.854 17.969,19.214 17.486 C 20.312 16.010,20.919 14.274,20.988 12.420 C 21.079 9.952,20.118 7.515,18.362 5.758 C 16.670 4.066,14.325 3.102,11.960 3.125 C 11.663 3.128,11.258 3.147,11.060 3.167 M11.580 6.715 C 11.364 6.814,11.207 6.979,11.093 7.226 L 10.998 7.432 11.009 10.126 L 11.020 12.820 11.112 13.020 C 11.184 13.177,11.495 13.512,12.552 14.573 C 13.293 15.317,13.963 15.959,14.041 15.999 C 14.523 16.250,15.164 16.033,15.395 15.542 C 15.498 15.323,15.509 14.947,15.419 14.729 C 15.378 14.630,14.964 14.186,14.179 13.400 L 13.002 12.220 12.991 9.780 C 12.980 7.365,12.979 7.338,12.894 7.180 C 12.782 6.973,12.579 6.780,12.391 6.702 C 12.187 6.617,11.780 6.623,11.580 6.715 " fill="#000640" stroke="none" fill-rule="evenodd"></path></svg>