<svg xmlns="http://www.w3.org/2000/svg" width="24" height="24" fill="currentColor" class="mmi mmi-home-filled" viewBox="0 0 24 24"><path d="M11.579 0.917 C 11.242 0.971,10.914 1.080,10.620 1.235 C 10.466 1.316,8.513 2.570,6.281 4.021 C 1.954 6.835,1.815 6.934,1.483 7.460 C 1.280 7.782,1.137 8.135,1.060 8.504 C 0.968 8.949,0.970 20.136,1.062 20.581 C 1.310 21.785,2.215 22.690,3.419 22.938 C 3.681 22.993,4.700 23.000,12.000 23.000 C 19.300 23.000,20.319 22.993,20.581 22.938 C 21.780 22.691,22.691 21.780,22.938 20.581 C 23.030 20.136,23.032 8.949,22.940 8.504 C 22.863 8.135,22.720 7.782,22.517 7.460 C 22.185 6.933,22.051 6.838,17.638 3.974 C 15.362 2.497,13.407 1.242,13.294 1.185 C 12.839 0.958,12.072 0.838,11.579 0.917 M12.900 11.122 C 13.934 11.394,14.818 12.170,15.233 13.171 C 15.482 13.770,15.480 13.733,15.480 17.518 L 15.480 20.960 12.000 20.960 L 8.520 20.960 8.520 17.518 C 8.520 13.733,8.518 13.770,8.767 13.171 C 9.235 12.044,10.265 11.232,11.472 11.040 C 11.822 10.985,12.534 11.025,12.900 11.122 " fill="#000640" stroke="none" fill-rule="evenodd"></path></svg>