<svg xmlns="http://www.w3.org/2000/svg" width="24" height="24" fill="currentColor" class="mmi mmi-home" viewBox="0 0 24 24"><path d="M11.579 0.917 C 11.242 0.971,10.914 1.080,10.620 1.235 C 10.466 1.316,8.513 2.570,6.281 4.021 C 1.954 6.835,1.815 6.934,1.483 7.460 C 1.280 7.782,1.137 8.135,1.060 8.504 C 0.968 8.949,0.970 20.136,1.062 20.581 C 1.310 21.785,2.215 22.690,3.419 22.938 C 3.681 22.993,4.700 23.000,12.000 23.000 C 19.300 23.000,20.319 22.993,20.581 22.938 C 21.780 22.691,22.691 21.780,22.938 20.581 C 23.030 20.136,23.032 8.949,22.940 8.504 C 22.863 8.135,22.720 7.782,22.517 7.460 C 22.185 6.933,22.051 6.838,17.638 3.974 C 15.362 2.497,13.407 1.242,13.294 1.185 C 12.839 0.958,12.072 0.838,11.579 0.917 M12.427 2.994 C 12.712 3.139,20.537 8.236,20.681 8.370 C 20.759 8.443,20.858 8.573,20.901 8.661 C 20.978 8.817,20.980 8.937,20.991 14.478 C 21.002 20.841,21.024 20.378,20.702 20.700 C 20.400 21.002,20.420 21.000,18.073 21.000 L 16.000 21.000 16.000 17.078 C 16.000 12.766,16.005 12.856,15.754 12.253 C 15.607 11.898,15.387 11.577,15.066 11.247 C 13.516 9.651,10.700 9.591,9.069 11.119 C 8.517 11.636,8.201 12.179,8.063 12.848 C 8.008 13.117,8.000 13.656,8.000 17.078 L 8.000 21.000 5.927 21.000 C 3.580 21.000,3.600 21.002,3.298 20.700 C 2.976 20.378,2.998 20.841,3.009 14.478 C 3.020 8.937,3.022 8.817,3.099 8.661 C 3.142 8.573,3.241 8.443,3.319 8.370 C 3.450 8.248,11.265 3.152,11.536 3.012 C 11.831 2.859,12.151 2.853,12.427 2.994 M12.720 12.103 C 13.226 12.255,13.642 12.571,13.863 12.970 L 13.980 13.180 13.991 17.090 L 14.002 21.000 12.000 21.000 L 9.998 21.000 10.009 17.090 L 10.020 13.180 10.126 12.980 C 10.256 12.734,10.600 12.402,10.865 12.268 C 11.064 12.167,11.397 12.060,11.620 12.025 C 11.844 11.990,12.499 12.037,12.720 12.103 " fill="#000640" stroke="none" fill-rule="evenodd"></path></svg>