<svg xmlns="http://www.w3.org/2000/svg" width="24" height="24" fill="currentColor" class="mmi mmi-hotbowl-v2" viewBox="0 0 24 24"><path d="M7.643 1.069 C 7.398 1.155,7.147 1.418,7.060 1.679 C 6.972 1.946,6.997 2.206,7.145 2.560 C 7.228 2.758,7.259 2.906,7.272 3.180 C 7.291 3.588,7.238 3.918,6.998 4.894 C 6.770 5.819,6.705 6.317,6.734 6.920 C 6.759 7.449,6.816 7.725,6.992 8.180 C 7.124 8.521,7.424 8.849,7.664 8.916 C 8.164 9.055,8.620 8.873,8.855 8.442 C 9.012 8.153,9.010 7.891,8.846 7.415 C 8.643 6.829,8.668 6.464,9.002 5.106 C 9.230 4.180,9.295 3.682,9.266 3.080 C 9.240 2.536,9.184 2.270,8.990 1.781 C 8.734 1.135,8.222 0.864,7.643 1.069 M11.667 1.065 C 11.297 1.179,11.000 1.599,11.000 2.010 C 11.000 2.096,11.044 2.277,11.097 2.413 C 11.367 3.100,11.353 3.451,10.998 4.894 C 10.628 6.397,10.632 7.306,11.014 8.235 C 11.151 8.568,11.280 8.733,11.511 8.869 C 11.673 8.964,11.743 8.980,12.000 8.979 C 12.230 8.978,12.338 8.958,12.465 8.891 C 12.766 8.731,12.957 8.437,12.989 8.082 C 13.006 7.892,12.989 7.808,12.880 7.539 C 12.775 7.282,12.747 7.147,12.731 6.840 C 12.708 6.410,12.756 6.107,13.002 5.106 C 13.088 4.758,13.188 4.272,13.224 4.026 C 13.382 2.960,13.152 1.767,12.699 1.301 C 12.431 1.026,12.067 0.942,11.667 1.065 M15.664 1.061 C 15.434 1.148,15.256 1.298,15.131 1.511 C 14.972 1.781,14.974 2.150,15.137 2.540 C 15.221 2.744,15.258 2.907,15.271 3.141 C 15.294 3.546,15.245 3.857,15.000 4.880 C 14.754 5.906,14.704 6.283,14.731 6.919 C 14.760 7.601,14.949 8.262,15.215 8.611 C 15.687 9.229,16.660 9.078,16.941 8.344 C 17.032 8.105,17.002 7.790,16.855 7.440 C 16.724 7.127,16.688 6.685,16.757 6.239 C 16.783 6.075,16.892 5.571,17.000 5.120 C 17.246 4.086,17.296 3.713,17.269 3.081 C 17.240 2.399,17.051 1.738,16.785 1.389 C 16.542 1.071,16.031 0.921,15.664 1.061 M1.643 11.069 C 1.397 11.156,1.147 11.418,1.060 11.681 C 1.000 11.861,0.993 11.974,1.015 12.397 C 1.114 14.258,1.669 15.773,2.806 17.283 C 3.232 17.850,3.960 18.613,4.553 19.116 L 4.996 19.492 5.008 20.896 L 5.020 22.300 5.131 22.489 C 5.192 22.592,5.301 22.723,5.374 22.778 C 5.682 23.013,5.296 23.000,11.998 23.000 C 18.903 23.000,18.379 23.023,18.701 22.701 C 18.987 22.415,19.000 22.335,19.000 20.818 L 19.000 19.491 19.310 19.236 C 19.743 18.881,20.692 17.926,21.016 17.520 C 22.253 15.967,22.882 14.329,22.985 12.397 C 23.018 11.779,22.961 11.558,22.702 11.300 C 22.374 10.971,23.391 11.000,11.983 11.003 C 2.885 11.006,1.801 11.013,1.643 11.069 M20.920 13.076 C 20.920 13.240,20.680 14.090,20.519 14.493 C 20.328 14.973,19.977 15.584,19.620 16.060 C 19.310 16.473,18.524 17.283,18.043 17.685 L 17.667 18.000 12.000 18.000 L 6.333 18.000 5.957 17.685 C 5.476 17.283,4.690 16.473,4.380 16.060 C 4.023 15.584,3.672 14.973,3.481 14.493 C 3.320 14.090,3.080 13.240,3.080 13.076 C 3.080 13.002,3.274 13.000,12.000 13.000 C 20.726 13.000,20.920 13.002,20.920 13.076 M17.000 20.500 L 17.000 21.000 12.000 21.000 L 7.000 21.000 7.000 20.500 L 7.000 20.000 12.000 20.000 L 17.000 20.000 17.000 20.500 " fill="#000640" stroke="none" fill-rule="evenodd"></path></svg>