<svg xmlns="http://www.w3.org/2000/svg" width="24" height="24" fill="currentColor" class="mmi mmi-hotbowl" viewBox="0 0 24 24"><path d="M15.800 0.997 C 15.582 1.042,15.335 1.186,15.224 1.332 C 14.960 1.677,14.931 2.025,15.127 2.507 C 15.358 3.080,15.337 3.474,15.000 4.880 C 14.892 5.331,14.782 5.862,14.757 6.059 C 14.699 6.506,14.730 7.338,14.817 7.660 C 15.069 8.589,15.399 8.957,15.982 8.959 C 16.429 8.961,16.798 8.695,16.935 8.273 C 17.025 7.995,17.019 7.939,16.860 7.463 C 16.643 6.814,16.659 6.553,16.999 5.120 C 17.229 4.153,17.280 3.818,17.280 3.261 C 17.280 2.416,16.998 1.528,16.631 1.218 C 16.401 1.024,16.079 0.939,15.800 0.997 M7.689 1.057 C 7.316 1.178,7.052 1.503,7.012 1.892 C 6.994 2.073,7.014 2.177,7.135 2.528 C 7.359 3.177,7.343 3.444,7.000 4.880 C 6.754 5.907,6.704 6.283,6.731 6.919 C 6.760 7.601,6.949 8.262,7.215 8.611 C 7.600 9.116,8.445 9.100,8.798 8.582 C 9.042 8.222,9.053 8.012,8.860 7.460 C 8.642 6.833,8.658 6.549,9.000 5.120 C 9.255 4.053,9.295 3.752,9.269 3.107 C 9.241 2.401,9.055 1.744,8.785 1.389 C 8.545 1.075,8.073 0.932,7.689 1.057 M11.664 1.061 C 11.434 1.148,11.256 1.298,11.131 1.511 C 10.972 1.781,10.974 2.150,11.137 2.540 C 11.221 2.744,11.258 2.907,11.271 3.141 C 11.294 3.546,11.245 3.857,11.000 4.880 C 10.892 5.331,10.782 5.862,10.757 6.059 C 10.699 6.506,10.730 7.338,10.817 7.660 C 11.069 8.589,11.399 8.957,11.982 8.959 C 12.429 8.961,12.798 8.695,12.935 8.273 C 13.025 7.995,13.019 7.939,12.860 7.463 C 12.643 6.814,12.659 6.552,13.000 5.120 C 13.246 4.085,13.296 3.713,13.269 3.081 C 13.240 2.399,13.051 1.738,12.785 1.389 C 12.542 1.071,12.031 0.921,11.664 1.061 M2.643 11.069 C 2.546 11.103,2.392 11.206,2.300 11.298 C 1.996 11.602,2.000 11.564,2.000 14.063 C 2.000 16.319,2.023 16.806,2.161 17.470 C 2.436 18.796,3.217 20.182,4.207 21.098 C 5.361 22.166,6.762 22.801,8.314 22.958 C 8.870 23.014,15.130 23.014,15.686 22.958 C 17.238 22.801,18.639 22.166,19.793 21.098 C 20.783 20.182,21.564 18.796,21.839 17.470 C 21.977 16.806,22.000 16.319,22.000 14.063 C 22.000 11.565,22.004 11.602,21.701 11.299 C 21.375 10.972,22.268 11.000,11.983 11.003 C 3.791 11.006,2.801 11.013,2.643 11.069 M20.000 14.000 L 20.000 15.000 12.000 15.000 L 4.000 15.000 4.000 14.000 L 4.000 13.000 12.000 13.000 L 20.000 13.000 20.000 14.000 M19.880 17.076 C 19.880 17.118,19.826 17.318,19.760 17.521 C 19.207 19.211,17.895 20.422,16.131 20.871 L 15.700 20.980 12.000 20.980 L 8.300 20.980 7.869 20.871 C 6.843 20.610,6.047 20.147,5.352 19.408 C 5.007 19.041,4.729 18.643,4.524 18.224 C 4.355 17.877,4.120 17.210,4.120 17.076 C 4.120 17.001,4.271 17.000,12.000 17.000 C 19.729 17.000,19.880 17.001,19.880 17.076 " fill="#000640" stroke="none" fill-rule="evenodd"></path></svg>