<svg xmlns="http://www.w3.org/2000/svg" width="24" height="24" fill="currentColor" class="mmi mmi-hotdrink" viewBox="0 0 24 24"><path d="M5.643 1.069 C 5.407 1.152,5.149 1.416,5.066 1.660 C 5.009 1.828,5.000 2.073,5.000 3.500 C 5.000 5.371,5.005 5.407,5.299 5.701 C 5.690 6.092,6.310 6.092,6.701 5.701 C 6.995 5.407,7.000 5.371,7.000 3.500 C 7.000 1.629,6.995 1.593,6.701 1.299 C 6.424 1.021,6.024 0.934,5.643 1.069 M9.643 1.069 C 9.407 1.152,9.149 1.416,9.066 1.660 C 9.009 1.828,9.000 2.073,9.000 3.500 C 9.000 5.371,9.005 5.407,9.299 5.701 C 9.690 6.092,10.310 6.092,10.701 5.701 C 10.995 5.407,11.000 5.371,11.000 3.500 C 11.000 1.629,10.995 1.593,10.701 1.299 C 10.424 1.021,10.024 0.934,9.643 1.069 M13.664 1.063 C 13.436 1.146,13.257 1.297,13.131 1.511 L 13.020 1.700 13.008 3.410 C 13.001 4.533,13.011 5.174,13.039 5.278 C 13.101 5.506,13.311 5.760,13.531 5.874 C 13.932 6.080,14.390 6.012,14.700 5.702 C 14.995 5.407,15.000 5.371,15.000 3.500 C 15.000 1.629,14.995 1.593,14.701 1.299 C 14.429 1.027,14.018 0.933,13.664 1.063 M1.643 8.068 C 1.546 8.103,1.392 8.206,1.300 8.298 C 0.980 8.618,1.000 8.269,1.000 13.558 C 1.000 16.568,1.015 18.384,1.042 18.601 C 1.142 19.418,1.506 20.330,1.992 20.981 C 2.800 22.062,4.062 22.794,5.399 22.958 C 5.861 23.015,14.139 23.015,14.601 22.958 C 15.369 22.864,16.154 22.568,16.824 22.119 C 17.229 21.848,17.848 21.229,18.119 20.824 C 18.568 20.154,18.864 19.369,18.958 18.601 C 18.981 18.415,19.000 17.978,19.000 17.631 L 19.000 17.000 19.616 17.000 C 20.396 17.000,20.781 16.931,21.260 16.704 C 21.920 16.391,22.391 15.920,22.704 15.260 C 22.981 14.674,23.000 14.499,23.000 12.500 C 23.000 10.501,22.981 10.326,22.704 9.740 C 22.398 9.095,21.924 8.614,21.296 8.312 C 20.633 7.993,21.645 8.022,11.180 8.014 C 2.772 8.007,1.802 8.012,1.643 8.068 M17.000 14.142 C 17.000 17.714,16.992 18.324,16.938 18.581 C 16.691 19.780,15.780 20.691,14.581 20.938 C 14.133 21.031,5.867 21.031,5.419 20.938 C 4.215 20.690,3.310 19.785,3.062 18.581 C 3.008 18.324,3.000 17.714,3.000 14.142 L 3.000 10.000 10.000 10.000 L 17.000 10.000 17.000 14.142 M20.340 10.066 C 20.593 10.153,20.847 10.407,20.934 10.660 C 20.991 10.828,21.000 11.073,21.000 12.500 C 21.000 14.371,20.995 14.407,20.701 14.701 C 20.454 14.948,20.259 15.000,19.573 15.000 L 19.000 15.000 19.000 12.500 L 19.000 10.000 19.573 10.000 C 20.001 10.000,20.195 10.017,20.340 10.066 " fill="#000640" stroke="none" fill-rule="evenodd"></path></svg>