<svg xmlns="http://www.w3.org/2000/svg" width="24" height="24" fill="currentColor" class="mmi mmi-hotpants" viewBox="0 0 24 24"><path d="M4.667 2.065 C 4.415 2.142,4.155 2.400,4.066 2.660 C 4.008 2.830,4.000 3.095,4.000 4.823 L 4.000 6.792 3.877 7.081 C 2.720 9.801,1.996 13.857,1.984 17.700 L 1.980 18.860 2.089 19.181 C 2.402 20.103,3.105 20.783,4.048 21.074 C 4.244 21.134,5.364 21.273,8.158 21.584 L 12.000 22.012 15.842 21.584 C 18.610 21.276,19.758 21.133,19.952 21.074 C 20.452 20.921,20.829 20.694,21.201 20.321 C 21.571 19.951,21.763 19.637,21.922 19.140 C 22.039 18.775,22.067 17.892,22.004 16.593 C 21.859 13.622,21.442 11.049,20.739 8.778 C 20.561 8.204,20.159 7.107,20.065 6.940 C 20.034 6.885,20.014 6.214,20.000 4.780 L 19.980 2.700 19.869 2.511 C 19.808 2.408,19.699 2.277,19.626 2.222 C 19.317 1.986,19.800 2.000,12.005 2.003 C 5.807 2.005,4.834 2.013,4.667 2.065 M9.000 5.000 L 9.000 6.000 7.500 6.000 L 6.000 6.000 6.000 5.000 L 6.000 4.000 7.500 4.000 L 9.000 4.000 9.000 5.000 M13.000 5.000 L 13.000 6.000 12.000 6.000 L 11.000 6.000 11.000 5.000 L 11.000 4.000 12.000 4.000 L 13.000 4.000 13.000 5.000 M18.000 5.000 L 18.000 6.000 16.500 6.000 L 15.000 6.000 15.000 5.000 L 15.000 4.000 16.500 4.000 L 18.000 4.000 18.000 5.000 M7.984 8.228 C 7.834 9.506,6.588 10.610,4.950 10.914 C 4.815 10.939,4.760 10.937,4.760 10.905 C 4.761 10.729,5.170 9.351,5.472 8.510 L 5.655 8.000 6.833 8.000 L 8.011 8.000 7.984 8.228 M14.000 8.175 C 14.000 8.653,14.195 9.394,14.466 9.944 C 15.242 11.519,17.034 12.670,19.136 12.944 C 19.402 12.978,19.626 13.013,19.634 13.020 C 19.658 13.044,19.793 14.073,19.856 14.720 C 19.945 15.618,19.993 16.412,20.025 17.488 C 20.049 18.333,20.045 18.456,19.983 18.617 C 19.891 18.857,19.617 19.099,19.368 19.157 C 19.224 19.191,13.185 19.880,13.032 19.880 C 13.015 19.880,13.000 18.921,13.000 17.749 L 13.000 15.618 13.803 15.219 C 14.725 14.761,14.870 14.642,14.984 14.253 C 15.110 13.820,14.938 13.386,14.543 13.141 C 14.384 13.043,14.295 13.018,14.064 13.007 L 13.780 12.993 12.890 13.436 L 12.001 13.878 11.147 13.455 C 10.317 13.043,10.286 13.031,10.028 13.032 C 9.450 13.036,9.039 13.451,9.041 14.029 C 9.043 14.546,9.256 14.759,10.271 15.259 L 11.000 15.618 11.000 17.749 C 11.000 18.921,10.985 19.880,10.968 19.880 C 10.815 19.880,4.776 19.191,4.632 19.157 C 4.383 19.099,4.109 18.857,4.017 18.618 C 3.955 18.456,3.951 18.334,3.975 17.508 C 4.009 16.383,4.057 15.636,4.162 14.580 C 4.238 13.827,4.340 13.046,4.368 13.019 C 4.374 13.012,4.598 12.978,4.864 12.944 C 6.370 12.748,7.662 12.142,8.623 11.182 C 9.437 10.368,9.906 9.394,9.985 8.352 L 10.011 8.000 12.006 8.000 L 14.000 8.000 14.000 8.175 M18.528 8.510 C 18.830 9.351,19.239 10.729,19.240 10.905 C 19.240 11.014,18.379 10.775,17.860 10.522 C 16.814 10.013,16.134 9.166,16.019 8.230 L 15.991 8.000 17.168 8.000 L 18.345 8.000 18.528 8.510 " fill="#000640" stroke="none" fill-rule="evenodd"></path></svg>