<svg xmlns="http://www.w3.org/2000/svg" width="24" height="24" fill="currentColor" class="mmi mmi-icecreamstick" viewBox="0 0 24 24"><path d="M15.080 0.924 C 13.959 1.067,12.866 1.551,11.800 2.373 C 11.368 2.707,3.541 10.541,3.341 10.840 C 2.889 11.517,2.729 12.396,2.917 13.180 C 3.079 13.855,3.308 14.213,4.038 14.939 C 4.325 15.225,4.560 15.476,4.560 15.497 C 4.560 15.519,4.023 16.077,3.368 16.738 C 2.335 17.779,2.156 17.977,2.032 18.220 C 1.661 18.942,1.603 19.688,1.859 20.446 C 2.335 21.852,3.918 22.629,5.338 22.155 C 5.887 21.971,6.031 21.858,7.281 20.614 C 7.931 19.968,8.479 19.440,8.499 19.440 C 8.518 19.440,8.797 19.698,9.117 20.013 C 9.759 20.645,10.049 20.844,10.580 21.023 C 11.010 21.167,11.652 21.201,12.094 21.103 C 12.501 21.012,12.845 20.869,13.160 20.658 C 13.550 20.399,21.370 12.550,21.748 12.040 C 22.301 11.293,22.612 10.698,22.855 9.920 C 23.047 9.305,23.120 8.815,23.120 8.134 C 23.120 6.652,22.592 5.184,21.546 3.760 C 20.503 2.339,18.570 1.212,16.715 0.942 C 16.265 0.876,15.513 0.868,15.080 0.924 M16.545 2.941 C 17.459 3.096,18.498 3.597,19.306 4.271 C 19.744 4.637,20.219 5.279,20.570 5.980 C 21.439 7.717,21.274 9.418,20.094 10.902 C 19.800 11.273,12.100 18.987,11.945 19.068 C 11.878 19.102,11.710 19.140,11.572 19.151 C 11.073 19.191,11.267 19.357,7.974 16.065 C 6.343 14.434,4.975 13.037,4.934 12.960 C 4.881 12.858,4.861 12.732,4.861 12.494 C 4.860 12.185,4.867 12.157,5.000 11.971 C 5.077 11.862,6.913 10.010,9.080 7.855 C 12.511 4.442,13.069 3.903,13.397 3.685 C 13.841 3.389,14.112 3.249,14.516 3.104 C 15.123 2.886,15.870 2.826,16.545 2.941 M6.560 17.460 L 7.099 18.000 6.080 19.023 C 5.519 19.585,4.983 20.091,4.889 20.147 C 4.563 20.341,4.151 20.257,3.904 19.949 C 3.751 19.756,3.710 19.375,3.820 19.156 C 3.880 19.037,5.943 16.920,6.000 16.920 C 6.011 16.920,6.264 17.163,6.560 17.460 " fill="#000640" stroke="none" fill-rule="evenodd"></path></svg>