<svg xmlns="http://www.w3.org/2000/svg" width="24" height="24" fill="currentColor" class="mmi mmi-icecreamstick-biten" viewBox="0 0 24 24"><path d="M15.120 0.941 C 13.827 1.122,12.653 1.663,11.571 2.578 C 11.378 2.741,9.463 4.635,7.315 6.787 C 3.070 11.040,3.217 10.878,2.973 11.580 C 2.871 11.874,2.862 11.948,2.862 12.500 C 2.861 13.071,2.867 13.117,2.986 13.450 C 3.178 13.989,3.329 14.206,3.970 14.863 C 4.295 15.195,4.560 15.483,4.560 15.502 C 4.560 15.521,4.023 16.077,3.368 16.738 C 2.335 17.779,2.156 17.977,2.032 18.220 C 1.661 18.942,1.603 19.688,1.859 20.446 C 2.335 21.852,3.918 22.629,5.338 22.155 C 5.887 21.971,6.031 21.858,7.281 20.614 C 7.931 19.968,8.479 19.440,8.499 19.440 C 8.518 19.440,8.797 19.698,9.117 20.013 C 9.759 20.645,10.049 20.844,10.580 21.023 C 10.822 21.104,11.008 21.135,11.344 21.150 C 12.038 21.182,12.605 21.028,13.160 20.658 C 13.468 20.452,21.284 12.641,21.668 12.154 C 23.872 9.363,23.744 6.181,21.320 3.449 C 19.655 1.572,17.332 0.633,15.120 0.941 M16.520 2.921 C 16.939 2.975,17.369 3.093,17.754 3.258 C 18.181 3.440,18.648 3.714,18.618 3.763 C 18.578 3.828,18.002 4.103,17.640 4.231 C 17.054 4.437,16.688 4.497,16.000 4.497 C 15.107 4.497,14.465 4.341,13.666 3.930 L 13.312 3.748 13.526 3.611 C 14.044 3.281,14.770 3.006,15.340 2.924 C 15.672 2.876,16.164 2.875,16.520 2.921 M12.832 5.754 C 13.755 6.228,14.971 6.521,16.008 6.520 C 17.300 6.518,18.791 6.069,19.840 5.365 L 20.140 5.164 20.243 5.287 C 20.539 5.640,20.970 6.499,21.096 6.985 C 21.349 7.960,21.239 8.923,20.770 9.860 C 20.363 10.673,20.317 10.725,17.086 13.980 C 12.096 19.007,12.116 18.988,11.919 19.077 C 11.660 19.194,11.312 19.188,11.058 19.061 C 10.906 18.985,10.183 18.284,7.934 16.031 C 6.325 14.419,4.975 13.037,4.935 12.960 C 4.832 12.765,4.832 12.236,4.934 12.040 C 4.975 11.963,6.540 10.378,8.412 8.517 L 11.817 5.135 12.131 5.345 C 12.304 5.461,12.619 5.645,12.832 5.754 M6.560 17.460 L 7.099 18.000 6.060 19.041 C 4.975 20.127,4.779 20.281,4.482 20.279 C 4.133 20.277,3.791 19.972,3.737 19.615 C 3.683 19.253,3.747 19.165,4.914 17.990 C 5.498 17.402,5.987 16.920,5.999 16.920 C 6.011 16.920,6.264 17.163,6.560 17.460 " fill="#000640" stroke="none" fill-rule="evenodd"></path></svg>