<svg xmlns="http://www.w3.org/2000/svg" width="24" height="24" fill="currentColor" class="mmi mmi-icon-arrow-downupleft" viewBox="0 0 24 24"><path d="M2.664 6.063 C 2.436 6.146,2.257 6.297,2.131 6.511 L 2.020 6.700 2.009 10.413 C 2.002 12.908,2.012 14.176,2.040 14.281 C 2.101 14.506,2.312 14.761,2.531 14.874 C 2.932 15.080,3.390 15.012,3.700 14.702 C 4.006 14.396,4.000 14.454,4.000 11.783 L 4.000 9.421 7.550 12.965 C 9.502 14.914,11.186 16.567,11.291 16.637 C 12.375 17.364,13.798 17.328,14.820 16.548 C 14.952 16.448,16.593 14.829,18.467 12.953 C 21.779 9.635,21.875 9.534,21.937 9.323 C 22.015 9.053,22.016 8.987,21.938 8.725 C 21.768 8.154,21.088 7.855,20.558 8.119 C 20.431 8.182,19.387 9.198,16.940 11.638 C 13.725 14.845,13.488 15.072,13.311 15.119 C 13.081 15.181,12.749 15.158,12.560 15.067 C 12.479 15.028,10.955 13.535,8.920 11.500 L 5.420 8.000 7.783 8.000 C 10.453 8.000,10.396 8.006,10.701 7.701 C 11.092 7.310,11.092 6.690,10.701 6.299 C 10.386 5.984,10.606 6.000,6.483 6.003 C 3.408 6.005,2.795 6.015,2.664 6.063 " fill="#000640" stroke="none" fill-rule="evenodd"></path></svg>