<svg xmlns="http://www.w3.org/2000/svg" width="24" height="24" fill="currentColor" class="mmi mmi-image-placeholder" viewBox="0 0 24 24"><path d="M3.503 1.042 C 2.818 1.158,2.117 1.573,1.670 2.127 C 1.445 2.407,1.159 2.980,1.074 3.320 C 0.993 3.647,0.993 20.353,1.074 20.680 C 1.159 21.020,1.445 21.593,1.670 21.873 C 1.950 22.220,2.312 22.501,2.740 22.704 C 3.409 23.021,2.760 23.000,12.000 23.000 C 21.240 23.000,20.591 23.021,21.260 22.704 C 21.920 22.391,22.391 21.920,22.704 21.260 C 23.021 20.591,23.000 21.240,23.000 12.000 C 23.000 2.760,23.021 3.409,22.704 2.740 C 22.398 2.095,21.924 1.614,21.296 1.312 C 20.634 0.993,21.532 1.022,12.120 1.015 C 7.489 1.012,3.611 1.024,3.503 1.042 M20.340 3.066 C 20.593 3.153,20.847 3.407,20.934 3.660 C 20.995 3.838,21.000 4.523,21.000 12.000 C 21.000 21.144,21.026 20.376,20.701 20.701 C 20.376 21.026,21.144 21.000,11.998 21.000 C 3.106 21.000,3.684 21.015,3.374 20.778 C 3.301 20.723,3.192 20.592,3.131 20.489 L 3.020 20.300 3.020 12.000 L 3.020 3.700 3.131 3.511 C 3.256 3.298,3.449 3.136,3.670 3.057 C 3.793 3.013,5.268 3.003,11.983 3.002 C 19.479 3.000,20.162 3.005,20.340 3.066 M13.667 6.065 C 13.292 6.180,13.239 6.264,12.080 8.592 C 11.497 9.762,11.011 10.720,11.000 10.720 C 10.989 10.720,10.710 10.184,10.380 9.530 C 9.847 8.473,9.761 8.326,9.611 8.213 C 9.257 7.947,8.743 7.947,8.389 8.213 C 8.232 8.331,8.108 8.563,6.626 11.516 C 5.307 14.146,5.029 14.728,5.011 14.901 C 4.981 15.195,5.086 15.488,5.298 15.700 C 5.621 16.024,5.095 16.000,12.000 16.000 C 18.905 16.000,18.379 16.024,18.702 15.700 C 18.911 15.491,19.018 15.197,18.990 14.907 C 18.973 14.737,18.622 14.004,16.915 10.583 C 14.662 6.068,14.730 6.185,14.316 6.063 C 14.061 5.987,13.920 5.987,13.667 6.065 M15.190 11.620 C 15.834 12.907,16.360 13.969,16.360 13.980 C 16.360 13.991,15.298 14.000,14.000 14.000 C 12.702 14.000,11.640 13.991,11.640 13.980 C 11.640 13.941,13.980 9.280,14.000 9.280 C 14.011 9.280,14.547 10.333,15.190 11.620 M9.450 12.140 L 9.880 13.000 9.631 13.500 L 9.381 14.000 8.511 14.000 C 8.032 14.000,7.640 13.991,7.640 13.980 C 7.640 13.940,8.980 11.280,9.000 11.280 C 9.012 11.280,9.214 11.667,9.450 12.140 " fill="#000640" stroke="none" fill-rule="evenodd"></path></svg>