<svg xmlns="http://www.w3.org/2000/svg" width="24" height="24" fill="currentColor" class="mmi mmi-inactive-filter" viewBox="0 0 24 24"><path d="M3.100 3.169 C 2.875 3.249,2.658 3.430,2.553 3.626 C 2.405 3.901,2.380 4.109,2.460 4.389 C 2.523 4.607,2.570 4.663,3.267 5.365 L 4.007 6.110 3.829 6.137 C 3.584 6.173,3.302 6.362,3.161 6.585 C 2.854 7.069,3.020 7.701,3.528 7.983 L 3.740 8.100 4.880 8.112 L 6.020 8.123 7.510 9.612 L 9.001 11.100 7.847 11.120 L 6.693 11.140 6.497 11.261 C 5.832 11.670,5.849 12.607,6.528 12.983 L 6.740 13.100 8.880 13.111 L 11.020 13.122 12.510 14.611 L 14.000 16.100 11.847 16.120 L 9.694 16.140 9.497 16.261 C 8.832 16.670,8.849 17.607,9.528 17.983 L 9.740 18.100 12.000 18.100 L 14.260 18.100 14.474 17.982 C 14.728 17.841,14.901 17.609,14.967 17.321 L 15.015 17.117 16.757 18.852 C 18.361 20.450,18.515 20.592,18.689 20.639 C 19.152 20.763,19.594 20.594,19.828 20.203 C 19.997 19.923,20.026 19.712,19.940 19.414 C 19.873 19.181,19.860 19.168,16.586 15.880 C 14.779 14.065,11.212 10.495,8.660 7.946 C 4.906 4.196,3.982 3.292,3.820 3.216 C 3.603 3.113,3.311 3.094,3.100 3.169 M10.820 7.120 L 11.820 8.121 16.040 8.111 L 20.260 8.100 20.474 7.982 C 21.149 7.608,21.165 6.668,20.503 6.261 L 20.306 6.140 15.063 6.130 L 9.820 6.119 10.820 7.120 M15.820 12.122 L 16.820 13.126 17.047 13.107 C 17.822 13.042,18.250 12.200,17.828 11.572 C 17.756 11.466,17.613 11.329,17.503 11.261 L 17.306 11.140 16.063 11.128 L 14.820 11.117 15.820 12.122 " fill="#000640" stroke="none" fill-rule="evenodd"></path></svg>