<svg xmlns="http://www.w3.org/2000/svg" width="24" height="24" fill="currentColor" class="mmi mmi-inactive user" viewBox="0 0 24 24"><path d="M11.620 1.647 C 10.210 1.732,8.831 2.368,7.802 3.408 C 7.625 3.587,7.480 3.744,7.480 3.757 C 7.480 3.770,7.796 4.096,8.182 4.480 L 8.884 5.180 9.105 4.930 C 9.375 4.627,9.875 4.244,10.244 4.058 C 11.513 3.419,12.990 3.482,14.196 4.227 C 14.614 4.485,15.243 5.126,15.496 5.552 C 15.755 5.988,15.977 6.643,16.042 7.167 C 16.193 8.392,15.700 9.709,14.769 10.561 L 14.504 10.804 15.202 11.502 C 15.585 11.886,15.912 12.200,15.927 12.200 C 15.994 12.200,16.708 11.427,16.942 11.100 C 17.401 10.459,17.780 9.596,17.941 8.820 C 18.080 8.150,18.079 7.088,17.940 6.404 C 17.785 5.648,17.396 4.761,16.932 4.109 C 16.624 3.675,15.986 3.041,15.540 2.726 C 15.122 2.431,14.360 2.051,13.899 1.907 C 13.170 1.680,12.443 1.597,11.620 1.647 M3.100 3.169 C 2.701 3.310,2.438 3.667,2.432 4.075 C 2.426 4.529,2.375 4.465,4.308 6.404 L 6.086 8.187 6.163 8.639 C 6.372 9.861,6.938 10.944,7.838 11.841 C 8.510 12.512,9.230 12.971,10.082 13.272 C 10.461 13.405,11.128 13.560,11.326 13.560 C 11.435 13.560,11.525 13.631,11.967 14.068 C 12.249 14.347,12.480 14.588,12.480 14.602 C 12.480 14.616,12.133 14.631,11.710 14.635 C 8.620 14.668,6.211 15.419,4.449 16.897 C 3.604 17.606,2.784 18.764,2.524 19.614 C 2.294 20.365,2.518 21.222,3.091 21.794 C 3.453 22.154,3.719 22.318,4.201 22.478 C 4.714 22.648,5.109 22.654,12.720 22.612 C 19.162 22.577,19.923 22.566,20.119 22.507 L 20.339 22.442 20.901 23.000 C 21.231 23.327,21.524 23.582,21.610 23.619 C 21.793 23.695,22.199 23.698,22.374 23.625 C 22.563 23.546,22.791 23.334,22.891 23.144 C 23.005 22.928,23.012 22.485,22.905 22.280 C 22.865 22.203,22.601 21.906,22.319 21.620 L 21.807 21.100 21.881 20.820 C 21.973 20.475,21.980 20.014,21.898 19.698 C 21.817 19.382,21.543 18.824,21.251 18.380 C 20.164 16.726,18.431 15.595,16.123 15.033 L 15.627 14.912 9.823 9.110 C 5.070 4.357,3.984 3.291,3.820 3.214 C 3.604 3.113,3.310 3.094,3.100 3.169 M13.280 16.640 C 13.621 16.661,14.071 16.698,14.280 16.723 L 14.660 16.769 16.570 18.674 C 17.620 19.722,18.480 20.593,18.480 20.610 C 18.480 20.627,15.415 20.636,11.670 20.630 L 4.860 20.620 4.681 20.520 C 4.400 20.363,4.387 20.263,4.590 19.867 C 5.600 17.902,7.950 16.776,11.320 16.642 C 12.413 16.599,12.600 16.598,13.280 16.640 " fill="#000640" stroke="none" fill-rule="evenodd"></path></svg>