<svg xmlns="http://www.w3.org/2000/svg" width="24" height="24" fill="currentColor" class="mmi mmi-incomingcall" viewBox="0 0 24 24"><path d="M5.049 2.638 C 4.460 2.797,3.888 3.185,3.526 3.668 C 3.007 4.360,2.552 5.287,2.299 6.165 C 1.970 7.305,1.942 8.547,2.222 9.622 C 2.446 10.487,2.825 11.219,3.751 12.580 C 5.690 15.428,8.058 17.718,11.240 19.820 C 12.537 20.677,12.878 20.863,13.621 21.115 C 15.021 21.589,16.475 21.575,17.991 21.073 C 18.869 20.782,19.877 20.210,20.343 19.739 C 20.845 19.232,21.078 18.689,21.109 17.960 C 21.142 17.166,20.914 16.532,20.405 16.000 C 19.944 15.518,17.697 13.654,17.395 13.503 C 16.861 13.236,16.228 13.226,15.700 13.475 C 15.568 13.538,14.930 13.908,14.283 14.297 C 13.199 14.949,13.098 15.002,13.012 14.956 C 12.848 14.868,12.035 14.244,11.621 13.888 C 10.505 12.929,9.282 11.628,8.727 10.810 L 8.566 10.573 9.363 9.241 C 9.801 8.509,10.189 7.818,10.224 7.705 C 10.377 7.215,10.329 6.641,10.095 6.175 C 10.013 6.011,8.876 4.624,7.953 3.560 C 7.598 3.152,7.153 2.853,6.640 2.679 C 6.258 2.550,5.452 2.529,5.049 2.638 M19.600 3.083 C 19.465 3.144,18.995 3.588,17.710 4.871 L 16.000 6.579 16.000 5.716 C 16.000 4.714,15.969 4.567,15.701 4.299 C 15.310 3.908,14.690 3.908,14.299 4.299 C 13.998 4.600,13.999 4.586,14.004 6.877 L 14.008 8.900 14.500 6.480 L 14.992 4.060 14.996 7.030 L 15.000 10.000 17.073 10.000 C 19.419 10.000,19.400 10.002,19.701 9.701 C 19.881 9.521,20.000 9.242,20.000 9.000 C 20.000 8.604,19.709 8.192,19.340 8.066 C 19.183 8.013,18.981 8.000,18.284 8.000 L 17.421 8.000 19.129 6.290 C 20.958 4.458,20.998 4.410,20.999 4.020 C 21.000 3.692,20.932 3.527,20.703 3.297 C 20.396 2.990,19.983 2.910,19.600 3.083 M6.158 4.639 C 6.268 4.695,6.597 5.054,7.303 5.887 C 7.848 6.530,8.293 7.075,8.292 7.098 C 8.292 7.121,7.896 7.798,7.413 8.601 C 6.929 9.405,6.513 10.123,6.487 10.197 C 6.461 10.271,6.440 10.434,6.440 10.559 C 6.440 11.555,8.879 14.378,11.314 16.200 C 12.037 16.741,12.638 17.105,12.900 17.160 C 13.243 17.231,13.383 17.167,15.007 16.192 L 16.514 15.287 17.607 16.208 C 19.176 17.528,19.141 17.489,19.112 17.879 C 19.091 18.180,18.986 18.319,18.584 18.580 C 17.698 19.155,16.745 19.446,15.740 19.450 C 14.651 19.455,14.021 19.239,12.765 18.433 C 10.918 17.247,9.573 16.177,8.178 14.782 C 7.272 13.876,6.724 13.250,6.040 12.340 C 5.448 11.551,4.716 10.431,4.459 9.920 C 3.783 8.575,3.928 6.809,4.839 5.301 C 5.099 4.872,5.212 4.737,5.395 4.640 C 5.593 4.535,5.954 4.535,6.158 4.639 " fill="#000640" stroke="none" fill-rule="evenodd"></path></svg>