<svg xmlns="http://www.w3.org/2000/svg" width="24" height="24" fill="currentColor" class="mmi mmi-indent-decrease" viewBox="0 0 24 24"><path d="M2.664 3.063 C 2.436 3.146,2.257 3.297,2.131 3.511 C 2.036 3.672,2.020 3.744,2.020 4.000 C 2.020 4.256,2.036 4.328,2.131 4.489 C 2.260 4.709,2.437 4.854,2.678 4.939 C 2.830 4.993,3.916 5.000,11.998 5.000 C 22.265 5.000,21.375 5.027,21.701 4.701 C 22.092 4.310,22.092 3.690,21.701 3.299 C 21.375 2.972,22.267 3.000,11.983 3.003 C 4.135 3.005,2.798 3.014,2.664 3.063 M8.676 7.059 C 8.597 7.088,7.126 8.049,5.407 9.195 C 2.073 11.418,2.140 11.367,2.034 11.770 C 1.970 12.009,2.032 12.343,2.180 12.568 C 2.260 12.689,2.940 13.160,5.406 14.804 C 7.125 15.950,8.602 16.913,8.690 16.944 C 9.191 17.120,9.788 16.821,9.937 16.316 C 9.992 16.131,10.000 15.610,10.000 12.000 C 10.000 7.364,10.016 7.614,9.701 7.299 C 9.435 7.033,9.014 6.934,8.676 7.059 M12.643 7.069 C 12.291 7.193,12.000 7.614,12.000 8.000 C 12.000 8.242,12.119 8.521,12.299 8.701 C 12.616 9.018,12.337 9.000,17.000 9.000 C 21.663 9.000,21.384 9.018,21.701 8.701 C 22.092 8.310,22.092 7.690,21.701 7.299 C 21.384 6.982,21.666 7.000,16.983 7.003 C 13.320 7.006,12.799 7.014,12.643 7.069 M7.991 13.060 L 7.980 14.120 6.420 13.080 C 5.562 12.508,4.860 12.022,4.860 12.000 C 4.860 11.978,5.562 11.492,6.420 10.920 L 7.980 9.880 7.991 10.940 C 7.997 11.523,7.997 12.477,7.991 13.060 M12.643 11.069 C 12.291 11.193,12.000 11.614,12.000 12.000 C 12.000 12.242,12.119 12.521,12.299 12.701 C 12.616 13.018,12.337 13.000,17.000 13.000 C 21.663 13.000,21.384 13.018,21.701 12.701 C 22.092 12.310,22.092 11.690,21.701 11.299 C 21.384 10.982,21.666 11.000,16.983 11.003 C 13.320 11.006,12.799 11.014,12.643 11.069 M12.643 15.069 C 12.291 15.193,12.000 15.614,12.000 16.000 C 12.000 16.242,12.119 16.521,12.299 16.701 C 12.616 17.018,12.337 17.000,17.000 17.000 C 21.663 17.000,21.384 17.018,21.701 16.701 C 22.092 16.310,22.092 15.690,21.701 15.299 C 21.384 14.982,21.666 15.000,16.983 15.003 C 13.320 15.006,12.799 15.014,12.643 15.069 M2.643 19.069 C 2.291 19.193,2.000 19.614,2.000 20.000 C 2.000 20.242,2.119 20.521,2.299 20.701 C 2.625 21.027,1.736 21.000,12.000 21.000 C 22.264 21.000,21.375 21.027,21.701 20.701 C 22.092 20.310,22.092 19.690,21.701 19.299 C 21.375 18.972,22.268 19.000,11.983 19.003 C 3.791 19.006,2.801 19.013,2.643 19.069 " fill="#000640" stroke="none" fill-rule="evenodd"></path></svg>