<svg xmlns="http://www.w3.org/2000/svg" width="24" height="24" fill="currentColor" class="mmi mmi-indent-increase" viewBox="0 0 24 24"><path d="M2.664 3.063 C 2.436 3.146,2.257 3.297,2.131 3.511 C 2.036 3.672,2.020 3.744,2.020 4.000 C 2.020 4.256,2.036 4.328,2.131 4.489 C 2.260 4.709,2.437 4.854,2.678 4.939 C 2.830 4.993,3.916 5.000,11.998 5.000 C 22.265 5.000,21.375 5.027,21.701 4.701 C 22.092 4.310,22.092 3.690,21.701 3.299 C 21.375 2.972,22.267 3.000,11.983 3.003 C 4.135 3.005,2.798 3.014,2.664 3.063 M2.667 7.065 C 2.542 7.103,2.412 7.186,2.299 7.299 C 1.981 7.616,1.997 7.357,2.009 12.084 L 2.020 16.262 2.122 16.461 C 2.254 16.716,2.495 16.900,2.785 16.965 C 3.223 17.063,3.140 17.110,6.588 14.810 C 8.969 13.221,9.739 12.687,9.816 12.574 C 10.042 12.242,10.042 11.758,9.816 11.426 C 9.739 11.312,8.972 10.781,6.592 9.195 C 4.875 8.050,3.398 7.087,3.310 7.056 C 3.110 6.986,2.915 6.989,2.667 7.065 M12.643 7.069 C 12.291 7.193,12.000 7.614,12.000 8.000 C 12.000 8.242,12.119 8.521,12.299 8.701 C 12.616 9.018,12.337 9.000,17.000 9.000 C 21.663 9.000,21.384 9.018,21.701 8.701 C 22.092 8.310,22.092 7.690,21.701 7.299 C 21.384 6.982,21.666 7.000,16.983 7.003 C 13.320 7.006,12.799 7.014,12.643 7.069 M5.690 10.994 C 6.498 11.532,7.160 11.985,7.160 12.000 C 7.160 12.020,4.981 13.490,4.110 14.058 L 4.000 14.129 4.000 12.000 L 4.000 9.871 4.110 9.942 C 4.171 9.982,4.881 10.455,5.690 10.994 M12.643 11.069 C 12.291 11.193,12.000 11.614,12.000 12.000 C 12.000 12.242,12.119 12.521,12.299 12.701 C 12.616 13.018,12.337 13.000,17.000 13.000 C 21.663 13.000,21.384 13.018,21.701 12.701 C 22.092 12.310,22.092 11.690,21.701 11.299 C 21.384 10.982,21.666 11.000,16.983 11.003 C 13.320 11.006,12.799 11.014,12.643 11.069 M12.643 15.069 C 12.291 15.193,12.000 15.614,12.000 16.000 C 12.000 16.242,12.119 16.521,12.299 16.701 C 12.616 17.018,12.337 17.000,17.000 17.000 C 21.663 17.000,21.384 17.018,21.701 16.701 C 22.092 16.310,22.092 15.690,21.701 15.299 C 21.384 14.982,21.666 15.000,16.983 15.003 C 13.320 15.006,12.799 15.014,12.643 15.069 M2.643 19.069 C 2.291 19.193,2.000 19.614,2.000 20.000 C 2.000 20.242,2.119 20.521,2.299 20.701 C 2.625 21.027,1.736 21.000,12.000 21.000 C 22.264 21.000,21.375 21.027,21.701 20.701 C 22.092 20.310,22.092 19.690,21.701 19.299 C 21.375 18.972,22.268 19.000,11.983 19.003 C 3.791 19.006,2.801 19.013,2.643 19.069 " fill="#000640" stroke="none" fill-rule="evenodd"></path></svg>