<svg xmlns="http://www.w3.org/2000/svg" width="24" height="24" fill="currentColor" class="mmi mmi-information-filled" viewBox="0 0 24 24"><path d="M11.200 0.025 C 7.677 0.288,4.535 1.992,2.410 4.793 C 1.201 6.386,0.442 8.222,0.109 10.359 C -0.013 11.143,-0.013 12.857,0.109 13.641 C 0.563 16.554,1.872 19.025,3.948 20.887 C 5.791 22.541,7.832 23.497,10.359 23.891 C 11.143 24.013,12.857 24.013,13.641 23.891 C 16.557 23.436,19.036 22.122,20.896 20.043 C 22.545 18.200,23.498 16.163,23.891 13.641 C 24.013 12.857,24.013 11.143,23.891 10.359 C 23.557 8.220,22.799 6.386,21.588 4.790 C 19.607 2.179,16.767 0.532,13.500 0.099 C 13.032 0.037,11.640 -0.007,11.200 0.025 M12.110 5.139 C 12.415 5.278,12.725 5.589,12.866 5.896 C 12.962 6.105,12.978 6.191,12.978 6.500 C 12.979 6.810,12.963 6.893,12.867 7.100 C 12.722 7.415,12.413 7.724,12.104 7.867 C 11.894 7.965,11.811 7.980,11.500 7.980 C 11.190 7.980,11.107 7.965,10.900 7.868 C 10.584 7.721,10.275 7.413,10.134 7.104 C 10.038 6.895,10.022 6.809,10.022 6.500 C 10.021 6.190,10.037 6.107,10.133 5.900 C 10.324 5.489,10.727 5.148,11.150 5.041 C 11.407 4.976,11.852 5.022,12.110 5.139 M12.340 9.066 C 12.593 9.153,12.847 9.407,12.934 9.660 C 12.993 9.833,13.000 10.137,13.000 12.427 L 13.000 15.000 14.073 15.000 C 15.308 15.000,15.423 15.021,15.701 15.299 C 16.092 15.690,16.092 16.310,15.701 16.701 C 15.390 17.013,15.544 17.000,12.000 17.000 C 8.456 17.000,8.610 17.013,8.299 16.701 C 7.908 16.310,7.908 15.690,8.299 15.299 C 8.577 15.021,8.692 15.000,9.927 15.000 L 11.000 15.000 11.000 13.000 L 11.000 11.000 10.427 11.000 C 9.741 11.000,9.546 10.948,9.299 10.701 C 8.907 10.309,8.908 9.690,9.300 9.298 C 9.577 9.021,9.659 9.007,10.983 9.003 C 11.966 9.000,12.176 9.010,12.340 9.066 " fill="#000640" stroke="none" fill-rule="evenodd"></path></svg>