<svg xmlns="http://www.w3.org/2000/svg" width="24" height="24" fill="currentColor" class="mmi mmi-inspection-complete" viewBox="0 0 24 24"><path d="M11.250 0.718 C 10.891 0.815,10.677 0.908,10.381 1.097 C 9.611 1.590,9.110 2.422,9.017 3.359 L 8.990 3.636 7.185 3.648 L 5.380 3.661 5.069 3.766 C 4.109 4.093,3.396 4.844,3.111 5.828 L 3.020 6.140 3.020 13.620 C 3.020 22.028,2.992 21.269,3.323 21.943 C 3.626 22.562,4.097 23.019,4.740 23.323 C 5.362 23.616,4.951 23.600,12.000 23.600 C 19.049 23.600,18.638 23.616,19.260 23.323 C 19.903 23.019,20.374 22.562,20.677 21.943 C 21.008 21.269,20.980 22.028,20.980 13.620 L 20.980 6.140 20.889 5.828 C 20.604 4.844,19.891 4.093,18.931 3.766 L 18.620 3.661 16.815 3.648 L 15.010 3.636 14.983 3.359 C 14.864 2.150,14.066 1.143,12.931 0.770 C 12.497 0.627,11.681 0.602,11.250 0.718 M12.283 2.664 C 12.653 2.772,13.000 3.203,13.000 3.555 C 13.000 3.640,12.994 3.640,12.000 3.640 C 11.006 3.640,11.000 3.640,11.000 3.555 C 11.000 3.214,11.320 2.802,11.680 2.678 C 11.951 2.585,12.010 2.584,12.283 2.664 M18.283 5.664 C 18.565 5.747,18.881 6.057,18.954 6.321 C 18.992 6.460,19.000 8.111,18.991 13.700 L 18.980 20.900 18.892 21.064 C 18.790 21.255,18.566 21.463,18.363 21.555 C 18.233 21.614,17.656 21.620,12.000 21.620 C 6.344 21.620,5.767 21.614,5.637 21.555 C 5.434 21.463,5.210 21.255,5.108 21.064 L 5.020 20.900 5.009 13.700 C 5.000 8.217,5.009 6.458,5.045 6.326 C 5.116 6.068,5.405 5.773,5.680 5.678 C 5.892 5.605,6.125 5.603,11.983 5.601 C 17.434 5.600,18.088 5.607,18.283 5.664 M15.360 10.203 C 15.223 10.264,14.658 10.805,12.971 12.491 L 10.762 14.698 9.791 13.736 C 9.249 13.199,8.757 12.745,8.677 12.709 C 8.193 12.486,7.638 12.656,7.373 13.108 C 7.276 13.273,7.260 13.343,7.260 13.600 C 7.260 13.854,7.276 13.928,7.367 14.080 C 7.525 14.345,9.977 16.770,10.200 16.882 C 10.450 17.007,10.843 17.031,11.146 16.939 C 11.377 16.869,11.416 16.832,13.973 14.284 C 15.528 12.735,16.600 11.636,16.650 11.540 C 16.710 11.426,16.735 11.306,16.735 11.120 C 16.737 10.688,16.483 10.317,16.090 10.177 C 15.870 10.099,15.568 10.109,15.360 10.203 " stroke="none" fill-rule="evenodd"></path></svg>