<svg xmlns="http://www.w3.org/2000/svg" width="24" height="24" fill="currentColor" class="mmi mmi-inspections" viewBox="0 0 24 24"><path d="M11.250 0.718 C 10.891 0.815,10.677 0.908,10.381 1.097 C 9.611 1.590,9.110 2.422,9.017 3.359 L 8.990 3.636 7.185 3.648 L 5.380 3.661 5.069 3.766 C 4.109 4.093,3.396 4.844,3.111 5.828 L 3.020 6.140 3.020 13.620 C 3.020 22.028,2.992 21.269,3.323 21.943 C 3.626 22.562,4.097 23.019,4.740 23.323 C 5.362 23.616,4.951 23.600,12.000 23.600 C 19.049 23.600,18.638 23.616,19.260 23.323 C 19.903 23.019,20.374 22.562,20.677 21.943 C 21.008 21.269,20.980 22.028,20.980 13.620 L 20.980 6.140 20.889 5.828 C 20.604 4.844,19.891 4.093,18.931 3.766 L 18.620 3.661 16.815 3.648 L 15.010 3.636 14.983 3.359 C 14.864 2.150,14.066 1.143,12.931 0.770 C 12.497 0.627,11.681 0.602,11.250 0.718 M12.283 2.664 C 12.653 2.772,13.000 3.203,13.000 3.555 C 13.000 3.640,12.994 3.640,12.000 3.640 C 11.006 3.640,11.000 3.640,11.000 3.555 C 11.000 3.214,11.320 2.802,11.680 2.678 C 11.951 2.585,12.010 2.584,12.283 2.664 M18.283 5.664 C 18.565 5.747,18.881 6.057,18.954 6.321 C 18.992 6.460,19.000 8.111,18.991 13.700 L 18.980 20.900 18.892 21.064 C 18.790 21.255,18.566 21.463,18.363 21.555 C 18.233 21.614,17.656 21.620,12.000 21.620 C 6.344 21.620,5.767 21.614,5.637 21.555 C 5.434 21.463,5.210 21.255,5.108 21.064 L 5.020 20.900 5.009 13.700 C 5.000 8.217,5.009 6.458,5.045 6.326 C 5.116 6.068,5.405 5.773,5.680 5.678 C 5.892 5.605,6.125 5.603,11.983 5.601 C 17.434 5.600,18.088 5.607,18.283 5.664 M7.217 7.697 C 6.440 8.035,6.415 9.150,7.177 9.505 C 7.595 9.699,8.048 9.605,8.353 9.259 C 8.769 8.786,8.649 8.070,8.102 7.757 C 7.931 7.659,7.857 7.641,7.620 7.642 C 7.466 7.643,7.285 7.667,7.217 7.697 M10.600 7.704 C 10.418 7.782,10.215 7.979,10.108 8.180 C 9.987 8.405,9.988 8.836,10.110 9.066 C 10.224 9.282,10.481 9.499,10.692 9.557 C 10.814 9.590,11.676 9.600,13.843 9.592 L 16.826 9.580 17.022 9.459 C 17.303 9.285,17.454 9.026,17.473 8.682 C 17.499 8.232,17.280 7.861,16.894 7.700 C 16.677 7.609,10.810 7.613,10.600 7.704 M7.217 11.697 C 6.440 12.035,6.415 13.150,7.177 13.505 C 7.595 13.699,8.048 13.605,8.353 13.259 C 8.769 12.786,8.649 12.070,8.102 11.757 C 7.931 11.659,7.857 11.641,7.620 11.642 C 7.466 11.643,7.285 11.667,7.217 11.697 M10.600 11.704 C 10.418 11.782,10.215 11.979,10.108 12.180 C 9.987 12.405,9.988 12.836,10.110 13.066 C 10.224 13.282,10.481 13.499,10.692 13.557 C 10.814 13.590,11.676 13.600,13.843 13.592 L 16.826 13.580 17.022 13.459 C 17.303 13.285,17.454 13.026,17.473 12.682 C 17.499 12.232,17.280 11.861,16.894 11.700 C 16.677 11.609,10.810 11.613,10.600 11.704 M7.217 15.697 C 6.440 16.035,6.415 17.150,7.177 17.505 C 7.595 17.699,8.048 17.605,8.353 17.259 C 8.769 16.786,8.649 16.070,8.102 15.757 C 7.931 15.659,7.857 15.641,7.620 15.642 C 7.466 15.643,7.285 15.667,7.217 15.697 M10.600 15.704 C 10.418 15.782,10.215 15.979,10.108 16.180 C 9.987 16.405,9.988 16.836,10.110 17.066 C 10.224 17.282,10.480 17.499,10.692 17.557 C 10.806 17.589,11.177 17.600,11.843 17.592 L 12.827 17.580 13.022 17.459 C 13.303 17.285,13.454 17.026,13.473 16.682 C 13.499 16.232,13.280 15.861,12.894 15.700 C 12.684 15.612,10.804 15.615,10.600 15.704 " stroke="none" fill-rule="evenodd"></path></svg>