<svg xmlns="http://www.w3.org/2000/svg" width="24" height="24" fill="currentColor" class="mmi mmi-iron" viewBox="0 0 24 24"><path d="M3.667 3.065 C 3.303 3.177,3.000 3.602,3.000 4.000 C 3.000 4.153,3.295 5.327,3.422 5.680 C 3.917 7.056,4.981 8.140,6.368 8.682 C 6.484 8.727,6.769 8.812,7.000 8.871 L 7.420 8.977 12.880 8.990 L 18.340 9.002 18.650 9.791 C 18.966 10.595,19.400 11.783,19.400 11.842 C 19.400 11.860,19.215 11.787,18.990 11.679 C 18.272 11.337,17.504 11.126,16.660 11.039 C 16.355 11.008,15.123 10.999,12.640 11.010 C 8.747 11.027,8.802 11.024,7.800 11.266 C 5.015 11.939,2.810 14.154,1.626 17.466 C 1.332 18.289,1.000 19.635,1.000 20.006 C 1.000 20.244,1.121 20.523,1.303 20.705 C 1.624 21.026,0.669 21.000,12.000 21.000 C 23.339 21.000,22.375 21.027,22.700 20.702 C 22.818 20.584,22.895 20.459,22.942 20.309 C 23.012 20.090,23.011 20.086,22.727 17.415 L 22.443 14.740 22.084 13.600 C 21.405 11.443,20.717 9.502,20.222 8.341 C 20.100 8.056,20.000 7.786,20.000 7.741 C 20.001 7.533,20.209 7.227,20.685 6.730 C 21.278 6.112,21.484 5.841,21.685 5.416 C 21.865 5.036,21.948 4.706,21.985 4.234 C 22.018 3.794,21.941 3.539,21.702 3.300 C 21.375 2.973,22.207 3.000,12.503 3.003 C 4.981 3.005,3.835 3.013,3.667 3.065 M19.154 5.430 C 18.621 5.978,18.309 6.442,18.146 6.930 C 18.124 6.996,17.842 7.000,12.980 7.000 C 7.382 7.000,7.566 7.007,6.997 6.775 C 6.459 6.557,5.895 6.086,5.588 5.598 C 5.451 5.381,5.320 5.106,5.320 5.035 C 5.320 5.015,8.383 5.000,12.446 5.000 L 19.573 5.000 19.154 5.430 M17.145 13.130 C 17.961 13.345,18.671 13.696,19.335 14.215 C 19.722 14.517,20.520 15.337,20.520 15.433 C 20.521 15.470,20.602 16.256,20.700 17.180 C 20.799 18.104,20.880 18.892,20.880 18.930 C 20.880 18.996,20.433 19.000,12.057 19.000 L 3.235 19.000 3.260 18.910 C 3.780 17.070,4.709 15.473,5.825 14.500 C 6.791 13.657,7.842 13.211,9.300 13.026 C 9.366 13.017,11.067 13.013,13.080 13.017 L 16.740 13.023 17.145 13.130 M13.664 15.063 C 13.436 15.146,13.257 15.297,13.131 15.511 C 13.036 15.672,13.020 15.744,13.020 16.000 C 13.020 16.256,13.036 16.328,13.131 16.489 C 13.470 17.065,14.234 17.168,14.701 16.701 C 14.881 16.521,15.000 16.242,15.000 16.000 C 15.000 15.326,14.295 14.832,13.664 15.063 M16.664 15.063 C 16.436 15.146,16.257 15.297,16.131 15.511 C 16.036 15.672,16.020 15.744,16.020 16.000 C 16.020 16.256,16.036 16.328,16.131 16.489 C 16.470 17.065,17.234 17.168,17.701 16.701 C 17.881 16.521,18.000 16.242,18.000 16.000 C 18.000 15.326,17.295 14.832,16.664 15.063 " fill="#000640" stroke="none" fill-rule="evenodd"></path></svg>