<svg xmlns="http://www.w3.org/2000/svg" width="24" height="24" fill="currentColor" class="mmi mmi-jumpsuit" viewBox="0 0 24 24"><path d="M5.643 1.069 C 5.407 1.152,5.149 1.416,5.066 1.660 C 5.009 1.827,5.000 2.065,5.000 3.388 L 5.000 4.922 4.558 7.571 C 4.315 9.028,4.096 10.292,4.070 10.380 C 4.034 10.504,3.878 10.689,3.380 11.200 C 2.672 11.926,2.431 12.263,2.264 12.764 C 2.154 13.093,2.081 13.633,2.108 13.920 C 2.117 14.019,2.286 15.563,2.484 17.350 C 2.858 20.737,2.882 20.887,3.120 21.360 C 3.489 22.091,4.214 22.675,5.040 22.907 C 5.287 22.976,5.639 22.980,12.000 22.980 C 18.361 22.980,18.713 22.976,18.960 22.907 C 19.969 22.624,20.779 21.844,21.075 20.870 C 21.181 20.523,21.888 14.242,21.885 13.680 C 21.882 13.079,21.706 12.530,21.348 12.000 C 21.281 11.901,20.945 11.532,20.601 11.180 C 20.117 10.684,19.966 10.504,19.930 10.380 C 19.904 10.292,19.685 9.028,19.442 7.571 L 19.000 4.922 19.000 3.388 C 19.000 1.642,18.993 1.591,18.701 1.299 C 18.310 0.908,17.690 0.908,17.299 1.299 C 17.017 1.581,17.000 1.679,17.000 3.046 L 17.000 4.237 16.850 4.276 C 13.320 5.204,11.125 5.222,7.510 4.355 L 7.000 4.233 7.000 3.043 C 7.000 1.680,6.983 1.581,6.701 1.299 C 6.424 1.021,6.024 0.934,5.643 1.069 M7.560 6.417 C 10.418 7.056,12.644 7.138,15.160 6.697 C 15.710 6.600,17.106 6.292,17.170 6.253 C 17.186 6.243,17.200 6.246,17.200 6.259 C 17.200 6.326,17.930 10.645,17.967 10.799 C 18.026 11.041,18.241 11.509,18.404 11.747 C 18.477 11.853,18.819 12.230,19.165 12.584 C 19.737 13.170,19.800 13.248,19.859 13.450 C 19.923 13.670,19.919 13.715,19.559 16.946 C 19.172 20.432,19.171 20.438,18.928 20.694 C 18.869 20.756,18.748 20.846,18.660 20.894 C 18.501 20.979,18.481 20.980,15.750 20.991 L 13.000 21.002 13.000 20.001 L 13.000 19.000 13.573 19.000 C 14.259 19.000,14.454 18.948,14.701 18.701 C 15.092 18.310,15.092 17.690,14.701 17.299 C 14.399 16.997,14.427 17.000,12.000 17.000 C 9.573 17.000,9.601 16.997,9.299 17.299 C 8.908 17.690,8.908 18.310,9.299 18.701 C 9.546 18.948,9.741 19.000,10.427 19.000 L 11.000 19.000 11.000 20.001 L 11.000 21.002 8.250 20.991 L 5.500 20.980 5.334 20.891 C 5.127 20.781,4.909 20.529,4.847 20.331 C 4.822 20.248,4.638 18.716,4.439 16.926 C 4.081 13.715,4.077 13.670,4.141 13.450 C 4.200 13.248,4.263 13.170,4.835 12.584 C 5.181 12.230,5.523 11.853,5.596 11.747 C 5.759 11.509,5.974 11.041,6.033 10.799 C 6.070 10.645,6.800 6.325,6.800 6.259 C 6.800 6.245,6.832 6.245,6.870 6.257 C 6.909 6.269,7.219 6.341,7.560 6.417 M8.664 9.063 C 8.436 9.146,8.257 9.297,8.131 9.511 L 8.020 9.700 8.021 10.500 C 8.021 10.943,8.045 11.452,8.073 11.640 C 8.181 12.354,8.408 13.014,8.701 13.464 C 8.925 13.808,9.416 14.272,9.763 14.468 C 10.786 15.046,12.354 15.166,13.572 14.758 C 14.643 14.400,15.330 13.702,15.695 12.600 C 15.891 12.007,15.962 11.534,15.988 10.657 C 16.016 9.752,15.979 9.576,15.702 9.300 C 15.389 8.987,15.548 9.000,11.983 9.003 C 9.342 9.005,8.794 9.015,8.664 9.063 M13.960 11.136 C 13.960 11.341,13.858 11.831,13.762 12.086 C 13.534 12.694,12.946 12.999,12.000 12.999 C 11.096 12.999,10.546 12.738,10.283 12.185 C 10.167 11.941,10.040 11.393,10.040 11.136 L 10.040 11.000 12.000 11.000 L 13.960 11.000 13.960 11.136 " fill="#000640" stroke="none" fill-rule="evenodd"></path></svg>