<svg xmlns="http://www.w3.org/2000/svg" width="24" height="24" fill="currentColor" class="mmi mmi-key-v2" viewBox="0 0 24 24"><path d="M18.660 1.066 C 18.472 1.122,18.190 1.396,13.892 5.691 L 9.324 10.255 9.032 10.189 C 8.393 10.044,8.201 10.023,7.500 10.024 C 6.995 10.025,6.669 10.046,6.411 10.094 C 4.997 10.356,3.785 11.000,2.824 12.002 C -0.091 15.039,0.595 19.968,4.232 22.108 C 6.106 23.211,8.443 23.284,10.407 22.302 C 11.065 21.973,11.521 21.640,12.082 21.081 C 12.964 20.201,13.499 19.261,13.800 18.065 C 14.050 17.070,14.061 16.092,13.833 15.068 L 13.746 14.675 15.808 12.608 C 17.668 10.742,17.876 10.521,17.935 10.343 C 17.983 10.198,18.000 9.995,18.000 9.573 L 18.000 9.000 18.573 9.000 C 19.259 9.000,19.454 8.948,19.701 8.701 C 19.948 8.454,20.000 8.259,20.000 7.573 L 20.000 7.000 20.573 7.000 C 21.001 7.000,21.195 6.983,21.340 6.934 C 21.611 6.842,21.855 6.588,21.937 6.315 C 22.031 6.004,22.480 3.244,22.480 2.982 C 22.480 2.839,22.450 2.695,22.396 2.581 C 22.235 2.239,22.129 2.179,20.595 1.566 C 19.083 0.963,19.039 0.952,18.660 1.066 M20.358 3.628 C 20.374 3.641,20.294 4.186,20.192 4.770 L 20.151 5.000 19.503 5.000 C 18.734 5.000,18.553 5.045,18.299 5.299 C 18.052 5.546,18.000 5.741,18.000 6.427 L 18.000 7.000 17.427 7.000 C 16.741 7.000,16.546 7.052,16.299 7.299 C 16.031 7.567,16.000 7.714,16.000 8.717 L 16.000 9.580 14.408 11.172 L 12.816 12.764 12.681 12.576 C 12.478 12.292,11.844 11.648,11.524 11.400 L 11.241 11.180 15.246 7.175 L 19.251 3.169 19.795 3.392 C 20.095 3.514,20.348 3.621,20.358 3.628 M8.243 12.065 C 10.137 12.390,11.610 13.863,11.935 15.757 C 12.352 18.186,10.692 20.515,8.243 20.935 C 5.222 21.454,2.546 18.778,3.065 15.757 C 3.485 13.309,5.814 11.648,8.243 12.065 M5.664 17.063 C 5.436 17.146,5.257 17.297,5.131 17.511 C 5.036 17.672,5.020 17.744,5.020 18.000 C 5.020 18.256,5.036 18.328,5.131 18.489 C 5.470 19.065,6.234 19.168,6.701 18.701 C 7.092 18.310,7.092 17.690,6.701 17.299 C 6.429 17.027,6.018 16.933,5.664 17.063 " fill="#000640" stroke="none" fill-rule="evenodd"></path></svg>