<svg xmlns="http://www.w3.org/2000/svg" width="24" height="24" fill="currentColor" class="mmi mmi-key" viewBox="0 0 24 24"><path d="M19.800 1.037 C 19.723 1.053,19.597 1.098,19.520 1.137 C 19.443 1.176,16.885 3.701,13.836 6.748 L 8.293 12.287 7.876 12.185 C 6.750 11.907,5.704 11.954,4.642 12.328 C 2.839 12.964,1.474 14.558,1.092 16.473 C 0.995 16.962,0.995 18.054,1.093 18.520 C 1.334 19.661,1.833 20.597,2.619 21.380 C 3.061 21.821,3.441 22.099,3.974 22.374 C 6.110 23.473,8.689 23.073,10.381 21.381 C 12.498 19.264,12.528 15.836,10.447 13.679 L 10.100 13.319 12.550 10.870 L 14.999 8.421 16.450 9.868 C 18.034 11.450,18.070 11.478,18.500 11.478 C 18.933 11.478,18.955 11.461,20.691 9.728 C 22.443 7.979,22.481 7.933,22.479 7.502 C 22.478 7.069,22.450 7.034,20.869 5.450 L 19.422 4.001 20.106 3.310 C 20.520 2.893,20.826 2.549,20.880 2.442 C 20.987 2.229,21.001 1.855,20.910 1.637 C 20.732 1.212,20.239 0.945,19.800 1.037 M19.050 6.470 L 20.080 7.501 19.290 8.290 L 18.499 9.080 17.460 8.040 L 16.421 7.000 17.200 6.220 C 17.629 5.791,17.989 5.440,18.000 5.440 C 18.011 5.440,18.484 5.904,19.050 6.470 M7.452 14.137 C 8.643 14.488,9.499 15.342,9.867 16.548 C 9.962 16.863,9.974 16.963,9.974 17.500 C 9.974 18.037,9.962 18.137,9.867 18.452 C 9.499 19.656,8.656 20.499,7.452 20.867 C 7.137 20.962,7.037 20.974,6.500 20.974 C 5.963 20.974,5.863 20.962,5.548 20.867 C 4.344 20.499,3.501 19.656,3.133 18.452 C 3.038 18.137,3.026 18.037,3.026 17.500 C 3.026 16.963,3.038 16.863,3.133 16.548 C 3.541 15.212,4.576 14.288,5.946 14.039 C 6.307 13.974,7.063 14.023,7.452 14.137 M5.664 17.063 C 5.436 17.146,5.257 17.297,5.131 17.511 C 5.036 17.672,5.020 17.744,5.020 18.000 C 5.020 18.256,5.036 18.328,5.131 18.489 C 5.470 19.065,6.234 19.168,6.701 18.701 C 7.092 18.310,7.092 17.690,6.701 17.299 C 6.429 17.027,6.018 16.933,5.664 17.063 " fill="#000640" stroke="none" fill-rule="evenodd"></path></svg>