<svg xmlns="http://www.w3.org/2000/svg" width="24" height="24" fill="currentColor" class="mmi mmi-keypad" viewBox="0 0 24 24"><path d="M3.580 1.047 C 3.236 1.113,2.883 1.310,2.596 1.596 C 1.800 2.393,1.800 3.607,2.596 4.404 C 3.393 5.200,4.607 5.200,5.404 4.404 C 6.200 3.607,6.200 2.393,5.404 1.596 C 4.913 1.106,4.277 0.914,3.580 1.047 M11.580 1.047 C 10.859 1.185,10.199 1.848,10.044 2.592 C 9.789 3.816,10.751 5.000,12.000 5.000 C 13.080 5.000,14.000 4.080,14.000 3.000 C 14.000 2.477,13.790 1.983,13.404 1.596 C 12.913 1.106,12.277 0.914,11.580 1.047 M19.580 1.047 C 18.859 1.185,18.199 1.848,18.044 2.592 C 17.789 3.816,18.751 5.000,20.000 5.000 C 21.080 5.000,22.000 4.080,22.000 3.000 C 22.000 2.477,21.790 1.983,21.404 1.596 C 20.913 1.106,20.277 0.914,19.580 1.047 M3.580 7.047 C 3.236 7.113,2.883 7.310,2.596 7.596 C 1.800 8.393,1.800 9.607,2.596 10.404 C 3.393 11.200,4.607 11.200,5.404 10.404 C 6.200 9.607,6.200 8.393,5.404 7.596 C 4.913 7.106,4.277 6.914,3.580 7.047 M11.580 7.047 C 10.859 7.185,10.199 7.848,10.044 8.592 C 9.789 9.816,10.751 11.000,12.000 11.000 C 13.080 11.000,14.000 10.080,14.000 9.000 C 14.000 8.477,13.790 7.983,13.404 7.596 C 12.913 7.106,12.277 6.914,11.580 7.047 M19.580 7.047 C 18.859 7.185,18.199 7.848,18.044 8.592 C 17.789 9.816,18.751 11.000,20.000 11.000 C 21.080 11.000,22.000 10.080,22.000 9.000 C 22.000 8.477,21.790 7.983,21.404 7.596 C 20.913 7.106,20.277 6.914,19.580 7.047 M3.580 13.047 C 3.236 13.113,2.883 13.310,2.596 13.596 C 1.800 14.393,1.800 15.607,2.596 16.404 C 3.393 17.200,4.607 17.200,5.404 16.404 C 6.200 15.607,6.200 14.393,5.404 13.596 C 4.913 13.106,4.277 12.914,3.580 13.047 M11.580 13.047 C 10.707 13.214,10.000 14.087,10.000 15.000 C 10.000 15.920,10.690 16.768,11.592 16.956 C 12.816 17.211,14.000 16.249,14.000 15.000 C 14.000 14.477,13.790 13.983,13.404 13.596 C 12.913 13.106,12.277 12.914,11.580 13.047 M19.580 13.047 C 18.707 13.214,18.000 14.087,18.000 15.000 C 18.000 15.920,18.690 16.768,19.592 16.956 C 20.816 17.211,22.000 16.249,22.000 15.000 C 22.000 14.477,21.790 13.983,21.404 13.596 C 20.913 13.106,20.277 12.914,19.580 13.047 M11.580 19.047 C 10.859 19.185,10.199 19.848,10.044 20.592 C 9.789 21.816,10.751 23.000,12.000 23.000 C 13.080 23.000,14.000 22.080,14.000 21.000 C 14.000 20.477,13.790 19.983,13.404 19.596 C 12.913 19.106,12.277 18.914,11.580 19.047 " fill="#000640" stroke="none" fill-rule="evenodd"></path></svg>