<svg xmlns="http://www.w3.org/2000/svg" width="24" height="24" fill="currentColor" class="mmi mmi-kite" viewBox="0 0 24 24"><path d="M11.648 1.070 C 11.552 1.110,9.467 2.704,6.858 4.734 C 3.083 7.670,2.221 8.359,2.137 8.502 C 2.016 8.708,1.973 9.032,2.036 9.264 C 2.065 9.375,3.592 11.613,6.673 16.064 C 11.660 23.270,11.398 22.919,11.821 22.982 C 12.090 23.023,12.336 22.970,12.546 22.828 C 12.710 22.717,13.333 21.835,17.327 16.064 C 20.408 11.613,21.935 9.375,21.964 9.264 C 22.027 9.032,21.984 8.708,21.863 8.502 C 21.780 8.359,20.919 7.672,17.170 4.755 C 14.646 2.790,12.509 1.147,12.422 1.103 C 12.209 0.996,11.866 0.981,11.648 1.070 M11.000 6.040 L 11.000 8.000 8.472 8.000 C 6.533 8.000,5.955 7.989,5.991 7.953 C 6.083 7.861,10.941 4.085,10.970 4.082 C 10.987 4.081,11.000 4.962,11.000 6.040 M15.472 5.966 C 16.807 7.003,17.936 7.885,17.979 7.926 C 18.056 7.998,17.996 8.000,15.529 8.000 L 13.000 8.000 13.000 6.040 C 13.000 4.962,13.010 4.080,13.022 4.080 C 13.034 4.080,14.136 4.929,15.472 5.966 M11.000 14.388 C 11.000 16.969,10.985 18.760,10.964 18.738 C 10.937 18.709,5.745 11.210,5.046 10.190 L 4.916 10.000 7.958 10.000 L 11.000 10.000 11.000 14.388 M19.059 10.042 C 18.992 10.151,13.067 18.705,13.036 18.738 C 13.015 18.760,13.000 16.946,13.000 14.388 L 13.000 10.000 16.042 10.000 C 18.170 10.000,19.077 10.013,19.059 10.042 " fill="#000640" stroke="none" fill-rule="evenodd"></path></svg>