<svg xmlns="http://www.w3.org/2000/svg" width="24" height="24" fill="currentColor" class="mmi mmi-knife" viewBox="0 0 24 24"><path d="M20.080 1.043 C 19.939 1.106,18.540 2.481,13.640 7.374 C 7.583 13.422,7.288 13.709,4.549 16.242 C 1.414 19.141,1.505 19.042,1.509 19.520 C 1.512 19.802,1.660 20.106,1.878 20.278 C 1.956 20.339,2.813 20.956,3.783 21.648 C 5.671 22.995,5.737 23.033,6.129 22.986 C 6.557 22.936,6.531 22.966,8.581 20.190 C 9.615 18.789,10.484 17.620,10.511 17.593 C 10.552 17.552,10.690 17.670,11.211 18.187 C 11.568 18.542,11.921 18.862,11.995 18.899 C 12.201 19.003,12.516 19.021,12.750 18.943 C 12.902 18.893,13.065 18.775,13.406 18.468 C 15.523 16.566,17.405 14.527,18.778 12.647 C 20.516 10.268,21.516 8.109,21.887 5.940 C 22.012 5.207,22.013 3.913,21.889 3.240 C 21.733 2.394,21.441 1.535,21.226 1.290 C 20.955 0.981,20.456 0.874,20.080 1.043 M19.980 4.780 C 19.856 7.388,18.402 10.210,15.429 13.614 C 14.902 14.218,12.557 16.600,12.490 16.600 C 12.473 16.600,11.875 16.015,11.160 15.300 L 9.860 14.000 14.900 8.960 L 19.940 3.919 19.972 4.110 C 19.989 4.214,19.993 4.516,19.980 4.780 M8.768 15.750 L 9.114 16.100 7.474 18.320 C 6.572 19.541,5.819 20.555,5.801 20.574 C 5.766 20.610,4.120 19.458,4.120 19.398 C 4.120 19.364,8.361 15.405,8.401 15.402 C 8.412 15.401,8.578 15.558,8.768 15.750 " fill="#000640" stroke="none" fill-rule="evenodd"></path></svg>