<svg xmlns="http://www.w3.org/2000/svg" width="24" height="24" fill="currentColor" class="mmi mmi-labbottle" viewBox="0 0 24 24"><path d="M8.664 1.063 C 8.436 1.146,8.257 1.297,8.131 1.511 L 8.020 1.700 8.020 3.503 L 8.020 5.306 8.141 5.502 C 8.290 5.743,8.514 5.904,8.790 5.969 L 9.000 6.019 8.999 7.639 C 8.999 9.436,8.978 9.640,8.758 10.029 C 8.690 10.150,7.391 12.114,5.870 14.394 C 4.350 16.674,3.057 18.649,2.996 18.782 C 2.674 19.492,2.647 20.242,2.916 21.002 C 3.223 21.868,3.921 22.553,4.800 22.851 L 5.180 22.980 12.000 22.980 L 18.820 22.980 19.200 22.851 C 20.079 22.553,20.777 21.868,21.084 21.002 C 21.353 20.242,21.326 19.492,21.004 18.782 C 20.943 18.649,19.632 16.648,18.091 14.336 C 16.549 12.023,15.250 10.058,15.204 9.967 C 15.019 9.605,15.001 9.405,15.001 7.650 C 15.000 6.080,15.004 6.000,15.073 6.000 C 15.246 6.000,15.544 5.858,15.701 5.701 C 15.995 5.407,16.000 5.371,16.000 3.500 C 16.000 1.629,15.995 1.593,15.701 1.299 C 15.389 0.987,15.547 1.000,11.983 1.003 C 9.342 1.005,8.794 1.015,8.664 1.063 M14.000 3.500 L 14.000 4.000 12.000 4.000 L 10.000 4.000 10.000 3.500 L 10.000 3.000 12.000 3.000 L 14.000 3.000 14.000 3.500 M13.010 7.870 C 13.024 9.668,13.028 9.752,13.116 10.060 C 13.315 10.763,13.362 10.840,16.294 15.239 C 17.855 17.582,19.156 19.557,19.186 19.628 C 19.256 19.795,19.255 20.206,19.185 20.374 C 19.107 20.562,18.894 20.790,18.704 20.892 L 18.540 20.980 12.060 20.991 C 6.093 21.001,5.566 20.997,5.404 20.935 C 5.177 20.850,4.927 20.623,4.835 20.420 C 4.747 20.227,4.736 19.814,4.814 19.627 C 4.844 19.556,6.130 17.604,7.672 15.291 C 9.214 12.978,10.522 10.995,10.578 10.885 C 10.633 10.775,10.726 10.544,10.784 10.372 C 10.977 9.797,11.000 9.520,11.000 7.690 L 11.000 6.000 11.997 6.000 L 12.994 6.000 13.010 7.870 " fill="#000640" stroke="none" fill-rule="evenodd"></path></svg>