<svg xmlns="http://www.w3.org/2000/svg" width="24" height="24" fill="currentColor" class="mmi mmi-labbottle-filled" viewBox="0 0 24 24"><path d="M8.664 1.063 C 8.436 1.146,8.257 1.297,8.131 1.511 L 8.020 1.700 8.020 3.503 L 8.020 5.306 8.141 5.502 C 8.290 5.743,8.514 5.904,8.790 5.969 L 9.000 6.019 8.999 7.639 C 8.999 9.436,8.978 9.640,8.758 10.029 C 8.690 10.150,7.391 12.114,5.870 14.394 C 4.350 16.674,3.057 18.649,2.996 18.782 C 2.674 19.492,2.647 20.242,2.916 21.002 C 3.223 21.868,3.921 22.553,4.800 22.851 L 5.180 22.980 11.840 22.992 C 16.316 22.999,18.580 22.989,18.744 22.961 C 19.404 22.849,19.904 22.586,20.380 22.102 C 20.745 21.732,20.926 21.448,21.084 21.002 C 21.353 20.242,21.326 19.492,21.004 18.782 C 20.943 18.649,19.632 16.648,18.091 14.336 C 16.549 12.023,15.250 10.058,15.204 9.967 C 15.019 9.605,15.001 9.405,15.001 7.650 C 15.000 6.080,15.004 6.000,15.073 6.000 C 15.246 6.000,15.544 5.858,15.701 5.701 C 15.995 5.407,16.000 5.371,16.000 3.500 C 16.000 1.629,15.995 1.593,15.701 1.299 C 15.389 0.987,15.547 1.000,11.983 1.003 C 9.342 1.005,8.794 1.015,8.664 1.063 M14.000 3.500 L 14.000 4.000 12.000 4.000 L 10.000 4.000 10.000 3.500 L 10.000 3.000 12.000 3.000 L 14.000 3.000 14.000 3.500 M13.010 7.870 C 13.024 9.668,13.028 9.752,13.116 10.060 C 13.308 10.740,13.404 10.903,15.250 13.674 C 16.237 15.156,17.039 16.373,17.032 16.379 C 16.993 16.414,16.180 16.524,15.738 16.556 C 15.205 16.593,14.444 16.560,13.990 16.479 C 13.616 16.412,13.018 16.259,12.280 16.039 C 10.601 15.540,10.103 15.460,8.674 15.460 C 7.947 15.460,7.576 15.446,7.592 15.420 C 7.605 15.398,8.259 14.413,9.047 13.231 C 9.834 12.049,10.523 10.992,10.578 10.883 C 10.634 10.774,10.726 10.544,10.784 10.372 C 10.977 9.797,11.000 9.520,11.000 7.690 L 11.000 6.000 11.997 6.000 L 12.994 6.000 13.010 7.870 M9.681 17.482 C 10.167 17.542,10.832 17.696,11.659 17.942 C 13.507 18.492,14.451 18.632,15.785 18.554 C 16.493 18.514,17.721 18.319,18.167 18.178 C 18.221 18.161,18.336 18.305,18.683 18.824 C 18.928 19.191,19.154 19.551,19.184 19.625 C 19.256 19.795,19.256 20.204,19.185 20.374 C 19.107 20.562,18.894 20.790,18.704 20.892 L 18.540 20.980 12.060 20.991 C 6.093 21.001,5.566 20.997,5.404 20.935 C 5.177 20.850,4.927 20.623,4.835 20.420 C 4.753 20.240,4.735 19.832,4.802 19.653 C 4.825 19.591,5.095 19.161,5.403 18.697 L 5.963 17.854 6.491 17.730 C 6.940 17.624,7.467 17.531,7.980 17.467 C 8.252 17.433,9.366 17.443,9.681 17.482 " fill="#000640" stroke="none" fill-rule="evenodd"></path></svg>