<svg xmlns="http://www.w3.org/2000/svg" width="24" height="24" fill="currentColor" class="mmi mmi-lamp-v3" viewBox="0 0 24 24"><path d="M11.320 0.028 C 7.348 0.327,4.001 3.265,3.201 7.156 C 2.487 10.623,3.821 14.133,6.648 16.230 L 6.996 16.489 7.010 19.014 C 7.026 21.823,7.012 21.674,7.312 22.296 C 7.614 22.924,8.095 23.398,8.740 23.704 C 9.346 23.991,9.448 24.000,12.000 24.000 C 14.552 24.000,14.654 23.991,15.260 23.704 C 15.920 23.391,16.391 22.920,16.704 22.260 C 16.993 21.650,17.000 21.567,17.000 18.862 L 17.000 16.493 17.350 16.231 C 19.025 14.977,20.206 13.224,20.703 11.254 C 20.919 10.399,20.977 9.925,20.977 9.000 C 20.977 8.065,20.917 7.574,20.699 6.727 C 19.626 2.547,15.642 -0.299,11.320 0.028 M12.880 2.058 C 17.265 2.642,20.022 7.021,18.641 11.210 C 18.473 11.719,18.012 12.629,17.710 13.048 C 17.238 13.703,16.628 14.305,15.983 14.755 L 15.747 14.920 14.569 14.920 C 13.644 14.920,13.395 14.909,13.410 14.870 C 13.671 14.169,14.977 10.207,14.990 10.074 C 15.035 9.641,14.732 9.186,14.316 9.063 C 14.001 8.969,9.999 8.969,9.684 9.063 C 9.268 9.186,8.965 9.641,9.010 10.074 C 9.023 10.207,10.376 14.313,10.589 14.868 C 10.605 14.910,10.380 14.920,9.429 14.920 L 8.250 14.920 7.895 14.670 C 7.432 14.343,6.650 13.558,6.312 13.080 C 4.141 10.009,4.726 5.859,7.660 3.513 C 8.579 2.778,9.808 2.245,10.960 2.083 C 11.125 2.059,11.305 2.034,11.360 2.026 C 11.614 1.988,12.501 2.007,12.880 2.058 M12.590 11.050 C 12.580 11.078,12.448 11.473,12.296 11.930 C 12.145 12.387,12.012 12.760,12.000 12.760 C 11.988 12.760,11.855 12.387,11.704 11.930 C 11.552 11.473,11.420 11.078,11.410 11.050 C 11.396 11.011,11.530 11.000,12.000 11.000 C 12.470 11.000,12.604 11.011,12.590 11.050 M15.000 19.033 C 15.000 21.424,15.003 21.399,14.701 21.701 C 14.399 22.003,14.428 22.000,11.998 22.000 C 9.670 22.000,9.664 22.000,9.374 21.778 C 9.301 21.723,9.192 21.592,9.131 21.489 L 9.020 21.300 9.009 19.110 L 8.997 16.920 11.999 16.920 L 15.000 16.920 15.000 19.033 M10.664 18.063 C 10.436 18.146,10.257 18.297,10.131 18.511 C 10.036 18.672,10.020 18.744,10.020 19.000 C 10.020 19.256,10.036 19.328,10.131 19.489 C 10.260 19.709,10.437 19.854,10.678 19.939 C 10.941 20.032,13.064 20.028,13.340 19.934 C 13.709 19.808,14.000 19.396,14.000 19.000 C 14.000 18.604,13.709 18.192,13.340 18.066 C 13.073 17.975,10.910 17.973,10.664 18.063 " fill="#000640" stroke="none" fill-rule="evenodd"></path></svg>