<svg xmlns="http://www.w3.org/2000/svg" width="24" height="24" fill="currentColor" class="mmi mmi-laptop" viewBox="0 0 24 24"><path d="M5.503 2.042 C 4.571 2.200,3.727 2.840,3.312 3.704 C 3.001 4.350,3.025 3.925,3.001 9.140 L 2.980 13.820 2.000 15.772 L 1.020 17.724 1.020 18.592 C 1.020 19.580,1.043 19.716,1.298 20.260 C 1.606 20.918,2.079 21.391,2.740 21.704 C 3.409 22.021,2.760 22.000,12.000 22.000 C 21.240 22.000,20.591 22.021,21.260 21.704 C 21.920 21.391,22.391 20.920,22.704 20.260 C 22.951 19.740,23.009 19.373,22.993 18.458 L 22.980 17.723 21.990 15.741 L 21.000 13.758 21.000 9.264 C 21.000 4.194,21.010 4.388,20.704 3.740 C 20.398 3.095,19.924 2.614,19.296 2.312 C 18.639 1.996,19.291 2.023,12.120 2.015 C 8.589 2.012,5.611 2.024,5.503 2.042 M18.340 4.066 C 18.455 4.105,18.603 4.201,18.701 4.299 C 19.017 4.615,19.000 4.346,19.000 8.927 L 19.000 13.000 11.999 13.000 L 4.999 13.000 5.009 8.850 L 5.020 4.700 5.131 4.511 C 5.256 4.298,5.449 4.136,5.670 4.057 C 5.793 4.013,6.939 4.003,11.983 4.002 C 17.617 4.000,18.162 4.006,18.340 4.066 M20.190 16.620 L 21.000 18.240 21.000 18.693 C 21.000 19.249,20.935 19.467,20.701 19.701 C 20.376 20.026,21.144 20.000,11.998 20.000 C 3.106 20.000,3.684 20.015,3.374 19.778 C 3.301 19.723,3.192 19.592,3.131 19.489 C 3.028 19.313,3.019 19.263,3.006 18.780 L 2.991 18.260 3.805 16.630 L 4.619 15.000 12.000 15.000 L 19.380 15.000 20.190 16.620 M9.664 17.063 C 9.436 17.146,9.257 17.297,9.131 17.511 C 9.036 17.672,9.020 17.744,9.020 18.000 C 9.020 18.256,9.036 18.328,9.131 18.489 C 9.192 18.592,9.301 18.723,9.374 18.778 C 9.664 19.000,9.670 19.000,11.998 19.000 C 14.428 19.000,14.399 19.003,14.701 18.701 C 15.092 18.310,15.092 17.690,14.701 17.299 C 14.398 16.996,14.430 17.000,11.983 17.003 C 10.210 17.005,9.792 17.016,9.664 17.063 " fill="#000640" stroke="none" fill-rule="evenodd"></path></svg>