<svg xmlns="http://www.w3.org/2000/svg" width="24" height="24" fill="currentColor" class="mmi mmi-leaf" viewBox="0 0 24 24"><path d="M4.340 1.025 C 3.601 1.059,2.907 1.121,2.758 1.165 C 2.556 1.226,2.300 1.444,2.199 1.643 C 2.072 1.890,2.040 2.256,2.014 3.760 C 1.898 10.438,3.349 15.675,6.091 18.476 C 7.419 19.832,8.847 20.585,10.702 20.906 C 11.269 21.004,12.769 21.005,13.380 20.908 C 14.836 20.675,16.118 20.256,17.509 19.558 L 18.279 19.171 18.561 19.605 C 19.169 20.537,19.796 21.678,20.042 22.300 C 20.260 22.851,20.804 23.122,21.322 22.939 C 21.874 22.744,22.117 22.212,21.921 21.624 C 21.712 20.996,20.940 19.580,20.130 18.340 C 19.815 17.859,19.794 17.814,19.845 17.733 C 19.875 17.684,20.044 17.432,20.220 17.173 C 20.677 16.499,21.222 15.393,21.474 14.627 C 22.064 12.832,22.107 11.280,21.616 9.500 C 20.253 4.560,15.502 1.648,7.880 1.081 C 7.281 1.036,4.905 0.999,4.340 1.025 M7.040 3.040 C 11.285 3.254,14.553 4.199,16.800 5.863 C 17.333 6.257,18.181 7.109,18.528 7.601 C 19.162 8.496,19.595 9.495,19.820 10.586 C 20.162 12.243,19.795 14.026,18.758 15.744 L 18.554 16.081 18.043 15.410 C 17.762 15.042,17.331 14.489,17.086 14.181 L 16.640 13.622 16.639 11.441 C 16.638 9.009,16.647 9.093,16.357 8.803 C 15.950 8.397,15.247 8.428,14.883 8.869 C 14.668 9.128,14.640 9.304,14.640 10.373 L 14.640 11.331 13.930 10.635 C 12.542 9.276,11.159 8.148,10.745 8.036 C 10.413 7.946,10.025 8.062,9.772 8.326 C 9.406 8.708,9.422 9.349,9.805 9.706 C 9.879 9.775,10.109 9.959,10.315 10.114 C 10.976 10.611,11.677 11.235,12.580 12.128 L 13.460 12.998 12.155 12.999 C 10.745 13.000,10.649 13.012,10.374 13.222 C 10.301 13.277,10.192 13.408,10.131 13.511 C 10.036 13.672,10.020 13.744,10.020 14.000 C 10.020 14.256,10.036 14.328,10.131 14.489 C 10.192 14.592,10.301 14.723,10.374 14.778 C 10.664 15.000,10.668 15.000,13.015 15.000 L 15.180 15.001 15.459 15.350 C 15.782 15.755,16.555 16.759,16.892 17.211 L 17.124 17.523 16.432 17.858 C 15.643 18.241,14.960 18.497,14.192 18.698 C 13.300 18.932,12.958 18.976,12.020 18.976 C 11.302 18.976,11.121 18.963,10.770 18.887 C 9.400 18.591,8.275 17.937,7.351 16.900 C 5.499 14.822,4.412 11.452,4.080 6.760 C 4.021 5.929,3.983 3.889,4.018 3.432 L 4.047 3.043 4.334 3.030 C 4.989 2.998,6.311 3.003,7.040 3.040 " fill="#000640" stroke="none" fill-rule="evenodd"></path></svg>