<svg xmlns="http://www.w3.org/2000/svg" width="24" height="24" fill="currentColor" class="mmi mmi-linegraphs-down" viewBox="0 0 24 24"><path d="M1.758 5.054 C 1.409 5.149,1.158 5.397,1.056 5.748 C 0.982 6.001,1.002 6.214,1.121 6.460 C 1.172 6.567,2.400 7.821,4.829 10.245 C 8.150 13.561,8.477 13.876,8.657 13.935 C 8.907 14.017,9.094 14.017,9.343 13.935 C 9.520 13.876,9.719 13.691,11.271 12.145 L 13.001 10.421 16.290 13.711 L 19.580 17.000 18.215 17.000 C 16.739 17.000,16.651 17.011,16.374 17.222 C 16.301 17.277,16.192 17.408,16.131 17.511 C 16.036 17.672,16.020 17.744,16.020 18.000 C 16.020 18.256,16.036 18.328,16.131 18.489 C 16.192 18.592,16.301 18.723,16.374 18.778 C 16.669 19.003,16.624 19.000,19.498 19.000 C 22.486 19.000,22.393 19.009,22.701 18.701 C 23.009 18.394,23.000 18.486,23.000 15.500 C 23.000 12.513,23.009 12.607,22.700 12.298 C 22.390 11.988,21.932 11.920,21.531 12.126 C 21.315 12.238,21.103 12.491,21.042 12.711 C 21.017 12.800,21.000 13.406,21.000 14.220 L 21.000 15.579 17.270 11.854 C 13.857 8.446,13.523 8.124,13.343 8.065 C 13.093 7.983,12.906 7.983,12.657 8.065 C 12.480 8.124,12.281 8.309,10.730 9.855 L 8.999 11.579 5.810 8.393 C 3.729 6.315,2.564 5.180,2.460 5.129 C 2.243 5.023,1.977 4.994,1.758 5.054 " fill="#000640" stroke="none" fill-rule="evenodd"></path></svg>