<svg xmlns="http://www.w3.org/2000/svg" width="24" height="24" fill="currentColor" class="mmi mmi-linespacing" viewBox="0 0 24 24"><path d="M4.640 2.068 C 4.489 2.120,4.239 2.350,3.089 3.495 C 1.607 4.970,1.520 5.078,1.520 5.453 C 1.520 5.772,1.597 5.960,1.819 6.181 C 2.040 6.403,2.229 6.481,2.545 6.479 C 2.857 6.478,3.053 6.359,3.548 5.871 L 4.000 5.424 4.000 12.000 L 4.000 18.576 3.550 18.133 C 3.303 17.890,3.038 17.659,2.962 17.620 C 2.886 17.581,2.714 17.541,2.580 17.530 C 1.825 17.469,1.282 18.266,1.619 18.942 C 1.692 19.089,2.071 19.492,3.089 20.505 C 4.356 21.767,4.476 21.875,4.674 21.940 C 4.934 22.024,5.199 22.006,5.444 21.888 C 5.566 21.829,6.045 21.377,7.007 20.411 C 8.365 19.048,8.394 19.015,8.461 18.784 C 8.573 18.396,8.479 18.043,8.194 17.774 C 7.987 17.580,7.809 17.507,7.540 17.505 C 7.140 17.502,7.030 17.564,6.490 18.093 L 6.000 18.573 6.000 11.999 L 6.000 5.424 6.452 5.871 C 6.947 6.359,7.143 6.478,7.455 6.479 C 7.771 6.481,7.960 6.403,8.181 6.181 C 8.403 5.960,8.480 5.772,8.480 5.453 C 8.480 5.078,8.393 4.970,6.911 3.495 C 5.695 2.285,5.518 2.124,5.343 2.065 C 5.102 1.985,4.878 1.986,4.640 2.068 M10.664 3.063 C 10.436 3.146,10.257 3.297,10.131 3.511 C 10.036 3.672,10.020 3.744,10.020 4.000 C 10.020 4.256,10.036 4.328,10.131 4.489 C 10.192 4.592,10.301 4.723,10.374 4.778 C 10.680 5.011,10.390 5.000,15.998 5.000 C 21.783 5.000,21.381 5.021,21.701 4.701 C 22.092 4.310,22.092 3.690,21.701 3.299 C 21.381 2.979,21.786 3.000,15.983 3.003 C 11.607 3.005,10.796 3.014,10.664 3.063 M10.664 7.063 C 10.436 7.146,10.257 7.297,10.131 7.511 C 10.036 7.672,10.020 7.744,10.020 8.000 C 10.020 8.256,10.036 8.328,10.131 8.489 C 10.192 8.592,10.301 8.723,10.374 8.778 C 10.680 9.011,10.390 9.000,15.998 9.000 C 21.783 9.000,21.381 9.021,21.701 8.701 C 22.092 8.310,22.092 7.690,21.701 7.299 C 21.381 6.979,21.786 7.000,15.983 7.003 C 11.607 7.005,10.796 7.014,10.664 7.063 M10.664 11.063 C 10.436 11.146,10.257 11.297,10.131 11.511 C 10.036 11.672,10.020 11.744,10.020 12.000 C 10.020 12.256,10.036 12.328,10.131 12.489 C 10.192 12.592,10.301 12.723,10.374 12.778 C 10.680 13.011,10.390 13.000,15.998 13.000 C 21.783 13.000,21.381 13.021,21.701 12.701 C 22.092 12.310,22.092 11.690,21.701 11.299 C 21.381 10.979,21.786 11.000,15.983 11.003 C 11.607 11.005,10.796 11.014,10.664 11.063 M10.664 15.063 C 10.436 15.146,10.257 15.297,10.131 15.511 C 10.036 15.672,10.020 15.744,10.020 16.000 C 10.020 16.256,10.036 16.328,10.131 16.489 C 10.192 16.592,10.301 16.723,10.374 16.778 C 10.680 17.011,10.390 17.000,15.998 17.000 C 21.783 17.000,21.381 17.021,21.701 16.701 C 22.092 16.310,22.092 15.690,21.701 15.299 C 21.381 14.979,21.786 15.000,15.983 15.003 C 11.607 15.005,10.796 15.014,10.664 15.063 M10.664 19.063 C 10.436 19.146,10.257 19.297,10.131 19.511 C 10.036 19.672,10.020 19.744,10.020 20.000 C 10.020 20.256,10.036 20.328,10.131 20.489 C 10.192 20.592,10.301 20.723,10.374 20.778 C 10.680 21.011,10.390 21.000,15.998 21.000 C 21.783 21.000,21.381 21.021,21.701 20.701 C 22.092 20.310,22.092 19.690,21.701 19.299 C 21.381 18.979,21.786 19.000,15.983 19.003 C 11.607 19.005,10.796 19.014,10.664 19.063 " fill="#000640" stroke="none" fill-rule="evenodd"></path></svg>