<svg xmlns="http://www.w3.org/2000/svg" width="24" height="24" fill="currentColor" class="mmi mmi-linegraphs-up" viewBox="0 0 24 24"><path d="M16.664 5.063 C 16.436 5.146,16.257 5.297,16.131 5.511 C 16.036 5.672,16.020 5.744,16.020 6.000 C 16.020 6.256,16.036 6.328,16.131 6.489 C 16.192 6.592,16.301 6.723,16.374 6.778 C 16.651 6.989,16.739 7.000,18.215 7.000 L 19.580 7.000 16.290 10.289 L 13.001 13.579 11.271 11.855 C 9.719 10.309,9.520 10.124,9.343 10.065 C 9.094 9.983,8.907 9.983,8.657 10.065 C 8.477 10.124,8.150 10.439,4.829 13.755 C 2.400 16.179,1.172 17.433,1.121 17.540 C 1.000 17.790,0.982 17.999,1.060 18.265 C 1.151 18.581,1.410 18.844,1.717 18.936 C 1.987 19.016,2.051 19.016,2.323 18.937 C 2.534 18.875,2.632 18.781,5.770 15.648 L 9.000 12.422 10.730 14.146 C 12.281 15.691,12.480 15.876,12.657 15.935 C 12.906 16.017,13.093 16.017,13.343 15.935 C 13.523 15.876,13.857 15.554,17.270 12.146 L 21.000 8.421 21.000 9.780 C 21.000 10.594,21.017 11.200,21.042 11.289 C 21.103 11.509,21.315 11.762,21.531 11.874 C 21.932 12.080,22.390 12.012,22.700 11.702 C 23.009 11.393,23.000 11.487,23.000 8.500 C 23.000 5.514,23.009 5.606,22.701 5.299 C 22.393 4.991,22.488 5.000,19.483 5.003 C 17.276 5.005,16.793 5.015,16.664 5.063 " fill="#000640" stroke="none" fill-rule="evenodd"></path></svg>