<svg xmlns="http://www.w3.org/2000/svg" width="24" height="24" fill="currentColor" class="mmi mmi-linegraphs-dot" viewBox="0 0 24 24"><path d="M20.503 4.040 C 19.828 4.162,19.156 4.550,18.703 5.080 C 18.125 5.756,17.881 6.705,18.060 7.574 C 18.123 7.877,18.277 8.308,18.377 8.460 C 18.431 8.544,18.373 8.641,17.252 10.324 C 16.602 11.301,16.057 12.115,16.041 12.133 C 16.024 12.150,15.896 12.133,15.755 12.095 C 15.400 11.997,14.591 11.997,14.260 12.095 C 14.128 12.134,13.981 12.176,13.934 12.187 C 13.860 12.205,13.688 12.009,12.745 10.831 L 11.643 9.454 11.760 9.167 C 12.380 7.644,11.739 5.992,10.260 5.298 C 9.779 5.072,9.546 5.021,9.000 5.021 C 8.454 5.021,8.221 5.072,7.740 5.298 C 6.295 5.976,5.644 7.575,6.202 9.075 C 6.248 9.199,6.330 9.377,6.385 9.471 L 6.485 9.642 5.237 11.831 C 4.550 13.035,3.966 14.045,3.938 14.075 C 3.895 14.121,3.854 14.121,3.674 14.075 C 3.395 14.004,2.603 14.005,2.320 14.076 C 0.505 14.535,-0.466 16.431,0.234 18.151 C 0.521 18.857,1.143 19.479,1.849 19.766 C 3.610 20.483,5.554 19.445,5.938 17.581 C 6.078 16.907,5.952 16.107,5.615 15.529 L 5.515 15.358 6.763 13.169 C 7.450 11.965,8.033 10.956,8.060 10.928 C 8.099 10.884,8.167 10.887,8.442 10.943 C 8.833 11.022,9.407 11.003,9.760 10.898 C 9.881 10.863,10.019 10.824,10.066 10.813 C 10.140 10.795,10.313 10.992,11.255 12.169 L 12.357 13.546 12.240 13.833 C 11.928 14.600,11.926 15.394,12.234 16.151 C 12.602 17.057,13.430 17.734,14.419 17.938 C 16.241 18.315,18.000 16.872,18.000 15.000 C 18.000 14.541,17.818 13.837,17.623 13.540 C 17.569 13.456,17.628 13.357,18.764 11.656 C 19.605 10.394,19.982 9.861,20.031 9.864 C 20.069 9.866,20.239 9.898,20.408 9.934 C 21.376 10.141,22.398 9.831,23.115 9.115 C 24.238 7.992,24.295 6.212,23.246 5.020 C 22.897 4.624,22.276 4.239,21.756 4.097 C 21.491 4.024,20.770 3.991,20.503 4.040 M21.340 6.066 C 21.709 6.192,22.000 6.604,22.000 7.000 C 22.000 7.527,21.527 8.000,21.000 8.000 C 20.758 8.000,20.479 7.881,20.299 7.701 C 19.907 7.309,19.908 6.690,20.300 6.298 C 20.577 6.020,20.957 5.936,21.340 6.066 M9.340 7.066 C 9.709 7.192,10.000 7.604,10.000 8.000 C 10.000 8.527,9.527 9.000,9.000 9.000 C 8.758 9.000,8.479 8.881,8.299 8.701 C 7.907 8.309,7.908 7.690,8.300 7.298 C 8.577 7.020,8.957 6.936,9.340 7.066 M15.340 14.066 C 15.709 14.192,16.000 14.604,16.000 15.000 C 16.000 15.527,15.527 16.000,15.000 16.000 C 14.758 16.000,14.479 15.881,14.299 15.701 C 13.907 15.309,13.908 14.690,14.300 14.298 C 14.577 14.020,14.957 13.936,15.340 14.066 M3.340 16.066 C 3.709 16.192,4.000 16.604,4.000 17.000 C 4.000 17.527,3.527 18.000,3.000 18.000 C 2.758 18.000,2.479 17.881,2.299 17.701 C 1.907 17.309,1.908 16.690,2.300 16.298 C 2.577 16.020,2.957 15.936,3.340 16.066 " fill="#000640" stroke="none" fill-rule="evenodd"></path></svg>