<svg xmlns="http://www.w3.org/2000/svg" width="24" height="24" fill="currentColor" class="mmi mmi-lingerie" viewBox="0 0 24 24"><path d="M6.678 1.062 C 6.427 1.139,6.231 1.327,6.035 1.680 C 5.944 1.845,5.621 2.368,5.317 2.843 C 4.139 4.688,3.732 5.569,3.534 6.700 C 3.453 7.162,3.481 7.892,3.596 8.331 C 3.763 8.970,4.127 9.605,4.616 10.113 L 4.899 10.405 3.947 15.173 C 3.424 17.795,2.997 19.986,2.998 20.043 C 3.001 20.212,3.114 20.495,3.239 20.646 C 3.534 21.004,5.597 21.840,7.220 22.260 C 10.873 23.205,14.603 23.062,18.171 21.841 C 18.900 21.591,19.889 21.182,20.372 20.930 C 20.522 20.852,20.697 20.724,20.761 20.646 C 20.886 20.495,20.999 20.212,21.002 20.043 C 21.003 19.986,20.576 17.795,20.053 15.173 L 19.101 10.405 19.384 10.113 C 20.455 9.001,20.769 7.601,20.305 5.999 C 20.060 5.155,19.646 4.350,18.680 2.840 C 18.376 2.364,18.060 1.854,17.980 1.708 C 17.812 1.403,17.537 1.140,17.325 1.081 C 16.744 0.919,16.164 1.250,16.038 1.814 C 15.974 2.099,16.031 2.336,16.261 2.739 C 16.411 3.002,16.425 3.048,16.367 3.068 C 15.498 3.369,14.227 3.966,13.528 4.403 C 13.114 4.661,12.528 5.085,12.183 5.376 L 11.997 5.532 11.849 5.405 C 11.528 5.130,10.865 4.648,10.473 4.403 C 9.771 3.965,8.507 3.371,7.631 3.067 C 7.571 3.046,7.581 3.010,7.720 2.769 C 7.914 2.434,8.000 2.197,8.000 2.002 C 8.000 1.588,7.700 1.177,7.316 1.063 C 7.063 0.987,6.920 0.987,6.678 1.062 M7.150 5.025 C 8.872 5.649,10.222 6.494,11.117 7.509 C 11.437 7.872,11.640 7.980,12.000 7.980 C 12.360 7.980,12.563 7.872,12.883 7.509 C 13.625 6.667,14.613 5.984,15.940 5.395 C 16.672 5.070,17.511 4.774,17.558 4.824 C 17.577 4.844,17.691 5.040,17.812 5.260 C 18.323 6.191,18.549 6.932,18.505 7.540 C 18.463 8.121,18.160 8.598,17.494 9.129 C 17.176 9.382,17.038 9.608,17.011 9.916 C 17.000 10.046,17.267 11.451,17.918 14.700 C 18.425 17.229,18.840 19.331,18.840 19.371 C 18.840 19.452,18.739 19.501,17.946 19.798 C 14.117 21.232,9.883 21.232,6.054 19.798 C 5.261 19.501,5.160 19.452,5.160 19.371 C 5.160 19.331,5.575 17.229,6.082 14.700 C 6.733 11.451,7.000 10.046,6.989 9.916 C 6.965 9.637,6.820 9.377,6.585 9.194 C 5.827 8.604,5.479 8.028,5.481 7.368 C 5.482 6.836,5.761 6.017,6.216 5.207 C 6.486 4.727,6.384 4.747,7.150 5.025 " fill="#000640" stroke="none" fill-rule="evenodd"></path></svg>