<svg xmlns="http://www.w3.org/2000/svg" width="24" height="24" fill="currentColor" class="mmi mmi-link-v2" viewBox="0 0 24 24"><path d="M5.340 7.046 C 4.849 7.108,4.317 7.273,3.820 7.517 C 2.374 8.226,1.390 9.510,1.075 11.100 C 1.002 11.468,1.002 12.532,1.075 12.900 C 1.475 14.917,2.933 16.410,4.987 16.906 C 5.215 16.961,5.577 16.974,7.191 16.989 C 9.393 17.008,9.394 17.008,9.700 16.702 C 10.092 16.310,10.093 15.691,9.701 15.299 C 9.406 15.004,9.379 15.000,7.423 14.999 C 5.599 14.999,5.425 14.985,4.925 14.798 C 4.219 14.535,3.638 13.985,3.298 13.260 C 3.072 12.779,3.021 12.546,3.021 12.000 C 3.021 11.454,3.072 11.221,3.298 10.740 C 3.599 10.097,4.075 9.614,4.704 9.312 C 5.303 9.024,5.254 9.029,7.360 9.003 C 9.248 8.980,9.261 8.979,9.450 8.886 C 10.051 8.590,10.180 7.778,9.701 7.299 C 9.404 7.002,9.385 6.999,7.383 7.005 C 6.413 7.008,5.494 7.026,5.340 7.046 M14.664 7.063 C 14.303 7.195,14.051 7.514,14.013 7.888 C 13.970 8.307,14.174 8.690,14.539 8.878 L 14.738 8.980 16.639 9.003 C 18.746 9.029,18.697 9.024,19.296 9.312 C 19.924 9.614,20.398 10.095,20.704 10.740 C 20.887 11.127,21.000 11.607,21.000 12.000 C 21.000 13.170,20.225 14.329,19.151 14.766 C 18.616 14.984,18.439 15.000,16.567 15.000 C 14.709 15.000,14.658 15.005,14.374 15.222 C 14.301 15.277,14.192 15.408,14.131 15.511 C 14.036 15.672,14.020 15.744,14.020 16.000 C 14.020 16.257,14.036 16.327,14.133 16.492 C 14.265 16.716,14.486 16.889,14.730 16.957 C 14.858 16.993,15.394 17.001,16.821 16.989 C 18.886 16.970,18.900 16.969,19.593 16.737 C 20.820 16.327,21.914 15.373,22.476 14.224 C 22.849 13.459,22.981 12.867,22.978 11.960 C 22.976 11.381,22.963 11.247,22.869 10.869 C 22.615 9.851,22.149 9.048,21.409 8.353 C 20.657 7.647,19.632 7.168,18.601 7.042 C 18.411 7.018,17.507 7.001,16.541 7.003 C 15.152 7.005,14.790 7.017,14.664 7.063 M7.643 11.069 C 7.291 11.193,7.000 11.614,7.000 12.000 C 7.000 12.242,7.119 12.521,7.299 12.701 C 7.616 13.018,7.337 13.000,12.000 13.000 C 16.663 13.000,16.384 13.018,16.701 12.701 C 17.092 12.310,17.092 11.690,16.701 11.299 C 16.384 10.982,16.666 11.000,11.983 11.003 C 8.320 11.006,7.799 11.014,7.643 11.069 " fill="#000640" stroke="none" fill-rule="evenodd"></path></svg>