<svg xmlns="http://www.w3.org/2000/svg" width="24" height="24" fill="currentColor" class="mmi mmi-livebuoy" viewBox="0 0 24 24"><path d="M11.200 0.025 C 7.677 0.288,4.535 1.992,2.410 4.793 C 1.201 6.386,0.442 8.222,0.109 10.359 C -0.013 11.143,-0.013 12.857,0.109 13.641 C 0.563 16.554,1.872 19.025,3.948 20.887 C 5.791 22.541,7.832 23.497,10.359 23.891 C 11.143 24.013,12.857 24.013,13.641 23.891 C 16.557 23.436,19.036 22.122,20.896 20.043 C 22.545 18.200,23.498 16.163,23.891 13.641 C 24.013 12.857,24.013 11.143,23.891 10.359 C 23.557 8.220,22.799 6.386,21.588 4.790 C 19.607 2.179,16.767 0.532,13.500 0.099 C 13.032 0.037,11.640 -0.007,11.200 0.025 M12.840 2.041 C 14.762 2.213,16.653 2.944,18.092 4.073 L 18.324 4.255 16.898 5.682 L 15.472 7.109 15.266 6.970 C 14.714 6.598,13.928 6.279,13.160 6.115 C 12.555 5.986,11.445 5.986,10.840 6.115 C 10.084 6.276,9.365 6.565,8.769 6.945 C 8.653 7.019,8.545 7.080,8.529 7.080 C 8.513 7.080,7.864 6.444,7.088 5.668 L 5.676 4.255 5.908 4.073 C 7.800 2.589,10.407 1.824,12.840 2.041 M7.080 8.533 C 7.080 8.551,7.025 8.645,6.958 8.742 C 6.621 9.233,6.276 10.082,6.111 10.830 C 5.994 11.360,5.984 12.566,6.092 13.080 C 6.256 13.858,6.495 14.481,6.866 15.096 C 6.984 15.292,7.080 15.463,7.080 15.476 C 7.080 15.490,6.444 16.136,5.668 16.912 L 4.255 18.324 4.073 18.092 C 2.588 16.200,1.824 13.593,2.041 11.160 C 2.213 9.238,2.944 7.347,4.073 5.908 L 4.255 5.676 5.668 7.088 C 6.444 7.864,7.080 8.514,7.080 8.533 M20.298 6.440 C 21.570 8.335,22.158 10.602,21.959 12.840 C 21.787 14.762,21.056 16.653,19.927 18.092 L 19.745 18.324 18.332 16.912 C 17.556 16.136,16.920 15.490,16.920 15.476 C 16.920 15.463,17.016 15.292,17.134 15.096 C 17.505 14.481,17.745 13.856,17.908 13.080 C 18.008 12.601,18.008 11.399,17.908 10.920 C 17.745 10.144,17.505 9.519,17.134 8.904 C 17.016 8.708,16.920 8.537,16.920 8.524 C 16.920 8.511,17.555 7.866,18.330 7.090 L 19.740 5.679 19.851 5.809 C 19.913 5.881,20.114 6.165,20.298 6.440 M12.958 8.120 C 13.621 8.282,14.329 8.683,14.823 9.177 C 15.321 9.675,15.716 10.376,15.887 11.062 C 16.013 11.571,16.013 12.429,15.887 12.938 C 15.531 14.369,14.434 15.486,13.005 15.871 C 12.669 15.962,12.542 15.975,12.000 15.975 C 11.458 15.975,11.331 15.962,10.995 15.871 C 10.054 15.617,9.240 15.046,8.712 14.269 C 8.471 13.913,8.214 13.341,8.113 12.938 C 7.987 12.429,7.987 11.571,8.113 11.062 C 8.215 10.654,8.470 10.088,8.722 9.715 C 9.304 8.853,10.337 8.215,11.433 8.040 C 11.783 7.984,12.572 8.026,12.958 8.120 M8.776 17.059 C 9.356 17.430,10.083 17.724,10.830 17.889 C 11.360 18.006,12.566 18.016,13.080 17.908 C 13.858 17.744,14.481 17.505,15.096 17.134 C 15.292 17.016,15.463 16.920,15.476 16.920 C 15.490 16.920,16.137 17.557,16.916 18.336 L 18.331 19.752 17.956 20.029 C 14.396 22.657,9.604 22.657,6.044 20.029 L 5.669 19.752 7.084 18.336 C 7.863 17.557,8.513 16.920,8.529 16.920 C 8.545 16.920,8.656 16.983,8.776 17.059 " fill="#000640" stroke="none" fill-rule="evenodd"></path></svg>