<svg xmlns="http://www.w3.org/2000/svg" width="24" height="24" fill="currentColor" class="mmi mmi-loading-circle-v2" viewBox="0 0 24 24"><path d="M11.100 2.145 C 8.666 2.394,6.529 3.430,4.851 5.176 C 3.371 6.715,2.468 8.623,2.182 10.812 C 2.111 11.351,2.100 12.517,2.161 13.060 C 2.357 14.834,3.039 16.542,4.129 17.992 C 4.483 18.463,5.188 19.198,5.679 19.608 C 7.365 21.015,9.666 21.878,11.735 21.880 C 12.249 21.880,12.424 21.835,12.642 21.649 C 13.075 21.278,13.116 20.666,12.735 20.242 C 12.490 19.970,12.334 19.919,11.620 19.878 C 10.402 19.807,9.442 19.551,8.402 19.019 C 5.540 17.555,3.842 14.453,4.162 11.274 C 4.551 7.406,7.599 4.437,11.466 4.161 C 12.899 4.059,14.299 4.341,15.571 4.988 C 16.589 5.507,17.488 6.233,18.158 7.080 C 18.441 7.438,18.696 7.800,18.666 7.800 C 18.656 7.800,18.087 7.620,17.402 7.400 C 16.717 7.180,16.089 7.000,16.005 7.000 C 15.593 7.000,15.189 7.290,15.060 7.679 C 14.921 8.099,15.069 8.563,15.421 8.808 C 15.531 8.885,16.374 9.174,18.160 9.749 C 20.505 10.504,20.766 10.579,21.020 10.580 C 21.254 10.580,21.331 10.562,21.489 10.469 C 21.702 10.344,21.864 10.151,21.943 9.930 C 21.986 9.810,21.997 9.188,21.998 6.817 C 22.000 3.475,22.012 3.609,21.700 3.298 C 21.390 2.988,20.932 2.920,20.531 3.126 C 20.315 3.238,20.103 3.491,20.042 3.711 C 20.018 3.798,20.000 4.342,20.000 5.013 L 20.000 6.165 19.755 5.853 C 19.387 5.383,18.437 4.461,17.941 4.092 C 16.637 3.121,15.110 2.482,13.460 2.217 C 13.076 2.155,11.477 2.106,11.100 2.145 M20.600 12.595 C 20.300 12.693,20.045 12.922,19.931 13.195 C 19.852 13.384,19.857 13.741,19.941 13.950 C 20.025 14.161,20.337 14.448,20.551 14.512 C 21.159 14.695,21.741 14.322,21.861 13.673 C 21.924 13.327,21.662 12.855,21.306 12.673 C 21.131 12.584,20.759 12.543,20.600 12.595 M19.412 15.579 C 19.186 15.677,18.930 15.948,18.858 16.167 C 18.703 16.631,18.870 17.104,19.272 17.346 C 19.678 17.589,20.122 17.547,20.462 17.234 C 20.644 17.066,20.800 16.740,20.800 16.526 C 20.800 16.330,20.686 16.025,20.554 15.865 C 20.305 15.564,19.760 15.427,19.412 15.579 M17.602 17.928 C 16.841 18.060,16.529 19.025,17.068 19.580 C 17.442 19.966,18.041 19.985,18.465 19.626 C 18.722 19.410,18.848 18.962,18.745 18.628 C 18.591 18.123,18.123 17.837,17.602 17.928 M14.680 19.544 C 14.498 19.622,14.295 19.819,14.188 20.020 C 14.068 20.245,14.069 20.676,14.189 20.904 C 14.289 21.094,14.517 21.306,14.706 21.385 C 14.880 21.458,15.274 21.455,15.454 21.380 C 15.653 21.297,15.869 21.098,15.971 20.904 C 16.036 20.781,16.058 20.670,16.058 20.460 C 16.058 20.250,16.036 20.139,15.971 20.016 C 15.871 19.826,15.643 19.614,15.454 19.535 C 15.281 19.463,14.856 19.467,14.680 19.544 " fill="#000640" stroke="none" fill-rule="evenodd"></path></svg>