<svg xmlns="http://www.w3.org/2000/svg" width="24" height="24" fill="currentColor" class="mmi mmi-loading-circle" viewBox="0 0 24 24"><path d="M11.100 2.145 C 10.299 2.227,9.338 2.441,8.660 2.688 C 5.422 3.871,3.015 6.634,2.321 9.966 C 2.128 10.892,2.062 12.171,2.161 13.060 C 2.531 16.403,4.581 19.353,7.563 20.836 C 8.619 21.361,9.670 21.678,10.838 21.823 C 11.368 21.889,12.536 21.898,13.060 21.839 C 15.320 21.589,17.376 20.597,18.981 18.984 C 20.159 17.801,20.913 16.572,21.412 15.020 C 21.813 13.772,21.802 13.368,21.356 12.985 C 21.137 12.798,20.972 12.748,20.638 12.767 C 20.413 12.780,20.333 12.804,20.196 12.901 C 19.893 13.116,19.816 13.252,19.666 13.840 C 19.281 15.359,18.600 16.563,17.535 17.607 C 17.052 18.081,16.815 18.274,16.289 18.618 C 15.578 19.084,14.574 19.512,13.749 19.700 C 12.670 19.947,11.264 19.940,10.185 19.683 C 9.075 19.419,7.900 18.840,7.023 18.126 C 5.470 16.861,4.440 15.012,4.181 13.028 C 3.865 10.599,4.698 8.150,6.430 6.416 C 7.570 5.274,9.086 4.496,10.720 4.214 C 11.269 4.120,12.414 4.100,12.985 4.175 C 15.261 4.476,17.254 5.696,18.523 7.565 C 18.611 7.694,18.675 7.800,18.665 7.800 C 18.655 7.800,18.087 7.620,17.402 7.400 C 16.717 7.180,16.089 7.000,16.005 7.000 C 15.259 7.000,14.781 7.798,15.126 8.469 C 15.311 8.827,15.308 8.825,18.141 9.740 C 20.507 10.505,20.765 10.580,21.020 10.580 C 21.254 10.580,21.331 10.562,21.489 10.469 C 21.702 10.344,21.864 10.151,21.943 9.930 C 21.986 9.810,21.997 9.188,21.998 6.817 C 22.000 3.477,22.011 3.609,21.701 3.299 C 21.310 2.908,20.690 2.908,20.299 3.299 C 20.018 3.580,20.000 3.683,20.000 5.010 L 20.000 6.165 19.755 5.853 C 19.402 5.403,18.447 4.470,17.981 4.120 C 16.668 3.134,15.120 2.482,13.460 2.217 C 13.076 2.155,11.476 2.106,11.100 2.145 " fill="#000640" stroke="none" fill-rule="evenodd"></path></svg>