<svg xmlns="http://www.w3.org/2000/svg" width="24" height="24" fill="currentColor" class="mmi mmi-loancredit" viewBox="0 0 24 24"><path d="M11.433 1.040 C 10.838 1.135,10.225 1.378,9.715 1.722 C 8.776 2.356,8.121 3.499,8.016 4.690 L 7.989 5.000 6.704 5.001 C 5.273 5.003,5.007 5.032,4.511 5.238 C 3.747 5.556,3.131 6.197,2.845 6.972 C 2.798 7.100,2.235 9.989,1.595 13.392 C 0.544 18.978,0.430 19.621,0.429 20.000 C 0.428 20.256,0.453 20.525,0.493 20.689 C 0.700 21.540,1.290 22.285,2.056 22.661 C 2.769 23.011,1.788 22.980,12.000 22.980 C 22.212 22.980,21.231 23.011,21.944 22.661 C 22.711 22.285,23.303 21.537,23.506 20.689 C 23.545 20.527,23.570 20.253,23.569 20.000 C 23.568 19.621,23.454 18.976,22.403 13.383 C 21.548 8.839,21.209 7.117,21.133 6.925 C 20.766 6.010,20.066 5.380,19.099 5.097 C 18.897 5.038,18.638 5.025,17.435 5.011 L 16.010 4.994 15.983 4.687 C 15.900 3.738,15.484 2.838,14.823 2.177 C 14.329 1.683,13.621 1.282,12.958 1.120 C 12.572 1.026,11.783 0.984,11.433 1.040 M12.408 3.044 C 13.235 3.217,13.885 3.931,13.985 4.777 L 14.011 5.000 12.000 5.000 L 9.989 5.000 10.015 4.777 C 10.152 3.613,11.266 2.806,12.408 3.044 M18.780 7.106 C 18.984 7.217,19.180 7.421,19.254 7.600 C 19.286 7.677,19.828 10.494,20.459 13.860 C 21.294 18.312,21.600 20.022,21.582 20.134 C 21.549 20.346,21.428 20.569,21.257 20.735 C 20.962 21.021,21.705 21.000,11.998 21.000 C 2.480 21.000,3.091 21.014,2.786 20.782 C 2.627 20.660,2.453 20.356,2.418 20.138 C 2.400 20.021,2.688 18.406,3.541 13.860 C 4.172 10.494,4.714 7.677,4.746 7.600 C 4.848 7.354,5.114 7.125,5.400 7.037 C 5.455 7.020,8.452 7.009,12.060 7.013 L 18.620 7.020 18.780 7.106 M11.664 8.063 C 11.437 8.146,11.257 8.297,11.133 8.508 C 11.041 8.665,11.021 8.755,11.002 9.090 L 10.980 9.487 10.712 9.601 C 9.938 9.930,9.350 10.536,9.119 11.241 C 9.038 11.489,9.021 11.619,9.022 12.000 C 9.022 12.313,9.043 12.526,9.088 12.665 C 9.453 13.817,10.516 14.578,11.876 14.663 C 12.374 14.694,12.611 14.771,12.803 14.963 C 13.068 15.228,13.049 15.483,12.743 15.752 C 12.346 16.100,11.631 16.075,11.189 15.698 C 10.896 15.447,10.679 15.352,10.400 15.352 C 9.674 15.352,9.191 16.093,9.495 16.740 C 9.660 17.092,10.250 17.569,10.752 17.757 L 10.991 17.846 11.008 18.233 C 11.028 18.684,11.104 18.872,11.358 19.089 C 11.722 19.401,12.278 19.401,12.642 19.089 C 12.895 18.872,12.972 18.684,12.992 18.236 L 13.009 17.851 13.234 17.758 C 13.877 17.493,14.474 16.968,14.734 16.438 C 15.376 15.133,14.817 13.670,13.420 12.999 C 13.011 12.803,12.719 12.729,12.154 12.681 C 11.584 12.632,11.424 12.581,11.214 12.380 C 10.952 12.129,10.936 11.921,11.160 11.666 C 11.342 11.459,11.635 11.350,12.005 11.352 C 12.365 11.353,12.603 11.441,12.850 11.664 C 13.387 12.150,14.164 12.029,14.465 11.414 C 14.654 11.027,14.577 10.569,14.268 10.246 C 14.061 10.029,13.658 9.759,13.328 9.616 L 13.020 9.483 12.999 9.111 C 12.984 8.834,12.955 8.692,12.886 8.550 C 12.670 8.109,12.128 7.893,11.664 8.063 " fill="#000640" stroke="none" fill-rule="evenodd"></path></svg>