<svg xmlns="http://www.w3.org/2000/svg" width="24" height="24" fill="currentColor" class="mmi mmi-location-startingselected" viewBox="0 0 24 24"><path d="M11.643 0.069 C 11.407 0.152,11.149 0.416,11.066 0.660 C 11.011 0.822,11.000 1.036,11.000 1.959 L 11.000 3.063 10.626 3.113 C 9.181 3.307,7.587 4.010,6.360 4.994 C 4.860 6.197,3.759 7.908,3.283 9.779 C 3.217 10.040,3.141 10.421,3.113 10.626 L 3.063 11.000 1.959 11.000 C 0.689 11.000,0.578 11.020,0.299 11.299 C -0.092 11.690,-0.092 12.310,0.299 12.701 C 0.578 12.980,0.689 13.000,1.959 13.000 L 3.063 13.000 3.113 13.374 C 3.307 14.819,4.009 16.412,4.993 17.640 C 6.193 19.137,7.911 20.241,9.779 20.717 C 10.040 20.783,10.421 20.859,10.626 20.887 L 11.000 20.937 11.000 22.041 C 11.000 23.311,11.020 23.422,11.299 23.701 C 11.690 24.092,12.310 24.092,12.701 23.701 C 12.980 23.422,13.000 23.311,13.000 22.041 L 13.000 20.937 13.374 20.887 C 14.812 20.694,16.417 19.988,17.631 19.014 C 19.138 17.805,20.241 16.091,20.717 14.221 C 20.783 13.960,20.859 13.579,20.887 13.374 L 20.937 13.000 22.041 13.000 C 23.311 13.000,23.422 12.980,23.701 12.701 C 24.092 12.310,24.092 11.690,23.701 11.299 C 23.422 11.020,23.311 11.000,22.041 11.000 L 20.937 11.000 20.887 10.626 C 20.694 9.188,19.988 7.583,19.014 6.369 C 17.804 4.861,16.093 3.760,14.221 3.283 C 13.960 3.217,13.579 3.141,13.374 3.113 L 13.000 3.063 13.000 1.959 C 13.000 0.689,12.980 0.578,12.701 0.299 C 12.424 0.021,12.024 -0.066,11.643 0.069 M12.894 5.060 C 15.215 5.364,17.209 6.782,18.258 8.875 C 19.987 12.325,18.584 16.527,15.125 18.258 C 11.671 19.986,7.476 18.586,5.742 15.125 C 4.582 12.810,4.799 10.057,6.311 7.920 C 6.656 7.433,7.433 6.656,7.920 6.311 C 9.374 5.283,11.162 4.833,12.894 5.060 M11.580 10.047 C 11.037 10.151,10.452 10.610,10.207 11.125 C 9.629 12.339,10.374 13.762,11.695 13.967 C 12.782 14.136,13.798 13.392,13.967 12.305 C 14.067 11.663,13.868 11.061,13.404 10.596 C 12.913 10.106,12.277 9.914,11.580 10.047 " stroke="none" fill-rule="evenodd"></path></svg>