<svg xmlns="http://www.w3.org/2000/svg" width="24" height="24" fill="currentColor" class="mmi mmi-locker" viewBox="0 0 24 24"><path d="M3.503 1.042 C 2.818 1.158,2.117 1.573,1.670 2.127 C 1.445 2.407,1.159 2.980,1.074 3.320 C 0.993 3.647,0.993 20.353,1.074 20.680 C 1.159 21.020,1.445 21.593,1.670 21.873 C 1.950 22.220,2.312 22.501,2.740 22.704 C 3.409 23.021,2.760 23.000,12.000 23.000 C 21.240 23.000,20.591 23.021,21.260 22.704 C 21.920 22.391,22.391 21.920,22.704 21.260 C 23.021 20.591,23.000 21.240,23.000 12.000 C 23.000 2.760,23.021 3.409,22.704 2.740 C 22.398 2.095,21.924 1.614,21.296 1.312 C 20.634 0.993,21.532 1.022,12.120 1.015 C 7.489 1.012,3.611 1.024,3.503 1.042 M20.340 3.066 C 20.593 3.153,20.847 3.407,20.934 3.660 C 20.995 3.838,21.000 4.523,21.000 12.000 C 21.000 21.144,21.026 20.376,20.701 20.701 C 20.376 21.026,21.144 21.000,11.998 21.000 C 3.106 21.000,3.684 21.015,3.374 20.778 C 3.301 20.723,3.192 20.592,3.131 20.489 L 3.020 20.300 3.020 12.000 L 3.020 3.700 3.131 3.511 C 3.256 3.298,3.449 3.136,3.670 3.057 C 3.793 3.013,5.268 3.003,11.983 3.002 C 19.479 3.000,20.162 3.005,20.340 3.066 M5.643 5.069 C 5.546 5.103,5.392 5.206,5.300 5.298 C 4.976 5.621,5.000 5.096,5.000 12.000 C 5.000 18.903,4.977 18.379,5.299 18.701 C 5.621 19.023,5.097 19.000,12.000 19.000 C 18.903 19.000,18.379 19.023,18.701 18.701 C 19.023 18.379,19.000 18.903,19.000 12.000 C 19.000 5.097,19.023 5.621,18.701 5.299 C 18.378 4.976,18.906 5.000,11.983 5.003 C 6.508 5.006,5.800 5.013,5.643 5.069 M17.000 12.000 L 17.000 17.000 12.000 17.000 L 7.000 17.000 7.000 12.000 L 7.000 7.000 12.000 7.000 L 17.000 7.000 17.000 12.000 M13.664 11.063 C 13.436 11.146,13.257 11.297,13.131 11.511 C 13.036 11.672,13.020 11.744,13.020 12.000 C 13.020 12.256,13.036 12.328,13.131 12.489 C 13.470 13.065,14.234 13.168,14.701 12.701 C 14.881 12.521,15.000 12.242,15.000 12.000 C 15.000 11.326,14.295 10.832,13.664 11.063 " fill="#000640" stroke="none" fill-rule="evenodd"></path></svg>