<svg xmlns="http://www.w3.org/2000/svg" width="24" height="24" fill="currentColor" class="mmi mmi-lock" viewBox="0 0 24 24"><path d="M11.200 1.058 C 10.483 1.161,9.933 1.332,9.320 1.640 C 7.629 2.490,6.466 4.039,6.094 5.940 C 6.048 6.176,6.026 6.616,6.012 7.625 L 5.992 8.990 5.726 9.017 C 5.330 9.057,5.138 9.112,4.740 9.298 C 4.082 9.606,3.607 10.081,3.298 10.740 C 3.003 11.368,3.020 11.051,3.020 16.000 C 3.020 20.949,3.003 20.632,3.298 21.260 C 3.606 21.918,4.079 22.391,4.740 22.704 C 5.401 23.017,4.993 23.000,12.000 23.000 C 19.007 23.000,18.599 23.017,19.260 22.704 C 19.920 22.391,20.391 21.920,20.704 21.260 C 21.009 20.615,21.000 20.776,21.000 16.000 C 21.000 11.224,21.009 11.385,20.704 10.740 C 20.391 10.078,19.917 9.606,19.260 9.298 C 18.862 9.112,18.670 9.057,18.274 9.017 L 18.008 8.990 17.988 7.625 C 17.973 6.625,17.951 6.174,17.905 5.940 C 17.694 4.852,17.216 3.864,16.506 3.045 C 15.638 2.046,14.371 1.333,13.041 1.097 C 12.552 1.010,11.660 0.991,11.200 1.058 M13.038 3.138 C 14.254 3.474,15.255 4.364,15.715 5.520 C 15.953 6.118,16.000 6.497,16.000 7.816 L 16.000 9.000 11.997 9.000 L 7.993 9.000 8.010 7.670 C 8.026 6.376,8.030 6.330,8.133 5.968 C 8.579 4.409,9.774 3.336,11.397 3.038 C 11.498 3.019,11.823 3.011,12.120 3.019 C 12.545 3.031,12.741 3.056,13.038 3.138 M18.340 11.066 C 18.455 11.105,18.603 11.201,18.701 11.299 C 19.018 11.616,19.000 11.337,19.000 16.000 C 19.000 20.663,19.018 20.384,18.701 20.701 C 18.379 21.023,18.903 21.000,11.998 21.000 C 5.296 21.000,5.682 21.013,5.374 20.778 C 5.301 20.723,5.192 20.592,5.131 20.489 L 5.020 20.300 5.020 16.000 L 5.020 11.700 5.131 11.511 C 5.256 11.298,5.449 11.136,5.670 11.057 C 5.793 11.013,6.939 11.003,11.983 11.002 C 17.617 11.000,18.162 11.006,18.340 11.066 M11.503 13.040 C 10.828 13.162,10.156 13.550,9.703 14.080 C 8.987 14.917,8.806 16.100,9.234 17.151 C 9.521 17.857,10.143 18.479,10.849 18.766 C 11.989 19.230,13.251 18.978,14.115 18.115 C 15.238 16.992,15.295 15.212,14.246 14.020 C 13.897 13.624,13.276 13.239,12.756 13.097 C 12.491 13.024,11.770 12.991,11.503 13.040 M12.340 15.066 C 12.709 15.192,13.000 15.604,13.000 16.000 C 13.000 16.527,12.527 17.000,12.000 17.000 C 11.758 17.000,11.479 16.881,11.299 16.701 C 10.907 16.309,10.908 15.690,11.300 15.298 C 11.577 15.020,11.957 14.936,12.340 15.066 " fill="#000640" stroke="none" fill-rule="evenodd"></path></svg>