<svg xmlns="http://www.w3.org/2000/svg" width="24" height="24" fill="currentColor" class="mmi mmi-lock-open" viewBox="0 0 24 24"><path d="M11.247 1.044 C 9.281 1.310,7.578 2.506,6.682 4.250 C 6.476 4.650,6.440 4.752,6.440 4.930 C 6.441 5.269,6.506 5.432,6.734 5.658 C 7.065 5.986,7.486 6.056,7.885 5.849 C 8.116 5.729,8.204 5.617,8.510 5.053 C 8.872 4.389,9.535 3.756,10.227 3.418 C 12.209 2.447,14.585 3.250,15.577 5.227 C 15.930 5.929,16.000 6.364,16.000 7.844 L 16.000 8.998 10.730 9.010 C 4.849 9.024,5.355 8.998,4.704 9.312 C 4.075 9.614,3.599 10.097,3.298 10.740 C 3.003 11.368,3.020 11.051,3.020 16.000 C 3.020 20.949,3.003 20.632,3.298 21.260 C 3.606 21.918,4.079 22.391,4.740 22.704 C 5.401 23.017,4.993 23.000,12.000 23.000 C 19.007 23.000,18.599 23.017,19.260 22.704 C 19.920 22.391,20.391 21.920,20.704 21.260 C 21.009 20.615,21.000 20.776,21.000 16.000 C 21.000 11.224,21.009 11.385,20.704 10.740 C 20.391 10.078,19.917 9.606,19.260 9.298 C 18.862 9.112,18.670 9.057,18.274 9.017 L 18.008 8.990 17.989 7.605 C 17.968 6.087,17.938 5.849,17.675 5.061 C 17.106 3.354,15.645 1.894,13.935 1.323 C 13.138 1.057,12.014 0.941,11.247 1.044 M18.340 11.066 C 18.455 11.105,18.603 11.201,18.701 11.299 C 19.018 11.616,19.000 11.337,19.000 16.000 C 19.000 20.663,19.018 20.384,18.701 20.701 C 18.379 21.023,18.903 21.000,11.998 21.000 C 5.296 21.000,5.682 21.013,5.374 20.778 C 5.301 20.723,5.192 20.592,5.131 20.489 L 5.020 20.300 5.020 16.000 L 5.020 11.700 5.131 11.511 C 5.256 11.298,5.449 11.136,5.670 11.057 C 5.793 11.013,6.939 11.003,11.983 11.002 C 17.617 11.000,18.162 11.006,18.340 11.066 M11.503 13.040 C 10.828 13.162,10.156 13.550,9.703 14.080 C 8.987 14.917,8.806 16.100,9.234 17.151 C 9.521 17.857,10.143 18.479,10.849 18.766 C 11.989 19.230,13.251 18.978,14.115 18.115 C 15.238 16.992,15.295 15.212,14.246 14.020 C 13.897 13.624,13.276 13.239,12.756 13.097 C 12.491 13.024,11.770 12.991,11.503 13.040 M12.340 15.066 C 12.709 15.192,13.000 15.604,13.000 16.000 C 13.000 16.527,12.527 17.000,12.000 17.000 C 11.758 17.000,11.479 16.881,11.299 16.701 C 10.907 16.309,10.908 15.690,11.300 15.298 C 11.577 15.020,11.957 14.936,12.340 15.066 " fill="#000640" stroke="none" fill-rule="evenodd"></path></svg>