<svg xmlns="http://www.w3.org/2000/svg" width="24" height="24" fill="currentColor" class="mmi mmi-lock-filled" viewBox="0 0 24 24"><path d="M11.320 0.044 C 10.128 0.177,8.917 0.716,8.045 1.501 C 7.030 2.415,6.412 3.478,6.112 4.826 C 6.030 5.194,6.024 5.344,6.010 7.105 L 5.994 8.990 5.407 9.010 C 4.960 9.025,4.757 9.050,4.557 9.114 C 3.903 9.324,3.344 9.881,3.112 10.552 L 3.020 10.820 3.020 16.500 L 3.020 22.180 3.111 22.444 C 3.342 23.112,3.887 23.658,4.552 23.888 L 4.820 23.980 12.000 23.980 L 19.180 23.980 19.448 23.888 C 20.113 23.658,20.658 23.112,20.889 22.444 L 20.980 22.180 20.980 16.500 L 20.980 10.820 20.888 10.552 C 20.629 9.804,19.976 9.220,19.220 9.060 C 19.066 9.028,18.730 9.001,18.473 9.001 L 18.006 9.000 17.991 7.110 C 17.976 5.344,17.970 5.194,17.888 4.826 C 17.588 3.478,16.970 2.415,15.955 1.501 C 14.733 0.401,13.001 -0.144,11.320 0.044 M12.958 2.120 C 13.621 2.282,14.325 2.682,14.822 3.178 C 15.313 3.670,15.708 4.362,15.885 5.042 C 15.969 5.361,15.975 5.482,15.990 7.190 L 16.006 9.000 12.000 9.000 L 7.994 9.000 8.010 7.190 C 8.025 5.482,8.031 5.361,8.115 5.042 C 8.218 4.644,8.480 4.074,8.723 3.715 C 9.311 2.850,10.338 2.214,11.433 2.040 C 11.783 1.984,12.572 2.026,12.958 2.120 " fill="#000640" stroke="none" fill-rule="evenodd"></path></svg>