<svg xmlns="http://www.w3.org/2000/svg" width="24" height="24" fill="currentColor" class="mmi mmi-lock-disable" viewBox="0 0 24 24"><path d="M11.200 1.060 C 8.936 1.371,7.037 2.933,6.320 5.074 C 6.053 5.871,6.031 6.045,6.011 7.585 L 5.992 8.990 5.726 9.017 C 5.330 9.057,5.138 9.112,4.740 9.298 C 4.016 9.637,3.466 10.219,3.202 10.925 C 3.010 11.441,3.001 11.561,3.001 13.920 C 3.001 15.328,3.016 16.194,3.042 16.289 C 3.103 16.509,3.315 16.762,3.531 16.874 C 3.932 17.080,4.390 17.012,4.700 16.702 C 5.003 16.399,5.000 16.429,5.000 14.000 C 5.000 11.573,4.997 11.601,5.299 11.299 C 5.601 10.997,5.573 11.000,8.000 11.000 C 10.427 11.000,10.399 11.003,10.701 10.701 C 11.092 10.310,11.092 9.690,10.701 9.299 C 10.423 9.021,10.308 9.000,9.069 9.000 L 7.993 9.000 8.011 7.690 C 8.031 6.193,8.060 6.004,8.376 5.337 C 8.605 4.855,8.830 4.528,9.177 4.179 C 9.669 3.682,10.373 3.285,11.062 3.113 C 11.571 2.987,12.429 2.987,12.938 3.113 C 13.557 3.267,14.247 3.637,14.724 4.072 C 14.997 4.320,15.155 4.401,15.419 4.428 C 15.941 4.482,16.431 4.085,16.505 3.550 C 16.555 3.187,16.386 2.869,15.940 2.482 C 14.640 1.353,12.891 0.828,11.200 1.060 M20.578 2.099 C 20.422 2.177,18.426 4.154,11.276 11.309 C 5.247 17.342,2.149 20.470,2.106 20.567 C 1.853 21.127,2.135 21.777,2.702 21.942 C 2.970 22.020,3.208 22.004,3.434 21.892 L 3.591 21.814 3.836 22.068 C 4.206 22.452,4.688 22.741,5.236 22.909 C 5.443 22.973,5.945 22.979,11.838 22.990 C 19.024 23.003,18.594 23.020,19.260 22.704 C 19.920 22.391,20.391 21.920,20.704 21.260 C 21.009 20.615,21.000 20.776,21.000 16.000 C 21.000 11.224,21.009 11.385,20.704 10.740 C 20.398 10.095,19.924 9.614,19.296 9.312 C 18.743 9.046,18.655 9.031,17.484 9.011 L 16.429 8.992 19.133 6.286 C 21.210 4.207,21.855 3.538,21.917 3.400 C 22.007 3.200,22.023 2.904,21.956 2.664 C 21.898 2.454,21.546 2.102,21.336 2.044 C 21.070 1.970,20.796 1.990,20.578 2.099 M18.340 11.066 C 18.455 11.105,18.603 11.201,18.701 11.299 C 19.018 11.616,19.000 11.337,19.000 16.000 C 19.000 20.663,19.018 20.384,18.701 20.701 C 18.379 21.023,18.903 21.000,12.000 21.000 C 5.256 21.000,5.661 21.014,5.356 20.763 C 5.280 20.700,5.182 20.583,5.139 20.504 L 5.061 20.359 9.741 15.679 L 14.420 11.000 16.283 11.000 C 17.912 11.000,18.170 11.008,18.340 11.066 M13.484 14.496 L 12.789 15.191 12.891 15.326 C 13.227 15.773,13.182 16.380,12.781 16.783 C 12.378 17.188,11.775 17.234,11.328 16.894 L 11.191 16.789 10.486 17.497 L 9.780 18.205 9.920 18.327 C 10.991 19.261,12.509 19.374,13.699 18.609 C 15.108 17.704,15.541 15.766,14.648 14.360 C 14.491 14.113,14.244 13.800,14.205 13.800 C 14.191 13.800,13.866 14.113,13.484 14.496 " fill="#000640" stroke="none" fill-rule="evenodd"></path></svg>