<svg xmlns="http://www.w3.org/2000/svg" width="24" height="24" fill="currentColor" class="mmi mmi-logic" viewBox="0 0 24 24"><path d="M5.019 4.716 C 4.470 4.864,3.889 5.216,3.541 5.609 C 2.976 6.248,2.685 7.148,2.790 7.931 C 2.977 9.333,3.948 10.344,5.330 10.577 L 5.613 10.624 6.977 13.806 C 7.728 15.556,8.393 17.056,8.456 17.138 C 8.587 17.310,8.871 17.503,9.079 17.560 C 9.165 17.584,10.329 17.600,12.072 17.600 L 14.924 17.600 15.024 17.824 C 15.395 18.665,16.150 19.290,17.077 19.524 C 17.556 19.645,18.242 19.620,18.700 19.464 C 20.508 18.849,21.298 16.796,20.371 15.120 C 20.178 14.772,19.623 14.219,19.268 14.022 C 18.786 13.754,18.486 13.673,17.898 13.650 C 17.461 13.633,17.325 13.643,17.058 13.711 C 16.183 13.933,15.475 14.503,15.077 15.307 L 14.912 15.640 12.441 15.640 C 10.511 15.640,9.961 15.629,9.931 15.590 C 9.891 15.537,7.560 10.104,7.560 10.062 C 7.560 10.048,7.677 9.928,7.820 9.794 C 8.108 9.525,8.393 9.123,8.512 8.819 L 8.591 8.620 11.757 8.610 L 14.924 8.600 15.023 8.824 C 15.395 9.665,16.150 10.290,17.077 10.524 C 17.556 10.645,18.242 10.620,18.700 10.464 C 20.508 9.849,21.298 7.796,20.371 6.120 C 20.178 5.772,19.623 5.219,19.268 5.022 C 18.786 4.754,18.486 4.673,17.898 4.650 C 17.461 4.633,17.325 4.643,17.058 4.711 C 16.183 4.933,15.475 5.503,15.077 6.307 L 14.912 6.640 11.766 6.639 L 8.620 6.639 8.442 6.269 C 8.293 5.959,8.207 5.842,7.902 5.536 C 7.510 5.141,7.197 4.941,6.708 4.770 C 6.305 4.630,5.439 4.602,5.019 4.716 M6.280 6.770 C 6.814 7.090,6.921 7.795,6.506 8.266 C 6.298 8.503,6.090 8.598,5.777 8.599 C 4.849 8.602,4.424 7.453,5.132 6.856 C 5.327 6.692,5.473 6.643,5.782 6.642 C 6.030 6.640,6.089 6.655,6.280 6.770 M18.280 6.770 C 18.814 7.090,18.921 7.795,18.506 8.266 C 18.298 8.503,18.090 8.598,17.777 8.599 C 16.849 8.602,16.424 7.453,17.132 6.856 C 17.327 6.692,17.473 6.643,17.782 6.642 C 18.030 6.640,18.089 6.655,18.280 6.770 M18.280 15.770 C 18.814 16.090,18.921 16.795,18.506 17.266 C 18.298 17.503,18.090 17.598,17.777 17.599 C 16.849 17.602,16.424 16.453,17.132 15.856 C 17.327 15.692,17.473 15.643,17.782 15.642 C 18.030 15.640,18.089 15.655,18.280 15.770 " fill="#000640" stroke="none" fill-rule="evenodd"></path></svg>