<svg xmlns="http://www.w3.org/2000/svg" width="24" height="24" fill="currentColor" class="mmi mmi-longarrow-downright" viewBox="0 0 24 24"><path d="M4.758 4.054 C 4.416 4.147,4.160 4.395,4.061 4.729 C 3.985 4.986,3.985 5.053,4.063 5.323 C 4.125 5.536,4.255 5.669,10.353 11.770 L 16.579 18.000 14.215 18.000 C 11.650 18.000,11.667 17.999,11.374 18.222 C 11.301 18.277,11.192 18.408,11.131 18.511 C 11.036 18.672,11.020 18.744,11.020 19.000 C 11.020 19.256,11.036 19.328,11.131 19.489 C 11.192 19.592,11.301 19.723,11.374 19.778 C 11.675 20.008,11.531 20.000,15.498 20.000 C 19.604 20.000,19.387 20.015,19.701 19.701 C 20.015 19.387,20.000 19.604,20.000 15.500 C 20.000 11.395,20.016 11.613,19.700 11.298 C 19.390 10.988,18.932 10.920,18.531 11.126 C 18.315 11.238,18.103 11.491,18.042 11.711 C 18.015 11.806,18.000 12.718,18.000 14.220 L 18.000 16.580 11.810 10.394 C 7.689 6.275,5.567 4.181,5.460 4.129 C 5.243 4.023,4.977 3.994,4.758 4.054 " fill="#000640" stroke="none" fill-rule="evenodd"></path></svg>