<svg xmlns="http://www.w3.org/2000/svg" width="24" height="24" fill="currentColor" class="mmi mmi-longarrow-upright" viewBox="0 0 24 24"><path d="M11.664 4.063 C 11.436 4.146,11.257 4.297,11.131 4.511 C 11.036 4.672,11.020 4.744,11.020 5.000 C 11.020 5.256,11.036 5.328,11.131 5.489 C 11.192 5.592,11.301 5.723,11.374 5.778 C 11.667 6.001,11.650 6.000,14.215 6.000 L 16.580 6.000 10.372 12.210 C 5.504 17.079,4.146 18.459,4.083 18.600 C 3.984 18.819,3.975 19.182,4.062 19.391 C 4.144 19.587,4.381 19.831,4.580 19.924 C 4.798 20.025,5.166 20.022,5.400 19.917 C 5.541 19.854,6.921 18.496,11.790 13.628 L 18.000 7.420 18.000 9.780 C 18.000 11.282,18.015 12.194,18.042 12.289 C 18.103 12.509,18.315 12.762,18.531 12.874 C 18.932 13.080,19.390 13.012,19.700 12.702 C 20.016 12.387,20.000 12.605,20.000 8.500 C 20.000 4.396,20.015 4.613,19.701 4.299 C 19.386 3.984,19.606 4.000,15.483 4.003 C 12.408 4.005,11.795 4.015,11.664 4.063 " fill="#000640" stroke="none" fill-rule="evenodd"></path></svg>