<svg xmlns="http://www.w3.org/2000/svg" width="24" height="24" fill="currentColor" class="mmi mmi-longarrow-left" viewBox="0 0 24 24"><path d="M6.640 6.068 C 6.485 6.121,6.095 6.494,3.829 8.755 C 1.942 10.637,1.174 11.430,1.113 11.556 C 0.994 11.800,0.976 12.065,1.060 12.326 C 1.126 12.528,1.274 12.685,3.755 15.171 C 6.623 18.046,6.571 18.001,7.018 17.999 C 7.313 17.998,7.525 17.907,7.728 17.695 C 7.922 17.492,8.000 17.295,7.999 17.011 C 7.998 16.585,7.983 16.567,6.129 14.710 L 4.421 13.000 13.284 13.000 C 23.230 13.000,22.375 13.027,22.701 12.701 C 23.092 12.310,23.092 11.690,22.701 11.299 C 22.375 10.973,23.230 11.000,13.284 11.000 L 4.422 11.000 6.146 9.270 C 7.691 7.719,7.876 7.520,7.935 7.343 C 8.064 6.954,7.979 6.577,7.701 6.299 C 7.424 6.021,7.028 5.935,6.640 6.068 " fill="#000640" stroke="none" fill-rule="evenodd"></path></svg>