<svg xmlns="http://www.w3.org/2000/svg" width="24" height="24" fill="currentColor" class="mmi mmi-longarrow-up" viewBox="0 0 24 24"><path d="M11.640 1.068 C 11.485 1.121,11.095 1.494,8.829 3.755 C 7.087 5.493,6.172 6.434,6.121 6.540 C 6.000 6.790,5.982 6.999,6.060 7.265 C 6.151 7.581,6.410 7.844,6.717 7.936 C 6.987 8.016,7.052 8.016,7.323 7.936 C 7.531 7.876,7.614 7.799,9.270 6.147 L 11.000 4.422 11.000 13.281 C 11.000 19.260,11.014 22.188,11.042 22.289 C 11.103 22.509,11.315 22.762,11.531 22.874 C 11.932 23.080,12.390 23.012,12.700 22.702 C 13.027 22.375,13.000 23.233,13.000 13.284 L 13.000 4.421 14.710 6.129 C 16.574 7.990,16.584 7.998,17.020 7.998 C 17.312 7.998,17.525 7.907,17.728 7.695 C 17.922 7.492,18.000 7.295,18.000 7.009 C 18.000 6.572,18.036 6.613,15.171 3.755 C 12.781 1.371,12.522 1.124,12.343 1.065 C 12.102 0.986,11.878 0.986,11.640 1.068 " fill="#000640" stroke="none" fill-rule="evenodd"></path></svg>