<svg xmlns="http://www.w3.org/2000/svg" width="24" height="24" fill="currentColor" class="mmi mmi-longarrow-upleft" viewBox="0 0 24 24"><path d="M4.664 4.063 C 4.436 4.146,4.257 4.297,4.131 4.511 L 4.020 4.700 4.009 8.413 C 4.002 10.908,4.012 12.176,4.040 12.281 C 4.101 12.506,4.312 12.761,4.531 12.874 C 4.932 13.080,5.390 13.012,5.700 12.702 C 6.006 12.396,6.000 12.454,6.000 9.783 L 6.000 7.421 12.230 13.647 C 18.331 19.745,18.464 19.875,18.677 19.937 C 18.949 20.016,19.013 20.016,19.283 19.936 C 19.581 19.847,19.847 19.581,19.936 19.283 C 20.016 19.013,20.016 18.949,19.937 18.677 C 19.875 18.464,19.745 18.331,13.647 12.230 L 7.421 6.000 9.783 6.000 C 12.453 6.000,12.396 6.006,12.701 5.701 C 13.092 5.310,13.092 4.690,12.701 4.299 C 12.386 3.984,12.606 4.000,8.483 4.003 C 5.408 4.005,4.795 4.015,4.664 4.063 " fill="#000640" stroke="none" fill-rule="evenodd"></path></svg>