<svg xmlns="http://www.w3.org/2000/svg" width="24" height="24" fill="currentColor" class="mmi mmi-longarrow-down" viewBox="0 0 24 24"><path d="M11.664 1.063 C 11.436 1.146,11.257 1.297,11.131 1.511 L 11.020 1.700 11.010 10.639 L 10.999 19.578 9.290 17.871 C 7.458 16.042,7.410 16.002,7.020 16.001 C 6.722 16.000,6.551 16.062,6.339 16.249 C 6.097 16.462,6.002 16.669,6.001 16.982 C 5.999 17.429,5.954 17.377,8.829 20.245 C 11.219 22.629,11.478 22.876,11.657 22.935 C 11.906 23.017,12.094 23.017,12.343 22.935 C 12.522 22.876,12.781 22.629,15.171 20.245 C 16.913 18.507,17.828 17.566,17.879 17.460 C 18.125 16.951,17.919 16.362,17.410 16.115 C 17.160 15.994,16.805 15.996,16.558 16.119 C 16.436 16.180,15.854 16.732,14.690 17.894 L 13.000 19.580 13.000 10.717 C 13.000 0.770,13.027 1.625,12.701 1.299 C 12.429 1.027,12.018 0.933,11.664 1.063 " fill="#000640" stroke="none" fill-rule="evenodd"></path></svg>