<svg xmlns="http://www.w3.org/2000/svg" width="24" height="24" fill="currentColor" class="mmi mmi-longarrow-downleft" viewBox="0 0 24 24"><path d="M18.800 4.037 C 18.723 4.053,18.597 4.098,18.520 4.137 C 18.443 4.176,15.595 6.991,12.190 10.394 L 6.000 16.580 6.000 14.217 C 6.000 11.546,6.006 11.604,5.700 11.298 C 5.390 10.988,4.932 10.920,4.531 11.126 C 4.312 11.239,4.101 11.494,4.040 11.719 C 4.012 11.824,4.002 13.092,4.009 15.587 L 4.020 19.300 4.131 19.489 C 4.192 19.592,4.301 19.723,4.374 19.778 C 4.675 20.008,4.531 20.000,8.498 20.000 C 12.604 20.000,12.387 20.015,12.701 19.701 C 13.092 19.310,13.092 18.690,12.701 18.299 C 12.396 17.994,12.453 18.000,9.783 18.000 L 7.421 18.000 13.647 11.770 C 19.745 5.669,19.875 5.536,19.937 5.323 C 20.015 5.053,20.015 4.987,19.938 4.725 C 19.797 4.252,19.277 3.937,18.800 4.037 " fill="#000640" stroke="none" fill-rule="evenodd"></path></svg>