<svg xmlns="http://www.w3.org/2000/svg" width="24" height="24" fill="currentColor" class="mmi mmi-longarrow-right" viewBox="0 0 24 24"><path d="M16.656 6.043 C 16.480 6.094,16.162 6.388,16.075 6.578 C 15.975 6.799,15.978 7.168,16.083 7.400 C 16.144 7.535,16.588 8.005,17.871 9.290 L 19.579 11.000 10.714 11.000 C 1.038 11.000,1.685 10.985,1.374 11.222 C 1.301 11.277,1.192 11.408,1.131 11.511 C 1.036 11.672,1.020 11.744,1.020 12.000 C 1.020 12.256,1.036 12.328,1.131 12.489 C 1.192 12.592,1.301 12.723,1.374 12.778 C 1.685 13.015,1.038 13.000,10.714 13.000 L 19.578 13.000 17.853 14.730 C 16.201 16.386,16.124 16.469,16.064 16.677 C 15.984 16.948,15.984 17.013,16.064 17.283 C 16.156 17.590,16.419 17.849,16.735 17.940 C 17.001 18.018,17.210 18.000,17.460 17.879 C 17.566 17.828,18.507 16.913,20.245 15.171 C 22.629 12.781,22.876 12.522,22.935 12.343 C 22.971 12.234,23.000 12.080,23.000 12.000 C 23.000 11.920,22.971 11.766,22.935 11.657 C 22.876 11.478,22.629 11.219,20.245 8.829 C 18.234 6.813,17.574 6.175,17.422 6.099 C 17.212 5.994,16.903 5.972,16.656 6.043 " fill="#000640" stroke="none" fill-rule="evenodd"></path></svg>