<svg xmlns="http://www.w3.org/2000/svg" width="24" height="24" fill="currentColor" class="mmi mmi-lowboot" viewBox="0 0 24 24"><path d="M10.664 4.063 C 10.436 4.146,10.257 4.297,10.132 4.510 C 10.037 4.671,10.020 4.751,10.007 5.082 L 9.991 5.466 9.720 5.572 C 8.587 6.012,6.714 6.199,4.660 6.075 C 3.180 5.986,3.086 5.999,2.770 6.329 C 2.372 6.743,1.642 8.909,1.343 10.560 C 1.071 12.066,1.000 13.065,1.000 15.412 C 1.000 17.453,1.013 17.610,1.234 18.151 C 1.521 18.857,2.143 19.479,2.849 19.766 C 3.414 19.996,3.470 20.000,6.431 20.000 C 9.514 20.000,9.403 20.011,9.697 19.691 C 10.263 19.077,10.370 19.022,11.000 19.022 C 11.630 19.022,11.737 19.077,12.303 19.691 C 12.604 20.017,12.366 20.000,16.569 20.000 C 19.756 20.000,20.326 19.991,20.581 19.938 C 21.780 19.691,22.691 18.780,22.938 17.581 C 23.030 17.138,23.029 13.855,22.937 13.408 C 22.759 12.545,22.249 11.831,21.460 11.339 C 21.024 11.067,20.618 10.941,19.730 10.803 C 18.547 10.618,17.842 10.453,16.860 10.132 C 14.645 9.407,13.081 8.241,12.361 6.780 C 12.051 6.149,12.000 5.951,12.000 5.361 C 12.000 4.747,11.942 4.540,11.701 4.299 C 11.429 4.027,11.018 3.933,10.664 4.063 M10.617 7.785 C 10.848 8.219,11.101 8.601,11.404 8.971 C 11.534 9.130,11.640 9.275,11.640 9.293 C 11.640 9.312,11.534 9.465,11.405 9.633 C 11.071 10.069,11.023 10.174,11.022 10.480 C 11.020 11.211,11.762 11.693,12.420 11.386 C 12.625 11.290,12.799 11.123,13.037 10.790 C 13.112 10.685,13.181 10.600,13.191 10.600 C 13.200 10.600,13.368 10.699,13.563 10.820 C 13.758 10.940,14.082 11.122,14.283 11.224 C 14.607 11.387,14.644 11.417,14.620 11.494 C 14.494 11.892,14.480 11.986,14.519 12.172 C 14.575 12.432,14.646 12.560,14.831 12.727 C 15.357 13.202,16.145 13.018,16.440 12.350 C 16.530 12.146,16.547 12.138,16.760 12.202 C 17.495 12.420,18.564 12.648,19.551 12.798 C 20.212 12.898,20.422 12.986,20.680 13.268 C 20.950 13.563,21.000 13.747,21.000 14.450 L 21.000 15.006 18.310 14.989 C 15.428 14.971,15.275 14.962,13.920 14.737 C 13.196 14.616,12.805 14.534,11.180 14.160 C 8.638 13.574,7.381 13.350,5.700 13.183 C 4.883 13.101,3.949 13.040,3.507 13.039 C 3.305 13.039,3.119 13.025,3.093 13.009 C 2.989 12.943,3.277 10.919,3.539 9.880 C 3.694 9.262,3.838 8.790,4.003 8.360 L 4.118 8.060 4.969 8.097 C 6.396 8.159,7.976 8.052,9.120 7.817 C 9.491 7.740,10.323 7.503,10.427 7.444 C 10.430 7.442,10.516 7.595,10.617 7.785 M3.920 15.059 C 5.615 15.120,7.625 15.405,9.720 15.881 C 12.278 16.462,12.804 16.575,13.540 16.699 C 15.069 16.958,15.268 16.970,18.270 16.989 C 20.830 17.006,21.000 17.011,21.000 17.076 C 21.000 17.246,20.857 17.545,20.701 17.701 C 20.389 18.014,20.564 18.000,16.832 18.000 L 13.518 18.000 13.249 17.777 C 12.924 17.509,12.375 17.230,11.940 17.114 C 11.480 16.990,10.520 16.990,10.060 17.114 C 9.625 17.230,9.076 17.509,8.751 17.777 L 8.482 18.000 6.168 18.000 C 3.553 18.000,3.603 18.005,3.299 17.701 C 3.021 17.423,3.000 17.308,3.000 16.072 L 3.000 14.999 3.150 15.018 C 3.232 15.028,3.579 15.047,3.920 15.059 " fill="#000640" stroke="none" fill-rule="evenodd"></path></svg>