<svg xmlns="http://www.w3.org/2000/svg" width="24" height="24" fill="currentColor" class="mmi mmi-luggage-v2" viewBox="0 0 24 24"><path d="M9.503 1.041 C 8.483 1.217,7.556 1.976,7.202 2.925 C 7.048 3.336,7.001 3.668,7.001 4.347 L 7.000 4.995 5.230 5.010 C 3.265 5.028,3.304 5.023,2.704 5.312 C 1.836 5.729,1.263 6.466,1.060 7.425 C 0.970 7.850,0.971 19.145,1.062 19.581 C 1.310 20.785,2.215 21.690,3.419 21.938 C 3.583 21.972,3.778 22.000,3.853 22.000 C 3.983 22.000,3.991 22.009,4.017 22.170 C 4.052 22.388,4.205 22.650,4.374 22.778 C 4.786 23.092,5.342 23.060,5.701 22.701 C 5.858 22.544,6.000 22.246,6.000 22.073 C 6.000 22.003,6.222 22.000,11.995 22.000 L 17.990 22.000 18.017 22.170 C 18.052 22.388,18.205 22.650,18.374 22.778 C 18.786 23.092,19.342 23.060,19.701 22.701 C 19.858 22.544,20.000 22.246,20.000 22.073 C 20.000 22.016,20.031 22.000,20.142 22.000 C 20.366 22.000,20.855 21.887,21.150 21.767 C 21.850 21.482,22.482 20.850,22.767 20.150 C 23.010 19.554,23.000 19.826,23.000 13.500 C 23.000 7.172,23.010 7.447,22.766 6.849 C 22.499 6.193,21.964 5.633,21.296 5.312 C 20.696 5.023,20.735 5.028,18.770 5.010 L 17.000 4.995 17.000 4.356 C 17.000 3.645,16.944 3.287,16.766 2.849 C 16.499 2.193,15.964 1.633,15.296 1.312 C 14.674 1.013,14.813 1.026,12.120 1.016 C 10.789 1.011,9.611 1.023,9.503 1.041 M14.340 3.066 C 14.593 3.153,14.847 3.407,14.934 3.660 C 14.983 3.805,15.000 3.999,15.000 4.427 L 15.000 5.000 12.000 5.000 L 9.000 5.000 9.000 4.427 C 9.000 3.740,9.052 3.546,9.300 3.298 C 9.596 3.002,9.550 3.007,11.983 3.003 C 13.897 3.000,14.168 3.008,14.340 3.066 M7.000 13.500 L 7.000 20.000 5.427 20.000 C 3.638 20.000,3.591 19.994,3.299 19.701 C 2.978 19.380,3.000 19.843,3.000 13.500 C 3.000 7.156,2.978 7.620,3.300 7.298 C 3.588 7.010,3.614 7.007,5.410 7.003 L 7.000 7.000 7.000 13.500 M15.000 13.500 L 15.000 20.000 12.000 20.000 L 9.000 20.000 9.000 13.500 L 9.000 7.000 12.000 7.000 L 15.000 7.000 15.000 13.500 M20.340 7.066 C 20.455 7.105,20.603 7.201,20.701 7.299 C 21.022 7.620,21.000 7.157,21.000 13.500 C 21.000 19.843,21.022 19.380,20.701 19.701 C 20.409 19.994,20.362 20.000,18.573 20.000 L 17.000 20.000 17.000 13.500 L 17.000 7.000 18.573 7.000 C 19.932 7.000,20.172 7.009,20.340 7.066 " fill="#000640" stroke="none" fill-rule="evenodd"></path></svg>