<svg xmlns="http://www.w3.org/2000/svg" width="24" height="24" fill="currentColor" class="mmi mmi-luggage" viewBox="0 0 24 24"><path d="M8.664 1.063 C 8.436 1.146,8.257 1.297,8.131 1.511 L 8.020 1.700 8.008 2.946 L 7.996 4.193 7.188 4.209 C 6.449 4.223,6.353 4.234,6.069 4.328 C 5.157 4.633,4.458 5.343,4.130 6.300 L 4.020 6.620 4.009 12.940 C 3.996 19.871,3.986 19.543,4.233 20.149 C 4.521 20.857,5.142 21.479,5.849 21.766 C 6.142 21.886,6.633 22.000,6.853 22.000 C 6.983 22.000,6.991 22.009,7.017 22.170 C 7.052 22.388,7.205 22.650,7.374 22.778 C 7.786 23.092,8.342 23.060,8.701 22.701 C 8.858 22.544,9.000 22.246,9.000 22.073 C 9.000 22.003,9.124 22.000,11.995 22.000 L 14.990 22.000 15.017 22.170 C 15.052 22.388,15.205 22.650,15.374 22.778 C 15.786 23.092,16.342 23.060,16.701 22.701 C 16.858 22.544,17.000 22.246,17.000 22.073 C 17.000 22.016,17.031 22.000,17.142 22.000 C 17.366 22.000,17.855 21.887,18.150 21.767 C 18.851 21.481,19.482 20.850,19.768 20.148 C 20.014 19.544,20.004 19.870,19.991 12.940 L 19.980 6.620 19.885 6.340 C 19.549 5.344,18.865 4.640,17.931 4.328 C 17.646 4.234,17.551 4.223,16.810 4.209 L 16.000 4.193 16.000 3.024 C 16.000 1.682,15.982 1.580,15.701 1.299 C 15.389 0.987,15.547 1.000,11.983 1.003 C 9.342 1.005,8.794 1.015,8.664 1.063 M14.000 3.600 L 14.000 4.200 12.000 4.200 L 10.000 4.200 10.000 3.600 L 10.000 3.000 12.000 3.000 L 14.000 3.000 14.000 3.600 M17.391 6.262 C 17.579 6.340,17.782 6.533,17.894 6.740 L 17.980 6.900 17.991 13.018 C 18.002 19.896,18.025 19.377,17.702 19.700 C 17.381 20.021,17.784 20.000,12.000 20.000 C 6.216 20.000,6.619 20.021,6.298 19.700 C 5.975 19.377,5.998 19.896,6.009 13.018 L 6.020 6.900 6.106 6.740 C 6.154 6.652,6.253 6.522,6.326 6.452 C 6.605 6.186,6.206 6.203,11.991 6.202 C 16.647 6.200,17.259 6.207,17.391 6.262 M9.664 8.063 C 9.436 8.146,9.257 8.297,9.131 8.511 L 9.020 8.700 9.009 12.913 C 9.002 15.750,9.012 17.177,9.040 17.281 C 9.101 17.506,9.312 17.761,9.531 17.874 C 9.932 18.080,10.390 18.012,10.700 17.702 C 11.018 17.384,11.000 17.665,11.000 13.000 C 11.000 8.337,11.018 8.616,10.701 8.299 C 10.429 8.027,10.018 7.933,9.664 8.063 M13.664 8.063 C 13.436 8.146,13.257 8.297,13.131 8.511 L 13.020 8.700 13.009 12.913 C 13.002 15.750,13.012 17.177,13.040 17.281 C 13.101 17.506,13.312 17.761,13.531 17.874 C 13.932 18.080,14.390 18.012,14.700 17.702 C 15.018 17.384,15.000 17.665,15.000 13.000 C 15.000 8.337,15.018 8.616,14.701 8.299 C 14.429 8.027,14.018 7.933,13.664 8.063 " fill="#000640" stroke="none" fill-rule="evenodd"></path></svg>