<svg xmlns="http://www.w3.org/2000/svg" width="24" height="24" fill="currentColor" class="mmi mmi-magicialhat" viewBox="0 0 24 24"><path d="M10.900 1.025 C 8.527 1.155,6.105 1.676,4.695 2.360 C 4.026 2.685,3.576 3.193,3.343 3.887 C 3.214 4.273,3.145 4.753,3.179 5.039 C 3.194 5.161,3.483 7.092,3.823 9.331 C 4.162 11.570,4.440 13.409,4.440 13.418 C 4.440 13.426,4.229 13.544,3.970 13.680 C 2.392 14.506,1.447 15.506,1.097 16.720 C 0.991 17.085,0.991 17.915,1.097 18.280 C 1.281 18.919,1.588 19.428,2.117 19.975 C 3.728 21.638,6.789 22.712,10.640 22.963 C 11.539 23.021,13.324 22.990,14.180 22.900 C 16.373 22.671,18.217 22.198,19.700 21.484 C 20.664 21.020,21.291 20.587,21.883 19.975 C 22.276 19.569,22.514 19.234,22.699 18.825 C 22.931 18.314,22.980 18.078,22.977 17.480 C 22.975 17.000,22.962 16.902,22.863 16.600 C 22.732 16.203,22.608 15.948,22.395 15.633 C 21.896 14.897,21.102 14.241,20.030 13.680 C 19.771 13.544,19.560 13.426,19.560 13.417 C 19.560 13.408,19.842 11.560,20.186 9.310 C 20.872 4.824,20.884 4.710,20.727 4.115 C 20.562 3.493,20.204 2.950,19.742 2.620 C 19.414 2.386,19.032 2.211,18.316 1.967 C 17.051 1.536,15.686 1.256,14.080 1.099 C 13.480 1.041,11.469 0.994,10.900 1.025 M13.200 3.042 C 14.914 3.149,16.386 3.418,17.684 3.863 C 18.626 4.186,18.768 4.300,18.792 4.759 C 18.803 4.947,18.676 5.877,18.338 8.100 C 18.081 9.794,17.864 11.187,17.857 11.195 C 17.807 11.251,15.775 11.678,14.998 11.796 C 13.156 12.076,11.276 12.076,9.320 11.797 C 8.321 11.655,6.221 11.237,6.152 11.168 C 6.137 11.153,5.915 9.763,5.659 8.080 C 5.322 5.865,5.197 4.948,5.207 4.759 C 5.232 4.300,5.374 4.186,6.316 3.863 C 8.257 3.198,10.817 2.893,13.200 3.042 M7.325 13.481 C 9.425 13.896,11.139 14.053,12.920 13.994 C 14.126 13.954,15.129 13.829,16.595 13.536 C 17.088 13.438,17.500 13.367,17.511 13.378 C 17.522 13.389,17.435 14.037,17.317 14.819 L 17.103 16.239 16.802 16.337 C 15.716 16.692,14.637 16.936,13.480 17.088 C 12.900 17.165,11.299 17.152,10.620 17.066 C 9.649 16.942,8.600 16.718,7.398 16.376 L 6.896 16.234 6.677 14.777 C 6.556 13.976,6.469 13.320,6.483 13.320 C 6.498 13.320,6.877 13.393,7.325 13.481 M4.884 16.346 C 5.031 17.322,5.080 17.482,5.301 17.703 C 5.491 17.893,5.747 17.989,7.067 18.360 C 9.045 18.916,10.476 19.137,12.120 19.138 C 13.992 19.140,15.362 18.896,17.748 18.137 C 18.858 17.784,18.897 17.734,19.101 16.419 C 19.176 15.941,19.243 15.543,19.252 15.535 C 19.294 15.493,20.176 16.132,20.426 16.385 C 21.183 17.151,21.175 17.859,20.400 18.641 C 19.008 20.046,15.610 21.000,12.000 21.000 C 8.390 21.000,4.992 20.046,3.600 18.641 C 2.823 17.856,2.816 17.152,3.581 16.378 C 3.837 16.118,4.706 15.493,4.750 15.536 C 4.758 15.545,4.819 15.909,4.884 16.346 " fill="#000640" stroke="none" fill-rule="evenodd"></path></svg>