<svg xmlns="http://www.w3.org/2000/svg" width="24" height="24" fill="currentColor" class="mmi mmi-magicianhat" viewBox="0 0 24 24"><path d="M10.640 1.045 C 6.906 1.256,3.712 2.372,2.117 4.025 C 1.575 4.586,1.258 5.119,1.097 5.740 C 0.997 6.124,0.997 6.876,1.097 7.260 C 1.424 8.520,2.560 9.658,4.332 10.500 C 4.586 10.621,4.812 10.720,4.835 10.720 C 4.857 10.720,4.886 10.737,4.899 10.758 C 4.911 10.778,4.740 12.646,4.518 14.908 C 4.216 17.975,4.119 19.101,4.135 19.340 C 4.184 20.061,4.443 20.641,4.939 21.145 C 5.216 21.426,5.318 21.498,5.680 21.672 C 6.955 22.285,8.835 22.735,10.732 22.882 C 11.509 22.942,13.248 22.910,13.960 22.822 C 15.625 22.616,17.265 22.184,18.320 21.673 C 18.681 21.499,18.785 21.424,19.061 21.145 C 19.557 20.641,19.816 20.061,19.865 19.340 C 19.881 19.101,19.784 17.973,19.482 14.908 C 19.260 12.646,19.089 10.779,19.101 10.758 C 19.114 10.737,19.143 10.720,19.165 10.720 C 19.240 10.720,20.127 10.283,20.475 10.074 C 21.535 9.439,22.329 8.635,22.700 7.825 C 22.908 7.370,22.976 7.045,22.976 6.500 C 22.976 5.546,22.659 4.828,21.883 4.025 C 19.880 1.950,15.440 0.773,10.640 1.045 M13.367 3.042 C 15.991 3.223,18.303 3.871,19.760 4.832 C 20.228 5.141,20.676 5.600,20.846 5.946 C 21.129 6.521,20.992 7.044,20.406 7.635 C 18.617 9.439,13.825 10.397,9.400 9.837 C 6.338 9.449,3.770 8.306,3.154 7.054 C 2.871 6.479,3.008 5.956,3.594 5.365 C 4.781 4.168,7.502 3.260,10.540 3.045 C 11.246 2.995,12.665 2.994,13.367 3.042 M11.060 4.025 C 9.462 4.133,8.121 4.418,7.303 4.824 C 6.676 5.136,6.349 5.436,6.131 5.903 C 6.035 6.107,6.020 6.190,6.020 6.500 C 6.020 6.823,6.033 6.888,6.149 7.132 C 6.581 8.043,7.903 8.628,10.160 8.906 C 10.981 9.007,13.019 9.007,13.840 8.906 C 16.097 8.628,17.419 8.043,17.851 7.132 C 17.967 6.888,17.980 6.823,17.980 6.500 C 17.980 6.190,17.965 6.107,17.869 5.903 C 17.655 5.446,17.326 5.139,16.734 4.842 C 16.056 4.503,14.957 4.225,13.800 4.100 C 13.235 4.039,11.542 3.993,11.060 4.025 M13.800 6.118 C 14.451 6.203,15.164 6.351,15.400 6.450 L 15.540 6.508 15.280 6.590 C 14.905 6.707,14.338 6.823,13.740 6.905 C 13.005 7.006,10.996 7.007,10.280 6.907 C 9.651 6.819,9.090 6.706,8.735 6.594 L 8.460 6.508 8.600 6.450 C 8.949 6.304,10.055 6.106,10.884 6.041 C 11.604 5.985,13.085 6.024,13.800 6.118 M7.480 11.535 C 8.550 11.767,9.657 11.902,11.010 11.968 C 12.868 12.057,15.039 11.879,16.676 11.501 C 16.908 11.447,17.107 11.413,17.119 11.425 C 17.146 11.452,17.312 13.130,17.292 13.169 C 17.268 13.214,16.350 13.499,15.790 13.636 C 15.247 13.769,14.354 13.924,13.660 14.007 C 13.387 14.040,12.756 14.060,12.000 14.060 C 11.244 14.060,10.613 14.040,10.340 14.007 C 9.646 13.924,8.753 13.769,8.210 13.636 C 7.650 13.499,6.732 13.214,6.708 13.169 C 6.696 13.146,6.856 11.455,6.875 11.407 C 6.878 11.400,6.912 11.404,6.950 11.415 C 6.989 11.426,7.227 11.480,7.480 11.535 M6.800 15.321 C 10.019 16.318,13.899 16.323,17.153 15.334 C 17.337 15.279,17.492 15.239,17.499 15.247 C 17.519 15.268,17.880 19.004,17.879 19.181 C 17.878 19.379,17.767 19.626,17.613 19.770 C 17.389 19.980,16.035 20.425,14.960 20.641 C 13.852 20.864,13.462 20.897,12.000 20.897 C 10.538 20.897,10.148 20.864,9.040 20.641 C 7.965 20.425,6.611 19.980,6.387 19.770 C 6.231 19.624,6.122 19.378,6.121 19.173 C 6.120 19.080,6.201 18.181,6.300 17.173 C 6.399 16.166,6.480 15.319,6.480 15.291 C 6.480 15.225,6.493 15.226,6.800 15.321 " fill="#000640" stroke="none" fill-rule="evenodd"></path></svg>