<svg xmlns="http://www.w3.org/2000/svg" width="24" height="24" fill="currentColor" class="mmi mmi-magicwand" viewBox="0 0 24 24"><path d="M12.150 1.041 C 11.722 1.149,11.343 1.465,11.144 1.880 C 11.034 2.111,11.020 2.180,11.020 2.500 C 11.020 2.811,11.035 2.894,11.133 3.104 C 11.276 3.413,11.585 3.721,11.900 3.868 C 12.107 3.965,12.190 3.980,12.500 3.980 C 12.811 3.980,12.894 3.965,13.104 3.867 C 13.413 3.724,13.721 3.415,13.868 3.100 C 13.965 2.893,13.980 2.810,13.980 2.500 C 13.980 2.189,13.965 2.106,13.867 1.896 C 13.725 1.589,13.414 1.278,13.110 1.139 C 12.852 1.022,12.407 0.976,12.150 1.041 M19.643 1.069 C 19.546 1.103,19.392 1.206,19.300 1.298 C 19.052 1.546,19.000 1.740,19.000 2.427 L 19.000 3.000 18.427 3.000 C 17.741 3.000,17.546 3.052,17.299 3.299 C 16.908 3.690,16.908 4.310,17.299 4.701 C 17.546 4.948,17.741 5.000,18.427 5.000 L 19.000 5.000 19.000 5.573 C 19.000 6.259,19.052 6.454,19.299 6.701 C 19.690 7.092,20.310 7.092,20.701 6.701 C 20.948 6.454,21.000 6.259,21.000 5.573 L 21.000 5.000 21.573 5.000 C 22.259 5.000,22.454 4.948,22.701 4.701 C 22.881 4.521,23.000 4.242,23.000 4.000 C 23.000 3.758,22.881 3.479,22.701 3.299 C 22.454 3.052,22.259 3.000,21.573 3.000 L 21.000 3.000 21.000 2.427 C 21.000 1.741,20.948 1.546,20.701 1.299 C 20.424 1.021,20.024 0.934,19.643 1.069 M14.375 5.897 C 14.066 5.967,13.705 6.113,13.409 6.285 C 13.237 6.385,11.900 7.695,8.006 11.579 C 5.160 14.418,2.718 16.871,2.580 17.031 C 2.291 17.366,2.087 17.733,1.954 18.160 C 1.875 18.412,1.860 18.546,1.860 19.000 C 1.860 19.454,1.875 19.588,1.954 19.840 C 2.273 20.864,3.126 21.722,4.140 22.040 C 4.726 22.224,5.526 22.186,6.118 21.947 C 6.691 21.715,6.597 21.804,12.053 16.361 C 14.931 13.489,17.372 11.032,17.478 10.900 C 17.914 10.357,18.117 9.825,18.148 9.140 C 18.190 8.216,17.912 7.522,17.220 6.818 C 16.806 6.398,16.394 6.134,15.900 5.974 C 15.502 5.846,14.765 5.808,14.375 5.897 M15.335 7.888 C 15.582 7.960,16.049 8.438,16.118 8.689 C 16.181 8.918,16.159 9.249,16.067 9.440 C 16.030 9.517,15.550 10.030,15.000 10.580 L 14.000 11.580 13.210 10.789 L 12.420 9.999 13.460 8.966 C 14.223 8.208,14.537 7.922,14.640 7.891 C 14.833 7.832,15.139 7.831,15.335 7.888 M19.643 11.069 C 19.546 11.103,19.392 11.206,19.300 11.298 C 19.052 11.546,19.000 11.740,19.000 12.427 L 19.000 13.000 18.427 13.000 C 17.741 13.000,17.546 13.052,17.299 13.299 C 16.908 13.690,16.908 14.310,17.299 14.701 C 17.546 14.948,17.741 15.000,18.427 15.000 L 19.000 15.000 19.000 15.573 C 19.000 16.259,19.052 16.454,19.299 16.701 C 19.690 17.092,20.310 17.092,20.701 16.701 C 20.948 16.454,21.000 16.259,21.000 15.573 L 21.000 15.000 21.573 15.000 C 22.259 15.000,22.454 14.948,22.701 14.701 C 22.881 14.521,23.000 14.242,23.000 14.000 C 23.000 13.758,22.881 13.479,22.701 13.299 C 22.454 13.052,22.259 13.000,21.573 13.000 L 21.000 13.000 21.000 12.427 C 21.000 11.741,20.948 11.546,20.701 11.299 C 20.424 11.021,20.024 10.934,19.643 11.069 M11.800 12.220 L 12.580 13.000 9.080 16.500 C 7.045 18.535,5.521 20.028,5.440 20.067 C 5.249 20.159,4.918 20.181,4.689 20.118 C 4.542 20.077,4.438 20.004,4.218 19.783 C 3.917 19.481,3.840 19.321,3.840 19.000 C 3.840 18.572,3.650 18.783,7.456 14.970 C 9.394 13.028,10.988 11.440,11.000 11.440 C 11.011 11.440,11.371 11.791,11.800 12.220 " fill="#000640" stroke="none" fill-rule="evenodd"></path></svg>