<svg xmlns="http://www.w3.org/2000/svg" width="24" height="24" fill="currentColor" class="mmi mmi-magnet" viewBox="0 0 24 24"><path d="M1.664 1.063 C 1.436 1.146,1.257 1.297,1.131 1.511 L 1.020 1.700 1.020 7.340 C 1.020 12.565,1.025 13.015,1.092 13.460 C 1.387 15.427,2.074 17.092,3.230 18.637 C 3.685 19.244,4.756 20.315,5.363 20.770 C 6.909 21.926,8.591 22.621,10.540 22.907 C 10.896 22.959,11.273 22.977,12.000 22.977 C 12.727 22.977,13.104 22.959,13.460 22.907 C 15.409 22.621,17.091 21.926,18.637 20.770 C 19.244 20.315,20.315 19.244,20.770 18.637 C 21.900 17.126,22.575 15.521,22.890 13.592 C 22.976 13.067,22.977 12.984,22.990 7.465 C 23.005 1.166,23.026 1.624,22.702 1.300 C 22.389 0.987,22.546 1.000,18.998 1.000 C 15.578 1.000,15.672 0.994,15.374 1.222 C 15.301 1.277,15.192 1.408,15.131 1.511 L 15.020 1.700 14.998 6.680 L 14.977 11.660 14.887 12.000 C 14.742 12.545,14.550 12.894,14.202 13.242 C 13.863 13.580,13.566 13.747,13.054 13.887 C 12.785 13.961,12.633 13.973,12.000 13.973 C 11.367 13.973,11.215 13.961,10.946 13.887 C 10.434 13.747,10.137 13.580,9.798 13.242 C 9.450 12.894,9.258 12.545,9.113 12.000 L 9.023 11.660 9.001 6.700 L 8.980 1.740 8.886 1.550 C 8.774 1.323,8.570 1.145,8.325 1.061 C 8.065 0.973,1.906 0.974,1.664 1.063 M7.000 4.500 L 7.000 6.000 5.000 6.000 L 3.000 6.000 3.000 4.500 L 3.000 3.000 5.000 3.000 L 7.000 3.000 7.000 4.500 M21.000 4.500 L 21.000 6.000 19.000 6.000 L 17.000 6.000 17.000 4.500 L 17.000 3.000 19.000 3.000 L 21.000 3.000 21.000 4.500 M7.011 9.930 C 7.026 11.729,7.033 11.886,7.114 12.248 C 7.564 14.259,8.750 15.446,10.753 15.890 C 11.082 15.963,11.268 15.975,12.000 15.975 C 12.732 15.975,12.918 15.963,13.247 15.890 C 15.250 15.446,16.436 14.259,16.886 12.248 C 16.967 11.886,16.974 11.729,16.989 9.930 L 17.006 8.000 19.006 8.000 L 21.006 8.000 20.990 10.450 C 20.976 12.523,20.963 12.965,20.904 13.320 C 20.412 16.325,18.616 18.772,15.940 20.083 C 12.817 21.614,9.096 21.198,6.369 19.013 C 4.850 17.796,3.722 16.031,3.267 14.160 C 3.036 13.213,3.028 13.095,3.010 10.450 L 2.994 8.000 4.994 8.000 L 6.994 8.000 7.011 9.930 " fill="#000640" stroke="none" fill-rule="evenodd"></path></svg>