<svg xmlns="http://www.w3.org/2000/svg" width="24" height="24" fill="currentColor" class="mmi mmi-male" viewBox="0 0 24 24"><path d="M13.664 2.063 C 13.436 2.146,13.257 2.297,13.131 2.511 C 13.036 2.672,13.020 2.744,13.020 3.000 C 13.020 3.256,13.036 3.328,13.131 3.489 C 13.192 3.592,13.301 3.723,13.374 3.778 C 13.667 4.001,13.650 4.000,16.215 4.000 L 18.580 4.000 16.745 5.835 L 14.910 7.671 14.465 7.371 C 12.136 5.801,9.110 5.571,6.588 6.773 C 4.919 7.568,3.596 8.878,2.800 10.529 C 0.880 14.503,2.549 19.278,6.529 21.200 C 8.730 22.264,11.270 22.264,13.471 21.200 C 16.233 19.867,17.999 17.057,17.999 14.000 C 17.999 12.433,17.508 10.830,16.632 9.535 L 16.331 9.089 18.165 7.255 L 20.000 5.420 20.000 7.780 C 20.000 9.282,20.015 10.194,20.042 10.289 C 20.103 10.509,20.315 10.762,20.531 10.874 C 20.932 11.080,21.390 11.012,21.700 10.702 C 22.016 10.386,22.000 10.611,22.000 6.452 C 22.000 2.347,22.017 2.607,21.728 2.305 C 21.416 1.979,21.724 2.002,17.540 2.004 C 14.414 2.005,13.795 2.015,13.664 2.063 M11.041 8.097 C 12.371 8.333,13.638 9.046,14.506 10.045 C 15.229 10.879,15.707 11.879,15.909 12.980 C 15.999 13.468,15.999 14.532,15.909 15.020 C 15.805 15.587,15.653 16.064,15.423 16.545 C 14.584 18.296,13.102 19.462,11.174 19.887 C 10.603 20.013,9.397 20.013,8.826 19.887 C 6.341 19.339,4.548 17.496,4.090 15.020 C 4.000 14.531,4.000 13.469,4.090 12.980 C 4.394 11.335,5.309 9.928,6.660 9.025 C 7.725 8.313,8.873 7.981,10.140 8.019 C 10.448 8.029,10.853 8.063,11.041 8.097 " fill="#000640" stroke="none" fill-rule="evenodd"></path></svg>