<svg xmlns="http://www.w3.org/2000/svg" width="24" height="24" fill="currentColor" class="mmi mmi-map-placemarker" viewBox="0 0 24 24"><path d="M11.200 1.058 C 10.350 1.181,9.480 1.491,8.844 1.899 C 8.751 1.959,8.615 1.998,8.460 2.011 C 8.248 2.028,7.821 2.215,4.840 3.588 C 1.143 5.291,1.203 5.259,1.066 5.660 C 1.005 5.838,1.000 6.524,1.000 13.980 C 1.000 21.239,1.007 22.128,1.063 22.316 C 1.187 22.734,1.639 23.033,2.081 22.991 C 2.225 22.977,3.047 22.615,5.393 21.532 L 8.514 20.092 11.867 21.533 C 15.206 22.969,15.221 22.975,15.500 22.975 L 15.780 22.976 19.160 21.415 C 22.039 20.086,22.565 19.830,22.707 19.691 C 23.024 19.381,23.000 20.091,23.000 11.000 C 23.000 1.893,23.025 2.623,22.700 2.298 C 22.491 2.089,22.172 1.978,21.884 2.014 C 21.753 2.030,21.067 2.352,19.504 3.129 C 18.269 3.743,17.302 4.201,17.293 4.176 C 17.240 4.027,16.839 3.443,16.568 3.120 C 15.709 2.096,14.514 1.397,13.143 1.116 C 12.621 1.009,11.720 0.982,11.200 1.058 M13.038 3.138 C 14.254 3.474,15.255 4.364,15.715 5.520 C 15.870 5.909,16.000 6.553,16.000 6.931 C 16.000 8.108,14.789 10.459,12.613 13.510 C 12.295 13.956,12.020 14.320,12.003 14.320 C 11.942 14.320,10.995 12.986,10.270 11.880 C 9.138 10.152,8.357 8.619,8.092 7.600 C 8.006 7.269,7.996 7.163,8.015 6.780 C 8.098 5.089,9.283 3.601,10.902 3.157 C 11.401 3.020,11.549 3.003,12.120 3.019 C 12.545 3.031,12.741 3.056,13.038 3.138 M20.990 11.506 L 20.980 18.372 18.233 19.640 L 15.486 20.908 12.133 19.467 C 8.801 18.034,8.778 18.025,8.500 18.024 L 8.220 18.022 5.860 19.117 C 4.562 19.719,3.387 20.262,3.250 20.324 L 3.000 20.437 3.010 13.532 L 3.020 6.627 4.640 5.879 C 5.531 5.467,6.265 5.134,6.271 5.139 C 6.277 5.144,6.237 5.334,6.182 5.560 C 5.977 6.405,5.956 7.196,6.118 7.927 C 6.418 9.277,7.327 11.073,8.897 13.418 C 9.943 14.980,11.194 16.659,11.435 16.823 C 11.747 17.034,12.216 17.040,12.546 16.836 C 12.779 16.692,14.041 15.005,15.101 13.420 C 16.422 11.445,17.265 9.882,17.679 8.640 C 17.935 7.871,17.981 7.592,17.976 6.817 L 17.971 6.134 19.456 5.389 C 20.272 4.980,20.954 4.643,20.970 4.642 C 20.987 4.641,20.996 7.730,20.990 11.506 M11.580 5.047 C 10.859 5.185,10.199 5.848,10.044 6.592 C 9.789 7.816,10.751 9.000,12.000 9.000 C 13.080 9.000,14.000 8.080,14.000 7.000 C 14.000 6.477,13.790 5.983,13.404 5.596 C 12.913 5.106,12.277 4.914,11.580 5.047 " fill="#000640" stroke="none" fill-rule="evenodd"></path></svg>