<svg xmlns="http://www.w3.org/2000/svg" width="24" height="24" fill="currentColor" class="mmi mmi-mapflag-square" viewBox="0 0 24 24"><path d="M4.664 1.063 C 4.436 1.146,4.257 1.297,4.131 1.511 L 4.020 1.700 4.010 11.350 L 3.999 21.000 3.425 21.000 C 2.631 21.000,2.371 21.103,2.131 21.511 C 2.036 21.672,2.020 21.744,2.020 22.000 C 2.020 22.256,2.036 22.328,2.131 22.489 C 2.192 22.592,2.301 22.723,2.374 22.778 C 2.664 23.000,2.670 23.000,4.998 23.000 C 7.428 23.000,7.399 23.003,7.701 22.701 C 8.092 22.310,8.092 21.690,7.701 21.299 C 7.454 21.052,7.259 21.000,6.573 21.000 L 6.000 21.000 6.000 17.000 L 6.000 13.000 8.997 13.000 L 11.993 13.000 12.007 13.650 C 12.020 14.277,12.024 14.307,12.131 14.489 C 12.192 14.592,12.301 14.723,12.374 14.778 C 12.677 15.009,12.484 15.000,16.998 15.000 C 21.663 15.000,21.384 15.018,21.701 14.701 C 22.021 14.381,22.000 14.783,22.000 9.000 C 22.000 3.217,22.021 3.619,21.701 3.299 C 21.387 2.985,21.595 3.000,17.573 3.000 L 14.000 3.000 14.000 2.427 C 14.000 1.741,13.948 1.546,13.701 1.299 C 13.384 0.982,13.666 1.000,8.983 1.003 C 5.474 1.005,4.795 1.015,4.664 1.063 M12.007 3.650 C 12.020 4.277,12.024 4.307,12.131 4.489 C 12.192 4.592,12.301 4.723,12.374 4.778 C 12.675 5.008,12.538 5.000,16.425 5.000 L 20.000 5.000 20.000 9.000 L 20.000 13.000 17.000 13.000 L 14.000 13.000 14.000 12.427 C 14.000 11.741,13.948 11.546,13.701 11.299 C 13.387 10.985,13.595 11.000,9.573 11.000 L 6.000 11.000 6.000 7.000 L 6.000 3.000 8.997 3.000 L 11.993 3.000 12.007 3.650 " fill="#000640" stroke="none" fill-rule="evenodd"></path></svg>