<svg xmlns="http://www.w3.org/2000/svg" width="24" height="24" fill="currentColor" class="mmi mmi-mapflag-triangle" viewBox="0 0 24 24"><path d="M7.667 1.063 C 7.415 1.143,7.154 1.402,7.066 1.660 C 7.005 1.839,7.000 2.622,7.000 11.427 L 7.000 21.000 6.425 21.000 C 5.631 21.000,5.371 21.102,5.131 21.511 C 5.036 21.672,5.020 21.744,5.020 22.000 C 5.020 22.256,5.036 22.328,5.131 22.489 C 5.192 22.592,5.301 22.723,5.374 22.778 C 5.664 23.000,5.670 23.000,7.998 23.000 C 10.428 23.000,10.399 23.003,10.701 22.701 C 11.092 22.310,11.092 21.690,10.701 21.299 C 10.454 21.052,10.259 21.000,9.573 21.000 L 9.000 21.000 9.000 17.810 L 9.000 14.620 14.768 11.740 C 19.463 9.395,20.567 8.830,20.702 8.697 C 21.094 8.312,21.093 7.681,20.698 7.302 C 20.563 7.172,19.322 6.537,14.415 4.087 C 7.705 0.737,8.114 0.920,7.667 1.063 M13.380 5.810 C 15.767 7.003,17.720 7.989,17.720 8.000 C 17.720 8.020,9.059 12.360,9.020 12.360 C 9.009 12.360,9.000 10.398,9.000 8.000 C 9.000 5.602,9.009 3.640,9.020 3.640 C 9.031 3.640,10.993 4.616,13.380 5.810 " fill="#000640" stroke="none" fill-rule="evenodd"></path></svg>