<svg xmlns="http://www.w3.org/2000/svg" width="24" height="24" fill="currentColor" class="mmi mmi-mappin" viewBox="0 0 24 24"><path d="M11.242 1.046 C 8.937 1.287,6.807 2.755,5.771 4.818 C 5.210 5.935,4.970 7.018,5.013 8.240 C 5.050 9.306,5.275 10.182,5.759 11.143 C 6.459 12.533,7.514 13.582,8.916 14.281 C 9.403 14.523,10.116 14.766,10.634 14.865 L 11.000 14.936 11.000 18.538 C 11.000 20.896,11.015 22.191,11.042 22.289 C 11.103 22.509,11.315 22.762,11.531 22.874 C 11.932 23.080,12.390 23.012,12.700 22.702 C 13.015 22.387,13.000 22.600,13.000 18.541 L 13.000 14.936 13.370 14.865 C 14.770 14.596,16.190 13.794,17.162 12.723 C 18.779 10.941,19.363 8.558,18.760 6.200 C 18.432 4.917,17.644 3.645,16.630 2.759 C 15.129 1.450,13.211 0.840,11.242 1.046 M12.601 3.042 C 13.369 3.136,14.154 3.432,14.824 3.881 C 14.998 3.997,15.313 4.265,15.524 4.476 C 17.687 6.640,17.425 10.175,14.964 12.022 C 14.405 12.441,13.631 12.780,12.900 12.925 C 12.532 12.998,11.468 12.998,11.100 12.925 C 10.425 12.791,9.678 12.478,9.155 12.111 C 8.462 11.624,7.901 10.963,7.517 10.180 C 6.982 9.089,6.864 7.865,7.180 6.680 C 7.309 6.196,7.683 5.433,7.994 5.016 C 9.061 3.588,10.840 2.826,12.601 3.042 " fill="#000640" stroke="none" fill-rule="evenodd"></path></svg>