<svg xmlns="http://www.w3.org/2000/svg" width="24" height="24" fill="currentColor" class="mmi mmi-mappin-placed" viewBox="0 0 24 24"><path d="M11.240 1.042 C 10.032 1.193,9.059 1.554,8.041 2.229 C 7.497 2.590,6.681 3.381,6.304 3.913 C 5.639 4.850,5.222 5.896,5.057 7.040 C 4.967 7.664,4.997 8.808,5.118 9.371 C 5.584 11.535,6.962 13.324,8.900 14.279 C 9.386 14.518,10.130 14.771,10.630 14.865 L 11.000 14.936 11.000 17.038 C 11.000 18.363,11.016 19.195,11.042 19.289 C 11.103 19.509,11.315 19.762,11.531 19.874 C 11.932 20.080,12.390 20.012,12.700 19.702 C 13.003 19.399,13.000 19.424,13.000 17.041 L 13.000 14.936 13.370 14.865 C 13.573 14.826,13.953 14.722,14.214 14.635 C 17.690 13.473,19.681 9.832,18.780 6.280 C 18.096 3.582,15.890 1.561,13.120 1.095 C 12.691 1.023,11.634 0.993,11.240 1.042 M12.601 3.042 C 13.369 3.136,14.154 3.432,14.824 3.881 C 14.998 3.997,15.313 4.265,15.524 4.476 C 17.687 6.640,17.425 10.175,14.964 12.022 C 14.405 12.441,13.631 12.780,12.900 12.925 C 12.532 12.998,11.468 12.998,11.100 12.925 C 10.425 12.791,9.678 12.478,9.155 12.111 C 8.462 11.624,7.901 10.963,7.517 10.180 C 6.982 9.089,6.864 7.865,7.180 6.680 C 7.309 6.196,7.683 5.433,7.994 5.016 C 9.061 3.588,10.840 2.826,12.601 3.042 M8.344 17.265 C 5.583 17.695,3.770 18.538,3.222 19.647 C 3.030 20.037,2.970 20.381,3.030 20.764 C 3.290 22.445,5.710 23.537,10.040 23.927 C 10.761 23.992,13.222 23.992,13.960 23.927 C 18.267 23.546,20.710 22.443,20.970 20.764 C 21.203 19.260,19.604 18.044,16.600 17.439 C 15.851 17.288,15.255 17.200,14.987 17.200 C 14.375 17.200,13.897 17.802,14.039 18.395 C 14.100 18.650,14.212 18.819,14.430 18.985 C 14.611 19.123,14.668 19.138,15.580 19.280 C 16.957 19.495,18.349 19.965,18.824 20.376 L 18.972 20.504 18.818 20.632 C 18.190 21.149,16.488 21.646,14.620 21.856 C 12.523 22.093,10.199 22.035,8.278 21.698 C 6.887 21.454,5.635 21.021,5.176 20.624 L 5.028 20.496 5.182 20.368 C 5.687 19.953,7.053 19.494,8.420 19.280 C 9.306 19.142,9.384 19.123,9.556 18.998 C 10.364 18.413,9.957 17.189,8.960 17.205 C 8.817 17.207,8.540 17.234,8.344 17.265 " fill="#000640" stroke="none" fill-rule="evenodd"></path></svg>