<svg xmlns="http://www.w3.org/2000/svg" width="24" height="24" fill="currentColor" class="mmi mmi-mask-v2" viewBox="0 0 24 24"><path d="M11.200 0.028 C 10.795 0.053,10.025 0.162,9.520 0.265 C 6.727 0.838,4.180 2.460,2.410 4.793 C 1.201 6.386,0.442 8.222,0.109 10.359 C -0.013 11.143,-0.013 12.857,0.109 13.641 C 0.563 16.554,1.872 19.025,3.948 20.887 C 5.792 22.541,7.836 23.499,10.359 23.891 C 11.165 24.016,12.858 24.014,13.680 23.888 C 16.330 23.480,18.642 22.321,20.482 20.477 C 22.743 18.211,24.000 15.183,24.000 12.000 C 24.000 8.820,22.735 5.772,20.479 3.520 C 18.028 1.073,14.686 -0.185,11.200 0.028 M11.881 2.270 C 12.737 3.202,13.507 4.525,14.028 5.960 C 15.289 9.430,15.316 14.333,14.093 17.855 C 13.569 19.365,12.746 20.808,11.880 21.734 L 11.627 22.004 11.303 21.979 C 8.466 21.754,5.919 20.409,4.171 18.211 C 3.245 17.047,2.579 15.663,2.259 14.240 C 2.071 13.402,2.023 12.954,2.023 12.000 C 2.023 11.046,2.071 10.598,2.259 9.760 C 3.122 5.922,6.287 2.884,10.155 2.179 C 10.612 2.096,10.893 2.061,11.566 2.005 C 11.603 2.002,11.745 2.122,11.881 2.270 M14.992 2.461 C 15.390 2.587,16.264 2.930,16.314 2.981 C 16.325 2.991,16.002 2.999,15.597 2.999 L 14.860 2.997 14.670 2.681 C 14.566 2.508,14.480 2.355,14.480 2.343 C 14.480 2.304,14.535 2.316,14.992 2.461 M19.574 5.480 C 19.915 5.876,20.640 6.892,20.640 6.973 C 20.640 6.988,19.692 6.996,18.534 6.990 L 16.428 6.980 16.333 6.620 C 16.280 6.422,16.143 5.976,16.027 5.630 L 15.817 4.999 17.498 5.010 L 19.178 5.020 19.574 5.480 M21.631 9.310 C 21.753 9.765,21.835 10.170,21.895 10.610 L 21.948 11.001 19.464 10.990 L 16.980 10.980 16.952 10.500 C 16.924 10.007,16.851 9.250,16.818 9.090 L 16.798 9.000 19.173 9.000 L 21.547 9.000 21.631 9.310 M21.942 13.090 C 21.931 13.139,21.903 13.324,21.878 13.500 C 21.824 13.889,21.704 14.445,21.596 14.810 L 21.517 15.080 19.154 15.080 L 16.791 15.080 16.815 14.950 C 16.855 14.735,16.960 13.562,16.960 13.337 C 16.960 12.965,16.694 13.000,19.485 13.000 L 21.962 13.000 21.942 13.090 M20.555 17.170 C 20.377 17.507,19.866 18.193,19.409 18.710 L 19.153 19.000 17.484 19.000 L 15.815 19.000 16.001 18.450 C 16.104 18.148,16.239 17.715,16.302 17.490 L 16.415 17.080 18.509 17.080 L 20.603 17.080 20.555 17.170 M16.238 21.059 C 15.916 21.234,14.540 21.714,14.494 21.667 C 14.482 21.656,14.560 21.501,14.666 21.325 L 14.860 21.003 15.600 21.003 C 16.255 21.003,16.328 21.010,16.238 21.059 " fill="#000640" stroke="none" fill-rule="evenodd"></path></svg>