<svg xmlns="http://www.w3.org/2000/svg" width="24" height="24" fill="currentColor" class="mmi mmi-media" viewBox="0 0 24 24"><path d="M2.477 1.193 C 1.770 1.378,1.174 2.019,1.043 2.737 C 0.985 3.056,0.983 13.177,1.041 13.485 C 1.147 14.051,1.574 14.624,2.077 14.879 C 2.552 15.118,2.559 15.119,5.929 15.119 L 8.998 15.120 9.009 18.310 L 9.020 21.500 9.115 21.820 C 9.345 22.598,9.444 22.749,9.858 22.960 L 10.132 23.100 16.016 23.100 L 21.900 23.100 22.123 22.995 C 22.246 22.938,22.415 22.822,22.498 22.739 C 22.664 22.573,22.839 22.237,22.840 22.080 C 22.841 22.025,22.877 21.836,22.920 21.660 C 22.997 21.350,22.999 21.184,23.000 16.132 C 23.000 12.483,22.987 10.860,22.956 10.712 C 22.807 10.000,22.217 9.374,21.523 9.193 C 21.286 9.131,20.955 9.124,18.130 9.122 L 15.000 9.120 15.000 6.047 C 15.000 4.013,14.985 2.894,14.957 2.737 C 14.826 2.019,14.230 1.378,13.523 1.193 C 13.281 1.130,12.843 1.125,8.000 1.125 C 3.157 1.125,2.719 1.130,2.477 1.193 M13.000 6.120 L 13.000 9.120 11.870 9.122 C 10.936 9.124,10.694 9.137,10.477 9.193 C 9.783 9.374,9.193 10.000,9.044 10.712 C 9.018 10.837,9.000 11.375,9.000 12.022 L 9.000 13.120 6.000 13.120 L 3.000 13.120 3.000 8.120 L 3.000 3.120 8.000 3.120 L 13.000 3.120 13.000 6.120 M4.670 5.177 C 4.186 5.351,3.918 5.850,4.038 6.353 C 4.103 6.623,4.273 6.841,4.528 6.983 L 4.740 7.100 8.000 7.100 L 11.260 7.100 11.474 6.982 C 12.149 6.608,12.165 5.668,11.503 5.261 L 11.306 5.140 8.063 5.131 C 5.423 5.124,4.792 5.133,4.670 5.177 M4.670 9.176 C 4.185 9.353,3.918 9.850,4.038 10.353 C 4.103 10.623,4.273 10.841,4.528 10.983 L 4.740 11.100 6.000 11.100 L 7.260 11.100 7.474 10.982 C 8.149 10.608,8.165 9.668,7.503 9.261 L 7.306 9.140 6.063 9.131 C 5.093 9.123,4.787 9.133,4.670 9.176 M21.000 14.207 C 21.000 15.904,20.992 17.286,20.983 17.276 C 20.973 17.267,20.675 16.593,20.319 15.780 C 19.963 14.966,19.644 14.246,19.610 14.180 C 19.481 13.927,19.312 13.761,19.055 13.635 C 18.835 13.526,18.751 13.507,18.506 13.507 C 18.033 13.507,17.636 13.729,17.432 14.107 C 17.374 14.213,16.919 15.236,16.419 16.380 C 15.920 17.524,15.500 18.473,15.486 18.488 C 15.472 18.503,15.308 18.179,15.123 17.768 C 14.268 15.873,14.208 15.772,13.820 15.567 C 13.647 15.476,13.571 15.461,13.260 15.461 C 12.840 15.460,12.626 15.542,12.376 15.799 C 12.289 15.889,11.991 16.383,11.661 16.987 C 11.351 17.555,11.075 18.056,11.049 18.100 C 11.013 18.162,11.002 17.374,11.001 14.650 L 11.000 11.120 16.000 11.120 L 21.000 11.120 21.000 14.207 M19.200 18.200 C 19.560 19.025,19.994 20.020,20.164 20.410 L 20.475 21.121 18.548 21.110 C 16.759 21.101,16.620 21.095,16.608 21.031 C 16.600 20.993,16.994 20.048,17.483 18.931 C 17.972 17.814,18.397 16.839,18.429 16.765 C 18.460 16.690,18.499 16.645,18.516 16.665 C 18.533 16.684,18.841 17.375,19.200 18.200 M13.814 19.710 C 14.135 20.419,14.387 21.027,14.375 21.060 C 14.355 21.112,14.168 21.120,13.015 21.120 L 11.679 21.120 11.850 20.808 C 11.943 20.637,12.281 20.017,12.600 19.431 C 12.919 18.845,13.191 18.377,13.205 18.392 C 13.218 18.408,13.492 19.000,13.814 19.710 " fill="#000640" stroke="none" fill-rule="evenodd"></path></svg>