<svg xmlns="http://www.w3.org/2000/svg" width="24" height="24" fill="currentColor" class="mmi mmi-megaphone-v2" viewBox="0 0 24 24"><path d="M16.163 1.069 C 16.066 1.103,15.911 1.207,15.819 1.299 C 15.622 1.496,15.588 1.588,15.238 2.900 C 15.038 3.649,14.996 3.858,15.013 4.025 C 15.077 4.667,15.691 5.064,16.326 4.874 C 16.522 4.815,16.781 4.595,16.876 4.406 C 16.975 4.211,17.520 2.167,17.520 1.992 C 17.520 1.317,16.817 0.838,16.163 1.069 M12.240 3.035 C 12.185 3.053,12.086 3.096,12.020 3.130 C 11.954 3.165,10.541 4.426,8.880 5.933 L 5.860 8.674 4.141 9.667 C 3.196 10.213,2.323 10.734,2.201 10.824 C 1.590 11.276,1.180 11.938,1.040 12.695 C 0.962 13.114,1.005 13.746,1.138 14.140 C 1.238 14.435,2.134 16.062,2.515 16.639 C 3.301 17.829,4.974 18.286,6.260 17.662 L 6.521 17.535 8.532 20.017 C 10.795 22.811,10.702 22.717,11.212 22.719 C 11.411 22.720,11.528 22.697,11.652 22.635 C 11.949 22.484,16.055 20.108,16.184 20.013 C 16.387 19.861,16.530 19.553,16.532 19.262 C 16.537 18.805,16.548 18.818,14.380 16.749 C 13.302 15.719,12.416 14.864,12.410 14.849 C 12.405 14.833,13.530 14.505,14.910 14.120 C 17.053 13.523,17.443 13.403,17.579 13.299 C 17.884 13.066,18.028 12.742,17.985 12.383 C 17.966 12.222,17.535 11.378,15.671 7.851 C 14.411 5.467,13.320 3.445,13.246 3.357 C 13.172 3.269,13.038 3.160,12.949 3.114 C 12.772 3.024,12.400 2.982,12.240 3.035 M20.520 4.278 C 20.344 4.332,17.825 5.803,17.685 5.934 C 17.303 6.290,17.293 6.967,17.664 7.334 C 17.911 7.579,18.305 7.691,18.620 7.605 C 18.815 7.552,21.374 6.080,21.529 5.931 C 21.711 5.757,21.800 5.527,21.800 5.235 C 21.800 4.793,21.558 4.436,21.164 4.295 C 21.006 4.238,20.676 4.230,20.520 4.278 M13.888 8.756 C 14.789 10.456,15.517 11.856,15.507 11.866 C 15.459 11.914,9.903 13.439,9.878 13.411 C 9.862 13.394,9.377 12.561,8.800 11.560 C 8.223 10.559,7.744 9.728,7.735 9.713 C 7.714 9.677,12.170 5.637,12.215 5.652 C 12.235 5.658,12.988 7.055,13.888 8.756 M19.230 8.861 C 18.998 8.946,18.824 9.100,18.698 9.330 C 18.435 9.814,18.626 10.425,19.120 10.679 C 19.197 10.718,19.719 10.874,20.280 11.025 C 21.461 11.343,21.671 11.363,21.971 11.187 C 22.322 10.981,22.481 10.709,22.479 10.311 C 22.478 9.913,22.281 9.585,21.951 9.428 C 21.725 9.321,19.718 8.800,19.543 8.803 C 19.453 8.804,19.313 8.830,19.230 8.861 M7.069 12.554 C 7.601 13.474,8.041 14.250,8.048 14.278 C 8.066 14.352,5.443 15.862,5.191 15.922 C 4.807 16.014,4.360 15.829,4.147 15.490 C 4.095 15.408,3.821 14.937,3.537 14.444 C 3.034 13.568,3.022 13.541,3.006 13.273 C 2.993 13.038,3.006 12.968,3.099 12.779 C 3.158 12.658,3.263 12.516,3.333 12.463 C 3.498 12.338,6.007 10.883,6.061 10.881 C 6.084 10.881,6.538 11.633,7.069 12.554 M12.059 17.298 C 13.049 18.242,13.864 19.025,13.869 19.038 C 13.877 19.057,11.582 20.398,11.484 20.432 C 11.454 20.442,8.313 16.602,8.291 16.529 C 8.281 16.495,9.486 15.798,9.874 15.613 C 10.084 15.514,10.152 15.497,10.199 15.533 C 10.231 15.559,11.068 16.353,12.059 17.298 " fill="#000640" stroke="none" fill-rule="evenodd"></path></svg>