<svg xmlns="http://www.w3.org/2000/svg" width="24" height="24" fill="currentColor" class="mmi mmi-megaphone" viewBox="0 0 24 24"><path d="M15.020 2.989 L 9.220 3.971 6.340 3.998 C 3.143 4.028,3.326 4.013,2.704 4.312 C 1.836 4.729,1.263 5.466,1.060 6.425 C 0.972 6.841,0.973 11.153,1.062 11.581 C 1.265 12.565,1.946 13.401,2.839 13.761 C 3.289 13.943,3.472 13.973,4.259 13.997 L 5.019 14.020 5.512 17.580 C 5.783 19.538,6.022 21.207,6.043 21.288 C 6.101 21.508,6.314 21.762,6.539 21.878 L 6.738 21.980 9.936 21.991 C 12.821 22.000,13.155 21.995,13.334 21.935 C 13.739 21.801,14.033 21.349,13.991 20.926 C 13.980 20.815,13.570 19.691,12.982 18.160 C 12.437 16.741,11.897 15.332,11.781 15.030 C 11.598 14.553,11.580 14.480,11.642 14.480 C 11.681 14.480,13.781 14.823,16.307 15.242 C 19.350 15.748,20.964 15.999,21.089 15.988 C 21.479 15.954,21.862 15.643,21.959 15.282 C 21.988 15.178,21.998 13.121,21.990 8.914 L 21.980 2.700 21.872 2.516 C 21.686 2.201,21.331 1.995,20.985 2.004 C 20.894 2.006,18.210 2.450,15.020 2.989 M20.000 9.000 C 20.000 13.538,19.996 13.800,19.930 13.800 C 19.848 13.800,10.173 12.206,10.070 12.175 C 10.004 12.156,10.000 11.970,10.000 9.001 L 10.000 5.847 10.270 5.802 C 15.640 4.899,19.805 4.207,19.890 4.204 L 20.000 4.200 20.000 9.000 M8.000 9.000 L 8.000 12.000 5.927 12.000 C 3.581 12.000,3.600 12.002,3.299 11.701 C 2.997 11.399,3.000 11.427,3.000 9.000 C 3.000 6.572,2.997 6.601,3.300 6.298 C 3.595 6.003,3.558 6.007,5.910 6.003 L 8.000 6.000 8.000 9.000 M9.240 14.063 C 9.281 14.105,11.520 19.902,11.520 19.968 C 11.520 19.986,10.701 20.000,9.701 20.000 L 7.882 20.000 7.862 19.910 C 7.852 19.860,7.671 18.569,7.460 17.040 C 7.250 15.511,7.067 14.200,7.054 14.127 L 7.030 13.993 8.113 14.007 C 8.822 14.015,9.211 14.035,9.240 14.063 " fill="#000640" stroke="none" fill-rule="evenodd"></path></svg>