<svg xmlns="http://www.w3.org/2000/svg" width="24" height="24" fill="currentColor" class="mmi mmi-menu-vertical-lite" viewBox="0 0 24 24"><path d="M11.580 2.047 C 10.859 2.185,10.199 2.848,10.044 3.592 C 9.789 4.816,10.751 6.000,12.000 6.000 C 13.080 6.000,14.000 5.080,14.000 4.000 C 14.000 3.477,13.790 2.983,13.404 2.596 C 12.913 2.106,12.277 1.914,11.580 2.047 M11.580 10.047 C 10.707 10.214,10.000 11.087,10.000 12.000 C 10.000 12.920,10.690 13.768,11.592 13.956 C 12.816 14.211,14.000 13.249,14.000 12.000 C 14.000 11.477,13.790 10.983,13.404 10.596 C 12.913 10.106,12.277 9.914,11.580 10.047 M11.580 18.047 C 10.859 18.185,10.199 18.848,10.044 19.592 C 9.789 20.816,10.751 22.000,12.000 22.000 C 13.080 22.000,14.000 21.080,14.000 20.000 C 14.000 19.477,13.790 18.983,13.404 18.596 C 12.913 18.106,12.277 17.914,11.580 18.047 " fill="#000640" stroke="none" fill-rule="evenodd"></path></svg>