<svg xmlns="http://www.w3.org/2000/svg" width="24" height="24" fill="currentColor" class="mmi mmi-menu-squaredot" viewBox="0 0 24 24"><path d="M3.580 2.047 C 2.859 2.185,2.199 2.848,2.044 3.592 C 1.905 4.257,2.105 4.912,2.596 5.404 C 3.393 6.200,4.607 6.200,5.404 5.404 C 6.200 4.607,6.200 3.393,5.404 2.596 C 4.913 2.106,4.277 1.914,3.580 2.047 M11.580 2.047 C 10.859 2.185,10.199 2.848,10.044 3.592 C 9.789 4.816,10.751 6.000,12.000 6.000 C 13.080 6.000,14.000 5.080,14.000 4.000 C 14.000 3.477,13.790 2.983,13.404 2.596 C 12.913 2.106,12.277 1.914,11.580 2.047 M19.580 2.047 C 18.859 2.185,18.199 2.848,18.044 3.592 C 17.789 4.816,18.751 6.000,20.000 6.000 C 21.080 6.000,22.000 5.080,22.000 4.000 C 22.000 3.477,21.790 2.983,21.404 2.596 C 20.913 2.106,20.277 1.914,19.580 2.047 M3.580 10.047 C 3.236 10.113,2.883 10.310,2.596 10.596 C 1.800 11.393,1.800 12.607,2.596 13.404 C 3.393 14.200,4.607 14.200,5.404 13.404 C 6.200 12.607,6.200 11.393,5.404 10.596 C 4.913 10.106,4.277 9.914,3.580 10.047 M11.580 10.047 C 10.707 10.214,10.000 11.087,10.000 12.000 C 10.000 12.920,10.690 13.768,11.592 13.956 C 12.816 14.211,14.000 13.249,14.000 12.000 C 14.000 11.477,13.790 10.983,13.404 10.596 C 12.913 10.106,12.277 9.914,11.580 10.047 M19.580 10.047 C 18.707 10.214,18.000 11.087,18.000 12.000 C 18.000 12.920,18.690 13.768,19.592 13.956 C 20.816 14.211,22.000 13.249,22.000 12.000 C 22.000 11.477,21.790 10.983,21.404 10.596 C 20.913 10.106,20.277 9.914,19.580 10.047 M3.580 18.047 C 2.859 18.185,2.199 18.848,2.044 19.592 C 1.789 20.816,2.751 22.000,4.000 22.000 C 5.080 22.000,6.000 21.080,6.000 20.000 C 6.000 19.477,5.790 18.983,5.404 18.596 C 4.913 18.106,4.277 17.914,3.580 18.047 M11.580 18.047 C 10.859 18.185,10.199 18.848,10.044 19.592 C 9.789 20.816,10.751 22.000,12.000 22.000 C 13.080 22.000,14.000 21.080,14.000 20.000 C 14.000 19.477,13.790 18.983,13.404 18.596 C 12.913 18.106,12.277 17.914,11.580 18.047 M19.580 18.047 C 18.859 18.185,18.199 18.848,18.044 19.592 C 17.789 20.816,18.751 22.000,20.000 22.000 C 21.080 22.000,22.000 21.080,22.000 20.000 C 22.000 19.477,21.790 18.983,21.404 18.596 C 20.913 18.106,20.277 17.914,19.580 18.047 " fill="#000640" stroke="none" fill-rule="evenodd"></path></svg>