<svg xmlns="http://www.w3.org/2000/svg" width="24" height="24" fill="currentColor" class="mmi mmi-menu-boxed" viewBox="0 0 24 24"><path d="M3.503 1.042 C 2.818 1.158,2.117 1.573,1.670 2.127 C 1.445 2.407,1.159 2.980,1.074 3.320 C 0.993 3.647,0.993 20.353,1.074 20.680 C 1.159 21.020,1.445 21.593,1.670 21.873 C 1.950 22.220,2.312 22.501,2.740 22.704 C 3.409 23.021,2.760 23.000,12.000 23.000 C 21.240 23.000,20.591 23.021,21.260 22.704 C 21.920 22.391,22.391 21.920,22.704 21.260 C 23.021 20.591,23.000 21.240,23.000 12.000 C 23.000 2.760,23.021 3.409,22.704 2.740 C 22.398 2.095,21.924 1.614,21.296 1.312 C 20.634 0.993,21.532 1.022,12.120 1.015 C 7.489 1.012,3.611 1.024,3.503 1.042 M20.340 3.066 C 20.593 3.153,20.847 3.407,20.934 3.660 C 20.995 3.838,21.000 4.523,21.000 12.000 C 21.000 21.144,21.026 20.376,20.701 20.701 C 20.376 21.026,21.144 21.000,11.998 21.000 C 3.106 21.000,3.684 21.015,3.374 20.778 C 3.301 20.723,3.192 20.592,3.131 20.489 L 3.020 20.300 3.020 12.000 L 3.020 3.700 3.131 3.511 C 3.256 3.298,3.449 3.136,3.670 3.057 C 3.793 3.013,5.268 3.003,11.983 3.002 C 19.479 3.000,20.162 3.005,20.340 3.066 M6.664 8.063 C 6.436 8.146,6.257 8.297,6.131 8.511 C 6.036 8.672,6.020 8.744,6.020 9.000 C 6.020 9.256,6.036 9.328,6.131 9.489 C 6.192 9.592,6.301 9.723,6.374 9.778 C 6.680 10.011,6.390 10.000,11.998 10.000 C 17.783 10.000,17.381 10.021,17.701 9.701 C 18.092 9.310,18.092 8.690,17.701 8.299 C 17.381 7.979,17.786 8.000,11.983 8.003 C 7.607 8.005,6.796 8.014,6.664 8.063 M6.664 14.063 C 6.436 14.146,6.257 14.297,6.131 14.511 C 6.036 14.672,6.020 14.744,6.020 15.000 C 6.020 15.256,6.036 15.328,6.131 15.489 C 6.192 15.592,6.301 15.723,6.374 15.778 C 6.680 16.011,6.390 16.000,11.998 16.000 C 17.783 16.000,17.381 16.021,17.701 15.701 C 18.092 15.310,18.092 14.690,17.701 14.299 C 17.381 13.979,17.786 14.000,11.983 14.003 C 7.607 14.005,6.796 14.014,6.664 14.063 " fill="#000640" stroke="none" fill-rule="evenodd"></path></svg>