<svg xmlns="http://www.w3.org/2000/svg" width="24" height="24" fill="currentColor" class="mmi mmi-menu-hamburger-diagonal-in" viewBox="0 0 24 24"><path d="M1.664 5.063 C 1.436 5.146,1.257 5.297,1.131 5.511 C 1.036 5.672,1.020 5.744,1.020 6.000 C 1.020 6.256,1.036 6.328,1.131 6.489 C 1.192 6.592,1.301 6.723,1.374 6.778 C 1.683 7.014,1.201 7.000,8.998 7.000 C 17.023 7.000,16.377 7.025,16.701 6.701 C 17.092 6.310,17.092 5.690,16.701 5.299 C 16.377 4.975,17.026 5.000,8.983 5.003 C 2.871 5.005,1.797 5.014,1.664 5.063 M4.664 11.063 C 4.436 11.146,4.257 11.297,4.131 11.511 C 4.036 11.672,4.020 11.744,4.020 12.000 C 4.020 12.256,4.036 12.328,4.131 12.489 C 4.192 12.592,4.301 12.723,4.374 12.778 C 4.683 13.014,4.201 13.000,11.998 13.000 C 20.023 13.000,19.377 13.025,19.701 12.701 C 20.092 12.310,20.092 11.690,19.701 11.299 C 19.377 10.975,20.026 11.000,11.983 11.003 C 5.871 11.005,4.797 11.014,4.664 11.063 M7.664 17.063 C 7.436 17.146,7.257 17.297,7.131 17.511 C 7.036 17.672,7.020 17.744,7.020 18.000 C 7.020 18.256,7.036 18.328,7.131 18.489 C 7.192 18.592,7.301 18.723,7.374 18.778 C 7.683 19.014,7.201 19.000,14.998 19.000 C 23.023 19.000,22.377 19.025,22.701 18.701 C 23.092 18.310,23.092 17.690,22.701 17.299 C 22.377 16.975,23.026 17.000,14.983 17.003 C 8.871 17.005,7.797 17.014,7.664 17.063 " fill="#000640" stroke="none" fill-rule="evenodd"></path></svg>