<svg xmlns="http://www.w3.org/2000/svg" width="24" height="24" fill="currentColor" class="mmi mmi-microphone" viewBox="0 0 24 24"><path d="M16.960 1.025 C 15.613 1.196,14.519 1.718,13.619 2.618 C 12.649 3.589,12.091 4.829,12.014 6.188 C 11.992 6.563,12.000 6.668,12.059 6.828 C 12.120 6.994,12.451 7.342,14.533 9.429 C 16.558 11.458,16.968 11.851,17.138 11.924 C 17.321 12.003,17.384 12.009,17.800 11.986 C 19.163 11.912,20.408 11.355,21.381 10.381 C 22.163 9.600,22.673 8.648,22.904 7.540 C 23.009 7.035,23.009 5.965,22.904 5.460 C 22.673 4.352,22.163 3.400,21.381 2.618 C 20.592 1.828,19.624 1.315,18.517 1.100 C 18.186 1.036,17.236 0.990,16.960 1.025 M18.092 3.060 C 18.833 3.189,19.402 3.484,19.944 4.020 C 20.782 4.848,21.139 5.951,20.940 7.092 C 20.708 8.424,19.758 9.483,18.457 9.860 C 17.863 10.032,18.112 10.211,15.950 8.050 C 14.412 6.512,14.040 6.120,14.040 6.037 C 14.040 5.835,14.202 5.296,14.357 4.980 C 15.050 3.570,16.561 2.793,18.092 3.060 M10.655 8.063 C 10.564 8.096,10.425 8.181,10.347 8.252 C 10.200 8.385,4.986 14.787,2.889 17.409 C 2.226 18.239,1.645 18.992,1.599 19.082 C 1.544 19.189,1.514 19.327,1.512 19.481 C 1.506 19.902,1.588 20.011,2.808 21.226 C 3.526 21.939,3.962 22.343,4.080 22.402 C 4.313 22.520,4.632 22.523,4.885 22.411 C 5.096 22.317,7.541 20.364,12.418 16.393 C 15.357 14.000,15.788 13.635,15.874 13.468 C 16.005 13.214,16.027 12.944,15.940 12.674 C 15.875 12.473,15.742 12.332,13.745 10.329 C 12.210 8.789,11.570 8.174,11.441 8.111 C 11.217 8.002,10.876 7.982,10.655 8.063 M12.300 11.720 C 13.485 12.905,13.498 12.920,13.419 12.994 C 13.268 13.138,7.757 17.604,7.709 17.622 C 7.682 17.632,7.365 17.346,7.005 16.985 C 6.511 16.491,6.359 16.315,6.385 16.271 C 6.448 16.163,11.052 10.520,11.077 10.520 C 11.090 10.520,11.640 11.060,12.300 11.720 M6.038 18.994 C 5.984 19.036,5.634 19.316,5.260 19.615 L 4.581 20.159 4.211 19.791 C 3.893 19.474,3.850 19.415,3.895 19.362 C 3.924 19.328,4.205 18.978,4.519 18.585 L 5.090 17.870 5.613 18.393 L 6.136 18.916 6.038 18.994 " fill="#000640" stroke="none" fill-rule="evenodd"></path></svg>