<svg xmlns="http://www.w3.org/2000/svg" width="24" height="24" fill="currentColor" class="mmi mmi-minimize-fullscreen" viewBox="0 0 24 24"><path d="M8.664 3.063 C 8.436 3.146,8.257 3.297,8.131 3.511 L 8.020 3.700 8.009 5.850 L 7.997 8.000 5.924 8.000 C 3.677 8.000,3.663 8.001,3.374 8.222 C 3.301 8.277,3.192 8.408,3.131 8.511 C 3.036 8.672,3.020 8.744,3.020 9.000 C 3.020 9.256,3.036 9.328,3.131 9.489 C 3.192 9.592,3.301 9.723,3.374 9.778 C 3.669 10.003,3.624 10.000,6.498 10.000 C 9.486 10.000,9.393 10.009,9.701 9.701 C 10.009 9.394,10.000 9.486,10.000 6.500 C 10.000 3.514,10.009 3.606,9.701 3.299 C 9.429 3.027,9.018 2.933,8.664 3.063 M14.664 3.063 C 14.436 3.146,14.257 3.297,14.131 3.511 L 14.020 3.700 14.020 6.500 L 14.020 9.300 14.131 9.489 C 14.192 9.592,14.301 9.723,14.374 9.778 C 14.669 10.003,14.624 10.000,17.498 10.000 C 20.486 10.000,20.393 10.009,20.701 9.701 C 21.092 9.310,21.092 8.690,20.701 8.299 C 20.400 7.998,20.419 8.000,18.073 8.000 L 16.000 8.000 16.000 5.927 C 16.000 3.581,16.002 3.600,15.701 3.299 C 15.429 3.027,15.018 2.933,14.664 3.063 M3.664 14.063 C 3.436 14.146,3.257 14.297,3.131 14.511 C 3.036 14.672,3.020 14.744,3.020 15.000 C 3.020 15.256,3.036 15.328,3.131 15.489 C 3.192 15.592,3.301 15.723,3.374 15.778 C 3.663 15.999,3.676 16.000,5.925 16.000 L 8.000 16.000 8.000 18.070 C 8.000 19.373,8.016 20.195,8.042 20.289 C 8.103 20.509,8.315 20.762,8.531 20.874 C 8.932 21.080,9.390 21.012,9.700 20.702 C 10.009 20.393,10.000 20.487,10.000 17.500 C 10.000 14.514,10.009 14.606,9.701 14.299 C 9.393 13.991,9.488 14.000,6.483 14.003 C 4.276 14.005,3.793 14.015,3.664 14.063 M14.664 14.063 C 14.436 14.146,14.257 14.297,14.131 14.511 L 14.020 14.700 14.009 17.412 C 14.002 19.221,14.012 20.176,14.040 20.280 C 14.101 20.506,14.312 20.761,14.531 20.874 C 14.932 21.080,15.390 21.012,15.700 20.702 C 16.002 20.400,16.000 20.420,16.000 18.073 L 16.000 16.000 18.073 16.000 C 20.419 16.000,20.400 16.002,20.701 15.701 C 21.092 15.310,21.092 14.690,20.701 14.299 C 20.393 13.991,20.488 14.000,17.483 14.003 C 15.276 14.005,14.793 14.015,14.664 14.063 " fill="#000640" stroke="none" fill-rule="evenodd"></path></svg>