<svg xmlns="http://www.w3.org/2000/svg" width="24" height="24" fill="currentColor" class="mmi mmi-miniskirt" viewBox="0 0 24 24"><path d="M4.667 2.065 C 4.415 2.142,4.155 2.400,4.066 2.660 C 4.008 2.830,4.000 3.095,4.000 4.811 L 4.000 6.767 3.856 7.094 C 2.965 9.118,2.364 11.925,2.102 15.280 C 2.008 16.487,1.949 18.140,1.970 18.937 C 1.988 19.585,2.001 19.693,2.097 19.980 C 2.412 20.919,3.097 21.577,4.081 21.886 L 4.380 21.980 12.000 21.980 L 19.620 21.980 19.919 21.886 C 20.903 21.577,21.603 20.906,21.908 19.981 C 22.004 19.688,22.015 19.590,22.031 18.861 C 22.050 17.999,21.993 16.437,21.897 15.220 C 21.644 11.996,21.036 9.129,20.205 7.240 L 20.020 6.820 20.000 4.760 L 19.980 2.700 19.869 2.511 C 19.808 2.408,19.699 2.277,19.626 2.222 C 19.317 1.986,19.800 2.000,12.005 2.003 C 5.807 2.005,4.834 2.013,4.667 2.065 M18.000 5.000 L 18.000 6.000 12.000 6.000 L 6.000 6.000 6.000 5.000 L 6.000 4.000 12.000 4.000 L 18.000 4.000 18.000 5.000 M7.880 8.083 C 7.880 8.222,7.683 8.765,7.534 9.037 C 7.153 9.734,6.668 10.181,5.898 10.546 C 5.456 10.755,4.787 10.942,4.768 10.862 C 4.753 10.797,4.956 9.988,5.137 9.392 C 5.252 9.013,5.377 8.664,5.603 8.090 L 5.638 8.000 6.759 8.000 C 7.867 8.000,7.880 8.001,7.880 8.083 M14.134 8.361 C 14.472 10.125,15.570 11.557,17.171 12.321 C 17.825 12.633,18.662 12.874,19.357 12.951 C 19.668 12.986,19.643 12.924,19.757 13.933 C 19.978 15.893,20.112 18.955,19.996 19.380 C 19.939 19.587,19.637 19.884,19.415 19.951 C 19.177 20.022,4.825 20.023,4.585 19.951 C 4.369 19.887,4.061 19.582,4.004 19.375 C 3.891 18.971,4.027 15.903,4.242 13.980 C 4.340 13.100,4.358 12.997,4.415 12.982 C 4.440 12.975,4.622 12.949,4.820 12.923 C 5.227 12.871,5.927 12.694,6.331 12.542 C 8.189 11.842,9.493 10.304,9.868 8.369 L 9.940 8.000 12.002 8.000 L 14.064 8.000 14.134 8.361 M18.441 8.190 C 18.660 8.680,19.240 10.613,19.240 10.854 C 19.240 10.905,19.210 10.906,19.005 10.858 C 17.600 10.530,16.653 9.720,16.242 8.493 C 16.175 8.292,16.120 8.099,16.120 8.064 C 16.120 8.007,16.239 8.000,17.238 8.000 L 18.356 8.000 18.441 8.190 " fill="#000640" stroke="none" fill-rule="evenodd"></path></svg>