<svg xmlns="http://www.w3.org/2000/svg" width="24" height="24" fill="currentColor" class="mmi mmi-minibus" viewBox="0 0 24 24"><path d="M3.179 3.058 C 2.452 3.190,1.732 3.649,1.304 4.254 C 0.870 4.866,0.856 4.926,0.398 8.117 L 0.000 10.893 0.000 14.517 C 0.000 16.889,0.015 18.191,0.042 18.289 C 0.104 18.512,0.316 18.763,0.539 18.878 C 0.737 18.980,0.739 18.980,1.947 18.992 L 3.156 19.003 3.299 19.300 C 3.668 20.068,4.402 20.675,5.240 20.906 C 5.599 21.004,6.401 21.004,6.760 20.906 C 7.599 20.675,8.332 20.068,8.702 19.298 L 8.846 19.000 12.000 19.000 L 15.154 19.000 15.298 19.298 C 15.579 19.884,16.115 20.421,16.692 20.697 C 17.154 20.918,17.432 20.977,18.000 20.977 C 18.568 20.977,18.846 20.918,19.308 20.697 C 19.885 20.421,20.421 19.884,20.702 19.298 L 20.846 19.000 21.996 19.000 C 23.317 19.000,23.420 18.982,23.702 18.700 C 24.018 18.384,24.003 18.609,23.991 14.417 L 23.980 10.700 22.668 7.660 C 21.923 5.936,21.285 4.511,21.192 4.369 C 20.878 3.885,20.362 3.456,19.819 3.228 C 19.253 2.990,19.633 3.000,11.186 3.004 C 5.112 3.006,3.400 3.018,3.179 3.058 M7.000 7.500 L 7.000 10.000 4.580 10.000 C 3.249 10.000,2.160 9.995,2.160 9.988 C 2.160 9.871,2.774 5.741,2.805 5.645 C 2.888 5.394,3.184 5.127,3.480 5.037 C 3.535 5.021,4.349 5.005,5.290 5.003 L 7.000 5.000 7.000 7.500 M14.000 7.500 L 14.000 10.000 11.500 10.000 L 9.000 10.000 9.000 7.500 L 9.000 5.000 11.500 5.000 L 14.000 5.000 14.000 7.500 M19.020 5.066 C 19.429 5.205,19.440 5.226,20.496 7.700 C 21.022 8.932,21.460 9.954,21.469 9.970 C 21.478 9.986,20.251 10.000,18.742 10.000 L 16.000 10.000 16.000 7.500 L 16.000 5.000 17.413 5.000 C 18.623 5.000,18.854 5.010,19.020 5.066 M22.000 14.500 L 22.000 17.000 21.419 17.000 L 20.839 17.000 20.742 16.780 C 20.376 15.953,19.588 15.301,18.680 15.076 C 18.558 15.045,18.255 15.021,18.000 15.021 C 17.745 15.021,17.442 15.045,17.320 15.076 C 16.412 15.301,15.624 15.953,15.258 16.780 L 15.161 17.000 12.000 17.000 L 8.839 17.000 8.742 16.780 C 8.376 15.953,7.588 15.301,6.680 15.076 C 6.558 15.045,6.255 15.021,6.000 15.021 C 5.745 15.021,5.442 15.045,5.320 15.076 C 4.412 15.301,3.624 15.953,3.258 16.780 L 3.161 17.000 2.581 17.000 L 2.000 17.000 2.000 14.500 L 2.000 12.000 12.000 12.000 L 22.000 12.000 22.000 14.500 M6.340 17.066 C 6.709 17.192,7.000 17.604,7.000 18.000 C 7.000 18.527,6.527 19.000,6.000 19.000 C 5.758 19.000,5.479 18.881,5.299 18.701 C 4.907 18.309,4.908 17.690,5.300 17.298 C 5.577 17.020,5.957 16.936,6.340 17.066 M18.340 17.066 C 18.709 17.192,19.000 17.604,19.000 18.000 C 19.000 18.527,18.527 19.000,18.000 19.000 C 17.758 19.000,17.479 18.881,17.299 18.701 C 16.907 18.309,16.908 17.690,17.300 17.298 C 17.577 17.020,17.957 16.936,18.340 17.066 " fill="#000640" stroke="none" fill-rule="evenodd"></path></svg>