<svg xmlns="http://www.w3.org/2000/svg" width="24" height="24" fill="currentColor" class="mmi mmi-miniskirt-v2" viewBox="0 0 24 24"><path d="M5.664 2.063 C 5.436 2.146,5.257 2.297,5.131 2.511 L 5.020 2.700 5.009 4.653 L 4.997 6.606 4.766 6.913 C 3.274 8.893,2.373 12.453,2.081 17.520 C 2.011 18.740,2.021 19.408,2.116 19.772 C 2.386 20.804,3.157 21.587,4.220 21.906 C 4.447 21.974,4.865 21.979,11.860 21.990 C 19.948 22.003,19.553 22.014,20.135 21.777 C 20.755 21.525,21.348 20.974,21.652 20.368 C 21.935 19.802,21.977 19.544,21.948 18.541 C 21.879 16.171,21.518 13.431,21.014 11.460 C 20.563 9.693,19.918 8.095,19.228 7.029 L 19.000 6.677 19.000 4.766 C 19.000 2.599,19.000 2.598,18.701 2.299 C 18.379 1.976,18.906 2.000,11.983 2.003 C 6.739 2.005,5.797 2.014,5.664 2.063 M8.000 5.000 L 8.000 6.000 7.500 6.000 L 7.000 6.000 7.000 5.000 L 7.000 4.000 7.500 4.000 L 8.000 4.000 8.000 5.000 M11.000 5.000 L 11.000 6.000 10.500 6.000 L 10.000 6.000 10.000 5.000 L 10.000 4.000 10.500 4.000 L 11.000 4.000 11.000 5.000 M14.000 5.000 L 14.000 6.000 13.500 6.000 L 13.000 6.000 13.000 5.000 L 13.000 4.000 13.500 4.000 L 14.000 4.000 14.000 5.000 M17.000 5.000 L 17.000 6.000 16.500 6.000 L 16.000 6.000 16.000 5.000 L 16.000 4.000 16.500 4.000 L 17.000 4.000 17.000 5.000 M17.568 8.150 C 18.190 9.094,18.837 10.825,19.216 12.564 C 19.623 14.428,19.916 16.913,19.933 18.640 L 19.940 19.344 19.819 19.541 C 19.743 19.664,19.624 19.783,19.502 19.859 L 19.306 19.980 12.089 19.990 C 7.333 19.997,4.821 19.987,4.722 19.961 C 4.468 19.892,4.244 19.699,4.130 19.450 C 4.028 19.226,4.028 19.226,4.054 18.423 C 4.121 16.342,4.396 13.895,4.741 12.290 C 5.134 10.461,5.703 8.987,6.347 8.130 L 6.444 8.000 11.957 8.000 L 17.469 8.000 17.568 8.150 " fill="#000640" stroke="none" fill-rule="evenodd"></path></svg>