<svg xmlns="http://www.w3.org/2000/svg" width="24" height="24" fill="currentColor" class="mmi mmi-minimize-topright" viewBox="0 0 24 24"><path d="M2.503 3.042 C 1.488 3.214,0.556 3.976,0.202 4.925 C -0.006 5.481,0.001 5.233,0.001 11.992 C -0.000 18.878,-0.011 18.550,0.234 19.151 C 0.521 19.857,1.143 20.479,1.849 20.766 C 2.459 21.015,1.826 21.000,12.000 21.000 C 22.173 21.000,21.541 21.014,22.150 20.767 C 22.850 20.482,23.482 19.850,23.767 19.150 C 24.011 18.551,24.000 18.876,24.000 12.000 C 24.000 5.123,24.011 5.449,23.766 4.849 C 23.499 4.193,22.964 3.633,22.296 3.312 C 21.632 2.992,22.653 3.022,12.120 3.015 C 6.939 3.012,2.611 3.024,2.503 3.042 M12.000 7.642 C 12.000 10.524,12.004 10.587,12.234 11.151 C 12.521 11.857,13.143 12.479,13.849 12.766 C 14.429 13.002,14.381 13.000,18.358 13.000 L 22.000 13.000 22.000 15.573 C 22.000 18.477,22.008 18.394,21.701 18.701 C 21.375 19.027,22.264 19.000,12.000 19.000 C 1.736 19.000,2.625 19.027,2.299 18.701 C 1.977 18.379,2.000 18.903,2.000 12.000 C 2.000 5.096,1.976 5.621,2.300 5.298 C 2.611 4.987,2.273 5.007,7.410 5.003 L 12.000 5.000 12.000 7.642 M21.340 5.066 C 21.593 5.153,21.847 5.407,21.934 5.660 C 21.993 5.833,22.000 6.137,22.000 8.427 L 22.000 11.000 18.427 11.000 C 14.405 11.000,14.613 11.015,14.299 10.701 C 13.992 10.394,14.000 10.477,14.000 7.573 L 14.000 5.000 17.573 5.000 C 20.794 5.000,21.165 5.007,21.340 5.066 " fill="#000640" stroke="none" fill-rule="evenodd"></path></svg>