<svg xmlns="http://www.w3.org/2000/svg" width="24" height="24" fill="currentColor" class="mmi mmi-minus-incircle-filled" viewBox="0 0 24 24"><path d="M11.200 0.025 C 7.677 0.288,4.535 1.992,2.410 4.793 C 1.201 6.386,0.442 8.222,0.109 10.359 C -0.013 11.143,-0.013 12.857,0.109 13.641 C 0.563 16.554,1.872 19.025,3.948 20.887 C 5.791 22.541,7.832 23.497,10.359 23.891 C 11.143 24.013,12.857 24.013,13.641 23.891 C 16.557 23.436,19.036 22.122,20.896 20.043 C 22.545 18.200,23.498 16.163,23.891 13.641 C 24.013 12.857,24.013 11.143,23.891 10.359 C 23.557 8.220,22.799 6.386,21.588 4.790 C 19.607 2.179,16.767 0.532,13.500 0.099 C 13.032 0.037,11.640 -0.007,11.200 0.025 M17.340 11.066 C 17.709 11.192,18.000 11.604,18.000 12.000 C 18.000 12.242,17.881 12.521,17.701 12.701 C 17.381 13.021,17.783 13.000,12.000 13.000 C 6.217 13.000,6.619 13.021,6.299 12.701 C 5.907 12.309,5.908 11.690,6.300 11.298 C 6.612 10.986,6.207 11.007,11.983 11.003 C 16.689 11.000,17.163 11.006,17.340 11.066 " fill="#000640" stroke="none" fill-rule="evenodd"></path></svg>