<svg xmlns="http://www.w3.org/2000/svg" width="24" height="24" fill="currentColor" class="mmi mmi-mirror" viewBox="0 0 24 24"><path d="M11.664 1.063 C 11.436 1.146,11.257 1.297,11.131 1.511 L 11.020 1.700 11.010 11.915 C 11.003 18.860,11.013 22.178,11.041 22.283 C 11.101 22.506,11.313 22.761,11.531 22.874 C 11.932 23.080,12.390 23.012,12.700 22.702 C 13.028 22.374,13.000 23.388,13.000 12.000 C 13.000 0.615,13.028 1.626,12.701 1.299 C 12.429 1.027,12.018 0.933,11.664 1.063 M2.664 5.063 C 2.436 5.146,2.257 5.297,2.131 5.511 L 2.020 5.700 2.010 11.914 C 2.002 16.121,2.012 18.178,2.041 18.282 C 2.102 18.509,2.313 18.761,2.539 18.878 L 2.738 18.980 5.936 18.991 C 9.548 19.003,9.387 19.015,9.700 18.702 C 10.092 18.310,10.093 17.691,9.701 17.299 C 9.394 16.992,9.477 17.000,6.573 17.000 L 4.000 17.000 4.000 12.000 L 4.000 7.000 6.573 7.000 C 9.477 7.000,9.394 7.008,9.701 6.701 C 10.092 6.310,10.092 5.690,9.701 5.299 C 9.389 4.987,9.547 5.000,5.983 5.003 C 3.342 5.005,2.794 5.015,2.664 5.063 M14.664 5.063 C 14.436 5.146,14.257 5.297,14.131 5.511 C 14.036 5.672,14.020 5.744,14.020 6.000 C 14.020 6.256,14.036 6.328,14.131 6.489 C 14.470 7.065,15.234 7.168,15.701 6.701 C 15.881 6.521,16.000 6.242,16.000 6.000 C 16.000 5.326,15.295 4.832,14.664 5.063 M17.664 5.063 C 17.436 5.146,17.257 5.297,17.131 5.511 C 17.036 5.672,17.020 5.744,17.020 6.000 C 17.020 6.256,17.036 6.328,17.131 6.489 C 17.470 7.065,18.234 7.168,18.701 6.701 C 18.881 6.521,19.000 6.242,19.000 6.000 C 19.000 5.326,18.295 4.832,17.664 5.063 M20.664 5.063 C 20.436 5.146,20.257 5.297,20.131 5.511 C 20.036 5.672,20.020 5.744,20.020 6.000 C 20.020 6.256,20.036 6.328,20.131 6.489 C 20.470 7.065,21.234 7.168,21.701 6.701 C 22.092 6.310,22.092 5.690,21.701 5.299 C 21.429 5.027,21.018 4.933,20.664 5.063 M20.664 8.063 C 20.436 8.146,20.257 8.297,20.131 8.511 C 20.036 8.672,20.020 8.744,20.020 9.000 C 20.020 9.256,20.036 9.328,20.131 9.489 C 20.470 10.065,21.234 10.168,21.701 9.701 C 22.092 9.310,22.092 8.690,21.701 8.299 C 21.429 8.027,21.018 7.933,20.664 8.063 M20.664 11.063 C 20.436 11.146,20.257 11.297,20.131 11.511 C 20.036 11.672,20.020 11.744,20.020 12.000 C 20.020 12.256,20.036 12.328,20.131 12.489 C 20.470 13.065,21.234 13.168,21.701 12.701 C 22.092 12.310,22.092 11.690,21.701 11.299 C 21.429 11.027,21.018 10.933,20.664 11.063 M20.664 14.063 C 20.436 14.146,20.257 14.297,20.131 14.511 C 20.036 14.672,20.020 14.744,20.020 15.000 C 20.020 15.256,20.036 15.328,20.131 15.489 C 20.470 16.065,21.234 16.168,21.701 15.701 C 22.092 15.310,22.092 14.690,21.701 14.299 C 21.429 14.027,21.018 13.933,20.664 14.063 M14.664 17.063 C 14.436 17.146,14.257 17.297,14.131 17.511 C 14.036 17.672,14.020 17.744,14.020 18.000 C 14.020 18.256,14.036 18.328,14.131 18.489 C 14.470 19.065,15.234 19.168,15.701 18.701 C 15.881 18.521,16.000 18.242,16.000 18.000 C 16.000 17.326,15.295 16.832,14.664 17.063 M17.664 17.063 C 17.436 17.146,17.257 17.297,17.131 17.511 C 17.036 17.672,17.020 17.744,17.020 18.000 C 17.020 18.256,17.036 18.328,17.131 18.489 C 17.470 19.065,18.234 19.168,18.701 18.701 C 18.881 18.521,19.000 18.242,19.000 18.000 C 19.000 17.326,18.295 16.832,17.664 17.063 M20.664 17.063 C 20.436 17.146,20.257 17.297,20.131 17.511 C 20.036 17.672,20.020 17.744,20.020 18.000 C 20.020 18.256,20.036 18.328,20.131 18.489 C 20.470 19.065,21.234 19.168,21.701 18.701 C 22.092 18.310,22.092 17.690,21.701 17.299 C 21.429 17.027,21.018 16.933,20.664 17.063 " fill="#000640" stroke="none" fill-rule="evenodd"></path></svg>