<svg xmlns="http://www.w3.org/2000/svg" width="24" height="24" fill="currentColor" class="mmi mmi-mirror-v2" viewBox="0 0 24 24"><path d="M11.664 1.063 C 11.436 1.146,11.257 1.297,11.131 1.511 L 11.020 1.700 11.010 11.915 C 11.003 18.860,11.013 22.178,11.041 22.283 C 11.101 22.506,11.313 22.761,11.531 22.874 C 11.932 23.080,12.390 23.012,12.700 22.702 C 13.028 22.374,13.000 23.388,13.000 12.000 C 13.000 0.615,13.028 1.626,12.701 1.299 C 12.429 1.027,12.018 0.933,11.664 1.063 M1.643 5.069 C 1.546 5.103,1.392 5.206,1.300 5.298 C 0.976 5.621,1.000 5.096,1.000 12.000 C 1.000 18.903,0.977 18.379,1.299 18.701 C 1.610 19.013,1.456 19.000,5.000 19.000 C 8.544 19.000,8.390 19.013,8.701 18.701 C 9.023 18.379,9.000 18.903,9.000 12.000 C 9.000 5.097,9.023 5.621,8.701 5.299 C 8.389 4.987,8.547 5.000,4.983 5.003 C 2.226 5.006,1.797 5.014,1.643 5.069 M15.643 5.069 C 15.291 5.193,15.000 5.614,15.000 6.000 C 15.000 6.527,15.473 7.000,16.000 7.000 C 16.242 7.000,16.521 6.881,16.701 6.701 C 17.454 5.948,16.653 4.712,15.643 5.069 M18.643 5.069 C 18.291 5.193,18.000 5.614,18.000 6.000 C 18.000 6.527,18.473 7.000,19.000 7.000 C 19.242 7.000,19.521 6.881,19.701 6.701 C 20.454 5.948,19.653 4.712,18.643 5.069 M21.643 5.069 C 21.291 5.193,21.000 5.614,21.000 6.000 C 21.000 6.527,21.473 7.000,22.000 7.000 C 22.242 7.000,22.521 6.881,22.701 6.701 C 23.454 5.948,22.653 4.712,21.643 5.069 M7.000 12.000 L 7.000 17.000 5.000 17.000 L 3.000 17.000 3.000 12.000 L 3.000 7.000 5.000 7.000 L 7.000 7.000 7.000 12.000 M15.643 8.069 C 15.291 8.193,15.000 8.614,15.000 9.000 C 15.000 9.527,15.473 10.000,16.000 10.000 C 16.242 10.000,16.521 9.881,16.701 9.701 C 17.454 8.948,16.653 7.712,15.643 8.069 M21.643 8.069 C 21.291 8.193,21.000 8.614,21.000 9.000 C 21.000 9.527,21.473 10.000,22.000 10.000 C 22.242 10.000,22.521 9.881,22.701 9.701 C 23.454 8.948,22.653 7.712,21.643 8.069 M15.643 11.069 C 15.291 11.193,15.000 11.614,15.000 12.000 C 15.000 12.527,15.473 13.000,16.000 13.000 C 16.242 13.000,16.521 12.881,16.701 12.701 C 17.454 11.948,16.653 10.712,15.643 11.069 M21.643 11.069 C 21.291 11.193,21.000 11.614,21.000 12.000 C 21.000 12.527,21.473 13.000,22.000 13.000 C 22.242 13.000,22.521 12.881,22.701 12.701 C 23.454 11.948,22.653 10.712,21.643 11.069 M15.643 14.069 C 15.291 14.193,15.000 14.614,15.000 15.000 C 15.000 15.527,15.473 16.000,16.000 16.000 C 16.242 16.000,16.521 15.881,16.701 15.701 C 17.454 14.948,16.653 13.712,15.643 14.069 M21.643 14.069 C 21.291 14.193,21.000 14.614,21.000 15.000 C 21.000 15.527,21.473 16.000,22.000 16.000 C 22.242 16.000,22.521 15.881,22.701 15.701 C 23.454 14.948,22.653 13.712,21.643 14.069 M15.643 17.069 C 15.291 17.193,15.000 17.614,15.000 18.000 C 15.000 18.527,15.473 19.000,16.000 19.000 C 16.242 19.000,16.521 18.881,16.701 18.701 C 17.454 17.948,16.653 16.712,15.643 17.069 M18.643 17.069 C 18.291 17.193,18.000 17.614,18.000 18.000 C 18.000 18.527,18.473 19.000,19.000 19.000 C 19.242 19.000,19.521 18.881,19.701 18.701 C 20.454 17.948,19.653 16.712,18.643 17.069 M21.643 17.069 C 21.291 17.193,21.000 17.614,21.000 18.000 C 21.000 18.527,21.473 19.000,22.000 19.000 C 22.242 19.000,22.521 18.881,22.701 18.701 C 23.454 17.948,22.653 16.712,21.643 17.069 " fill="#000640" stroke="none" fill-rule="evenodd"></path></svg>