<svg xmlns="http://www.w3.org/2000/svg" width="24" height="24" fill="currentColor" class="mmi mmi-missedcall" viewBox="0 0 24 24"><path d="M13.664 2.063 C 13.436 2.146,13.257 2.297,13.131 2.511 L 13.020 2.700 13.020 4.940 C 13.020 7.179,13.020 7.180,13.114 7.480 C 13.443 8.529,14.221 9.283,15.272 9.568 C 15.552 9.644,15.718 9.653,17.094 9.670 L 18.608 9.689 18.029 10.274 C 17.276 11.036,17.161 11.267,17.298 11.740 C 17.458 12.289,18.027 12.595,18.565 12.420 C 18.765 12.355,18.888 12.243,20.351 10.785 C 21.778 9.363,21.929 9.201,22.005 9.000 C 22.104 8.738,22.090 8.452,21.966 8.215 C 21.921 8.128,21.218 7.395,20.353 6.532 C 18.693 4.877,18.649 4.842,18.240 4.842 C 17.576 4.842,17.105 5.465,17.281 6.109 C 17.327 6.276,17.417 6.385,17.987 6.962 C 18.346 7.327,18.640 7.639,18.640 7.656 C 18.640 7.672,17.997 7.680,17.210 7.672 C 15.636 7.657,15.640 7.658,15.345 7.399 C 15.263 7.327,15.156 7.194,15.108 7.104 C 15.021 6.943,15.020 6.905,15.000 4.840 L 14.980 2.740 14.886 2.550 C 14.669 2.109,14.128 1.893,13.664 2.063 M5.055 2.637 C 4.531 2.779,3.966 3.130,3.648 3.512 C 3.207 4.040,2.636 5.113,2.383 5.887 C 2.122 6.687,2.060 7.109,2.061 8.080 C 2.063 8.879,2.071 8.974,2.175 9.420 C 2.419 10.462,2.835 11.268,3.963 12.880 C 5.766 15.459,7.998 17.624,10.860 19.570 C 13.027 21.043,13.872 21.382,15.500 21.428 C 16.307 21.451,16.780 21.405,17.451 21.236 C 18.174 21.054,19.099 20.640,19.780 20.193 C 20.703 19.588,21.160 18.725,21.110 17.684 C 21.080 17.048,20.869 16.516,20.464 16.053 C 20.379 15.955,19.713 15.371,18.986 14.756 C 17.546 13.538,17.348 13.406,16.833 13.319 C 16.462 13.256,16.042 13.314,15.700 13.475 C 15.568 13.538,14.930 13.908,14.283 14.297 C 13.199 14.949,13.098 15.002,13.012 14.956 C 12.961 14.928,12.717 14.754,12.470 14.569 C 11.159 13.585,9.498 11.924,8.764 10.862 L 8.560 10.567 9.374 9.209 C 9.880 8.365,10.206 7.779,10.236 7.660 C 10.314 7.351,10.332 6.998,10.284 6.740 C 10.192 6.249,10.042 6.025,8.905 4.680 C 7.815 3.393,7.522 3.097,7.125 2.887 C 6.696 2.659,6.426 2.593,5.860 2.575 C 5.435 2.562,5.288 2.574,5.055 2.637 M6.166 4.644 C 6.267 4.695,6.622 5.082,7.303 5.887 C 7.848 6.530,8.293 7.075,8.292 7.098 C 8.292 7.121,7.917 7.761,7.460 8.520 C 6.468 10.168,6.441 10.221,6.440 10.543 C 6.440 10.749,6.467 10.840,6.614 11.143 C 7.030 11.995,7.811 12.982,9.035 14.202 C 10.208 15.370,11.350 16.301,12.376 16.924 L 12.732 17.140 13.079 17.140 L 13.426 17.140 14.972 16.213 L 16.518 15.285 17.609 16.207 C 19.183 17.536,19.141 17.489,19.112 17.887 C 19.091 18.177,19.018 18.282,18.666 18.525 C 17.360 19.430,15.594 19.704,14.228 19.213 C 13.798 19.059,13.456 18.877,12.765 18.433 C 9.391 16.268,6.933 13.868,5.010 10.862 C 4.303 9.757,4.085 9.165,4.051 8.255 C 4.026 7.600,4.072 7.211,4.244 6.632 C 4.432 5.999,4.871 5.138,5.174 4.806 C 5.422 4.535,5.819 4.470,6.166 4.644 " fill="#000640" stroke="none" fill-rule="evenodd"></path></svg>