<svg xmlns="http://www.w3.org/2000/svg" width="24" height="24" fill="currentColor" class="mmi mmi-missedcall-v2" viewBox="0 0 24 24"><path d="M12.664 3.063 C 12.436 3.146,12.257 3.297,12.131 3.511 C 12.036 3.672,12.020 3.744,12.020 4.000 C 12.020 4.256,12.036 4.328,12.131 4.489 C 12.192 4.592,12.301 4.723,12.374 4.778 C 12.633 4.975,12.781 5.000,13.715 5.000 L 14.580 5.000 13.290 6.290 L 12.001 7.579 10.290 5.872 C 8.458 4.042,8.410 4.002,8.020 4.001 C 7.722 4.000,7.551 4.062,7.339 4.249 C 7.097 4.462,7.002 4.669,7.001 4.982 C 6.999 5.423,6.994 5.417,9.329 7.745 C 11.253 9.663,11.479 9.876,11.657 9.935 C 11.907 10.017,12.094 10.017,12.343 9.935 C 12.520 9.876,12.719 9.691,14.270 8.146 L 16.000 6.422 16.000 7.281 C 16.000 7.753,16.019 8.207,16.042 8.289 C 16.103 8.509,16.315 8.762,16.531 8.874 C 16.932 9.080,17.390 9.012,17.700 8.702 C 18.003 8.399,18.000 8.429,18.000 6.000 C 18.000 3.646,18.000 3.644,17.759 3.351 C 17.694 3.272,17.547 3.161,17.432 3.104 L 17.224 3.000 15.022 3.003 C 13.216 3.005,12.792 3.016,12.664 3.063 M11.180 11.041 C 9.617 11.147,7.767 11.449,6.285 11.840 C 4.279 12.369,2.663 13.835,1.842 15.870 C 1.076 17.767,1.166 19.013,2.136 19.984 C 2.632 20.479,3.181 20.738,3.840 20.786 C 4.144 20.808,6.655 20.599,7.063 20.518 C 7.576 20.415,8.117 20.013,8.385 19.533 C 8.503 19.323,8.575 19.064,8.859 17.816 C 9.044 17.009,9.217 16.334,9.243 16.318 C 9.312 16.276,10.295 16.127,10.840 16.078 C 11.444 16.022,13.063 16.023,13.620 16.078 C 14.126 16.129,14.753 16.236,14.777 16.276 C 14.787 16.291,14.941 16.950,15.120 17.741 C 15.336 18.698,15.485 19.265,15.562 19.432 C 15.797 19.943,16.382 20.406,16.929 20.516 C 17.045 20.540,17.743 20.612,18.480 20.678 C 19.901 20.804,20.135 20.802,20.640 20.656 C 21.135 20.514,21.702 20.133,22.021 19.730 C 22.272 19.413,22.501 18.942,22.582 18.576 C 22.772 17.722,22.489 16.341,21.870 15.100 C 21.213 13.783,20.269 12.808,19.051 12.189 C 18.555 11.937,18.215 11.814,17.540 11.645 C 16.473 11.379,15.530 11.215,14.400 11.100 C 13.658 11.024,11.904 10.992,11.180 11.041 M14.320 13.096 C 16.146 13.301,17.671 13.669,18.330 14.064 C 19.505 14.768,20.287 15.960,20.601 17.525 C 20.669 17.865,20.678 17.980,20.644 18.105 C 20.585 18.319,20.471 18.492,20.313 18.610 C 20.040 18.813,20.006 18.815,18.669 18.694 C 17.991 18.633,17.418 18.571,17.394 18.556 C 17.370 18.542,17.176 17.767,16.963 16.835 C 16.749 15.903,16.545 15.083,16.508 15.014 C 16.290 14.598,15.551 14.314,14.215 14.132 C 13.466 14.030,11.072 14.031,10.220 14.134 C 9.174 14.260,8.108 14.491,7.853 14.646 C 7.693 14.743,7.511 14.949,7.448 15.102 C 7.422 15.167,7.238 15.940,7.040 16.820 C 6.842 17.700,6.663 18.457,6.644 18.502 C 6.612 18.578,6.522 18.591,5.290 18.699 C 4.008 18.812,3.966 18.813,3.787 18.745 C 3.415 18.603,3.277 18.303,3.351 17.794 C 3.412 17.374,3.673 16.603,3.907 16.151 C 4.449 15.100,5.385 14.252,6.385 13.903 C 7.286 13.588,9.349 13.197,10.720 13.081 C 10.995 13.058,11.292 13.032,11.380 13.023 C 11.746 12.988,13.815 13.039,14.320 13.096 " fill="#000640" stroke="none" fill-rule="evenodd"></path></svg>