<svg xmlns="http://www.w3.org/2000/svg" width="24" height="24" fill="currentColor" class="mmi mmi-mobilephone-vibrate" viewBox="0 0 24 24"><path d="M7.503 1.042 C 6.486 1.215,5.556 1.976,5.202 2.925 C 4.992 3.487,5.001 3.068,5.001 11.992 C 5.000 19.301,5.007 20.319,5.062 20.581 C 5.310 21.785,6.215 22.690,7.419 22.938 C 7.867 23.031,16.133 23.031,16.581 22.938 C 17.780 22.691,18.691 21.780,18.938 20.581 C 18.993 20.319,19.000 19.300,19.000 12.000 C 19.000 2.925,19.014 3.457,18.766 2.849 C 18.499 2.193,17.964 1.633,17.296 1.312 C 16.649 1.001,17.051 1.024,12.120 1.015 C 9.689 1.012,7.611 1.023,7.503 1.042 M16.340 3.066 C 16.593 3.153,16.847 3.407,16.934 3.660 C 16.995 3.838,17.000 4.523,17.000 12.000 C 17.000 21.144,17.026 20.376,16.701 20.701 C 16.384 21.018,16.663 21.000,12.000 21.000 C 7.337 21.000,7.616 21.018,7.299 20.701 C 6.974 20.376,7.000 21.144,7.000 12.000 C 7.000 2.855,6.973 3.624,7.300 3.298 C 7.609 2.989,7.322 3.007,11.983 3.003 C 15.758 3.000,16.164 3.006,16.340 3.066 M1.643 6.069 C 1.546 6.103,1.392 6.206,1.300 6.298 C 0.979 6.619,1.000 6.216,1.000 12.000 C 1.000 17.783,0.979 17.381,1.299 17.701 C 1.690 18.092,2.310 18.092,2.701 17.701 C 3.021 17.381,3.000 17.783,3.000 12.000 C 3.000 6.217,3.021 6.619,2.701 6.299 C 2.424 6.021,2.024 5.934,1.643 6.069 M21.643 6.069 C 21.546 6.103,21.392 6.206,21.300 6.298 C 20.979 6.619,21.000 6.216,21.000 12.000 C 21.000 17.783,20.979 17.381,21.299 17.701 C 21.690 18.092,22.310 18.092,22.701 17.701 C 23.021 17.381,23.000 17.783,23.000 12.000 C 23.000 6.217,23.021 6.619,22.701 6.299 C 22.424 6.021,22.024 5.934,21.643 6.069 " fill="#000640" stroke="none" fill-rule="evenodd"></path></svg>