<svg xmlns="http://www.w3.org/2000/svg" width="24" height="24" fill="currentColor" class="mmi mmi-mobile-preview" viewBox="0 0 24 24"><path d="M7.380 1.186 C 6.208 1.438,5.304 2.352,5.063 3.528 C 5.007 3.803,5.000 4.727,5.000 12.120 C 5.000 19.351,5.008 20.441,5.060 20.696 C 5.288 21.797,6.086 22.658,7.200 23.006 L 7.500 23.100 12.000 23.100 L 16.500 23.100 16.800 23.006 C 17.920 22.656,18.719 21.789,18.941 20.682 C 18.995 20.417,19.001 19.363,18.990 11.980 C 18.979 4.018,18.975 3.567,18.906 3.340 C 18.594 2.304,17.814 1.523,16.780 1.214 C 16.556 1.147,16.238 1.142,12.100 1.134 C 8.274 1.127,7.621 1.134,7.380 1.186 M16.492 3.253 C 16.709 3.381,16.901 3.622,16.960 3.842 C 16.987 3.940,16.997 6.780,16.990 12.186 C 16.980 20.236,16.979 20.383,16.902 20.538 C 16.858 20.625,16.754 20.763,16.670 20.845 C 16.372 21.135,16.619 21.120,12.000 21.120 C 7.327 21.120,7.626 21.139,7.299 20.813 C 6.973 20.487,6.998 21.230,7.010 12.018 L 7.020 3.820 7.131 3.631 C 7.256 3.419,7.448 3.256,7.670 3.177 C 7.793 3.133,8.587 3.124,12.060 3.131 L 16.300 3.140 16.492 3.253 M11.670 18.175 C 11.183 18.356,10.918 18.850,11.038 19.353 C 11.189 19.980,11.906 20.294,12.474 19.981 C 13.144 19.612,13.165 18.668,12.512 18.267 C 12.285 18.127,11.908 18.086,11.670 18.175 " fill="#000640" stroke="none" fill-rule="evenodd"></path></svg>