<svg xmlns="http://www.w3.org/2000/svg" width="24" height="24" fill="currentColor" class="mmi mmi-money-transaction" viewBox="0 0 24 24"><path d="M20.643 1.069 C 20.407 1.152,20.149 1.416,20.066 1.660 C 19.929 2.064,20.015 2.402,20.347 2.761 L 20.565 2.997 15.833 3.010 C 10.624 3.025,10.854 3.015,9.796 3.281 C 7.907 3.755,6.185 4.863,4.976 6.383 C 3.198 8.617,2.587 11.489,3.300 14.260 C 3.473 14.933,3.624 15.339,3.941 15.985 C 4.457 17.033,5.210 18.016,6.080 18.773 L 6.340 19.000 4.885 19.000 L 3.429 19.000 3.611 18.806 C 3.875 18.523,3.970 18.315,3.970 18.015 C 3.970 17.444,3.550 17.026,2.979 17.029 C 2.567 17.031,2.463 17.109,1.236 18.347 C 0.268 19.322,0.123 19.484,0.066 19.657 C -0.017 19.906,-0.017 20.094,0.066 20.343 C 0.123 20.516,0.269 20.679,1.255 21.671 C 2.478 22.902,2.606 23.000,2.978 23.000 C 3.309 22.999,3.473 22.932,3.703 22.703 C 3.932 22.473,4.000 22.308,3.999 21.980 C 3.998 21.716,3.889 21.487,3.637 21.221 L 3.432 21.003 8.166 20.990 C 13.377 20.975,13.146 20.985,14.204 20.719 C 17.377 19.923,19.908 17.405,20.703 14.254 C 20.920 13.398,20.977 12.925,20.976 12.000 C 20.976 11.072,20.916 10.584,20.700 9.740 C 20.527 9.068,20.377 8.662,20.059 8.015 C 19.547 6.974,18.821 6.025,17.941 5.247 L 17.661 5.000 19.116 5.000 L 20.572 5.000 20.364 5.219 C 20.111 5.487,20.002 5.715,20.001 5.980 C 20.000 6.308,20.068 6.473,20.297 6.703 C 20.527 6.932,20.691 6.999,21.022 7.000 C 21.394 7.000,21.522 6.901,22.747 5.671 C 23.840 4.573,23.875 4.533,23.941 4.304 C 24.020 4.031,24.001 3.789,23.881 3.541 C 23.831 3.438,23.390 2.969,22.671 2.255 C 21.679 1.269,21.516 1.123,21.343 1.066 C 21.102 0.985,20.877 0.986,20.643 1.069 M12.894 5.060 C 15.215 5.364,17.209 6.782,18.258 8.875 C 19.987 12.325,18.584 16.527,15.125 18.258 C 11.671 19.986,7.476 18.586,5.742 15.125 C 4.582 12.810,4.799 10.057,6.311 7.920 C 6.656 7.433,7.433 6.656,7.920 6.311 C 9.374 5.283,11.162 4.833,12.894 5.060 M11.643 6.069 C 11.407 6.152,11.149 6.416,11.066 6.660 C 11.024 6.783,10.999 6.988,10.998 7.217 L 10.997 7.580 10.608 7.768 C 9.991 8.067,9.565 8.480,9.277 9.060 C 8.854 9.913,8.927 10.906,9.473 11.709 C 9.766 12.141,10.300 12.563,10.806 12.762 C 11.129 12.890,11.460 12.960,11.910 12.996 C 12.409 13.036,12.586 13.106,12.810 13.355 C 13.268 13.861,12.798 14.560,12.000 14.560 C 11.667 14.560,11.448 14.468,11.149 14.203 C 10.848 13.935,10.676 13.863,10.353 13.868 C 9.795 13.878,9.354 14.380,9.412 14.941 C 9.443 15.241,9.552 15.425,9.895 15.750 C 10.131 15.974,10.285 16.079,10.597 16.229 L 10.997 16.420 10.998 16.783 C 11.000 17.242,11.078 17.480,11.299 17.701 C 11.690 18.092,12.310 18.092,12.701 17.701 C 12.922 17.480,13.000 17.242,13.002 16.783 L 13.003 16.420 13.408 16.226 C 13.760 16.058,13.860 15.985,14.181 15.666 C 14.482 15.366,14.580 15.238,14.718 14.957 C 15.206 13.963,15.039 12.815,14.286 11.994 C 13.739 11.397,13.038 11.080,12.097 11.005 C 11.590 10.964,11.415 10.895,11.190 10.645 C 10.961 10.392,10.945 10.132,11.142 9.832 C 11.291 9.603,11.552 9.471,11.899 9.449 C 12.288 9.424,12.536 9.508,12.810 9.758 C 13.120 10.040,13.252 10.098,13.580 10.098 C 13.899 10.098,14.095 10.015,14.308 9.794 C 14.486 9.608,14.560 9.406,14.559 9.111 C 14.558 8.764,14.468 8.593,14.107 8.251 C 13.869 8.026,13.715 7.921,13.403 7.771 L 13.003 7.580 13.002 7.217 C 13.000 6.758,12.922 6.520,12.701 6.299 C 12.424 6.021,12.024 5.934,11.643 6.069 " stroke="none" fill-rule="evenodd"></path></svg>