<svg xmlns="http://www.w3.org/2000/svg" width="24" height="24" fill="currentColor" class="mmi mmi-money-wave" viewBox="0 0 24 24"><path d="M17.180 2.864 C 15.410 2.998,14.410 3.218,11.440 4.126 C 8.762 4.944,7.312 5.206,5.780 5.146 C 4.408 5.093,3.300 4.844,1.802 4.251 C 1.221 4.022,1.120 3.993,0.935 4.009 C 0.529 4.042,0.143 4.345,0.042 4.711 C -0.016 4.918,-0.016 19.082,0.042 19.289 C 0.152 19.685,0.413 19.869,1.382 20.235 C 2.764 20.756,3.954 20.992,5.386 21.028 C 6.724 21.062,7.719 20.944,9.131 20.583 C 9.950 20.374,10.421 20.225,12.177 19.623 C 14.917 18.683,15.941 18.461,17.520 18.463 C 18.233 18.464,18.468 18.480,18.893 18.555 C 19.979 18.747,21.031 19.108,22.120 19.664 C 22.476 19.845,22.771 19.970,22.884 19.985 C 23.171 20.023,23.489 19.913,23.700 19.702 C 24.024 19.378,24.000 19.992,24.000 11.980 C 24.000 4.139,24.017 4.664,23.757 4.348 C 23.615 4.177,23.301 4.019,22.511 3.724 C 21.480 3.338,20.395 3.069,19.360 2.941 C 18.866 2.880,17.568 2.834,17.180 2.864 M17.133 5.230 C 17.483 6.945,18.646 8.487,20.200 9.295 C 20.792 9.603,21.130 9.723,21.890 9.896 L 22.000 9.922 22.000 11.000 L 22.000 12.078 21.890 12.103 C 20.186 12.481,18.909 13.333,18.013 14.688 C 17.722 15.129,17.450 15.682,17.308 16.120 L 17.211 16.420 16.956 16.449 C 16.815 16.465,16.439 16.505,16.119 16.539 C 14.864 16.673,14.061 16.884,11.320 17.801 C 10.209 18.173,9.012 18.551,8.660 18.641 C 8.106 18.784,6.962 19.008,6.929 18.980 C 6.923 18.975,6.874 18.793,6.821 18.575 C 6.417 16.917,5.299 15.485,3.795 14.702 C 3.199 14.391,2.888 14.281,2.110 14.104 L 2.000 14.078 2.000 13.000 L 2.000 11.922 2.110 11.896 C 3.066 11.679,3.646 11.439,4.340 10.975 C 5.564 10.158,6.500 8.821,6.822 7.434 L 6.893 7.128 7.236 7.101 C 8.561 6.998,9.855 6.701,12.480 5.899 C 13.872 5.474,14.861 5.211,15.560 5.079 C 16.085 4.980,16.714 4.890,16.921 4.884 L 17.062 4.880 17.133 5.230 M19.646 4.998 C 20.229 5.098,20.762 5.237,21.450 5.468 L 22.000 5.653 22.000 6.765 L 22.000 7.876 21.830 7.823 C 20.685 7.467,19.737 6.603,19.308 5.527 C 19.149 5.128,19.096 4.920,19.153 4.920 C 19.174 4.920,19.396 4.955,19.646 4.998 M2.511 6.619 C 3.085 6.788,3.749 6.933,4.360 7.022 C 4.613 7.058,4.827 7.095,4.836 7.104 C 4.845 7.112,4.803 7.250,4.742 7.410 C 4.528 7.969,4.125 8.567,3.708 8.944 C 3.294 9.320,2.618 9.703,2.137 9.836 L 2.000 9.874 2.000 8.177 C 2.000 7.244,2.009 6.480,2.021 6.480 C 2.032 6.480,2.253 6.542,2.511 6.619 M11.433 8.040 C 10.843 8.134,10.221 8.380,9.731 8.712 C 8.955 9.240,8.394 10.037,8.130 10.989 C 8.034 11.337,8.022 11.449,8.022 12.000 C 8.022 12.553,8.034 12.663,8.132 13.017 C 8.475 14.256,9.357 15.252,10.520 15.715 C 12.334 16.437,14.462 15.710,15.444 14.033 C 16.503 12.224,15.985 9.878,14.269 8.712 C 13.917 8.473,13.343 8.214,12.958 8.120 C 12.572 8.026,11.783 7.984,11.433 8.040 M12.383 10.043 C 13.185 10.190,13.839 10.872,13.967 11.695 C 14.153 12.894,13.209 14.000,12.000 14.000 C 11.032 14.000,10.183 13.268,10.033 12.305 C 9.933 11.663,10.132 11.061,10.596 10.596 C 11.085 10.108,11.698 9.918,12.383 10.043 M22.000 15.761 L 22.000 17.401 21.850 17.336 C 21.279 17.089,20.051 16.727,19.430 16.622 C 19.348 16.608,19.280 16.575,19.280 16.548 C 19.280 16.477,19.521 16.012,19.689 15.759 C 20.153 15.061,20.913 14.485,21.740 14.204 C 21.872 14.159,21.984 14.122,21.990 14.121 C 21.996 14.121,22.000 14.858,22.000 15.761 M2.556 16.317 C 3.606 16.739,4.473 17.702,4.825 18.836 L 4.880 19.011 4.570 18.985 C 4.090 18.945,3.363 18.781,2.650 18.554 L 2.000 18.346 2.000 17.235 L 2.000 16.124 2.170 16.177 C 2.264 16.206,2.437 16.269,2.556 16.317 " fill="#000640" stroke="none" fill-rule="evenodd"></path></svg>