<svg xmlns="http://www.w3.org/2000/svg" width="24" height="24" fill="currentColor" class="mmi mmi-money" viewBox="0 0 24 24"><path d="M0.643 4.069 C 0.546 4.103,0.392 4.206,0.300 4.298 C -0.025 4.623,-0.000 3.975,0.000 12.000 C 0.000 20.023,-0.025 19.377,0.299 19.701 C 0.627 20.029,-0.506 20.000,12.000 20.000 C 24.506 20.000,23.373 20.029,23.701 19.701 C 24.025 19.377,24.000 20.023,24.000 12.000 C 24.000 3.977,24.025 4.623,23.701 4.299 C 23.373 3.971,24.509 4.000,11.983 4.003 C 1.979 4.006,0.802 4.013,0.643 4.069 M4.000 6.098 C 4.000 6.287,3.911 6.622,3.795 6.868 C 3.512 7.468,2.896 7.906,2.223 7.985 L 2.000 8.011 2.000 7.006 L 2.000 6.000 3.000 6.000 L 4.000 6.000 4.000 6.098 M18.016 6.310 C 18.100 7.262,18.515 8.161,19.177 8.823 C 19.839 9.485,20.738 9.900,21.690 9.984 L 22.000 10.011 22.000 12.000 L 22.000 13.989 21.690 14.016 C 20.738 14.100,19.839 14.515,19.177 15.177 C 18.515 15.839,18.100 16.738,18.016 17.690 L 17.989 18.000 12.000 18.000 L 6.011 18.000 5.984 17.690 C 5.900 16.738,5.485 15.839,4.823 15.177 C 4.161 14.515,3.262 14.100,2.310 14.016 L 2.000 13.989 2.000 12.000 L 2.000 10.011 2.310 9.984 C 3.262 9.900,4.161 9.485,4.823 8.823 C 5.485 8.161,5.900 7.262,5.984 6.310 L 6.011 6.000 12.000 6.000 L 17.989 6.000 18.016 6.310 M22.000 7.000 L 22.000 8.000 21.902 8.000 C 21.713 8.000,21.378 7.911,21.132 7.795 C 20.532 7.512,20.094 6.896,20.015 6.223 L 19.989 6.000 20.994 6.000 L 22.000 6.000 22.000 7.000 M11.433 8.040 C 10.843 8.134,10.221 8.380,9.731 8.712 C 8.955 9.240,8.394 10.037,8.130 10.989 C 8.034 11.337,8.022 11.449,8.022 12.000 C 8.022 12.553,8.034 12.663,8.132 13.017 C 8.475 14.256,9.357 15.252,10.520 15.715 C 12.334 16.437,14.462 15.710,15.444 14.033 C 16.503 12.224,15.985 9.878,14.269 8.712 C 13.917 8.473,13.343 8.214,12.958 8.120 C 12.572 8.026,11.783 7.984,11.433 8.040 M12.383 10.043 C 13.185 10.190,13.839 10.872,13.967 11.695 C 14.153 12.894,13.209 14.000,12.000 14.000 C 11.032 14.000,10.183 13.268,10.033 12.305 C 9.933 11.663,10.132 11.061,10.596 10.596 C 11.085 10.108,11.698 9.918,12.383 10.043 M2.667 16.119 C 3.304 16.343,3.818 16.930,3.956 17.592 C 3.980 17.709,4.000 17.848,4.000 17.902 L 4.000 18.000 3.000 18.000 L 2.000 18.000 2.000 16.994 L 2.000 15.989 2.223 16.015 C 2.346 16.030,2.545 16.076,2.667 16.119 M22.000 17.000 L 22.000 18.000 20.994 18.000 L 19.989 18.000 20.015 17.777 C 20.112 16.950,20.729 16.252,21.534 16.057 C 21.647 16.029,21.799 16.005,21.870 16.003 L 22.000 16.000 22.000 17.000 " fill="#000640" stroke="none" fill-rule="evenodd"></path></svg>