<svg xmlns="http://www.w3.org/2000/svg" width="24" height="24" fill="currentColor" class="mmi mmi-moneybook" viewBox="0 0 24 24"><path d="M4.503 1.042 C 3.820 1.157,3.117 1.573,2.670 2.127 C 2.445 2.407,2.159 2.980,2.074 3.320 C 1.993 3.647,1.993 20.353,2.074 20.680 C 2.159 21.020,2.445 21.593,2.670 21.873 C 2.950 22.220,3.312 22.501,3.740 22.704 C 4.409 23.021,3.765 23.000,12.957 23.000 C 22.149 23.000,21.376 23.026,21.701 22.701 C 22.028 22.374,22.000 23.385,22.000 12.000 C 22.000 0.615,22.028 1.626,21.701 1.299 C 21.375 0.973,22.155 0.999,12.923 1.005 C 8.400 1.007,4.611 1.024,4.503 1.042 M20.000 9.999 L 20.000 16.999 12.230 17.010 C 5.019 17.021,4.444 17.027,4.240 17.090 C 4.119 17.128,4.015 17.159,4.010 17.160 C 4.004 17.160,4.004 14.132,4.010 10.430 L 4.020 3.700 4.131 3.511 C 4.256 3.298,4.449 3.136,4.670 3.057 C 4.793 3.013,6.174 3.003,12.410 3.002 L 20.000 3.000 20.000 9.999 M11.664 4.063 C 11.436 4.146,11.257 4.297,11.131 4.511 C 11.032 4.680,11.019 4.746,11.005 5.140 L 10.990 5.580 10.605 5.768 C 9.990 6.068,9.564 6.483,9.277 7.060 C 8.896 7.829,8.915 8.708,9.330 9.491 C 9.598 9.998,10.222 10.535,10.801 10.758 C 11.206 10.914,11.409 10.958,11.927 11.000 C 12.417 11.040,12.589 11.109,12.810 11.355 C 13.268 11.861,12.798 12.560,12.000 12.560 C 11.674 12.560,11.452 12.469,11.159 12.213 C 10.845 11.939,10.711 11.880,10.411 11.881 C 10.021 11.882,9.688 12.081,9.508 12.420 C 9.389 12.643,9.389 13.076,9.507 13.300 C 9.691 13.646,10.341 14.166,10.810 14.340 L 11.000 14.411 11.000 14.775 C 11.000 15.217,11.043 15.386,11.212 15.607 C 11.570 16.076,12.281 16.121,12.700 15.702 C 12.922 15.480,13.000 15.243,13.002 14.783 L 13.003 14.420 13.392 14.234 C 13.999 13.943,14.434 13.521,14.723 12.940 C 15.203 11.973,15.041 10.816,14.313 10.022 C 13.741 9.397,13.053 9.082,12.097 9.005 C 11.590 8.964,11.415 8.895,11.190 8.645 C 10.878 8.300,10.982 7.835,11.429 7.572 C 11.600 7.472,11.658 7.460,11.980 7.460 C 12.401 7.460,12.565 7.527,12.903 7.836 C 13.229 8.133,13.607 8.200,13.980 8.026 C 14.251 7.899,14.461 7.658,14.542 7.378 C 14.661 6.969,14.544 6.664,14.107 6.251 C 13.870 6.026,13.714 5.920,13.403 5.771 L 13.003 5.580 13.002 5.217 C 13.000 4.758,12.922 4.520,12.701 4.299 C 12.429 4.027,12.018 3.933,11.664 4.063 M20.000 20.000 L 20.000 21.000 12.425 21.000 C 4.161 21.000,4.684 21.014,4.374 20.778 C 4.301 20.723,4.192 20.592,4.131 20.489 C 4.036 20.328,4.020 20.256,4.020 20.000 C 4.020 19.744,4.036 19.672,4.131 19.511 C 4.256 19.298,4.449 19.136,4.670 19.057 C 4.793 19.013,6.174 19.003,12.410 19.002 L 20.000 19.000 20.000 20.000 " fill="#000640" stroke="none" fill-rule="evenodd"></path></svg>