<svg xmlns="http://www.w3.org/2000/svg" width="24" height="24" fill="currentColor" class="mmi mmi-moneybag-deduct" viewBox="0 0 24 24"><path d="M10.294 1.039 C 8.272 1.149,7.298 1.432,6.616 2.106 C 5.825 2.887,5.807 4.133,6.570 5.307 C 6.922 5.850,7.439 6.368,8.015 6.754 C 8.212 6.886,8.274 6.947,8.235 6.970 C 8.205 6.988,7.995 7.110,7.769 7.243 C 7.091 7.640,6.434 8.162,5.737 8.858 C 5.384 9.211,4.945 9.689,4.762 9.920 C 3.511 11.501,2.556 13.505,2.206 15.282 C 2.051 16.071,2.024 16.341,2.023 17.140 C 2.021 18.195,2.128 18.809,2.446 19.560 C 2.980 20.822,4.070 21.772,5.583 22.294 C 7.020 22.789,8.925 22.998,12.000 22.998 C 15.653 22.998,17.733 22.698,19.213 21.958 C 19.790 21.669,20.134 21.426,20.565 21.000 C 21.307 20.269,21.720 19.431,21.926 18.240 C 21.992 17.855,21.993 16.535,21.928 16.060 C 21.680 14.275,20.990 12.481,19.943 10.902 C 19.402 10.086,18.988 9.582,18.263 8.858 C 17.566 8.162,16.909 7.640,16.231 7.243 C 16.005 7.110,15.795 6.988,15.765 6.970 C 15.726 6.947,15.788 6.886,15.985 6.754 C 17.932 5.448,18.581 3.292,17.385 2.106 C 16.794 1.519,15.886 1.211,14.360 1.080 C 13.704 1.024,11.065 0.997,10.294 1.039 " stroke="none" fill-rule="evenodd"></path></svg>