<svg xmlns="http://www.w3.org/2000/svg" width="24" height="24" fill="currentColor" class="mmi mmi-moneyshield" viewBox="0 0 24 24"><path d="M11.360 1.183 C 10.919 1.278,3.959 3.618,3.660 3.772 C 3.286 3.964,3.189 4.033,2.907 4.307 C 2.626 4.581,2.349 4.991,2.216 5.331 C 1.997 5.889,2.000 5.821,2.000 10.289 C 2.000 15.030,2.004 15.092,2.345 16.120 C 3.305 19.016,6.417 21.397,11.060 22.788 C 11.490 22.917,11.588 22.932,12.000 22.932 C 12.412 22.932,12.510 22.917,12.940 22.788 C 17.712 21.358,20.868 18.876,21.736 15.870 C 21.986 15.004,21.976 15.225,21.990 10.500 C 22.004 5.793,22.008 5.889,21.778 5.324 C 21.523 4.695,20.996 4.112,20.406 3.805 C 20.036 3.613,13.131 1.287,12.612 1.180 C 12.257 1.106,11.707 1.108,11.360 1.183 M15.800 4.326 C 17.803 4.994,19.486 5.576,19.567 5.630 C 19.727 5.735,19.880 5.944,19.953 6.156 C 20.028 6.375,20.018 14.174,19.942 14.680 C 19.779 15.764,19.249 16.749,18.340 17.662 C 17.119 18.887,15.313 19.900,12.940 20.691 C 12.476 20.845,12.149 20.932,12.020 20.935 C 11.611 20.943,9.865 20.312,8.660 19.720 C 6.285 18.554,4.779 17.097,4.239 15.443 C 3.999 14.707,3.998 14.689,4.009 10.231 L 4.020 6.178 4.120 5.983 C 4.318 5.599,4.190 5.651,8.152 4.334 C 10.856 3.434,11.831 3.126,11.980 3.124 C 12.141 3.121,12.882 3.354,15.800 4.326 M11.664 6.063 C 11.436 6.146,11.257 6.297,11.131 6.511 C 11.032 6.680,11.019 6.746,11.005 7.140 L 10.990 7.580 10.605 7.768 C 9.990 8.068,9.564 8.483,9.277 9.060 C 8.896 9.829,8.915 10.708,9.330 11.491 C 9.598 11.998,10.222 12.535,10.801 12.758 C 11.206 12.914,11.409 12.958,11.927 13.000 C 12.417 13.040,12.589 13.109,12.810 13.355 C 13.039 13.608,13.055 13.868,12.858 14.168 C 12.709 14.397,12.448 14.529,12.101 14.551 C 11.712 14.576,11.464 14.492,11.190 14.242 C 10.918 13.995,10.758 13.916,10.482 13.891 C 10.042 13.851,9.593 14.165,9.463 14.603 C 9.385 14.865,9.385 14.895,9.464 15.161 C 9.579 15.548,10.244 16.131,10.810 16.341 L 11.000 16.411 11.000 16.775 C 11.000 17.217,11.043 17.386,11.212 17.607 C 11.570 18.076,12.281 18.121,12.700 17.702 C 12.922 17.480,13.000 17.243,13.002 16.783 L 13.003 16.420 13.392 16.234 C 13.999 15.943,14.434 15.521,14.723 14.940 C 15.203 13.973,15.041 12.816,14.313 12.022 C 13.741 11.397,13.053 11.082,12.097 11.005 C 11.590 10.964,11.415 10.895,11.190 10.645 C 10.710 10.115,11.237 9.399,12.073 9.446 C 12.393 9.464,12.623 9.571,12.880 9.821 C 13.096 10.031,13.303 10.124,13.557 10.126 C 13.825 10.128,14.056 10.048,14.242 9.889 C 14.485 9.681,14.578 9.475,14.578 9.140 C 14.578 8.776,14.495 8.621,14.105 8.250 C 13.869 8.026,13.715 7.921,13.403 7.771 L 13.003 7.580 13.002 7.217 C 13.000 6.758,12.922 6.520,12.701 6.299 C 12.429 6.027,12.018 5.933,11.664 6.063 " fill="#000640" stroke="none" fill-rule="evenodd"></path></svg>