<svg xmlns="http://www.w3.org/2000/svg" width="24" height="24" fill="currentColor" class="mmi mmi-monitor-v2" viewBox="0 0 24 24"><path d="M3.503 1.042 C 2.488 1.214,1.556 1.976,1.202 2.925 C 0.995 3.479,1.001 3.274,1.001 9.492 C 1.000 15.829,0.990 15.553,1.234 16.151 C 1.521 16.857,2.143 17.479,2.849 17.766 C 3.410 17.995,3.488 18.000,6.238 18.000 C 7.625 18.000,8.761 18.014,8.762 18.030 C 8.763 18.047,8.633 18.722,8.472 19.530 L 8.181 21.000 7.516 21.000 C 6.622 21.000,6.379 21.090,6.131 21.511 C 6.036 21.672,6.020 21.744,6.020 22.000 C 6.020 22.256,6.036 22.328,6.131 22.489 C 6.192 22.592,6.301 22.723,6.374 22.778 C 6.680 23.011,6.390 23.000,11.998 23.000 C 17.783 23.000,17.381 23.021,17.701 22.701 C 18.092 22.310,18.092 21.690,17.701 21.299 C 17.446 21.044,17.267 21.000,16.482 21.000 L 15.819 21.000 15.528 19.530 C 15.367 18.722,15.237 18.047,15.238 18.030 C 15.239 18.014,16.375 18.000,17.762 18.000 C 20.512 18.000,20.590 17.995,21.150 17.767 C 21.850 17.482,22.482 16.850,22.767 16.150 C 23.010 15.554,23.000 15.826,23.000 9.500 C 23.000 3.172,23.010 3.447,22.766 2.849 C 22.499 2.193,21.964 1.633,21.296 1.312 C 20.634 0.993,21.532 1.022,12.120 1.015 C 7.489 1.012,3.611 1.024,3.503 1.042 M20.340 3.066 C 20.455 3.105,20.603 3.201,20.701 3.299 C 21.017 3.615,21.000 3.346,21.000 7.927 L 21.000 12.000 12.000 12.000 L 3.000 12.000 3.000 7.927 C 3.000 3.344,2.982 3.615,3.300 3.298 C 3.617 2.981,2.858 3.007,11.983 3.003 C 19.481 3.000,20.162 3.005,20.340 3.066 M21.000 14.573 C 21.000 15.259,20.948 15.454,20.701 15.701 C 20.376 16.026,21.144 16.000,12.000 16.000 C 2.856 16.000,3.624 16.026,3.299 15.701 C 3.052 15.454,3.000 15.259,3.000 14.573 L 3.000 14.000 12.000 14.000 L 21.000 14.000 21.000 14.573 M13.472 19.470 C 13.633 20.279,13.763 20.953,13.762 20.970 C 13.761 20.987,12.968 21.000,12.000 21.000 C 11.032 21.000,10.239 20.987,10.238 20.970 C 10.237 20.953,10.367 20.279,10.528 19.470 L 10.819 18.000 12.000 18.000 L 13.181 18.000 13.472 19.470 " fill="#000640" stroke="none" fill-rule="evenodd"></path></svg>