<svg xmlns="http://www.w3.org/2000/svg" width="24" height="24" fill="currentColor" class="mmi mmi-monitor-add" viewBox="0 0 24 24"><path d="M3.503 1.042 C 2.818 1.158,2.117 1.573,1.670 2.127 C 1.445 2.407,1.159 2.980,1.074 3.320 C 0.994 3.646,0.994 16.354,1.074 16.680 C 1.159 17.020,1.445 17.593,1.670 17.873 C 1.950 18.220,2.312 18.501,2.740 18.704 C 3.377 19.005,3.294 19.000,7.384 19.000 L 11.000 19.000 11.000 20.000 L 11.000 21.000 8.927 21.000 C 6.581 21.000,6.600 20.998,6.299 21.299 C 5.908 21.690,5.908 22.310,6.299 22.701 C 6.619 23.021,6.217 23.000,12.000 23.000 C 17.783 23.000,17.381 23.021,17.701 22.701 C 18.092 22.310,18.092 21.690,17.701 21.299 C 17.400 20.998,17.419 21.000,15.073 21.000 L 13.000 21.000 13.000 20.000 L 13.000 19.000 16.616 19.000 C 20.706 19.000,20.623 19.005,21.260 18.704 C 21.688 18.501,22.050 18.220,22.330 17.873 C 22.442 17.734,22.610 17.458,22.704 17.260 C 23.017 16.599,23.000 17.007,23.000 10.000 C 23.000 2.993,23.017 3.401,22.704 2.740 C 22.398 2.095,21.924 1.614,21.296 1.312 C 20.634 0.993,21.532 1.022,12.120 1.015 C 7.489 1.012,3.611 1.024,3.503 1.042 M20.340 3.066 C 20.455 3.105,20.603 3.201,20.701 3.299 C 21.023 3.621,21.000 3.097,21.000 10.000 C 21.000 16.903,21.023 16.379,20.701 16.701 C 20.376 17.026,21.144 17.000,11.998 17.000 C 3.106 17.000,3.684 17.015,3.374 16.778 C 3.301 16.723,3.192 16.592,3.131 16.489 L 3.020 16.300 3.020 10.000 L 3.020 3.700 3.131 3.511 C 3.256 3.298,3.449 3.136,3.670 3.057 C 3.793 3.013,5.268 3.003,11.983 3.002 C 19.479 3.000,20.162 3.005,20.340 3.066 M11.664 6.063 C 11.436 6.146,11.257 6.297,11.131 6.511 L 11.020 6.700 11.008 7.850 L 10.995 9.000 9.923 9.000 C 8.764 9.000,8.642 9.018,8.374 9.222 C 8.301 9.277,8.192 9.408,8.131 9.511 C 8.036 9.672,8.020 9.744,8.020 10.000 C 8.020 10.256,8.036 10.328,8.131 10.489 C 8.192 10.592,8.301 10.723,8.374 10.778 C 8.642 10.983,8.764 11.000,9.925 11.000 L 11.000 11.000 11.000 12.070 C 11.000 12.684,11.018 13.204,11.042 13.289 C 11.103 13.509,11.315 13.762,11.531 13.874 C 11.932 14.080,12.390 14.012,12.700 13.702 C 12.979 13.423,13.000 13.309,13.000 12.073 L 13.000 11.000 14.073 11.000 C 15.308 11.000,15.423 10.979,15.701 10.701 C 16.092 10.310,16.092 9.690,15.701 9.299 C 15.423 9.021,15.308 9.000,14.073 9.000 L 13.000 9.000 13.000 7.927 C 13.000 6.692,12.979 6.577,12.701 6.299 C 12.429 6.027,12.018 5.933,11.664 6.063 " fill="#000640" stroke="none" fill-rule="evenodd"></path></svg>