<svg xmlns="http://www.w3.org/2000/svg" width="24" height="24" fill="currentColor" class="mmi mmi-monitor" viewBox="0 0 24 24"><path d="M3.503 1.042 C 2.488 1.214,1.556 1.976,1.202 2.925 C 0.994 3.481,1.001 3.233,1.001 9.992 C 1.000 16.878,0.989 16.550,1.234 17.151 C 1.521 17.857,2.143 18.479,2.849 18.766 C 3.429 19.002,3.381 19.000,7.358 19.000 L 11.000 19.000 11.000 20.000 L 11.000 21.000 8.925 21.000 C 6.676 21.000,6.663 21.001,6.374 21.222 C 6.301 21.277,6.192 21.408,6.131 21.511 C 6.036 21.672,6.020 21.744,6.020 22.000 C 6.020 22.256,6.036 22.328,6.131 22.489 C 6.192 22.592,6.301 22.723,6.374 22.778 C 6.680 23.011,6.390 23.000,11.998 23.000 C 17.783 23.000,17.381 23.021,17.701 22.701 C 18.092 22.310,18.092 21.690,17.701 21.299 C 17.400 20.998,17.419 21.000,15.073 21.000 L 13.000 21.000 13.000 20.000 L 13.000 19.000 16.642 19.000 C 20.618 19.000,20.571 19.002,21.150 18.767 C 21.850 18.482,22.482 17.850,22.767 17.150 C 23.011 16.551,23.000 16.876,23.000 10.000 C 23.000 3.123,23.011 3.449,22.766 2.849 C 22.499 2.193,21.964 1.633,21.296 1.312 C 20.634 0.993,21.532 1.022,12.120 1.015 C 7.489 1.012,3.611 1.024,3.503 1.042 M20.340 3.066 C 20.455 3.105,20.603 3.201,20.701 3.299 C 21.023 3.621,21.000 3.097,21.000 10.000 C 21.000 16.903,21.023 16.379,20.701 16.701 C 20.376 17.026,21.144 17.000,12.000 17.000 C 2.856 17.000,3.624 17.026,3.299 16.701 C 2.977 16.379,3.000 16.903,3.000 10.000 C 3.000 3.096,2.976 3.621,3.300 3.298 C 3.617 2.981,2.858 3.007,11.983 3.003 C 19.481 3.000,20.162 3.005,20.340 3.066 " fill="#000640" stroke="none" fill-rule="evenodd"></path></svg>