<svg xmlns="http://www.w3.org/2000/svg" width="24" height="24" fill="currentColor" class="mmi mmi-monorail" viewBox="0 0 24 24"><path d="M7.664 1.063 C 7.436 1.146,7.257 1.297,7.131 1.511 C 7.036 1.672,7.020 1.744,7.020 2.000 C 7.020 2.256,7.036 2.328,7.131 2.489 C 7.192 2.592,7.301 2.723,7.374 2.778 C 7.656 2.993,7.721 3.000,9.425 3.000 L 11.000 3.000 11.000 3.498 L 11.000 3.996 8.490 4.010 C 5.684 4.026,5.806 4.015,5.177 4.323 C 4.580 4.616,4.102 5.099,3.815 5.700 C 3.731 5.875,3.366 7.081,2.840 8.919 L 2.000 11.858 2.000 14.571 C 2.000 17.530,2.004 17.586,2.234 18.151 C 2.380 18.511,2.583 18.811,2.886 19.114 C 3.494 19.721,4.205 20.000,5.147 20.000 L 5.577 20.000 4.873 20.710 C 4.486 21.100,4.139 21.481,4.101 21.555 C 3.919 21.914,4.004 22.406,4.298 22.700 C 4.623 23.025,3.975 23.000,12.000 23.000 C 20.023 23.000,19.377 23.025,19.701 22.701 C 19.980 22.422,20.064 22.045,19.934 21.657 C 19.878 21.490,19.757 21.348,19.146 20.730 L 18.425 20.000 18.854 20.000 C 19.345 20.000,19.761 19.925,20.150 19.767 C 20.850 19.482,21.482 18.850,21.767 18.150 C 21.996 17.586,22.000 17.529,22.000 14.571 L 22.000 11.858 21.160 8.919 C 20.256 5.753,20.191 5.569,19.800 5.090 C 19.442 4.651,18.852 4.270,18.260 4.095 C 18.044 4.032,17.766 4.023,15.510 4.010 L 13.000 3.996 13.000 3.498 L 13.000 3.000 14.573 3.000 C 16.362 3.000,16.409 2.994,16.701 2.701 C 17.092 2.310,17.092 1.690,16.701 1.299 C 16.384 0.982,16.666 1.000,11.983 1.003 C 8.474 1.005,7.795 1.015,7.664 1.063 M17.769 6.042 C 17.964 6.096,18.235 6.305,18.338 6.481 C 18.383 6.557,18.701 7.601,19.045 8.800 L 19.669 10.980 15.835 10.990 C 13.726 10.996,10.274 10.996,8.165 10.990 L 4.331 10.980 4.955 8.800 C 5.299 7.601,5.616 6.559,5.660 6.484 C 5.762 6.311,5.986 6.130,6.185 6.059 C 6.314 6.013,7.288 6.003,11.980 6.002 C 15.747 6.001,17.669 6.014,17.769 6.042 M20.000 15.073 C 20.000 17.419,20.002 17.400,19.701 17.701 C 19.377 18.025,20.023 18.000,12.000 18.000 C 3.977 18.000,4.623 18.025,4.299 17.701 C 3.998 17.400,4.000 17.419,4.000 15.073 L 4.000 13.000 12.000 13.000 L 20.000 13.000 20.000 15.073 M16.080 20.500 L 16.579 21.000 12.000 21.000 L 7.421 21.000 7.920 20.500 L 8.419 20.000 12.000 20.000 L 15.581 20.000 16.080 20.500 " fill="#000640" stroke="none" fill-rule="evenodd"></path></svg>