<svg xmlns="http://www.w3.org/2000/svg" width="24" height="24" fill="currentColor" class="mmi mmi-Moon copy" viewBox="0 0 24 24"><path d="M8.640 0.385 C 7.177 0.834,5.705 1.643,4.480 2.670 C 3.993 3.079,3.166 3.933,2.796 4.409 C 1.673 5.855,0.901 7.485,0.519 9.220 C 0.302 10.204,0.262 10.602,0.262 11.800 C 0.262 12.975,0.301 13.376,0.504 14.320 C 1.264 17.857,3.618 20.894,6.843 22.496 C 8.014 23.079,9.063 23.415,10.360 23.625 C 11.142 23.751,12.492 23.796,13.267 23.722 C 16.170 23.444,18.725 22.224,20.742 20.155 C 22.069 18.793,22.936 17.387,23.522 15.646 C 23.694 15.135,23.707 15.022,23.625 14.750 C 23.549 14.497,23.396 14.313,23.150 14.177 C 22.979 14.083,22.892 14.061,22.680 14.061 C 22.451 14.061,22.367 14.086,21.980 14.266 C 20.853 14.789,19.894 15.027,18.735 15.068 C 17.997 15.095,17.404 15.044,16.730 14.895 C 13.660 14.218,11.148 11.839,10.086 8.600 C 9.746 7.564,9.591 6.548,9.588 5.340 C 9.585 4.077,9.732 3.111,10.102 1.963 C 10.367 1.139,10.336 0.837,9.948 0.495 C 9.610 0.198,9.326 0.174,8.640 0.385 M7.780 2.970 C 7.641 3.553,7.545 4.827,7.574 5.680 C 7.684 8.885,8.918 11.800,11.079 13.961 C 12.734 15.616,14.699 16.620,16.987 16.981 C 17.938 17.131,19.373 17.097,20.332 16.902 C 20.578 16.852,20.787 16.817,20.795 16.824 C 20.822 16.847,20.222 17.725,19.937 18.081 C 19.564 18.545,18.902 19.201,18.416 19.586 C 17.028 20.688,15.490 21.361,13.660 21.667 C 12.991 21.778,11.330 21.769,10.640 21.650 C 9.542 21.460,8.780 21.212,7.780 20.721 C 5.154 19.430,3.239 17.055,2.542 14.226 C 2.354 13.463,2.283 12.949,2.254 12.140 C 2.136 8.841,3.650 5.720,6.311 3.772 C 6.694 3.492,7.694 2.880,7.768 2.880 C 7.787 2.880,7.792 2.921,7.780 2.970 " fill="#000640" stroke="none" fill-rule="evenodd"></path></svg>