<svg xmlns="http://www.w3.org/2000/svg" width="24" height="24" fill="currentColor" class="mmi mmi-mooncloud" viewBox="0 0 24 24"><path d="M16.460 3.081 C 15.063 3.375,13.935 4.180,13.396 5.267 L 13.233 5.598 13.086 5.535 C 11.054 4.659,8.724 4.880,6.854 6.127 C 6.022 6.682,5.148 7.669,4.703 8.556 C 4.372 9.215,4.116 10.094,4.034 10.850 C 4.008 11.086,3.971 11.280,3.951 11.280 C 3.931 11.280,3.779 11.343,3.612 11.420 C 1.546 12.374,0.519 14.735,1.227 16.900 C 1.759 18.529,3.183 19.714,4.904 19.959 C 5.131 19.991,7.181 20.001,12.200 19.992 L 19.180 19.980 19.563 19.874 C 20.780 19.538,21.705 18.864,22.323 17.863 C 23.685 15.656,22.909 12.773,20.620 11.537 C 20.466 11.454,20.334 11.382,20.328 11.377 C 20.321 11.372,20.510 11.173,20.749 10.934 C 20.988 10.695,21.278 10.356,21.394 10.180 C 21.921 9.381,22.239 8.449,22.253 7.660 C 22.259 7.340,22.248 7.275,22.149 7.074 C 21.972 6.713,21.658 6.519,21.251 6.521 C 20.960 6.522,20.766 6.609,20.464 6.873 C 19.969 7.306,19.352 7.382,18.765 7.082 C 18.537 6.966,18.261 6.672,18.134 6.410 C 18.037 6.209,18.023 6.132,18.021 5.800 C 18.020 5.473,18.034 5.389,18.123 5.200 C 18.180 5.079,18.302 4.893,18.394 4.786 C 18.657 4.483,18.737 4.301,18.738 4.000 C 18.739 3.786,18.718 3.702,18.621 3.526 C 18.491 3.291,18.271 3.115,18.019 3.045 C 17.763 2.974,16.873 2.995,16.460 3.081 M16.050 5.890 C 16.066 6.321,16.091 6.484,16.180 6.760 C 16.376 7.367,16.646 7.812,17.074 8.229 C 17.671 8.811,18.425 9.151,19.300 9.231 L 19.611 9.260 19.309 9.546 C 18.988 9.851,18.667 10.031,18.280 10.123 C 17.994 10.190,17.450 10.191,17.110 10.124 C 16.841 10.071,16.841 10.071,16.798 9.906 C 16.536 8.886,15.988 7.868,15.308 7.138 L 15.008 6.816 15.048 6.598 C 15.128 6.155,15.392 5.755,15.775 5.498 C 15.887 5.422,15.990 5.360,16.004 5.360 C 16.018 5.360,16.039 5.599,16.050 5.890 M11.172 7.060 C 13.029 7.339,14.512 8.740,14.901 10.582 C 14.938 10.760,14.980 11.211,14.995 11.602 C 15.022 12.270,15.028 12.313,15.132 12.491 C 15.193 12.593,15.301 12.723,15.374 12.778 C 15.653 12.991,15.733 13.000,17.295 13.001 C 18.951 13.001,19.107 13.021,19.639 13.289 C 20.703 13.824,21.241 15.100,20.884 16.240 C 20.687 16.867,20.208 17.434,19.637 17.716 C 19.026 18.017,19.517 17.999,11.976 17.999 C 5.375 18.000,5.205 17.998,4.904 17.921 C 3.720 17.618,2.941 16.555,3.013 15.340 C 3.081 14.198,3.870 13.311,5.058 13.040 C 5.516 12.936,5.724 12.799,5.878 12.501 C 5.972 12.318,5.982 12.247,6.006 11.601 C 6.034 10.840,6.099 10.449,6.282 9.948 C 6.668 8.891,7.490 7.974,8.511 7.464 C 9.289 7.074,10.274 6.924,11.172 7.060 " fill="#000640" stroke="none" fill-rule="evenodd"></path></svg>