<svg xmlns="http://www.w3.org/2000/svg" width="24" height="24" fill="currentColor" class="mmi mmi-moon" viewBox="0 0 24 24"><path d="M9.119 1.894 C 8.510 2.109,7.812 2.465,7.123 2.910 C 5.017 4.274,3.459 6.380,2.763 8.805 C 2.145 10.957,2.238 13.280,3.026 15.395 C 4.033 18.098,6.200 20.325,8.884 21.416 C 12.279 22.796,16.142 22.317,19.074 20.153 C 19.677 19.708,20.440 18.991,20.933 18.407 C 21.611 17.602,22.375 16.286,22.658 15.433 C 22.906 14.686,22.706 13.896,22.135 13.361 C 21.337 12.614,20.197 12.627,19.352 13.392 C 18.447 14.211,17.534 14.676,16.379 14.905 C 15.845 15.011,14.795 15.002,14.260 14.887 C 13.033 14.624,12.135 14.141,11.277 13.283 C 10.410 12.417,9.886 11.432,9.658 10.240 C 9.557 9.715,9.557 8.685,9.658 8.160 C 9.860 7.104,10.348 6.116,11.060 5.320 C 11.405 4.934,11.536 4.731,11.648 4.404 C 11.771 4.047,11.769 3.487,11.645 3.143 C 11.418 2.514,10.890 2.023,10.260 1.854 C 9.938 1.768,9.425 1.786,9.119 1.894 M9.425 4.150 C 7.895 5.952,7.255 8.372,7.704 10.660 C 8.182 13.098,9.742 15.125,11.969 16.200 C 14.135 17.247,16.585 17.247,18.751 16.200 C 19.441 15.867,19.768 15.648,20.645 14.928 L 20.758 14.836 20.694 14.988 C 20.659 15.072,20.550 15.300,20.452 15.496 C 19.344 17.702,17.372 19.298,14.980 19.923 C 11.774 20.762,8.301 19.603,6.229 17.004 C 4.055 14.277,3.758 10.492,5.481 7.482 C 6.212 6.204,7.376 5.041,8.640 4.323 C 8.981 4.130,9.642 3.808,9.711 3.801 C 9.717 3.800,9.588 3.958,9.425 4.150 " fill="#000640" stroke="none" fill-rule="evenodd"></path></svg>