<svg xmlns="http://www.w3.org/2000/svg" width="24" height="24" fill="currentColor" class="mmi mmi-mortgage" viewBox="0 0 24 24"><path d="M11.579 0.917 C 11.000 1.010,10.714 1.144,9.732 1.783 L 9.020 2.246 8.997 1.991 C 8.956 1.526,8.717 1.195,8.325 1.061 C 8.173 1.009,7.820 1.000,6.000 1.000 C 3.573 1.000,3.601 0.997,3.299 1.299 C 2.997 1.601,3.000 1.572,3.000 4.005 L 3.000 6.155 2.547 6.455 C 1.783 6.959,1.357 7.502,1.114 8.280 L 1.020 8.580 1.020 14.520 C 1.020 21.106,1.000 20.626,1.298 21.260 C 1.606 21.918,2.079 22.391,2.740 22.704 C 3.409 23.021,2.760 23.000,12.000 23.000 C 21.240 23.000,20.591 23.021,21.260 22.704 C 21.920 22.391,22.391 21.920,22.704 21.260 C 23.019 20.596,23.003 20.959,22.991 14.377 L 22.980 8.540 22.886 8.260 C 22.706 7.725,22.490 7.367,22.121 6.999 C 21.804 6.683,21.485 6.467,17.640 3.974 C 15.363 2.497,13.407 1.242,13.294 1.185 C 12.839 0.958,12.072 0.838,11.579 0.917 M12.284 2.934 C 12.501 3.000,20.470 8.169,20.706 8.397 C 21.022 8.702,21.000 8.253,21.000 14.540 C 21.000 20.838,21.022 20.380,20.701 20.701 C 20.376 21.026,21.144 21.000,11.998 21.000 C 3.106 21.000,3.684 21.015,3.374 20.778 C 3.301 20.723,3.192 20.592,3.131 20.489 L 3.020 20.300 3.009 14.622 C 2.998 8.247,2.977 8.704,3.293 8.397 C 3.510 8.187,11.490 3.003,11.700 2.936 C 11.911 2.869,12.069 2.868,12.284 2.934 M6.992 3.286 L 6.980 3.571 6.100 4.147 C 5.616 4.463,5.170 4.749,5.110 4.782 L 5.000 4.842 5.000 3.921 L 5.000 3.000 6.002 3.000 L 7.004 3.000 6.992 3.286 M8.664 10.063 C 8.436 10.146,8.257 10.297,8.131 10.511 C 8.036 10.672,8.020 10.744,8.020 11.000 C 8.020 11.256,8.036 11.328,8.131 11.489 C 8.470 12.065,9.234 12.168,9.701 11.701 C 10.092 11.310,10.092 10.690,9.701 10.299 C 9.429 10.027,9.018 9.933,8.664 10.063 M14.578 10.099 C 14.426 10.175,13.661 10.918,11.253 13.329 C 8.218 16.369,8.125 16.466,8.063 16.677 C 7.984 16.949,7.984 17.013,8.064 17.283 C 8.153 17.581,8.419 17.847,8.717 17.936 C 8.987 18.016,9.051 18.016,9.323 17.937 C 9.534 17.875,9.631 17.782,12.671 14.747 C 15.082 12.339,15.825 11.574,15.901 11.422 C 16.024 11.176,16.034 10.819,15.925 10.578 C 15.834 10.377,15.518 10.094,15.325 10.041 C 15.070 9.970,14.793 9.992,14.578 10.099 M14.664 16.063 C 14.436 16.146,14.257 16.297,14.131 16.511 C 14.036 16.672,14.020 16.744,14.020 17.000 C 14.020 17.256,14.036 17.328,14.131 17.489 C 14.470 18.065,15.234 18.168,15.701 17.701 C 15.881 17.521,16.000 17.242,16.000 17.000 C 16.000 16.326,15.295 15.832,14.664 16.063 " fill="#000640" stroke="none" fill-rule="evenodd"></path></svg>