<svg xmlns="http://www.w3.org/2000/svg" width="24" height="24" fill="currentColor" class="mmi mmi-mountain" viewBox="0 0 24 24"><path d="M11.285 1.102 C 11.145 1.132,10.857 1.241,10.646 1.344 C 10.318 1.503,10.210 1.583,9.900 1.895 C 9.647 2.150,9.494 2.344,9.392 2.540 C 9.229 2.854,1.120 21.492,1.041 21.736 C 0.930 22.077,1.082 22.556,1.374 22.778 C 1.686 23.016,0.916 23.000,12.000 23.000 C 23.084 23.000,22.314 23.016,22.626 22.778 C 22.918 22.556,23.070 22.077,22.959 21.736 C 22.880 21.492,14.771 2.854,14.608 2.540 C 14.506 2.344,14.353 2.150,14.100 1.895 C 13.791 1.584,13.682 1.503,13.356 1.344 C 13.145 1.242,12.849 1.132,12.697 1.100 C 12.353 1.027,11.625 1.028,11.285 1.102 M12.391 3.102 C 12.575 3.179,12.784 3.374,12.880 3.561 C 12.992 3.780,16.280 11.352,16.280 11.393 C 16.280 11.422,14.967 12.702,14.413 13.213 L 14.285 13.330 13.558 11.875 C 12.757 10.272,12.689 10.173,12.313 10.062 C 12.051 9.984,11.948 9.984,11.677 10.064 C 11.473 10.124,11.393 10.195,10.339 11.244 L 9.217 12.360 8.668 11.399 L 8.119 10.439 9.583 7.071 C 10.388 5.218,11.080 3.639,11.120 3.561 C 11.214 3.379,11.422 3.180,11.600 3.104 C 11.783 3.024,12.203 3.023,12.391 3.102 M12.440 14.128 C 12.974 15.202,13.179 15.576,13.304 15.703 C 13.606 16.010,14.074 16.081,14.458 15.876 C 14.561 15.821,15.169 15.269,15.894 14.572 L 17.151 13.364 17.556 14.292 C 17.778 14.802,18.524 16.516,19.213 18.100 L 20.465 20.980 16.232 20.990 C 13.905 20.996,10.095 20.996,7.768 20.990 L 3.536 20.980 5.309 16.900 C 6.285 14.657,7.096 12.808,7.112 12.793 C 7.127 12.777,7.383 13.189,7.679 13.707 C 8.039 14.336,8.265 14.688,8.358 14.764 C 8.658 15.012,9.088 15.061,9.444 14.887 C 9.562 14.830,9.963 14.459,10.660 13.761 C 11.232 13.188,11.709 12.720,11.720 12.720 C 11.732 12.720,12.056 13.354,12.440 14.128 " fill="#000640" stroke="none" fill-rule="evenodd"></path></svg>