<svg xmlns="http://www.w3.org/2000/svg" width="24" height="24" fill="currentColor" class="mmi mmi-mountain-v2" viewBox="0 0 24 24"><path d="M9.560 2.138 C 8.927 2.274,8.486 2.512,8.039 2.959 C 7.783 3.215,7.656 3.380,7.533 3.620 C 7.365 3.948,0.158 20.404,0.056 20.691 C -0.065 21.036,0.030 21.432,0.299 21.701 C 0.627 22.029,-0.506 22.000,12.000 22.000 C 24.506 22.000,23.373 22.029,23.701 21.701 C 23.969 21.433,24.065 21.036,23.945 20.694 C 23.799 20.280,19.009 9.826,18.861 9.600 C 18.327 8.780,17.380 8.279,16.367 8.281 C 15.873 8.282,15.489 8.374,14.939 8.623 C 14.917 8.633,14.459 7.593,13.923 6.311 C 13.387 5.029,12.878 3.844,12.793 3.678 C 12.426 2.958,11.725 2.392,10.940 2.182 C 10.602 2.091,9.884 2.068,9.560 2.138 M10.473 4.138 C 10.702 4.218,10.872 4.353,10.981 4.540 C 11.059 4.673,17.480 19.932,17.480 19.983 C 17.480 19.992,14.116 20.000,10.005 20.000 L 2.530 20.000 5.667 12.830 C 7.392 8.887,8.914 5.409,9.049 5.103 C 9.184 4.797,9.348 4.485,9.413 4.411 C 9.671 4.117,10.101 4.006,10.473 4.138 M16.695 10.329 C 16.801 10.360,16.931 10.450,17.057 10.579 C 17.243 10.769,17.370 11.034,19.310 15.300 C 20.441 17.786,21.382 19.860,21.402 19.910 L 21.438 20.000 20.549 19.999 L 19.660 19.998 17.683 15.282 C 16.596 12.688,15.705 10.552,15.703 10.535 C 15.701 10.518,15.797 10.454,15.915 10.392 C 16.154 10.267,16.415 10.246,16.695 10.329 " fill="#000640" stroke="none" fill-rule="evenodd"></path></svg>