<svg xmlns="http://www.w3.org/2000/svg" width="24" height="24" fill="currentColor" class="mmi mmi-mouse" viewBox="0 0 24 24"><path d="M11.340 1.024 C 10.026 1.160,9.091 1.415,8.060 1.918 C 5.287 3.272,3.420 5.913,3.059 8.992 C 2.985 9.629,2.972 15.140,3.044 15.808 C 3.331 18.489,5.234 20.941,7.961 22.145 C 11.625 23.763,15.995 23.022,18.720 20.319 C 19.827 19.222,20.528 17.942,20.865 16.400 L 20.975 15.900 20.990 12.760 C 21.001 10.605,20.992 9.476,20.960 9.160 C 20.651 6.020,18.765 3.300,15.944 1.923 C 15.066 1.494,14.269 1.244,13.320 1.101 C 12.911 1.039,11.662 0.991,11.340 1.024 M11.000 6.540 L 11.000 10.000 7.995 10.000 L 4.989 10.000 5.017 9.610 C 5.089 8.586,5.320 7.714,5.739 6.882 C 6.535 5.301,7.858 4.100,9.503 3.464 C 9.913 3.306,10.667 3.106,10.930 3.085 C 10.996 3.080,11.000 3.269,11.000 6.540 M13.740 3.227 C 15.462 3.656,17.021 4.804,17.954 6.329 C 18.574 7.343,18.895 8.368,18.983 9.610 L 19.011 10.000 16.005 10.000 L 13.000 10.000 13.000 6.536 L 13.000 3.073 13.170 3.100 C 13.263 3.115,13.520 3.172,13.740 3.227 M18.989 13.850 C 18.975 15.414,18.961 15.746,18.903 16.000 C 18.548 17.547,17.646 18.834,16.280 19.740 C 15.390 20.331,14.418 20.706,13.260 20.907 C 12.700 21.004,11.300 21.004,10.740 20.907 C 7.793 20.396,5.648 18.528,5.092 15.986 C 5.042 15.757,5.026 15.329,5.011 13.850 L 4.994 12.000 12.000 12.000 L 19.006 12.000 18.989 13.850 " fill="#000640" stroke="none" fill-rule="evenodd"></path></svg>