<svg xmlns="http://www.w3.org/2000/svg" width="24" height="24" fill="currentColor" class="mmi mmi-mouse-v2" viewBox="0 0 24 24"><path d="M11.659 1.064 C 11.318 1.185,11.075 1.491,11.008 1.885 L 10.978 2.059 10.619 2.110 C 9.214 2.310,7.813 2.887,6.700 3.722 C 5.319 4.759,4.469 6.060,4.112 7.680 L 4.020 8.100 4.020 12.460 C 4.020 16.549,4.025 16.845,4.095 17.220 C 4.480 19.279,5.911 21.054,8.014 22.080 C 8.860 22.493,9.743 22.764,10.702 22.905 C 11.358 23.002,12.642 23.002,13.298 22.905 C 14.257 22.764,15.140 22.493,15.986 22.080 C 18.089 21.054,19.520 19.279,19.905 17.220 C 19.975 16.845,19.980 16.549,19.980 12.460 L 19.980 8.100 19.888 7.680 C 19.754 7.071,19.591 6.613,19.319 6.086 C 18.632 4.748,17.557 3.716,16.060 2.959 C 15.239 2.543,14.269 2.235,13.381 2.107 L 13.022 2.056 12.992 1.883 C 12.880 1.227,12.264 0.849,11.659 1.064 M12.937 4.060 C 15.266 4.366,17.114 5.700,17.776 7.554 C 18.000 8.180,18.000 8.188,18.000 12.500 C 18.000 15.837,17.991 16.524,17.940 16.811 C 17.665 18.393,16.425 19.786,14.660 20.500 C 12.788 21.257,10.436 21.137,8.683 20.196 C 7.285 19.445,6.296 18.169,6.060 16.811 C 5.971 16.303,5.971 8.697,6.060 8.189 C 6.383 6.333,8.020 4.768,10.207 4.222 C 11.084 4.003,12.060 3.945,12.937 4.060 M11.664 6.063 C 11.436 6.146,11.257 6.297,11.131 6.511 L 11.020 6.700 11.008 8.179 C 10.995 9.848,10.998 9.869,11.289 10.186 C 11.765 10.701,12.601 10.553,12.906 9.900 C 12.998 9.702,12.999 9.684,13.000 8.277 C 13.000 6.654,12.990 6.588,12.701 6.299 C 12.429 6.027,12.018 5.933,11.664 6.063 " fill="#000640" stroke="none" fill-rule="evenodd"></path></svg>