<svg xmlns="http://www.w3.org/2000/svg" width="24" height="24" fill="currentColor" class="mmi mmi-moveinblock" viewBox="0 0 24 24"><path d="M4.503 2.041 C 3.482 2.218,2.556 2.976,2.202 3.925 C 2.014 4.427,2.001 4.594,2.001 6.492 C 2.000 8.446,2.014 8.612,2.234 9.151 C 2.521 9.857,3.143 10.479,3.849 10.766 C 4.387 10.985,4.555 11.000,6.500 11.000 C 8.444 11.000,8.614 10.985,9.150 10.767 C 10.052 10.400,10.735 9.564,10.938 8.581 C 11.029 8.145,11.029 4.855,10.938 4.419 C 10.745 3.480,10.156 2.725,9.296 2.312 C 8.688 2.019,8.755 2.027,6.620 2.016 C 5.564 2.011,4.611 2.022,4.503 2.041 M20.800 2.037 C 20.723 2.053,20.597 2.098,20.520 2.137 C 20.443 2.176,19.169 3.416,17.690 4.894 L 15.000 7.580 15.000 5.717 C 15.000 3.605,14.999 3.597,14.701 3.299 C 14.310 2.908,13.690 2.908,13.299 3.299 C 12.987 3.610,13.000 3.456,13.000 7.000 C 13.000 10.544,12.987 10.390,13.299 10.701 C 13.610 11.013,13.456 11.000,17.000 11.000 C 20.544 11.000,20.390 11.013,20.701 10.701 C 21.092 10.310,21.092 9.690,20.701 9.299 C 20.403 9.001,20.395 9.000,18.283 9.000 L 16.421 9.000 19.107 6.310 C 21.000 4.414,21.818 3.567,21.881 3.442 C 21.987 3.229,22.001 2.854,21.910 2.637 C 21.732 2.212,21.239 1.945,20.800 2.037 M8.340 4.066 C 8.593 4.153,8.847 4.407,8.934 4.660 C 8.991 4.828,9.000 5.073,9.000 6.500 C 9.000 8.371,8.995 8.407,8.701 8.701 C 8.407 8.995,8.371 9.000,6.500 9.000 C 4.629 9.000,4.593 8.995,4.299 8.701 C 4.005 8.407,4.000 8.371,4.000 6.500 C 4.000 4.629,4.005 4.593,4.300 4.298 C 4.589 4.009,4.606 4.007,6.483 4.003 C 7.931 4.000,8.171 4.009,8.340 4.066 M4.503 13.041 C 3.548 13.207,2.717 13.847,2.298 14.740 C 2.017 15.338,2.020 15.312,2.020 17.500 C 2.020 19.688,2.017 19.662,2.298 20.260 C 2.606 20.918,3.079 21.391,3.740 21.704 C 4.326 21.981,4.501 22.000,6.500 22.000 C 8.499 22.000,8.674 21.981,9.260 21.704 C 9.920 21.391,10.391 20.920,10.704 20.260 C 10.981 19.674,11.000 19.499,11.000 17.500 C 11.000 15.501,10.981 15.326,10.704 14.740 C 10.398 14.095,9.924 13.614,9.296 13.312 C 8.688 13.019,8.755 13.027,6.620 13.016 C 5.564 13.011,4.611 13.022,4.503 13.041 M15.503 13.041 C 14.548 13.207,13.717 13.847,13.298 14.740 C 13.017 15.338,13.020 15.312,13.020 17.500 C 13.020 19.688,13.017 19.662,13.298 20.260 C 13.606 20.918,14.079 21.391,14.740 21.704 C 15.326 21.981,15.501 22.000,17.500 22.000 C 19.499 22.000,19.674 21.981,20.260 21.704 C 20.920 21.391,21.391 20.920,21.704 20.260 C 21.981 19.674,22.000 19.499,22.000 17.500 C 22.000 15.501,21.981 15.326,21.704 14.740 C 21.398 14.095,20.924 13.614,20.296 13.312 C 19.688 13.019,19.755 13.027,17.620 13.016 C 16.564 13.011,15.611 13.022,15.503 13.041 M8.340 15.066 C 8.593 15.153,8.847 15.407,8.934 15.660 C 8.991 15.828,9.000 16.073,9.000 17.500 C 9.000 19.371,8.995 19.407,8.701 19.701 C 8.407 19.995,8.371 20.000,6.498 20.000 C 4.715 20.000,4.657 19.994,4.374 19.778 C 4.301 19.723,4.192 19.592,4.131 19.489 L 4.020 19.300 4.020 17.500 L 4.020 15.700 4.131 15.511 C 4.192 15.408,4.304 15.275,4.381 15.217 C 4.655 15.008,4.694 15.004,6.483 15.002 C 7.929 15.000,8.171 15.009,8.340 15.066 M19.340 15.066 C 19.593 15.153,19.847 15.407,19.934 15.660 C 19.991 15.828,20.000 16.073,20.000 17.500 C 20.000 19.371,19.995 19.407,19.701 19.701 C 19.407 19.995,19.371 20.000,17.498 20.000 C 15.715 20.000,15.657 19.994,15.374 19.778 C 15.301 19.723,15.192 19.592,15.131 19.489 L 15.020 19.300 15.020 17.500 L 15.020 15.700 15.131 15.511 C 15.192 15.408,15.304 15.275,15.381 15.217 C 15.655 15.008,15.694 15.004,17.483 15.002 C 18.929 15.000,19.171 15.009,19.340 15.066 " fill="#000640" stroke="none" fill-rule="evenodd"></path></svg>