<svg xmlns="http://www.w3.org/2000/svg" width="24" height="24" fill="currentColor" class="mmi mmi-movie" viewBox="0 0 24 24"><path d="M17.221 0.485 C 16.899 0.531,3.282 4.181,2.989 4.299 C 2.608 4.452,2.323 4.643,2.003 4.961 C 1.432 5.527,1.122 6.257,1.121 7.043 C 1.120 7.465,1.154 7.626,1.603 9.302 L 2.000 10.785 2.000 15.487 C 2.000 20.808,1.990 20.618,2.295 21.259 C 2.698 22.106,3.411 22.693,4.320 22.924 C 4.649 23.008,19.351 23.008,19.680 22.924 C 20.612 22.687,21.394 22.023,21.759 21.160 C 21.991 20.610,21.976 20.956,21.990 15.704 C 22.003 10.381,22.016 10.663,21.760 10.352 C 21.694 10.272,21.555 10.165,21.450 10.114 L 21.260 10.020 14.987 10.000 L 8.715 9.980 14.527 8.424 C 17.724 7.568,20.448 6.835,20.580 6.795 C 21.037 6.657,21.320 6.297,21.320 5.854 C 21.320 5.574,20.534 2.597,20.356 2.206 C 19.931 1.268,19.032 0.612,17.991 0.481 C 17.622 0.435,17.559 0.435,17.221 0.485 M18.045 2.541 C 18.219 2.629,18.430 2.828,18.510 2.980 C 18.579 3.111,19.123 5.090,19.097 5.116 C 19.065 5.148,14.789 6.282,14.770 6.263 C 14.751 6.245,15.114 3.113,15.138 3.089 C 15.145 3.082,15.679 2.933,16.325 2.758 C 17.584 2.418,17.757 2.396,18.045 2.541 M13.040 3.697 C 13.040 3.860,12.670 6.824,12.647 6.844 C 12.608 6.879,8.988 7.842,8.969 7.822 C 8.952 7.805,9.320 4.670,9.342 4.646 C 9.353 4.634,12.931 3.657,13.010 3.645 C 13.027 3.642,13.040 3.665,13.040 3.697 M7.240 5.274 C 7.240 5.405,6.877 8.376,6.859 8.394 C 6.836 8.418,3.769 9.240,3.704 9.240 C 3.640 9.240,3.120 7.313,3.120 7.076 C 3.120 6.789,3.203 6.594,3.419 6.377 C 3.613 6.182,3.638 6.170,4.160 6.026 C 4.999 5.794,7.177 5.207,7.210 5.203 C 7.226 5.201,7.240 5.233,7.240 5.274 M20.000 16.073 C 20.000 20.654,20.017 20.385,19.701 20.701 C 19.377 21.025,20.023 21.000,11.998 21.000 C 4.201 21.000,4.683 21.014,4.374 20.778 C 4.301 20.723,4.192 20.592,4.131 20.489 L 4.020 20.300 4.009 16.150 L 3.999 12.000 11.999 12.000 L 20.000 12.000 20.000 16.073 M10.667 14.065 C 10.415 14.142,10.155 14.400,10.066 14.660 C 10.009 14.828,10.000 15.073,10.000 16.500 C 10.000 18.371,10.005 18.407,10.299 18.701 C 10.559 18.961,10.932 19.057,11.292 18.957 C 11.435 18.918,13.355 17.522,13.675 17.225 C 13.863 17.051,13.999 16.746,13.999 16.500 C 13.999 16.254,13.863 15.949,13.675 15.775 C 13.601 15.706,13.072 15.301,12.500 14.874 C 11.274 13.959,11.166 13.912,10.667 14.065 " fill="#000640" stroke="none" fill-rule="evenodd"></path></svg>