<svg xmlns="http://www.w3.org/2000/svg" width="24" height="24" fill="currentColor" class="mmi mmi-multiply-insquare" viewBox="0 0 24 24"><path d="M3.503 1.042 C 2.818 1.158,2.117 1.573,1.670 2.127 C 1.445 2.407,1.159 2.980,1.074 3.320 C 0.993 3.647,0.993 20.353,1.074 20.680 C 1.159 21.020,1.445 21.593,1.670 21.873 C 1.950 22.220,2.312 22.501,2.740 22.704 C 3.409 23.021,2.760 23.000,12.000 23.000 C 21.240 23.000,20.591 23.021,21.260 22.704 C 21.920 22.391,22.391 21.920,22.704 21.260 C 23.021 20.591,23.000 21.240,23.000 12.000 C 23.000 2.760,23.021 3.409,22.704 2.740 C 22.398 2.095,21.924 1.614,21.296 1.312 C 20.634 0.993,21.532 1.022,12.120 1.015 C 7.489 1.012,3.611 1.024,3.503 1.042 M20.340 3.066 C 20.593 3.153,20.847 3.407,20.934 3.660 C 20.995 3.838,21.000 4.523,21.000 12.000 C 21.000 21.144,21.026 20.376,20.701 20.701 C 20.376 21.026,21.144 21.000,11.998 21.000 C 3.106 21.000,3.684 21.015,3.374 20.778 C 3.301 20.723,3.192 20.592,3.131 20.489 L 3.020 20.300 3.020 12.000 L 3.020 3.700 3.131 3.511 C 3.256 3.298,3.449 3.136,3.670 3.057 C 3.793 3.013,5.268 3.003,11.983 3.002 C 19.479 3.000,20.162 3.005,20.340 3.066 M15.340 7.505 C 15.007 7.588,14.971 7.619,13.490 9.094 L 12.000 10.578 10.550 9.131 C 8.973 7.557,8.929 7.522,8.509 7.521 C 8.108 7.519,7.788 7.709,7.613 8.052 C 7.473 8.327,7.467 8.661,7.597 8.920 C 7.659 9.042,8.158 9.571,9.133 10.550 L 10.579 12.000 9.131 13.450 C 7.584 15.001,7.523 15.077,7.521 15.455 C 7.519 15.771,7.597 15.960,7.819 16.181 C 8.040 16.403,8.229 16.481,8.545 16.479 C 8.923 16.477,8.999 16.416,10.550 14.869 L 12.000 13.421 13.450 14.869 C 15.001 16.416,15.077 16.477,15.455 16.479 C 15.771 16.481,15.960 16.403,16.181 16.181 C 16.403 15.960,16.481 15.771,16.479 15.455 C 16.477 15.077,16.416 15.001,14.869 13.450 L 13.422 12.000 14.908 10.510 C 16.367 9.046,16.394 9.016,16.461 8.784 C 16.599 8.304,16.395 7.825,15.956 7.599 C 15.805 7.521,15.477 7.471,15.340 7.505 " fill="#000640" stroke="none" fill-rule="evenodd"></path></svg>