<svg xmlns="http://www.w3.org/2000/svg" width="24" height="24" fill="currentColor" class="mmi mmi-multiply-incircle-filled" viewBox="0 0 24 24"><path d="M11.200 0.025 C 7.677 0.288,4.535 1.992,2.410 4.793 C 1.201 6.386,0.442 8.222,0.109 10.359 C -0.013 11.143,-0.013 12.857,0.109 13.641 C 0.563 16.554,1.872 19.025,3.948 20.887 C 5.791 22.541,7.832 23.497,10.359 23.891 C 11.143 24.013,12.857 24.013,13.641 23.891 C 16.557 23.436,19.036 22.122,20.896 20.043 C 22.545 18.200,23.498 16.163,23.891 13.641 C 24.013 12.857,24.013 11.143,23.891 10.359 C 23.557 8.220,22.799 6.386,21.588 4.790 C 19.607 2.179,16.767 0.532,13.500 0.099 C 13.032 0.037,11.640 -0.007,11.200 0.025 M8.460 7.129 C 8.560 7.179,9.250 7.836,10.310 8.894 L 12.000 10.579 13.690 8.893 C 14.854 7.732,15.436 7.180,15.558 7.119 C 16.052 6.873,16.693 7.119,16.910 7.637 C 17.001 7.854,16.987 8.229,16.881 8.442 C 16.820 8.564,16.261 9.152,15.107 10.310 L 13.421 12.000 15.107 13.690 C 16.261 14.848,16.820 15.436,16.881 15.558 C 17.144 16.085,16.844 16.769,16.275 16.938 C 16.013 17.016,15.947 17.015,15.677 16.936 C 15.469 16.876,15.386 16.799,13.730 15.147 L 12.000 13.422 10.290 15.129 C 8.426 16.990,8.416 16.998,7.980 16.998 C 7.669 16.998,7.462 16.903,7.249 16.661 C 7.062 16.449,7.000 16.278,7.001 15.980 C 7.002 15.590,7.042 15.542,8.871 13.710 L 10.579 12.000 8.893 10.310 C 7.830 9.243,7.179 8.561,7.130 8.460 C 6.708 7.599,7.600 6.706,8.460 7.129 " fill="#000640" stroke="none" fill-rule="evenodd"></path></svg>