<svg xmlns="http://www.w3.org/2000/svg" width="24" height="24" fill="currentColor" class="mmi mmi-multiplecard" viewBox="0 0 24 24"><path d="M6.503 2.042 C 5.487 2.214,4.556 2.976,4.202 3.925 C 4.010 4.438,4.001 4.567,4.001 6.844 L 4.000 8.989 3.730 9.017 C 3.330 9.057,3.139 9.112,2.740 9.298 C 1.844 9.717,1.267 10.448,1.060 11.425 C 0.970 11.847,0.972 19.148,1.062 19.581 C 1.310 20.785,2.215 21.690,3.419 21.938 C 3.680 21.992,4.550 22.000,10.500 22.000 C 17.925 22.000,17.549 22.011,18.150 21.767 C 18.850 21.482,19.482 20.850,19.767 20.150 C 19.990 19.601,20.000 19.477,20.000 17.142 L 20.000 15.000 20.142 15.000 C 20.220 15.000,20.417 14.972,20.581 14.938 C 21.780 14.691,22.691 13.780,22.938 12.581 C 23.031 12.135,23.031 4.865,22.938 4.419 C 22.745 3.480,22.156 2.725,21.296 2.312 C 20.638 1.995,21.352 2.023,13.620 2.015 C 9.814 2.012,6.611 2.024,6.503 2.042 M20.340 4.066 C 20.593 4.153,20.847 4.407,20.934 4.660 C 20.983 4.805,21.000 4.999,21.000 5.427 L 21.000 6.000 13.500 6.000 L 6.000 6.000 6.000 5.427 C 6.000 4.740,6.052 4.546,6.300 4.298 C 6.615 3.983,6.033 4.007,13.483 4.003 C 19.585 4.000,20.162 4.006,20.340 4.066 M21.000 10.073 C 21.000 11.897,20.992 12.169,20.934 12.340 C 20.847 12.593,20.593 12.847,20.340 12.934 C 19.982 13.056,20.000 13.087,20.000 12.358 C 20.000 11.645,19.945 11.287,19.766 10.849 C 19.499 10.193,18.964 9.633,18.296 9.312 C 17.642 8.997,18.211 9.024,11.770 9.010 L 6.000 8.998 6.000 8.499 L 6.000 8.000 13.500 8.000 L 21.000 8.000 21.000 10.073 M17.340 11.066 C 17.593 11.153,17.847 11.407,17.934 11.660 C 17.983 11.805,18.000 11.999,18.000 12.427 L 18.000 13.000 10.500 13.000 L 3.000 13.000 3.000 12.427 C 3.000 11.740,3.052 11.546,3.300 11.298 C 3.615 10.983,3.033 11.007,10.483 11.003 C 16.585 11.000,17.162 11.006,17.340 11.066 M18.000 17.073 C 18.000 19.419,18.002 19.400,17.701 19.701 C 17.378 20.024,17.963 20.000,10.500 20.000 C 3.037 20.000,3.622 20.024,3.299 19.701 C 2.998 19.400,3.000 19.419,3.000 17.073 L 3.000 15.000 10.500 15.000 L 18.000 15.000 18.000 17.073 " fill="#000640" stroke="none" fill-rule="evenodd"></path></svg>