<svg xmlns="http://www.w3.org/2000/svg" width="24" height="24" fill="currentColor" class="mmi mmi-multiply" viewBox="0 0 24 24"><path d="M6.098 5.612 C 5.604 5.849,5.383 6.432,5.603 6.920 C 5.665 7.058,6.258 7.675,8.131 9.550 L 10.579 12.000 8.093 14.490 C 5.614 16.972,5.606 16.981,5.538 17.216 C 5.427 17.604,5.521 17.957,5.806 18.226 C 6.092 18.494,6.406 18.570,6.784 18.462 C 7.019 18.394,7.028 18.386,9.510 15.907 L 12.000 13.421 14.450 15.869 C 17.068 18.484,17.060 18.477,17.455 18.479 C 17.771 18.481,17.960 18.403,18.181 18.181 C 18.403 17.960,18.481 17.771,18.479 17.455 C 18.477 17.060,18.484 17.068,15.869 14.450 L 13.421 12.000 15.869 9.550 C 17.742 7.675,18.335 7.058,18.397 6.920 C 18.622 6.421,18.383 5.820,17.873 5.601 C 17.627 5.495,17.269 5.503,17.038 5.619 C 16.962 5.657,15.798 6.789,14.450 8.134 L 12.000 10.579 9.550 8.134 C 8.203 6.789,7.037 5.657,6.960 5.618 C 6.883 5.579,6.703 5.541,6.560 5.532 C 6.346 5.519,6.264 5.533,6.098 5.612 " fill="#000640" stroke="none" fill-rule="evenodd"></path></svg>