<svg xmlns="http://www.w3.org/2000/svg" width="24" height="24" fill="currentColor" class="mmi mmi-musicnote" viewBox="0 0 24 24"><path d="M12.664 2.060 C 12.433 2.149,12.256 2.299,12.131 2.511 L 12.020 2.700 12.009 7.851 L 11.999 13.002 11.769 12.846 C 10.353 11.886,8.439 11.740,6.896 12.476 C 5.464 13.160,4.517 14.322,4.131 15.869 C 4.037 16.247,4.024 16.381,4.022 16.960 C 4.021 17.369,4.041 17.726,4.075 17.900 C 4.205 18.556,4.488 19.239,4.868 19.815 C 5.097 20.160,5.763 20.839,6.120 21.090 C 6.649 21.461,7.346 21.757,8.054 21.910 C 8.510 22.008,9.494 22.007,9.960 21.907 C 11.926 21.486,13.348 20.120,13.869 18.152 L 13.979 17.740 13.990 10.865 L 14.002 3.989 14.311 4.016 C 15.262 4.100,16.161 4.516,16.823 5.177 C 17.165 5.519,17.392 5.848,17.624 6.337 C 17.837 6.786,17.946 7.232,17.995 7.849 C 18.026 8.243,18.049 8.348,18.137 8.498 C 18.469 9.065,19.238 9.164,19.702 8.700 C 19.953 8.449,20.017 8.215,19.987 7.662 C 19.837 4.898,17.800 2.606,15.041 2.094 C 14.543 2.002,12.878 1.978,12.664 2.060 M9.756 14.097 C 10.093 14.189,10.595 14.447,10.873 14.671 C 11.554 15.219,12.000 16.140,12.000 17.000 C 12.000 18.170,11.225 19.329,10.151 19.766 C 8.642 20.380,6.989 19.734,6.298 18.260 C 6.072 17.779,6.021 17.546,6.021 17.000 C 6.021 16.454,6.072 16.221,6.298 15.740 C 6.716 14.848,7.537 14.215,8.503 14.040 C 8.770 13.991,9.491 14.024,9.756 14.097 " fill="#000640" stroke="none" fill-rule="evenodd"></path></svg>