<svg xmlns="http://www.w3.org/2000/svg" width="24" height="24" fill="currentColor" class="mmi mmi-musicalnotes-twoeight-up" viewBox="0 0 24 24"><path d="M17.384 1.685 C 17.298 1.705,15.606 2.163,13.624 2.703 C 10.512 3.550,9.970 3.709,9.650 3.866 C 9.018 4.176,8.482 4.758,8.222 5.414 C 7.996 5.987,8.001 5.873,8.001 10.370 C 8.000 12.652,7.986 14.520,7.969 14.520 C 7.952 14.520,7.902 14.496,7.859 14.467 C 7.710 14.365,7.179 14.168,6.860 14.095 C 6.419 13.994,5.579 13.994,5.140 14.095 C 3.340 14.512,2.106 15.990,2.013 17.840 C 1.905 19.999,3.596 21.859,5.783 21.988 C 7.676 22.099,9.358 20.858,9.884 18.960 L 9.979 18.620 9.991 14.191 L 10.002 9.762 10.171 9.717 C 10.264 9.693,12.281 9.143,14.653 8.496 C 17.025 7.849,18.973 7.320,18.983 7.320 C 18.992 7.320,19.000 8.490,19.000 9.920 C 19.000 11.350,18.986 12.520,18.969 12.520 C 18.952 12.520,18.902 12.496,18.859 12.467 C 18.710 12.365,18.179 12.168,17.860 12.095 C 17.422 11.994,16.580 11.994,16.140 12.094 C 14.962 12.362,13.915 13.191,13.402 14.260 C 12.302 16.551,13.568 19.243,16.044 19.877 C 17.255 20.188,18.611 19.866,19.594 19.036 C 20.214 18.512,20.643 17.822,20.885 16.956 L 20.979 16.620 20.991 10.472 C 21.003 3.805,21.011 4.075,20.787 3.522 C 20.414 2.599,19.634 1.927,18.670 1.700 C 18.393 1.635,17.635 1.626,17.384 1.685 M18.374 3.695 C 18.563 3.774,18.791 3.986,18.891 4.176 C 18.959 4.308,18.980 4.429,18.992 4.787 L 19.008 5.235 18.834 5.281 C 18.738 5.307,16.719 5.857,14.347 6.504 C 11.975 7.151,10.025 7.680,10.014 7.680 C 10.003 7.680,10.000 7.361,10.007 6.970 C 10.019 6.336,10.030 6.243,10.106 6.099 C 10.209 5.907,10.374 5.736,10.539 5.650 C 10.606 5.615,12.253 5.150,14.200 4.617 C 17.921 3.597,18.065 3.566,18.374 3.695 M17.383 14.043 C 18.185 14.190,18.839 14.872,18.967 15.695 C 19.153 16.894,18.209 18.000,17.000 18.000 C 16.032 18.000,15.183 17.268,15.033 16.305 C 14.933 15.663,15.132 15.061,15.596 14.596 C 16.085 14.108,16.698 13.918,17.383 14.043 M6.383 16.043 C 7.185 16.190,7.839 16.872,7.967 17.695 C 8.153 18.894,7.209 20.000,6.000 20.000 C 5.032 20.000,4.183 19.268,4.033 18.305 C 3.933 17.663,4.132 17.061,4.596 16.596 C 5.085 16.108,5.698 15.918,6.383 16.043 " fill="#000640" stroke="none" fill-rule="evenodd"></path></svg>