<svg xmlns="http://www.w3.org/2000/svg" width="24" height="24" fill="currentColor" class="mmi mmi-music-sign" viewBox="0 0 24 24"><path d="M11.200 0.025 C 7.091 0.332,3.508 2.609,1.507 6.186 C 0.775 7.494,0.317 8.899,0.094 10.520 C -0.002 11.214,-0.002 12.786,0.094 13.480 C 0.317 15.101,0.775 16.506,1.507 17.814 C 4.173 22.579,9.604 24.939,14.910 23.637 C 19.156 22.595,22.595 19.156,23.637 14.910 C 24.599 10.992,23.592 6.970,20.896 3.958 C 19.003 1.843,16.397 0.483,13.500 0.099 C 13.032 0.037,11.640 -0.007,11.200 0.025 M12.920 2.043 C 14.827 2.219,16.631 2.940,18.200 4.155 C 18.637 4.493,19.507 5.363,19.845 5.800 C 21.878 8.427,22.517 11.768,21.578 14.865 C 21.082 16.499,20.272 17.850,19.061 19.061 C 18.287 19.836,17.547 20.383,16.623 20.863 C 13.714 22.376,10.286 22.376,7.377 20.863 C 6.454 20.383,5.715 19.837,4.938 19.061 C 3.951 18.075,3.213 16.964,2.722 15.728 C 1.390 12.368,1.921 8.686,4.153 5.800 C 4.491 5.363,5.363 4.491,5.800 4.153 C 7.114 3.137,8.541 2.486,10.125 2.181 C 11.037 2.006,12.003 1.958,12.920 2.043 M12.643 5.069 C 12.546 5.103,12.392 5.206,12.300 5.298 C 11.990 5.608,12.000 5.492,12.000 8.687 C 12.000 10.245,11.986 11.520,11.969 11.520 C 11.952 11.520,11.902 11.496,11.859 11.467 C 11.710 11.365,11.179 11.168,10.860 11.095 C 10.422 10.994,9.580 10.994,9.140 11.094 C 8.435 11.255,7.679 11.671,7.177 12.176 C 5.623 13.738,5.623 16.254,7.177 17.821 C 7.507 18.154,7.834 18.383,8.292 18.603 C 10.059 19.450,12.213 18.860,13.317 17.227 C 13.514 16.936,13.781 16.341,13.885 15.960 L 13.978 15.620 13.991 11.305 L 14.003 6.989 14.257 7.015 C 14.839 7.075,15.317 7.311,15.761 7.757 C 16.227 8.225,16.410 8.631,16.499 9.393 C 16.562 9.937,16.669 10.148,16.978 10.339 C 17.154 10.448,17.207 10.460,17.500 10.460 C 17.793 10.460,17.846 10.448,18.022 10.339 C 18.144 10.264,18.264 10.144,18.339 10.022 C 18.459 9.827,18.460 9.820,18.456 9.283 C 18.453 8.836,18.434 8.672,18.350 8.355 C 17.881 6.593,16.374 5.276,14.560 5.041 C 14.068 4.978,12.852 4.995,12.643 5.069 M10.408 13.044 C 11.310 13.232,12.000 14.080,12.000 15.000 C 12.000 16.080,11.080 17.000,10.000 17.000 C 8.920 17.000,8.000 16.080,8.000 15.000 C 8.000 14.102,8.657 13.269,9.534 13.057 C 9.797 12.993,10.138 12.988,10.408 13.044 " stroke="none" fill-rule="evenodd"></path></svg>