<svg xmlns="http://www.w3.org/2000/svg" width="24" height="24" fill="currentColor" class="mmi mmi-musicalnotes-twhoeight-flat" viewBox="0 0 24 24"><path d="M10.503 2.042 C 9.485 2.215,8.556 2.976,8.202 3.925 C 7.997 4.474,8.001 4.346,8.001 9.610 C 8.000 12.311,7.986 14.520,7.969 14.520 C 7.952 14.520,7.902 14.496,7.859 14.467 C 7.710 14.365,7.179 14.168,6.860 14.095 C 6.422 13.994,5.580 13.994,5.140 14.094 C 3.962 14.362,2.915 15.191,2.402 16.260 C 1.302 18.551,2.568 21.243,5.044 21.877 C 6.255 22.188,7.611 21.866,8.594 21.036 C 9.214 20.512,9.643 19.821,9.885 18.956 L 9.979 18.620 9.991 13.310 L 10.002 8.000 14.501 8.000 L 19.000 8.000 19.000 11.260 C 19.000 13.053,18.986 14.520,18.969 14.520 C 18.952 14.520,18.902 14.496,18.859 14.467 C 18.710 14.365,18.179 14.168,17.860 14.095 C 17.422 13.994,16.580 13.994,16.140 14.094 C 14.962 14.362,13.915 15.191,13.402 16.260 C 12.302 18.551,13.568 21.243,16.044 21.877 C 17.255 22.188,18.611 21.866,19.594 21.036 C 20.214 20.512,20.643 19.822,20.885 18.956 L 20.980 18.620 20.991 11.680 C 21.003 4.067,21.015 4.459,20.767 3.851 C 20.499 3.192,19.965 2.633,19.296 2.312 C 18.653 2.003,18.991 2.024,14.620 2.016 C 12.464 2.011,10.611 2.023,10.503 2.042 M18.340 4.066 C 18.593 4.153,18.847 4.407,18.934 4.660 C 18.983 4.805,19.000 4.999,19.000 5.427 L 19.000 6.000 14.500 6.000 L 10.000 6.000 10.000 5.427 C 10.000 4.740,10.052 4.546,10.300 4.298 C 10.607 3.991,10.380 4.007,14.483 4.003 C 17.793 4.000,18.164 4.006,18.340 4.066 M6.383 16.043 C 7.185 16.190,7.839 16.872,7.967 17.695 C 8.153 18.894,7.209 20.000,6.000 20.000 C 5.032 20.000,4.183 19.268,4.033 18.305 C 3.933 17.663,4.132 17.061,4.596 16.596 C 5.085 16.108,5.698 15.918,6.383 16.043 M17.383 16.043 C 18.185 16.190,18.839 16.872,18.967 17.695 C 19.153 18.894,18.209 20.000,17.000 20.000 C 16.032 20.000,15.183 19.268,15.033 18.305 C 14.933 17.663,15.132 17.061,15.596 16.596 C 16.085 16.108,16.698 15.918,17.383 16.043 " fill="#000640" stroke="none" fill-rule="evenodd"></path></svg>