<svg xmlns="http://www.w3.org/2000/svg" width="24" height="24" fill="currentColor" class="mmi mmi-musicalnote-double" viewBox="0 0 24 24"><path d="M8.664 2.063 C 8.436 2.146,8.257 2.297,8.131 2.511 L 8.020 2.700 8.009 6.110 C 8.003 7.986,7.985 9.520,7.968 9.520 C 7.951 9.520,7.902 9.496,7.859 9.467 C 7.710 9.365,7.179 9.168,6.860 9.095 C 6.422 8.994,5.580 8.994,5.140 9.094 C 3.962 9.362,2.915 10.191,2.402 11.260 C 1.302 13.551,2.568 16.243,5.044 16.877 C 6.255 17.188,7.611 16.866,8.594 16.036 C 9.215 15.512,9.644 14.821,9.885 13.956 L 9.979 13.620 9.991 8.805 L 10.002 3.990 10.251 4.017 C 10.592 4.055,11.098 4.234,11.369 4.415 C 11.819 4.713,12.204 5.219,12.378 5.738 C 12.415 5.847,12.461 6.122,12.481 6.350 C 12.510 6.682,12.539 6.804,12.628 6.967 C 12.810 7.303,13.127 7.494,13.500 7.494 C 13.976 7.494,14.376 7.161,14.486 6.675 C 14.535 6.453,14.463 5.789,14.339 5.323 C 13.873 3.583,12.367 2.275,10.560 2.041 C 10.088 1.980,8.851 1.994,8.664 2.063 M16.664 7.063 C 16.436 7.146,16.257 7.297,16.131 7.511 L 16.020 7.700 16.009 11.110 C 16.003 12.986,15.985 14.520,15.968 14.520 C 15.951 14.520,15.902 14.496,15.859 14.467 C 15.710 14.365,15.179 14.168,14.860 14.095 C 14.422 13.994,13.580 13.994,13.140 14.094 C 11.962 14.362,10.915 15.191,10.402 16.260 C 9.302 18.551,10.568 21.243,13.044 21.877 C 14.255 22.188,15.611 21.866,16.594 21.036 C 17.215 20.512,17.644 19.821,17.885 18.956 L 17.979 18.620 17.991 13.805 L 18.002 8.990 18.251 9.017 C 18.592 9.055,19.098 9.234,19.369 9.415 C 19.819 9.713,20.204 10.219,20.378 10.738 C 20.415 10.847,20.461 11.122,20.481 11.350 C 20.510 11.682,20.539 11.804,20.628 11.967 C 20.810 12.303,21.127 12.494,21.500 12.494 C 21.976 12.494,22.376 12.161,22.486 11.675 C 22.535 11.453,22.463 10.789,22.339 10.323 C 21.873 8.583,20.367 7.275,18.560 7.041 C 18.088 6.980,16.851 6.994,16.664 7.063 M6.383 11.043 C 7.185 11.190,7.839 11.872,7.967 12.695 C 8.153 13.894,7.209 15.000,6.000 15.000 C 5.032 15.000,4.183 14.268,4.033 13.305 C 3.933 12.663,4.132 12.061,4.596 11.596 C 5.085 11.108,5.698 10.918,6.383 11.043 M14.383 16.043 C 15.185 16.190,15.839 16.872,15.967 17.695 C 16.153 18.894,15.209 20.000,14.000 20.000 C 13.032 20.000,12.183 19.268,12.033 18.305 C 11.933 17.663,12.132 17.061,12.596 16.596 C 13.085 16.108,13.698 15.918,14.383 16.043 " fill="#000640" stroke="none" fill-rule="evenodd"></path></svg>