<svg xmlns="http://www.w3.org/2000/svg" width="24" height="24" fill="currentColor" class="mmi mmi-musicalnotes-twoeight-down" viewBox="0 0 24 24"><path d="M10.312 1.700 C 9.351 1.941,8.582 2.609,8.213 3.521 C 7.998 4.054,8.001 3.979,8.001 8.410 C 8.000 10.671,7.986 12.520,7.969 12.520 C 7.952 12.520,7.902 12.496,7.859 12.467 C 7.710 12.365,7.179 12.168,6.860 12.095 C 6.422 11.994,5.580 11.994,5.140 12.094 C 3.962 12.362,2.915 13.191,2.402 14.260 C 1.302 16.551,2.568 19.243,5.044 19.877 C 6.255 20.188,7.611 19.866,8.594 19.036 C 9.215 18.512,9.644 17.820,9.885 16.956 L 9.979 16.620 9.991 11.970 C 9.997 9.412,10.009 7.320,10.018 7.320 C 10.027 7.320,11.975 7.849,14.347 8.496 C 16.719 9.143,18.737 9.693,18.830 9.718 L 19.000 9.763 19.000 12.142 C 19.000 13.450,18.986 14.520,18.969 14.520 C 18.952 14.520,18.902 14.496,18.859 14.467 C 18.710 14.365,18.179 14.168,17.860 14.095 C 17.422 13.994,16.580 13.994,16.140 14.094 C 14.962 14.362,13.915 15.191,13.402 16.260 C 12.302 18.551,13.568 21.243,16.044 21.877 C 17.255 22.188,18.611 21.866,19.594 21.036 C 20.214 20.512,20.643 19.822,20.885 18.956 L 20.979 18.620 20.991 12.432 C 21.003 5.692,21.012 6.008,20.778 5.415 C 20.518 4.758,19.983 4.177,19.350 3.866 C 19.031 3.709,18.474 3.546,15.280 2.674 L 11.580 1.663 11.060 1.653 C 10.711 1.646,10.465 1.662,10.312 1.700 M14.734 4.600 C 16.673 5.128,18.326 5.590,18.407 5.625 C 18.594 5.707,18.782 5.890,18.893 6.098 C 18.971 6.243,18.981 6.334,18.993 6.970 C 19.000 7.361,18.997 7.680,18.985 7.680 C 18.973 7.680,17.023 7.151,14.652 6.504 C 12.280 5.857,10.262 5.307,10.166 5.281 L 9.992 5.235 10.008 4.787 C 10.020 4.429,10.041 4.308,10.109 4.176 C 10.206 3.991,10.434 3.777,10.617 3.697 C 10.915 3.567,11.038 3.594,14.734 4.600 M6.383 14.043 C 7.185 14.190,7.839 14.872,7.967 15.695 C 8.153 16.894,7.209 18.000,6.000 18.000 C 5.032 18.000,4.183 17.268,4.033 16.305 C 3.933 15.663,4.132 15.061,4.596 14.596 C 5.085 14.108,5.698 13.918,6.383 14.043 M17.383 16.043 C 18.185 16.190,18.839 16.872,18.967 17.695 C 19.153 18.894,18.209 20.000,17.000 20.000 C 16.032 20.000,15.183 19.268,15.033 18.305 C 14.933 17.663,15.132 17.061,15.596 16.596 C 16.085 16.108,16.698 15.918,17.383 16.043 " fill="#000640" stroke="none" fill-rule="evenodd"></path></svg>