<svg xmlns="http://www.w3.org/2000/svg" width="24" height="24" fill="currentColor" class="mmi mmi-navigatonpointer-v2" viewBox="0 0 24 24"><path d="M11.664 1.061 C 11.456 1.140,11.266 1.288,11.167 1.449 C 11.045 1.647,4.031 21.712,4.010 21.926 C 3.940 22.609,4.658 23.173,5.307 22.944 C 5.394 22.914,6.935 22.049,8.732 21.022 L 12.000 19.154 15.268 21.022 C 17.065 22.049,18.606 22.914,18.693 22.944 C 19.353 23.178,20.068 22.603,19.986 21.905 C 19.972 21.789,18.415 17.284,16.426 11.608 C 13.627 3.618,12.866 1.485,12.771 1.368 C 12.526 1.065,12.021 0.925,11.664 1.061 M14.590 12.427 C 16.004 16.467,17.156 19.777,17.150 19.782 C 17.145 19.787,16.087 19.187,14.800 18.449 C 13.211 17.538,12.386 17.087,12.230 17.044 C 12.021 16.987,11.979 16.987,11.770 17.044 C 11.614 17.087,10.789 17.538,9.200 18.449 C 7.913 19.187,6.855 19.787,6.850 19.782 C 6.833 19.767,11.978 5.081,12.000 5.081 C 12.011 5.081,13.177 8.386,14.590 12.427 " fill="#000640" stroke="none" fill-rule="evenodd"></path></svg>