<svg xmlns="http://www.w3.org/2000/svg" width="24" height="24" fill="currentColor" class="mmi mmi-navigationcontroller" viewBox="0 0 24 24"><path d="M7.664 1.063 C 7.436 1.146,7.257 1.297,7.131 1.511 L 7.020 1.700 7.008 3.680 C 6.998 5.444,7.004 5.680,7.063 5.840 C 7.119 5.990,7.484 6.376,9.275 8.174 C 11.570 10.479,11.582 10.489,11.979 10.493 C 12.405 10.497,12.331 10.559,14.654 8.246 C 16.359 6.547,16.828 6.058,16.904 5.900 L 16.999 5.700 17.000 3.777 C 17.000 1.598,17.000 1.598,16.701 1.299 C 16.384 0.982,16.666 1.000,11.983 1.003 C 8.474 1.005,7.795 1.015,7.664 1.063 M15.000 4.050 L 15.000 5.100 13.500 6.600 L 12.000 8.100 10.500 6.600 L 9.000 5.100 9.000 4.050 L 9.000 3.000 12.000 3.000 L 15.000 3.000 15.000 4.050 M1.664 7.062 C 1.435 7.147,1.257 7.297,1.131 7.511 L 1.020 7.700 1.009 11.913 C 1.002 14.750,1.012 16.177,1.040 16.281 C 1.102 16.509,1.313 16.761,1.539 16.878 L 1.738 16.980 3.699 16.991 C 5.443 17.001,5.680 16.995,5.840 16.937 C 5.990 16.881,6.374 16.518,8.174 14.725 C 10.479 12.430,10.489 12.418,10.493 12.021 C 10.497 11.595,10.559 11.669,8.246 9.347 C 7.037 8.135,6.030 7.156,5.940 7.107 C 5.782 7.021,5.751 7.020,3.800 7.012 C 2.154 7.005,1.794 7.014,1.664 7.062 M18.240 7.037 C 18.185 7.054,18.086 7.096,18.020 7.131 C 17.954 7.166,16.934 8.163,15.754 9.347 C 13.457 11.653,13.506 11.595,13.506 12.000 C 13.506 12.405,13.457 12.347,15.754 14.654 C 17.453 16.359,17.942 16.828,18.100 16.904 L 18.300 16.999 20.223 17.000 C 22.402 17.000,22.402 17.000,22.701 16.701 C 23.018 16.384,23.000 16.663,23.000 12.000 C 23.000 7.337,23.018 7.616,22.701 7.299 C 22.402 7.000,22.400 7.000,20.243 7.003 C 19.196 7.005,18.295 7.021,18.240 7.037 M6.600 10.500 L 8.100 12.000 6.600 13.500 L 5.100 15.000 4.050 15.000 L 3.000 15.000 3.000 12.000 L 3.000 9.000 4.050 9.000 L 5.100 9.000 6.600 10.500 M21.000 12.000 L 21.000 15.000 19.950 15.000 L 18.900 15.000 17.400 13.500 L 15.900 12.000 17.400 10.500 L 18.900 9.000 19.950 9.000 L 21.000 9.000 21.000 12.000 M11.600 13.583 C 11.511 13.621,10.672 14.431,9.311 15.790 C 7.556 17.543,7.148 17.971,7.080 18.129 C 6.999 18.316,6.997 18.374,7.009 20.311 L 7.020 22.300 7.131 22.489 C 7.192 22.592,7.301 22.723,7.374 22.778 C 7.677 23.009,7.484 23.000,11.998 23.000 C 16.663 23.000,16.384 23.018,16.701 22.701 C 17.000 22.402,17.000 22.402,17.000 20.223 L 16.999 18.300 16.904 18.100 C 16.828 17.942,16.361 17.454,14.674 15.772 C 13.205 14.307,12.494 13.624,12.391 13.582 C 12.203 13.504,11.783 13.505,11.600 13.583 M13.510 17.410 L 15.000 18.900 15.000 19.950 L 15.000 21.000 12.000 21.000 L 9.000 21.000 9.000 19.950 L 9.000 18.900 10.490 17.410 C 11.309 16.591,11.989 15.920,12.000 15.920 C 12.011 15.920,12.690 16.590,13.510 17.410 " fill="#000640" stroke="none" fill-rule="evenodd"></path></svg>