<svg xmlns="http://www.w3.org/2000/svg" width="24" height="24" fill="currentColor" class="mmi mmi-navigatonpointer" viewBox="0 0 24 24"><path d="M21.700 1.057 C 21.612 1.085,17.013 3.372,11.480 6.138 C 3.241 10.258,1.394 11.197,1.275 11.321 C 1.115 11.488,1.000 11.774,1.000 12.002 C 1.000 12.321,1.197 12.677,1.463 12.842 C 1.560 12.902,2.839 13.239,5.391 13.878 L 9.176 14.824 10.122 18.609 C 10.761 21.161,11.098 22.440,11.158 22.537 C 11.323 22.803,11.679 23.000,11.998 23.000 C 12.243 23.000,12.521 22.881,12.697 22.702 C 12.831 22.565,13.760 20.734,17.915 12.418 C 22.178 3.884,22.973 2.267,22.990 2.094 C 23.058 1.387,22.377 0.840,21.700 1.057 M19.720 4.300 C 19.720 4.339,12.340 19.080,12.320 19.080 C 12.309 19.080,11.991 17.846,11.614 16.338 C 11.079 14.198,10.905 13.561,10.824 13.438 C 10.616 13.125,10.615 13.125,7.662 12.386 C 6.154 12.009,4.920 11.691,4.920 11.680 C 4.920 11.658,19.640 4.286,19.690 4.282 C 19.707 4.281,19.720 4.289,19.720 4.300 " fill="#000640" stroke="none" fill-rule="evenodd"></path></svg>