<svg xmlns="http://www.w3.org/2000/svg" width="24" height="24" fill="currentColor" class="mmi mmi-newspaper" viewBox="0 0 24 24"><path d="M7.503 1.042 C 6.571 1.200,5.727 1.840,5.312 2.704 C 5.004 3.344,5.025 3.030,5.010 7.225 L 4.997 10.991 4.229 11.011 C 3.373 11.034,3.217 11.065,2.704 11.312 C 2.075 11.614,1.599 12.097,1.298 12.740 C 1.007 13.361,1.020 13.156,1.020 17.000 C 1.020 20.844,1.007 20.639,1.298 21.260 C 1.606 21.918,2.079 22.391,2.740 22.704 C 3.409 23.021,2.760 23.000,12.000 23.000 C 21.240 23.000,20.591 23.021,21.260 22.704 C 21.920 22.391,22.391 21.920,22.704 21.260 C 23.021 20.591,23.000 21.240,23.000 12.000 C 23.000 2.760,23.021 3.409,22.704 2.740 C 22.398 2.095,21.924 1.614,21.296 1.312 C 20.639 0.996,21.291 1.023,14.120 1.015 C 10.589 1.012,7.611 1.024,7.503 1.042 M20.340 3.066 C 20.593 3.153,20.847 3.407,20.934 3.660 C 20.995 3.838,21.000 4.523,21.000 12.000 C 21.000 21.144,21.026 20.376,20.701 20.701 C 20.378 21.024,20.964 21.000,13.493 21.000 C 9.834 21.000,6.840 20.987,6.840 20.970 C 6.841 20.953,6.872 20.850,6.910 20.740 C 6.975 20.553,6.981 19.985,7.000 12.120 L 7.020 3.700 7.131 3.511 C 7.256 3.298,7.449 3.136,7.670 3.057 C 7.793 3.013,8.939 3.003,13.983 3.002 C 19.617 3.000,20.162 3.006,20.340 3.066 M9.643 5.069 C 9.546 5.103,9.392 5.206,9.300 5.298 C 8.997 5.601,9.000 5.572,9.000 8.000 C 9.000 10.427,8.997 10.399,9.299 10.701 C 9.616 11.018,9.337 11.000,14.000 11.000 C 18.663 11.000,18.384 11.018,18.701 10.701 C 19.003 10.399,19.000 10.427,19.000 8.000 C 19.000 5.573,19.003 5.601,18.701 5.299 C 18.384 4.982,18.666 5.000,13.983 5.003 C 10.320 5.006,9.799 5.014,9.643 5.069 M17.000 8.000 L 17.000 9.000 14.000 9.000 L 11.000 9.000 11.000 8.000 L 11.000 7.000 14.000 7.000 L 17.000 7.000 17.000 8.000 M5.000 16.573 C 5.000 20.596,5.015 20.387,4.700 20.702 C 4.390 21.012,3.932 21.080,3.531 20.874 C 3.312 20.761,3.101 20.506,3.040 20.281 C 3.012 20.176,3.002 19.065,3.009 16.912 L 3.020 13.700 3.131 13.511 C 3.256 13.298,3.449 13.136,3.670 13.057 C 3.768 13.022,4.023 13.003,4.410 13.002 L 5.000 13.000 5.000 16.573 M9.664 13.063 C 9.436 13.146,9.257 13.297,9.131 13.511 C 9.036 13.672,9.020 13.744,9.020 14.000 C 9.020 14.256,9.036 14.328,9.131 14.489 C 9.192 14.592,9.301 14.723,9.374 14.778 C 9.677 15.009,9.484 15.000,13.998 15.000 C 18.663 15.000,18.384 15.018,18.701 14.701 C 19.092 14.310,19.092 13.690,18.701 13.299 C 18.384 12.982,18.666 13.000,13.983 13.003 C 10.474 13.005,9.795 13.015,9.664 13.063 M9.664 17.063 C 9.436 17.146,9.257 17.297,9.131 17.511 C 9.036 17.672,9.020 17.744,9.020 18.000 C 9.020 18.256,9.036 18.328,9.131 18.489 C 9.192 18.592,9.301 18.723,9.374 18.778 C 9.657 18.994,9.715 19.000,11.498 19.000 C 13.371 19.000,13.407 18.995,13.701 18.701 C 14.092 18.310,14.092 17.690,13.701 17.299 C 13.406 17.004,13.373 17.000,11.483 17.003 C 10.145 17.005,9.789 17.017,9.664 17.063 " fill="#000640" stroke="none" fill-rule="evenodd"></path></svg>