<svg xmlns="http://www.w3.org/2000/svg" width="24" height="24" fill="currentColor" class="mmi mmi-nightcloud" viewBox="0 0 24 24"><path d="M14.643 3.069 C 14.291 3.193,14.000 3.614,14.000 4.000 C 14.000 4.242,14.119 4.521,14.299 4.701 C 14.690 5.092,15.310 5.092,15.701 4.701 C 16.454 3.948,15.653 2.712,14.643 3.069 M19.664 3.063 C 19.436 3.146,19.257 3.297,19.131 3.511 C 19.024 3.693,19.020 3.723,19.007 4.350 L 18.993 5.000 18.422 5.000 C 17.631 5.000,17.371 5.103,17.131 5.511 C 17.036 5.672,17.020 5.744,17.020 6.000 C 17.020 6.256,17.036 6.328,17.131 6.489 C 17.371 6.898,17.631 7.000,18.425 7.000 L 19.000 7.000 19.000 7.570 C 19.000 8.219,19.031 8.370,19.212 8.607 C 19.570 9.076,20.281 9.121,20.700 8.702 C 20.949 8.454,21.000 8.260,21.000 7.573 L 21.000 7.000 21.573 7.000 C 22.259 7.000,22.454 6.948,22.701 6.701 C 22.881 6.521,23.000 6.242,23.000 6.000 C 23.000 5.758,22.881 5.479,22.701 5.299 C 22.454 5.052,22.259 5.000,21.573 5.000 L 21.000 5.000 21.000 4.427 C 21.000 3.741,20.948 3.546,20.701 3.299 C 20.429 3.027,20.018 2.933,19.664 3.063 M9.814 5.041 C 8.326 5.198,6.998 5.837,5.918 6.918 C 4.817 8.019,4.200 9.315,4.039 10.867 C 4.017 11.080,3.995 11.257,3.990 11.259 C 3.984 11.262,3.860 11.314,3.713 11.375 C 2.436 11.906,1.435 13.119,1.112 14.528 C 0.992 15.052,0.992 15.947,1.111 16.468 C 1.318 17.369,1.732 18.096,2.409 18.744 C 3.103 19.410,3.891 19.799,4.828 19.940 C 5.415 20.029,18.585 20.029,19.172 19.940 C 20.130 19.796,20.988 19.362,21.675 18.675 C 22.362 17.988,22.796 17.130,22.940 16.172 C 23.015 15.676,23.015 15.324,22.940 14.828 C 22.796 13.870,22.362 13.012,21.675 12.325 C 20.988 11.638,20.130 11.204,19.172 11.060 C 18.915 11.021,18.469 11.000,17.876 11.000 L 16.971 11.000 16.944 10.696 C 16.886 10.059,16.578 9.086,16.230 8.440 C 15.588 7.248,14.515 6.222,13.304 5.642 C 12.236 5.130,10.996 4.916,9.814 5.041 M11.243 7.065 C 12.175 7.225,13.007 7.655,13.676 8.324 C 14.560 9.208,15.000 10.310,15.000 11.640 C 15.000 12.253,15.058 12.460,15.299 12.701 C 15.589 12.991,15.649 13.000,17.321 13.000 C 18.649 13.000,18.816 13.007,19.096 13.079 C 20.411 13.415,21.216 14.699,20.940 16.020 C 20.789 16.741,20.287 17.395,19.638 17.715 C 19.025 18.017,19.518 17.999,11.976 17.999 C 5.375 18.000,5.205 17.998,4.904 17.921 C 4.075 17.709,3.444 17.138,3.136 16.320 C 3.034 16.047,3.023 15.973,3.023 15.500 C 3.023 15.013,3.031 14.959,3.149 14.648 C 3.464 13.823,4.088 13.282,4.982 13.060 C 5.431 12.949,5.667 12.821,5.809 12.613 C 5.962 12.388,6.000 12.197,6.000 11.637 C 6.000 10.309,6.441 9.207,7.324 8.324 C 8.357 7.291,9.821 6.821,11.243 7.065 " fill="#000640" stroke="none" fill-rule="evenodd"></path></svg>