<svg xmlns="http://www.w3.org/2000/svg" width="24" height="24" fill="currentColor" class="mmi mmi-nine" viewBox="0 0 24 24"><path d="M11.200 0.025 C 7.091 0.332,3.508 2.609,1.507 6.186 C 0.775 7.494,0.317 8.899,0.094 10.520 C -0.002 11.214,-0.002 12.786,0.094 13.480 C 0.317 15.101,0.775 16.506,1.507 17.814 C 4.173 22.579,9.604 24.939,14.910 23.637 C 19.156 22.595,22.595 19.156,23.637 14.910 C 24.599 10.992,23.592 6.970,20.896 3.958 C 19.003 1.843,16.397 0.483,13.500 0.099 C 13.032 0.037,11.640 -0.007,11.200 0.025 M12.920 2.043 C 14.827 2.219,16.631 2.940,18.200 4.155 C 18.637 4.493,19.507 5.363,19.845 5.800 C 21.878 8.427,22.517 11.768,21.578 14.865 C 21.082 16.499,20.272 17.850,19.061 19.061 C 18.287 19.836,17.547 20.383,16.623 20.863 C 13.714 22.376,10.286 22.376,7.377 20.863 C 6.454 20.383,5.715 19.837,4.938 19.061 C 3.951 18.075,3.213 16.964,2.722 15.728 C 1.390 12.368,1.921 8.686,4.153 5.800 C 4.491 5.363,5.363 4.491,5.800 4.153 C 7.114 3.137,8.541 2.486,10.125 2.181 C 11.037 2.006,12.003 1.958,12.920 2.043 M11.104 5.584 C 9.747 5.829,8.549 6.655,7.944 7.763 C 7.372 8.811,7.372 10.189,7.944 11.237 C 8.556 12.358,9.755 13.177,11.135 13.418 C 11.590 13.497,12.410 13.497,12.865 13.418 C 13.297 13.343,13.821 13.171,14.197 12.981 C 14.352 12.904,14.489 12.840,14.503 12.840 C 14.517 12.840,14.520 13.277,14.510 13.810 C 14.495 14.661,14.482 14.808,14.410 15.004 C 13.887 16.434,11.816 16.968,10.418 16.034 C 10.036 15.778,9.837 15.544,9.623 15.100 C 9.527 14.902,9.398 14.689,9.335 14.626 C 8.729 14.020,7.719 14.397,7.650 15.255 C 7.633 15.477,7.647 15.547,7.772 15.854 C 8.311 17.175,9.592 18.149,11.148 18.420 C 11.592 18.498,12.414 18.497,12.865 18.418 C 14.690 18.100,16.107 16.821,16.423 15.206 C 16.509 14.765,16.507 9.164,16.420 8.666 C 16.129 7.000,14.870 5.853,13.035 5.583 C 12.510 5.505,11.536 5.506,11.104 5.584 M12.448 7.521 C 13.826 7.651,14.495 8.287,14.489 9.460 C 14.485 10.190,14.047 10.833,13.310 11.192 C 12.862 11.411,12.512 11.490,12.000 11.490 C 11.225 11.490,10.560 11.237,10.084 10.761 C 9.326 10.003,9.317 9.016,10.061 8.260 C 10.523 7.792,11.088 7.561,11.960 7.485 C 11.993 7.482,12.212 7.498,12.448 7.521 " stroke="none" fill-rule="evenodd"></path></svg>