<svg xmlns="http://www.w3.org/2000/svg" width="24" height="24" fill="currentColor" class="mmi mmi-noteboard-v2" viewBox="0 0 24 24"><path d="M7.664 1.063 C 7.436 1.146,7.257 1.297,7.131 1.511 C 7.024 1.693,7.020 1.724,7.007 2.345 L 6.993 2.991 6.227 3.011 C 5.373 3.034,5.217 3.065,4.704 3.312 C 3.836 3.729,3.263 4.466,3.060 5.425 C 2.969 5.851,2.971 20.144,3.062 20.581 C 3.310 21.785,4.215 22.690,5.419 22.938 C 5.679 22.992,6.500 23.000,12.000 23.000 C 18.876 23.000,18.551 23.011,19.150 22.767 C 19.850 22.482,20.482 21.850,20.767 21.150 C 21.012 20.547,21.000 20.974,21.000 13.000 C 21.000 5.024,21.012 5.453,20.766 4.849 C 20.499 4.193,19.964 3.633,19.296 3.312 C 18.783 3.065,18.627 3.034,17.770 3.011 L 17.000 2.991 17.000 2.422 C 17.000 1.741,16.948 1.546,16.701 1.299 C 16.384 0.982,16.666 1.000,11.983 1.003 C 8.474 1.005,7.795 1.015,7.664 1.063 M15.000 4.000 L 15.000 5.000 12.000 5.000 L 9.000 5.000 9.000 4.000 L 9.000 3.000 12.000 3.000 L 15.000 3.000 15.000 4.000 M7.007 5.650 C 7.020 6.277,7.024 6.307,7.131 6.489 C 7.192 6.592,7.301 6.723,7.374 6.778 C 7.677 7.009,7.484 7.000,11.998 7.000 C 16.663 7.000,16.384 7.018,16.701 6.701 C 16.948 6.454,17.000 6.259,17.000 5.573 L 17.000 5.000 17.573 5.000 C 18.259 5.000,18.454 5.052,18.701 5.299 C 19.025 5.623,19.000 4.977,19.000 13.000 C 19.000 21.023,19.025 20.377,18.701 20.701 C 18.379 21.023,18.903 21.000,12.000 21.000 C 5.097 21.000,5.621 21.023,5.299 20.701 C 4.975 20.377,5.000 21.023,5.000 13.000 C 5.000 4.975,4.975 5.623,5.300 5.298 C 5.546 5.052,5.715 5.007,6.407 5.003 L 6.993 5.000 7.007 5.650 " fill="#000640" stroke="none" fill-rule="evenodd"></path></svg>