<svg xmlns="http://www.w3.org/2000/svg" width="24" height="24" fill="currentColor" class="mmi mmi-notebook" viewBox="0 0 24 24"><path d="M5.503 1.042 C 4.487 1.214,3.556 1.976,3.202 2.925 C 3.048 3.337,3.001 3.668,3.001 4.350 L 3.000 5.000 2.425 5.000 C 1.631 5.000,1.371 5.102,1.131 5.511 C 1.036 5.672,1.020 5.744,1.020 6.000 C 1.020 6.256,1.036 6.328,1.131 6.489 C 1.371 6.898,1.631 7.000,2.425 7.000 L 3.000 7.000 3.000 8.000 L 3.000 9.000 2.425 9.000 C 1.631 9.000,1.371 9.102,1.131 9.511 C 1.036 9.672,1.020 9.744,1.020 10.000 C 1.020 10.256,1.036 10.328,1.131 10.489 C 1.371 10.898,1.631 11.000,2.425 11.000 L 3.000 11.000 3.000 12.000 L 3.000 13.000 2.425 13.000 C 1.631 13.000,1.371 13.102,1.131 13.511 C 1.036 13.672,1.020 13.744,1.020 14.000 C 1.020 14.256,1.036 14.328,1.131 14.489 C 1.371 14.898,1.631 15.000,2.425 15.000 L 3.000 15.000 3.000 16.000 L 3.000 17.000 2.425 17.000 C 1.631 17.000,1.371 17.102,1.131 17.511 C 1.036 17.672,1.020 17.744,1.020 18.000 C 1.020 18.256,1.036 18.328,1.131 18.489 C 1.371 18.898,1.631 19.000,2.425 19.000 L 3.000 19.000 3.000 19.642 C 3.000 20.355,3.055 20.713,3.234 21.151 C 3.521 21.857,4.143 22.479,4.849 22.766 C 5.453 23.012,5.024 23.000,13.000 23.000 C 20.974 23.000,20.547 23.012,21.150 22.767 C 21.850 22.482,22.482 21.850,22.767 21.150 C 23.013 20.544,23.000 21.073,23.000 12.000 C 23.000 2.925,23.014 3.457,22.766 2.849 C 22.499 2.193,21.964 1.633,21.296 1.312 C 20.636 0.994,21.412 1.023,13.120 1.015 C 9.039 1.012,5.611 1.024,5.503 1.042 M20.340 3.066 C 20.593 3.153,20.847 3.407,20.934 3.660 C 20.995 3.838,21.000 4.523,21.000 12.000 C 21.000 21.144,21.026 20.376,20.701 20.701 C 20.377 21.025,21.023 21.000,13.000 21.000 C 4.977 21.000,5.623 21.025,5.299 20.701 C 5.052 20.454,5.000 20.259,5.000 19.573 L 5.000 19.000 5.573 19.000 C 6.259 19.000,6.454 18.948,6.701 18.701 C 6.881 18.521,7.000 18.242,7.000 18.000 C 7.000 17.758,6.881 17.479,6.701 17.299 C 6.454 17.052,6.259 17.000,5.573 17.000 L 5.000 17.000 5.000 16.000 L 5.000 15.000 5.573 15.000 C 6.259 15.000,6.454 14.948,6.701 14.701 C 7.092 14.310,7.092 13.690,6.701 13.299 C 6.454 13.052,6.259 13.000,5.573 13.000 L 5.000 13.000 5.000 12.000 L 5.000 11.000 5.573 11.000 C 6.259 11.000,6.454 10.948,6.701 10.701 C 7.092 10.310,7.092 9.690,6.701 9.299 C 6.454 9.052,6.259 9.000,5.573 9.000 L 5.000 9.000 5.000 8.000 L 5.000 7.000 5.573 7.000 C 6.259 7.000,6.454 6.948,6.701 6.701 C 6.881 6.521,7.000 6.242,7.000 6.000 C 7.000 5.758,6.881 5.479,6.701 5.299 C 6.454 5.052,6.259 5.000,5.573 5.000 L 5.000 5.000 5.000 4.427 C 5.000 3.740,5.052 3.546,5.300 3.298 C 5.616 2.982,4.975 3.007,12.983 3.003 C 19.550 3.000,20.162 3.006,20.340 3.066 " fill="#000640" stroke="none" fill-rule="evenodd"></path></svg>