<svg xmlns="http://www.w3.org/2000/svg" width="24" height="24" fill="currentColor" class="mmi mmi-notes" viewBox="0 0 24 24"><path d="M7.477 1.193 C 6.783 1.374,6.193 2.000,6.044 2.712 C 6.013 2.862,6.000 5.025,6.000 10.134 C 6.000 17.995,5.987 17.541,6.223 18.028 C 6.423 18.440,6.866 18.827,7.350 19.012 L 7.580 19.100 14.480 19.100 L 21.380 19.100 21.640 19.005 C 22.310 18.759,22.764 18.262,22.939 17.582 C 22.993 17.372,23.000 16.475,23.000 10.134 C 23.000 5.025,22.987 2.862,22.956 2.712 C 22.807 2.000,22.217 1.374,21.523 1.193 C 21.279 1.130,20.761 1.125,14.500 1.125 C 8.239 1.125,7.721 1.130,7.477 1.193 M21.000 10.120 L 21.000 17.120 14.500 17.120 L 8.000 17.120 8.000 10.120 L 8.000 3.120 14.500 3.120 L 21.000 3.120 21.000 10.120 M2.670 4.175 C 2.446 4.258,2.255 4.420,2.131 4.631 L 2.020 4.820 2.010 13.039 C 2.003 18.497,2.013 21.332,2.040 21.479 C 2.188 22.279,2.867 22.944,3.672 23.078 C 3.864 23.110,6.124 23.119,11.600 23.111 L 19.260 23.100 19.474 22.982 C 20.149 22.608,20.165 21.668,19.503 21.261 L 19.306 21.140 11.653 21.130 L 4.000 21.119 3.998 13.030 C 3.996 4.284,4.009 4.797,3.783 4.501 C 3.546 4.190,3.032 4.039,2.670 4.175 M10.670 5.177 C 10.186 5.351,9.918 5.850,10.038 6.353 C 10.103 6.623,10.273 6.841,10.528 6.983 L 10.740 7.100 14.500 7.100 L 18.260 7.100 18.474 6.982 C 19.149 6.608,19.165 5.668,18.503 5.261 L 18.306 5.140 14.563 5.131 C 11.506 5.124,10.793 5.133,10.670 5.177 M10.670 9.177 C 10.186 9.351,9.918 9.850,10.038 10.353 C 10.103 10.623,10.273 10.841,10.528 10.983 L 10.740 11.100 14.500 11.100 L 18.260 11.100 18.474 10.982 C 19.149 10.608,19.165 9.668,18.503 9.261 L 18.306 9.140 14.563 9.131 C 11.506 9.124,10.793 9.133,10.670 9.177 M10.670 13.176 C 10.186 13.351,9.918 13.850,10.038 14.353 C 10.103 14.623,10.273 14.841,10.528 14.983 L 10.740 15.100 13.000 15.100 L 15.260 15.100 15.474 14.982 C 16.149 14.608,16.165 13.668,15.503 13.261 L 15.306 13.140 13.063 13.131 C 11.259 13.124,10.791 13.133,10.670 13.176 " fill="#000640" stroke="none" fill-rule="evenodd"></path></svg>