<svg xmlns="http://www.w3.org/2000/svg" width="24" height="24" fill="currentColor" class="mmi mmi-noteboard" viewBox="0 0 24 24"><path d="M7.643 1.069 C 7.546 1.103,7.392 1.206,7.300 1.298 C 7.052 1.546,7.000 1.741,7.000 2.422 L 7.000 2.991 6.230 3.011 C 5.373 3.034,5.217 3.065,4.704 3.312 C 4.307 3.502,3.941 3.792,3.670 4.127 C 3.445 4.407,3.159 4.980,3.074 5.320 C 2.994 5.647,2.994 20.353,3.074 20.680 C 3.159 21.020,3.445 21.593,3.670 21.873 C 3.950 22.220,4.312 22.501,4.740 22.704 C 5.401 23.017,4.993 23.000,12.000 23.000 C 19.007 23.000,18.599 23.017,19.260 22.704 C 19.920 22.391,20.391 21.920,20.704 21.260 C 21.019 20.594,21.000 21.123,21.000 13.000 C 21.000 4.877,21.019 5.406,20.704 4.740 C 20.398 4.095,19.924 3.614,19.296 3.312 C 18.783 3.065,18.627 3.034,17.770 3.011 L 17.000 2.991 17.000 2.422 C 17.000 1.741,16.948 1.546,16.701 1.299 C 16.384 0.982,16.666 1.000,11.983 1.003 C 8.320 1.006,7.799 1.014,7.643 1.069 M15.000 4.000 L 15.000 5.000 12.000 5.000 L 9.000 5.000 9.000 4.000 L 9.000 3.000 12.000 3.000 L 15.000 3.000 15.000 4.000 M7.000 5.573 C 7.000 6.259,7.052 6.454,7.299 6.701 C 7.616 7.018,7.337 7.000,12.000 7.000 C 16.663 7.000,16.384 7.018,16.701 6.701 C 16.948 6.454,17.000 6.259,17.000 5.573 L 17.000 5.000 17.573 5.000 C 18.259 5.000,18.454 5.052,18.701 5.299 C 19.025 5.623,19.000 4.977,19.000 13.000 C 19.000 21.023,19.025 20.377,18.701 20.701 C 18.379 21.023,18.903 21.000,11.998 21.000 C 5.296 21.000,5.682 21.013,5.374 20.778 C 5.301 20.723,5.192 20.592,5.131 20.489 L 5.020 20.300 5.020 13.000 L 5.020 5.700 5.131 5.511 C 5.256 5.298,5.449 5.136,5.670 5.057 C 5.768 5.022,6.023 5.003,6.410 5.002 L 7.000 5.000 7.000 5.573 M7.664 9.063 C 7.436 9.146,7.257 9.297,7.131 9.511 C 7.036 9.672,7.020 9.744,7.020 10.000 C 7.020 10.256,7.036 10.328,7.131 10.489 C 7.192 10.592,7.301 10.723,7.374 10.778 C 7.677 11.009,7.484 11.000,11.998 11.000 C 16.663 11.000,16.384 11.018,16.701 10.701 C 17.092 10.310,17.092 9.690,16.701 9.299 C 16.384 8.982,16.666 9.000,11.983 9.003 C 8.474 9.005,7.795 9.015,7.664 9.063 M7.664 13.063 C 7.436 13.146,7.257 13.297,7.131 13.511 C 7.036 13.672,7.020 13.744,7.020 14.000 C 7.020 14.256,7.036 14.328,7.131 14.489 C 7.192 14.592,7.301 14.723,7.374 14.778 C 7.677 15.009,7.484 15.000,11.998 15.000 C 16.663 15.000,16.384 15.018,16.701 14.701 C 17.092 14.310,17.092 13.690,16.701 13.299 C 16.384 12.982,16.666 13.000,11.983 13.003 C 8.474 13.005,7.795 13.015,7.664 13.063 " fill="#000640" stroke="none" fill-rule="evenodd"></path></svg>