<svg xmlns="http://www.w3.org/2000/svg" width="24" height="24" fill="currentColor" class="mmi mmi-nowater" viewBox="0 0 24 24"><path d="M11.530 1.042 C 11.019 1.133,10.338 1.449,9.745 1.870 C 9.345 2.153,8.125 3.362,7.705 3.890 C 5.161 7.094,3.159 11.667,3.014 14.609 C 2.986 15.178,3.022 15.357,3.211 15.606 C 3.570 16.076,4.280 16.122,4.701 15.701 C 4.915 15.487,4.986 15.265,5.018 14.705 C 5.068 13.840,5.300 12.802,5.696 11.665 C 6.019 10.740,6.289 10.112,6.826 9.040 C 7.761 7.171,8.734 5.701,9.843 4.479 C 10.611 3.634,11.535 3.000,12.000 3.000 C 12.454 3.000,13.386 3.631,14.114 4.432 C 14.473 4.827,14.675 4.957,14.973 4.988 C 15.433 5.035,15.892 4.738,16.019 4.310 C 16.096 4.051,16.096 3.947,16.016 3.677 C 15.957 3.479,15.893 3.402,15.286 2.797 C 14.886 2.398,14.468 2.026,14.240 1.863 C 13.809 1.556,13.096 1.195,12.740 1.102 C 12.440 1.023,11.807 0.992,11.530 1.042 M20.640 2.068 C 20.482 2.121,19.346 3.243,11.329 11.254 C 4.159 18.420,2.177 20.422,2.099 20.578 C 1.990 20.796,1.970 21.070,2.044 21.336 C 2.102 21.546,2.454 21.898,2.664 21.956 C 2.905 22.023,3.200 22.007,3.400 21.917 C 3.525 21.860,3.810 21.606,4.328 21.091 L 5.075 20.348 5.379 20.631 C 6.681 21.847,8.423 22.618,10.520 22.906 C 11.138 22.991,12.743 23.002,13.340 22.925 C 15.735 22.618,17.632 21.718,19.016 20.233 C 19.509 19.704,19.834 19.231,20.178 18.540 C 20.637 17.618,20.864 16.804,20.964 15.720 C 21.154 13.666,20.404 10.927,18.800 7.810 L 18.396 7.026 20.133 5.283 C 21.690 3.720,21.876 3.520,21.935 3.343 C 22.064 2.954,21.979 2.577,21.701 2.299 C 21.424 2.022,21.028 1.935,20.640 2.068 M17.307 9.277 C 18.093 10.895,18.652 12.513,18.905 13.900 C 18.959 14.198,18.977 14.494,18.976 15.060 C 18.975 15.883,18.916 16.281,18.696 16.944 C 18.001 19.044,16.071 20.488,13.396 20.907 C 12.753 21.008,11.245 21.007,10.600 20.905 C 9.010 20.655,7.541 19.984,6.701 19.123 L 6.502 18.919 11.701 13.719 C 16.402 9.018,16.905 8.526,16.954 8.590 C 16.983 8.628,17.142 8.938,17.307 9.277 " fill="#000640" stroke="none" fill-rule="evenodd"></path></svg>