<svg xmlns="http://www.w3.org/2000/svg" width="24" height="24" fill="currentColor" class="mmi mmi-nuclearreactor" viewBox="0 0 24 24"><path d="M4.643 1.068 C 4.401 1.154,4.146 1.419,4.069 1.664 C 4.024 1.807,4.001 2.121,3.984 2.820 C 3.893 6.531,3.076 12.178,1.639 19.020 C 1.526 19.554,1.515 19.673,1.531 20.100 C 1.562 20.929,1.824 21.514,2.438 22.124 C 2.724 22.409,2.850 22.501,3.162 22.654 C 3.892 23.012,2.985 22.978,12.119 22.991 C 21.226 23.003,20.587 23.023,21.260 22.704 C 21.920 22.391,22.391 21.920,22.704 21.260 C 22.991 20.654,23.000 20.552,23.000 18.000 C 23.000 15.448,22.991 15.346,22.704 14.740 C 22.398 14.095,21.924 13.614,21.296 13.312 C 20.694 13.022,20.742 13.028,18.710 13.010 C 17.634 13.001,16.880 12.980,16.880 12.958 C 16.880 12.938,16.789 12.440,16.678 11.851 C 15.963 8.062,15.620 5.403,15.520 2.880 C 15.497 2.297,15.461 1.756,15.440 1.678 C 15.390 1.492,15.153 1.220,14.946 1.109 L 14.780 1.020 9.800 1.013 C 5.368 1.006,4.801 1.013,4.643 1.068 M13.538 3.430 C 13.553 3.666,13.581 4.067,13.602 4.320 C 13.622 4.573,13.639 4.830,13.640 4.890 L 13.640 5.000 9.754 5.000 L 5.868 5.000 5.894 4.660 C 5.909 4.472,5.932 4.022,5.947 3.660 L 5.973 3.000 9.742 3.000 L 13.512 3.000 13.538 3.430 M13.880 7.050 C 13.881 7.326,14.470 10.962,14.732 12.307 L 14.866 12.995 13.163 13.010 C 11.273 13.028,11.301 13.024,10.704 13.312 C 10.075 13.614,9.599 14.097,9.298 14.740 C 9.013 15.348,9.020 15.261,9.020 18.000 C 9.020 20.419,9.025 20.528,9.145 20.930 C 9.164 20.996,9.033 21.000,6.768 21.000 C 4.748 21.000,4.343 20.991,4.201 20.940 C 3.794 20.797,3.520 20.417,3.520 19.995 C 3.520 19.869,3.609 19.346,3.717 18.833 C 4.336 15.905,4.935 12.533,5.340 9.700 C 5.430 9.070,5.679 7.112,5.680 7.030 C 5.680 7.014,7.525 7.000,9.780 7.000 C 13.033 7.000,13.880 7.010,13.880 7.050 M20.340 15.066 C 20.593 15.153,20.847 15.407,20.934 15.660 C 20.992 15.831,21.000 16.108,21.000 18.000 C 21.000 20.427,21.003 20.399,20.701 20.701 C 20.384 21.018,20.663 21.000,15.998 21.000 C 11.484 21.000,11.677 21.009,11.374 20.778 C 11.301 20.723,11.192 20.592,11.131 20.489 L 11.020 20.300 11.020 18.000 L 11.020 15.700 11.131 15.511 C 11.256 15.298,11.449 15.136,11.670 15.057 C 11.792 15.014,12.610 15.003,15.983 15.002 C 19.756 15.000,20.164 15.006,20.340 15.066 M15.664 17.063 C 15.436 17.146,15.257 17.297,15.131 17.511 C 15.036 17.672,15.020 17.744,15.020 18.000 C 15.020 18.256,15.036 18.328,15.131 18.489 C 15.470 19.065,16.234 19.168,16.701 18.701 C 16.881 18.521,17.000 18.242,17.000 18.000 C 17.000 17.326,16.295 16.832,15.664 17.063 M18.664 17.063 C 18.436 17.146,18.257 17.297,18.131 17.511 C 18.036 17.672,18.020 17.744,18.020 18.000 C 18.020 18.256,18.036 18.328,18.131 18.489 C 18.470 19.065,19.234 19.168,19.701 18.701 C 19.881 18.521,20.000 18.242,20.000 18.000 C 20.000 17.326,19.295 16.832,18.664 17.063 " fill="#000640" stroke="none" fill-rule="evenodd"></path></svg>