<svg xmlns="http://www.w3.org/2000/svg" width="24" height="24" fill="currentColor" class="mmi mmi-number-field" viewBox="0 0 24 24"><path d="M10.086 7.044 C 8.694 7.257,7.726 8.149,7.522 9.404 C 7.499 9.545,7.480 9.728,7.480 9.810 L 7.480 9.960 8.598 9.960 L 9.715 9.960 9.742 9.770 C 9.832 9.142,10.202 8.829,10.849 8.832 C 11.109 8.833,11.204 8.852,11.385 8.941 C 11.626 9.059,11.811 9.273,11.885 9.521 C 11.956 9.756,11.914 10.228,11.802 10.460 C 11.644 10.788,11.238 11.164,9.395 12.689 L 7.640 14.140 7.640 14.990 L 7.640 15.840 11.000 15.840 L 14.360 15.840 14.360 14.900 L 14.360 13.960 12.660 13.960 C 11.326 13.960,10.960 13.949,10.962 13.910 C 10.963 13.883,11.173 13.689,11.429 13.480 C 12.222 12.831,12.977 12.139,13.305 11.760 C 14.011 10.944,14.240 10.433,14.240 9.673 C 14.240 9.229,14.170 8.926,13.978 8.532 C 13.638 7.836,12.886 7.313,11.920 7.101 C 11.559 7.022,10.452 6.987,10.086 7.044 M18.033 7.057 C 16.574 7.316,15.580 8.244,15.455 9.465 L 15.429 9.720 16.574 9.720 L 17.720 9.720 17.721 9.630 C 17.722 9.495,17.855 9.234,17.985 9.112 C 18.188 8.922,18.453 8.832,18.815 8.830 C 19.195 8.829,19.445 8.924,19.638 9.144 C 19.974 9.527,19.857 10.145,19.401 10.397 C 19.135 10.544,18.831 10.599,18.270 10.599 L 17.760 10.600 17.760 11.417 L 17.760 12.233 18.451 12.247 L 19.142 12.260 19.415 12.394 C 19.774 12.571,19.920 12.783,19.920 13.129 C 19.920 13.716,19.444 14.075,18.723 14.031 C 18.179 13.998,17.752 13.716,17.694 13.352 L 17.670 13.200 16.475 13.200 L 15.280 13.200 15.280 13.347 C 15.280 13.567,15.394 13.989,15.528 14.260 C 15.919 15.055,16.688 15.600,17.773 15.849 C 18.224 15.952,19.283 15.972,19.760 15.885 C 20.938 15.671,21.846 15.086,22.219 14.300 C 22.380 13.961,22.440 13.691,22.440 13.305 C 22.440 12.298,21.770 11.606,20.590 11.395 C 20.442 11.368,20.320 11.333,20.320 11.318 C 20.320 11.302,20.405 11.276,20.509 11.261 C 20.973 11.191,21.416 10.952,21.733 10.600 C 21.968 10.338,22.086 10.030,22.109 9.620 C 22.176 8.460,21.341 7.490,19.971 7.134 C 19.484 7.008,18.525 6.970,18.033 7.057 M2.590 7.770 L 1.522 8.420 1.521 9.410 C 1.520 9.955,1.534 10.400,1.550 10.399 C 1.567 10.399,2.003 10.148,2.520 9.841 L 3.460 9.283 3.470 12.561 L 3.480 15.840 4.680 15.840 L 5.880 15.840 5.880 11.480 L 5.880 7.120 4.769 7.120 L 3.659 7.120 2.590 7.770 " fill="#000640" stroke="none" fill-rule="evenodd"></path></svg>