<svg xmlns="http://www.w3.org/2000/svg" width="24" height="24" fill="currentColor" class="mmi mmi-officecase" viewBox="0 0 24 24"><path d="M9.503 2.041 C 8.483 2.217,7.556 2.976,7.202 3.925 C 7.048 4.336,7.001 4.668,7.001 5.347 L 7.000 5.995 5.230 6.010 C 3.265 6.028,3.304 6.023,2.704 6.312 C 1.836 6.729,1.263 7.466,1.060 8.425 C 0.970 8.849,0.972 19.146,1.062 19.581 C 1.310 20.785,2.215 21.690,3.419 21.938 C 3.681 21.993,4.700 22.000,12.000 22.000 C 21.073 22.000,20.544 22.013,21.150 21.767 C 21.850 21.482,22.482 20.850,22.767 20.150 C 23.008 19.556,23.000 19.777,23.000 14.000 C 23.000 8.221,23.008 8.444,22.766 7.849 C 22.499 7.193,21.964 6.633,21.296 6.312 C 20.696 6.023,20.735 6.028,18.770 6.010 L 17.000 5.995 17.000 5.356 C 17.000 4.645,16.944 4.287,16.766 3.849 C 16.499 3.193,15.964 2.633,15.296 2.312 C 14.674 2.013,14.813 2.026,12.120 2.016 C 10.789 2.011,9.611 2.023,9.503 2.041 M14.340 4.066 C 14.593 4.153,14.847 4.407,14.934 4.660 C 14.983 4.805,15.000 4.999,15.000 5.427 L 15.000 6.000 12.000 6.000 L 9.000 6.000 9.000 5.427 C 9.000 4.740,9.052 4.546,9.300 4.298 C 9.596 4.002,9.550 4.007,11.983 4.003 C 13.897 4.000,14.168 4.008,14.340 4.066 M20.340 8.066 C 20.455 8.105,20.603 8.201,20.701 8.299 C 21.021 8.619,21.000 8.217,21.000 14.000 C 21.000 19.783,21.021 19.381,20.701 19.701 C 20.376 20.026,21.144 20.000,12.000 20.000 C 2.856 20.000,3.624 20.026,3.299 19.701 C 2.979 19.381,3.000 19.783,3.000 14.000 C 3.000 8.216,2.979 8.619,3.300 8.298 C 3.617 7.981,2.858 8.007,11.983 8.003 C 19.481 8.000,20.162 8.005,20.340 8.066 " fill="#000640" stroke="none" fill-rule="evenodd"></path></svg>