<svg xmlns="http://www.w3.org/2000/svg" width="24" height="24" fill="currentColor" class="mmi mmi-officephone" viewBox="0 0 24 24"><path d="M4.503 1.042 C 3.818 1.158,3.117 1.573,2.670 2.127 C 2.445 2.407,2.159 2.980,2.074 3.320 C 1.994 3.647,1.994 18.353,2.074 18.680 C 2.159 19.020,2.445 19.593,2.670 19.873 C 3.223 20.559,4.137 20.999,5.014 21.000 L 5.260 21.001 5.369 21.271 C 5.786 22.302,6.722 23.218,7.813 23.663 C 8.385 23.896,8.809 23.975,9.500 23.975 C 10.186 23.975,10.615 23.896,11.172 23.669 C 12.276 23.219,13.212 22.306,13.631 21.271 L 13.740 21.001 16.486 21.000 C 19.608 21.000,19.640 20.997,20.260 20.704 C 20.920 20.391,21.391 19.920,21.704 19.260 C 22.019 18.594,22.000 19.123,22.000 11.000 C 22.000 2.877,22.019 3.406,21.704 2.740 C 21.398 2.095,20.924 1.614,20.296 1.312 C 19.636 0.994,20.412 1.023,12.120 1.015 C 8.039 1.012,4.611 1.024,4.503 1.042 M8.400 11.001 L 8.400 19.002 6.569 18.991 L 4.738 18.980 4.539 18.878 C 4.313 18.761,4.102 18.509,4.041 18.282 C 4.013 18.178,4.002 15.806,4.010 10.914 L 4.020 3.700 4.131 3.511 C 4.192 3.408,4.304 3.275,4.381 3.217 C 4.657 3.006,4.684 3.004,6.610 3.002 L 8.400 3.000 8.400 11.001 M19.340 3.066 C 19.455 3.105,19.603 3.201,19.701 3.299 C 20.025 3.623,20.000 2.977,20.000 11.000 C 20.000 19.023,20.025 18.377,19.701 18.701 C 19.383 19.019,19.690 19.000,14.773 19.000 L 10.400 19.000 10.400 11.000 L 10.400 3.000 14.773 3.000 C 18.738 3.000,19.164 3.006,19.340 3.066 M12.664 5.063 C 12.436 5.146,12.257 5.297,12.131 5.511 C 12.036 5.672,12.020 5.744,12.020 6.000 C 12.020 6.256,12.036 6.328,12.131 6.489 C 12.192 6.592,12.301 6.723,12.374 6.778 C 12.664 7.000,12.670 7.000,14.998 7.000 C 17.428 7.000,17.399 7.003,17.701 6.701 C 18.092 6.310,18.092 5.690,17.701 5.299 C 17.398 4.996,17.430 5.000,14.983 5.003 C 13.210 5.005,12.792 5.016,12.664 5.063 M12.664 9.063 C 12.436 9.146,12.257 9.297,12.131 9.511 C 12.036 9.672,12.020 9.744,12.020 10.000 C 12.020 10.256,12.036 10.328,12.131 10.489 C 12.470 11.065,13.234 11.168,13.701 10.701 C 13.881 10.521,14.000 10.242,14.000 10.000 C 14.000 9.326,13.295 8.832,12.664 9.063 M16.664 9.063 C 16.436 9.146,16.257 9.297,16.131 9.511 C 16.036 9.672,16.020 9.744,16.020 10.000 C 16.020 10.256,16.036 10.328,16.131 10.489 C 16.470 11.065,17.234 11.168,17.701 10.701 C 17.881 10.521,18.000 10.242,18.000 10.000 C 18.000 9.326,17.295 8.832,16.664 9.063 M12.664 13.063 C 12.436 13.146,12.257 13.297,12.131 13.511 C 12.036 13.672,12.020 13.744,12.020 14.000 C 12.020 14.256,12.036 14.328,12.131 14.489 C 12.470 15.065,13.234 15.168,13.701 14.701 C 13.881 14.521,14.000 14.242,14.000 14.000 C 14.000 13.326,13.295 12.832,12.664 13.063 M16.664 13.063 C 16.436 13.146,16.257 13.297,16.131 13.511 C 16.036 13.672,16.020 13.744,16.020 14.000 C 16.020 14.256,16.036 14.328,16.131 14.489 C 16.470 15.065,17.234 15.168,17.701 14.701 C 17.881 14.521,18.000 14.242,18.000 14.000 C 18.000 13.326,17.295 12.832,16.664 13.063 M11.442 21.076 C 11.367 21.217,10.951 21.555,10.676 21.699 C 9.930 22.092,9.070 22.092,8.324 21.699 C 8.049 21.555,7.633 21.217,7.558 21.076 C 7.518 21.002,7.562 21.000,9.500 21.000 C 11.438 21.000,11.482 21.002,11.442 21.076 " fill="#000640" stroke="none" fill-rule="evenodd"></path></svg>