<svg xmlns="http://www.w3.org/2000/svg" width="24" height="24" fill="currentColor" class="mmi mmi-outsidelink" viewBox="0 0 24 24"><path d="M15.664 1.063 C 15.436 1.146,15.257 1.297,15.131 1.511 C 15.036 1.672,15.020 1.744,15.020 2.000 C 15.020 2.256,15.036 2.328,15.131 2.489 C 15.192 2.592,15.301 2.723,15.374 2.778 C 15.661 2.997,15.695 3.000,17.715 3.000 L 19.579 3.000 13.853 8.730 C 8.249 14.337,8.125 14.465,8.063 14.677 C 7.984 14.949,7.984 15.013,8.064 15.283 C 8.153 15.581,8.419 15.847,8.717 15.936 C 8.987 16.016,9.051 16.016,9.323 15.937 C 9.535 15.875,9.663 15.751,15.270 10.147 L 21.000 4.421 21.000 6.280 C 21.000 7.438,21.016 8.196,21.042 8.289 C 21.103 8.509,21.315 8.762,21.531 8.874 C 21.932 9.080,22.390 9.012,22.700 8.702 C 23.013 8.389,23.000 8.546,23.000 5.000 C 23.000 1.456,23.013 1.610,22.701 1.299 C 22.389 0.987,22.547 1.000,18.983 1.003 C 16.342 1.005,15.794 1.015,15.664 1.063 M3.503 3.042 C 2.820 3.157,2.117 3.573,1.670 4.127 C 1.445 4.407,1.159 4.980,1.074 5.320 C 0.994 5.647,0.994 20.353,1.074 20.680 C 1.159 21.020,1.445 21.593,1.670 21.873 C 1.950 22.220,2.312 22.501,2.740 22.704 C 3.406 23.019,2.877 23.000,11.000 23.000 C 19.123 23.000,18.594 23.019,19.260 22.704 C 19.458 22.610,19.734 22.442,19.873 22.330 C 20.220 22.050,20.501 21.688,20.704 21.260 C 21.009 20.616,21.000 20.771,21.000 16.043 C 21.000 11.332,21.018 11.616,20.701 11.299 C 20.310 10.908,19.690 10.908,19.299 11.299 C 18.982 11.616,19.000 11.337,19.000 16.000 C 19.000 20.663,19.018 20.384,18.701 20.701 C 18.377 21.025,19.023 21.000,10.998 21.000 C 3.201 21.000,3.683 21.014,3.374 20.778 C 3.301 20.723,3.192 20.592,3.131 20.489 L 3.020 20.300 3.010 13.086 C 3.003 8.332,3.013 5.821,3.039 5.722 C 3.099 5.502,3.291 5.261,3.508 5.133 L 3.700 5.020 7.980 5.000 L 12.260 4.980 12.450 4.886 C 13.051 4.590,13.180 3.778,12.701 3.299 C 12.384 2.982,12.674 2.999,7.923 3.005 C 5.600 3.007,3.611 3.024,3.503 3.042 " fill="#000640" stroke="none" fill-rule="evenodd"></path></svg>