<svg xmlns="http://www.w3.org/2000/svg" width="24" height="24" fill="currentColor" class="mmi mmi-outsidelink-v2" viewBox="0 0 24 24"><path d="M3.503 1.042 C 2.490 1.212,1.556 1.976,1.202 2.925 C 0.992 3.487,1.001 3.068,1.001 11.992 C 1.000 21.076,0.986 20.543,1.234 21.151 C 1.521 21.857,2.143 22.479,2.849 22.766 C 3.457 23.014,2.925 23.000,12.000 23.000 C 21.073 23.000,20.544 23.013,21.150 22.767 C 21.850 22.482,22.482 21.850,22.767 21.150 C 23.003 20.570,23.000 20.625,23.000 16.569 C 23.000 12.387,23.016 12.614,22.700 12.298 C 22.390 11.988,21.932 11.920,21.531 12.126 C 21.315 12.238,21.103 12.491,21.042 12.711 C 21.015 12.809,21.000 14.117,21.000 16.503 C 21.000 20.603,21.015 20.387,20.701 20.701 C 20.376 21.026,21.144 21.000,12.000 21.000 C 2.856 21.000,3.624 21.026,3.299 20.701 C 2.974 20.376,3.000 21.144,3.000 12.000 C 3.000 2.856,2.974 3.624,3.299 3.299 C 3.613 2.985,3.396 3.000,7.500 3.000 C 11.604 3.000,11.387 3.015,11.701 2.701 C 12.092 2.310,12.092 1.690,11.701 1.299 C 11.386 0.984,11.614 0.999,7.423 1.005 C 5.375 1.007,3.611 1.024,3.503 1.042 M15.643 1.069 C 15.291 1.193,15.000 1.614,15.000 2.000 C 15.000 2.242,15.119 2.521,15.299 2.701 C 15.597 2.999,15.605 3.000,17.717 3.000 L 19.580 3.000 13.872 8.710 C 9.402 13.181,8.146 14.459,8.083 14.600 C 7.910 14.984,7.991 15.396,8.297 15.703 C 8.604 16.009,9.016 16.090,9.400 15.917 C 9.541 15.854,10.819 14.598,15.290 10.128 L 21.000 4.420 21.000 6.283 C 21.000 8.395,21.001 8.403,21.299 8.701 C 21.690 9.092,22.310 9.092,22.701 8.701 C 23.013 8.390,23.000 8.544,23.000 5.000 C 23.000 1.456,23.013 1.610,22.701 1.299 C 22.389 0.987,22.547 1.000,18.983 1.003 C 16.226 1.006,15.797 1.014,15.643 1.069 " fill="#000640" stroke="none" fill-rule="evenodd"></path></svg>