<svg xmlns="http://www.w3.org/2000/svg" width="24" height="24" fill="currentColor" class="mmi mmi-outsidelink-v3" viewBox="0 0 24 24"><path d="M3.503 1.042 C 2.818 1.158,2.117 1.573,1.670 2.127 C 1.445 2.407,1.159 2.980,1.074 3.320 C 0.993 3.647,0.993 20.353,1.074 20.680 C 1.159 21.020,1.445 21.593,1.670 21.873 C 1.950 22.220,2.312 22.501,2.740 22.704 C 3.409 23.021,2.760 23.000,12.000 23.000 C 21.240 23.000,20.591 23.021,21.260 22.704 C 21.920 22.391,22.391 21.920,22.704 21.260 C 23.021 20.591,23.000 21.240,23.000 12.000 C 23.000 2.760,23.021 3.409,22.704 2.740 C 22.398 2.095,21.924 1.614,21.296 1.312 C 20.634 0.993,21.532 1.022,12.120 1.015 C 7.489 1.012,3.611 1.024,3.503 1.042 M20.340 3.066 C 20.593 3.153,20.847 3.407,20.934 3.660 C 20.995 3.838,21.000 4.523,21.000 12.000 C 21.000 21.144,21.026 20.376,20.701 20.701 C 20.376 21.026,21.144 21.000,11.998 21.000 C 3.106 21.000,3.684 21.015,3.374 20.778 C 3.301 20.723,3.192 20.592,3.131 20.489 L 3.020 20.300 3.020 12.000 L 3.020 3.700 3.131 3.511 C 3.256 3.298,3.449 3.136,3.670 3.057 C 3.793 3.013,5.268 3.003,11.983 3.002 C 19.479 3.000,20.162 3.005,20.340 3.066 M11.664 5.063 C 11.436 5.146,11.257 5.297,11.131 5.511 C 11.036 5.672,11.020 5.744,11.020 6.000 C 11.020 6.256,11.036 6.328,11.131 6.489 C 11.192 6.592,11.301 6.723,11.374 6.778 C 11.661 6.997,11.695 7.000,13.715 7.000 L 15.579 7.000 11.871 10.710 C 8.994 13.589,8.145 14.460,8.083 14.600 C 7.984 14.819,7.975 15.182,8.062 15.391 C 8.144 15.587,8.381 15.831,8.580 15.924 C 8.798 16.025,9.166 16.022,9.400 15.917 C 9.540 15.855,10.411 15.006,13.290 12.129 L 17.000 8.421 17.000 10.280 C 17.000 11.438,17.016 12.196,17.042 12.289 C 17.103 12.509,17.315 12.762,17.531 12.874 C 17.932 13.080,18.390 13.012,18.700 12.702 C 19.013 12.389,19.000 12.546,19.000 9.000 C 19.000 5.456,19.013 5.610,18.701 5.299 C 18.389 4.987,18.547 5.000,14.983 5.003 C 12.342 5.005,11.794 5.015,11.664 5.063 " fill="#000640" stroke="none" fill-rule="evenodd"></path></svg>