<svg xmlns="http://www.w3.org/2000/svg" width="24" height="24" fill="currentColor" class="mmi mmi-overseatransfer" viewBox="0 0 24 24"><path d="M11.200 0.025 C 7.091 0.332,3.508 2.609,1.507 6.186 C 0.775 7.494,0.317 8.899,0.094 10.520 C -0.002 11.214,-0.002 12.786,0.094 13.480 C 0.317 15.101,0.775 16.506,1.507 17.814 C 4.173 22.579,9.604 24.939,14.910 23.637 C 19.156 22.595,22.595 19.156,23.637 14.910 C 24.599 10.992,23.592 6.970,20.896 3.958 C 19.003 1.843,16.397 0.483,13.500 0.099 C 13.032 0.037,11.640 -0.007,11.200 0.025 M11.000 2.960 L 11.000 3.880 9.243 4.759 C 8.277 5.242,7.421 5.695,7.341 5.765 C 7.261 5.835,7.156 5.966,7.108 6.056 C 7.022 6.217,7.020 6.257,7.000 8.240 C 6.980 10.258,6.980 10.260,6.886 10.450 C 6.835 10.555,6.728 10.694,6.649 10.759 C 6.358 10.999,6.345 11.000,4.092 11.000 L 2.039 11.000 2.062 10.830 C 2.075 10.737,2.130 10.419,2.185 10.125 C 2.929 6.128,6.115 2.941,10.125 2.183 C 10.594 2.095,10.724 2.073,10.950 2.046 C 10.989 2.041,11.000 2.247,11.000 2.960 M13.560 2.122 C 15.164 2.360,16.919 3.136,18.260 4.200 C 18.671 4.526,19.474 5.329,19.800 5.740 C 20.944 7.181,21.658 8.862,21.927 10.740 C 21.957 10.949,21.979 11.479,21.979 12.000 C 21.979 12.521,21.957 13.051,21.927 13.260 C 21.614 15.450,20.714 17.334,19.234 18.897 C 17.770 20.444,15.624 21.572,13.560 21.878 C 13.395 21.903,13.202 21.932,13.130 21.943 L 13.000 21.964 13.000 21.172 C 13.000 20.340,12.976 20.176,12.829 19.955 C 12.751 19.839,9.524 16.974,8.756 16.339 C 8.322 15.980,8.511 16.000,5.496 16.000 C 2.864 16.000,2.842 15.999,2.799 15.918 C 2.720 15.771,2.477 15.069,2.359 14.649 C 2.256 14.283,2.132 13.664,2.063 13.170 L 2.039 13.000 4.135 13.000 C 6.538 13.000,6.659 12.989,7.260 12.704 C 7.920 12.391,8.391 11.920,8.704 11.260 C 8.977 10.683,9.000 10.481,9.000 8.676 L 9.000 7.120 10.757 6.241 C 11.723 5.758,12.579 5.305,12.659 5.235 C 12.739 5.165,12.844 5.034,12.892 4.944 C 12.977 4.786,12.980 4.731,12.992 3.409 L 13.004 2.037 13.132 2.057 C 13.202 2.068,13.395 2.097,13.560 2.122 M15.645 8.046 C 15.456 8.100,15.098 8.468,15.044 8.664 C 14.977 8.905,14.993 9.200,15.083 9.400 C 15.139 9.523,15.387 9.803,15.871 10.290 L 16.577 11.000 14.216 11.000 C 11.548 11.000,11.604 10.994,11.299 11.299 C 11.119 11.479,11.000 11.758,11.000 12.000 C 11.000 12.242,11.119 12.521,11.299 12.701 C 11.604 13.006,11.547 13.000,14.217 13.000 L 16.579 13.000 15.893 13.690 C 15.471 14.114,15.173 14.449,15.119 14.558 C 14.930 14.937,15.031 15.443,15.350 15.723 C 15.552 15.901,15.741 15.970,16.025 15.970 C 16.441 15.970,16.506 15.917,18.269 14.147 C 19.699 12.711,19.876 12.519,19.935 12.343 C 20.017 12.094,20.017 11.906,19.935 11.657 C 19.876 11.481,19.697 11.287,18.245 9.829 C 16.467 8.044,16.409 7.997,16.002 8.004 C 15.880 8.006,15.719 8.025,15.645 8.046 M9.309 19.470 L 10.995 20.940 10.997 21.452 L 11.000 21.964 10.870 21.942 C 10.798 21.930,10.614 21.901,10.460 21.878 C 9.760 21.772,8.970 21.555,8.260 21.272 C 6.736 20.665,5.192 19.517,4.195 18.250 L 3.999 18.000 5.811 18.000 L 7.623 18.000 9.309 19.470 " stroke="none" fill-rule="evenodd"></path></svg>