<svg xmlns="http://www.w3.org/2000/svg" width="24" height="24" fill="currentColor" class="mmi mmi-painting" viewBox="0 0 24 24"><path d="M4.503 1.042 C 3.487 1.214,2.556 1.976,2.202 2.925 C 2.023 3.403,2.001 3.629,2.001 4.992 C 2.000 6.403,2.025 6.639,2.234 7.151 C 2.521 7.857,3.143 8.479,3.849 8.766 C 4.447 9.010,4.172 9.000,10.500 9.000 C 16.826 9.000,16.554 9.010,17.150 8.767 C 17.850 8.482,18.482 7.850,18.767 7.150 C 18.887 6.855,19.000 6.366,19.000 6.142 C 19.000 5.975,19.044 5.965,19.340 6.066 C 19.593 6.153,19.847 6.407,19.934 6.660 C 20.028 6.936,20.032 9.052,19.939 9.325 C 19.855 9.570,19.677 9.774,19.450 9.886 L 19.260 9.980 15.360 10.002 C 11.018 10.026,11.343 10.005,10.704 10.312 C 10.008 10.646,9.459 11.236,9.202 11.925 C 9.048 12.336,9.001 12.668,9.001 13.347 L 9.000 13.994 8.369 14.007 C 7.783 14.019,7.723 14.027,7.539 14.122 C 7.316 14.237,7.104 14.488,7.042 14.711 C 6.985 14.916,6.985 22.084,7.042 22.289 C 7.104 22.512,7.316 22.763,7.539 22.878 L 7.738 22.980 9.936 22.991 C 12.429 23.003,12.395 23.007,12.700 22.702 C 13.016 22.387,13.000 22.605,13.000 18.500 C 13.000 14.396,13.015 14.613,12.701 14.299 C 12.454 14.052,12.259 14.000,11.573 14.000 L 11.000 14.000 11.000 13.427 C 11.000 12.741,11.052 12.546,11.299 12.299 C 11.614 11.984,11.388 12.000,15.569 12.000 C 18.756 12.000,19.326 11.991,19.581 11.938 C 20.780 11.691,21.691 10.780,21.938 9.581 C 22.027 9.152,22.027 6.848,21.938 6.419 C 21.741 5.462,21.149 4.714,20.260 4.298 C 19.861 4.112,19.670 4.057,19.270 4.017 L 19.000 3.989 19.000 3.853 C 19.000 3.633,18.886 3.142,18.766 2.849 C 18.499 2.193,17.964 1.633,17.296 1.312 C 16.641 0.997,17.231 1.023,10.620 1.015 C 7.364 1.012,4.611 1.024,4.503 1.042 M16.340 3.066 C 16.593 3.153,16.847 3.407,16.934 3.660 C 16.989 3.823,17.000 4.038,17.000 5.000 C 17.000 6.316,16.982 6.421,16.701 6.701 C 16.380 7.022,16.843 7.000,10.500 7.000 C 4.157 7.000,4.620 7.022,4.299 6.701 C 4.018 6.421,4.000 6.316,4.000 5.000 C 4.000 3.684,4.018 3.580,4.300 3.298 C 4.613 2.985,4.149 3.007,10.483 3.003 C 15.654 3.000,16.163 3.006,16.340 3.066 M11.000 18.500 L 11.000 21.000 10.000 21.000 L 9.000 21.000 9.000 18.500 L 9.000 16.000 10.000 16.000 L 11.000 16.000 11.000 18.500 " fill="#000640" stroke="none" fill-rule="evenodd"></path></svg>