<svg xmlns="http://www.w3.org/2000/svg" width="24" height="24" fill="currentColor" class="mmi mmi-painbrush" viewBox="0 0 24 24"><path d="M4.580 1.047 C 3.859 1.185,3.199 1.848,3.044 2.592 C 3.013 2.740,3.000 4.373,3.000 8.044 C 3.000 13.774,2.992 13.556,3.234 14.151 C 3.521 14.857,4.143 15.479,4.849 15.766 C 5.376 15.981,5.574 16.000,7.278 16.000 C 8.137 16.000,8.840 16.006,8.840 16.012 C 8.840 16.019,8.723 16.842,8.580 17.840 C 8.411 19.019,8.320 19.783,8.320 20.021 C 8.320 21.360,9.247 22.555,10.560 22.910 C 10.945 23.014,13.055 23.014,13.440 22.910 C 14.753 22.555,15.680 21.360,15.680 20.021 C 15.680 19.783,15.589 19.019,15.420 17.840 C 15.277 16.842,15.160 16.019,15.160 16.012 C 15.160 16.006,15.863 16.000,16.722 16.000 C 18.425 16.000,18.624 15.981,19.150 15.767 C 19.850 15.482,20.482 14.850,20.767 14.150 C 21.008 13.557,21.000 13.773,21.000 8.044 C 21.000 4.373,20.987 2.740,20.956 2.592 C 20.797 1.830,20.138 1.181,19.383 1.043 C 19.076 0.987,4.875 0.991,4.580 1.047 M7.000 6.000 L 7.000 9.000 6.000 9.000 L 5.000 9.000 5.000 6.000 L 5.000 3.000 6.000 3.000 L 7.000 3.000 7.000 6.000 M11.000 6.000 L 11.000 9.000 10.000 9.000 L 9.000 9.000 9.000 6.000 L 9.000 3.000 10.000 3.000 L 11.000 3.000 11.000 6.000 M15.000 6.000 L 15.000 9.000 14.000 9.000 L 13.000 9.000 13.000 6.000 L 13.000 3.000 14.000 3.000 L 15.000 3.000 15.000 6.000 M19.000 6.000 L 19.000 9.000 18.000 9.000 L 17.000 9.000 17.000 6.000 L 17.000 3.000 18.000 3.000 L 19.000 3.000 19.000 6.000 M19.000 12.073 C 19.000 13.308,18.979 13.423,18.701 13.701 C 18.379 14.023,18.903 14.000,12.000 14.000 C 5.097 14.000,5.621 14.023,5.299 13.701 C 5.021 13.423,5.000 13.308,5.000 12.073 L 5.000 11.000 12.000 11.000 L 19.000 11.000 19.000 12.073 M13.139 16.090 C 13.195 16.345,13.680 19.886,13.679 20.040 C 13.677 20.376,13.459 20.721,13.140 20.894 C 12.989 20.975,12.928 20.980,12.000 20.980 C 11.072 20.980,11.011 20.975,10.860 20.894 C 10.541 20.721,10.323 20.376,10.321 20.040 C 10.320 19.886,10.805 16.345,10.861 16.090 L 10.882 16.000 12.000 16.000 L 13.118 16.000 13.139 16.090 " fill="#000640" stroke="none" fill-rule="evenodd"></path></svg>