<svg xmlns="http://www.w3.org/2000/svg" width="24" height="24" fill="currentColor" class="mmi mmi-pants" viewBox="0 0 24 24"><path d="M4.670 1.057 C 4.453 1.135,4.257 1.297,4.139 1.498 C 4.045 1.658,3.902 2.524,2.516 11.287 C 1.371 18.526,1.000 20.953,1.015 21.116 C 1.041 21.393,1.204 21.661,1.445 21.823 C 1.614 21.937,1.821 21.984,4.264 22.473 C 5.714 22.763,6.955 23.000,7.023 23.000 C 7.242 23.000,7.528 22.875,7.697 22.704 C 7.846 22.554,8.035 22.121,9.920 17.590 C 11.053 14.868,11.989 12.641,12.000 12.641 C 12.011 12.641,12.947 14.868,14.080 17.590 C 15.965 22.121,16.154 22.554,16.303 22.704 C 16.473 22.875,16.758 23.000,16.978 23.000 C 17.131 23.000,22.214 21.984,22.380 21.921 C 22.706 21.795,22.952 21.467,22.985 21.112 C 23.000 20.955,22.614 18.427,21.484 11.287 C 20.098 2.524,19.955 1.658,19.861 1.498 C 19.804 1.402,19.699 1.277,19.626 1.222 C 19.317 0.986,19.801 1.000,11.985 1.002 C 6.104 1.003,4.793 1.013,4.670 1.057 M18.214 3.450 C 18.253 3.698,18.294 3.959,18.306 4.030 L 18.329 4.160 11.999 4.160 L 5.670 4.160 5.692 4.050 C 5.703 3.990,5.745 3.729,5.783 3.470 L 5.853 3.000 11.999 3.000 L 18.144 3.000 18.214 3.450 M18.653 6.250 C 18.718 6.524,20.845 20.130,20.829 20.171 C 20.805 20.234,17.648 20.866,17.605 20.816 C 17.587 20.796,16.513 18.233,15.217 15.120 C 13.047 9.905,12.849 9.447,12.698 9.296 C 12.312 8.909,11.704 8.908,11.310 9.294 C 11.150 9.450,11.003 9.788,8.785 15.120 C 7.489 18.233,6.414 20.796,6.397 20.816 C 6.353 20.864,3.196 20.235,3.172 20.173 C 3.157 20.136,5.259 6.682,5.344 6.270 L 5.366 6.160 11.999 6.160 L 18.631 6.160 18.653 6.250 " fill="#000640" stroke="none" fill-rule="evenodd"></path></svg>