<svg xmlns="http://www.w3.org/2000/svg" width="24" height="24" fill="currentColor" class="mmi mmi-panties" viewBox="0 0 24 24"><path d="M2.659 3.064 C 2.434 3.143,2.222 3.329,2.126 3.530 C 2.027 3.736,1.000 7.824,1.000 8.012 C 1.000 8.241,1.123 8.525,1.296 8.697 C 1.420 8.821,1.586 8.912,1.980 9.076 C 3.134 9.555,4.388 10.247,5.180 10.841 C 7.066 12.256,8.188 14.091,8.679 16.558 C 8.871 17.522,8.935 18.178,9.012 19.985 C 9.028 20.354,9.140 20.599,9.374 20.778 C 9.664 21.000,9.670 21.000,11.998 21.000 C 14.428 21.000,14.399 21.003,14.701 20.701 C 14.929 20.474,15.000 20.245,15.000 19.743 C 15.001 19.122,15.073 17.841,15.143 17.220 C 15.599 13.148,17.139 11.060,20.828 9.507 C 21.115 9.386,21.597 9.201,21.898 9.097 C 22.513 8.884,22.707 8.764,22.860 8.504 C 23.067 8.151,23.063 8.122,22.482 5.800 C 22.193 4.645,21.919 3.623,21.874 3.530 C 21.830 3.436,21.728 3.306,21.649 3.241 C 21.334 2.982,22.063 3.000,11.983 3.003 C 4.135 3.006,2.797 3.015,2.659 3.064 M20.512 6.167 C 20.672 6.808,20.789 7.345,20.771 7.360 C 20.754 7.374,20.524 7.473,20.260 7.579 C 17.142 8.831,15.160 10.605,14.107 13.083 C 13.541 14.417,13.160 16.207,13.061 18.000 C 13.048 18.231,13.028 18.550,13.016 18.710 L 12.993 19.000 12.001 19.000 C 10.879 19.000,10.960 19.027,10.960 18.656 C 10.960 18.033,10.758 16.609,10.540 15.696 C 10.020 13.520,9.147 11.887,7.722 10.425 C 6.690 9.367,5.528 8.554,3.905 7.756 C 3.556 7.584,3.250 7.436,3.225 7.428 C 3.195 7.418,3.281 7.005,3.479 6.206 L 3.778 5.000 12.000 5.000 L 20.221 5.000 20.512 6.167 " fill="#000640" stroke="none" fill-rule="evenodd"></path></svg>