<svg xmlns="http://www.w3.org/2000/svg" width="24" height="24" fill="currentColor" class="mmi mmi-pants-v2" viewBox="0 0 24 24"><path d="M4.643 1.069 C 4.390 1.158,4.142 1.422,4.062 1.685 C 3.965 2.011,3.561 4.512,2.218 13.100 C 1.316 18.869,0.999 20.991,1.015 21.134 C 1.054 21.474,1.304 21.799,1.620 21.921 C 1.786 21.984,6.869 23.000,7.022 23.000 C 7.242 23.000,7.527 22.875,7.697 22.704 C 7.846 22.554,8.035 22.121,9.920 17.590 C 11.053 14.868,11.989 12.641,12.000 12.641 C 12.011 12.641,12.947 14.868,14.080 17.590 C 15.965 22.121,16.154 22.554,16.303 22.704 C 16.473 22.875,16.758 23.000,16.978 23.000 C 17.131 23.000,22.214 21.984,22.380 21.921 C 22.696 21.799,22.946 21.474,22.985 21.134 C 23.001 20.991,22.684 18.869,21.782 13.100 C 20.439 4.512,20.035 2.011,19.938 1.685 C 19.893 1.539,19.820 1.418,19.704 1.302 C 19.376 0.974,20.032 1.000,11.983 1.003 C 5.602 1.006,4.801 1.013,4.643 1.069 M7.600 3.035 C 7.600 3.104,7.471 3.383,7.355 3.566 C 7.214 3.788,7.069 3.857,6.616 3.916 C 6.283 3.960,5.730 3.984,5.704 3.956 C 5.695 3.947,5.722 3.742,5.764 3.500 C 5.805 3.258,5.839 3.046,5.840 3.030 C 5.840 3.014,6.236 3.000,6.720 3.000 C 7.204 3.000,7.600 3.016,7.600 3.035 M11.008 4.653 L 11.020 6.306 11.141 6.503 C 11.543 7.156,12.457 7.156,12.859 6.503 L 12.980 6.306 12.992 4.653 L 13.003 3.000 13.638 3.000 L 14.273 3.000 14.343 3.190 C 14.761 4.338,14.939 4.667,15.376 5.104 C 15.982 5.709,16.580 5.899,18.148 5.984 C 18.634 6.010,18.636 6.010,18.657 6.115 C 18.742 6.531,20.844 20.133,20.829 20.171 C 20.804 20.235,17.648 20.866,17.603 20.816 C 17.586 20.796,16.511 18.233,15.215 15.120 C 13.054 9.926,12.847 9.447,12.697 9.296 C 12.313 8.909,11.687 8.909,11.303 9.296 C 11.153 9.447,10.946 9.926,8.785 15.120 C 7.489 18.233,6.414 20.796,6.397 20.816 C 6.352 20.866,3.196 20.235,3.171 20.171 C 3.156 20.132,5.258 6.529,5.343 6.114 C 5.364 6.009,5.372 6.007,5.752 5.984 C 7.477 5.879,8.015 5.726,8.602 5.172 C 9.034 4.765,9.354 4.185,9.642 3.290 L 9.736 3.000 10.366 3.000 L 10.997 3.000 11.008 4.653 M18.160 3.030 C 18.161 3.046,18.195 3.258,18.236 3.500 C 18.278 3.742,18.304 3.949,18.293 3.959 C 18.265 3.988,17.738 3.962,17.400 3.915 C 16.850 3.838,16.731 3.747,16.501 3.226 L 16.401 3.000 17.281 3.000 C 17.764 3.000,18.160 3.014,18.160 3.030 " fill="#000640" stroke="none" fill-rule="evenodd"></path></svg>