<svg xmlns="http://www.w3.org/2000/svg" width="24" height="24" fill="currentColor" class="mmi mmi-papercup-hot" viewBox="0 0 24 24"><path d="M7.643 1.069 C 7.407 1.152,7.149 1.416,7.066 1.660 C 6.968 1.948,6.968 4.052,7.066 4.340 C 7.192 4.709,7.604 5.000,8.000 5.000 C 8.396 5.000,8.808 4.709,8.934 4.340 C 9.032 4.052,9.032 1.948,8.934 1.660 C 8.761 1.152,8.172 0.882,7.643 1.069 M11.643 1.069 C 11.407 1.152,11.149 1.416,11.066 1.660 C 10.968 1.948,10.968 4.052,11.066 4.340 C 11.192 4.709,11.604 5.000,12.000 5.000 C 12.396 5.000,12.808 4.709,12.934 4.340 C 13.032 4.052,13.032 1.948,12.934 1.660 C 12.761 1.152,12.172 0.882,11.643 1.069 M15.664 1.063 C 15.436 1.146,15.257 1.297,15.131 1.511 L 15.020 1.700 15.008 2.908 C 14.995 4.232,15.007 4.338,15.211 4.606 C 15.678 5.218,16.688 5.062,16.934 4.340 C 17.032 4.052,17.032 1.948,16.934 1.660 C 16.764 1.160,16.165 0.879,15.664 1.063 M7.674 6.059 C 7.229 6.224,7.164 6.336,6.681 7.780 L 6.272 9.000 5.063 9.000 C 3.678 9.000,3.582 9.016,3.299 9.299 C 3.005 9.593,3.000 9.629,3.000 11.500 C 3.000 13.371,3.005 13.407,3.299 13.701 C 3.475 13.877,3.758 14.000,3.987 14.000 C 4.070 14.000,4.120 14.020,4.120 14.052 C 4.120 14.081,4.282 15.562,4.480 17.342 C 4.855 20.716,4.882 20.889,5.119 21.359 C 5.489 22.092,6.213 22.675,7.040 22.907 C 7.285 22.976,7.574 22.980,12.000 22.980 C 16.426 22.980,16.715 22.976,16.960 22.907 C 17.968 22.624,18.761 21.867,19.062 20.900 C 19.143 20.639,19.227 19.984,19.521 17.342 C 19.718 15.562,19.880 14.081,19.880 14.052 C 19.880 14.020,19.930 14.000,20.013 14.000 C 20.396 14.000,20.810 13.704,20.934 13.340 C 21.029 13.060,21.033 9.952,20.939 9.675 C 20.855 9.430,20.677 9.226,20.450 9.114 C 20.266 9.023,20.220 9.019,18.986 9.000 L 17.712 8.980 17.313 7.769 C 16.871 6.429,16.804 6.299,16.461 6.122 L 16.262 6.020 12.041 6.013 C 8.580 6.006,7.794 6.015,7.674 6.059 M15.423 8.450 C 15.505 8.697,15.580 8.922,15.590 8.950 C 15.605 8.990,14.870 9.000,12.000 9.000 C 9.130 9.000,8.395 8.990,8.410 8.950 C 8.420 8.922,8.495 8.697,8.577 8.450 L 8.727 8.000 12.000 8.000 L 15.273 8.000 15.423 8.450 M19.000 11.500 L 19.000 12.000 12.000 12.000 L 5.000 12.000 5.000 11.500 L 5.000 11.000 12.000 11.000 L 19.000 11.000 19.000 11.500 M17.880 14.039 C 17.880 14.060,17.727 15.451,17.539 17.129 C 17.326 19.039,17.175 20.245,17.134 20.354 C 17.053 20.575,16.874 20.780,16.664 20.892 L 16.500 20.980 12.000 20.980 L 7.500 20.980 7.334 20.891 C 7.124 20.779,6.906 20.526,6.846 20.324 C 6.811 20.208,6.120 14.218,6.120 14.032 C 6.120 14.015,8.766 14.000,12.000 14.000 C 15.779 14.000,17.880 14.014,17.880 14.039 " fill="#000640" stroke="none" fill-rule="evenodd"></path></svg>