<svg xmlns="http://www.w3.org/2000/svg" width="24" height="24" fill="currentColor" class="mmi mmi-paperkite" viewBox="0 0 24 24"><path d="M11.667 1.063 C 11.545 1.102,11.414 1.186,11.310 1.292 C 11.184 1.422,10.114 3.413,6.590 10.072 C 1.600 19.504,1.909 18.876,2.054 19.301 C 2.191 19.703,2.502 19.951,2.914 19.989 C 3.138 20.009,3.304 19.958,7.024 18.719 C 9.156 18.009,10.922 17.420,10.950 17.410 C 10.990 17.395,11.000 17.883,11.000 19.766 C 11.000 21.278,11.015 22.194,11.042 22.289 C 11.103 22.509,11.315 22.762,11.531 22.874 C 11.932 23.080,12.390 23.012,12.700 22.702 C 13.006 22.396,13.000 22.455,13.000 19.769 C 13.000 17.884,13.010 17.395,13.050 17.410 C 13.078 17.420,14.844 18.009,16.976 18.719 C 20.696 19.958,20.862 20.009,21.086 19.989 C 21.498 19.951,21.809 19.703,21.946 19.301 C 22.091 18.876,22.399 19.503,17.419 10.092 C 14.918 5.367,12.823 1.437,12.762 1.360 C 12.531 1.068,12.055 0.939,11.667 1.063 M11.000 10.677 L 11.000 15.273 8.053 16.256 C 6.431 16.796,5.099 17.233,5.092 17.226 C 5.078 17.211,10.965 6.080,10.986 6.080 C 10.994 6.080,11.000 8.148,11.000 10.677 M15.981 11.663 C 17.597 14.716,18.913 17.220,18.907 17.227 C 18.900 17.233,17.569 16.796,15.947 16.256 L 13.000 15.273 13.000 10.670 C 13.000 8.138,13.010 6.077,13.022 6.089 C 13.034 6.101,14.366 8.609,15.981 11.663 " fill="#000640" stroke="none" fill-rule="evenodd"></path></svg>