<svg xmlns="http://www.w3.org/2000/svg" width="24" height="24" fill="currentColor" class="mmi mmi-paperbag-nolabel" viewBox="0 0 24 24"><path d="M6.503 1.042 C 5.571 1.200,4.727 1.840,4.312 2.704 C 4.025 3.300,4.028 3.276,4.010 5.139 L 3.994 6.817 2.996 9.326 L 1.998 11.835 2.010 16.187 C 2.024 21.041,2.001 20.651,2.312 21.296 C 2.614 21.924,3.095 22.398,3.740 22.704 C 4.406 23.019,3.877 23.000,12.000 23.000 C 20.123 23.000,19.594 23.019,20.260 22.704 C 20.920 22.391,21.391 21.920,21.704 21.260 C 22.009 20.616,22.000 20.773,22.000 16.029 L 22.000 11.828 21.000 9.318 L 20.000 6.808 20.000 5.288 C 20.000 3.522,19.976 3.315,19.704 2.740 C 19.398 2.095,18.924 1.614,18.296 1.312 C 17.643 0.998,18.171 1.023,12.120 1.015 C 9.139 1.012,6.611 1.023,6.503 1.042 M17.340 3.066 C 17.593 3.153,17.847 3.407,17.934 3.660 C 17.991 3.828,18.000 4.074,18.000 5.512 L 18.000 7.171 19.000 9.686 L 20.000 12.202 20.000 16.174 C 20.000 20.642,20.017 20.385,19.701 20.701 C 19.380 21.022,19.834 21.000,13.574 21.000 L 8.001 21.000 7.991 16.370 L 7.980 11.740 6.988 9.270 L 5.996 6.800 6.008 5.250 L 6.020 3.700 6.131 3.511 C 6.256 3.298,6.449 3.136,6.670 3.057 C 6.792 3.013,7.774 3.003,11.983 3.002 C 16.686 3.000,17.163 3.006,17.340 3.066 M10.664 4.063 C 10.436 4.146,10.257 4.297,10.131 4.511 C 10.036 4.672,10.020 4.744,10.020 5.000 C 10.020 5.256,10.036 5.328,10.131 5.489 C 10.260 5.709,10.437 5.854,10.678 5.939 C 10.941 6.032,13.064 6.028,13.340 5.934 C 13.709 5.808,14.000 5.396,14.000 5.000 C 14.000 4.604,13.709 4.192,13.340 4.066 C 13.073 3.975,10.910 3.973,10.664 4.063 M5.512 10.981 L 6.000 12.201 6.000 16.603 L 6.000 21.006 5.369 20.993 C 4.783 20.981,4.723 20.973,4.539 20.878 C 4.316 20.763,4.104 20.512,4.042 20.289 C 4.015 20.191,4.000 18.782,4.000 16.171 L 4.000 12.201 4.488 10.981 C 4.756 10.309,4.986 9.760,5.000 9.760 C 5.014 9.760,5.244 10.309,5.512 10.981 " fill="#000640" stroke="none" fill-rule="evenodd"></path></svg>