<svg xmlns="http://www.w3.org/2000/svg" width="24" height="24" fill="currentColor" class="mmi mmi-papercup" viewBox="0 0 24 24"><path d="M7.664 1.063 C 7.440 1.145,7.257 1.297,7.145 1.491 C 7.092 1.584,6.875 2.186,6.662 2.828 L 6.274 3.997 5.006 4.008 L 3.738 4.020 3.539 4.122 C 3.316 4.237,3.104 4.488,3.042 4.711 C 2.986 4.912,2.986 8.088,3.042 8.289 C 3.142 8.649,3.522 8.953,3.922 8.991 C 4.084 9.007,4.125 9.026,4.140 9.095 C 4.150 9.142,4.520 11.718,4.961 14.820 C 5.403 17.922,5.792 20.577,5.827 20.720 C 6.075 21.742,6.862 22.556,7.920 22.886 L 8.220 22.980 12.020 22.980 L 15.820 22.980 16.140 22.870 C 17.180 22.513,17.930 21.721,18.173 20.720 C 18.208 20.577,18.597 17.922,19.039 14.820 C 19.480 11.718,19.850 9.139,19.861 9.090 C 19.877 9.019,19.909 9.000,20.014 9.000 C 20.396 9.000,20.810 8.703,20.934 8.340 C 21.029 8.060,21.033 4.952,20.939 4.675 C 20.855 4.430,20.677 4.226,20.450 4.114 C 20.266 4.023,20.220 4.019,18.986 4.000 L 17.711 3.980 17.315 2.772 C 16.875 1.433,16.806 1.300,16.461 1.122 L 16.262 1.020 12.041 1.013 C 8.454 1.006,7.797 1.014,7.664 1.063 M15.423 3.450 C 15.505 3.698,15.580 3.922,15.590 3.950 C 15.605 3.990,14.870 4.000,12.000 4.000 C 9.130 4.000,8.395 3.990,8.410 3.950 C 8.420 3.922,8.495 3.698,8.577 3.450 L 8.727 3.000 12.000 3.000 L 15.273 3.000 15.423 3.450 M19.000 6.500 L 19.000 7.000 12.000 7.000 L 5.000 7.000 5.000 6.500 L 5.000 6.000 12.000 6.000 L 19.000 6.000 19.000 6.500 M17.840 9.011 C 17.840 9.193,16.221 20.273,16.178 20.389 C 16.099 20.598,15.786 20.887,15.569 20.952 C 15.342 21.021,8.658 21.021,8.431 20.952 C 8.214 20.887,7.901 20.598,7.822 20.389 C 7.779 20.273,6.160 9.193,6.160 9.011 C 6.160 9.005,8.788 9.000,12.000 9.000 C 15.212 9.000,17.840 9.005,17.840 9.011 " fill="#000640" stroke="none" fill-rule="evenodd"></path></svg>