<svg xmlns="http://www.w3.org/2000/svg" width="24" height="24" fill="currentColor" class="mmi mmi-paragraph" viewBox="0 0 24 24"><path d="M9.292 2.041 C 7.896 2.188,6.667 2.768,5.698 3.738 C 4.577 4.858,4.000 6.307,4.000 8.000 C 4.000 9.693,4.577 11.141,5.698 12.263 C 6.730 13.295,8.079 13.895,9.577 13.986 L 10.000 14.012 10.000 17.576 C 10.000 19.908,10.015 21.192,10.042 21.289 C 10.103 21.509,10.315 21.762,10.531 21.874 C 10.932 22.080,11.390 22.012,11.700 21.702 C 12.027 21.375,12.000 22.198,12.000 12.573 L 12.000 4.000 13.500 4.000 L 15.000 4.000 15.000 12.570 C 15.000 18.350,15.014 21.188,15.042 21.289 C 15.103 21.509,15.315 21.762,15.531 21.874 C 15.932 22.080,16.390 22.012,16.700 21.702 C 17.027 21.375,17.000 22.198,17.000 12.573 L 17.000 4.000 18.073 4.000 C 19.308 4.000,19.423 3.979,19.701 3.701 C 20.092 3.310,20.092 2.690,19.701 2.299 C 19.382 1.980,19.741 1.999,14.363 2.005 C 11.732 2.008,9.451 2.024,9.292 2.041 M10.000 8.006 L 10.000 12.012 9.650 11.987 C 8.934 11.936,8.130 11.655,7.583 11.263 C 7.297 11.059,6.884 10.646,6.715 10.397 C 5.780 9.015,5.772 7.008,6.696 5.635 C 7.003 5.179,7.550 4.705,8.068 4.445 C 8.567 4.195,9.279 4.015,9.810 4.004 L 10.000 4.000 10.000 8.006 " fill="#000640" stroke="none" fill-rule="evenodd"></path></svg>