<svg xmlns="http://www.w3.org/2000/svg" width="24" height="24" fill="currentColor" class="mmi mmi-paragraph-push" viewBox="0 0 24 24"><path d="M9.020 2.026 C 7.320 2.228,5.904 3.312,5.301 4.872 C 4.544 6.831,5.244 9.065,6.980 10.230 C 7.483 10.567,8.131 10.830,8.700 10.925 L 9.000 10.976 9.000 13.558 C 9.000 15.213,9.015 16.193,9.042 16.289 C 9.103 16.509,9.315 16.762,9.531 16.874 C 9.932 17.080,10.390 17.012,10.700 16.702 C 11.023 16.379,11.000 16.896,11.000 10.073 L 11.000 4.000 12.500 4.000 L 14.000 4.000 14.000 10.070 C 14.000 14.128,14.014 16.189,14.042 16.289 C 14.103 16.509,14.315 16.762,14.531 16.874 C 14.932 17.080,15.390 17.012,15.700 16.702 C 16.023 16.379,16.000 16.896,16.000 10.073 L 16.000 4.000 17.073 4.000 C 18.308 4.000,18.423 3.979,18.701 3.701 C 19.092 3.310,19.092 2.690,18.701 2.299 C 18.383 1.980,18.708 1.999,13.643 2.006 C 11.166 2.009,9.086 2.018,9.020 2.026 M9.000 6.498 L 9.000 8.956 8.790 8.894 C 8.015 8.666,7.372 8.028,7.109 7.227 C 6.994 6.877,6.994 6.123,7.109 5.773 C 7.368 4.984,7.986 4.362,8.759 4.115 C 8.880 4.076,8.985 4.043,8.990 4.042 C 8.995 4.041,9.000 5.146,9.000 6.498 M18.753 17.055 C 18.402 17.151,18.123 17.445,18.043 17.803 C 17.966 18.153,18.075 18.470,18.389 18.806 L 18.571 19.000 10.713 19.000 C 1.891 19.000,2.624 18.974,2.299 19.299 C 1.908 19.690,1.908 20.310,2.299 20.701 C 2.624 21.026,1.891 21.000,10.716 21.000 L 18.577 21.000 18.393 21.190 C 18.134 21.457,18.030 21.681,18.029 21.978 C 18.026 22.552,18.443 22.970,19.018 22.970 C 19.428 22.970,19.536 22.888,20.770 21.646 C 21.733 20.677,21.877 20.516,21.934 20.343 C 21.970 20.234,22.000 20.080,22.000 20.000 C 22.000 19.920,21.970 19.766,21.934 19.657 C 21.877 19.484,21.733 19.323,20.770 18.354 C 20.064 17.643,19.605 17.212,19.485 17.149 C 19.251 17.023,18.992 16.990,18.753 17.055 " fill="#000640" stroke="none" fill-rule="evenodd"></path></svg>