<svg xmlns="http://www.w3.org/2000/svg" width="24" height="24" fill="currentColor" class="mmi mmi-paragraph-pull" viewBox="0 0 24 24"><path d="M9.020 2.026 C 7.320 2.228,5.904 3.312,5.301 4.872 C 4.544 6.831,5.244 9.065,6.980 10.230 C 7.483 10.567,8.131 10.830,8.700 10.925 L 9.000 10.976 9.000 13.558 C 9.000 15.213,9.015 16.193,9.042 16.289 C 9.103 16.509,9.315 16.762,9.531 16.874 C 9.932 17.080,10.390 17.012,10.700 16.702 C 11.023 16.379,11.000 16.896,11.000 10.073 L 11.000 4.000 12.500 4.000 L 14.000 4.000 14.000 10.070 C 14.000 14.128,14.014 16.189,14.042 16.289 C 14.103 16.509,14.315 16.762,14.531 16.874 C 14.932 17.080,15.390 17.012,15.700 16.702 C 16.023 16.379,16.000 16.896,16.000 10.073 L 16.000 4.000 17.073 4.000 C 18.308 4.000,18.423 3.979,18.701 3.701 C 19.092 3.310,19.092 2.690,18.701 2.299 C 18.383 1.980,18.708 1.999,13.643 2.006 C 11.166 2.009,9.086 2.018,9.020 2.026 M9.000 6.498 L 9.000 8.956 8.790 8.894 C 8.015 8.666,7.372 8.028,7.109 7.227 C 6.994 6.877,6.994 6.123,7.109 5.773 C 7.368 4.984,7.986 4.362,8.759 4.115 C 8.880 4.076,8.985 4.043,8.990 4.042 C 8.995 4.041,9.000 5.146,9.000 6.498 M4.578 17.099 C 4.432 17.171,4.078 17.501,3.255 18.329 C 2.269 19.321,2.123 19.484,2.066 19.657 C 1.983 19.906,1.983 20.094,2.066 20.343 C 2.123 20.516,2.267 20.677,3.230 21.646 C 4.464 22.888,4.572 22.970,4.982 22.970 C 5.557 22.970,5.970 22.556,5.970 21.978 C 5.970 21.686,5.873 21.475,5.611 21.194 L 5.429 21.000 13.287 21.000 C 22.109 21.000,21.376 21.026,21.701 20.701 C 22.092 20.310,22.092 19.690,21.701 19.299 C 21.376 18.974,22.109 19.000,13.287 19.000 L 5.428 19.000 5.636 18.781 C 5.750 18.660,5.878 18.484,5.921 18.391 C 6.007 18.200,6.022 17.900,5.956 17.664 C 5.898 17.454,5.546 17.102,5.336 17.044 C 5.071 16.970,4.796 16.990,4.578 17.099 " fill="#000640" stroke="none" fill-rule="evenodd"></path></svg>