<svg xmlns="http://www.w3.org/2000/svg" width="24" height="24" fill="currentColor" class="mmi mmi-parlement" viewBox="0 0 24 24"><path d="M11.721 1.047 C 11.644 1.069,9.273 2.472,6.451 4.165 C 2.774 6.372,1.293 7.280,1.222 7.374 C 1.006 7.657,1.000 7.715,1.000 9.495 C 1.000 10.505,1.016 11.198,1.042 11.289 C 1.104 11.512,1.316 11.763,1.539 11.878 C 1.723 11.973,1.783 11.981,2.369 11.993 L 3.000 12.006 3.000 15.000 L 3.000 17.994 2.369 18.007 C 1.783 18.019,1.723 18.027,1.539 18.122 C 1.312 18.239,1.102 18.492,1.039 18.722 C 1.011 18.826,1.001 19.467,1.008 20.590 L 1.020 22.300 1.131 22.489 C 1.260 22.709,1.437 22.854,1.678 22.939 C 1.830 22.993,3.022 23.000,11.998 23.000 C 23.385 23.000,22.374 23.028,22.701 22.701 C 22.995 22.407,23.000 22.371,23.000 20.500 C 23.000 18.629,22.995 18.593,22.701 18.299 C 22.454 18.052,22.259 18.000,21.573 18.000 L 21.000 18.000 21.000 15.000 L 21.000 12.000 21.573 12.000 C 22.259 12.000,22.454 11.948,22.701 11.701 C 22.995 11.407,23.000 11.371,23.000 9.498 C 23.000 7.715,22.994 7.657,22.778 7.374 C 22.707 7.280,21.226 6.372,17.549 4.166 C 14.728 2.473,12.348 1.069,12.260 1.045 C 12.070 0.992,11.910 0.993,11.721 1.047 M15.180 5.080 L 18.380 7.000 12.000 6.999 C 8.079 6.998,5.643 6.983,5.680 6.961 C 5.713 6.940,7.144 6.078,8.860 5.045 C 10.576 4.012,11.980 3.165,11.981 3.163 C 11.981 3.162,13.421 4.024,15.180 5.080 M21.000 9.500 L 21.000 10.000 12.000 10.000 L 3.000 10.000 3.000 9.500 L 3.000 9.000 12.000 9.000 L 21.000 9.000 21.000 9.500 M7.000 15.000 L 7.000 18.000 6.000 18.000 L 5.000 18.000 5.000 15.000 L 5.000 12.000 6.000 12.000 L 7.000 12.000 7.000 15.000 M11.000 15.000 L 11.000 18.000 10.000 18.000 L 9.000 18.000 9.000 15.000 L 9.000 12.000 10.000 12.000 L 11.000 12.000 11.000 15.000 M15.000 15.000 L 15.000 18.000 14.000 18.000 L 13.000 18.000 13.000 15.000 L 13.000 12.000 14.000 12.000 L 15.000 12.000 15.000 15.000 M19.000 15.000 L 19.000 18.000 18.000 18.000 L 17.000 18.000 17.000 15.000 L 17.000 12.000 18.000 12.000 L 19.000 12.000 19.000 15.000 M21.000 20.500 L 21.000 21.000 12.000 21.000 L 3.000 21.000 3.000 20.500 L 3.000 20.000 12.000 20.000 L 21.000 20.000 21.000 20.500 " fill="#000640" stroke="none" fill-rule="evenodd"></path></svg>