<svg xmlns="http://www.w3.org/2000/svg" width="24" height="24" fill="currentColor" class="mmi mmi-pause-filled" viewBox="0 0 24 24"><path d="M6.165 1.581 C 5.657 1.722,5.155 2.090,4.857 2.540 C 4.784 2.650,4.674 2.884,4.612 3.060 L 4.500 3.380 4.500 12.000 L 4.500 20.620 4.611 20.933 C 4.868 21.660,5.347 22.138,6.067 22.386 C 6.359 22.487,6.428 22.494,7.080 22.497 C 7.872 22.500,8.065 22.467,8.517 22.248 C 9.102 21.964,9.560 21.364,9.700 20.700 C 9.788 20.279,9.788 3.720,9.700 3.304 C 9.539 2.543,9.025 1.939,8.295 1.652 C 8.032 1.548,7.984 1.543,7.200 1.533 C 6.569 1.524,6.330 1.536,6.165 1.581 M15.940 1.579 C 15.088 1.811,14.481 2.450,14.299 3.307 C 14.212 3.721,14.212 20.282,14.300 20.700 C 14.440 21.364,14.898 21.964,15.483 22.248 C 15.935 22.467,16.128 22.500,16.920 22.497 C 17.572 22.494,17.641 22.487,17.933 22.386 C 18.653 22.138,19.132 21.660,19.389 20.933 L 19.500 20.620 19.500 12.000 L 19.500 3.380 19.389 3.067 C 19.124 2.316,18.547 1.771,17.818 1.581 C 17.510 1.501,16.234 1.500,15.940 1.579 " fill="#000640" stroke="none" fill-rule="evenodd"></path></svg>