<svg xmlns="http://www.w3.org/2000/svg" width="24" height="24" fill="currentColor" class="mmi mmi-pause" viewBox="0 0 24 24"><path d="M6.503 3.040 C 5.476 3.223,4.556 3.976,4.202 4.925 C 3.994 5.481,4.001 5.233,4.001 11.992 C 4.000 17.501,4.008 18.320,4.062 18.581 C 4.310 19.785,5.215 20.690,6.419 20.938 C 6.831 21.024,8.169 21.024,8.581 20.938 C 9.780 20.691,10.691 19.780,10.938 18.581 C 10.992 18.321,11.000 17.500,11.000 12.000 C 11.000 5.123,11.011 5.449,10.766 4.849 C 10.433 4.031,9.661 3.357,8.756 3.093 C 8.505 3.020,6.837 2.981,6.503 3.040 M15.503 3.040 C 14.476 3.223,13.556 3.976,13.202 4.925 C 12.994 5.481,13.001 5.233,13.001 11.992 C 13.000 17.501,13.008 18.320,13.062 18.581 C 13.310 19.785,14.215 20.690,15.419 20.938 C 15.831 21.024,17.169 21.024,17.581 20.938 C 18.780 20.691,19.691 19.780,19.938 18.581 C 19.992 18.321,20.000 17.500,20.000 12.000 C 20.000 5.123,20.011 5.449,19.766 4.849 C 19.433 4.031,18.661 3.357,17.756 3.093 C 17.505 3.020,15.837 2.981,15.503 3.040 M8.340 5.066 C 8.455 5.105,8.603 5.201,8.701 5.299 C 9.023 5.621,9.000 5.097,9.000 12.000 C 9.000 18.903,9.023 18.379,8.701 18.701 C 8.447 18.955,8.266 19.000,7.500 19.000 C 6.734 19.000,6.553 18.955,6.299 18.701 C 5.977 18.379,6.000 18.903,6.000 12.000 C 6.000 5.096,5.976 5.621,6.300 5.298 C 6.552 5.046,6.709 5.007,7.483 5.003 C 8.001 5.001,8.188 5.014,8.340 5.066 M17.340 5.066 C 17.455 5.105,17.603 5.201,17.701 5.299 C 18.023 5.621,18.000 5.097,18.000 12.000 C 18.000 18.903,18.023 18.379,17.701 18.701 C 17.447 18.955,17.266 19.000,16.500 19.000 C 15.734 19.000,15.553 18.955,15.299 18.701 C 14.977 18.379,15.000 18.903,15.000 12.000 C 15.000 5.096,14.976 5.621,15.300 5.298 C 15.552 5.046,15.709 5.007,16.483 5.003 C 17.001 5.001,17.188 5.014,17.340 5.066 " fill="#000640" stroke="none" fill-rule="evenodd"></path></svg>