<svg xmlns="http://www.w3.org/2000/svg" width="24" height="24" fill="currentColor" class="mmi mmi-pctower" viewBox="0 0 24 24"><path d="M6.503 1.042 C 5.817 1.158,5.117 1.573,4.670 2.127 C 4.445 2.407,4.159 2.980,4.074 3.320 C 3.993 3.647,3.993 20.353,4.074 20.680 C 4.159 21.020,4.445 21.593,4.670 21.873 C 4.950 22.220,5.312 22.501,5.740 22.704 C 6.394 23.013,6.109 23.000,12.000 23.000 C 17.891 23.000,17.606 23.013,18.260 22.704 C 18.920 22.391,19.391 21.920,19.704 21.260 C 20.021 20.591,20.000 21.240,20.000 12.000 C 20.000 2.760,20.021 3.409,19.704 2.740 C 19.398 2.095,18.924 1.614,18.296 1.312 C 17.643 0.998,18.171 1.023,12.120 1.015 C 9.139 1.012,6.611 1.023,6.503 1.042 M17.340 3.066 C 17.593 3.153,17.847 3.407,17.934 3.660 C 17.995 3.838,18.000 4.523,18.000 12.000 C 18.000 21.146,18.027 20.376,17.700 20.702 C 17.380 21.023,17.786 21.002,11.937 20.990 L 6.738 20.980 6.539 20.878 C 6.313 20.761,6.102 20.509,6.041 20.283 C 6.013 20.178,6.003 17.490,6.010 11.914 L 6.020 3.700 6.131 3.511 C 6.256 3.298,6.449 3.136,6.670 3.057 C 6.792 3.013,7.774 3.003,11.983 3.002 C 16.686 3.000,17.163 3.006,17.340 3.066 M8.664 5.063 C 8.436 5.146,8.257 5.297,8.131 5.511 C 8.036 5.672,8.020 5.744,8.020 6.000 C 8.020 6.256,8.036 6.328,8.131 6.489 C 8.192 6.592,8.301 6.723,8.374 6.778 C 8.672 7.006,8.578 7.000,11.998 7.000 C 15.545 7.000,15.390 7.013,15.701 6.701 C 16.092 6.310,16.092 5.690,15.701 5.299 C 15.389 4.987,15.547 5.000,11.983 5.003 C 9.342 5.005,8.794 5.015,8.664 5.063 M8.664 9.063 C 8.436 9.146,8.257 9.297,8.131 9.511 C 8.036 9.672,8.020 9.744,8.020 10.000 C 8.020 10.256,8.036 10.328,8.131 10.489 C 8.192 10.592,8.301 10.723,8.374 10.778 C 8.672 11.006,8.578 11.000,11.998 11.000 C 15.545 11.000,15.390 11.013,15.701 10.701 C 16.092 10.310,16.092 9.690,15.701 9.299 C 15.389 8.987,15.547 9.000,11.983 9.003 C 9.342 9.005,8.794 9.015,8.664 9.063 M11.664 15.063 C 11.436 15.146,11.257 15.297,11.131 15.511 C 11.036 15.672,11.020 15.744,11.020 16.000 C 11.020 16.256,11.036 16.328,11.131 16.489 C 11.470 17.065,12.234 17.168,12.701 16.701 C 12.881 16.521,13.000 16.242,13.000 16.000 C 13.000 15.326,12.295 14.832,11.664 15.063 " fill="#000640" stroke="none" fill-rule="evenodd"></path></svg>