<svg xmlns="http://www.w3.org/2000/svg" width="24" height="24" fill="currentColor" class="mmi mmi-pdf" viewBox="0 0 24 24"><path d="M4.380 1.186 C 3.209 1.437,2.304 2.352,2.063 3.528 C 2.007 3.803,2.000 4.727,2.000 12.120 C 2.000 19.351,2.008 20.441,2.060 20.696 C 2.288 21.797,3.086 22.658,4.200 23.006 L 4.500 23.100 12.000 23.100 L 19.500 23.100 19.800 23.006 C 20.920 22.656,21.719 21.789,21.941 20.682 C 21.994 20.419,22.001 19.638,21.991 14.600 C 21.980 9.065,21.977 8.814,21.906 8.680 C 21.804 8.486,14.705 1.382,14.480 1.247 L 14.300 1.140 9.480 1.133 C 5.327 1.127,4.621 1.134,4.380 1.186 M13.000 5.262 C 13.000 7.016,13.011 7.456,13.060 7.696 C 13.286 8.787,14.063 9.634,15.180 10.005 C 15.458 10.097,15.479 10.098,17.731 10.111 L 20.001 10.124 19.991 15.252 C 19.980 20.255,19.978 20.384,19.902 20.538 C 19.858 20.625,19.754 20.763,19.670 20.845 C 19.365 21.141,19.957 21.120,12.000 21.120 C 3.967 21.120,4.633 21.147,4.299 20.813 C 3.973 20.487,3.998 21.230,4.010 12.018 L 4.020 3.820 4.131 3.631 C 4.256 3.418,4.449 3.256,4.670 3.177 C 4.791 3.134,5.598 3.123,8.910 3.122 L 13.000 3.120 13.000 5.262 M17.212 8.111 C 15.658 8.123,15.600 8.114,15.301 7.814 C 15.013 7.526,15.000 7.445,15.000 5.883 L 15.000 4.540 16.780 6.320 L 18.560 8.100 17.212 8.111 M10.260 6.934 C 9.950 7.037,9.698 7.194,9.494 7.409 C 9.117 7.808,8.977 8.223,9.011 8.840 C 9.061 9.730,9.471 10.735,10.331 12.071 L 10.569 12.442 10.248 13.211 C 10.072 13.634,9.797 14.304,9.638 14.700 C 9.181 15.842,9.247 15.751,8.714 15.955 C 6.638 16.749,5.361 17.814,5.160 18.918 C 5.038 19.591,5.340 20.146,5.994 20.453 C 6.246 20.572,6.285 20.579,6.740 20.578 C 7.167 20.578,7.247 20.566,7.465 20.474 C 8.340 20.102,9.187 19.116,9.991 17.530 L 10.260 17.000 10.469 16.939 C 11.444 16.655,12.519 16.406,13.327 16.279 L 13.633 16.230 13.947 16.538 C 15.421 17.989,16.679 18.581,17.646 18.281 C 18.428 18.038,18.972 17.208,18.837 16.465 C 18.675 15.572,17.809 14.930,16.442 14.691 C 16.162 14.641,15.814 14.623,15.134 14.622 C 14.266 14.620,14.203 14.615,14.120 14.540 C 13.981 14.415,13.032 13.261,12.622 12.720 L 12.251 12.231 12.367 11.845 C 12.731 10.636,12.855 9.251,12.662 8.540 C 12.478 7.864,12.065 7.333,11.510 7.060 C 11.226 6.921,11.167 6.907,10.810 6.894 C 10.557 6.885,10.364 6.899,10.260 6.934 M10.858 8.399 C 11.009 8.456,11.184 8.761,11.241 9.066 C 11.294 9.344,11.275 9.806,11.194 10.278 L 11.149 10.536 10.953 10.146 C 10.714 9.671,10.528 9.127,10.495 8.813 C 10.475 8.612,10.484 8.565,10.559 8.470 C 10.653 8.351,10.701 8.339,10.858 8.399 M12.001 14.360 C 12.204 14.613,12.387 14.841,12.408 14.867 C 12.434 14.900,12.379 14.926,12.212 14.960 C 12.084 14.985,11.785 15.051,11.547 15.107 C 11.310 15.163,11.105 15.198,11.092 15.186 C 11.080 15.173,11.165 14.924,11.281 14.632 C 11.505 14.070,11.598 13.864,11.618 13.886 C 11.625 13.894,11.797 14.107,12.001 14.360 M16.460 16.224 C 16.845 16.319,17.100 16.435,17.238 16.578 L 17.368 16.712 17.284 16.796 C 17.180 16.900,17.113 16.901,16.823 16.801 C 16.568 16.713,16.251 16.530,15.920 16.278 L 15.700 16.111 15.960 16.138 C 16.103 16.153,16.328 16.191,16.460 16.224 M7.955 18.050 C 7.509 18.690,7.012 19.120,6.716 19.120 C 6.492 19.120,7.032 18.540,7.616 18.156 C 7.813 18.026,7.990 17.920,8.010 17.920 C 8.029 17.920,8.005 17.979,7.955 18.050 " fill="#000640" stroke="none" fill-rule="evenodd"></path></svg>