<svg xmlns="http://www.w3.org/2000/svg" width="24" height="24" fill="currentColor" class="mmi mmi-pen-nibs-v2" viewBox="0 0 24 24"><path d="M2.643 2.066 C 2.289 2.196,1.999 2.617,2.001 2.997 C 2.001 3.076,2.862 6.591,3.914 10.808 C 6.026 19.275,5.858 18.694,6.256 18.922 C 6.517 19.071,6.681 19.095,7.076 19.041 C 8.002 18.914,9.314 18.922,10.200 19.061 C 10.714 19.141,11.461 19.315,12.100 19.505 L 12.580 19.647 13.660 20.719 C 14.823 21.873,14.856 21.897,15.261 21.893 C 15.375 21.892,15.541 21.856,15.641 21.810 C 15.778 21.748,16.527 21.019,18.806 18.734 C 22.008 15.523,21.894 15.651,21.894 15.240 C 21.894 14.855,21.862 14.812,20.718 13.660 L 19.645 12.580 19.505 12.100 C 18.953 10.213,18.818 8.742,19.043 7.055 C 19.095 6.661,19.058 6.446,18.896 6.200 C 18.671 5.861,19.120 5.988,10.869 3.931 C 6.684 2.888,3.161 2.027,3.040 2.018 C 2.899 2.007,2.756 2.025,2.643 2.066 M16.943 8.523 C 16.947 9.929,17.091 10.941,17.479 12.300 L 17.639 12.860 15.249 15.249 L 12.860 17.638 12.285 17.479 C 11.605 17.292,10.945 17.150,10.344 17.061 C 9.765 16.976,8.617 16.923,8.008 16.955 L 7.516 16.980 7.491 16.880 C 7.477 16.825,6.877 14.415,6.158 11.526 L 4.851 6.271 6.874 8.294 L 8.897 10.317 8.804 10.569 C 8.413 11.625,8.571 12.729,9.239 13.611 C 9.635 14.134,10.310 14.573,10.980 14.744 C 11.376 14.846,12.078 14.838,12.485 14.728 C 13.371 14.489,14.083 13.908,14.478 13.100 C 14.738 12.570,14.814 12.251,14.813 11.700 C 14.812 10.782,14.400 9.893,13.711 9.323 C 13.382 9.050,12.747 8.742,12.352 8.662 C 11.760 8.543,11.092 8.599,10.566 8.811 L 10.327 8.908 8.299 6.879 L 6.271 4.851 11.606 6.178 L 16.940 7.505 16.943 8.523 M12.186 10.693 C 12.851 11.030,13.000 11.875,12.495 12.438 C 11.980 13.010,11.045 12.881,10.695 12.190 C 10.381 11.570,10.673 10.867,11.348 10.615 C 11.570 10.533,11.937 10.567,12.186 10.693 M19.160 14.900 L 19.499 15.241 17.370 17.370 L 15.241 19.499 14.900 19.160 C 14.713 18.974,14.560 18.803,14.560 18.781 C 14.560 18.728,18.727 14.560,18.781 14.560 C 18.803 14.560,18.974 14.713,19.160 14.900 " fill="#000640" stroke="none" fill-rule="evenodd"></path></svg>