<svg xmlns="http://www.w3.org/2000/svg" width="24" height="24" fill="currentColor" class="mmi mmi-pen-nibs" viewBox="0 0 24 24"><path d="M11.668 1.061 C 11.585 1.092,11.462 1.156,11.395 1.204 C 11.319 1.258,9.730 3.605,7.160 7.461 C 2.725 14.112,2.950 13.749,3.017 14.172 C 3.064 14.465,3.209 14.647,3.709 15.043 C 4.258 15.477,5.068 16.274,5.454 16.760 C 5.840 17.246,6.261 17.888,6.646 18.580 L 6.980 19.180 7.000 20.740 L 7.020 22.300 7.131 22.489 C 7.192 22.592,7.301 22.723,7.374 22.778 C 7.677 23.009,7.484 23.000,11.998 23.000 C 16.663 23.000,16.384 23.018,16.701 22.701 C 16.991 22.411,17.000 22.350,17.000 20.683 L 17.000 19.220 17.342 18.603 C 17.733 17.898,18.154 17.253,18.546 16.760 C 18.932 16.274,19.740 15.480,20.305 15.031 C 20.688 14.727,20.810 14.605,20.882 14.457 C 21.000 14.211,21.026 13.933,20.950 13.710 C 20.863 13.456,12.759 1.313,12.600 1.200 C 12.337 1.013,11.956 0.956,11.668 1.061 M11.000 7.752 L 11.000 10.184 10.850 10.238 C 10.397 10.402,9.826 10.870,9.507 11.339 C 8.839 12.323,8.839 13.679,9.507 14.661 C 10.582 16.239,12.775 16.455,14.115 15.115 C 14.654 14.576,14.941 13.933,14.988 13.159 C 15.062 11.930,14.348 10.763,13.225 10.277 L 13.001 10.180 13.001 7.740 L 13.000 5.300 15.822 9.533 C 17.374 11.862,18.639 13.780,18.632 13.797 C 18.626 13.813,18.451 13.978,18.245 14.163 C 17.303 15.008,16.321 16.288,15.599 17.610 L 15.386 18.000 11.998 18.000 L 8.611 18.000 8.340 17.510 C 7.622 16.213,6.720 15.040,5.780 14.186 C 5.560 13.986,5.380 13.801,5.380 13.776 C 5.380 13.737,10.962 5.324,10.990 5.321 C 10.995 5.321,11.000 6.414,11.000 7.752 M12.340 12.066 C 12.709 12.192,13.000 12.604,13.000 13.000 C 13.000 13.527,12.527 14.000,12.000 14.000 C 11.758 14.000,11.479 13.881,11.299 13.701 C 10.907 13.309,10.908 12.690,11.300 12.298 C 11.577 12.020,11.957 11.936,12.340 12.066 M15.000 20.500 L 15.000 21.000 12.000 21.000 L 9.000 21.000 9.000 20.500 L 9.000 20.000 12.000 20.000 L 15.000 20.000 15.000 20.500 " fill="#000640" stroke="none" fill-rule="evenodd"></path></svg>