<svg xmlns="http://www.w3.org/2000/svg" width="24" height="24" fill="currentColor" class="mmi mmi-pencil-draw" viewBox="0 0 24 24"><path d="M16.640 2.065 C 16.484 2.120,15.517 3.072,9.294 9.294 C 2.548 16.040,2.125 16.472,2.063 16.664 C 2.005 16.845,1.999 17.120,2.009 19.084 L 2.020 21.300 2.131 21.489 C 2.260 21.709,2.437 21.854,2.678 21.939 C 2.944 22.033,7.056 22.030,7.343 21.935 C 7.525 21.875,8.092 21.319,14.671 14.745 C 19.899 9.522,21.825 7.573,21.887 7.444 C 22.006 7.200,22.024 6.935,21.940 6.674 C 21.875 6.473,21.742 6.332,19.745 4.329 C 18.210 2.789,17.570 2.174,17.441 2.111 C 17.214 2.001,16.877 1.982,16.640 2.065 M18.300 5.720 L 19.580 7.000 18.790 7.790 L 18.000 8.580 16.710 7.290 L 15.420 6.000 16.200 5.220 C 16.629 4.791,16.989 4.440,17.000 4.440 C 17.011 4.440,17.596 5.016,18.300 5.720 M15.300 8.720 L 16.580 10.000 12.290 14.290 L 8.000 18.580 6.710 17.290 L 5.420 16.000 9.700 11.720 C 12.054 9.366,13.989 7.440,14.000 7.440 C 14.011 7.440,14.596 8.016,15.300 8.720 M5.300 18.720 L 6.580 20.000 5.290 20.000 L 4.000 20.000 4.000 18.720 C 4.000 18.016,4.005 17.440,4.010 17.440 C 4.016 17.440,4.596 18.016,5.300 18.720 M12.643 20.069 C 12.291 20.193,12.000 20.614,12.000 21.000 C 12.000 21.242,12.119 21.521,12.299 21.701 C 12.616 22.018,12.337 22.000,17.000 22.000 C 21.663 22.000,21.384 22.018,21.701 21.701 C 22.092 21.310,22.092 20.690,21.701 20.299 C 21.384 19.982,21.666 20.000,16.983 20.003 C 13.320 20.006,12.799 20.014,12.643 20.069 " fill="#000640" stroke="none" fill-rule="evenodd"></path></svg>