<svg xmlns="http://www.w3.org/2000/svg" width="24" height="24" fill="currentColor" class="mmi mmi-pencil-filled" viewBox="0 0 24 24"><path d="M16.640 2.065 C 16.484 2.120,15.517 3.072,9.294 9.294 C 2.548 16.040,2.125 16.472,2.063 16.664 C 2.005 16.845,1.999 17.120,2.009 19.084 L 2.020 21.300 2.131 21.489 C 2.260 21.709,2.437 21.854,2.678 21.939 C 2.944 22.033,7.056 22.030,7.343 21.935 C 7.525 21.875,8.092 21.319,14.671 14.745 C 19.899 9.522,21.825 7.573,21.887 7.444 C 22.006 7.200,22.024 6.935,21.940 6.674 C 21.875 6.473,21.742 6.332,19.745 4.329 C 18.210 2.789,17.570 2.174,17.441 2.111 C 17.214 2.001,16.877 1.982,16.640 2.065 " fill="#000640" stroke="none" fill-rule="evenodd"></path></svg>