<svg xmlns="http://www.w3.org/2000/svg" width="24" height="24" fill="currentColor" class="mmi mmi-penmarker" viewBox="0 0 24 24"><path d="M11.200 0.025 C 7.677 0.288,4.535 1.992,2.410 4.793 C 1.201 6.386,0.442 8.222,0.109 10.359 C -0.013 11.143,-0.013 12.857,0.109 13.641 C 0.563 16.554,1.872 19.025,3.948 20.887 C 5.791 22.541,7.832 23.497,10.359 23.891 C 11.143 24.013,12.857 24.013,13.641 23.891 C 16.557 23.436,19.036 22.122,20.896 20.043 C 22.545 18.200,23.498 16.163,23.891 13.641 C 24.013 12.857,24.013 11.143,23.891 10.359 C 23.557 8.220,22.799 6.386,21.588 4.790 C 19.607 2.179,16.767 0.532,13.500 0.099 C 13.032 0.037,11.640 -0.007,11.200 0.025 M13.493 2.119 C 16.344 2.566,18.757 4.110,20.341 6.499 C 21.173 7.755,21.662 9.050,21.905 10.640 C 21.990 11.203,22.003 12.632,21.927 13.200 C 21.675 15.089,20.967 16.784,19.837 18.200 C 19.374 18.780,19.171 18.991,19.144 18.920 C 19.132 18.887,18.860 17.810,18.540 16.526 C 18.220 15.243,17.923 14.125,17.881 14.043 C 17.791 13.866,17.560 13.653,17.374 13.575 C 17.302 13.545,17.162 13.520,17.064 13.520 C 16.965 13.520,16.874 13.503,16.862 13.483 C 16.849 13.463,16.796 13.233,16.743 12.973 C 16.337 10.982,15.688 9.145,14.996 8.030 C 14.343 6.976,13.521 6.294,12.640 6.075 C 12.328 5.998,11.602 6.009,11.283 6.096 C 10.428 6.329,9.649 6.990,9.004 8.030 C 8.317 9.137,7.689 10.900,7.280 12.868 C 7.213 13.188,7.149 13.466,7.137 13.485 C 7.125 13.504,7.035 13.520,6.936 13.520 C 6.838 13.520,6.698 13.545,6.626 13.575 C 6.440 13.653,6.209 13.866,6.119 14.043 C 6.077 14.125,5.780 15.243,5.460 16.526 C 5.140 17.810,4.868 18.887,4.856 18.920 C 4.829 18.991,4.626 18.780,4.163 18.200 C 3.059 16.816,2.382 15.233,2.094 13.360 C 1.988 12.670,1.997 11.243,2.113 10.528 C 2.581 7.631,4.103 5.248,6.499 3.659 C 7.918 2.719,9.490 2.181,11.280 2.024 C 11.711 1.986,12.998 2.041,13.493 2.119 M12.392 8.122 C 13.081 8.466,13.838 9.839,14.376 11.720 C 14.520 12.222,14.800 13.377,14.800 13.470 C 14.800 13.510,14.213 13.520,11.996 13.520 L 9.191 13.520 9.217 13.370 C 9.232 13.287,9.325 12.887,9.425 12.480 C 9.983 10.196,10.825 8.513,11.606 8.123 C 11.919 7.967,12.081 7.967,12.392 8.122 M16.817 17.910 C 17.144 19.225,17.420 20.320,17.429 20.345 C 17.469 20.457,16.098 21.163,15.319 21.433 C 14.145 21.838,13.290 21.979,12.000 21.979 C 10.712 21.979,9.878 21.842,8.687 21.435 C 7.917 21.172,6.531 20.458,6.571 20.345 C 6.580 20.320,6.856 19.225,7.183 17.910 L 7.779 15.520 12.000 15.520 L 16.221 15.520 16.817 17.910 " fill="#000640" stroke="none" fill-rule="evenodd"></path></svg>