<svg xmlns="http://www.w3.org/2000/svg" width="24" height="24" fill="currentColor" class="mmi mmi-pentools" viewBox="0 0 24 24"><path d="M9.643 1.069 C 9.407 1.152,9.149 1.416,9.066 1.660 C 9.013 1.816,9.000 2.015,9.000 2.661 L 9.000 3.467 8.830 3.518 C 8.736 3.545,8.462 3.648,8.220 3.746 C 7.089 4.206,6.012 4.904,5.097 5.770 L 4.764 6.085 4.436 6.037 C 3.148 5.849,1.910 6.497,1.337 7.660 C 1.092 8.159,1.025 8.445,1.023 9.000 C 1.022 9.557,1.087 9.830,1.346 10.358 C 1.499 10.670,1.591 10.796,1.876 11.082 C 2.375 11.584,2.839 11.831,3.499 11.946 C 4.538 12.127,5.605 11.731,6.314 10.901 C 6.522 10.657,6.815 10.074,6.908 9.720 C 7.005 9.352,7.002 8.588,6.902 8.240 C 6.828 7.982,6.664 7.614,6.518 7.377 L 6.442 7.254 6.611 7.093 C 7.061 6.661,7.750 6.187,8.400 5.861 C 9.036 5.543,9.000 5.542,9.000 5.870 C 9.000 6.578,9.413 7.000,10.107 7.000 C 10.246 7.000,10.360 7.009,10.360 7.020 C 10.360 7.031,9.390 8.981,8.203 11.354 C 6.693 14.375,6.038 15.724,6.019 15.854 C 5.965 16.214,6.023 16.329,7.042 17.861 L 8.000 19.301 8.000 20.723 C 8.000 22.346,8.010 22.412,8.299 22.701 C 8.610 23.013,8.456 23.000,12.000 23.000 C 15.544 23.000,15.390 23.013,15.701 22.701 C 15.990 22.412,16.000 22.346,16.000 20.723 L 16.000 19.301 16.958 17.861 C 17.977 16.329,18.035 16.214,17.981 15.854 C 17.962 15.724,17.307 14.375,15.797 11.354 C 14.610 8.981,13.640 7.031,13.640 7.020 C 13.640 7.009,13.754 7.000,13.893 7.000 C 14.237 7.000,14.499 6.903,14.701 6.701 C 14.907 6.495,15.000 6.236,15.000 5.870 C 15.000 5.542,14.964 5.543,15.600 5.861 C 16.250 6.187,16.939 6.661,17.389 7.093 L 17.558 7.254 17.482 7.377 C 17.149 7.916,17.023 8.354,17.023 8.980 C 17.023 9.527,17.085 9.818,17.298 10.267 C 17.475 10.643,17.591 10.810,17.870 11.093 C 18.571 11.805,19.569 12.125,20.523 11.945 C 21.128 11.830,21.669 11.553,22.082 11.145 C 22.372 10.859,22.508 10.669,22.693 10.294 C 22.914 9.847,22.977 9.564,22.977 9.020 C 22.977 8.444,22.913 8.168,22.663 7.660 C 22.359 7.043,21.945 6.635,21.300 6.317 C 20.719 6.031,20.154 5.944,19.516 6.043 L 19.236 6.087 18.923 5.787 C 18.262 5.156,17.456 4.577,16.637 4.145 C 16.217 3.924,15.486 3.611,15.170 3.518 L 15.000 3.467 15.000 2.661 C 15.000 1.719,14.966 1.564,14.701 1.299 C 14.398 0.996,14.430 1.000,11.983 1.003 C 10.132 1.006,9.795 1.015,9.643 1.069 M13.000 4.000 L 13.000 5.000 12.000 5.000 L 11.000 5.000 11.000 4.000 L 11.000 3.000 12.000 3.000 L 13.000 3.000 13.000 4.000 M4.340 8.066 C 4.709 8.192,5.000 8.604,5.000 9.000 C 5.000 9.242,4.881 9.521,4.701 9.701 C 4.234 10.168,3.470 10.065,3.131 9.489 C 3.036 9.328,3.020 9.256,3.020 9.000 C 3.020 8.744,3.036 8.672,3.131 8.511 C 3.386 8.077,3.860 7.903,4.340 8.066 M20.340 8.066 C 20.709 8.192,21.000 8.604,21.000 9.000 C 21.000 9.242,20.881 9.521,20.701 9.701 C 20.234 10.168,19.470 10.065,19.131 9.489 C 19.036 9.328,19.020 9.256,19.020 9.000 C 19.020 8.744,19.036 8.672,19.131 8.511 C 19.386 8.077,19.860 7.903,20.340 8.066 M13.933 12.105 L 15.845 15.931 15.156 16.965 L 14.468 18.000 12.000 18.000 L 9.532 18.000 8.844 16.965 L 8.155 15.931 10.067 12.105 C 11.119 10.001,11.989 8.280,12.000 8.280 C 12.011 8.280,12.881 10.001,13.933 12.105 M11.664 13.063 C 11.436 13.146,11.257 13.297,11.131 13.511 C 11.036 13.672,11.020 13.744,11.020 14.000 C 11.020 14.256,11.036 14.328,11.131 14.489 C 11.470 15.065,12.234 15.168,12.701 14.701 C 12.881 14.521,13.000 14.242,13.000 14.000 C 13.000 13.326,12.295 12.832,11.664 13.063 M14.000 20.500 L 14.000 21.000 12.000 21.000 L 10.000 21.000 10.000 20.500 L 10.000 20.000 12.000 20.000 L 14.000 20.000 14.000 20.500 " fill="#000640" stroke="none" fill-rule="evenodd"></path></svg>