<svg xmlns="http://www.w3.org/2000/svg" width="24" height="24" fill="currentColor" class="mmi mmi-phonecall-ringing" viewBox="0 0 24 24"><path d="M5.127 2.538 C 4.834 2.609,4.302 2.881,4.052 3.089 C 3.428 3.605,2.685 4.921,2.341 6.116 C 1.879 7.726,1.981 9.311,2.639 10.740 C 2.922 11.356,3.688 12.544,4.476 13.591 C 6.234 15.925,8.342 17.881,11.080 19.718 C 12.374 20.586,12.878 20.863,13.622 21.114 C 14.799 21.511,15.959 21.570,17.195 21.295 C 18.329 21.043,19.590 20.439,20.268 19.824 C 20.546 19.572,20.831 19.135,20.974 18.741 C 21.125 18.325,21.164 17.657,21.063 17.220 C 20.961 16.783,20.712 16.320,20.405 16.000 C 19.944 15.518,17.697 13.654,17.395 13.503 C 16.861 13.236,16.228 13.226,15.700 13.475 C 15.568 13.538,14.932 13.906,14.287 14.294 C 13.642 14.682,13.101 15.000,13.083 15.000 C 13.031 15.000,12.244 14.409,11.780 14.021 C 10.607 13.041,9.328 11.695,8.726 10.809 L 8.565 10.572 9.308 9.336 C 9.717 8.656,10.096 7.992,10.151 7.860 C 10.300 7.503,10.321 6.951,10.202 6.554 C 10.079 6.146,10.001 6.025,9.376 5.277 C 9.074 4.915,8.597 4.339,8.316 3.996 C 8.034 3.653,7.694 3.270,7.559 3.146 C 7.285 2.892,6.716 2.595,6.368 2.523 C 6.086 2.466,5.393 2.474,5.127 2.538 M6.126 4.570 C 6.207 4.620,6.579 5.034,6.962 5.500 C 7.342 5.962,7.794 6.506,7.966 6.708 C 8.139 6.911,8.280 7.094,8.280 7.115 C 8.280 7.137,7.887 7.809,7.407 8.608 C 6.927 9.408,6.513 10.123,6.487 10.197 C 6.362 10.556,6.455 10.922,6.834 11.560 C 7.802 13.189,10.497 15.805,12.337 16.901 C 12.775 17.162,13.015 17.224,13.300 17.149 C 13.425 17.116,14.059 16.763,14.995 16.204 C 16.292 15.430,16.502 15.317,16.575 15.354 C 16.734 15.434,18.937 17.340,19.032 17.480 C 19.113 17.599,19.125 17.658,19.112 17.870 C 19.093 18.177,19.025 18.277,18.666 18.525 C 17.359 19.431,15.595 19.704,14.228 19.213 C 13.690 19.020,13.212 18.747,12.092 17.992 C 9.094 15.972,6.769 13.627,5.002 10.840 C 4.550 10.127,4.351 9.719,4.209 9.211 C 4.107 8.846,4.100 8.769,4.101 8.040 C 4.102 7.316,4.110 7.230,4.213 6.841 C 4.405 6.117,4.802 5.287,5.220 4.736 C 5.419 4.475,5.845 4.397,6.126 4.570 " fill="#000640" stroke="none" fill-rule="evenodd"></path></svg>