<svg xmlns="http://www.w3.org/2000/svg" width="24" height="24" fill="currentColor" class="mmi mmi-phonecall-voice-v2" viewBox="0 0 24 24"><path d="M11.800 3.197 C 11.599 3.238,11.435 3.333,11.268 3.505 C 11.007 3.774,11.000 3.829,11.000 5.577 C 11.000 6.530,11.017 7.198,11.042 7.289 C 11.141 7.647,11.522 7.953,11.917 7.991 C 12.351 8.032,12.800 7.743,12.936 7.332 C 12.995 7.156,13.001 6.937,12.991 5.516 C 12.981 4.055,12.973 3.886,12.908 3.756 C 12.703 3.344,12.235 3.108,11.800 3.197 M7.549 6.043 C 7.323 6.097,7.190 6.177,7.029 6.356 C 6.759 6.654,6.703 7.079,6.882 7.460 C 6.992 7.694,8.527 9.211,8.760 9.317 C 8.992 9.422,9.360 9.425,9.582 9.325 C 9.783 9.234,10.066 8.918,10.119 8.725 C 10.190 8.471,10.168 8.193,10.061 7.978 C 9.939 7.733,8.461 6.249,8.220 6.130 C 8.021 6.031,7.747 5.996,7.549 6.043 M15.818 6.099 C 15.544 6.235,14.038 7.746,13.923 8.000 C 13.750 8.383,13.830 8.795,14.137 9.103 C 14.367 9.332,14.532 9.400,14.860 9.399 C 15.217 9.398,15.355 9.299,16.231 8.428 C 17.146 7.517,17.241 7.382,17.239 6.982 C 17.238 6.674,17.145 6.469,16.910 6.253 C 16.612 5.979,16.180 5.918,15.818 6.099 M11.180 11.044 C 9.262 11.163,6.637 11.648,5.526 12.090 C 4.182 12.624,3.015 13.663,2.257 15.001 C 1.729 15.934,1.320 17.273,1.320 18.067 C 1.320 19.240,2.097 20.303,3.218 20.662 C 3.393 20.718,3.672 20.774,3.838 20.786 C 4.147 20.808,6.656 20.599,7.071 20.516 C 7.618 20.407,8.203 19.943,8.438 19.432 C 8.515 19.265,8.663 18.702,8.875 17.764 C 9.051 16.985,9.217 16.334,9.244 16.318 C 9.312 16.276,10.297 16.127,10.840 16.078 C 11.444 16.022,13.063 16.023,13.620 16.078 C 14.220 16.138,14.762 16.240,14.784 16.296 C 14.794 16.322,14.954 17.005,15.139 17.814 C 15.425 19.062,15.497 19.322,15.615 19.533 C 15.883 20.013,16.423 20.415,16.937 20.518 C 17.049 20.540,17.743 20.612,18.480 20.678 C 19.901 20.804,20.135 20.802,20.640 20.656 C 21.135 20.514,21.702 20.133,22.021 19.730 C 22.272 19.413,22.501 18.942,22.582 18.576 C 22.831 17.457,22.260 15.490,21.289 14.121 C 20.957 13.654,20.288 12.977,19.855 12.670 C 19.496 12.415,18.898 12.089,18.511 11.935 C 18.373 11.881,18.026 11.775,17.740 11.700 C 15.590 11.134,13.344 10.910,11.180 11.044 M14.320 13.096 C 16.146 13.301,17.671 13.669,18.330 14.064 C 19.248 14.614,19.927 15.461,20.333 16.560 C 20.520 17.067,20.694 17.854,20.660 18.036 C 20.596 18.374,20.345 18.664,20.034 18.757 C 19.900 18.797,19.668 18.787,18.650 18.694 C 17.946 18.629,17.409 18.563,17.382 18.537 C 17.358 18.512,17.169 17.746,16.964 16.836 C 16.758 15.925,16.557 15.114,16.517 15.034 C 16.296 14.600,15.576 14.317,14.215 14.132 C 13.466 14.030,11.072 14.031,10.220 14.134 C 9.174 14.260,8.108 14.491,7.853 14.646 C 7.693 14.743,7.511 14.949,7.449 15.102 C 7.422 15.167,7.232 15.965,7.026 16.874 C 6.819 17.784,6.631 18.541,6.608 18.555 C 6.534 18.601,4.054 18.812,3.909 18.784 C 3.700 18.745,3.462 18.554,3.386 18.363 C 3.301 18.152,3.304 17.980,3.398 17.560 C 3.761 15.932,4.745 14.642,6.100 14.016 C 6.816 13.685,9.144 13.214,10.720 13.081 C 10.995 13.058,11.292 13.032,11.380 13.023 C 11.746 12.988,13.815 13.039,14.320 13.096 " fill="#000640" stroke="none" fill-rule="evenodd"></path></svg>