<svg xmlns="http://www.w3.org/2000/svg" width="24" height="24" fill="currentColor" class="mmi mmi-phonecall-deduct" viewBox="0 0 24 24"><path d="M5.055 2.637 C 4.531 2.779,3.966 3.130,3.648 3.512 C 2.786 4.546,2.141 6.187,2.044 7.597 C 1.945 9.019,2.267 10.233,3.099 11.580 C 5.140 14.886,7.704 17.481,11.240 19.820 C 12.535 20.676,12.878 20.863,13.621 21.115 C 14.457 21.398,15.418 21.517,16.240 21.440 C 17.500 21.322,18.697 20.905,19.740 20.220 C 20.378 19.801,20.737 19.371,20.971 18.744 C 21.126 18.328,21.166 17.665,21.063 17.220 C 20.961 16.783,20.712 16.320,20.405 16.000 C 19.944 15.518,17.697 13.654,17.395 13.503 C 16.861 13.236,16.228 13.226,15.700 13.475 C 15.568 13.538,14.930 13.908,14.283 14.297 C 13.186 14.957,13.099 15.002,13.010 14.954 C 12.957 14.926,12.713 14.751,12.467 14.566 C 11.134 13.560,9.437 11.856,8.727 10.810 L 8.566 10.573 9.363 9.241 C 9.801 8.509,10.189 7.818,10.224 7.705 C 10.377 7.215,10.329 6.641,10.095 6.175 C 10.013 6.011,8.876 4.624,7.953 3.560 C 7.598 3.152,7.153 2.853,6.640 2.679 C 6.260 2.551,5.452 2.529,5.055 2.637 M6.158 4.639 C 6.268 4.695,6.597 5.054,7.303 5.887 C 7.848 6.530,8.293 7.075,8.292 7.098 C 8.292 7.121,7.896 7.798,7.413 8.601 C 6.929 9.405,6.513 10.123,6.487 10.197 C 6.461 10.271,6.440 10.434,6.440 10.559 C 6.440 11.555,8.878 14.377,11.314 16.200 C 12.037 16.741,12.638 17.105,12.900 17.160 C 13.243 17.231,13.383 17.167,15.008 16.191 L 16.515 15.286 17.725 16.313 C 18.390 16.878,18.972 17.391,19.017 17.453 C 19.081 17.540,19.100 17.626,19.100 17.833 C 19.100 18.178,19.016 18.299,18.584 18.580 C 17.698 19.155,16.745 19.446,15.740 19.450 C 14.728 19.454,14.039 19.238,13.016 18.597 C 11.139 17.418,9.596 16.202,8.178 14.783 C 7.013 13.616,6.161 12.587,5.330 11.340 C 4.310 9.812,4.091 9.277,4.052 8.220 C 4.013 7.184,4.264 6.253,4.839 5.301 C 5.099 4.872,5.212 4.737,5.395 4.640 C 5.593 4.535,5.954 4.535,6.158 4.639 M12.643 8.069 C 12.291 8.193,12.000 8.614,12.000 9.000 C 12.000 9.242,12.119 9.521,12.299 9.701 C 12.610 10.013,12.456 10.000,16.000 10.000 C 19.544 10.000,19.390 10.013,19.701 9.701 C 20.092 9.310,20.092 8.690,19.701 8.299 C 19.389 7.987,19.547 8.000,15.983 8.003 C 13.226 8.006,12.797 8.014,12.643 8.069 " fill="#000640" stroke="none" fill-rule="evenodd"></path></svg>