<svg xmlns="http://www.w3.org/2000/svg" width="24" height="24" fill="currentColor" class="mmi mmi-phonecall-ringing-v3" viewBox="0 0 24 24"><path d="M11.320 3.025 C 9.228 3.217,7.470 3.985,5.885 5.400 C 5.515 5.730,5.397 5.926,5.370 6.253 C 5.311 6.996,6.080 7.545,6.754 7.239 C 6.849 7.196,7.054 7.043,7.209 6.900 C 8.267 5.921,9.538 5.305,10.980 5.075 C 11.156 5.047,11.615 5.024,12.000 5.024 C 12.743 5.024,13.095 5.065,13.740 5.226 C 14.867 5.509,15.870 6.062,16.832 6.934 C 17.068 7.148,17.222 7.254,17.367 7.302 C 17.892 7.477,18.464 7.164,18.623 6.617 C 18.779 6.081,18.560 5.730,17.582 4.946 C 16.413 4.008,14.848 3.331,13.320 3.101 C 12.908 3.039,11.676 2.992,11.320 3.025 M11.340 6.046 C 10.649 6.134,9.814 6.452,9.199 6.860 C 8.767 7.148,8.338 7.570,8.253 7.791 C 8.001 8.451,8.465 9.161,9.149 9.160 C 9.459 9.159,9.608 9.095,9.943 8.815 C 10.340 8.483,10.505 8.378,10.851 8.235 C 11.408 8.006,12.014 7.944,12.576 8.060 C 13.136 8.176,13.550 8.390,14.085 8.839 C 14.390 9.095,14.544 9.159,14.851 9.160 C 15.380 9.160,15.809 8.724,15.811 8.185 C 15.812 7.828,15.720 7.645,15.381 7.329 C 14.319 6.337,12.812 5.858,11.340 6.046 M11.180 11.041 C 9.617 11.147,7.767 11.449,6.285 11.840 C 4.279 12.369,2.663 13.835,1.842 15.870 C 1.076 17.767,1.166 19.013,2.136 19.984 C 2.632 20.479,3.181 20.738,3.840 20.786 C 4.144 20.808,6.655 20.599,7.063 20.518 C 7.576 20.415,8.117 20.013,8.385 19.533 C 8.503 19.323,8.575 19.064,8.859 17.816 C 9.044 17.009,9.217 16.334,9.243 16.318 C 9.312 16.276,10.295 16.127,10.840 16.078 C 11.444 16.022,13.063 16.023,13.620 16.078 C 14.126 16.129,14.753 16.236,14.777 16.276 C 14.787 16.291,14.941 16.950,15.120 17.741 C 15.336 18.698,15.485 19.265,15.562 19.432 C 15.797 19.943,16.382 20.406,16.929 20.516 C 17.045 20.540,17.743 20.612,18.480 20.678 C 19.901 20.804,20.135 20.802,20.640 20.656 C 21.135 20.514,21.702 20.133,22.021 19.730 C 22.272 19.413,22.501 18.942,22.582 18.576 C 22.772 17.722,22.489 16.341,21.870 15.100 C 21.213 13.783,20.269 12.808,19.051 12.189 C 18.555 11.937,18.215 11.814,17.540 11.645 C 16.473 11.379,15.530 11.215,14.400 11.100 C 13.658 11.024,11.904 10.992,11.180 11.041 M14.320 13.096 C 16.146 13.301,17.671 13.669,18.330 14.064 C 19.505 14.768,20.287 15.960,20.601 17.525 C 20.669 17.865,20.678 17.980,20.644 18.105 C 20.585 18.319,20.471 18.492,20.313 18.610 C 20.040 18.813,20.006 18.815,18.669 18.694 C 17.991 18.633,17.418 18.571,17.394 18.556 C 17.370 18.542,17.176 17.767,16.963 16.835 C 16.749 15.903,16.545 15.083,16.508 15.014 C 16.290 14.598,15.551 14.314,14.215 14.132 C 13.466 14.030,11.072 14.031,10.220 14.134 C 9.174 14.260,8.108 14.491,7.853 14.646 C 7.693 14.743,7.511 14.949,7.448 15.102 C 7.422 15.167,7.238 15.940,7.040 16.820 C 6.842 17.700,6.663 18.457,6.644 18.502 C 6.612 18.578,6.522 18.591,5.290 18.699 C 4.008 18.812,3.966 18.813,3.787 18.745 C 3.415 18.603,3.277 18.303,3.351 17.794 C 3.412 17.374,3.673 16.603,3.907 16.151 C 4.449 15.100,5.385 14.252,6.385 13.903 C 7.286 13.588,9.349 13.197,10.720 13.081 C 10.995 13.058,11.292 13.032,11.380 13.023 C 11.746 12.988,13.815 13.039,14.320 13.096 " fill="#000640" stroke="none" fill-rule="evenodd"></path></svg>