<svg xmlns="http://www.w3.org/2000/svg" width="24" height="24" fill="currentColor" class="mmi mmi-phonecall-loading" viewBox="0 0 24 24"><path d="M5.055 2.637 C 4.531 2.779,3.966 3.130,3.648 3.512 C 2.786 4.546,2.141 6.187,2.044 7.597 C 1.945 9.019,2.267 10.233,3.099 11.580 C 5.137 14.880,7.718 17.492,11.240 19.820 C 12.537 20.677,12.878 20.863,13.621 21.115 C 15.017 21.588,16.479 21.575,17.980 21.076 C 18.808 20.801,19.775 20.272,20.268 19.824 C 20.546 19.572,20.831 19.135,20.974 18.741 C 21.125 18.325,21.164 17.657,21.063 17.220 C 20.961 16.783,20.712 16.320,20.405 16.000 C 19.944 15.518,17.697 13.654,17.395 13.503 C 16.861 13.236,16.228 13.226,15.700 13.475 C 15.568 13.538,14.930 13.908,14.283 14.297 C 13.199 14.949,13.098 15.002,13.012 14.956 C 12.848 14.868,12.035 14.244,11.621 13.888 C 10.511 12.934,9.280 11.624,8.727 10.810 L 8.566 10.573 9.363 9.241 C 9.801 8.509,10.189 7.818,10.224 7.705 C 10.377 7.216,10.331 6.663,10.098 6.186 C 10.015 6.016,8.911 4.665,7.953 3.560 C 7.599 3.152,7.153 2.853,6.640 2.679 C 6.260 2.551,5.452 2.529,5.055 2.637 M6.158 4.639 C 6.268 4.695,6.597 5.054,7.303 5.887 C 7.848 6.530,8.293 7.075,8.292 7.098 C 8.292 7.121,7.896 7.798,7.413 8.601 C 6.929 9.405,6.513 10.123,6.487 10.197 C 6.461 10.271,6.440 10.434,6.440 10.559 C 6.440 11.230,7.544 12.756,9.206 14.381 C 10.259 15.410,11.423 16.350,12.294 16.874 C 12.776 17.163,13.006 17.226,13.300 17.149 C 13.427 17.116,14.047 16.768,15.007 16.192 L 16.514 15.287 17.607 16.208 C 19.176 17.528,19.141 17.489,19.112 17.879 C 19.091 18.180,18.986 18.319,18.584 18.580 C 17.698 19.155,16.745 19.446,15.740 19.450 C 14.687 19.454,14.027 19.238,12.891 18.515 C 11.012 17.320,9.584 16.189,8.177 14.783 C 7.017 13.622,6.163 12.590,5.330 11.340 C 4.310 9.812,4.091 9.277,4.052 8.220 C 4.013 7.184,4.264 6.253,4.839 5.301 C 5.099 4.872,5.212 4.737,5.395 4.640 C 5.593 4.535,5.954 4.535,6.158 4.639 M12.643 8.069 C 12.291 8.193,12.000 8.614,12.000 9.000 C 12.000 9.527,12.473 10.000,13.000 10.000 C 13.242 10.000,13.521 9.881,13.701 9.701 C 14.454 8.948,13.653 7.712,12.643 8.069 M15.643 8.069 C 15.291 8.193,15.000 8.614,15.000 9.000 C 15.000 9.527,15.473 10.000,16.000 10.000 C 16.242 10.000,16.521 9.881,16.701 9.701 C 17.454 8.948,16.653 7.712,15.643 8.069 M18.643 8.069 C 18.291 8.193,18.000 8.614,18.000 9.000 C 18.000 9.527,18.473 10.000,19.000 10.000 C 19.242 10.000,19.521 9.881,19.701 9.701 C 20.454 8.948,19.653 7.712,18.643 8.069 " fill="#000640" stroke="none" fill-rule="evenodd"></path></svg>