<svg xmlns="http://www.w3.org/2000/svg" width="24" height="24" fill="currentColor" class="mmi mmi-phonecall-end" viewBox="0 0 24 24"><path d="M5.049 2.638 C 4.460 2.797,3.888 3.185,3.526 3.668 C 3.007 4.360,2.552 5.287,2.299 6.165 C 1.970 7.305,1.942 8.547,2.222 9.622 C 2.446 10.487,2.825 11.219,3.751 12.580 C 5.650 15.369,7.975 17.635,11.067 19.709 C 12.373 20.586,12.874 20.861,13.622 21.115 C 14.457 21.398,15.418 21.517,16.240 21.440 C 17.506 21.321,18.690 20.909,19.740 20.220 C 20.378 19.802,20.737 19.371,20.971 18.744 C 21.126 18.328,21.166 17.665,21.063 17.220 C 20.961 16.783,20.712 16.320,20.405 16.000 C 19.944 15.518,17.697 13.654,17.395 13.503 C 16.861 13.236,16.228 13.226,15.700 13.475 C 15.568 13.538,14.930 13.908,14.283 14.297 C 13.199 14.949,13.098 15.002,13.012 14.956 C 12.961 14.928,12.717 14.754,12.470 14.569 C 11.161 13.587,9.498 11.924,8.767 10.866 L 8.565 10.574 9.362 9.242 C 9.801 8.510,10.189 7.818,10.224 7.705 C 10.377 7.215,10.329 6.641,10.095 6.175 C 10.013 6.011,8.876 4.624,7.953 3.560 C 7.598 3.152,7.153 2.853,6.640 2.679 C 6.258 2.550,5.452 2.529,5.049 2.638 M6.158 4.639 C 6.268 4.695,6.597 5.054,7.303 5.887 C 7.848 6.530,8.293 7.075,8.292 7.098 C 8.292 7.121,7.896 7.798,7.413 8.601 C 6.929 9.405,6.513 10.123,6.487 10.197 C 6.461 10.271,6.440 10.434,6.440 10.559 C 6.440 11.555,8.878 14.377,11.314 16.200 C 12.037 16.741,12.638 17.105,12.900 17.160 C 13.243 17.231,13.383 17.167,15.008 16.191 L 16.515 15.286 17.727 16.313 C 18.393 16.878,18.980 17.403,19.032 17.480 C 19.112 17.598,19.125 17.659,19.112 17.862 C 19.093 18.180,18.994 18.314,18.584 18.580 C 17.698 19.155,16.745 19.446,15.740 19.450 C 14.728 19.454,14.039 19.238,13.016 18.597 C 11.893 17.892,10.684 17.016,9.680 16.180 C 8.924 15.551,7.451 14.086,6.863 13.380 C 5.920 12.246,4.864 10.726,4.459 9.920 C 3.783 8.575,3.928 6.809,4.839 5.301 C 5.099 4.872,5.212 4.737,5.395 4.640 C 5.593 4.535,5.954 4.535,6.158 4.639 M13.753 5.055 C 13.147 5.220,12.850 5.891,13.130 6.460 C 13.174 6.548,13.517 6.930,13.894 7.311 L 14.578 8.001 13.893 8.691 C 13.125 9.463,13.030 9.604,13.029 9.978 C 13.026 10.550,13.443 10.970,14.015 10.970 C 14.394 10.970,14.531 10.879,15.310 10.107 L 15.999 9.424 16.730 10.146 C 17.348 10.757,17.490 10.878,17.657 10.934 C 17.903 11.016,18.048 11.017,18.316 10.937 C 18.700 10.824,19.000 10.412,19.000 10.000 C 19.000 9.636,18.912 9.505,18.146 8.730 L 17.424 7.999 18.129 7.290 C 18.893 6.521,18.998 6.369,18.999 6.020 C 19.000 5.692,18.932 5.527,18.703 5.297 C 18.473 5.068,18.308 5.000,17.980 5.001 C 17.631 5.002,17.479 5.106,16.710 5.871 L 16.000 6.577 15.310 5.893 C 14.931 5.517,14.548 5.174,14.460 5.130 C 14.243 5.022,13.978 4.994,13.753 5.055 " fill="#000640" stroke="none" fill-rule="evenodd"></path></svg>