<svg xmlns="http://www.w3.org/2000/svg" width="24" height="24" fill="currentColor" class="mmi mmi-phonebook" viewBox="0 0 24 24"><path d="M5.503 1.042 C 4.571 1.200,3.727 1.840,3.312 2.704 C 3.065 3.217,3.034 3.373,3.011 4.230 L 2.991 5.000 2.422 5.000 C 1.741 5.000,1.546 5.052,1.299 5.299 C 0.908 5.690,0.908 6.310,1.299 6.701 C 1.546 6.948,1.741 7.000,2.427 7.000 L 3.000 7.000 3.000 8.000 L 3.000 9.000 2.427 9.000 C 1.741 9.000,1.546 9.052,1.299 9.299 C 0.908 9.690,0.908 10.310,1.299 10.701 C 1.546 10.948,1.741 11.000,2.427 11.000 L 3.000 11.000 3.000 12.000 L 3.000 13.000 2.427 13.000 C 1.741 13.000,1.546 13.052,1.299 13.299 C 0.908 13.690,0.908 14.310,1.299 14.701 C 1.546 14.948,1.741 15.000,2.427 15.000 L 3.000 15.000 3.000 16.000 L 3.000 17.000 2.427 17.000 C 1.741 17.000,1.546 17.052,1.299 17.299 C 0.908 17.690,0.908 18.310,1.299 18.701 C 1.546 18.948,1.741 19.000,2.422 19.000 L 2.991 19.000 3.011 19.770 C 3.034 20.627,3.065 20.783,3.312 21.296 C 3.614 21.924,4.095 22.398,4.740 22.704 C 5.406 23.019,4.877 23.000,13.000 23.000 C 21.123 23.000,20.594 23.019,21.260 22.704 C 21.920 22.391,22.391 21.920,22.704 21.260 C 23.021 20.591,23.000 21.240,23.000 12.000 C 23.000 2.760,23.021 3.409,22.704 2.740 C 22.398 2.095,21.924 1.614,21.296 1.312 C 20.636 0.994,21.412 1.023,13.120 1.015 C 9.039 1.012,5.611 1.024,5.503 1.042 M20.340 3.066 C 20.593 3.153,20.847 3.407,20.934 3.660 C 20.995 3.838,21.000 4.523,21.000 12.000 C 21.000 21.144,21.026 20.376,20.701 20.701 C 20.377 21.025,21.023 21.000,12.998 21.000 C 5.201 21.000,5.683 21.014,5.374 20.778 C 5.301 20.723,5.192 20.592,5.131 20.489 C 5.024 20.307,5.020 20.277,5.007 19.650 L 4.993 19.000 5.569 19.000 C 6.259 19.000,6.453 18.949,6.701 18.701 C 6.881 18.521,7.000 18.242,7.000 18.000 C 7.000 17.758,6.881 17.479,6.701 17.299 C 6.454 17.052,6.259 17.000,5.573 17.000 L 5.000 17.000 5.000 16.000 L 5.000 15.000 5.573 15.000 C 6.259 15.000,6.454 14.948,6.701 14.701 C 7.092 14.310,7.092 13.690,6.701 13.299 C 6.454 13.052,6.259 13.000,5.573 13.000 L 5.000 13.000 5.000 12.000 L 5.000 11.000 5.573 11.000 C 6.259 11.000,6.454 10.948,6.701 10.701 C 7.092 10.310,7.092 9.690,6.701 9.299 C 6.454 9.052,6.259 9.000,5.573 9.000 L 5.000 9.000 5.000 8.000 L 5.000 7.000 5.573 7.000 C 6.259 7.000,6.454 6.948,6.701 6.701 C 6.881 6.521,7.000 6.242,7.000 6.000 C 7.000 5.758,6.881 5.479,6.701 5.299 C 6.453 5.051,6.259 5.000,5.569 5.000 L 4.993 5.000 5.007 4.350 C 5.020 3.723,5.024 3.693,5.131 3.511 C 5.256 3.298,5.449 3.136,5.670 3.057 C 5.793 3.013,7.104 3.003,12.983 3.002 C 19.548 3.000,20.162 3.006,20.340 3.066 M12.868 6.061 C 11.767 6.270,10.800 7.015,10.341 8.011 C 10.085 8.564,10.021 8.868,10.024 9.520 C 10.027 10.029,10.040 10.143,10.134 10.452 C 10.368 11.224,10.800 11.850,11.410 12.303 L 11.639 12.473 11.290 12.705 C 10.615 13.153,9.965 13.906,9.564 14.705 C 9.209 15.414,8.973 16.386,9.008 16.998 C 9.029 17.353,9.146 17.605,9.374 17.778 C 9.675 18.008,9.531 18.000,13.498 18.000 C 17.604 18.000,17.387 18.015,17.701 17.701 C 17.999 17.403,18.064 16.997,17.937 16.237 C 17.812 15.496,17.498 14.722,17.046 14.040 C 16.753 13.599,16.152 12.999,15.711 12.705 L 15.361 12.473 15.591 12.301 C 17.319 11.001,17.474 8.438,15.913 6.978 C 15.453 6.547,14.950 6.267,14.364 6.114 C 13.957 6.008,13.274 5.984,12.868 6.061 M14.110 8.139 C 14.415 8.278,14.725 8.589,14.866 8.896 C 14.962 9.105,14.978 9.191,14.978 9.500 C 14.979 9.810,14.963 9.893,14.867 10.100 C 14.722 10.415,14.413 10.724,14.104 10.867 C 13.894 10.965,13.811 10.980,13.500 10.980 C 13.190 10.980,13.107 10.965,12.900 10.868 C 12.584 10.721,12.275 10.413,12.134 10.104 C 12.038 9.895,12.022 9.809,12.022 9.500 C 12.021 9.190,12.037 9.107,12.133 8.900 C 12.324 8.489,12.727 8.148,13.150 8.041 C 13.407 7.976,13.852 8.022,14.110 8.139 M13.845 14.040 C 14.342 14.131,14.967 14.573,15.337 15.095 C 15.508 15.336,15.723 15.734,15.777 15.910 L 15.805 16.000 13.500 16.000 L 11.195 16.000 11.223 15.910 C 11.339 15.534,11.726 14.954,12.077 14.629 C 12.627 14.120,13.216 13.924,13.845 14.040 " fill="#000640" stroke="none" fill-rule="evenodd"></path></svg>