<svg xmlns="http://www.w3.org/2000/svg" width="24" height="24" fill="currentColor" class="mmi mmi-phonecall-offline" viewBox="0 0 24 24"><path d="M5.055 2.637 C 4.531 2.779,3.966 3.130,3.648 3.512 C 3.382 3.830,3.002 4.438,2.779 4.902 C 1.973 6.574,1.810 8.399,2.326 9.979 C 2.617 10.869,3.320 12.046,4.506 13.629 C 5.071 14.383,5.178 14.460,5.660 14.459 C 6.013 14.458,6.146 14.408,6.357 14.197 C 6.615 13.939,6.707 13.601,6.615 13.248 C 6.570 13.076,6.460 12.899,6.105 12.424 C 5.313 11.369,4.580 10.222,4.361 9.695 C 4.148 9.186,4.075 8.834,4.052 8.220 C 4.013 7.184,4.264 6.253,4.839 5.301 C 5.205 4.695,5.377 4.560,5.780 4.560 C 6.165 4.560,6.220 4.608,7.303 5.887 C 7.848 6.530,8.293 7.075,8.292 7.098 C 8.292 7.121,7.895 7.799,7.410 8.605 C 6.926 9.411,6.507 10.138,6.480 10.221 C 6.402 10.455,6.449 10.853,6.595 11.200 C 6.760 11.593,7.215 12.262,7.429 12.425 C 8.062 12.907,9.000 12.436,9.000 11.635 C 9.000 11.348,8.963 11.248,8.732 10.910 C 8.574 10.680,8.553 10.627,8.589 10.550 C 8.612 10.501,8.975 9.887,9.395 9.186 C 9.816 8.485,10.188 7.819,10.224 7.706 C 10.377 7.215,10.331 6.663,10.096 6.183 C 10.011 6.010,8.924 4.679,7.953 3.560 C 7.598 3.152,7.153 2.853,6.640 2.679 C 6.260 2.551,5.452 2.529,5.055 2.637 M19.600 3.083 C 19.341 3.199,3.283 19.245,3.132 19.539 C 2.870 20.047,3.106 20.687,3.637 20.910 C 3.854 21.001,4.229 20.987,4.442 20.881 C 4.564 20.820,5.155 20.258,6.320 19.097 L 8.020 17.402 8.560 17.844 C 9.972 19.001,11.774 20.245,12.780 20.758 C 13.691 21.223,14.397 21.397,15.500 21.428 C 16.307 21.451,16.780 21.405,17.451 21.236 C 18.174 21.054,19.099 20.640,19.780 20.193 C 20.703 19.588,21.160 18.725,21.110 17.684 C 21.080 17.048,20.869 16.516,20.464 16.053 C 20.379 15.955,19.713 15.371,18.986 14.756 C 17.546 13.538,17.348 13.406,16.833 13.319 C 16.462 13.256,16.042 13.314,15.700 13.475 C 15.568 13.538,14.932 13.906,14.287 14.294 C 13.642 14.682,13.100 15.000,13.081 15.000 C 13.031 15.000,12.350 14.506,11.929 14.164 L 11.557 13.863 16.197 9.222 C 19.816 5.601,20.854 4.540,20.917 4.400 C 21.090 4.016,21.009 3.604,20.703 3.297 C 20.396 2.991,19.984 2.910,19.600 3.083 M10.779 15.800 C 11.358 16.261,11.819 16.588,12.317 16.888 L 12.734 17.140 13.080 17.140 L 13.426 17.140 14.972 16.213 L 16.518 15.285 17.609 16.207 C 19.183 17.536,19.141 17.489,19.112 17.887 C 19.091 18.177,19.018 18.282,18.666 18.525 C 17.815 19.115,16.768 19.446,15.740 19.450 C 14.728 19.454,14.037 19.238,13.016 18.596 C 11.979 17.944,11.079 17.303,10.088 16.508 L 9.436 15.985 9.786 15.634 L 10.136 15.282 10.245 15.371 C 10.304 15.420,10.545 15.613,10.779 15.800 " fill="#000640" stroke="none" fill-rule="evenodd"></path></svg>