<svg xmlns="http://www.w3.org/2000/svg" width="24" height="24" fill="currentColor" class="mmi mmi-pickuptruck" viewBox="0 0 24 24"><path d="M13.664 3.062 C 13.435 3.147,13.257 3.298,13.131 3.511 L 13.020 3.700 13.009 6.850 L 12.998 10.000 6.924 10.000 C 0.303 10.000,0.682 9.987,0.374 10.222 C 0.301 10.277,0.192 10.408,0.131 10.511 L 0.020 10.700 0.009 14.413 C 0.002 16.908,0.012 18.176,0.040 18.281 C 0.102 18.509,0.313 18.761,0.539 18.878 C 0.737 18.980,0.739 18.980,1.947 18.992 L 3.156 19.003 3.299 19.300 C 3.668 20.068,4.402 20.675,5.240 20.906 C 5.599 21.004,6.401 21.004,6.760 20.906 C 7.599 20.675,8.332 20.068,8.702 19.298 L 8.846 19.000 12.000 19.000 L 15.154 19.000 15.298 19.298 C 15.668 20.068,16.401 20.675,17.240 20.906 C 17.599 21.004,18.401 21.004,18.760 20.906 C 19.599 20.675,20.332 20.068,20.702 19.298 L 20.846 19.000 21.996 19.000 C 23.316 19.000,23.420 18.982,23.701 18.701 C 24.018 18.384,24.000 18.663,24.000 13.999 C 24.000 11.021,23.987 9.814,23.955 9.716 C 23.874 9.472,20.921 4.340,20.716 4.086 C 20.364 3.652,19.772 3.270,19.180 3.095 C 18.963 3.031,18.691 3.024,16.380 3.014 C 14.218 3.005,13.796 3.013,13.664 3.062 M18.689 5.042 C 19.063 5.146,19.089 5.183,20.428 7.521 C 21.114 8.719,21.714 9.768,21.760 9.850 L 21.845 10.000 18.423 10.000 L 15.000 10.000 15.000 7.500 L 15.000 5.000 16.770 5.000 C 17.866 5.000,18.597 5.016,18.689 5.042 M13.000 14.500 L 13.000 17.000 10.919 17.000 L 8.839 17.000 8.742 16.780 C 8.376 15.953,7.588 15.301,6.680 15.076 C 6.558 15.045,6.255 15.021,6.000 15.021 C 5.745 15.021,5.442 15.045,5.320 15.076 C 4.412 15.301,3.624 15.953,3.258 16.780 L 3.161 17.000 2.581 17.000 L 2.000 17.000 2.000 14.500 L 2.000 12.000 7.500 12.000 L 13.000 12.000 13.000 14.500 M22.000 14.500 L 22.000 17.000 21.419 17.000 L 20.839 17.000 20.742 16.780 C 20.376 15.953,19.588 15.301,18.680 15.076 C 18.558 15.045,18.255 15.021,18.000 15.021 C 17.745 15.021,17.442 15.045,17.320 15.076 C 16.412 15.301,15.624 15.953,15.258 16.780 C 15.187 16.942,15.140 17.000,15.081 17.000 C 15.001 17.000,15.000 16.979,15.000 14.500 L 15.000 12.000 18.500 12.000 L 22.000 12.000 22.000 14.500 M6.340 17.066 C 6.709 17.192,7.000 17.604,7.000 18.000 C 7.000 18.527,6.527 19.000,6.000 19.000 C 5.758 19.000,5.479 18.881,5.299 18.701 C 4.907 18.309,4.908 17.690,5.300 17.298 C 5.577 17.020,5.957 16.936,6.340 17.066 M18.340 17.066 C 18.709 17.192,19.000 17.604,19.000 18.000 C 19.000 18.527,18.527 19.000,18.000 19.000 C 17.758 19.000,17.479 18.881,17.299 18.701 C 16.907 18.309,16.908 17.690,17.300 17.298 C 17.577 17.020,17.957 16.936,18.340 17.066 " fill="#000640" stroke="none" fill-rule="evenodd"></path></svg>