<svg xmlns="http://www.w3.org/2000/svg" width="24" height="24" fill="currentColor" class="mmi mmi-piechart-twofifth -filled" viewBox="0 0 24 24"><path d="M11.200 0.028 C 10.795 0.053,10.025 0.162,9.520 0.265 C 6.727 0.838,4.180 2.460,2.410 4.793 C 1.201 6.386,0.442 8.222,0.109 10.359 C -0.013 11.143,-0.013 12.857,0.109 13.641 C 0.443 15.780,1.201 17.614,2.412 19.210 C 4.359 21.776,7.111 23.399,10.339 23.885 C 11.014 23.986,12.338 24.027,12.980 23.965 C 16.489 23.628,19.496 21.967,21.588 19.210 C 22.794 17.620,23.571 15.743,23.885 13.661 C 23.988 12.977,24.026 11.663,23.963 11.000 C 23.866 9.980,23.694 9.163,23.380 8.220 C 22.776 6.403,21.826 4.865,20.479 3.520 C 18.028 1.073,14.686 -0.185,11.200 0.028 M11.092 12.420 C 11.142 12.534,12.201 13.618,14.747 16.166 L 18.331 19.752 17.956 20.029 C 14.858 22.315,10.786 22.636,7.377 20.863 C 4.861 19.554,2.974 17.162,2.303 14.430 C 1.363 10.600,2.714 6.617,5.783 4.176 C 7.199 3.050,9.037 2.272,10.720 2.088 L 10.980 2.060 11.000 7.160 C 11.019 11.948,11.024 12.270,11.092 12.420 M13.975 2.201 C 14.539 2.309,15.218 2.516,15.830 2.767 C 16.099 2.878,16.320 2.976,16.320 2.984 C 16.320 2.993,15.573 3.000,14.660 3.000 L 13.000 3.000 13.000 2.527 L 13.000 2.054 13.270 2.086 C 13.418 2.104,13.736 2.156,13.975 2.201 M19.409 5.290 C 19.806 5.738,20.086 6.103,20.375 6.545 C 20.521 6.768,20.640 6.962,20.640 6.975 C 20.640 6.989,18.921 7.000,16.820 7.000 L 13.000 7.000 13.000 6.000 L 13.000 5.000 16.076 5.000 L 19.153 5.000 19.409 5.290 M21.631 9.310 C 21.753 9.765,21.835 10.170,21.895 10.610 L 21.948 11.000 17.474 11.000 L 13.000 11.000 13.000 10.000 L 13.000 9.000 17.274 9.000 L 21.547 9.000 21.631 9.310 M21.942 13.090 C 21.932 13.139,21.895 13.372,21.860 13.607 C 21.825 13.842,21.743 14.244,21.678 14.501 C 21.613 14.758,21.560 14.976,21.560 14.984 C 21.560 14.993,20.403 15.000,18.990 15.000 L 16.419 15.000 15.420 14.000 L 14.421 13.000 18.191 13.000 L 21.962 13.000 21.942 13.090 M20.640 17.028 C 20.640 17.066,19.985 18.031,19.850 18.191 L 19.740 18.322 19.080 17.661 L 18.421 17.000 19.530 17.000 C 20.141 17.000,20.640 17.013,20.640 17.028 " fill="#000640" stroke="none" fill-rule="evenodd"></path></svg>