<svg xmlns="http://www.w3.org/2000/svg" width="24" height="24" fill="currentColor" class="mmi mmi-piechart" viewBox="0 0 24 24"><path d="M11.200 0.025 C 7.677 0.288,4.535 1.992,2.410 4.793 C 1.201 6.386,0.442 8.222,0.109 10.359 C -0.013 11.143,-0.013 12.857,0.109 13.641 C 0.443 15.780,1.201 17.614,2.412 19.210 C 4.359 21.776,7.111 23.399,10.339 23.885 C 11.014 23.986,12.338 24.027,12.980 23.965 C 15.342 23.738,17.408 22.948,19.220 21.578 C 21.591 19.786,23.220 17.179,23.776 14.284 C 23.954 13.361,23.979 13.067,23.977 11.960 C 23.975 11.091,23.959 10.802,23.890 10.359 C 23.560 8.226,22.799 6.387,21.588 4.790 C 19.607 2.179,16.767 0.532,13.500 0.099 C 13.032 0.037,11.640 -0.007,11.200 0.025 M10.988 21.946 C 10.959 21.974,10.105 21.827,9.645 21.715 C 8.262 21.378,6.858 20.691,5.759 19.814 C 3.911 18.338,2.593 16.140,2.180 13.845 C 1.944 12.533,1.944 11.467,2.180 10.155 C 2.771 6.869,5.092 4.022,8.220 2.746 C 8.997 2.429,9.986 2.169,10.720 2.088 L 10.980 2.060 10.990 11.997 C 10.996 17.462,10.995 21.939,10.988 21.946 M13.980 2.204 C 16.932 2.798,19.479 4.718,20.873 7.400 C 22.529 10.586,22.336 14.455,20.371 17.460 C 20.227 17.680,20.027 17.965,19.927 18.092 L 19.745 18.324 16.372 14.952 L 13.000 11.580 13.000 6.817 L 13.000 2.054 13.290 2.089 C 13.450 2.108,13.760 2.159,13.980 2.204 M18.279 19.782 C 18.211 19.863,17.470 20.380,17.116 20.593 C 16.632 20.884,15.863 21.242,15.308 21.435 C 14.602 21.681,14.032 21.815,13.170 21.937 L 13.000 21.961 13.000 18.191 L 13.000 14.420 15.658 17.078 C 17.502 18.922,18.305 19.750,18.279 19.782 " fill="#000640" stroke="none" fill-rule="evenodd"></path></svg>