<svg xmlns="http://www.w3.org/2000/svg" width="24" height="24" fill="currentColor" class="mmi mmi-piechart-doublequarter" viewBox="0 0 24 24"><path d="M11.200 0.025 C 7.677 0.288,4.535 1.992,2.410 4.793 C 1.201 6.386,0.442 8.222,0.109 10.359 C -0.013 11.143,-0.013 12.857,0.109 13.641 C 0.563 16.554,1.872 19.025,3.948 20.887 C 5.791 22.541,7.832 23.497,10.359 23.891 C 11.143 24.013,12.857 24.013,13.641 23.891 C 16.557 23.436,19.036 22.122,20.896 20.043 C 22.545 18.200,23.498 16.163,23.891 13.641 C 24.013 12.857,24.013 11.143,23.891 10.359 C 23.557 8.220,22.799 6.386,21.588 4.790 C 19.607 2.179,16.767 0.532,13.500 0.099 C 13.032 0.037,11.640 -0.007,11.200 0.025 M10.988 21.946 C 10.959 21.974,10.105 21.827,9.645 21.715 C 8.262 21.378,6.858 20.691,5.759 19.814 C 3.911 18.338,2.593 16.140,2.180 13.845 C 1.944 12.533,1.944 11.467,2.180 10.155 C 2.771 6.869,5.092 4.022,8.220 2.746 C 8.997 2.429,9.986 2.169,10.720 2.088 L 10.980 2.060 10.990 11.997 C 10.996 17.462,10.995 21.939,10.988 21.946 M13.980 2.204 C 17.006 2.816,19.617 4.827,20.957 7.576 C 21.469 8.625,21.789 9.675,21.911 10.710 L 21.946 11.000 17.473 11.000 L 13.000 11.000 13.000 6.527 L 13.000 2.054 13.290 2.089 C 13.450 2.108,13.760 2.160,13.980 2.204 M21.911 13.290 C 21.631 15.655,20.367 17.991,18.500 19.592 C 17.017 20.863,15.204 21.661,13.170 21.938 L 13.000 21.961 13.000 17.480 L 13.000 13.000 17.473 13.000 L 21.946 13.000 21.911 13.290 " fill="#000640" stroke="none" fill-rule="evenodd"></path></svg>