<svg xmlns="http://www.w3.org/2000/svg" width="24" height="24" fill="currentColor" class="mmi mmi-piechart-onefifth" viewBox="0 0 24 24"><path d="M11.200 0.028 C 10.795 0.053,10.025 0.162,9.520 0.265 C 6.727 0.838,4.180 2.460,2.410 4.793 C 1.201 6.386,0.442 8.222,0.109 10.359 C -0.013 11.143,-0.013 12.857,0.109 13.641 C 0.563 16.554,1.872 19.025,3.948 20.887 C 5.791 22.541,7.832 23.497,10.359 23.891 C 11.143 24.013,12.857 24.013,13.641 23.891 C 16.557 23.436,19.036 22.122,20.896 20.043 C 22.545 18.200,23.499 16.159,23.891 13.641 C 23.960 13.191,23.975 12.914,23.976 12.000 C 23.977 10.816,23.929 10.348,23.700 9.340 C 23.022 6.347,21.208 3.720,18.640 2.011 C 16.455 0.557,13.859 -0.135,11.200 0.028 M11.114 12.450 C 11.322 12.873,11.852 13.101,12.284 12.953 C 12.359 12.928,14.445 11.999,16.920 10.891 C 19.395 9.782,21.436 8.871,21.456 8.867 C 21.541 8.851,21.822 10.004,21.927 10.800 C 22.010 11.428,21.989 12.840,21.887 13.472 C 21.627 15.088,21.084 16.448,20.194 17.720 C 18.126 20.673,14.655 22.287,11.080 21.957 C 6.872 21.569,3.305 18.510,2.303 14.430 C 1.363 10.600,2.714 6.617,5.783 4.176 C 7.199 3.050,9.037 2.272,10.720 2.088 L 10.980 2.060 11.000 7.160 L 11.020 12.260 11.114 12.450 M13.980 2.204 C 16.176 2.645,18.223 3.858,19.650 5.560 C 19.966 5.937,20.640 6.909,20.640 6.987 C 20.640 7.009,20.591 7.050,20.530 7.078 C 20.127 7.266,13.034 10.440,13.019 10.440 C 13.009 10.440,13.000 8.553,13.000 6.247 L 13.000 2.054 13.290 2.089 C 13.450 2.108,13.760 2.159,13.980 2.204 " fill="#000640" stroke="none" fill-rule="evenodd"></path></svg>