<svg xmlns="http://www.w3.org/2000/svg" width="24" height="24" fill="currentColor" class="mmi mmi-piechart-onefifth-filled" viewBox="0 0 24 24"><path d="M11.200 0.028 C 10.795 0.053,10.025 0.162,9.520 0.265 C 6.727 0.838,4.180 2.460,2.410 4.793 C 1.201 6.386,0.442 8.222,0.109 10.359 C -0.013 11.143,-0.013 12.857,0.109 13.641 C 0.563 16.554,1.872 19.025,3.948 20.887 C 5.791 22.541,7.832 23.497,10.359 23.891 C 11.143 24.013,12.857 24.013,13.641 23.891 C 15.112 23.661,16.452 23.228,17.629 22.599 C 19.715 21.486,21.486 19.715,22.599 17.629 C 23.800 15.379,24.255 12.658,23.855 10.120 C 23.167 5.751,20.084 2.093,15.870 0.644 C 14.435 0.151,12.772 -0.068,11.200 0.028 M11.114 12.450 C 11.322 12.873,11.852 13.101,12.284 12.953 C 12.359 12.928,14.445 11.999,16.920 10.891 C 19.395 9.782,21.436 8.871,21.456 8.867 C 21.541 8.851,21.822 10.004,21.927 10.800 C 22.010 11.428,21.989 12.840,21.887 13.472 C 21.627 15.088,21.084 16.448,20.194 17.720 C 18.126 20.673,14.655 22.287,11.080 21.957 C 6.872 21.569,3.305 18.510,2.303 14.430 C 1.363 10.600,2.714 6.617,5.783 4.176 C 7.199 3.050,9.037 2.272,10.720 2.088 L 10.980 2.060 11.000 7.160 L 11.020 12.260 11.114 12.450 M13.975 2.201 C 14.539 2.309,15.218 2.516,15.830 2.767 C 16.099 2.878,16.320 2.976,16.320 2.984 C 16.320 2.993,15.573 3.000,14.660 3.000 L 13.000 3.000 13.000 2.527 L 13.000 2.054 13.270 2.086 C 13.418 2.104,13.736 2.156,13.975 2.201 M19.409 5.290 C 19.806 5.738,20.086 6.103,20.375 6.545 C 20.521 6.768,20.640 6.962,20.640 6.975 C 20.640 6.989,18.921 7.000,16.820 7.000 L 13.000 7.000 13.000 6.000 L 13.000 5.000 16.076 5.000 L 19.153 5.000 19.409 5.290 M16.196 9.017 C 16.176 9.038,13.044 10.440,13.018 10.440 C 13.008 10.440,13.000 10.116,13.000 9.720 L 13.000 9.000 14.607 9.000 C 15.490 9.000,16.206 9.008,16.196 9.017 " fill="#000640" stroke="none" fill-rule="evenodd"></path></svg>