<svg xmlns="http://www.w3.org/2000/svg" width="24" height="24" fill="currentColor" class="mmi mmi-piechart-quarter-filled" viewBox="0 0 24 24"><path d="M11.200 0.028 C 10.795 0.053,10.025 0.162,9.520 0.265 C 6.727 0.838,4.180 2.460,2.410 4.793 C 1.201 6.386,0.442 8.222,0.109 10.359 C -0.013 11.143,-0.013 12.857,0.109 13.641 C 0.563 16.554,1.872 19.025,3.948 20.887 C 5.791 22.541,7.832 23.497,10.359 23.891 C 11.143 24.013,12.857 24.013,13.641 23.891 C 15.780 23.557,17.614 22.799,19.212 21.586 C 21.776 19.641,23.399 16.888,23.885 13.661 C 23.988 12.977,24.026 11.663,23.963 11.000 C 23.866 9.980,23.694 9.163,23.380 8.220 C 22.776 6.403,21.826 4.865,20.479 3.520 C 18.028 1.073,14.686 -0.185,11.200 0.028 M11.131 12.489 C 11.192 12.592,11.301 12.723,11.374 12.778 C 11.680 13.011,11.400 13.000,16.898 13.000 L 21.946 13.000 21.911 13.290 C 21.784 14.365,21.400 15.588,20.873 16.600 C 18.820 20.538,14.440 22.659,10.103 21.815 C 6.292 21.073,3.221 18.165,2.303 14.430 C 1.363 10.600,2.714 6.617,5.783 4.176 C 7.199 3.050,9.037 2.272,10.720 2.088 L 10.980 2.060 11.000 7.180 L 11.020 12.300 11.131 12.489 M13.975 2.201 C 14.539 2.309,15.218 2.516,15.830 2.767 C 16.099 2.878,16.320 2.976,16.320 2.984 C 16.320 2.993,15.573 3.000,14.660 3.000 L 13.000 3.000 13.000 2.527 L 13.000 2.054 13.270 2.086 C 13.418 2.104,13.736 2.156,13.975 2.201 M19.409 5.290 C 19.806 5.738,20.086 6.103,20.375 6.545 C 20.521 6.768,20.640 6.962,20.640 6.975 C 20.640 6.989,18.921 7.000,16.820 7.000 L 13.000 7.000 13.000 6.000 L 13.000 5.000 16.076 5.000 L 19.153 5.000 19.409 5.290 M21.631 9.310 C 21.753 9.765,21.835 10.170,21.895 10.610 L 21.948 11.000 17.474 11.000 L 13.000 11.000 13.000 10.000 L 13.000 9.000 17.274 9.000 L 21.547 9.000 21.631 9.310 " fill="#000640" stroke="none" fill-rule="evenodd"></path></svg>