<svg xmlns="http://www.w3.org/2000/svg" width="24" height="24" fill="currentColor" class="mmi mmi-pin-v2" viewBox="0 0 24 24"><path d="M9.060 1.496 C 8.899 1.573,8.143 2.311,5.176 5.286 C 1.978 8.494,1.487 9.002,1.446 9.145 C 1.276 9.748,1.607 10.306,2.216 10.443 C 2.394 10.482,2.463 10.479,2.662 10.421 C 2.866 10.362,2.945 10.306,3.243 10.015 L 3.588 9.678 6.136 14.138 C 8.111 17.595,8.718 18.625,8.832 18.720 C 8.977 18.840,9.291 18.960,9.460 18.960 C 9.507 18.960,9.643 18.932,9.763 18.897 C 9.971 18.836,10.054 18.759,11.840 16.977 L 13.701 15.120 16.560 17.983 C 18.133 19.557,19.496 20.891,19.590 20.946 C 20.091 21.245,20.765 21.017,21.000 20.471 C 21.105 20.227,21.097 19.869,20.981 19.638 C 20.943 19.562,19.609 18.195,18.016 16.600 L 15.120 13.699 16.961 11.860 C 18.613 10.208,18.809 9.998,18.881 9.808 C 18.976 9.554,18.979 9.440,18.898 9.166 C 18.856 9.025,18.782 8.903,18.668 8.789 C 18.545 8.665,17.324 7.950,14.111 6.120 C 11.698 4.745,9.722 3.603,9.721 3.583 C 9.721 3.562,9.862 3.400,10.036 3.221 C 10.303 2.948,10.363 2.861,10.420 2.667 C 10.656 1.854,9.820 1.134,9.060 1.496 M12.322 7.401 L 16.329 9.691 13.016 13.004 C 11.193 14.827,9.690 16.305,9.675 16.289 C 9.639 16.249,5.164 8.412,5.109 8.291 C 5.067 8.201,5.150 8.111,6.623 6.636 C 7.697 5.561,8.201 5.082,8.247 5.094 C 8.284 5.103,10.118 6.142,12.322 7.401 " fill="#000640" stroke="none" fill-rule="evenodd"></path></svg>