<svg xmlns="http://www.w3.org/2000/svg" width="24" height="24" fill="currentColor" class="mmi mmi-pin" viewBox="0 0 24 24"><path d="M6.664 1.063 C 6.436 1.146,6.257 1.297,6.131 1.511 C 6.036 1.672,6.020 1.744,6.020 2.000 C 6.020 2.256,6.036 2.328,6.131 2.489 C 6.354 2.869,6.645 3.000,7.265 3.000 C 7.493 3.000,7.680 3.008,7.680 3.017 C 7.680 3.026,7.076 5.245,6.338 7.947 C 4.868 13.327,4.924 13.075,5.125 13.467 C 5.238 13.685,5.490 13.897,5.711 13.958 C 5.806 13.985,6.783 14.000,8.430 14.000 L 11.000 14.000 11.000 18.070 C 11.000 20.750,11.015 22.191,11.042 22.289 C 11.103 22.509,11.315 22.762,11.531 22.874 C 11.932 23.080,12.390 23.012,12.700 22.702 C 13.018 22.385,13.000 22.656,13.000 18.073 L 13.000 14.000 15.573 14.000 C 18.477 14.000,18.394 14.008,18.701 13.701 C 18.880 13.522,19.000 13.242,19.000 13.003 C 19.000 12.924,18.397 10.649,17.660 7.947 C 16.923 5.245,16.320 3.026,16.320 3.017 C 16.320 3.008,16.506 3.000,16.733 3.000 C 17.246 3.000,17.472 2.930,17.701 2.701 C 18.092 2.310,18.092 1.690,17.701 1.299 C 17.381 0.979,17.786 1.000,11.983 1.003 C 7.607 1.005,6.796 1.014,6.664 1.063 M14.282 3.170 C 14.307 3.264,14.857 5.281,15.504 7.653 C 16.151 10.025,16.680 11.973,16.680 11.983 C 16.680 11.992,14.574 12.000,12.000 12.000 C 9.426 12.000,7.320 11.992,7.320 11.983 C 7.320 11.973,7.849 10.025,8.496 7.653 C 9.143 5.281,9.693 3.264,9.718 3.170 L 9.763 3.000 12.000 3.000 L 14.237 3.000 14.282 3.170 " fill="#000640" stroke="none" fill-rule="evenodd"></path></svg>