<svg xmlns="http://www.w3.org/2000/svg" width="24" height="24" fill="currentColor" class="mmi mmi-pinetree" viewBox="0 0 24 24"><path d="M11.600 1.003 C 11.076 1.092,10.483 1.517,10.234 1.982 C 10.002 2.414,4.342 14.839,4.248 15.120 C 4.102 15.561,4.080 16.223,4.196 16.683 C 4.466 17.755,5.193 18.530,6.260 18.885 C 6.538 18.978,6.558 18.979,8.770 18.991 L 11.000 19.004 11.000 20.002 L 11.000 21.000 9.425 21.000 C 7.721 21.000,7.656 21.007,7.374 21.222 C 7.301 21.277,7.192 21.408,7.131 21.511 C 7.036 21.672,7.020 21.744,7.020 22.000 C 7.020 22.256,7.036 22.328,7.131 22.489 C 7.192 22.592,7.301 22.723,7.374 22.778 C 7.677 23.009,7.484 23.000,11.998 23.000 C 16.663 23.000,16.384 23.018,16.701 22.701 C 17.092 22.310,17.092 21.690,16.701 21.299 C 16.409 21.006,16.362 21.000,14.573 21.000 L 13.000 21.000 13.000 20.000 L 13.000 19.000 14.882 19.000 C 16.919 19.000,17.084 18.986,17.601 18.777 C 18.464 18.426,19.126 17.662,19.384 16.718 C 19.481 16.366,19.481 15.635,19.384 15.280 C 19.323 15.054,13.925 2.403,13.712 1.983 C 13.605 1.774,13.278 1.432,13.035 1.277 C 12.662 1.037,12.065 0.923,11.600 1.003 M14.722 9.395 C 17.282 15.373,17.453 15.785,17.450 15.995 C 17.449 16.119,17.417 16.297,17.380 16.390 C 17.291 16.610,16.976 16.894,16.752 16.956 C 16.623 16.991,15.361 17.000,11.700 16.991 L 6.820 16.980 6.655 16.892 C 6.308 16.706,6.101 16.334,6.129 15.944 C 6.145 15.722,6.399 15.149,8.939 9.600 C 10.475 6.245,11.783 3.385,11.847 3.244 C 11.910 3.104,11.968 2.996,11.976 3.004 C 11.984 3.013,13.220 5.889,14.722 9.395 " fill="#000640" stroke="none" fill-rule="evenodd"></path></svg>