<svg xmlns="http://www.w3.org/2000/svg" width="24" height="24" fill="currentColor" class="mmi mmi-placemarker-remove" viewBox="0 0 24 24"><path d="M11.087 0.044 C 10.282 0.116,9.234 0.349,8.494 0.620 C 7.548 0.968,6.407 1.619,5.620 2.260 C 5.208 2.595,4.508 3.293,4.185 3.690 C 2.377 5.912,1.652 8.770,2.177 11.602 C 2.623 14.009,3.922 16.548,6.011 19.097 C 7.744 21.213,10.155 23.344,11.411 23.871 C 11.765 24.019,12.235 24.019,12.589 23.871 C 13.845 23.344,16.258 21.211,17.988 19.099 C 21.145 15.244,22.459 11.492,21.842 8.100 C 21.291 5.072,19.369 2.515,16.580 1.099 C 14.899 0.245,12.976 -0.124,11.087 0.044 M13.279 2.099 C 14.153 2.248,14.895 2.487,15.651 2.866 C 18.327 4.205,20.000 6.887,20.000 9.836 C 20.000 12.404,18.512 15.518,15.852 18.520 C 15.326 19.114,14.141 20.286,13.579 20.769 C 13.114 21.168,12.351 21.746,12.143 21.856 C 12.002 21.931,11.998 21.931,11.857 21.856 C 11.622 21.731,10.842 21.131,10.292 20.653 C 9.619 20.067,8.292 18.716,7.745 18.060 C 5.019 14.792,3.750 11.689,4.042 9.008 C 4.330 6.368,5.941 4.071,8.349 2.866 C 9.146 2.467,10.050 2.186,10.860 2.085 C 11.058 2.060,11.265 2.032,11.320 2.023 C 11.544 1.984,12.920 2.038,13.279 2.099 M9.240 6.035 C 8.788 6.183,8.509 6.550,8.508 7.000 C 8.506 7.387,8.584 7.493,9.616 8.520 C 10.135 9.037,10.560 9.477,10.560 9.498 C 10.560 9.519,10.122 9.978,9.586 10.518 C 8.714 11.398,8.607 11.520,8.561 11.689 C 8.436 12.151,8.606 12.594,8.997 12.828 C 9.277 12.996,9.488 13.026,9.786 12.941 C 10.011 12.876,10.057 12.837,11.010 11.888 L 12.000 10.902 12.990 11.888 C 13.943 12.837,13.989 12.876,14.214 12.941 C 14.512 13.026,14.723 12.996,15.003 12.828 C 15.394 12.594,15.564 12.151,15.439 11.689 C 15.393 11.520,15.286 11.398,14.414 10.518 C 13.878 9.978,13.440 9.519,13.440 9.498 C 13.440 9.477,13.864 9.037,14.383 8.520 C 14.901 8.003,15.361 7.513,15.404 7.430 C 15.518 7.209,15.540 6.968,15.466 6.716 C 15.306 6.170,14.757 5.883,14.185 6.047 C 14.048 6.086,13.846 6.267,13.009 7.096 L 11.999 8.098 11.029 7.133 C 10.496 6.602,9.999 6.137,9.924 6.100 C 9.768 6.022,9.389 5.986,9.240 6.035 " fill="#000640" stroke="none" fill-rule="evenodd"></path></svg>