<svg xmlns="http://www.w3.org/2000/svg" width="24" height="24" fill="currentColor" class="mmi mmi-placemarker" viewBox="0 0 24 24"><path d="M11.087 0.044 C 10.282 0.116,9.234 0.349,8.494 0.620 C 7.912 0.834,6.959 1.318,6.438 1.663 C 4.853 2.714,3.588 4.194,2.846 5.862 C 1.827 8.153,1.738 10.625,2.582 13.180 C 3.211 15.085,4.388 17.115,6.012 19.099 C 7.742 21.211,10.155 23.344,11.411 23.871 C 11.765 24.019,12.235 24.019,12.589 23.871 C 13.845 23.344,16.258 21.211,17.988 19.099 C 21.145 15.244,22.459 11.492,21.842 8.100 C 21.291 5.072,19.369 2.515,16.580 1.099 C 14.899 0.245,12.976 -0.124,11.087 0.044 M13.279 2.099 C 14.153 2.248,14.895 2.487,15.651 2.866 C 18.056 4.070,19.671 6.374,19.958 9.008 C 20.252 11.719,18.949 14.868,16.170 18.160 C 15.649 18.777,14.340 20.102,13.707 20.653 C 13.158 21.131,12.378 21.731,12.143 21.856 C 12.002 21.931,11.998 21.931,11.857 21.856 C 11.622 21.731,10.842 21.131,10.292 20.653 C 9.619 20.067,8.292 18.716,7.745 18.060 C 5.019 14.792,3.750 11.689,4.042 9.008 C 4.330 6.368,5.941 4.071,8.349 2.866 C 9.146 2.467,10.050 2.186,10.860 2.085 C 11.058 2.060,11.265 2.032,11.320 2.023 C 11.544 1.984,12.920 2.038,13.279 2.099 M11.433 6.040 C 10.843 6.134,10.221 6.380,9.731 6.712 C 8.955 7.240,8.394 8.037,8.130 8.989 C 8.034 9.337,8.022 9.449,8.022 10.000 C 8.022 10.553,8.034 10.663,8.132 11.017 C 8.475 12.256,9.357 13.252,10.520 13.715 C 12.334 14.437,14.462 13.710,15.444 12.033 C 16.503 10.224,15.985 7.878,14.269 6.712 C 13.917 6.473,13.343 6.214,12.958 6.120 C 12.572 6.026,11.783 5.984,11.433 6.040 M12.383 8.043 C 13.185 8.190,13.839 8.872,13.967 9.695 C 14.153 10.894,13.209 12.000,12.000 12.000 C 11.032 12.000,10.183 11.268,10.033 10.305 C 9.933 9.663,10.132 9.061,10.596 8.596 C 11.085 8.108,11.698 7.918,12.383 8.043 " fill="#000640" stroke="none" fill-rule="evenodd"></path></svg>