<svg xmlns="http://www.w3.org/2000/svg" width="24" height="24" fill="currentColor" class="mmi mmi-placemarker-add" viewBox="0 0 24 24"><path d="M11.087 0.044 C 10.282 0.116,9.234 0.349,8.494 0.620 C 7.548 0.968,6.407 1.619,5.620 2.260 C 5.208 2.595,4.508 3.293,4.185 3.690 C 2.377 5.912,1.652 8.770,2.177 11.602 C 2.623 14.009,3.922 16.548,6.011 19.097 C 7.744 21.213,10.155 23.344,11.411 23.871 C 11.765 24.019,12.235 24.019,12.589 23.871 C 13.845 23.344,16.258 21.211,17.988 19.099 C 21.145 15.244,22.459 11.492,21.842 8.100 C 21.291 5.072,19.369 2.515,16.580 1.099 C 14.899 0.245,12.976 -0.124,11.087 0.044 M13.279 2.099 C 14.153 2.248,14.895 2.487,15.651 2.866 C 18.327 4.205,20.000 6.887,20.000 9.836 C 20.000 12.404,18.512 15.518,15.852 18.520 C 15.326 19.114,14.141 20.286,13.579 20.769 C 13.114 21.168,12.351 21.746,12.143 21.856 C 12.002 21.931,11.998 21.931,11.857 21.856 C 11.622 21.731,10.842 21.131,10.292 20.653 C 9.619 20.067,8.292 18.716,7.745 18.060 C 5.019 14.792,3.750 11.689,4.042 9.008 C 4.330 6.368,5.941 4.071,8.349 2.866 C 9.146 2.467,10.050 2.186,10.860 2.085 C 11.058 2.060,11.265 2.032,11.320 2.023 C 11.544 1.984,12.920 2.038,13.279 2.099 M11.664 6.063 C 11.436 6.146,11.257 6.297,11.131 6.511 L 11.020 6.700 11.008 7.850 L 10.995 9.000 9.923 9.000 C 8.764 9.000,8.642 9.018,8.374 9.222 C 8.301 9.277,8.192 9.408,8.131 9.511 C 8.036 9.672,8.020 9.744,8.020 10.000 C 8.020 10.256,8.036 10.328,8.131 10.489 C 8.192 10.592,8.301 10.723,8.374 10.778 C 8.642 10.983,8.764 11.000,9.925 11.000 L 11.000 11.000 11.000 12.070 C 11.000 12.684,11.018 13.204,11.042 13.289 C 11.103 13.509,11.315 13.762,11.531 13.874 C 11.932 14.080,12.390 14.012,12.700 13.702 C 12.979 13.423,13.000 13.309,13.000 12.073 L 13.000 11.000 14.073 11.000 C 15.308 11.000,15.423 10.979,15.701 10.701 C 16.092 10.310,16.092 9.690,15.701 9.299 C 15.423 9.021,15.308 9.000,14.073 9.000 L 13.000 9.000 13.000 7.927 C 13.000 6.692,12.979 6.577,12.701 6.299 C 12.429 6.027,12.018 5.933,11.664 6.063 " fill="#000640" stroke="none" fill-rule="evenodd"></path></svg>