<svg xmlns="http://www.w3.org/2000/svg" width="24" height="24" fill="currentColor" class="mmi mmi-placemarker-deduct" viewBox="0 0 24 24"><path d="M11.087 0.044 C 10.282 0.116,9.234 0.349,8.494 0.620 C 7.912 0.834,6.959 1.318,6.438 1.663 C 5.826 2.069,5.349 2.462,4.831 2.986 C 3.320 4.516,2.427 6.295,2.094 8.440 C 1.992 9.095,1.993 10.518,2.095 11.180 C 2.486 13.705,3.750 16.297,5.881 18.940 C 7.620 21.098,10.130 23.339,11.406 23.872 C 11.767 24.023,12.233 24.023,12.594 23.872 C 13.628 23.440,15.672 21.724,17.231 19.980 C 19.768 17.143,21.342 14.260,21.840 11.540 C 22.077 10.243,22.042 8.863,21.740 7.580 C 21.087 4.804,19.193 2.425,16.580 1.099 C 14.899 0.245,12.976 -0.124,11.087 0.044 M12.740 2.041 C 14.258 2.183,15.606 2.692,16.820 3.581 C 18.967 5.153,20.186 7.782,19.968 10.370 C 19.720 13.315,17.840 16.639,14.655 19.762 C 13.696 20.703,12.610 21.608,12.143 21.856 C 12.002 21.931,11.998 21.931,11.857 21.856 C 11.390 21.608,10.304 20.703,9.345 19.762 C 5.718 16.205,3.769 12.342,4.032 9.230 C 4.092 8.526,4.197 8.003,4.404 7.381 C 5.555 3.924,9.035 1.695,12.740 2.041 M8.296 8.803 C 8.120 8.854,7.802 9.148,7.715 9.338 C 7.466 9.886,7.817 10.591,8.400 10.716 C 8.538 10.746,9.696 10.760,12.000 10.760 C 14.304 10.760,15.462 10.746,15.600 10.716 C 16.190 10.590,16.539 9.876,16.277 9.333 C 16.172 9.118,15.894 8.869,15.688 8.807 C 15.496 8.750,8.493 8.746,8.296 8.803 " fill="#000640" stroke="none" fill-rule="evenodd"></path></svg>