<svg xmlns="http://www.w3.org/2000/svg" width="24" height="24" fill="currentColor" class="mmi mmi-plane-landing" viewBox="0 0 24 24"><path d="M10.203 3.284 C 9.873 3.385,9.616 3.647,9.523 3.980 C 9.498 4.068,9.388 5.236,9.279 6.577 C 9.170 7.917,9.075 9.019,9.068 9.025 C 9.056 9.037,6.834 8.447,6.814 8.427 C 6.808 8.422,6.639 7.932,6.437 7.339 C 6.235 6.745,6.034 6.188,5.990 6.100 C 5.735 5.588,5.222 5.064,4.721 4.803 C 4.548 4.713,3.993 4.504,3.489 4.340 C 2.275 3.943,2.047 3.942,1.651 4.330 C 1.345 4.629,1.356 4.494,1.369 7.825 L 1.381 10.780 1.474 11.060 C 1.681 11.679,2.059 12.227,2.515 12.570 C 2.650 12.671,4.207 13.556,5.975 14.537 L 9.190 16.320 12.465 17.198 C 14.266 17.680,16.478 18.277,17.380 18.523 L 19.020 18.970 19.520 18.975 C 20.113 18.980,20.378 18.921,20.880 18.671 C 21.157 18.533,21.290 18.431,21.600 18.121 C 22.027 17.693,22.197 17.432,22.363 16.950 C 22.662 16.083,22.556 15.160,22.071 14.413 C 21.766 13.945,20.516 12.477,20.256 12.285 C 19.781 11.932,19.509 11.836,17.365 11.263 C 16.258 10.967,15.347 10.719,15.342 10.712 C 15.337 10.705,15.158 9.634,14.944 8.331 C 14.703 6.863,14.519 5.854,14.460 5.681 C 14.192 4.891,13.634 4.260,12.900 3.917 C 12.550 3.753,10.871 3.285,10.540 3.258 C 10.430 3.250,10.278 3.261,10.203 3.284 M11.776 5.624 C 12.070 5.702,12.322 5.876,12.457 6.095 C 12.571 6.279,12.610 6.492,13.344 10.914 C 13.766 13.458,14.107 15.545,14.101 15.552 C 14.087 15.566,10.679 14.652,10.654 14.627 C 10.635 14.608,11.355 5.659,11.383 5.567 C 11.394 5.532,11.430 5.524,11.490 5.543 C 11.539 5.559,11.668 5.595,11.776 5.624 M3.688 6.514 C 3.816 6.564,4.106 6.819,4.168 6.935 C 4.192 6.980,4.417 7.620,4.668 8.358 C 4.919 9.096,5.153 9.744,5.188 9.797 C 5.289 9.952,5.447 10.086,5.620 10.162 C 5.708 10.201,6.473 10.416,7.320 10.641 C 8.167 10.866,8.872 11.062,8.886 11.075 C 8.918 11.106,8.709 13.665,8.670 13.703 C 8.638 13.736,3.824 11.074,3.686 10.947 C 3.635 10.899,3.545 10.779,3.486 10.680 L 3.380 10.500 3.369 8.452 L 3.357 6.405 3.469 6.438 C 3.530 6.456,3.629 6.491,3.688 6.514 M18.960 13.816 C 19.146 13.938,20.316 15.352,20.429 15.591 C 20.603 15.957,20.518 16.396,20.214 16.700 C 20.036 16.878,19.756 17.000,19.527 17.000 C 19.453 17.000,16.299 16.174,16.252 16.142 C 16.239 16.134,15.720 13.013,15.720 12.948 C 15.720 12.870,18.762 13.685,18.960 13.816 " fill="#000640" stroke="none" fill-rule="evenodd"></path></svg>