<svg xmlns="http://www.w3.org/2000/svg" width="24" height="24" fill="currentColor" class="mmi mmi-plane-vertical" viewBox="0 0 24 24"><path d="M11.440 1.047 C 11.054 1.101,10.442 1.324,10.073 1.545 C 9.488 1.894,8.911 2.537,8.636 3.143 C 8.306 3.870,8.237 4.421,8.341 5.497 C 8.381 5.906,8.406 6.246,8.397 6.254 C 8.387 6.262,7.210 6.579,5.780 6.959 C 4.350 7.338,3.065 7.692,2.925 7.745 C 2.215 8.011,1.627 8.556,1.298 9.253 C 1.026 9.829,1.020 9.880,1.020 11.683 L 1.020 13.306 1.141 13.502 C 1.284 13.733,1.507 13.899,1.768 13.966 C 1.937 14.011,2.289 13.974,5.408 13.586 C 7.306 13.349,8.915 13.147,8.982 13.135 L 9.105 13.114 9.280 14.876 C 9.376 15.846,9.447 16.646,9.437 16.655 C 9.428 16.664,8.745 17.008,7.920 17.420 C 6.295 18.232,6.188 18.304,6.065 18.664 C 6.009 18.828,6.000 19.084,6.002 20.517 C 6.003 21.801,6.016 22.214,6.057 22.330 C 6.185 22.689,6.515 22.949,6.888 22.986 C 7.066 23.004,7.358 22.943,8.717 22.602 L 10.334 22.196 10.537 22.394 C 10.779 22.629,10.976 22.755,11.300 22.881 C 11.502 22.960,11.613 22.975,12.000 22.975 C 12.387 22.975,12.498 22.960,12.700 22.881 C 13.024 22.755,13.221 22.629,13.463 22.394 L 13.666 22.196 15.283 22.602 C 16.642 22.943,16.934 23.004,17.112 22.986 C 17.493 22.949,17.807 22.696,17.939 22.322 C 18.033 22.058,18.029 18.939,17.935 18.664 C 17.812 18.304,17.705 18.232,16.080 17.420 C 15.255 17.008,14.572 16.664,14.563 16.655 C 14.553 16.646,14.624 15.846,14.720 14.876 L 14.895 13.113 14.998 13.132 C 15.054 13.142,16.668 13.346,18.585 13.584 L 22.070 14.018 22.299 13.945 C 22.596 13.852,22.843 13.613,22.937 13.328 C 22.998 13.147,23.003 12.950,22.990 11.572 C 22.974 9.858,22.969 9.819,22.700 9.249 C 22.376 8.561,21.778 8.008,21.075 7.745 C 20.935 7.692,19.650 7.338,18.220 6.958 C 16.790 6.578,15.613 6.261,15.603 6.254 C 15.594 6.246,15.619 5.905,15.659 5.496 C 15.758 4.471,15.714 4.036,15.438 3.321 C 15.266 2.876,14.967 2.435,14.582 2.060 C 13.754 1.253,12.604 0.882,11.440 1.047 M12.303 3.044 C 12.996 3.172,13.556 3.729,13.683 4.417 C 13.722 4.627,13.636 5.565,12.917 12.777 C 12.341 18.558,12.092 20.917,12.054 20.959 C 12.007 21.010,11.993 21.010,11.946 20.959 C 11.908 20.917,11.659 18.558,11.083 12.777 C 10.195 3.864,10.235 4.437,10.461 3.975 C 10.680 3.527,11.136 3.164,11.609 3.061 C 11.926 2.992,12.010 2.990,12.303 3.044 M8.763 9.701 C 8.902 11.116,8.902 11.123,8.821 11.140 C 8.777 11.150,7.489 11.312,5.960 11.500 C 4.431 11.688,3.138 11.851,3.087 11.863 L 2.994 11.883 3.007 11.072 C 3.019 10.329,3.027 10.246,3.107 10.097 C 3.233 9.862,3.480 9.657,3.727 9.580 C 3.999 9.496,8.526 8.286,8.581 8.283 C 8.606 8.281,8.677 8.836,8.763 9.701 M17.754 8.902 C 19.044 9.244,20.188 9.553,20.295 9.587 C 20.527 9.662,20.772 9.871,20.893 10.097 C 20.973 10.246,20.981 10.329,20.993 11.072 L 21.006 11.883 20.913 11.863 C 20.862 11.851,19.569 11.688,18.040 11.500 C 16.511 11.312,15.223 11.150,15.179 11.140 C 15.098 11.123,15.098 11.116,15.237 9.701 C 15.315 8.920,15.384 8.280,15.393 8.280 C 15.401 8.280,16.463 8.560,17.754 8.902 M9.681 18.870 C 9.681 18.909,9.708 19.183,9.740 19.480 C 9.772 19.777,9.799 20.076,9.799 20.145 L 9.800 20.270 8.970 20.477 C 8.514 20.590,8.109 20.693,8.070 20.704 C 8.006 20.724,8.000 20.680,8.000 20.172 L 8.000 19.619 8.810 19.212 C 9.255 18.988,9.633 18.804,9.650 18.802 C 9.666 18.801,9.680 18.832,9.681 18.870 M15.180 19.210 L 16.000 19.619 16.000 20.172 C 16.000 20.680,15.994 20.724,15.930 20.704 C 15.892 20.693,15.487 20.590,15.030 20.477 L 14.200 20.270 14.201 20.145 C 14.201 20.076,14.228 19.777,14.260 19.480 C 14.292 19.183,14.319 18.909,14.319 18.870 C 14.320 18.832,14.329 18.800,14.340 18.800 C 14.351 18.800,14.729 18.984,15.180 19.210 " fill="#000640" stroke="none" fill-rule="evenodd"></path></svg>