<svg xmlns="http://www.w3.org/2000/svg" width="24" height="24" fill="currentColor" class="mmi mmi-plane-horizontal" viewBox="0 0 24 24"><path d="M10.643 1.069 C 10.386 1.160,10.143 1.421,10.054 1.701 L 9.982 1.931 10.429 5.514 C 10.676 7.484,10.873 9.100,10.868 9.105 C 10.864 9.110,10.071 9.193,9.106 9.289 L 7.353 9.465 6.592 7.942 C 5.754 6.267,5.691 6.174,5.313 6.062 C 5.019 5.974,1.991 5.970,1.705 6.057 C 1.321 6.172,1.052 6.495,1.014 6.888 C 0.996 7.066,1.057 7.357,1.397 8.714 L 1.802 10.327 1.571 10.575 C 0.810 11.391,0.810 12.609,1.571 13.425 L 1.802 13.673 1.397 15.286 C 1.057 16.643,0.996 16.934,1.014 17.112 C 1.051 17.485,1.311 17.815,1.670 17.943 C 1.786 17.984,2.199 17.997,3.483 17.998 C 4.916 18.000,5.172 17.991,5.336 17.935 C 5.696 17.812,5.768 17.705,6.580 16.080 C 6.992 15.255,7.336 14.572,7.345 14.563 C 7.354 14.553,8.154 14.624,9.124 14.720 L 10.887 14.895 10.868 14.998 C 10.858 15.054,10.654 16.668,10.416 18.585 L 9.982 22.070 10.055 22.299 C 10.146 22.589,10.385 22.840,10.660 22.934 C 10.827 22.991,11.058 23.000,12.284 23.000 C 13.825 23.000,14.093 22.975,14.560 22.786 C 14.965 22.622,15.243 22.435,15.579 22.099 C 15.926 21.752,16.119 21.461,16.260 21.070 C 16.310 20.932,16.661 19.650,17.042 18.220 C 17.422 16.790,17.739 15.613,17.746 15.604 C 17.753 15.595,18.111 15.621,18.542 15.662 C 19.476 15.749,19.866 15.718,20.490 15.504 C 21.048 15.313,21.468 15.049,21.899 14.619 C 22.663 13.856,23.046 12.864,22.987 11.800 C 22.933 10.838,22.562 10.026,21.861 9.340 C 21.260 8.752,20.499 8.399,19.654 8.315 C 19.290 8.279,19.101 8.284,18.486 8.348 C 17.981 8.401,17.747 8.412,17.737 8.382 C 17.729 8.359,17.409 7.161,17.026 5.720 C 16.642 4.279,16.289 2.996,16.241 2.868 C 15.977 2.172,15.310 1.517,14.554 1.211 C 14.101 1.028,13.816 1.003,12.260 1.005 C 11.061 1.006,10.790 1.017,10.643 1.069 M13.880 3.094 C 14.057 3.188,14.270 3.388,14.343 3.527 C 14.401 3.637,15.735 8.599,15.712 8.620 C 15.692 8.638,12.901 8.912,12.885 8.898 C 12.877 8.890,12.705 7.559,12.502 5.939 L 12.134 2.994 12.937 3.007 C 13.627 3.018,13.760 3.030,13.880 3.094 M4.793 8.825 C 5.019 9.278,5.197 9.656,5.188 9.665 C 5.159 9.695,3.756 9.825,3.740 9.800 C 3.731 9.786,3.633 9.407,3.521 8.957 C 3.408 8.508,3.307 8.109,3.296 8.070 C 3.276 8.006,3.320 8.000,3.828 8.000 L 4.381 8.000 4.793 8.825 M19.605 10.320 C 20.489 10.484,21.122 11.382,20.972 12.258 C 20.845 13.001,20.286 13.565,19.556 13.688 C 19.327 13.727,18.462 13.648,11.220 12.924 C 6.776 12.480,3.109 12.107,3.070 12.095 C 3.015 12.079,2.966 11.932,3.010 11.916 C 3.042 11.905,19.126 10.288,19.245 10.285 C 19.324 10.282,19.486 10.298,19.605 10.320 M4.560 14.264 C 4.901 14.299,5.185 14.333,5.192 14.339 C 5.199 14.346,5.019 14.722,4.793 15.175 L 4.381 16.000 3.828 16.000 C 3.320 16.000,3.276 15.994,3.296 15.930 C 3.307 15.892,3.410 15.487,3.523 15.030 C 3.727 14.213,3.732 14.200,3.835 14.200 C 3.893 14.200,4.219 14.229,4.560 14.264 M15.713 15.383 C 15.728 15.395,14.513 19.985,14.413 20.295 C 14.338 20.527,14.129 20.772,13.903 20.893 C 13.754 20.973,13.671 20.981,12.937 20.993 L 12.134 21.006 12.505 18.053 C 12.709 16.429,12.877 15.099,12.878 15.098 C 12.885 15.092,15.703 15.375,15.713 15.383 " fill="#000640" stroke="none" fill-rule="evenodd"></path></svg>