<svg xmlns="http://www.w3.org/2000/svg" width="24" height="24" fill="currentColor" class="mmi mmi-plane-takeoff" viewBox="0 0 24 24"><path d="M7.620 4.955 C 7.466 4.993,7.240 5.070,7.118 5.126 C 6.667 5.333,5.256 6.178,5.111 6.328 C 4.796 6.652,4.770 7.169,5.050 7.564 C 5.121 7.665,5.864 8.553,6.700 9.537 C 7.536 10.521,8.225 11.338,8.230 11.354 C 8.236 11.369,7.786 11.645,7.230 11.966 L 6.220 12.550 5.760 12.320 C 4.618 11.750,4.014 11.485,3.712 11.423 C 3.141 11.306,2.467 11.367,1.960 11.580 C 1.625 11.721,0.757 12.230,0.606 12.373 C 0.322 12.644,0.224 13.007,0.338 13.369 C 0.397 13.555,0.633 13.861,1.964 15.483 C 2.821 16.526,3.653 17.508,3.814 17.664 C 4.434 18.267,5.290 18.563,6.160 18.477 C 6.363 18.457,7.597 18.122,9.973 17.443 L 13.485 16.438 15.933 15.024 C 17.279 14.247,19.217 13.130,20.240 12.541 C 21.263 11.953,22.210 11.394,22.344 11.298 C 23.149 10.725,23.613 9.749,23.549 8.760 C 23.518 8.292,23.430 7.970,23.210 7.520 C 22.891 6.870,22.264 6.315,21.584 6.081 C 21.264 5.971,21.024 5.934,20.040 5.839 C 18.951 5.734,18.475 5.734,18.074 5.836 C 17.676 5.938,17.641 5.957,15.609 7.129 C 13.969 8.076,13.874 8.125,13.789 8.070 C 13.740 8.038,12.841 7.398,11.790 6.648 C 10.740 5.898,9.765 5.229,9.622 5.161 C 9.038 4.882,8.245 4.801,7.620 4.955 M8.740 6.957 C 8.951 7.056,16.381 12.374,16.376 12.423 C 16.374 12.443,15.683 12.858,14.840 13.345 L 13.308 14.231 12.200 12.925 C 8.148 8.151,7.403 7.261,7.431 7.233 C 7.448 7.216,7.602 7.130,7.773 7.041 C 8.040 6.903,8.120 6.880,8.332 6.881 C 8.490 6.881,8.638 6.909,8.740 6.957 M19.939 7.843 C 20.431 7.890,20.879 7.952,20.959 7.985 C 21.141 8.061,21.345 8.258,21.451 8.460 C 21.513 8.578,21.535 8.693,21.535 8.900 C 21.535 9.212,21.453 9.419,21.253 9.609 C 21.129 9.726,18.367 11.331,18.321 11.311 C 18.306 11.305,17.706 10.878,16.987 10.362 C 15.974 9.636,15.690 9.414,15.730 9.378 C 15.773 9.339,18.129 7.979,18.400 7.837 C 18.517 7.776,18.769 7.735,18.940 7.750 C 19.006 7.755,19.455 7.797,19.939 7.843 M10.553 14.079 L 11.317 14.978 8.688 15.731 C 6.787 16.275,6.001 16.483,5.846 16.484 C 5.696 16.485,5.570 16.455,5.424 16.384 C 5.238 16.293,5.094 16.134,4.048 14.862 C 3.406 14.082,2.880 13.422,2.880 13.397 C 2.880 13.365,2.961 13.356,3.139 13.367 C 3.379 13.382,3.493 13.431,4.678 14.019 C 5.810 14.581,5.986 14.657,6.196 14.672 C 6.504 14.694,6.530 14.682,8.218 13.706 L 9.576 12.922 9.683 13.051 C 9.742 13.122,10.134 13.585,10.553 14.079 " fill="#000640" stroke="none" fill-rule="evenodd"></path></svg>