<svg xmlns="http://www.w3.org/2000/svg" width="24" height="24" fill="currentColor" class="mmi mmi-plane" viewBox="0 0 24 24"><path d="M8.619 5.054 C 8.380 5.132,8.248 5.232,8.138 5.419 C 7.943 5.752,7.950 5.826,8.437 8.488 C 8.680 9.824,8.880 10.935,8.880 10.958 C 8.880 10.986,8.493 11.000,7.707 11.000 L 6.534 11.000 5.899 10.050 C 5.234 9.056,5.024 8.807,4.609 8.526 C 3.938 8.071,3.517 7.991,1.890 8.008 L 0.700 8.020 0.468 8.134 C 0.159 8.286,0.029 8.479,0.009 8.815 C -0.002 8.993,0.104 9.720,0.399 11.480 C 0.621 12.811,0.821 13.972,0.843 14.060 C 1.077 14.986,1.759 15.766,2.640 16.114 C 2.836 16.191,4.235 16.520,6.660 17.057 C 8.706 17.511,10.448 17.909,10.532 17.941 C 10.663 17.993,11.380 18.001,15.837 18.002 C 18.671 18.002,21.069 17.992,21.165 17.979 C 21.878 17.881,22.397 17.637,22.892 17.166 C 23.494 16.593,23.815 15.829,23.810 14.980 C 23.807 14.463,23.717 14.071,23.506 13.653 C 23.303 13.249,23.124 13.043,22.395 12.375 C 21.578 11.626,21.388 11.478,21.028 11.302 C 20.445 11.017,20.528 11.025,17.814 11.010 L 15.368 10.996 14.359 8.777 C 13.803 7.556,13.278 6.455,13.191 6.329 C 12.773 5.726,12.166 5.293,11.460 5.095 C 11.136 5.004,8.872 4.971,8.619 5.054 M13.678 12.110 C 13.706 12.171,13.752 12.295,13.780 12.387 C 13.808 12.479,13.866 12.605,13.909 12.667 C 13.967 12.750,15.259 15.543,15.428 15.950 C 15.444 15.990,15.073 16.000,13.647 16.000 C 11.966 16.000,11.844 15.995,11.825 15.930 C 11.799 15.840,11.120 12.097,11.120 12.041 C 11.120 12.014,11.536 12.000,12.374 12.000 L 13.627 12.000 13.678 12.110 " stroke="none" fill-rule="evenodd"></path></svg>