<svg xmlns="http://www.w3.org/2000/svg" width="24" height="24" fill="currentColor" class="mmi mmi-play-button" viewBox="0 0 24 24"><path d="M11.200 0.025 C 7.091 0.332,3.508 2.609,1.507 6.186 C 0.775 7.494,0.317 8.899,0.094 10.520 C -0.002 11.214,-0.002 12.786,0.094 13.480 C 0.317 15.101,0.775 16.506,1.507 17.814 C 4.173 22.579,9.604 24.939,14.910 23.637 C 19.156 22.595,22.595 19.156,23.637 14.910 C 24.599 10.992,23.592 6.970,20.896 3.958 C 19.003 1.843,16.397 0.483,13.500 0.099 C 13.032 0.037,11.640 -0.007,11.200 0.025 M12.920 2.043 C 14.827 2.219,16.631 2.940,18.200 4.155 C 18.637 4.493,19.507 5.363,19.845 5.800 C 21.878 8.427,22.517 11.768,21.578 14.865 C 21.082 16.499,20.272 17.850,19.061 19.061 C 18.287 19.836,17.547 20.383,16.623 20.863 C 13.714 22.376,10.286 22.376,7.377 20.863 C 6.454 20.383,5.715 19.837,4.938 19.061 C 3.951 18.075,3.213 16.964,2.722 15.728 C 1.390 12.368,1.921 8.686,4.153 5.800 C 4.491 5.363,5.363 4.491,5.800 4.153 C 7.114 3.137,8.541 2.486,10.125 2.181 C 11.037 2.006,12.003 1.958,12.920 2.043 M8.667 6.065 C 8.412 6.143,8.152 6.402,8.065 6.666 C 8.005 6.847,8.000 7.323,8.009 12.063 L 8.020 17.262 8.122 17.461 C 8.323 17.851,8.780 18.064,9.206 17.966 C 9.511 17.896,17.644 12.808,17.804 12.588 C 18.046 12.254,18.046 11.746,17.804 11.412 C 17.715 11.288,16.864 10.740,13.556 8.673 C 11.281 7.252,9.348 6.069,9.260 6.044 C 9.051 5.987,8.904 5.992,8.667 6.065 M12.750 10.520 C 14.032 11.322,15.080 11.987,15.080 11.999 C 15.080 12.016,12.318 13.757,10.290 15.019 L 10.000 15.200 10.000 11.999 L 10.000 8.798 10.210 8.931 C 10.325 9.004,11.468 9.719,12.750 10.520 " stroke="none" fill-rule="evenodd"></path></svg>