<svg xmlns="http://www.w3.org/2000/svg" width="24" height="24" fill="currentColor" class="mmi mmi-play" viewBox="0 0 24 24"><path d="M6.650 2.524 C 5.973 2.603,5.365 2.907,4.853 3.421 C 4.577 3.700,4.495 3.814,4.325 4.165 C 3.976 4.887,4.000 4.304,4.000 12.000 C 4.000 19.699,3.976 19.113,4.327 19.838 C 4.502 20.201,4.574 20.300,4.874 20.598 C 5.282 21.001,5.658 21.228,6.180 21.383 C 6.817 21.574,7.576 21.527,8.183 21.260 C 8.443 21.146,19.499 14.647,19.824 14.417 C 20.310 14.073,20.694 13.551,20.907 12.940 C 21.011 12.643,21.019 12.576,21.019 12.000 C 21.019 11.424,21.011 11.357,20.907 11.060 C 20.705 10.481,20.323 9.945,19.887 9.626 C 19.579 9.400,8.399 2.836,8.147 2.732 C 7.664 2.534,7.163 2.464,6.650 2.524 M12.981 7.855 C 16.082 9.678,18.672 11.217,18.735 11.275 C 19.130 11.636,19.130 12.361,18.735 12.726 C 18.672 12.785,16.093 14.319,13.005 16.135 C 8.746 18.639,7.340 19.448,7.182 19.483 C 6.779 19.573,6.322 19.343,6.107 18.943 L 6.020 18.780 6.020 12.000 L 6.020 5.220 6.106 5.060 C 6.315 4.675,6.598 4.514,7.041 4.530 L 7.342 4.540 12.981 7.855 " fill="#000640" stroke="none" fill-rule="evenodd"></path></svg>