<svg xmlns="http://www.w3.org/2000/svg" width="24" height="24" fill="currentColor" class="mmi mmi-play-filled" viewBox="0 0 24 24"><path d="M6.650 2.524 C 5.973 2.603,5.365 2.907,4.853 3.421 C 4.577 3.700,4.495 3.814,4.325 4.165 C 3.976 4.887,4.000 4.304,4.000 12.000 C 4.000 19.699,3.976 19.113,4.327 19.838 C 4.502 20.201,4.574 20.300,4.874 20.598 C 5.282 21.001,5.658 21.228,6.180 21.383 C 6.817 21.574,7.576 21.527,8.183 21.260 C 8.443 21.146,19.499 14.647,19.824 14.417 C 20.310 14.073,20.694 13.551,20.907 12.940 C 21.011 12.643,21.019 12.576,21.019 12.000 C 21.019 11.424,21.011 11.357,20.907 11.060 C 20.705 10.481,20.323 9.945,19.887 9.626 C 19.579 9.400,8.399 2.836,8.147 2.732 C 7.664 2.534,7.163 2.464,6.650 2.524 " fill="#000640" stroke="none" fill-rule="evenodd"></path></svg>