<svg xmlns="http://www.w3.org/2000/svg" width="24" height="24" fill="currentColor" class="mmi mmi-plus-bold" viewBox="0 0 24 24"><path d="M8.664 2.063 C 8.436 2.146,8.257 2.297,8.131 2.511 L 8.020 2.700 8.009 5.349 L 7.998 7.998 5.368 8.009 L 2.738 8.020 2.539 8.122 C 2.316 8.237,2.104 8.488,2.042 8.711 C 1.985 8.916,1.985 15.084,2.042 15.289 C 2.104 15.512,2.316 15.763,2.539 15.878 L 2.738 15.980 5.368 15.991 L 7.998 16.002 8.009 18.651 L 8.020 21.300 8.131 21.489 C 8.192 21.592,8.301 21.723,8.374 21.778 C 8.672 22.006,8.578 22.000,11.998 22.000 C 15.545 22.000,15.390 22.013,15.701 21.701 C 16.008 21.394,16.000 21.477,16.000 18.573 L 16.000 16.000 18.573 16.000 C 21.477 16.000,21.394 16.008,21.701 15.701 C 22.013 15.390,22.000 15.544,22.000 12.000 C 22.000 8.456,22.013 8.610,21.701 8.299 C 21.394 7.992,21.477 8.000,18.573 8.000 L 16.000 8.000 16.000 5.427 C 16.000 2.523,16.008 2.606,15.701 2.299 C 15.389 1.987,15.547 2.000,11.983 2.003 C 9.342 2.005,8.794 2.015,8.664 2.063 M14.000 7.000 L 14.000 10.000 17.000 10.000 L 20.000 10.000 20.000 12.000 L 20.000 14.000 17.000 14.000 L 14.000 14.000 14.000 17.000 L 14.000 20.000 12.000 20.000 L 10.000 20.000 10.000 17.000 L 10.000 14.000 7.000 14.000 L 4.000 14.000 4.000 12.000 L 4.000 10.000 7.000 10.000 L 10.000 10.000 10.000 7.000 L 10.000 4.000 12.000 4.000 L 14.000 4.000 14.000 7.000 " fill="#000640" stroke="none" fill-rule="evenodd"></path></svg>