<svg xmlns="http://www.w3.org/2000/svg" width="24" height="24" fill="currentColor" class="mmi mmi-plus-incircle" viewBox="0 0 24 24"><path d="M11.200 0.025 C 7.091 0.332,3.508 2.609,1.507 6.186 C 0.775 7.494,0.317 8.899,0.094 10.520 C -0.002 11.214,-0.002 12.786,0.094 13.480 C 0.317 15.101,0.775 16.506,1.507 17.814 C 4.173 22.579,9.604 24.939,14.910 23.637 C 19.156 22.595,22.595 19.156,23.637 14.910 C 24.599 10.992,23.592 6.970,20.896 3.958 C 19.003 1.843,16.397 0.483,13.500 0.099 C 13.032 0.037,11.640 -0.007,11.200 0.025 M12.920 2.043 C 14.827 2.219,16.631 2.940,18.200 4.155 C 18.637 4.493,19.507 5.363,19.845 5.800 C 21.878 8.427,22.517 11.768,21.578 14.865 C 21.082 16.499,20.272 17.850,19.061 19.061 C 18.287 19.836,17.547 20.383,16.623 20.863 C 13.714 22.376,10.286 22.376,7.377 20.863 C 6.454 20.383,5.715 19.837,4.938 19.061 C 3.951 18.075,3.213 16.964,2.722 15.728 C 1.390 12.368,1.921 8.686,4.153 5.800 C 4.491 5.363,5.363 4.491,5.800 4.153 C 7.114 3.137,8.541 2.486,10.125 2.181 C 11.037 2.006,12.003 1.958,12.920 2.043 M11.664 6.063 C 11.436 6.146,11.257 6.297,11.131 6.511 L 11.020 6.700 11.009 8.850 L 10.997 11.000 8.924 11.000 C 6.677 11.000,6.663 11.001,6.374 11.222 C 6.301 11.277,6.192 11.408,6.131 11.511 C 6.036 11.672,6.020 11.744,6.020 12.000 C 6.020 12.256,6.036 12.328,6.131 12.489 C 6.192 12.592,6.301 12.723,6.374 12.778 C 6.663 12.999,6.676 13.000,8.925 13.000 L 11.000 13.000 11.000 15.070 C 11.000 16.373,11.016 17.195,11.042 17.289 C 11.103 17.509,11.315 17.762,11.531 17.874 C 11.932 18.080,12.390 18.012,12.700 17.702 C 13.002 17.400,13.000 17.420,13.000 15.073 L 13.000 13.000 15.073 13.000 C 17.419 13.000,17.400 13.002,17.701 12.701 C 18.092 12.310,18.092 11.690,17.701 11.299 C 17.400 10.998,17.419 11.000,15.073 11.000 L 13.000 11.000 13.000 8.927 C 13.000 6.581,13.002 6.600,12.701 6.299 C 12.429 6.027,12.018 5.933,11.664 6.063 " fill="#000640" stroke="none" fill-rule="evenodd"></path></svg>