<svg xmlns="http://www.w3.org/2000/svg" width="24" height="24" fill="currentColor" class="mmi mmi-podcast" viewBox="0 0 24 24"><path d="M3.996 3.276 C 3.736 3.329,3.503 3.506,3.099 3.961 C 1.731 5.495,0.842 7.167,0.345 9.140 C -0.101 10.912,-0.110 12.961,0.320 14.748 C 0.810 16.784,1.710 18.490,3.130 20.073 C 3.450 20.430,3.614 20.580,3.768 20.656 C 4.132 20.838,4.552 20.783,4.858 20.514 C 5.087 20.312,5.200 20.065,5.199 19.770 C 5.198 19.456,5.102 19.266,4.756 18.893 C 3.279 17.302,2.427 15.531,2.094 13.360 C 1.996 12.719,1.996 11.281,2.094 10.640 C 2.428 8.460,3.265 6.724,4.770 5.090 C 4.990 4.851,5.092 4.704,5.142 4.555 C 5.376 3.850,4.730 3.129,3.996 3.276 M19.329 3.327 C 19.025 3.475,18.760 3.890,18.760 4.220 C 18.760 4.483,18.885 4.720,19.208 5.068 C 20.725 6.703,21.570 8.448,21.906 10.640 C 22.004 11.281,22.004 12.719,21.906 13.360 C 21.574 15.527,20.725 17.296,19.260 18.875 C 18.861 19.304,18.762 19.488,18.761 19.800 C 18.760 20.389,19.254 20.842,19.840 20.789 C 20.186 20.758,20.362 20.635,20.863 20.079 C 22.687 18.053,23.700 15.733,23.965 12.980 C 24.027 12.338,23.986 11.014,23.885 10.339 C 23.621 8.586,23.050 7.029,22.143 5.591 C 21.563 4.671,20.581 3.518,20.229 3.342 C 19.964 3.210,19.583 3.204,19.329 3.327 M16.680 6.035 C 16.207 6.190,15.946 6.534,15.946 7.000 C 15.946 7.334,16.022 7.483,16.420 7.921 C 17.179 8.759,17.692 9.801,17.905 10.940 C 18.007 11.487,18.008 12.633,17.906 13.120 C 17.649 14.346,17.170 15.298,16.367 16.173 C 16.090 16.476,16.002 16.672,16.001 16.991 C 16.000 17.282,16.059 17.448,16.237 17.650 C 16.518 17.971,17.024 18.072,17.411 17.884 C 17.615 17.785,17.947 17.447,18.328 16.949 C 20.371 14.275,20.547 10.594,18.770 7.731 C 18.350 7.056,17.721 6.314,17.416 6.135 C 17.227 6.025,16.862 5.975,16.680 6.035 M6.569 6.165 C 6.287 6.305,5.662 7.036,5.230 7.731 C 3.751 10.114,3.605 13.132,4.849 15.617 C 5.357 16.631,6.154 17.668,6.578 17.865 C 7.083 18.100,7.670 17.887,7.905 17.382 C 8.103 16.958,8.012 16.608,7.578 16.118 C 6.809 15.249,6.305 14.225,6.095 13.100 C 5.985 12.513,5.994 11.368,6.112 10.830 C 6.360 9.700,6.842 8.739,7.563 7.940 C 7.934 7.528,8.013 7.355,7.993 7.000 C 7.974 6.654,7.824 6.395,7.542 6.221 C 7.376 6.118,7.301 6.098,7.043 6.090 C 6.800 6.082,6.706 6.097,6.569 6.165 M11.433 8.040 C 10.838 8.135,10.225 8.378,9.715 8.722 C 9.389 8.942,8.942 9.389,8.722 9.715 C 8.470 10.088,8.215 10.654,8.113 11.062 C 7.987 11.571,7.987 12.429,8.113 12.938 C 8.284 13.624,8.679 14.325,9.177 14.823 C 9.675 15.321,10.376 15.716,11.062 15.887 C 11.571 16.013,12.429 16.013,12.938 15.887 C 13.624 15.716,14.325 15.321,14.823 14.823 C 15.321 14.325,15.716 13.624,15.887 12.938 C 16.013 12.429,16.013 11.571,15.887 11.062 C 15.716 10.376,15.321 9.675,14.823 9.177 C 14.329 8.683,13.621 8.282,12.958 8.120 C 12.572 8.026,11.783 7.984,11.433 8.040 M12.408 10.044 C 13.310 10.232,14.000 11.080,14.000 12.000 C 14.000 13.080,13.080 14.000,12.000 14.000 C 10.920 14.000,10.000 13.080,10.000 12.000 C 10.000 11.102,10.657 10.269,11.534 10.057 C 11.797 9.993,12.138 9.988,12.408 10.044 " fill="#000640" stroke="none" fill-rule="evenodd"></path></svg>