<svg xmlns="http://www.w3.org/2000/svg" width="24" height="24" fill="currentColor" class="mmi mmi-policecap" viewBox="0 0 24 24"><path d="M11.300 1.024 C 9.676 1.188,8.532 1.584,7.260 2.422 C 6.259 3.082,5.380 3.939,3.900 5.700 C 3.217 6.512,2.641 7.149,2.248 7.527 C 1.790 7.967,1.592 8.218,1.396 8.609 C 0.977 9.441,1.035 10.151,1.616 11.340 C 1.869 11.857,2.292 12.513,2.702 13.025 L 2.995 13.390 3.009 15.465 L 3.024 17.540 3.130 17.931 C 3.681 19.965,5.298 21.556,7.620 22.353 C 9.992 23.167,13.496 23.211,16.046 22.459 C 18.519 21.730,20.289 20.068,20.871 17.929 L 20.977 17.540 20.991 15.466 L 21.005 13.391 21.297 13.026 C 21.927 12.237,22.437 11.356,22.700 10.600 C 22.958 9.857,22.934 9.269,22.618 8.630 C 22.417 8.224,22.255 8.023,21.594 7.360 C 21.277 7.041,20.651 6.348,20.204 5.820 C 18.508 3.816,17.758 3.085,16.648 2.358 C 15.644 1.700,14.567 1.290,13.340 1.100 C 12.954 1.040,11.628 0.991,11.300 1.024 M13.210 3.099 C 13.693 3.187,14.167 3.329,14.597 3.514 C 15.824 4.044,16.772 4.865,18.481 6.879 C 19.481 8.057,19.787 8.395,20.380 8.980 C 20.851 9.444,20.916 9.564,20.846 9.835 C 20.729 10.287,20.132 11.325,19.700 11.830 L 19.554 12.000 11.999 12.000 L 4.443 12.000 4.226 11.730 C 3.791 11.188,3.339 10.409,3.181 9.925 C 3.068 9.581,3.124 9.464,3.639 8.960 C 4.219 8.392,4.528 8.053,5.415 7.004 C 5.831 6.513,6.378 5.887,6.631 5.613 C 8.092 4.027,9.452 3.258,11.187 3.040 C 11.589 2.989,12.803 3.024,13.210 3.099 M11.400 5.064 C 10.840 5.179,10.250 5.511,9.827 5.948 C 8.707 7.106,8.733 8.963,9.885 10.115 C 10.749 10.978,12.011 11.230,13.151 10.766 C 13.857 10.479,14.479 9.857,14.766 9.151 C 15.228 8.017,14.984 6.767,14.132 5.903 C 13.766 5.531,13.259 5.237,12.740 5.093 C 12.428 5.006,11.750 4.992,11.400 5.064 M12.340 7.066 C 12.838 7.236,13.117 7.820,12.939 8.322 C 12.692 9.024,11.821 9.223,11.296 8.698 C 11.124 8.526,11.000 8.234,11.000 8.000 C 11.000 7.766,11.124 7.474,11.296 7.302 C 11.577 7.020,11.955 6.935,12.340 7.066 M19.000 15.000 L 19.000 16.000 12.000 16.000 L 5.000 16.000 5.000 15.000 L 5.000 14.000 12.000 14.000 L 19.000 14.000 19.000 15.000 M18.720 18.033 C 18.720 18.110,18.367 18.645,18.129 18.928 C 17.382 19.819,16.175 20.446,14.603 20.759 C 13.650 20.950,13.282 20.980,11.980 20.978 C 10.685 20.976,10.198 20.932,9.267 20.736 C 7.769 20.420,6.572 19.773,5.828 18.880 C 5.624 18.634,5.280 18.103,5.280 18.033 C 5.280 18.015,8.304 18.000,12.000 18.000 C 15.696 18.000,18.720 18.015,18.720 18.033 " fill="#000640" stroke="none" fill-rule="evenodd"></path></svg>