<svg xmlns="http://www.w3.org/2000/svg" width="24" height="24" fill="currentColor" class="mmi mmi-polloshirt" viewBox="0 0 24 24"><path d="M6.671 1.064 C 6.340 1.165,6.214 1.332,5.729 2.300 L 5.289 3.180 4.815 3.334 C 4.086 3.570,3.645 3.754,3.360 3.940 C 2.686 4.380,2.210 5.095,2.061 5.890 C 2.006 6.184,2.000 7.044,2.010 13.381 C 2.023 21.378,1.995 20.638,2.312 21.296 C 2.614 21.924,3.095 22.398,3.740 22.704 C 4.406 23.019,3.877 23.000,12.000 23.000 C 20.123 23.000,19.594 23.019,20.260 22.704 C 20.920 22.391,21.391 21.920,21.704 21.260 C 22.019 20.595,22.000 21.098,21.999 13.226 C 21.997 5.638,22.005 5.908,21.779 5.339 C 21.572 4.816,21.145 4.275,20.705 3.975 C 20.447 3.801,19.934 3.580,19.305 3.375 L 18.711 3.180 18.275 2.310 C 17.969 1.699,17.792 1.392,17.682 1.282 C 17.383 0.983,17.720 1.000,11.983 1.003 C 7.617 1.005,6.832 1.014,6.671 1.064 M14.079 3.055 C 14.046 3.084,13.566 3.472,13.010 3.915 L 12.000 4.722 10.990 3.915 C 10.434 3.472,9.954 3.084,9.921 3.055 C 9.872 3.008,10.194 3.000,12.000 3.000 C 13.806 3.000,14.128 3.008,14.079 3.055 M8.774 4.698 C 9.514 5.290,10.120 5.785,10.120 5.798 C 10.120 5.820,8.502 6.640,8.460 6.640 C 8.449 6.640,8.143 6.046,7.780 5.321 L 7.120 4.001 7.227 3.783 C 7.296 3.643,7.352 3.574,7.381 3.592 C 7.407 3.607,8.034 4.105,8.774 4.698 M16.220 5.319 C 15.857 6.046,15.551 6.640,15.540 6.640 C 15.482 6.640,13.881 5.816,13.890 5.790 C 13.896 5.773,14.520 5.264,15.278 4.657 L 16.656 3.555 16.769 3.777 L 16.881 3.999 16.220 5.319 M6.320 6.888 C 7.240 8.738,7.299 8.825,7.703 8.943 C 7.850 8.985,7.998 9.001,8.116 8.986 C 8.246 8.970,8.844 8.692,10.150 8.042 L 12.000 7.121 13.850 8.042 C 15.156 8.692,15.754 8.970,15.884 8.986 C 16.001 9.001,16.150 8.985,16.296 8.943 C 16.693 8.828,16.745 8.750,17.664 6.910 C 18.118 6.003,18.495 5.254,18.502 5.246 C 18.509 5.238,18.744 5.308,19.024 5.401 C 19.460 5.547,19.557 5.595,19.700 5.738 C 20.025 6.063,20.000 5.442,20.000 13.220 C 20.000 20.997,20.025 20.377,19.701 20.701 C 19.377 21.025,20.023 21.000,11.998 21.000 C 4.201 21.000,4.683 21.014,4.374 20.778 C 4.301 20.723,4.192 20.592,4.131 20.489 L 4.020 20.300 4.010 13.302 C 3.998 5.436,3.974 6.064,4.299 5.739 C 4.440 5.598,4.543 5.545,4.943 5.409 C 5.206 5.319,5.438 5.245,5.460 5.243 C 5.483 5.241,5.870 5.982,6.320 6.888 M11.664 9.063 C 11.436 9.146,11.257 9.297,11.131 9.511 C 11.036 9.672,11.020 9.744,11.020 10.000 C 11.020 10.256,11.036 10.328,11.131 10.489 C 11.470 11.065,12.234 11.168,12.701 10.701 C 12.881 10.521,13.000 10.242,13.000 10.000 C 13.000 9.326,12.295 8.832,11.664 9.063 M11.664 13.063 C 11.436 13.146,11.257 13.297,11.131 13.511 C 11.036 13.672,11.020 13.744,11.020 14.000 C 11.020 14.256,11.036 14.328,11.131 14.489 C 11.470 15.065,12.234 15.168,12.701 14.701 C 12.881 14.521,13.000 14.242,13.000 14.000 C 13.000 13.326,12.295 12.832,11.664 13.063 " fill="#000640" stroke="none" fill-rule="evenodd"></path></svg>