<svg xmlns="http://www.w3.org/2000/svg" width="24" height="24" fill="currentColor" class="mmi mmi-post" viewBox="0 0 24 24"><path d="M4.670 3.177 C 3.977 3.424,3.780 4.313,4.305 4.823 C 4.636 5.145,3.992 5.120,12.000 5.120 C 20.008 5.120,19.364 5.145,19.695 4.823 C 20.220 4.313,20.023 3.424,19.330 3.177 C 19.107 3.098,4.893 3.098,4.670 3.177 M11.675 6.173 C 11.596 6.203,11.479 6.265,11.415 6.311 C 11.352 6.357,10.136 7.561,8.713 8.987 L 6.126 11.580 6.057 11.820 C 5.999 12.021,5.995 12.095,6.033 12.277 C 6.119 12.689,6.421 12.997,6.820 13.080 C 7.047 13.127,7.255 13.094,7.500 12.972 C 7.566 12.939,8.380 12.153,9.310 11.226 L 11.000 9.541 11.000 15.404 C 11.000 22.005,10.976 21.503,11.306 21.824 C 11.706 22.213,12.294 22.213,12.694 21.824 C 13.024 21.503,13.000 22.005,13.000 15.404 L 13.000 9.541 14.690 11.227 C 16.375 12.907,16.526 13.038,16.844 13.095 C 17.184 13.157,17.613 12.959,17.820 12.647 C 17.983 12.402,18.026 12.109,17.943 11.820 L 17.874 11.580 15.267 8.967 C 13.833 7.530,12.583 6.309,12.488 6.252 C 12.280 6.129,11.894 6.091,11.675 6.173 " fill="#000640" stroke="none" fill-rule="evenodd"></path></svg>