<svg xmlns="http://www.w3.org/2000/svg" width="24" height="24" fill="currentColor" class="mmi mmi-pottedplant" viewBox="0 0 24 24"><path d="M11.423 1.044 C 10.568 1.169,9.807 1.554,9.177 2.179 C 8.433 2.918,8.052 3.793,8.012 4.860 C 7.989 5.460,8.064 5.917,8.274 6.460 C 8.694 7.544,9.672 8.466,10.759 8.803 L 10.980 8.871 10.991 10.115 C 10.996 10.800,10.992 11.360,10.981 11.360 C 10.970 11.360,10.519 11.140,9.980 10.870 L 9.000 10.381 9.000 10.049 C 9.000 8.566,7.980 7.330,6.531 7.057 C 5.164 6.799,3.769 7.557,3.237 8.846 C 2.507 10.618,3.556 12.561,5.451 12.945 C 6.282 13.113,7.318 12.839,7.926 12.290 L 8.073 12.157 9.537 12.888 L 11.000 13.619 11.000 14.810 L 11.000 16.000 7.947 16.000 C 4.490 16.000,4.607 15.990,4.302 16.296 C 4.094 16.504,3.982 16.802,4.009 17.076 C 4.020 17.197,4.404 18.208,5.080 19.900 C 6.054 22.337,6.147 22.549,6.300 22.702 C 6.619 23.021,6.219 23.000,12.000 23.000 C 17.781 23.000,17.381 23.021,17.700 22.702 C 17.853 22.549,17.946 22.337,18.920 19.900 C 19.596 18.208,19.980 17.197,19.991 17.076 C 20.018 16.802,19.906 16.504,19.698 16.296 C 19.393 15.990,19.510 16.000,16.053 16.000 L 13.000 16.000 13.000 14.810 L 13.000 13.619 14.463 12.888 L 15.927 12.157 16.074 12.290 C 16.315 12.508,16.681 12.708,17.081 12.842 C 18.647 13.367,20.339 12.490,20.864 10.880 C 20.963 10.578,20.975 10.480,20.976 10.000 C 20.977 9.490,20.969 9.438,20.842 9.065 C 20.498 8.062,19.703 7.330,18.680 7.076 C 18.394 7.004,17.603 7.005,17.323 7.076 C 15.927 7.431,15.000 8.618,15.000 10.049 L 15.000 10.381 14.020 10.870 C 13.481 11.140,13.031 11.360,13.020 11.360 C 13.009 11.360,13.000 10.801,13.000 10.119 C 13.000 8.972,13.005 8.876,13.070 8.856 C 14.493 8.416,15.492 7.386,15.868 5.971 C 15.957 5.636,15.972 5.497,15.972 5.000 C 15.972 4.504,15.957 4.364,15.869 4.032 C 15.812 3.818,15.693 3.488,15.604 3.298 C 14.864 1.720,13.145 0.793,11.423 1.044 M12.383 3.043 C 13.185 3.190,13.839 3.872,13.967 4.695 C 14.153 5.894,13.209 7.000,12.000 7.000 C 11.032 7.000,10.183 6.268,10.033 5.305 C 9.933 4.663,10.132 4.061,10.596 3.596 C 11.085 3.108,11.698 2.918,12.383 3.043 M6.340 9.066 C 6.709 9.192,7.000 9.604,7.000 10.000 C 7.000 10.527,6.527 11.000,6.000 11.000 C 5.758 11.000,5.479 10.881,5.299 10.701 C 4.907 10.309,4.908 9.690,5.300 9.298 C 5.577 9.020,5.957 8.936,6.340 9.066 M18.340 9.066 C 18.709 9.192,19.000 9.604,19.000 10.000 C 19.000 10.527,18.527 11.000,18.000 11.000 C 17.758 11.000,17.479 10.881,17.299 10.701 C 16.907 10.309,16.908 9.690,17.300 9.298 C 17.577 9.020,17.957 8.936,18.340 9.066 M17.452 18.170 C 17.414 18.264,17.146 18.934,16.856 19.660 L 16.328 20.980 12.000 20.980 L 7.672 20.980 7.144 19.660 C 6.854 18.934,6.586 18.264,6.548 18.170 L 6.481 18.000 12.000 18.000 L 17.519 18.000 17.452 18.170 " fill="#000640" stroke="none" fill-rule="evenodd"></path></svg>