<svg xmlns="http://www.w3.org/2000/svg" width="24" height="24" fill="currentColor" class="mmi mmi-poundsterling" viewBox="0 0 24 24"><path d="M12.760 3.042 C 11.576 3.189,10.575 3.552,9.660 4.164 C 8.438 4.982,7.609 6.046,7.145 7.389 C 6.929 8.012,6.835 8.558,6.811 9.330 L 6.789 10.000 6.319 10.000 C 5.647 10.000,5.360 10.121,5.138 10.499 C 4.855 10.982,5.041 11.621,5.539 11.878 C 5.725 11.974,5.783 11.981,6.477 12.000 L 7.216 12.020 7.307 12.440 C 7.357 12.671,7.435 13.067,7.480 13.320 C 7.526 13.573,7.572 13.830,7.585 13.890 L 7.606 14.000 6.728 14.000 C 5.780 14.000,5.633 14.024,5.374 14.222 C 5.301 14.277,5.192 14.408,5.131 14.511 C 5.036 14.672,5.020 14.744,5.020 15.000 C 5.020 15.256,5.036 15.328,5.131 15.489 C 5.192 15.592,5.301 15.723,5.374 15.778 C 5.637 15.979,5.774 16.000,6.802 16.000 L 7.754 16.000 7.735 16.310 C 7.689 17.091,7.563 17.893,7.372 18.610 L 7.269 19.000 6.559 19.000 C 5.793 19.000,5.623 19.032,5.374 19.222 C 5.301 19.277,5.192 19.408,5.131 19.511 C 5.036 19.672,5.020 19.744,5.020 20.000 C 5.020 20.256,5.036 20.328,5.131 20.489 C 5.192 20.592,5.301 20.723,5.374 20.778 C 5.682 21.013,5.296 21.000,11.998 21.000 C 18.903 21.000,18.379 21.023,18.701 20.701 C 19.092 20.310,19.092 19.690,18.701 19.299 C 18.383 18.981,18.693 19.000,13.748 19.000 L 9.351 19.000 9.370 18.910 C 9.590 17.911,9.693 17.227,9.741 16.450 L 9.769 16.000 11.957 16.000 C 14.432 16.000,14.398 16.004,14.701 15.701 C 15.092 15.310,15.092 14.690,14.701 14.299 C 14.397 13.995,14.441 14.000,11.880 14.000 L 9.614 14.000 9.565 13.630 C 9.538 13.426,9.463 12.990,9.398 12.660 C 9.333 12.330,9.280 12.047,9.280 12.030 C 9.280 12.013,10.375 12.000,11.713 12.000 C 14.461 12.000,14.396 12.007,14.701 11.701 C 15.092 11.310,15.092 10.690,14.701 10.299 C 14.393 9.991,14.486 10.000,11.496 10.000 L 8.846 10.000 8.818 9.739 C 8.781 9.390,8.859 8.681,8.983 8.250 C 9.331 7.033,10.150 6.077,11.338 5.498 C 11.874 5.236,12.383 5.095,13.016 5.032 C 13.855 4.949,14.594 5.078,15.340 5.437 C 16.017 5.763,16.518 6.161,17.070 6.812 C 17.427 7.233,17.643 7.360,18.000 7.359 C 18.523 7.358,18.934 6.984,18.988 6.460 C 19.023 6.129,18.929 5.919,18.537 5.450 C 17.501 4.209,16.078 3.367,14.561 3.096 C 14.140 3.021,13.163 2.992,12.760 3.042 " fill="#000640" stroke="none" fill-rule="evenodd"></path></svg>