<svg xmlns="http://www.w3.org/2000/svg" width="24" height="24" fill="currentColor" class="mmi mmi-power" viewBox="0 0 24 24"><path d="M11.664 2.063 C 11.436 2.146,11.257 2.297,11.131 2.511 L 11.020 2.700 11.009 7.914 C 11.002 11.436,11.012 13.177,11.041 13.282 C 11.101 13.506,11.312 13.761,11.531 13.874 C 11.932 14.080,12.390 14.012,12.700 13.702 C 13.021 13.381,13.000 13.784,13.000 8.000 C 13.000 2.217,13.021 2.619,12.701 2.299 C 12.429 2.027,12.018 1.933,11.664 2.063 M5.060 5.036 C 4.772 5.110,4.553 5.300,4.111 5.860 C 2.247 8.219,1.568 11.437,2.303 14.430 C 3.189 18.036,6.143 20.931,9.760 21.740 C 10.616 21.932,11.044 21.976,12.020 21.975 C 13.016 21.973,13.560 21.910,14.429 21.697 C 18.036 20.811,20.931 17.858,21.740 14.240 C 21.924 13.417,21.975 12.949,21.976 12.040 C 21.979 10.924,21.882 10.199,21.596 9.200 C 21.212 7.856,20.396 6.371,19.523 5.429 C 19.236 5.118,19.052 5.026,18.720 5.025 C 17.983 5.022,17.502 5.766,17.817 6.420 C 17.870 6.530,18.016 6.737,18.140 6.880 C 19.285 8.195,19.999 10.161,19.999 12.000 C 19.999 14.165,19.124 16.221,17.554 17.741 C 16.886 18.389,16.294 18.803,15.471 19.200 C 12.741 20.519,9.533 20.184,7.100 18.326 C 6.761 18.067,6.075 17.394,5.789 17.040 C 4.463 15.400,3.817 13.228,4.042 11.168 C 4.213 9.605,4.884 8.025,5.871 6.859 C 6.165 6.511,6.241 6.368,6.268 6.105 C 6.309 5.700,6.124 5.342,5.776 5.153 C 5.563 5.037,5.252 4.986,5.060 5.036 " fill="#000640" stroke="none" fill-rule="evenodd"></path></svg>