<svg xmlns="http://www.w3.org/2000/svg" width="24" height="24" fill="currentColor" class="mmi mmi-presentation" viewBox="0 0 24 24"><path d="M11.643 1.069 C 11.546 1.103,11.392 1.206,11.300 1.298 C 11.052 1.546,11.000 1.740,11.000 2.427 L 11.000 3.000 6.427 3.000 C 1.286 3.000,1.617 2.981,1.299 3.299 C 0.908 3.690,0.908 4.310,1.299 4.701 C 1.456 4.858,1.754 5.000,1.926 5.000 C 1.995 5.000,1.999 5.230,2.010 10.270 C 2.024 16.151,1.998 15.645,2.312 16.296 C 2.614 16.925,3.096 17.400,3.740 17.703 C 4.298 17.965,4.368 17.974,6.028 17.998 L 7.517 18.020 6.757 19.920 C 6.006 21.798,5.997 21.823,6.009 22.085 C 6.050 22.949,7.084 23.347,7.679 22.726 C 7.846 22.552,7.917 22.392,8.761 20.280 L 9.664 18.020 12.001 18.020 L 14.338 18.020 15.222 20.243 C 15.708 21.466,16.153 22.529,16.212 22.607 C 16.547 23.045,17.270 23.095,17.674 22.708 C 17.886 22.504,17.974 22.298,17.975 22.000 C 17.975 21.755,17.933 21.634,17.243 19.920 C 16.840 18.919,16.502 18.078,16.491 18.050 C 16.476 18.011,16.764 18.000,17.851 18.000 C 19.464 18.000,19.694 17.972,20.260 17.704 C 20.920 17.391,21.391 16.920,21.704 16.260 C 22.013 15.607,22.000 15.878,22.000 10.116 C 22.000 5.193,22.003 5.000,22.073 5.000 C 22.246 5.000,22.544 4.858,22.701 4.701 C 23.092 4.310,23.092 3.690,22.701 3.299 C 22.383 2.981,22.714 3.000,17.573 3.000 L 13.000 3.000 13.000 2.427 C 13.000 1.741,12.948 1.546,12.701 1.299 C 12.424 1.021,12.024 0.934,11.643 1.069 M20.000 10.073 C 20.000 15.774,20.021 15.381,19.701 15.701 C 19.377 16.025,20.023 16.000,11.998 16.000 C 4.201 16.000,4.683 16.014,4.374 15.778 C 4.301 15.723,4.192 15.592,4.131 15.489 L 4.020 15.300 4.009 10.150 L 3.999 5.000 11.999 5.000 L 20.000 5.000 20.000 10.073 M6.664 7.063 C 6.436 7.146,6.257 7.297,6.131 7.511 C 6.036 7.672,6.020 7.744,6.020 8.000 C 6.020 8.256,6.036 8.328,6.131 8.489 C 6.192 8.592,6.301 8.723,6.374 8.778 C 6.680 9.011,6.390 9.000,11.998 9.000 C 17.783 9.000,17.381 9.021,17.701 8.701 C 18.092 8.310,18.092 7.690,17.701 7.299 C 17.381 6.979,17.786 7.000,11.983 7.003 C 7.607 7.005,6.796 7.014,6.664 7.063 M6.664 11.063 C 6.436 11.146,6.257 11.297,6.131 11.511 C 6.036 11.672,6.020 11.744,6.020 12.000 C 6.020 12.256,6.036 12.328,6.131 12.489 C 6.192 12.592,6.301 12.723,6.374 12.778 C 6.669 13.003,6.624 13.000,9.498 13.000 C 12.486 13.000,12.393 13.009,12.701 12.701 C 12.881 12.521,13.000 12.242,13.000 12.000 C 13.000 11.758,12.881 11.479,12.701 11.299 C 12.393 10.991,12.488 11.000,9.483 11.003 C 7.276 11.005,6.793 11.015,6.664 11.063 " fill="#000640" stroke="none" fill-rule="evenodd"></path></svg>