<svg xmlns="http://www.w3.org/2000/svg" width="24" height="24" fill="currentColor" class="mmi mmi-presentation-graph" viewBox="0 0 24 24"><path d="M11.664 1.063 C 11.436 1.146,11.257 1.297,11.131 1.511 C 11.024 1.693,11.020 1.723,11.007 2.350 L 10.993 3.000 6.422 3.000 C 1.444 3.000,1.678 2.990,1.374 3.222 C 1.301 3.277,1.192 3.408,1.131 3.511 C 1.036 3.673,1.020 3.744,1.020 4.003 C 1.020 4.271,1.034 4.329,1.141 4.502 C 1.290 4.743,1.514 4.904,1.790 4.969 L 2.000 5.019 2.000 10.151 C 2.000 15.764,1.992 15.557,2.234 16.151 C 2.516 16.844,3.146 17.482,3.820 17.755 C 4.353 17.971,4.367 17.972,5.986 17.997 L 7.511 18.020 6.756 19.912 C 6.083 21.596,6.000 21.829,6.000 22.032 C 6.002 22.771,6.783 23.258,7.430 22.924 C 7.778 22.745,7.791 22.718,8.763 20.291 L 9.673 18.020 12.000 18.020 L 14.328 18.020 15.221 20.252 C 15.712 21.480,16.158 22.543,16.212 22.613 C 16.332 22.770,16.640 22.942,16.869 22.979 C 17.110 23.018,17.445 22.912,17.645 22.731 C 17.882 22.516,17.976 22.311,17.978 22.000 C 17.980 21.754,17.940 21.640,17.234 19.880 L 16.489 18.020 18.014 17.997 C 19.582 17.974,19.581 17.974,20.097 17.789 C 20.781 17.544,21.477 16.861,21.767 16.150 C 22.008 15.557,22.000 15.764,22.000 10.142 C 22.000 5.194,22.003 5.000,22.073 5.000 C 22.246 5.000,22.544 4.858,22.701 4.701 C 23.092 4.310,23.092 3.690,22.701 3.299 C 22.383 2.981,22.714 3.000,17.573 3.000 L 13.000 3.000 13.000 2.427 C 13.000 1.741,12.948 1.546,12.701 1.299 C 12.429 1.027,12.018 0.933,11.664 1.063 M20.000 10.073 C 20.000 15.774,20.021 15.381,19.701 15.701 C 19.377 16.025,20.023 16.000,12.000 16.000 C 3.977 16.000,4.623 16.025,4.299 15.701 C 3.979 15.381,4.000 15.774,4.000 10.073 L 4.000 5.000 12.000 5.000 L 20.000 5.000 20.000 10.073 M16.640 7.068 C 16.487 7.121,16.198 7.391,14.730 8.854 L 13.000 10.577 11.770 9.354 C 10.685 8.276,10.517 8.123,10.343 8.066 C 10.094 7.983,9.907 7.983,9.657 8.065 C 9.481 8.124,9.288 8.302,7.829 9.755 C 6.773 10.807,6.170 11.436,6.120 11.540 C 6.000 11.790,5.982 11.999,6.060 12.265 C 6.151 12.581,6.410 12.844,6.717 12.936 C 6.988 13.016,7.052 13.016,7.323 12.936 C 7.528 12.876,7.609 12.804,8.770 11.648 L 10.000 10.423 11.230 11.646 C 12.361 12.771,12.477 12.875,12.674 12.940 C 12.934 13.024,13.199 13.006,13.444 12.888 C 13.569 12.827,14.234 12.187,15.745 10.671 C 17.664 8.747,17.876 8.521,17.935 8.343 C 18.064 7.953,17.979 7.577,17.701 7.299 C 17.423 7.021,17.027 6.935,16.640 7.068 " fill="#000640" stroke="none" fill-rule="evenodd"></path></svg>