<svg xmlns="http://www.w3.org/2000/svg" width="24" height="24" fill="currentColor" class="mmi mmi-printer" viewBox="0 0 24 24"><path d="M3.503 1.042 C 2.554 1.203,1.717 1.847,1.298 2.740 C 1.005 3.365,1.020 3.104,1.020 7.500 C 1.020 11.896,1.005 11.635,1.298 12.260 C 1.606 12.918,2.079 13.391,2.740 13.704 C 3.081 13.865,3.601 14.000,3.883 14.000 L 3.997 14.000 4.010 17.270 C 4.025 20.911,4.006 20.661,4.312 21.296 C 4.614 21.924,5.095 22.398,5.740 22.704 C 6.394 23.013,6.109 23.000,12.000 23.000 C 17.891 23.000,17.606 23.013,18.260 22.704 C 18.920 22.391,19.391 21.920,19.704 21.260 C 20.001 20.632,20.000 20.650,20.000 17.116 L 20.000 14.000 20.116 14.000 C 20.621 14.000,21.419 13.696,21.873 13.330 C 22.403 12.903,22.814 12.221,22.937 11.566 C 23.032 11.064,23.032 3.936,22.937 3.434 C 22.767 2.532,22.137 1.716,21.296 1.312 C 20.634 0.993,21.532 1.022,12.120 1.015 C 7.489 1.012,3.611 1.024,3.503 1.042 M20.340 3.066 C 20.455 3.105,20.603 3.201,20.701 3.299 C 21.015 3.613,21.000 3.396,21.000 7.500 C 21.000 11.604,21.015 11.387,20.701 11.701 C 20.603 11.799,20.455 11.895,20.340 11.934 C 19.967 12.061,20.000 12.209,20.000 10.427 C 20.000 8.638,19.994 8.591,19.701 8.299 C 19.377 7.975,20.023 8.000,12.000 8.000 C 3.977 8.000,4.623 7.975,4.299 8.299 C 4.006 8.592,4.000 8.637,4.000 10.432 L 4.000 12.010 3.852 11.986 C 3.485 11.927,3.131 11.619,3.040 11.281 C 3.012 11.176,3.002 9.908,3.009 7.413 L 3.020 3.700 3.131 3.511 C 3.256 3.298,3.449 3.136,3.670 3.057 C 3.793 3.013,5.268 3.003,11.983 3.002 C 19.479 3.000,20.162 3.005,20.340 3.066 M14.664 5.063 C 14.436 5.146,14.257 5.297,14.131 5.511 C 14.036 5.672,14.020 5.744,14.020 6.000 C 14.020 6.256,14.036 6.328,14.131 6.489 C 14.470 7.065,15.234 7.168,15.701 6.701 C 15.881 6.521,16.000 6.242,16.000 6.000 C 16.000 5.326,15.295 4.832,14.664 5.063 M18.664 5.063 C 18.436 5.146,18.257 5.297,18.131 5.511 C 18.036 5.672,18.020 5.744,18.020 6.000 C 18.020 6.256,18.036 6.328,18.131 6.489 C 18.470 7.065,19.234 7.168,19.701 6.701 C 19.881 6.521,20.000 6.242,20.000 6.000 C 20.000 5.326,19.295 4.832,18.664 5.063 M18.000 15.073 C 18.000 20.774,18.021 20.381,17.701 20.701 C 17.381 21.021,17.783 21.000,11.998 21.000 C 6.390 21.000,6.680 21.011,6.374 20.778 C 6.301 20.723,6.192 20.592,6.131 20.489 L 6.020 20.300 6.009 15.150 L 5.999 10.000 11.999 10.000 L 18.000 10.000 18.000 15.073 M8.664 12.063 C 8.436 12.146,8.257 12.297,8.131 12.511 C 8.036 12.672,8.020 12.744,8.020 13.000 C 8.020 13.256,8.036 13.328,8.131 13.489 C 8.192 13.592,8.301 13.723,8.374 13.778 C 8.672 14.006,8.578 14.000,11.998 14.000 C 15.545 14.000,15.390 14.013,15.701 13.701 C 16.092 13.310,16.092 12.690,15.701 12.299 C 15.389 11.987,15.547 12.000,11.983 12.003 C 9.342 12.005,8.794 12.015,8.664 12.063 M8.664 16.063 C 8.436 16.146,8.257 16.297,8.131 16.511 C 8.036 16.672,8.020 16.744,8.020 17.000 C 8.020 17.256,8.036 17.328,8.131 17.489 C 8.192 17.592,8.301 17.723,8.374 17.778 C 8.664 18.000,8.670 18.000,10.998 18.000 C 13.428 18.000,13.399 18.003,13.701 17.701 C 14.092 17.310,14.092 16.690,13.701 16.299 C 13.398 15.996,13.430 16.000,10.983 16.003 C 9.210 16.005,8.792 16.016,8.664 16.063 " fill="#000640" stroke="none" fill-rule="evenodd"></path></svg>