<svg xmlns="http://www.w3.org/2000/svg" width="24" height="24" fill="currentColor" class="mmi mmi-processor" viewBox="0 0 24 24"><path d="M8.643 1.069 C 8.407 1.152,8.149 1.416,8.066 1.660 C 8.011 1.822,8.000 2.033,8.000 2.922 L 8.000 3.991 7.230 4.011 C 6.373 4.034,6.217 4.065,5.704 4.312 C 5.090 4.607,4.607 5.090,4.312 5.704 C 4.065 6.217,4.034 6.373,4.011 7.230 L 3.991 8.000 2.922 8.000 C 1.693 8.000,1.577 8.021,1.299 8.299 C 0.908 8.690,0.908 9.310,1.299 9.701 C 1.577 9.979,1.692 10.000,2.927 10.000 L 4.000 10.000 4.000 12.000 L 4.000 14.000 2.927 14.000 C 1.692 14.000,1.577 14.021,1.299 14.299 C 0.908 14.690,0.908 15.310,1.299 15.701 C 1.577 15.979,1.693 16.000,2.922 16.000 L 3.991 16.000 4.011 16.770 C 4.034 17.627,4.065 17.783,4.312 18.296 C 4.614 18.924,5.095 19.398,5.740 19.704 C 6.219 19.931,6.604 20.000,7.384 20.000 L 8.000 20.000 8.000 21.073 C 8.000 22.308,8.021 22.423,8.299 22.701 C 8.690 23.092,9.310 23.092,9.701 22.701 C 9.979 22.423,10.000 22.308,10.000 21.073 L 10.000 20.000 12.000 20.000 L 14.000 20.000 14.000 21.073 C 14.000 22.308,14.021 22.423,14.299 22.701 C 14.690 23.092,15.310 23.092,15.701 22.701 C 15.979 22.423,16.000 22.308,16.000 21.073 L 16.000 20.000 16.616 20.000 C 17.396 20.000,17.781 19.931,18.260 19.704 C 18.920 19.391,19.391 18.920,19.704 18.260 C 19.931 17.781,20.000 17.396,20.000 16.616 L 20.000 16.000 21.073 16.000 C 22.308 16.000,22.423 15.979,22.701 15.701 C 23.092 15.310,23.092 14.690,22.701 14.299 C 22.423 14.021,22.308 14.000,21.073 14.000 L 20.000 14.000 20.000 12.000 L 20.000 10.000 21.073 10.000 C 21.967 10.000,22.178 9.989,22.340 9.934 C 22.709 9.808,23.000 9.396,23.000 9.000 C 23.000 8.604,22.709 8.192,22.340 8.066 C 22.178 8.011,21.967 8.000,21.073 8.000 L 20.000 8.000 20.000 7.384 C 20.000 6.604,19.931 6.219,19.704 5.740 C 19.398 5.095,18.924 4.614,18.296 4.312 C 17.783 4.065,17.627 4.034,16.770 4.011 L 16.000 3.991 16.000 2.922 C 16.000 1.693,15.979 1.577,15.701 1.299 C 15.310 0.908,14.690 0.908,14.299 1.299 C 14.021 1.577,14.000 1.692,14.000 2.927 L 14.000 4.000 12.000 4.000 L 10.000 4.000 10.000 2.927 C 10.000 1.692,9.979 1.577,9.701 1.299 C 9.424 1.021,9.024 0.934,8.643 1.069 M17.340 6.066 C 17.455 6.105,17.603 6.201,17.701 6.299 C 18.021 6.619,18.000 6.217,18.000 12.000 C 18.000 17.783,18.021 17.381,17.701 17.701 C 17.381 18.021,17.783 18.000,11.998 18.000 C 6.390 18.000,6.680 18.011,6.374 17.778 C 6.301 17.723,6.192 17.592,6.131 17.489 L 6.020 17.300 6.020 12.000 L 6.020 6.700 6.131 6.511 C 6.256 6.298,6.449 6.136,6.670 6.057 C 6.792 6.013,7.774 6.003,11.983 6.002 C 16.686 6.000,17.163 6.006,17.340 6.066 M8.664 8.063 C 8.436 8.146,8.257 8.297,8.131 8.511 L 8.020 8.700 8.020 12.000 L 8.020 15.300 8.131 15.489 C 8.192 15.592,8.301 15.723,8.374 15.778 C 8.672 16.006,8.578 16.000,11.998 16.000 C 15.545 16.000,15.390 16.013,15.701 15.701 C 16.013 15.390,16.000 15.544,16.000 12.000 C 16.000 8.456,16.013 8.610,15.701 8.299 C 15.389 7.987,15.547 8.000,11.983 8.003 C 9.342 8.005,8.794 8.015,8.664 8.063 M14.000 12.000 L 14.000 14.000 12.000 14.000 L 10.000 14.000 10.000 12.000 L 10.000 10.000 12.000 10.000 L 14.000 10.000 14.000 12.000 " fill="#000640" stroke="none" fill-rule="evenodd"></path></svg>