<svg xmlns="http://www.w3.org/2000/svg" width="24" height="24" fill="currentColor" class="mmi mmi-qrscan-add" viewBox="0 0 24 24"><path d="M3.503 1.042 C 2.490 1.212,1.556 1.976,1.202 2.925 C 1.015 3.425,1.001 3.599,1.001 5.420 C 1.001 6.484,1.016 7.197,1.042 7.289 C 1.103 7.509,1.315 7.762,1.531 7.874 C 1.932 8.080,2.390 8.012,2.700 7.702 C 2.995 7.407,3.000 7.371,3.000 5.500 C 3.000 3.629,3.005 3.593,3.299 3.299 C 3.593 3.005,3.629 3.000,5.500 3.000 C 7.371 3.000,7.407 2.995,7.701 2.701 C 8.092 2.310,8.092 1.690,7.701 1.299 C 7.405 1.003,7.380 0.999,5.423 1.005 C 4.475 1.007,3.611 1.024,3.503 1.042 M16.664 1.062 C 16.435 1.147,16.256 1.298,16.131 1.511 C 16.036 1.672,16.020 1.744,16.020 2.000 C 16.020 2.256,16.036 2.328,16.131 2.489 C 16.192 2.592,16.301 2.723,16.374 2.778 C 16.657 2.994,16.715 3.000,18.498 3.000 C 20.371 3.000,20.407 3.005,20.701 3.299 C 20.995 3.593,21.000 3.630,21.000 5.497 C 21.000 6.505,21.016 7.198,21.042 7.289 C 21.141 7.647,21.522 7.953,21.917 7.991 C 22.347 8.032,22.796 7.745,22.934 7.340 C 23.029 7.061,23.033 3.875,22.938 3.419 C 22.708 2.301,21.895 1.434,20.756 1.091 C 20.444 0.997,16.904 0.972,16.664 1.062 M11.664 6.063 C 11.436 6.146,11.257 6.297,11.131 6.511 L 11.020 6.700 11.009 8.850 L 10.997 11.000 8.924 11.000 C 6.677 11.000,6.663 11.001,6.374 11.222 C 6.301 11.277,6.192 11.408,6.131 11.511 C 6.036 11.672,6.020 11.744,6.020 12.000 C 6.020 12.256,6.036 12.328,6.131 12.489 C 6.192 12.592,6.301 12.723,6.374 12.778 C 6.663 12.999,6.676 13.000,8.925 13.000 L 11.000 13.000 11.000 15.070 C 11.000 16.373,11.016 17.195,11.042 17.289 C 11.103 17.509,11.315 17.762,11.531 17.874 C 11.932 18.080,12.390 18.012,12.700 17.702 C 13.002 17.400,13.000 17.420,13.000 15.073 L 13.000 13.000 15.073 13.000 C 17.419 13.000,17.400 13.002,17.701 12.701 C 18.092 12.310,18.092 11.690,17.701 11.299 C 17.400 10.998,17.419 11.000,15.073 11.000 L 13.000 11.000 13.000 8.927 C 13.000 6.581,13.002 6.600,12.701 6.299 C 12.429 6.027,12.018 5.933,11.664 6.063 M1.664 16.063 C 1.436 16.146,1.257 16.297,1.131 16.511 L 1.020 16.700 1.008 18.480 C 0.996 20.432,1.010 20.601,1.233 21.149 C 1.521 21.857,2.142 22.479,2.849 22.766 C 3.384 22.984,3.561 23.000,5.431 23.000 C 7.378 23.000,7.406 22.996,7.701 22.701 C 8.092 22.310,8.092 21.690,7.701 21.299 C 7.407 21.005,7.371 21.000,5.500 21.000 C 3.629 21.000,3.593 20.995,3.299 20.701 C 3.005 20.407,3.000 20.371,3.000 18.500 C 3.000 16.629,2.995 16.593,2.701 16.299 C 2.429 16.027,2.018 15.933,1.664 16.063 M21.664 16.063 C 21.436 16.146,21.257 16.297,21.131 16.511 L 21.020 16.700 21.000 18.480 C 20.980 20.246,20.979 20.262,20.886 20.450 C 20.835 20.555,20.728 20.694,20.649 20.759 C 20.364 20.994,20.306 21.000,18.498 21.000 C 16.715 21.000,16.657 21.006,16.374 21.222 C 16.301 21.277,16.192 21.408,16.131 21.511 C 16.036 21.672,16.020 21.744,16.020 22.000 C 16.020 22.256,16.036 22.328,16.131 22.489 C 16.260 22.709,16.437 22.854,16.678 22.939 C 16.933 23.029,20.145 23.029,20.581 22.938 C 21.564 22.735,22.400 22.052,22.767 21.150 C 22.984 20.617,23.000 20.438,23.000 18.569 C 23.000 16.622,22.996 16.594,22.701 16.299 C 22.429 16.027,22.018 15.933,21.664 16.063 " fill="#000640" stroke="none" fill-rule="evenodd"></path></svg>