<svg xmlns="http://www.w3.org/2000/svg" width="24" height="24" fill="currentColor" class="mmi mmi-question-filled" viewBox="0 0 24 24"><path d="M11.200 0.025 C 7.677 0.288,4.535 1.992,2.410 4.793 C 1.201 6.386,0.442 8.222,0.109 10.359 C -0.013 11.143,-0.013 12.857,0.109 13.641 C 0.563 16.554,1.872 19.025,3.948 20.887 C 5.791 22.541,7.832 23.497,10.359 23.891 C 11.143 24.013,12.857 24.013,13.641 23.891 C 16.557 23.436,19.036 22.122,20.896 20.043 C 22.545 18.200,23.498 16.163,23.891 13.641 C 24.013 12.857,24.013 11.143,23.891 10.359 C 23.557 8.220,22.799 6.386,21.588 4.790 C 19.607 2.179,16.767 0.532,13.500 0.099 C 13.032 0.037,11.640 -0.007,11.200 0.025 M13.340 5.879 C 14.885 6.226,15.833 7.154,16.102 8.581 C 16.196 9.084,16.166 9.945,16.041 10.340 C 15.655 11.555,14.568 12.447,12.991 12.842 C 12.490 12.967,12.504 12.950,12.480 13.490 C 12.462 13.911,12.451 13.962,12.339 14.143 C 12.016 14.666,11.280 14.781,10.812 14.381 C 10.567 14.171,10.472 13.943,10.449 13.504 C 10.403 12.627,10.593 12.074,11.116 11.560 C 11.482 11.200,11.786 11.039,12.409 10.876 C 13.273 10.649,13.846 10.282,14.040 9.831 C 14.116 9.654,14.127 9.570,14.113 9.239 C 14.100 8.903,14.081 8.820,13.969 8.591 C 13.828 8.306,13.683 8.172,13.349 8.019 C 12.909 7.818,12.019 7.743,11.460 7.860 C 11.066 7.943,10.564 8.200,10.307 8.452 C 10.028 8.726,9.918 8.964,9.875 9.384 C 9.817 9.956,9.574 10.294,9.128 10.425 C 8.713 10.546,8.244 10.376,8.006 10.016 C 7.848 9.778,7.824 9.644,7.851 9.145 C 7.942 7.474,9.410 6.076,11.380 5.785 C 11.446 5.775,11.824 5.772,12.220 5.778 C 12.791 5.787,13.023 5.808,13.340 5.879 M12.053 15.851 C 12.832 16.277,12.946 17.334,12.277 17.935 C 11.810 18.355,11.073 18.357,10.610 17.941 C 10.338 17.697,10.193 17.413,10.169 17.081 C 10.132 16.559,10.372 16.097,10.801 15.863 C 11.087 15.708,11.210 15.680,11.533 15.699 C 11.748 15.712,11.858 15.744,12.053 15.851 " fill="#000640" stroke="none" fill-rule="evenodd"></path></svg>