<svg xmlns="http://www.w3.org/2000/svg" width="24" height="24" fill="currentColor" class="mmi mmi-Queue-1" viewBox="0 0 24 24"><path d="M10.374 2.679 C 10.305 2.695,10.188 2.746,10.114 2.792 C 10.040 2.839,8.891 3.966,7.561 5.298 L 5.141 7.719 4.001 6.583 C 2.761 5.348,2.723 5.320,2.353 5.376 C 2.131 5.409,1.960 5.513,1.816 5.701 C 1.662 5.903,1.633 6.273,1.753 6.503 C 1.871 6.731,4.659 9.500,4.849 9.579 C 5.039 9.657,5.282 9.657,5.471 9.578 C 5.656 9.502,11.073 4.108,11.229 3.846 C 11.350 3.642,11.369 3.289,11.268 3.096 C 11.201 2.967,11.023 2.791,10.900 2.730 C 10.780 2.671,10.517 2.646,10.374 2.679 M11.664 6.063 C 11.436 6.146,11.257 6.297,11.131 6.511 C 11.036 6.672,11.020 6.744,11.020 7.000 C 11.020 7.256,11.036 7.328,11.131 7.489 C 11.192 7.592,11.301 7.723,11.374 7.778 C 11.679 8.010,11.437 8.000,16.498 8.000 C 21.723 8.000,21.383 8.020,21.701 7.701 C 22.092 7.310,22.092 6.690,21.701 6.299 C 21.382 5.980,21.726 6.000,16.483 6.003 C 12.541 6.005,11.796 6.014,11.664 6.063 M2.664 12.063 C 2.436 12.146,2.257 12.297,2.131 12.511 C 2.036 12.672,2.020 12.744,2.020 13.000 C 2.020 13.256,2.036 13.328,2.131 13.489 C 2.260 13.709,2.437 13.854,2.678 13.939 C 2.830 13.993,3.916 14.000,11.998 14.000 C 22.265 14.000,21.375 14.027,21.701 13.701 C 22.092 13.310,22.092 12.690,21.701 12.299 C 21.375 11.972,22.267 12.000,11.983 12.003 C 4.135 12.005,2.798 12.014,2.664 12.063 M2.664 18.063 C 2.436 18.146,2.257 18.297,2.131 18.511 C 2.036 18.672,2.020 18.744,2.020 19.000 C 2.020 19.256,2.036 19.328,2.131 19.489 C 2.260 19.709,2.437 19.854,2.678 19.939 C 2.830 19.993,3.916 20.000,11.998 20.000 C 22.265 20.000,21.375 20.027,21.701 19.701 C 22.092 19.310,22.092 18.690,21.701 18.299 C 21.375 17.972,22.267 18.000,11.983 18.003 C 4.135 18.005,2.798 18.014,2.664 18.063 " fill="#000640" stroke="none" fill-rule="evenodd"></path></svg>