<svg xmlns="http://www.w3.org/2000/svg" width="24" height="24" fill="currentColor" class="mmi mmi-quote" viewBox="0 0 24 24"><path d="M2.664 6.063 C 2.436 6.146,2.257 6.297,2.131 6.511 L 2.020 6.700 2.009 9.912 C 2.002 12.065,2.012 13.176,2.040 13.281 C 2.102 13.509,2.312 13.761,2.539 13.878 C 2.736 13.979,2.745 13.980,3.869 13.992 L 5.000 14.004 5.000 15.572 C 5.000 16.529,5.017 17.198,5.042 17.289 C 5.104 17.511,5.316 17.763,5.538 17.877 C 5.806 18.015,6.139 18.029,6.744 17.926 C 7.974 17.717,8.910 17.261,9.661 16.504 C 10.250 15.911,10.617 15.266,10.818 14.472 C 10.989 13.795,11.000 13.542,11.000 10.117 C 11.000 6.442,11.013 6.611,10.701 6.299 C 10.386 5.984,10.606 6.000,6.483 6.003 C 3.408 6.005,2.795 6.015,2.664 6.063 M13.664 6.063 C 13.436 6.146,13.257 6.297,13.131 6.511 L 13.020 6.700 13.009 9.912 C 13.002 12.065,13.012 13.176,13.040 13.281 C 13.102 13.509,13.312 13.761,13.539 13.878 C 13.736 13.979,13.745 13.980,14.869 13.992 L 16.000 14.004 16.000 15.572 C 16.000 16.529,16.017 17.198,16.042 17.289 C 16.104 17.511,16.316 17.763,16.538 17.877 C 16.806 18.015,17.139 18.029,17.744 17.926 C 18.974 17.717,19.910 17.261,20.661 16.504 C 21.250 15.911,21.617 15.266,21.818 14.472 C 21.989 13.795,22.000 13.542,22.000 10.117 C 22.000 6.442,22.013 6.611,21.701 6.299 C 21.386 5.984,21.606 6.000,17.483 6.003 C 14.408 6.005,13.795 6.015,13.664 6.063 M9.000 10.630 C 9.000 13.544,8.983 13.800,8.761 14.331 C 8.613 14.683,8.356 15.033,8.072 15.268 C 7.859 15.445,7.315 15.736,7.110 15.783 L 7.000 15.809 7.000 14.331 C 7.000 12.648,6.991 12.589,6.701 12.299 C 6.423 12.021,6.308 12.000,5.073 12.000 L 4.000 12.000 4.000 10.000 L 4.000 8.000 6.500 8.000 L 9.000 8.000 9.000 10.630 M20.000 10.630 C 20.000 13.544,19.983 13.800,19.761 14.331 C 19.613 14.683,19.356 15.033,19.072 15.268 C 18.859 15.445,18.315 15.736,18.110 15.783 L 18.000 15.809 18.000 14.331 C 18.000 12.648,17.991 12.589,17.701 12.299 C 17.423 12.021,17.308 12.000,16.073 12.000 L 15.000 12.000 15.000 10.000 L 15.000 8.000 17.500 8.000 L 20.000 8.000 20.000 10.630 " fill="#000640" stroke="none" fill-rule="evenodd"></path></svg>