<svg xmlns="http://www.w3.org/2000/svg" width="24" height="24" fill="currentColor" class="mmi mmi-radar" viewBox="0 0 24 24"><path d="M11.664 0.063 C 11.436 0.146,11.257 0.297,11.131 0.511 L 11.020 0.700 11.009 4.929 L 10.999 9.157 10.715 9.300 C 9.878 9.720,9.359 10.342,9.097 11.240 C 8.991 11.606,8.991 12.397,9.098 12.760 C 9.418 13.846,10.154 14.582,11.240 14.902 C 11.593 15.006,12.388 15.008,12.760 14.906 C 13.594 14.676,14.332 14.068,14.697 13.308 C 15.072 12.530,15.097 11.629,14.767 10.844 C 14.476 10.151,13.866 9.534,13.182 9.241 L 13.000 9.163 13.000 8.137 L 13.000 7.111 13.150 7.139 C 13.430 7.190,13.895 7.364,14.278 7.562 C 16.087 8.494,17.130 10.397,16.955 12.443 C 16.727 15.088,14.446 17.098,11.800 16.986 C 8.583 16.849,6.350 13.799,7.184 10.680 C 7.373 9.975,7.804 9.193,8.314 8.630 C 8.652 8.257,8.737 8.082,8.737 7.760 C 8.737 7.462,8.649 7.257,8.434 7.054 C 8.147 6.785,7.834 6.710,7.456 6.819 C 7.248 6.879,7.182 6.927,6.900 7.218 C 5.500 8.661,4.788 10.855,5.058 12.886 C 5.614 17.060,9.656 19.811,13.720 18.780 C 16.206 18.150,18.155 16.202,18.783 13.718 C 19.654 10.271,17.818 6.747,14.480 5.458 C 14.145 5.328,13.503 5.153,13.170 5.100 L 13.000 5.073 13.000 4.076 L 13.000 3.080 13.118 3.080 C 13.183 3.080,13.423 3.116,13.652 3.160 C 15.410 3.499,16.952 4.293,18.196 5.497 C 19.734 6.987,20.633 8.774,20.923 10.920 C 20.982 11.356,20.982 12.594,20.923 13.060 C 20.657 15.147,19.743 16.991,18.254 18.443 C 17.382 19.292,16.481 19.885,15.376 20.336 C 11.011 22.116,5.978 20.185,3.920 15.940 C 3.487 15.047,3.246 14.271,3.094 13.280 C 2.997 12.646,2.997 11.354,3.094 10.720 C 3.378 8.863,4.113 7.320,5.392 5.897 C 5.849 5.388,5.898 5.295,5.898 4.940 C 5.898 4.613,5.808 4.406,5.581 4.206 C 5.379 4.029,5.189 3.960,4.905 3.961 C 4.551 3.962,4.394 4.051,3.975 4.490 C 2.654 5.874,1.690 7.694,1.265 9.606 C 1.070 10.481,1.023 10.948,1.023 12.000 C 1.023 12.727,1.041 13.104,1.093 13.460 C 1.379 15.409,2.074 17.091,3.230 18.637 C 3.685 19.244,4.756 20.315,5.363 20.770 C 6.909 21.926,8.591 22.621,10.540 22.907 C 11.212 23.005,12.788 23.005,13.460 22.907 C 15.409 22.621,17.091 21.926,18.637 20.770 C 19.244 20.315,20.315 19.244,20.770 18.637 C 22.164 16.773,22.907 14.671,22.987 12.360 C 23.118 8.568,21.290 5.007,18.114 2.867 C 16.747 1.946,15.179 1.343,13.580 1.122 C 12.986 1.041,13.000 1.045,13.000 0.945 C 13.000 0.755,12.865 0.463,12.701 0.299 C 12.429 0.027,12.018 -0.067,11.664 0.063 M12.340 11.066 C 12.709 11.192,13.000 11.604,13.000 12.000 C 13.000 12.527,12.527 13.000,12.000 13.000 C 11.758 13.000,11.479 12.881,11.299 12.701 C 10.907 12.309,10.908 11.690,11.300 11.298 C 11.577 11.020,11.957 10.936,12.340 11.066 " fill="#000640" stroke="none" fill-rule="evenodd"></path></svg>