<svg xmlns="http://www.w3.org/2000/svg" width="24" height="24" fill="currentColor" class="mmi mmi-radio" viewBox="0 0 24 24"><path d="M2.630 1.057 C 2.237 1.197,2.000 1.550,2.000 1.995 C 2.000 2.177,2.025 2.307,2.084 2.427 C 2.264 2.800,2.032 2.701,7.960 4.925 L 13.436 6.980 8.448 7.001 C 2.887 7.025,3.352 7.000,2.704 7.312 C 2.075 7.614,1.599 8.097,1.298 8.740 C 1.001 9.373,1.020 8.945,1.020 15.000 C 1.020 21.055,1.001 20.627,1.298 21.260 C 1.606 21.918,2.079 22.391,2.740 22.704 C 3.409 23.021,2.760 23.000,12.000 23.000 C 21.240 23.000,20.591 23.021,21.260 22.704 C 21.920 22.391,22.391 21.920,22.704 21.260 C 23.013 20.606,23.000 20.891,23.000 15.000 C 23.000 9.109,23.013 9.394,22.704 8.740 C 22.391 8.078,21.917 7.606,21.260 7.298 C 20.760 7.065,20.599 7.032,19.800 7.004 L 19.100 6.979 11.136 3.990 C 2.613 0.790,3.002 0.924,2.630 1.057 M20.340 9.066 C 20.455 9.105,20.603 9.201,20.701 9.299 C 21.021 9.619,21.000 9.217,21.000 15.000 C 21.000 20.783,21.021 20.381,20.701 20.701 C 20.376 21.026,21.144 21.000,11.998 21.000 C 3.106 21.000,3.684 21.015,3.374 20.778 C 3.301 20.723,3.192 20.592,3.131 20.489 L 3.020 20.300 3.020 15.000 L 3.020 9.700 3.131 9.511 C 3.256 9.298,3.449 9.136,3.670 9.057 C 3.793 9.013,5.268 9.003,11.983 9.002 C 19.479 9.000,20.162 9.005,20.340 9.066 M8.433 11.040 C 7.843 11.134,7.221 11.380,6.731 11.712 C 5.955 12.240,5.394 13.037,5.130 13.989 C 5.034 14.337,5.022 14.449,5.022 15.000 C 5.022 15.553,5.034 15.663,5.132 16.017 C 5.475 17.256,6.357 18.252,7.520 18.715 C 9.334 19.437,11.462 18.710,12.444 17.033 C 13.503 15.224,12.985 12.878,11.269 11.712 C 10.917 11.473,10.343 11.214,9.958 11.120 C 9.572 11.026,8.783 10.984,8.433 11.040 M15.643 12.069 C 15.291 12.193,15.000 12.614,15.000 13.000 C 15.000 13.242,15.119 13.521,15.299 13.701 C 15.553 13.955,15.734 14.000,16.500 14.000 C 17.266 14.000,17.447 13.955,17.701 13.701 C 18.092 13.310,18.092 12.690,17.701 12.299 C 17.445 12.042,17.267 11.999,16.483 12.003 C 15.991 12.005,15.774 12.022,15.643 12.069 M9.383 13.043 C 10.185 13.190,10.839 13.872,10.967 14.695 C 11.153 15.894,10.209 17.000,9.000 17.000 C 8.032 17.000,7.183 16.268,7.033 15.305 C 6.933 14.663,7.132 14.061,7.596 13.596 C 8.085 13.108,8.698 12.918,9.383 13.043 M15.643 16.069 C 15.291 16.193,15.000 16.614,15.000 17.000 C 15.000 17.242,15.119 17.521,15.299 17.701 C 15.553 17.955,15.734 18.000,16.500 18.000 C 17.266 18.000,17.447 17.955,17.701 17.701 C 18.092 17.310,18.092 16.690,17.701 16.299 C 17.445 16.042,17.267 15.999,16.483 16.003 C 15.991 16.005,15.774 16.022,15.643 16.069 " fill="#000640" stroke="none" fill-rule="evenodd"></path></svg>