<svg xmlns="http://www.w3.org/2000/svg" width="24" height="24" fill="currentColor" class="mmi mmi-raining-v3" viewBox="0 0 24 24"><path d="M9.814 2.041 C 6.986 2.339,4.658 4.481,4.120 7.280 C 4.079 7.489,4.034 7.799,4.019 7.970 C 4.003 8.140,3.974 8.280,3.953 8.280 C 3.932 8.280,3.779 8.343,3.612 8.420 C 1.534 9.380,0.512 11.754,1.241 13.929 C 1.710 15.330,2.828 16.399,4.264 16.822 C 4.460 16.879,4.755 16.935,4.920 16.946 C 5.193 16.965,5.240 16.956,5.440 16.853 C 5.947 16.591,6.133 16.023,5.881 15.503 C 5.744 15.220,5.503 15.062,5.046 14.958 C 4.505 14.833,4.087 14.611,3.737 14.261 C 2.764 13.288,2.764 11.712,3.737 10.739 C 4.091 10.385,4.505 10.167,5.058 10.040 C 5.516 9.936,5.724 9.799,5.878 9.501 C 5.972 9.318,5.982 9.247,6.006 8.601 C 6.034 7.840,6.099 7.449,6.282 6.948 C 6.668 5.891,7.490 4.974,8.511 4.464 C 9.044 4.196,9.886 4.000,10.500 4.000 C 12.612 4.000,14.462 5.507,14.901 7.582 C 14.938 7.760,14.980 8.211,14.995 8.602 C 15.022 9.270,15.028 9.313,15.132 9.491 C 15.193 9.593,15.301 9.723,15.374 9.778 C 15.653 9.991,15.733 10.000,17.295 10.001 C 18.945 10.001,19.101 10.020,19.638 10.285 C 20.512 10.716,21.046 11.657,20.987 12.660 C 20.919 13.797,20.131 14.687,18.954 14.958 C 18.497 15.062,18.256 15.220,18.119 15.503 C 17.867 16.022,18.054 16.594,18.557 16.850 C 18.809 16.977,19.016 16.990,19.427 16.902 C 20.672 16.637,21.733 15.878,22.371 14.797 C 23.328 13.177,23.184 11.147,22.009 9.678 C 21.498 9.039,20.715 8.493,19.960 8.247 C 19.358 8.050,19.180 8.028,18.060 8.003 L 16.980 7.980 16.970 7.860 C 16.940 7.520,16.816 6.931,16.691 6.540 C 16.361 5.508,15.865 4.700,15.082 3.919 C 14.782 3.620,14.432 3.318,14.212 3.168 C 12.894 2.273,11.355 1.879,9.814 2.041 M7.643 13.069 C 7.546 13.103,7.392 13.206,7.300 13.298 C 6.984 13.613,7.000 13.395,7.000 17.500 C 7.000 21.604,6.985 21.387,7.299 21.701 C 7.479 21.881,7.758 22.000,8.000 22.000 C 8.242 22.000,8.521 21.881,8.701 21.701 C 9.015 21.387,9.000 21.604,9.000 17.500 C 9.000 13.396,9.015 13.613,8.701 13.299 C 8.424 13.021,8.024 12.934,7.643 13.069 M11.643 13.069 C 11.546 13.103,11.392 13.206,11.300 13.298 C 10.984 13.613,11.000 13.395,11.000 17.500 C 11.000 21.604,10.985 21.387,11.299 21.701 C 11.479 21.881,11.758 22.000,12.000 22.000 C 12.242 22.000,12.521 21.881,12.701 21.701 C 13.015 21.387,13.000 21.604,13.000 17.500 C 13.000 13.396,13.015 13.613,12.701 13.299 C 12.424 13.021,12.024 12.934,11.643 13.069 M15.643 13.069 C 15.546 13.103,15.392 13.206,15.300 13.298 C 14.984 13.613,15.000 13.395,15.000 17.500 C 15.000 21.604,14.985 21.387,15.299 21.701 C 15.479 21.881,15.758 22.000,16.000 22.000 C 16.242 22.000,16.521 21.881,16.701 21.701 C 17.015 21.387,17.000 21.604,17.000 17.500 C 17.000 13.396,17.015 13.613,16.701 13.299 C 16.424 13.021,16.024 12.934,15.643 13.069 " fill="#000640" stroke="none" fill-rule="evenodd"></path></svg>