<svg xmlns="http://www.w3.org/2000/svg" width="24" height="24" fill="currentColor" class="mmi mmi-raining-v5" viewBox="0 0 24 24"><path d="M10.100 2.025 C 8.925 2.112,7.837 2.479,6.896 3.106 C 5.295 4.173,4.244 5.910,4.036 7.832 L 3.989 8.265 3.764 8.352 C 3.229 8.560,2.549 9.048,2.129 9.527 C 0.365 11.537,0.724 14.626,2.900 16.171 C 3.570 16.646,4.004 16.750,4.433 16.536 C 4.904 16.301,5.106 15.710,4.880 15.229 C 4.773 15.002,4.610 14.852,4.273 14.674 C 3.890 14.472,3.488 14.050,3.285 13.638 C 2.910 12.876,2.910 12.124,3.285 11.362 C 3.619 10.685,4.231 10.229,5.058 10.040 C 5.516 9.936,5.724 9.799,5.878 9.501 C 5.972 9.318,5.982 9.247,6.006 8.601 C 6.034 7.840,6.099 7.449,6.282 6.948 C 6.668 5.891,7.490 4.974,8.511 4.464 C 9.044 4.196,9.886 4.000,10.500 4.000 C 12.612 4.000,14.462 5.507,14.901 7.582 C 14.938 7.760,14.980 8.211,14.995 8.602 C 15.022 9.270,15.028 9.313,15.132 9.491 C 15.193 9.593,15.301 9.723,15.374 9.778 C 15.653 9.991,15.733 10.000,17.295 10.001 C 18.880 10.001,19.092 10.023,19.536 10.234 C 20.486 10.683,21.056 11.641,20.983 12.665 C 20.902 13.809,20.123 14.689,18.954 14.958 C 18.497 15.062,18.256 15.220,18.119 15.503 C 17.867 16.023,18.053 16.591,18.560 16.853 C 18.760 16.956,18.807 16.965,19.080 16.946 C 19.245 16.935,19.542 16.879,19.740 16.820 C 22.214 16.093,23.574 13.504,22.759 11.072 C 22.251 9.554,21.007 8.446,19.418 8.096 C 19.181 8.044,18.830 8.021,18.040 8.003 L 16.980 7.980 16.948 7.687 C 16.904 7.283,16.718 6.565,16.540 6.115 C 15.695 3.979,13.723 2.414,11.460 2.086 C 11.127 2.038,10.381 2.004,10.100 2.025 M7.664 13.063 C 7.291 13.199,7.106 13.446,6.960 14.000 C 6.851 14.415,6.868 14.684,7.020 14.944 C 7.412 15.613,8.406 15.577,8.759 14.881 C 8.858 14.686,9.000 14.164,9.000 13.995 C 9.000 13.326,8.292 12.833,7.664 13.063 M11.643 13.069 C 11.208 13.223,10.909 13.785,10.903 14.463 C 10.900 14.755,10.911 14.805,11.021 14.983 C 11.103 15.116,11.213 15.222,11.360 15.310 C 11.549 15.424,11.612 15.440,11.856 15.440 C 12.378 15.440,12.688 15.188,12.861 14.621 C 13.004 14.151,13.020 13.970,12.943 13.703 C 12.785 13.162,12.195 12.874,11.643 13.069 M15.643 13.069 C 15.353 13.171,15.144 13.416,15.016 13.806 C 14.859 14.282,14.858 14.668,15.013 14.932 C 15.413 15.613,16.402 15.584,16.759 14.881 C 16.858 14.686,17.000 14.164,17.000 13.995 C 17.000 13.316,16.299 12.837,15.643 13.069 M6.701 16.162 C 6.509 16.258,6.334 16.420,6.251 16.578 C 6.146 16.780,5.880 17.771,5.880 17.960 C 5.881 18.312,6.165 18.723,6.506 18.865 C 6.666 18.932,7.019 18.937,7.204 18.874 C 7.393 18.811,7.585 18.660,7.700 18.487 C 7.825 18.296,8.120 17.282,8.120 17.044 C 8.119 16.690,7.842 16.280,7.511 16.142 C 7.300 16.054,6.898 16.064,6.701 16.162 M10.701 16.162 C 10.509 16.258,10.334 16.420,10.251 16.578 C 10.146 16.780,9.880 17.771,9.880 17.960 C 9.881 18.312,10.165 18.723,10.506 18.865 C 10.871 19.018,11.417 18.863,11.662 18.537 C 11.805 18.347,12.082 17.469,12.111 17.117 C 12.142 16.722,11.875 16.294,11.497 16.136 C 11.299 16.053,10.893 16.067,10.701 16.162 M14.662 16.191 C 14.359 16.357,14.238 16.550,14.061 17.143 C 13.863 17.810,13.843 18.039,13.961 18.312 C 14.057 18.538,14.291 18.775,14.503 18.864 C 14.871 19.018,15.416 18.864,15.662 18.537 C 15.801 18.352,16.080 17.479,16.111 17.129 C 16.146 16.746,15.894 16.316,15.540 16.155 C 15.288 16.040,14.908 16.056,14.662 16.191 M5.835 19.613 C 5.577 19.710,5.401 19.843,5.294 20.026 C 5.168 20.241,5.000 20.799,5.000 21.001 C 5.000 21.242,5.120 21.522,5.299 21.701 C 5.692 22.094,6.310 22.092,6.704 21.698 C 6.839 21.563,6.896 21.460,6.980 21.194 C 7.173 20.587,7.155 20.277,6.909 19.954 C 6.673 19.645,6.173 19.487,5.835 19.613 M9.835 19.615 C 9.430 19.760,9.256 19.975,9.095 20.531 C 8.983 20.915,8.977 21.078,9.066 21.340 C 9.314 22.067,10.339 22.220,10.786 21.597 C 10.969 21.342,11.132 20.770,11.107 20.470 C 11.054 19.843,10.410 19.410,9.835 19.615 M13.828 19.615 C 13.577 19.709,13.377 19.872,13.269 20.072 C 13.138 20.316,13.000 20.817,13.002 21.043 C 13.007 21.585,13.436 22.010,13.978 22.010 C 14.486 22.010,14.803 21.752,14.981 21.193 C 15.173 20.587,15.155 20.277,14.909 19.954 C 14.671 19.642,14.174 19.487,13.828 19.615 " fill="#000640" stroke="none" fill-rule="evenodd"></path></svg>