<svg xmlns="http://www.w3.org/2000/svg" width="24" height="24" fill="currentColor" class="mmi mmi-raining" viewBox="0 0 24 24"><path d="M10.100 2.025 C 9.154 2.095,8.331 2.324,7.516 2.744 C 5.574 3.747,4.272 5.652,4.035 7.839 C 4.008 8.082,3.971 8.280,3.951 8.280 C 3.931 8.280,3.779 8.343,3.612 8.420 C 2.026 9.152,1.000 10.756,1.000 12.500 C 1.000 14.621,2.491 16.458,4.573 16.902 C 4.984 16.990,5.191 16.977,5.443 16.850 C 5.946 16.594,6.133 16.022,5.881 15.503 C 5.744 15.220,5.503 15.062,5.046 14.958 C 4.231 14.770,3.617 14.310,3.285 13.638 C 2.910 12.876,2.910 12.124,3.285 11.362 C 3.619 10.685,4.231 10.229,5.058 10.040 C 5.516 9.936,5.724 9.799,5.878 9.501 C 5.972 9.318,5.982 9.247,6.006 8.601 C 6.034 7.840,6.099 7.449,6.282 6.948 C 6.668 5.891,7.490 4.974,8.511 4.464 C 9.044 4.196,9.886 4.000,10.500 4.000 C 12.612 4.000,14.462 5.507,14.901 7.582 C 14.938 7.760,14.980 8.211,14.995 8.602 C 15.022 9.270,15.028 9.313,15.132 9.491 C 15.193 9.593,15.301 9.723,15.374 9.778 C 15.653 9.991,15.733 10.000,17.295 10.001 C 18.880 10.001,19.092 10.023,19.536 10.234 C 20.486 10.683,21.056 11.641,20.983 12.665 C 20.902 13.809,20.123 14.689,18.954 14.958 C 18.497 15.062,18.256 15.220,18.119 15.503 C 17.867 16.023,18.053 16.591,18.560 16.853 C 18.760 16.956,18.807 16.965,19.080 16.946 C 19.245 16.935,19.542 16.879,19.740 16.820 C 22.214 16.093,23.574 13.504,22.759 11.072 C 22.251 9.554,21.007 8.446,19.418 8.096 C 19.181 8.044,18.830 8.021,18.040 8.003 L 16.980 7.980 16.948 7.687 C 16.904 7.283,16.718 6.565,16.540 6.115 C 15.695 3.979,13.723 2.414,11.460 2.086 C 11.127 2.038,10.381 2.004,10.100 2.025 M7.643 13.069 C 7.407 13.152,7.149 13.416,7.066 13.660 C 6.968 13.948,6.968 16.052,7.066 16.340 C 7.192 16.709,7.604 17.000,8.000 17.000 C 8.396 17.000,8.808 16.709,8.934 16.340 C 9.032 16.052,9.032 13.948,8.934 13.660 C 8.761 13.152,8.172 12.882,7.643 13.069 M11.643 13.069 C 11.407 13.152,11.149 13.416,11.066 13.660 C 10.968 13.948,10.968 16.052,11.066 16.340 C 11.192 16.709,11.604 17.000,12.000 17.000 C 12.396 17.000,12.808 16.709,12.934 16.340 C 13.032 16.052,13.032 13.948,12.934 13.660 C 12.761 13.152,12.172 12.882,11.643 13.069 M15.643 13.069 C 15.407 13.152,15.149 13.416,15.066 13.660 C 14.968 13.948,14.968 16.052,15.066 16.340 C 15.192 16.709,15.604 17.000,16.000 17.000 C 16.396 17.000,16.808 16.709,16.934 16.340 C 17.032 16.052,17.032 13.948,16.934 13.660 C 16.761 13.152,16.172 12.882,15.643 13.069 M7.643 18.069 C 7.407 18.152,7.149 18.416,7.066 18.660 C 6.968 18.948,6.968 21.052,7.066 21.340 C 7.192 21.709,7.604 22.000,8.000 22.000 C 8.396 22.000,8.808 21.709,8.934 21.340 C 9.032 21.052,9.032 18.948,8.934 18.660 C 8.761 18.152,8.172 17.882,7.643 18.069 M11.643 18.069 C 11.407 18.152,11.149 18.416,11.066 18.660 C 10.968 18.948,10.968 21.052,11.066 21.340 C 11.192 21.709,11.604 22.000,12.000 22.000 C 12.396 22.000,12.808 21.709,12.934 21.340 C 13.032 21.052,13.032 18.948,12.934 18.660 C 12.761 18.152,12.172 17.882,11.643 18.069 M15.643 18.069 C 15.407 18.152,15.149 18.416,15.066 18.660 C 14.968 18.948,14.968 21.052,15.066 21.340 C 15.192 21.709,15.604 22.000,16.000 22.000 C 16.396 22.000,16.808 21.709,16.934 21.340 C 17.032 21.052,17.032 18.948,16.934 18.660 C 16.761 18.152,16.172 17.882,15.643 18.069 " fill="#000640" stroke="none" fill-rule="evenodd"></path></svg>