<svg xmlns="http://www.w3.org/2000/svg" width="24" height="24" fill="currentColor" class="mmi mmi-raining-v2" viewBox="0 0 24 24"><path d="M9.920 2.027 C 8.317 2.189,6.897 2.879,5.800 4.028 C 4.768 5.109,4.173 6.437,4.017 8.010 C 4.003 8.159,3.974 8.280,3.953 8.280 C 3.862 8.280,3.282 8.578,2.977 8.781 C 1.547 9.732,0.768 11.540,1.062 13.225 C 1.132 13.626,1.307 14.176,1.464 14.489 C 1.763 15.087,2.294 15.715,2.860 16.140 C 3.399 16.545,4.318 16.905,4.920 16.947 C 5.195 16.966,5.238 16.959,5.439 16.852 C 5.949 16.583,6.133 16.022,5.881 15.503 C 5.744 15.220,5.503 15.062,5.046 14.958 C 4.232 14.771,3.615 14.307,3.282 13.631 C 2.910 12.876,2.911 12.122,3.285 11.362 C 3.619 10.685,4.231 10.229,5.058 10.040 C 5.516 9.936,5.724 9.799,5.878 9.501 C 5.972 9.318,5.982 9.247,6.006 8.601 C 6.034 7.840,6.099 7.449,6.282 6.948 C 6.668 5.891,7.490 4.974,8.511 4.464 C 9.044 4.196,9.886 4.000,10.500 4.000 C 12.612 4.000,14.462 5.507,14.901 7.582 C 14.938 7.760,14.980 8.211,14.995 8.602 C 15.022 9.270,15.028 9.313,15.132 9.491 C 15.193 9.593,15.301 9.723,15.374 9.778 C 15.653 9.991,15.733 10.000,17.295 10.001 C 18.945 10.001,19.101 10.020,19.638 10.285 C 20.512 10.716,21.046 11.657,20.987 12.660 C 20.919 13.797,20.131 14.687,18.954 14.958 C 18.497 15.062,18.256 15.220,18.119 15.503 C 17.867 16.023,18.053 16.591,18.560 16.853 C 18.760 16.956,18.807 16.965,19.080 16.946 C 19.932 16.889,20.972 16.382,21.670 15.684 C 23.373 13.980,23.449 11.330,21.847 9.498 L 21.613 9.230 21.741 8.825 C 21.929 8.232,21.979 7.895,21.978 7.220 C 21.977 6.560,21.918 6.190,21.718 5.590 C 21.449 4.782,21.089 4.209,20.440 3.557 C 19.792 2.905,19.157 2.513,18.320 2.249 C 17.742 2.066,17.411 2.020,16.700 2.023 C 16.159 2.026,15.991 2.042,15.615 2.130 C 15.007 2.271,14.515 2.474,13.935 2.821 L 13.810 2.896 13.395 2.690 C 12.332 2.162,11.032 1.914,9.920 2.027 M17.598 4.120 C 17.923 4.212,18.343 4.410,18.634 4.609 C 19.216 5.005,19.724 5.762,19.906 6.502 C 20.035 7.029,19.960 8.189,19.798 8.175 C 19.766 8.172,19.596 8.138,19.420 8.098 C 19.177 8.044,18.844 8.021,18.040 8.003 L 16.980 7.980 16.970 7.860 C 16.872 6.733,16.320 5.361,15.615 4.493 C 15.541 4.402,15.480 4.311,15.480 4.291 C 15.480 4.241,15.829 4.122,16.169 4.057 C 16.560 3.983,17.212 4.011,17.598 4.120 M7.643 13.069 C 7.407 13.152,7.149 13.416,7.066 13.660 C 6.968 13.948,6.968 16.052,7.066 16.340 C 7.192 16.709,7.604 17.000,8.000 17.000 C 8.396 17.000,8.808 16.709,8.934 16.340 C 9.032 16.052,9.032 13.948,8.934 13.660 C 8.761 13.152,8.172 12.882,7.643 13.069 M11.643 13.069 C 11.407 13.152,11.149 13.416,11.066 13.660 C 10.968 13.948,10.968 16.052,11.066 16.340 C 11.192 16.709,11.604 17.000,12.000 17.000 C 12.396 17.000,12.808 16.709,12.934 16.340 C 13.032 16.052,13.032 13.948,12.934 13.660 C 12.761 13.152,12.172 12.882,11.643 13.069 M15.643 13.069 C 15.407 13.152,15.149 13.416,15.066 13.660 C 14.968 13.948,14.968 16.052,15.066 16.340 C 15.192 16.709,15.604 17.000,16.000 17.000 C 16.396 17.000,16.808 16.709,16.934 16.340 C 17.032 16.052,17.032 13.948,16.934 13.660 C 16.761 13.152,16.172 12.882,15.643 13.069 M7.643 18.069 C 7.407 18.152,7.149 18.416,7.066 18.660 C 6.968 18.948,6.968 21.052,7.066 21.340 C 7.192 21.709,7.604 22.000,8.000 22.000 C 8.396 22.000,8.808 21.709,8.934 21.340 C 9.032 21.052,9.032 18.948,8.934 18.660 C 8.761 18.152,8.172 17.882,7.643 18.069 M11.643 18.069 C 11.407 18.152,11.149 18.416,11.066 18.660 C 10.968 18.948,10.968 21.052,11.066 21.340 C 11.192 21.709,11.604 22.000,12.000 22.000 C 12.396 22.000,12.808 21.709,12.934 21.340 C 13.032 21.052,13.032 18.948,12.934 18.660 C 12.761 18.152,12.172 17.882,11.643 18.069 M15.643 18.069 C 15.407 18.152,15.149 18.416,15.066 18.660 C 14.968 18.948,14.968 21.052,15.066 21.340 C 15.192 21.709,15.604 22.000,16.000 22.000 C 16.396 22.000,16.808 21.709,16.934 21.340 C 17.032 21.052,17.032 18.948,16.934 18.660 C 16.761 18.152,16.172 17.882,15.643 18.069 " fill="#000640" stroke="none" fill-rule="evenodd"></path></svg>