<svg xmlns="http://www.w3.org/2000/svg" width="24" height="24" fill="currentColor" class="mmi mmi-raining-v4" viewBox="0 0 24 24"><path d="M9.814 2.041 C 6.986 2.339,4.658 4.481,4.120 7.280 C 4.079 7.489,4.034 7.796,4.019 7.962 L 3.992 8.263 3.766 8.351 C 3.433 8.480,2.963 8.767,2.632 9.043 C 0.586 10.747,0.451 13.819,2.339 15.690 C 2.858 16.204,3.568 16.634,3.958 16.670 C 4.344 16.706,4.787 16.427,4.950 16.046 C 5.037 15.840,5.030 15.497,4.933 15.280 C 4.827 15.042,4.659 14.885,4.308 14.696 C 4.133 14.601,3.908 14.429,3.736 14.258 C 2.764 13.292,2.764 11.712,3.737 10.739 C 4.091 10.385,4.505 10.167,5.058 10.040 C 5.516 9.936,5.724 9.799,5.878 9.501 C 5.972 9.318,5.982 9.247,6.006 8.601 C 6.034 7.840,6.099 7.449,6.282 6.948 C 6.668 5.891,7.490 4.974,8.511 4.464 C 9.044 4.196,9.886 4.000,10.500 4.000 C 12.612 4.000,14.462 5.507,14.901 7.582 C 14.938 7.760,14.980 8.211,14.995 8.602 C 15.022 9.270,15.028 9.313,15.132 9.491 C 15.193 9.593,15.301 9.723,15.374 9.778 C 15.653 9.991,15.733 10.000,17.295 10.001 C 18.945 10.001,19.101 10.020,19.638 10.285 C 20.512 10.716,21.046 11.657,20.987 12.660 C 20.919 13.797,20.131 14.687,18.954 14.958 C 18.497 15.062,18.256 15.220,18.119 15.503 C 17.867 16.022,18.054 16.594,18.557 16.850 C 18.809 16.977,19.016 16.990,19.427 16.902 C 20.672 16.637,21.733 15.878,22.371 14.797 C 23.328 13.177,23.184 11.147,22.009 9.678 C 21.498 9.039,20.715 8.493,19.960 8.247 C 19.358 8.050,19.180 8.028,18.060 8.003 L 16.980 7.980 16.970 7.860 C 16.940 7.520,16.816 6.931,16.691 6.540 C 16.361 5.508,15.865 4.700,15.082 3.919 C 14.782 3.620,14.432 3.318,14.212 3.168 C 12.894 2.273,11.355 1.879,9.814 2.041 M7.664 13.060 C 7.453 13.141,7.266 13.289,7.162 13.457 C 7.056 13.628,5.000 20.804,5.000 21.002 C 5.000 21.528,5.474 22.000,6.002 22.000 C 6.318 22.000,6.677 21.804,6.838 21.543 C 6.945 21.371,9.000 14.196,9.000 13.996 C 9.000 13.660,8.796 13.311,8.497 13.136 C 8.273 13.005,7.898 12.971,7.664 13.060 M11.664 13.063 C 11.455 13.139,11.267 13.288,11.161 13.458 C 11.113 13.536,10.614 15.207,10.035 17.229 C 8.898 21.199,8.921 21.092,9.112 21.463 C 9.488 22.194,10.590 22.165,10.904 21.415 C 10.990 21.212,12.961 14.287,12.986 14.102 C 13.000 13.996,12.984 13.846,12.943 13.703 C 12.788 13.171,12.188 12.871,11.664 13.063 M15.578 13.095 C 15.364 13.194,15.181 13.380,15.096 13.585 C 15.041 13.715,13.068 20.604,13.021 20.829 C 13.006 20.900,13.015 21.058,13.040 21.180 C 13.190 21.903,14.082 22.209,14.642 21.729 C 14.730 21.653,14.838 21.523,14.880 21.440 C 14.923 21.356,15.419 19.672,15.984 17.697 C 17.104 13.776,17.076 13.903,16.887 13.535 C 16.646 13.066,16.062 12.869,15.578 13.095 " fill="#000640" stroke="none" fill-rule="evenodd"></path></svg>