<svg xmlns="http://www.w3.org/2000/svg" width="24" height="24" fill="currentColor" class="mmi mmi-receipt" viewBox="0 0 24 24"><path d="M3.503 1.042 C 2.554 1.203,1.717 1.847,1.298 2.740 C 1.007 3.361,1.020 3.156,1.020 7.000 C 1.020 10.844,1.007 10.639,1.298 11.260 C 1.606 11.918,2.079 12.391,2.740 12.704 C 3.219 12.931,3.604 13.000,4.384 13.000 L 5.000 13.000 5.000 17.573 C 5.000 22.714,4.981 22.383,5.299 22.701 C 5.567 22.969,5.965 23.066,6.305 22.945 C 6.390 22.914,7.438 22.302,8.633 21.585 C 9.828 20.867,10.818 20.280,10.832 20.280 C 10.846 20.280,11.443 20.863,12.159 21.574 C 13.310 22.720,13.483 22.877,13.657 22.934 C 13.904 23.017,14.048 23.017,14.323 22.936 C 14.528 22.876,14.609 22.803,15.841 21.576 C 16.557 20.863,17.154 20.280,17.168 20.280 C 17.182 20.280,18.172 20.867,19.367 21.585 C 20.562 22.302,21.610 22.914,21.695 22.945 C 22.037 23.066,22.433 22.969,22.705 22.697 C 23.026 22.377,23.000 23.221,23.000 12.937 C 23.000 2.650,23.022 3.412,22.704 2.740 C 22.398 2.095,21.924 1.614,21.296 1.312 C 20.634 0.993,21.532 1.022,12.120 1.015 C 7.489 1.012,3.611 1.024,3.503 1.042 M4.340 3.066 C 4.455 3.105,4.603 3.201,4.701 3.299 C 5.015 3.613,5.000 3.405,5.000 7.430 L 5.000 11.006 4.369 10.993 C 3.783 10.981,3.723 10.973,3.539 10.878 C 3.312 10.761,3.102 10.509,3.040 10.281 C 3.012 10.176,3.002 9.065,3.009 6.912 L 3.020 3.700 3.131 3.511 C 3.386 3.077,3.860 2.903,4.340 3.066 M20.340 3.066 C 20.593 3.153,20.847 3.407,20.934 3.660 C 20.995 3.838,21.000 4.526,21.000 12.045 L 21.000 20.236 19.230 19.173 C 18.257 18.588,17.382 18.083,17.286 18.050 C 17.079 17.978,16.753 18.001,16.555 18.101 C 16.481 18.138,15.876 18.711,15.210 19.373 L 14.001 20.578 12.770 19.353 C 11.609 18.196,11.528 18.124,11.323 18.064 C 11.057 17.986,10.944 17.984,10.716 18.054 C 10.619 18.084,9.744 18.587,8.771 19.172 L 7.001 20.236 6.991 11.848 C 6.981 3.999,6.976 3.447,6.910 3.260 C 6.872 3.150,6.841 3.046,6.840 3.030 C 6.840 3.014,9.834 3.000,13.493 3.000 C 19.580 3.000,20.162 3.006,20.340 3.066 M9.664 5.063 C 9.436 5.146,9.257 5.297,9.131 5.511 C 9.036 5.672,9.020 5.744,9.020 6.000 C 9.020 6.256,9.036 6.328,9.131 6.489 C 9.192 6.592,9.301 6.723,9.374 6.778 C 9.677 7.009,9.484 7.000,13.998 7.000 C 18.663 7.000,18.384 7.018,18.701 6.701 C 19.092 6.310,19.092 5.690,18.701 5.299 C 18.384 4.982,18.666 5.000,13.983 5.003 C 10.474 5.005,9.795 5.015,9.664 5.063 M9.664 9.063 C 9.436 9.146,9.257 9.297,9.131 9.511 C 9.036 9.672,9.020 9.744,9.020 10.000 C 9.020 10.256,9.036 10.328,9.131 10.489 C 9.192 10.592,9.301 10.723,9.374 10.778 C 9.677 11.009,9.484 11.000,13.998 11.000 C 18.663 11.000,18.384 11.018,18.701 10.701 C 19.092 10.310,19.092 9.690,18.701 9.299 C 18.384 8.982,18.666 9.000,13.983 9.003 C 10.474 9.005,9.795 9.015,9.664 9.063 M9.664 13.063 C 9.436 13.146,9.257 13.297,9.131 13.511 C 9.036 13.672,9.020 13.744,9.020 14.000 C 9.020 14.256,9.036 14.328,9.131 14.489 C 9.192 14.592,9.301 14.723,9.374 14.778 C 9.657 14.994,9.715 15.000,11.498 15.000 C 13.371 15.000,13.407 14.995,13.701 14.701 C 14.092 14.310,14.092 13.690,13.701 13.299 C 13.406 13.004,13.373 13.000,11.483 13.003 C 10.145 13.005,9.789 13.017,9.664 13.063 " fill="#000640" stroke="none" fill-rule="evenodd"></path></svg>