<svg xmlns="http://www.w3.org/2000/svg" width="24" height="24" fill="currentColor" class="mmi mmi-refrest-v2" viewBox="0 0 24 24"><path d="M11.100 2.147 C 7.723 2.441,4.638 4.561,3.141 7.618 C 2.619 8.683,2.337 9.621,2.182 10.812 C 2.111 11.351,2.100 12.517,2.161 13.060 C 2.531 16.403,4.581 19.353,7.563 20.836 C 8.619 21.361,9.670 21.678,10.838 21.823 C 11.368 21.889,12.536 21.898,13.060 21.839 C 15.320 21.589,17.376 20.597,18.981 18.984 C 20.160 17.800,20.914 16.570,21.412 15.020 C 21.578 14.503,21.720 13.921,21.720 13.758 C 21.720 13.420,21.425 12.993,21.097 12.856 C 20.776 12.722,20.282 12.816,20.030 13.058 C 19.848 13.232,19.810 13.317,19.663 13.869 C 19.341 15.079,18.902 15.975,18.180 16.900 C 17.909 17.246,17.275 17.887,16.918 18.173 C 16.071 18.854,14.824 19.454,13.749 19.700 C 12.670 19.947,11.264 19.940,10.185 19.683 C 9.075 19.419,7.900 18.840,7.023 18.126 C 5.470 16.861,4.440 15.012,4.181 13.028 C 3.865 10.599,4.698 8.150,6.430 6.416 C 7.571 5.274,9.093 4.492,10.720 4.214 C 11.202 4.131,12.295 4.100,12.796 4.155 C 14.325 4.323,15.692 4.878,16.900 5.820 C 17.341 6.164,18.086 6.945,18.407 7.400 C 18.554 7.609,18.669 7.784,18.663 7.790 C 18.657 7.796,18.090 7.621,17.404 7.401 C 16.105 6.983,15.931 6.949,15.636 7.055 C 15.305 7.173,15.041 7.502,14.981 7.869 C 14.913 8.282,15.206 8.762,15.621 8.917 C 15.739 8.961,16.938 9.353,18.287 9.788 C 20.515 10.507,20.766 10.580,21.020 10.580 C 21.254 10.580,21.331 10.562,21.489 10.469 C 21.702 10.344,21.864 10.151,21.943 9.930 C 21.986 9.810,21.997 9.188,21.998 6.817 C 22.000 3.475,22.012 3.609,21.700 3.298 C 21.390 2.988,20.932 2.920,20.531 3.126 C 20.315 3.238,20.103 3.491,20.042 3.711 C 20.018 3.798,20.000 4.342,20.000 5.013 L 20.000 6.165 19.755 5.853 C 19.393 5.392,18.441 4.464,17.960 4.105 C 16.529 3.036,14.898 2.387,13.120 2.179 C 12.673 2.126,11.545 2.109,11.100 2.147 M11.580 10.047 C 11.037 10.151,10.452 10.610,10.207 11.125 C 9.629 12.339,10.374 13.762,11.695 13.967 C 12.782 14.136,13.798 13.392,13.967 12.305 C 14.067 11.663,13.868 11.061,13.404 10.596 C 12.913 10.106,12.277 9.914,11.580 10.047 " fill="#000640" stroke="none" fill-rule="evenodd"></path></svg>