<svg xmlns="http://www.w3.org/2000/svg" width="24" height="24" fill="currentColor" class="mmi mmi-refrest" viewBox="0 0 24 24"><path d="M11.080 2.046 C 6.950 2.424,3.490 5.324,2.357 9.357 C 2.170 10.023,2.213 10.367,2.524 10.677 C 3.055 11.209,3.983 10.972,4.180 10.254 C 4.470 9.195,4.841 8.331,5.309 7.620 C 6.393 5.976,8.067 4.765,9.927 4.281 C 13.273 3.409,16.725 4.702,18.644 7.545 C 18.753 7.707,18.827 7.840,18.809 7.840 C 18.790 7.840,18.186 7.651,17.467 7.420 C 16.630 7.152,16.095 7.000,15.984 7.000 C 15.430 7.000,14.983 7.438,14.986 7.979 C 14.987 8.112,15.016 8.286,15.050 8.366 C 15.151 8.601,15.384 8.828,15.613 8.914 C 15.727 8.956,16.927 9.349,18.280 9.785 C 20.514 10.507,20.766 10.580,21.020 10.580 C 21.254 10.580,21.331 10.562,21.489 10.469 C 21.702 10.344,21.864 10.151,21.943 9.930 C 21.986 9.810,21.997 9.188,21.998 6.817 C 22.000 3.477,22.011 3.609,21.701 3.299 C 21.234 2.832,20.470 2.935,20.131 3.511 L 20.020 3.700 20.000 4.832 L 19.980 5.963 19.680 5.597 C 18.699 4.401,17.263 3.351,15.780 2.746 C 14.313 2.147,12.660 1.901,11.080 2.046 M20.324 13.105 C 20.070 13.232,19.902 13.448,19.817 13.757 C 19.375 15.374,18.771 16.484,17.760 17.536 C 16.482 18.867,14.824 19.697,12.966 19.936 C 10.862 20.207,8.640 19.569,6.960 18.211 C 6.579 17.903,5.926 17.228,5.634 16.840 C 5.331 16.438,5.108 16.080,5.159 16.080 C 5.182 16.080,6.034 16.289,7.051 16.544 C 9.055 17.046,9.133 17.057,9.469 16.886 C 9.967 16.632,10.151 15.970,9.857 15.494 C 9.624 15.118,9.727 15.153,6.317 14.298 C 3.111 13.495,2.911 13.456,2.626 13.575 C 2.419 13.662,2.196 13.882,2.094 14.100 L 2.001 14.300 2.001 17.220 C 2.001 19.109,2.015 20.193,2.042 20.289 C 2.103 20.509,2.315 20.762,2.531 20.874 C 3.036 21.134,3.643 20.944,3.886 20.450 C 3.976 20.268,3.981 20.212,4.000 19.148 L 4.020 18.037 4.320 18.403 C 5.184 19.457,6.404 20.404,7.700 21.023 C 8.967 21.629,10.248 21.939,11.680 21.987 C 15.889 22.129,19.733 19.607,21.294 15.680 C 21.714 14.623,21.852 13.926,21.707 13.595 C 21.474 13.063,20.851 12.843,20.324 13.105 " fill="#000640" stroke="none" fill-rule="evenodd"></path></svg>