<svg xmlns="http://www.w3.org/2000/svg" width="24" height="24" fill="currentColor" class="mmi mmi-refresh-v3" viewBox="0 0 24 24"><path d="M4.640 3.068 C 4.488 3.121,4.209 3.380,2.829 4.755 C 1.773 5.807,1.170 6.436,1.120 6.540 C 1.000 6.790,0.982 6.999,1.060 7.265 C 1.151 7.581,1.410 7.844,1.717 7.936 C 1.988 8.016,2.052 8.016,2.323 7.936 C 2.521 7.877,2.604 7.808,3.269 7.149 L 3.998 6.427 4.011 11.583 C 4.023 16.263,4.031 16.765,4.092 17.013 C 4.358 18.086,4.821 18.909,5.550 19.605 C 6.238 20.263,6.984 20.661,7.987 20.907 C 8.226 20.965,8.623 20.975,11.194 20.989 C 14.514 21.006,14.386 21.016,14.700 20.702 C 15.092 20.310,15.093 19.691,14.701 19.299 C 14.393 18.991,14.494 19.000,11.423 18.999 C 8.522 18.999,8.451 18.994,7.925 18.798 C 7.236 18.541,6.646 17.992,6.312 17.296 C 5.999 16.646,6.024 17.125,6.010 11.481 L 5.998 6.423 6.729 7.147 C 7.396 7.808,7.479 7.877,7.677 7.936 C 7.948 8.016,8.012 8.016,8.283 7.936 C 8.590 7.844,8.849 7.581,8.940 7.265 C 9.018 6.999,9.000 6.790,8.880 6.540 C 8.830 6.436,8.227 5.807,7.171 4.755 C 5.712 3.302,5.519 3.124,5.343 3.065 C 5.102 2.986,4.878 2.986,4.640 3.068 M9.664 3.063 C 9.303 3.195,9.051 3.514,9.013 3.888 C 8.970 4.307,9.174 4.690,9.539 4.878 L 9.738 4.980 12.639 5.002 C 15.863 5.027,15.671 5.011,16.296 5.312 C 16.924 5.614,17.398 6.095,17.704 6.740 C 18.012 7.391,18.000 7.147,18.000 12.673 L 18.000 17.577 17.310 16.893 C 16.536 16.126,16.394 16.031,16.019 16.028 C 15.273 16.020,14.795 16.783,15.120 17.460 C 15.170 17.564,15.773 18.193,16.829 19.245 C 18.288 20.698,18.481 20.876,18.657 20.935 C 18.906 21.017,19.094 21.017,19.343 20.935 C 19.519 20.876,19.712 20.698,21.171 19.245 C 22.227 18.193,22.830 17.564,22.880 17.460 C 22.999 17.212,23.018 17.001,22.943 16.743 C 22.816 16.307,22.435 16.023,21.981 16.028 C 21.597 16.031,21.433 16.141,20.680 16.898 L 20.020 17.561 19.999 12.410 L 19.978 7.260 19.869 6.848 C 19.599 5.825,19.139 5.038,18.409 4.353 C 17.657 3.647,16.632 3.168,15.601 3.042 C 15.395 3.016,14.198 3.001,12.541 3.003 C 10.284 3.005,9.793 3.015,9.664 3.063 " fill="#000640" stroke="none" fill-rule="evenodd"></path></svg>