<svg xmlns="http://www.w3.org/2000/svg" width="24" height="24" fill="currentColor" class="mmi mmi-repeat" viewBox="0 0 24 24"><path d="M17.656 2.043 C 17.480 2.094,17.162 2.388,17.075 2.578 C 16.975 2.800,16.978 3.168,17.083 3.400 C 17.139 3.523,17.386 3.803,17.870 4.289 L 18.575 4.998 12.478 5.010 L 6.380 5.022 6.042 5.112 C 4.612 5.494,3.533 6.554,3.135 7.968 C 3.040 8.304,3.028 8.426,3.011 9.220 C 2.989 10.203,3.009 10.341,3.211 10.606 C 3.570 11.076,4.280 11.122,4.700 10.702 C 4.955 10.447,5.000 10.266,5.000 9.500 C 5.000 9.145,5.020 8.748,5.043 8.617 C 5.184 7.849,5.849 7.184,6.617 7.043 C 6.781 7.013,8.679 7.000,12.715 7.000 L 18.575 7.000 17.852 7.730 C 17.192 8.396,17.123 8.479,17.064 8.677 C 16.984 8.948,16.984 9.012,17.064 9.283 C 17.156 9.590,17.419 9.849,17.735 9.940 C 18.001 10.018,18.210 10.000,18.460 9.880 C 18.564 9.830,19.193 9.227,20.245 8.171 C 21.698 6.712,21.876 6.519,21.935 6.343 C 21.971 6.234,22.000 6.080,22.000 6.000 C 22.000 5.920,21.971 5.766,21.935 5.657 C 21.876 5.481,21.697 5.287,20.245 3.829 C 18.467 2.044,18.409 1.997,18.002 2.004 C 17.880 2.006,17.724 2.023,17.656 2.043 M20.664 13.063 C 20.436 13.146,20.257 13.297,20.131 13.511 C 20.022 13.697,20.020 13.712,19.996 14.560 C 19.976 15.298,19.961 15.453,19.888 15.654 C 19.650 16.310,19.074 16.817,18.408 16.956 C 18.258 16.987,16.318 17.000,11.809 17.000 L 5.423 17.000 6.129 16.290 C 6.915 15.500,6.998 15.374,6.998 14.980 C 6.998 14.669,6.903 14.462,6.661 14.249 C 6.449 14.062,6.279 14.001,5.978 14.000 C 5.591 14.000,5.511 14.066,3.755 15.829 C 2.303 17.287,2.124 17.481,2.065 17.657 C 1.983 17.906,1.983 18.094,2.065 18.343 C 2.124 18.519,2.302 18.712,3.755 20.171 C 4.807 21.227,5.436 21.830,5.540 21.880 C 5.790 22.000,5.999 22.018,6.265 21.940 C 6.581 21.849,6.844 21.590,6.936 21.283 C 7.016 21.012,7.016 20.948,6.936 20.677 C 6.877 20.479,6.808 20.396,6.148 19.730 L 5.425 19.000 11.896 19.000 C 18.281 19.000,18.373 18.999,18.774 18.917 C 20.292 18.608,21.471 17.501,21.868 16.012 C 21.962 15.662,21.975 15.528,21.990 14.752 C 22.005 14.004,21.998 13.855,21.939 13.676 C 21.768 13.162,21.173 12.876,20.664 13.063 " fill="#000640" stroke="none" fill-rule="evenodd"></path></svg>