<svg xmlns="http://www.w3.org/2000/svg" width="24" height="24" fill="currentColor" class="mmi mmi-rewind" viewBox="0 0 24 24"><path d="M16.629 2.522 C 16.354 2.554,15.914 2.680,15.714 2.783 C 15.402 2.945,4.272 9.509,4.113 9.626 C 3.677 9.945,3.295 10.481,3.093 11.060 C 2.989 11.357,2.981 11.424,2.981 12.000 C 2.981 12.576,2.989 12.643,3.093 12.940 C 3.306 13.551,3.689 14.073,4.176 14.417 C 4.310 14.512,6.958 16.081,10.059 17.904 C 14.047 20.248,15.787 21.249,16.001 21.325 C 16.633 21.549,17.178 21.563,17.840 21.373 C 18.337 21.231,18.720 21.000,19.121 20.600 C 19.490 20.233,19.705 19.879,19.886 19.340 L 19.980 19.060 19.991 12.140 C 20.004 4.308,20.026 4.890,19.682 4.179 C 19.130 3.040,17.902 2.374,16.629 2.522 M17.374 4.575 C 17.562 4.653,17.790 4.866,17.892 5.056 L 17.980 5.220 17.980 12.000 L 17.980 18.780 17.894 18.940 C 17.780 19.150,17.579 19.340,17.380 19.424 C 17.182 19.507,16.827 19.511,16.640 19.432 C 16.395 19.327,5.385 12.837,5.265 12.726 C 5.089 12.564,4.961 12.258,4.961 12.000 C 4.961 11.742,5.089 11.435,5.265 11.275 C 5.374 11.175,16.462 4.637,16.650 4.561 C 16.789 4.505,17.228 4.514,17.374 4.575 " fill="#000640" stroke="none" fill-rule="evenodd"></path></svg>