<svg xmlns="http://www.w3.org/2000/svg" width="24" height="24" fill="currentColor" class="mmi mmi-roman-six" viewBox="0 0 24 24"><path d="M5.619 3.056 C 5.378 3.131,5.248 3.232,5.128 3.436 C 5.031 3.601,5.020 3.659,5.020 4.000 C 5.020 4.343,5.031 4.398,5.131 4.569 C 5.203 4.691,5.309 4.797,5.431 4.869 C 5.617 4.978,5.632 4.980,6.390 4.994 C 6.872 5.002,7.160 5.022,7.160 5.048 C 7.160 5.070,7.646 8.198,8.240 12.000 C 8.834 15.802,9.320 18.931,9.320 18.954 C 9.320 18.984,8.747 19.001,7.489 19.008 L 5.658 19.020 5.459 19.122 C 5.318 19.195,5.226 19.281,5.140 19.419 C 5.028 19.600,5.020 19.641,5.020 19.997 C 5.020 20.344,5.031 20.398,5.131 20.569 C 5.203 20.691,5.309 20.797,5.431 20.869 L 5.620 20.980 12.003 20.980 L 18.386 20.980 18.581 20.860 C 18.828 20.707,18.961 20.463,18.989 20.109 C 19.017 19.765,18.923 19.445,18.739 19.262 C 18.531 19.054,18.295 19.000,17.593 19.000 L 17.000 19.000 17.000 12.004 L 17.000 5.008 17.693 4.994 C 18.383 4.980,18.387 4.979,18.581 4.860 C 18.828 4.707,18.961 4.463,18.989 4.109 C 19.017 3.765,18.923 3.445,18.739 3.262 C 18.461 2.984,18.869 3.000,11.983 3.003 C 7.112 3.005,5.745 3.016,5.619 3.056 M11.821 5.090 C 11.799 5.188,10.522 13.378,10.517 13.453 C 10.515 13.479,10.506 13.482,10.497 13.460 C 10.488 13.438,10.193 11.566,9.840 9.300 C 9.487 7.034,9.190 5.140,9.179 5.090 L 9.158 5.000 10.500 5.000 L 11.842 5.000 11.821 5.090 M15.000 12.000 L 15.000 19.000 13.340 19.000 C 12.062 19.000,11.680 18.989,11.680 18.951 C 11.680 18.924,12.166 15.793,12.760 11.992 C 13.354 8.191,13.840 5.063,13.840 5.041 C 13.840 5.015,14.054 5.000,14.420 5.000 L 15.000 5.000 15.000 12.000 " stroke="none" fill-rule="evenodd"></path></svg>