<svg xmlns="http://www.w3.org/2000/svg" width="24" height="24" fill="currentColor" class="mmi mmi-roman-nine" viewBox="0 0 24 24"><path d="M5.664 3.063 C 5.436 3.146,5.257 3.297,5.131 3.511 C 5.036 3.672,5.020 3.744,5.020 4.000 C 5.020 4.256,5.036 4.328,5.131 4.489 C 5.371 4.898,5.631 5.000,6.425 5.000 L 7.000 5.000 7.000 12.000 L 7.000 19.000 6.425 19.000 C 5.631 19.000,5.371 19.102,5.131 19.511 C 5.036 19.672,5.020 19.744,5.020 20.000 C 5.020 20.256,5.036 20.328,5.131 20.489 C 5.192 20.592,5.301 20.723,5.374 20.778 C 5.682 21.013,5.296 21.000,11.998 21.000 C 18.903 21.000,18.379 21.023,18.701 20.701 C 19.092 20.310,19.092 19.690,18.701 19.299 C 18.443 19.041,18.271 19.000,17.440 19.000 L 16.735 19.000 15.641 15.500 L 14.547 12.000 15.641 8.500 L 16.735 5.000 17.440 5.000 C 18.271 5.000,18.443 4.959,18.701 4.701 C 19.092 4.310,19.092 3.690,18.701 3.299 C 18.379 2.976,18.906 3.000,11.983 3.003 C 6.739 3.005,5.797 3.014,5.664 3.063 M11.359 8.500 L 12.453 12.000 11.359 15.500 L 10.265 19.000 9.633 19.000 L 9.000 19.000 9.000 12.000 L 9.000 5.000 9.633 5.000 L 10.265 5.000 11.359 8.500 M14.625 5.061 C 14.612 5.094,14.365 5.882,14.076 6.811 C 13.786 7.740,13.536 8.525,13.520 8.556 C 13.485 8.621,13.527 8.742,12.879 6.666 C 12.612 5.811,12.385 5.086,12.373 5.056 C 12.355 5.009,12.536 5.000,13.500 5.000 C 14.510 5.000,14.646 5.007,14.625 5.061 M14.076 17.189 C 14.365 18.118,14.612 18.906,14.625 18.939 C 14.646 18.993,14.510 19.000,13.500 19.000 C 12.536 19.000,12.355 18.991,12.373 18.944 C 12.385 18.914,12.612 18.189,12.879 17.334 C 13.527 15.258,13.485 15.379,13.520 15.444 C 13.536 15.475,13.786 16.260,14.076 17.189 " fill="#000640" stroke="none" fill-rule="evenodd"></path></svg>