<svg xmlns="http://www.w3.org/2000/svg" width="24" height="24" fill="currentColor" class="mmi mmi-roman-eight" viewBox="0 0 24 24"><path d="M1.664 3.063 C 1.436 3.146,1.257 3.297,1.131 3.511 C 1.036 3.672,1.020 3.744,1.020 4.000 C 1.020 4.256,1.036 4.328,1.131 4.489 C 1.377 4.908,1.624 5.000,2.496 5.000 L 3.142 5.000 4.219 11.890 C 4.811 15.680,5.303 18.829,5.312 18.890 L 5.329 19.000 3.590 19.000 C 1.707 19.000,1.659 19.005,1.374 19.222 C 1.301 19.277,1.192 19.408,1.131 19.511 C 1.036 19.672,1.020 19.744,1.020 20.000 C 1.020 20.256,1.036 20.328,1.131 20.489 C 1.260 20.709,1.437 20.854,1.678 20.939 C 1.830 20.993,3.022 21.000,11.998 21.000 C 23.385 21.000,22.374 21.028,22.701 20.701 C 23.092 20.310,23.092 19.690,22.701 19.299 C 22.454 19.052,22.259 19.000,21.573 19.000 L 21.000 19.000 21.000 12.000 L 21.000 5.000 21.573 5.000 C 22.259 5.000,22.454 4.948,22.701 4.701 C 23.092 4.310,23.092 3.690,22.701 3.299 C 22.374 2.972,23.388 3.000,11.983 3.003 C 3.267 3.005,1.798 3.014,1.664 3.063 M7.813 5.090 C 7.779 5.289,6.520 13.376,6.517 13.416 C 6.515 13.443,6.507 13.444,6.497 13.420 C 6.488 13.398,6.193 11.535,5.841 9.280 C 5.490 7.025,5.195 5.140,5.187 5.090 L 5.171 5.000 6.500 5.000 L 7.829 5.000 7.813 5.090 M11.000 12.000 L 11.000 19.000 9.335 19.000 L 7.671 19.000 7.687 18.890 C 7.697 18.829,8.189 15.680,8.781 11.890 L 9.859 5.000 10.429 5.000 L 11.000 5.000 11.000 12.000 M15.000 12.000 L 15.000 19.000 14.000 19.000 L 13.000 19.000 13.000 12.000 L 13.000 5.000 14.000 5.000 L 15.000 5.000 15.000 12.000 M19.000 12.000 L 19.000 19.000 18.000 19.000 L 17.000 19.000 17.000 12.000 L 17.000 5.000 18.000 5.000 L 19.000 5.000 19.000 12.000 " fill="#000640" stroke="none" fill-rule="evenodd"></path></svg>