<svg xmlns="http://www.w3.org/2000/svg" width="24" height="24" fill="currentColor" class="mmi mmi-roman-five" viewBox="0 0 24 24"><path d="M6.664 3.063 C 6.436 3.146,6.257 3.297,6.131 3.511 C 6.036 3.672,6.020 3.744,6.020 4.000 C 6.020 4.256,6.036 4.328,6.131 4.489 C 6.378 4.909,6.623 5.000,7.502 5.000 C 8.089 5.000,8.157 5.007,8.175 5.070 C 8.187 5.109,8.774 8.227,9.480 12.000 C 10.186 15.773,10.773 18.892,10.785 18.930 C 10.804 18.996,10.692 19.000,8.828 19.000 C 6.685 19.000,6.662 19.002,6.374 19.222 C 6.301 19.277,6.192 19.408,6.131 19.511 C 6.036 19.672,6.020 19.744,6.020 20.000 C 6.020 20.256,6.036 20.328,6.131 20.489 C 6.192 20.592,6.301 20.723,6.374 20.778 C 6.680 21.011,6.390 21.000,11.998 21.000 C 17.783 21.000,17.381 21.021,17.701 20.701 C 18.092 20.310,18.092 19.690,17.701 19.299 C 17.401 18.999,17.408 19.000,15.170 19.000 C 13.307 19.000,13.196 18.996,13.215 18.930 C 13.227 18.892,13.814 15.773,14.520 12.000 C 15.226 8.227,15.813 5.109,15.825 5.070 C 15.843 5.007,15.911 5.000,16.496 5.000 C 17.266 5.000,17.447 4.955,17.701 4.701 C 18.092 4.310,18.092 3.690,17.701 3.299 C 17.381 2.979,17.786 3.000,11.983 3.003 C 7.607 3.005,6.796 3.014,6.664 3.063 M13.790 5.050 C 13.780 5.077,13.378 7.202,12.897 9.770 C 12.416 12.338,12.013 14.440,12.000 14.440 C 11.987 14.440,11.584 12.338,11.103 9.770 C 10.622 7.202,10.220 5.077,10.210 5.050 C 10.195 5.010,10.570 5.000,12.000 5.000 C 13.430 5.000,13.805 5.010,13.790 5.050 " fill="#000640" stroke="none" fill-rule="evenodd"></path></svg>