<svg xmlns="http://www.w3.org/2000/svg" width="24" height="24" fill="currentColor" class="mmi mmi-roman-two" viewBox="0 0 24 24"><path d="M7.664 3.063 C 7.436 3.146,7.257 3.297,7.131 3.511 C 7.036 3.672,7.020 3.744,7.020 4.000 C 7.020 4.256,7.036 4.328,7.131 4.489 C 7.371 4.898,7.631 5.000,8.425 5.000 L 9.000 5.000 9.000 12.000 L 9.000 19.000 8.425 19.000 C 7.631 19.000,7.371 19.102,7.131 19.511 C 7.036 19.672,7.020 19.744,7.020 20.000 C 7.020 20.256,7.036 20.328,7.131 20.489 C 7.192 20.592,7.301 20.723,7.374 20.778 C 7.677 21.009,7.484 21.000,11.998 21.000 C 16.663 21.000,16.384 21.018,16.701 20.701 C 17.092 20.310,17.092 19.690,16.701 19.299 C 16.454 19.052,16.259 19.000,15.573 19.000 L 15.000 19.000 15.000 12.000 L 15.000 5.000 15.573 5.000 C 16.259 5.000,16.454 4.948,16.701 4.701 C 17.092 4.310,17.092 3.690,16.701 3.299 C 16.384 2.982,16.666 3.000,11.983 3.003 C 8.474 3.005,7.795 3.015,7.664 3.063 M13.000 12.000 L 13.000 19.000 12.000 19.000 L 11.000 19.000 11.000 12.000 L 11.000 5.000 12.000 5.000 L 13.000 5.000 13.000 12.000 " fill="#000640" stroke="none" fill-rule="evenodd"></path></svg>