<svg xmlns="http://www.w3.org/2000/svg" width="24" height="24" fill="currentColor" class="mmi mmi-roman-ten" viewBox="0 0 24 24"><path d="M5.664 3.063 C 5.436 3.146,5.257 3.297,5.131 3.511 C 5.036 3.672,5.020 3.744,5.020 4.000 C 5.020 4.256,5.036 4.328,5.131 4.489 C 5.192 4.592,5.301 4.723,5.374 4.778 C 5.627 4.971,5.788 5.000,6.615 5.000 L 7.380 5.000 9.130 8.500 L 10.880 12.000 9.130 15.500 L 7.380 19.000 6.615 19.000 C 5.788 19.000,5.627 19.029,5.374 19.222 C 5.301 19.277,5.192 19.408,5.131 19.511 C 5.036 19.672,5.020 19.744,5.020 20.000 C 5.020 20.256,5.036 20.328,5.131 20.489 C 5.192 20.592,5.301 20.723,5.374 20.778 C 5.682 21.013,5.296 21.000,11.998 21.000 C 18.903 21.000,18.379 21.023,18.701 20.701 C 19.092 20.310,19.092 19.690,18.701 19.299 C 18.439 19.037,18.277 19.000,17.383 19.000 L 16.620 19.000 14.870 15.500 L 13.120 12.000 14.870 8.500 L 16.620 5.000 17.383 5.000 C 18.277 5.000,18.439 4.963,18.701 4.701 C 19.092 4.310,19.092 3.690,18.701 3.299 C 18.379 2.976,18.906 3.000,11.983 3.003 C 6.739 3.005,5.797 3.014,5.664 3.063 M14.360 5.020 C 14.360 5.059,12.020 9.720,12.000 9.720 C 11.980 9.720,9.640 5.059,9.640 5.020 C 9.640 5.009,10.702 5.000,12.000 5.000 C 13.298 5.000,14.360 5.009,14.360 5.020 M13.190 16.620 C 13.834 17.907,14.360 18.969,14.360 18.980 C 14.360 18.991,13.298 19.000,12.000 19.000 C 10.702 19.000,9.640 18.991,9.640 18.980 C 9.640 18.941,11.980 14.280,12.000 14.280 C 12.011 14.280,12.547 15.333,13.190 16.620 " fill="#000640" stroke="none" fill-rule="evenodd"></path></svg>