<svg xmlns="http://www.w3.org/2000/svg" width="24" height="24" fill="currentColor" class="mmi mmi-roman-one" viewBox="0 0 24 24"><path d="M9.664 3.063 C 9.436 3.146,9.257 3.297,9.131 3.511 C 9.036 3.672,9.020 3.744,9.020 4.000 C 9.020 4.256,9.036 4.328,9.131 4.489 C 9.371 4.898,9.631 5.000,10.425 5.000 L 11.000 5.000 11.000 12.000 L 11.000 19.000 10.425 19.000 C 9.631 19.000,9.371 19.102,9.131 19.511 C 9.036 19.672,9.020 19.744,9.020 20.000 C 9.020 20.256,9.036 20.328,9.131 20.489 C 9.192 20.592,9.301 20.723,9.374 20.778 C 9.664 21.000,9.670 21.000,11.998 21.000 C 14.428 21.000,14.399 21.003,14.701 20.701 C 15.092 20.310,15.092 19.690,14.701 19.299 C 14.454 19.052,14.259 19.000,13.573 19.000 L 13.000 19.000 13.000 12.000 L 13.000 5.000 13.573 5.000 C 14.259 5.000,14.454 4.948,14.701 4.701 C 15.092 4.310,15.092 3.690,14.701 3.299 C 14.398 2.996,14.430 3.000,11.983 3.003 C 10.210 3.005,9.792 3.016,9.664 3.063 " fill="#000640" stroke="none" fill-rule="evenodd"></path></svg>