<svg xmlns="http://www.w3.org/2000/svg" width="24" height="24" fill="currentColor" class="mmi mmi-roman-four" viewBox="0 0 24 24"><path d="M5.664 3.063 C 5.436 3.146,5.257 3.297,5.131 3.511 C 5.036 3.672,5.020 3.744,5.020 4.000 C 5.020 4.256,5.036 4.328,5.131 4.489 C 5.371 4.898,5.631 5.000,6.425 5.000 L 7.000 5.000 7.000 12.000 L 7.000 19.000 6.425 19.000 C 5.631 19.000,5.371 19.102,5.131 19.511 C 5.036 19.672,5.020 19.744,5.020 20.000 C 5.020 20.256,5.036 20.328,5.131 20.489 C 5.192 20.592,5.301 20.723,5.374 20.778 C 5.682 21.013,5.296 21.000,11.998 21.000 C 18.903 21.000,18.379 21.023,18.701 20.701 C 19.092 20.310,19.092 19.690,18.701 19.299 C 18.405 19.003,18.381 19.000,16.408 19.000 L 14.671 19.000 14.687 18.890 C 14.697 18.829,15.189 15.680,15.781 11.890 L 16.859 5.000 17.502 5.000 C 18.265 5.000,18.448 4.955,18.701 4.701 C 19.092 4.310,19.092 3.690,18.701 3.299 C 18.379 2.976,18.906 3.000,11.983 3.003 C 6.739 3.005,5.797 3.014,5.664 3.063 M11.219 11.890 C 11.811 15.680,12.303 18.829,12.312 18.890 L 12.329 19.000 10.665 19.000 L 9.000 19.000 9.000 12.000 L 9.000 5.000 9.571 5.000 L 10.142 5.000 11.219 11.890 M14.813 5.090 C 14.779 5.289,13.520 13.376,13.517 13.416 C 13.515 13.443,13.507 13.444,13.497 13.420 C 13.488 13.398,13.193 11.535,12.841 9.280 C 12.490 7.025,12.195 5.140,12.187 5.090 L 12.171 5.000 13.500 5.000 L 14.829 5.000 14.813 5.090 " fill="#000640" stroke="none" fill-rule="evenodd"></path></svg>