<svg xmlns="http://www.w3.org/2000/svg" width="24" height="24" fill="currentColor" class="mmi mmi-roman-seven" viewBox="0 0 24 24"><path d="M4.664 3.063 C 4.436 3.146,4.257 3.297,4.131 3.511 C 4.036 3.672,4.020 3.744,4.020 4.000 C 4.020 4.256,4.036 4.328,4.131 4.489 C 4.377 4.908,4.624 5.000,5.496 5.000 L 6.142 5.000 7.219 11.890 C 7.811 15.680,8.303 18.829,8.312 18.890 L 8.329 19.000 6.590 19.000 C 4.707 19.000,4.659 19.005,4.374 19.222 C 4.301 19.277,4.192 19.408,4.131 19.511 C 4.036 19.672,4.020 19.744,4.020 20.000 C 4.020 20.256,4.036 20.328,4.131 20.489 C 4.192 20.592,4.301 20.723,4.374 20.778 C 4.684 21.015,4.106 21.000,12.998 21.000 C 22.144 21.000,21.376 21.026,21.701 20.701 C 22.092 20.310,22.092 19.690,21.701 19.299 C 21.454 19.052,21.259 19.000,20.573 19.000 L 20.000 19.000 20.000 12.000 L 20.000 5.000 20.573 5.000 C 21.259 5.000,21.454 4.948,21.701 4.701 C 22.092 4.310,22.092 3.690,21.701 3.299 C 21.376 2.973,22.147 3.000,12.983 3.003 C 6.003 3.005,4.797 3.014,4.664 3.063 M10.813 5.090 C 10.779 5.289,9.520 13.376,9.517 13.416 C 9.515 13.443,9.507 13.444,9.497 13.420 C 9.488 13.398,9.193 11.535,8.841 9.280 C 8.490 7.025,8.195 5.140,8.187 5.090 L 8.171 5.000 9.500 5.000 L 10.829 5.000 10.813 5.090 M14.000 12.000 L 14.000 19.000 12.335 19.000 L 10.671 19.000 10.687 18.890 C 10.697 18.829,11.189 15.680,11.781 11.890 L 12.859 5.000 13.429 5.000 L 14.000 5.000 14.000 12.000 M18.000 12.000 L 18.000 19.000 17.000 19.000 L 16.000 19.000 16.000 12.000 L 16.000 5.000 17.000 5.000 L 18.000 5.000 18.000 12.000 " fill="#000640" stroke="none" fill-rule="evenodd"></path></svg>