<svg xmlns="http://www.w3.org/2000/svg" width="24" height="24" fill="currentColor" class="mmi mmi-router" viewBox="0 0 24 24"><path d="M11.320 1.025 C 9.745 1.169,8.285 1.672,7.040 2.499 C 6.402 2.923,5.677 3.540,5.497 3.812 C 4.990 4.577,5.763 5.591,6.633 5.302 C 6.778 5.254,6.932 5.148,7.168 4.934 C 8.130 4.062,9.133 3.509,10.260 3.226 C 10.905 3.065,11.257 3.024,12.000 3.024 C 12.385 3.024,12.844 3.047,13.020 3.075 C 14.462 3.305,15.733 3.921,16.791 4.900 C 16.946 5.043,17.151 5.196,17.246 5.239 C 17.738 5.462,18.341 5.221,18.559 4.713 C 18.678 4.438,18.657 4.084,18.508 3.832 C 18.348 3.561,17.637 2.949,16.960 2.499 C 15.894 1.791,14.598 1.293,13.320 1.101 C 12.908 1.039,11.676 0.992,11.320 1.025 M11.340 5.046 C 10.369 5.170,9.318 5.668,8.600 6.345 C 8.410 6.525,8.302 6.663,8.253 6.793 C 8.002 7.450,8.467 8.161,9.149 8.160 C 9.459 8.159,9.608 8.095,9.943 7.815 C 10.340 7.483,10.505 7.378,10.851 7.235 C 11.408 7.006,12.014 6.944,12.576 7.060 C 13.136 7.176,13.550 7.390,14.085 7.839 C 14.390 8.095,14.544 8.159,14.851 8.160 C 15.368 8.160,15.809 7.723,15.816 7.203 C 15.820 6.857,15.717 6.645,15.400 6.345 C 14.339 5.345,12.816 4.858,11.340 5.046 M11.600 9.061 C 11.151 9.185,10.768 9.540,10.600 9.989 C 10.467 10.343,10.495 10.811,10.671 11.169 C 11.210 12.262,12.790 12.262,13.329 11.169 C 13.503 10.814,13.533 10.343,13.402 9.994 C 13.243 9.570,12.917 9.239,12.520 9.099 C 12.255 9.006,11.859 8.989,11.600 9.061 M3.503 13.042 C 2.554 13.203,1.717 13.847,1.298 14.740 C 1.013 15.348,1.020 15.261,1.020 18.000 C 1.020 20.739,1.013 20.652,1.298 21.260 C 1.606 21.918,2.079 22.391,2.740 22.704 C 3.409 23.021,2.760 23.000,12.000 23.000 C 21.240 23.000,20.591 23.021,21.260 22.704 C 21.920 22.391,22.391 21.920,22.704 21.260 C 22.991 20.654,23.000 20.552,23.000 18.000 C 23.000 15.448,22.991 15.346,22.704 14.740 C 22.398 14.095,21.924 13.614,21.296 13.312 C 20.634 12.993,21.532 13.022,12.120 13.015 C 7.489 13.012,3.611 13.024,3.503 13.042 M20.340 15.066 C 20.593 15.153,20.847 15.407,20.934 15.660 C 20.992 15.831,21.000 16.108,21.000 18.000 C 21.000 20.427,21.003 20.399,20.701 20.701 C 20.376 21.026,21.144 21.000,11.998 21.000 C 3.106 21.000,3.684 21.015,3.374 20.778 C 3.301 20.723,3.192 20.592,3.131 20.489 L 3.020 20.300 3.020 18.000 L 3.020 15.700 3.131 15.511 C 3.256 15.298,3.449 15.136,3.670 15.057 C 3.793 15.013,5.268 15.003,11.983 15.002 C 19.479 15.000,20.162 15.005,20.340 15.066 M5.643 17.069 C 5.291 17.193,5.000 17.614,5.000 18.000 C 5.000 18.527,5.473 19.000,6.000 19.000 C 6.242 19.000,6.521 18.881,6.701 18.701 C 7.454 17.948,6.653 16.712,5.643 17.069 M9.643 17.069 C 9.291 17.193,9.000 17.614,9.000 18.000 C 9.000 18.242,9.119 18.521,9.299 18.701 C 9.601 19.003,9.573 19.000,12.000 19.000 C 14.427 19.000,14.399 19.003,14.701 18.701 C 15.092 18.310,15.092 17.690,14.701 17.299 C 14.398 16.996,14.430 17.000,11.983 17.003 C 10.132 17.006,9.795 17.015,9.643 17.069 " fill="#000640" stroke="none" fill-rule="evenodd"></path></svg>