<svg xmlns="http://www.w3.org/2000/svg" width="24" height="24" fill="currentColor" class="mmi mmi-running" viewBox="0 0 24 24"><path d="M14.953 0.581 C 14.235 0.743,13.567 1.161,13.168 1.699 C 12.353 2.796,12.360 4.295,13.185 5.366 L 13.373 5.610 13.216 5.584 C 12.883 5.529,11.406 5.511,10.937 5.556 C 9.815 5.665,8.308 5.981,7.840 6.207 C 7.664 6.292,7.489 6.425,7.297 6.619 C 6.850 7.070,6.128 8.209,5.510 9.437 C 5.261 9.933,5.260 9.935,5.261 10.277 C 5.263 10.540,5.283 10.664,5.349 10.809 C 5.593 11.347,6.041 11.645,6.603 11.644 C 7.200 11.643,7.619 11.343,7.962 10.669 C 8.260 10.083,8.767 9.183,8.970 8.880 C 9.139 8.627,9.151 8.618,9.402 8.556 C 9.544 8.521,9.718 8.481,9.788 8.467 L 9.916 8.443 9.755 8.731 C 9.167 9.790,8.864 10.563,7.877 13.516 L 6.949 16.292 6.470 16.266 C 5.883 16.234,4.804 16.111,3.920 15.974 C 3.085 15.844,2.787 15.856,2.427 16.034 C 2.111 16.189,1.778 16.511,1.655 16.779 C 1.535 17.042,1.479 17.439,1.523 17.719 C 1.613 18.287,2.089 18.850,2.607 19.003 C 3.023 19.126,5.221 19.402,6.420 19.482 C 7.493 19.554,8.190 19.469,8.746 19.199 C 9.030 19.060,9.426 18.664,9.576 18.368 C 9.721 18.081,10.156 17.037,10.519 16.101 C 10.697 15.640,10.852 15.255,10.861 15.246 C 10.888 15.219,12.604 16.422,12.956 16.715 L 13.093 16.828 13.005 17.184 C 12.872 17.718,12.407 19.285,12.026 20.482 C 11.644 21.680,11.616 21.812,11.676 22.136 C 11.875 23.211,12.965 23.789,13.950 23.340 C 14.212 23.221,14.554 22.902,14.690 22.650 C 14.882 22.293,15.810 19.325,16.118 18.079 C 16.427 16.832,16.459 16.378,16.277 15.846 C 16.082 15.276,15.481 14.606,14.500 13.866 C 14.214 13.650,13.974 13.457,13.967 13.438 C 13.918 13.303,15.424 10.329,15.595 10.223 C 15.615 10.211,15.699 10.394,15.781 10.630 C 16.103 11.552,16.321 12.061,16.491 12.287 C 16.781 12.672,17.094 12.881,17.488 12.954 C 17.777 13.008,17.886 12.990,18.665 12.757 C 19.020 12.651,19.828 12.428,20.462 12.261 C 21.096 12.095,21.695 11.918,21.792 11.869 C 21.987 11.772,22.246 11.502,22.362 11.275 C 22.487 11.032,22.523 10.687,22.457 10.373 C 22.426 10.223,22.400 10.086,22.400 10.070 C 22.400 9.985,21.915 9.563,21.700 9.461 C 21.291 9.267,21.070 9.289,19.720 9.658 C 19.093 9.829,18.564 9.972,18.544 9.975 C 18.524 9.978,18.415 9.746,18.301 9.460 C 17.705 7.962,17.068 7.146,16.126 6.673 C 15.846 6.532,15.836 6.523,15.945 6.500 C 16.309 6.423,16.446 6.384,16.680 6.292 C 17.952 5.791,18.738 4.391,18.503 3.043 C 18.300 1.879,17.522 0.998,16.380 0.642 C 16.009 0.526,15.327 0.497,14.953 0.581 " stroke="none" fill-rule="evenodd"></path></svg>