<svg xmlns="http://www.w3.org/2000/svg" width="24" height="24" fill="currentColor" class="mmi mmi-running-filled" viewBox="0 0 24 24"><path d="M15.500 0.063 C 14.756 0.226,14.050 0.774,13.726 1.440 C 13.486 1.934,13.428 2.204,13.450 2.737 C 13.480 3.470,13.702 3.980,14.220 4.500 C 14.705 4.987,15.325 5.245,16.020 5.250 C 16.779 5.254,17.341 5.022,17.881 4.481 C 18.437 3.924,18.661 3.387,18.658 2.620 C 18.656 2.106,18.593 1.855,18.348 1.382 C 18.042 0.794,17.434 0.303,16.760 0.102 C 16.439 0.007,15.840 -0.012,15.500 0.063 M11.060 5.187 C 9.639 5.307,7.880 5.695,7.459 5.981 C 6.992 6.298,6.229 7.449,5.413 9.064 C 5.145 9.595,5.109 9.693,5.109 9.885 C 5.109 10.770,6.148 11.195,6.744 10.554 C 6.813 10.480,7.025 10.114,7.217 9.740 C 7.618 8.957,8.240 7.898,8.418 7.696 C 8.581 7.511,8.914 7.428,10.677 7.136 L 10.814 7.114 10.715 7.247 C 10.231 7.897,9.512 9.276,9.042 10.456 C 8.935 10.722,8.557 11.831,8.202 12.920 C 7.414 15.330,6.996 16.585,6.881 16.890 L 6.794 17.120 6.467 17.120 C 5.817 17.119,4.218 16.949,2.851 16.735 C 2.299 16.648,2.170 16.640,1.992 16.678 C 1.715 16.737,1.485 16.876,1.283 17.106 C 0.774 17.685,1.004 18.681,1.720 18.995 C 2.004 19.120,3.915 19.390,5.420 19.518 C 5.684 19.541,6.191 19.559,6.546 19.560 C 7.922 19.560,8.474 19.309,8.857 18.505 C 9.041 18.117,9.797 16.234,10.183 15.200 C 10.310 14.859,10.424 14.567,10.437 14.552 C 10.485 14.494,13.155 16.411,13.554 16.789 L 13.755 16.980 13.653 17.420 C 13.510 18.040,12.950 19.981,12.538 21.280 C 12.347 21.885,12.173 22.452,12.152 22.540 C 12.022 23.081,12.415 23.759,12.965 23.942 C 13.500 24.119,14.176 23.839,14.434 23.332 C 14.513 23.175,15.137 21.249,15.457 20.168 C 15.865 18.793,16.157 17.588,16.220 17.016 C 16.318 16.121,15.768 15.354,14.180 14.174 C 13.872 13.945,13.570 13.718,13.510 13.669 L 13.400 13.580 13.688 12.920 C 14.088 12.005,14.855 10.475,15.202 9.900 C 15.444 9.500,15.837 8.923,15.962 8.785 C 16.047 8.692,16.406 9.466,16.766 10.520 C 17.061 11.385,17.232 11.738,17.473 11.983 C 17.874 12.391,18.135 12.414,19.080 12.128 C 19.443 12.018,20.253 11.790,20.880 11.621 C 22.475 11.193,22.421 11.211,22.617 11.021 C 22.793 10.849,22.920 10.568,22.920 10.348 C 22.920 9.865,22.449 9.400,21.960 9.400 C 21.839 9.400,20.622 9.719,19.345 10.085 C 19.040 10.173,18.767 10.236,18.739 10.225 C 18.711 10.214,18.675 10.146,18.659 10.073 C 18.603 9.816,18.234 8.855,18.021 8.411 C 17.569 7.468,16.965 6.775,16.294 6.430 C 16.099 6.330,15.517 6.068,15.000 5.849 C 13.992 5.420,13.497 5.272,12.832 5.201 C 12.474 5.163,11.440 5.155,11.060 5.187 " stroke="none" fill-rule="evenodd"></path></svg>