<svg xmlns="http://www.w3.org/2000/svg" width="24" height="24" fill="currentColor" class="mmi mmi-rupiah" viewBox="0 0 24 24"><path d="M3.664 3.063 C 3.436 3.146,3.257 3.297,3.131 3.511 L 3.020 3.700 3.010 9.914 C 3.002 14.121,3.012 16.178,3.041 16.282 C 3.101 16.506,3.312 16.761,3.531 16.874 C 3.932 17.080,4.390 17.012,4.700 16.702 C 5.008 16.394,5.000 16.478,5.000 13.572 L 5.000 10.999 5.967 11.009 L 6.935 11.020 8.567 13.820 C 9.699 15.762,10.243 16.659,10.343 16.748 C 10.734 17.093,11.330 17.072,11.701 16.701 C 11.967 16.435,12.068 16.015,11.945 15.680 C 11.917 15.603,11.289 14.504,10.550 13.237 C 9.810 11.971,9.199 10.912,9.192 10.885 C 9.185 10.856,9.314 10.781,9.505 10.703 C 11.064 10.067,12.096 8.436,11.987 6.780 C 11.877 5.114,10.758 3.683,9.178 3.187 C 8.629 3.015,8.368 3.000,6.027 3.003 C 4.216 3.005,3.792 3.016,3.664 3.063 M8.383 5.043 C 9.185 5.190,9.839 5.872,9.967 6.695 C 10.128 7.734,9.433 8.742,8.408 8.956 C 8.274 8.984,7.610 9.000,6.598 9.000 L 5.000 9.000 5.000 7.000 L 5.000 5.000 6.573 5.000 C 7.529 5.000,8.238 5.017,8.383 5.043 M13.664 9.061 C 13.434 9.148,13.256 9.298,13.131 9.511 L 13.020 9.700 13.009 14.914 C 13.002 18.436,13.012 20.177,13.041 20.282 C 13.101 20.506,13.312 20.761,13.531 20.874 C 13.932 21.080,14.390 21.012,14.700 20.702 C 14.994 20.408,15.000 20.363,15.000 18.573 L 15.000 17.000 16.184 17.000 C 17.503 17.000,17.882 16.953,18.480 16.715 C 19.642 16.253,20.539 15.237,20.869 14.012 C 20.962 13.668,20.975 13.544,20.975 13.000 C 20.975 12.458,20.962 12.331,20.871 11.995 C 20.550 10.806,19.799 9.914,18.663 9.376 C 17.943 9.035,17.881 9.028,15.720 9.014 C 14.126 9.005,13.795 9.012,13.664 9.061 M17.383 11.043 C 18.185 11.190,18.839 11.872,18.967 12.695 C 19.128 13.734,18.433 14.742,17.408 14.956 C 17.283 14.982,16.745 15.000,16.098 15.000 L 15.000 15.000 15.000 13.000 L 15.000 11.000 16.073 11.000 C 16.670 11.000,17.250 11.019,17.383 11.043 " fill="#000640" stroke="none" fill-rule="evenodd"></path></svg>