<svg xmlns="http://www.w3.org/2000/svg" width="24" height="24" fill="currentColor" class="mmi mmi-sad" viewBox="0 0 24 24"><path d="M11.200 0.025 C 7.091 0.332,3.508 2.609,1.507 6.186 C 0.775 7.494,0.317 8.899,0.094 10.520 C -0.002 11.214,-0.002 12.786,0.094 13.480 C 0.317 15.101,0.775 16.506,1.507 17.814 C 4.173 22.579,9.604 24.939,14.910 23.637 C 19.156 22.595,22.595 19.156,23.637 14.910 C 24.599 10.992,23.592 6.970,20.896 3.958 C 19.003 1.843,16.397 0.483,13.500 0.099 C 13.032 0.037,11.640 -0.007,11.200 0.025 M12.920 2.043 C 14.827 2.219,16.631 2.940,18.200 4.155 C 18.637 4.493,19.507 5.363,19.845 5.800 C 21.878 8.427,22.517 11.768,21.578 14.865 C 21.082 16.499,20.272 17.850,19.061 19.061 C 18.287 19.836,17.547 20.383,16.623 20.863 C 13.714 22.376,10.286 22.376,7.377 20.863 C 6.454 20.383,5.715 19.837,4.938 19.061 C 3.951 18.075,3.213 16.964,2.722 15.728 C 1.390 12.368,1.921 8.686,4.153 5.800 C 4.491 5.363,5.363 4.491,5.800 4.153 C 7.114 3.137,8.541 2.486,10.125 2.181 C 11.037 2.006,12.003 1.958,12.920 2.043 M7.150 8.041 C 6.727 8.148,6.324 8.489,6.133 8.900 C 6.037 9.107,6.021 9.190,6.022 9.500 C 6.022 9.809,6.038 9.895,6.134 10.104 C 6.275 10.413,6.584 10.721,6.900 10.867 C 7.107 10.963,7.190 10.979,7.500 10.978 C 7.809 10.978,7.895 10.962,8.104 10.866 C 8.413 10.725,8.721 10.416,8.867 10.100 C 8.963 9.893,8.979 9.810,8.978 9.500 C 8.978 9.191,8.962 9.105,8.866 8.896 C 8.725 8.589,8.415 8.278,8.110 8.139 C 7.852 8.022,7.407 7.976,7.150 8.041 M16.150 8.041 C 15.727 8.148,15.324 8.489,15.133 8.900 C 15.037 9.107,15.021 9.190,15.022 9.500 C 15.022 9.809,15.038 9.895,15.134 10.104 C 15.275 10.413,15.584 10.721,15.900 10.867 C 16.107 10.963,16.190 10.979,16.500 10.978 C 16.809 10.978,16.895 10.962,17.104 10.866 C 17.413 10.725,17.721 10.416,17.867 10.100 C 17.963 9.893,17.979 9.810,17.978 9.500 C 17.978 9.191,17.962 9.105,17.866 8.896 C 17.725 8.589,17.415 8.278,17.110 8.139 C 16.852 8.022,16.407 7.976,16.150 8.041 M11.345 14.043 C 9.650 14.278,8.189 15.335,7.390 16.906 C 7.081 17.513,6.983 17.824,7.012 18.102 C 7.097 18.932,8.110 19.294,8.698 18.704 C 8.812 18.589,8.900 18.439,8.992 18.200 C 9.177 17.724,9.390 17.382,9.721 17.027 C 11.383 15.247,14.120 15.873,15.025 18.240 C 15.263 18.862,15.768 19.129,16.340 18.934 C 16.711 18.807,17.000 18.396,17.000 17.994 C 17.000 17.784,16.913 17.539,16.641 16.978 C 15.914 15.482,14.577 14.430,12.980 14.100 C 12.595 14.020,11.725 13.990,11.345 14.043 " stroke="none" fill-rule="evenodd"></path></svg>