<svg xmlns="http://www.w3.org/2000/svg" width="24" height="24" fill="currentColor" class="mmi mmi-sandtimer" viewBox="0 0 24 24"><path d="M4.664 1.063 C 4.436 1.146,4.257 1.297,4.131 1.511 C 4.020 1.699,4.020 1.702,4.024 2.420 C 4.037 5.176,4.993 8.067,6.554 10.080 C 6.937 10.574,7.677 11.301,8.160 11.659 C 8.391 11.831,8.580 11.983,8.580 11.999 C 8.580 12.015,8.391 12.169,8.160 12.341 C 7.671 12.707,6.931 13.434,6.554 13.920 C 5.334 15.493,4.486 17.576,4.160 19.800 C 4.058 20.499,3.987 21.480,4.006 21.927 C 4.021 22.248,4.039 22.332,4.132 22.491 C 4.193 22.593,4.301 22.723,4.374 22.778 C 4.683 23.014,4.201 23.000,11.998 23.000 C 20.023 23.000,19.377 23.025,19.701 22.701 C 20.003 22.399,20.050 22.064,19.958 20.878 C 19.749 18.190,18.870 15.756,17.446 13.920 C 17.069 13.434,16.329 12.707,15.840 12.341 C 15.609 12.169,15.420 12.015,15.420 11.999 C 15.420 11.983,15.600 11.836,15.820 11.672 C 18.151 9.929,19.674 6.783,19.958 3.122 C 20.050 1.936,20.003 1.601,19.701 1.299 C 19.377 0.975,20.026 1.000,11.983 1.003 C 5.871 1.005,4.797 1.014,4.664 1.063 M17.941 3.230 C 17.766 4.831,17.427 6.063,16.819 7.300 C 15.888 9.196,14.554 10.444,13.008 10.868 C 12.666 10.961,12.547 10.974,12.000 10.974 C 11.453 10.974,11.334 10.961,10.992 10.868 C 9.512 10.462,8.209 9.286,7.286 7.520 C 6.621 6.249,6.244 4.929,6.059 3.230 L 6.034 3.000 12.000 3.000 L 17.966 3.000 17.941 3.230 M12.620 13.059 C 13.986 13.281,15.250 14.193,16.237 15.669 C 17.158 17.045,17.719 18.725,17.941 20.770 L 17.966 21.000 12.000 21.000 L 6.034 21.000 6.059 20.770 C 6.121 20.205,6.212 19.625,6.306 19.200 C 6.839 16.798,8.045 14.813,9.601 13.777 C 10.570 13.132,11.586 12.891,12.620 13.059 " fill="#000640" stroke="none" fill-rule="evenodd"></path></svg>