<svg xmlns="http://www.w3.org/2000/svg" width="24" height="24" fill="currentColor" class="mmi mmi-santahat" viewBox="0 0 24 24"><path d="M18.446 1.060 C 17.658 1.203,16.931 1.694,16.475 2.392 C 16.370 2.553,16.273 2.720,16.259 2.764 C 16.234 2.841,16.213 2.843,15.747 2.812 C 14.952 2.760,13.679 2.781,13.080 2.857 C 10.571 3.176,8.516 4.126,6.849 5.737 C 4.920 7.601,3.641 10.032,3.124 12.820 C 2.974 13.625,2.910 14.318,2.898 15.275 L 2.885 16.210 2.668 16.320 C 1.823 16.746,1.252 17.490,1.063 18.408 C 0.976 18.832,0.975 20.164,1.062 20.581 C 1.310 21.785,2.215 22.690,3.419 22.938 C 3.681 22.993,4.700 23.000,12.000 23.000 C 19.300 23.000,20.319 22.993,20.581 22.938 C 21.780 22.691,22.691 21.780,22.938 20.581 C 23.025 20.164,23.024 18.831,22.937 18.411 C 22.730 17.411,22.049 16.602,21.075 16.202 C 20.866 16.116,20.844 16.094,20.758 15.885 C 20.410 15.042,19.647 14.174,17.960 12.698 C 16.128 11.096,15.454 10.357,15.130 9.593 C 15.034 9.367,15.022 9.292,15.025 8.900 C 15.029 8.411,15.095 8.077,15.282 7.605 C 15.499 7.059,15.912 6.414,16.367 5.909 L 16.540 5.717 16.700 5.917 C 17.051 6.355,17.659 6.746,18.240 6.906 C 18.612 7.008,19.407 7.006,19.760 6.902 C 20.698 6.626,21.424 5.992,21.768 5.148 C 22.488 3.378,21.398 1.385,19.531 1.060 C 19.124 0.989,18.842 0.989,18.446 1.060 M19.497 3.136 C 20.157 3.523,20.159 4.476,19.501 4.862 C 19.030 5.138,18.415 4.971,18.133 4.492 C 18.036 4.327,18.020 4.257,18.020 4.000 C 18.020 3.744,18.036 3.672,18.131 3.511 C 18.255 3.300,18.446 3.138,18.670 3.055 C 18.897 2.970,19.277 3.007,19.497 3.136 M14.660 4.800 C 14.646 4.822,14.523 4.989,14.386 5.170 C 13.530 6.306,13.068 7.518,13.011 8.781 C 12.966 9.779,13.292 10.672,14.067 11.674 C 14.446 12.163,15.518 13.224,16.480 14.061 C 16.931 14.453,17.570 15.045,17.900 15.377 L 18.500 15.980 11.723 15.990 C 7.996 15.996,4.936 15.990,4.923 15.977 C 4.911 15.964,4.903 15.630,4.907 15.235 C 4.937 12.226,6.062 9.389,8.025 7.377 C 9.485 5.879,11.421 4.998,13.680 4.804 C 14.249 4.755,14.689 4.753,14.660 4.800 M20.340 18.066 C 20.593 18.153,20.847 18.407,20.934 18.660 C 20.985 18.809,21.000 19.004,21.000 19.500 C 21.000 20.266,20.955 20.447,20.701 20.701 C 20.376 21.026,21.144 21.000,12.000 21.000 C 2.856 21.000,3.624 21.026,3.299 20.701 C 3.045 20.447,3.000 20.266,3.000 19.500 C 3.000 18.734,3.045 18.553,3.300 18.298 C 3.617 17.981,2.858 18.007,11.983 18.003 C 19.481 18.000,20.162 18.005,20.340 18.066 " fill="#000640" stroke="none" fill-rule="evenodd"></path></svg>