<svg xmlns="http://www.w3.org/2000/svg" width="24" height="24" fill="currentColor" class="mmi mmi-saxophone" viewBox="0 0 24 24"><path d="M1.664 1.063 C 1.436 1.146,1.257 1.297,1.131 1.511 L 1.020 1.700 1.008 3.410 C 1.001 4.533,1.011 5.174,1.039 5.278 C 1.102 5.509,1.312 5.761,1.539 5.878 L 1.738 5.980 3.500 6.000 L 5.262 6.020 5.461 6.122 C 5.684 6.237,5.896 6.488,5.958 6.711 C 5.982 6.796,6.000 7.313,6.000 7.921 L 6.000 8.981 5.790 9.031 C 5.514 9.096,5.290 9.257,5.141 9.498 C 5.034 9.671,5.020 9.729,5.020 10.000 C 5.020 10.271,5.034 10.329,5.141 10.502 C 5.290 10.743,5.514 10.904,5.790 10.969 L 6.000 11.019 6.000 12.000 L 6.000 12.981 5.790 13.031 C 5.514 13.096,5.290 13.257,5.141 13.498 C 5.034 13.671,5.020 13.729,5.020 14.000 C 5.020 14.271,5.034 14.329,5.141 14.502 C 5.290 14.743,5.514 14.904,5.790 14.969 L 6.000 15.019 6.000 16.000 L 6.000 16.981 5.790 17.031 C 5.514 17.096,5.290 17.257,5.141 17.498 C 5.034 17.671,5.020 17.729,5.020 17.997 C 5.020 18.256,5.036 18.327,5.131 18.489 C 5.308 18.790,5.656 19.000,5.979 19.000 C 6.105 19.000,6.110 19.007,6.180 19.270 C 6.601 20.852,7.823 22.085,9.517 22.639 C 10.493 22.958,11.814 23.080,12.780 22.941 C 14.880 22.638,17.086 21.210,19.395 18.658 C 19.695 18.327,20.121 17.832,20.343 17.558 C 20.803 16.990,22.806 14.124,22.922 13.869 C 23.080 13.521,22.974 13.052,22.675 12.775 C 22.601 12.706,21.172 11.626,19.500 10.374 C 17.424 8.819,16.408 8.082,16.295 8.049 C 15.987 7.957,15.663 8.013,15.397 8.202 C 15.332 8.249,14.545 9.313,13.649 10.567 L 12.020 12.848 11.998 9.494 C 11.975 5.947,11.978 6.004,11.782 5.247 C 11.241 3.160,9.635 1.624,7.518 1.166 C 6.849 1.022,6.387 1.000,4.066 1.003 C 2.221 1.005,1.792 1.016,1.664 1.063 M4.000 3.500 L 4.000 4.000 3.500 4.000 L 3.000 4.000 3.000 3.500 L 3.000 3.000 3.500 3.000 L 4.000 3.000 4.000 3.500 M6.620 3.044 C 7.547 3.158,8.260 3.475,8.855 4.038 C 9.465 4.615,9.836 5.406,9.956 6.380 C 9.986 6.624,10.000 8.261,10.000 11.440 C 10.000 14.554,10.014 16.190,10.042 16.289 C 10.177 16.775,10.789 17.111,11.265 16.960 C 11.612 16.851,11.677 16.776,12.959 14.981 L 14.204 13.239 14.572 13.532 C 14.774 13.694,15.696 14.425,16.620 15.158 C 17.544 15.890,18.342 16.531,18.394 16.580 L 18.488 16.670 18.069 17.145 C 17.500 17.790,16.436 18.824,15.900 19.253 C 14.490 20.381,13.306 20.929,12.154 20.988 C 11.231 21.035,10.318 20.864,9.600 20.511 C 9.240 20.334,9.131 20.255,8.839 19.962 C 8.602 19.725,8.452 19.532,8.349 19.334 C 8.267 19.177,8.200 19.031,8.200 19.010 C 8.200 18.990,8.274 18.951,8.364 18.924 C 8.698 18.823,9.000 18.385,9.000 18.000 C 9.000 17.604,8.709 17.192,8.340 17.066 C 8.233 17.030,8.113 17.000,8.073 17.000 C 8.004 17.000,8.000 16.941,8.000 16.000 C 8.000 15.059,8.004 15.000,8.073 15.000 C 8.246 15.000,8.544 14.858,8.701 14.701 C 9.092 14.310,9.092 13.690,8.701 13.299 C 8.544 13.142,8.246 13.000,8.073 13.000 C 8.004 13.000,8.000 12.941,8.000 12.000 C 8.000 11.059,8.004 11.000,8.073 11.000 C 8.246 11.000,8.544 10.858,8.701 10.701 C 9.092 10.310,9.092 9.690,8.701 9.299 C 8.544 9.142,8.246 9.000,8.073 9.000 C 8.004 9.000,8.000 8.936,8.000 7.858 C 8.000 6.606,7.967 6.323,7.764 5.837 C 7.478 5.155,6.879 4.550,6.190 4.248 L 6.000 4.164 6.000 3.582 L 6.000 3.000 6.130 3.000 C 6.202 3.000,6.422 3.020,6.620 3.044 M18.426 12.070 C 19.622 12.966,20.600 13.714,20.600 13.731 C 20.600 13.760,19.793 14.937,19.721 15.013 C 19.687 15.049,15.400 11.660,15.400 11.598 C 15.400 11.552,16.196 10.440,16.229 10.440 C 16.242 10.440,17.231 11.173,18.426 12.070 " fill="#000640" stroke="none" fill-rule="evenodd"></path></svg>