<svg xmlns="http://www.w3.org/2000/svg" width="24" height="24" fill="currentColor" class="mmi mmi-scenery" viewBox="0 0 24 24"><path d="M3.503 1.042 C 2.488 1.214,1.556 1.976,1.202 2.925 C 0.992 3.487,1.001 3.068,1.001 11.992 C 1.000 21.076,0.986 20.543,1.234 21.151 C 1.521 21.857,2.143 22.479,2.849 22.766 C 3.457 23.014,2.925 23.000,12.000 23.000 C 21.073 23.000,20.544 23.013,21.150 22.767 C 21.850 22.482,22.482 21.850,22.767 21.150 C 23.013 20.544,23.000 21.073,23.000 12.000 C 23.000 2.925,23.014 3.457,22.766 2.849 C 22.499 2.193,21.964 1.633,21.296 1.312 C 20.634 0.993,21.532 1.022,12.120 1.015 C 7.489 1.012,3.611 1.024,3.503 1.042 M20.340 3.066 C 20.455 3.105,20.603 3.201,20.701 3.299 C 21.022 3.620,21.000 3.191,21.000 9.216 L 21.000 14.578 18.770 12.354 C 16.753 10.343,16.521 10.124,16.343 10.065 C 16.094 9.983,15.907 9.983,15.657 10.065 C 15.478 10.124,15.212 10.377,12.730 12.854 L 10.000 15.578 8.270 13.854 C 6.719 12.309,6.520 12.124,6.343 12.065 C 6.093 11.983,5.906 11.983,5.657 12.066 C 5.483 12.123,5.315 12.276,4.230 13.354 L 3.000 14.577 3.000 9.216 C 3.000 3.190,2.978 3.620,3.300 3.298 C 3.617 2.981,2.858 3.007,11.983 3.003 C 19.481 3.000,20.162 3.005,20.340 3.066 M18.510 14.930 L 21.000 17.420 21.000 18.783 C 21.000 20.339,20.988 20.414,20.701 20.701 C 20.376 21.026,21.144 21.000,12.000 21.000 C 2.856 21.000,3.624 21.026,3.299 20.701 C 3.012 20.414,3.000 20.339,3.000 18.783 L 3.000 17.420 4.500 15.920 L 5.999 14.421 7.730 16.146 C 9.345 17.755,9.474 17.875,9.674 17.940 C 9.935 18.024,10.200 18.006,10.444 17.887 C 10.570 17.826,11.385 17.036,13.300 15.121 C 14.774 13.646,15.989 12.440,16.000 12.440 C 16.011 12.440,17.140 13.560,18.510 14.930 " fill="#000640" stroke="none" fill-rule="evenodd"></path></svg>