<svg xmlns="http://www.w3.org/2000/svg" width="24" height="24" fill="currentColor" class="mmi mmi-scenery-v2" viewBox="0 0 24 24"><path d="M3.503 1.042 C 2.818 1.158,2.117 1.573,1.670 2.127 C 1.445 2.407,1.159 2.980,1.074 3.320 C 0.993 3.647,0.993 20.353,1.074 20.680 C 1.159 21.020,1.445 21.593,1.670 21.873 C 1.950 22.220,2.312 22.501,2.740 22.704 C 3.409 23.021,2.760 23.000,12.000 23.000 C 21.240 23.000,20.591 23.021,21.260 22.704 C 21.920 22.391,22.391 21.920,22.704 21.260 C 23.021 20.591,23.000 21.240,23.000 12.000 C 23.000 2.760,23.021 3.409,22.704 2.740 C 22.398 2.095,21.924 1.614,21.296 1.312 C 20.634 0.993,21.532 1.022,12.120 1.015 C 7.489 1.012,3.611 1.024,3.503 1.042 M20.340 3.066 C 20.455 3.105,20.603 3.201,20.701 3.299 C 21.022 3.620,21.000 3.191,21.000 9.216 L 21.000 14.578 18.770 12.354 C 16.753 10.343,16.521 10.124,16.343 10.065 C 16.094 9.983,15.907 9.983,15.657 10.065 C 15.478 10.124,15.212 10.377,12.730 12.854 L 10.000 15.578 8.270 13.854 C 6.719 12.309,6.520 12.124,6.343 12.065 C 6.093 11.983,5.906 11.983,5.657 12.066 C 5.483 12.123,5.315 12.276,4.229 13.355 L 2.999 14.578 3.009 9.139 L 3.020 3.700 3.131 3.511 C 3.256 3.298,3.449 3.136,3.670 3.057 C 3.793 3.013,5.268 3.003,11.983 3.002 C 19.479 3.000,20.162 3.005,20.340 3.066 M8.150 7.041 C 7.722 7.149,7.343 7.465,7.144 7.880 C 7.034 8.111,7.020 8.180,7.020 8.500 C 7.020 8.811,7.035 8.894,7.133 9.104 C 7.276 9.413,7.585 9.721,7.900 9.868 C 8.107 9.965,8.190 9.980,8.500 9.980 C 8.811 9.980,8.894 9.965,9.104 9.867 C 9.413 9.724,9.721 9.415,9.868 9.100 C 9.965 8.893,9.980 8.810,9.980 8.500 C 9.980 8.189,9.965 8.106,9.867 7.896 C 9.725 7.589,9.414 7.278,9.110 7.139 C 8.852 7.022,8.407 6.976,8.150 7.041 M18.510 14.930 L 21.000 17.420 21.000 18.783 C 21.000 20.339,20.988 20.414,20.701 20.701 C 20.376 21.026,21.144 21.000,11.998 21.000 C 3.106 21.000,3.684 21.015,3.374 20.778 C 3.301 20.723,3.192 20.592,3.131 20.489 L 3.020 20.300 3.009 18.860 L 2.997 17.420 4.498 15.921 L 5.999 14.421 7.730 16.146 C 9.347 17.758,9.474 17.875,9.675 17.940 C 9.931 18.023,10.208 18.002,10.455 17.882 C 10.567 17.828,11.487 16.935,13.300 15.121 C 14.774 13.646,15.989 12.440,16.000 12.440 C 16.011 12.440,17.140 13.560,18.510 14.930 " fill="#000640" stroke="none" fill-rule="evenodd"></path></svg>