<svg xmlns="http://www.w3.org/2000/svg" width="24" height="24" fill="currentColor" class="mmi mmi-screen-expand" viewBox="0 0 24 24"><path d="M2.620 3.025 C 2.576 3.034,2.442 3.061,2.322 3.085 C 1.189 3.315,0.223 4.355,0.041 5.541 C 0.011 5.734,0.001 7.790,0.010 12.180 C 0.023 19.282,-0.004 18.640,0.312 19.296 C 0.614 19.924,1.095 20.398,1.740 20.704 C 2.412 21.022,1.643 21.000,12.000 21.000 C 22.357 21.000,21.588 21.022,22.260 20.704 C 22.920 20.391,23.391 19.920,23.704 19.260 C 24.017 18.599,24.000 19.007,24.000 12.000 C 24.000 4.993,24.017 5.401,23.704 4.740 C 23.398 4.095,22.924 3.614,22.296 3.312 C 21.632 2.992,22.653 3.022,12.120 3.015 C 6.939 3.012,2.664 3.016,2.620 3.025 M21.340 5.066 C 21.455 5.105,21.603 5.201,21.701 5.299 C 22.023 5.621,22.000 5.097,22.000 12.000 C 22.000 18.903,22.023 18.379,21.701 18.701 C 21.375 19.027,22.265 19.000,11.998 19.000 C 3.916 19.000,2.830 18.993,2.678 18.939 C 2.437 18.854,2.260 18.709,2.131 18.489 L 2.020 18.300 2.020 12.000 L 2.020 5.700 2.131 5.511 C 2.256 5.298,2.449 5.136,2.670 5.057 C 2.794 5.013,4.433 5.003,11.983 5.002 C 20.410 5.000,21.161 5.005,21.340 5.066 M3.664 6.063 C 3.436 6.146,3.257 6.297,3.131 6.511 L 3.020 6.700 3.009 8.911 C 3.001 10.377,3.012 11.175,3.040 11.279 C 3.101 11.506,3.311 11.760,3.531 11.874 C 3.932 12.080,4.390 12.012,4.700 11.702 C 4.994 11.408,5.000 11.363,5.000 9.573 L 5.000 8.000 6.573 8.000 C 8.362 8.000,8.409 7.994,8.701 7.701 C 9.092 7.310,9.092 6.690,8.701 6.299 C 8.398 5.996,8.430 6.000,5.983 6.003 C 4.210 6.005,3.792 6.016,3.664 6.063 M19.664 12.063 C 19.436 12.146,19.257 12.297,19.131 12.511 L 19.020 12.700 19.008 14.350 L 18.997 16.000 17.423 16.000 C 15.721 16.000,15.656 16.007,15.374 16.222 C 15.301 16.277,15.192 16.408,15.131 16.511 C 15.036 16.672,15.020 16.744,15.020 17.000 C 15.020 17.256,15.036 17.328,15.131 17.489 C 15.192 17.592,15.301 17.723,15.374 17.778 C 15.664 18.000,15.670 18.000,17.998 18.000 C 20.428 18.000,20.399 18.003,20.701 17.701 C 21.003 17.399,21.000 17.427,21.000 15.000 C 21.000 12.573,21.003 12.601,20.701 12.299 C 20.429 12.027,20.018 11.933,19.664 12.063 " fill="#000640" stroke="none" fill-rule="evenodd"></path></svg>