<svg xmlns="http://www.w3.org/2000/svg" width="24" height="24" fill="currentColor" class="mmi mmi-scrollerblock" viewBox="0 0 24 24"><path d="M4.503 2.041 C 3.482 2.218,2.556 2.976,2.202 3.925 C 2.014 4.427,2.001 4.594,2.001 6.492 C 2.000 8.446,2.014 8.612,2.234 9.151 C 2.521 9.857,3.143 10.479,3.849 10.766 C 4.387 10.985,4.555 11.000,6.500 11.000 C 8.444 11.000,8.614 10.985,9.150 10.767 C 10.052 10.400,10.735 9.564,10.938 8.581 C 11.029 8.145,11.029 4.855,10.938 4.419 C 10.745 3.480,10.156 2.725,9.296 2.312 C 8.688 2.019,8.755 2.027,6.620 2.016 C 5.564 2.011,4.611 2.022,4.503 2.041 M17.640 2.068 C 17.488 2.121,17.209 2.380,15.829 3.755 C 14.066 5.511,14.000 5.591,14.000 5.978 C 14.001 6.309,14.068 6.473,14.297 6.703 C 14.527 6.932,14.692 7.000,15.020 6.999 C 15.369 6.998,15.521 6.894,16.290 6.129 L 17.000 5.423 17.000 12.000 L 17.000 18.577 16.310 17.893 C 15.536 17.126,15.394 17.031,15.019 17.028 C 14.451 17.022,14.026 17.449,14.029 18.025 C 14.031 18.441,14.084 18.507,15.853 20.269 C 17.289 21.699,17.481 21.876,17.657 21.935 C 17.904 22.017,18.048 22.017,18.323 21.936 C 18.530 21.876,18.613 21.800,20.147 20.271 C 21.259 19.162,21.787 18.608,21.862 18.470 C 21.988 18.237,22.009 17.874,21.910 17.637 C 21.693 17.118,21.052 16.873,20.558 17.119 C 20.449 17.173,20.114 17.471,19.690 17.893 L 19.000 18.579 19.000 12.002 L 19.000 5.425 19.730 6.146 C 20.348 6.757,20.490 6.878,20.657 6.934 C 20.903 7.016,21.048 7.017,21.316 6.937 C 21.733 6.814,22.033 6.361,21.991 5.922 C 21.955 5.546,21.882 5.459,20.171 3.755 C 18.712 2.302,18.519 2.124,18.343 2.065 C 18.102 1.986,17.878 1.986,17.640 2.068 M8.340 4.066 C 8.593 4.153,8.847 4.407,8.934 4.660 C 8.991 4.828,9.000 5.073,9.000 6.500 C 9.000 8.371,8.995 8.407,8.701 8.701 C 8.407 8.995,8.371 9.000,6.500 9.000 C 4.629 9.000,4.593 8.995,4.299 8.701 C 4.005 8.407,4.000 8.371,4.000 6.500 C 4.000 4.629,4.005 4.593,4.300 4.298 C 4.589 4.009,4.606 4.007,6.483 4.003 C 7.931 4.000,8.171 4.009,8.340 4.066 M4.503 13.041 C 3.548 13.207,2.717 13.847,2.298 14.740 C 2.017 15.338,2.020 15.312,2.020 17.500 C 2.020 19.688,2.017 19.662,2.298 20.260 C 2.606 20.918,3.079 21.391,3.740 21.704 C 4.326 21.981,4.501 22.000,6.500 22.000 C 8.499 22.000,8.674 21.981,9.260 21.704 C 9.920 21.391,10.391 20.920,10.704 20.260 C 10.981 19.674,11.000 19.499,11.000 17.500 C 11.000 15.501,10.981 15.326,10.704 14.740 C 10.398 14.095,9.924 13.614,9.296 13.312 C 8.688 13.019,8.755 13.027,6.620 13.016 C 5.564 13.011,4.611 13.022,4.503 13.041 M8.340 15.066 C 8.593 15.153,8.847 15.407,8.934 15.660 C 8.991 15.828,9.000 16.073,9.000 17.500 C 9.000 19.371,8.995 19.407,8.701 19.701 C 8.407 19.995,8.371 20.000,6.498 20.000 C 4.715 20.000,4.657 19.994,4.374 19.778 C 4.301 19.723,4.192 19.592,4.131 19.489 L 4.020 19.300 4.020 17.500 L 4.020 15.700 4.131 15.511 C 4.192 15.408,4.304 15.275,4.381 15.217 C 4.655 15.008,4.694 15.004,6.483 15.002 C 7.929 15.000,8.171 15.009,8.340 15.066 " fill="#000640" stroke="none" fill-rule="evenodd"></path></svg>