<svg xmlns="http://www.w3.org/2000/svg" width="24" height="24" fill="currentColor" class="mmi mmi-search-filled-v2" viewBox="0 0 24 24"><path d="M10.120 1.039 C 7.641 1.287,5.414 2.362,3.761 4.107 C 0.806 7.228,0.158 11.819,2.137 15.623 C 2.620 16.552,3.164 17.288,3.938 18.061 C 4.715 18.837,5.454 19.383,6.377 19.863 C 9.786 21.636,13.858 21.315,16.955 19.029 L 17.331 18.752 19.395 20.813 C 21.382 22.795,21.468 22.875,21.677 22.936 C 21.948 23.016,22.013 23.016,22.283 22.936 C 22.581 22.847,22.847 22.581,22.936 22.283 C 23.016 22.013,23.016 21.948,22.936 21.677 C 22.875 21.468,22.795 21.382,20.813 19.395 L 18.752 17.331 19.029 16.955 C 21.315 13.858,21.636 9.786,19.863 6.377 C 18.554 3.861,16.162 1.974,13.430 1.303 C 12.446 1.062,11.028 0.948,10.120 1.039 M11.740 3.041 C 14.525 3.302,16.953 4.983,18.182 7.500 C 19.655 10.514,19.091 14.104,16.765 16.530 C 15.248 18.111,13.175 18.999,11.000 18.999 C 7.235 18.999,3.948 16.331,3.177 12.648 C 2.426 9.057,4.201 5.431,7.501 3.817 C 8.822 3.170,10.277 2.904,11.740 3.041 M10.200 5.058 C 8.140 5.356,6.476 6.579,5.577 8.455 C 5.182 9.279,5.024 10.009,5.024 11.000 C 5.024 11.991,5.182 12.721,5.577 13.545 C 6.439 15.344,8.016 16.549,9.980 16.909 C 10.468 16.999,11.532 16.999,12.020 16.909 C 13.662 16.608,15.079 15.685,15.986 14.325 C 16.661 13.312,16.975 12.257,16.975 11.000 C 16.975 10.006,16.817 9.279,16.423 8.455 C 15.564 6.663,13.967 5.439,12.041 5.097 C 11.552 5.010,10.660 4.991,10.200 5.058 " fill="#000640" stroke="none" fill-rule="evenodd"></path></svg>