<svg xmlns="http://www.w3.org/2000/svg" width="24" height="24" fill="currentColor" class="mmi mmi-search-filled" viewBox="0 0 24 24"><path d="M10.120 1.039 C 7.641 1.287,5.414 2.362,3.761 4.107 C 0.806 7.228,0.158 11.819,2.137 15.623 C 2.620 16.552,3.164 17.288,3.938 18.061 C 4.715 18.837,5.454 19.383,6.377 19.863 C 9.786 21.636,13.858 21.315,16.955 19.029 L 17.331 18.752 19.395 20.813 C 21.382 22.795,21.468 22.875,21.677 22.936 C 21.948 23.016,22.013 23.016,22.283 22.936 C 22.581 22.847,22.847 22.581,22.936 22.283 C 23.016 22.013,23.016 21.948,22.936 21.677 C 22.875 21.468,22.795 21.382,20.813 19.395 L 18.752 17.331 19.029 16.955 C 21.315 13.858,21.636 9.786,19.863 6.377 C 18.554 3.861,16.162 1.974,13.430 1.303 C 12.446 1.062,11.028 0.948,10.120 1.039 " fill="#000640" stroke="none" fill-rule="evenodd"></path></svg>