<svg xmlns="http://www.w3.org/2000/svg" width="24" height="24" fill="currentColor" class="mmi mmi-sendchat" viewBox="0 0 24 24"><path d="M1.643 2.069 C 1.105 2.259,0.849 2.943,1.124 3.457 C 1.180 3.562,2.716 5.236,4.844 7.511 L 8.468 11.385 9.498 16.822 C 10.065 19.813,10.551 22.315,10.579 22.383 C 10.653 22.563,10.869 22.792,11.056 22.891 C 11.179 22.956,11.290 22.978,11.500 22.978 C 11.820 22.978,12.018 22.894,12.225 22.674 C 12.354 22.536,22.872 3.527,22.954 3.284 C 23.117 2.800,22.809 2.209,22.316 2.063 C 22.127 2.006,21.059 2.000,11.963 2.003 C 2.883 2.006,1.801 2.013,1.643 2.069 M15.436 5.945 C 13.733 7.015,11.716 8.282,10.954 8.761 L 9.568 9.631 7.154 7.050 C 5.826 5.630,4.644 4.363,4.527 4.234 L 4.313 4.000 11.423 4.000 L 18.533 4.000 15.436 5.945 M19.172 6.050 C 19.130 6.122,17.496 9.076,15.540 12.616 C 12.851 17.484,11.977 19.033,11.955 18.976 C 11.939 18.934,11.608 17.219,11.221 15.164 C 10.761 12.727,10.529 11.415,10.555 11.389 C 10.593 11.351,19.205 5.926,19.234 5.922 C 19.242 5.921,19.214 5.979,19.172 6.050 " fill="#000640" stroke="none" fill-rule="evenodd"></path></svg>