<svg xmlns="http://www.w3.org/2000/svg" width="24" height="24" fill="currentColor" class="mmi mmi-send-prompt" viewBox="0 0 24 24"><path d="M19.320 3.116 C 18.960 3.237,3.212 9.227,3.020 9.316 C 2.683 9.472,2.542 9.605,2.392 9.909 C 2.164 10.374,2.226 10.874,2.562 11.256 C 2.734 11.452,4.416 12.752,4.600 12.832 C 4.781 12.910,5.180 12.907,5.365 12.827 C 5.739 12.663,5.959 12.319,5.960 11.898 C 5.960 11.515,5.835 11.310,5.394 10.966 C 5.046 10.695,5.034 10.681,5.125 10.642 C 5.354 10.542,18.613 5.520,18.621 5.529 C 18.632 5.542,15.807 18.966,15.790 18.983 C 15.784 18.990,14.825 18.256,13.659 17.353 C 12.494 16.451,11.477 15.664,11.399 15.606 C 10.916 15.243,9.358 14.030,9.342 14.004 C 9.332 13.987,10.085 13.287,11.016 12.450 C 12.430 11.177,12.723 10.895,12.798 10.735 C 13.042 10.217,12.798 9.602,12.261 9.378 C 12.069 9.298,11.695 9.306,11.499 9.395 C 11.405 9.437,10.489 10.232,9.299 11.302 C 6.740 13.604,6.942 13.412,6.842 13.643 C 6.758 13.839,6.758 13.859,6.769 16.930 C 6.780 19.995,6.781 20.021,6.866 20.206 C 7.060 20.626,7.446 20.883,7.925 20.911 C 8.295 20.934,8.558 20.858,8.784 20.664 C 8.870 20.591,9.407 19.926,9.978 19.187 C 10.626 18.349,11.032 17.856,11.058 17.877 C 12.964 19.372,15.634 21.397,15.799 21.473 C 16.370 21.736,17.097 21.478,17.385 20.910 C 17.463 20.757,17.879 18.849,19.187 12.645 C 20.241 7.648,20.890 4.489,20.893 4.340 C 20.901 3.863,20.660 3.453,20.236 3.222 C 20.065 3.128,19.964 3.103,19.722 3.094 C 19.556 3.087,19.375 3.097,19.320 3.116 M9.152 16.398 L 9.437 16.617 9.330 16.758 C 9.271 16.836,9.119 17.033,8.992 17.195 L 8.760 17.491 8.760 16.803 C 8.760 16.237,8.770 16.122,8.814 16.148 C 8.844 16.166,8.996 16.278,9.152 16.398 " fill="#000640" stroke="none" fill-rule="evenodd"></path></svg>