<svg xmlns="http://www.w3.org/2000/svg" width="24" height="24" fill="currentColor" class="mmi mmi-sendchat-v2" viewBox="0 0 24 24"><path d="M1.643 1.066 C 1.255 1.209,0.969 1.664,1.009 2.077 C 1.021 2.202,1.686 3.913,2.973 7.133 L 4.920 12.000 2.973 16.867 C 1.686 20.087,1.021 21.798,1.009 21.923 C 0.951 22.520,1.488 23.048,2.094 22.990 C 2.267 22.973,3.884 22.178,12.418 17.915 C 20.734 13.760,22.565 12.831,22.702 12.697 C 23.094 12.312,23.093 11.681,22.698 11.302 C 22.562 11.171,20.598 10.175,12.415 6.086 C 2.869 1.317,2.287 1.032,2.060 1.017 C 1.903 1.007,1.759 1.024,1.643 1.066 M17.717 10.985 C 17.726 10.993,15.245 10.996,12.203 10.990 L 6.672 10.980 5.296 7.540 C 4.539 5.648,3.920 4.096,3.920 4.090 C 3.920 4.079,17.691 10.960,17.717 10.985 M10.840 16.458 C 7.045 18.357,3.936 19.908,3.931 19.903 C 3.926 19.899,4.526 18.384,5.265 16.538 C 6.004 14.691,6.624 13.139,6.643 13.090 L 6.678 13.000 12.209 13.002 L 17.740 13.004 10.840 16.458 " fill="#000640" stroke="none" fill-rule="evenodd"></path></svg>