<svg xmlns="http://www.w3.org/2000/svg" width="24" height="24" fill="currentColor" class="mmi mmi-sensor" viewBox="0 0 24 24"><path d="M8.582 1.908 C 8.243 1.962,6.974 2.559,6.297 2.982 C 4.984 3.803,3.686 5.108,2.871 6.425 C 0.901 9.610,0.717 13.560,2.382 16.915 C 2.891 17.942,3.582 18.903,4.399 19.722 C 5.207 20.533,6.133 21.208,7.140 21.721 C 8.498 22.413,8.970 22.475,9.421 22.022 C 9.741 21.701,9.813 21.282,9.617 20.889 C 9.483 20.619,9.353 20.515,8.951 20.354 C 6.791 19.489,5.157 18.007,4.168 16.020 C 2.693 13.055,3.010 9.531,4.990 6.860 C 5.322 6.412,6.109 5.600,6.560 5.241 C 7.237 4.702,7.996 4.263,8.819 3.935 C 9.403 3.703,9.598 3.535,9.703 3.177 C 9.810 2.807,9.733 2.491,9.466 2.206 C 9.244 1.970,8.905 1.856,8.582 1.908 M15.020 1.916 C 14.732 1.989,14.494 2.181,14.347 2.459 C 14.217 2.706,14.226 3.122,14.366 3.360 C 14.531 3.640,14.628 3.707,15.239 3.961 C 16.491 4.482,17.348 5.064,18.282 6.026 C 19.800 7.590,20.646 9.566,20.745 11.780 C 20.895 15.128,18.974 18.412,15.980 19.927 C 15.738 20.049,15.387 20.210,15.200 20.283 C 15.013 20.357,14.789 20.463,14.701 20.519 C 14.328 20.760,14.169 21.325,14.361 21.733 C 14.528 22.088,14.888 22.320,15.274 22.320 C 15.768 22.320,17.415 21.505,18.368 20.790 C 20.566 19.140,22.010 16.866,22.540 14.221 C 22.688 13.479,22.734 12.972,22.733 12.080 C 22.730 10.280,22.363 8.765,21.543 7.175 C 21.002 6.127,20.431 5.347,19.582 4.498 C 18.733 3.649,17.953 3.078,16.905 2.537 C 15.917 2.028,15.336 1.836,15.020 1.916 M9.520 5.584 C 6.917 6.584,5.153 9.064,5.054 11.860 C 4.955 14.642,6.444 17.138,8.950 18.394 C 9.706 18.773,10.101 18.841,10.472 18.656 C 10.733 18.526,10.905 18.322,10.986 18.044 C 11.142 17.510,10.879 17.043,10.282 16.796 C 9.571 16.501,9.116 16.216,8.629 15.761 C 7.880 15.061,7.337 14.079,7.133 13.051 C 7.037 12.568,7.039 11.622,7.137 11.162 C 7.497 9.467,8.584 8.146,10.155 7.495 C 10.626 7.300,10.847 7.114,10.958 6.817 C 11.061 6.540,11.061 6.380,10.958 6.105 C 10.868 5.863,10.654 5.640,10.416 5.541 C 10.196 5.449,9.825 5.467,9.520 5.584 M13.581 5.563 C 13.246 5.730,13.000 6.109,13.000 6.460 C 13.000 6.853,13.307 7.269,13.709 7.420 C 14.400 7.680,14.970 8.047,15.504 8.579 C 16.488 9.556,16.972 10.714,16.976 12.100 C 16.977 12.748,16.924 13.096,16.734 13.678 C 16.277 15.080,15.305 16.124,13.878 16.743 C 13.648 16.842,13.400 16.982,13.326 17.052 C 12.818 17.540,12.939 18.343,13.568 18.656 C 13.952 18.848,14.345 18.773,15.167 18.354 C 16.927 17.454,18.228 15.861,18.742 13.974 C 18.903 13.386,18.964 12.979,18.987 12.340 C 19.042 10.813,18.591 9.317,17.688 8.040 C 17.345 7.553,16.567 6.776,16.080 6.431 C 15.667 6.139,14.924 5.738,14.503 5.580 C 14.169 5.454,13.812 5.447,13.581 5.563 M11.380 9.186 C 9.795 9.524,8.762 11.069,9.057 12.660 C 9.105 12.917,9.182 13.140,9.327 13.438 C 9.505 13.807,9.573 13.900,9.895 14.218 C 10.514 14.832,11.144 15.093,12.000 15.093 C 12.856 15.093,13.486 14.832,14.103 14.220 C 14.412 13.915,14.495 13.802,14.653 13.480 C 14.911 12.954,14.978 12.678,14.978 12.120 C 14.979 11.624,14.933 11.379,14.757 10.953 C 14.219 9.647,12.770 8.890,11.380 9.186 " fill="#000640" stroke="none" fill-rule="evenodd"></path></svg>