<svg xmlns="http://www.w3.org/2000/svg" width="24" height="24" fill="currentColor" class="mmi mmi-server" viewBox="0 0 24 24"><path d="M3.503 2.042 C 2.818 2.158,2.117 2.573,1.670 3.127 C 1.445 3.407,1.159 3.980,1.074 4.320 C 0.994 4.647,0.994 19.353,1.074 19.680 C 1.159 20.020,1.445 20.593,1.670 20.873 C 1.950 21.220,2.312 21.501,2.740 21.704 C 3.409 22.021,2.760 22.000,12.000 22.000 C 21.240 22.000,20.591 22.021,21.260 21.704 C 21.920 21.391,22.391 20.920,22.704 20.260 C 23.019 19.594,23.000 20.123,23.000 12.000 C 23.000 3.877,23.019 4.406,22.704 3.740 C 22.398 3.095,21.924 2.614,21.296 2.312 C 20.634 1.993,21.532 2.022,12.120 2.015 C 7.489 2.012,3.611 2.024,3.503 2.042 M9.000 12.001 L 9.000 20.002 6.369 19.991 L 3.738 19.980 3.539 19.878 C 3.313 19.761,3.102 19.509,3.041 19.282 C 3.013 19.178,3.002 16.806,3.010 11.914 L 3.020 4.700 3.131 4.511 C 3.256 4.298,3.449 4.136,3.670 4.057 C 3.789 4.014,4.351 4.003,6.410 4.002 L 9.000 4.000 9.000 12.001 M15.000 12.000 L 15.000 20.000 13.000 20.000 L 11.000 20.000 11.000 12.000 L 11.000 4.000 13.000 4.000 L 15.000 4.000 15.000 12.000 M20.340 4.066 C 20.455 4.105,20.603 4.201,20.701 4.299 C 21.025 4.623,21.000 3.977,21.000 12.000 C 21.000 20.023,21.025 19.377,20.701 19.701 C 20.409 19.994,20.362 20.000,18.573 20.000 L 17.000 20.000 17.000 12.000 L 17.000 4.000 18.573 4.000 C 19.932 4.000,20.172 4.009,20.340 4.066 M5.664 6.063 C 5.436 6.146,5.257 6.297,5.131 6.511 C 5.036 6.672,5.020 6.744,5.020 7.000 C 5.020 7.256,5.036 7.328,5.131 7.489 C 5.470 8.065,6.234 8.168,6.701 7.701 C 7.092 7.310,7.092 6.690,6.701 6.299 C 6.429 6.027,6.018 5.933,5.664 6.063 M12.664 6.063 C 12.436 6.146,12.257 6.297,12.131 6.511 C 12.036 6.672,12.020 6.744,12.020 7.000 C 12.020 7.256,12.036 7.328,12.131 7.489 C 12.470 8.065,13.234 8.168,13.701 7.701 C 13.881 7.521,14.000 7.242,14.000 7.000 C 14.000 6.326,13.295 5.832,12.664 6.063 M18.664 6.063 C 18.436 6.146,18.257 6.297,18.131 6.511 C 18.036 6.672,18.020 6.744,18.020 7.000 C 18.020 7.256,18.036 7.328,18.131 7.489 C 18.470 8.065,19.234 8.168,19.701 7.701 C 19.881 7.521,20.000 7.242,20.000 7.000 C 20.000 6.326,19.295 5.832,18.664 6.063 M5.664 9.063 C 5.436 9.146,5.257 9.297,5.131 9.511 C 5.036 9.672,5.020 9.744,5.020 10.000 C 5.020 10.256,5.036 10.328,5.131 10.489 C 5.470 11.065,6.234 11.168,6.701 10.701 C 7.092 10.310,7.092 9.690,6.701 9.299 C 6.429 9.027,6.018 8.933,5.664 9.063 M12.664 9.063 C 12.436 9.146,12.257 9.297,12.131 9.511 L 12.020 9.700 12.009 13.413 C 12.002 15.908,12.012 17.176,12.040 17.281 C 12.101 17.506,12.312 17.761,12.531 17.874 C 12.932 18.080,13.390 18.012,13.700 17.702 C 14.016 17.387,14.000 17.605,14.000 13.500 C 14.000 9.396,14.015 9.613,13.701 9.299 C 13.429 9.027,13.018 8.933,12.664 9.063 M18.664 9.063 C 18.436 9.146,18.257 9.297,18.131 9.511 L 18.020 9.700 18.009 13.413 C 18.002 15.908,18.012 17.176,18.040 17.281 C 18.101 17.506,18.312 17.761,18.531 17.874 C 18.932 18.080,19.390 18.012,19.700 17.702 C 20.016 17.387,20.000 17.605,20.000 13.500 C 20.000 9.396,20.015 9.613,19.701 9.299 C 19.429 9.027,19.018 8.933,18.664 9.063 " fill="#000640" stroke="none" fill-rule="evenodd"></path></svg>