<svg xmlns="http://www.w3.org/2000/svg" width="24" height="24" fill="currentColor" class="mmi mmi-seven" viewBox="0 0 24 24"><path d="M11.200 0.025 C 7.091 0.332,3.508 2.609,1.507 6.186 C 0.775 7.494,0.317 8.899,0.094 10.520 C -0.002 11.214,-0.002 12.786,0.094 13.480 C 0.317 15.101,0.775 16.506,1.507 17.814 C 4.173 22.579,9.604 24.939,14.910 23.637 C 19.156 22.595,22.595 19.156,23.637 14.910 C 24.599 10.992,23.592 6.970,20.896 3.958 C 19.003 1.843,16.397 0.483,13.500 0.099 C 13.032 0.037,11.640 -0.007,11.200 0.025 M12.920 2.043 C 14.827 2.219,16.631 2.940,18.200 4.155 C 18.637 4.493,19.507 5.363,19.845 5.800 C 21.878 8.427,22.517 11.768,21.578 14.865 C 21.082 16.499,20.272 17.850,19.061 19.061 C 18.287 19.836,17.547 20.383,16.623 20.863 C 13.714 22.376,10.286 22.376,7.377 20.863 C 6.454 20.383,5.715 19.837,4.938 19.061 C 3.951 18.075,3.213 16.964,2.722 15.728 C 1.390 12.368,1.921 8.686,4.153 5.800 C 4.491 5.363,5.363 4.491,5.800 4.153 C 7.114 3.137,8.541 2.486,10.125 2.181 C 11.037 2.006,12.003 1.958,12.920 2.043 M8.240 6.037 C 7.951 6.126,7.686 6.361,7.575 6.626 C 7.545 6.698,7.520 6.867,7.520 7.000 C 7.520 7.133,7.545 7.302,7.575 7.374 C 7.653 7.562,7.866 7.790,8.056 7.892 C 8.219 7.979,8.242 7.980,10.731 8.000 L 13.241 8.020 13.036 8.300 C 11.166 10.850,10.145 13.626,10.015 16.514 C 9.983 17.229,10.032 17.434,10.298 17.700 C 10.691 18.093,11.309 18.093,11.702 17.700 C 11.931 17.471,11.988 17.264,12.016 16.560 C 12.043 15.871,12.090 15.467,12.220 14.818 C 12.709 12.384,13.988 10.016,15.898 8.008 C 16.155 7.737,16.392 7.454,16.423 7.379 C 16.495 7.206,16.497 6.797,16.425 6.626 C 16.347 6.438,16.134 6.210,15.944 6.108 L 15.780 6.020 12.060 6.013 C 10.014 6.009,8.295 6.020,8.240 6.037 " stroke="none" fill-rule="evenodd"></path></svg>