<svg xmlns="http://www.w3.org/2000/svg" width="24" height="24" fill="currentColor" class="mmi mmi-share" viewBox="0 0 24 24"><path d="M12.379 2.021 C 12.142 2.109,11.941 2.292,11.824 2.528 L 11.720 2.736 11.720 5.343 L 11.720 7.950 11.595 7.975 C 11.526 7.989,11.358 8.000,11.221 8.000 C 10.601 8.000,8.963 8.203,8.127 8.384 C 4.924 9.075,2.856 10.551,1.701 12.971 C 0.857 14.739,0.502 16.829,0.470 20.220 C 0.461 21.132,0.468 21.278,0.529 21.405 C 0.693 21.753,0.966 21.955,1.412 22.057 C 1.758 22.137,1.751 22.138,1.642 22.023 L 1.551 21.925 1.917 21.741 C 2.119 21.640,2.301 21.568,2.323 21.582 C 2.345 21.595,2.393 21.571,2.431 21.528 C 2.491 21.460,11.464 17.102,11.650 17.050 C 11.716 17.032,11.720 17.151,11.720 19.147 L 11.720 21.264 11.824 21.472 C 12.015 21.857,12.401 22.069,12.838 22.029 C 12.963 22.018,13.136 21.973,13.223 21.928 C 13.309 21.884,15.621 19.779,18.360 17.250 C 22.463 13.462,23.357 12.618,23.436 12.460 C 23.508 12.315,23.532 12.202,23.532 12.000 C 23.532 11.798,23.508 11.685,23.436 11.540 C 23.357 11.382,22.463 10.538,18.360 6.750 C 15.621 4.221,13.308 2.115,13.220 2.070 C 13.013 1.964,12.599 1.940,12.379 2.021 M19.599 13.254 C 19.545 13.306,18.321 14.434,16.880 15.760 C 15.439 17.086,14.156 18.272,14.029 18.395 L 13.799 18.619 13.809 17.304 L 13.820 15.990 16.740 14.577 C 18.346 13.800,19.669 13.164,19.679 13.162 C 19.690 13.161,19.654 13.202,19.599 13.254 " fill="#000640" stroke="none" fill-rule="evenodd"></path></svg>