<svg xmlns="http://www.w3.org/2000/svg" width="24" height="24" fill="currentColor" class="mmi mmi-shareoption" viewBox="0 0 24 24"><path d="M18.433 1.040 C 17.843 1.134,17.221 1.380,16.731 1.712 C 15.918 2.265,15.350 3.101,15.097 4.120 C 15.017 4.443,14.993 5.237,15.051 5.629 L 15.083 5.839 11.558 7.601 L 8.034 9.363 7.777 9.123 C 6.168 7.618,3.734 7.641,2.178 9.177 C 1.671 9.676,1.313 10.313,1.113 11.068 C 0.981 11.569,0.981 12.423,1.114 12.932 C 1.313 13.693,1.665 14.314,2.196 14.838 C 3.893 16.515,6.693 16.341,8.146 14.470 L 8.232 14.359 11.659 16.229 L 15.086 18.098 15.064 18.219 C 15.052 18.286,15.030 18.539,15.015 18.783 C 14.903 20.664,16.122 22.350,17.960 22.858 C 18.519 23.013,19.200 23.037,19.752 22.923 C 21.400 22.582,22.582 21.396,22.925 19.744 C 23.029 19.241,23.011 18.563,22.880 18.040 C 22.753 17.532,22.382 16.809,22.045 16.416 C 21.480 15.755,20.660 15.270,19.780 15.075 C 19.420 14.996,18.530 15.007,18.140 15.096 C 17.434 15.258,16.785 15.602,16.247 16.100 L 16.009 16.321 12.503 14.409 L 8.997 12.498 8.984 11.959 C 8.977 11.662,8.958 11.363,8.941 11.292 L 8.911 11.165 12.441 9.399 L 15.972 7.634 16.176 7.831 C 16.791 8.423,17.412 8.750,18.248 8.923 C 18.977 9.074,19.844 8.982,20.560 8.678 C 21.479 8.288,22.286 7.484,22.671 6.576 C 23.275 5.151,23.017 3.545,21.994 2.356 C 21.525 1.811,20.692 1.306,19.960 1.122 C 19.573 1.025,18.793 0.983,18.433 1.040 M19.383 3.043 C 20.185 3.190,20.839 3.872,20.967 4.695 C 21.153 5.894,20.209 7.000,19.000 7.000 C 18.032 7.000,17.183 6.268,17.033 5.305 C 16.933 4.663,17.132 4.061,17.596 3.596 C 18.085 3.108,18.698 2.918,19.383 3.043 M5.383 10.043 C 6.185 10.190,6.839 10.872,6.967 11.695 C 7.153 12.894,6.209 14.000,5.000 14.000 C 4.032 14.000,3.183 13.268,3.033 12.305 C 2.933 11.663,3.132 11.061,3.596 10.596 C 4.085 10.108,4.698 9.918,5.383 10.043 M19.383 17.043 C 20.185 17.190,20.839 17.872,20.967 18.695 C 21.153 19.894,20.209 21.000,19.000 21.000 C 18.032 21.000,17.183 20.268,17.033 19.305 C 16.933 18.663,17.132 18.061,17.596 17.596 C 18.085 17.108,18.698 16.918,19.383 17.043 " fill="#000640" stroke="none" fill-rule="evenodd"></path></svg>