<svg xmlns="http://www.w3.org/2000/svg" width="24" height="24" fill="currentColor" class="mmi mmi-shield-remove" viewBox="0 0 24 24"><path d="M11.360 1.183 C 10.852 1.292,3.944 3.623,3.608 3.798 C 3.039 4.094,2.623 4.521,2.338 5.100 C 1.999 5.789,2.023 5.425,2.008 10.060 C 2.000 12.834,2.010 14.330,2.040 14.639 C 2.275 17.104,3.806 19.201,6.598 20.880 C 7.755 21.576,9.369 22.274,10.850 22.720 C 11.807 23.008,12.193 23.008,13.150 22.720 C 15.384 22.048,17.431 21.022,18.920 19.828 C 20.467 18.588,21.491 17.051,21.842 15.443 C 21.993 14.749,22.005 14.321,21.991 10.060 C 21.977 5.416,22.002 5.791,21.654 5.082 C 21.497 4.763,21.411 4.645,21.104 4.339 C 20.820 4.055,20.666 3.937,20.406 3.803 C 20.034 3.613,13.116 1.284,12.612 1.180 C 12.257 1.106,11.707 1.108,11.360 1.183 M15.810 4.326 C 19.781 5.642,19.684 5.603,19.878 5.979 L 19.980 6.178 19.980 10.379 C 19.980 14.882,19.985 14.762,19.772 15.420 C 19.235 17.083,17.747 18.534,15.380 19.702 C 14.233 20.268,12.401 20.938,12.000 20.938 C 11.606 20.938,9.776 20.271,8.660 19.721 C 6.297 18.557,4.815 17.138,4.255 15.508 C 4.013 14.804,4.026 15.073,4.011 10.505 C 3.995 5.773,3.978 6.060,4.299 5.739 C 4.466 5.572,4.491 5.563,8.123 4.349 C 10.808 3.451,11.832 3.125,11.974 3.123 C 12.127 3.121,12.945 3.377,15.810 4.326 M8.643 8.069 C 8.291 8.193,8.000 8.614,8.000 9.000 C 8.000 9.080,8.030 9.234,8.066 9.343 C 8.123 9.517,8.276 9.685,9.354 10.770 L 10.577 12.000 9.352 13.230 C 8.196 14.391,8.124 14.472,8.064 14.677 C 7.984 14.948,7.984 15.012,8.064 15.283 C 8.153 15.581,8.419 15.847,8.717 15.936 C 8.988 16.016,9.052 16.016,9.323 15.936 C 9.528 15.876,9.609 15.804,10.770 14.648 L 12.000 13.423 13.230 14.648 C 14.391 15.804,14.472 15.876,14.677 15.936 C 14.948 16.016,15.012 16.016,15.283 15.936 C 15.581 15.847,15.847 15.581,15.936 15.283 C 16.016 15.012,16.016 14.948,15.936 14.677 C 15.876 14.472,15.804 14.391,14.647 13.230 L 13.422 11.999 14.629 10.790 C 15.951 9.464,15.998 9.402,15.998 8.980 C 15.998 8.669,15.903 8.462,15.661 8.249 C 15.449 8.062,15.278 8.000,14.980 8.001 C 14.603 8.002,14.509 8.075,13.210 9.371 L 12.001 10.578 10.770 9.354 C 9.685 8.276,9.517 8.123,9.343 8.066 C 9.102 7.985,8.877 7.986,8.643 8.069 " fill="#000640" stroke="none" fill-rule="evenodd"></path></svg>