<svg xmlns="http://www.w3.org/2000/svg" width="24" height="24" fill="currentColor" class="mmi mmi-shield-filled" viewBox="0 0 24 24"><path d="M11.364 1.182 C 11.072 1.245,4.378 3.466,3.920 3.651 C 3.148 3.964,2.529 4.566,2.233 5.292 C 1.991 5.885,1.996 5.765,2.010 10.500 C 2.024 15.225,2.014 15.004,2.264 15.870 C 3.093 18.742,6.053 21.174,10.447 22.594 C 11.445 22.916,11.533 22.935,12.020 22.933 C 12.406 22.931,12.519 22.913,12.940 22.788 C 17.704 21.364,20.868 18.875,21.736 15.870 C 21.986 15.004,21.976 15.223,21.990 10.520 C 22.000 7.491,21.991 6.144,21.959 5.962 C 21.852 5.339,21.554 4.765,21.111 4.328 C 20.815 4.035,20.720 3.967,20.340 3.772 C 20.020 3.608,13.054 1.271,12.612 1.180 C 12.258 1.107,11.707 1.108,11.364 1.182 " fill="#000640" stroke="none" fill-rule="evenodd"></path></svg>