<svg xmlns="http://www.w3.org/2000/svg" width="24" height="24" fill="currentColor" class="mmi mmi-shield-add" viewBox="0 0 24 24"><path d="M11.360 1.183 C 10.852 1.292,3.944 3.623,3.608 3.798 C 3.039 4.094,2.623 4.521,2.338 5.100 C 1.999 5.789,2.023 5.425,2.008 10.060 C 2.000 12.834,2.010 14.330,2.040 14.639 C 2.275 17.104,3.806 19.201,6.598 20.880 C 7.755 21.576,9.369 22.274,10.850 22.720 C 11.807 23.008,12.193 23.008,13.150 22.720 C 15.384 22.048,17.431 21.022,18.920 19.828 C 20.467 18.588,21.491 17.051,21.842 15.443 C 21.993 14.749,22.005 14.321,21.991 10.060 C 21.977 5.416,22.002 5.791,21.654 5.082 C 21.497 4.763,21.411 4.645,21.104 4.339 C 20.820 4.055,20.666 3.937,20.406 3.803 C 20.034 3.613,13.116 1.284,12.612 1.180 C 12.257 1.106,11.707 1.108,11.360 1.183 M15.810 4.326 C 19.781 5.642,19.684 5.603,19.878 5.979 L 19.980 6.178 19.980 10.379 C 19.980 14.882,19.985 14.762,19.772 15.420 C 19.235 17.083,17.747 18.534,15.380 19.702 C 14.233 20.268,12.401 20.938,12.000 20.938 C 11.606 20.938,9.776 20.271,8.660 19.721 C 6.297 18.557,4.815 17.138,4.255 15.508 C 4.013 14.804,4.026 15.073,4.011 10.505 C 3.995 5.773,3.978 6.060,4.299 5.739 C 4.466 5.572,4.491 5.563,8.123 4.349 C 10.808 3.451,11.832 3.125,11.974 3.123 C 12.127 3.121,12.945 3.377,15.810 4.326 M11.664 7.063 C 11.436 7.146,11.257 7.297,11.131 7.511 L 11.020 7.700 11.008 9.350 L 10.997 11.000 9.423 11.000 C 7.721 11.000,7.656 11.007,7.374 11.222 C 7.301 11.277,7.192 11.408,7.131 11.511 C 7.036 11.672,7.020 11.744,7.020 12.000 C 7.020 12.256,7.036 12.328,7.131 12.489 C 7.192 12.592,7.301 12.723,7.374 12.778 C 7.656 12.993,7.721 13.000,9.425 13.000 L 11.000 13.000 11.000 14.570 C 11.000 15.528,11.017 16.198,11.042 16.289 C 11.103 16.509,11.315 16.762,11.531 16.874 C 11.932 17.080,12.390 17.012,12.700 16.702 C 12.994 16.408,13.000 16.363,13.000 14.573 L 13.000 13.000 14.573 13.000 C 16.362 13.000,16.409 12.994,16.701 12.701 C 17.092 12.310,17.092 11.690,16.701 11.299 C 16.409 11.006,16.362 11.000,14.573 11.000 L 13.000 11.000 13.000 9.427 C 13.000 7.638,12.994 7.591,12.701 7.299 C 12.429 7.027,12.018 6.933,11.664 7.063 " fill="#000640" stroke="none" fill-rule="evenodd"></path></svg>