<svg xmlns="http://www.w3.org/2000/svg" width="24" height="24" fill="currentColor" class="mmi mmi-shield-deduct" viewBox="0 0 24 24"><path d="M11.360 1.183 C 10.852 1.292,3.944 3.623,3.608 3.798 C 3.039 4.094,2.623 4.521,2.338 5.100 C 1.999 5.789,2.023 5.425,2.008 10.060 C 2.000 12.834,2.010 14.330,2.040 14.639 C 2.275 17.104,3.806 19.201,6.598 20.880 C 7.750 21.573,9.375 22.276,10.850 22.720 C 11.807 23.008,12.193 23.008,13.150 22.720 C 15.384 22.048,17.431 21.022,18.920 19.828 C 20.467 18.588,21.491 17.051,21.842 15.443 C 21.993 14.749,22.005 14.321,21.991 10.060 C 21.977 5.416,22.002 5.791,21.654 5.082 C 21.497 4.763,21.411 4.645,21.104 4.339 C 20.820 4.055,20.666 3.937,20.406 3.803 C 20.034 3.613,13.116 1.284,12.612 1.180 C 12.257 1.106,11.707 1.108,11.360 1.183 M15.857 4.346 C 19.512 5.564,19.534 5.572,19.701 5.739 C 20.022 6.060,20.005 5.773,19.989 10.505 C 19.974 15.073,19.987 14.804,19.745 15.508 C 19.009 17.652,16.637 19.459,12.940 20.691 C 12.476 20.845,12.149 20.932,12.020 20.935 C 11.879 20.938,11.626 20.876,11.160 20.725 C 8.477 19.857,6.339 18.576,5.190 17.151 C 4.717 16.563,4.466 16.116,4.242 15.460 C 4.014 14.794,4.020 14.930,4.020 10.379 L 4.020 6.178 4.120 5.983 C 4.318 5.599,4.190 5.651,8.152 4.334 C 10.856 3.434,11.831 3.126,11.980 3.124 C 12.141 3.121,12.891 3.357,15.857 4.346 M7.664 11.063 C 7.436 11.146,7.257 11.297,7.131 11.511 C 7.036 11.672,7.020 11.744,7.020 12.000 C 7.020 12.256,7.036 12.328,7.131 12.489 C 7.192 12.592,7.301 12.723,7.374 12.778 C 7.677 13.009,7.484 13.000,11.998 13.000 C 16.663 13.000,16.384 13.018,16.701 12.701 C 17.092 12.310,17.092 11.690,16.701 11.299 C 16.384 10.982,16.666 11.000,11.983 11.003 C 8.474 11.005,7.795 11.015,7.664 11.063 " fill="#000640" stroke="none" fill-rule="evenodd"></path></svg>