<svg xmlns="http://www.w3.org/2000/svg" width="24" height="24" fill="currentColor" class="mmi mmi-shield" viewBox="0 0 24 24"><path d="M11.364 1.182 C 11.072 1.245,4.378 3.466,3.920 3.651 C 3.148 3.964,2.529 4.566,2.233 5.292 C 1.991 5.885,1.996 5.765,2.010 10.500 C 2.024 15.225,2.014 15.004,2.264 15.870 C 3.093 18.742,6.053 21.174,10.447 22.594 C 11.445 22.916,11.533 22.935,12.020 22.933 C 12.406 22.931,12.519 22.913,12.940 22.788 C 17.704 21.364,20.868 18.875,21.736 15.870 C 21.986 15.004,21.976 15.223,21.990 10.520 C 22.000 7.491,21.991 6.144,21.959 5.962 C 21.852 5.339,21.554 4.765,21.111 4.328 C 20.815 4.035,20.720 3.967,20.340 3.772 C 20.020 3.608,13.054 1.271,12.612 1.180 C 12.258 1.107,11.707 1.108,11.364 1.182 M15.789 4.320 C 17.781 4.980,19.469 5.556,19.541 5.600 C 19.707 5.703,19.867 5.912,19.942 6.124 C 20.028 6.368,20.028 14.110,19.942 14.680 C 19.646 16.648,18.083 18.369,15.380 19.702 C 14.189 20.289,12.423 20.932,12.000 20.932 C 11.584 20.932,9.834 20.297,8.660 19.720 C 6.285 18.554,4.779 17.096,4.239 15.443 C 4.002 14.717,4.000 14.688,4.000 10.295 C 4.000 5.911,3.989 6.116,4.236 5.806 C 4.300 5.726,4.413 5.628,4.486 5.590 C 4.560 5.551,6.231 4.981,8.200 4.323 C 10.828 3.445,11.832 3.125,11.974 3.123 C 12.127 3.121,12.940 3.376,15.789 4.320 " fill="#000640" stroke="none" fill-rule="evenodd"></path></svg>