<svg xmlns="http://www.w3.org/2000/svg" width="24" height="24" fill="currentColor" class="mmi mmi-ship" viewBox="0 0 24 24"><path d="M9.664 1.063 C 9.436 1.146,9.257 1.297,9.131 1.511 L 9.020 1.700 9.008 2.845 L 8.996 3.991 8.228 4.011 C 7.373 4.034,7.217 4.065,6.704 4.312 C 6.008 4.646,5.459 5.236,5.202 5.925 C 5.024 6.403,5.001 6.630,5.001 7.986 L 5.000 9.272 3.780 9.681 C 2.454 10.125,2.318 10.193,2.133 10.508 C 2.022 10.697,2.020 10.710,2.025 11.300 C 2.041 13.255,2.875 15.748,4.072 17.419 C 4.345 17.800,4.566 17.954,4.889 17.987 C 5.557 18.056,6.083 17.495,5.982 16.821 C 5.963 16.691,5.866 16.509,5.623 16.144 C 5.092 15.345,4.655 14.394,4.379 13.435 C 4.231 12.923,4.088 12.212,4.071 11.904 L 4.060 11.708 7.460 10.574 C 9.330 9.950,10.892 9.429,10.930 9.417 C 10.996 9.396,11.000 9.587,11.000 13.047 L 11.001 16.700 11.094 16.900 C 11.145 17.010,11.260 17.165,11.348 17.245 C 11.845 17.693,12.616 17.522,12.906 16.900 L 12.999 16.700 13.000 13.046 C 13.000 10.139,13.010 9.395,13.050 9.410 C 13.078 9.420,14.630 9.937,16.500 10.559 C 18.370 11.181,19.914 11.703,19.932 11.719 C 19.980 11.762,19.851 12.555,19.699 13.146 C 19.409 14.280,18.932 15.333,18.268 16.308 C 18.114 16.535,18.037 16.691,18.018 16.817 C 17.917 17.495,18.441 18.056,19.111 17.987 C 19.434 17.954,19.655 17.800,19.928 17.419 C 21.121 15.754,21.953 13.273,21.974 11.320 C 21.980 10.770,21.975 10.729,21.878 10.540 C 21.704 10.201,21.577 10.135,20.225 9.682 L 19.000 9.272 19.000 7.994 C 19.000 6.598,18.974 6.359,18.766 5.849 C 18.499 5.193,17.964 4.633,17.296 4.312 C 16.783 4.065,16.627 4.034,15.770 4.011 L 15.000 3.991 15.000 2.922 C 15.000 1.693,14.979 1.577,14.701 1.299 C 14.398 0.996,14.430 1.000,11.983 1.003 C 10.210 1.005,9.792 1.016,9.664 1.063 M13.000 3.500 L 13.000 4.000 12.000 4.000 L 11.000 4.000 11.000 3.500 L 11.000 3.000 12.000 3.000 L 13.000 3.000 13.000 3.500 M16.340 6.066 C 16.593 6.153,16.847 6.407,16.934 6.660 C 17.020 6.912,17.034 8.621,16.950 8.590 C 16.922 8.580,15.837 8.218,14.538 7.786 C 12.902 7.242,12.122 7.000,12.000 7.000 C 11.878 7.000,11.098 7.242,9.462 7.786 C 8.163 8.218,7.078 8.580,7.050 8.590 C 7.011 8.604,7.000 8.416,7.000 7.731 C 7.000 6.712,7.030 6.568,7.300 6.298 C 7.609 5.989,7.322 6.007,11.983 6.003 C 15.758 6.000,16.164 6.006,16.340 6.066 M4.571 19.062 C 4.063 19.198,3.750 19.433,3.075 20.182 C 2.480 20.843,2.327 20.957,1.973 21.001 C 1.338 21.080,0.953 21.526,1.013 22.112 C 1.066 22.628,1.504 23.001,2.055 22.999 C 2.854 22.997,3.664 22.547,4.412 21.690 C 4.600 21.476,4.817 21.239,4.895 21.164 L 5.036 21.028 5.182 21.139 C 5.262 21.200,5.438 21.352,5.574 21.477 C 6.601 22.426,7.174 22.782,7.928 22.937 C 8.944 23.145,9.879 22.828,10.921 21.921 C 11.152 21.720,11.473 21.440,11.636 21.298 C 11.799 21.156,11.962 21.040,11.999 21.040 C 12.065 21.040,12.177 21.131,13.027 21.877 C 13.264 22.084,13.593 22.341,13.759 22.447 C 14.887 23.171,16.071 23.177,17.214 22.465 C 17.502 22.285,17.931 21.936,18.426 21.478 C 18.562 21.353,18.738 21.200,18.818 21.139 L 18.964 21.028 19.105 21.164 C 19.183 21.239,19.403 21.478,19.593 21.694 C 20.207 22.393,20.825 22.805,21.460 22.939 C 22.035 23.061,22.414 22.988,22.701 22.701 C 22.975 22.427,23.064 22.043,22.939 21.675 C 22.807 21.288,22.496 21.059,22.023 21.000 C 21.674 20.957,21.518 20.841,20.925 20.182 C 20.371 19.567,20.130 19.359,19.771 19.190 C 19.239 18.940,18.695 18.950,18.141 19.220 C 17.799 19.387,17.552 19.573,16.946 20.117 C 15.634 21.297,15.363 21.292,13.980 20.058 C 13.174 19.339,12.817 19.124,12.278 19.031 C 12.063 18.995,11.937 18.995,11.722 19.031 C 11.183 19.124,10.826 19.339,10.020 20.058 C 8.637 21.292,8.366 21.297,7.054 20.117 C 6.446 19.571,6.199 19.386,5.860 19.223 C 5.398 19.000,4.988 18.949,4.571 19.062 " fill="#000640" stroke="none" fill-rule="evenodd"></path></svg>