<svg xmlns="http://www.w3.org/2000/svg" width="24" height="24" fill="currentColor" class="mmi mmi-shirt" viewBox="0 0 24 24"><path d="M6.918 1.633 C 5.006 2.274,4.530 2.467,4.034 2.804 C 2.806 3.638,2.007 4.997,1.861 6.500 C 1.784 7.294,1.117 19.803,1.132 20.160 C 1.179 21.252,1.826 22.226,2.819 22.700 C 3.456 23.004,2.615 22.977,11.840 22.991 C 17.722 22.999,20.174 22.990,20.358 22.959 C 21.571 22.752,22.512 21.872,22.798 20.679 C 22.843 20.493,22.880 20.207,22.880 20.045 C 22.880 19.595,22.170 6.834,22.120 6.394 C 21.953 4.925,21.169 3.621,19.957 2.798 C 19.471 2.468,18.986 2.271,17.082 1.633 C 14.888 0.897,14.991 0.914,14.375 1.191 C 13.486 1.589,12.865 1.732,12.020 1.735 C 11.155 1.737,10.517 1.592,9.625 1.191 C 9.009 0.914,9.112 0.897,6.918 1.633 M8.258 3.775 C 8.493 4.663,8.912 5.431,9.460 5.979 C 9.860 6.379,10.336 6.662,10.930 6.855 C 10.996 6.876,11.000 7.249,11.000 13.939 L 11.000 21.000 9.000 21.000 L 7.000 21.000 7.000 15.427 C 7.000 9.164,7.022 9.620,6.700 9.298 C 6.390 8.988,5.932 8.920,5.531 9.126 C 5.315 9.238,5.103 9.491,5.042 9.711 C 5.014 9.810,5.000 11.717,5.000 15.434 L 5.000 21.007 4.410 20.994 C 3.869 20.981,3.805 20.972,3.642 20.880 C 3.427 20.759,3.219 20.497,3.156 20.268 C 3.119 20.132,3.172 18.991,3.437 14.200 C 3.860 6.553,3.864 6.495,3.941 6.196 C 4.139 5.432,4.641 4.760,5.314 4.361 C 5.494 4.254,5.980 4.068,6.820 3.784 C 7.502 3.554,8.080 3.364,8.104 3.363 C 8.128 3.361,8.197 3.547,8.258 3.775 M17.162 3.781 C 18.026 4.071,18.504 4.252,18.686 4.361 C 19.453 4.816,19.966 5.581,20.101 6.470 C 20.134 6.684,20.325 9.839,20.524 13.481 C 20.812 18.724,20.879 20.136,20.844 20.265 C 20.781 20.497,20.594 20.737,20.372 20.867 C 20.189 20.975,20.153 20.981,19.590 20.994 L 19.000 21.007 19.000 15.431 C 19.000 9.164,19.022 9.620,18.700 9.298 C 18.390 8.988,17.932 8.920,17.531 9.126 C 17.315 9.238,17.103 9.491,17.042 9.711 C 17.014 9.810,17.000 11.716,17.000 15.430 L 17.000 21.000 15.000 21.000 L 13.000 21.000 13.000 13.939 C 13.000 7.249,13.004 6.876,13.070 6.855 C 14.100 6.521,14.820 5.885,15.332 4.860 C 15.495 4.532,15.751 3.813,15.819 3.490 C 15.834 3.419,15.860 3.360,15.876 3.360 C 15.892 3.360,16.471 3.550,17.162 3.781 M10.900 3.665 C 11.161 3.715,11.464 3.734,12.000 3.734 C 12.536 3.734,12.839 3.715,13.100 3.665 C 13.298 3.627,13.519 3.586,13.592 3.573 L 13.723 3.549 13.645 3.745 C 13.423 4.302,13.057 4.724,12.660 4.882 C 12.315 5.019,11.686 5.019,11.340 4.883 C 10.999 4.748,10.668 4.402,10.448 3.952 C 10.356 3.763,10.280 3.595,10.280 3.579 C 10.280 3.548,10.318 3.553,10.900 3.665 " fill="#000640" stroke="none" fill-rule="evenodd"></path></svg>