<svg xmlns="http://www.w3.org/2000/svg" width="24" height="24" fill="currentColor" class="mmi mmi-shirt-turtleneck" viewBox="0 0 24 24"><path d="M7.664 1.063 C 7.436 1.146,7.257 1.297,7.131 1.511 C 7.022 1.697,7.020 1.713,7.000 2.516 L 6.980 3.332 5.780 3.819 C 4.314 4.414,3.988 4.597,3.378 5.168 C 2.611 5.885,2.026 7.040,1.881 8.120 C 1.859 8.285,1.677 11.039,1.477 14.240 C 1.116 20.005,1.113 20.064,1.175 20.450 C 1.364 21.625,2.154 22.522,3.320 22.886 L 3.620 22.980 12.000 22.980 L 20.380 22.980 20.680 22.886 C 21.226 22.716,21.582 22.501,21.982 22.102 C 22.256 21.827,22.383 21.663,22.509 21.419 C 22.700 21.049,22.824 20.635,22.860 20.249 C 22.886 19.974,22.202 8.772,22.121 8.140 C 21.977 7.018,21.385 5.867,20.566 5.118 C 19.947 4.552,19.592 4.358,18.040 3.736 L 17.020 3.328 17.000 2.534 C 16.982 1.805,16.972 1.724,16.886 1.550 C 16.774 1.323,16.570 1.145,16.325 1.061 C 16.064 0.972,7.907 0.974,7.664 1.063 M14.992 3.170 L 14.980 3.340 14.674 3.427 C 14.196 3.563,13.442 3.678,12.690 3.729 C 11.599 3.802,10.207 3.678,9.326 3.427 L 9.020 3.340 9.008 3.170 L 8.995 3.000 12.000 3.000 L 15.005 3.000 14.992 3.170 M9.423 5.501 C 10.304 5.680,10.901 5.734,12.000 5.734 C 13.443 5.734,14.468 5.593,15.546 5.248 L 16.032 5.092 17.288 5.596 C 18.091 5.918,18.641 6.163,18.813 6.275 C 19.240 6.553,19.610 6.980,19.839 7.457 C 20.043 7.884,20.100 8.072,20.140 8.460 C 20.216 9.202,20.868 20.095,20.843 20.208 C 20.768 20.536,20.508 20.836,20.209 20.937 C 20.080 20.981,19.873 21.000,19.513 21.000 L 19.000 21.000 19.000 15.927 C 19.000 10.224,19.021 10.619,18.700 10.298 C 18.390 9.988,17.932 9.920,17.531 10.126 C 17.315 10.238,17.103 10.491,17.042 10.711 C 17.014 10.810,17.000 12.561,17.000 15.930 L 17.000 21.000 12.000 21.000 L 7.000 21.000 7.000 15.927 C 7.000 10.224,7.021 10.619,6.700 10.298 C 6.390 9.988,5.932 9.920,5.531 10.126 C 5.315 10.238,5.103 10.491,5.042 10.711 C 5.014 10.810,5.000 12.561,5.000 15.930 L 5.000 21.000 4.487 21.000 C 3.889 21.000,3.680 20.946,3.463 20.735 C 3.213 20.492,3.142 20.309,3.148 19.920 C 3.160 19.166,3.843 8.520,3.900 8.200 C 4.031 7.467,4.550 6.691,5.187 6.275 C 5.359 6.163,5.909 5.918,6.712 5.596 L 7.968 5.092 8.454 5.248 C 8.721 5.333,9.158 5.448,9.423 5.501 " fill="#000640" stroke="none" fill-rule="evenodd"></path></svg>