<svg xmlns="http://www.w3.org/2000/svg" width="24" height="24" fill="currentColor" class="mmi mmi-shocks-v2" viewBox="0 0 24 24"><path d="M8.420 1.109 C 8.116 1.151,7.687 1.298,5.762 2.020 C 4.628 2.445,3.616 2.829,3.514 2.873 C 2.678 3.234,2.019 4.018,1.795 4.917 C 1.679 5.382,1.702 6.081,1.848 6.520 C 1.903 6.685,2.823 8.749,3.893 11.107 C 5.741 15.179,5.861 15.458,6.296 16.687 C 6.547 17.398,6.790 18.066,6.835 18.170 C 7.059 18.688,7.621 19.278,8.148 19.550 C 8.541 19.752,16.750 22.488,17.240 22.580 C 17.638 22.655,18.436 22.665,18.804 22.601 C 19.784 22.428,20.666 21.973,21.354 21.283 C 22.950 19.683,23.165 17.204,21.870 15.329 C 21.461 14.737,20.742 14.126,20.096 13.820 C 19.966 13.758,18.798 13.296,17.500 12.791 C 16.202 12.287,15.073 11.831,14.992 11.778 C 14.911 11.725,14.797 11.601,14.739 11.502 C 14.681 11.404,13.944 9.426,13.101 7.107 C 12.258 4.789,11.528 2.813,11.478 2.716 C 10.922 1.620,9.630 0.941,8.420 1.109 M9.103 3.139 C 9.324 3.205,9.545 3.372,9.649 3.550 L 9.718 3.669 6.757 4.795 C 5.128 5.415,3.779 5.912,3.758 5.899 C 3.737 5.886,3.720 5.763,3.720 5.625 C 3.720 5.310,3.863 5.002,4.083 4.842 C 4.171 4.778,5.062 4.422,6.188 3.999 C 8.978 2.952,8.725 3.026,9.103 3.139 M11.621 8.883 C 12.281 10.696,12.884 12.295,12.960 12.436 C 13.136 12.764,13.604 13.261,13.944 13.482 C 14.127 13.602,14.691 13.843,15.774 14.265 C 16.797 14.663,17.344 14.896,17.353 14.936 C 17.373 15.032,17.134 15.970,16.955 16.500 C 16.763 17.070,16.391 17.859,16.042 18.440 C 15.709 18.993,15.151 19.799,15.100 19.800 C 15.065 19.800,12.516 18.962,12.490 18.941 C 12.485 18.937,12.534 18.788,12.599 18.609 C 12.812 18.026,12.890 17.534,12.869 16.920 C 12.847 16.298,12.744 15.886,12.484 15.369 C 11.966 14.340,10.971 13.517,9.880 13.215 C 9.683 13.160,9.475 13.143,9.020 13.143 C 8.359 13.144,8.097 13.190,7.529 13.406 C 7.347 13.475,7.193 13.525,7.187 13.516 C 7.114 13.416,4.600 7.787,4.619 7.767 C 4.663 7.723,10.337 5.565,10.380 5.576 C 10.402 5.582,10.960 7.070,11.621 8.883 M9.698 15.279 C 9.885 15.368,10.063 15.500,10.264 15.698 C 10.908 16.331,11.046 17.087,10.688 18.010 C 10.630 18.159,10.564 18.280,10.540 18.280 C 10.425 18.280,9.073 17.797,8.965 17.717 C 8.722 17.538,8.684 17.452,8.037 15.607 L 7.962 15.394 8.136 15.318 C 8.472 15.169,8.727 15.120,9.083 15.135 C 9.369 15.147,9.471 15.171,9.698 15.279 M19.940 16.142 C 20.789 17.000,20.943 18.332,20.315 19.386 C 20.143 19.676,19.717 20.102,19.430 20.273 C 19.036 20.508,18.674 20.611,18.173 20.631 C 17.833 20.645,17.657 20.633,17.442 20.581 C 17.287 20.542,17.152 20.499,17.143 20.484 C 17.134 20.470,17.277 20.225,17.462 19.941 C 18.266 18.702,18.834 17.427,19.138 16.180 C 19.197 15.938,19.253 15.717,19.262 15.690 C 19.287 15.611,19.664 15.862,19.940 16.142 " fill="#000640" stroke="none" fill-rule="evenodd"></path></svg>