<svg xmlns="http://www.w3.org/2000/svg" width="24" height="24" fill="currentColor" class="mmi mmi-shocks" viewBox="0 0 24 24"><path d="M10.060 1.105 C 9.627 1.190,9.508 1.222,9.300 1.309 C 8.693 1.561,8.130 2.079,7.833 2.660 L 7.662 2.994 6.061 3.010 C 4.284 3.028,4.296 3.027,3.704 3.312 C 2.811 3.741,2.209 4.540,2.041 5.522 C 2.010 5.703,2.000 7.106,2.008 10.240 L 2.020 14.700 2.130 15.012 C 2.270 15.409,2.367 15.600,2.580 15.900 C 2.781 16.184,8.599 21.694,9.069 22.047 C 9.597 22.442,10.386 22.783,11.100 22.925 C 11.266 22.957,11.633 22.980,12.000 22.980 C 12.676 22.980,12.972 22.936,13.540 22.753 C 14.479 22.449,15.316 21.859,15.981 21.032 L 16.100 20.885 16.440 20.963 C 16.930 21.077,17.718 21.104,18.233 21.025 C 20.237 20.717,21.819 19.286,22.339 17.312 C 22.720 15.863,22.418 14.342,21.499 13.080 C 21.395 12.937,20.494 12.001,19.497 11.000 L 17.685 9.180 17.669 6.420 C 17.655 4.016,17.644 3.628,17.587 3.410 C 17.272 2.215,16.407 1.384,15.232 1.143 C 14.969 1.089,14.566 1.081,12.532 1.085 C 11.216 1.087,10.104 1.096,10.060 1.105 M15.100 3.186 C 15.270 3.278,15.423 3.426,15.545 3.618 C 15.616 3.730,15.621 3.889,15.640 6.778 C 15.659 9.592,15.665 9.832,15.732 9.980 C 15.781 10.089,16.295 10.633,17.351 11.690 L 18.899 13.240 18.419 13.723 C 18.156 13.988,17.600 14.533,17.184 14.933 C 16.502 15.589,16.424 15.653,16.384 15.584 C 16.069 15.042,15.883 14.836,14.055 13.000 L 12.163 11.100 12.152 8.280 L 12.140 5.460 12.008 5.080 C 11.839 4.597,11.598 4.211,11.252 3.874 C 11.030 3.656,10.577 3.320,10.507 3.320 C 10.498 3.320,10.403 3.281,10.295 3.234 C 10.129 3.160,10.112 3.143,10.180 3.116 C 10.224 3.099,11.313 3.088,12.600 3.092 C 14.914 3.100,14.942 3.101,15.100 3.186 M9.613 5.115 C 9.839 5.226,10.054 5.497,10.118 5.748 C 10.145 5.858,10.160 6.898,10.160 8.783 C 10.160 10.851,10.173 11.697,10.207 11.815 C 10.246 11.955,10.493 12.221,11.836 13.571 L 13.419 15.161 11.279 17.297 L 9.140 19.433 8.059 18.407 L 6.977 17.380 7.189 17.067 C 8.013 15.853,8.216 14.433,7.759 13.072 C 7.291 11.674,6.165 10.593,4.756 10.186 C 4.571 10.133,4.325 10.077,4.210 10.061 L 4.000 10.032 4.000 7.943 C 4.000 5.578,3.997 5.600,4.300 5.298 C 4.601 4.997,4.531 5.004,7.120 5.013 L 9.420 5.020 9.613 5.115 M4.699 12.314 C 4.877 12.407,5.083 12.564,5.266 12.747 C 6.054 13.535,6.219 14.753,5.669 15.735 C 5.597 15.864,5.524 15.969,5.506 15.968 C 5.431 15.963,4.187 14.732,4.108 14.584 C 4.024 14.428,4.019 14.365,4.008 13.232 L 3.996 12.043 4.208 12.105 C 4.325 12.140,4.546 12.233,4.699 12.314 M20.341 15.130 C 20.498 15.593,20.527 16.317,20.408 16.789 C 20.039 18.247,18.658 19.220,17.182 19.062 L 16.910 19.033 16.935 18.866 C 16.949 18.775,16.972 18.523,16.986 18.307 L 17.012 17.915 18.594 16.357 C 19.465 15.501,20.188 14.800,20.203 14.800 C 20.218 14.800,20.280 14.948,20.341 15.130 M14.940 17.467 C 15.015 17.897,15.016 18.151,14.943 18.533 C 14.706 19.770,13.787 20.694,12.544 20.946 C 12.030 21.050,11.349 20.982,10.858 20.777 L 10.707 20.713 12.703 18.716 L 14.700 16.718 14.790 16.921 C 14.840 17.033,14.907 17.279,14.940 17.467 " fill="#000640" stroke="none" fill-rule="evenodd"></path></svg>