<svg xmlns="http://www.w3.org/2000/svg" width="24" height="24" fill="currentColor" class="mmi mmi-shootingaim" viewBox="0 0 24 24"><path d="M11.069 1.039 C 8.822 1.258,6.868 2.041,5.101 3.432 C 4.640 3.795,3.606 4.863,3.231 5.363 C 2.075 6.906,1.379 8.590,1.093 10.540 C 0.995 11.212,0.995 12.788,1.093 13.460 C 1.379 15.409,2.074 17.091,3.230 18.637 C 3.685 19.244,4.756 20.315,5.363 20.770 C 6.909 21.926,8.591 22.621,10.540 22.907 C 11.212 23.005,12.788 23.005,13.460 22.907 C 15.409 22.621,17.091 21.926,18.637 20.770 C 19.244 20.315,20.315 19.244,20.770 18.637 C 21.926 17.091,22.621 15.409,22.907 13.460 C 22.959 13.104,22.977 12.727,22.977 12.000 C 22.977 11.273,22.959 10.896,22.907 10.540 C 22.621 8.590,21.925 6.906,20.769 5.363 C 20.394 4.863,19.360 3.795,18.899 3.432 C 17.302 2.175,15.548 1.412,13.580 1.120 C 12.946 1.026,11.638 0.984,11.069 1.039 M11.000 4.610 C 11.000 5.541,11.017 6.198,11.042 6.289 C 11.103 6.509,11.315 6.762,11.531 6.874 C 11.932 7.080,12.390 7.012,12.700 6.702 C 12.993 6.409,13.000 6.359,13.000 4.613 L 13.000 3.080 13.110 3.080 C 13.441 3.080,14.477 3.325,15.080 3.545 C 18.083 4.644,20.307 7.297,20.860 10.441 C 20.893 10.627,20.920 10.830,20.920 10.890 L 20.920 11.000 19.385 11.000 C 17.725 11.000,17.655 11.008,17.374 11.222 C 17.301 11.277,17.192 11.408,17.131 11.511 C 17.036 11.672,17.020 11.744,17.020 12.000 C 17.020 12.256,17.036 12.328,17.131 12.489 C 17.192 12.592,17.301 12.723,17.374 12.778 C 17.655 12.992,17.725 13.000,19.385 13.000 L 20.920 13.000 20.920 13.110 C 20.920 13.443,20.674 14.482,20.454 15.080 C 19.783 16.902,18.553 18.451,16.920 19.531 C 15.890 20.213,14.453 20.754,13.250 20.914 L 13.000 20.947 13.000 19.401 C 13.000 17.640,12.993 17.591,12.700 17.298 C 12.390 16.988,11.932 16.920,11.531 17.126 C 11.315 17.238,11.103 17.491,11.042 17.711 C 11.017 17.802,11.000 18.464,11.000 19.403 L 11.000 20.947 10.750 20.914 C 9.232 20.712,7.579 19.994,6.341 18.997 C 4.682 17.661,3.512 15.672,3.140 13.559 C 3.107 13.373,3.080 13.171,3.080 13.110 L 3.080 13.000 4.613 13.000 C 6.358 13.000,6.409 12.993,6.701 12.701 C 7.092 12.310,7.092 11.690,6.701 11.299 C 6.409 11.007,6.358 11.000,4.613 11.000 L 3.080 11.000 3.080 10.890 C 3.080 10.559,3.325 9.523,3.545 8.920 C 4.640 5.928,7.267 3.716,10.411 3.142 C 10.570 3.112,10.768 3.087,10.850 3.084 L 11.000 3.080 11.000 4.610 " fill="#000640" stroke="none" fill-rule="evenodd"></path></svg>