<svg xmlns="http://www.w3.org/2000/svg" width="24" height="24" fill="currentColor" class="mmi mmi-shortpants-v2" viewBox="0 0 24 24"><path d="M3.664 3.063 C 3.436 3.146,3.257 3.297,3.131 3.511 L 3.020 3.700 2.999 5.420 L 2.977 7.140 1.989 13.029 C 1.445 16.269,1.000 18.970,1.000 19.032 C 1.000 19.388,1.305 19.813,1.643 19.928 C 1.740 19.961,3.676 20.220,5.945 20.503 L 10.069 21.018 10.299 20.946 C 10.458 20.896,10.581 20.821,10.697 20.705 C 10.847 20.555,10.919 20.402,11.366 19.286 L 11.866 18.034 12.158 19.007 C 12.318 19.542,12.484 20.094,12.527 20.233 C 12.654 20.646,12.975 20.932,13.370 20.984 C 13.588 21.013,22.020 20.027,22.315 19.938 C 22.688 19.825,23.000 19.413,23.000 19.032 C 23.000 18.970,22.550 16.219,22.000 12.920 L 21.000 6.921 21.000 5.388 C 21.000 3.642,20.993 3.591,20.701 3.299 C 20.376 2.973,21.147 3.000,11.983 3.003 C 5.003 3.005,3.797 3.014,3.664 3.063 M19.000 5.500 L 19.000 6.000 12.000 6.000 L 5.000 6.000 5.000 5.500 L 5.000 5.000 12.000 5.000 L 19.000 5.000 19.000 5.500 M19.161 8.030 C 19.161 8.046,19.538 10.318,19.999 13.078 C 20.460 15.839,20.827 18.106,20.816 18.117 C 20.799 18.135,14.226 18.920,14.216 18.906 C 14.213 18.903,13.964 18.072,13.661 17.060 C 12.860 14.379,12.903 14.501,12.700 14.298 C 12.521 14.119,12.234 14.000,11.980 14.000 C 11.758 14.000,11.473 14.125,11.300 14.298 C 11.149 14.449,11.061 14.649,10.243 16.694 C 9.355 18.913,9.350 18.924,9.245 18.904 C 9.187 18.892,7.799 18.717,6.160 18.515 C 4.521 18.312,3.175 18.143,3.169 18.139 C 3.163 18.135,3.536 15.861,3.999 13.086 C 4.462 10.311,4.840 8.032,4.840 8.021 C 4.840 7.988,19.160 7.997,19.161 8.030 " fill="#000640" stroke="none" fill-rule="evenodd"></path></svg>