<svg xmlns="http://www.w3.org/2000/svg" width="24" height="24" fill="currentColor" class="mmi mmi-shortpants" viewBox="0 0 24 24"><path d="M3.664 3.063 C 3.436 3.146,3.257 3.297,3.131 3.511 L 3.020 3.700 2.999 5.420 L 2.977 7.140 1.989 13.029 C 1.445 16.269,1.000 18.970,1.000 19.032 C 1.000 19.388,1.305 19.813,1.643 19.928 C 1.740 19.961,3.676 20.220,5.945 20.503 L 10.069 21.018 10.299 20.946 C 10.458 20.896,10.581 20.821,10.697 20.705 C 10.847 20.555,10.919 20.402,11.366 19.286 L 11.866 18.034 12.158 19.007 C 12.318 19.542,12.484 20.094,12.527 20.233 C 12.654 20.646,12.975 20.932,13.370 20.984 C 13.588 21.013,22.020 20.027,22.315 19.938 C 22.688 19.825,23.000 19.413,23.000 19.032 C 23.000 18.970,22.550 16.219,22.000 12.920 L 21.000 6.921 21.000 5.388 C 21.000 3.642,20.993 3.591,20.701 3.299 C 20.376 2.973,21.147 3.000,11.983 3.003 C 5.003 3.005,3.797 3.014,3.664 3.063 M19.000 5.500 L 19.000 6.000 12.000 6.000 L 5.000 6.000 5.000 5.500 L 5.000 5.000 12.000 5.000 L 19.000 5.000 19.000 5.500 M6.880 8.039 C 6.880 8.140,6.667 8.625,6.537 8.822 C 6.226 9.291,5.673 9.637,4.944 9.821 C 4.726 9.876,4.543 9.916,4.538 9.910 C 4.533 9.905,4.598 9.486,4.684 8.980 C 4.769 8.474,4.839 8.046,4.839 8.030 C 4.840 7.984,6.880 7.993,6.880 8.039 M11.000 9.570 C 11.000 10.528,11.017 11.198,11.042 11.289 C 11.103 11.509,11.315 11.762,11.531 11.874 C 11.932 12.080,12.390 12.012,12.700 11.702 C 12.994 11.408,13.000 11.363,13.000 9.573 L 13.000 8.000 14.033 8.000 L 15.066 8.000 15.137 8.330 C 15.515 10.088,16.661 11.254,18.491 11.741 C 18.699 11.796,19.082 11.873,19.343 11.912 L 19.817 11.983 20.327 15.040 C 20.607 16.721,20.827 18.106,20.816 18.117 C 20.799 18.135,14.226 18.920,14.216 18.906 C 14.213 18.903,13.964 18.072,13.661 17.060 C 12.860 14.379,12.903 14.501,12.700 14.298 C 12.521 14.119,12.234 14.000,11.980 14.000 C 11.758 14.000,11.473 14.125,11.300 14.298 C 11.149 14.449,11.061 14.649,10.243 16.694 C 9.355 18.913,9.350 18.924,9.245 18.904 C 9.187 18.892,7.799 18.717,6.160 18.515 C 4.521 18.312,3.175 18.143,3.168 18.138 C 3.156 18.129,4.151 12.147,4.183 12.037 C 4.196 11.990,4.300 11.961,4.591 11.923 C 6.935 11.618,8.426 10.364,8.863 8.330 L 8.934 8.000 9.967 8.000 L 11.000 8.000 11.000 9.570 M19.199 8.277 C 19.225 8.429,19.295 8.860,19.356 9.234 L 19.465 9.915 19.343 9.892 C 18.486 9.730,17.811 9.346,17.463 8.822 C 17.333 8.625,17.120 8.140,17.120 8.039 C 17.120 8.015,17.501 8.000,18.136 8.000 L 19.153 8.000 19.199 8.277 " fill="#000640" stroke="none" fill-rule="evenodd"></path></svg>