<svg xmlns="http://www.w3.org/2000/svg" width="24" height="24" fill="currentColor" class="mmi mmi-shuffle" viewBox="0 0 24 24"><path d="M17.656 2.043 C 17.480 2.094,17.162 2.388,17.075 2.578 C 16.975 2.800,16.978 3.168,17.083 3.400 C 17.139 3.523,17.385 3.802,17.865 4.284 L 18.565 4.987 17.992 5.013 C 17.406 5.038,16.742 5.140,16.280 5.274 C 15.010 5.643,13.835 6.388,12.957 7.380 C 12.777 7.582,11.761 9.066,10.189 11.419 C 7.850 14.921,7.683 15.161,7.323 15.521 C 6.739 16.103,6.131 16.478,5.341 16.743 C 4.786 16.928,4.274 16.999,3.495 17.000 C 2.624 17.000,2.377 17.093,2.131 17.511 C 2.036 17.672,2.020 17.744,2.020 18.000 C 2.020 18.257,2.036 18.327,2.133 18.492 C 2.195 18.597,2.315 18.734,2.401 18.796 C 2.670 18.991,2.832 19.013,3.791 18.988 C 4.507 18.970,4.745 18.948,5.142 18.864 C 6.684 18.540,8.016 17.775,9.033 16.630 C 9.227 16.412,10.169 15.038,11.811 12.580 C 14.149 9.080,14.318 8.838,14.678 8.479 C 15.609 7.549,16.707 7.076,18.080 7.013 L 18.580 6.990 17.854 7.725 C 17.193 8.395,17.123 8.479,17.064 8.677 C 16.984 8.948,16.984 9.012,17.064 9.283 C 17.156 9.590,17.419 9.849,17.735 9.940 C 18.001 10.018,18.210 10.000,18.460 9.880 C 18.564 9.830,19.193 9.227,20.245 8.171 C 21.698 6.712,21.876 6.519,21.935 6.343 C 21.971 6.234,22.000 6.080,22.000 6.000 C 22.000 5.920,21.971 5.766,21.935 5.657 C 21.876 5.481,21.697 5.287,20.245 3.829 C 18.467 2.044,18.409 1.997,18.002 2.004 C 17.880 2.006,17.724 2.023,17.656 2.043 M2.643 5.066 C 2.288 5.197,2.000 5.615,2.000 6.000 C 2.000 6.361,2.228 6.728,2.550 6.886 C 2.719 6.969,2.818 6.982,3.460 7.005 C 3.873 7.020,4.312 7.059,4.490 7.097 C 5.450 7.302,6.255 7.720,6.947 8.373 C 7.342 8.747,7.621 9.110,7.957 9.687 C 8.231 10.158,8.343 10.289,8.572 10.406 C 9.397 10.827,10.300 9.942,9.906 9.100 C 9.757 8.782,9.344 8.106,9.103 7.785 C 8.037 6.369,6.447 5.406,4.662 5.095 C 4.485 5.064,3.998 5.030,3.580 5.020 C 2.942 5.004,2.792 5.011,2.643 5.066 M17.753 14.055 C 17.147 14.220,16.850 14.891,17.130 15.460 C 17.174 15.548,17.516 15.930,17.893 16.310 L 18.577 17.000 17.839 17.000 C 16.745 17.000,16.125 16.879,15.376 16.523 C 14.764 16.231,14.401 15.963,13.721 15.299 C 13.379 14.965,13.039 14.660,12.964 14.622 C 12.754 14.514,12.397 14.495,12.174 14.580 C 11.748 14.743,11.495 15.139,11.530 15.587 C 11.559 15.942,11.664 16.094,12.326 16.741 C 13.140 17.537,13.708 17.951,14.491 18.319 C 15.541 18.813,16.475 19.000,17.894 19.000 L 18.579 19.000 17.893 19.690 C 17.471 20.114,17.173 20.449,17.119 20.558 C 16.930 20.937,17.031 21.443,17.350 21.723 C 17.552 21.901,17.741 21.970,18.025 21.970 C 18.441 21.970,18.506 21.917,20.269 20.147 C 21.699 18.711,21.876 18.519,21.935 18.343 C 22.017 18.094,22.017 17.906,21.935 17.657 C 21.876 17.481,21.699 17.289,20.269 15.853 C 19.211 14.791,18.606 14.213,18.484 14.148 C 18.251 14.023,17.992 13.990,17.753 14.055 " fill="#000640" stroke="none" fill-rule="evenodd"></path></svg>