<svg xmlns="http://www.w3.org/2000/svg" width="24" height="24" fill="currentColor" class="mmi mmi-signal-high" viewBox="0 0 24 24"><path d="M17.664 1.063 C 17.436 1.146,17.257 1.297,17.131 1.511 L 17.020 1.700 17.010 11.915 C 17.003 18.860,17.013 22.178,17.041 22.283 C 17.102 22.509,17.313 22.761,17.539 22.878 L 17.738 22.980 19.936 22.991 C 22.429 23.003,22.395 23.007,22.700 22.702 C 23.028 22.374,23.000 23.388,23.000 12.000 C 23.000 0.615,23.028 1.626,22.701 1.299 C 22.398 0.996,22.430 1.000,19.983 1.003 C 18.210 1.005,17.792 1.016,17.664 1.063 M21.000 12.000 L 21.000 21.000 20.000 21.000 L 19.000 21.000 19.000 12.000 L 19.000 3.000 20.000 3.000 L 21.000 3.000 21.000 12.000 M9.664 8.063 C 9.436 8.146,9.257 8.297,9.131 8.511 L 9.020 8.700 9.010 15.414 C 9.002 19.963,9.012 22.178,9.041 22.282 C 9.102 22.509,9.313 22.761,9.539 22.878 L 9.738 22.980 11.936 22.991 C 14.429 23.003,14.395 23.007,14.700 22.702 C 15.024 22.378,15.000 22.965,15.000 15.500 C 15.000 8.037,15.024 8.622,14.701 8.299 C 14.398 7.996,14.430 8.000,11.983 8.003 C 10.210 8.005,9.792 8.016,9.664 8.063 M13.000 15.500 L 13.000 21.000 12.000 21.000 L 11.000 21.000 11.000 15.500 L 11.000 10.000 12.000 10.000 L 13.000 10.000 13.000 15.500 M1.664 15.063 C 1.436 15.146,1.257 15.297,1.131 15.511 L 1.020 15.700 1.009 18.912 C 1.002 21.065,1.012 22.176,1.040 22.281 C 1.102 22.509,1.312 22.761,1.539 22.878 L 1.738 22.980 3.936 22.991 C 6.429 23.003,6.395 23.007,6.700 22.702 C 7.013 22.389,7.000 22.546,7.000 19.000 C 7.000 15.456,7.013 15.610,6.701 15.299 C 6.398 14.996,6.430 15.000,3.983 15.003 C 2.210 15.005,1.792 15.016,1.664 15.063 M5.000 19.000 L 5.000 21.000 4.000 21.000 L 3.000 21.000 3.000 19.000 L 3.000 17.000 4.000 17.000 L 5.000 17.000 5.000 19.000 " fill="#000640" stroke="none" fill-rule="evenodd"></path></svg>