<svg xmlns="http://www.w3.org/2000/svg" width="24" height="24" fill="currentColor" class="mmi mmi-signalbeat-v2" viewBox="0 0 24 24"><path d="M9.659 3.064 C 9.434 3.143,9.222 3.329,9.126 3.530 C 9.081 3.623,8.449 5.742,7.720 8.239 C 6.992 10.735,6.391 12.783,6.384 12.790 C 6.377 12.797,6.276 12.545,6.160 12.231 C 5.908 11.551,5.811 11.368,5.623 11.225 C 5.334 11.005,5.290 11.000,3.500 11.000 C 1.714 11.000,1.657 11.006,1.374 11.222 C 1.301 11.277,1.192 11.408,1.131 11.511 C 1.036 11.672,1.020 11.744,1.020 12.000 C 1.020 12.256,1.036 12.328,1.131 12.489 C 1.192 12.592,1.301 12.723,1.374 12.778 C 1.647 12.986,1.751 13.000,3.078 13.000 L 4.306 13.000 4.957 14.737 C 5.659 16.611,5.708 16.707,6.054 16.890 C 6.285 17.012,6.714 17.012,6.943 16.892 C 7.146 16.784,7.376 16.533,7.434 16.355 C 7.459 16.281,8.019 14.366,8.679 12.100 C 9.340 9.834,9.891 7.953,9.905 7.920 C 9.919 7.887,10.636 10.680,11.499 14.126 C 12.579 18.439,13.096 20.437,13.158 20.537 C 13.270 20.718,13.454 20.860,13.678 20.939 C 14.214 21.128,14.783 20.831,14.951 20.274 C 14.994 20.134,15.539 17.973,16.164 15.470 C 16.789 12.968,17.309 10.920,17.321 10.920 C 17.332 10.920,17.521 11.284,17.741 11.728 C 18.186 12.629,18.333 12.822,18.660 12.934 C 18.828 12.991,19.073 13.000,20.500 13.000 C 22.371 13.000,22.407 12.995,22.701 12.701 C 23.092 12.310,23.092 11.690,22.701 11.299 C 22.417 11.015,22.328 11.000,20.883 11.000 L 19.620 11.000 18.700 9.170 C 17.675 7.130,17.681 7.140,17.221 7.037 C 16.792 6.941,16.311 7.153,16.130 7.518 C 16.086 7.608,15.593 9.508,15.035 11.741 C 14.477 13.973,14.011 15.800,14.000 15.800 C 13.989 15.800,13.316 13.141,12.504 9.890 C 11.692 6.640,10.994 3.866,10.951 3.726 C 10.782 3.166,10.204 2.870,9.659 3.064 " fill="#000640" stroke="none" fill-rule="evenodd"></path></svg>