<svg xmlns="http://www.w3.org/2000/svg" width="24" height="24" fill="currentColor" class="mmi mmi-signal" viewBox="0 0 24 24"><path d="M20.680 3.268 C 20.456 3.305,20.089 3.451,19.914 3.571 C 19.811 3.642,15.981 7.072,11.401 11.194 C 5.465 16.538,3.036 18.748,2.938 18.896 C 2.412 19.688,2.519 20.723,3.197 21.404 C 3.486 21.694,3.736 21.841,4.109 21.937 C 4.326 21.993,5.242 22.000,12.774 22.000 C 18.768 22.000,21.257 21.987,21.408 21.956 C 22.158 21.799,22.799 21.158,22.956 20.408 C 23.018 20.108,23.018 5.132,22.956 4.832 C 22.745 3.821,21.694 3.098,20.680 3.268 M21.000 12.640 L 21.000 20.000 12.811 20.000 C 4.630 20.000,4.622 20.000,4.702 19.920 C 4.910 19.713,20.944 5.286,20.970 5.283 C 20.987 5.281,21.000 8.592,21.000 12.640 " fill="#000640" stroke="none" fill-rule="evenodd"></path></svg>