<svg xmlns="http://www.w3.org/2000/svg" width="24" height="24" fill="currentColor" class="mmi mmi-signal-wifi-off" viewBox="0 0 24 24"><path d="M3.100 2.169 C 2.588 2.350,2.312 2.875,2.460 3.389 C 2.523 3.608,2.568 3.662,3.362 4.460 L 4.197 5.300 3.649 5.666 C 2.683 6.311,1.464 7.349,1.256 7.703 C 0.894 8.322,1.297 9.114,2.013 9.188 C 2.377 9.225,2.590 9.127,3.015 8.725 C 3.796 7.987,4.672 7.324,5.442 6.889 L 5.664 6.763 6.400 7.500 C 6.805 7.905,7.128 8.244,7.118 8.252 C 7.108 8.260,6.938 8.353,6.740 8.458 C 5.685 9.020,4.247 10.170,4.037 10.620 C 3.864 10.989,3.988 11.532,4.305 11.794 C 4.456 11.919,4.768 12.040,4.940 12.040 C 5.209 12.040,5.430 11.918,5.875 11.523 C 6.740 10.755,7.447 10.286,8.320 9.902 L 8.655 9.755 9.427 10.527 C 9.852 10.952,10.200 11.309,10.200 11.321 C 10.200 11.333,10.015 11.403,9.790 11.477 C 8.649 11.851,7.124 12.880,6.855 13.458 C 6.628 13.944,6.823 14.519,7.300 14.772 C 7.515 14.886,7.955 14.892,8.172 14.785 C 8.255 14.743,8.462 14.583,8.632 14.428 C 9.181 13.927,9.811 13.564,10.513 13.344 C 10.901 13.222,11.486 13.120,11.799 13.120 L 12.019 13.120 15.259 16.354 C 18.286 19.376,18.512 19.592,18.689 19.639 C 19.280 19.797,19.845 19.461,19.966 18.880 C 20.005 18.695,20.001 18.621,19.943 18.420 L 19.875 18.180 11.947 10.246 C 5.495 3.788,3.983 2.294,3.820 2.216 C 3.604 2.113,3.312 2.094,3.100 2.169 M10.840 3.161 C 10.266 3.210,9.597 3.305,9.000 3.423 C 8.477 3.527,7.601 3.752,7.551 3.797 C 7.535 3.811,7.886 4.185,8.331 4.629 L 9.140 5.436 9.380 5.380 C 9.512 5.349,9.881 5.283,10.200 5.234 C 10.707 5.155,10.933 5.144,12.000 5.144 C 13.068 5.144,13.292 5.155,13.800 5.234 C 16.590 5.668,18.941 6.803,20.936 8.678 C 21.426 9.139,21.585 9.218,21.974 9.193 C 22.307 9.172,22.568 9.018,22.738 8.743 C 22.837 8.584,22.862 8.495,22.874 8.261 C 22.898 7.777,22.768 7.600,21.739 6.717 C 19.472 4.771,16.757 3.587,13.720 3.220 C 13.085 3.143,11.444 3.110,10.840 3.161 M11.130 7.147 C 11.014 7.156,10.920 7.177,10.920 7.192 C 10.920 7.208,11.357 7.656,11.890 8.187 L 12.860 9.154 13.240 9.201 C 13.737 9.263,14.554 9.469,15.124 9.677 C 16.256 10.090,17.214 10.689,18.254 11.634 C 18.679 12.020,18.936 12.102,19.344 11.981 C 19.769 11.855,20.041 11.483,20.039 11.030 C 20.038 10.684,19.949 10.516,19.575 10.151 C 18.450 9.054,16.852 8.109,15.300 7.623 C 14.273 7.302,13.357 7.160,12.200 7.142 C 11.727 7.135,11.245 7.137,11.130 7.147 M11.380 15.184 C 10.239 15.438,9.371 16.288,9.077 17.440 C 8.998 17.748,9.006 18.511,9.092 18.840 C 9.130 18.983,9.244 19.271,9.347 19.480 C 9.505 19.802,9.588 19.915,9.897 20.220 C 10.514 20.832,11.144 21.093,12.000 21.093 C 12.857 21.093,13.491 20.830,14.105 20.220 C 14.427 19.899,14.494 19.808,14.672 19.438 C 14.782 19.208,14.897 18.921,14.926 18.800 C 15.004 18.481,14.992 17.683,14.905 17.360 C 14.627 16.336,13.794 15.497,12.780 15.221 C 12.431 15.125,11.725 15.107,11.380 15.184 M12.422 17.215 C 12.885 17.430,13.103 17.948,12.940 18.441 C 12.811 18.828,12.407 19.120,12.000 19.120 C 11.599 19.120,11.187 18.823,11.060 18.441 C 10.783 17.606,11.627 16.845,12.422 17.215 " fill="#000640" stroke="none" fill-rule="evenodd"></path></svg>