<svg xmlns="http://www.w3.org/2000/svg" width="24" height="24" fill="currentColor" class="mmi mmi-signature" viewBox="0 0 24 24"><path d="M5.500 2.029 C 4.702 2.139,3.829 2.644,2.998 3.477 C 2.432 4.044,2.265 4.274,2.197 4.579 C 2.061 5.185,2.539 5.761,3.177 5.759 C 3.540 5.758,3.700 5.666,4.057 5.254 C 4.568 4.664,5.092 4.251,5.546 4.081 C 5.829 3.975,5.929 3.979,6.072 4.099 C 6.255 4.254,6.294 4.392,6.269 4.811 C 6.221 5.645,5.911 6.393,4.421 9.280 C 3.478 11.107,3.156 11.810,2.859 12.700 C 2.585 13.521,2.506 13.933,2.505 14.540 C 2.505 15.110,2.568 15.392,2.806 15.880 C 3.032 16.344,3.480 16.795,3.950 17.030 C 4.942 17.527,5.934 17.377,7.100 16.554 C 7.600 16.201,8.800 14.995,9.861 13.780 C 10.936 12.549,12.034 11.443,12.599 11.025 C 13.294 10.509,14.017 10.203,14.544 10.201 C 14.793 10.200,15.277 10.337,15.605 10.503 C 15.813 10.607,15.990 10.741,16.205 10.955 C 16.459 11.210,16.543 11.329,16.713 11.680 C 16.905 12.077,17.080 12.635,17.080 12.851 C 17.080 12.942,17.048 12.956,16.570 13.079 C 15.119 13.450,13.473 14.261,12.567 15.052 C 11.409 16.063,10.683 17.716,10.840 18.983 C 11.006 20.314,11.817 21.255,13.203 21.724 C 13.529 21.835,13.650 21.855,14.100 21.870 C 14.700 21.892,15.105 21.817,15.637 21.586 C 16.799 21.083,18.054 19.643,18.527 18.273 C 18.806 17.467,19.030 16.408,19.121 15.475 C 19.145 15.225,19.174 14.944,19.185 14.850 L 19.205 14.680 19.896 14.680 C 20.275 14.680,20.783 14.702,21.023 14.729 C 21.263 14.756,21.614 14.779,21.803 14.779 C 22.116 14.780,22.164 14.769,22.342 14.659 C 22.737 14.415,22.910 13.980,22.784 13.548 C 22.703 13.270,22.493 13.019,22.250 12.912 C 21.979 12.791,21.262 12.717,20.135 12.692 L 19.091 12.670 19.040 12.385 C 18.911 11.653,18.566 10.781,18.172 10.188 C 17.537 9.232,16.432 8.507,15.260 8.276 C 14.900 8.205,14.140 8.205,13.780 8.276 C 13.012 8.427,12.114 8.864,11.360 9.453 C 10.468 10.150,9.840 10.781,8.305 12.520 C 6.436 14.637,5.672 15.300,5.100 15.300 C 4.864 15.300,4.728 15.215,4.598 14.986 C 4.518 14.846,4.512 14.792,4.530 14.406 C 4.575 13.477,4.831 12.866,6.731 9.160 C 7.897 6.884,8.287 5.761,8.286 4.680 C 8.286 3.849,8.056 3.260,7.520 2.718 C 6.978 2.170,6.258 1.924,5.500 2.029 M17.140 15.230 C 17.016 16.328,16.745 17.475,16.490 17.980 C 16.096 18.759,15.429 19.477,14.840 19.756 C 14.651 19.845,14.566 19.860,14.240 19.860 C 13.898 19.860,13.834 19.848,13.598 19.736 C 13.057 19.480,12.841 19.166,12.840 18.638 C 12.840 18.473,12.867 18.234,12.899 18.109 C 13.034 17.593,13.513 16.850,13.933 16.507 C 14.544 16.008,15.726 15.414,16.700 15.115 C 17.193 14.964,17.170 14.958,17.140 15.230 " fill="#000640" stroke="none" fill-rule="evenodd"></path></svg>