<svg xmlns="http://www.w3.org/2000/svg" width="24" height="24" fill="currentColor" class="mmi mmi-signal-low" viewBox="0 0 24 24"><path d="M1.664 15.063 C 1.436 15.146,1.257 15.297,1.131 15.511 L 1.020 15.700 1.009 18.912 C 1.002 21.065,1.012 22.176,1.040 22.281 C 1.102 22.509,1.312 22.761,1.539 22.878 L 1.738 22.980 3.936 22.991 C 6.429 23.003,6.395 23.007,6.700 22.702 C 7.013 22.389,7.000 22.546,7.000 19.000 C 7.000 15.456,7.013 15.610,6.701 15.299 C 6.398 14.996,6.430 15.000,3.983 15.003 C 2.210 15.005,1.792 15.016,1.664 15.063 M5.000 19.000 L 5.000 21.000 4.000 21.000 L 3.000 21.000 3.000 19.000 L 3.000 17.000 4.000 17.000 L 5.000 17.000 5.000 19.000 M9.643 21.069 C 9.291 21.193,9.000 21.614,9.000 22.000 C 9.000 22.242,9.119 22.521,9.299 22.701 C 9.601 23.003,9.573 23.000,12.000 23.000 C 14.427 23.000,14.399 23.003,14.701 22.701 C 15.092 22.310,15.092 21.690,14.701 21.299 C 14.398 20.996,14.430 21.000,11.983 21.003 C 10.132 21.006,9.795 21.015,9.643 21.069 M17.643 21.069 C 17.291 21.193,17.000 21.614,17.000 22.000 C 17.000 22.242,17.119 22.521,17.299 22.701 C 17.601 23.003,17.573 23.000,20.000 23.000 C 22.427 23.000,22.399 23.003,22.701 22.701 C 22.881 22.521,23.000 22.242,23.000 22.000 C 23.000 21.758,22.881 21.479,22.701 21.299 C 22.398 20.996,22.430 21.000,19.983 21.003 C 18.132 21.006,17.795 21.015,17.643 21.069 " fill="#000640" stroke="none" fill-rule="evenodd"></path></svg>