<svg xmlns="http://www.w3.org/2000/svg" width="24" height="24" fill="currentColor" class="mmi mmi-signalbeat" viewBox="0 0 24 24"><path d="M9.664 5.061 C 9.438 5.146,9.256 5.298,9.145 5.491 C 9.093 5.584,8.650 6.861,8.161 8.330 L 7.273 11.000 4.562 11.000 C 1.618 11.000,1.670 10.996,1.374 11.222 C 1.301 11.277,1.192 11.408,1.131 11.511 C 1.036 11.672,1.020 11.744,1.020 12.000 C 1.020 12.257,1.036 12.327,1.133 12.492 C 1.265 12.716,1.487 12.889,1.728 12.956 C 1.855 12.991,2.727 13.000,5.081 12.992 L 8.262 12.980 8.461 12.878 C 8.814 12.696,8.860 12.602,9.446 10.842 C 9.739 9.961,9.988 9.240,10.000 9.240 C 10.011 9.240,10.710 11.309,11.552 13.837 C 12.686 17.239,13.115 18.476,13.201 18.595 C 13.264 18.683,13.403 18.805,13.508 18.867 C 13.673 18.964,13.743 18.980,14.000 18.980 C 14.257 18.980,14.327 18.964,14.492 18.867 C 14.597 18.805,14.737 18.681,14.802 18.590 C 14.890 18.469,15.154 17.724,15.817 15.723 L 16.712 13.020 19.486 13.000 L 22.260 12.980 22.450 12.886 C 23.052 12.590,23.180 11.778,22.700 11.298 C 22.387 10.985,22.548 10.997,18.936 11.009 L 15.738 11.020 15.539 11.122 C 15.186 11.304,15.140 11.398,14.554 13.158 C 14.261 14.039,14.012 14.760,14.000 14.760 C 13.989 14.760,13.290 12.689,12.446 10.158 C 11.204 6.430,10.888 5.524,10.786 5.390 C 10.542 5.071,10.032 4.921,9.664 5.061 " fill="#000640" stroke="none" fill-rule="evenodd"></path></svg>