<svg xmlns="http://www.w3.org/2000/svg" width="24" height="24" fill="currentColor" class="mmi mmi-six" viewBox="0 0 24 24"><path d="M11.200 0.025 C 7.091 0.332,3.508 2.609,1.507 6.186 C 0.775 7.494,0.317 8.899,0.094 10.520 C -0.002 11.214,-0.002 12.786,0.094 13.480 C 0.317 15.101,0.775 16.506,1.507 17.814 C 4.173 22.579,9.604 24.939,14.910 23.637 C 19.156 22.595,22.595 19.156,23.637 14.910 C 24.599 10.992,23.592 6.970,20.896 3.958 C 19.003 1.843,16.397 0.483,13.500 0.099 C 13.032 0.037,11.640 -0.007,11.200 0.025 M12.920 2.043 C 14.827 2.219,16.631 2.940,18.200 4.155 C 18.637 4.493,19.507 5.363,19.845 5.800 C 21.878 8.427,22.517 11.768,21.578 14.865 C 21.082 16.499,20.272 17.850,19.061 19.061 C 18.287 19.836,17.547 20.383,16.623 20.863 C 13.714 22.376,10.286 22.376,7.377 20.863 C 6.454 20.383,5.715 19.837,4.938 19.061 C 3.951 18.075,3.213 16.964,2.722 15.728 C 1.390 12.368,1.921 8.686,4.153 5.800 C 4.491 5.363,5.363 4.491,5.800 4.153 C 7.114 3.137,8.541 2.486,10.125 2.181 C 11.037 2.006,12.003 1.958,12.920 2.043 M13.900 5.510 C 13.712 5.532,13.082 5.708,12.634 5.864 C 10.916 6.462,9.521 7.573,8.620 9.060 C 7.759 10.481,7.348 12.351,7.478 14.245 C 7.537 15.092,7.628 15.507,7.860 15.986 C 8.416 17.132,9.512 18.003,10.828 18.346 C 11.311 18.472,12.208 18.517,12.722 18.442 C 14.371 18.201,15.801 17.115,16.282 15.737 C 16.547 14.980,16.547 14.020,16.282 13.263 C 15.801 11.885,14.371 10.799,12.722 10.558 C 12.516 10.528,12.164 10.517,11.786 10.531 C 11.138 10.553,10.681 10.644,10.168 10.853 L 9.916 10.956 9.943 10.868 C 9.957 10.820,10.057 10.608,10.165 10.397 C 10.659 9.429,11.440 8.651,12.455 8.117 C 12.862 7.902,13.629 7.617,14.108 7.502 C 14.497 7.408,14.726 7.256,14.878 6.992 C 14.980 6.813,14.999 6.737,15.000 6.509 C 15.000 6.360,14.975 6.178,14.945 6.106 C 14.780 5.712,14.337 5.459,13.900 5.510 M12.720 12.587 C 13.617 12.794,14.351 13.494,14.473 14.260 C 14.593 15.011,14.119 15.798,13.310 16.192 C 12.869 16.407,12.512 16.489,12.019 16.490 C 11.263 16.490,10.642 16.239,10.111 15.718 C 9.489 15.106,9.349 14.458,9.691 13.764 C 10.164 12.803,11.466 12.297,12.720 12.587 " stroke="none" fill-rule="evenodd"></path></svg>