<svg xmlns="http://www.w3.org/2000/svg" width="24" height="24" fill="currentColor" class="mmi mmi-skip-forward" viewBox="0 0 24 24"><path d="M18.995 1.387 C 18.795 1.420,18.468 1.652,18.349 1.844 C 18.156 2.158,18.162 2.316,18.417 3.536 C 18.540 4.128,18.632 4.621,18.622 4.631 C 18.611 4.642,18.499 4.561,18.371 4.452 C 17.042 3.309,15.329 2.532,13.480 2.234 C 12.752 2.116,11.339 2.107,10.620 2.216 C 8.446 2.543,6.533 3.504,4.999 5.039 C 3.394 6.643,2.407 8.709,2.160 10.980 C 2.100 11.526,2.112 12.692,2.181 13.228 C 2.682 17.067,5.307 20.239,8.960 21.418 C 11.061 22.097,13.306 22.060,15.360 21.313 C 16.906 20.750,18.176 19.895,19.329 18.640 C 20.913 16.917,21.881 14.480,21.879 12.220 C 21.879 11.800,21.867 11.715,21.785 11.537 C 21.493 10.911,20.651 10.780,20.174 11.286 C 19.945 11.531,19.912 11.643,19.876 12.318 C 19.808 13.580,19.555 14.551,19.021 15.594 C 18.068 17.458,16.447 18.850,14.480 19.496 C 13.461 19.830,12.386 19.968,11.435 19.885 C 8.878 19.663,6.717 18.373,5.342 16.247 C 5.071 15.829,4.664 14.968,4.502 14.470 C 3.889 12.593,4.013 10.486,4.840 8.695 C 5.812 6.592,7.747 4.970,9.980 4.387 C 10.727 4.192,11.117 4.145,12.000 4.145 C 13.074 4.145,13.780 4.265,14.720 4.606 C 15.690 4.959,16.860 5.697,17.500 6.361 L 17.700 6.568 17.540 6.544 C 16.933 6.454,15.073 6.282,14.940 6.303 C 14.194 6.425,13.858 7.346,14.351 7.922 C 14.496 8.091,14.699 8.214,14.900 8.254 C 15.262 8.327,20.362 8.842,20.509 8.820 C 20.738 8.787,21.034 8.579,21.171 8.356 C 21.385 8.008,21.388 8.033,20.744 4.920 C 20.423 3.369,20.131 2.034,20.096 1.954 C 20.015 1.770,19.783 1.542,19.600 1.466 C 19.439 1.399,19.148 1.361,18.995 1.387 M9.960 9.029 C 9.927 9.041,9.480 9.302,8.967 9.609 C 7.970 10.206,7.905 10.264,7.856 10.590 C 7.821 10.825,7.963 11.104,8.182 11.232 C 8.435 11.378,8.667 11.341,9.088 11.087 C 9.277 10.973,9.451 10.880,9.476 10.880 C 9.507 10.880,9.520 11.393,9.520 12.702 C 9.520 14.716,9.513 14.659,9.778 14.862 C 9.942 14.986,10.177 15.027,10.368 14.964 C 10.555 14.902,10.759 14.683,10.802 14.495 C 10.852 14.280,10.850 9.658,10.800 9.478 C 10.755 9.317,10.555 9.106,10.387 9.042 C 10.269 8.998,10.061 8.991,9.960 9.029 M13.851 9.058 C 12.987 9.255,12.229 10.058,11.952 11.069 C 11.829 11.517,11.829 12.483,11.952 12.931 C 12.091 13.440,12.371 13.932,12.719 14.284 C 14.097 15.675,16.231 14.916,16.724 12.860 C 16.844 12.360,16.844 11.640,16.724 11.140 C 16.493 10.179,15.841 9.400,15.034 9.123 C 14.706 9.011,14.184 8.982,13.851 9.058 M14.717 10.470 C 14.943 10.610,15.168 10.926,15.288 11.274 C 15.417 11.648,15.416 12.385,15.286 12.740 C 15.109 13.222,14.773 13.587,14.439 13.660 C 14.254 13.701,14.021 13.611,13.804 13.416 C 13.086 12.771,13.087 11.229,13.805 10.583 C 14.130 10.291,14.377 10.260,14.717 10.470 " fill="#000640" stroke="none" fill-rule="evenodd"></path></svg>