<svg xmlns="http://www.w3.org/2000/svg" width="24" height="24" fill="currentColor" class="mmi mmi-sleep-timer" viewBox="0 0 24 24"><path d="M11.200 0.028 C 10.795 0.053,10.025 0.162,9.520 0.265 C 6.727 0.838,4.180 2.460,2.410 4.793 C 1.201 6.386,0.442 8.222,0.109 10.359 C -0.013 11.143,-0.013 12.857,0.109 13.641 C 0.563 16.554,1.872 19.025,3.948 20.887 C 5.791 22.541,7.832 23.497,10.359 23.891 C 11.143 24.013,12.857 24.013,13.641 23.891 C 16.557 23.436,19.036 22.122,20.896 20.043 C 22.545 18.200,23.500 16.158,23.890 13.641 C 24.037 12.695,24.006 10.730,23.833 10.062 C 23.703 9.557,23.120 9.220,22.612 9.357 C 22.360 9.425,22.117 9.628,21.986 9.880 C 21.861 10.124,21.860 10.170,21.963 11.260 C 22.077 12.462,21.875 14.041,21.455 15.249 C 20.047 19.294,16.257 22.000,12.000 22.000 C 7.432 22.000,3.387 18.842,2.303 14.429 C 2.090 13.560,2.027 13.016,2.025 12.020 C 2.024 11.044,2.068 10.616,2.260 9.760 C 2.792 7.381,4.243 5.232,6.280 3.806 C 8.713 2.102,11.746 1.582,14.679 2.366 C 15.182 2.500,15.395 2.504,15.653 2.381 C 16.272 2.087,16.416 1.267,15.935 0.785 C 15.769 0.620,15.587 0.539,15.076 0.402 C 13.904 0.090,12.464 -0.049,11.200 0.028 M17.904 1.063 C 17.543 1.195,17.291 1.514,17.253 1.888 C 17.210 2.307,17.414 2.690,17.779 2.878 L 17.978 2.980 19.360 3.000 L 20.743 3.020 19.109 4.840 C 18.210 5.841,17.430 6.735,17.376 6.826 C 17.252 7.034,17.213 7.340,17.280 7.579 C 17.341 7.798,17.588 8.090,17.815 8.212 L 17.980 8.300 20.620 8.300 L 23.260 8.300 23.428 8.210 C 24.179 7.809,24.186 6.812,23.440 6.415 C 23.313 6.347,23.166 6.338,21.894 6.320 L 20.487 6.300 22.142 4.460 C 23.064 3.434,23.836 2.542,23.885 2.444 C 24.078 2.057,24.006 1.604,23.702 1.300 C 23.394 0.992,23.475 1.000,20.603 1.003 C 18.501 1.005,18.033 1.016,17.904 1.063 M18.562 10.844 C 18.453 10.865,18.260 10.963,18.062 11.097 C 17.632 11.389,17.322 11.492,16.860 11.495 C 16.421 11.499,16.110 11.403,15.700 11.139 C 15.399 10.945,15.224 10.881,14.996 10.880 C 14.658 10.880,14.311 11.093,14.140 11.406 C 13.991 11.681,13.979 12.049,14.111 12.305 C 14.340 12.747,15.170 13.226,16.056 13.428 C 16.515 13.533,17.325 13.514,17.808 13.387 C 18.672 13.161,19.517 12.626,19.698 12.191 C 19.732 12.109,19.760 11.942,19.760 11.820 C 19.760 11.436,19.580 11.128,19.255 10.954 C 19.025 10.832,18.807 10.797,18.562 10.844 M8.377 10.916 C 8.288 10.956,8.121 11.057,8.007 11.139 C 7.683 11.371,7.291 11.493,6.860 11.496 C 6.421 11.499,6.109 11.403,5.700 11.139 C 5.301 10.881,5.024 10.821,4.716 10.926 C 4.289 11.072,4.023 11.438,4.025 11.880 C 4.026 12.203,4.122 12.405,4.388 12.639 C 5.085 13.253,6.318 13.613,7.285 13.484 C 8.104 13.375,8.824 13.070,9.366 12.603 C 9.837 12.197,9.887 11.627,9.493 11.159 C 9.249 10.870,8.729 10.756,8.377 10.916 M13.562 15.844 C 13.453 15.865,13.260 15.963,13.062 16.097 C 12.632 16.389,12.322 16.492,11.860 16.495 C 11.421 16.499,11.110 16.403,10.700 16.139 C 10.399 15.945,10.224 15.881,9.996 15.880 C 9.658 15.880,9.311 16.093,9.140 16.406 C 8.991 16.681,8.979 17.049,9.111 17.305 C 9.340 17.747,10.170 18.226,11.056 18.428 C 11.515 18.533,12.325 18.514,12.808 18.387 C 13.672 18.161,14.517 17.626,14.698 17.191 C 14.732 17.109,14.760 16.942,14.760 16.820 C 14.760 16.436,14.580 16.128,14.255 15.954 C 14.025 15.832,13.807 15.797,13.562 15.844 " fill="#000640" stroke="none" fill-rule="evenodd"></path></svg>