<svg xmlns="http://www.w3.org/2000/svg" width="24" height="24" fill="currentColor" class="mmi mmi-slicingknife" viewBox="0 0 24 24"><path d="M18.640 2.065 C 18.484 2.121,17.332 3.256,9.847 10.734 C 5.110 15.467,1.190 19.416,1.135 19.508 C 0.914 19.878,0.984 20.386,1.298 20.700 C 1.611 21.013,1.454 21.000,5.000 21.000 C 7.791 21.000,8.168 20.993,8.343 20.935 C 8.525 20.875,9.092 20.319,15.671 13.745 C 20.899 8.522,22.825 6.573,22.887 6.444 C 23.006 6.200,23.024 5.935,22.940 5.674 C 22.875 5.475,22.759 5.348,21.245 3.829 C 20.086 2.666,19.569 2.173,19.441 2.111 C 19.214 2.001,18.877 1.982,18.640 2.065 M19.800 5.220 L 20.580 6.000 15.790 10.790 L 11.000 15.580 10.210 14.790 L 9.420 14.000 14.200 9.220 C 16.829 6.591,18.989 4.440,19.000 4.440 C 19.012 4.440,19.372 4.791,19.800 5.220 M8.800 16.220 L 9.579 17.000 8.580 18.000 L 7.581 19.000 6.000 19.000 L 4.420 19.000 6.200 17.220 C 7.179 16.241,7.989 15.440,8.000 15.440 C 8.012 15.440,8.371 15.791,8.800 16.220 " fill="#000640" stroke="none" fill-rule="evenodd"></path></svg>