<svg xmlns="http://www.w3.org/2000/svg" width="24" height="24" fill="currentColor" class="mmi mmi-smile-v2" viewBox="0 0 24 24"><path d="M11.200 0.025 C 7.091 0.332,3.508 2.609,1.507 6.186 C 0.775 7.494,0.317 8.899,0.094 10.520 C -0.002 11.214,-0.002 12.786,0.094 13.480 C 0.317 15.101,0.775 16.506,1.507 17.814 C 4.173 22.579,9.604 24.939,14.910 23.637 C 19.156 22.595,22.595 19.156,23.637 14.910 C 24.599 10.992,23.592 6.970,20.896 3.958 C 19.003 1.843,16.397 0.483,13.500 0.099 C 13.032 0.037,11.640 -0.007,11.200 0.025 M12.920 2.043 C 14.827 2.219,16.631 2.940,18.200 4.155 C 18.637 4.493,19.507 5.363,19.845 5.800 C 21.878 8.427,22.517 11.768,21.578 14.865 C 21.082 16.499,20.272 17.850,19.061 19.061 C 18.287 19.836,17.547 20.383,16.623 20.863 C 13.714 22.376,10.286 22.376,7.377 20.863 C 6.454 20.383,5.715 19.837,4.938 19.061 C 3.951 18.075,3.213 16.964,2.722 15.728 C 1.390 12.368,1.921 8.686,4.153 5.800 C 4.491 5.363,5.363 4.491,5.800 4.153 C 7.114 3.137,8.541 2.486,10.125 2.181 C 11.037 2.006,12.003 1.958,12.920 2.043 M7.503 7.040 C 6.803 7.167,6.116 7.574,5.670 8.127 C 5.451 8.400,5.158 8.981,5.083 9.294 C 4.993 9.673,4.983 10.088,5.060 10.320 C 5.232 10.838,5.802 11.117,6.325 10.939 C 6.727 10.802,6.945 10.491,7.003 9.974 C 7.056 9.505,7.280 9.196,7.670 9.057 C 8.297 8.833,9.000 9.332,9.000 10.000 C 9.000 10.527,9.473 11.000,10.000 11.000 C 10.396 11.000,10.808 10.709,10.934 10.340 C 11.123 9.785,10.845 8.767,10.330 8.127 C 9.953 7.660,9.336 7.256,8.756 7.097 C 8.491 7.024,7.770 6.991,7.503 7.040 M15.503 7.040 C 14.803 7.167,14.116 7.574,13.670 8.127 C 13.451 8.400,13.158 8.981,13.083 9.294 C 12.993 9.673,12.983 10.088,13.060 10.320 C 13.232 10.838,13.802 11.117,14.325 10.939 C 14.727 10.802,14.945 10.491,15.003 9.974 C 15.056 9.505,15.280 9.196,15.670 9.057 C 16.297 8.833,17.000 9.332,17.000 10.000 C 17.000 10.527,17.473 11.000,18.000 11.000 C 18.396 11.000,18.808 10.709,18.934 10.340 C 19.123 9.785,18.845 8.767,18.330 8.127 C 17.953 7.660,17.336 7.256,16.756 7.097 C 16.491 7.024,15.770 6.991,15.503 7.040 M7.664 14.063 C 7.299 14.197,7.051 14.513,7.012 14.898 C 6.983 15.176,7.081 15.487,7.390 16.094 C 8.028 17.348,9.124 18.308,10.408 18.737 C 10.958 18.921,11.336 18.978,12.000 18.978 C 12.664 18.978,13.042 18.921,13.592 18.737 C 15.089 18.237,16.341 16.990,16.895 15.448 C 16.953 15.287,17.000 15.088,17.000 15.005 C 17.000 14.604,16.711 14.193,16.340 14.066 C 15.768 13.871,15.263 14.138,15.025 14.760 C 14.418 16.347,12.923 17.247,11.408 16.937 C 10.316 16.713,9.413 15.905,8.975 14.760 C 8.740 14.146,8.208 13.863,7.664 14.063 " stroke="none" fill-rule="evenodd"></path></svg>