<svg xmlns="http://www.w3.org/2000/svg" width="24" height="24" fill="currentColor" class="mmi mmi-sneakers" viewBox="0 0 24 24"><path d="M2.643 3.068 C 2.407 3.153,2.149 3.417,2.066 3.660 C 2.014 3.813,2.000 4.011,2.000 4.597 C 1.999 6.528,1.834 8.702,1.500 11.200 C 1.077 14.358,0.974 15.696,1.011 17.566 C 1.032 18.647,1.050 18.753,1.312 19.296 C 1.614 19.924,2.095 20.398,2.740 20.704 C 3.409 21.021,2.760 21.000,12.000 21.000 C 21.240 21.000,20.591 21.021,21.260 20.704 C 21.920 20.391,22.391 19.920,22.704 19.260 C 22.986 18.665,23.009 18.454,22.990 16.646 C 22.975 15.133,22.972 15.092,22.871 14.715 C 22.542 13.495,21.715 12.494,20.538 11.892 C 20.319 11.780,19.996 11.644,19.820 11.589 C 18.684 11.233,18.043 11.012,17.640 10.838 C 17.387 10.728,16.802 10.492,16.340 10.313 C 14.673 9.669,14.376 9.506,13.931 8.993 C 13.167 8.111,12.669 7.161,12.301 5.880 C 11.875 4.399,11.036 3.473,9.779 3.095 C 9.559 3.029,9.277 3.023,6.180 3.014 C 3.204 3.006,2.800 3.012,2.643 3.068 M9.388 5.087 C 9.652 5.185,10.016 5.518,10.153 5.786 C 10.199 5.876,10.299 6.165,10.377 6.430 C 10.875 8.128,11.616 9.474,12.633 10.529 C 13.197 11.114,13.759 11.442,15.101 11.971 C 15.519 12.135,15.892 12.280,15.930 12.293 C 15.995 12.316,16.000 12.441,16.000 14.159 L 16.000 16.000 9.502 16.000 L 3.005 16.000 3.023 15.730 C 3.120 14.249,3.153 13.935,3.439 11.740 C 3.764 9.242,3.854 8.312,3.922 6.740 C 3.945 6.190,3.974 5.574,3.986 5.370 L 4.007 5.000 6.582 5.000 C 9.124 5.000,9.160 5.001,9.388 5.087 M7.503 9.040 C 6.828 9.162,6.156 9.550,5.703 10.080 C 4.987 10.917,4.806 12.100,5.234 13.151 C 5.521 13.857,6.143 14.479,6.849 14.766 C 7.989 15.230,9.251 14.978,10.115 14.115 C 11.238 12.992,11.295 11.212,10.246 10.020 C 9.897 9.624,9.276 9.239,8.756 9.097 C 8.491 9.024,7.770 8.991,7.503 9.040 M8.340 11.066 C 8.709 11.192,9.000 11.604,9.000 12.000 C 9.000 12.527,8.527 13.000,8.000 13.000 C 7.758 13.000,7.479 12.881,7.299 12.701 C 6.907 12.309,6.908 11.690,7.300 11.298 C 7.577 11.020,7.957 10.936,8.340 11.066 M18.799 13.365 C 19.578 13.601,19.923 13.782,20.286 14.143 C 20.740 14.594,20.955 15.055,20.990 15.650 L 21.011 16.000 19.506 16.000 L 18.000 16.000 18.000 14.556 C 18.000 13.206,18.004 13.113,18.069 13.138 C 18.107 13.152,18.435 13.254,18.799 13.365 M21.000 18.073 C 21.000 18.246,20.858 18.544,20.701 18.701 C 20.376 19.026,21.144 19.000,11.998 19.000 C 3.106 19.000,3.684 19.015,3.374 18.778 C 3.205 18.650,3.052 18.388,3.017 18.170 L 2.990 18.000 11.995 18.000 C 20.680 18.000,21.000 18.003,21.000 18.073 " fill="#000640" stroke="none" fill-rule="evenodd"></path></svg>