<svg xmlns="http://www.w3.org/2000/svg" width="24" height="24" fill="currentColor" class="mmi mmi-snowflake" viewBox="0 0 24 24"><path d="M11.664 1.063 C 11.436 1.146,11.257 1.297,11.131 1.511 C 11.022 1.697,11.020 1.712,11.007 2.466 L 10.994 3.231 10.434 2.898 C 10.058 2.674,9.816 2.555,9.697 2.537 C 8.994 2.432,8.408 3.025,8.550 3.700 C 8.638 4.122,8.716 4.192,9.915 4.913 L 11.000 5.565 11.000 7.903 C 11.000 9.188,10.987 10.240,10.970 10.239 C 10.954 10.239,10.040 9.718,8.940 9.082 L 6.940 7.925 6.916 6.693 C 6.901 5.927,6.873 5.394,6.843 5.286 C 6.784 5.073,6.519 4.775,6.300 4.675 C 5.928 4.505,5.387 4.629,5.126 4.945 C 4.915 5.200,4.866 5.445,4.890 6.129 C 4.901 6.454,4.899 6.720,4.884 6.720 C 4.869 6.720,4.590 6.568,4.264 6.382 C 3.885 6.165,3.609 6.034,3.498 6.018 C 3.154 5.966,2.726 6.147,2.531 6.426 C 2.341 6.700,2.302 7.135,2.442 7.425 C 2.559 7.667,2.747 7.819,3.349 8.160 C 3.640 8.325,3.879 8.469,3.879 8.480 C 3.880 8.491,3.635 8.635,3.336 8.800 C 2.581 9.216,2.399 9.439,2.400 9.945 C 2.402 10.567,3.039 11.048,3.640 10.881 C 3.717 10.859,4.264 10.574,4.855 10.246 L 5.930 9.651 6.595 10.036 C 6.961 10.247,7.868 10.771,8.610 11.199 C 9.353 11.628,9.960 11.989,9.960 12.002 C 9.960 12.042,5.949 14.341,5.903 14.327 C 5.879 14.320,5.384 14.050,4.801 13.727 C 3.751 13.146,3.740 13.141,3.458 13.126 C 3.214 13.114,3.144 13.127,2.971 13.215 C 2.468 13.470,2.281 14.029,2.526 14.548 C 2.636 14.781,2.787 14.901,3.372 15.222 C 3.651 15.375,3.879 15.509,3.879 15.520 C 3.879 15.531,3.641 15.675,3.351 15.840 C 3.060 16.005,2.755 16.200,2.673 16.273 C 2.136 16.751,2.308 17.665,2.983 17.918 C 3.394 18.072,3.545 18.034,4.329 17.585 C 4.623 17.417,4.871 17.280,4.881 17.280 C 4.892 17.280,4.900 17.590,4.900 17.970 C 4.900 18.754,4.929 18.854,5.235 19.131 C 5.694 19.546,6.407 19.439,6.737 18.906 C 6.841 18.737,6.859 18.662,6.885 18.287 C 6.902 18.052,6.916 17.461,6.917 16.974 L 6.920 16.089 8.938 14.924 C 10.048 14.284,10.966 13.760,10.978 13.760 C 10.990 13.760,11.000 14.812,11.000 16.098 L 11.000 18.435 9.970 19.054 C 9.403 19.394,8.890 19.712,8.829 19.760 C 8.516 20.007,8.413 20.558,8.609 20.940 C 8.737 21.189,8.846 21.292,9.099 21.404 C 9.510 21.585,9.772 21.519,10.570 21.029 L 11.000 20.766 11.000 21.453 C 11.000 22.221,11.027 22.364,11.212 22.607 C 11.570 23.076,12.281 23.121,12.700 22.702 C 12.958 22.444,13.000 22.270,13.000 21.456 L 13.000 20.766 13.414 21.019 C 14.068 21.419,14.223 21.488,14.477 21.490 C 14.738 21.492,15.058 21.369,15.213 21.207 C 15.371 21.042,15.495 20.729,15.493 20.500 C 15.491 20.251,15.349 19.912,15.193 19.781 C 15.129 19.727,14.610 19.402,14.039 19.059 L 13.000 18.435 13.000 16.098 C 13.000 14.812,13.010 13.760,13.022 13.760 C 13.034 13.760,13.950 14.282,15.056 14.921 L 17.068 16.082 17.091 17.331 C 17.116 18.730,17.132 18.824,17.392 19.095 C 17.588 19.299,17.809 19.398,18.075 19.399 C 18.402 19.400,18.597 19.325,18.804 19.119 C 19.084 18.840,19.132 18.654,19.114 17.897 C 19.106 17.558,19.109 17.280,19.121 17.280 C 19.132 17.280,19.330 17.390,19.561 17.524 C 20.201 17.898,20.434 18.000,20.645 18.000 C 21.139 18.000,21.532 17.678,21.643 17.184 C 21.682 17.007,21.679 16.937,21.623 16.745 C 21.525 16.409,21.355 16.248,20.696 15.870 C 20.380 15.688,20.121 15.531,20.121 15.520 C 20.121 15.509,20.366 15.365,20.666 15.200 C 21.255 14.875,21.470 14.683,21.553 14.408 C 21.724 13.837,21.402 13.255,20.842 13.120 C 20.488 13.035,20.374 13.078,19.182 13.737 L 18.072 14.351 17.086 13.783 C 14.484 12.283,14.040 12.024,14.040 12.002 C 14.040 11.964,18.055 9.659,18.097 9.672 C 18.118 9.679,18.555 9.919,19.069 10.205 C 19.584 10.491,20.098 10.769,20.212 10.822 C 20.913 11.149,21.715 10.586,21.626 9.830 C 21.575 9.394,21.400 9.208,20.662 8.800 C 20.364 8.635,20.121 8.491,20.121 8.480 C 20.122 8.469,20.376 8.316,20.685 8.140 C 21.340 7.768,21.525 7.594,21.622 7.260 C 21.833 6.533,21.134 5.835,20.400 6.039 C 20.323 6.061,20.011 6.223,19.706 6.399 C 19.401 6.576,19.140 6.720,19.126 6.720 C 19.112 6.720,19.106 6.442,19.114 6.103 C 19.125 5.613,19.115 5.446,19.064 5.292 C 18.924 4.870,18.552 4.601,18.109 4.600 C 17.821 4.600,17.655 4.668,17.425 4.880 C 17.133 5.149,17.115 5.246,17.085 6.687 L 17.060 7.926 15.060 9.082 C 13.960 9.718,13.047 10.238,13.030 10.239 C 13.013 10.240,13.000 9.190,13.000 7.906 L 13.000 5.573 14.079 4.923 C 14.673 4.565,15.211 4.213,15.274 4.140 C 15.746 3.603,15.500 2.743,14.815 2.537 C 14.436 2.422,14.296 2.463,13.566 2.898 L 13.000 3.235 13.000 2.545 C 13.000 1.730,12.958 1.556,12.701 1.299 C 12.429 1.027,12.018 0.933,11.664 1.063 " fill="#000640" stroke="none" fill-rule="evenodd"></path></svg>