<svg xmlns="http://www.w3.org/2000/svg" width="24" height="24" fill="currentColor" class="mmi mmi-soccerball" viewBox="0 0 24 24"><path d="M11.002 0.042 C 9.314 0.193,7.646 0.698,6.220 1.489 C 2.243 3.696,-0.132 7.863,0.013 12.380 C 0.118 15.649,1.543 18.729,3.948 20.887 C 5.791 22.541,7.832 23.497,10.359 23.891 C 11.143 24.013,12.857 24.013,13.641 23.891 C 16.557 23.436,19.036 22.122,20.896 20.043 C 22.545 18.200,23.498 16.163,23.891 13.641 C 24.013 12.857,24.013 11.143,23.891 10.359 C 23.557 8.220,22.799 6.386,21.588 4.790 C 19.607 2.179,16.767 0.532,13.500 0.099 C 12.917 0.022,11.574 -0.008,11.002 0.042 M12.868 2.043 C 13.150 2.067,13.393 2.099,13.409 2.114 C 13.425 2.130,13.115 2.466,12.719 2.861 L 12.000 3.579 11.281 2.861 C 10.885 2.466,10.575 2.129,10.591 2.113 C 10.682 2.022,12.102 1.979,12.868 2.043 M9.650 4.070 L 11.000 5.420 11.000 6.209 L 11.000 6.999 9.391 8.207 L 7.783 9.414 6.907 9.196 L 6.031 8.979 5.175 7.300 C 4.705 6.376,4.320 5.608,4.320 5.591 C 4.320 5.531,5.429 4.444,5.739 4.201 C 6.396 3.684,7.158 3.217,7.865 2.898 C 8.082 2.801,8.269 2.720,8.280 2.720 C 8.291 2.720,8.907 3.327,9.650 4.070 M16.420 3.041 C 17.018 3.334,17.740 3.788,18.260 4.199 C 18.572 4.445,19.680 5.532,19.680 5.591 C 19.680 5.608,19.295 6.376,18.825 7.300 L 17.969 8.979 17.093 9.196 L 16.217 9.414 14.609 8.207 L 13.000 6.999 13.000 6.210 L 13.000 5.420 14.349 4.071 C 15.438 2.981,15.714 2.725,15.779 2.744 C 15.824 2.756,16.112 2.890,16.420 3.041 M3.532 8.488 L 3.997 9.396 3.096 9.862 C 2.600 10.118,2.184 10.317,2.171 10.305 C 2.135 10.269,2.275 9.624,2.427 9.120 C 2.603 8.539,3.017 7.515,3.056 7.566 C 3.062 7.574,3.276 7.989,3.532 8.488 M21.234 8.174 C 21.543 8.925,21.906 10.227,21.829 10.305 C 21.816 10.317,21.400 10.118,20.905 9.862 L 20.004 9.396 20.472 8.480 C 20.860 7.720,20.948 7.574,20.987 7.626 C 21.013 7.660,21.124 7.906,21.234 8.174 M13.430 9.823 C 14.253 10.440,14.839 10.906,14.828 10.934 C 14.818 10.961,14.570 11.779,14.279 12.751 L 13.748 14.520 11.997 14.520 C 10.363 14.520,10.244 14.515,10.224 14.450 C 10.213 14.412,9.977 13.618,9.700 12.688 C 9.423 11.757,9.186 10.971,9.175 10.940 C 9.161 10.904,9.626 10.530,10.567 9.824 C 11.344 9.240,11.987 8.761,11.997 8.761 C 12.006 8.760,12.651 9.238,13.430 9.823 M6.380 11.125 L 7.200 11.330 7.317 11.715 C 7.709 12.996,8.400 15.324,8.400 15.364 C 8.400 15.389,8.160 15.710,7.867 16.076 L 7.334 16.741 5.497 17.031 C 4.487 17.191,3.630 17.321,3.592 17.321 C 3.548 17.320,3.444 17.178,3.297 16.918 C 2.671 15.812,2.249 14.536,2.079 13.236 C 1.996 12.599,1.814 12.758,3.740 11.777 C 4.664 11.307,5.452 10.921,5.491 10.921 C 5.530 10.920,5.930 11.012,6.380 11.125 M20.236 11.765 C 21.151 12.230,21.917 12.625,21.937 12.644 C 21.961 12.666,21.957 12.850,21.927 13.129 C 21.791 14.417,21.355 15.767,20.703 16.918 C 20.556 17.178,20.452 17.320,20.408 17.321 C 20.370 17.321,19.513 17.190,18.503 17.031 L 16.666 16.740 16.133 16.075 C 15.840 15.710,15.601 15.386,15.601 15.355 C 15.602 15.325,15.870 14.409,16.197 13.320 L 16.792 11.340 17.586 11.133 C 18.023 11.020,18.423 10.925,18.476 10.923 C 18.529 10.922,19.321 11.300,20.236 11.765 M14.497 17.231 L 15.054 17.939 14.757 19.818 L 14.460 21.697 14.160 21.766 C 13.434 21.932,12.962 21.978,12.000 21.978 C 11.038 21.978,10.566 21.932,9.840 21.766 L 9.540 21.697 9.243 19.818 L 8.946 17.939 9.503 17.231 L 10.060 16.524 12.000 16.524 L 13.940 16.524 14.497 17.231 M7.219 19.853 C 7.301 20.377,7.357 20.816,7.344 20.829 C 7.310 20.863,6.486 20.357,6.060 20.040 C 5.862 19.893,5.538 19.630,5.340 19.456 C 5.057 19.207,4.997 19.137,5.060 19.128 C 5.104 19.121,5.563 19.047,6.080 18.964 C 6.734 18.859,7.028 18.826,7.045 18.856 C 7.058 18.880,7.137 19.329,7.219 19.853 M18.359 19.034 L 19.018 19.141 18.659 19.457 C 18.462 19.630,18.138 19.893,17.940 20.040 C 17.513 20.357,16.690 20.863,16.656 20.829 C 16.634 20.808,16.894 19.044,16.943 18.876 C 16.964 18.805,16.897 18.798,18.359 19.034 " fill="#000640" stroke="none" fill-rule="evenodd"></path></svg>