<svg xmlns="http://www.w3.org/2000/svg" width="24" height="24" fill="currentColor" class="mmi mmi-sofa" viewBox="0 0 24 24"><path d="M4.503 3.042 C 3.487 3.214,2.556 3.976,2.202 4.925 C 2.017 5.422,2.001 5.604,2.001 7.347 L 2.000 8.994 1.369 9.007 C 0.783 9.019,0.723 9.027,0.539 9.122 C 0.316 9.237,0.104 9.488,0.042 9.711 C 0.015 9.809,0.000 11.294,0.000 14.072 C -0.000 18.674,-0.005 18.564,0.234 19.151 C 0.521 19.857,1.143 20.479,1.849 20.766 C 2.459 21.015,1.826 21.000,12.000 21.000 C 22.173 21.000,21.541 21.014,22.150 20.767 C 22.850 20.482,23.482 19.850,23.767 19.150 C 24.005 18.565,24.000 18.673,24.000 14.069 C 24.000 9.329,24.018 9.616,23.701 9.299 C 23.454 9.052,23.259 9.000,22.573 9.000 L 22.000 9.000 22.000 7.358 C 22.000 5.567,21.983 5.380,21.766 4.849 C 21.499 4.193,20.964 3.633,20.296 3.312 C 19.636 2.994,20.412 3.023,12.120 3.015 C 8.039 3.012,4.611 3.024,4.503 3.042 M19.340 5.066 C 19.593 5.153,19.847 5.407,19.934 5.660 C 19.991 5.828,20.000 6.068,20.000 7.425 L 20.000 8.996 18.869 9.008 C 17.745 9.020,17.736 9.021,17.539 9.122 C 17.316 9.237,17.104 9.488,17.042 9.711 C 17.016 9.805,17.000 10.627,17.000 11.930 L 17.000 14.000 12.000 14.000 L 7.000 14.000 7.000 11.927 C 7.000 9.581,7.002 9.600,6.701 9.299 C 6.423 9.021,6.308 9.000,5.073 9.000 L 4.000 9.000 4.000 7.427 C 4.000 5.637,4.006 5.592,4.300 5.298 C 4.616 4.982,3.975 5.007,11.983 5.003 C 18.550 5.000,19.162 5.006,19.340 5.066 M5.009 13.150 L 5.020 15.300 5.131 15.489 C 5.192 15.592,5.301 15.723,5.374 15.778 C 5.682 16.013,5.296 16.000,11.998 16.000 C 18.903 16.000,18.379 16.023,18.701 15.701 C 19.002 15.400,19.000 15.419,19.000 13.073 L 19.000 11.000 20.500 11.000 L 22.000 11.000 22.000 14.573 C 22.000 18.595,22.015 18.387,21.701 18.701 C 21.375 19.027,22.264 19.000,12.000 19.000 C 1.736 19.000,2.625 19.027,2.299 18.701 C 1.985 18.387,2.000 18.595,2.000 14.573 L 2.000 11.000 3.499 11.000 L 4.997 11.000 5.009 13.150 " fill="#000640" stroke="none" fill-rule="evenodd"></path></svg>