<svg xmlns="http://www.w3.org/2000/svg" width="24" height="24" fill="currentColor" class="mmi mmi-sort" viewBox="0 0 24 24"><path d="M3.670 6.177 C 2.977 6.424,2.780 7.313,3.305 7.823 C 3.638 8.146,2.873 8.120,12.000 8.120 C 21.127 8.120,20.362 8.146,20.695 7.823 C 21.220 7.313,21.023 6.424,20.330 6.177 C 20.107 6.098,3.893 6.098,3.670 6.177 M3.670 11.177 C 2.977 11.424,2.780 12.313,3.305 12.823 C 3.633 13.141,3.228 13.120,9.000 13.120 C 14.772 13.120,14.367 13.141,14.695 12.823 C 15.220 12.313,15.023 11.424,14.330 11.177 C 14.108 11.098,3.892 11.098,3.670 11.177 M3.670 16.177 C 2.977 16.424,2.780 17.313,3.305 17.823 C 3.615 18.124,3.578 18.120,6.000 18.120 C 8.422 18.120,8.385 18.124,8.695 17.823 C 9.220 17.313,9.023 16.424,8.330 16.177 C 8.111 16.099,3.889 16.099,3.670 16.177 " fill="#000640" stroke="none" fill-rule="evenodd"></path></svg>