<svg xmlns="http://www.w3.org/2000/svg" width="24" height="24" fill="currentColor" class="mmi mmi-soundmixer-horizontal-lite" viewBox="0 0 24 24"><path d="M7.467 4.044 C 6.847 4.134,6.230 4.374,5.715 4.723 C 5.368 4.959,4.939 5.396,4.684 5.775 C 4.454 6.115,4.355 6.317,4.218 6.720 L 4.130 6.980 3.435 7.001 C 2.712 7.024,2.605 7.046,2.371 7.224 C 2.084 7.443,1.938 7.901,2.037 8.268 C 2.101 8.508,2.308 8.759,2.539 8.878 C 2.723 8.973,2.786 8.981,3.434 9.000 L 4.130 9.020 4.218 9.280 C 4.423 9.884,4.724 10.368,5.178 10.822 C 5.523 11.166,5.855 11.396,6.335 11.621 C 6.914 11.893,7.311 11.978,8.000 11.978 C 8.689 11.978,9.086 11.893,9.665 11.621 C 10.380 11.285,10.930 10.814,11.340 10.185 C 11.577 9.822,11.641 9.691,11.781 9.280 L 11.870 9.020 16.565 9.000 L 21.260 8.980 21.450 8.886 C 21.677 8.774,21.855 8.570,21.939 8.325 C 22.101 7.849,21.892 7.331,21.450 7.114 L 21.260 7.020 16.565 7.000 L 11.870 6.980 11.781 6.720 C 11.641 6.309,11.577 6.178,11.340 5.815 C 11.082 5.418,10.648 4.970,10.285 4.723 C 9.452 4.158,8.408 3.906,7.467 4.044 M8.383 6.043 C 9.185 6.190,9.839 6.872,9.967 7.695 C 10.153 8.894,9.209 10.000,8.000 10.000 C 7.032 10.000,6.183 9.268,6.033 8.305 C 5.933 7.663,6.132 7.061,6.596 6.596 C 7.085 6.108,7.698 5.918,8.383 6.043 M15.467 12.044 C 14.847 12.134,14.230 12.374,13.715 12.723 C 13.368 12.959,12.939 13.396,12.684 13.775 C 12.454 14.115,12.355 14.316,12.218 14.720 L 12.130 14.980 7.435 15.000 C 2.404 15.021,2.651 15.010,2.371 15.224 C 2.084 15.443,1.938 15.901,2.037 16.268 C 2.101 16.508,2.308 16.759,2.539 16.878 L 2.738 16.980 7.434 17.000 L 12.130 17.020 12.218 17.280 C 12.423 17.884,12.724 18.368,13.178 18.822 C 13.523 19.166,13.855 19.396,14.335 19.621 C 14.914 19.893,15.311 19.978,16.000 19.978 C 16.689 19.978,17.086 19.893,17.665 19.621 C 18.380 19.285,18.930 18.814,19.340 18.185 C 19.577 17.822,19.641 17.691,19.781 17.280 L 19.870 17.020 20.565 17.000 C 21.189 16.982,21.279 16.971,21.450 16.886 C 21.677 16.774,21.855 16.570,21.939 16.325 C 22.101 15.849,21.892 15.331,21.450 15.114 C 21.279 15.029,21.189 15.018,20.565 15.000 L 19.870 14.980 19.781 14.720 C 19.641 14.309,19.577 14.178,19.340 13.815 C 19.082 13.418,18.648 12.970,18.285 12.723 C 17.452 12.158,16.408 11.906,15.467 12.044 M16.383 14.043 C 17.185 14.190,17.839 14.872,17.967 15.695 C 18.153 16.894,17.209 18.000,16.000 18.000 C 15.032 18.000,14.183 17.268,14.033 16.305 C 13.933 15.663,14.132 15.061,14.596 14.596 C 15.085 14.108,15.698 13.918,16.383 14.043 " fill="#000640" stroke="none" fill-rule="evenodd"></path></svg>