<svg xmlns="http://www.w3.org/2000/svg" width="24" height="24" fill="currentColor" class="mmi mmi-soundmixer-vertical-lite" viewBox="0 0 24 24"><path d="M7.664 2.063 C 7.436 2.146,7.257 2.297,7.131 2.511 L 7.020 2.700 7.000 7.415 L 6.980 12.130 6.720 12.218 C 5.430 12.657,4.469 13.706,4.116 15.060 C 3.981 15.577,3.981 16.423,4.116 16.940 C 4.373 17.924,4.961 18.767,5.775 19.316 C 6.115 19.546,6.317 19.645,6.720 19.782 L 6.980 19.870 7.000 20.585 C 7.019 21.277,7.024 21.306,7.131 21.489 C 7.536 22.178,8.539 22.156,8.886 21.450 C 8.971 21.279,8.982 21.189,9.000 20.565 L 9.020 19.870 9.280 19.781 C 9.691 19.641,9.822 19.577,10.185 19.340 C 10.582 19.082,11.030 18.648,11.277 18.285 C 11.522 17.923,11.777 17.360,11.885 16.940 C 12.018 16.424,12.018 15.576,11.885 15.060 C 11.777 14.640,11.522 14.077,11.277 13.715 C 10.828 13.055,10.073 12.488,9.280 12.218 L 9.020 12.130 9.000 7.435 L 8.980 2.740 8.886 2.550 C 8.669 2.109,8.128 1.893,7.664 2.063 M15.664 2.063 C 15.436 2.146,15.257 2.297,15.131 2.511 C 15.024 2.694,15.019 2.723,15.000 3.415 L 14.980 4.130 14.720 4.218 C 13.431 4.656,12.469 5.706,12.116 7.060 C 11.981 7.577,11.981 8.423,12.116 8.940 C 12.373 9.924,12.961 10.767,13.775 11.316 C 14.115 11.546,14.316 11.645,14.720 11.782 L 14.980 11.870 15.000 16.585 L 15.020 21.300 15.131 21.489 C 15.536 22.178,16.539 22.156,16.886 21.450 L 16.980 21.260 17.000 16.565 L 17.020 11.870 17.280 11.781 C 17.691 11.641,17.822 11.577,18.185 11.340 C 18.582 11.082,19.030 10.648,19.277 10.285 C 19.522 9.923,19.777 9.360,19.885 8.940 C 20.018 8.424,20.018 7.576,19.885 7.060 C 19.777 6.640,19.522 6.077,19.277 5.715 C 18.828 5.054,18.072 4.488,17.280 4.218 L 17.020 4.130 17.000 3.435 C 16.982 2.811,16.971 2.721,16.886 2.550 C 16.669 2.109,16.128 1.893,15.664 2.063 M16.383 6.043 C 17.185 6.190,17.839 6.872,17.967 7.695 C 18.153 8.894,17.209 10.000,16.000 10.000 C 15.032 10.000,14.183 9.268,14.033 8.305 C 13.933 7.663,14.132 7.061,14.596 6.596 C 15.085 6.108,15.698 5.918,16.383 6.043 M8.383 14.043 C 9.185 14.190,9.839 14.872,9.967 15.695 C 10.153 16.894,9.209 18.000,8.000 18.000 C 7.032 18.000,6.183 17.268,6.033 16.305 C 5.933 15.663,6.132 15.061,6.596 14.596 C 7.085 14.108,7.698 13.918,8.383 14.043 " fill="#000640" stroke="none" fill-rule="evenodd"></path></svg>