<svg xmlns="http://www.w3.org/2000/svg" width="24" height="24" fill="currentColor" class="mmi mmi-soundmixer-horixontal-v2" viewBox="0 0 24 24"><path d="M7.664 1.063 C 7.436 1.146,7.257 1.297,7.131 1.511 C 7.024 1.693,7.020 1.723,7.007 2.350 L 6.993 3.000 4.922 3.000 C 2.677 3.000,2.663 3.001,2.374 3.222 C 2.301 3.277,2.192 3.408,2.131 3.511 C 2.036 3.672,2.020 3.744,2.020 4.000 C 2.020 4.256,2.036 4.328,2.131 4.489 C 2.192 4.592,2.301 4.723,2.374 4.778 C 2.663 4.999,2.676 5.000,4.925 5.000 L 7.000 5.000 7.000 5.570 C 7.000 6.219,7.031 6.370,7.212 6.607 C 7.570 7.076,8.281 7.121,8.700 6.702 C 8.949 6.454,9.000 6.260,9.000 5.573 L 9.000 5.000 15.073 5.000 C 21.894 5.000,21.379 5.023,21.701 4.701 C 21.881 4.521,22.000 4.242,22.000 4.000 C 22.000 3.758,21.881 3.479,21.701 3.299 C 21.379 2.977,21.894 3.000,15.073 3.000 L 9.000 3.000 9.000 2.427 C 9.000 1.741,8.948 1.546,8.701 1.299 C 8.429 1.027,8.018 0.933,7.664 1.063 M15.664 9.063 C 15.436 9.146,15.257 9.297,15.131 9.511 C 15.024 9.693,15.020 9.723,15.007 10.350 L 14.993 11.000 8.922 11.000 C 2.303 11.000,2.682 10.987,2.374 11.222 C 2.301 11.277,2.192 11.408,2.131 11.511 C 2.036 11.672,2.020 11.744,2.020 12.000 C 2.020 12.256,2.036 12.328,2.131 12.489 C 2.192 12.592,2.301 12.723,2.374 12.778 C 2.682 13.013,2.303 13.000,8.925 13.000 L 15.000 13.000 15.000 13.570 C 15.000 14.219,15.031 14.370,15.212 14.607 C 15.570 15.076,16.281 15.121,16.700 14.702 C 16.949 14.454,17.000 14.260,17.000 13.573 L 17.000 13.000 19.073 13.000 C 21.419 13.000,21.400 13.002,21.701 12.701 C 22.092 12.310,22.092 11.690,21.701 11.299 C 21.400 10.998,21.419 11.000,19.073 11.000 L 17.000 11.000 17.000 10.427 C 17.000 9.741,16.948 9.546,16.701 9.299 C 16.429 9.027,16.018 8.933,15.664 9.063 M7.664 17.063 C 7.436 17.146,7.257 17.297,7.131 17.511 C 7.024 17.693,7.020 17.723,7.007 18.350 L 6.993 19.000 4.922 19.000 C 2.677 19.000,2.663 19.001,2.374 19.222 C 2.301 19.277,2.192 19.408,2.131 19.511 C 2.036 19.672,2.020 19.744,2.020 20.000 C 2.020 20.256,2.036 20.328,2.131 20.489 C 2.192 20.592,2.301 20.723,2.374 20.778 C 2.663 20.999,2.676 21.000,4.925 21.000 L 7.000 21.000 7.000 21.570 C 7.000 22.219,7.031 22.370,7.212 22.607 C 7.570 23.076,8.281 23.121,8.700 22.702 C 8.949 22.454,9.000 22.260,9.000 21.573 L 9.000 21.000 15.073 21.000 C 21.894 21.000,21.379 21.023,21.701 20.701 C 22.092 20.310,22.092 19.690,21.701 19.299 C 21.379 18.977,21.894 19.000,15.073 19.000 L 9.000 19.000 9.000 18.427 C 9.000 17.741,8.948 17.546,8.701 17.299 C 8.429 17.027,8.018 16.933,7.664 17.063 " fill="#000640" stroke="none" fill-rule="evenodd"></path></svg>