<svg xmlns="http://www.w3.org/2000/svg" width="24" height="24" fill="currentColor" class="mmi mmi-soundmixer-vertical-v2" viewBox="0 0 24 24"><path d="M3.664 2.063 C 3.436 2.146,3.257 2.297,3.131 2.511 L 3.020 2.700 3.009 4.850 L 2.997 7.000 2.424 7.000 C 1.631 7.000,1.371 7.103,1.131 7.511 C 1.036 7.672,1.020 7.744,1.020 8.000 C 1.020 8.256,1.036 8.328,1.131 8.489 C 1.371 8.898,1.631 9.000,2.425 9.000 L 3.000 9.000 3.000 15.070 C 3.000 19.128,3.014 21.189,3.042 21.289 C 3.103 21.509,3.315 21.762,3.531 21.874 C 3.932 22.080,4.390 22.012,4.700 21.702 C 5.023 21.379,5.000 21.896,5.000 15.073 L 5.000 9.000 5.573 9.000 C 6.259 9.000,6.454 8.948,6.701 8.701 C 7.092 8.310,7.092 7.690,6.701 7.299 C 6.454 7.052,6.259 7.000,5.573 7.000 L 5.000 7.000 5.000 4.927 C 5.000 2.581,5.002 2.600,4.701 2.299 C 4.429 2.027,4.018 1.933,3.664 2.063 M11.664 2.063 C 11.436 2.146,11.257 2.297,11.131 2.511 L 11.020 2.700 11.010 8.850 L 10.999 15.000 10.425 15.000 C 9.631 15.000,9.371 15.103,9.131 15.511 C 9.036 15.672,9.020 15.744,9.020 16.000 C 9.020 16.256,9.036 16.328,9.131 16.489 C 9.371 16.898,9.631 17.000,10.425 17.000 L 11.000 17.000 11.000 19.070 C 11.000 20.373,11.016 21.195,11.042 21.289 C 11.103 21.509,11.315 21.762,11.531 21.874 C 11.932 22.080,12.390 22.012,12.700 21.702 C 13.002 21.400,13.000 21.420,13.000 19.073 L 13.000 17.000 13.573 17.000 C 14.259 17.000,14.454 16.948,14.701 16.701 C 15.092 16.310,15.092 15.690,14.701 15.299 C 14.454 15.052,14.259 15.000,13.573 15.000 L 13.000 15.000 13.000 8.927 C 13.000 2.106,13.023 2.621,12.701 2.299 C 12.429 2.027,12.018 1.933,11.664 2.063 M19.664 2.063 C 19.436 2.146,19.257 2.297,19.131 2.511 L 19.020 2.700 19.009 4.850 L 18.997 7.000 18.424 7.000 C 17.631 7.000,17.371 7.103,17.131 7.511 C 17.036 7.672,17.020 7.744,17.020 8.000 C 17.020 8.256,17.036 8.328,17.131 8.489 C 17.371 8.898,17.631 9.000,18.425 9.000 L 19.000 9.000 19.000 15.070 C 19.000 19.128,19.014 21.189,19.042 21.289 C 19.103 21.509,19.315 21.762,19.531 21.874 C 19.932 22.080,20.390 22.012,20.700 21.702 C 21.023 21.379,21.000 21.896,21.000 15.073 L 21.000 9.000 21.573 9.000 C 22.259 9.000,22.454 8.948,22.701 8.701 C 23.092 8.310,23.092 7.690,22.701 7.299 C 22.454 7.052,22.259 7.000,21.573 7.000 L 21.000 7.000 21.000 4.927 C 21.000 2.581,21.002 2.600,20.701 2.299 C 20.429 2.027,20.018 1.933,19.664 2.063 " fill="#000640" stroke="none" fill-rule="evenodd"></path></svg>