<svg xmlns="http://www.w3.org/2000/svg" width="24" height="24" fill="currentColor" class="mmi mmi-soundmixer-vertical" viewBox="0 0 24 24"><path d="M3.664 2.063 C 3.436 2.146,3.257 2.297,3.131 2.511 L 3.020 2.700 3.008 3.932 L 2.996 5.165 2.815 5.242 C 2.716 5.284,2.512 5.399,2.362 5.496 C 1.101 6.312,0.649 7.938,1.304 9.308 C 1.579 9.885,2.116 10.421,2.702 10.702 L 3.000 10.846 3.000 15.993 C 3.000 19.415,3.014 21.190,3.042 21.289 C 3.103 21.509,3.315 21.762,3.531 21.874 C 3.932 22.080,4.390 22.012,4.700 21.702 C 5.021 21.381,5.000 21.785,5.000 15.996 L 5.000 10.846 5.298 10.702 C 6.513 10.118,7.206 8.743,6.942 7.439 C 6.744 6.454,6.080 5.626,5.182 5.241 L 5.000 5.163 5.000 4.009 C 5.000 2.683,4.982 2.580,4.701 2.299 C 4.429 2.027,4.018 1.933,3.664 2.063 M11.664 2.063 C 11.436 2.146,11.257 2.297,11.131 2.511 L 11.020 2.700 11.009 7.932 L 10.999 13.163 10.817 13.241 C 10.717 13.284,10.512 13.399,10.362 13.496 C 9.101 14.312,8.649 15.938,9.304 17.308 C 9.579 17.885,10.116 18.421,10.702 18.702 L 11.000 18.846 11.000 19.993 C 11.000 20.660,11.018 21.202,11.042 21.289 C 11.103 21.509,11.315 21.762,11.531 21.874 C 11.932 22.080,12.390 22.012,12.700 21.702 C 12.982 21.420,13.000 21.317,13.000 19.996 L 13.000 18.846 13.298 18.702 C 14.513 18.118,15.206 16.743,14.942 15.439 C 14.744 14.454,14.080 13.626,13.182 13.241 L 13.000 13.163 13.000 8.009 C 13.000 2.216,13.021 2.619,12.701 2.299 C 12.429 2.027,12.018 1.933,11.664 2.063 M19.664 2.063 C 19.436 2.146,19.257 2.297,19.131 2.511 L 19.020 2.700 19.008 3.932 L 18.996 5.165 18.815 5.242 C 18.716 5.284,18.512 5.399,18.362 5.496 C 17.101 6.312,16.649 7.938,17.304 9.308 C 17.579 9.885,18.116 10.421,18.702 10.702 L 19.000 10.846 19.000 15.993 C 19.000 19.415,19.014 21.190,19.042 21.289 C 19.103 21.509,19.315 21.762,19.531 21.874 C 19.932 22.080,20.390 22.012,20.700 21.702 C 21.021 21.381,21.000 21.785,21.000 15.996 L 21.000 10.846 21.298 10.702 C 22.513 10.118,23.206 8.743,22.942 7.439 C 22.744 6.454,22.080 5.626,21.182 5.241 L 21.000 5.163 21.000 4.009 C 21.000 2.683,20.982 2.580,20.701 2.299 C 20.429 2.027,20.018 1.933,19.664 2.063 M4.340 7.066 C 4.709 7.192,5.000 7.604,5.000 8.000 C 5.000 8.242,4.881 8.521,4.701 8.701 C 4.310 9.092,3.690 9.092,3.299 8.701 C 2.907 8.309,2.908 7.690,3.300 7.298 C 3.577 7.020,3.957 6.936,4.340 7.066 M20.340 7.066 C 20.709 7.192,21.000 7.604,21.000 8.000 C 21.000 8.527,20.527 9.000,20.000 9.000 C 19.758 9.000,19.479 8.881,19.299 8.701 C 18.907 8.309,18.908 7.690,19.300 7.298 C 19.577 7.020,19.957 6.936,20.340 7.066 M12.340 15.066 C 12.709 15.192,13.000 15.604,13.000 16.000 C 13.000 16.527,12.527 17.000,12.000 17.000 C 11.758 17.000,11.479 16.881,11.299 16.701 C 10.907 16.309,10.908 15.690,11.300 15.298 C 11.577 15.020,11.957 14.936,12.340 15.066 " fill="#000640" stroke="none" fill-rule="evenodd"></path></svg>