<svg xmlns="http://www.w3.org/2000/svg" width="24" height="24" fill="currentColor" class="mmi mmi-soundmixer-horizontal" viewBox="0 0 24 24"><path d="M7.620 1.022 C 7.576 1.032,7.441 1.061,7.320 1.085 C 6.470 1.255,5.626 1.950,5.258 2.780 L 5.161 3.000 4.006 3.000 C 2.757 3.000,2.645 3.015,2.374 3.222 C 2.301 3.277,2.192 3.408,2.131 3.511 C 2.036 3.672,2.020 3.744,2.020 4.000 C 2.020 4.256,2.036 4.328,2.131 4.489 C 2.192 4.592,2.301 4.723,2.374 4.778 C 2.645 4.985,2.757 5.000,4.002 5.000 L 5.154 5.000 5.298 5.298 C 5.668 6.068,6.401 6.675,7.240 6.906 C 7.599 7.004,8.401 7.004,8.760 6.906 C 9.599 6.675,10.332 6.068,10.702 5.298 L 10.846 5.000 15.996 5.000 C 21.783 5.000,21.381 5.021,21.701 4.701 C 22.092 4.310,22.092 3.690,21.701 3.299 C 21.381 2.979,21.784 3.000,15.992 3.000 L 10.839 3.000 10.742 2.780 C 10.387 1.978,9.629 1.333,8.764 1.099 C 8.541 1.038,7.773 0.987,7.620 1.022 M8.340 3.066 C 8.709 3.192,9.000 3.604,9.000 4.000 C 9.000 4.242,8.881 4.521,8.701 4.701 C 8.310 5.092,7.690 5.092,7.299 4.701 C 6.907 4.309,6.908 3.690,7.300 3.298 C 7.577 3.020,7.957 2.936,8.340 3.066 M15.620 9.022 C 15.576 9.032,15.441 9.061,15.320 9.085 C 14.470 9.255,13.626 9.950,13.258 10.780 L 13.161 11.000 8.006 11.000 C 2.389 11.000,2.680 10.989,2.374 11.222 C 2.301 11.277,2.192 11.408,2.131 11.511 C 2.036 11.672,2.020 11.744,2.020 12.000 C 2.020 12.256,2.036 12.328,2.131 12.489 C 2.192 12.592,2.301 12.723,2.374 12.778 C 2.680 13.011,2.390 13.000,8.002 13.000 L 13.154 13.000 13.298 13.298 C 13.579 13.884,14.115 14.421,14.692 14.697 C 15.154 14.918,15.432 14.977,16.000 14.977 C 16.568 14.977,16.846 14.918,17.308 14.697 C 17.885 14.421,18.421 13.884,18.702 13.298 L 18.846 13.000 19.996 13.000 C 21.316 13.000,21.420 12.982,21.701 12.701 C 22.092 12.310,22.092 11.690,21.701 11.299 C 21.420 11.018,21.316 11.000,19.992 11.000 L 18.839 11.000 18.742 10.780 C 18.387 9.978,17.629 9.333,16.764 9.099 C 16.541 9.038,15.773 8.987,15.620 9.022 M16.340 11.066 C 16.709 11.192,17.000 11.604,17.000 12.000 C 17.000 12.527,16.527 13.000,16.000 13.000 C 15.758 13.000,15.479 12.881,15.299 12.701 C 14.907 12.309,14.908 11.690,15.300 11.298 C 15.577 11.020,15.957 10.936,16.340 11.066 M7.620 17.022 C 7.576 17.032,7.441 17.061,7.320 17.085 C 6.470 17.255,5.626 17.950,5.258 18.780 L 5.161 19.000 4.006 19.000 C 2.757 19.000,2.645 19.015,2.374 19.222 C 2.301 19.277,2.192 19.408,2.131 19.511 C 2.036 19.672,2.020 19.744,2.020 20.000 C 2.020 20.256,2.036 20.328,2.131 20.489 C 2.192 20.592,2.301 20.723,2.374 20.778 C 2.645 20.985,2.757 21.000,4.002 21.000 L 5.154 21.000 5.298 21.298 C 5.579 21.884,6.115 22.421,6.692 22.697 C 7.154 22.918,7.432 22.977,8.000 22.977 C 8.568 22.977,8.846 22.918,9.308 22.697 C 9.885 22.421,10.421 21.884,10.702 21.298 L 10.846 21.000 15.996 21.000 C 21.783 21.000,21.381 21.021,21.701 20.701 C 22.092 20.310,22.092 19.690,21.701 19.299 C 21.381 18.979,21.784 19.000,15.992 19.000 L 10.839 19.000 10.742 18.780 C 10.387 17.978,9.629 17.333,8.764 17.099 C 8.541 17.038,7.773 16.987,7.620 17.022 M8.340 19.066 C 8.709 19.192,9.000 19.604,9.000 20.000 C 9.000 20.527,8.527 21.000,8.000 21.000 C 7.758 21.000,7.479 20.881,7.299 20.701 C 6.907 20.309,6.908 19.690,7.300 19.298 C 7.577 19.020,7.957 18.936,8.340 19.066 " fill="#000640" stroke="none" fill-rule="evenodd"></path></svg>