<svg xmlns="http://www.w3.org/2000/svg" width="24" height="24" fill="currentColor" class="mmi mmi-sparkle-v2" viewBox="0 0 24 24"><path d="M11.664 1.063 C 11.436 1.146,11.257 1.297,11.131 1.511 L 11.020 1.700 11.009 5.639 L 10.998 9.578 8.269 6.851 C 6.172 4.755,5.498 4.105,5.360 4.043 C 4.701 3.746,3.951 4.224,3.949 4.941 C 3.948 5.373,3.895 5.312,6.851 8.270 L 9.580 11.000 5.715 11.000 C 1.511 11.000,1.676 10.992,1.374 11.222 C 1.301 11.277,1.192 11.408,1.131 11.511 C 1.036 11.672,1.020 11.744,1.020 12.000 C 1.020 12.256,1.036 12.328,1.131 12.489 C 1.192 12.592,1.301 12.723,1.374 12.778 C 1.676 13.008,1.511 13.000,5.714 13.000 L 9.579 13.000 6.812 15.770 C 4.049 18.537,4.046 18.540,3.978 18.776 C 3.867 19.164,3.961 19.517,4.246 19.786 C 4.532 20.054,4.846 20.130,5.224 20.022 C 5.460 19.954,5.463 19.951,8.230 17.188 L 11.000 14.421 11.000 18.281 C 11.000 20.816,11.015 22.191,11.042 22.289 C 11.103 22.509,11.315 22.762,11.531 22.874 C 11.932 23.080,12.390 23.012,12.700 22.702 C 13.017 22.385,13.000 22.631,13.000 18.283 L 13.000 14.420 15.730 17.149 C 18.688 20.105,18.627 20.052,19.059 20.051 C 19.600 20.050,20.051 19.602,20.051 19.067 C 20.051 18.626,20.111 18.695,17.149 15.730 L 14.421 13.000 18.283 13.000 C 22.629 13.000,22.386 13.016,22.701 12.701 C 23.092 12.310,23.092 11.690,22.701 11.299 C 22.386 10.984,22.629 11.000,18.283 11.000 L 14.421 11.000 17.149 8.270 C 20.104 5.313,20.052 5.372,20.051 4.941 C 20.050 4.387,19.618 3.959,19.062 3.961 C 18.907 3.961,18.756 3.991,18.640 4.043 C 18.502 4.105,17.828 4.755,15.730 6.851 L 13.000 9.579 13.000 5.717 C 13.000 1.371,13.016 1.614,12.701 1.299 C 12.429 1.027,12.018 0.933,11.664 1.063 " fill="#000640" stroke="none" fill-rule="evenodd"></path></svg>