<svg xmlns="http://www.w3.org/2000/svg" width="24" height="24" fill="currentColor" class="mmi mmi-sparkle" viewBox="0 0 24 24"><path d="M11.664 1.063 C 11.436 1.146,11.257 1.297,11.131 1.511 L 11.020 1.700 11.009 6.350 L 10.999 11.000 6.424 11.000 C 1.444 11.000,1.678 10.990,1.374 11.222 C 1.301 11.277,1.192 11.408,1.131 11.511 C 1.036 11.672,1.020 11.744,1.020 12.000 C 1.020 12.256,1.036 12.328,1.131 12.489 C 1.192 12.592,1.301 12.723,1.374 12.778 C 1.678 13.010,1.444 13.000,6.425 13.000 L 11.000 13.000 11.000 17.570 C 11.000 20.595,11.014 22.190,11.042 22.289 C 11.103 22.509,11.315 22.762,11.531 22.874 C 11.932 23.080,12.390 23.012,12.700 22.702 C 13.019 22.383,13.000 22.716,13.000 17.573 L 13.000 13.000 17.573 13.000 C 22.714 13.000,22.383 13.019,22.701 12.701 C 23.092 12.310,23.092 11.690,22.701 11.299 C 22.383 10.981,22.714 11.000,17.573 11.000 L 13.000 11.000 13.000 6.427 C 13.000 1.286,13.019 1.617,12.701 1.299 C 12.429 1.027,12.018 0.933,11.664 1.063 M4.645 4.046 C 4.456 4.100,4.098 4.468,4.044 4.664 C 3.970 4.929,3.990 5.204,4.099 5.422 C 4.173 5.571,4.605 6.026,5.829 7.245 C 7.287 8.697,7.481 8.876,7.657 8.935 C 8.041 9.062,8.425 8.977,8.697 8.705 C 8.980 8.423,9.064 8.048,8.935 7.657 C 8.876 7.481,8.697 7.287,7.245 5.829 C 5.467 4.044,5.409 3.997,5.002 4.004 C 4.880 4.006,4.719 4.025,4.645 4.046 M18.800 4.037 C 18.723 4.053,18.588 4.104,18.500 4.150 C 18.265 4.274,15.231 7.332,15.119 7.558 C 15.012 7.773,14.998 8.150,15.089 8.363 C 15.318 8.898,15.970 9.134,16.469 8.862 C 16.742 8.713,19.755 5.693,19.881 5.442 C 19.987 5.229,20.001 4.854,19.910 4.637 C 19.732 4.212,19.238 3.945,18.800 4.037 M7.640 15.068 C 7.488 15.120,7.211 15.378,5.847 16.735 C 4.073 18.500,4.031 18.552,4.029 18.979 C 4.028 19.257,4.097 19.446,4.277 19.650 C 4.567 19.981,5.083 20.072,5.470 19.862 C 5.608 19.787,6.159 19.261,7.269 18.147 C 8.699 16.711,8.876 16.519,8.935 16.343 C 9.064 15.954,8.979 15.577,8.701 15.299 C 8.423 15.021,8.027 14.935,7.640 15.068 M15.753 15.055 C 15.115 15.229,14.830 15.951,15.171 16.527 C 15.326 16.787,18.339 19.771,18.558 19.881 C 18.933 20.068,19.445 19.967,19.723 19.650 C 20.000 19.335,20.055 18.886,19.862 18.531 C 19.721 18.272,16.693 15.244,16.460 15.129 C 16.242 15.022,15.977 14.994,15.753 15.055 " fill="#000640" stroke="none" fill-rule="evenodd"></path></svg>