<svg xmlns="http://www.w3.org/2000/svg" width="24" height="24" fill="currentColor" class="mmi mmi-speaker" viewBox="0 0 24 24"><path d="M5.651 0.061 C 4.880 0.228,4.229 0.899,4.060 1.700 C 3.971 2.123,3.971 21.877,4.060 22.300 C 4.231 23.108,4.855 23.752,5.650 23.940 C 6.026 24.029,17.974 24.029,18.350 23.940 C 19.145 23.752,19.769 23.108,19.940 22.300 C 20.029 21.877,20.029 2.123,19.940 1.700 C 19.769 0.889,19.118 0.226,18.331 0.059 C 17.939 -0.024,6.033 -0.022,5.651 0.061 M18.257 1.535 C 18.339 1.598,18.441 1.706,18.483 1.775 C 18.558 1.897,18.560 2.127,18.560 11.992 C 18.560 20.601,18.552 22.100,18.504 22.192 C 18.419 22.354,18.231 22.517,18.077 22.561 C 17.891 22.614,6.109 22.614,5.923 22.561 C 5.769 22.517,5.581 22.354,5.496 22.192 C 5.448 22.100,5.440 20.601,5.440 11.992 C 5.440 2.127,5.442 1.897,5.517 1.775 C 5.602 1.635,5.818 1.459,5.940 1.428 C 5.984 1.418,8.739 1.411,12.063 1.414 L 18.106 1.420 18.257 1.535 M11.250 2.798 C 10.869 2.901,10.652 3.000,10.321 3.219 C 9.788 3.574,9.337 4.166,9.127 4.789 C 9.032 5.072,9.022 5.157,9.023 5.720 C 9.023 6.287,9.032 6.367,9.130 6.660 C 9.190 6.836,9.306 7.097,9.389 7.240 C 9.583 7.574,10.146 8.137,10.480 8.331 C 11.383 8.855,12.614 8.856,13.520 8.332 C 13.852 8.139,14.415 7.576,14.611 7.240 C 14.694 7.097,14.810 6.836,14.870 6.660 C 14.968 6.367,14.977 6.287,14.977 5.720 C 14.977 5.153,14.968 5.073,14.870 4.780 C 14.716 4.322,14.506 3.988,14.140 3.617 C 13.773 3.245,13.387 3.000,12.931 2.850 C 12.497 2.707,11.681 2.682,11.250 2.798 M12.680 4.263 C 13.695 4.744,13.924 6.097,13.122 6.878 C 12.338 7.641,11.015 7.405,10.554 6.419 C 10.131 5.516,10.548 4.546,11.518 4.176 C 11.609 4.141,11.796 4.125,12.040 4.131 C 12.371 4.139,12.454 4.156,12.680 4.263 M11.320 9.841 C 10.881 9.902,10.477 10.002,10.080 10.148 C 8.238 10.826,6.875 12.469,6.541 14.415 C 6.462 14.877,6.462 15.803,6.541 16.265 C 6.816 17.865,7.788 19.277,9.180 20.100 C 11.728 21.605,15.005 20.846,16.624 18.376 C 17.236 17.443,17.520 16.482,17.520 15.342 C 17.520 14.669,17.446 14.179,17.259 13.614 C 16.628 11.704,15.016 10.285,13.040 9.901 C 12.639 9.822,11.689 9.789,11.320 9.841 M13.020 11.337 C 14.005 11.591,14.890 12.220,15.452 13.067 C 16.505 14.653,16.319 16.777,15.005 18.170 C 14.479 18.727,13.775 19.144,13.019 19.347 C 12.668 19.441,12.546 19.454,12.000 19.454 C 11.458 19.454,11.331 19.440,10.992 19.350 C 9.418 18.928,8.268 17.717,7.941 16.138 C 7.854 15.720,7.854 14.960,7.941 14.540 C 8.287 12.859,9.598 11.580,11.300 11.262 C 11.774 11.173,12.510 11.205,13.020 11.337 M11.500 13.059 C 11.025 13.163,10.504 13.476,10.212 13.833 C 10.017 14.072,9.813 14.471,9.739 14.760 C 9.650 15.106,9.673 15.767,9.785 16.085 C 10.067 16.886,10.822 17.522,11.635 17.644 C 13.118 17.865,14.449 16.544,14.242 15.056 C 14.161 14.475,13.964 14.077,13.558 13.675 C 13.011 13.133,12.230 12.899,11.500 13.059 M12.220 14.444 C 12.414 14.493,12.691 14.708,12.779 14.878 C 12.906 15.124,12.932 15.339,12.863 15.576 C 12.601 16.478,11.401 16.482,11.139 15.582 C 11.035 15.226,11.144 14.879,11.435 14.634 C 11.695 14.416,11.906 14.365,12.220 14.444 " fill="#000640" stroke="none" fill-rule="evenodd"></path></svg>