<svg xmlns="http://www.w3.org/2000/svg" width="24" height="24" fill="currentColor" class="mmi mmi-speedometer-v2" viewBox="0 0 24 24"><path d="M11.180 3.024 C 8.050 3.268,5.376 4.377,3.136 6.360 C 2.656 6.785,1.951 7.541,1.599 8.008 C 1.243 8.480,1.197 8.866,1.446 9.270 C 1.518 9.386,7.259 14.406,7.572 14.626 C 7.783 14.775,8.041 14.825,8.308 14.769 C 8.597 14.708,8.733 14.611,9.054 14.234 C 9.353 13.885,9.731 13.588,10.171 13.358 C 10.451 13.211,10.880 13.040,10.966 13.040 C 10.985 13.040,11.000 13.516,11.000 14.098 L 11.000 15.157 10.716 15.299 C 9.878 15.720,9.359 16.342,9.097 17.240 C 8.991 17.604,8.991 18.396,9.097 18.760 C 9.204 19.126,9.328 19.397,9.512 19.667 C 10.581 21.238,12.778 21.452,14.115 20.115 C 15.292 18.938,15.290 17.054,14.112 15.876 C 13.884 15.648,13.466 15.363,13.182 15.241 L 13.000 15.163 13.000 14.101 C 13.000 13.518,13.015 13.040,13.034 13.040 C 13.122 13.040,13.552 13.212,13.848 13.367 C 14.269 13.586,14.698 13.927,14.976 14.264 C 15.233 14.575,15.402 14.699,15.657 14.763 C 15.866 14.816,16.072 14.798,16.283 14.710 C 16.469 14.632,22.446 9.445,22.557 9.264 C 22.702 9.031,22.743 8.738,22.668 8.479 C 22.583 8.189,22.085 7.564,21.360 6.840 C 19.283 4.762,16.645 3.493,13.580 3.097 C 13.148 3.041,11.574 2.993,11.180 3.024 M12.868 5.042 C 15.570 5.261,18.005 6.355,19.892 8.198 L 20.324 8.620 18.596 10.120 C 17.645 10.945,16.663 11.797,16.413 12.014 L 15.960 12.407 15.770 12.249 C 15.090 11.683,14.094 11.204,13.250 11.039 L 13.000 10.990 13.000 9.425 C 13.000 8.470,12.983 7.802,12.958 7.711 C 12.897 7.491,12.685 7.238,12.469 7.126 C 12.068 6.920,11.610 6.988,11.300 7.298 C 11.006 7.591,11.000 7.637,11.000 9.422 L 11.000 10.990 10.750 11.039 C 9.907 11.204,8.910 11.683,8.231 12.249 L 8.042 12.406 5.891 10.541 C 4.708 9.515,3.735 8.653,3.729 8.625 C 3.713 8.560,4.438 7.859,4.921 7.471 C 6.103 6.524,7.647 5.751,9.099 5.380 C 10.374 5.054,11.633 4.941,12.868 5.042 M12.340 17.066 C 12.838 17.236,13.117 17.820,12.939 18.322 C 12.692 19.024,11.821 19.223,11.296 18.698 C 11.124 18.526,11.000 18.234,11.000 18.000 C 11.000 17.766,11.124 17.474,11.296 17.302 C 11.577 17.020,11.955 16.935,12.340 17.066 " fill="#000640" stroke="none" fill-rule="evenodd"></path></svg>