<svg xmlns="http://www.w3.org/2000/svg" width="24" height="24" fill="currentColor" class="mmi mmi-speedometer" viewBox="0 0 24 24"><path d="M11.020 2.044 C 5.590 2.485,1.103 6.582,0.181 11.940 C 0.030 12.820,-0.014 13.439,0.012 14.336 C 0.069 16.333,0.605 18.248,1.589 19.968 C 1.879 20.475,2.420 21.257,2.727 21.612 C 3.173 22.127,3.826 22.151,4.267 21.670 C 4.448 21.473,4.520 21.280,4.518 21.000 C 4.516 20.731,4.439 20.561,4.151 20.193 C 3.012 18.734,2.316 17.061,2.074 15.200 C 2.009 14.704,2.009 13.284,2.073 12.800 C 2.289 11.174,2.816 9.760,3.700 8.440 C 5.173 6.240,7.437 4.723,10.020 4.204 C 10.720 4.063,11.159 4.023,12.000 4.023 C 12.841 4.023,13.280 4.063,13.980 4.204 C 17.909 4.993,21.007 8.091,21.796 12.020 C 21.938 12.723,21.977 13.161,21.977 14.000 C 21.976 14.877,21.936 15.294,21.777 16.068 C 21.482 17.507,20.803 18.973,19.891 20.139 C 19.502 20.636,19.426 20.875,19.537 21.257 C 19.697 21.805,20.233 22.101,20.780 21.942 C 21.074 21.856,21.283 21.649,21.776 20.954 C 23.168 18.991,23.919 16.739,23.988 14.320 C 24.012 13.442,23.975 12.885,23.836 12.040 C 23.242 8.425,21.021 5.289,17.780 3.486 C 15.783 2.376,13.343 1.855,11.020 2.044 M17.640 9.068 C 17.487 9.121,17.199 9.390,15.740 10.844 L 14.019 12.559 13.900 12.487 C 13.686 12.358,13.187 12.170,12.860 12.094 C 12.390 11.986,11.541 11.995,11.062 12.114 C 9.612 12.473,8.502 13.584,8.115 15.065 C 7.986 15.559,7.983 16.421,8.109 16.920 C 8.365 17.932,8.966 18.787,9.809 19.336 C 11.668 20.548,14.114 20.040,15.348 18.187 C 15.563 17.864,15.766 17.399,15.888 16.947 C 16.015 16.478,16.016 15.525,15.890 15.059 C 15.794 14.706,15.600 14.210,15.502 14.071 C 15.441 13.984,15.478 13.944,17.155 12.261 C 18.692 10.719,18.876 10.520,18.935 10.343 C 19.064 9.954,18.979 9.577,18.701 9.299 C 18.423 9.021,18.027 8.935,17.640 9.068 M12.383 14.043 C 13.185 14.190,13.839 14.872,13.967 15.695 C 14.153 16.894,13.209 18.000,12.000 18.000 C 11.032 18.000,10.183 17.268,10.033 16.305 C 9.933 15.663,10.132 15.061,10.596 14.596 C 11.085 14.108,11.698 13.918,12.383 14.043 " fill="#000640" stroke="none" fill-rule="evenodd"></path></svg>