<svg xmlns="http://www.w3.org/2000/svg" width="24" height="24" fill="currentColor" class="mmi mmi-sportbra" viewBox="0 0 24 24"><path d="M4.664 3.063 C 4.256 3.212,4.057 3.499,3.997 4.025 C 3.906 4.827,3.756 5.242,2.672 7.698 C 1.172 11.094,0.761 12.506,0.812 14.100 C 0.834 14.800,0.908 15.172,1.129 15.696 C 1.411 16.366,2.055 17.100,2.693 17.480 L 2.995 17.660 3.007 18.980 L 3.020 20.300 3.131 20.489 C 3.192 20.592,3.301 20.723,3.374 20.778 C 3.684 21.015,3.106 21.000,11.998 21.000 C 21.144 21.000,20.376 21.026,20.701 20.701 C 20.985 20.417,21.000 20.326,21.000 18.900 L 21.000 17.655 21.170 17.561 C 21.626 17.311,22.230 16.768,22.507 16.360 C 22.973 15.674,23.200 14.867,23.200 13.891 C 23.200 12.465,22.755 10.942,21.520 8.140 C 20.462 5.741,20.187 5.044,20.061 4.447 C 20.028 4.286,20.000 4.087,20.000 4.005 C 20.000 3.604,19.711 3.193,19.340 3.066 C 19.064 2.972,16.941 2.968,16.678 3.061 C 16.438 3.145,16.260 3.291,16.134 3.507 C 16.033 3.679,16.024 3.735,15.991 4.395 C 15.860 7.004,15.202 8.257,13.700 8.755 C 12.471 9.163,10.630 9.045,9.709 8.499 C 8.873 8.004,8.369 7.136,8.141 5.802 C 8.068 5.372,8.001 4.599,8.000 4.177 C 8.000 3.760,7.916 3.514,7.701 3.299 C 7.419 3.017,7.318 3.000,5.983 3.003 C 5.079 3.005,4.785 3.018,4.664 3.063 M6.074 5.470 C 6.219 6.866,6.646 8.103,7.278 8.954 C 7.760 9.602,8.533 10.210,9.244 10.499 C 10.027 10.817,10.724 10.956,11.703 10.988 C 14.709 11.089,16.690 9.852,17.525 7.354 C 17.718 6.777,17.860 6.112,17.925 5.476 C 17.968 5.057,17.983 5.000,18.048 5.000 C 18.089 5.000,18.129 5.022,18.137 5.050 C 18.404 5.971,18.664 6.634,19.480 8.481 C 20.612 11.042,20.977 12.078,21.145 13.217 C 21.256 13.974,21.170 14.734,20.929 15.114 C 20.717 15.450,20.422 15.707,20.012 15.915 L 19.843 16.000 12.000 16.000 L 4.157 16.000 3.969 15.904 C 3.429 15.630,3.066 15.233,2.910 14.744 C 2.785 14.353,2.772 13.691,2.878 13.066 C 3.075 11.911,3.436 10.913,4.649 8.180 C 5.317 6.674,5.577 6.003,5.863 5.050 C 5.871 5.022,5.911 5.000,5.951 5.000 C 6.016 5.000,6.031 5.057,6.074 5.470 M19.000 18.500 L 19.000 19.000 12.000 19.000 L 5.000 19.000 5.000 18.500 L 5.000 18.000 12.000 18.000 L 19.000 18.000 19.000 18.500 " fill="#000640" stroke="none" fill-rule="evenodd"></path></svg>