<svg xmlns="http://www.w3.org/2000/svg" width="24" height="24" fill="currentColor" class="mmi mmi-sprout" viewBox="0 0 24 24"><path d="M3.540 0.749 C 3.050 0.816,2.566 1.032,2.294 1.304 C 1.834 1.764,1.608 2.776,1.718 3.878 C 2.079 7.482,4.395 10.620,7.725 12.014 C 8.891 12.503,10.342 12.849,11.615 12.943 L 12.000 12.971 12.000 14.997 L 12.000 17.024 11.390 17.071 C 9.480 17.220,8.072 17.637,6.944 18.389 C 5.737 19.193,5.031 20.453,5.023 21.820 C 5.020 22.275,5.026 22.310,5.131 22.489 C 5.192 22.592,5.301 22.723,5.374 22.778 C 5.683 23.014,5.248 23.000,12.498 23.000 C 19.965 23.000,19.378 23.024,19.702 22.700 C 19.945 22.457,20.018 22.209,19.987 21.723 C 19.921 20.654,19.400 19.573,18.583 18.811 C 17.543 17.839,16.150 17.279,14.230 17.060 L 14.000 17.034 14.000 16.005 L 14.000 14.975 14.530 14.906 C 16.659 14.630,18.362 13.837,19.669 12.514 C 20.379 11.795,20.791 11.218,21.239 10.312 C 21.856 9.067,22.201 7.519,22.116 6.379 C 22.060 5.621,21.745 5.167,21.142 4.974 C 20.832 4.875,19.920 4.856,19.358 4.938 C 18.391 5.078,17.579 5.329,16.700 5.760 C 15.553 6.322,14.648 7.042,13.868 8.014 C 13.634 8.306,13.578 8.356,13.556 8.294 C 13.541 8.254,13.439 7.941,13.329 7.600 C 12.616 5.374,11.279 3.597,9.348 2.308 C 8.872 1.991,7.831 1.466,7.266 1.260 C 6.745 1.069,5.927 0.864,5.373 0.784 C 4.959 0.725,3.865 0.704,3.540 0.749 M5.540 2.841 C 8.460 3.477,10.692 5.599,11.535 8.544 C 11.781 9.405,11.862 9.433,10.654 8.232 C 9.500 7.085,9.390 7.002,9.020 7.001 C 8.722 7.000,8.551 7.062,8.339 7.249 C 8.097 7.462,8.002 7.669,8.002 7.980 C 8.002 8.396,8.059 8.474,9.231 9.650 C 9.818 10.239,10.280 10.720,10.259 10.719 C 10.182 10.718,9.613 10.565,9.233 10.443 C 8.399 10.175,7.511 9.721,6.820 9.211 C 6.339 8.856,5.521 8.027,5.200 7.570 C 4.185 6.127,3.633 4.445,3.720 3.060 L 3.740 2.740 4.020 2.720 C 4.433 2.690,5.086 2.743,5.540 2.841 M20.105 7.166 C 20.015 8.132,19.573 9.357,19.018 10.180 C 17.991 11.702,16.496 12.594,14.462 12.899 C 14.244 12.931,14.061 12.954,14.056 12.949 C 14.036 12.927,14.205 11.932,14.280 11.642 C 14.529 10.663,15.018 9.720,15.653 8.993 C 16.515 8.004,17.934 7.224,19.353 6.960 C 19.566 6.920,19.828 6.886,19.936 6.884 L 20.131 6.880 20.105 7.166 M14.440 19.101 C 15.761 19.303,16.712 19.732,17.342 20.409 C 17.473 20.549,17.622 20.740,17.673 20.832 L 17.765 21.000 12.480 21.000 L 7.195 21.000 7.295 20.833 C 7.901 19.817,9.433 19.204,11.778 19.040 C 12.478 18.991,13.941 19.024,14.440 19.101 " fill="#000640" stroke="none" fill-rule="evenodd"></path></svg>