<svg xmlns="http://www.w3.org/2000/svg" width="24" height="24" fill="currentColor" class="mmi mmi-square-block-move" viewBox="0 0 24 24"><path d="M16.862 1.906 C 16.099 2.070,15.819 2.272,14.480 3.627 C 13.298 4.823,13.200 4.950,12.986 5.550 C 12.867 5.883,12.861 5.930,12.861 6.500 C 12.861 7.070,12.867 7.117,12.986 7.450 C 13.204 8.063,13.289 8.170,14.559 9.441 C 15.830 10.711,15.937 10.796,16.550 11.014 C 16.883 11.133,16.929 11.139,17.500 11.138 C 18.052 11.138,18.126 11.129,18.420 11.027 C 19.047 10.809,19.203 10.687,20.445 9.445 C 21.687 8.203,21.809 8.047,22.027 7.420 C 22.129 7.125,22.138 7.053,22.138 6.500 C 22.138 5.947,22.129 5.875,22.027 5.580 C 21.813 4.965,21.679 4.792,20.504 3.607 C 19.398 2.492,19.121 2.261,18.660 2.068 C 18.135 1.848,17.429 1.785,16.862 1.906 M4.503 2.041 C 3.482 2.218,2.556 2.976,2.202 3.925 C 2.014 4.427,2.001 4.594,2.001 6.492 C 2.000 8.446,2.014 8.612,2.234 9.151 C 2.521 9.857,3.143 10.479,3.849 10.766 C 4.387 10.985,4.555 11.000,6.500 11.000 C 8.444 11.000,8.614 10.985,9.150 10.767 C 10.052 10.400,10.735 9.564,10.938 8.581 C 11.029 8.145,11.029 4.855,10.938 4.419 C 10.745 3.480,10.156 2.725,9.296 2.312 C 8.688 2.019,8.755 2.027,6.620 2.016 C 5.564 2.011,4.611 2.022,4.503 2.041 M17.920 3.923 C 18.050 3.982,18.366 4.271,19.064 4.972 C 20.151 6.063,20.187 6.116,20.151 6.572 C 20.140 6.710,20.099 6.886,20.061 6.962 C 20.022 7.038,19.566 7.526,19.046 8.048 C 18.003 9.093,17.912 9.158,17.500 9.158 C 17.091 9.158,16.996 9.091,15.969 8.068 C 14.925 7.028,14.840 6.910,14.840 6.500 C 14.840 6.089,14.925 5.970,15.971 4.931 C 16.628 4.278,16.956 3.980,17.082 3.923 C 17.320 3.815,17.680 3.815,17.920 3.923 M8.340 4.066 C 8.593 4.153,8.847 4.407,8.934 4.660 C 8.991 4.828,9.000 5.073,9.000 6.500 C 9.000 8.371,8.995 8.407,8.701 8.701 C 8.407 8.995,8.371 9.000,6.500 9.000 C 4.629 9.000,4.593 8.995,4.299 8.701 C 4.005 8.407,4.000 8.371,4.000 6.500 C 4.000 4.629,4.005 4.593,4.300 4.298 C 4.589 4.009,4.606 4.007,6.483 4.003 C 7.931 4.000,8.171 4.009,8.340 4.066 M4.503 13.041 C 3.482 13.218,2.556 13.976,2.202 14.925 C 2.014 15.427,2.001 15.594,2.001 17.492 C 2.000 18.951,2.011 19.339,2.062 19.581 C 2.310 20.785,3.215 21.690,4.419 21.938 C 4.855 22.029,8.145 22.029,8.581 21.938 C 9.780 21.691,10.691 20.780,10.938 19.581 C 11.029 19.145,11.029 15.855,10.938 15.419 C 10.745 14.480,10.156 13.725,9.296 13.312 C 8.688 13.019,8.755 13.027,6.620 13.016 C 5.564 13.011,4.611 13.022,4.503 13.041 M15.503 13.041 C 14.482 13.218,13.556 13.976,13.202 14.925 C 13.014 15.427,13.001 15.594,13.001 17.492 C 13.000 18.951,13.011 19.339,13.062 19.581 C 13.310 20.785,14.215 21.690,15.419 21.938 C 15.855 22.029,19.145 22.029,19.581 21.938 C 20.780 21.691,21.691 20.780,21.938 19.581 C 22.029 19.145,22.029 15.855,21.938 15.419 C 21.745 14.480,21.156 13.725,20.296 13.312 C 19.688 13.019,19.755 13.027,17.620 13.016 C 16.564 13.011,15.611 13.022,15.503 13.041 M8.340 15.066 C 8.593 15.153,8.847 15.407,8.934 15.660 C 8.991 15.828,9.000 16.073,9.000 17.500 C 9.000 19.371,8.995 19.407,8.701 19.701 C 8.407 19.995,8.371 20.000,6.500 20.000 C 4.629 20.000,4.593 19.995,4.299 19.701 C 4.005 19.407,4.000 19.371,4.000 17.500 C 4.000 15.629,4.005 15.593,4.300 15.298 C 4.589 15.009,4.606 15.007,6.483 15.003 C 7.931 15.000,8.171 15.009,8.340 15.066 M19.340 15.066 C 19.593 15.153,19.847 15.407,19.934 15.660 C 19.991 15.828,20.000 16.073,20.000 17.500 C 20.000 19.371,19.995 19.407,19.701 19.701 C 19.407 19.995,19.371 20.000,17.500 20.000 C 15.629 20.000,15.593 19.995,15.299 19.701 C 15.005 19.407,15.000 19.371,15.000 17.500 C 15.000 15.629,15.005 15.593,15.300 15.298 C 15.589 15.009,15.606 15.007,17.483 15.003 C 18.931 15.000,19.171 15.009,19.340 15.066 " fill="#000640" stroke="none" fill-rule="evenodd"></path></svg>