<svg xmlns="http://www.w3.org/2000/svg" width="24" height="24" fill="currentColor" class="mmi mmi-square-block" viewBox="0 0 24 24"><path d="M4.503 2.041 C 3.482 2.218,2.556 2.976,2.202 3.925 C 2.014 4.427,2.001 4.594,2.001 6.492 C 2.000 8.446,2.014 8.612,2.234 9.151 C 2.521 9.857,3.143 10.479,3.849 10.766 C 4.387 10.985,4.555 11.000,6.500 11.000 C 8.444 11.000,8.614 10.985,9.150 10.767 C 10.052 10.400,10.735 9.564,10.938 8.581 C 11.029 8.145,11.029 4.855,10.938 4.419 C 10.745 3.480,10.156 2.725,9.296 2.312 C 8.688 2.019,8.755 2.027,6.620 2.016 C 5.564 2.011,4.611 2.022,4.503 2.041 M15.503 2.041 C 14.482 2.218,13.556 2.976,13.202 3.925 C 13.014 4.427,13.001 4.594,13.001 6.492 C 13.000 7.951,13.011 8.339,13.062 8.581 C 13.310 9.785,14.215 10.690,15.419 10.938 C 15.855 11.029,19.145 11.029,19.581 10.938 C 20.780 10.691,21.691 9.780,21.938 8.581 C 22.029 8.145,22.029 4.855,21.938 4.419 C 21.745 3.480,21.156 2.725,20.296 2.312 C 19.688 2.019,19.755 2.027,17.620 2.016 C 16.564 2.011,15.611 2.022,15.503 2.041 M8.340 4.066 C 8.593 4.153,8.847 4.407,8.934 4.660 C 8.991 4.828,9.000 5.073,9.000 6.500 C 9.000 8.371,8.995 8.407,8.701 8.701 C 8.407 8.995,8.371 9.000,6.500 9.000 C 4.629 9.000,4.593 8.995,4.299 8.701 C 4.005 8.407,4.000 8.371,4.000 6.500 C 4.000 4.629,4.005 4.593,4.300 4.298 C 4.589 4.009,4.606 4.007,6.483 4.003 C 7.931 4.000,8.171 4.009,8.340 4.066 M19.340 4.066 C 19.593 4.153,19.847 4.407,19.934 4.660 C 19.991 4.828,20.000 5.073,20.000 6.500 C 20.000 8.371,19.995 8.407,19.701 8.701 C 19.407 8.995,19.371 9.000,17.500 9.000 C 15.629 9.000,15.593 8.995,15.299 8.701 C 15.005 8.407,15.000 8.371,15.000 6.500 C 15.000 4.629,15.005 4.593,15.300 4.298 C 15.589 4.009,15.606 4.007,17.483 4.003 C 18.931 4.000,19.171 4.009,19.340 4.066 M4.503 13.041 C 3.482 13.218,2.556 13.976,2.202 14.925 C 2.014 15.427,2.001 15.594,2.001 17.492 C 2.000 18.951,2.011 19.339,2.062 19.581 C 2.310 20.785,3.215 21.690,4.419 21.938 C 4.855 22.029,8.145 22.029,8.581 21.938 C 9.780 21.691,10.691 20.780,10.938 19.581 C 11.029 19.145,11.029 15.855,10.938 15.419 C 10.745 14.480,10.156 13.725,9.296 13.312 C 8.688 13.019,8.755 13.027,6.620 13.016 C 5.564 13.011,4.611 13.022,4.503 13.041 M15.503 13.041 C 14.482 13.218,13.556 13.976,13.202 14.925 C 13.014 15.427,13.001 15.594,13.001 17.492 C 13.000 18.951,13.011 19.339,13.062 19.581 C 13.310 20.785,14.215 21.690,15.419 21.938 C 15.855 22.029,19.145 22.029,19.581 21.938 C 20.780 21.691,21.691 20.780,21.938 19.581 C 22.029 19.145,22.029 15.855,21.938 15.419 C 21.745 14.480,21.156 13.725,20.296 13.312 C 19.688 13.019,19.755 13.027,17.620 13.016 C 16.564 13.011,15.611 13.022,15.503 13.041 M8.340 15.066 C 8.593 15.153,8.847 15.407,8.934 15.660 C 8.991 15.828,9.000 16.073,9.000 17.500 C 9.000 19.371,8.995 19.407,8.701 19.701 C 8.407 19.995,8.371 20.000,6.500 20.000 C 4.629 20.000,4.593 19.995,4.299 19.701 C 4.005 19.407,4.000 19.371,4.000 17.500 C 4.000 15.629,4.005 15.593,4.300 15.298 C 4.589 15.009,4.606 15.007,6.483 15.003 C 7.931 15.000,8.171 15.009,8.340 15.066 M19.340 15.066 C 19.593 15.153,19.847 15.407,19.934 15.660 C 19.991 15.828,20.000 16.073,20.000 17.500 C 20.000 19.371,19.995 19.407,19.701 19.701 C 19.407 19.995,19.371 20.000,17.500 20.000 C 15.629 20.000,15.593 19.995,15.299 19.701 C 15.005 19.407,15.000 19.371,15.000 17.500 C 15.000 15.629,15.005 15.593,15.300 15.298 C 15.589 15.009,15.606 15.007,17.483 15.003 C 18.931 15.000,19.171 15.009,19.340 15.066 " fill="#000640" stroke="none" fill-rule="evenodd"></path></svg>