<svg xmlns="http://www.w3.org/2000/svg" width="24" height="24" fill="currentColor" class="mmi mmi-sr-arrow-junction-oneway" viewBox="0 0 24 24"><path d="M4.873 2.063 C 3.163 2.372,1.918 3.938,2.012 5.660 C 2.096 7.200,3.116 8.461,4.620 8.887 C 4.882 8.961,5.042 8.978,5.500 8.979 C 6.106 8.980,6.435 8.914,6.932 8.691 L 7.165 8.587 8.032 9.451 C 8.965 10.380,9.100 10.478,9.455 10.479 C 9.771 10.481,9.960 10.403,10.181 10.181 C 10.403 9.960,10.481 9.771,10.479 9.455 C 10.478 9.100,10.380 8.965,9.451 8.032 L 8.587 7.165 8.691 6.932 C 8.918 6.426,8.980 6.108,8.976 5.480 C 8.973 4.973,8.959 4.856,8.866 4.548 C 8.666 3.888,8.361 3.395,7.868 2.936 C 7.071 2.193,5.955 1.867,4.873 2.063 M15.643 2.069 C 15.291 2.193,15.000 2.614,15.000 3.000 C 15.000 3.396,15.291 3.808,15.660 3.934 C 15.826 3.990,16.053 4.000,17.217 4.000 L 18.579 4.000 14.854 7.730 C 11.446 11.143,11.124 11.477,11.065 11.657 C 11.007 11.834,11.000 12.321,11.000 16.500 C 11.000 21.723,10.980 21.383,11.299 21.701 C 11.690 22.092,12.310 22.092,12.701 21.701 C 13.019 21.384,13.000 21.689,13.000 16.783 L 13.000 12.420 16.500 8.920 L 20.000 5.420 20.000 6.783 C 20.000 8.339,20.012 8.414,20.299 8.701 C 20.690 9.092,21.310 9.092,21.701 8.701 C 22.009 8.394,22.000 8.486,22.000 5.500 C 22.000 2.514,22.009 2.606,21.701 2.299 C 21.393 1.991,21.488 2.000,18.483 2.003 C 16.179 2.006,15.796 2.015,15.643 2.069 M6.110 4.139 C 6.415 4.278,6.725 4.589,6.866 4.896 C 6.962 5.105,6.978 5.191,6.978 5.500 C 6.979 5.810,6.963 5.893,6.867 6.100 C 6.722 6.415,6.413 6.724,6.104 6.867 C 5.894 6.965,5.811 6.980,5.500 6.980 C 5.190 6.980,5.107 6.965,4.900 6.868 C 4.584 6.721,4.275 6.413,4.134 6.104 C 4.038 5.895,4.022 5.809,4.022 5.500 C 4.021 5.190,4.037 5.107,4.133 4.900 C 4.324 4.489,4.727 4.148,5.150 4.041 C 5.407 3.976,5.852 4.022,6.110 4.139 " fill="#000640" stroke="none" fill-rule="evenodd"></path></svg>