<svg xmlns="http://www.w3.org/2000/svg" width="24" height="24" fill="currentColor" class="mmi mmi-sr-arrow-multipledirection-v2" viewBox="0 0 24 24"><path d="M11.640 1.068 C 11.488 1.121,11.209 1.380,9.829 2.755 C 8.040 4.536,8.000 4.586,8.000 5.009 C 8.000 5.295,8.078 5.492,8.272 5.695 C 8.475 5.907,8.688 5.998,8.980 5.998 C 9.374 5.998,9.500 5.915,10.290 5.129 L 11.000 4.423 11.000 6.781 C 11.000 8.283,11.015 9.194,11.042 9.289 C 11.103 9.509,11.315 9.762,11.531 9.874 C 11.932 10.080,12.390 10.012,12.700 9.702 C 13.006 9.396,13.000 9.454,13.000 6.784 L 13.000 4.423 13.710 5.129 C 14.500 5.915,14.626 5.998,15.020 5.998 C 15.312 5.998,15.525 5.907,15.728 5.695 C 15.922 5.492,16.000 5.295,16.000 5.009 C 16.000 4.586,15.960 4.536,14.171 2.755 C 12.713 1.303,12.519 1.124,12.343 1.065 C 12.102 0.986,11.878 0.986,11.640 1.068 M4.800 8.037 C 4.723 8.053,4.588 8.104,4.500 8.150 C 4.406 8.199,3.674 8.903,2.735 9.847 C 1.302 11.288,1.124 11.481,1.065 11.657 C 0.983 11.906,0.983 12.094,1.065 12.343 C 1.124 12.519,1.302 12.712,2.755 14.171 C 3.807 15.227,4.436 15.830,4.540 15.880 C 4.790 16.000,4.999 16.018,5.265 15.940 C 5.581 15.849,5.844 15.590,5.936 15.283 C 6.016 15.012,6.016 14.948,5.936 14.677 C 5.877 14.479,5.808 14.396,5.148 13.730 L 4.425 13.000 6.785 13.000 C 9.452 13.000,9.396 13.006,9.701 12.701 C 9.881 12.521,10.000 12.242,10.000 12.000 C 10.000 11.758,9.881 11.479,9.701 11.299 C 9.396 10.994,9.452 11.000,6.785 11.000 L 4.425 11.000 5.148 10.270 C 5.808 9.604,5.877 9.521,5.936 9.323 C 6.015 9.053,6.016 8.987,5.938 8.725 C 5.797 8.252,5.277 7.937,4.800 8.037 M18.656 8.043 C 18.480 8.094,18.162 8.388,18.075 8.578 C 17.975 8.800,17.978 9.168,18.083 9.400 C 18.139 9.523,18.387 9.803,18.871 10.290 L 19.577 11.000 17.214 11.000 C 14.650 11.000,14.667 10.999,14.374 11.222 C 14.301 11.277,14.192 11.408,14.131 11.511 C 14.036 11.672,14.020 11.744,14.020 12.000 C 14.020 12.256,14.036 12.328,14.131 12.489 C 14.192 12.592,14.301 12.723,14.374 12.778 C 14.667 13.001,14.650 13.000,17.213 13.000 L 19.575 13.000 18.852 13.730 C 18.192 14.396,18.123 14.479,18.064 14.677 C 17.984 14.948,17.984 15.012,18.064 15.283 C 18.156 15.590,18.419 15.849,18.735 15.940 C 19.001 16.018,19.210 16.000,19.460 15.880 C 19.564 15.830,20.193 15.227,21.245 14.171 C 22.698 12.712,22.876 12.519,22.935 12.343 C 22.971 12.234,23.000 12.080,23.000 12.000 C 23.000 11.920,22.971 11.766,22.935 11.657 C 22.876 11.481,22.697 11.287,21.245 9.829 C 19.467 8.044,19.409 7.997,19.002 8.004 C 18.880 8.006,18.724 8.023,18.656 8.043 M11.664 14.063 C 11.436 14.146,11.257 14.297,11.131 14.511 L 11.020 14.700 11.009 17.137 L 10.998 19.575 10.309 18.892 C 9.536 18.126,9.394 18.031,9.019 18.028 C 8.273 18.020,7.795 18.783,8.120 19.460 C 8.170 19.564,8.773 20.193,9.829 21.245 C 11.288 22.698,11.481 22.876,11.657 22.935 C 11.766 22.971,11.920 23.000,12.000 23.000 C 12.080 23.000,12.234 22.971,12.343 22.935 C 12.519 22.876,12.712 22.698,14.171 21.245 C 15.227 20.193,15.830 19.564,15.880 19.460 C 16.125 18.950,15.919 18.362,15.410 18.115 C 15.160 17.994,14.805 17.996,14.558 18.119 C 14.449 18.173,14.114 18.471,13.690 18.893 L 13.000 19.579 13.000 17.217 C 13.000 14.547,13.006 14.604,12.701 14.299 C 12.429 14.027,12.018 13.933,11.664 14.063 " fill="#000640" stroke="none" fill-rule="evenodd"></path></svg>