<svg xmlns="http://www.w3.org/2000/svg" width="24" height="24" fill="currentColor" class="mmi mmi-sr-arrow-multipledirection" viewBox="0 0 24 24"><path d="M2.664 2.063 C 2.436 2.146,2.257 2.297,2.131 2.511 L 2.020 2.700 2.009 5.412 C 2.002 7.221,2.012 8.176,2.040 8.280 C 2.101 8.506,2.312 8.761,2.531 8.874 C 2.932 9.080,3.390 9.012,3.700 8.702 C 3.988 8.414,4.000 8.340,4.000 6.784 L 4.000 5.422 6.230 7.647 C 8.380 9.793,8.468 9.875,8.677 9.937 C 8.948 10.016,9.013 10.016,9.283 9.936 C 9.581 9.847,9.847 9.581,9.936 9.283 C 10.016 9.013,10.016 8.948,9.937 8.677 C 9.875 8.468,9.793 8.380,7.647 6.230 L 5.422 4.000 6.784 4.000 C 8.339 4.000,8.414 3.988,8.701 3.701 C 9.092 3.310,9.092 2.690,8.701 2.299 C 8.393 1.991,8.488 2.000,5.483 2.003 C 3.276 2.005,2.793 2.015,2.664 2.063 M15.664 2.063 C 15.436 2.146,15.257 2.297,15.131 2.511 C 15.036 2.672,15.020 2.744,15.020 3.000 C 15.020 3.256,15.036 3.328,15.131 3.489 C 15.192 3.592,15.301 3.723,15.374 3.778 C 15.651 3.989,15.739 4.000,17.214 4.000 L 18.578 4.000 16.353 6.230 C 14.207 8.380,14.125 8.468,14.063 8.677 C 13.984 8.948,13.984 9.013,14.064 9.283 C 14.153 9.581,14.419 9.847,14.717 9.936 C 14.987 10.016,15.052 10.016,15.323 9.937 C 15.532 9.875,15.620 9.793,17.770 7.647 L 20.000 5.422 20.000 6.781 C 20.000 7.594,20.017 8.200,20.042 8.289 C 20.103 8.509,20.315 8.762,20.531 8.874 C 20.932 9.080,21.390 9.012,21.700 8.702 C 22.009 8.393,22.000 8.487,22.000 5.500 C 22.000 2.514,22.009 2.606,21.701 2.299 C 21.393 1.991,21.488 2.000,18.483 2.003 C 16.276 2.005,15.793 2.015,15.664 2.063 M8.600 14.083 C 8.463 14.144,7.894 14.689,6.210 16.371 L 4.000 18.579 4.000 17.217 C 4.000 15.660,3.988 15.586,3.700 15.298 C 3.390 14.988,2.932 14.920,2.531 15.126 C 2.312 15.239,2.101 15.494,2.040 15.720 C 2.012 15.824,2.002 16.779,2.009 18.588 L 2.020 21.300 2.131 21.489 C 2.192 21.592,2.301 21.723,2.374 21.778 C 2.669 22.003,2.624 22.000,5.498 22.000 C 8.486 22.000,8.393 22.009,8.701 21.701 C 9.092 21.310,9.092 20.690,8.701 20.299 C 8.414 20.012,8.339 20.000,6.783 20.000 L 5.421 20.000 7.629 17.790 C 9.311 16.106,9.856 15.537,9.917 15.400 C 10.022 15.168,10.025 14.799,9.925 14.578 C 9.834 14.377,9.518 14.094,9.325 14.041 C 9.095 13.977,8.797 13.994,8.600 14.083 M14.758 14.054 C 14.416 14.147,14.160 14.395,14.061 14.729 C 13.985 14.987,13.985 15.053,14.063 15.323 C 14.125 15.532,14.207 15.620,16.353 17.770 L 18.578 20.000 17.214 20.000 C 15.739 20.000,15.651 20.011,15.374 20.222 C 15.301 20.277,15.192 20.408,15.131 20.511 C 15.036 20.672,15.020 20.744,15.020 21.000 C 15.020 21.256,15.036 21.328,15.131 21.489 C 15.192 21.592,15.301 21.723,15.374 21.778 C 15.669 22.003,15.624 22.000,18.498 22.000 C 21.486 22.000,21.393 22.009,21.701 21.701 C 22.009 21.394,22.000 21.486,22.000 18.500 C 22.000 15.513,22.009 15.607,21.700 15.298 C 21.390 14.988,20.932 14.920,20.531 15.126 C 20.315 15.238,20.103 15.491,20.042 15.711 C 20.017 15.800,20.000 16.406,20.000 17.220 L 20.000 18.579 17.810 16.393 C 16.410 14.996,15.562 14.180,15.460 14.129 C 15.243 14.023,14.978 13.994,14.758 14.054 " fill="#000640" stroke="none" fill-rule="evenodd"></path></svg>