<svg xmlns="http://www.w3.org/2000/svg" width="24" height="24" fill="currentColor" class="mmi mmi-sr-crossarrow" viewBox="0 0 24 24"><path d="M2.753 2.055 C 2.148 2.220,1.851 2.889,2.130 3.460 C 2.227 3.659,8.741 10.198,8.990 10.346 C 9.222 10.485,9.575 10.516,9.826 10.420 C 10.401 10.200,10.654 9.507,10.347 8.992 C 10.199 8.743,3.660 2.228,3.460 2.129 C 3.242 2.022,2.977 1.994,2.753 2.055 M15.664 2.063 C 15.436 2.146,15.257 2.297,15.131 2.511 C 15.036 2.672,15.020 2.744,15.020 3.000 C 15.020 3.256,15.036 3.328,15.131 3.489 C 15.192 3.592,15.301 3.723,15.374 3.778 C 15.651 3.989,15.739 4.000,17.215 4.000 L 18.580 4.000 10.353 12.230 C 2.279 20.307,2.125 20.464,2.063 20.677 C 1.984 20.949,1.984 21.013,2.064 21.283 C 2.153 21.581,2.419 21.847,2.717 21.936 C 2.987 22.016,3.051 22.016,3.323 21.937 C 3.536 21.875,3.693 21.721,11.770 13.647 L 20.000 5.420 20.000 6.780 C 20.000 7.594,20.017 8.200,20.042 8.289 C 20.103 8.509,20.315 8.762,20.531 8.874 C 20.932 9.080,21.390 9.012,21.700 8.702 C 22.009 8.393,22.000 8.487,22.000 5.500 C 22.000 2.514,22.009 2.606,21.701 2.299 C 21.393 1.991,21.488 2.000,18.483 2.003 C 16.276 2.005,15.793 2.015,15.664 2.063 M14.100 13.612 C 13.710 13.798,13.492 14.174,13.530 14.594 C 13.542 14.722,13.582 14.888,13.620 14.964 C 13.657 15.039,14.789 16.203,16.134 17.550 L 18.579 20.000 17.217 20.000 C 15.661 20.000,15.586 20.012,15.299 20.299 C 14.908 20.690,14.908 21.310,15.299 21.701 C 15.606 22.009,15.514 22.000,18.500 22.000 C 21.486 22.000,21.394 22.009,21.701 21.701 C 22.009 21.394,22.000 21.486,22.000 18.500 C 22.000 15.514,22.009 15.606,21.701 15.299 C 21.310 14.908,20.690 14.908,20.299 15.299 C 20.012 15.586,20.000 15.661,20.000 17.217 L 20.000 18.579 17.550 16.134 C 16.203 14.789,15.037 13.657,14.960 13.618 C 14.883 13.579,14.703 13.541,14.560 13.532 C 14.346 13.519,14.264 13.533,14.100 13.612 " fill="#000640" stroke="none" fill-rule="evenodd"></path></svg>