<svg xmlns="http://www.w3.org/2000/svg" width="24" height="24" fill="currentColor" class="mmi mmi-sr-chainarrow-horizontal" viewBox="0 0 24 24"><path d="M6.155 1.575 C 6.076 1.604,5.959 1.664,5.895 1.710 C 5.832 1.756,4.959 2.619,3.955 3.627 C 2.317 5.273,2.124 5.480,2.065 5.657 C 1.983 5.906,1.983 6.094,2.065 6.343 C 2.124 6.520,2.319 6.729,3.995 8.411 C 6.002 10.425,6.067 10.480,6.453 10.480 C 6.772 10.480,6.960 10.403,7.181 10.181 C 7.403 9.960,7.481 9.771,7.479 9.455 C 7.478 9.095,7.385 8.970,6.369 7.950 L 5.422 7.000 8.784 7.000 C 12.570 7.000,12.388 6.986,12.701 7.299 C 13.012 7.610,13.000 7.456,13.000 10.997 C 13.000 13.039,13.015 14.192,13.042 14.289 C 13.103 14.509,13.315 14.762,13.531 14.874 C 13.932 15.080,14.390 15.012,14.700 14.702 C 15.013 14.389,15.000 14.554,15.000 10.931 C 15.000 7.422,15.000 7.423,14.766 6.849 C 14.499 6.193,13.964 5.633,13.296 5.312 C 12.658 5.005,12.946 5.025,8.983 5.010 L 5.425 4.997 6.370 4.049 C 7.385 3.031,7.478 2.905,7.479 2.545 C 7.480 2.269,7.410 2.066,7.246 1.874 C 6.983 1.567,6.528 1.442,6.155 1.575 M9.664 9.063 C 9.436 9.146,9.257 9.297,9.131 9.511 L 9.020 9.700 9.009 12.980 C 8.996 16.572,8.996 16.567,9.233 17.149 C 9.521 17.857,10.142 18.479,10.849 18.766 C 11.427 19.001,11.401 19.000,15.147 19.000 L 18.578 19.000 17.631 19.950 C 16.615 20.970,16.522 21.095,16.521 21.455 C 16.519 21.771,16.597 21.960,16.819 22.181 C 17.040 22.403,17.228 22.480,17.547 22.480 C 17.933 22.480,17.998 22.425,20.005 20.411 C 21.681 18.729,21.876 18.520,21.935 18.343 C 22.017 18.094,22.017 17.906,21.935 17.657 C 21.876 17.480,21.682 17.272,20.025 15.607 C 19.010 14.588,18.103 13.708,18.008 13.652 C 17.893 13.584,17.756 13.544,17.587 13.530 C 16.840 13.471,16.295 14.239,16.603 14.920 C 16.661 15.049,16.954 15.371,17.631 16.050 L 18.578 17.000 15.216 17.000 C 11.430 17.000,11.612 17.014,11.299 16.701 C 10.987 16.390,11.000 16.544,11.000 13.000 C 11.000 9.456,11.013 9.610,10.701 9.299 C 10.429 9.027,10.018 8.933,9.664 9.063 " fill="#000640" stroke="none" fill-rule="evenodd"></path></svg>