<svg xmlns="http://www.w3.org/2000/svg" width="24" height="24" fill="currentColor" class="mmi mmi-sr-chainarrow-vertical" viewBox="0 0 24 24"><path d="M17.640 2.068 C 17.487 2.121,17.180 2.409,15.569 4.015 C 14.222 5.358,13.652 5.952,13.589 6.080 C 13.469 6.324,13.469 6.715,13.588 6.940 C 13.832 7.399,14.298 7.602,14.784 7.461 C 15.012 7.395,15.055 7.357,16.010 6.408 L 17.000 5.424 17.000 8.785 C 17.000 12.570,17.014 12.388,16.701 12.701 C 16.390 13.013,16.545 13.000,12.998 13.000 C 9.578 13.000,9.672 12.994,9.374 13.222 C 9.301 13.277,9.192 13.408,9.131 13.511 C 9.036 13.672,9.020 13.744,9.020 14.000 C 9.020 14.256,9.036 14.328,9.131 14.489 C 9.260 14.709,9.437 14.854,9.678 14.939 C 9.938 15.031,16.137 15.030,16.581 14.938 C 17.780 14.691,18.691 13.780,18.938 12.581 C 18.991 12.327,19.000 11.785,19.000 8.853 L 19.000 5.422 19.950 6.369 C 20.970 7.385,21.095 7.478,21.455 7.479 C 21.771 7.481,21.960 7.403,22.181 7.181 C 22.403 6.960,22.480 6.772,22.480 6.453 C 22.480 6.067,22.425 6.002,20.411 3.995 C 18.729 2.319,18.520 2.124,18.343 2.065 C 18.102 1.986,17.878 1.986,17.640 2.068 M7.503 9.042 C 6.490 9.212,5.556 9.976,5.202 10.925 C 5.002 11.462,5.001 11.465,5.001 15.138 L 5.000 18.576 4.010 17.594 C 2.930 16.521,2.902 16.502,2.460 16.505 C 2.182 16.507,1.967 16.602,1.774 16.806 C 1.506 17.092,1.430 17.406,1.539 17.784 C 1.606 18.018,1.625 18.039,3.493 19.911 C 4.826 21.247,5.432 21.827,5.556 21.888 C 5.801 22.006,6.066 22.024,6.326 21.940 C 6.526 21.875,6.660 21.751,8.411 20.005 C 9.824 18.597,10.307 18.092,10.381 17.942 C 10.631 17.442,10.398 16.827,9.873 16.601 C 9.627 16.495,9.269 16.503,9.038 16.619 C 8.962 16.658,8.473 17.114,7.950 17.633 L 7.000 18.578 7.000 15.216 C 7.000 11.430,6.986 11.612,7.299 11.299 C 7.610 10.987,7.456 11.000,11.000 11.000 C 14.544 11.000,14.390 11.013,14.701 10.701 C 15.092 10.310,15.092 9.690,14.701 9.299 C 14.389 8.986,14.555 8.999,10.923 9.005 C 9.150 9.007,7.611 9.024,7.503 9.042 " fill="#000640" stroke="none" fill-rule="evenodd"></path></svg>