<svg xmlns="http://www.w3.org/2000/svg" width="24" height="24" fill="currentColor" class="mmi mmi-sr-dotarrow-up" viewBox="0 0 24 24"><path d="M11.640 1.068 C 11.485 1.121,11.095 1.494,8.829 3.755 C 7.087 5.493,6.172 6.434,6.121 6.540 C 6.000 6.790,5.982 6.999,6.060 7.265 C 6.151 7.581,6.410 7.844,6.717 7.936 C 6.987 8.016,7.052 8.016,7.323 7.936 C 7.531 7.876,7.614 7.799,9.270 6.147 L 11.000 4.422 11.000 7.281 C 11.000 9.127,11.015 10.193,11.042 10.289 C 11.103 10.509,11.315 10.762,11.531 10.874 C 11.932 11.080,12.390 11.012,12.700 10.702 C 13.011 10.392,13.000 10.512,13.000 7.284 L 13.000 4.422 14.730 6.146 C 16.281 7.691,16.480 7.876,16.657 7.935 C 17.047 8.064,17.423 7.979,17.702 7.700 C 18.005 7.398,18.078 6.947,17.887 6.556 C 17.826 6.430,17.058 5.637,15.171 3.755 C 12.781 1.371,12.522 1.124,12.343 1.065 C 12.102 0.986,11.878 0.986,11.640 1.068 M11.664 13.063 C 11.436 13.146,11.257 13.297,11.131 13.511 C 11.036 13.672,11.020 13.744,11.020 14.000 C 11.020 14.256,11.036 14.328,11.131 14.489 C 11.470 15.065,12.234 15.168,12.701 14.701 C 12.881 14.521,13.000 14.242,13.000 14.000 C 13.000 13.326,12.295 12.832,11.664 13.063 M11.664 17.063 C 11.436 17.146,11.257 17.297,11.131 17.511 C 11.036 17.672,11.020 17.744,11.020 18.000 C 11.020 18.256,11.036 18.328,11.131 18.489 C 11.470 19.065,12.234 19.168,12.701 18.701 C 12.881 18.521,13.000 18.242,13.000 18.000 C 13.000 17.326,12.295 16.832,11.664 17.063 M11.664 21.063 C 11.436 21.146,11.257 21.297,11.131 21.511 C 11.036 21.672,11.020 21.744,11.020 22.000 C 11.020 22.256,11.036 22.328,11.131 22.489 C 11.470 23.065,12.234 23.168,12.701 22.701 C 12.881 22.521,13.000 22.242,13.000 22.000 C 13.000 21.326,12.295 20.832,11.664 21.063 " fill="#000640" stroke="none" fill-rule="evenodd"></path></svg>