<svg xmlns="http://www.w3.org/2000/svg" width="24" height="24" fill="currentColor" class="mmi mmi-sr-dotarrow-twosides-horizontal" viewBox="0 0 24 24"><path d="M5.640 7.068 C 5.486 7.121,5.152 7.437,3.329 9.255 C 1.813 10.766,1.173 11.431,1.112 11.556 C 0.994 11.800,0.976 12.065,1.060 12.326 C 1.125 12.527,1.258 12.668,3.255 14.671 C 5.574 16.997,5.578 17.000,6.009 17.000 C 6.295 17.000,6.492 16.922,6.695 16.728 C 6.907 16.525,6.998 16.312,6.998 16.020 C 6.998 15.584,6.990 15.574,5.129 13.710 L 3.422 12.000 5.146 10.270 C 6.691 8.719,6.876 8.520,6.935 8.343 C 7.064 7.954,6.979 7.577,6.701 7.299 C 6.423 7.021,6.027 6.935,5.640 7.068 M17.758 7.054 C 17.416 7.147,17.160 7.395,17.061 7.729 C 16.984 7.987,16.985 8.054,17.064 8.323 C 17.124 8.531,17.201 8.614,18.853 10.270 L 20.578 12.000 18.854 13.730 C 17.309 15.281,17.124 15.480,17.065 15.657 C 16.936 16.046,17.021 16.423,17.299 16.701 C 17.577 16.979,17.953 17.064,18.343 16.935 C 18.521 16.876,18.747 16.664,20.671 14.745 C 22.187 13.234,22.827 12.569,22.888 12.444 C 23.006 12.200,23.024 11.934,22.940 11.674 C 22.875 11.473,22.743 11.333,20.769 9.353 C 19.359 7.939,18.607 7.214,18.484 7.148 C 18.252 7.024,17.992 6.990,17.758 7.054 M7.643 11.069 C 7.291 11.193,7.000 11.614,7.000 12.000 C 7.000 12.242,7.119 12.521,7.299 12.701 C 7.690 13.092,8.310 13.092,8.701 12.701 C 9.454 11.948,8.653 10.712,7.643 11.069 M11.664 11.063 C 11.436 11.146,11.257 11.297,11.131 11.511 C 11.036 11.672,11.020 11.744,11.020 12.000 C 11.020 12.256,11.036 12.328,11.131 12.489 C 11.470 13.065,12.234 13.168,12.701 12.701 C 12.881 12.521,13.000 12.242,13.000 12.000 C 13.000 11.326,12.295 10.832,11.664 11.063 M15.643 11.069 C 15.291 11.193,15.000 11.614,15.000 12.000 C 15.000 12.527,15.473 13.000,16.000 13.000 C 16.242 13.000,16.521 12.881,16.701 12.701 C 17.454 11.948,16.653 10.712,15.643 11.069 " fill="#000640" stroke="none" fill-rule="evenodd"></path></svg>