<svg xmlns="http://www.w3.org/2000/svg" width="24" height="24" fill="currentColor" class="mmi mmi-sr-dotarrow-left" viewBox="0 0 24 24"><path d="M6.640 6.068 C 6.485 6.121,6.095 6.494,3.829 8.755 C 1.942 10.637,1.174 11.430,1.113 11.556 C 0.994 11.800,0.976 12.065,1.060 12.326 C 1.126 12.528,1.274 12.685,3.755 15.171 C 6.623 18.046,6.571 18.001,7.018 17.999 C 7.313 17.998,7.525 17.907,7.728 17.695 C 7.922 17.492,8.000 17.295,7.999 17.011 C 7.998 16.585,7.983 16.567,6.129 14.710 L 4.421 13.000 7.284 13.000 C 10.511 13.000,10.392 13.010,10.701 12.701 C 11.092 12.310,11.092 11.690,10.701 11.299 C 10.392 10.990,10.511 11.000,7.284 11.000 L 4.422 11.000 6.146 9.270 C 7.691 7.719,7.876 7.520,7.935 7.343 C 8.064 6.954,7.979 6.577,7.701 6.299 C 7.424 6.021,7.028 5.935,6.640 6.068 M13.664 11.063 C 13.436 11.146,13.257 11.297,13.131 11.511 C 13.036 11.672,13.020 11.744,13.020 12.000 C 13.020 12.256,13.036 12.328,13.131 12.489 C 13.470 13.065,14.234 13.168,14.701 12.701 C 14.881 12.521,15.000 12.242,15.000 12.000 C 15.000 11.326,14.295 10.832,13.664 11.063 M17.664 11.063 C 17.436 11.146,17.257 11.297,17.131 11.511 C 17.036 11.672,17.020 11.744,17.020 12.000 C 17.020 12.256,17.036 12.328,17.131 12.489 C 17.470 13.065,18.234 13.168,18.701 12.701 C 18.881 12.521,19.000 12.242,19.000 12.000 C 19.000 11.326,18.295 10.832,17.664 11.063 M21.664 11.063 C 21.436 11.146,21.257 11.297,21.131 11.511 C 21.036 11.672,21.020 11.744,21.020 12.000 C 21.020 12.256,21.036 12.328,21.131 12.489 C 21.470 13.065,22.234 13.168,22.701 12.701 C 23.092 12.310,23.092 11.690,22.701 11.299 C 22.429 11.027,22.018 10.933,21.664 11.063 " fill="#000640" stroke="none" fill-rule="evenodd"></path></svg>