<svg xmlns="http://www.w3.org/2000/svg" width="24" height="24" fill="currentColor" class="mmi mmi-sr-dotarrow-down" viewBox="0 0 24 24"><path d="M11.664 1.063 C 11.436 1.146,11.257 1.297,11.131 1.511 C 11.036 1.672,11.020 1.744,11.020 2.000 C 11.020 2.256,11.036 2.328,11.131 2.489 C 11.470 3.065,12.234 3.168,12.701 2.701 C 13.092 2.310,13.092 1.690,12.701 1.299 C 12.429 1.027,12.018 0.933,11.664 1.063 M11.664 5.063 C 11.436 5.146,11.257 5.297,11.131 5.511 C 11.036 5.672,11.020 5.744,11.020 6.000 C 11.020 6.256,11.036 6.328,11.131 6.489 C 11.470 7.065,12.234 7.168,12.701 6.701 C 12.881 6.521,13.000 6.242,13.000 6.000 C 13.000 5.326,12.295 4.832,11.664 5.063 M11.664 9.063 C 11.436 9.146,11.257 9.297,11.131 9.511 C 11.036 9.672,11.020 9.744,11.020 10.000 C 11.020 10.256,11.036 10.328,11.131 10.489 C 11.470 11.065,12.234 11.168,12.701 10.701 C 12.881 10.521,13.000 10.242,13.000 10.000 C 13.000 9.326,12.295 8.832,11.664 9.063 M11.664 13.063 C 11.436 13.146,11.257 13.297,11.131 13.511 L 11.020 13.700 11.009 16.638 L 10.998 19.577 9.309 17.892 C 8.151 16.738,7.564 16.180,7.442 16.119 C 7.195 15.996,6.840 15.994,6.590 16.115 C 6.081 16.362,5.875 16.951,6.121 17.460 C 6.172 17.566,7.087 18.507,8.829 20.245 C 11.219 22.629,11.478 22.876,11.657 22.935 C 11.906 23.017,12.094 23.017,12.343 22.935 C 12.522 22.876,12.781 22.629,15.171 20.245 C 16.913 18.507,17.828 17.566,17.879 17.460 C 18.125 16.951,17.919 16.362,17.410 16.115 C 17.160 15.994,16.805 15.996,16.558 16.119 C 16.436 16.180,15.854 16.732,14.690 17.894 L 13.000 19.580 13.000 16.717 C 13.000 13.489,13.010 13.608,12.701 13.299 C 12.429 13.027,12.018 12.933,11.664 13.063 " fill="#000640" stroke="none" fill-rule="evenodd"></path></svg>