<svg xmlns="http://www.w3.org/2000/svg" width="24" height="24" fill="currentColor" class="mmi mmi-sr-dotarrow-twosides-verticall" viewBox="0 0 24 24"><path d="M11.640 1.068 C 11.486 1.121,11.152 1.437,9.329 3.255 C 7.930 4.649,7.171 5.435,7.121 5.540 C 7.000 5.790,6.982 5.999,7.060 6.265 C 7.151 6.581,7.410 6.844,7.717 6.936 C 7.987 7.016,8.052 7.016,8.323 6.936 C 8.531 6.876,8.614 6.799,10.270 5.147 L 12.000 3.422 13.730 5.146 C 15.281 6.691,15.480 6.876,15.657 6.935 C 16.047 7.064,16.423 6.979,16.702 6.700 C 17.004 6.398,17.077 5.948,16.888 5.556 C 16.827 5.431,16.187 4.766,14.671 3.255 C 12.747 1.336,12.521 1.124,12.343 1.065 C 12.102 0.986,11.878 0.986,11.640 1.068 M11.643 7.069 C 11.291 7.193,11.000 7.614,11.000 8.000 C 11.000 8.527,11.473 9.000,12.000 9.000 C 12.242 9.000,12.521 8.881,12.701 8.701 C 13.454 7.948,12.653 6.712,11.643 7.069 M11.664 11.063 C 11.436 11.146,11.257 11.297,11.131 11.511 C 11.036 11.672,11.020 11.744,11.020 12.000 C 11.020 12.256,11.036 12.328,11.131 12.489 C 11.470 13.065,12.234 13.168,12.701 12.701 C 12.881 12.521,13.000 12.242,13.000 12.000 C 13.000 11.326,12.295 10.832,11.664 11.063 M11.643 15.069 C 11.291 15.193,11.000 15.614,11.000 16.000 C 11.000 16.527,11.473 17.000,12.000 17.000 C 12.242 17.000,12.521 16.881,12.701 16.701 C 13.454 15.948,12.653 14.712,11.643 15.069 M7.643 17.069 C 7.291 17.193,7.000 17.614,7.000 18.000 C 7.000 18.080,7.029 18.234,7.065 18.343 C 7.124 18.521,7.336 18.747,9.255 20.671 C 10.766 22.187,11.431 22.827,11.556 22.888 C 11.800 23.006,12.065 23.024,12.326 22.940 C 12.527 22.875,12.668 22.742,14.671 20.745 C 16.070 19.351,16.829 18.565,16.879 18.460 C 17.125 17.951,16.919 17.362,16.410 17.115 C 16.160 16.994,15.805 16.996,15.558 17.119 C 15.436 17.180,14.854 17.732,13.690 18.893 L 12.001 20.579 10.270 18.855 C 8.719 17.309,8.520 17.124,8.343 17.065 C 8.101 16.985,7.876 16.986,7.643 17.069 " fill="#000640" stroke="none" fill-rule="evenodd"></path></svg>