<svg xmlns="http://www.w3.org/2000/svg" width="24" height="24" fill="currentColor" class="mmi mmi-sr-dotarrow-right" viewBox="0 0 24 24"><path d="M16.758 6.054 C 16.416 6.147,16.160 6.395,16.061 6.729 C 15.984 6.987,15.985 7.054,16.064 7.323 C 16.124 7.531,16.201 7.614,17.853 9.270 L 19.578 11.000 16.714 11.000 C 13.604 11.000,13.671 10.996,13.374 11.222 C 13.301 11.277,13.192 11.408,13.131 11.511 C 13.036 11.672,13.020 11.744,13.020 12.000 C 13.020 12.256,13.036 12.328,13.131 12.489 C 13.192 12.592,13.301 12.723,13.374 12.778 C 13.671 13.004,13.604 13.000,16.714 13.000 L 19.578 13.000 17.854 14.730 C 16.309 16.281,16.124 16.480,16.065 16.657 C 15.936 17.047,16.021 17.423,16.300 17.702 C 16.602 18.005,17.053 18.078,17.444 17.887 C 17.570 17.826,18.363 17.058,20.245 15.171 C 22.629 12.781,22.876 12.522,22.935 12.343 C 23.017 12.094,23.017 11.906,22.935 11.657 C 22.876 11.478,22.631 11.221,20.268 8.853 C 18.507 7.087,17.608 6.214,17.484 6.148 C 17.252 6.024,16.992 5.990,16.758 6.054 M1.664 11.063 C 1.436 11.146,1.257 11.297,1.131 11.511 C 1.036 11.672,1.020 11.744,1.020 12.000 C 1.020 12.256,1.036 12.328,1.131 12.489 C 1.470 13.065,2.234 13.168,2.701 12.701 C 3.092 12.310,3.092 11.690,2.701 11.299 C 2.429 11.027,2.018 10.933,1.664 11.063 M5.664 11.063 C 5.436 11.146,5.257 11.297,5.131 11.511 C 5.036 11.672,5.020 11.744,5.020 12.000 C 5.020 12.256,5.036 12.328,5.131 12.489 C 5.470 13.065,6.234 13.168,6.701 12.701 C 7.092 12.310,7.092 11.690,6.701 11.299 C 6.429 11.027,6.018 10.933,5.664 11.063 M9.664 11.063 C 9.436 11.146,9.257 11.297,9.131 11.511 C 9.036 11.672,9.020 11.744,9.020 12.000 C 9.020 12.256,9.036 12.328,9.131 12.489 C 9.470 13.065,10.234 13.168,10.701 12.701 C 10.881 12.521,11.000 12.242,11.000 12.000 C 11.000 11.326,10.295 10.832,9.664 11.063 " fill="#000640" stroke="none" fill-rule="evenodd"></path></svg>