<svg xmlns="http://www.w3.org/2000/svg" width="24" height="24" fill="currentColor" class="mmi mmi-stack-list-arrangement" viewBox="0 0 24 24"><path d="M1.664 1.063 C 1.436 1.146,1.257 1.297,1.131 1.511 L 1.020 1.700 1.009 4.412 C 1.002 6.221,1.012 7.176,1.040 7.280 C 1.102 7.509,1.312 7.761,1.539 7.878 L 1.738 7.980 3.369 7.991 L 5.000 8.003 5.000 9.500 L 5.000 10.997 3.369 11.009 L 1.738 11.020 1.539 11.122 C 1.313 11.239,1.102 11.491,1.041 11.718 C 1.012 11.823,1.002 13.564,1.009 17.086 L 1.020 22.300 1.131 22.489 C 1.192 22.592,1.301 22.723,1.374 22.778 C 1.684 23.015,1.106 23.000,9.998 23.000 C 19.144 23.000,18.376 23.026,18.701 22.701 C 19.019 22.383,19.000 22.714,19.000 17.573 L 19.000 13.000 20.573 13.000 C 22.362 13.000,22.409 12.994,22.701 12.701 C 23.009 12.394,23.000 12.486,23.000 9.500 C 23.000 6.514,23.009 6.606,22.701 6.299 C 22.409 6.006,22.362 6.000,20.573 6.000 L 19.000 6.000 19.000 3.927 C 19.000 1.581,19.002 1.600,18.701 1.299 C 18.376 0.973,19.147 1.000,9.983 1.003 C 3.003 1.005,1.797 1.014,1.664 1.063 M17.000 4.500 L 17.000 6.000 10.000 6.000 L 3.000 6.000 3.000 4.500 L 3.000 3.000 10.000 3.000 L 17.000 3.000 17.000 4.500 M21.000 9.500 L 21.000 11.000 14.000 11.000 L 7.000 11.000 7.000 9.500 L 7.000 8.000 14.000 8.000 L 21.000 8.000 21.000 9.500 M17.000 14.500 L 17.000 16.000 10.000 16.000 L 3.000 16.000 3.000 14.500 L 3.000 13.000 10.000 13.000 L 17.000 13.000 17.000 14.500 M17.000 19.500 L 17.000 21.000 10.000 21.000 L 3.000 21.000 3.000 19.500 L 3.000 18.000 10.000 18.000 L 17.000 18.000 17.000 19.500 " fill="#000640" stroke="none" fill-rule="evenodd"></path></svg>