<svg xmlns="http://www.w3.org/2000/svg" width="24" height="24" fill="currentColor" class="mmi mmi-stack-v2" viewBox="0 0 24 24"><path d="M11.700 2.054 C 11.100 2.255,1.475 6.139,1.370 6.223 C 1.298 6.279,1.190 6.410,1.130 6.513 L 1.020 6.700 1.009 11.918 C 0.998 17.787,0.977 17.379,1.297 17.699 C 1.454 17.856,1.762 17.985,6.602 19.923 C 11.543 21.901,11.750 21.980,12.000 21.980 C 12.250 21.980,12.457 21.901,17.398 19.923 C 22.227 17.990,22.546 17.856,22.702 17.700 C 23.021 17.381,23.000 17.781,23.000 12.000 C 23.000 6.222,23.021 6.617,22.704 6.303 C 22.551 6.151,22.191 6.001,17.400 4.086 C 13.629 2.579,12.207 2.028,12.060 2.016 C 11.950 2.008,11.788 2.025,11.700 2.054 M15.670 5.549 C 17.633 6.334,19.240 6.987,19.240 7.000 C 19.240 7.013,17.609 7.676,15.616 8.474 L 11.993 9.923 8.376 8.472 C 6.387 7.675,4.760 7.012,4.760 6.999 C 4.760 6.955,11.980 4.084,12.040 4.103 C 12.073 4.114,13.707 4.765,15.670 5.549 M7.160 10.142 C 9.239 10.972,10.954 11.664,10.971 11.678 C 10.987 11.693,10.996 12.337,10.991 13.108 L 10.980 14.512 7.000 12.920 L 3.020 11.328 3.009 9.904 L 2.999 8.481 3.189 8.556 C 3.294 8.598,5.081 9.311,7.160 10.142 M20.971 11.322 C 20.948 11.341,15.057 13.705,13.189 14.444 L 12.999 14.519 13.009 13.096 L 13.020 11.672 17.000 10.080 L 20.980 8.488 20.991 9.892 C 20.996 10.663,20.987 11.307,20.971 11.322 M7.160 15.142 C 9.239 15.972,10.954 16.664,10.971 16.678 C 10.987 16.693,10.996 17.337,10.991 18.108 L 10.980 19.512 7.000 17.920 L 3.020 16.328 3.009 14.904 L 2.999 13.481 3.189 13.556 C 3.294 13.598,5.081 14.311,7.160 15.142 M20.971 16.322 C 20.948 16.341,15.057 18.705,13.189 19.444 L 12.999 19.519 13.009 18.096 L 13.020 16.672 17.000 15.080 L 20.980 13.488 20.991 14.892 C 20.996 15.663,20.987 16.307,20.971 16.322 " fill="#000640" stroke="none" fill-rule="evenodd"></path></svg>