<svg xmlns="http://www.w3.org/2000/svg" width="24" height="24" fill="currentColor" class="mmi mmi-stack-v3" viewBox="0 0 24 24"><path d="M11.700 2.054 C 11.100 2.255,1.475 6.139,1.370 6.223 C 1.298 6.279,1.190 6.410,1.130 6.513 L 1.020 6.700 1.009 11.918 C 0.998 17.787,0.977 17.379,1.297 17.699 C 1.454 17.856,1.762 17.985,6.602 19.923 C 11.543 21.901,11.750 21.980,12.000 21.980 C 12.250 21.980,12.457 21.901,17.398 19.923 C 22.227 17.990,22.546 17.856,22.702 17.700 C 23.021 17.381,23.000 17.781,23.000 12.000 C 23.000 6.222,23.021 6.617,22.704 6.303 C 22.551 6.151,22.191 6.001,17.400 4.086 C 13.629 2.579,12.207 2.028,12.060 2.016 C 11.950 2.008,11.788 2.025,11.700 2.054 M15.670 5.549 C 17.633 6.334,19.240 6.987,19.240 7.000 C 19.240 7.013,17.609 7.676,15.616 8.474 L 11.993 9.923 8.376 8.472 C 6.387 7.675,4.760 7.012,4.760 6.999 C 4.760 6.955,11.980 4.084,12.040 4.103 C 12.073 4.114,13.707 4.765,15.670 5.549 M7.560 10.306 C 11.568 11.911,11.751 11.980,12.000 11.980 C 12.249 11.980,12.432 11.911,16.440 10.306 C 18.739 9.385,20.706 8.598,20.811 8.556 L 21.001 8.481 20.991 9.904 L 20.980 11.328 16.490 13.124 L 12.000 14.920 7.510 13.124 L 3.020 11.328 3.009 9.904 L 2.999 8.481 3.189 8.556 C 3.294 8.598,5.261 9.385,7.560 10.306 M7.560 15.306 C 11.568 16.911,11.751 16.980,12.000 16.980 C 12.249 16.980,12.432 16.911,16.440 15.306 C 18.739 14.385,20.706 13.598,20.811 13.556 L 21.001 13.481 20.991 14.904 L 20.980 16.328 16.490 18.124 L 12.000 19.920 7.510 18.124 L 3.020 16.328 3.009 14.904 L 2.999 13.481 3.189 13.556 C 3.294 13.598,5.261 14.385,7.560 15.306 " fill="#000640" stroke="none" fill-rule="evenodd"></path></svg>