<svg xmlns="http://www.w3.org/2000/svg" width="24" height="24" fill="currentColor" class="mmi mmi-stack-list" viewBox="0 0 24 24"><path d="M2.664 1.063 C 2.436 1.146,2.257 1.297,2.131 1.511 L 2.020 1.700 2.020 4.000 L 2.020 6.300 2.131 6.489 C 2.260 6.709,2.437 6.854,2.678 6.939 C 2.830 6.993,3.916 7.000,11.998 7.000 C 22.265 7.000,21.375 7.027,21.701 6.701 C 22.003 6.399,22.000 6.427,22.000 4.000 C 22.000 1.573,22.003 1.601,21.701 1.299 C 21.375 0.972,22.267 1.000,11.983 1.003 C 4.135 1.005,2.798 1.014,2.664 1.063 M20.000 4.000 L 20.000 5.000 12.000 5.000 L 4.000 5.000 4.000 4.000 L 4.000 3.000 12.000 3.000 L 20.000 3.000 20.000 4.000 M2.664 9.063 C 2.436 9.146,2.257 9.297,2.131 9.511 L 2.020 9.700 2.020 12.000 L 2.020 14.300 2.131 14.489 C 2.260 14.709,2.437 14.854,2.678 14.939 C 2.830 14.993,3.916 15.000,11.998 15.000 C 22.265 15.000,21.375 15.027,21.701 14.701 C 22.003 14.399,22.000 14.427,22.000 12.000 C 22.000 9.573,22.003 9.601,21.701 9.299 C 21.375 8.972,22.267 9.000,11.983 9.003 C 4.135 9.005,2.798 9.014,2.664 9.063 M20.000 12.000 L 20.000 13.000 12.000 13.000 L 4.000 13.000 4.000 12.000 L 4.000 11.000 12.000 11.000 L 20.000 11.000 20.000 12.000 M2.664 17.063 C 2.436 17.146,2.257 17.297,2.131 17.511 L 2.020 17.700 2.020 20.000 L 2.020 22.300 2.131 22.489 C 2.260 22.709,2.437 22.854,2.678 22.939 C 2.830 22.993,3.916 23.000,11.998 23.000 C 22.265 23.000,21.375 23.027,21.701 22.701 C 22.003 22.399,22.000 22.427,22.000 20.000 C 22.000 17.573,22.003 17.601,21.701 17.299 C 21.375 16.972,22.267 17.000,11.983 17.003 C 4.135 17.005,2.798 17.014,2.664 17.063 M20.000 20.000 L 20.000 21.000 12.000 21.000 L 4.000 21.000 4.000 20.000 L 4.000 19.000 12.000 19.000 L 20.000 19.000 20.000 20.000 " fill="#000640" stroke="none" fill-rule="evenodd"></path></svg>