<svg xmlns="http://www.w3.org/2000/svg" width="24" height="24" fill="currentColor" class="mmi mmi-stack-v4" viewBox="0 0 24 24"><path d="M11.780 2.027 C 11.736 2.039,9.405 2.966,6.600 4.087 C 3.345 5.388,1.449 6.166,1.360 6.237 C 0.923 6.586,0.892 7.294,1.297 7.699 C 1.448 7.850,1.622 7.928,3.201 8.559 C 4.158 8.940,4.975 9.270,5.018 9.292 C 5.083 9.325,4.791 9.485,3.268 10.246 C 1.886 10.937,1.402 11.198,1.286 11.314 C 0.909 11.691,0.914 12.316,1.298 12.700 C 1.447 12.849,1.625 12.930,3.201 13.559 C 4.158 13.940,4.975 14.270,5.018 14.292 C 5.082 14.324,4.780 14.489,3.238 15.261 C 1.216 16.274,1.189 16.292,1.057 16.690 C 0.929 17.075,1.061 17.533,1.370 17.777 C 1.444 17.835,3.708 18.763,6.620 19.930 C 11.544 21.901,11.750 21.980,12.000 21.980 C 12.250 21.980,12.456 21.901,17.380 19.930 C 20.292 18.763,22.556 17.835,22.630 17.777 C 22.939 17.533,23.071 17.075,22.943 16.690 C 22.811 16.292,22.784 16.274,20.762 15.261 C 19.220 14.489,18.918 14.324,18.982 14.292 C 19.025 14.270,19.842 13.940,20.799 13.559 C 22.375 12.930,22.553 12.849,22.702 12.700 C 22.881 12.521,23.000 12.241,23.000 12.000 C 23.000 11.601,22.708 11.190,22.337 11.067 C 22.044 10.969,18.561 9.504,18.561 9.478 C 18.560 9.466,19.455 9.098,20.548 8.661 C 22.367 7.933,22.551 7.851,22.703 7.699 C 23.108 7.294,23.078 6.586,22.640 6.237 C 22.551 6.166,20.648 5.385,17.380 4.079 C 12.235 2.022,12.047 1.953,11.780 2.027 M15.670 5.549 C 17.633 6.334,19.240 6.987,19.240 7.000 C 19.240 7.013,17.609 7.676,15.616 8.474 L 11.993 9.923 8.376 8.472 C 6.387 7.675,4.760 7.012,4.760 6.999 C 4.760 6.955,11.980 4.084,12.040 4.103 C 12.073 4.114,13.707 4.765,15.670 5.549 M9.669 11.150 C 11.621 11.932,11.755 11.980,12.000 11.980 C 12.244 11.980,12.372 11.935,14.065 11.256 L 15.870 10.533 17.592 11.256 C 18.539 11.654,19.302 11.991,19.287 12.005 C 19.272 12.019,17.624 12.681,15.625 13.476 L 11.989 14.923 8.265 13.436 C 6.216 12.618,4.524 11.934,4.505 11.917 C 4.485 11.900,5.169 11.534,6.025 11.105 C 6.880 10.676,7.584 10.323,7.589 10.322 C 7.594 10.321,8.530 10.693,9.669 11.150 M9.669 16.150 C 11.621 16.932,11.755 16.980,12.000 16.980 C 12.245 16.980,12.379 16.932,14.331 16.150 L 16.401 15.320 17.968 16.104 C 19.043 16.642,19.518 16.898,19.478 16.920 C 19.446 16.938,17.748 17.621,15.705 18.438 L 11.990 19.924 8.265 18.436 C 6.216 17.618,4.524 16.934,4.505 16.917 C 4.485 16.900,5.169 16.534,6.025 16.105 C 6.880 15.676,7.584 15.323,7.589 15.322 C 7.594 15.321,8.530 15.694,9.669 16.150 " fill="#000640" stroke="none" fill-rule="evenodd"></path></svg>