<svg xmlns="http://www.w3.org/2000/svg" width="24" height="24" fill="currentColor" class="mmi mmi-stack" viewBox="0 0 24 24"><path d="M6.660 4.063 C 3.361 5.381,1.450 6.166,1.360 6.237 C 0.922 6.586,0.892 7.294,1.297 7.699 C 1.454 7.856,1.762 7.985,6.602 9.923 C 11.543 11.901,11.750 11.980,12.000 11.980 C 12.250 11.980,12.457 11.901,17.398 9.923 C 22.238 7.985,22.546 7.856,22.703 7.699 C 23.108 7.294,23.078 6.586,22.640 6.237 C 22.550 6.166,20.640 5.382,17.339 4.063 C 13.209 2.412,12.143 2.000,11.999 2.000 C 11.856 2.000,10.781 2.415,6.660 4.063 M15.610 5.524 C 17.595 6.318,19.237 6.978,19.257 6.990 C 19.277 7.003,17.651 7.668,15.643 8.468 L 11.991 9.922 8.376 8.472 C 6.387 7.675,4.760 7.012,4.760 6.999 C 4.760 6.982,11.912 4.097,11.990 4.082 C 11.995 4.081,13.624 4.730,15.610 5.524 M1.667 11.063 C 1.405 11.146,1.152 11.403,1.060 11.679 C 0.934 12.061,1.062 12.525,1.360 12.763 C 1.449 12.834,3.360 13.619,6.620 14.925 C 11.544 16.896,11.750 16.975,12.000 16.975 C 12.250 16.975,12.456 16.896,17.380 14.925 C 20.640 13.619,22.551 12.834,22.640 12.763 C 22.818 12.621,22.967 12.333,22.991 12.083 C 23.048 11.488,22.515 10.952,21.923 11.009 C 21.798 11.021,20.087 11.686,16.868 12.973 L 12.001 14.919 7.131 12.973 C 3.408 11.485,2.213 11.023,2.060 11.014 C 1.950 11.007,1.773 11.029,1.667 11.063 M1.643 16.067 C 1.289 16.196,1.000 16.615,1.000 17.000 C 1.000 17.241,1.119 17.521,1.298 17.700 C 1.453 17.855,1.776 17.990,6.602 19.923 C 11.543 21.901,11.750 21.980,12.000 21.980 C 12.250 21.980,12.457 21.901,17.398 19.923 C 22.235 17.986,22.547 17.855,22.703 17.699 C 23.008 17.394,23.077 16.947,22.881 16.543 C 22.715 16.200,22.250 15.956,21.875 16.016 C 21.788 16.030,19.529 16.916,16.857 17.985 L 11.997 19.929 7.129 17.976 C 1.866 15.865,2.034 15.924,1.643 16.067 " fill="#000640" stroke="none" fill-rule="evenodd"></path></svg>