<svg xmlns="http://www.w3.org/2000/svg" width="24" height="24" fill="currentColor" class="mmi mmi-stadion" viewBox="0 0 24 24"><path d="M11.667 1.063 C 11.415 1.143,11.154 1.402,11.066 1.660 C 11.007 1.834,11.000 2.172,11.000 4.926 L 11.000 7.998 10.910 8.017 C 10.861 8.027,10.517 8.045,10.147 8.057 C 7.652 8.140,4.950 8.598,3.380 9.204 C 2.031 9.724,1.302 10.341,1.063 11.165 C 1.005 11.364,0.999 11.822,1.009 15.583 L 1.020 19.780 1.170 20.093 C 1.515 20.817,2.369 21.391,3.827 21.877 C 8.313 23.373,15.784 23.371,20.200 21.873 C 21.640 21.384,22.466 20.827,22.823 20.102 L 22.980 19.784 22.991 15.585 C 23.003 11.006,23.012 11.218,22.778 10.755 C 22.409 10.028,21.303 9.359,19.720 8.907 C 18.119 8.449,15.883 8.125,13.860 8.058 C 12.945 8.027,13.000 8.045,13.000 7.783 L 13.000 7.568 15.270 6.208 C 16.518 5.460,17.590 4.809,17.650 4.761 C 18.079 4.422,18.106 3.702,17.705 3.304 C 17.553 3.153,17.323 3.054,14.900 2.086 C 13.005 1.329,12.204 1.028,12.060 1.017 C 11.946 1.008,11.777 1.027,11.667 1.063 M14.053 3.901 C 14.595 4.118,14.716 4.180,14.673 4.220 C 14.644 4.247,14.255 4.487,13.810 4.753 L 13.000 5.237 13.000 4.359 L 13.000 3.481 13.190 3.556 C 13.295 3.598,13.683 3.753,14.053 3.901 M11.000 10.570 C 11.000 11.219,11.031 11.370,11.212 11.607 C 11.570 12.076,12.281 12.121,12.700 11.702 C 12.948 11.454,13.000 11.260,13.000 10.574 L 13.000 10.002 13.110 10.019 C 13.171 10.029,13.517 10.047,13.880 10.060 C 15.887 10.131,18.094 10.477,19.540 10.946 C 20.007 11.097,20.758 11.442,20.842 11.542 C 20.909 11.623,20.838 11.674,20.380 11.876 C 19.237 12.380,17.391 12.721,14.680 12.928 C 13.797 12.996,10.203 12.996,9.320 12.928 C 6.513 12.713,4.608 12.350,3.490 11.815 C 3.286 11.718,3.120 11.621,3.120 11.600 C 3.120 11.546,3.405 11.371,3.740 11.219 C 5.054 10.623,7.576 10.168,10.260 10.044 C 10.634 10.026,10.954 10.009,10.970 10.006 C 10.987 10.003,11.000 10.257,11.000 10.570 M3.660 14.021 C 5.139 14.511,7.340 14.834,10.080 14.964 C 11.169 15.015,13.844 14.991,14.820 14.921 C 17.337 14.740,19.345 14.395,20.645 13.921 C 20.827 13.854,20.981 13.800,20.988 13.800 C 20.994 13.800,21.000 15.032,21.000 16.538 L 21.000 19.276 20.869 19.376 C 20.724 19.487,20.115 19.800,20.045 19.800 C 20.014 19.800,20.000 19.633,20.000 19.258 C 20.000 18.927,19.976 18.601,19.938 18.419 C 19.741 17.462,19.149 16.715,18.260 16.298 C 17.779 16.072,17.546 16.021,17.000 16.021 C 16.454 16.021,16.221 16.072,15.740 16.298 C 15.015 16.638,14.465 17.219,14.202 17.925 C 14.028 18.392,14.001 18.641,14.001 19.824 L 14.000 20.948 13.394 20.974 C 12.621 21.007,11.438 21.007,10.630 20.974 L 10.000 20.947 10.000 19.832 C 10.000 18.611,9.969 18.347,9.766 17.849 C 9.493 17.176,8.957 16.625,8.260 16.298 C 7.779 16.072,7.546 16.021,7.000 16.021 C 6.454 16.021,6.221 16.072,5.740 16.298 C 5.015 16.638,4.465 17.219,4.202 17.925 C 4.055 18.318,4.001 18.673,4.001 19.253 L 4.000 19.805 3.910 19.777 C 3.756 19.730,3.267 19.476,3.130 19.374 L 3.000 19.276 3.000 16.534 C 3.000 13.938,3.004 13.793,3.070 13.820 C 3.109 13.835,3.374 13.926,3.660 14.021 M7.340 18.066 C 7.597 18.154,7.850 18.408,7.935 18.666 C 7.991 18.833,8.000 19.018,7.991 19.805 L 7.980 20.744 7.620 20.693 C 7.221 20.636,6.179 20.450,6.070 20.416 C 6.007 20.397,6.000 20.323,6.000 19.624 C 6.000 18.722,6.036 18.562,6.300 18.298 C 6.577 18.020,6.957 17.936,7.340 18.066 M17.340 18.066 C 17.597 18.154,17.850 18.408,17.936 18.667 C 17.990 18.830,18.000 19.005,17.991 19.641 L 17.980 20.417 17.740 20.467 C 17.544 20.507,16.858 20.625,16.130 20.743 L 16.000 20.764 16.000 19.809 C 16.000 18.704,16.026 18.572,16.300 18.298 C 16.577 18.020,16.957 17.936,17.340 18.066 " fill="#000640" stroke="none" fill-rule="evenodd"></path></svg>