<svg xmlns="http://www.w3.org/2000/svg" width="24" height="24" fill="currentColor" class="mmi mmi-stall" viewBox="0 0 24 24"><path d="M6.664 1.063 C 6.436 1.146,6.257 1.297,6.131 1.511 C 6.024 1.693,6.020 1.724,6.007 2.348 L 5.993 2.995 4.865 3.008 C 3.745 3.020,3.736 3.021,3.539 3.122 C 3.296 3.247,3.155 3.428,2.684 4.220 C 1.520 6.177,0.948 7.881,1.012 9.200 C 1.113 11.285,2.609 12.842,4.650 12.987 L 5.000 13.012 5.000 14.003 L 5.000 14.994 4.369 15.007 C 3.783 15.019,3.723 15.027,3.539 15.122 C 3.316 15.237,3.104 15.488,3.042 15.711 C 3.016 15.805,3.000 16.672,3.000 18.072 C 3.000 20.484,3.009 20.598,3.234 21.151 C 3.521 21.857,4.143 22.479,4.849 22.766 C 5.449 23.011,5.123 23.000,12.000 23.000 C 18.876 23.000,18.551 23.011,19.150 22.767 C 19.850 22.482,20.482 21.850,20.767 21.150 C 20.991 20.598,21.000 20.483,21.000 18.069 C 21.000 15.565,21.004 15.602,20.701 15.299 C 20.454 15.052,20.259 15.000,19.573 15.000 L 19.000 15.000 19.000 14.007 L 19.000 13.014 19.356 12.967 C 20.630 12.797,21.728 12.145,22.354 11.185 C 23.176 9.927,23.202 8.437,22.437 6.462 C 22.047 5.454,20.988 3.547,20.652 3.249 C 20.401 3.026,20.233 3.000,19.053 3.000 L 18.000 3.000 18.000 2.427 C 18.000 1.741,17.948 1.546,17.701 1.299 C 17.381 0.979,17.786 1.000,11.983 1.003 C 7.607 1.005,6.796 1.014,6.664 1.063 M16.000 4.000 L 16.000 5.000 12.000 5.000 L 8.000 5.000 8.000 4.000 L 8.000 3.000 12.000 3.000 L 16.000 3.000 16.000 4.000 M6.007 5.650 C 6.020 6.277,6.024 6.307,6.131 6.489 C 6.365 6.886,6.637 7.000,7.357 7.000 L 7.865 7.000 7.702 8.305 L 7.540 9.610 7.226 9.905 C 6.316 10.764,5.446 11.109,4.567 10.961 C 3.745 10.823,3.167 10.214,3.033 9.347 C 2.898 8.469,3.320 7.147,4.273 5.470 L 4.540 5.000 5.267 5.000 L 5.993 5.000 6.007 5.650 M19.727 5.470 C 20.672 7.133,21.098 8.454,20.967 9.310 C 20.808 10.351,19.855 11.053,18.687 10.991 C 18.048 10.958,17.536 10.690,16.863 10.037 L 16.466 9.652 16.301 8.326 L 16.135 7.000 16.640 7.000 C 17.253 7.000,17.461 6.942,17.701 6.701 C 17.948 6.454,18.000 6.259,18.000 5.573 L 18.000 5.000 18.730 5.000 L 19.460 5.000 19.727 5.470 M14.120 7.030 C 14.121 7.046,14.192 7.627,14.280 8.320 C 14.368 9.013,14.439 9.634,14.440 9.700 C 14.440 9.942,13.764 10.531,13.232 10.752 C 12.444 11.079,11.556 11.079,10.768 10.752 C 10.236 10.531,9.560 9.942,9.560 9.700 C 9.561 9.634,9.632 9.013,9.720 8.320 C 9.808 7.627,9.879 7.046,9.880 7.030 C 9.880 7.014,10.834 7.000,12.000 7.000 C 13.166 7.000,14.120 7.014,14.120 7.030 M8.666 11.759 C 9.145 12.196,9.832 12.579,10.488 12.775 C 11.086 12.954,11.273 12.979,12.000 12.979 C 12.727 12.979,12.914 12.954,13.512 12.775 C 14.155 12.583,14.837 12.206,15.310 11.781 C 15.421 11.682,15.523 11.600,15.537 11.600 C 15.551 11.600,15.718 11.726,15.907 11.879 C 16.097 12.033,16.380 12.234,16.536 12.326 C 16.692 12.418,16.860 12.517,16.910 12.547 L 17.000 12.602 17.000 13.801 L 17.000 15.000 12.000 15.000 L 7.000 15.000 7.000 13.745 L 7.000 12.490 7.130 12.436 C 7.294 12.369,8.009 11.888,8.220 11.703 C 8.308 11.626,8.395 11.562,8.414 11.562 C 8.433 11.561,8.547 11.649,8.666 11.759 M19.000 18.573 C 19.000 20.362,18.994 20.409,18.701 20.701 C 18.379 21.023,18.903 21.000,12.000 21.000 C 5.097 21.000,5.621 21.023,5.299 20.701 C 5.006 20.409,5.000 20.362,5.000 18.573 L 5.000 17.000 12.000 17.000 L 19.000 17.000 19.000 18.573 " fill="#000640" stroke="none" fill-rule="evenodd"></path></svg>