<svg xmlns="http://www.w3.org/2000/svg" width="24" height="24" fill="currentColor" class="mmi mmi-stand-microphone-loading" viewBox="0 0 24 24"><path d="M11.340 1.046 C 10.849 1.108,10.317 1.273,9.820 1.517 C 8.374 2.226,7.390 3.510,7.075 5.100 C 6.994 5.510,6.994 11.490,7.075 11.900 C 7.482 13.953,9.047 15.518,11.100 15.925 C 11.468 15.998,12.532 15.998,12.900 15.925 C 13.944 15.718,14.884 15.206,15.605 14.450 C 16.152 13.878,16.515 13.273,16.754 12.535 C 16.983 11.828,16.980 11.884,16.980 8.460 L 16.980 5.300 16.871 4.869 C 16.675 4.098,16.372 3.471,15.926 2.912 C 14.822 1.527,13.090 0.823,11.340 1.046 M12.756 3.097 C 13.093 3.189,13.595 3.447,13.873 3.671 C 14.402 4.096,14.814 4.779,14.937 5.434 C 15.031 5.932,15.031 11.068,14.937 11.566 C 14.757 12.522,14.042 13.404,13.151 13.766 C 11.642 14.380,9.989 13.734,9.298 12.260 C 9.009 11.645,9.020 11.791,9.020 8.500 C 9.020 5.209,9.009 5.355,9.298 4.740 C 9.716 3.848,10.537 3.215,11.503 3.040 C 11.770 2.991,12.491 3.024,12.756 3.097 M4.643 10.069 C 4.397 10.156,4.147 10.418,4.060 10.681 C 3.892 11.186,4.116 12.748,4.508 13.800 C 5.419 16.251,7.540 18.137,10.084 18.759 C 10.340 18.822,10.650 18.886,10.774 18.901 L 11.000 18.929 11.000 20.537 C 11.000 22.366,11.006 22.408,11.299 22.701 C 11.690 23.092,12.310 23.092,12.701 22.701 C 12.994 22.408,13.000 22.366,13.000 20.537 L 13.000 18.929 13.226 18.901 C 13.350 18.886,13.660 18.822,13.916 18.759 C 16.168 18.209,18.070 16.696,19.132 14.610 C 19.646 13.600,19.917 12.570,19.985 11.358 C 20.017 10.783,19.956 10.554,19.702 10.300 C 19.309 9.907,18.691 9.907,18.298 10.300 C 18.081 10.517,18.013 10.740,17.985 11.320 C 17.870 13.740,16.227 15.909,13.927 16.680 C 13.209 16.920,12.858 16.974,12.000 16.974 C 11.142 16.974,10.791 16.920,10.073 16.680 C 7.777 15.911,6.136 13.750,6.017 11.340 C 5.987 10.739,5.920 10.518,5.702 10.300 C 5.423 10.021,5.024 9.934,4.643 10.069 M7.643 21.069 C 7.291 21.193,7.000 21.614,7.000 22.000 C 7.000 22.242,7.119 22.521,7.299 22.701 C 7.690 23.092,8.310 23.092,8.701 22.701 C 9.454 21.948,8.653 20.712,7.643 21.069 M15.643 21.069 C 15.291 21.193,15.000 21.614,15.000 22.000 C 15.000 22.527,15.473 23.000,16.000 23.000 C 16.242 23.000,16.521 22.881,16.701 22.701 C 17.454 21.948,16.653 20.712,15.643 21.069 " fill="#000640" stroke="none" fill-rule="evenodd"></path></svg>