<svg xmlns="http://www.w3.org/2000/svg" width="24" height="24" fill="currentColor" class="mmi mmi-standlamp" viewBox="0 0 24 24"><path d="M7.340 1.024 C 7.296 1.033,7.161 1.061,7.040 1.085 C 6.025 1.288,5.091 2.186,4.823 3.216 C 4.789 3.346,4.435 5.569,4.037 8.156 C 3.404 12.261,3.315 12.899,3.335 13.169 C 3.436 14.547,4.404 15.656,5.754 15.942 C 5.966 15.987,6.524 15.999,8.510 15.999 L 11.000 16.000 11.000 18.500 L 11.000 21.000 8.925 21.000 C 6.676 21.000,6.663 21.001,6.374 21.222 C 6.301 21.277,6.192 21.408,6.131 21.511 C 6.036 21.672,6.020 21.744,6.020 22.000 C 6.020 22.256,6.036 22.328,6.131 22.489 C 6.192 22.592,6.301 22.723,6.374 22.778 C 6.680 23.011,6.390 23.000,11.998 23.000 C 17.783 23.000,17.381 23.021,17.701 22.701 C 18.092 22.310,18.092 21.690,17.701 21.299 C 17.400 20.998,17.419 21.000,15.073 21.000 L 13.000 21.000 13.000 18.502 L 13.000 16.003 15.610 15.991 L 18.220 15.979 18.500 15.886 C 19.046 15.703,19.391 15.492,19.782 15.102 C 20.087 14.797,20.174 14.680,20.331 14.360 C 20.434 14.151,20.548 13.854,20.585 13.700 C 20.726 13.116,20.711 12.984,19.947 8.040 C 19.557 5.521,19.211 3.355,19.177 3.226 C 18.909 2.208,18.121 1.419,17.044 1.091 C 16.839 1.029,16.427 1.022,12.120 1.015 C 9.535 1.011,7.384 1.016,7.340 1.024 M16.610 3.057 C 16.827 3.134,17.023 3.297,17.140 3.496 C 17.231 3.652,17.312 4.128,17.959 8.332 C 18.435 11.429,18.668 13.046,18.652 13.147 C 18.619 13.360,18.506 13.571,18.337 13.735 C 18.046 14.017,18.465 14.000,12.000 14.000 C 5.535 14.000,5.954 14.017,5.663 13.735 C 5.435 13.513,5.345 13.303,5.350 13.000 C 5.352 12.857,5.669 10.700,6.055 8.207 C 6.825 3.227,6.775 3.465,7.101 3.217 C 7.392 2.994,7.185 3.004,12.000 3.004 C 15.625 3.004,16.488 3.014,16.610 3.057 " fill="#000640" stroke="none" fill-rule="evenodd"></path></svg>