<svg xmlns="http://www.w3.org/2000/svg" width="24" height="24" fill="currentColor" class="mmi mmi-star-filled" viewBox="0 0 24 24"><path d="M11.359 1.371 C 10.854 1.543,10.445 1.889,10.234 2.324 C 10.149 2.498,9.471 4.559,8.561 7.410 L 8.436 7.800 5.588 7.800 C 3.308 7.801,2.699 7.812,2.535 7.856 C 1.275 8.191,0.671 9.682,1.336 10.817 C 1.508 11.110,1.872 11.402,4.060 12.998 C 5.248 13.865,6.226 14.578,6.232 14.583 C 6.239 14.587,5.855 15.795,5.379 17.266 C 4.604 19.660,4.511 19.976,4.492 20.282 C 4.454 20.865,4.659 21.374,5.102 21.799 C 5.792 22.462,6.745 22.563,7.540 22.059 C 7.650 21.989,8.690 21.237,9.850 20.386 C 11.011 19.536,11.978 18.840,12.000 18.840 C 12.022 18.840,13.007 19.548,14.190 20.414 C 16.464 22.079,16.564 22.148,16.828 22.252 C 18.111 22.756,19.587 21.684,19.512 20.304 C 19.496 20.016,19.396 19.677,18.625 17.285 C 18.147 15.803,17.761 14.587,17.768 14.583 C 17.775 14.578,18.780 13.843,20.001 12.950 C 21.256 12.033,22.312 11.232,22.427 11.110 C 22.775 10.743,22.935 10.328,22.935 9.800 C 22.935 8.888,22.328 8.085,21.465 7.856 C 21.301 7.812,20.692 7.801,18.412 7.800 L 15.564 7.800 15.439 7.410 C 14.508 4.494,13.849 2.498,13.759 2.320 C 13.527 1.864,13.109 1.514,12.609 1.359 C 12.245 1.247,11.708 1.252,11.359 1.371 " fill="#000640" stroke="none" fill-rule="evenodd"></path></svg>