<svg xmlns="http://www.w3.org/2000/svg" width="24" height="24" fill="currentColor" class="mmi mmi-starspeed" viewBox="0 0 24 24"><path d="M11.359 1.371 C 10.854 1.543,10.445 1.889,10.234 2.324 C 10.149 2.498,9.471 4.559,8.561 7.410 L 8.436 7.800 5.588 7.800 C 3.308 7.801,2.699 7.812,2.535 7.856 C 1.275 8.191,0.671 9.682,1.336 10.817 C 1.534 11.155,1.608 11.212,6.233 14.583 C 6.239 14.588,5.854 15.804,5.376 17.286 C 4.603 19.678,4.504 20.016,4.488 20.304 C 4.457 20.869,4.668 21.382,5.102 21.799 C 5.827 22.495,6.828 22.568,7.658 21.985 C 8.247 21.572,12.591 18.380,12.687 18.290 C 12.947 18.048,13.042 17.536,12.890 17.193 C 12.682 16.728,12.180 16.500,11.671 16.642 C 11.579 16.667,10.579 17.374,9.043 18.498 C 7.679 19.496,6.547 20.324,6.526 20.336 C 6.505 20.349,6.542 20.193,6.607 19.990 C 6.672 19.786,7.060 18.585,7.468 17.320 C 8.271 14.835,8.305 14.687,8.202 14.188 C 8.128 13.835,7.915 13.451,7.652 13.196 C 7.524 13.073,6.449 12.263,5.263 11.396 L 3.106 9.820 5.963 9.800 L 8.820 9.780 9.095 9.673 C 9.637 9.463,10.013 9.117,10.243 8.620 C 10.304 8.488,10.719 7.242,11.166 5.850 C 11.614 4.458,11.989 3.320,12.000 3.320 C 12.011 3.320,12.386 4.458,12.834 5.850 C 13.281 7.242,13.696 8.488,13.757 8.620 C 13.992 9.129,14.406 9.499,14.949 9.687 L 15.220 9.780 18.480 9.780 C 22.081 9.780,21.860 9.795,22.169 9.525 C 22.681 9.075,22.566 8.210,21.953 7.904 L 21.744 7.800 18.654 7.800 L 15.564 7.800 15.439 7.410 C 14.508 4.494,13.849 2.498,13.759 2.320 C 13.527 1.864,13.109 1.514,12.609 1.359 C 12.245 1.247,11.708 1.252,11.359 1.371 M15.019 11.594 C 14.931 11.635,14.800 11.727,14.728 11.798 C 14.510 12.016,14.461 12.145,14.461 12.500 C 14.461 12.862,14.512 12.991,14.745 13.217 C 15.032 13.495,14.854 13.483,18.523 13.471 L 21.826 13.460 22.022 13.339 C 22.143 13.264,22.264 13.143,22.339 13.022 C 22.448 12.846,22.460 12.793,22.460 12.500 C 22.460 12.207,22.448 12.154,22.339 11.978 C 22.264 11.857,22.143 11.736,22.022 11.661 L 21.826 11.540 18.503 11.531 C 15.352 11.522,15.172 11.525,15.019 11.594 M15.019 15.595 C 14.931 15.635,14.800 15.727,14.728 15.798 C 14.510 16.016,14.461 16.145,14.461 16.500 C 14.461 16.855,14.510 16.984,14.728 17.202 C 15.020 17.494,14.809 17.478,18.411 17.479 C 21.927 17.480,21.762 17.490,22.068 17.256 C 22.510 16.919,22.510 16.081,22.068 15.744 C 21.762 15.510,21.927 15.520,18.411 15.521 C 15.368 15.522,15.171 15.526,15.019 15.595 M15.019 19.594 C 14.931 19.635,14.800 19.727,14.728 19.798 C 14.510 20.016,14.461 20.145,14.461 20.500 C 14.461 20.862,14.512 20.991,14.745 21.217 C 15.032 21.495,14.854 21.483,18.523 21.471 L 21.826 21.460 22.022 21.339 C 22.143 21.264,22.264 21.143,22.339 21.022 C 22.448 20.846,22.460 20.793,22.460 20.500 C 22.460 20.207,22.448 20.154,22.339 19.978 C 22.264 19.857,22.143 19.736,22.022 19.661 L 21.826 19.540 18.503 19.531 C 15.352 19.522,15.172 19.525,15.019 19.594 " fill="#000640" stroke="none" fill-rule="evenodd"></path></svg>