<svg xmlns="http://www.w3.org/2000/svg" width="24" height="24" fill="currentColor" class="mmi mmi-star" viewBox="0 0 24 24"><path d="M11.359 1.371 C 10.854 1.543,10.445 1.889,10.234 2.324 C 10.149 2.498,9.471 4.559,8.561 7.410 L 8.436 7.800 5.588 7.800 C 3.308 7.801,2.699 7.812,2.535 7.856 C 1.275 8.191,0.671 9.682,1.336 10.817 C 1.508 11.110,1.872 11.402,4.060 12.998 C 5.248 13.865,6.226 14.578,6.232 14.583 C 6.239 14.587,5.855 15.795,5.379 17.266 C 4.604 19.660,4.511 19.976,4.492 20.282 C 4.454 20.865,4.659 21.374,5.102 21.799 C 5.792 22.462,6.745 22.563,7.540 22.059 C 7.650 21.989,8.690 21.237,9.850 20.386 C 11.011 19.536,11.978 18.840,12.000 18.840 C 12.022 18.840,13.007 19.548,14.190 20.414 C 16.464 22.079,16.564 22.148,16.828 22.252 C 18.111 22.756,19.587 21.684,19.512 20.304 C 19.496 20.016,19.396 19.677,18.625 17.285 C 18.147 15.803,17.761 14.587,17.768 14.583 C 17.775 14.578,18.780 13.843,20.001 12.950 C 21.256 12.033,22.312 11.232,22.427 11.110 C 22.775 10.743,22.935 10.328,22.935 9.800 C 22.935 8.888,22.328 8.085,21.465 7.856 C 21.301 7.812,20.692 7.801,18.412 7.800 L 15.564 7.800 15.439 7.410 C 14.508 4.494,13.849 2.498,13.759 2.320 C 13.527 1.864,13.109 1.514,12.609 1.359 C 12.245 1.247,11.708 1.252,11.359 1.371 M12.558 4.990 C 13.698 8.540,13.737 8.650,13.916 8.914 C 14.170 9.289,14.522 9.545,15.000 9.705 C 15.203 9.772,15.444 9.780,18.057 9.799 L 20.894 9.820 18.737 11.395 C 17.551 12.262,16.477 13.071,16.352 13.192 C 15.971 13.562,15.760 14.064,15.760 14.598 C 15.761 14.930,15.717 14.779,16.581 17.460 C 16.985 18.714,17.359 19.879,17.413 20.049 L 17.511 20.357 17.345 20.242 C 17.254 20.179,16.271 19.459,15.160 18.643 C 14.044 17.824,13.015 17.097,12.860 17.020 C 12.311 16.747,11.690 16.747,11.140 17.020 C 10.985 17.097,9.960 17.820,8.840 18.643 C 7.729 19.459,6.746 20.179,6.655 20.242 L 6.489 20.357 6.587 20.049 C 6.641 19.879,7.015 18.714,7.419 17.460 C 8.283 14.779,8.239 14.930,8.240 14.598 C 8.240 14.064,8.029 13.562,7.648 13.193 C 7.523 13.071,6.449 12.263,5.263 11.396 L 3.106 9.820 5.963 9.800 L 8.820 9.780 9.095 9.673 C 9.637 9.463,10.013 9.117,10.243 8.620 C 10.304 8.488,10.719 7.242,11.166 5.850 C 11.614 4.458,11.989 3.320,12.000 3.320 C 12.012 3.320,12.263 4.071,12.558 4.990 " fill="#000640" stroke="none" fill-rule="evenodd"></path></svg>