<svg xmlns="http://www.w3.org/2000/svg" width="24" height="24" fill="currentColor" class="mmi mmi-step-path-filled" viewBox="0 0 24 24"><path d="M3.746 3.042 C 2.545 3.244,1.621 4.108,1.316 5.317 C 1.204 5.759,1.223 6.435,1.359 6.859 C 1.408 7.012,1.964 8.164,2.593 9.419 L 3.737 11.700 3.737 12.000 L 3.737 12.300 2.593 14.581 C 1.964 15.836,1.408 16.988,1.359 17.141 C 1.224 17.563,1.204 18.240,1.315 18.683 C 1.586 19.768,2.376 20.587,3.460 20.909 C 3.685 20.975,4.094 20.980,9.954 20.991 C 16.097 21.001,16.213 21.000,16.546 20.921 C 17.191 20.768,17.775 20.419,18.158 19.958 C 18.384 19.687,22.253 13.511,22.380 13.220 C 22.566 12.792,22.618 12.524,22.618 12.000 C 22.618 11.487,22.569 11.226,22.391 10.800 C 22.350 10.701,21.412 9.172,20.308 7.403 C 18.577 4.630,18.261 4.147,18.020 3.901 C 17.575 3.448,16.989 3.144,16.360 3.043 C 16.048 2.992,4.047 2.992,3.746 3.042 " fill="#000640" stroke="none" fill-rule="evenodd"></path></svg>