<svg xmlns="http://www.w3.org/2000/svg" width="24" height="24" fill="currentColor" class="mmi mmi-stethoscope" viewBox="0 0 24 24"><path d="M2.664 1.063 C 2.436 1.146,2.257 1.297,2.131 1.511 L 2.020 1.700 2.020 4.720 C 2.020 7.521,2.025 7.766,2.095 8.100 C 2.435 9.728,3.336 11.090,4.662 11.980 C 5.337 12.434,5.975 12.696,6.890 12.897 L 7.000 12.922 7.000 14.682 C 7.000 15.651,7.019 16.618,7.042 16.832 C 7.231 18.563,7.925 20.080,9.038 21.193 C 9.925 22.080,10.972 22.632,12.260 22.890 C 12.895 23.017,14.105 23.017,14.740 22.890 C 15.197 22.798,15.815 22.604,16.207 22.429 C 17.271 21.953,18.307 21.004,18.974 19.892 C 19.474 19.060,19.838 17.926,19.958 16.832 C 19.984 16.586,20.000 15.044,20.000 12.644 L 20.000 8.846 20.298 8.702 C 22.156 7.808,22.574 5.343,21.115 3.885 C 20.752 3.522,20.273 3.244,19.760 3.097 C 19.398 2.994,18.602 2.994,18.240 3.097 C 17.530 3.300,16.914 3.742,16.507 4.339 C 15.478 5.852,16.098 7.998,17.780 8.742 L 18.000 8.839 18.000 12.561 C 18.000 14.903,17.984 16.427,17.958 16.672 C 17.751 18.567,16.739 20.033,15.193 20.673 C 14.294 21.045,13.185 21.099,12.215 20.817 C 10.708 20.381,9.556 19.096,9.168 17.420 C 9.028 16.815,9.000 16.350,9.000 14.602 L 9.000 12.922 9.110 12.897 C 10.025 12.696,10.663 12.434,11.338 11.980 C 12.649 11.100,13.521 9.799,13.885 8.180 C 13.973 7.788,13.976 7.718,13.990 4.826 C 14.006 1.484,14.016 1.614,13.702 1.300 C 13.420 1.018,13.317 1.000,11.998 1.000 C 10.758 1.000,10.645 1.015,10.374 1.222 C 10.301 1.277,10.192 1.408,10.131 1.511 C 10.036 1.672,10.020 1.744,10.020 2.000 C 10.020 2.256,10.036 2.328,10.131 2.489 C 10.371 2.898,10.630 3.000,11.427 3.000 L 12.005 3.000 11.990 5.310 C 11.975 7.543,11.972 7.631,11.886 7.958 C 11.510 9.390,10.424 10.488,9.005 10.871 C 8.669 10.962,8.542 10.975,8.000 10.975 C 7.458 10.975,7.331 10.962,6.995 10.871 C 5.806 10.550,4.914 9.799,4.376 8.663 C 4.026 7.923,4.027 7.934,4.010 5.310 L 3.995 3.000 4.571 3.000 C 5.259 3.000,5.453 2.949,5.701 2.701 C 6.092 2.310,6.092 1.690,5.701 1.299 C 5.419 1.017,5.318 1.000,3.983 1.003 C 3.079 1.005,2.785 1.018,2.664 1.063 M19.340 5.066 C 19.709 5.192,20.000 5.604,20.000 6.000 C 20.000 6.527,19.527 7.000,19.000 7.000 C 18.758 7.000,18.479 6.881,18.299 6.701 C 17.907 6.309,17.908 5.690,18.300 5.298 C 18.577 5.020,18.957 4.936,19.340 5.066 " fill="#000640" stroke="none" fill-rule="evenodd"></path></svg>