<svg xmlns="http://www.w3.org/2000/svg" width="24" height="24" fill="currentColor" class="mmi mmi-stickgroup" viewBox="0 0 24 24"><path d="M7.664 3.063 C 7.436 3.146,7.257 3.297,7.131 3.511 L 7.020 3.700 7.008 8.040 L 6.997 12.380 6.428 12.595 C 2.943 13.917,1.150 15.917,1.013 18.640 C 0.986 19.175,1.024 19.361,1.211 19.606 C 1.570 20.076,2.280 20.122,2.701 19.701 C 2.912 19.490,2.986 19.265,3.016 18.736 C 3.106 17.181,3.961 16.037,5.731 15.100 C 6.094 14.908,6.930 14.520,6.981 14.520 C 6.991 14.520,7.000 15.785,7.000 17.330 C 7.000 19.142,7.015 20.193,7.042 20.289 C 7.103 20.509,7.315 20.762,7.531 20.874 C 8.036 21.134,8.643 20.944,8.886 20.450 L 8.980 20.260 9.000 17.042 L 9.020 13.823 9.340 13.730 C 9.516 13.679,9.961 13.559,10.330 13.462 L 11.000 13.286 11.000 16.713 C 11.000 18.950,11.015 20.192,11.042 20.289 C 11.103 20.509,11.315 20.762,11.531 20.874 C 11.932 21.080,12.390 21.012,12.700 20.702 C 13.016 20.386,13.000 20.610,13.000 16.460 L 13.000 12.775 13.310 12.702 C 13.480 12.662,13.931 12.544,14.310 12.440 L 15.000 12.252 15.000 16.196 C 15.000 18.790,15.015 20.191,15.042 20.289 C 15.103 20.509,15.315 20.762,15.531 20.874 C 15.932 21.080,16.390 21.012,16.700 20.702 C 17.018 20.384,17.000 20.678,17.001 15.883 L 17.002 11.620 17.571 11.406 C 18.250 11.151,19.365 10.614,19.846 10.309 C 21.847 9.043,22.881 7.413,22.988 5.358 C 23.017 4.783,22.955 4.553,22.702 4.300 C 22.238 3.836,21.469 3.935,21.137 4.502 C 21.048 4.653,21.026 4.755,20.996 5.151 C 20.910 6.298,20.565 7.083,19.834 7.798 C 19.365 8.256,18.823 8.627,18.069 9.006 C 17.702 9.190,17.059 9.480,17.016 9.480 C 17.007 9.480,17.000 8.214,17.000 6.667 C 17.000 3.494,17.010 3.608,16.700 3.298 C 16.390 2.988,15.932 2.920,15.531 3.126 C 15.315 3.238,15.103 3.491,15.042 3.711 C 15.015 3.808,15.000 4.963,15.000 7.008 C 15.000 8.739,14.986 10.164,14.968 10.175 C 14.951 10.185,14.533 10.304,14.038 10.439 C 13.544 10.574,13.108 10.693,13.070 10.705 C 13.004 10.724,13.000 10.543,13.000 7.290 C 13.000 3.420,13.014 3.612,12.700 3.298 C 12.390 2.988,11.932 2.920,11.531 3.126 C 11.315 3.238,11.103 3.491,11.042 3.711 C 11.015 3.809,11.000 5.131,11.000 7.550 C 11.000 10.475,10.990 11.240,10.950 11.240 C 10.922 11.240,10.473 11.354,9.950 11.493 L 9.000 11.745 9.000 7.800 C 9.000 3.361,9.017 3.615,8.701 3.299 C 8.429 3.027,8.018 2.933,7.664 3.063 " fill="#000640" stroke="none" fill-rule="evenodd"></path></svg>