<svg xmlns="http://www.w3.org/2000/svg" width="24" height="24" fill="currentColor" class="mmi mmi-stop" viewBox="0 0 24 24"><path d="M11.240 0.023 C 11.163 0.032,10.902 0.059,10.660 0.083 C 9.176 0.231,7.458 0.780,6.146 1.527 C 3.671 2.935,1.846 5.035,0.818 7.660 C -0.340 10.617,-0.253 14.008,1.056 16.915 C 2.261 19.593,4.407 21.739,7.085 22.944 C 11.087 24.745,15.842 24.191,19.300 21.521 C 21.613 19.735,23.205 17.177,23.759 14.360 C 23.933 13.473,23.979 12.983,23.979 12.000 C 23.979 11.501,23.955 10.904,23.926 10.660 C 23.259 5.127,19.043 0.840,13.540 0.100 C 13.088 0.040,11.546 -0.012,11.240 0.023 " stroke="none" fill-rule="evenodd"></path></svg>