<svg xmlns="http://www.w3.org/2000/svg" width="24" height="24" fill="currentColor" class="mmi mmi-stop copy" viewBox="0 0 24 24"><path d="M6.503 4.042 C 5.487 4.215,4.556 4.976,4.202 5.925 C 3.996 6.477,4.001 6.315,4.001 11.992 C 4.000 17.780,3.991 17.556,4.234 18.151 C 4.521 18.857,5.143 19.479,5.849 19.766 C 6.444 20.008,6.221 20.000,12.000 20.000 C 17.777 20.000,17.556 20.008,18.150 19.767 C 18.850 19.482,19.482 18.850,19.767 18.150 C 20.008 17.556,20.000 17.777,20.000 12.000 C 20.000 6.221,20.008 6.444,19.766 5.849 C 19.499 5.193,18.964 4.633,18.296 4.312 C 17.643 3.998,18.171 4.023,12.120 4.015 C 9.139 4.012,6.611 4.023,6.503 4.042 M17.340 6.066 C 17.455 6.105,17.603 6.201,17.701 6.299 C 18.021 6.619,18.000 6.217,18.000 12.000 C 18.000 17.783,18.021 17.381,17.701 17.701 C 17.381 18.021,17.783 18.000,12.000 18.000 C 6.217 18.000,6.619 18.021,6.299 17.701 C 5.979 17.381,6.000 17.783,6.000 12.000 C 6.000 6.216,5.979 6.619,6.300 6.298 C 6.612 5.986,6.207 6.007,11.983 6.003 C 16.689 6.000,17.163 6.006,17.340 6.066 " fill="#000640" stroke="none" fill-rule="evenodd"></path></svg>