<svg xmlns="http://www.w3.org/2000/svg" width="24" height="24" fill="currentColor" class="mmi mmi-stop-button" viewBox="0 0 24 24"><path d="M11.200 0.025 C 7.091 0.332,3.508 2.609,1.507 6.186 C 0.775 7.494,0.317 8.899,0.094 10.520 C -0.002 11.214,-0.002 12.786,0.094 13.480 C 0.317 15.101,0.775 16.506,1.507 17.814 C 4.173 22.579,9.604 24.939,14.910 23.637 C 19.156 22.595,22.595 19.156,23.637 14.910 C 24.599 10.992,23.592 6.970,20.896 3.958 C 19.003 1.843,16.397 0.483,13.500 0.099 C 13.032 0.037,11.640 -0.007,11.200 0.025 M12.920 2.043 C 14.827 2.219,16.631 2.940,18.200 4.155 C 18.637 4.493,19.507 5.363,19.845 5.800 C 21.878 8.427,22.517 11.768,21.578 14.865 C 21.082 16.499,20.272 17.850,19.061 19.061 C 18.287 19.836,17.547 20.383,16.623 20.863 C 13.714 22.376,10.286 22.376,7.377 20.863 C 6.454 20.383,5.715 19.837,4.938 19.061 C 3.951 18.075,3.213 16.964,2.722 15.728 C 1.390 12.368,1.921 8.686,4.153 5.800 C 4.491 5.363,5.363 4.491,5.800 4.153 C 7.114 3.137,8.541 2.486,10.125 2.181 C 11.037 2.006,12.003 1.958,12.920 2.043 M9.503 7.041 C 8.549 7.206,7.717 7.847,7.298 8.740 C 7.013 9.348,7.020 9.261,7.020 12.000 C 7.020 14.739,7.013 14.652,7.298 15.260 C 7.606 15.918,8.079 16.391,8.740 16.704 C 9.346 16.991,9.448 17.000,12.000 17.000 C 14.552 17.000,14.654 16.991,15.260 16.704 C 15.920 16.391,16.391 15.920,16.704 15.260 C 16.991 14.654,17.000 14.552,17.000 12.000 C 17.000 9.448,16.991 9.346,16.704 8.740 C 16.398 8.095,15.924 7.614,15.296 7.312 C 14.674 7.013,14.813 7.026,12.120 7.016 C 10.789 7.011,9.611 7.023,9.503 7.041 M14.340 9.066 C 14.593 9.153,14.847 9.407,14.934 9.660 C 14.992 9.831,15.000 10.108,15.000 12.000 C 15.000 14.427,15.003 14.399,14.701 14.701 C 14.399 15.003,14.428 15.000,11.998 15.000 C 9.670 15.000,9.664 15.000,9.374 14.778 C 9.301 14.723,9.192 14.592,9.131 14.489 L 9.020 14.300 9.020 12.000 L 9.020 9.700 9.131 9.511 C 9.256 9.298,9.449 9.136,9.670 9.057 C 9.788 9.015,10.281 9.003,11.983 9.002 C 13.894 9.000,14.168 9.008,14.340 9.066 " stroke="none" fill-rule="evenodd"></path></svg>