<svg xmlns="http://www.w3.org/2000/svg" width="24" height="24" fill="currentColor" class="mmi mmi-store-v2" viewBox="0 0 24 24"><path d="M6.664 1.063 C 6.436 1.146,6.257 1.297,6.131 1.511 C 6.024 1.693,6.020 1.724,6.007 2.348 L 5.993 2.995 4.865 3.008 C 3.745 3.020,3.736 3.021,3.539 3.122 C 3.296 3.247,3.155 3.428,2.684 4.220 C 1.520 6.177,0.948 7.881,1.012 9.200 C 1.075 10.505,1.730 11.708,2.730 12.355 L 3.000 12.529 3.000 16.406 C 3.000 20.642,2.996 20.568,3.234 21.151 C 3.521 21.857,4.143 22.479,4.849 22.766 C 5.449 23.011,5.123 23.000,12.000 23.000 C 18.876 23.000,18.551 23.011,19.150 22.767 C 19.850 22.482,20.482 21.850,20.767 21.150 C 21.004 20.568,21.000 20.644,21.000 16.366 L 21.000 12.449 21.270 12.275 C 21.634 12.041,22.143 11.522,22.376 11.148 C 23.178 9.862,23.196 8.423,22.437 6.462 C 22.047 5.454,20.988 3.547,20.652 3.249 C 20.401 3.026,20.233 3.000,19.053 3.000 L 18.000 3.000 18.000 2.427 C 18.000 1.741,17.948 1.546,17.701 1.299 C 17.381 0.979,17.786 1.000,11.983 1.003 C 7.607 1.005,6.796 1.014,6.664 1.063 M16.000 4.000 L 16.000 5.000 12.000 5.000 L 8.000 5.000 8.000 4.000 L 8.000 3.000 12.000 3.000 L 16.000 3.000 16.000 4.000 M6.007 5.650 C 6.020 6.277,6.024 6.307,6.131 6.489 C 6.365 6.886,6.637 7.000,7.357 7.000 L 7.865 7.000 7.702 8.298 L 7.540 9.597 7.360 9.782 C 6.640 10.522,5.698 11.001,4.964 10.999 C 3.938 10.997,3.189 10.356,3.033 9.347 C 2.898 8.469,3.320 7.147,4.273 5.470 L 4.540 5.000 5.267 5.000 L 5.993 5.000 6.007 5.650 M19.727 5.470 C 20.672 7.133,21.098 8.454,20.967 9.310 C 20.871 9.937,20.510 10.440,19.958 10.716 C 19.128 11.131,18.266 11.083,17.498 10.578 C 17.367 10.492,17.081 10.249,16.863 10.037 L 16.466 9.652 16.301 8.326 L 16.135 7.000 16.640 7.000 C 17.253 7.000,17.461 6.942,17.701 6.701 C 17.948 6.454,18.000 6.259,18.000 5.573 L 18.000 5.000 18.730 5.000 L 19.460 5.000 19.727 5.470 M14.120 7.030 C 14.121 7.046,14.192 7.627,14.280 8.320 C 14.368 9.013,14.439 9.634,14.440 9.700 C 14.440 9.942,13.764 10.531,13.232 10.752 C 12.444 11.079,11.556 11.079,10.768 10.752 C 10.236 10.531,9.560 9.942,9.560 9.700 C 9.561 9.634,9.632 9.013,9.720 8.320 C 9.808 7.627,9.879 7.046,9.880 7.030 C 9.880 7.014,10.834 7.000,12.000 7.000 C 13.166 7.000,14.120 7.014,14.120 7.030 M8.666 11.759 C 9.145 12.196,9.832 12.579,10.488 12.775 C 11.086 12.954,11.273 12.979,12.000 12.979 C 12.727 12.979,12.914 12.954,13.512 12.775 C 14.155 12.583,14.837 12.206,15.310 11.781 C 15.421 11.682,15.522 11.600,15.534 11.600 C 15.547 11.600,15.715 11.728,15.908 11.883 C 16.765 12.573,17.646 12.942,18.550 12.989 L 19.000 13.012 19.000 16.579 C 19.000 20.594,19.015 20.387,18.701 20.701 C 18.423 20.979,18.308 21.000,17.075 21.000 L 16.004 21.000 15.991 19.190 C 15.977 17.382,15.977 17.380,15.872 16.995 C 15.547 15.802,14.798 14.914,13.663 14.376 C 13.100 14.110,12.697 14.024,12.000 14.024 C 11.303 14.024,10.900 14.110,10.337 14.376 C 9.212 14.909,8.477 15.773,8.132 16.968 L 8.025 17.340 8.010 19.170 L 7.995 21.000 6.925 21.000 C 5.692 21.000,5.577 20.979,5.299 20.701 C 4.985 20.387,5.000 20.595,5.000 16.573 L 5.000 13.000 5.175 13.000 C 5.653 13.000,6.445 12.779,7.042 12.479 C 7.380 12.309,7.976 11.916,8.220 11.703 C 8.308 11.626,8.395 11.562,8.414 11.562 C 8.433 11.561,8.547 11.649,8.666 11.759 M12.383 16.043 C 12.959 16.149,13.541 16.594,13.790 17.120 C 13.983 17.527,14.000 17.715,14.000 19.427 L 14.000 21.000 12.000 21.000 L 10.000 21.000 10.000 19.427 C 10.000 18.471,10.017 17.762,10.043 17.617 C 10.113 17.238,10.299 16.894,10.596 16.596 C 11.085 16.108,11.698 15.918,12.383 16.043 " fill="#000640" stroke="none" fill-rule="evenodd"></path></svg>