<svg xmlns="http://www.w3.org/2000/svg" width="24" height="24" fill="currentColor" class="mmi mmi-store" viewBox="0 0 24 24"><path d="M4.660 1.064 C 4.324 1.184,3.311 2.010,2.613 2.734 C 1.845 3.530,1.380 4.263,1.133 5.065 C 1.034 5.388,1.024 5.476,1.026 6.040 C 1.027 6.578,1.041 6.711,1.131 7.048 C 1.392 8.026,1.974 8.866,2.730 9.355 L 3.000 9.529 3.000 13.762 L 3.000 17.994 2.369 18.007 C 1.783 18.019,1.723 18.027,1.539 18.122 C 1.312 18.239,1.102 18.492,1.039 18.722 C 1.011 18.826,1.001 19.467,1.008 20.590 L 1.020 22.300 1.131 22.489 C 1.260 22.709,1.437 22.854,1.678 22.939 C 1.830 22.993,3.022 23.000,11.998 23.000 C 23.385 23.000,22.374 23.028,22.701 22.701 C 22.995 22.407,23.000 22.371,23.000 20.500 C 23.000 18.629,22.995 18.593,22.701 18.299 C 22.454 18.052,22.259 18.000,21.573 18.000 L 21.000 18.000 21.000 13.725 L 21.000 9.449 21.270 9.275 C 21.846 8.901,22.407 8.222,22.684 7.563 C 22.968 6.886,23.070 6.034,22.943 5.399 C 22.761 4.494,22.274 3.656,21.400 2.747 C 20.700 2.019,19.672 1.184,19.323 1.061 C 19.170 1.007,18.308 1.000,11.985 1.003 C 5.871 1.006,4.797 1.015,4.660 1.064 M8.267 3.090 C 8.215 3.303,7.640 6.046,7.594 6.300 C 7.550 6.544,7.520 6.605,7.362 6.775 C 7.072 7.086,6.570 7.467,6.191 7.662 C 4.976 8.290,3.752 8.014,3.244 6.998 C 2.796 6.103,2.965 5.369,3.858 4.323 C 4.132 4.001,4.727 3.453,5.117 3.162 L 5.334 3.000 6.812 3.000 L 8.289 3.000 8.267 3.090 M13.680 3.011 C 13.680 3.017,13.851 3.875,14.059 4.916 L 14.438 6.810 14.280 6.989 C 13.907 7.413,13.370 7.748,12.820 7.899 C 12.688 7.935,12.390 7.975,12.158 7.987 C 11.223 8.039,10.419 7.721,9.777 7.048 C 9.645 6.909,9.560 6.785,9.560 6.729 C 9.560 6.679,9.711 5.923,9.896 5.049 C 10.081 4.175,10.254 3.357,10.279 3.230 L 10.326 3.000 12.003 3.000 C 12.925 3.000,13.680 3.005,13.680 3.011 M19.066 3.306 C 19.878 3.959,20.461 4.620,20.778 5.248 C 20.985 5.658,21.031 5.922,20.964 6.334 C 20.867 6.941,20.500 7.445,19.958 7.716 C 19.128 8.132,18.265 8.083,17.498 7.578 C 17.164 7.358,16.492 6.700,16.444 6.546 C 16.422 6.476,16.258 5.682,16.080 4.780 C 15.901 3.878,15.746 3.109,15.735 3.070 C 15.716 3.004,15.804 3.000,17.200 3.000 L 18.686 3.000 19.066 3.306 M8.666 8.759 C 9.276 9.316,10.098 9.717,11.060 9.927 C 11.380 9.996,12.620 9.996,12.940 9.927 C 13.888 9.720,14.705 9.325,15.310 8.781 C 15.421 8.682,15.522 8.600,15.534 8.600 C 15.547 8.600,15.715 8.728,15.908 8.883 C 16.765 9.573,17.646 9.942,18.550 9.989 L 19.000 10.012 19.000 14.006 L 19.000 18.000 17.503 18.000 L 16.005 18.000 15.991 16.170 L 15.976 14.340 15.868 13.941 C 15.561 12.807,14.844 11.907,13.860 11.421 C 13.043 11.017,12.022 10.903,11.042 11.105 C 10.357 11.246,9.676 11.608,9.186 12.093 C 8.681 12.592,8.331 13.208,8.129 13.952 L 8.024 14.340 8.009 16.170 L 7.995 18.000 6.497 18.000 L 5.000 18.000 5.000 14.000 L 5.000 10.000 5.175 10.000 C 5.653 10.000,6.445 9.779,7.042 9.479 C 7.380 9.309,7.976 8.916,8.220 8.703 C 8.308 8.626,8.395 8.562,8.414 8.562 C 8.433 8.561,8.547 8.649,8.666 8.759 M12.440 13.043 C 13.020 13.136,13.500 13.484,13.760 14.000 C 13.981 14.438,13.999 14.611,13.999 16.390 L 14.000 18.000 12.000 18.000 L 10.000 18.000 10.001 16.390 C 10.001 14.581,10.018 14.425,10.262 13.961 C 10.649 13.224,11.456 12.884,12.440 13.043 M21.000 20.500 L 21.000 21.000 12.000 21.000 L 3.000 21.000 3.000 20.500 L 3.000 20.000 12.000 20.000 L 21.000 20.000 21.000 20.500 " fill="#000640" stroke="none" fill-rule="evenodd"></path></svg>