<svg xmlns="http://www.w3.org/2000/svg" width="24" height="24" fill="currentColor" class="mmi mmi-straightface-v2" viewBox="0 0 24 24"><path d="M11.200 0.025 C 7.091 0.332,3.508 2.609,1.507 6.186 C 0.775 7.494,0.317 8.899,0.094 10.520 C -0.002 11.214,-0.002 12.786,0.094 13.480 C 0.317 15.101,0.775 16.506,1.507 17.814 C 4.173 22.579,9.604 24.939,14.910 23.637 C 19.156 22.595,22.595 19.156,23.637 14.910 C 24.599 10.992,23.592 6.970,20.896 3.958 C 19.003 1.843,16.397 0.483,13.500 0.099 C 13.032 0.037,11.640 -0.007,11.200 0.025 M12.920 2.043 C 14.827 2.219,16.631 2.940,18.200 4.155 C 18.637 4.493,19.507 5.363,19.845 5.800 C 21.878 8.427,22.517 11.768,21.578 14.865 C 21.082 16.499,20.272 17.850,19.061 19.061 C 18.287 19.836,17.547 20.383,16.623 20.863 C 13.714 22.376,10.286 22.376,7.377 20.863 C 6.454 20.383,5.715 19.837,4.938 19.061 C 3.951 18.075,3.213 16.964,2.722 15.728 C 1.390 12.368,1.921 8.686,4.153 5.800 C 4.491 5.363,5.363 4.491,5.800 4.153 C 7.114 3.137,8.541 2.486,10.125 2.181 C 11.037 2.006,12.003 1.958,12.920 2.043 M5.643 9.069 C 5.291 9.193,5.000 9.614,5.000 10.000 C 5.000 10.242,5.119 10.521,5.299 10.701 C 5.593 10.995,5.629 11.000,7.500 11.000 C 9.371 11.000,9.407 10.995,9.701 10.701 C 10.092 10.310,10.092 9.690,9.701 9.299 C 9.406 9.004,9.373 9.000,7.483 9.003 C 6.085 9.006,5.792 9.016,5.643 9.069 M14.643 9.069 C 14.291 9.193,14.000 9.614,14.000 10.000 C 14.000 10.242,14.119 10.521,14.299 10.701 C 14.593 10.995,14.629 11.000,16.500 11.000 C 18.371 11.000,18.407 10.995,18.701 10.701 C 19.092 10.310,19.092 9.690,18.701 9.299 C 18.406 9.004,18.373 9.000,16.483 9.003 C 15.085 9.006,14.792 9.016,14.643 9.069 M6.643 15.069 C 6.291 15.193,6.000 15.614,6.000 16.000 C 6.000 16.242,6.119 16.521,6.299 16.701 C 6.619 17.021,6.217 17.000,12.000 17.000 C 17.783 17.000,17.381 17.021,17.701 16.701 C 18.092 16.310,18.092 15.690,17.701 15.299 C 17.381 14.979,17.786 15.000,11.983 15.003 C 7.414 15.006,6.800 15.013,6.643 15.069 " stroke="none" fill-rule="evenodd"></path></svg>