<svg xmlns="http://www.w3.org/2000/svg" width="24" height="24" fill="currentColor" class="mmi mmi-streetfoodstall" viewBox="0 0 24 24"><path d="M4.664 1.063 C 4.436 1.146,4.257 1.297,4.131 1.511 L 4.020 1.700 4.007 2.711 L 3.995 3.722 2.571 6.091 C 1.788 7.394,1.115 8.546,1.074 8.650 C 0.931 9.019,1.016 9.418,1.299 9.701 C 1.546 9.948,1.741 10.000,2.427 10.000 L 3.000 10.000 3.000 13.642 C 3.000 17.619,2.998 17.571,3.234 18.151 C 3.294 18.300,3.410 18.522,3.491 18.644 C 3.794 19.100,4.386 19.598,4.804 19.749 L 4.989 19.815 5.013 20.177 C 5.096 21.445,5.934 22.508,7.139 22.875 C 7.412 22.958,7.542 22.973,8.000 22.973 C 8.458 22.973,8.588 22.958,8.861 22.875 C 10.024 22.520,10.863 21.497,10.982 20.286 L 11.010 20.000 13.505 20.000 L 16.000 20.000 16.000 21.070 C 16.000 21.684,16.018 22.204,16.042 22.289 C 16.103 22.509,16.315 22.762,16.531 22.874 C 16.932 23.080,17.390 23.012,17.700 22.702 C 17.979 22.423,18.000 22.309,18.000 21.073 L 18.000 20.000 18.142 20.000 C 18.366 20.000,18.855 19.887,19.150 19.767 C 19.850 19.482,20.482 18.850,20.767 18.150 C 21.002 17.571,21.000 17.618,21.000 13.642 L 21.000 10.000 21.573 10.000 C 22.259 10.000,22.454 9.948,22.701 9.701 C 22.984 9.418,23.069 9.019,22.926 8.650 C 22.885 8.546,22.210 7.392,21.426 6.087 L 20.000 3.714 20.000 2.784 C 20.000 1.707,19.973 1.570,19.701 1.299 C 19.377 0.975,20.026 1.000,11.983 1.003 C 5.871 1.005,4.797 1.014,4.664 1.063 M18.000 3.575 C 18.000 3.978,18.018 4.200,18.059 4.317 C 18.091 4.408,18.586 5.264,19.159 6.218 C 19.731 7.172,20.200 7.963,20.200 7.976 C 20.200 7.989,16.502 8.000,11.982 8.000 L 3.764 8.000 4.827 6.230 C 5.411 5.256,5.914 4.390,5.945 4.305 C 5.982 4.201,6.000 3.962,6.000 3.575 L 6.000 3.000 12.000 3.000 L 18.000 3.000 18.000 3.575 M19.000 11.260 L 19.000 12.520 12.000 12.520 L 5.000 12.520 5.000 11.260 L 5.000 10.000 12.000 10.000 L 19.000 10.000 19.000 11.260 M19.000 15.833 C 19.000 17.334,18.987 17.415,18.701 17.701 C 18.385 18.017,18.640 18.000,14.190 18.000 L 10.234 18.000 10.115 17.881 C 9.747 17.513,9.305 17.251,8.820 17.114 C 8.366 16.985,7.634 16.985,7.180 17.114 C 6.705 17.249,6.311 17.478,5.903 17.860 C 5.794 17.962,5.777 17.966,5.629 17.922 C 5.416 17.858,5.149 17.582,5.066 17.340 C 5.010 17.175,5.000 16.950,5.000 15.833 L 5.000 14.520 12.000 14.520 L 19.000 14.520 19.000 15.833 " fill="#000640" stroke="none" fill-rule="evenodd"></path></svg>