<svg xmlns="http://www.w3.org/2000/svg" width="24" height="24" fill="currentColor" class="mmi mmi-streetfoodstall-v2" viewBox="0 0 24 24"><path d="M3.503 1.042 C 2.488 1.214,1.556 1.976,1.202 2.925 C 1.015 3.425,1.001 3.599,1.001 5.420 C 1.001 6.484,1.016 7.197,1.042 7.289 C 1.104 7.512,1.316 7.763,1.539 7.878 C 1.723 7.973,1.783 7.981,2.369 7.993 L 3.000 8.006 3.000 12.644 C 3.000 17.716,2.993 17.561,3.234 18.151 C 3.294 18.300,3.410 18.522,3.491 18.644 C 3.794 19.100,4.386 19.598,4.804 19.749 L 4.989 19.815 5.013 20.177 C 5.096 21.445,5.934 22.508,7.139 22.875 C 7.412 22.958,7.542 22.973,8.000 22.973 C 8.458 22.973,8.588 22.958,8.861 22.875 C 10.024 22.520,10.863 21.497,10.982 20.286 L 11.010 20.000 13.005 20.000 L 15.000 20.000 15.000 21.070 C 15.000 21.684,15.018 22.204,15.042 22.289 C 15.103 22.509,15.315 22.762,15.531 22.874 C 15.932 23.080,16.390 23.012,16.700 22.702 C 16.982 22.420,17.000 22.319,17.000 20.979 L 17.000 19.813 17.155 19.766 C 17.375 19.700,17.862 19.370,18.115 19.116 C 18.542 18.687,18.815 18.177,18.938 17.581 C 18.987 17.347,19.000 16.990,19.000 15.904 L 19.000 14.524 20.610 14.512 C 22.393 14.499,22.389 14.499,22.675 14.228 C 23.103 13.822,23.096 13.148,22.659 12.765 C 22.378 12.517,22.399 12.520,20.621 12.520 L 19.000 12.520 19.000 10.260 L 19.000 8.000 20.573 8.000 C 22.362 8.000,22.409 7.994,22.701 7.701 C 22.996 7.406,23.000 7.378,23.000 5.431 C 23.000 3.561,22.984 3.384,22.766 2.849 C 22.499 2.193,21.964 1.633,21.296 1.312 C 20.634 0.993,21.532 1.022,12.120 1.015 C 7.489 1.012,3.611 1.024,3.503 1.042 M20.340 3.066 C 20.593 3.153,20.847 3.407,20.934 3.660 C 20.989 3.822,21.000 4.033,21.000 4.927 L 21.000 6.000 12.000 6.000 L 3.000 6.000 3.000 4.927 C 3.000 3.691,3.021 3.577,3.300 3.298 C 3.617 2.981,2.858 3.007,11.983 3.003 C 19.481 3.000,20.162 3.005,20.340 3.066 M17.000 10.260 L 17.000 12.520 11.000 12.520 L 5.000 12.520 5.000 10.260 L 5.000 8.000 11.000 8.000 L 17.000 8.000 17.000 10.260 M17.000 15.833 C 17.000 17.334,16.987 17.415,16.701 17.701 C 16.391 18.011,16.522 18.000,13.190 18.000 L 10.234 18.000 10.115 17.881 C 9.747 17.513,9.305 17.251,8.820 17.114 C 8.366 16.985,7.634 16.985,7.180 17.114 C 6.705 17.249,6.311 17.478,5.903 17.860 C 5.794 17.962,5.777 17.966,5.629 17.922 C 5.416 17.858,5.149 17.582,5.066 17.340 C 5.010 17.175,5.000 16.950,5.000 15.833 L 5.000 14.520 11.000 14.520 L 17.000 14.520 17.000 15.833 " fill="#000640" stroke="none" fill-rule="evenodd"></path></svg>