<svg xmlns="http://www.w3.org/2000/svg" width="24" height="24" fill="currentColor" class="mmi mmi-streetview" viewBox="0 0 24 24"><path d="M11.721 2.047 C 11.644 2.069,9.273 3.472,6.451 5.165 C 2.774 7.372,1.293 8.280,1.222 8.374 C 0.943 8.739,0.935 9.228,1.202 9.602 C 1.310 9.754,11.465 16.864,11.684 16.941 C 11.887 17.013,12.078 17.016,12.295 16.951 C 12.495 16.891,22.557 9.867,22.748 9.655 C 23.062 9.304,23.075 8.764,22.778 8.374 C 22.707 8.280,21.226 7.372,17.549 5.166 C 14.728 3.473,12.348 2.069,12.260 2.045 C 12.070 1.992,11.910 1.993,11.721 2.047 M16.070 6.614 L 20.160 9.068 16.111 11.903 C 13.884 13.462,12.034 14.737,12.000 14.737 C 11.966 14.737,10.117 13.462,7.890 11.903 L 3.842 9.069 7.911 6.619 C 10.149 5.271,11.980 4.166,11.981 4.164 C 11.981 4.162,13.821 5.264,16.070 6.614 M1.665 13.059 C 1.191 13.228,0.893 13.802,1.040 14.265 C 1.156 14.634,1.060 14.562,6.398 18.298 C 9.214 20.270,11.593 21.909,11.684 21.941 C 11.775 21.974,11.918 22.000,12.000 22.000 C 12.082 22.000,12.225 21.974,12.316 21.941 C 12.535 21.864,22.690 14.754,22.798 14.602 C 22.844 14.538,22.908 14.410,22.941 14.318 C 23.211 13.553,22.448 12.789,21.684 13.059 C 21.593 13.091,19.390 14.607,16.790 16.427 C 14.189 18.248,12.034 19.737,12.000 19.737 C 11.966 19.737,9.811 18.248,7.210 16.427 C 4.610 14.607,2.407 13.091,2.316 13.059 C 2.111 12.986,1.869 12.986,1.665 13.059 " fill="#000640" stroke="none" fill-rule="evenodd"></path></svg>