<svg xmlns="http://www.w3.org/2000/svg" width="24" height="24" fill="currentColor" class="mmi mmi-stroller" viewBox="0 0 24 24"><path d="M10.340 1.027 C 7.630 1.251,5.335 2.677,4.045 4.937 C 3.624 5.676,3.283 6.643,3.114 7.580 C 3.024 8.075,3.020 8.186,3.020 9.900 L 3.020 11.700 3.129 12.131 C 3.568 13.859,4.771 15.187,6.392 15.732 C 6.552 15.786,6.691 15.838,6.701 15.847 C 6.710 15.857,6.594 15.987,6.444 16.136 L 6.170 16.408 5.815 16.266 C 5.185 16.014,4.556 15.947,3.901 16.061 C 2.290 16.342,1.100 17.685,1.013 19.320 C 0.938 20.717,1.703 22.008,2.988 22.654 C 3.102 22.712,3.354 22.807,3.548 22.866 C 3.863 22.962,3.963 22.974,4.500 22.974 C 5.037 22.974,5.137 22.962,5.452 22.867 C 6.654 22.500,7.501 21.653,7.866 20.452 C 7.960 20.143,7.973 20.029,7.976 19.520 C 7.979 18.891,7.916 18.569,7.691 18.067 L 7.586 17.834 8.503 16.917 L 9.419 16.000 12.000 16.000 L 14.581 16.000 15.497 16.917 L 16.414 17.834 16.309 18.067 C 16.084 18.569,16.021 18.891,16.024 19.520 C 16.027 20.029,16.040 20.143,16.134 20.452 C 16.499 21.653,17.346 22.500,18.548 22.867 C 18.863 22.962,18.963 22.974,19.500 22.974 C 20.037 22.974,20.137 22.962,20.452 22.866 C 22.046 22.381,23.074 20.942,22.987 19.320 C 22.900 17.685,21.710 16.342,20.099 16.061 C 19.444 15.947,18.815 16.014,18.185 16.266 L 17.830 16.408 17.556 16.136 C 17.406 15.987,17.290 15.857,17.299 15.847 C 17.309 15.838,17.448 15.786,17.608 15.732 C 19.220 15.190,20.425 13.866,20.866 12.152 C 20.970 11.752,20.973 11.699,20.990 10.311 C 21.009 8.668,20.999 8.597,20.702 8.300 C 20.414 8.012,20.340 8.000,18.783 8.000 L 17.420 8.000 18.920 6.500 L 20.420 5.000 21.283 5.000 C 22.286 5.000,22.433 4.969,22.701 4.701 C 23.092 4.310,23.092 3.690,22.701 3.299 C 22.421 3.018,22.316 3.000,21.000 3.000 C 20.049 3.000,19.821 3.011,19.657 3.065 C 19.478 3.124,19.232 3.358,17.019 5.565 L 14.579 8.000 13.289 8.000 L 12.000 8.000 12.000 4.927 C 12.000 1.464,12.012 1.610,11.701 1.299 C 11.429 1.027,11.109 0.963,10.340 1.027 M10.000 4.830 L 10.000 6.580 8.741 5.321 L 7.481 4.062 7.691 3.926 C 8.006 3.722,8.658 3.421,9.040 3.303 C 9.353 3.206,9.831 3.091,9.950 3.083 C 9.989 3.081,10.000 3.455,10.000 4.830 M6.834 7.990 C 5.884 7.996,5.101 7.994,5.092 7.986 C 5.067 7.960,5.201 7.362,5.307 7.026 C 5.436 6.617,5.636 6.179,5.870 5.789 L 6.057 5.478 7.309 6.729 L 8.561 7.980 6.834 7.990 M10.580 12.000 L 8.580 14.000 8.140 13.999 C 6.842 13.997,5.839 13.393,5.312 12.296 C 5.065 11.783,5.034 11.627,5.011 10.770 L 4.991 10.000 8.785 10.000 L 12.580 10.000 10.580 12.000 M19.000 10.616 C 19.000 11.396,18.931 11.781,18.704 12.260 C 18.281 13.152,17.537 13.741,16.581 13.938 C 16.332 13.990,15.885 14.000,13.852 14.000 L 11.420 14.000 13.420 12.000 L 15.420 10.000 17.210 10.000 L 19.000 10.000 19.000 10.616 M5.110 18.139 C 5.415 18.278,5.725 18.589,5.866 18.896 C 5.962 19.105,5.978 19.191,5.978 19.500 C 5.979 19.810,5.963 19.893,5.867 20.100 C 5.722 20.415,5.413 20.724,5.104 20.867 C 4.894 20.965,4.811 20.980,4.500 20.980 C 4.190 20.980,4.107 20.965,3.900 20.868 C 3.584 20.721,3.275 20.413,3.134 20.104 C 3.038 19.895,3.022 19.809,3.022 19.500 C 3.021 19.190,3.037 19.107,3.133 18.900 C 3.324 18.489,3.727 18.148,4.150 18.041 C 4.407 17.976,4.852 18.022,5.110 18.139 M20.110 18.139 C 20.415 18.278,20.725 18.589,20.866 18.896 C 20.962 19.105,20.978 19.191,20.978 19.500 C 20.979 19.810,20.963 19.893,20.867 20.100 C 20.722 20.415,20.413 20.724,20.104 20.867 C 19.894 20.965,19.811 20.980,19.500 20.980 C 19.190 20.980,19.107 20.965,18.900 20.868 C 18.584 20.721,18.275 20.413,18.134 20.104 C 18.038 19.895,18.022 19.809,18.022 19.500 C 18.021 19.190,18.037 19.107,18.133 18.900 C 18.324 18.489,18.727 18.148,19.150 18.041 C 19.407 17.976,19.852 18.022,20.110 18.139 " fill="#000640" stroke="none" fill-rule="evenodd"></path></svg>