<svg xmlns="http://www.w3.org/2000/svg" width="24" height="24" fill="currentColor" class="mmi mmi-subway" viewBox="0 0 24 24"><path d="M5.240 1.060 C 4.084 1.298,3.138 2.202,2.901 3.298 C 2.867 3.453,2.650 5.479,2.418 7.800 L 1.997 12.020 2.011 14.780 C 2.026 17.851,2.010 17.669,2.312 18.296 C 2.792 19.296,3.772 19.932,4.950 20.009 L 5.121 20.020 4.617 20.775 C 4.340 21.190,4.088 21.601,4.057 21.690 C 3.880 22.191,4.179 22.788,4.684 22.937 C 4.872 22.993,5.667 23.000,12.000 23.000 C 18.333 23.000,19.128 22.993,19.316 22.937 C 19.821 22.788,20.120 22.191,19.943 21.690 C 19.912 21.601,19.660 21.190,19.383 20.775 L 18.879 20.020 19.050 20.009 C 19.464 19.982,19.912 19.869,20.260 19.704 C 20.920 19.391,21.391 18.920,21.704 18.260 C 21.996 17.643,22.000 17.594,22.000 14.613 L 22.000 11.996 21.580 7.788 C 21.349 5.474,21.133 3.453,21.099 3.298 C 20.916 2.456,20.288 1.685,19.467 1.298 C 18.828 0.997,19.462 1.021,12.100 1.014 C 6.727 1.008,5.452 1.017,5.240 1.060 M18.516 3.058 C 18.760 3.145,18.933 3.294,19.060 3.526 C 19.171 3.731,19.177 3.779,19.525 7.237 C 19.719 9.163,19.878 10.798,19.879 10.870 L 19.880 11.000 12.000 11.000 L 4.120 11.000 4.121 10.870 C 4.122 10.798,4.281 9.163,4.475 7.237 C 4.823 3.779,4.829 3.731,4.940 3.526 C 5.064 3.300,5.239 3.146,5.470 3.061 C 5.702 2.976,18.275 2.973,18.516 3.058 M20.000 15.073 C 20.000 17.419,20.002 17.400,19.701 17.701 C 19.377 18.025,20.023 18.000,11.998 18.000 C 4.201 18.000,4.683 18.014,4.374 17.778 C 4.301 17.723,4.192 17.592,4.131 17.489 L 4.020 17.300 4.009 15.150 L 3.997 13.000 11.999 13.000 L 20.000 13.000 20.000 15.073 M6.150 14.041 C 5.722 14.149,5.343 14.465,5.144 14.880 C 5.034 15.111,5.020 15.180,5.020 15.500 C 5.020 15.811,5.035 15.894,5.133 16.104 C 5.276 16.413,5.585 16.721,5.900 16.868 C 6.107 16.965,6.190 16.980,6.500 16.980 C 6.811 16.980,6.894 16.965,7.104 16.867 C 7.413 16.724,7.721 16.415,7.868 16.100 C 7.965 15.893,7.980 15.810,7.980 15.500 C 7.980 15.189,7.965 15.106,7.867 14.896 C 7.725 14.589,7.414 14.278,7.110 14.139 C 6.852 14.022,6.407 13.976,6.150 14.041 M17.150 14.041 C 16.722 14.149,16.343 14.465,16.144 14.880 C 16.034 15.111,16.020 15.180,16.020 15.500 C 16.020 15.811,16.035 15.894,16.133 16.104 C 16.276 16.413,16.585 16.721,16.900 16.868 C 17.107 16.965,17.190 16.980,17.500 16.980 C 17.811 16.980,17.894 16.965,18.104 16.867 C 18.413 16.724,18.721 16.415,18.868 16.100 C 18.965 15.893,18.980 15.810,18.980 15.500 C 18.980 15.189,18.965 15.106,18.867 14.896 C 18.725 14.589,18.414 14.278,18.110 14.139 C 17.852 14.022,17.407 13.976,17.150 14.041 M16.794 20.490 L 17.119 20.980 14.560 20.990 C 13.152 20.996,10.848 20.996,9.440 20.990 L 6.881 20.980 7.206 20.490 L 7.532 20.000 12.000 20.000 L 16.468 20.000 16.794 20.490 " fill="#000640" stroke="none" fill-rule="evenodd"></path></svg>