<svg xmlns="http://www.w3.org/2000/svg" width="24" height="24" fill="currentColor" class="mmi mmi-sun" viewBox="0 0 24 24"><path d="M11.643 0.069 C 11.407 0.152,11.149 0.416,11.066 0.660 C 11.015 0.809,11.000 1.004,11.000 1.500 C 11.000 2.266,11.045 2.447,11.299 2.701 C 11.690 3.092,12.310 3.092,12.701 2.701 C 12.955 2.447,13.000 2.266,13.000 1.500 C 13.000 0.734,12.955 0.553,12.701 0.299 C 12.424 0.021,12.024 -0.066,11.643 0.069 M6.180 1.528 C 6.044 1.576,5.814 1.738,5.711 1.859 C 5.575 2.019,5.510 2.262,5.527 2.548 C 5.542 2.803,5.563 2.854,5.857 3.360 C 6.209 3.966,6.348 4.136,6.580 4.244 C 6.794 4.343,7.205 4.344,7.420 4.245 C 7.836 4.054,8.085 3.535,7.966 3.105 C 7.889 2.826,7.333 1.898,7.141 1.730 C 6.877 1.497,6.497 1.417,6.180 1.528 M17.169 1.530 C 16.917 1.611,16.697 1.858,16.379 2.418 C 16.034 3.025,15.981 3.176,16.018 3.454 C 16.107 4.127,16.810 4.513,17.420 4.225 C 17.675 4.104,17.776 3.991,18.058 3.506 C 18.447 2.838,18.480 2.757,18.479 2.474 C 18.478 2.150,18.386 1.945,18.148 1.735 C 17.875 1.495,17.514 1.419,17.169 1.530 M11.200 4.044 C 9.666 4.191,8.083 4.856,6.881 5.859 C 4.059 8.213,3.206 12.200,4.818 15.500 C 6.429 18.799,10.045 20.569,13.648 19.822 C 16.724 19.184,19.184 16.724,19.822 13.648 C 20.185 11.897,19.961 10.095,19.182 8.500 C 17.710 5.486,14.549 3.721,11.200 4.044 M2.058 5.595 C 1.733 5.743,1.480 6.139,1.480 6.500 C 1.480 6.960,1.686 7.202,2.445 7.635 C 3.066 7.988,3.236 8.038,3.562 7.960 C 4.269 7.790,4.562 6.910,4.094 6.363 C 3.971 6.220,3.409 5.862,2.926 5.619 C 2.679 5.495,2.302 5.485,2.058 5.595 M21.060 5.625 C 20.648 5.836,20.095 6.174,19.965 6.295 C 19.583 6.648,19.573 7.327,19.944 7.694 C 20.190 7.938,20.588 8.051,20.897 7.966 C 21.169 7.891,22.108 7.326,22.274 7.138 C 22.608 6.757,22.605 6.238,22.265 5.852 C 22.053 5.612,21.850 5.522,21.520 5.522 C 21.320 5.522,21.214 5.546,21.060 5.625 M13.174 6.116 C 15.581 6.626,17.351 8.395,17.887 10.826 C 18.013 11.397,18.013 12.603,17.887 13.174 C 17.351 15.605,15.605 17.351,13.174 17.887 C 12.603 18.013,11.397 18.013,10.826 17.887 C 10.287 17.768,9.783 17.594,9.347 17.376 C 7.665 16.536,6.530 15.059,6.111 13.170 C 5.986 12.605,5.986 11.395,6.111 10.830 C 6.683 8.248,8.661 6.402,11.243 6.041 C 11.674 5.980,12.727 6.022,13.174 6.116 M0.643 11.069 C 0.291 11.193,-0.000 11.614,0.000 12.000 C 0.000 12.242,0.119 12.521,0.299 12.701 C 0.553 12.955,0.734 13.000,1.500 13.000 C 2.266 13.000,2.447 12.955,2.701 12.701 C 3.092 12.310,3.092 11.690,2.701 11.299 C 2.445 11.042,2.267 10.999,1.483 11.003 C 0.991 11.005,0.774 11.022,0.643 11.069 M21.643 11.069 C 21.291 11.193,21.000 11.614,21.000 12.000 C 21.000 12.242,21.119 12.521,21.299 12.701 C 21.553 12.955,21.734 13.000,22.500 13.000 C 23.266 13.000,23.447 12.955,23.701 12.701 C 23.881 12.521,24.000 12.242,24.000 12.000 C 24.000 11.604,23.709 11.192,23.340 11.066 C 23.072 10.975,21.904 10.977,21.643 11.069 M3.036 16.055 C 2.800 16.139,1.889 16.680,1.756 16.815 C 1.547 17.027,1.502 17.149,1.501 17.503 C 1.500 17.793,1.512 17.846,1.621 18.022 C 1.696 18.144,1.816 18.264,1.938 18.339 C 2.116 18.449,2.165 18.460,2.477 18.460 L 2.820 18.460 3.380 18.133 C 3.982 17.781,4.158 17.630,4.262 17.382 C 4.352 17.165,4.347 16.812,4.250 16.595 C 4.045 16.136,3.494 15.891,3.036 16.055 M20.260 16.095 C 19.876 16.275,19.672 16.588,19.672 16.997 C 19.672 17.268,19.758 17.493,19.932 17.673 C 20.002 17.745,20.312 17.952,20.620 18.131 C 21.160 18.446,21.191 18.458,21.471 18.473 C 21.722 18.487,21.790 18.475,21.977 18.383 C 22.556 18.100,22.707 17.328,22.274 16.859 C 22.108 16.678,21.171 16.112,20.918 16.039 C 20.696 15.976,20.474 15.994,20.260 16.095 M16.813 19.683 C 16.227 19.794,15.860 20.417,16.056 20.967 C 16.136 21.191,16.636 22.043,16.776 22.194 C 16.981 22.414,17.180 22.498,17.500 22.498 C 17.710 22.498,17.821 22.476,17.944 22.411 C 18.138 22.309,18.337 22.093,18.420 21.894 C 18.493 21.720,18.498 21.326,18.431 21.172 C 18.309 20.894,17.817 20.086,17.688 19.950 C 17.474 19.728,17.132 19.623,16.813 19.683 M6.645 19.735 C 6.389 19.828,6.215 20.024,5.873 20.609 L 5.540 21.180 5.540 21.523 C 5.540 21.835,5.551 21.884,5.661 22.062 C 5.975 22.571,6.706 22.676,7.141 22.275 C 7.330 22.101,7.893 21.160,7.966 20.898 C 8.014 20.721,7.982 20.398,7.899 20.239 C 7.665 19.785,7.116 19.565,6.645 19.735 M11.643 21.069 C 11.407 21.152,11.149 21.416,11.066 21.660 C 11.015 21.809,11.000 22.004,11.000 22.500 C 11.000 23.266,11.045 23.447,11.299 23.701 C 11.690 24.092,12.310 24.092,12.701 23.701 C 12.955 23.447,13.000 23.266,13.000 22.500 C 13.000 21.734,12.955 21.553,12.701 21.299 C 12.424 21.021,12.024 20.934,11.643 21.069 " stroke="none" fill-rule="evenodd"></path></svg>