<svg xmlns="http://www.w3.org/2000/svg" width="24" height="24" fill="currentColor" class="mmi mmi-suncloud" viewBox="0 0 24 24"><path d="M15.920 4.063 C 14.991 4.212,13.962 4.699,13.277 5.314 L 13.055 5.513 12.597 5.359 C 10.736 4.731,8.717 4.957,7.092 5.976 C 5.354 7.065,4.254 8.815,4.035 10.839 C 4.008 11.082,3.971 11.280,3.951 11.280 C 3.931 11.280,3.779 11.343,3.612 11.420 C 2.727 11.829,1.930 12.594,1.495 13.452 C 0.251 15.905,1.470 18.888,4.072 19.759 C 4.823 20.011,4.462 20.000,11.962 20.000 C 16.606 20.000,18.893 19.986,19.103 19.957 C 20.084 19.821,20.976 19.374,21.682 18.666 C 22.185 18.162,22.535 17.597,22.759 16.929 C 23.338 15.200,22.847 13.369,21.470 12.129 C 21.365 12.035,21.280 11.949,21.280 11.937 C 21.280 11.926,21.360 11.751,21.458 11.548 C 21.848 10.741,21.980 10.159,21.979 9.240 C 21.978 8.537,21.928 8.199,21.734 7.606 C 21.232 6.067,19.972 4.795,18.440 4.280 C 17.694 4.029,16.678 3.941,15.920 4.063 M17.524 6.101 C 18.271 6.295,18.988 6.780,19.389 7.364 C 19.795 7.955,19.968 8.516,19.969 9.240 C 19.970 9.841,19.886 10.208,19.628 10.720 L 19.456 11.060 19.298 11.050 C 19.211 11.045,18.654 11.027,18.060 11.010 L 16.980 10.980 16.970 10.860 C 16.940 10.519,16.816 9.931,16.691 9.540 C 16.366 8.527,15.900 7.748,15.165 6.990 C 14.979 6.798,14.834 6.634,14.843 6.625 C 14.925 6.549,15.306 6.340,15.542 6.242 C 16.120 6.001,16.919 5.944,17.524 6.101 M11.172 7.060 C 13.029 7.339,14.512 8.740,14.901 10.582 C 14.938 10.760,14.980 11.211,14.995 11.602 C 15.022 12.270,15.028 12.313,15.132 12.491 C 15.193 12.593,15.301 12.723,15.374 12.778 C 15.653 12.991,15.733 13.000,17.295 13.001 C 18.951 13.001,19.107 13.021,19.639 13.289 C 20.703 13.824,21.241 15.100,20.884 16.240 C 20.687 16.867,20.208 17.434,19.637 17.716 C 19.026 18.017,19.517 17.999,11.976 17.999 C 5.375 18.000,5.205 17.998,4.904 17.921 C 3.720 17.618,2.941 16.555,3.013 15.340 C 3.081 14.198,3.870 13.311,5.058 13.040 C 5.516 12.936,5.724 12.799,5.878 12.501 C 5.972 12.318,5.982 12.247,6.006 11.601 C 6.034 10.840,6.099 10.449,6.282 9.948 C 6.668 8.891,7.490 7.974,8.511 7.464 C 9.289 7.074,10.274 6.924,11.172 7.060 " fill="#000640" stroke="none" fill-rule="evenodd"></path></svg>