<svg xmlns="http://www.w3.org/2000/svg" width="24" height="24" fill="currentColor" class="mmi mmi-sunrise" viewBox="0 0 24 24"><path d="M11.664 5.063 C 11.436 5.146,11.257 5.297,11.131 5.511 L 11.020 5.700 11.008 6.908 C 10.995 8.232,11.007 8.338,11.211 8.606 C 11.678 9.218,12.688 9.062,12.934 8.340 C 13.032 8.052,13.032 5.948,12.934 5.660 C 12.764 5.160,12.165 4.879,11.664 5.063 M5.664 7.061 C 5.156 7.254,4.885 7.804,5.053 8.299 C 5.116 8.482,5.982 9.698,6.276 10.015 C 6.548 10.308,7.012 10.416,7.364 10.269 C 7.841 10.070,8.101 9.526,7.953 9.034 C 7.927 8.944,7.643 8.528,7.283 8.050 C 6.743 7.332,6.634 7.209,6.465 7.123 C 6.228 7.003,5.886 6.976,5.664 7.061 M17.674 7.059 C 17.593 7.089,17.478 7.146,17.417 7.186 C 17.276 7.278,16.148 8.781,16.086 8.959 C 16.003 9.199,16.028 9.523,16.150 9.763 C 16.425 10.305,17.106 10.473,17.594 10.120 C 17.782 9.984,18.832 8.590,18.928 8.350 C 19.234 7.583,18.449 6.774,17.674 7.059 M11.420 10.023 C 11.354 10.032,11.129 10.060,10.920 10.084 C 10.428 10.141,9.601 10.350,9.120 10.541 C 8.077 10.953,7.255 11.481,6.447 12.259 C 5.289 13.372,4.508 14.779,4.176 16.347 C 4.123 16.596,4.080 16.845,4.080 16.900 L 4.080 17.000 2.965 17.000 C 1.761 17.000,1.643 17.016,1.374 17.222 C 1.301 17.277,1.192 17.408,1.131 17.511 C 1.036 17.672,1.020 17.744,1.020 18.000 C 1.020 18.256,1.036 18.328,1.131 18.489 C 1.260 18.709,1.437 18.854,1.678 18.939 C 1.830 18.993,3.022 19.000,11.998 19.000 C 23.385 19.000,22.374 19.028,22.701 18.701 C 23.092 18.310,23.092 17.690,22.701 17.299 C 22.422 17.020,22.312 17.000,21.033 17.000 L 19.920 17.000 19.920 16.900 C 19.920 16.714,19.729 15.896,19.582 15.457 C 19.299 14.605,18.786 13.673,18.211 12.959 C 17.902 12.577,17.230 11.929,16.831 11.629 C 15.758 10.823,14.525 10.301,13.218 10.099 C 12.829 10.039,11.659 9.989,11.420 10.023 M1.664 11.063 C 1.436 11.146,1.257 11.297,1.131 11.511 C 1.036 11.672,1.020 11.744,1.020 12.000 C 1.020 12.483,1.087 12.566,2.064 13.297 C 2.525 13.641,2.948 13.928,3.035 13.954 C 3.581 14.117,4.128 13.838,4.305 13.306 C 4.421 12.954,4.315 12.559,4.034 12.295 C 3.750 12.030,2.487 11.119,2.323 11.061 C 2.111 10.986,1.871 10.987,1.664 11.063 M21.664 11.063 C 21.502 11.122,20.102 12.149,19.912 12.347 C 19.557 12.719,19.592 13.368,19.987 13.724 C 20.214 13.928,20.466 14.017,20.741 13.988 C 21.030 13.959,21.161 13.881,22.028 13.229 C 22.905 12.569,22.980 12.473,22.980 12.000 C 22.980 11.744,22.964 11.672,22.869 11.511 C 22.620 11.088,22.112 10.899,21.664 11.063 M13.135 12.121 C 14.690 12.421,16.086 13.340,16.960 14.641 C 17.429 15.338,17.681 15.942,17.896 16.890 L 17.922 17.000 12.000 17.000 L 6.078 17.000 6.104 16.890 C 6.277 16.130,6.397 15.792,6.705 15.200 C 7.504 13.664,9.064 12.487,10.762 12.140 C 11.533 11.982,12.381 11.975,13.135 12.121 " fill="#000640" stroke="none" fill-rule="evenodd"></path></svg>