<svg xmlns="http://www.w3.org/2000/svg" width="24" height="24" fill="currentColor" class="mmi mmi-swaparrow-vertical" viewBox="0 0 24 24"><path d="M8.640 2.068 C 8.485 2.121,8.095 2.494,5.829 4.755 C 4.087 6.493,3.172 7.434,3.121 7.540 C 3.000 7.790,2.982 7.999,3.060 8.265 C 3.151 8.581,3.410 8.844,3.717 8.936 C 3.987 9.016,4.052 9.016,4.323 8.936 C 4.531 8.876,4.614 8.799,6.270 7.147 L 8.000 5.422 8.000 13.281 C 8.000 18.571,8.014 21.189,8.042 21.289 C 8.103 21.509,8.315 21.762,8.531 21.874 C 8.932 22.080,9.390 22.012,9.700 21.702 C 10.028 21.375,10.000 22.267,10.000 12.000 C 10.000 1.736,10.027 2.625,9.701 2.299 C 9.424 2.021,9.028 1.935,8.640 2.068 M14.664 2.063 C 14.436 2.146,14.257 2.297,14.131 2.511 L 14.020 2.700 14.010 11.919 C 13.998 22.269,13.972 21.374,14.298 21.700 C 14.577 21.979,14.953 22.064,15.343 21.935 C 15.522 21.876,15.781 21.629,18.171 19.245 C 19.913 17.507,20.828 16.566,20.879 16.460 C 21.125 15.951,20.919 15.362,20.410 15.115 C 20.160 14.994,19.805 14.996,19.558 15.119 C 19.436 15.180,18.854 15.732,17.690 16.894 L 16.000 18.580 16.000 10.717 C 16.000 1.890,16.026 2.624,15.701 2.299 C 15.429 2.027,15.018 1.933,14.664 2.063 " fill="#000640" stroke="none" fill-rule="evenodd"></path></svg>