<svg xmlns="http://www.w3.org/2000/svg" width="24" height="24" fill="currentColor" class="mmi mmi-swaparrow-horizontal" viewBox="0 0 24 24"><path d="M15.656 3.043 C 15.480 3.094,15.162 3.388,15.075 3.578 C 14.975 3.799,14.978 4.168,15.083 4.400 C 15.144 4.535,15.588 5.005,16.871 6.290 L 18.579 8.000 10.714 8.000 C 2.133 8.000,2.684 7.985,2.374 8.222 C 2.301 8.277,2.192 8.408,2.131 8.511 C 2.036 8.672,2.020 8.744,2.020 9.000 C 2.020 9.256,2.036 9.328,2.131 9.489 C 2.260 9.709,2.437 9.854,2.678 9.939 C 2.830 9.993,3.916 10.000,11.998 10.000 C 22.265 10.000,21.375 10.027,21.701 9.701 C 21.979 9.423,22.064 9.047,21.935 8.657 C 21.876 8.478,21.629 8.219,19.245 5.829 C 17.234 3.813,16.574 3.175,16.422 3.099 C 16.212 2.994,15.903 2.972,15.656 3.043 M2.643 14.069 C 2.291 14.193,2.000 14.614,2.000 15.000 C 2.000 15.080,2.029 15.234,2.065 15.343 C 2.124 15.522,2.371 15.781,4.755 18.171 C 6.493 19.913,7.434 20.828,7.540 20.879 C 7.790 21.000,7.999 21.018,8.265 20.940 C 8.581 20.849,8.844 20.590,8.936 20.283 C 9.016 20.013,9.016 19.948,8.936 19.677 C 8.876 19.469,8.799 19.386,7.147 17.730 L 5.422 16.000 13.284 16.000 C 22.109 16.000,21.376 16.026,21.701 15.701 C 22.092 15.310,22.092 14.690,21.701 14.299 C 21.375 13.972,22.268 14.000,11.983 14.003 C 3.791 14.006,2.801 14.013,2.643 14.069 " fill="#000640" stroke="none" fill-rule="evenodd"></path></svg>