<svg xmlns="http://www.w3.org/2000/svg" width="24" height="24" fill="currentColor" class="mmi mmi-sweather-shall" viewBox="0 0 24 24"><path d="M6.400 1.066 C 6.048 1.136,5.509 1.378,5.222 1.595 C 4.416 2.206,4.003 3.052,4.001 4.095 L 4.000 4.490 3.664 4.843 C 2.178 6.404,1.396 9.190,1.122 13.900 C 1.055 15.052,0.990 17.806,1.010 18.696 C 1.026 19.431,1.040 19.576,1.118 19.820 C 1.297 20.374,1.527 20.758,1.904 21.132 C 2.543 21.766,3.203 22.000,4.353 22.000 L 4.990 22.000 5.017 22.170 C 5.052 22.388,5.205 22.650,5.374 22.778 C 5.682 23.013,5.296 23.000,11.998 23.000 C 18.903 23.000,18.379 23.023,18.701 22.701 C 18.858 22.544,19.000 22.246,19.000 22.073 C 19.000 22.005,19.048 22.000,19.642 22.000 C 20.063 22.000,20.385 21.979,20.581 21.938 C 21.785 21.690,22.690 20.785,22.938 19.581 C 23.071 18.939,22.977 14.793,22.778 12.480 C 22.449 8.667,21.677 6.252,20.337 4.844 L 20.000 4.490 20.000 4.103 C 20.000 2.642,19.172 1.536,17.740 1.085 C 17.563 1.029,16.926 1.021,12.120 1.014 C 7.464 1.008,6.658 1.015,6.400 1.066 M17.340 3.066 C 17.593 3.153,17.847 3.407,17.934 3.660 C 17.975 3.780,18.000 3.982,18.000 4.188 L 18.000 4.521 17.771 4.668 C 16.888 5.232,15.334 5.718,13.819 5.902 C 12.676 6.041,10.986 6.021,9.840 5.855 C 8.459 5.654,7.045 5.190,6.229 4.668 L 6.000 4.521 6.000 4.208 C 6.000 3.773,6.085 3.513,6.296 3.302 C 6.613 2.985,6.201 3.007,11.983 3.003 C 16.689 3.000,17.163 3.006,17.340 3.066 M5.940 6.779 C 6.977 7.281,8.345 7.677,9.630 7.846 L 10.000 7.894 10.000 11.520 C 10.000 15.603,9.985 15.387,10.300 15.702 C 10.606 16.008,10.570 16.004,13.084 15.991 L 15.300 15.980 15.489 15.869 C 15.702 15.744,15.864 15.551,15.943 15.330 C 15.986 15.209,15.997 14.446,15.998 11.358 L 16.000 7.536 16.430 7.405 C 17.310 7.136,18.139 6.786,18.691 6.449 L 18.962 6.284 19.138 6.509 C 19.235 6.633,19.413 6.924,19.533 7.157 C 20.205 8.458,20.618 10.394,20.818 13.180 C 20.956 15.101,21.046 18.882,20.962 19.233 C 20.897 19.501,20.730 19.727,20.492 19.867 C 20.306 19.976,20.279 19.980,19.650 19.993 L 19.000 20.007 19.000 15.433 C 19.000 12.406,18.986 10.810,18.958 10.711 C 18.897 10.491,18.685 10.238,18.469 10.126 C 18.068 9.920,17.610 9.988,17.300 10.298 C 16.979 10.619,17.000 10.224,17.000 15.927 L 17.000 21.000 12.000 21.000 L 7.000 21.000 7.000 15.930 C 7.000 12.561,6.986 10.810,6.958 10.711 C 6.897 10.491,6.685 10.238,6.469 10.126 C 6.068 9.920,5.610 9.988,5.300 10.298 C 4.981 10.617,5.000 10.284,5.000 15.427 L 5.000 20.000 4.427 20.000 C 3.738 20.000,3.547 19.949,3.295 19.697 C 2.980 19.383,2.981 19.387,3.035 16.920 C 3.123 12.884,3.318 10.858,3.799 8.980 C 4.086 7.860,4.539 6.851,4.968 6.375 L 5.045 6.289 5.273 6.428 C 5.398 6.504,5.698 6.662,5.940 6.779 M14.000 10.940 L 14.000 14.000 13.000 14.000 L 12.000 14.000 12.000 11.006 L 12.000 8.013 12.730 7.982 C 13.345 7.955,13.952 7.909,13.990 7.886 C 13.995 7.883,14.000 9.257,14.000 10.940 " fill="#000640" stroke="none" fill-rule="evenodd"></path></svg>