<svg xmlns="http://www.w3.org/2000/svg" width="24" height="24" fill="currentColor" class="mmi mmi-sword" viewBox="0 0 24 24"><path d="M18.769 1.521 C 16.466 1.908,15.673 2.055,15.535 2.123 C 15.371 2.202,14.956 2.706,11.670 6.816 C 9.646 9.348,7.974 11.437,7.954 11.458 C 7.933 11.481,7.663 11.242,7.270 10.853 C 6.539 10.129,6.391 10.031,6.019 10.028 C 5.574 10.023,5.187 10.306,5.062 10.725 C 4.984 10.987,4.985 11.053,5.064 11.323 C 5.123 11.521,5.192 11.604,5.853 12.271 L 6.577 13.002 3.854 15.731 C 1.377 18.212,1.124 18.478,1.065 18.657 C 0.983 18.907,0.983 19.094,1.065 19.343 C 1.124 19.519,1.302 19.712,2.755 21.171 C 3.896 22.316,4.432 22.828,4.556 22.888 C 4.800 23.006,5.066 23.024,5.326 22.940 C 5.528 22.874,5.688 22.723,8.269 20.147 L 10.998 17.423 11.729 18.147 C 12.396 18.808,12.479 18.877,12.677 18.936 C 12.948 19.016,13.012 19.016,13.283 18.936 C 13.581 18.847,13.847 18.581,13.936 18.283 C 14.016 18.012,14.016 17.948,13.936 17.677 C 13.877 17.480,13.808 17.397,13.188 16.770 C 12.780 16.358,12.520 16.066,12.542 16.045 C 12.563 16.026,14.652 14.354,17.184 12.330 C 21.290 9.047,21.798 8.629,21.877 8.466 C 21.944 8.327,22.091 7.531,22.482 5.191 C 22.766 3.491,22.999 2.045,22.999 1.977 C 23.001 1.757,22.875 1.473,22.697 1.295 C 22.514 1.112,22.223 0.997,21.963 1.004 C 21.884 1.006,20.447 1.239,18.769 1.521 M20.758 3.310 C 20.756 3.349,20.599 4.301,20.408 5.427 L 20.060 7.474 15.620 11.023 C 13.178 12.975,11.156 14.590,11.127 14.613 C 11.087 14.644,10.870 14.450,10.217 13.797 C 9.746 13.326,9.360 12.932,9.360 12.920 C 9.360 12.863,16.537 3.938,16.593 3.925 C 16.806 3.877,20.559 3.247,20.650 3.244 C 20.730 3.241,20.759 3.259,20.758 3.310 M8.800 15.220 L 9.579 16.000 9.290 16.290 L 9.000 16.580 8.210 15.790 L 7.421 15.001 7.700 14.720 C 7.853 14.566,7.988 14.440,7.999 14.440 C 8.011 14.440,8.371 14.791,8.800 15.220 M6.800 17.220 L 7.579 18.000 7.290 18.290 L 7.000 18.580 6.210 17.790 L 5.421 17.001 5.700 16.720 C 5.853 16.566,5.988 16.440,5.999 16.440 C 6.011 16.440,6.371 16.791,6.800 17.220 M4.800 19.220 L 5.579 20.000 5.290 20.290 L 5.000 20.580 4.210 19.790 L 3.421 19.001 3.700 18.720 C 3.853 18.566,3.988 18.440,3.999 18.440 C 4.011 18.440,4.371 18.791,4.800 19.220 " fill="#000640" stroke="none" fill-rule="evenodd"></path></svg>