<svg xmlns="http://www.w3.org/2000/svg" width="24" height="24" fill="currentColor" class="mmi mmi-symbol-beta" viewBox="0 0 24 24"><path d="M10.280 2.026 C 9.118 2.138,8.422 2.344,7.770 2.769 C 6.872 3.355,6.348 4.244,6.090 5.619 C 6.028 5.949,6.021 6.635,6.010 13.552 C 6.002 18.750,6.011 21.174,6.040 21.281 C 6.101 21.506,6.312 21.761,6.531 21.874 C 6.932 22.080,7.390 22.012,7.700 21.702 C 7.980 21.422,8.000 21.311,8.000 20.053 C 8.000 19.452,8.007 18.960,8.015 18.960 C 8.023 18.960,8.235 19.058,8.485 19.178 C 9.628 19.724,10.833 20.000,12.072 20.000 C 15.810 19.999,17.858 18.365,17.988 15.280 C 18.021 14.483,17.916 13.831,17.645 13.166 C 17.262 12.225,16.380 11.308,15.370 10.804 L 15.120 10.679 15.573 10.230 C 16.075 9.731,16.402 9.274,16.625 8.760 C 17.385 7.006,16.952 5.042,15.510 3.700 C 14.521 2.779,13.166 2.192,11.686 2.042 C 11.300 2.003,10.604 1.995,10.280 2.026 M11.620 4.041 C 12.912 4.188,14.087 4.863,14.633 5.772 C 14.880 6.183,14.976 6.527,14.976 7.000 C 14.976 7.352,14.959 7.467,14.871 7.713 C 14.483 8.796,13.461 9.586,12.034 9.905 C 11.827 9.952,11.443 9.978,10.739 9.996 C 9.767 10.019,9.732 10.023,9.539 10.122 C 8.767 10.520,8.853 11.648,9.678 11.939 C 9.817 11.988,10.080 12.000,11.063 12.000 C 12.402 12.000,12.945 12.049,13.544 12.222 C 14.299 12.441,14.812 12.726,15.264 13.177 C 15.612 13.524,15.816 13.876,15.926 14.320 C 16.012 14.668,15.989 15.624,15.885 16.012 C 15.600 17.081,14.867 17.643,13.420 17.904 C 13.117 17.958,12.808 17.976,12.140 17.977 C 11.376 17.978,11.206 17.966,10.854 17.889 C 9.999 17.702,9.139 17.333,8.413 16.843 L 8.020 16.578 8.020 11.359 C 8.020 6.142,8.020 6.140,8.107 5.748 C 8.315 4.815,8.695 4.389,9.521 4.163 C 10.059 4.016,10.942 3.965,11.620 4.041 " fill="#000640" stroke="none" fill-rule="evenodd"></path></svg>