<svg xmlns="http://www.w3.org/2000/svg" width="24" height="24" fill="currentColor" class="mmi mmi-symbol-percentage" viewBox="0 0 24 24"><path d="M17.668 2.061 C 17.585 2.092,17.462 2.156,17.395 2.204 C 17.259 2.301,5.139 20.446,5.054 20.680 C 4.932 21.016,5.033 21.435,5.299 21.701 C 5.650 22.052,6.191 22.092,6.606 21.796 C 6.751 21.693,18.859 3.551,18.944 3.309 C 19.212 2.548,18.429 1.782,17.668 2.061 M6.433 3.040 C 5.838 3.135,5.225 3.378,4.715 3.722 C 4.389 3.942,3.942 4.389,3.722 4.715 C 3.470 5.088,3.215 5.654,3.113 6.062 C 2.987 6.571,2.987 7.429,3.113 7.938 C 3.284 8.624,3.679 9.325,4.177 9.823 C 4.675 10.321,5.376 10.716,6.062 10.887 C 6.571 11.013,7.429 11.013,7.938 10.887 C 8.624 10.716,9.325 10.321,9.823 9.823 C 10.321 9.325,10.716 8.624,10.887 7.938 C 11.013 7.429,11.013 6.571,10.887 6.062 C 10.716 5.376,10.321 4.675,9.823 4.177 C 9.329 3.683,8.621 3.282,7.958 3.120 C 7.572 3.026,6.783 2.984,6.433 3.040 M7.408 5.044 C 8.310 5.232,9.000 6.080,9.000 7.000 C 9.000 8.080,8.080 9.000,7.000 9.000 C 5.920 9.000,5.000 8.080,5.000 7.000 C 5.000 6.102,5.657 5.269,6.534 5.057 C 6.797 4.993,7.138 4.988,7.408 5.044 M16.433 13.040 C 15.838 13.135,15.225 13.378,14.715 13.722 C 14.389 13.942,13.942 14.389,13.722 14.715 C 13.470 15.088,13.215 15.654,13.113 16.062 C 13.042 16.349,13.024 16.535,13.024 17.000 C 13.024 17.697,13.110 18.100,13.376 18.663 C 13.608 19.152,13.835 19.481,14.177 19.823 C 14.675 20.321,15.376 20.716,16.062 20.887 C 16.571 21.013,17.429 21.013,17.938 20.887 C 18.624 20.716,19.325 20.321,19.823 19.823 C 20.321 19.325,20.716 18.624,20.887 17.938 C 21.013 17.429,21.013 16.571,20.887 16.062 C 20.716 15.376,20.321 14.675,19.823 14.177 C 19.329 13.683,18.621 13.282,17.958 13.120 C 17.572 13.026,16.783 12.984,16.433 13.040 M17.408 15.044 C 18.310 15.232,19.000 16.080,19.000 17.000 C 19.000 18.080,18.080 19.000,17.000 19.000 C 15.920 19.000,15.000 18.080,15.000 17.000 C 15.000 16.102,15.657 15.269,16.534 15.057 C 16.797 14.993,17.138 14.988,17.408 15.044 " fill="#000640" stroke="none" fill-rule="evenodd"></path></svg>