<svg xmlns="http://www.w3.org/2000/svg" width="24" height="24" fill="currentColor" class="mmi mmi-symbol-questionmark" viewBox="0 0 24 24"><path d="M11.220 2.041 C 8.627 2.338,6.454 3.754,5.503 5.764 C 5.179 6.449,4.978 7.352,5.009 7.984 C 5.022 8.245,5.046 8.343,5.133 8.492 C 5.469 9.065,6.235 9.167,6.702 8.700 C 6.904 8.498,6.984 8.270,7.017 7.800 C 7.050 7.320,7.136 6.995,7.338 6.580 C 7.934 5.355,9.247 4.442,10.889 4.112 C 11.270 4.036,11.464 4.022,12.140 4.023 C 14.608 4.029,16.139 4.780,16.713 6.268 C 16.941 6.859,17.053 7.833,16.964 8.455 C 16.739 10.034,15.384 11.151,12.976 11.740 C 12.286 11.909,11.965 12.037,11.526 12.318 C 11.161 12.553,10.644 13.075,10.446 13.411 C 10.100 13.997,10.000 14.448,10.000 15.428 C 10.000 16.221,10.026 16.363,10.212 16.607 C 10.570 17.076,11.281 17.121,11.700 16.702 C 11.955 16.447,12.000 16.267,12.000 15.494 C 12.000 14.709,12.054 14.514,12.357 14.203 C 12.611 13.942,12.855 13.826,13.446 13.685 C 17.002 12.834,19.002 10.770,19.000 7.955 C 18.998 6.257,18.467 4.828,17.460 3.819 C 16.534 2.890,15.251 2.325,13.552 2.098 C 12.998 2.024,11.655 1.991,11.220 2.041 M10.601 19.064 C 10.044 19.214,9.632 19.671,9.523 20.260 C 9.405 20.900,9.776 21.583,10.400 21.873 C 10.587 21.961,10.676 21.976,11.000 21.976 C 11.324 21.976,11.413 21.961,11.600 21.873 C 12.224 21.583,12.595 20.900,12.477 20.260 C 12.366 19.662,11.954 19.211,11.381 19.062 C 11.091 18.986,10.888 18.987,10.601 19.064 " fill="#000640" stroke="none" fill-rule="evenodd"></path></svg>