<svg xmlns="http://www.w3.org/2000/svg" width="24" height="24" fill="currentColor" class="mmi mmi-symbol-and" viewBox="0 0 24 24"><path d="M10.180 2.562 C 8.884 2.762,7.838 3.465,7.362 4.455 C 7.120 4.958,7.041 5.263,7.013 5.800 C 6.962 6.778,7.344 7.893,8.197 9.256 C 8.375 9.539,8.520 9.777,8.520 9.785 C 8.520 9.793,8.255 9.972,7.930 10.184 C 6.929 10.838,6.307 11.327,5.678 11.957 C 4.864 12.773,4.505 13.319,4.220 14.173 C 4.040 14.715,3.983 15.170,4.014 15.840 C 4.092 17.577,4.798 19.003,6.060 19.976 C 6.479 20.300,6.629 20.393,7.111 20.635 C 8.816 21.491,11.050 21.716,13.258 21.254 C 14.783 20.934,16.121 20.336,17.135 19.521 C 17.330 19.364,17.510 19.243,17.535 19.253 C 17.560 19.262,17.936 19.592,18.372 19.985 C 18.808 20.378,19.231 20.750,19.312 20.810 C 19.834 21.199,20.633 20.910,20.820 20.265 C 20.865 20.111,20.880 19.973,20.863 19.865 C 20.806 19.509,20.713 19.397,19.741 18.521 L 18.808 17.682 19.060 17.191 C 19.634 16.073,19.930 14.888,19.988 13.480 C 20.017 12.772,19.967 12.565,19.702 12.300 C 19.236 11.834,18.469 11.935,18.135 12.506 C 18.036 12.673,18.025 12.741,17.993 13.314 C 17.933 14.401,17.749 15.273,17.435 15.955 L 17.280 16.290 17.090 16.119 C 15.927 15.070,13.790 12.940,12.716 11.760 C 12.236 11.233,11.475 10.351,11.489 10.339 C 11.495 10.334,11.748 10.164,12.052 9.962 C 13.444 9.034,14.247 8.240,14.660 7.383 C 14.923 6.838,14.977 6.593,14.978 5.960 C 14.978 5.307,14.916 5.033,14.639 4.455 C 14.213 3.571,13.393 2.952,12.253 2.654 C 11.917 2.566,11.756 2.550,11.140 2.538 C 10.744 2.531,10.312 2.541,10.180 2.562 M11.770 4.598 C 12.346 4.745,12.658 4.964,12.851 5.357 C 12.966 5.589,12.980 5.656,12.980 5.959 C 12.980 6.272,12.969 6.321,12.842 6.554 C 12.670 6.873,12.264 7.310,11.793 7.686 C 11.425 7.979,10.336 8.720,10.273 8.720 C 10.212 8.720,9.710 7.918,9.458 7.420 C 9.121 6.753,9.023 6.429,9.021 5.979 C 9.020 5.652,9.032 5.594,9.149 5.357 C 9.340 4.969,9.652 4.747,10.214 4.599 C 10.617 4.494,11.361 4.493,11.770 4.598 M10.280 12.024 C 10.572 12.367,11.018 12.876,11.273 13.154 C 11.948 13.894,13.998 15.953,15.071 16.969 C 15.793 17.653,15.991 17.862,15.958 17.903 C 15.868 18.010,15.208 18.436,14.860 18.610 C 13.898 19.091,12.788 19.381,11.526 19.480 C 10.177 19.587,8.608 19.252,7.647 18.653 C 7.236 18.397,6.759 17.934,6.533 17.571 C 6.105 16.884,5.900 15.781,6.059 15.027 C 6.274 14.014,7.230 13.007,9.140 11.783 C 9.469 11.572,9.741 11.400,9.743 11.400 C 9.746 11.400,9.988 11.681,10.280 12.024 " fill="#000640" stroke="none" fill-rule="evenodd"></path></svg>