<svg xmlns="http://www.w3.org/2000/svg" width="24" height="24" fill="currentColor" class="mmi mmi-symbol-omega-lowercase" viewBox="0 0 24 24"><path d="M4.190 4.055 C 3.920 4.155,3.766 4.315,3.384 4.892 C 1.719 7.405,0.927 9.960,1.013 12.540 C 1.049 13.632,1.187 14.430,1.505 15.400 C 1.919 16.662,2.582 17.750,3.445 18.581 C 4.077 19.190,4.623 19.531,5.360 19.775 C 5.929 19.964,6.335 20.017,6.998 19.988 C 8.117 19.939,9.088 19.652,9.900 19.130 C 10.691 18.621,11.375 17.864,11.805 17.023 C 11.901 16.834,11.989 16.680,12.000 16.680 C 12.011 16.680,12.099 16.834,12.195 17.023 C 12.625 17.864,13.309 18.621,14.100 19.130 C 14.912 19.652,15.883 19.939,17.002 19.988 C 17.665 20.017,18.071 19.964,18.640 19.775 C 19.377 19.531,19.923 19.190,20.555 18.581 C 22.512 16.696,23.391 13.495,22.836 10.283 C 22.579 8.797,22.019 7.255,21.243 5.899 C 20.808 5.138,20.250 4.328,20.071 4.198 C 19.529 3.806,18.755 4.047,18.541 4.675 C 18.411 5.058,18.477 5.308,18.853 5.851 C 20.644 8.438,21.354 11.362,20.818 13.948 C 20.459 15.678,19.543 17.097,18.401 17.693 C 17.816 17.998,17.308 18.066,16.540 17.941 C 15.290 17.738,14.481 17.119,13.870 15.900 C 13.311 14.782,13.085 13.547,12.988 11.072 C 12.976 10.771,12.959 10.700,12.856 10.532 C 12.458 9.886,11.542 9.886,11.144 10.532 C 11.028 10.721,11.025 10.739,10.995 11.472 C 10.953 12.473,10.894 13.107,10.780 13.780 C 10.455 15.695,9.684 17.031,8.581 17.590 C 8.090 17.838,7.384 18.000,6.783 18.000 C 5.458 18.001,4.181 16.857,3.500 15.060 C 3.353 14.670,3.138 13.813,3.075 13.360 C 3.007 12.875,3.007 11.536,3.075 11.040 C 3.326 9.220,4.024 7.472,5.147 5.851 C 5.424 5.450,5.520 5.233,5.520 5.002 C 5.520 4.797,5.419 4.521,5.284 4.357 C 5.048 4.071,4.531 3.928,4.190 4.055 " fill="#000640" stroke="none" fill-rule="evenodd"></path></svg>