<svg xmlns="http://www.w3.org/2000/svg" width="24" height="24" fill="currentColor" class="mmi mmi-symbol-ksi" viewBox="0 0 24 24"><path d="M6.480 3.024 C 5.332 3.166,4.424 3.639,3.807 4.414 C 3.369 4.965,3.056 5.725,3.012 6.340 C 2.993 6.615,3.002 6.690,3.079 6.869 C 3.355 7.510,4.147 7.701,4.648 7.248 C 4.854 7.062,4.959 6.849,5.005 6.524 C 5.076 6.024,5.393 5.524,5.789 5.293 C 6.205 5.049,6.922 4.940,7.389 5.050 C 8.542 5.322,9.399 6.896,10.680 11.094 C 10.793 11.464,10.877 11.791,10.865 11.820 C 10.854 11.849,9.549 13.601,7.965 15.714 C 5.800 18.601,5.073 19.598,5.038 19.727 C 4.854 20.407,5.408 21.060,6.106 20.988 C 6.558 20.941,6.452 21.064,9.148 17.470 L 11.611 14.186 11.979 15.263 C 12.433 16.591,12.645 17.130,13.019 17.900 C 13.838 19.586,14.816 20.546,16.060 20.886 C 16.324 20.958,16.492 20.974,17.020 20.976 C 17.695 20.979,17.912 20.948,18.460 20.772 C 19.047 20.583,19.495 20.311,19.923 19.883 C 20.520 19.285,20.934 18.422,20.988 17.660 C 21.007 17.384,20.998 17.310,20.920 17.130 C 20.823 16.903,20.589 16.665,20.377 16.576 C 20.205 16.504,19.796 16.504,19.626 16.575 C 19.437 16.654,19.208 16.867,19.114 17.052 C 19.069 17.140,19.016 17.331,18.995 17.476 C 18.925 17.972,18.607 18.476,18.219 18.703 C 17.858 18.914,17.615 18.973,17.080 18.977 C 16.595 18.980,16.572 18.976,16.303 18.849 C 15.596 18.514,14.959 17.540,14.270 15.740 C 13.850 14.643,13.096 12.281,13.134 12.181 C 13.145 12.151,14.451 10.399,16.035 8.286 C 18.200 5.399,18.927 4.402,18.962 4.273 C 19.200 3.394,18.232 2.683,17.453 3.164 C 17.355 3.225,16.557 4.258,14.850 6.533 L 12.389 9.814 12.021 8.737 C 11.567 7.407,11.354 6.869,10.980 6.100 C 10.310 4.723,9.539 3.834,8.620 3.379 C 8.120 3.132,7.731 3.039,7.120 3.021 C 6.845 3.014,6.557 3.015,6.480 3.024 " fill="#000640" stroke="none" fill-rule="evenodd"></path></svg>