<svg xmlns="http://www.w3.org/2000/svg" width="24" height="24" fill="currentColor" class="mmi mmi-symbol-gamma" viewBox="0 0 24 24"><path d="M5.664 2.063 C 5.178 2.241,4.891 2.792,5.039 3.264 C 5.065 3.350,6.418 5.418,8.044 7.860 L 11.000 12.300 11.000 16.720 C 11.000 19.641,11.014 21.191,11.042 21.289 C 11.103 21.509,11.315 21.762,11.531 21.874 C 11.932 22.080,12.390 22.012,12.700 21.702 C 13.019 21.383,13.000 21.698,13.000 16.723 L 13.000 12.300 15.944 7.884 C 17.563 5.456,18.913 3.397,18.944 3.309 C 19.159 2.701,18.664 2.000,18.019 2.000 C 17.832 2.000,17.534 2.100,17.388 2.211 C 17.311 2.270,16.221 3.868,14.643 6.235 C 13.204 8.394,12.015 10.160,12.000 10.160 C 11.985 10.160,10.796 8.394,9.357 6.235 C 7.861 3.991,6.687 2.269,6.617 2.215 C 6.349 2.010,5.971 1.950,5.664 2.063 " fill="#000640" stroke="none" fill-rule="evenodd"></path></svg>