<svg xmlns="http://www.w3.org/2000/svg" width="24" height="24" fill="currentColor" class="mmi mmi-symbol-japanesehiragana" viewBox="0 0 24 24"><path d="M11.664 2.063 C 11.436 2.146,11.257 2.297,11.131 2.511 L 11.020 2.700 11.008 3.850 L 10.995 5.000 8.423 5.000 C 5.631 5.000,5.668 4.997,5.374 5.222 C 5.301 5.277,5.192 5.408,5.131 5.511 C 5.036 5.672,5.020 5.744,5.020 6.000 C 5.020 6.256,5.036 6.328,5.131 6.489 C 5.192 6.592,5.301 6.723,5.374 6.778 C 5.668 7.003,5.631 7.000,8.425 7.000 L 11.000 7.000 11.000 8.000 L 11.000 9.000 8.425 9.000 C 5.631 9.000,5.668 8.997,5.374 9.222 C 5.301 9.277,5.192 9.408,5.131 9.511 C 5.036 9.672,5.020 9.744,5.020 10.000 C 5.020 10.256,5.036 10.328,5.131 10.489 C 5.192 10.592,5.301 10.723,5.374 10.778 C 5.668 11.003,5.631 11.000,8.425 11.000 L 11.000 11.000 11.000 12.624 L 11.000 14.249 10.910 14.227 C 10.689 14.173,10.061 14.079,9.640 14.037 C 8.756 13.948,8.008 14.059,7.337 14.376 C 6.202 14.914,5.463 15.789,5.130 16.989 C 5.034 17.337,5.022 17.449,5.022 18.000 C 5.022 18.553,5.034 18.663,5.132 19.017 C 5.475 20.256,6.357 21.252,7.520 21.715 C 9.334 22.437,11.462 21.710,12.444 20.033 C 12.854 19.333,13.000 18.704,13.000 17.645 L 13.000 16.922 13.290 17.026 C 14.256 17.374,16.242 18.239,17.321 18.780 C 17.760 19.001,18.014 19.044,18.301 18.946 C 18.558 18.858,18.736 18.715,18.869 18.489 C 18.964 18.328,18.980 18.256,18.980 18.000 C 18.980 17.744,18.964 17.672,18.869 17.511 C 18.808 17.408,18.700 17.278,18.629 17.224 C 18.558 17.170,18.104 16.938,17.620 16.709 C 16.122 15.999,14.894 15.478,13.720 15.057 L 13.020 14.806 13.010 12.903 L 12.999 11.000 15.572 11.000 C 18.477 11.000,18.394 11.008,18.701 10.701 C 19.092 10.310,19.092 9.690,18.701 9.299 C 18.394 8.992,18.477 9.000,15.573 9.000 L 13.000 9.000 13.000 8.000 L 13.000 7.000 15.573 7.000 C 18.477 7.000,18.394 7.008,18.701 6.701 C 19.092 6.310,19.092 5.690,18.701 5.299 C 18.394 4.992,18.477 5.000,15.573 5.000 L 13.000 5.000 13.000 3.927 C 13.000 2.692,12.979 2.577,12.701 2.299 C 12.429 2.027,12.018 1.933,11.664 2.063 M9.740 16.060 C 9.982 16.092,10.365 16.158,10.590 16.206 L 11.000 16.293 11.000 17.219 C 11.000 17.729,10.980 18.252,10.957 18.383 C 10.819 19.138,10.170 19.797,9.408 19.956 C 8.297 20.187,7.208 19.430,7.033 18.305 C 6.933 17.663,7.132 17.061,7.596 16.596 C 8.134 16.059,8.688 15.920,9.740 16.060 " fill="#000640" stroke="none" fill-rule="evenodd"></path></svg>