<svg xmlns="http://www.w3.org/2000/svg" width="24" height="24" fill="currentColor" class="mmi mmi-symbol-alpha" viewBox="0 0 24 24"><path d="M12.060 3.047 C 10.566 3.215,8.944 3.938,7.536 5.062 C 7.011 5.481,6.181 6.315,5.746 6.860 C 4.354 8.605,3.461 10.593,3.113 12.722 C 2.996 13.437,2.986 14.958,3.093 15.578 C 3.309 16.814,3.732 17.870,4.338 18.682 C 4.801 19.303,5.609 19.999,6.231 20.316 C 8.035 21.233,10.179 21.147,12.340 20.071 C 13.136 19.675,14.043 19.046,14.693 18.439 C 14.857 18.286,15.000 18.160,15.010 18.160 C 15.020 18.160,15.079 18.281,15.141 18.430 C 15.740 19.867,17.137 20.756,19.114 20.958 C 20.048 21.053,20.407 20.995,20.701 20.701 C 21.168 20.234,21.067 19.470,20.494 19.134 C 20.328 19.037,20.258 19.024,19.720 18.995 C 18.276 18.916,17.452 18.547,17.069 17.808 C 16.878 17.441,16.822 17.176,16.824 16.660 C 16.826 16.141,16.901 15.814,17.104 15.440 C 17.181 15.297,17.475 14.712,17.758 14.140 C 19.242 11.135,20.270 8.334,20.740 6.020 C 20.907 5.198,21.014 4.405,20.990 4.160 C 20.958 3.820,20.744 3.515,20.423 3.351 C 20.205 3.240,19.794 3.240,19.576 3.352 C 19.210 3.540,19.034 3.832,18.981 4.340 C 18.901 5.109,18.430 7.292,18.361 7.212 C 18.345 7.195,18.283 7.036,18.222 6.860 C 18.160 6.684,18.029 6.378,17.930 6.180 C 16.813 3.949,14.587 2.761,12.060 3.047 M13.813 5.136 C 15.022 5.446,15.952 6.370,16.396 7.704 C 16.896 9.207,16.776 11.124,16.069 12.960 C 15.745 13.799,15.130 14.892,14.563 15.635 C 12.903 17.812,10.458 19.141,8.507 18.928 C 7.376 18.805,6.470 18.269,5.851 17.358 C 4.799 15.810,4.729 13.288,5.672 10.920 C 6.468 8.921,7.846 7.193,9.513 6.101 C 10.388 5.527,11.391 5.143,12.320 5.025 C 12.669 4.981,13.426 5.037,13.813 5.136 " fill="#000640" stroke="none" fill-rule="evenodd"></path></svg>