<svg xmlns="http://www.w3.org/2000/svg" width="24" height="24" fill="currentColor" class="mmi mmi-symbol-command" viewBox="0 0 24 24"><path d="M5.433 2.040 C 4.843 2.134,4.221 2.380,3.731 2.712 C 2.955 3.240,2.394 4.037,2.130 4.989 C 2.034 5.337,2.022 5.449,2.022 6.000 C 2.022 6.553,2.034 6.663,2.132 7.017 C 2.549 8.522,3.707 9.608,5.226 9.917 C 5.583 9.990,5.777 10.000,6.816 10.000 L 8.000 10.000 8.000 11.996 L 8.000 13.993 6.690 14.011 C 5.193 14.031,5.004 14.060,4.337 14.376 C 3.202 14.914,2.463 15.789,2.130 16.989 C 2.034 17.337,2.022 17.449,2.022 18.000 C 2.022 18.553,2.034 18.663,2.132 19.017 C 2.475 20.256,3.357 21.252,4.520 21.715 C 5.836 22.239,7.386 22.010,8.481 21.130 C 9.246 20.516,9.721 19.735,9.917 18.774 C 9.990 18.417,10.000 18.223,10.000 17.184 L 10.000 16.000 11.997 16.000 L 13.993 16.000 14.010 17.330 C 14.027 18.630,14.029 18.669,14.135 19.038 C 14.486 20.268,15.366 21.256,16.520 21.715 C 18.334 22.437,20.462 21.710,21.444 20.033 C 22.503 18.224,21.985 15.878,20.269 14.712 C 19.924 14.478,19.349 14.216,18.958 14.116 C 18.654 14.037,18.490 14.027,17.310 14.011 L 16.000 13.993 16.000 11.996 L 16.000 10.000 17.184 10.000 C 18.503 10.000,18.882 9.953,19.480 9.715 C 20.642 9.253,21.539 8.237,21.869 7.012 C 21.962 6.668,21.975 6.544,21.975 6.000 C 21.975 5.458,21.962 5.331,21.871 4.995 C 21.617 4.054,21.046 3.240,20.269 2.712 C 19.913 2.471,19.341 2.214,18.938 2.113 C 18.429 1.987,17.571 1.987,17.062 2.113 C 15.642 2.466,14.542 3.538,14.133 4.968 C 14.030 5.330,14.026 5.376,14.010 6.670 L 13.993 8.000 12.000 8.000 L 10.006 8.000 9.991 6.690 C 9.976 5.429,9.971 5.366,9.871 4.995 C 9.616 4.053,9.046 3.240,8.269 2.712 C 7.917 2.473,7.343 2.214,6.958 2.120 C 6.572 2.026,5.783 1.984,5.433 2.040 M6.383 4.043 C 7.151 4.184,7.816 4.849,7.957 5.617 C 7.981 5.750,8.000 6.330,8.000 6.927 L 8.000 8.000 6.902 8.000 C 6.255 8.000,5.717 7.982,5.592 7.956 C 5.021 7.837,4.454 7.394,4.207 6.875 C 3.836 6.096,3.989 5.204,4.596 4.596 C 5.085 4.108,5.698 3.918,6.383 4.043 M18.383 4.043 C 19.185 4.190,19.839 4.872,19.967 5.695 C 20.128 6.734,19.433 7.742,18.408 7.956 C 18.283 7.982,17.745 8.000,17.098 8.000 L 16.000 8.000 16.000 6.927 C 16.000 6.330,16.019 5.750,16.043 5.617 C 16.113 5.238,16.299 4.894,16.596 4.596 C 17.085 4.108,17.698 3.918,18.383 4.043 M14.000 12.000 L 14.000 14.000 12.000 14.000 L 10.000 14.000 10.000 12.000 L 10.000 10.000 12.000 10.000 L 14.000 10.000 14.000 12.000 M8.000 17.073 C 8.000 17.670,7.981 18.250,7.957 18.383 C 7.819 19.138,7.170 19.797,6.408 19.956 C 5.297 20.187,4.208 19.430,4.033 18.305 C 3.971 17.908,4.033 17.491,4.207 17.125 C 4.452 16.610,5.037 16.151,5.580 16.047 C 5.690 16.026,6.280 16.007,6.890 16.004 L 8.000 16.000 8.000 17.073 M18.383 16.043 C 19.185 16.190,19.839 16.872,19.967 17.695 C 20.153 18.894,19.209 20.000,18.000 20.000 C 17.068 20.000,16.209 19.290,16.043 18.383 C 16.019 18.250,16.000 17.670,16.000 17.073 L 16.000 16.000 17.073 16.000 C 17.670 16.000,18.250 16.019,18.383 16.043 " fill="#000640" stroke="none" fill-rule="evenodd"></path></svg>