<svg xmlns="http://www.w3.org/2000/svg" width="24" height="24" fill="currentColor" class="mmi mmi-symbol-infinite" viewBox="0 0 24 24"><path d="M5.960 6.025 C 4.613 6.196,3.519 6.718,2.619 7.618 C 1.980 8.257,1.561 8.940,1.277 9.803 C 1.069 10.439,0.984 11.039,1.011 11.700 C 1.068 13.119,1.620 14.383,2.619 15.381 C 3.401 16.163,4.344 16.668,5.460 16.901 C 6.219 17.060,7.216 17.013,8.020 16.780 C 9.003 16.495,9.979 15.900,10.210 15.443 C 10.528 14.815,10.125 14.084,9.421 14.012 C 9.147 13.983,8.993 14.038,8.591 14.308 C 8.186 14.580,7.793 14.768,7.376 14.888 C 7.110 14.964,6.969 14.978,6.480 14.976 C 5.971 14.973,5.857 14.960,5.548 14.866 C 4.324 14.494,3.447 13.594,3.111 12.364 C 2.991 11.925,2.992 11.069,3.114 10.622 C 3.690 8.507,6.008 7.414,7.968 8.332 C 8.730 8.689,8.842 8.819,11.141 12.020 C 13.469 15.262,13.770 15.628,14.485 16.093 C 15.471 16.733,16.556 17.035,17.700 16.989 C 19.119 16.932,20.383 16.380,21.381 15.381 C 22.001 14.762,22.433 14.069,22.700 13.266 C 22.929 12.576,22.979 12.260,22.979 11.500 C 22.979 10.740,22.929 10.424,22.700 9.734 C 22.158 8.106,20.816 6.785,19.175 6.267 C 18.593 6.083,18.191 6.025,17.500 6.024 C 16.812 6.023,16.427 6.078,15.825 6.265 C 15.107 6.489,14.132 7.064,13.855 7.429 C 13.365 8.073,13.833 9.000,14.648 9.000 C 14.933 9.000,15.071 8.946,15.402 8.702 C 15.731 8.460,16.221 8.223,16.622 8.114 C 17.069 7.992,17.925 7.991,18.364 8.111 C 19.617 8.453,20.550 9.386,20.889 10.636 C 21.008 11.075,21.006 11.931,20.885 12.380 C 20.559 13.592,19.616 14.536,18.380 14.887 C 18.110 14.964,17.969 14.978,17.480 14.976 C 16.971 14.973,16.857 14.960,16.548 14.866 C 16.002 14.700,15.508 14.430,15.238 14.149 C 14.999 13.901,14.322 13.008,13.380 11.700 C 10.463 7.651,10.274 7.415,9.585 6.954 C 8.667 6.340,7.741 6.046,6.640 6.020 C 6.343 6.013,6.037 6.015,5.960 6.025 " fill="#000640" stroke="none" fill-rule="evenodd"></path></svg>