<svg xmlns="http://www.w3.org/2000/svg" width="24" height="24" fill="currentColor" class="mmi mmi-symbol-lambda" viewBox="0 0 24 24"><path d="M7.340 3.043 C 5.900 3.217,4.743 4.102,4.236 5.417 C 3.913 6.254,3.931 6.940,4.284 7.259 C 4.464 7.422,4.652 7.480,5.000 7.480 C 5.351 7.480,5.536 7.422,5.722 7.253 L 5.879 7.112 5.993 7.186 C 6.904 7.780,9.639 9.706,9.624 9.743 C 9.614 9.770,8.143 11.985,6.355 14.666 C 4.568 17.347,3.082 19.603,3.054 19.680 C 2.932 20.016,3.033 20.435,3.299 20.701 C 3.650 21.052,4.191 21.092,4.606 20.796 C 4.680 20.743,5.993 18.810,8.015 15.777 L 11.304 10.845 11.490 10.966 C 11.668 11.082,11.681 11.103,11.794 11.473 C 11.859 11.686,12.104 12.485,12.338 13.249 C 13.076 15.657,13.515 16.865,14.043 17.940 C 15.170 20.234,16.566 21.173,18.540 20.963 C 19.860 20.823,20.842 20.222,21.478 19.164 C 21.932 18.407,22.112 17.493,21.903 16.994 C 21.827 16.811,21.604 16.616,21.411 16.562 C 21.216 16.508,20.783 16.509,20.587 16.563 C 20.503 16.586,20.363 16.669,20.277 16.748 L 20.119 16.890 19.970 16.791 C 19.659 16.585,14.379 12.952,14.349 12.923 C 14.331 12.907,14.109 12.211,13.855 11.377 C 13.032 8.675,12.626 7.511,12.120 6.397 C 11.263 4.511,10.251 3.470,8.935 3.120 C 8.563 3.021,7.820 2.986,7.340 3.043 " fill="#000640" stroke="none" fill-rule="evenodd"></path></svg>