<svg xmlns="http://www.w3.org/2000/svg" width="24" height="24" fill="currentColor" class="mmi mmi-symbol-pi" viewBox="0 0 24 24"><path d="M3.664 3.063 C 3.436 3.146,3.257 3.297,3.131 3.511 C 3.036 3.672,3.020 3.744,3.020 4.000 C 3.020 4.256,3.036 4.328,3.131 4.489 C 3.192 4.592,3.301 4.723,3.374 4.778 C 3.656 4.993,3.721 5.000,5.425 5.000 L 7.000 5.000 7.000 12.570 C 7.000 17.661,7.014 20.189,7.042 20.289 C 7.103 20.509,7.315 20.762,7.531 20.874 C 7.932 21.080,8.390 21.012,8.700 20.702 C 9.026 20.376,9.000 21.077,9.000 12.573 L 9.000 5.000 11.070 5.000 L 13.140 5.000 13.997 11.690 C 14.468 15.370,14.878 18.488,14.908 18.620 C 14.994 19.002,15.152 19.378,15.357 19.691 C 16.770 21.846,19.829 21.444,20.662 18.995 C 20.850 18.442,20.883 17.677,20.735 17.323 C 20.577 16.944,20.231 16.711,19.825 16.709 C 19.534 16.707,19.347 16.780,19.126 16.979 C 18.892 17.191,18.806 17.447,18.811 17.922 C 18.814 18.241,18.800 18.330,18.720 18.496 C 18.467 19.022,17.954 19.230,17.470 19.001 C 17.185 18.867,16.931 18.538,16.865 18.220 C 16.851 18.154,16.472 15.220,16.021 11.700 C 15.570 8.180,15.191 5.232,15.177 5.150 L 15.153 5.000 16.649 5.000 C 18.354 5.000,18.410 4.992,18.701 4.701 C 19.092 4.310,19.092 3.690,18.701 3.299 C 18.377 2.975,19.026 3.000,10.983 3.003 C 4.871 3.005,3.797 3.014,3.664 3.063 " fill="#000640" stroke="none" fill-rule="evenodd"></path></svg>