<svg xmlns="http://www.w3.org/2000/svg" width="24" height="24" fill="currentColor" class="mmi mmi-symbol-at" viewBox="0 0 24 24"><path d="M11.200 0.025 C 7.677 0.288,4.535 1.992,2.410 4.793 C 1.201 6.386,0.442 8.222,0.109 10.359 C -0.013 11.143,-0.013 12.857,0.109 13.641 C 0.563 16.554,1.872 19.025,3.948 20.887 C 5.792 22.541,7.834 23.498,10.359 23.891 C 11.163 24.016,12.855 24.014,13.680 23.887 C 14.959 23.690,16.300 23.275,17.321 22.759 C 17.746 22.545,17.958 22.236,17.959 21.829 C 17.961 21.433,17.785 21.132,17.445 20.946 C 17.280 20.857,17.189 20.835,16.979 20.835 C 16.750 20.835,16.664 20.860,16.289 21.033 C 14.296 21.954,12.187 22.221,10.103 21.815 C 6.292 21.073,3.221 18.165,2.303 14.429 C 2.087 13.548,2.026 13.019,2.026 12.000 C 2.026 10.981,2.087 10.452,2.303 9.571 C 3.189 5.964,6.142 3.069,9.760 2.260 C 10.604 2.071,11.047 2.024,12.000 2.024 C 13.173 2.024,14.034 2.153,15.053 2.480 C 18.666 3.639,21.299 6.735,21.880 10.507 C 22.088 11.860,21.977 13.637,21.616 14.718 C 21.099 16.265,19.850 17.095,18.540 16.760 C 17.781 16.566,17.187 15.997,17.045 15.328 C 17.013 15.179,17.000 13.891,17.000 10.985 C 17.000 6.337,17.018 6.616,16.700 6.298 C 16.281 5.879,15.570 5.924,15.212 6.393 C 15.027 6.636,15.000 6.779,15.000 7.548 L 15.000 8.237 14.610 7.971 C 13.967 7.534,13.286 7.252,12.495 7.093 C 11.970 6.988,10.957 6.998,10.412 7.114 C 9.306 7.349,8.401 7.836,7.619 8.619 C 6.832 9.405,6.336 10.336,6.093 11.480 C 5.992 11.956,5.992 13.044,6.093 13.520 C 6.336 14.664,6.832 15.595,7.619 16.381 C 8.239 17.001,8.931 17.433,9.734 17.700 C 10.314 17.892,10.707 17.965,11.300 17.989 C 12.655 18.044,13.950 17.600,15.030 16.713 L 15.320 16.475 15.360 16.581 C 15.515 16.987,16.180 17.745,16.675 18.078 C 17.048 18.329,17.622 18.589,18.069 18.709 C 18.416 18.802,18.534 18.814,19.120 18.814 C 19.705 18.814,19.824 18.802,20.168 18.710 C 21.633 18.316,22.765 17.241,23.417 15.625 C 23.580 15.221,23.766 14.451,23.886 13.680 C 23.964 13.185,23.977 12.944,23.978 12.040 C 23.978 10.935,23.951 10.626,23.776 9.716 C 23.110 6.250,20.932 3.252,17.814 1.507 C 16.509 0.777,15.069 0.307,13.500 0.099 C 13.032 0.037,11.640 -0.007,11.200 0.025 M12.092 9.060 C 12.847 9.191,13.404 9.484,13.960 10.040 C 14.516 10.596,14.809 11.153,14.940 11.908 C 15.128 12.982,14.804 14.074,14.064 14.868 C 13.605 15.361,13.114 15.665,12.452 15.867 C 12.137 15.962,12.037 15.974,11.500 15.974 C 10.963 15.974,10.863 15.962,10.548 15.867 C 9.886 15.665,9.395 15.361,8.936 14.868 C 7.890 13.746,7.711 12.106,8.484 10.732 C 8.724 10.307,9.307 9.724,9.732 9.484 C 10.489 9.058,11.274 8.917,12.092 9.060 " fill="#000640" stroke="none" fill-rule="evenodd"></path></svg>