<svg xmlns="http://www.w3.org/2000/svg" width="24" height="24" fill="currentColor" class="mmi mmi-symbol-mu" viewBox="0 0 24 24"><path d="M5.664 2.063 C 5.436 2.146,5.257 2.297,5.131 2.511 L 5.020 2.700 5.010 11.914 C 5.003 18.175,5.013 21.178,5.041 21.283 C 5.101 21.506,5.312 21.761,5.531 21.874 C 5.932 22.080,6.390 22.012,6.700 21.702 C 7.014 21.389,7.000 21.562,7.000 17.863 L 7.000 14.580 7.227 14.840 C 8.200 15.954,9.308 16.602,10.727 16.888 C 11.111 16.965,11.306 16.979,12.000 16.979 C 12.694 16.979,12.889 16.965,13.273 16.888 C 14.692 16.602,15.800 15.954,16.773 14.840 L 17.000 14.580 17.000 15.360 C 17.000 15.789,17.019 16.207,17.042 16.289 C 17.103 16.509,17.315 16.762,17.531 16.874 C 17.932 17.080,18.390 17.012,18.700 16.702 C 19.024 16.378,19.000 16.965,19.000 9.500 C 19.000 2.035,19.024 2.622,18.700 2.298 C 18.390 1.988,17.932 1.920,17.531 2.126 C 17.315 2.238,17.103 2.491,17.042 2.711 C 17.015 2.807,17.000 3.806,17.000 5.500 C 16.999 6.956,16.981 8.355,16.958 8.620 C 16.729 11.302,15.760 13.426,14.341 14.353 C 13.218 15.086,11.543 15.211,10.233 14.659 C 8.491 13.925,7.303 11.676,7.042 8.620 C 7.019 8.355,7.001 6.957,7.000 5.497 C 7.000 2.515,7.009 2.606,6.701 2.299 C 6.429 2.027,6.018 1.933,5.664 2.063 " fill="#000640" stroke="none" fill-rule="evenodd"></path></svg>