<svg xmlns="http://www.w3.org/2000/svg" width="24" height="24" fill="currentColor" class="mmi mmi-syringe" viewBox="0 0 24 24"><path d="M17.656 1.043 C 17.480 1.094,17.162 1.388,17.075 1.578 C 16.975 1.800,16.978 2.168,17.083 2.400 C 17.139 2.524,17.387 2.803,17.872 3.291 L 18.578 4.001 17.790 4.789 L 17.002 5.578 16.271 4.855 C 15.624 4.214,15.515 4.123,15.326 4.061 C 15.066 3.976,14.801 3.993,14.556 4.113 C 14.428 4.175,13.251 5.329,10.255 8.329 C 6.474 12.115,6.124 12.476,6.065 12.657 C 6.029 12.766,6.000 12.926,6.000 13.014 C 6.000 13.109,6.170 13.686,6.424 14.452 L 6.849 15.730 4.506 18.075 C 2.717 19.866,2.145 20.462,2.083 20.600 C 1.984 20.819,1.975 21.182,2.062 21.391 C 2.144 21.587,2.381 21.831,2.580 21.924 C 2.798 22.025,3.166 22.022,3.400 21.917 C 3.538 21.855,4.134 21.283,5.925 19.494 L 8.270 17.151 9.548 17.576 C 10.314 17.830,10.891 18.000,10.986 18.000 C 11.074 18.000,11.234 17.971,11.343 17.935 C 11.524 17.876,11.885 17.526,15.671 13.745 C 18.671 10.749,19.825 9.572,19.887 9.444 C 20.007 9.199,20.024 8.934,19.939 8.674 C 19.877 8.485,19.786 8.376,19.145 7.729 L 18.422 6.998 19.211 6.210 L 19.999 5.422 20.709 6.128 C 21.500 6.915,21.626 6.998,22.020 6.998 C 22.312 6.998,22.525 6.907,22.728 6.695 C 22.922 6.492,23.000 6.295,23.000 6.009 C 23.000 5.579,22.995 5.573,20.691 3.272 C 19.087 1.670,18.537 1.144,18.400 1.083 C 18.208 0.997,17.878 0.979,17.656 1.043 M16.300 7.720 L 17.579 9.000 16.580 10.000 L 15.581 11.000 13.000 11.000 L 10.420 11.000 12.700 8.720 C 13.954 7.466,14.989 6.440,15.000 6.440 C 15.011 6.440,15.596 7.016,16.300 7.720 M12.155 14.425 L 10.730 15.850 9.795 15.540 C 9.281 15.370,8.840 15.210,8.815 15.185 C 8.790 15.160,8.630 14.720,8.460 14.207 L 8.151 13.273 8.283 13.137 L 8.416 13.000 10.998 13.000 L 13.580 13.000 12.155 14.425 " fill="#000640" stroke="none" fill-rule="evenodd"></path></svg>