<svg xmlns="http://www.w3.org/2000/svg" width="24" height="24" fill="currentColor" class="mmi mmi-table-topborder" viewBox="0 0 24 24"><path d="M2.664 2.063 C 2.436 2.146,2.257 2.297,2.131 2.511 C 2.036 2.672,2.020 2.744,2.020 3.000 C 2.020 3.256,2.036 3.328,2.131 3.489 C 2.260 3.709,2.437 3.854,2.678 3.939 C 2.830 3.993,3.916 4.000,11.998 4.000 C 22.265 4.000,21.375 4.027,21.701 3.701 C 22.092 3.310,22.092 2.690,21.701 2.299 C 21.375 1.972,22.267 2.000,11.983 2.003 C 4.135 2.005,2.798 2.014,2.664 2.063 M2.664 5.063 C 2.436 5.146,2.257 5.297,2.131 5.511 C 2.036 5.672,2.020 5.744,2.020 6.000 C 2.020 6.256,2.036 6.328,2.131 6.489 C 2.470 7.065,3.234 7.168,3.701 6.701 C 4.092 6.310,4.092 5.690,3.701 5.299 C 3.429 5.027,3.018 4.933,2.664 5.063 M11.664 5.063 C 11.436 5.146,11.257 5.297,11.131 5.511 C 11.036 5.672,11.020 5.744,11.020 6.000 C 11.020 6.256,11.036 6.328,11.131 6.489 C 11.470 7.065,12.234 7.168,12.701 6.701 C 12.881 6.521,13.000 6.242,13.000 6.000 C 13.000 5.326,12.295 4.832,11.664 5.063 M20.664 5.063 C 20.436 5.146,20.257 5.297,20.131 5.511 C 20.036 5.672,20.020 5.744,20.020 6.000 C 20.020 6.256,20.036 6.328,20.131 6.489 C 20.470 7.065,21.234 7.168,21.701 6.701 C 22.092 6.310,22.092 5.690,21.701 5.299 C 21.429 5.027,21.018 4.933,20.664 5.063 M2.664 8.063 C 2.436 8.146,2.257 8.297,2.131 8.511 C 2.036 8.672,2.020 8.744,2.020 9.000 C 2.020 9.256,2.036 9.328,2.131 9.489 C 2.470 10.065,3.234 10.168,3.701 9.701 C 4.092 9.310,4.092 8.690,3.701 8.299 C 3.429 8.027,3.018 7.933,2.664 8.063 M11.664 8.063 C 11.436 8.146,11.257 8.297,11.131 8.511 C 11.036 8.672,11.020 8.744,11.020 9.000 C 11.020 9.256,11.036 9.328,11.131 9.489 C 11.470 10.065,12.234 10.168,12.701 9.701 C 12.881 9.521,13.000 9.242,13.000 9.000 C 13.000 8.326,12.295 7.832,11.664 8.063 M20.664 8.063 C 20.436 8.146,20.257 8.297,20.131 8.511 C 20.036 8.672,20.020 8.744,20.020 9.000 C 20.020 9.256,20.036 9.328,20.131 9.489 C 20.470 10.065,21.234 10.168,21.701 9.701 C 22.092 9.310,22.092 8.690,21.701 8.299 C 21.429 8.027,21.018 7.933,20.664 8.063 M2.664 11.063 C 2.436 11.146,2.257 11.297,2.131 11.511 C 2.036 11.672,2.020 11.744,2.020 12.000 C 2.020 12.256,2.036 12.328,2.131 12.489 C 2.470 13.065,3.234 13.168,3.701 12.701 C 4.092 12.310,4.092 11.690,3.701 11.299 C 3.429 11.027,3.018 10.933,2.664 11.063 M5.664 11.063 C 5.436 11.146,5.257 11.297,5.131 11.511 C 5.036 11.672,5.020 11.744,5.020 12.000 C 5.020 12.256,5.036 12.328,5.131 12.489 C 5.470 13.065,6.234 13.168,6.701 12.701 C 7.092 12.310,7.092 11.690,6.701 11.299 C 6.429 11.027,6.018 10.933,5.664 11.063 M8.664 11.063 C 8.436 11.146,8.257 11.297,8.131 11.511 C 8.036 11.672,8.020 11.744,8.020 12.000 C 8.020 12.256,8.036 12.328,8.131 12.489 C 8.470 13.065,9.234 13.168,9.701 12.701 C 10.092 12.310,10.092 11.690,9.701 11.299 C 9.429 11.027,9.018 10.933,8.664 11.063 M11.664 11.063 C 11.436 11.146,11.257 11.297,11.131 11.511 C 11.036 11.672,11.020 11.744,11.020 12.000 C 11.020 12.256,11.036 12.328,11.131 12.489 C 11.470 13.065,12.234 13.168,12.701 12.701 C 12.881 12.521,13.000 12.242,13.000 12.000 C 13.000 11.326,12.295 10.832,11.664 11.063 M14.664 11.063 C 14.436 11.146,14.257 11.297,14.131 11.511 C 14.036 11.672,14.020 11.744,14.020 12.000 C 14.020 12.256,14.036 12.328,14.131 12.489 C 14.470 13.065,15.234 13.168,15.701 12.701 C 15.881 12.521,16.000 12.242,16.000 12.000 C 16.000 11.326,15.295 10.832,14.664 11.063 M17.664 11.063 C 17.436 11.146,17.257 11.297,17.131 11.511 C 17.036 11.672,17.020 11.744,17.020 12.000 C 17.020 12.256,17.036 12.328,17.131 12.489 C 17.470 13.065,18.234 13.168,18.701 12.701 C 18.881 12.521,19.000 12.242,19.000 12.000 C 19.000 11.326,18.295 10.832,17.664 11.063 M20.664 11.063 C 20.436 11.146,20.257 11.297,20.131 11.511 C 20.036 11.672,20.020 11.744,20.020 12.000 C 20.020 12.256,20.036 12.328,20.131 12.489 C 20.470 13.065,21.234 13.168,21.701 12.701 C 22.092 12.310,22.092 11.690,21.701 11.299 C 21.429 11.027,21.018 10.933,20.664 11.063 M2.664 14.063 C 2.436 14.146,2.257 14.297,2.131 14.511 C 2.036 14.672,2.020 14.744,2.020 15.000 C 2.020 15.256,2.036 15.328,2.131 15.489 C 2.470 16.065,3.234 16.168,3.701 15.701 C 4.092 15.310,4.092 14.690,3.701 14.299 C 3.429 14.027,3.018 13.933,2.664 14.063 M11.664 14.063 C 11.436 14.146,11.257 14.297,11.131 14.511 C 11.036 14.672,11.020 14.744,11.020 15.000 C 11.020 15.256,11.036 15.328,11.131 15.489 C 11.470 16.065,12.234 16.168,12.701 15.701 C 12.881 15.521,13.000 15.242,13.000 15.000 C 13.000 14.326,12.295 13.832,11.664 14.063 M20.664 14.063 C 20.436 14.146,20.257 14.297,20.131 14.511 C 20.036 14.672,20.020 14.744,20.020 15.000 C 20.020 15.256,20.036 15.328,20.131 15.489 C 20.470 16.065,21.234 16.168,21.701 15.701 C 22.092 15.310,22.092 14.690,21.701 14.299 C 21.429 14.027,21.018 13.933,20.664 14.063 M2.664 17.063 C 2.436 17.146,2.257 17.297,2.131 17.511 C 2.036 17.672,2.020 17.744,2.020 18.000 C 2.020 18.256,2.036 18.328,2.131 18.489 C 2.470 19.065,3.234 19.168,3.701 18.701 C 4.092 18.310,4.092 17.690,3.701 17.299 C 3.429 17.027,3.018 16.933,2.664 17.063 M11.664 17.063 C 11.436 17.146,11.257 17.297,11.131 17.511 C 11.036 17.672,11.020 17.744,11.020 18.000 C 11.020 18.256,11.036 18.328,11.131 18.489 C 11.470 19.065,12.234 19.168,12.701 18.701 C 12.881 18.521,13.000 18.242,13.000 18.000 C 13.000 17.326,12.295 16.832,11.664 17.063 M20.664 17.063 C 20.436 17.146,20.257 17.297,20.131 17.511 C 20.036 17.672,20.020 17.744,20.020 18.000 C 20.020 18.256,20.036 18.328,20.131 18.489 C 20.470 19.065,21.234 19.168,21.701 18.701 C 22.092 18.310,22.092 17.690,21.701 17.299 C 21.429 17.027,21.018 16.933,20.664 17.063 M2.664 20.063 C 2.436 20.146,2.257 20.297,2.131 20.511 C 2.036 20.672,2.020 20.744,2.020 21.000 C 2.020 21.256,2.036 21.328,2.131 21.489 C 2.470 22.065,3.234 22.168,3.701 21.701 C 3.881 21.521,4.000 21.242,4.000 21.000 C 4.000 20.326,3.295 19.832,2.664 20.063 M5.664 20.063 C 5.436 20.146,5.257 20.297,5.131 20.511 C 5.036 20.672,5.020 20.744,5.020 21.000 C 5.020 21.256,5.036 21.328,5.131 21.489 C 5.470 22.065,6.234 22.168,6.701 21.701 C 7.092 21.310,7.092 20.690,6.701 20.299 C 6.429 20.027,6.018 19.933,5.664 20.063 M8.664 20.063 C 8.436 20.146,8.257 20.297,8.131 20.511 C 8.036 20.672,8.020 20.744,8.020 21.000 C 8.020 21.256,8.036 21.328,8.131 21.489 C 8.470 22.065,9.234 22.168,9.701 21.701 C 10.092 21.310,10.092 20.690,9.701 20.299 C 9.429 20.027,9.018 19.933,8.664 20.063 M11.664 20.063 C 11.436 20.146,11.257 20.297,11.131 20.511 C 11.036 20.672,11.020 20.744,11.020 21.000 C 11.020 21.256,11.036 21.328,11.131 21.489 C 11.470 22.065,12.234 22.168,12.701 21.701 C 12.881 21.521,13.000 21.242,13.000 21.000 C 13.000 20.326,12.295 19.832,11.664 20.063 M14.664 20.063 C 14.436 20.146,14.257 20.297,14.131 20.511 C 14.036 20.672,14.020 20.744,14.020 21.000 C 14.020 21.256,14.036 21.328,14.131 21.489 C 14.470 22.065,15.234 22.168,15.701 21.701 C 15.881 21.521,16.000 21.242,16.000 21.000 C 16.000 20.326,15.295 19.832,14.664 20.063 M17.664 20.063 C 17.436 20.146,17.257 20.297,17.131 20.511 C 17.036 20.672,17.020 20.744,17.020 21.000 C 17.020 21.256,17.036 21.328,17.131 21.489 C 17.470 22.065,18.234 22.168,18.701 21.701 C 18.881 21.521,19.000 21.242,19.000 21.000 C 19.000 20.326,18.295 19.832,17.664 20.063 M20.664 20.063 C 20.436 20.146,20.257 20.297,20.131 20.511 C 20.036 20.672,20.020 20.744,20.020 21.000 C 20.020 21.256,20.036 21.328,20.131 21.489 C 20.470 22.065,21.234 22.168,21.701 21.701 C 22.092 21.310,22.092 20.690,21.701 20.299 C 21.429 20.027,21.018 19.933,20.664 20.063 " fill="#000640" stroke="none" fill-rule="evenodd"></path></svg>