<svg xmlns="http://www.w3.org/2000/svg" width="24" height="24" fill="currentColor" class="mmi mmi-table-outsideborder" viewBox="0 0 24 24"><path d="M2.643 2.069 C 2.407 2.152,2.149 2.416,2.066 2.660 C 2.005 2.839,2.000 3.592,2.000 12.000 C 2.000 22.264,1.973 21.375,2.299 21.701 C 2.625 22.027,1.736 22.000,12.000 22.000 C 22.264 22.000,21.375 22.027,21.701 21.701 C 22.027 21.375,22.000 22.264,22.000 12.000 C 22.000 1.736,22.027 2.625,21.701 2.299 C 21.375 1.972,22.268 2.000,11.983 2.003 C 3.791 2.006,2.801 2.013,2.643 2.069 M20.000 12.000 L 20.000 20.000 12.000 20.000 L 4.000 20.000 4.000 12.000 L 4.000 4.000 12.000 4.000 L 20.000 4.000 20.000 12.000 M11.664 5.063 C 11.436 5.146,11.257 5.297,11.131 5.511 C 11.036 5.672,11.020 5.744,11.020 6.000 C 11.020 6.256,11.036 6.328,11.131 6.489 C 11.470 7.065,12.234 7.168,12.701 6.701 C 12.881 6.521,13.000 6.242,13.000 6.000 C 13.000 5.326,12.295 4.832,11.664 5.063 M11.664 8.063 C 11.436 8.146,11.257 8.297,11.131 8.511 C 11.036 8.672,11.020 8.744,11.020 9.000 C 11.020 9.256,11.036 9.328,11.131 9.489 C 11.470 10.065,12.234 10.168,12.701 9.701 C 12.881 9.521,13.000 9.242,13.000 9.000 C 13.000 8.326,12.295 7.832,11.664 8.063 M5.664 11.063 C 5.436 11.146,5.257 11.297,5.131 11.511 C 5.036 11.672,5.020 11.744,5.020 12.000 C 5.020 12.256,5.036 12.328,5.131 12.489 C 5.470 13.065,6.234 13.168,6.701 12.701 C 7.092 12.310,7.092 11.690,6.701 11.299 C 6.429 11.027,6.018 10.933,5.664 11.063 M8.664 11.063 C 8.436 11.146,8.257 11.297,8.131 11.511 C 8.036 11.672,8.020 11.744,8.020 12.000 C 8.020 12.256,8.036 12.328,8.131 12.489 C 8.470 13.065,9.234 13.168,9.701 12.701 C 10.092 12.310,10.092 11.690,9.701 11.299 C 9.429 11.027,9.018 10.933,8.664 11.063 M11.664 11.063 C 11.436 11.146,11.257 11.297,11.131 11.511 C 11.036 11.672,11.020 11.744,11.020 12.000 C 11.020 12.256,11.036 12.328,11.131 12.489 C 11.470 13.065,12.234 13.168,12.701 12.701 C 12.881 12.521,13.000 12.242,13.000 12.000 C 13.000 11.326,12.295 10.832,11.664 11.063 M14.664 11.063 C 14.436 11.146,14.257 11.297,14.131 11.511 C 14.036 11.672,14.020 11.744,14.020 12.000 C 14.020 12.256,14.036 12.328,14.131 12.489 C 14.470 13.065,15.234 13.168,15.701 12.701 C 15.881 12.521,16.000 12.242,16.000 12.000 C 16.000 11.326,15.295 10.832,14.664 11.063 M17.664 11.063 C 17.436 11.146,17.257 11.297,17.131 11.511 C 17.036 11.672,17.020 11.744,17.020 12.000 C 17.020 12.256,17.036 12.328,17.131 12.489 C 17.470 13.065,18.234 13.168,18.701 12.701 C 18.881 12.521,19.000 12.242,19.000 12.000 C 19.000 11.326,18.295 10.832,17.664 11.063 M11.664 14.063 C 11.436 14.146,11.257 14.297,11.131 14.511 C 11.036 14.672,11.020 14.744,11.020 15.000 C 11.020 15.256,11.036 15.328,11.131 15.489 C 11.470 16.065,12.234 16.168,12.701 15.701 C 12.881 15.521,13.000 15.242,13.000 15.000 C 13.000 14.326,12.295 13.832,11.664 14.063 M11.664 17.063 C 11.436 17.146,11.257 17.297,11.131 17.511 C 11.036 17.672,11.020 17.744,11.020 18.000 C 11.020 18.256,11.036 18.328,11.131 18.489 C 11.470 19.065,12.234 19.168,12.701 18.701 C 12.881 18.521,13.000 18.242,13.000 18.000 C 13.000 17.326,12.295 16.832,11.664 17.063 " fill="#000640" stroke="none" fill-rule="evenodd"></path></svg>