<svg xmlns="http://www.w3.org/2000/svg" width="24" height="24" fill="currentColor" class="mmi mmi-table-allborder" viewBox="0 0 24 24"><path d="M2.664 2.063 C 2.436 2.146,2.257 2.297,2.131 2.511 L 2.020 2.700 2.020 12.000 L 2.020 21.300 2.131 21.489 C 2.260 21.709,2.437 21.854,2.678 21.939 C 2.830 21.993,3.916 22.000,11.998 22.000 C 22.265 22.000,21.375 22.027,21.701 21.701 C 22.027 21.375,22.000 22.264,22.000 12.000 C 22.000 1.736,22.027 2.625,21.701 2.299 C 21.375 1.972,22.267 2.000,11.983 2.003 C 4.135 2.005,2.798 2.014,2.664 2.063 M11.000 7.500 L 11.000 11.000 7.500 11.000 L 4.000 11.000 4.000 7.500 L 4.000 4.000 7.500 4.000 L 11.000 4.000 11.000 7.500 M20.000 7.500 L 20.000 11.000 16.500 11.000 L 13.000 11.000 13.000 7.500 L 13.000 4.000 16.500 4.000 L 20.000 4.000 20.000 7.500 M11.000 16.500 L 11.000 20.000 7.500 20.000 L 4.000 20.000 4.000 16.500 L 4.000 13.000 7.500 13.000 L 11.000 13.000 11.000 16.500 M20.000 16.500 L 20.000 20.000 16.500 20.000 L 13.000 20.000 13.000 16.500 L 13.000 13.000 16.500 13.000 L 20.000 13.000 20.000 16.500 " fill="#000640" stroke="none" fill-rule="evenodd"></path></svg>