<svg xmlns="http://www.w3.org/2000/svg" width="24" height="24" fill="currentColor" class="mmi mmi-tableclock" viewBox="0 0 24 24"><path d="M4.800 1.037 C 4.723 1.053,4.588 1.104,4.500 1.150 C 4.407 1.199,3.672 1.905,2.734 2.847 C 1.201 4.386,1.124 4.470,1.064 4.677 C 0.984 4.948,0.984 5.013,1.064 5.283 C 1.156 5.590,1.419 5.849,1.735 5.940 C 2.001 6.018,2.210 6.000,2.460 5.880 C 2.563 5.830,3.195 5.225,4.246 4.171 C 5.800 2.613,5.876 2.530,5.936 2.323 C 6.015 2.053,6.016 1.987,5.938 1.725 C 5.797 1.252,5.277 0.937,4.800 1.037 M18.643 1.069 C 18.291 1.193,18.000 1.614,18.000 2.000 C 18.000 2.080,18.029 2.234,18.065 2.343 C 18.124 2.519,18.302 2.712,19.755 4.171 C 20.807 5.227,21.436 5.830,21.540 5.880 C 21.943 6.074,22.370 6.001,22.686 5.686 C 23.001 5.370,23.074 4.943,22.880 4.540 C 22.830 4.436,22.227 3.807,21.171 2.755 C 19.712 1.302,19.519 1.124,19.343 1.065 C 19.101 0.985,18.876 0.986,18.643 1.069 M11.280 2.024 C 9.171 2.209,7.301 2.950,5.719 4.225 C 4.044 5.576,2.811 7.505,2.303 9.571 C 2.095 10.418,2.028 10.987,2.024 11.940 C 2.020 13.047,2.097 13.664,2.365 14.655 C 2.830 16.378,3.870 18.096,5.181 19.306 C 5.389 19.499,5.560 19.671,5.560 19.688 C 5.560 19.706,5.242 20.112,4.854 20.590 C 4.466 21.069,4.113 21.539,4.070 21.635 C 3.952 21.898,3.983 22.286,4.142 22.544 C 4.316 22.826,4.574 22.974,4.926 22.994 C 5.162 23.007,5.232 22.994,5.421 22.901 C 5.621 22.803,5.719 22.699,6.447 21.799 L 7.252 20.805 7.529 20.944 C 7.681 21.021,7.998 21.163,8.233 21.259 C 10.860 22.335,13.948 22.215,16.481 20.939 C 16.639 20.860,16.773 20.801,16.778 20.807 C 16.784 20.814,17.140 21.263,17.570 21.804 C 18.409 22.861,18.484 22.929,18.882 22.984 C 19.399 23.055,19.911 22.649,19.985 22.110 C 20.035 21.745,19.946 21.582,19.158 20.590 L 18.434 19.680 18.970 19.150 C 19.265 18.859,19.621 18.478,19.760 18.304 C 20.403 17.506,21.035 16.397,21.382 15.460 C 21.581 14.923,21.821 13.960,21.906 13.354 C 22.002 12.669,22.002 11.274,21.905 10.640 C 21.661 9.047,21.173 7.755,20.341 6.499 C 18.757 4.110,16.344 2.566,13.493 2.119 C 12.998 2.041,11.711 1.986,11.280 2.024 M12.820 4.041 C 15.608 4.352,17.994 6.031,19.200 8.529 C 20.264 10.731,20.264 13.270,19.199 15.474 C 17.867 18.232,15.056 19.999,12.000 19.999 C 8.941 19.999,6.134 18.234,4.800 15.471 C 3.736 13.268,3.736 10.732,4.800 8.529 C 5.588 6.895,6.895 5.588,8.529 4.800 C 9.852 4.160,11.415 3.884,12.820 4.041 M11.664 6.063 C 11.436 6.146,11.257 6.297,11.131 6.511 L 11.020 6.700 11.020 9.500 L 11.020 12.300 11.131 12.489 C 11.192 12.592,11.301 12.723,11.374 12.778 C 11.669 13.003,11.624 13.000,14.498 13.000 C 17.486 13.000,17.393 13.009,17.701 12.701 C 18.092 12.310,18.092 11.690,17.701 11.299 C 17.400 10.998,17.419 11.000,15.073 11.000 L 13.000 11.000 13.000 8.927 C 13.000 6.581,13.002 6.600,12.701 6.299 C 12.429 6.027,12.018 5.933,11.664 6.063 " fill="#000640" stroke="none" fill-rule="evenodd"></path></svg>