<svg xmlns="http://www.w3.org/2000/svg" width="24" height="24" fill="currentColor" class="mmi mmi-table-insideborder" viewBox="0 0 24 24"><path d="M2.643 2.069 C 2.291 2.193,2.000 2.614,2.000 3.000 C 2.000 3.527,2.473 4.000,3.000 4.000 C 3.242 4.000,3.521 3.881,3.701 3.701 C 4.454 2.948,3.653 1.712,2.643 2.069 M5.643 2.069 C 5.291 2.193,5.000 2.614,5.000 3.000 C 5.000 3.242,5.119 3.521,5.299 3.701 C 5.690 4.092,6.310 4.092,6.701 3.701 C 7.454 2.948,6.653 1.712,5.643 2.069 M8.643 2.069 C 8.291 2.193,8.000 2.614,8.000 3.000 C 8.000 3.527,8.473 4.000,9.000 4.000 C 9.242 4.000,9.521 3.881,9.701 3.701 C 10.454 2.948,9.653 1.712,8.643 2.069 M11.664 2.063 C 11.436 2.146,11.257 2.297,11.131 2.511 L 11.020 2.700 11.009 6.850 L 10.999 11.000 6.924 11.000 C 2.491 11.000,2.677 10.991,2.374 11.222 C 2.301 11.277,2.192 11.408,2.131 11.511 C 2.036 11.672,2.020 11.744,2.020 12.000 C 2.020 12.256,2.036 12.328,2.131 12.489 C 2.192 12.592,2.301 12.723,2.374 12.778 C 2.677 13.009,2.491 13.000,6.925 13.000 L 11.000 13.000 11.000 17.070 C 11.000 19.750,11.015 21.191,11.042 21.289 C 11.103 21.509,11.315 21.762,11.531 21.874 C 11.932 22.080,12.390 22.012,12.700 21.702 C 13.018 21.385,13.000 21.656,13.000 17.073 L 13.000 13.000 17.073 13.000 C 21.654 13.000,21.385 13.017,21.701 12.701 C 22.092 12.310,22.092 11.690,21.701 11.299 C 21.385 10.983,21.654 11.000,17.073 11.000 L 13.000 11.000 13.000 6.927 C 13.000 2.346,13.017 2.615,12.701 2.299 C 12.429 2.027,12.018 1.933,11.664 2.063 M14.643 2.069 C 14.291 2.193,14.000 2.614,14.000 3.000 C 14.000 3.527,14.473 4.000,15.000 4.000 C 15.242 4.000,15.521 3.881,15.701 3.701 C 16.454 2.948,15.653 1.712,14.643 2.069 M17.643 2.069 C 17.291 2.193,17.000 2.614,17.000 3.000 C 17.000 3.527,17.473 4.000,18.000 4.000 C 18.242 4.000,18.521 3.881,18.701 3.701 C 19.454 2.948,18.653 1.712,17.643 2.069 M20.643 2.069 C 20.291 2.193,20.000 2.614,20.000 3.000 C 20.000 3.242,20.119 3.521,20.299 3.701 C 20.690 4.092,21.310 4.092,21.701 3.701 C 22.454 2.948,21.653 1.712,20.643 2.069 M2.643 5.069 C 2.291 5.193,2.000 5.614,2.000 6.000 C 2.000 6.527,2.473 7.000,3.000 7.000 C 3.242 7.000,3.521 6.881,3.701 6.701 C 4.454 5.948,3.653 4.712,2.643 5.069 M20.643 5.069 C 20.291 5.193,20.000 5.614,20.000 6.000 C 20.000 6.242,20.119 6.521,20.299 6.701 C 20.690 7.092,21.310 7.092,21.701 6.701 C 22.454 5.948,21.653 4.712,20.643 5.069 M2.643 8.069 C 2.291 8.193,2.000 8.614,2.000 9.000 C 2.000 9.242,2.119 9.521,2.299 9.701 C 2.690 10.092,3.310 10.092,3.701 9.701 C 4.454 8.948,3.653 7.712,2.643 8.069 M20.643 8.069 C 20.291 8.193,20.000 8.614,20.000 9.000 C 20.000 9.242,20.119 9.521,20.299 9.701 C 20.690 10.092,21.310 10.092,21.701 9.701 C 22.454 8.948,21.653 7.712,20.643 8.069 M2.643 14.069 C 2.291 14.193,2.000 14.614,2.000 15.000 C 2.000 15.527,2.473 16.000,3.000 16.000 C 3.242 16.000,3.521 15.881,3.701 15.701 C 4.454 14.948,3.653 13.712,2.643 14.069 M20.643 14.069 C 20.291 14.193,20.000 14.614,20.000 15.000 C 20.000 15.527,20.473 16.000,21.000 16.000 C 21.242 16.000,21.521 15.881,21.701 15.701 C 22.454 14.948,21.653 13.712,20.643 14.069 M2.643 17.069 C 2.291 17.193,2.000 17.614,2.000 18.000 C 2.000 18.527,2.473 19.000,3.000 19.000 C 3.242 19.000,3.521 18.881,3.701 18.701 C 4.454 17.948,3.653 16.712,2.643 17.069 M20.643 17.069 C 20.291 17.193,20.000 17.614,20.000 18.000 C 20.000 18.527,20.473 19.000,21.000 19.000 C 21.242 19.000,21.521 18.881,21.701 18.701 C 22.454 17.948,21.653 16.712,20.643 17.069 M2.643 20.069 C 2.291 20.193,2.000 20.614,2.000 21.000 C 2.000 21.527,2.473 22.000,3.000 22.000 C 3.242 22.000,3.521 21.881,3.701 21.701 C 4.454 20.948,3.653 19.712,2.643 20.069 M5.643 20.069 C 5.291 20.193,5.000 20.614,5.000 21.000 C 5.000 21.527,5.473 22.000,6.000 22.000 C 6.242 22.000,6.521 21.881,6.701 21.701 C 7.454 20.948,6.653 19.712,5.643 20.069 M8.643 20.069 C 8.291 20.193,8.000 20.614,8.000 21.000 C 8.000 21.527,8.473 22.000,9.000 22.000 C 9.242 22.000,9.521 21.881,9.701 21.701 C 10.454 20.948,9.653 19.712,8.643 20.069 M14.643 20.069 C 14.291 20.193,14.000 20.614,14.000 21.000 C 14.000 21.527,14.473 22.000,15.000 22.000 C 15.242 22.000,15.521 21.881,15.701 21.701 C 16.454 20.948,15.653 19.712,14.643 20.069 M17.643 20.069 C 17.291 20.193,17.000 20.614,17.000 21.000 C 17.000 21.527,17.473 22.000,18.000 22.000 C 18.242 22.000,18.521 21.881,18.701 21.701 C 19.454 20.948,18.653 19.712,17.643 20.069 M20.643 20.069 C 20.291 20.193,20.000 20.614,20.000 21.000 C 20.000 21.527,20.473 22.000,21.000 22.000 C 21.242 22.000,21.521 21.881,21.701 21.701 C 22.454 20.948,21.653 19.712,20.643 20.069 " fill="#000640" stroke="none" fill-rule="evenodd"></path></svg>