<svg xmlns="http://www.w3.org/2000/svg" width="24" height="24" fill="currentColor" class="mmi mmi-table-diagonalupborder" viewBox="0 0 24 24"><path d="M2.664 2.063 C 2.436 2.146,2.257 2.297,2.131 2.511 C 2.036 2.672,2.020 2.744,2.020 3.000 C 2.020 3.256,2.036 3.328,2.131 3.489 C 2.470 4.065,3.234 4.168,3.701 3.701 C 4.092 3.310,4.092 2.690,3.701 2.299 C 3.429 2.027,3.018 1.933,2.664 2.063 M5.664 2.063 C 5.436 2.146,5.257 2.297,5.131 2.511 C 5.036 2.672,5.020 2.744,5.020 3.000 C 5.020 3.256,5.036 3.328,5.131 3.489 C 5.470 4.065,6.234 4.168,6.701 3.701 C 7.092 3.310,7.092 2.690,6.701 2.299 C 6.429 2.027,6.018 1.933,5.664 2.063 M8.643 2.069 C 8.291 2.193,8.000 2.614,8.000 3.000 C 8.000 3.527,8.473 4.000,9.000 4.000 C 9.242 4.000,9.521 3.881,9.701 3.701 C 10.454 2.948,9.653 1.712,8.643 2.069 M11.643 2.069 C 11.291 2.193,11.000 2.614,11.000 3.000 C 11.000 3.527,11.473 4.000,12.000 4.000 C 12.242 4.000,12.521 3.881,12.701 3.701 C 13.454 2.948,12.653 1.712,11.643 2.069 M14.643 2.069 C 14.291 2.193,14.000 2.614,14.000 3.000 C 14.000 3.527,14.473 4.000,15.000 4.000 C 15.242 4.000,15.521 3.881,15.701 3.701 C 16.454 2.948,15.653 1.712,14.643 2.069 M17.643 2.069 C 17.291 2.193,17.000 2.614,17.000 3.000 C 17.000 3.527,17.473 4.000,18.000 4.000 C 18.242 4.000,18.521 3.881,18.701 3.701 C 19.454 2.948,18.653 1.712,17.643 2.069 M20.800 2.037 C 20.723 2.053,20.588 2.104,20.500 2.150 C 20.401 2.203,16.882 5.695,11.252 11.327 C 4.092 18.490,2.146 20.458,2.083 20.600 C 1.978 20.834,1.975 21.202,2.076 21.420 C 2.169 21.619,2.413 21.856,2.609 21.938 C 2.839 22.034,3.188 22.018,3.422 21.901 C 3.577 21.823,5.581 19.840,12.747 12.671 C 21.710 3.704,21.875 3.536,21.937 3.323 C 22.015 3.052,22.015 2.987,21.938 2.725 C 21.797 2.252,21.277 1.937,20.800 2.037 M2.643 5.069 C 2.291 5.193,2.000 5.614,2.000 6.000 C 2.000 6.527,2.473 7.000,3.000 7.000 C 3.242 7.000,3.521 6.881,3.701 6.701 C 4.454 5.948,3.653 4.712,2.643 5.069 M11.643 5.069 C 11.291 5.193,11.000 5.614,11.000 6.000 C 11.000 6.527,11.473 7.000,12.000 7.000 C 12.242 7.000,12.521 6.881,12.701 6.701 C 13.454 5.948,12.653 4.712,11.643 5.069 M20.643 5.069 C 20.291 5.193,20.000 5.614,20.000 6.000 C 20.000 6.242,20.119 6.521,20.299 6.701 C 20.690 7.092,21.310 7.092,21.701 6.701 C 22.454 5.948,21.653 4.712,20.643 5.069 M2.643 8.069 C 2.291 8.193,2.000 8.614,2.000 9.000 C 2.000 9.242,2.119 9.521,2.299 9.701 C 2.690 10.092,3.310 10.092,3.701 9.701 C 4.454 8.948,3.653 7.712,2.643 8.069 M11.643 8.069 C 11.291 8.193,11.000 8.614,11.000 9.000 C 11.000 9.527,11.473 10.000,12.000 10.000 C 12.242 10.000,12.521 9.881,12.701 9.701 C 13.454 8.948,12.653 7.712,11.643 8.069 M20.643 8.069 C 20.291 8.193,20.000 8.614,20.000 9.000 C 20.000 9.242,20.119 9.521,20.299 9.701 C 20.690 10.092,21.310 10.092,21.701 9.701 C 22.454 8.948,21.653 7.712,20.643 8.069 M2.643 11.069 C 2.291 11.193,2.000 11.614,2.000 12.000 C 2.000 12.527,2.473 13.000,3.000 13.000 C 3.242 13.000,3.521 12.881,3.701 12.701 C 4.454 11.948,3.653 10.712,2.643 11.069 M5.643 11.069 C 5.291 11.193,5.000 11.614,5.000 12.000 C 5.000 12.527,5.473 13.000,6.000 13.000 C 6.242 13.000,6.521 12.881,6.701 12.701 C 7.454 11.948,6.653 10.712,5.643 11.069 M8.643 11.069 C 8.291 11.193,8.000 11.614,8.000 12.000 C 8.000 12.242,8.119 12.521,8.299 12.701 C 8.690 13.092,9.310 13.092,9.701 12.701 C 10.454 11.948,9.653 10.712,8.643 11.069 M14.643 11.069 C 14.291 11.193,14.000 11.614,14.000 12.000 C 14.000 12.527,14.473 13.000,15.000 13.000 C 15.242 13.000,15.521 12.881,15.701 12.701 C 16.454 11.948,15.653 10.712,14.643 11.069 M17.643 11.069 C 17.291 11.193,17.000 11.614,17.000 12.000 C 17.000 12.527,17.473 13.000,18.000 13.000 C 18.242 13.000,18.521 12.881,18.701 12.701 C 19.454 11.948,18.653 10.712,17.643 11.069 M20.643 11.069 C 20.291 11.193,20.000 11.614,20.000 12.000 C 20.000 12.527,20.473 13.000,21.000 13.000 C 21.242 13.000,21.521 12.881,21.701 12.701 C 22.454 11.948,21.653 10.712,20.643 11.069 M2.643 14.069 C 2.291 14.193,2.000 14.614,2.000 15.000 C 2.000 15.527,2.473 16.000,3.000 16.000 C 3.242 16.000,3.521 15.881,3.701 15.701 C 4.454 14.948,3.653 13.712,2.643 14.069 M11.643 14.069 C 11.291 14.193,11.000 14.614,11.000 15.000 C 11.000 15.527,11.473 16.000,12.000 16.000 C 12.242 16.000,12.521 15.881,12.701 15.701 C 13.454 14.948,12.653 13.712,11.643 14.069 M20.643 14.069 C 20.291 14.193,20.000 14.614,20.000 15.000 C 20.000 15.527,20.473 16.000,21.000 16.000 C 21.242 16.000,21.521 15.881,21.701 15.701 C 22.454 14.948,21.653 13.712,20.643 14.069 M2.643 17.069 C 2.291 17.193,2.000 17.614,2.000 18.000 C 2.000 18.527,2.473 19.000,3.000 19.000 C 3.242 19.000,3.521 18.881,3.701 18.701 C 4.454 17.948,3.653 16.712,2.643 17.069 M11.643 17.069 C 11.291 17.193,11.000 17.614,11.000 18.000 C 11.000 18.527,11.473 19.000,12.000 19.000 C 12.242 19.000,12.521 18.881,12.701 18.701 C 13.454 17.948,12.653 16.712,11.643 17.069 M20.643 17.069 C 20.291 17.193,20.000 17.614,20.000 18.000 C 20.000 18.527,20.473 19.000,21.000 19.000 C 21.242 19.000,21.521 18.881,21.701 18.701 C 22.454 17.948,21.653 16.712,20.643 17.069 M5.643 20.069 C 5.291 20.193,5.000 20.614,5.000 21.000 C 5.000 21.527,5.473 22.000,6.000 22.000 C 6.242 22.000,6.521 21.881,6.701 21.701 C 7.454 20.948,6.653 19.712,5.643 20.069 M8.664 20.063 C 8.436 20.146,8.257 20.297,8.131 20.511 C 8.036 20.672,8.020 20.744,8.020 21.000 C 8.020 21.256,8.036 21.328,8.131 21.489 C 8.470 22.065,9.234 22.168,9.701 21.701 C 10.092 21.310,10.092 20.690,9.701 20.299 C 9.429 20.027,9.018 19.933,8.664 20.063 M11.643 20.069 C 11.291 20.193,11.000 20.614,11.000 21.000 C 11.000 21.527,11.473 22.000,12.000 22.000 C 12.242 22.000,12.521 21.881,12.701 21.701 C 13.454 20.948,12.653 19.712,11.643 20.069 M14.643 20.069 C 14.291 20.193,14.000 20.614,14.000 21.000 C 14.000 21.527,14.473 22.000,15.000 22.000 C 15.242 22.000,15.521 21.881,15.701 21.701 C 16.454 20.948,15.653 19.712,14.643 20.069 M17.643 20.069 C 17.291 20.193,17.000 20.614,17.000 21.000 C 17.000 21.527,17.473 22.000,18.000 22.000 C 18.242 22.000,18.521 21.881,18.701 21.701 C 19.454 20.948,18.653 19.712,17.643 20.069 M20.643 20.069 C 20.291 20.193,20.000 20.614,20.000 21.000 C 20.000 21.527,20.473 22.000,21.000 22.000 C 21.242 22.000,21.521 21.881,21.701 21.701 C 22.454 20.948,21.653 19.712,20.643 20.069 " fill="#000640" stroke="none" fill-rule="evenodd"></path></svg>