<svg xmlns="http://www.w3.org/2000/svg" width="24" height="24" fill="currentColor" class="mmi mmi-tag" viewBox="0 0 24 24"><path d="M3.503 3.042 C 2.490 3.212,1.556 3.976,1.202 4.925 C 0.994 5.481,1.001 5.233,1.001 11.992 C 1.000 18.878,0.989 18.550,1.234 19.151 C 1.521 19.857,2.143 20.479,2.849 20.766 C 3.449 21.011,3.127 21.000,9.956 21.000 C 16.725 21.000,16.450 21.008,17.007 20.784 C 17.396 20.626,17.678 20.437,17.997 20.118 C 18.273 19.843,18.482 19.524,20.308 16.598 C 21.412 14.828,22.354 13.290,22.401 13.180 C 22.542 12.849,22.639 12.365,22.639 12.000 C 22.639 11.635,22.542 11.151,22.401 10.820 C 22.354 10.710,21.412 9.172,20.308 7.403 C 18.577 4.630,18.261 4.147,18.020 3.901 C 17.575 3.448,16.989 3.144,16.360 3.043 C 16.046 2.992,3.806 2.992,3.503 3.042 M16.169 5.042 C 16.533 5.143,16.541 5.153,18.605 8.456 C 19.674 10.167,20.570 11.635,20.595 11.718 C 20.655 11.920,20.652 12.117,20.584 12.309 C 20.518 12.496,16.760 18.528,16.605 18.694 C 16.547 18.756,16.428 18.846,16.340 18.894 L 16.180 18.980 10.022 18.991 C 3.099 19.002,3.623 19.025,3.300 18.702 C 2.976 18.379,3.000 18.905,3.000 12.000 C 3.000 5.096,2.976 5.621,3.300 5.298 C 3.614 4.984,3.098 5.007,9.920 5.003 C 14.008 5.001,16.069 5.014,16.169 5.042 " fill="#000640" stroke="none" fill-rule="evenodd"></path></svg>