<svg xmlns="http://www.w3.org/2000/svg" width="24" height="24" fill="currentColor" class="mmi mmi-taglabel" viewBox="0 0 24 24"><path d="M2.643 2.069 C 2.546 2.103,2.392 2.206,2.300 2.298 C 1.980 2.618,2.000 2.276,2.000 7.500 C 2.000 11.676,2.007 12.166,2.065 12.343 C 2.124 12.524,2.522 12.933,6.935 17.354 C 9.578 20.002,11.871 22.281,12.031 22.420 C 12.575 22.890,13.141 23.115,13.860 23.148 C 14.508 23.177,15.018 23.050,15.591 22.715 C 15.759 22.616,16.662 21.743,18.995 19.420 C 20.741 17.682,22.282 16.129,22.420 15.969 C 22.710 15.634,22.913 15.267,23.046 14.840 C 23.125 14.588,23.140 14.454,23.140 14.000 C 23.140 13.546,23.125 13.412,23.046 13.160 C 22.913 12.733,22.709 12.366,22.420 12.031 C 22.281 11.871,20.002 9.578,17.354 6.935 C 12.933 2.522,12.524 2.124,12.343 2.065 C 12.165 2.006,11.681 2.000,7.483 2.003 C 3.367 2.006,2.799 2.014,2.643 2.069 M16.324 8.750 C 21.454 13.887,21.160 13.568,21.160 14.000 C 21.160 14.427,21.326 14.241,17.824 17.750 C 15.923 19.655,14.523 21.028,14.441 21.067 C 14.251 21.158,13.920 21.181,13.689 21.120 C 13.512 21.072,13.211 20.780,8.750 16.325 L 4.000 11.581 4.000 7.790 L 4.000 4.000 7.790 4.000 L 11.581 4.000 16.324 8.750 M8.503 6.040 C 7.828 6.162,7.156 6.550,6.703 7.080 C 5.987 7.917,5.806 9.100,6.234 10.151 C 6.521 10.857,7.143 11.479,7.849 11.766 C 8.989 12.230,10.251 11.978,11.115 11.115 C 12.238 9.992,12.295 8.212,11.246 7.020 C 10.897 6.624,10.276 6.239,9.756 6.097 C 9.491 6.024,8.770 5.991,8.503 6.040 M9.340 8.066 C 9.709 8.192,10.000 8.604,10.000 9.000 C 10.000 9.527,9.527 10.000,9.000 10.000 C 8.758 10.000,8.479 9.881,8.299 9.701 C 7.907 9.309,7.908 8.690,8.300 8.298 C 8.577 8.020,8.957 7.936,9.340 8.066 " fill="#000640" stroke="none" fill-rule="evenodd"></path></svg>