<svg xmlns="http://www.w3.org/2000/svg" width="24" height="24" fill="currentColor" class="mmi mmi-target-arrow" viewBox="0 0 24 24"><path d="M11.069 1.039 C 8.822 1.258,6.868 2.041,5.101 3.432 C 4.640 3.795,3.606 4.863,3.231 5.363 C 1.868 7.183,1.111 9.286,1.015 11.520 C 0.986 12.184,1.017 12.351,1.211 12.606 C 1.570 13.076,2.280 13.122,2.701 12.701 C 2.924 12.479,2.987 12.261,3.017 11.620 C 3.079 10.308,3.353 9.228,3.920 8.060 C 4.795 6.255,6.255 4.795,8.060 3.920 C 9.379 3.280,10.507 3.023,12.000 3.023 C 13.497 3.023,14.632 3.282,15.944 3.923 C 18.627 5.233,20.448 7.726,20.906 10.720 C 20.956 11.047,20.977 11.418,20.977 12.000 C 20.977 12.582,20.956 12.953,20.906 13.280 C 20.448 16.275,18.630 18.765,15.940 20.083 C 14.788 20.648,13.342 21.000,12.175 21.000 C 11.652 21.000,11.342 21.152,11.131 21.511 C 11.036 21.672,11.020 21.744,11.020 22.000 C 11.020 22.256,11.036 22.328,11.131 22.489 C 11.260 22.709,11.435 22.853,11.683 22.943 C 11.829 22.997,11.965 23.004,12.460 22.984 C 14.695 22.897,16.806 22.139,18.637 20.770 C 19.244 20.315,20.315 19.244,20.770 18.637 C 21.926 17.091,22.621 15.409,22.907 13.460 C 22.959 13.104,22.977 12.727,22.977 12.000 C 22.977 11.273,22.959 10.896,22.907 10.540 C 22.621 8.590,21.925 6.906,20.769 5.363 C 20.394 4.863,19.360 3.795,18.899 3.432 C 17.302 2.175,15.548 1.412,13.580 1.120 C 12.946 1.026,11.638 0.984,11.069 1.039 M11.374 6.041 C 9.664 6.221,8.083 7.151,7.089 8.560 C 6.824 8.935,6.452 9.675,6.420 9.889 C 6.382 10.139,6.480 10.459,6.657 10.666 C 6.848 10.888,7.096 11.000,7.401 11.000 C 7.843 11.000,8.108 10.816,8.349 10.341 C 9.123 8.814,10.565 7.932,12.160 8.012 C 14.471 8.127,16.223 10.151,15.970 12.411 C 15.816 13.795,15.028 14.932,13.774 15.582 C 13.187 15.886,13.022 16.104,13.022 16.580 C 13.022 16.899,13.104 17.095,13.326 17.308 C 13.513 17.487,13.714 17.560,14.017 17.560 C 14.256 17.560,14.316 17.540,14.749 17.320 C 16.567 16.396,17.771 14.600,17.966 12.523 C 18.092 11.175,17.745 9.826,16.974 8.668 C 15.754 6.835,13.568 5.810,11.374 6.041 M7.660 12.562 C 4.739 13.658,3.458 14.156,3.360 14.235 C 3.061 14.477,2.934 14.938,3.060 15.325 C 3.124 15.520,3.220 15.630,4.105 16.521 L 5.078 17.502 3.638 18.941 C 2.080 20.498,2.000 20.598,2.000 20.978 C 2.001 21.309,2.068 21.473,2.297 21.703 C 2.527 21.932,2.691 21.999,3.022 22.000 C 3.402 22.000,3.502 21.920,5.059 20.362 L 6.498 18.922 7.479 19.895 C 8.369 20.779,8.480 20.876,8.674 20.939 C 9.076 21.071,9.537 20.936,9.780 20.617 C 9.920 20.432,12.944 12.407,12.985 12.112 C 13.063 11.539,12.575 10.998,11.983 11.001 C 11.867 11.001,10.608 11.456,7.660 12.562 M10.273 13.756 C 9.414 16.060,8.616 18.160,8.600 18.160 C 8.549 18.160,5.824 15.389,5.860 15.374 C 5.987 15.318,10.226 13.725,10.253 13.723 C 10.272 13.721,10.281 13.736,10.273 13.756 " fill="#000640" stroke="none" fill-rule="evenodd"></path></svg>