<svg xmlns="http://www.w3.org/2000/svg" width="24" height="24" fill="currentColor" class="mmi mmi-target-dot" viewBox="0 0 24 24"><path d="M3.080 2.603 C 2.596 2.822,2.373 3.335,2.541 3.845 C 2.605 4.042,2.708 4.157,3.775 5.231 C 4.651 6.113,4.928 6.416,4.899 6.456 C 4.319 7.250,3.778 8.248,3.508 9.020 C 2.721 11.277,2.870 13.796,3.918 15.940 C 4.177 16.470,4.753 17.398,4.897 17.518 C 4.957 17.567,4.846 17.691,3.824 18.717 C 2.563 19.983,2.522 20.039,2.522 20.480 C 2.522 20.688,2.544 20.780,2.631 20.938 C 2.905 21.436,3.550 21.614,4.019 21.320 C 4.085 21.278,4.635 20.748,5.240 20.142 C 5.845 19.536,6.352 19.040,6.368 19.040 C 6.383 19.040,6.511 19.127,6.652 19.234 C 7.526 19.895,8.736 20.464,9.840 20.733 C 10.603 20.919,11.112 20.977,12.000 20.977 C 12.888 20.977,13.397 20.919,14.160 20.733 C 15.261 20.465,16.390 19.936,17.339 19.244 L 17.618 19.041 18.799 20.213 C 19.786 21.194,20.007 21.394,20.145 21.433 C 20.823 21.627,21.445 21.182,21.445 20.501 C 21.445 20.070,21.404 20.015,20.164 18.780 C 19.546 18.164,19.040 17.648,19.040 17.632 C 19.040 17.617,19.127 17.489,19.234 17.348 C 19.895 16.474,20.464 15.264,20.733 14.160 C 20.919 13.397,20.977 12.888,20.977 12.000 C 20.977 11.112,20.919 10.603,20.733 9.840 C 20.465 8.739,19.936 7.610,19.243 6.661 L 19.039 6.381 20.196 5.221 C 20.832 4.582,21.384 3.997,21.423 3.920 C 21.470 3.829,21.495 3.689,21.495 3.520 C 21.498 2.783,20.756 2.303,20.100 2.616 C 19.948 2.689,19.630 2.983,18.780 3.836 C 18.164 4.454,17.648 4.960,17.632 4.960 C 17.616 4.960,17.481 4.868,17.332 4.757 C 16.187 3.900,14.785 3.324,13.280 3.094 C 12.646 2.997,11.354 2.997,10.720 3.094 C 9.216 3.324,7.774 3.917,6.652 4.766 C 6.511 4.873,6.384 4.960,6.369 4.960 C 6.354 4.960,5.828 4.448,5.201 3.822 C 4.369 2.993,4.011 2.662,3.880 2.603 C 3.643 2.496,3.316 2.496,3.080 2.603 M12.894 5.060 C 17.357 5.645,20.118 10.215,18.560 14.439 C 18.383 14.920,18.003 15.636,17.689 16.080 C 17.344 16.567,16.567 17.344,16.080 17.689 C 13.617 19.431,10.383 19.431,7.920 17.689 C 7.434 17.344,6.656 16.567,6.311 16.080 C 5.748 15.284,5.310 14.259,5.114 13.280 C 4.992 12.666,4.983 11.437,5.096 10.820 C 5.366 9.345,6.014 8.106,7.060 7.060 C 7.614 6.507,8.106 6.143,8.766 5.801 C 10.064 5.128,11.476 4.874,12.894 5.060 M11.580 10.047 C 10.707 10.214,10.000 11.087,10.000 12.000 C 10.000 12.920,10.690 13.768,11.592 13.956 C 12.816 14.211,14.000 13.249,14.000 12.000 C 14.000 11.477,13.790 10.983,13.404 10.596 C 12.913 10.106,12.277 9.914,11.580 10.047 " fill="#000640" stroke="none" fill-rule="evenodd"></path></svg>