<svg xmlns="http://www.w3.org/2000/svg" width="24" height="24" fill="currentColor" class="mmi mmi-television" viewBox="0 0 24 24"><path d="M6.689 1.057 C 6.452 1.134,6.262 1.289,6.131 1.511 C 6.038 1.669,6.020 1.746,6.020 1.980 C 6.020 2.498,6.011 2.488,7.668 3.814 L 9.125 4.980 6.293 5.002 C 3.145 5.027,3.330 5.011,2.704 5.312 C 2.075 5.614,1.599 6.097,1.298 6.740 C 1.000 7.374,1.020 6.892,1.020 13.500 C 1.020 20.108,1.000 19.626,1.298 20.260 C 1.606 20.918,2.079 21.391,2.740 21.704 C 3.409 22.021,2.760 22.000,12.000 22.000 C 21.240 22.000,20.591 22.021,21.260 21.704 C 21.920 21.391,22.391 20.920,22.704 20.260 C 23.015 19.602,23.000 19.949,23.000 13.500 C 23.000 7.051,23.015 7.398,22.704 6.740 C 22.398 6.095,21.924 5.614,21.296 5.312 C 20.670 5.011,20.855 5.027,17.707 5.002 L 14.875 4.980 16.332 3.814 C 17.918 2.545,17.949 2.512,17.991 2.078 C 18.063 1.334,17.242 0.771,16.572 1.106 C 16.488 1.147,15.425 1.978,14.210 2.951 L 12.000 4.721 9.790 2.951 C 8.575 1.978,7.510 1.146,7.424 1.103 C 7.226 1.005,6.910 0.985,6.689 1.057 M15.000 13.500 L 15.000 20.000 9.425 20.000 C 3.350 20.000,3.681 20.012,3.374 19.778 C 3.301 19.723,3.192 19.592,3.131 19.489 L 3.020 19.300 3.020 13.500 L 3.020 7.700 3.131 7.511 C 3.256 7.298,3.449 7.136,3.670 7.057 C 3.792 7.013,4.845 7.003,9.410 7.002 L 15.000 7.000 15.000 13.500 M20.340 7.066 C 20.455 7.105,20.603 7.201,20.701 7.299 C 21.022 7.620,21.000 7.157,21.000 13.500 C 21.000 19.843,21.022 19.380,20.701 19.701 C 20.409 19.994,20.362 20.000,18.573 20.000 L 17.000 20.000 17.000 13.500 L 17.000 7.000 18.573 7.000 C 19.932 7.000,20.172 7.009,20.340 7.066 M18.664 12.063 C 18.436 12.146,18.257 12.297,18.131 12.511 C 18.036 12.672,18.020 12.744,18.020 13.000 C 18.020 13.256,18.036 13.328,18.131 13.489 C 18.470 14.065,19.234 14.168,19.701 13.701 C 19.881 13.521,20.000 13.242,20.000 13.000 C 20.000 12.326,19.295 11.832,18.664 12.063 M18.664 16.063 C 18.436 16.146,18.257 16.297,18.131 16.511 C 18.036 16.672,18.020 16.744,18.020 17.000 C 18.020 17.256,18.036 17.328,18.131 17.489 C 18.470 18.065,19.234 18.168,19.701 17.701 C 19.881 17.521,20.000 17.242,20.000 17.000 C 20.000 16.326,19.295 15.832,18.664 16.063 " fill="#000640" stroke="none" fill-rule="evenodd"></path></svg>