<svg xmlns="http://www.w3.org/2000/svg" width="24" height="24" fill="currentColor" class="mmi mmi-tennis" viewBox="0 0 24 24"><path d="M11.200 0.025 C 7.677 0.288,4.535 1.992,2.410 4.793 C 1.201 6.386,0.442 8.222,0.109 10.359 C -0.013 11.143,-0.013 12.857,0.109 13.641 C 0.563 16.554,1.872 19.025,3.948 20.887 C 5.791 22.541,7.832 23.497,10.359 23.891 C 11.143 24.013,12.857 24.013,13.641 23.891 C 16.557 23.436,19.036 22.122,20.896 20.043 C 22.545 18.200,23.498 16.163,23.891 13.641 C 24.013 12.857,24.013 11.143,23.891 10.359 C 23.557 8.220,22.799 6.386,21.588 4.790 C 19.607 2.179,16.767 0.532,13.500 0.099 C 13.032 0.037,11.640 -0.007,11.200 0.025 M11.059 2.230 C 11.426 5.153,12.552 7.510,14.521 9.479 C 16.487 11.445,18.854 12.576,21.766 12.940 L 21.952 12.964 21.933 13.132 C 21.648 15.627,20.417 17.944,18.500 19.591 C 17.465 20.481,16.201 21.173,14.877 21.574 C 14.434 21.708,13.613 21.883,13.173 21.937 L 12.965 21.962 12.941 21.771 C 12.578 18.886,11.466 16.531,9.552 14.593 C 8.465 13.494,7.111 12.564,5.740 11.979 C 4.795 11.575,3.738 11.277,2.760 11.140 C 2.507 11.105,2.243 11.067,2.174 11.057 C 2.052 11.038,2.048 11.033,2.067 10.869 C 2.369 8.242,3.711 5.824,5.783 4.176 C 7.234 3.022,8.994 2.291,10.860 2.066 C 10.926 2.058,10.992 2.049,11.008 2.046 C 11.023 2.043,11.046 2.126,11.059 2.230 M13.853 2.179 C 17.500 2.853,20.490 5.545,21.578 9.135 C 21.736 9.658,21.932 10.652,21.913 10.831 L 21.900 10.945 21.540 10.893 C 17.732 10.344,14.551 7.590,13.423 3.866 C 13.280 3.395,13.080 2.422,13.080 2.197 C 13.080 2.094,13.094 2.080,13.197 2.080 C 13.262 2.080,13.557 2.125,13.853 2.179 M2.853 13.179 C 6.500 13.853,9.490 16.545,10.578 20.135 C 10.736 20.658,10.932 21.652,10.913 21.831 L 10.900 21.945 10.540 21.893 C 6.732 21.344,3.551 18.590,2.423 14.866 C 2.280 14.395,2.080 13.422,2.080 13.197 C 2.080 13.094,2.094 13.080,2.197 13.080 C 2.262 13.080,2.557 13.125,2.853 13.179 " fill="#000640" stroke="none" fill-rule="evenodd"></path></svg>