<svg xmlns="http://www.w3.org/2000/svg" width="24" height="24" fill="currentColor" class="mmi mmi-tequila" viewBox="0 0 24 24"><path d="M14.467 0.044 C 13.847 0.134,13.230 0.374,12.715 0.723 C 12.368 0.959,11.939 1.396,11.684 1.775 C 11.454 2.115,11.355 2.316,11.218 2.720 L 11.130 2.980 7.935 3.000 L 4.740 3.020 4.550 3.114 C 4.109 3.331,3.899 3.849,4.061 4.324 C 4.103 4.449,5.135 5.805,7.560 8.921 L 10.998 13.340 10.999 17.170 L 11.000 21.000 8.925 21.000 C 6.676 21.000,6.663 21.001,6.374 21.222 C 6.301 21.277,6.192 21.408,6.131 21.511 C 6.036 21.672,6.020 21.744,6.020 22.000 C 6.020 22.256,6.036 22.328,6.131 22.489 C 6.192 22.592,6.301 22.723,6.374 22.778 C 6.680 23.011,6.390 23.000,11.998 23.000 C 17.783 23.000,17.381 23.021,17.701 22.701 C 18.092 22.310,18.092 21.690,17.701 21.299 C 17.400 20.998,17.419 21.000,15.073 21.000 L 13.000 21.000 13.001 17.170 L 13.002 13.340 16.441 8.920 C 19.092 5.512,19.895 4.455,19.945 4.305 C 20.107 3.818,19.851 3.263,19.380 3.078 C 19.314 3.053,19.172 3.020,19.065 3.006 L 18.870 2.980 18.781 2.720 C 18.641 2.309,18.577 2.178,18.340 1.815 C 18.082 1.418,17.648 0.970,17.285 0.723 C 16.452 0.158,15.408 -0.094,14.467 0.044 M15.383 2.043 C 15.513 2.067,15.732 2.140,15.870 2.205 C 16.137 2.332,16.534 2.672,16.652 2.876 L 16.725 3.000 15.000 3.000 L 13.275 3.000 13.348 2.876 C 13.466 2.672,13.863 2.332,14.131 2.205 C 14.531 2.013,14.934 1.961,15.383 2.043 M16.920 5.022 C 16.920 5.035,16.577 5.485,16.158 6.022 L 15.396 7.000 12.000 7.000 L 8.604 7.000 7.842 6.022 C 7.423 5.485,7.080 5.035,7.080 5.022 C 7.080 5.010,9.294 5.000,12.000 5.000 C 14.706 5.000,16.920 5.010,16.920 5.022 M13.602 9.310 C 13.468 9.480,13.058 10.011,12.690 10.488 C 12.321 10.965,12.011 11.356,12.000 11.356 C 11.989 11.356,11.679 10.965,11.310 10.488 C 10.942 10.011,10.532 9.480,10.398 9.310 L 10.156 9.000 12.000 9.000 L 13.844 9.000 13.602 9.310 " fill="#000640" stroke="none" fill-rule="evenodd"></path></svg>