<svg xmlns="http://www.w3.org/2000/svg" width="24" height="24" fill="currentColor" class="mmi mmi-text-bold" viewBox="0 0 24 24"><path d="M4.000 12.001 L 4.000 21.002 9.870 20.989 C 16.320 20.974,15.819 20.993,16.607 20.733 C 18.080 20.246,19.300 18.999,19.772 17.495 C 20.316 15.765,19.874 13.872,18.621 12.566 C 18.197 12.123,17.776 11.812,17.240 11.543 C 16.997 11.422,16.794 11.315,16.789 11.305 C 16.784 11.295,16.878 11.156,16.998 10.995 C 17.590 10.202,17.942 9.217,17.989 8.220 C 18.042 7.116,17.671 5.907,17.008 5.019 C 16.197 3.934,14.950 3.212,13.591 3.041 C 13.382 3.015,11.569 3.000,8.631 3.000 L 4.000 3.000 4.000 12.001 M13.756 5.090 C 14.114 5.199,14.604 5.455,14.873 5.671 C 15.554 6.219,16.000 7.140,16.000 8.000 C 16.000 9.170,15.225 10.329,14.151 10.766 C 13.571 11.002,13.619 11.000,9.642 11.000 L 6.000 11.000 6.000 7.999 L 6.000 4.997 9.770 5.010 C 13.147 5.022,13.563 5.030,13.756 5.090 M15.756 13.089 C 16.115 13.200,16.605 13.455,16.873 13.671 C 17.554 14.219,18.000 15.140,18.000 16.000 C 18.000 17.170,17.225 18.329,16.151 18.766 C 15.561 19.007,15.716 19.000,10.642 19.000 L 6.000 19.000 6.000 15.999 L 6.000 12.998 10.770 13.010 C 15.089 13.021,15.560 13.029,15.756 13.089 " fill="#000640" stroke="none" fill-rule="evenodd"></path></svg>