<svg xmlns="http://www.w3.org/2000/svg" width="24" height="24" fill="currentColor" class="mmi mmi-text-diagonalup" viewBox="0 0 24 24"><path d="M2.667 4.063 C 2.267 4.190,1.967 4.651,2.009 5.074 C 2.020 5.184,2.654 6.932,3.564 9.360 C 4.978 13.134,5.113 13.474,5.260 13.636 C 5.468 13.865,5.676 13.958,5.980 13.959 C 6.444 13.960,6.817 13.684,6.946 13.244 C 6.981 13.126,7.000 12.964,6.990 12.884 C 6.979 12.805,6.803 12.293,6.599 11.746 L 6.228 10.752 7.490 9.490 L 8.752 8.229 9.733 8.593 C 10.273 8.794,10.786 8.970,10.872 8.983 C 11.087 9.018,11.422 8.914,11.615 8.754 C 11.829 8.577,11.959 8.284,11.959 7.980 C 11.958 7.672,11.863 7.462,11.630 7.257 C 11.465 7.112,11.076 6.958,7.354 5.562 C 4.392 4.451,3.205 4.023,3.060 4.014 C 2.950 4.007,2.773 4.029,2.667 4.063 M16.240 6.037 C 15.952 6.125,15.686 6.361,15.575 6.626 C 15.504 6.795,15.504 7.205,15.575 7.374 C 15.654 7.562,15.866 7.790,16.056 7.892 C 16.202 7.970,16.294 7.981,16.896 7.993 L 17.573 8.007 11.868 13.713 C 7.401 18.182,6.146 19.459,6.083 19.600 C 5.910 19.984,5.991 20.396,6.297 20.703 C 6.604 21.009,7.016 21.090,7.400 20.917 C 7.541 20.854,8.818 19.599,13.287 15.132 L 18.993 9.427 19.007 10.104 C 19.019 10.706,19.030 10.798,19.108 10.944 C 19.210 11.134,19.438 11.346,19.626 11.425 C 19.795 11.496,20.205 11.496,20.374 11.425 C 20.562 11.347,20.790 11.134,20.892 10.944 C 20.979 10.783,20.980 10.749,20.991 8.825 C 21.004 6.600,21.005 6.603,20.702 6.300 C 20.402 6.000,20.401 6.000,18.243 6.003 C 17.196 6.005,16.295 6.021,16.240 6.037 M5.770 7.108 L 6.681 7.450 6.107 8.053 C 5.792 8.384,5.516 8.661,5.493 8.669 C 5.470 8.677,5.297 8.273,5.109 7.772 C 4.921 7.270,4.753 6.825,4.736 6.783 C 4.711 6.719,4.719 6.711,4.783 6.736 C 4.825 6.753,5.270 6.920,5.770 7.108 " fill="#000640" stroke="none" fill-rule="evenodd"></path></svg>