<svg xmlns="http://www.w3.org/2000/svg" width="24" height="24" fill="currentColor" class="mmi mmi-textorder-up" viewBox="0 0 24 24"><path d="M15.800 3.037 C 15.723 3.053,15.588 3.104,15.500 3.150 C 15.406 3.199,14.674 3.903,13.735 4.847 C 12.302 6.288,12.124 6.481,12.065 6.657 C 11.983 6.906,11.983 7.094,12.065 7.343 C 12.124 7.519,12.302 7.712,13.755 9.171 C 14.807 10.227,15.436 10.830,15.540 10.880 C 15.790 11.000,15.999 11.018,16.265 10.940 C 16.581 10.849,16.844 10.590,16.936 10.283 C 17.016 10.012,17.016 9.948,16.936 9.677 C 16.877 9.479,16.808 9.396,16.148 8.730 L 15.425 8.000 15.843 8.000 C 16.697 8.000,17.430 8.154,18.104 8.476 C 18.678 8.751,19.083 9.036,19.524 9.476 C 21.687 11.640,21.425 15.175,18.964 17.022 C 18.434 17.420,17.754 17.728,17.013 17.905 C 16.787 17.960,16.392 17.975,14.739 17.995 L 12.738 18.020 12.539 18.122 C 11.767 18.520,11.853 19.648,12.678 19.939 C 12.927 20.027,16.223 20.028,16.894 19.940 C 20.055 19.526,22.526 17.055,22.940 13.894 C 23.296 11.177,22.006 8.480,19.660 7.039 C 18.534 6.348,17.259 6.000,15.848 6.000 L 15.425 6.000 16.148 5.270 C 16.808 4.604,16.877 4.521,16.936 4.323 C 17.015 4.053,17.016 3.987,16.938 3.725 C 16.797 3.252,16.277 2.937,15.800 3.037 M1.664 6.063 C 1.436 6.146,1.257 6.297,1.131 6.511 C 1.036 6.672,1.020 6.744,1.020 7.000 C 1.020 7.256,1.036 7.328,1.131 7.489 C 1.192 7.592,1.301 7.723,1.374 7.778 C 1.675 8.008,1.531 8.000,5.498 8.000 C 9.604 8.000,9.387 8.015,9.701 7.701 C 10.092 7.310,10.092 6.690,9.701 6.299 C 9.386 5.984,9.606 6.000,5.483 6.003 C 2.408 6.005,1.795 6.015,1.664 6.063 M1.664 12.063 C 1.436 12.146,1.257 12.297,1.131 12.511 C 1.036 12.672,1.020 12.744,1.020 13.000 C 1.020 13.256,1.036 13.328,1.131 13.489 C 1.192 13.592,1.301 13.723,1.374 13.778 C 1.675 14.008,1.531 14.000,5.498 14.000 C 9.604 14.000,9.387 14.015,9.701 13.701 C 10.092 13.310,10.092 12.690,9.701 12.299 C 9.386 11.984,9.606 12.000,5.483 12.003 C 2.408 12.005,1.795 12.015,1.664 12.063 M1.664 18.063 C 1.436 18.146,1.257 18.297,1.131 18.511 C 1.036 18.672,1.020 18.744,1.020 19.000 C 1.020 19.256,1.036 19.328,1.131 19.489 C 1.192 19.592,1.301 19.723,1.374 19.778 C 1.675 20.008,1.531 20.000,5.498 20.000 C 9.604 20.000,9.387 20.015,9.701 19.701 C 10.092 19.310,10.092 18.690,9.701 18.299 C 9.386 17.984,9.606 18.000,5.483 18.003 C 2.408 18.005,1.795 18.015,1.664 18.063 " fill="#000640" stroke="none" fill-rule="evenodd"></path></svg>