<svg xmlns="http://www.w3.org/2000/svg" width="24" height="24" fill="currentColor" class="mmi mmi-textwrap" viewBox="0 0 24 24"><path d="M1.664 4.063 C 1.436 4.146,1.257 4.297,1.131 4.511 C 1.036 4.672,1.020 4.744,1.020 5.000 C 1.020 5.256,1.036 5.328,1.131 5.489 C 1.260 5.709,1.437 5.854,1.678 5.939 C 1.830 5.993,3.022 6.000,11.998 6.000 C 23.385 6.000,22.374 6.028,22.701 5.701 C 23.092 5.310,23.092 4.690,22.701 4.299 C 22.374 3.972,23.388 4.000,11.983 4.003 C 3.267 4.005,1.798 4.014,1.664 4.063 M1.664 10.063 C 1.436 10.146,1.257 10.297,1.131 10.511 C 1.036 10.672,1.020 10.744,1.020 11.000 C 1.020 11.256,1.036 11.328,1.131 11.489 C 1.192 11.592,1.301 11.723,1.374 11.778 C 1.681 12.012,1.343 12.000,7.498 12.000 C 13.843 12.000,13.380 12.022,13.701 11.701 C 13.881 11.521,14.000 11.242,14.000 11.000 C 14.000 10.758,13.881 10.479,13.701 10.299 C 13.380 9.977,13.846 10.000,7.483 10.003 C 2.673 10.005,1.796 10.014,1.664 10.063 M16.664 10.061 C 16.299 10.199,16.051 10.515,16.013 10.888 C 15.970 11.307,16.174 11.690,16.539 11.878 C 16.735 11.979,16.750 11.980,17.959 12.004 C 18.963 12.024,19.219 12.040,19.400 12.098 C 20.467 12.437,21.128 13.349,20.971 14.266 C 20.847 14.989,20.300 15.584,19.498 15.867 L 19.180 15.980 17.300 15.992 L 15.420 16.004 16.146 15.272 C 16.808 14.604,16.877 14.521,16.936 14.323 C 17.015 14.053,17.016 13.987,16.938 13.725 C 16.764 13.141,16.083 12.852,15.539 13.132 C 15.393 13.207,14.916 13.660,13.735 14.847 C 12.302 16.288,12.124 16.481,12.065 16.657 C 11.983 16.906,11.983 17.094,12.065 17.343 C 12.124 17.519,12.302 17.712,13.755 19.171 C 14.807 20.227,15.436 20.830,15.540 20.880 C 15.790 21.000,15.999 21.018,16.265 20.940 C 16.581 20.849,16.844 20.590,16.936 20.283 C 17.016 20.012,17.016 19.948,16.936 19.677 C 16.877 19.479,16.808 19.396,16.148 18.730 L 15.425 18.000 17.222 18.000 C 19.202 18.000,19.480 17.977,20.128 17.760 C 21.497 17.301,22.531 16.244,22.886 14.940 C 23.013 14.474,23.013 13.519,22.887 13.060 C 22.487 11.609,21.269 10.488,19.683 10.112 C 19.385 10.042,19.173 10.029,18.080 10.016 C 17.036 10.004,16.793 10.012,16.664 10.061 M1.664 16.063 C 1.436 16.146,1.257 16.297,1.131 16.511 C 1.036 16.672,1.020 16.744,1.020 17.000 C 1.020 17.256,1.036 17.328,1.131 17.489 C 1.192 17.592,1.301 17.723,1.374 17.778 C 1.675 18.008,1.531 18.000,5.498 18.000 C 9.604 18.000,9.387 18.015,9.701 17.701 C 10.092 17.310,10.092 16.690,9.701 16.299 C 9.386 15.984,9.606 16.000,5.483 16.003 C 2.408 16.005,1.795 16.015,1.664 16.063 " fill="#000640" stroke="none" fill-rule="evenodd"></path></svg>