<svg xmlns="http://www.w3.org/2000/svg" width="24" height="24" fill="currentColor" class="mmi mmi-textorder-down" viewBox="0 0 24 24"><path d="M1.664 4.063 C 1.436 4.146,1.257 4.297,1.131 4.511 C 1.036 4.672,1.020 4.744,1.020 5.000 C 1.020 5.256,1.036 5.328,1.131 5.489 C 1.192 5.592,1.301 5.723,1.374 5.778 C 1.675 6.008,1.531 6.000,5.498 6.000 C 9.604 6.000,9.387 6.015,9.701 5.701 C 10.092 5.310,10.092 4.690,9.701 4.299 C 9.386 3.984,9.606 4.000,5.483 4.003 C 2.408 4.005,1.795 4.015,1.664 4.063 M12.664 4.063 C 12.436 4.146,12.257 4.297,12.131 4.511 C 12.036 4.672,12.020 4.744,12.020 5.000 C 12.020 5.256,12.036 5.328,12.131 5.489 C 12.192 5.592,12.301 5.723,12.374 5.778 C 12.658 5.995,12.710 6.000,14.556 6.000 C 15.494 6.000,16.415 6.019,16.601 6.042 C 17.369 6.136,18.154 6.432,18.824 6.881 C 19.229 7.152,19.848 7.771,20.119 8.176 C 21.118 9.667,21.271 11.538,20.524 13.104 C 19.828 14.560,18.593 15.545,17.013 15.902 C 16.863 15.936,16.443 15.974,16.080 15.986 L 15.420 16.009 16.146 15.275 C 16.807 14.605,16.877 14.521,16.936 14.323 C 17.015 14.053,17.016 13.987,16.938 13.725 C 16.764 13.141,16.083 12.852,15.539 13.132 C 15.393 13.207,14.916 13.660,13.735 14.847 C 12.302 16.288,12.124 16.481,12.065 16.657 C 11.983 16.906,11.983 17.094,12.065 17.343 C 12.124 17.519,12.302 17.712,13.755 19.171 C 14.807 20.227,15.436 20.830,15.540 20.880 C 15.790 21.000,15.999 21.018,16.265 20.940 C 16.581 20.849,16.844 20.590,16.936 20.283 C 17.016 20.012,17.016 19.948,16.936 19.677 C 16.877 19.479,16.808 19.396,16.148 18.730 L 15.425 18.000 15.930 18.000 C 19.513 18.000,22.478 15.417,22.940 11.894 C 23.372 8.595,21.378 5.418,18.210 4.361 C 17.290 4.054,16.733 3.999,14.546 4.003 C 13.153 4.005,12.790 4.017,12.664 4.063 M1.664 10.063 C 1.436 10.146,1.257 10.297,1.131 10.511 C 1.036 10.672,1.020 10.744,1.020 11.000 C 1.020 11.256,1.036 11.328,1.131 11.489 C 1.192 11.592,1.301 11.723,1.374 11.778 C 1.675 12.008,1.531 12.000,5.498 12.000 C 9.604 12.000,9.387 12.015,9.701 11.701 C 10.092 11.310,10.092 10.690,9.701 10.299 C 9.386 9.984,9.606 10.000,5.483 10.003 C 2.408 10.005,1.795 10.015,1.664 10.063 M1.664 16.063 C 1.436 16.146,1.257 16.297,1.131 16.511 C 1.036 16.672,1.020 16.744,1.020 17.000 C 1.020 17.256,1.036 17.328,1.131 17.489 C 1.192 17.592,1.301 17.723,1.374 17.778 C 1.675 18.008,1.531 18.000,5.498 18.000 C 9.604 18.000,9.387 18.015,9.701 17.701 C 10.092 17.310,10.092 16.690,9.701 16.299 C 9.386 15.984,9.606 16.000,5.483 16.003 C 2.408 16.005,1.795 16.015,1.664 16.063 " fill="#000640" stroke="none" fill-rule="evenodd"></path></svg>