<svg xmlns="http://www.w3.org/2000/svg" width="24" height="24" fill="currentColor" class="mmi mmi-text-horizontal" viewBox="0 0 24 24"><path d="M10.643 3.069 C 10.238 3.212,10.312 3.066,8.330 7.602 C 6.608 11.543,6.520 11.756,6.520 11.982 C 6.522 12.735,7.243 13.192,7.942 12.883 C 8.214 12.763,8.352 12.549,8.762 11.613 L 9.144 10.740 11.000 10.740 L 12.856 10.740 13.238 11.611 C 13.448 12.090,13.669 12.542,13.728 12.616 C 13.961 12.906,14.415 13.030,14.815 12.911 C 15.035 12.846,15.366 12.515,15.431 12.295 C 15.553 11.885,15.622 12.069,13.670 7.602 C 12.011 3.806,11.846 3.446,11.690 3.294 C 11.409 3.019,11.021 2.935,10.643 3.069 M11.479 7.590 C 11.726 8.156,11.938 8.643,11.949 8.670 C 11.964 8.709,11.759 8.720,11.000 8.720 C 10.241 8.720,10.036 8.709,10.051 8.670 C 10.208 8.275,10.979 6.560,11.000 6.560 C 11.016 6.560,11.231 7.024,11.479 7.590 M18.122 14.583 C 17.734 14.751,17.507 15.090,17.506 15.500 C 17.506 15.842,17.614 16.023,18.133 16.550 L 18.576 17.000 10.713 17.000 C 2.133 17.000,2.684 16.985,2.374 17.222 C 2.301 17.277,2.192 17.408,2.131 17.511 C 2.036 17.672,2.020 17.744,2.020 18.000 C 2.020 18.256,2.036 18.328,2.131 18.489 C 2.192 18.592,2.301 18.723,2.374 18.778 C 2.684 19.015,2.133 19.000,10.713 19.000 L 18.576 19.000 18.129 19.452 C 17.641 19.947,17.522 20.143,17.521 20.455 C 17.519 20.771,17.597 20.960,17.819 21.181 C 18.040 21.403,18.228 21.480,18.547 21.480 C 18.922 21.480,19.030 21.393,20.505 19.911 C 21.715 18.695,21.876 18.518,21.935 18.343 C 21.971 18.234,22.000 18.080,22.000 18.000 C 22.000 17.920,21.971 17.766,21.935 17.657 C 21.876 17.482,21.715 17.305,20.505 16.089 C 18.995 14.571,18.928 14.519,18.502 14.522 C 18.369 14.522,18.198 14.550,18.122 14.583 " fill="#000640" stroke="none" fill-rule="evenodd"></path></svg>