<svg xmlns="http://www.w3.org/2000/svg" width="24" height="24" fill="currentColor" class="mmi mmi-text-italic" viewBox="0 0 24 24"><path d="M9.664 3.063 C 9.436 3.146,9.257 3.297,9.131 3.511 C 9.036 3.672,9.020 3.744,9.020 4.000 C 9.020 4.256,9.036 4.328,9.131 4.489 C 9.192 4.592,9.301 4.723,9.374 4.778 C 9.653 4.991,9.733 5.000,11.289 5.000 C 12.424 5.000,12.725 5.011,12.711 5.050 C 12.701 5.077,11.911 8.228,10.956 12.050 L 9.220 19.000 7.535 19.000 C 5.711 19.000,5.658 19.006,5.374 19.222 C 5.301 19.277,5.192 19.408,5.131 19.511 C 5.036 19.672,5.020 19.744,5.020 20.000 C 5.020 20.256,5.036 20.328,5.131 20.489 C 5.192 20.592,5.301 20.723,5.374 20.778 C 5.677 21.009,5.484 21.000,9.998 21.000 C 14.663 21.000,14.384 21.018,14.701 20.701 C 15.092 20.310,15.092 19.690,14.701 19.299 C 14.412 19.010,14.347 19.000,12.709 19.000 C 11.576 19.000,11.275 18.989,11.289 18.950 C 11.299 18.922,12.089 15.773,13.044 11.950 L 14.780 5.000 16.463 5.000 C 18.375 5.000,18.406 4.996,18.701 4.701 C 19.092 4.310,19.092 3.690,18.701 3.299 C 18.384 2.982,18.666 3.000,13.983 3.003 C 10.474 3.005,9.795 3.015,9.664 3.063 " fill="#000640" stroke="none" fill-rule="evenodd"></path></svg>