<svg xmlns="http://www.w3.org/2000/svg" width="24" height="24" fill="currentColor" class="mmi mmi-text-verticalfromtop" viewBox="0 0 24 24"><path d="M17.664 2.063 C 17.436 2.146,17.257 2.297,17.131 2.511 L 17.020 2.700 17.000 10.631 L 16.980 18.562 16.580 18.158 C 16.090 17.664,15.922 17.557,15.587 17.530 C 14.825 17.469,14.280 18.263,14.619 18.942 C 14.692 19.089,15.071 19.492,16.089 20.505 C 17.305 21.715,17.482 21.876,17.657 21.935 C 17.906 22.017,18.094 22.017,18.343 21.935 C 18.518 21.876,18.695 21.715,19.911 20.505 C 20.929 19.492,21.308 19.089,21.381 18.942 C 21.631 18.441,21.398 17.827,20.873 17.601 C 20.626 17.495,20.268 17.503,20.038 17.620 C 19.962 17.659,19.698 17.890,19.450 18.133 L 19.000 18.576 19.000 10.715 C 19.000 1.891,19.026 2.624,18.701 2.299 C 18.429 2.027,18.018 1.933,17.664 2.063 M7.620 8.324 C 5.354 9.315,3.437 10.176,3.360 10.237 C 3.059 10.477,2.932 10.936,3.061 11.322 C 3.208 11.765,3.012 11.664,7.612 13.674 L 11.764 15.489 12.037 15.473 C 12.253 15.461,12.350 15.433,12.504 15.338 C 13.065 14.991,13.154 14.247,12.686 13.803 C 12.534 13.657,12.341 13.556,11.620 13.242 L 10.740 12.858 10.740 11.001 L 10.740 9.145 11.640 8.750 C 12.244 8.486,12.584 8.314,12.674 8.228 C 12.979 7.935,13.077 7.495,12.920 7.129 C 12.823 6.902,12.589 6.665,12.377 6.576 C 12.303 6.545,12.129 6.520,11.991 6.521 C 11.748 6.522,11.603 6.582,7.620 8.324 M8.720 11.000 C 8.720 11.528,8.712 11.960,8.703 11.960 C 8.693 11.960,8.195 11.745,7.595 11.483 L 6.505 11.006 6.683 10.922 C 6.982 10.780,8.658 10.046,8.690 10.043 C 8.707 10.041,8.720 10.472,8.720 11.000 " fill="#000640" stroke="none" fill-rule="evenodd"></path></svg>