<svg xmlns="http://www.w3.org/2000/svg" width="24" height="24" fill="currentColor" class="mmi mmi-text-v2" viewBox="0 0 24 24"><path d="M3.503 1.042 C 2.818 1.158,2.117 1.573,1.670 2.127 C 1.445 2.407,1.159 2.980,1.074 3.320 C 0.993 3.647,0.993 20.353,1.074 20.680 C 1.159 21.020,1.445 21.593,1.670 21.873 C 1.950 22.220,2.312 22.501,2.740 22.704 C 3.409 23.021,2.760 23.000,12.000 23.000 C 21.240 23.000,20.591 23.021,21.260 22.704 C 21.920 22.391,22.391 21.920,22.704 21.260 C 23.021 20.591,23.000 21.240,23.000 12.000 C 23.000 2.760,23.021 3.409,22.704 2.740 C 22.398 2.095,21.924 1.614,21.296 1.312 C 20.634 0.993,21.532 1.022,12.120 1.015 C 7.489 1.012,3.611 1.024,3.503 1.042 M20.340 3.066 C 20.593 3.153,20.847 3.407,20.934 3.660 C 20.995 3.838,21.000 4.523,21.000 12.000 C 21.000 21.144,21.026 20.376,20.701 20.701 C 20.376 21.026,21.144 21.000,11.998 21.000 C 3.106 21.000,3.684 21.015,3.374 20.778 C 3.301 20.723,3.192 20.592,3.131 20.489 L 3.020 20.300 3.020 12.000 L 3.020 3.700 3.131 3.511 C 3.256 3.298,3.449 3.136,3.670 3.057 C 3.793 3.013,5.268 3.003,11.983 3.002 C 19.479 3.000,20.162 3.005,20.340 3.066 M6.664 6.063 C 6.436 6.146,6.257 6.297,6.131 6.511 L 6.020 6.700 6.008 7.853 C 5.993 9.195,6.011 9.297,6.305 9.583 C 6.706 9.973,7.294 9.973,7.694 9.584 C 7.943 9.342,8.000 9.142,8.000 8.513 L 8.000 8.000 9.500 8.000 L 11.000 8.000 11.000 12.000 L 11.000 16.000 10.070 16.000 C 9.559 16.000,9.076 16.018,8.999 16.040 C 8.371 16.214,8.069 16.911,8.377 17.470 C 8.507 17.707,8.680 17.855,8.924 17.942 C 9.172 18.029,14.828 18.029,15.076 17.942 C 15.320 17.855,15.493 17.707,15.623 17.470 C 15.931 16.911,15.629 16.214,15.001 16.040 C 14.924 16.018,14.442 16.000,13.930 16.000 L 13.000 16.000 13.000 12.000 L 13.000 8.000 14.500 8.000 L 16.000 8.000 16.000 8.513 C 16.000 9.142,16.057 9.342,16.306 9.584 C 16.706 9.973,17.294 9.973,17.694 9.584 C 17.980 9.306,18.000 9.198,18.000 7.940 C 18.000 6.691,17.979 6.577,17.701 6.299 C 17.381 5.979,17.786 6.000,11.983 6.003 C 7.607 6.005,6.796 6.014,6.664 6.063 " fill="#000640" stroke="none" fill-rule="evenodd"></path></svg>