<svg xmlns="http://www.w3.org/2000/svg" width="24" height="24" fill="currentColor" class="mmi mmi-text" viewBox="0 0 24 24"><path d="M4.664 3.063 C 4.436 3.146,4.257 3.297,4.131 3.511 L 4.020 3.700 4.008 5.410 C 4.001 6.533,4.011 7.174,4.039 7.278 C 4.101 7.506,4.311 7.760,4.531 7.874 C 4.932 8.080,5.390 8.012,5.700 7.702 C 5.979 7.423,6.000 7.309,6.000 6.073 L 6.000 5.000 8.500 5.000 L 11.000 5.000 11.000 12.000 L 11.000 19.000 9.425 19.000 C 7.721 19.000,7.656 19.007,7.374 19.222 C 7.301 19.277,7.192 19.408,7.131 19.511 C 7.036 19.672,7.020 19.744,7.020 20.000 C 7.020 20.256,7.036 20.328,7.131 20.489 C 7.192 20.592,7.301 20.723,7.374 20.778 C 7.677 21.009,7.484 21.000,11.998 21.000 C 16.663 21.000,16.384 21.018,16.701 20.701 C 17.092 20.310,17.092 19.690,16.701 19.299 C 16.409 19.006,16.362 19.000,14.573 19.000 L 13.000 19.000 13.000 12.000 L 13.000 5.000 15.500 5.000 L 18.000 5.000 18.000 6.070 C 18.000 6.684,18.018 7.204,18.042 7.289 C 18.103 7.509,18.315 7.762,18.531 7.874 C 18.932 8.080,19.390 8.012,19.700 7.702 C 19.995 7.407,20.000 7.371,20.000 5.500 C 20.000 3.629,19.995 3.593,19.701 3.299 C 19.377 2.975,20.026 3.000,11.983 3.003 C 5.871 3.005,4.797 3.014,4.664 3.063 " fill="#000640" stroke="none" fill-rule="evenodd"></path></svg>