<svg xmlns="http://www.w3.org/2000/svg" width="24" height="24" fill="currentColor" class="mmi mmi-textframe" viewBox="0 0 24 24"><path d="M1.643 1.069 C 1.546 1.103,1.392 1.206,1.300 1.298 C 0.997 1.601,1.000 1.572,1.000 4.000 C 1.000 6.427,0.997 6.399,1.299 6.701 C 1.546 6.948,1.741 7.000,2.427 7.000 L 3.000 7.000 3.000 12.000 L 3.000 17.000 2.427 17.000 C 1.741 17.000,1.546 17.052,1.299 17.299 C 0.997 17.601,1.000 17.573,1.000 20.000 C 1.000 22.427,0.997 22.399,1.299 22.701 C 1.601 23.003,1.573 23.000,4.000 23.000 C 6.427 23.000,6.399 23.003,6.701 22.701 C 6.948 22.454,7.000 22.259,7.000 21.573 L 7.000 21.000 12.000 21.000 L 17.000 21.000 17.000 21.573 C 17.000 22.259,17.052 22.454,17.299 22.701 C 17.601 23.003,17.573 23.000,20.000 23.000 C 22.427 23.000,22.399 23.003,22.701 22.701 C 23.003 22.399,23.000 22.427,23.000 20.000 C 23.000 17.573,23.003 17.601,22.701 17.299 C 22.454 17.052,22.259 17.000,21.573 17.000 L 21.000 17.000 21.000 12.000 L 21.000 7.000 21.573 7.000 C 22.259 7.000,22.454 6.948,22.701 6.701 C 23.003 6.399,23.000 6.427,23.000 4.000 C 23.000 1.573,23.003 1.601,22.701 1.299 C 22.399 0.997,22.427 1.000,20.000 1.000 C 17.573 1.000,17.601 0.997,17.299 1.299 C 17.052 1.546,17.000 1.741,17.000 2.427 L 17.000 3.000 12.000 3.000 L 7.000 3.000 7.000 2.427 C 7.000 1.741,6.948 1.546,6.701 1.299 C 6.398 0.996,6.430 1.000,3.983 1.003 C 2.132 1.006,1.795 1.015,1.643 1.069 M5.000 4.000 L 5.000 5.000 4.000 5.000 L 3.000 5.000 3.000 4.000 L 3.000 3.000 4.000 3.000 L 5.000 3.000 5.000 4.000 M21.000 4.000 L 21.000 5.000 20.000 5.000 L 19.000 5.000 19.000 4.000 L 19.000 3.000 20.000 3.000 L 21.000 3.000 21.000 4.000 M17.000 5.573 C 17.000 6.259,17.052 6.454,17.299 6.701 C 17.546 6.948,17.741 7.000,18.427 7.000 L 19.000 7.000 19.000 12.000 L 19.000 17.000 18.427 17.000 C 17.741 17.000,17.546 17.052,17.299 17.299 C 17.052 17.546,17.000 17.741,17.000 18.427 L 17.000 19.000 12.000 19.000 L 7.000 19.000 7.000 18.427 C 7.000 17.741,6.948 17.546,6.701 17.299 C 6.454 17.052,6.259 17.000,5.573 17.000 L 5.000 17.000 5.000 12.000 L 5.000 7.000 5.573 7.000 C 6.259 7.000,6.454 6.948,6.701 6.701 C 6.948 6.454,7.000 6.259,7.000 5.573 L 7.000 5.000 12.000 5.000 L 17.000 5.000 17.000 5.573 M8.240 8.037 C 8.047 8.096,7.893 8.196,7.752 8.352 C 7.307 8.845,7.480 9.617,8.100 9.906 C 8.297 9.998,8.320 9.999,9.650 10.000 L 11.000 10.000 11.000 13.070 C 11.000 15.061,11.015 16.192,11.042 16.289 C 11.103 16.509,11.315 16.762,11.531 16.874 C 11.932 17.080,12.390 17.012,12.700 16.702 C 13.012 16.390,13.000 16.537,13.000 13.073 L 13.000 10.000 14.350 10.000 C 15.680 9.999,15.703 9.998,15.900 9.906 C 16.672 9.546,16.696 8.510,15.943 8.107 L 15.780 8.020 12.060 8.013 C 10.014 8.009,8.295 8.020,8.240 8.037 M5.000 20.000 L 5.000 21.000 4.000 21.000 L 3.000 21.000 3.000 20.000 L 3.000 19.000 4.000 19.000 L 5.000 19.000 5.000 20.000 M21.000 20.000 L 21.000 21.000 20.000 21.000 L 19.000 21.000 19.000 20.000 L 19.000 19.000 20.000 19.000 L 21.000 19.000 21.000 20.000 " fill="#000640" stroke="none" fill-rule="evenodd"></path></svg>