<svg xmlns="http://www.w3.org/2000/svg" width="24" height="24" fill="currentColor" class="mmi mmi-text-diagonal-straight" viewBox="0 0 24 24"><path d="M16.664 3.063 C 16.436 3.146,16.257 3.297,16.131 3.511 L 16.020 3.700 16.000 10.775 L 15.980 17.850 15.300 17.281 C 14.926 16.967,14.530 16.668,14.420 16.616 C 14.039 16.435,13.655 16.506,13.333 16.819 C 13.065 17.080,12.970 17.364,13.039 17.698 C 13.064 17.817,13.124 17.975,13.173 18.048 C 13.222 18.120,13.988 18.787,14.876 19.528 C 16.547 20.923,16.658 21.000,17.000 21.000 C 17.342 21.000,17.453 20.923,19.124 19.528 C 20.012 18.787,20.778 18.120,20.827 18.048 C 20.876 17.975,20.936 17.817,20.961 17.698 C 21.030 17.364,20.935 17.080,20.667 16.819 C 20.345 16.506,19.961 16.435,19.580 16.616 C 19.470 16.668,19.074 16.967,18.700 17.281 L 18.020 17.850 18.000 10.795 L 17.980 3.740 17.886 3.550 C 17.669 3.109,17.128 2.893,16.664 3.063 M7.673 5.061 C 7.562 5.096,7.417 5.189,7.313 5.291 C 7.153 5.448,7.002 5.778,5.322 9.621 C 3.537 13.707,3.505 13.785,3.505 14.040 C 3.506 14.606,3.922 15.010,4.505 15.010 C 4.795 15.010,5.099 14.868,5.260 14.657 C 5.314 14.585,5.535 14.125,5.750 13.633 L 6.142 12.740 8.000 12.740 L 9.858 12.740 10.239 13.608 C 10.449 14.085,10.661 14.530,10.712 14.598 C 10.928 14.888,11.346 15.036,11.723 14.956 C 12.155 14.863,12.480 14.448,12.480 13.990 C 12.480 13.760,12.398 13.561,10.670 9.610 C 8.740 5.196,8.778 5.273,8.426 5.105 C 8.218 5.007,7.900 4.988,7.673 5.061 M8.480 9.582 C 8.733 10.165,8.946 10.660,8.953 10.681 C 8.962 10.706,8.610 10.720,8.000 10.720 C 7.390 10.720,7.038 10.706,7.047 10.681 C 7.101 10.523,7.984 8.522,8.000 8.522 C 8.011 8.522,8.227 8.999,8.480 9.582 " fill="#000640" stroke="none" fill-rule="evenodd"></path></svg>