<svg xmlns="http://www.w3.org/2000/svg" width="24" height="24" fill="currentColor" class="mmi mmi-textcolor" viewBox="0 0 24 24"><path d="M11.643 3.069 C 11.546 3.103,11.393 3.205,11.303 3.296 C 11.153 3.446,10.903 4.019,8.323 10.119 C 5.735 16.237,5.507 16.796,5.507 16.999 C 5.507 17.415,5.770 17.786,6.174 17.940 C 6.401 18.027,6.715 18.005,6.948 17.886 C 7.273 17.721,7.336 17.605,8.117 15.750 L 8.855 14.000 11.999 14.000 L 15.144 14.000 15.882 15.750 C 16.664 17.605,16.728 17.721,17.052 17.886 C 17.705 18.219,18.493 17.734,18.493 16.999 C 18.493 16.796,18.265 16.237,15.677 10.119 C 13.102 4.031,12.846 3.446,12.698 3.296 C 12.424 3.022,12.022 2.935,11.643 3.069 M13.128 9.231 C 13.738 10.677,14.248 11.892,14.262 11.930 C 14.287 11.996,14.163 12.000,12.000 12.000 C 9.837 12.000,9.713 11.996,9.737 11.930 C 9.842 11.647,11.984 6.602,12.000 6.602 C 12.011 6.602,12.519 7.785,13.128 9.231 M2.643 20.069 C 2.291 20.193,2.000 20.614,2.000 21.000 C 2.000 21.242,2.119 21.521,2.299 21.701 C 2.625 22.027,1.736 22.000,12.000 22.000 C 22.264 22.000,21.375 22.027,21.701 21.701 C 22.092 21.310,22.092 20.690,21.701 20.299 C 21.375 19.972,22.268 20.000,11.983 20.003 C 3.791 20.006,2.801 20.013,2.643 20.069 " fill="#000640" stroke="none" fill-rule="evenodd"></path></svg>