<svg xmlns="http://www.w3.org/2000/svg" width="24" height="24" fill="currentColor" class="mmi mmi-textstyle" viewBox="0 0 24 24"><path d="M3.503 1.042 C 2.818 1.158,2.117 1.573,1.670 2.127 C 1.445 2.407,1.159 2.980,1.074 3.320 C 0.993 3.647,0.993 20.353,1.074 20.680 C 1.159 21.020,1.445 21.593,1.670 21.873 C 1.950 22.220,2.312 22.501,2.740 22.704 C 3.409 23.021,2.760 23.000,12.000 23.000 C 21.240 23.000,20.591 23.021,21.260 22.704 C 21.920 22.391,22.391 21.920,22.704 21.260 C 23.021 20.591,23.000 21.240,23.000 12.000 C 23.000 2.760,23.021 3.409,22.704 2.740 C 22.398 2.095,21.924 1.614,21.296 1.312 C 20.634 0.993,21.532 1.022,12.120 1.015 C 7.489 1.012,3.611 1.024,3.503 1.042 M20.340 3.066 C 20.593 3.153,20.847 3.407,20.934 3.660 C 20.995 3.838,21.000 4.523,21.000 12.000 C 21.000 21.144,21.026 20.376,20.701 20.701 C 20.376 21.026,21.144 21.000,11.998 21.000 C 3.106 21.000,3.684 21.015,3.374 20.778 C 3.301 20.723,3.192 20.592,3.131 20.489 L 3.020 20.300 3.020 12.000 L 3.020 3.700 3.131 3.511 C 3.256 3.298,3.449 3.136,3.670 3.057 C 3.793 3.013,5.268 3.003,11.983 3.002 C 19.479 3.000,20.162 3.005,20.340 3.066 M11.667 6.065 C 11.251 6.193,11.292 6.116,9.683 9.760 C 8.881 11.575,7.848 13.870,7.386 14.860 C 6.610 16.524,6.545 16.680,6.529 16.925 C 6.493 17.471,6.831 17.885,7.389 17.978 C 7.632 18.019,7.948 17.916,8.163 17.726 C 8.321 17.587,8.404 17.432,8.938 16.285 L 9.535 15.000 11.999 15.000 L 14.462 15.000 15.056 16.277 C 15.515 17.264,15.683 17.585,15.795 17.693 C 16.204 18.084,16.758 18.098,17.169 17.727 C 17.432 17.489,17.552 17.143,17.482 16.828 C 17.461 16.733,17.104 15.928,16.689 15.038 C 16.275 14.148,15.244 11.854,14.398 9.940 C 12.992 6.759,12.845 6.446,12.687 6.291 C 12.413 6.023,12.060 5.944,11.667 6.065 M12.786 11.250 L 13.551 12.980 12.776 12.991 C 12.349 12.997,11.650 12.997,11.223 12.991 L 10.446 12.980 11.213 11.250 C 11.635 10.298,11.989 9.520,12.001 9.520 C 12.012 9.520,12.366 10.298,12.786 11.250 " fill="#000640" stroke="none" fill-rule="evenodd"></path></svg>