<svg xmlns="http://www.w3.org/2000/svg" width="24" height="24" fill="currentColor" class="mmi mmi-textmodifier-v2" viewBox="0 0 24 24"><path d="M1.643 1.069 C 1.546 1.103,1.392 1.206,1.300 1.298 C 0.997 1.601,1.000 1.572,1.000 4.000 C 1.000 6.427,0.997 6.399,1.299 6.701 C 1.546 6.948,1.741 7.000,2.427 7.000 L 3.000 7.000 3.000 12.000 L 3.000 17.000 2.427 17.000 C 1.741 17.000,1.546 17.052,1.299 17.299 C 0.997 17.601,1.000 17.573,1.000 20.000 C 1.000 22.427,0.997 22.399,1.299 22.701 C 1.601 23.003,1.573 23.000,4.000 23.000 C 6.427 23.000,6.399 23.003,6.701 22.701 C 6.948 22.454,7.000 22.259,7.000 21.573 L 7.000 21.000 12.000 21.000 L 17.000 21.000 17.000 21.573 C 17.000 22.259,17.052 22.454,17.299 22.701 C 17.601 23.003,17.573 23.000,20.000 23.000 C 22.427 23.000,22.399 23.003,22.701 22.701 C 23.003 22.399,23.000 22.427,23.000 20.000 C 23.000 17.573,23.003 17.601,22.701 17.299 C 22.454 17.052,22.259 17.000,21.573 17.000 L 21.000 17.000 21.000 12.000 L 21.000 7.000 21.573 7.000 C 22.259 7.000,22.454 6.948,22.701 6.701 C 23.003 6.399,23.000 6.427,23.000 4.000 C 23.000 1.573,23.003 1.601,22.701 1.299 C 22.399 0.997,22.427 1.000,20.000 1.000 C 17.573 1.000,17.601 0.997,17.299 1.299 C 17.052 1.546,17.000 1.741,17.000 2.427 L 17.000 3.000 12.000 3.000 L 7.000 3.000 7.000 2.427 C 7.000 1.741,6.948 1.546,6.701 1.299 C 6.398 0.996,6.430 1.000,3.983 1.003 C 2.132 1.006,1.795 1.015,1.643 1.069 M5.000 4.000 L 5.000 5.000 4.000 5.000 L 3.000 5.000 3.000 4.000 L 3.000 3.000 4.000 3.000 L 5.000 3.000 5.000 4.000 M21.000 4.000 L 21.000 5.000 20.000 5.000 L 19.000 5.000 19.000 4.000 L 19.000 3.000 20.000 3.000 L 21.000 3.000 21.000 4.000 M17.000 5.573 C 17.000 6.259,17.052 6.454,17.299 6.701 C 17.546 6.948,17.741 7.000,18.427 7.000 L 19.000 7.000 19.000 12.000 L 19.000 17.000 18.427 17.000 C 17.741 17.000,17.546 17.052,17.299 17.299 C 17.052 17.546,17.000 17.741,17.000 18.427 L 17.000 19.000 12.000 19.000 L 7.000 19.000 7.000 18.427 C 7.000 17.741,6.948 17.546,6.701 17.299 C 6.454 17.052,6.259 17.000,5.573 17.000 L 5.000 17.000 5.000 12.000 L 5.000 7.000 5.573 7.000 C 6.259 7.000,6.454 6.948,6.701 6.701 C 6.948 6.454,7.000 6.259,7.000 5.573 L 7.000 5.000 12.000 5.000 L 17.000 5.000 17.000 5.573 M11.643 7.069 C 11.238 7.212,11.312 7.066,9.330 11.602 C 7.608 15.543,7.520 15.756,7.520 15.982 C 7.522 16.735,8.243 17.192,8.942 16.883 C 9.214 16.763,9.352 16.549,9.762 15.613 L 10.144 14.740 12.000 14.740 L 13.856 14.740 14.238 15.611 C 14.448 16.090,14.669 16.542,14.728 16.616 C 14.961 16.906,15.415 17.030,15.815 16.911 C 16.035 16.846,16.366 16.515,16.431 16.295 C 16.553 15.885,16.622 16.069,14.670 11.602 C 13.011 7.806,12.846 7.446,12.690 7.294 C 12.409 7.019,12.021 6.935,11.643 7.069 M12.479 11.590 C 12.726 12.157,12.938 12.643,12.949 12.670 C 12.964 12.709,12.759 12.720,12.000 12.720 C 11.241 12.720,11.036 12.709,11.051 12.670 C 11.208 12.275,11.979 10.560,12.000 10.560 C 12.016 10.560,12.231 11.023,12.479 11.590 M5.000 20.000 L 5.000 21.000 4.000 21.000 L 3.000 21.000 3.000 20.000 L 3.000 19.000 4.000 19.000 L 5.000 19.000 5.000 20.000 M21.000 20.000 L 21.000 21.000 20.000 21.000 L 19.000 21.000 19.000 20.000 L 19.000 19.000 20.000 19.000 L 21.000 19.000 21.000 20.000 " fill="#000640" stroke="none" fill-rule="evenodd"></path></svg>