<svg xmlns="http://www.w3.org/2000/svg" width="24" height="24" fill="currentColor" class="mmi mmi-textmodification-outlined" viewBox="0 0 24 24"><path d="M10.850 1.043 C 9.962 1.198,9.132 1.790,8.724 2.559 C 8.526 2.933,2.117 18.999,2.031 19.339 C 1.964 19.602,1.953 19.739,1.971 20.119 C 2.008 20.937,2.274 21.524,2.876 22.121 C 3.763 23.000,4.930 23.222,6.218 22.756 C 6.732 22.570,7.163 22.284,7.623 21.824 C 8.192 21.253,8.345 20.987,8.723 19.906 L 9.033 19.020 11.964 19.020 L 14.896 19.020 15.147 19.740 C 15.622 21.099,15.725 21.351,15.923 21.653 C 16.364 22.325,17.076 22.793,17.890 22.947 C 18.317 23.027,19.468 23.003,19.820 22.906 C 20.810 22.632,21.608 21.855,21.920 20.860 C 22.041 20.475,22.070 19.805,21.984 19.401 C 21.943 19.209,20.764 16.209,18.674 10.981 C 16.888 6.515,15.378 2.761,15.318 2.639 C 15.048 2.096,14.527 1.591,13.940 1.304 C 13.421 1.051,13.292 1.031,12.120 1.017 C 11.537 1.011,10.965 1.022,10.850 1.043 M12.980 3.066 C 13.095 3.105,13.243 3.200,13.340 3.298 C 13.496 3.454,13.682 3.905,16.763 11.602 C 19.994 19.675,20.020 19.742,20.020 20.020 C 20.020 20.254,20.002 20.331,19.909 20.489 C 19.680 20.878,19.415 20.996,18.760 20.998 C 18.257 21.000,18.079 20.966,17.879 20.830 C 17.599 20.639,17.537 20.507,17.005 18.986 C 16.445 17.385,16.400 17.297,16.057 17.120 L 15.862 17.020 11.961 17.020 C 8.166 17.020,8.056 17.022,7.902 17.098 C 7.815 17.142,7.677 17.245,7.596 17.329 C 7.441 17.488,7.450 17.467,6.818 19.296 C 6.550 20.072,6.391 20.329,5.999 20.618 C 5.657 20.870,5.367 20.974,5.000 20.977 C 4.661 20.980,4.472 20.909,4.261 20.699 C 4.062 20.499,3.980 20.296,3.980 20.000 C 3.980 19.749,4.090 19.466,7.237 11.602 C 10.323 3.891,10.504 3.454,10.661 3.297 C 10.921 3.037,11.056 3.007,11.983 3.003 C 12.631 3.001,12.823 3.013,12.980 3.066 M11.664 6.661 C 11.456 6.740,11.266 6.888,11.166 7.051 C 11.121 7.124,10.558 8.659,9.916 10.462 C 8.861 13.424,8.748 13.765,8.745 14.000 C 8.739 14.434,8.993 14.796,9.404 14.942 C 9.543 14.990,9.966 15.000,11.958 15.000 C 14.657 15.000,14.596 15.006,14.902 14.700 C 15.106 14.496,15.218 14.195,15.190 13.926 C 15.179 13.824,14.660 12.256,14.036 10.441 C 13.172 7.929,12.873 7.105,12.781 6.983 C 12.542 6.670,12.028 6.522,11.664 6.661 M12.397 11.832 L 12.797 13.000 11.976 13.000 C 11.315 13.000,11.157 12.990,11.167 12.947 C 11.194 12.838,11.979 10.646,11.988 10.655 C 11.993 10.660,12.177 11.190,12.397 11.832 " fill="#000640" stroke="none" fill-rule="evenodd"></path></svg>