<svg xmlns="http://www.w3.org/2000/svg" width="24" height="24" fill="currentColor" class="mmi mmi-text-verticalfrombottom" viewBox="0 0 24 24"><path d="M17.640 2.068 C 17.489 2.120,17.237 2.352,16.069 3.515 C 15.095 4.484,14.651 4.954,14.589 5.080 C 14.469 5.324,14.469 5.716,14.588 5.940 C 14.831 6.398,15.298 6.602,15.781 6.462 C 15.991 6.400,16.061 6.347,16.507 5.910 L 17.000 5.427 17.000 13.283 C 17.000 18.572,17.014 21.189,17.042 21.289 C 17.103 21.509,17.315 21.762,17.531 21.874 C 17.932 22.080,18.390 22.012,18.700 21.702 C 19.026 21.376,19.000 22.111,19.000 13.285 L 19.000 5.424 19.452 5.871 C 19.947 6.359,20.143 6.478,20.455 6.479 C 20.771 6.481,20.960 6.403,21.181 6.181 C 21.403 5.960,21.480 5.772,21.480 5.453 C 21.480 5.078,21.393 4.970,19.911 3.495 C 18.695 2.285,18.518 2.124,18.343 2.065 C 18.102 1.985,17.878 1.986,17.640 2.068 M7.620 10.324 C 5.354 11.315,3.437 12.176,3.360 12.237 C 3.059 12.477,2.932 12.936,3.061 13.322 C 3.208 13.765,3.012 13.664,7.612 15.674 L 11.764 17.489 12.037 17.473 C 12.253 17.461,12.350 17.433,12.504 17.338 C 13.065 16.991,13.154 16.247,12.686 15.803 C 12.534 15.657,12.341 15.556,11.620 15.242 L 10.740 14.858 10.740 13.001 L 10.740 11.145 11.640 10.750 C 12.244 10.486,12.584 10.314,12.674 10.228 C 12.979 9.935,13.077 9.495,12.920 9.129 C 12.823 8.902,12.589 8.665,12.377 8.576 C 12.303 8.545,12.129 8.520,11.991 8.521 C 11.748 8.522,11.603 8.582,7.620 10.324 M8.720 13.000 C 8.720 13.528,8.712 13.960,8.703 13.960 C 8.693 13.960,8.195 13.745,7.595 13.483 L 6.505 13.006 6.683 12.922 C 6.982 12.780,8.658 12.046,8.690 12.043 C 8.707 12.041,8.720 12.472,8.720 13.000 " fill="#000640" stroke="none" fill-rule="evenodd"></path></svg>