<svg xmlns="http://www.w3.org/2000/svg" width="24" height="24" fill="currentColor" class="mmi mmi-text-strikethrough" viewBox="0 0 24 24"><path d="M11.280 2.045 C 10.502 2.134,9.844 2.330,9.140 2.680 C 6.400 4.046,5.269 7.044,6.495 9.697 C 6.655 10.044,6.910 10.447,7.173 10.770 L 7.361 11.000 5.605 11.000 C 3.705 11.000,3.659 11.005,3.374 11.222 C 3.301 11.277,3.192 11.408,3.131 11.511 C 3.036 11.672,3.020 11.744,3.020 12.000 C 3.020 12.256,3.036 12.328,3.131 12.489 C 3.192 12.592,3.301 12.723,3.374 12.778 C 3.677 13.009,3.477 13.000,8.075 13.000 C 11.550 13.000,12.367 13.011,12.680 13.058 C 14.040 13.264,15.143 14.038,15.677 15.160 C 15.915 15.660,15.977 15.937,15.977 16.500 C 15.977 17.070,15.914 17.343,15.666 17.860 C 14.586 20.104,11.307 20.716,9.270 19.052 C 8.895 18.746,8.547 18.303,8.335 17.860 C 8.123 17.420,8.046 17.130,8.014 16.660 C 7.999 16.441,7.959 16.226,7.910 16.110 C 7.822 15.901,7.584 15.663,7.377 15.576 C 7.204 15.504,6.796 15.504,6.623 15.576 C 6.411 15.665,6.177 15.902,6.080 16.130 C 5.999 16.317,5.992 16.384,6.011 16.760 C 6.076 18.046,6.602 19.216,7.543 20.169 C 9.948 22.606,14.052 22.606,16.457 20.169 C 17.424 19.190,17.931 18.034,17.989 16.680 C 18.042 15.442,17.628 14.212,16.827 13.230 L 16.639 13.000 18.392 13.000 C 20.383 13.000,20.405 12.997,20.701 12.701 C 21.092 12.310,21.092 11.690,20.701 11.299 C 20.384 10.982,20.678 11.000,15.878 11.000 C 11.186 11.000,11.291 11.005,10.533 10.754 C 9.347 10.360,8.394 9.379,8.092 8.240 C 7.998 7.885,7.998 7.114,8.093 6.760 C 8.583 4.913,10.577 3.739,12.680 4.058 C 14.042 4.265,15.143 5.037,15.676 6.160 C 15.877 6.583,15.955 6.878,15.986 7.340 C 16.016 7.782,16.111 8.025,16.338 8.234 C 16.859 8.714,17.681 8.505,17.940 7.826 C 17.999 7.670,18.008 7.566,17.989 7.229 C 17.914 5.916,17.383 4.752,16.423 3.798 C 15.102 2.484,13.174 1.827,11.280 2.045 " fill="#000640" stroke="none" fill-rule="evenodd"></path></svg>