<svg xmlns="http://www.w3.org/2000/svg" width="24" height="24" fill="currentColor" class="mmi mmi-text-diagonbottom" viewBox="0 0 24 24"><path d="M14.683 3.553 C 10.165 5.248,10.291 5.192,10.116 5.577 C 9.945 5.953,10.068 6.492,10.385 6.754 C 10.568 6.906,10.913 7.017,11.116 6.990 C 11.195 6.979,11.707 6.803,12.254 6.599 L 13.248 6.228 14.510 7.490 L 15.772 8.752 15.401 9.746 C 15.197 10.293,15.021 10.805,15.010 10.884 C 15.000 10.964,15.019 11.126,15.054 11.244 C 15.183 11.684,15.556 11.960,16.020 11.959 C 16.324 11.958,16.532 11.865,16.740 11.636 C 16.887 11.474,17.022 11.134,18.436 7.360 C 19.346 4.932,19.980 3.184,19.991 3.074 C 20.047 2.508,19.558 1.998,18.963 2.001 C 18.874 2.001,17.255 2.589,14.683 3.553 M17.261 4.790 C 17.246 4.829,17.080 5.269,16.892 5.770 L 16.550 6.680 16.045 6.204 C 15.444 5.637,15.299 5.488,15.326 5.461 C 15.348 5.438,17.202 4.730,17.254 4.724 C 17.273 4.722,17.276 4.752,17.261 4.790 M4.160 6.572 C 3.964 6.634,3.629 6.981,3.569 7.185 C 3.486 7.464,3.507 7.727,3.630 7.954 C 3.710 8.103,5.243 9.690,9.280 13.803 C 12.327 16.908,14.826 19.464,14.833 19.484 C 14.841 19.504,14.553 19.520,14.173 19.521 C 13.422 19.522,13.292 19.554,13.048 19.798 C 12.830 20.016,12.781 20.145,12.781 20.500 C 12.781 20.855,12.830 20.984,13.048 21.202 C 13.331 21.485,13.274 21.478,15.500 21.478 C 17.726 21.478,17.669 21.485,17.952 21.202 C 18.235 20.919,18.220 21.073,18.220 18.500 C 18.220 15.927,18.235 16.081,17.952 15.798 C 17.563 15.409,16.872 15.425,16.515 15.831 C 16.282 16.098,16.264 16.179,16.241 17.140 L 16.220 18.021 10.680 12.370 C 6.303 7.906,5.098 6.699,4.942 6.620 C 4.725 6.510,4.416 6.491,4.160 6.572 " fill="#000640" stroke="none" fill-rule="evenodd"></path></svg>