<svg xmlns="http://www.w3.org/2000/svg" width="24" height="24" fill="currentColor" class="mmi mmi-text-underline" viewBox="0 0 24 24"><path d="M5.664 2.063 C 5.436 2.146,5.257 2.297,5.131 2.511 L 5.020 2.700 5.008 7.240 C 4.999 10.354,5.010 11.918,5.040 12.220 C 5.344 15.237,7.365 17.319,10.540 17.885 C 10.987 17.965,11.191 17.978,12.000 17.977 C 13.007 17.977,13.352 17.938,14.140 17.736 C 16.899 17.030,18.649 15.042,18.959 12.260 C 18.984 12.040,18.999 10.137,19.000 7.377 C 19.000 2.292,19.019 2.617,18.701 2.299 C 18.234 1.832,17.470 1.935,17.131 2.511 L 17.020 2.700 16.998 7.460 C 16.976 12.102,16.973 12.229,16.892 12.580 C 16.474 14.386,15.199 15.528,13.180 15.905 C 12.573 16.019,11.295 16.008,10.720 15.885 C 8.715 15.456,7.522 14.364,7.108 12.580 C 7.026 12.229,7.024 12.103,7.002 7.480 L 6.980 2.740 6.886 2.550 C 6.669 2.109,6.128 1.893,5.664 2.063 M3.664 20.063 C 3.436 20.146,3.257 20.297,3.131 20.511 C 3.036 20.672,3.020 20.744,3.020 21.000 C 3.020 21.256,3.036 21.328,3.131 21.489 C 3.192 21.592,3.301 21.723,3.374 21.778 C 3.684 22.015,3.106 22.000,11.998 22.000 C 21.144 22.000,20.376 22.026,20.701 21.701 C 21.092 21.310,21.092 20.690,20.701 20.299 C 20.376 19.973,21.147 20.000,11.983 20.003 C 5.003 20.005,3.797 20.014,3.664 20.063 " fill="#000640" stroke="none" fill-rule="evenodd"></path></svg>