<svg xmlns="http://www.w3.org/2000/svg" width="24" height="24" fill="currentColor" class="mmi mmi-thermometer" viewBox="0 0 24 24"><path d="M18.525 1.924 C 18.172 1.978,17.754 2.131,17.421 2.328 C 17.060 2.542,17.029 2.572,11.931 7.729 L 7.671 12.038 7.246 12.014 C 6.190 11.955,5.098 12.263,4.176 12.881 C 3.777 13.148,3.153 13.769,2.892 14.160 C 2.501 14.744,2.261 15.302,2.113 15.970 C 1.997 16.496,1.987 17.396,2.093 17.928 C 2.295 18.950,2.805 19.890,3.538 20.593 C 5.970 22.928,9.957 22.238,11.470 19.220 C 11.834 18.491,11.977 17.855,11.978 16.948 L 11.978 16.316 16.684 11.661 C 21.644 6.754,21.638 6.760,21.882 6.161 C 22.045 5.761,22.097 5.471,22.096 4.960 C 22.095 4.608,22.074 4.426,22.005 4.182 C 21.637 2.872,20.504 1.963,19.160 1.902 C 18.951 1.892,18.665 1.902,18.525 1.924 M19.557 3.988 C 19.944 4.187,20.200 4.660,20.145 5.076 C 20.093 5.470,19.996 5.583,18.134 7.419 L 16.367 9.161 14.857 9.150 L 13.347 9.140 15.836 6.622 C 17.205 5.237,18.364 4.077,18.412 4.043 C 18.732 3.818,19.182 3.797,19.557 3.988 M12.193 13.292 C 11.012 14.462,10.016 15.479,9.981 15.552 C 9.880 15.756,9.866 16.028,9.936 16.394 C 10.169 17.613,9.681 18.797,8.661 19.493 C 7.125 20.539,4.949 19.880,4.237 18.152 C 3.636 16.694,4.261 15.011,5.660 14.322 C 6.273 14.021,6.894 13.935,7.581 14.059 C 8.036 14.141,8.262 14.122,8.503 13.980 C 8.596 13.926,9.273 13.269,10.006 12.520 L 11.339 11.160 12.840 11.162 L 14.340 11.164 12.193 13.292 M6.664 16.063 C 6.436 16.146,6.257 16.297,6.131 16.511 C 6.036 16.672,6.020 16.744,6.020 17.000 C 6.020 17.256,6.036 17.328,6.131 17.489 C 6.470 18.065,7.234 18.168,7.701 17.701 C 8.092 17.310,8.092 16.690,7.701 16.299 C 7.429 16.027,7.018 15.933,6.664 16.063 " fill="#000640" stroke="none" fill-rule="evenodd"></path></svg>