<svg xmlns="http://www.w3.org/2000/svg" width="24" height="24" fill="currentColor" class="mmi mmi-three" viewBox="0 0 24 24"><path d="M11.200 0.025 C 7.091 0.332,3.508 2.609,1.507 6.186 C 0.775 7.494,0.317 8.899,0.094 10.520 C -0.002 11.214,-0.002 12.786,0.094 13.480 C 0.317 15.101,0.775 16.506,1.507 17.814 C 4.173 22.579,9.604 24.939,14.910 23.637 C 19.156 22.595,22.595 19.156,23.637 14.910 C 24.599 10.992,23.592 6.970,20.896 3.958 C 19.003 1.843,16.397 0.483,13.500 0.099 C 13.032 0.037,11.640 -0.007,11.200 0.025 M12.920 2.043 C 14.827 2.219,16.631 2.940,18.200 4.155 C 18.637 4.493,19.507 5.363,19.845 5.800 C 21.878 8.427,22.517 11.768,21.578 14.865 C 21.082 16.499,20.272 17.850,19.061 19.061 C 18.287 19.836,17.547 20.383,16.623 20.863 C 13.714 22.376,10.286 22.376,7.377 20.863 C 6.454 20.383,5.715 19.837,4.938 19.061 C 3.951 18.075,3.213 16.964,2.722 15.728 C 1.390 12.368,1.921 8.686,4.153 5.800 C 4.491 5.363,5.363 4.491,5.800 4.153 C 7.114 3.137,8.541 2.486,10.125 2.181 C 11.037 2.006,12.003 1.958,12.920 2.043 M11.440 6.024 C 10.397 6.148,9.456 6.494,8.792 6.997 C 7.898 7.674,7.348 8.739,7.580 9.346 C 7.737 9.757,8.055 9.976,8.500 9.978 C 8.973 9.981,9.232 9.791,9.478 9.261 C 9.728 8.720,10.191 8.364,10.941 8.136 C 11.272 8.035,11.353 8.026,11.980 8.027 C 12.551 8.027,12.711 8.041,12.975 8.113 C 13.654 8.299,14.215 8.675,14.401 9.070 C 14.522 9.327,14.522 9.673,14.401 9.930 C 14.139 10.486,13.258 10.924,12.286 10.982 C 12.073 10.995,11.816 11.023,11.714 11.046 C 11.107 11.178,10.789 11.912,11.097 12.470 C 11.295 12.828,11.613 13.000,12.081 13.000 C 12.407 13.000,12.972 13.103,13.310 13.224 C 13.831 13.411,14.275 13.764,14.423 14.109 C 14.518 14.332,14.509 14.700,14.402 14.928 C 14.086 15.599,12.971 16.047,11.763 15.989 C 10.645 15.934,9.815 15.482,9.462 14.734 C 9.285 14.361,9.202 14.264,8.951 14.136 C 8.807 14.062,8.699 14.040,8.490 14.040 C 8.253 14.040,8.188 14.057,8.000 14.170 C 7.854 14.258,7.743 14.364,7.661 14.497 C 7.552 14.674,7.540 14.727,7.540 15.017 C 7.540 15.384,7.637 15.650,7.944 16.121 C 9.126 17.936,12.239 18.553,14.500 17.421 C 15.084 17.129,15.428 16.869,15.773 16.459 C 16.053 16.126,16.339 15.559,16.420 15.177 C 16.495 14.821,16.495 14.178,16.419 13.820 C 16.304 13.273,15.918 12.625,15.456 12.203 L 15.234 12.000 15.456 11.797 C 15.918 11.375,16.304 10.727,16.419 10.180 C 16.495 9.822,16.495 9.179,16.420 8.823 C 16.388 8.671,16.282 8.383,16.184 8.183 C 15.551 6.883,14.046 6.071,12.180 6.023 C 11.850 6.014,11.517 6.015,11.440 6.024 " stroke="none" fill-rule="evenodd"></path></svg>