<svg xmlns="http://www.w3.org/2000/svg" width="24" height="24" fill="currentColor" class="mmi mmi-thumbs-up" viewBox="0 0 24 24"><path d="M9.700 1.042 C 7.364 1.301,6.058 2.632,6.173 4.637 C 6.223 5.518,6.569 6.507,7.193 7.554 C 7.329 7.781,7.440 7.973,7.440 7.981 C 7.440 7.988,6.760 8.001,5.930 8.010 C 4.244 8.027,4.200 8.033,3.620 8.318 C 2.605 8.816,1.960 9.858,1.960 11.000 C 1.960 11.528,2.032 11.779,2.553 13.083 L 2.994 14.187 3.010 16.123 C 3.025 17.940,3.031 18.080,3.111 18.384 C 3.245 18.895,3.355 19.191,3.564 19.600 C 4.364 21.165,5.924 22.179,7.722 22.303 C 8.223 22.338,8.243 22.335,12.725 21.618 L 16.589 21.000 18.868 21.000 C 21.443 21.000,21.397 21.005,21.701 20.701 C 22.021 20.381,22.000 20.783,22.000 15.000 C 22.000 9.211,22.022 9.620,21.697 9.295 C 21.404 9.002,21.386 9.000,19.143 9.000 L 17.180 8.999 16.962 8.575 C 16.378 7.439,15.823 6.734,14.055 4.880 C 12.712 3.470,12.175 2.812,11.560 1.820 C 11.132 1.127,10.991 1.030,10.400 1.016 C 10.191 1.011,9.876 1.022,9.700 1.042 M10.277 3.510 C 10.891 4.408,11.445 5.057,12.778 6.440 C 14.247 7.965,14.810 8.698,15.287 9.708 L 15.480 10.116 15.480 14.638 C 15.480 17.125,15.468 19.160,15.454 19.160 C 15.440 19.160,13.852 19.415,11.924 19.726 C 8.980 20.201,8.350 20.292,7.980 20.293 C 7.446 20.295,7.167 20.228,6.640 19.970 C 6.319 19.813,6.204 19.728,5.898 19.422 C 5.507 19.030,5.294 18.681,5.116 18.140 C 5.026 17.866,5.023 17.814,5.002 15.800 L 4.980 13.740 4.482 12.500 C 3.964 11.207,3.905 10.989,3.997 10.708 C 4.071 10.486,4.259 10.256,4.468 10.133 L 4.660 10.020 7.220 10.000 C 9.749 9.980,9.782 9.979,9.940 9.894 C 10.293 9.703,10.488 9.385,10.488 9.000 C 10.488 8.697,10.408 8.527,10.086 8.145 C 8.693 6.490,7.982 4.948,8.198 4.047 C 8.315 3.560,8.766 3.232,9.523 3.084 C 9.941 3.001,9.921 2.990,10.277 3.510 M20.000 15.000 L 20.000 19.000 18.760 19.000 L 17.520 19.000 17.520 15.000 L 17.520 11.000 18.760 11.000 L 20.000 11.000 20.000 15.000 " fill="#000640" stroke="none" fill-rule="evenodd"></path></svg>