<svg xmlns="http://www.w3.org/2000/svg" width="24" height="24" fill="currentColor" class="mmi mmi-thumbs-down-filled" viewBox="0 0 24 24"><path d="M7.497 1.722 C 5.590 1.907,3.900 3.236,3.284 5.036 C 3.026 5.789,3.027 5.772,3.010 7.877 L 2.994 9.813 2.553 10.917 C 2.032 12.221,1.960 12.472,1.960 13.000 C 1.960 14.154,2.626 15.213,3.660 15.704 C 4.216 15.969,4.265 15.975,5.930 15.990 C 6.760 15.998,7.440 16.012,7.440 16.021 C 7.440 16.030,7.338 16.204,7.214 16.409 C 6.598 17.419,6.223 18.481,6.173 19.363 C 6.057 21.389,7.379 22.718,9.753 22.963 C 10.561 23.047,10.942 22.976,11.206 22.694 C 11.265 22.631,11.424 22.400,11.560 22.180 C 12.175 21.188,12.712 20.530,14.055 19.120 C 15.823 17.266,16.378 16.561,16.962 15.425 L 17.180 15.001 19.163 15.000 C 21.409 15.000,21.401 15.001,21.701 14.701 C 22.021 14.381,22.000 14.783,22.000 9.000 C 22.000 3.211,22.022 3.620,21.697 3.295 C 21.400 2.998,21.421 3.000,18.833 3.000 L 16.560 3.000 12.670 2.377 C 9.204 1.823,8.169 1.673,7.900 1.687 C 7.856 1.689,7.675 1.705,7.497 1.722 M20.000 9.000 L 20.000 13.000 18.760 13.000 L 17.520 13.000 17.520 9.000 L 17.520 5.000 18.760 5.000 L 20.000 5.000 20.000 9.000 " fill="#000640" stroke="none" fill-rule="evenodd"></path></svg>