<svg xmlns="http://www.w3.org/2000/svg" width="24" height="24" fill="currentColor" class="mmi mmi-thumbs-up-filled" viewBox="0 0 24 24"><path d="M9.700 1.042 C 7.364 1.301,6.058 2.632,6.173 4.637 C 6.223 5.518,6.569 6.507,7.193 7.554 C 7.329 7.781,7.440 7.973,7.440 7.981 C 7.440 7.988,6.760 8.001,5.930 8.010 C 4.244 8.027,4.200 8.033,3.620 8.318 C 2.605 8.816,1.960 9.858,1.960 11.000 C 1.960 11.528,2.032 11.779,2.553 13.083 L 2.994 14.187 3.010 16.123 C 3.025 17.940,3.031 18.080,3.111 18.384 C 3.245 18.895,3.355 19.191,3.564 19.600 C 4.364 21.165,5.924 22.179,7.722 22.303 C 8.223 22.338,8.243 22.335,12.725 21.618 L 16.589 21.000 18.868 21.000 C 21.443 21.000,21.397 21.005,21.701 20.701 C 22.021 20.381,22.000 20.783,22.000 15.000 C 22.000 9.211,22.022 9.620,21.697 9.295 C 21.404 9.002,21.386 9.000,19.143 9.000 L 17.180 8.999 16.962 8.575 C 16.378 7.439,15.823 6.734,14.055 4.880 C 12.712 3.470,12.175 2.812,11.560 1.820 C 11.132 1.127,10.991 1.030,10.400 1.016 C 10.191 1.011,9.876 1.022,9.700 1.042 M20.000 15.000 L 20.000 19.000 18.760 19.000 L 17.520 19.000 17.520 15.000 L 17.520 11.000 18.760 11.000 L 20.000 11.000 20.000 15.000 " fill="#000640" stroke="none" fill-rule="evenodd"></path></svg>