<svg xmlns="http://www.w3.org/2000/svg" width="24" height="24" fill="currentColor" class="mmi mmi-thunder-filled" viewBox="0 0 24 24"><path d="M7.664 1.063 C 7.456 1.139,7.267 1.287,7.164 1.454 C 7.053 1.633,4.000 11.809,4.000 11.999 C 4.000 12.242,4.119 12.521,4.299 12.701 C 4.597 13.000,4.601 13.000,6.751 13.000 L 8.649 13.000 8.626 13.090 C 8.613 13.139,8.017 15.131,7.301 17.517 C 6.586 19.902,6.000 21.919,6.000 22.000 C 6.000 22.728,6.782 23.209,7.444 22.887 C 7.573 22.825,9.393 21.027,14.245 16.171 C 20.354 10.057,20.875 9.525,20.935 9.343 C 21.063 8.953,20.979 8.577,20.701 8.299 C 20.406 8.004,20.378 8.000,18.436 8.000 L 16.725 8.000 18.307 5.233 C 19.177 3.711,19.914 2.394,19.944 2.308 C 20.066 1.962,19.970 1.568,19.697 1.295 C 19.382 0.980,19.809 1.000,13.463 1.003 C 8.670 1.005,7.796 1.014,7.664 1.063 " fill="#000640" stroke="none" fill-rule="evenodd"></path></svg>