<svg xmlns="http://www.w3.org/2000/svg" width="24" height="24" fill="currentColor" class="mmi mmi-thunder" viewBox="0 0 24 24"><path d="M7.664 1.063 C 7.456 1.139,7.267 1.287,7.164 1.454 C 7.053 1.633,4.000 11.809,4.000 11.999 C 4.000 12.242,4.119 12.521,4.299 12.701 C 4.597 13.000,4.601 13.000,6.751 13.000 L 8.649 13.000 8.626 13.090 C 8.613 13.139,8.017 15.131,7.301 17.517 C 6.586 19.902,6.000 21.919,6.000 22.000 C 6.000 22.728,6.782 23.209,7.444 22.887 C 7.573 22.825,9.393 21.027,14.245 16.171 C 20.354 10.057,20.875 9.525,20.935 9.343 C 21.063 8.953,20.979 8.577,20.701 8.299 C 20.406 8.004,20.378 8.000,18.436 8.000 L 16.725 8.000 18.307 5.233 C 19.177 3.711,19.914 2.394,19.944 2.308 C 20.066 1.962,19.970 1.568,19.697 1.295 C 19.382 0.980,19.809 1.000,13.463 1.003 C 8.670 1.005,7.796 1.014,7.664 1.063 M15.693 5.767 C 14.823 7.289,14.086 8.606,14.056 8.692 C 13.935 9.036,14.030 9.432,14.299 9.701 C 14.586 9.988,14.661 10.000,16.217 10.000 L 17.580 10.000 13.362 14.218 C 11.042 16.538,9.138 18.431,9.132 18.425 C 9.125 18.419,9.543 17.003,10.060 15.280 C 10.577 13.557,11.000 12.081,11.000 12.000 C 11.000 11.756,10.881 11.479,10.697 11.295 C 10.406 11.003,10.377 11.000,8.228 11.000 L 6.351 11.000 6.372 10.917 C 6.384 10.871,6.922 9.071,7.567 6.917 L 8.740 3.001 13.007 3.000 L 17.275 3.000 15.693 5.767 " fill="#000640" stroke="none" fill-rule="evenodd"></path></svg>