<svg xmlns="http://www.w3.org/2000/svg" width="24" height="24" fill="currentColor" class="mmi mmi-thunder-v2" viewBox="0 0 24 24"><path d="M13.678 1.062 C 13.578 1.093,13.431 1.177,13.351 1.249 C 13.121 1.458,3.190 13.404,3.104 13.574 C 2.869 14.046,3.075 14.653,3.550 14.886 L 3.740 14.980 7.144 15.000 L 10.547 15.020 9.284 18.380 C 8.066 21.618,8.020 21.750,8.020 22.020 C 8.020 22.255,8.038 22.331,8.133 22.492 C 8.404 22.954,8.962 23.121,9.448 22.886 C 9.587 22.819,10.762 21.559,15.201 16.719 C 18.357 13.278,20.822 10.558,20.876 10.457 C 21.081 10.075,21.011 9.608,20.702 9.300 C 20.388 8.986,20.580 9.000,16.710 9.000 C 13.457 9.000,13.276 8.996,13.296 8.930 C 13.425 8.501,15.000 2.086,15.000 1.987 C 15.000 1.588,14.694 1.175,14.316 1.063 C 14.063 0.987,13.920 0.987,13.678 1.062 M11.474 7.981 C 11.066 9.607,10.996 9.932,11.014 10.112 C 11.049 10.465,11.282 10.778,11.620 10.927 C 11.714 10.969,12.376 10.984,14.724 11.000 L 17.708 11.020 14.812 14.180 C 13.220 15.918,11.880 17.376,11.837 17.420 C 11.765 17.492,11.767 17.472,11.862 17.220 C 12.688 15.029,12.975 14.229,12.991 14.074 C 13.029 13.692,12.801 13.286,12.450 13.114 L 12.260 13.020 9.204 13.000 L 6.148 12.980 9.043 9.512 C 10.635 7.605,11.942 6.048,11.946 6.053 C 11.951 6.058,11.738 6.925,11.474 7.981 " fill="#000640" stroke="none" fill-rule="evenodd"></path></svg>