<svg xmlns="http://www.w3.org/2000/svg" width="24" height="24" fill="currentColor" class="mmi mmi-thundercloud" viewBox="0 0 24 24"><path d="M10.100 2.025 C 9.154 2.095,8.331 2.324,7.516 2.744 C 5.574 3.747,4.272 5.652,4.035 7.839 C 4.008 8.082,3.971 8.280,3.951 8.280 C 3.862 8.280,3.280 8.579,2.979 8.779 C 1.544 9.734,0.770 11.529,1.061 13.225 C 1.392 15.149,2.844 16.601,4.775 16.938 C 5.301 17.030,5.657 17.019,5.900 16.906 C 6.520 16.616,6.693 15.845,6.248 15.352 C 6.035 15.117,5.846 15.037,5.403 14.998 C 4.690 14.934,4.194 14.714,3.736 14.258 C 2.759 13.287,2.762 11.722,3.741 10.737 C 4.090 10.386,4.504 10.167,5.058 10.040 C 5.516 9.936,5.724 9.799,5.878 9.501 C 5.972 9.318,5.982 9.247,6.006 8.601 C 6.034 7.840,6.099 7.449,6.282 6.948 C 6.668 5.891,7.490 4.974,8.511 4.464 C 9.044 4.196,9.886 4.000,10.500 4.000 C 12.612 4.000,14.462 5.507,14.901 7.582 C 14.938 7.760,14.980 8.211,14.995 8.602 C 15.022 9.270,15.028 9.313,15.132 9.491 C 15.193 9.593,15.301 9.723,15.374 9.778 C 15.653 9.991,15.733 10.000,17.295 10.001 C 18.951 10.001,19.107 10.021,19.639 10.289 C 20.703 10.824,21.241 12.100,20.884 13.240 C 20.640 14.019,19.975 14.673,19.199 14.897 C 19.078 14.932,18.806 14.977,18.595 14.997 C 18.152 15.038,17.963 15.118,17.752 15.352 C 17.307 15.845,17.480 16.616,18.100 16.906 C 18.345 17.020,18.695 17.029,19.243 16.935 C 21.137 16.610,22.610 15.137,22.935 13.243 C 23.298 11.131,22.070 9.019,20.052 8.282 C 19.461 8.066,19.188 8.029,18.040 8.003 L 16.980 7.980 16.948 7.687 C 16.904 7.283,16.718 6.565,16.540 6.115 C 15.695 3.979,13.723 2.414,11.460 2.086 C 11.127 2.038,10.381 2.004,10.100 2.025 M11.667 11.065 C 11.292 11.180,11.239 11.264,10.088 13.582 C 9.255 15.258,9.031 15.743,9.013 15.905 C 8.980 16.196,9.086 16.488,9.302 16.704 C 9.578 16.980,9.698 17.000,11.065 17.000 L 12.236 17.000 11.160 18.794 C 10.411 20.041,10.070 20.646,10.040 20.780 C 9.952 21.171,10.133 21.595,10.486 21.829 C 10.621 21.918,10.708 21.942,10.947 21.954 C 11.202 21.967,11.270 21.955,11.457 21.863 C 11.575 21.805,11.716 21.700,11.769 21.629 C 11.822 21.558,12.553 20.354,13.393 18.954 C 14.504 17.101,14.932 16.352,14.966 16.205 C 15.064 15.780,14.851 15.323,14.461 15.122 L 14.262 15.020 12.951 15.008 C 12.230 15.001,11.640 14.988,11.640 14.979 C 11.640 14.970,11.939 14.363,12.304 13.631 C 12.776 12.683,12.974 12.246,12.988 12.115 C 13.040 11.655,12.743 11.189,12.316 11.063 C 12.061 10.987,11.920 10.987,11.667 11.065 " fill="#000640" stroke="none" fill-rule="evenodd"></path></svg>