<svg xmlns="http://www.w3.org/2000/svg" width="24" height="24" fill="currentColor" class="mmi mmi-ticket" viewBox="0 0 24 24"><path d="M2.620 4.025 C 2.576 4.034,2.442 4.061,2.322 4.085 C 1.475 4.257,0.620 4.961,0.255 5.788 C 0.032 6.292,0.001 6.552,0.001 7.900 C 0.000 8.632,0.017 9.201,0.042 9.289 C 0.103 9.509,0.315 9.762,0.531 9.873 C 0.668 9.944,0.827 9.981,1.103 10.006 C 1.927 10.082,2.468 10.419,2.779 11.052 C 3.262 12.033,2.912 13.273,2.018 13.747 C 1.717 13.906,1.508 13.962,1.072 13.998 C 0.823 14.019,0.669 14.056,0.532 14.126 C 0.315 14.238,0.103 14.491,0.042 14.711 C -0.028 14.961,-0.012 17.225,0.062 17.581 C 0.310 18.785,1.215 19.690,2.419 19.938 C 2.682 19.993,3.800 20.000,12.000 20.000 C 20.200 20.000,21.318 19.993,21.581 19.938 C 22.780 19.691,23.691 18.780,23.938 17.581 C 24.031 17.133,24.028 14.935,23.934 14.660 C 23.801 14.269,23.398 14.001,22.943 13.999 C 22.461 13.998,21.930 13.793,21.579 13.472 C 20.848 12.804,20.807 11.345,21.499 10.605 C 21.822 10.260,22.445 10.003,22.963 10.001 C 23.398 9.999,23.803 9.723,23.934 9.340 C 24.028 9.065,24.031 6.867,23.938 6.419 C 23.745 5.480,23.156 4.725,22.296 4.312 C 21.632 3.992,22.653 4.022,12.120 4.015 C 6.939 4.012,2.664 4.016,2.620 4.025 M8.000 12.000 L 8.000 18.000 5.427 18.000 C 2.523 18.000,2.606 18.008,2.299 17.701 C 2.047 17.449,2.000 17.264,2.000 16.516 L 2.000 15.887 2.270 15.799 C 3.607 15.363,4.528 14.382,4.886 13.012 C 4.964 12.713,4.978 12.560,4.978 12.000 C 4.978 11.440,4.964 11.287,4.886 10.988 C 4.645 10.065,4.177 9.351,3.460 8.811 C 3.175 8.597,2.646 8.326,2.270 8.202 L 2.000 8.113 2.000 7.484 C 2.000 6.735,2.046 6.551,2.300 6.298 C 2.601 5.997,2.502 6.007,5.410 6.003 L 8.000 6.000 8.000 12.000 M21.340 6.066 C 21.593 6.153,21.847 6.407,21.934 6.660 C 21.984 6.808,22.000 7.003,22.000 7.483 L 22.000 8.112 21.730 8.195 C 20.407 8.598,19.457 9.611,19.111 10.988 C 18.983 11.496,18.983 12.504,19.111 13.012 C 19.456 14.384,20.407 15.404,21.712 15.800 L 22.000 15.888 22.000 16.517 C 22.000 17.264,21.953 17.449,21.701 17.701 C 21.380 18.022,21.834 18.000,15.573 18.000 L 10.000 18.000 10.000 12.000 L 10.000 6.000 15.573 6.000 C 20.655 6.000,21.163 6.006,21.340 6.066 " fill="#000640" stroke="none" fill-rule="evenodd"></path></svg>