<svg xmlns="http://www.w3.org/2000/svg" width="24" height="24" fill="currentColor" class="mmi mmi-tie" viewBox="0 0 24 24"><path d="M2.664 1.063 C 2.436 1.146,2.257 1.297,2.131 1.511 C 2.022 1.697,2.020 1.711,2.007 2.473 C 1.992 3.335,2.037 3.669,2.233 4.149 C 2.521 4.857,3.142 5.479,3.849 5.766 C 4.357 5.973,4.600 6.000,5.969 6.000 L 7.221 6.000 7.603 7.531 L 7.985 9.062 7.554 13.781 C 7.317 16.376,7.123 18.655,7.122 18.844 C 7.117 19.758,7.613 20.715,8.375 21.258 C 8.706 21.494,10.915 22.583,11.240 22.670 C 11.597 22.766,12.403 22.766,12.760 22.670 C 13.085 22.583,15.294 21.494,15.625 21.258 C 16.379 20.720,16.883 19.758,16.878 18.864 C 16.878 18.686,16.683 16.407,16.446 13.800 L 16.015 9.060 16.397 7.530 L 16.779 6.000 18.031 6.000 C 19.002 6.000,19.350 5.986,19.581 5.938 C 20.780 5.691,21.691 4.780,21.938 3.581 C 22.027 3.151,22.024 1.926,21.934 1.660 C 21.688 0.938,20.678 0.782,20.212 1.393 C 20.028 1.634,20.000 1.780,20.000 2.503 C 20.000 3.265,19.954 3.448,19.701 3.701 C 19.377 4.025,20.023 4.000,12.000 4.000 C 3.977 4.000,4.623 4.025,4.299 3.701 C 4.045 3.447,4.000 3.266,4.000 2.500 C 4.000 1.734,3.955 1.553,3.701 1.299 C 3.429 1.027,3.018 0.933,2.664 1.063 M14.710 6.050 C 14.700 6.078,14.586 6.527,14.457 7.050 L 14.222 8.000 12.000 8.000 L 9.778 8.000 9.543 7.050 C 9.414 6.527,9.300 6.078,9.290 6.050 C 9.275 6.010,9.834 6.000,12.000 6.000 C 14.166 6.000,14.725 6.010,14.710 6.050 M14.093 10.130 C 14.105 10.201,14.290 12.216,14.504 14.606 L 14.894 18.952 14.821 19.142 C 14.680 19.511,14.556 19.602,13.382 20.190 C 12.394 20.684,12.277 20.733,12.040 20.750 L 11.780 20.769 10.659 20.209 C 9.440 19.601,9.321 19.515,9.177 19.138 L 9.103 18.944 9.495 14.622 C 9.711 12.245,9.897 10.232,9.909 10.150 L 9.930 10.000 12.001 10.000 L 14.071 10.000 14.093 10.130 " fill="#000640" stroke="none" fill-rule="evenodd"></path></svg>