<svg xmlns="http://www.w3.org/2000/svg" width="24" height="24" fill="currentColor" class="mmi mmi-timer-add" viewBox="0 0 24 24"><path d="M5.688 0.043 C 5.616 0.065,4.581 0.816,3.389 1.712 C 1.015 3.495,1.069 3.445,1.014 3.906 C 0.932 4.598,1.613 5.153,2.295 4.951 C 2.527 4.883,6.714 1.743,6.835 1.548 C 7.238 0.896,6.821 0.059,6.072 0.017 C 5.933 0.009,5.761 0.021,5.688 0.043 M17.665 0.056 C 17.108 0.264,16.851 0.928,17.121 1.461 C 17.214 1.645,17.386 1.784,19.361 3.269 C 20.739 4.305,21.563 4.900,21.677 4.939 C 22.357 5.174,23.069 4.611,22.986 3.906 C 22.932 3.448,22.973 3.487,20.719 1.789 C 19.587 0.936,18.583 0.191,18.488 0.134 C 18.276 0.006,17.897 -0.030,17.665 0.056 M11.069 2.039 C 8.821 2.258,6.861 3.044,5.101 4.433 C 4.738 4.719,3.719 5.738,3.433 6.101 C 2.175 7.696,1.423 9.428,1.115 11.440 C 0.987 12.274,0.987 13.726,1.115 14.560 C 1.423 16.572,2.175 18.304,3.433 19.899 C 3.719 20.262,4.738 21.281,5.101 21.567 C 6.696 22.825,8.428 23.577,10.440 23.885 C 11.274 24.013,12.726 24.013,13.560 23.885 C 15.572 23.577,17.304 22.825,18.899 21.567 C 19.262 21.281,20.281 20.262,20.567 19.899 C 21.825 18.304,22.577 16.572,22.885 14.560 C 22.959 14.080,22.974 13.811,22.974 13.000 C 22.974 12.189,22.959 11.920,22.885 11.440 C 22.577 9.428,21.825 7.696,20.567 6.101 C 20.281 5.738,19.262 4.719,18.899 4.433 C 17.308 3.178,15.548 2.412,13.580 2.120 C 12.946 2.026,11.638 1.984,11.069 2.039 M13.008 4.059 C 15.702 4.374,18.062 5.837,19.560 8.120 C 20.090 8.929,20.589 10.126,20.797 11.092 C 21.669 15.142,19.669 19.255,15.940 21.083 C 12.817 22.614,9.096 22.198,6.369 20.013 C 5.341 19.189,4.507 18.145,3.917 16.940 C 2.698 14.454,2.699 11.515,3.920 9.048 C 4.825 7.220,6.240 5.808,8.060 4.916 C 9.592 4.166,11.337 3.864,13.008 4.059 M11.643 8.069 C 11.407 8.152,11.149 8.416,11.066 8.660 C 11.009 8.828,11.000 9.068,11.000 10.427 L 11.000 12.000 9.427 12.000 C 7.638 12.000,7.591 12.006,7.299 12.299 C 6.908 12.690,6.908 13.310,7.299 13.701 C 7.591 13.994,7.638 14.000,9.427 14.000 L 11.000 14.000 11.000 15.573 C 11.000 17.362,11.006 17.409,11.299 17.701 C 11.690 18.092,12.310 18.092,12.701 17.701 C 12.994 17.409,13.000 17.362,13.000 15.573 L 13.000 14.000 14.573 14.000 C 16.362 14.000,16.409 13.994,16.701 13.701 C 17.092 13.310,17.092 12.690,16.701 12.299 C 16.409 12.006,16.362 12.000,14.573 12.000 L 13.000 12.000 13.000 10.427 C 13.000 8.638,12.994 8.591,12.701 8.299 C 12.424 8.021,12.024 7.934,11.643 8.069 " stroke="none" fill-rule="evenodd"></path></svg>