<svg xmlns="http://www.w3.org/2000/svg" width="24" height="24" fill="currentColor" class="mmi mmi-towingcrane" viewBox="0 0 24 24"><path d="M1.664 3.062 C 1.435 3.147,1.257 3.297,1.131 3.511 L 1.020 3.700 1.009 5.911 C 1.001 7.377,1.012 8.175,1.040 8.279 C 1.101 8.506,1.311 8.760,1.531 8.874 C 1.932 9.080,2.390 9.012,2.700 8.702 C 2.994 8.408,3.000 8.363,3.000 6.573 L 3.000 5.000 4.119 5.000 L 5.238 5.000 5.298 5.210 C 5.541 6.060,7.160 11.930,7.160 11.961 C 7.160 11.986,6.040 12.000,4.005 12.000 C 0.577 12.000,0.673 11.994,0.374 12.222 C 0.301 12.277,0.192 12.408,0.131 12.511 L 0.020 12.700 0.009 15.412 C 0.002 17.221,0.012 18.176,0.040 18.280 C 0.102 18.509,0.312 18.761,0.539 18.878 C 0.737 18.980,0.739 18.980,1.947 18.992 L 3.156 19.003 3.299 19.300 C 3.668 20.068,4.402 20.675,5.240 20.906 C 5.599 21.004,6.401 21.004,6.760 20.906 C 7.599 20.675,8.332 20.068,8.702 19.298 L 8.846 19.000 12.000 19.000 L 15.154 19.000 15.298 19.298 C 15.579 19.884,16.115 20.421,16.692 20.697 C 17.154 20.918,17.432 20.977,18.000 20.977 C 18.568 20.977,18.846 20.918,19.308 20.697 C 19.885 20.421,20.421 19.884,20.702 19.298 L 20.846 19.000 21.996 19.000 C 23.316 19.000,23.420 18.982,23.701 18.701 C 24.018 18.384,24.000 18.663,24.000 13.999 C 24.000 11.021,23.987 9.814,23.955 9.716 C 23.874 9.472,20.921 4.340,20.716 4.086 C 20.364 3.652,19.772 3.270,19.180 3.095 C 18.964 3.032,18.685 3.023,16.420 3.010 C 14.546 2.999,13.856 3.008,13.728 3.044 C 13.486 3.111,13.264 3.284,13.133 3.508 L 13.020 3.700 13.000 7.024 L 12.980 10.348 9.804 6.775 C 7.178 3.820,6.597 3.186,6.444 3.111 C 6.260 3.020,6.259 3.020,4.040 3.012 C 2.186 3.006,1.794 3.014,1.664 3.062 M18.689 5.042 C 19.067 5.147,19.076 5.160,20.589 7.801 L 21.998 10.260 21.999 13.630 L 22.000 17.000 21.419 17.000 L 20.839 17.000 20.742 16.780 C 20.376 15.953,19.588 15.301,18.680 15.076 C 18.558 15.045,18.255 15.021,18.000 15.021 C 17.745 15.021,17.442 15.045,17.320 15.076 C 16.412 15.301,15.624 15.953,15.258 16.780 C 15.187 16.942,15.140 17.000,15.081 17.000 C 15.000 17.000,15.000 16.986,15.000 11.000 L 15.000 5.000 16.770 5.000 C 17.866 5.000,18.597 5.016,18.689 5.042 M9.961 9.960 C 10.847 10.961,11.618 11.830,11.674 11.890 L 11.775 12.000 10.517 12.000 L 9.260 12.000 8.763 10.210 C 8.490 9.226,8.234 8.303,8.194 8.161 L 8.121 7.902 8.235 8.021 C 8.298 8.086,9.074 8.959,9.961 9.960 M13.000 15.500 L 13.000 17.000 10.919 17.000 L 8.839 17.000 8.742 16.780 C 8.376 15.953,7.588 15.301,6.680 15.076 C 6.558 15.045,6.255 15.021,6.000 15.021 C 5.745 15.021,5.442 15.045,5.320 15.076 C 4.412 15.301,3.624 15.953,3.258 16.780 L 3.161 17.000 2.581 17.000 L 2.000 17.000 2.000 15.500 L 2.000 14.000 7.500 14.000 L 13.000 14.000 13.000 15.500 M6.340 17.066 C 6.709 17.192,7.000 17.604,7.000 18.000 C 7.000 18.527,6.527 19.000,6.000 19.000 C 5.758 19.000,5.479 18.881,5.299 18.701 C 4.907 18.309,4.908 17.690,5.300 17.298 C 5.577 17.020,5.957 16.936,6.340 17.066 M18.340 17.066 C 18.709 17.192,19.000 17.604,19.000 18.000 C 19.000 18.527,18.527 19.000,18.000 19.000 C 17.758 19.000,17.479 18.881,17.299 18.701 C 16.907 18.309,16.908 17.690,17.300 17.298 C 17.577 17.020,17.957 16.936,18.340 17.066 " fill="#000640" stroke="none" fill-rule="evenodd"></path></svg>