<svg xmlns="http://www.w3.org/2000/svg" width="24" height="24" fill="currentColor" class="mmi mmi-tractor" viewBox="0 0 24 24"><path d="M5.503 2.042 C 4.574 2.198,3.727 2.840,3.312 3.704 C 2.999 4.354,3.024 3.877,3.010 9.500 L 2.998 14.540 2.766 14.690 C 1.956 15.213,1.325 16.138,1.094 17.140 C 0.984 17.619,0.994 18.463,1.116 18.940 C 1.295 19.642,1.679 20.323,2.178 20.822 C 2.676 21.319,3.352 21.702,4.060 21.886 L 4.420 21.980 10.000 21.980 L 15.580 21.980 15.940 21.886 C 16.648 21.702,17.328 21.318,17.823 20.823 C 18.321 20.325,18.717 19.623,18.886 18.938 C 19.005 18.459,19.014 17.610,18.906 17.140 C 18.832 16.820,18.634 16.290,18.533 16.141 C 18.504 16.098,18.480 16.048,18.480 16.031 C 18.480 16.014,18.821 16.000,19.238 16.000 L 19.997 16.000 20.008 17.637 L 20.020 19.274 20.587 20.412 C 20.898 21.038,21.210 21.614,21.278 21.692 C 21.573 22.028,22.080 22.114,22.480 21.896 C 22.827 21.707,23.000 21.410,23.000 21.004 C 23.000 20.779,22.972 20.709,22.500 19.762 L 22.000 18.758 22.000 14.806 C 22.000 10.360,22.017 10.615,21.701 10.299 C 21.310 9.908,20.690 9.908,20.299 10.299 C 20.006 10.591,20.000 10.638,20.000 12.427 L 20.000 14.000 19.000 14.000 L 18.000 14.000 18.000 12.884 C 18.000 11.666,17.963 11.339,17.775 10.876 C 17.492 10.178,16.905 9.572,16.210 9.259 L 16.000 9.164 16.000 7.772 C 16.000 6.462,16.005 6.372,16.078 6.252 C 16.175 6.093,16.320 6.018,16.587 5.988 C 16.851 5.958,17.072 5.845,17.239 5.655 C 17.419 5.450,17.480 5.285,17.480 5.000 C 17.480 4.715,17.419 4.550,17.239 4.345 C 16.967 4.035,16.557 3.939,16.000 4.055 C 15.272 4.207,14.614 4.708,14.288 5.360 C 14.023 5.891,14.001 6.057,14.001 7.631 L 14.000 9.002 13.432 8.991 L 12.863 8.980 12.535 6.680 C 12.328 5.233,12.172 4.270,12.114 4.084 C 11.859 3.264,11.186 2.547,10.354 2.211 C 9.880 2.020,9.649 2.003,7.600 2.006 C 6.555 2.008,5.611 2.024,5.503 2.042 M9.569 4.048 C 9.781 4.111,10.095 4.399,10.177 4.605 C 10.227 4.728,10.840 8.767,10.840 8.968 C 10.840 8.986,9.525 9.000,7.919 9.000 L 4.997 9.000 5.009 6.850 L 5.020 4.700 5.131 4.511 C 5.256 4.298,5.449 4.136,5.670 4.057 C 5.874 3.984,9.330 3.976,9.569 4.048 M15.340 11.066 C 15.593 11.153,15.847 11.407,15.934 11.660 C 15.989 11.822,16.000 12.033,16.000 12.927 L 16.000 14.000 10.500 14.000 L 5.000 14.000 5.000 12.500 L 5.000 11.000 10.073 11.000 C 14.690 11.000,15.163 11.006,15.340 11.066 M15.408 16.044 C 16.310 16.232,17.000 17.080,17.000 18.000 C 17.000 18.920,16.310 19.768,15.408 19.956 C 15.110 20.018,4.890 20.018,4.592 19.956 C 3.690 19.768,3.000 18.920,3.000 18.000 C 3.000 17.102,3.657 16.269,4.534 16.057 C 4.813 15.989,15.086 15.977,15.408 16.044 M5.664 17.063 C 5.436 17.146,5.257 17.297,5.131 17.511 C 5.036 17.672,5.020 17.744,5.020 18.000 C 5.020 18.256,5.036 18.328,5.131 18.489 C 5.470 19.065,6.234 19.168,6.701 18.701 C 7.092 18.310,7.092 17.690,6.701 17.299 C 6.429 17.027,6.018 16.933,5.664 17.063 M9.664 17.063 C 9.436 17.146,9.257 17.297,9.131 17.511 C 9.036 17.672,9.020 17.744,9.020 18.000 C 9.020 18.256,9.036 18.328,9.131 18.489 C 9.470 19.065,10.234 19.168,10.701 18.701 C 10.881 18.521,11.000 18.242,11.000 18.000 C 11.000 17.326,10.295 16.832,9.664 17.063 M13.664 17.063 C 13.436 17.146,13.257 17.297,13.131 17.511 C 13.036 17.672,13.020 17.744,13.020 18.000 C 13.020 18.256,13.036 18.328,13.131 18.489 C 13.470 19.065,14.234 19.168,14.701 18.701 C 14.881 18.521,15.000 18.242,15.000 18.000 C 15.000 17.326,14.295 16.832,13.664 17.063 " fill="#000640" stroke="none" fill-rule="evenodd"></path></svg>