<svg xmlns="http://www.w3.org/2000/svg" width="24" height="24" fill="currentColor" class="mmi mmi-train" viewBox="0 0 24 24"><path d="M4.503 1.042 C 3.818 1.158,3.117 1.573,2.670 2.127 C 2.445 2.407,2.159 2.980,2.074 3.320 C 1.994 3.647,1.994 17.353,2.074 17.680 C 2.159 18.020,2.445 18.593,2.670 18.873 C 3.205 19.536,4.033 19.949,4.950 20.009 L 5.121 20.020 4.617 20.775 C 4.340 21.190,4.088 21.601,4.057 21.690 C 3.880 22.191,4.179 22.788,4.684 22.937 C 4.872 22.993,5.667 23.000,12.000 23.000 C 18.333 23.000,19.128 22.993,19.316 22.937 C 19.821 22.788,20.120 22.191,19.943 21.690 C 19.912 21.601,19.660 21.190,19.383 20.775 L 18.879 20.020 19.050 20.009 C 19.464 19.982,19.912 19.869,20.260 19.704 C 20.920 19.391,21.391 18.920,21.704 18.260 C 22.018 17.597,22.000 18.065,22.000 10.500 C 22.000 2.935,22.018 3.403,21.704 2.740 C 21.398 2.095,20.924 1.614,20.296 1.312 C 19.636 0.994,20.412 1.023,12.120 1.015 C 8.039 1.012,4.611 1.024,4.503 1.042 M11.000 7.000 L 11.000 11.000 7.499 11.000 L 3.998 11.000 4.009 7.350 L 4.020 3.700 4.131 3.511 C 4.256 3.298,4.449 3.136,4.670 3.057 C 4.790 3.014,5.433 3.003,7.910 3.002 L 11.000 3.000 11.000 7.000 M19.340 3.066 C 19.455 3.105,19.603 3.201,19.701 3.299 C 20.015 3.613,20.000 3.405,20.000 7.427 L 20.000 11.000 16.500 11.000 L 13.000 11.000 13.000 7.000 L 13.000 3.000 16.073 3.000 C 18.828 3.000,19.166 3.007,19.340 3.066 M20.000 15.073 C 20.000 17.419,20.002 17.400,19.701 17.701 C 19.377 18.025,20.023 18.000,11.998 18.000 C 4.201 18.000,4.683 18.014,4.374 17.778 C 4.301 17.723,4.192 17.592,4.131 17.489 L 4.020 17.300 4.009 15.150 L 3.997 13.000 11.999 13.000 L 20.000 13.000 20.000 15.073 M6.150 14.041 C 5.722 14.149,5.343 14.465,5.144 14.880 C 5.034 15.111,5.020 15.180,5.020 15.500 C 5.020 15.811,5.035 15.894,5.133 16.104 C 5.276 16.413,5.585 16.721,5.900 16.868 C 6.107 16.965,6.190 16.980,6.500 16.980 C 6.811 16.980,6.894 16.965,7.104 16.867 C 7.413 16.724,7.721 16.415,7.868 16.100 C 7.965 15.893,7.980 15.810,7.980 15.500 C 7.980 15.189,7.965 15.106,7.867 14.896 C 7.725 14.589,7.414 14.278,7.110 14.139 C 6.852 14.022,6.407 13.976,6.150 14.041 M17.150 14.041 C 16.722 14.149,16.343 14.465,16.144 14.880 C 16.034 15.111,16.020 15.180,16.020 15.500 C 16.020 15.811,16.035 15.894,16.133 16.104 C 16.276 16.413,16.585 16.721,16.900 16.868 C 17.107 16.965,17.190 16.980,17.500 16.980 C 17.811 16.980,17.894 16.965,18.104 16.867 C 18.413 16.724,18.721 16.415,18.868 16.100 C 18.965 15.893,18.980 15.810,18.980 15.500 C 18.980 15.189,18.965 15.106,18.867 14.896 C 18.725 14.589,18.414 14.278,18.110 14.139 C 17.852 14.022,17.407 13.976,17.150 14.041 M16.794 20.490 L 17.119 20.980 14.560 20.990 C 13.152 20.996,10.848 20.996,9.440 20.990 L 6.881 20.980 7.206 20.490 L 7.532 20.000 12.000 20.000 L 16.468 20.000 16.794 20.490 " fill="#000640" stroke="none" fill-rule="evenodd"></path></svg>