<svg xmlns="http://www.w3.org/2000/svg" width="24" height="24" fill="currentColor" class="mmi mmi-transaction" viewBox="0 0 24 24"><path d="M3.503 1.042 C 2.488 1.214,1.556 1.976,1.202 2.925 C 0.992 3.487,1.001 3.068,1.001 11.992 C 1.000 21.076,0.986 20.543,1.234 21.151 C 1.521 21.857,2.143 22.479,2.849 22.766 C 3.457 23.014,2.925 23.000,12.000 23.000 C 21.073 23.000,20.544 23.013,21.150 22.767 C 21.850 22.482,22.482 21.850,22.767 21.150 C 23.013 20.544,23.000 21.073,23.000 12.000 C 23.000 2.925,23.014 3.457,22.766 2.849 C 22.499 2.193,21.964 1.633,21.296 1.312 C 20.634 0.993,21.532 1.022,12.120 1.015 C 7.489 1.012,3.611 1.024,3.503 1.042 M20.340 3.066 C 20.593 3.153,20.847 3.407,20.934 3.660 C 20.995 3.838,21.000 4.523,21.000 12.000 C 21.000 21.144,21.026 20.376,20.701 20.701 C 20.376 21.026,21.144 21.000,12.000 21.000 C 2.856 21.000,3.624 21.026,3.299 20.701 C 2.974 20.376,3.000 21.144,3.000 12.000 C 3.000 2.855,2.973 3.624,3.300 3.298 C 3.617 2.981,2.858 3.007,11.983 3.003 C 19.481 3.000,20.162 3.005,20.340 3.066 M9.676 7.059 C 9.445 7.144,6.300 9.260,6.204 9.394 C 6.157 9.461,6.092 9.590,6.059 9.682 C 5.790 10.444,6.552 11.211,7.310 10.943 C 7.399 10.912,7.810 10.660,8.225 10.383 L 8.980 9.880 9.000 13.070 L 9.020 16.260 9.114 16.450 C 9.410 17.051,10.222 17.180,10.701 16.701 C 11.018 16.384,11.000 16.661,11.000 12.020 C 11.000 7.362,11.016 7.614,10.701 7.299 C 10.435 7.032,10.014 6.934,9.676 7.059 M13.643 7.069 C 13.546 7.103,13.392 7.206,13.300 7.298 C 12.982 7.616,13.000 7.336,13.000 12.000 C 13.000 16.669,12.982 16.384,13.303 16.705 C 13.419 16.821,13.539 16.894,13.684 16.937 C 13.949 17.016,14.051 17.016,14.323 16.936 C 14.530 16.876,14.613 16.800,16.147 15.271 C 17.259 14.162,17.787 13.608,17.862 13.470 C 17.988 13.237,18.009 12.874,17.910 12.637 C 17.693 12.118,17.052 11.873,16.558 12.119 C 16.449 12.173,16.114 12.471,15.690 12.893 L 15.000 13.579 15.000 10.717 C 15.000 7.489,15.010 7.608,14.701 7.299 C 14.424 7.021,14.024 6.934,13.643 7.069 " fill="#000640" stroke="none" fill-rule="evenodd"></path></svg>