<svg xmlns="http://www.w3.org/2000/svg" width="24" height="24" fill="currentColor" class="mmi mmi-transitroute" viewBox="0 0 24 24"><path d="M3.419 9.058 C 2.679 9.193,1.929 9.696,1.496 10.349 C 0.838 11.339,0.846 12.689,1.514 13.670 C 2.588 15.247,4.814 15.449,6.142 14.089 C 6.402 13.823,6.605 13.528,6.742 13.220 L 6.839 13.000 7.997 13.000 L 9.154 13.000 9.298 13.298 C 9.668 14.068,10.401 14.675,11.240 14.906 C 11.599 15.004,12.401 15.004,12.760 14.906 C 13.599 14.675,14.332 14.068,14.702 13.298 L 14.846 13.000 16.003 13.000 L 17.161 13.000 17.258 13.220 C 17.755 14.343,18.934 15.062,20.159 14.988 C 21.480 14.908,22.524 14.061,22.903 12.760 C 23.009 12.396,23.009 11.604,22.903 11.240 C 22.741 10.684,22.500 10.270,22.115 9.885 C 21.751 9.522,21.272 9.243,20.760 9.098 C 20.437 9.006,19.646 8.993,19.320 9.075 C 18.410 9.303,17.624 9.953,17.258 10.780 L 17.161 11.000 16.000 11.000 L 14.839 11.000 14.742 10.780 C 14.376 9.953,13.588 9.301,12.680 9.076 C 12.396 9.005,11.604 9.005,11.320 9.076 C 10.412 9.301,9.624 9.953,9.258 10.780 L 9.161 11.000 8.000 11.000 L 6.839 11.000 6.742 10.780 C 6.182 9.515,4.813 8.805,3.419 9.058 M4.340 11.066 C 4.709 11.192,5.000 11.604,5.000 12.000 C 5.000 12.527,4.527 13.000,4.000 13.000 C 3.758 13.000,3.479 12.881,3.299 12.701 C 2.907 12.309,2.908 11.690,3.300 11.298 C 3.577 11.020,3.957 10.936,4.340 11.066 M12.340 11.066 C 12.709 11.192,13.000 11.604,13.000 12.000 C 13.000 12.527,12.527 13.000,12.000 13.000 C 11.758 13.000,11.479 12.881,11.299 12.701 C 10.907 12.309,10.908 11.690,11.300 11.298 C 11.577 11.020,11.957 10.936,12.340 11.066 M20.340 11.066 C 20.709 11.192,21.000 11.604,21.000 12.000 C 21.000 12.527,20.527 13.000,20.000 13.000 C 19.758 13.000,19.479 12.881,19.299 12.701 C 18.907 12.309,18.908 11.690,19.300 11.298 C 19.577 11.020,19.957 10.936,20.340 11.066 " fill="#000640" stroke="none" fill-rule="evenodd"></path></svg>