<svg xmlns="http://www.w3.org/2000/svg" width="24" height="24" fill="currentColor" class="mmi mmi-transit" viewBox="0 0 24 24"><path d="M11.467 8.044 C 10.847 8.134,10.230 8.374,9.715 8.723 C 9.368 8.959,8.939 9.396,8.684 9.775 C 8.454 10.115,8.355 10.316,8.218 10.720 L 8.130 10.980 7.485 10.991 L 6.840 11.002 6.742 10.781 C 6.376 9.953,5.600 9.312,4.677 9.076 C 4.361 8.995,3.563 9.005,3.260 9.093 C 2.095 9.435,1.272 10.305,1.058 11.425 C 0.748 13.044,1.794 14.606,3.408 14.937 C 4.767 15.215,6.182 14.487,6.742 13.219 L 6.840 12.998 7.485 13.009 L 8.130 13.020 8.218 13.280 C 8.423 13.884,8.724 14.368,9.178 14.822 C 9.523 15.166,9.855 15.396,10.335 15.621 C 10.914 15.893,11.311 15.978,12.000 15.978 C 12.689 15.978,13.086 15.893,13.665 15.621 C 14.380 15.285,14.930 14.814,15.340 14.185 C 15.577 13.822,15.641 13.691,15.781 13.280 L 15.870 13.020 16.515 13.009 L 17.160 12.998 17.258 13.219 C 17.395 13.528,17.598 13.822,17.858 14.089 C 19.192 15.455,21.410 15.250,22.493 13.661 C 23.161 12.679,23.161 11.321,22.493 10.339 C 22.086 9.742,21.468 9.299,20.760 9.098 C 20.435 9.006,19.644 8.993,19.323 9.076 C 18.397 9.313,17.625 9.950,17.258 10.781 L 17.160 11.002 16.515 10.991 L 15.870 10.980 15.781 10.720 C 15.641 10.309,15.577 10.178,15.340 9.815 C 15.082 9.418,14.648 8.970,14.285 8.723 C 13.452 8.158,12.408 7.906,11.467 8.044 M12.383 10.043 C 13.185 10.190,13.839 10.872,13.967 11.695 C 14.153 12.894,13.209 14.000,12.000 14.000 C 11.032 14.000,10.183 13.268,10.033 12.305 C 9.933 11.663,10.132 11.061,10.596 10.596 C 11.085 10.108,11.698 9.918,12.383 10.043 M4.340 11.066 C 4.709 11.192,5.000 11.604,5.000 12.000 C 5.000 12.527,4.527 13.000,4.000 13.000 C 3.758 13.000,3.479 12.881,3.299 12.701 C 2.907 12.309,2.908 11.690,3.300 11.298 C 3.577 11.020,3.957 10.936,4.340 11.066 M20.340 11.066 C 20.709 11.192,21.000 11.604,21.000 12.000 C 21.000 12.527,20.527 13.000,20.000 13.000 C 19.758 13.000,19.479 12.881,19.299 12.701 C 18.907 12.309,18.908 11.690,19.300 11.298 C 19.577 11.020,19.957 10.936,20.340 11.066 " fill="#000640" stroke="none" fill-rule="evenodd"></path></svg>