<svg xmlns="http://www.w3.org/2000/svg" width="24" height="24" fill="currentColor" class="mmi mmi-trashcan-v4" viewBox="0 0 24 24"><path d="M9.664 1.063 C 9.436 1.146,9.257 1.297,9.131 1.511 L 9.020 1.700 9.008 2.850 L 8.995 4.000 6.423 4.000 C 3.631 4.000,3.668 3.997,3.374 4.222 C 3.301 4.277,3.192 4.408,3.131 4.511 C 3.036 4.672,3.020 4.744,3.020 5.000 C 3.020 5.256,3.036 5.328,3.131 5.489 C 3.192 5.592,3.301 5.723,3.374 5.778 C 3.684 6.015,3.106 6.000,11.998 6.000 C 21.144 6.000,20.376 6.026,20.701 5.701 C 21.092 5.310,21.092 4.690,20.701 4.299 C 20.394 3.992,20.477 4.000,17.573 4.000 L 15.000 4.000 15.000 2.927 C 15.000 1.692,14.979 1.577,14.701 1.299 C 14.398 0.996,14.430 1.000,11.983 1.003 C 10.210 1.005,9.792 1.016,9.664 1.063 M13.000 3.500 L 13.000 4.000 12.000 4.000 L 11.000 4.000 11.000 3.500 L 11.000 3.000 12.000 3.000 L 13.000 3.000 13.000 3.500 M4.664 7.063 C 4.436 7.146,4.257 7.297,4.131 7.511 L 4.020 7.700 4.009 13.980 C 3.997 20.866,3.987 20.545,4.233 21.149 C 4.521 21.857,5.142 22.479,5.849 22.766 C 6.444 23.008,6.221 23.000,12.000 23.000 C 17.777 23.000,17.556 23.008,18.150 22.767 C 18.850 22.482,19.482 21.850,19.767 21.150 C 20.010 20.551,20.000 20.869,20.000 14.069 C 20.000 7.089,20.024 7.621,19.701 7.299 C 19.377 6.975,20.026 7.000,11.983 7.003 C 5.871 7.005,4.797 7.014,4.664 7.063 M18.000 14.573 C 18.000 20.834,18.022 20.380,17.701 20.701 C 17.381 21.021,17.783 21.000,12.000 21.000 C 6.217 21.000,6.619 21.021,6.299 20.701 C 5.978 20.380,6.000 20.834,6.000 14.573 L 6.000 9.000 12.000 9.000 L 18.000 9.000 18.000 14.573 " fill="#000640" stroke="none" fill-rule="evenodd"></path></svg>