<svg xmlns="http://www.w3.org/2000/svg" width="24" height="24" fill="currentColor" class="mmi mmi-trashcan-v3" viewBox="0 0 24 24"><path d="M9.664 1.063 C 9.436 1.146,9.257 1.297,9.131 1.511 L 9.020 1.700 9.008 2.850 L 8.995 4.000 6.423 4.000 C 3.631 4.000,3.668 3.997,3.374 4.222 C 3.301 4.277,3.192 4.408,3.131 4.511 C 3.036 4.672,3.020 4.744,3.020 5.000 C 3.020 5.256,3.036 5.328,3.131 5.489 C 3.192 5.592,3.301 5.723,3.374 5.778 C 3.684 6.015,3.106 6.000,11.998 6.000 C 21.144 6.000,20.376 6.026,20.701 5.701 C 21.092 5.310,21.092 4.690,20.701 4.299 C 20.394 3.992,20.477 4.000,17.573 4.000 L 15.000 4.000 15.000 2.927 C 15.000 1.692,14.979 1.577,14.701 1.299 C 14.398 0.996,14.430 1.000,11.983 1.003 C 10.210 1.005,9.792 1.016,9.664 1.063 M13.000 3.500 L 13.000 4.000 12.000 4.000 L 11.000 4.000 11.000 3.500 L 11.000 3.000 12.000 3.000 L 13.000 3.000 13.000 3.500 M3.667 7.065 C 3.310 7.175,3.000 7.599,3.000 7.979 C 3.000 8.047,3.404 10.928,3.898 14.382 C 4.508 18.645,4.824 20.743,4.882 20.920 C 5.197 21.870,5.930 22.577,6.920 22.886 L 7.220 22.980 12.020 22.980 L 16.820 22.980 17.140 22.870 C 18.113 22.536,18.810 21.849,19.118 20.920 C 19.176 20.743,19.492 18.645,20.102 14.382 C 20.596 10.928,21.000 8.047,21.000 7.979 C 21.000 7.755,20.875 7.473,20.697 7.295 C 20.378 6.975,21.099 7.000,11.983 7.003 C 4.921 7.005,3.835 7.013,3.667 7.065 M18.840 9.011 C 18.840 9.193,17.221 20.273,17.178 20.389 C 17.099 20.598,16.786 20.887,16.569 20.952 C 16.341 21.021,7.659 21.021,7.431 20.952 C 7.214 20.887,6.901 20.598,6.822 20.389 C 6.779 20.273,5.160 9.193,5.160 9.011 C 5.160 9.005,8.238 9.000,12.000 9.000 C 15.762 9.000,18.840 9.005,18.840 9.011 " fill="#000640" stroke="none" fill-rule="evenodd"></path></svg>