<svg xmlns="http://www.w3.org/2000/svg" width="24" height="24" fill="currentColor" class="mmi mmi-trashcan" viewBox="0 0 24 24"><path d="M9.664 1.063 C 9.436 1.146,9.257 1.297,9.131 1.511 L 9.020 1.700 9.008 2.850 L 8.995 4.000 6.423 4.000 C 3.631 4.000,3.668 3.997,3.374 4.222 C 3.301 4.277,3.192 4.408,3.131 4.511 C 3.036 4.672,3.020 4.744,3.020 5.000 C 3.020 5.256,3.036 5.328,3.131 5.489 C 3.192 5.592,3.301 5.723,3.374 5.778 C 3.684 6.015,3.106 6.000,11.998 6.000 C 21.144 6.000,20.376 6.026,20.701 5.701 C 21.092 5.310,21.092 4.690,20.701 4.299 C 20.394 3.992,20.477 4.000,17.573 4.000 L 15.000 4.000 15.000 2.927 C 15.000 1.692,14.979 1.577,14.701 1.299 C 14.398 0.996,14.430 1.000,11.983 1.003 C 10.210 1.005,9.792 1.016,9.664 1.063 M13.000 3.500 L 13.000 4.000 12.000 4.000 L 11.000 4.000 11.000 3.500 L 11.000 3.000 12.000 3.000 L 13.000 3.000 13.000 3.500 M3.667 7.065 C 3.394 7.149,3.148 7.405,3.054 7.701 L 2.982 7.932 3.892 14.302 C 4.599 19.248,4.824 20.738,4.902 20.965 C 5.049 21.398,5.294 21.782,5.638 22.120 C 6.100 22.573,6.597 22.836,7.198 22.943 C 7.641 23.022,16.359 23.022,16.802 22.943 C 17.403 22.836,17.900 22.573,18.362 22.120 C 18.706 21.782,18.951 21.398,19.098 20.965 C 19.176 20.738,19.401 19.248,20.108 14.302 L 21.018 7.932 20.946 7.701 C 20.895 7.540,20.821 7.419,20.700 7.298 C 20.377 6.975,21.106 7.000,11.983 7.003 C 4.921 7.005,3.835 7.013,3.667 7.065 M18.840 9.031 C 18.840 9.048,18.481 11.574,18.042 14.644 C 17.566 17.975,17.218 20.295,17.178 20.394 C 17.095 20.601,16.781 20.889,16.569 20.952 C 16.341 21.021,7.659 21.021,7.431 20.952 C 7.219 20.889,6.905 20.601,6.822 20.394 C 6.782 20.295,6.434 17.975,5.958 14.644 C 5.519 11.574,5.160 9.048,5.160 9.031 C 5.160 9.014,8.238 9.000,12.000 9.000 C 15.762 9.000,18.840 9.014,18.840 9.031 M9.643 11.069 C 9.546 11.103,9.392 11.206,9.300 11.298 C 8.987 11.611,9.000 11.455,9.000 15.000 C 9.000 18.544,8.987 18.390,9.299 18.701 C 9.479 18.881,9.758 19.000,10.000 19.000 C 10.242 19.000,10.521 18.881,10.701 18.701 C 11.013 18.390,11.000 18.544,11.000 15.000 C 11.000 11.456,11.013 11.610,10.701 11.299 C 10.424 11.021,10.024 10.934,9.643 11.069 M13.643 11.069 C 13.546 11.103,13.392 11.206,13.300 11.298 C 12.987 11.611,13.000 11.455,13.000 15.000 C 13.000 18.544,12.987 18.390,13.299 18.701 C 13.479 18.881,13.758 19.000,14.000 19.000 C 14.242 19.000,14.521 18.881,14.701 18.701 C 15.013 18.390,15.000 18.544,15.000 15.000 C 15.000 11.456,15.013 11.610,14.701 11.299 C 14.424 11.021,14.024 10.934,13.643 11.069 " fill="#000640" stroke="none" fill-rule="evenodd"></path></svg>