<svg xmlns="http://www.w3.org/2000/svg" width="24" height="24" fill="currentColor" class="mmi mmi-tree-v2" viewBox="0 0 24 24"><path d="M11.320 1.025 C 10.110 1.136,9.095 1.414,8.060 1.918 C 5.878 2.981,4.238 4.840,3.479 7.112 C 3.104 8.235,2.975 9.116,3.012 10.299 C 3.024 10.695,3.063 11.191,3.099 11.400 C 3.526 13.933,4.917 16.093,7.028 17.504 C 8.045 18.183,9.442 18.722,10.632 18.894 L 10.980 18.944 10.991 19.972 L 11.001 21.000 9.426 21.000 C 7.721 21.000,7.656 21.007,7.374 21.222 C 7.301 21.277,7.192 21.408,7.131 21.511 C 7.036 21.672,7.020 21.744,7.020 22.000 C 7.020 22.256,7.036 22.328,7.131 22.489 C 7.192 22.592,7.301 22.723,7.374 22.778 C 7.677 23.009,7.484 23.000,11.998 23.000 C 16.663 23.000,16.384 23.018,16.701 22.701 C 17.092 22.310,17.092 21.690,16.701 21.299 C 16.409 21.006,16.362 21.000,14.572 21.000 L 12.999 21.000 13.009 19.972 L 13.020 18.944 13.373 18.893 C 15.160 18.636,16.908 17.758,18.254 16.443 C 19.723 15.008,20.585 13.316,20.905 11.240 C 21.002 10.612,21.003 9.392,20.906 8.760 C 20.464 5.865,18.825 3.507,16.270 2.089 C 15.439 1.628,14.330 1.257,13.318 1.102 C 12.910 1.039,11.679 0.992,11.320 1.025 M12.686 3.042 C 14.777 3.253,16.625 4.363,17.805 6.116 C 19.376 8.450,19.376 11.547,17.805 13.884 C 16.803 15.375,15.372 16.376,13.631 16.801 C 13.362 16.866,13.110 16.920,13.071 16.920 C 13.005 16.920,13.000 16.841,13.000 15.671 L 13.000 14.422 14.697 12.721 C 16.371 11.042,16.394 11.017,16.461 10.784 C 16.570 10.406,16.494 10.093,16.226 9.806 C 16.033 9.602,15.818 9.507,15.540 9.505 C 15.098 9.502,15.070 9.521,13.990 10.594 L 13.000 11.576 13.000 9.715 C 13.000 7.604,12.999 7.597,12.700 7.298 C 12.390 6.988,11.932 6.920,11.531 7.126 C 11.315 7.238,11.103 7.491,11.042 7.711 C 11.016 7.804,11.000 8.562,11.000 9.719 L 11.000 11.578 10.050 10.633 C 9.527 10.114,9.038 9.658,8.962 9.619 C 8.886 9.581,8.714 9.541,8.580 9.530 C 7.840 9.471,7.297 10.242,7.603 10.920 C 7.664 11.055,8.098 11.515,9.342 12.761 L 11.000 14.421 11.000 15.671 C 11.000 16.761,10.992 16.920,10.939 16.920 C 10.794 16.920,10.074 16.741,9.704 16.613 C 7.311 15.787,5.569 13.748,5.095 11.220 C 4.991 10.663,4.991 9.354,5.096 8.780 C 5.755 5.172,9.057 2.676,12.686 3.042 " fill="#000640" stroke="none" fill-rule="evenodd"></path></svg>