<svg xmlns="http://www.w3.org/2000/svg" width="24" height="24" fill="currentColor" class="mmi mmi-tree" viewBox="0 0 24 24"><path d="M11.280 1.044 C 9.584 1.236,7.928 2.097,6.405 3.578 C 4.837 5.102,3.535 7.214,2.746 9.510 C 2.263 10.917,2.000 12.328,2.000 13.521 C 2.000 15.709,3.031 17.267,5.032 18.106 C 6.292 18.634,7.811 18.887,10.310 18.984 L 11.000 19.011 11.000 20.006 L 11.000 21.000 9.425 21.000 C 7.721 21.000,7.656 21.007,7.374 21.222 C 7.301 21.277,7.192 21.408,7.131 21.511 C 7.036 21.672,7.020 21.744,7.020 22.000 C 7.020 22.256,7.036 22.328,7.131 22.489 C 7.192 22.592,7.301 22.723,7.374 22.778 C 7.677 23.009,7.484 23.000,11.998 23.000 C 16.663 23.000,16.384 23.018,16.701 22.701 C 17.092 22.310,17.092 21.690,16.701 21.299 C 16.409 21.006,16.362 21.000,14.573 21.000 L 13.000 21.000 13.000 20.006 L 13.000 19.011 13.690 18.984 C 14.646 18.947,15.450 18.889,16.040 18.816 C 18.681 18.487,20.303 17.711,21.225 16.333 C 22.104 15.019,22.233 13.171,21.618 10.722 C 20.752 7.275,18.610 4.035,16.080 2.340 C 14.530 1.303,12.896 0.861,11.280 1.044 M12.900 3.100 C 13.764 3.279,14.681 3.733,15.520 4.398 C 15.918 4.713,16.612 5.412,17.005 5.891 C 18.638 7.887,19.747 10.507,19.962 12.878 C 20.119 14.604,19.669 15.564,18.423 16.159 C 17.395 16.650,16.028 16.887,13.670 16.983 L 13.000 17.011 13.000 15.716 L 13.000 14.422 14.697 12.721 C 16.371 11.042,16.394 11.017,16.461 10.784 C 16.570 10.406,16.494 10.093,16.226 9.806 C 16.033 9.602,15.818 9.507,15.540 9.505 C 15.098 9.502,15.070 9.521,13.990 10.594 L 13.000 11.576 13.000 9.215 C 13.000 6.546,13.006 6.604,12.700 6.298 C 12.390 5.988,11.932 5.920,11.531 6.126 C 11.315 6.238,11.103 6.491,11.042 6.711 C 11.015 6.806,11.000 7.717,11.000 9.219 L 11.000 11.578 10.050 10.633 C 9.527 10.114,9.038 9.658,8.962 9.619 C 8.886 9.581,8.714 9.541,8.580 9.530 C 7.840 9.471,7.297 10.242,7.603 10.920 C 7.664 11.055,8.098 11.515,9.342 12.761 L 11.000 14.421 11.000 15.711 L 11.000 17.000 10.810 17.000 C 10.705 16.999,10.269 16.981,9.840 16.959 C 6.176 16.772,4.546 16.071,4.113 14.496 C 4.039 14.225,4.026 14.077,4.027 13.460 C 4.028 12.995,4.051 12.594,4.093 12.329 C 4.622 8.984,6.642 5.587,9.055 3.982 C 9.835 3.463,10.621 3.160,11.540 3.024 C 11.775 2.990,12.585 3.034,12.900 3.100 " fill="#000640" stroke="none" fill-rule="evenodd"></path></svg>