<svg xmlns="http://www.w3.org/2000/svg" width="24" height="24" fill="currentColor" class="mmi mmi-truck-v2" viewBox="0 0 24 24"><path d="M2.620 3.025 C 2.576 3.033,2.442 3.061,2.322 3.085 C 1.845 3.182,1.253 3.511,0.886 3.883 C 0.466 4.309,0.217 4.756,0.078 5.335 C 0.003 5.650,0.001 5.856,0.001 11.900 C 0.000 16.076,0.014 18.189,0.042 18.289 C 0.104 18.512,0.316 18.763,0.539 18.878 C 0.737 18.980,0.739 18.980,1.947 18.992 L 3.156 19.003 3.299 19.300 C 3.668 20.068,4.402 20.675,5.240 20.906 C 5.599 21.004,6.401 21.004,6.760 20.906 C 7.599 20.675,8.332 20.068,8.702 19.298 L 8.846 19.000 12.003 19.000 L 15.161 19.000 15.257 19.217 C 15.640 20.084,16.466 20.744,17.408 20.937 C 18.767 21.215,20.182 20.487,20.742 19.220 L 20.839 19.000 21.992 19.000 C 23.317 19.000,23.420 18.982,23.702 18.700 C 24.016 18.386,24.003 18.564,23.991 14.797 C 23.980 11.547,23.978 11.456,23.900 11.312 C 23.763 11.059,20.254 7.252,20.045 7.129 L 19.860 7.020 17.930 7.009 L 16.000 6.997 16.000 6.357 C 16.000 5.645,15.945 5.287,15.766 4.849 C 15.499 4.193,14.964 3.633,14.296 3.312 C 13.643 2.998,14.171 3.023,8.120 3.015 C 5.139 3.011,2.664 3.016,2.620 3.025 M13.340 5.066 C 13.455 5.105,13.603 5.201,13.701 5.299 C 14.022 5.620,14.000 5.166,14.000 11.427 L 14.000 17.000 11.419 17.000 L 8.839 17.000 8.742 16.780 C 8.376 15.953,7.588 15.301,6.680 15.076 C 6.558 15.045,6.255 15.021,6.000 15.021 C 5.745 15.021,5.442 15.045,5.320 15.076 C 4.412 15.301,3.624 15.953,3.258 16.780 L 3.161 17.000 2.581 17.000 L 2.000 17.000 2.000 11.427 C 2.000 5.165,1.978 5.620,2.300 5.298 C 2.612 4.986,2.207 5.007,7.983 5.003 C 12.689 5.000,13.163 5.006,13.340 5.066 M20.570 10.572 L 22.000 12.140 22.000 14.570 L 22.000 17.000 21.419 17.000 L 20.839 17.000 20.742 16.780 C 20.376 15.953,19.590 15.303,18.680 15.075 C 18.548 15.042,18.261 15.021,17.960 15.023 C 17.510 15.025,17.424 15.038,17.098 15.149 C 16.728 15.276,16.341 15.480,16.123 15.664 L 16.000 15.767 16.000 12.384 L 16.000 9.000 17.570 9.002 L 19.140 9.003 20.570 10.572 M6.340 17.066 C 6.709 17.192,7.000 17.604,7.000 18.000 C 7.000 18.527,6.527 19.000,6.000 19.000 C 5.758 19.000,5.479 18.881,5.299 18.701 C 4.907 18.309,4.908 17.690,5.300 17.298 C 5.577 17.020,5.957 16.936,6.340 17.066 M18.340 17.066 C 18.709 17.192,19.000 17.604,19.000 18.000 C 19.000 18.527,18.527 19.000,18.000 19.000 C 17.758 19.000,17.479 18.881,17.299 18.701 C 16.907 18.309,16.908 17.690,17.300 17.298 C 17.577 17.020,17.957 16.936,18.340 17.066 " fill="#000640" stroke="none" fill-rule="evenodd"></path></svg>