<svg xmlns="http://www.w3.org/2000/svg" width="24" height="24" fill="currentColor" class="mmi mmi-tshirt-v6" viewBox="0 0 24 24"><path d="M6.378 1.889 C 4.991 2.395,3.834 2.840,3.698 2.920 C 3.567 2.997,3.305 3.213,3.116 3.400 C 2.755 3.758,2.544 4.082,2.398 4.504 C 2.298 4.793,1.000 10.843,1.000 11.019 C 1.000 11.089,1.030 11.233,1.066 11.340 C 1.191 11.708,1.305 11.781,3.231 12.739 L 4.999 13.619 5.009 17.959 L 5.020 22.300 5.131 22.489 C 5.192 22.592,5.301 22.723,5.374 22.778 C 5.682 23.013,5.296 23.000,11.998 23.000 C 18.903 23.000,18.379 23.023,18.701 22.701 C 19.018 22.384,19.000 22.677,19.000 17.883 L 19.000 13.619 20.768 12.740 C 22.696 11.781,22.809 11.708,22.934 11.340 C 22.970 11.233,23.000 11.086,23.000 11.012 C 23.000 10.832,21.704 4.802,21.602 4.504 C 21.362 3.810,20.780 3.153,20.100 2.811 C 20.012 2.766,18.887 2.345,17.600 1.875 C 14.866 0.877,15.000 0.905,14.380 1.186 C 13.486 1.592,12.868 1.734,12.000 1.734 C 11.136 1.734,10.525 1.594,9.625 1.191 C 8.990 0.906,9.186 0.864,6.378 1.889 M8.343 4.056 C 8.471 4.465,8.653 4.877,8.846 5.194 L 9.000 5.448 9.000 13.224 L 9.000 21.000 8.000 21.000 L 7.000 21.000 7.010 12.393 L 7.020 3.786 7.580 3.581 L 8.140 3.376 8.192 3.558 C 8.221 3.658,8.289 3.882,8.343 4.056 M16.990 12.393 L 17.000 21.000 16.000 21.000 L 15.000 21.000 15.000 13.224 L 15.000 5.448 15.154 5.194 C 15.412 4.769,15.666 4.131,15.797 3.576 L 15.845 3.371 16.413 3.579 L 16.980 3.787 16.990 12.393 M10.900 3.665 C 11.161 3.715,11.464 3.734,12.000 3.734 C 12.536 3.734,12.839 3.715,13.100 3.665 C 13.790 3.533,13.728 3.533,13.680 3.661 C 13.452 4.260,13.065 4.723,12.660 4.882 C 12.315 5.017,11.685 5.017,11.340 4.882 C 10.932 4.722,10.548 4.262,10.322 3.665 C 10.272 3.533,10.209 3.532,10.900 3.665 M4.985 11.349 C 4.953 11.380,3.160 10.459,3.160 10.411 C 3.160 10.384,3.412 9.188,3.721 7.753 C 4.314 4.995,4.340 4.905,4.597 4.722 C 4.662 4.676,4.774 4.613,4.847 4.583 L 4.980 4.527 4.990 7.930 C 4.996 9.802,4.993 11.340,4.985 11.349 M19.385 4.717 C 19.497 4.805,19.605 4.936,19.675 5.069 C 19.717 5.149,20.840 10.304,20.840 10.416 C 20.840 10.452,19.090 11.360,19.020 11.360 C 19.009 11.360,19.000 9.821,19.000 7.939 L 19.000 4.519 19.142 4.578 C 19.221 4.611,19.330 4.673,19.385 4.717 M11.440 6.963 C 11.849 7.031,12.481 7.003,12.890 6.899 L 13.000 6.871 13.000 13.936 L 13.000 21.000 12.000 21.000 L 11.000 21.000 11.000 13.936 L 11.000 6.871 11.110 6.899 C 11.171 6.914,11.319 6.943,11.440 6.963 " fill="#000640" stroke="none" fill-rule="evenodd"></path></svg>