<svg xmlns="http://www.w3.org/2000/svg" width="24" height="24" fill="currentColor" class="mmi mmi-tshirt-v5" viewBox="0 0 24 24"><path d="M6.378 1.889 C 4.991 2.395,3.834 2.840,3.698 2.920 C 3.567 2.997,3.305 3.213,3.116 3.400 C 2.755 3.758,2.544 4.082,2.398 4.504 C 2.298 4.793,1.000 10.843,1.000 11.019 C 1.000 11.089,1.030 11.233,1.066 11.340 C 1.191 11.708,1.305 11.781,3.231 12.739 L 4.999 13.619 5.009 17.959 L 5.020 22.300 5.131 22.489 C 5.192 22.592,5.301 22.723,5.374 22.778 C 5.682 23.013,5.296 23.000,11.998 23.000 C 18.903 23.000,18.379 23.023,18.701 22.701 C 19.018 22.384,19.000 22.677,19.000 17.883 L 19.000 13.619 20.768 12.740 C 22.696 11.781,22.809 11.708,22.934 11.340 C 22.970 11.233,23.000 11.086,23.000 11.012 C 23.000 10.832,21.704 4.802,21.602 4.504 C 21.362 3.810,20.780 3.153,20.100 2.811 C 20.012 2.766,18.887 2.345,17.600 1.875 C 14.866 0.877,15.000 0.905,14.380 1.186 C 13.486 1.592,12.868 1.734,12.000 1.734 C 11.136 1.734,10.525 1.594,9.625 1.191 C 8.990 0.906,9.186 0.864,6.378 1.889 M8.361 4.104 C 8.616 4.896,8.968 5.492,9.482 5.998 C 10.762 7.261,12.920 7.340,14.333 6.177 C 14.959 5.662,15.492 4.742,15.759 3.716 L 15.849 3.373 16.414 3.580 L 16.980 3.787 16.990 12.393 L 17.000 21.000 12.000 21.000 L 7.000 21.000 7.010 12.393 L 7.020 3.786 7.580 3.581 L 8.140 3.376 8.192 3.558 C 8.220 3.658,8.296 3.904,8.361 4.104 M10.900 3.665 C 11.161 3.715,11.464 3.734,12.000 3.734 C 12.536 3.734,12.839 3.715,13.100 3.665 C 13.298 3.627,13.519 3.586,13.592 3.573 L 13.723 3.549 13.640 3.760 C 13.428 4.299,13.055 4.725,12.660 4.882 C 12.314 5.019,11.686 5.019,11.340 4.882 C 10.945 4.725,10.572 4.299,10.360 3.760 L 10.277 3.549 10.408 3.573 C 10.481 3.586,10.702 3.627,10.900 3.665 M4.985 11.349 C 4.953 11.380,3.160 10.459,3.160 10.411 C 3.160 10.384,3.412 9.188,3.721 7.753 C 4.314 4.995,4.340 4.905,4.597 4.722 C 4.662 4.676,4.774 4.613,4.847 4.583 L 4.980 4.527 4.990 7.930 C 4.996 9.802,4.993 11.340,4.985 11.349 M19.402 4.722 C 19.661 4.906,19.687 4.994,20.280 7.758 C 20.588 9.195,20.840 10.391,20.840 10.416 C 20.840 10.452,19.090 11.360,19.020 11.360 C 19.009 11.360,19.000 9.821,19.000 7.939 L 19.000 4.519 19.142 4.578 C 19.221 4.611,19.338 4.676,19.402 4.722 " fill="#000640" stroke="none" fill-rule="evenodd"></path></svg>