<svg xmlns="http://www.w3.org/2000/svg" width="24" height="24" fill="currentColor" class="mmi mmi-tshirt-v3" viewBox="0 0 24 24"><path d="M6.378 1.889 C 4.991 2.395,3.834 2.840,3.698 2.920 C 3.567 2.997,3.305 3.213,3.116 3.400 C 2.755 3.758,2.544 4.082,2.398 4.504 C 2.298 4.793,1.000 10.843,1.000 11.019 C 1.000 11.089,1.030 11.233,1.066 11.340 C 1.191 11.708,1.305 11.781,3.231 12.739 L 4.999 13.619 5.009 17.959 L 5.020 22.300 5.131 22.489 C 5.192 22.592,5.301 22.723,5.374 22.778 C 5.682 23.013,5.296 23.000,11.998 23.000 C 18.903 23.000,18.379 23.023,18.701 22.701 C 19.018 22.384,19.000 22.677,19.000 17.883 L 19.000 13.619 20.768 12.740 C 22.696 11.781,22.809 11.708,22.934 11.340 C 22.970 11.233,23.000 11.086,23.000 11.012 C 23.000 10.832,21.704 4.802,21.602 4.504 C 21.362 3.810,20.780 3.153,20.100 2.811 C 20.012 2.766,18.887 2.345,17.600 1.875 C 14.866 0.877,15.000 0.905,14.380 1.186 C 13.486 1.592,12.868 1.734,12.000 1.734 C 11.136 1.734,10.525 1.594,9.625 1.191 C 8.990 0.906,9.186 0.864,6.378 1.889 M8.361 4.104 C 8.526 4.617,8.690 4.966,8.949 5.355 C 9.440 6.094,10.083 6.580,10.930 6.855 C 10.994 6.876,11.000 6.967,11.000 8.009 C 11.000 8.665,11.018 9.203,11.042 9.289 C 11.103 9.509,11.315 9.762,11.531 9.874 C 11.932 10.080,12.390 10.012,12.700 9.702 C 12.981 9.421,13.000 9.315,13.000 8.012 C 13.000 6.967,13.006 6.876,13.070 6.855 C 13.809 6.615,14.352 6.250,14.803 5.689 C 15.236 5.152,15.559 4.485,15.759 3.717 L 15.849 3.373 17.531 3.986 C 18.456 4.323,19.282 4.643,19.365 4.698 C 19.662 4.895,19.674 4.933,20.280 7.758 C 20.588 9.195,20.840 10.391,20.840 10.416 C 20.840 10.452,19.090 11.360,19.020 11.360 C 19.009 11.360,19.000 11.021,19.000 10.607 C 19.000 9.724,18.963 9.561,18.700 9.298 C 18.390 8.988,17.932 8.920,17.531 9.126 C 17.315 9.238,17.103 9.491,17.042 9.711 C 17.014 9.810,17.000 11.716,17.000 15.430 L 17.000 21.000 12.000 21.000 L 7.000 21.000 7.000 15.427 C 7.000 9.164,7.022 9.620,6.700 9.298 C 6.390 8.988,5.932 8.920,5.531 9.126 C 5.315 9.238,5.103 9.491,5.042 9.711 C 5.019 9.793,5.000 10.197,5.000 10.610 C 5.000 11.023,4.991 11.360,4.980 11.360 C 4.905 11.360,3.160 10.451,3.160 10.411 C 3.160 10.384,3.412 9.188,3.721 7.753 C 4.327 4.933,4.339 4.895,4.636 4.698 C 4.719 4.643,5.541 4.323,6.463 3.987 L 8.140 3.376 8.192 3.558 C 8.220 3.658,8.296 3.904,8.361 4.104 M10.900 3.665 C 11.161 3.715,11.464 3.734,12.000 3.734 C 12.536 3.734,12.839 3.715,13.100 3.665 C 13.298 3.627,13.519 3.586,13.592 3.573 L 13.723 3.549 13.640 3.760 C 13.428 4.299,13.055 4.725,12.660 4.882 C 12.314 5.019,11.686 5.019,11.340 4.882 C 10.945 4.725,10.572 4.299,10.360 3.760 L 10.277 3.549 10.408 3.573 C 10.481 3.586,10.702 3.627,10.900 3.665 " fill="#000640" stroke="none" fill-rule="evenodd"></path></svg>