<svg xmlns="http://www.w3.org/2000/svg" width="24" height="24" fill="currentColor" class="mmi mmi-tshirt-v2" viewBox="0 0 24 24"><path d="M6.378 1.889 C 4.991 2.395,3.834 2.840,3.698 2.920 C 3.395 3.098,2.820 3.671,2.645 3.970 C 2.571 4.097,2.469 4.313,2.419 4.450 C 2.370 4.588,2.027 6.112,1.658 7.837 C 1.011 10.861,0.988 10.982,1.032 11.190 C 1.057 11.312,1.135 11.488,1.209 11.593 C 1.336 11.773,1.412 11.815,3.170 12.700 L 4.999 13.620 5.000 17.883 C 5.000 22.677,4.982 22.384,5.299 22.701 C 5.621 23.023,5.097 23.000,12.000 23.000 C 18.903 23.000,18.379 23.023,18.701 22.701 C 19.018 22.384,19.000 22.677,19.000 17.883 L 19.000 13.620 20.816 12.711 C 22.417 11.910,22.646 11.784,22.760 11.640 C 22.891 11.475,23.000 11.187,23.000 11.009 C 23.000 10.856,21.731 4.941,21.620 4.580 C 21.398 3.852,20.811 3.169,20.100 2.811 C 20.012 2.766,18.887 2.345,17.600 1.875 C 14.866 0.877,15.000 0.905,14.380 1.186 C 13.486 1.592,12.868 1.734,12.000 1.734 C 11.136 1.734,10.525 1.594,9.625 1.191 C 8.990 0.906,9.186 0.864,6.378 1.889 M8.365 4.120 C 8.635 4.962,9.175 5.790,9.746 6.234 C 10.843 7.090,12.393 7.238,13.668 6.609 C 14.640 6.130,15.390 5.102,15.742 3.763 C 15.797 3.555,15.846 3.382,15.851 3.378 C 15.882 3.356,19.246 4.620,19.366 4.700 C 19.667 4.899,19.681 4.943,20.283 7.750 C 20.589 9.174,20.840 10.367,20.840 10.400 C 20.840 10.439,20.518 10.621,19.940 10.910 C 19.445 11.158,19.031 11.360,19.020 11.360 C 19.009 11.360,19.000 11.021,19.000 10.607 C 19.000 9.724,18.963 9.560,18.701 9.299 C 18.310 8.908,17.690 8.908,17.299 9.299 C 16.978 9.620,17.000 9.166,17.000 15.427 L 17.000 21.000 12.000 21.000 L 7.000 21.000 7.000 15.427 C 7.000 9.166,7.022 9.620,6.701 9.299 C 6.310 8.908,5.690 8.908,5.299 9.299 C 5.037 9.560,5.000 9.724,5.000 10.607 C 5.000 11.021,4.991 11.360,4.980 11.360 C 4.969 11.360,4.555 11.158,4.060 10.910 C 3.482 10.621,3.160 10.439,3.160 10.400 C 3.160 10.367,3.411 9.174,3.717 7.750 C 4.319 4.943,4.333 4.899,4.634 4.699 C 4.716 4.645,5.538 4.324,6.462 3.986 L 8.140 3.371 8.192 3.556 C 8.220 3.657,8.298 3.911,8.365 4.120 M10.826 3.643 C 11.184 3.705,11.471 3.726,12.000 3.726 C 12.529 3.726,12.816 3.705,13.174 3.643 C 13.435 3.597,13.663 3.560,13.682 3.560 C 13.701 3.560,13.690 3.634,13.658 3.725 C 13.479 4.234,13.055 4.725,12.660 4.882 C 12.314 5.019,11.686 5.019,11.340 4.882 C 10.945 4.725,10.521 4.234,10.342 3.725 C 10.310 3.634,10.299 3.560,10.318 3.560 C 10.337 3.560,10.565 3.597,10.826 3.643 M11.664 8.063 C 11.436 8.146,11.257 8.297,11.131 8.511 C 11.036 8.672,11.020 8.744,11.020 9.000 C 11.020 9.256,11.036 9.328,11.131 9.489 C 11.470 10.065,12.234 10.168,12.701 9.701 C 12.881 9.521,13.000 9.242,13.000 9.000 C 13.000 8.326,12.295 7.832,11.664 8.063 M11.664 11.063 C 11.436 11.146,11.257 11.297,11.131 11.511 C 11.036 11.672,11.020 11.744,11.020 12.000 C 11.020 12.256,11.036 12.328,11.131 12.489 C 11.470 13.065,12.234 13.168,12.701 12.701 C 12.881 12.521,13.000 12.242,13.000 12.000 C 13.000 11.326,12.295 10.832,11.664 11.063 " fill="#000640" stroke="none" fill-rule="evenodd"></path></svg>