<svg xmlns="http://www.w3.org/2000/svg" width="24" height="24" fill="currentColor" class="mmi mmi-tshirt-vneck" viewBox="0 0 24 24"><path d="M6.378 1.889 C 4.991 2.395,3.834 2.840,3.698 2.920 C 3.567 2.997,3.305 3.213,3.116 3.400 C 2.755 3.758,2.544 4.082,2.398 4.504 C 2.298 4.793,1.000 10.843,1.000 11.019 C 1.000 11.089,1.030 11.233,1.066 11.340 C 1.191 11.708,1.305 11.781,3.231 12.739 L 4.999 13.619 5.009 17.959 L 5.020 22.300 5.131 22.489 C 5.192 22.592,5.301 22.723,5.374 22.778 C 5.682 23.013,5.296 23.000,11.998 23.000 C 18.903 23.000,18.379 23.023,18.701 22.701 C 19.018 22.384,19.000 22.677,19.000 17.883 L 19.000 13.619 20.768 12.740 C 22.696 11.781,22.809 11.708,22.934 11.340 C 22.970 11.233,23.000 11.086,23.000 11.012 C 23.000 10.832,21.704 4.802,21.602 4.504 C 21.362 3.810,20.780 3.153,20.100 2.811 C 20.012 2.766,18.887 2.345,17.600 1.875 C 14.866 0.877,15.000 0.905,14.380 1.186 C 13.486 1.592,12.868 1.734,12.000 1.734 C 11.136 1.734,10.525 1.594,9.625 1.191 C 8.990 0.906,9.186 0.864,6.378 1.889 M8.479 3.570 C 8.671 4.104,9.060 5.005,9.328 5.532 C 10.164 7.181,11.051 8.000,12.000 8.000 C 12.949 8.000,13.837 7.180,14.672 5.532 C 14.949 4.985,15.227 4.346,15.482 3.670 C 15.554 3.478,15.634 3.320,15.658 3.320 C 15.764 3.320,19.229 4.608,19.365 4.698 C 19.662 4.895,19.674 4.933,20.280 7.758 C 20.588 9.195,20.840 10.391,20.840 10.416 C 20.840 10.452,19.090 11.360,19.020 11.360 C 19.009 11.360,19.000 11.021,19.000 10.607 C 19.000 9.724,18.963 9.561,18.700 9.298 C 18.390 8.988,17.932 8.920,17.531 9.126 C 17.315 9.238,17.103 9.491,17.042 9.711 C 17.014 9.810,17.000 11.716,17.000 15.430 L 17.000 21.000 12.000 21.000 L 7.000 21.000 7.000 15.427 C 7.000 9.164,7.022 9.620,6.700 9.298 C 6.390 8.988,5.932 8.920,5.531 9.126 C 5.315 9.238,5.103 9.491,5.042 9.711 C 5.019 9.793,5.000 10.197,5.000 10.610 C 5.000 11.023,4.991 11.360,4.980 11.360 C 4.910 11.360,3.160 10.452,3.160 10.416 C 3.160 10.391,3.412 9.195,3.720 7.758 C 4.325 4.940,4.333 4.913,4.631 4.706 C 4.776 4.606,8.182 3.331,8.325 3.323 C 8.369 3.321,8.418 3.399,8.479 3.570 M11.451 3.725 C 11.935 3.772,12.663 3.742,13.190 3.653 C 13.280 3.638,13.320 3.647,13.320 3.682 C 13.320 3.710,13.169 4.041,12.985 4.417 C 12.639 5.123,12.337 5.614,12.123 5.817 L 12.000 5.935 11.877 5.817 C 11.663 5.614,11.361 5.123,11.015 4.417 C 10.831 4.041,10.680 3.710,10.680 3.682 C 10.680 3.647,10.720 3.638,10.810 3.653 C 10.882 3.664,11.170 3.697,11.451 3.725 " fill="#000640" stroke="none" fill-rule="evenodd"></path></svg>