<svg xmlns="http://www.w3.org/2000/svg" width="24" height="24" fill="currentColor" class="mmi mmi-tshirt-longsleeve-v4" viewBox="0 0 24 24"><path d="M6.918 1.633 C 5.006 2.274,4.530 2.467,4.034 2.804 C 2.806 3.638,2.007 4.997,1.861 6.500 C 1.784 7.294,1.117 19.803,1.132 20.160 C 1.179 21.252,1.826 22.226,2.819 22.700 C 3.456 23.004,2.615 22.977,11.840 22.991 C 17.722 22.999,20.174 22.990,20.358 22.959 C 21.571 22.752,22.512 21.872,22.798 20.679 C 22.843 20.493,22.880 20.207,22.880 20.045 C 22.880 19.595,22.170 6.834,22.120 6.394 C 21.953 4.925,21.169 3.621,19.957 2.798 C 19.471 2.468,18.986 2.271,17.082 1.633 C 14.888 0.897,14.991 0.914,14.375 1.191 C 13.486 1.589,12.865 1.732,12.020 1.735 C 11.155 1.737,10.517 1.592,9.625 1.191 C 9.009 0.914,9.112 0.897,6.918 1.633 M8.258 3.775 C 8.665 5.311,9.570 6.394,10.784 6.798 C 11.598 7.068,12.402 7.068,13.216 6.798 C 14.125 6.495,14.844 5.837,15.332 4.860 C 15.512 4.498,15.707 3.960,15.799 3.570 C 15.826 3.454,15.861 3.360,15.876 3.360 C 15.892 3.360,16.471 3.550,17.162 3.781 C 18.026 4.071,18.504 4.252,18.686 4.361 C 19.453 4.816,19.966 5.581,20.101 6.470 C 20.134 6.684,20.325 9.839,20.524 13.481 C 20.812 18.724,20.879 20.136,20.844 20.265 C 20.781 20.497,20.594 20.737,20.372 20.867 C 20.189 20.975,20.153 20.981,19.590 20.994 L 19.000 21.007 19.000 15.431 C 19.000 9.166,19.022 9.620,18.701 9.299 C 18.342 8.940,17.786 8.908,17.374 9.222 C 17.205 9.350,17.052 9.612,17.017 9.830 L 16.990 10.000 11.995 10.000 C 7.189 10.000,7.000 9.997,7.000 9.927 C 7.000 9.754,6.858 9.456,6.700 9.298 C 6.390 8.988,5.932 8.920,5.531 9.126 C 5.315 9.238,5.103 9.491,5.042 9.711 C 5.014 9.810,5.000 11.717,5.000 15.434 L 5.000 21.007 4.407 20.994 C 3.827 20.980,3.809 20.977,3.617 20.859 C 3.381 20.714,3.174 20.423,3.140 20.189 C 3.126 20.096,3.287 16.960,3.496 13.220 C 3.787 8.043,3.893 6.363,3.942 6.181 C 4.149 5.419,4.648 4.756,5.314 4.361 C 5.494 4.254,5.980 4.068,6.820 3.784 C 7.502 3.554,8.080 3.364,8.104 3.363 C 8.128 3.361,8.197 3.547,8.258 3.775 M10.900 3.665 C 11.161 3.715,11.464 3.734,12.000 3.734 C 12.536 3.734,12.839 3.715,13.100 3.665 C 13.298 3.627,13.519 3.586,13.592 3.573 L 13.723 3.549 13.645 3.745 C 13.423 4.302,13.057 4.724,12.660 4.882 C 12.315 5.019,11.686 5.019,11.340 4.883 C 10.999 4.748,10.668 4.402,10.448 3.952 C 10.356 3.763,10.280 3.595,10.280 3.579 C 10.280 3.548,10.318 3.553,10.900 3.665 M17.000 13.000 L 17.000 14.000 12.000 14.000 L 7.000 14.000 7.000 13.000 L 7.000 12.000 12.000 12.000 L 17.000 12.000 17.000 13.000 M17.000 18.500 L 17.000 21.000 12.000 21.000 L 7.000 21.000 7.000 18.500 L 7.000 16.000 12.000 16.000 L 17.000 16.000 17.000 18.500 " fill="#000640" stroke="none" fill-rule="evenodd"></path></svg>