<svg xmlns="http://www.w3.org/2000/svg" width="24" height="24" fill="currentColor" class="mmi mmi-tshirt-longsleeve-v2" viewBox="0 0 24 24"><path d="M6.918 1.633 C 4.480 2.450,4.082 2.646,3.321 3.400 C 2.523 4.190,1.998 5.283,1.883 6.396 C 1.861 6.607,1.678 9.777,1.475 13.440 C 1.148 19.365,1.113 20.137,1.155 20.431 C 1.302 21.452,2.006 22.369,2.935 22.750 C 3.537 22.997,2.796 22.977,11.839 22.990 C 19.205 23.000,20.135 22.995,20.434 22.939 C 21.713 22.699,22.693 21.654,22.848 20.364 C 22.910 19.851,22.162 6.499,22.037 5.900 C 21.779 4.653,21.017 3.518,19.957 2.798 C 19.471 2.468,18.986 2.271,17.082 1.633 C 14.888 0.897,14.991 0.914,14.375 1.191 C 13.486 1.589,12.865 1.732,12.020 1.735 C 11.155 1.737,10.517 1.592,9.625 1.191 C 9.009 0.914,9.112 0.897,6.918 1.633 M8.201 3.570 C 8.441 4.591,9.021 5.635,9.636 6.153 C 10.733 7.076,12.350 7.259,13.668 6.609 C 14.333 6.281,14.904 5.689,15.295 4.919 C 15.497 4.523,15.799 3.692,15.801 3.531 C 15.802 3.330,15.820 3.333,17.147 3.776 C 17.987 4.056,18.510 4.252,18.676 4.350 C 19.399 4.778,19.927 5.526,20.093 6.360 C 20.167 6.731,20.907 19.990,20.865 20.207 C 20.823 20.428,20.606 20.721,20.383 20.859 C 20.191 20.977,20.173 20.980,19.593 20.994 L 19.000 21.007 19.000 15.451 C 19.000 9.200,19.020 9.618,18.704 9.302 C 18.390 8.987,17.934 8.919,17.531 9.126 C 17.315 9.238,17.103 9.491,17.042 9.711 C 17.014 9.810,17.000 11.716,17.000 15.430 L 17.000 21.000 12.000 21.000 L 7.000 21.000 7.000 15.427 C 7.000 9.166,7.022 9.620,6.701 9.299 C 6.310 8.908,5.690 8.908,5.299 9.299 C 4.978 9.620,5.000 9.166,5.000 15.431 L 5.000 21.007 4.410 20.994 C 3.852 20.981,3.810 20.974,3.634 20.871 C 3.402 20.734,3.269 20.578,3.175 20.332 C 3.102 20.143,3.105 20.080,3.474 13.400 C 3.716 9.024,3.868 6.555,3.906 6.360 C 4.030 5.740,4.276 5.285,4.741 4.821 C 4.917 4.644,5.168 4.437,5.298 4.360 C 5.496 4.242,7.945 3.373,8.106 3.363 C 8.131 3.361,8.174 3.454,8.201 3.570 M10.826 3.643 C 11.184 3.705,11.471 3.726,12.000 3.726 C 12.529 3.726,12.816 3.705,13.174 3.643 C 13.435 3.597,13.664 3.560,13.683 3.560 C 13.729 3.560,13.589 3.915,13.450 4.156 C 13.274 4.459,12.931 4.774,12.660 4.882 C 12.315 5.019,11.686 5.019,11.340 4.883 C 11.000 4.748,10.656 4.390,10.442 3.949 C 10.353 3.765,10.280 3.602,10.280 3.587 C 10.280 3.549,10.298 3.551,10.826 3.643 M11.664 8.063 C 11.436 8.146,11.257 8.297,11.131 8.511 C 11.036 8.672,11.020 8.744,11.020 9.000 C 11.020 9.256,11.036 9.328,11.131 9.489 C 11.470 10.065,12.234 10.168,12.701 9.701 C 12.881 9.521,13.000 9.242,13.000 9.000 C 13.000 8.326,12.295 7.832,11.664 8.063 M11.664 11.063 C 11.436 11.146,11.257 11.297,11.131 11.511 C 11.036 11.672,11.020 11.744,11.020 12.000 C 11.020 12.256,11.036 12.328,11.131 12.489 C 11.470 13.065,12.234 13.168,12.701 12.701 C 12.881 12.521,13.000 12.242,13.000 12.000 C 13.000 11.326,12.295 10.832,11.664 11.063 " fill="#000640" stroke="none" fill-rule="evenodd"></path></svg>