<svg xmlns="http://www.w3.org/2000/svg" width="24" height="24" fill="currentColor" class="mmi mmi-twintower" viewBox="0 0 24 24"><path d="M5.664 1.063 C 5.436 1.146,5.257 1.297,5.131 1.511 L 5.020 1.700 5.008 3.345 L 4.997 4.989 4.728 5.017 C 4.330 5.057,4.138 5.112,3.740 5.298 C 3.016 5.637,2.466 6.219,2.202 6.925 C 1.993 7.484,2.001 7.157,2.001 14.920 C 2.001 19.772,2.014 22.189,2.042 22.289 C 2.104 22.512,2.316 22.763,2.539 22.878 L 2.738 22.980 5.936 22.991 C 9.548 23.003,9.387 23.015,9.700 22.702 C 10.021 22.381,10.000 22.776,10.000 17.073 L 10.000 12.000 12.000 12.000 L 14.000 12.000 14.000 17.070 C 14.000 20.439,14.014 22.190,14.042 22.289 C 14.104 22.512,14.316 22.763,14.539 22.878 L 14.738 22.980 17.936 22.991 C 21.548 23.003,21.387 23.015,21.700 22.702 C 22.025 22.377,22.000 23.033,22.000 14.931 C 22.000 7.031,22.012 7.453,21.766 6.849 C 21.492 6.176,20.956 5.624,20.260 5.298 C 19.861 5.112,19.670 5.057,19.270 5.017 L 19.000 4.989 19.000 3.422 C 19.000 1.637,18.994 1.591,18.700 1.298 C 18.390 0.988,17.932 0.920,17.531 1.126 C 17.315 1.238,17.103 1.491,17.042 1.711 C 17.017 1.802,17.000 2.470,17.000 3.424 L 17.000 4.989 16.730 5.017 C 16.330 5.057,16.139 5.112,15.740 5.298 C 15.016 5.637,14.466 6.219,14.202 6.925 C 14.027 7.394,14.001 7.639,14.001 8.850 L 14.000 10.000 12.000 10.000 L 10.000 10.000 10.000 8.858 C 10.000 7.609,9.970 7.349,9.766 6.849 C 9.492 6.176,8.956 5.624,8.260 5.298 C 7.861 5.112,7.670 5.057,7.270 5.017 L 7.000 4.989 7.000 3.422 C 7.000 1.638,6.993 1.591,6.701 1.299 C 6.429 1.027,6.018 0.933,5.664 1.063 M7.340 7.066 C 7.593 7.153,7.847 7.407,7.934 7.660 C 7.983 7.805,8.000 7.999,8.000 8.427 L 8.000 9.000 6.000 9.000 L 4.000 9.000 4.000 8.427 C 4.000 7.740,4.052 7.546,4.300 7.298 C 4.577 7.021,4.659 7.007,5.983 7.003 C 6.966 7.000,7.176 7.010,7.340 7.066 M19.340 7.066 C 19.593 7.153,19.847 7.407,19.934 7.660 C 19.983 7.805,20.000 7.999,20.000 8.427 L 20.000 9.000 18.000 9.000 L 16.000 9.000 16.000 8.427 C 16.000 7.740,16.052 7.546,16.300 7.298 C 16.577 7.021,16.659 7.007,17.983 7.003 C 18.966 7.000,19.176 7.010,19.340 7.066 M8.000 12.000 L 8.000 13.000 6.000 13.000 L 4.000 13.000 4.000 12.000 L 4.000 11.000 6.000 11.000 L 8.000 11.000 8.000 12.000 M20.000 12.000 L 20.000 13.000 18.000 13.000 L 16.000 13.000 16.000 12.000 L 16.000 11.000 18.000 11.000 L 20.000 11.000 20.000 12.000 M8.000 16.000 L 8.000 17.000 6.000 17.000 L 4.000 17.000 4.000 16.000 L 4.000 15.000 6.000 15.000 L 8.000 15.000 8.000 16.000 M20.000 16.000 L 20.000 17.000 18.000 17.000 L 16.000 17.000 16.000 16.000 L 16.000 15.000 18.000 15.000 L 20.000 15.000 20.000 16.000 M8.000 20.000 L 8.000 21.000 6.000 21.000 L 4.000 21.000 4.000 20.000 L 4.000 19.000 6.000 19.000 L 8.000 19.000 8.000 20.000 M20.000 20.000 L 20.000 21.000 18.000 21.000 L 16.000 21.000 16.000 20.000 L 16.000 19.000 18.000 19.000 L 20.000 19.000 20.000 20.000 " fill="#000640" stroke="none" fill-rule="evenodd"></path></svg>