<svg xmlns="http://www.w3.org/2000/svg" width="24" height="24" fill="currentColor" class="mmi mmi-two" viewBox="0 0 24 24"><path d="M11.200 0.025 C 7.091 0.332,3.508 2.609,1.507 6.186 C 0.775 7.494,0.317 8.899,0.094 10.520 C -0.002 11.214,-0.002 12.786,0.094 13.480 C 0.317 15.101,0.775 16.506,1.507 17.814 C 4.173 22.579,9.604 24.939,14.910 23.637 C 19.156 22.595,22.595 19.156,23.637 14.910 C 24.599 10.992,23.592 6.970,20.896 3.958 C 19.003 1.843,16.397 0.483,13.500 0.099 C 13.032 0.037,11.640 -0.007,11.200 0.025 M12.920 2.043 C 14.827 2.219,16.631 2.940,18.200 4.155 C 18.637 4.493,19.507 5.363,19.845 5.800 C 21.878 8.427,22.517 11.768,21.578 14.865 C 21.082 16.499,20.272 17.850,19.061 19.061 C 18.287 19.836,17.547 20.383,16.623 20.863 C 13.714 22.376,10.286 22.376,7.377 20.863 C 6.454 20.383,5.715 19.837,4.938 19.061 C 3.951 18.075,3.213 16.964,2.722 15.728 C 1.390 12.368,1.921 8.686,4.153 5.800 C 4.491 5.363,5.363 4.491,5.800 4.153 C 7.114 3.137,8.541 2.486,10.125 2.181 C 11.037 2.006,12.003 1.958,12.920 2.043 M11.360 6.041 C 9.552 6.295,8.079 7.468,7.638 9.007 C 7.535 9.366,7.488 10.122,7.556 10.328 C 7.619 10.520,7.854 10.784,8.054 10.890 C 8.284 11.011,8.714 11.013,8.940 10.892 C 9.292 10.705,9.432 10.471,9.498 9.960 C 9.570 9.404,9.737 9.067,10.116 8.709 C 10.627 8.227,11.190 8.022,12.000 8.022 C 12.810 8.022,13.373 8.227,13.884 8.709 C 14.352 9.151,14.558 9.691,14.476 10.266 C 14.423 10.639,14.285 10.919,14.012 11.205 C 13.595 11.642,13.024 11.972,11.700 12.540 C 10.637 12.995,9.914 13.358,9.424 13.683 C 8.398 14.361,7.793 15.191,7.584 16.208 C 7.505 16.591,7.500 17.195,7.575 17.374 C 7.653 17.562,7.866 17.790,8.056 17.892 L 8.220 17.980 12.000 17.980 L 15.780 17.980 15.944 17.892 C 16.134 17.790,16.347 17.562,16.425 17.374 C 16.496 17.205,16.496 16.795,16.425 16.626 C 16.347 16.438,16.134 16.210,15.944 16.108 C 15.780 16.020,15.772 16.020,12.786 16.000 L 9.792 15.980 10.033 15.743 C 10.459 15.326,11.013 15.012,12.301 14.460 C 13.987 13.737,14.767 13.282,15.382 12.664 C 15.949 12.093,16.272 11.503,16.422 10.764 C 16.515 10.305,16.485 9.427,16.363 9.007 C 15.949 7.583,14.679 6.475,13.052 6.120 C 12.606 6.022,11.771 5.983,11.360 6.041 " stroke="none" fill-rule="evenodd"></path></svg>