<svg xmlns="http://www.w3.org/2000/svg" width="24" height="24" fill="currentColor" class="mmi mmi-twoarrow-collide-vertical-v2" viewBox="0 0 24 24"><path d="M9.664 1.063 C 9.436 1.146,9.257 1.297,9.131 1.511 L 9.020 1.700 9.009 5.138 L 8.998 8.576 7.809 7.392 C 7.021 6.608,6.560 6.178,6.442 6.119 C 6.195 5.996,5.840 5.994,5.590 6.115 C 5.081 6.362,4.875 6.951,5.121 7.460 C 5.171 7.565,5.930 8.350,7.329 9.745 C 9.253 11.664,9.479 11.876,9.657 11.935 C 9.906 12.017,10.094 12.017,10.343 11.935 C 10.521 11.876,10.747 11.664,12.671 9.745 C 14.070 8.350,14.829 7.565,14.879 7.460 C 15.125 6.951,14.919 6.362,14.410 6.115 C 14.160 5.994,13.805 5.996,13.558 6.119 C 13.439 6.178,12.985 6.602,12.190 7.393 L 11.000 8.579 11.000 5.217 C 11.000 1.430,11.014 1.612,10.701 1.299 C 10.429 1.027,10.018 0.933,9.664 1.063 M13.640 12.068 C 13.486 12.121,13.152 12.437,11.329 14.255 C 8.994 16.583,8.999 16.577,9.001 17.018 C 9.002 17.313,9.093 17.525,9.305 17.728 C 9.508 17.922,9.705 18.000,9.989 17.999 C 10.401 17.998,10.470 17.945,11.790 16.629 L 13.000 15.422 13.000 18.781 C 13.000 20.972,13.015 22.192,13.042 22.289 C 13.103 22.509,13.315 22.762,13.531 22.874 C 13.932 23.080,14.390 23.012,14.700 22.702 C 15.014 22.388,15.000 22.571,15.000 18.784 L 15.000 15.423 16.230 16.648 C 17.391 17.804,17.472 17.876,17.677 17.936 C 17.948 18.016,18.012 18.016,18.283 17.936 C 18.590 17.844,18.849 17.581,18.940 17.265 C 19.018 16.999,19.000 16.790,18.879 16.540 C 18.829 16.435,18.070 15.650,16.671 14.255 C 14.747 12.336,14.521 12.124,14.343 12.065 C 14.102 11.986,13.878 11.986,13.640 12.068 " fill="#000640" stroke="none" fill-rule="evenodd"></path></svg>