<svg xmlns="http://www.w3.org/2000/svg" width="24" height="24" fill="currentColor" class="mmi mmi-twoarrow-shrink-horizontal" viewBox="0 0 24 24"><path d="M4.758 7.054 C 4.416 7.147,4.160 7.395,4.061 7.729 C 3.984 7.987,3.985 8.054,4.064 8.323 C 4.124 8.531,4.201 8.614,5.853 10.270 L 7.578 12.000 5.871 13.710 C 4.010 15.574,4.002 15.584,4.002 16.020 C 4.002 16.312,4.093 16.525,4.305 16.728 C 4.508 16.922,4.705 17.000,4.991 17.000 C 5.422 17.000,5.426 16.997,7.745 14.671 C 9.663 12.747,9.876 12.521,9.935 12.343 C 10.017 12.094,10.017 11.906,9.935 11.657 C 9.876 11.479,9.665 11.255,7.769 9.353 C 6.359 7.939,5.607 7.214,5.484 7.148 C 5.252 7.024,4.992 6.990,4.758 7.054 M18.800 7.037 C 18.723 7.053,18.588 7.104,18.500 7.150 C 18.405 7.200,17.488 8.090,16.235 9.347 C 14.336 11.254,14.124 11.479,14.065 11.657 C 13.983 11.906,13.983 12.094,14.065 12.343 C 14.124 12.521,14.336 12.747,16.255 14.671 C 17.650 16.070,18.435 16.829,18.540 16.879 C 18.790 17.000,18.999 17.018,19.265 16.940 C 19.581 16.849,19.844 16.590,19.936 16.283 C 20.016 16.013,20.016 15.948,19.936 15.677 C 19.876 15.469,19.799 15.386,18.147 13.730 L 16.422 12.000 18.147 10.270 C 19.799 8.614,19.876 8.531,19.936 8.323 C 20.015 8.053,20.016 7.987,19.938 7.725 C 19.797 7.252,19.277 6.937,18.800 7.037 " fill="#000640" stroke="none" fill-rule="evenodd"></path></svg>