<svg xmlns="http://www.w3.org/2000/svg" width="24" height="24" fill="currentColor" class="mmi mmi-twoarrow-expandline-horizontal" viewBox="0 0 24 24"><path d="M11.664 3.063 C 11.436 3.146,11.257 3.297,11.131 3.511 L 11.020 3.700 11.010 11.914 C 11.003 17.490,11.013 20.178,11.041 20.283 C 11.101 20.506,11.312 20.761,11.531 20.874 C 11.932 21.080,12.390 21.012,12.700 20.702 C 13.027 20.376,13.000 21.146,13.000 12.000 C 13.000 2.856,13.026 3.624,12.701 3.299 C 12.429 3.027,12.018 2.933,11.664 3.063 M7.800 7.037 C 7.723 7.053,7.588 7.104,7.500 7.150 C 7.405 7.200,6.488 8.090,5.235 9.347 C 3.336 11.254,3.124 11.479,3.065 11.657 C 2.983 11.906,2.983 12.094,3.065 12.343 C 3.124 12.521,3.337 12.747,5.255 14.671 C 7.574 16.997,7.578 17.000,8.009 17.000 C 8.295 17.000,8.492 16.922,8.695 16.728 C 8.907 16.525,8.998 16.312,8.998 16.020 C 8.998 15.584,8.990 15.574,7.129 13.710 L 5.422 12.000 7.147 10.270 C 8.799 8.614,8.876 8.531,8.936 8.323 C 9.015 8.053,9.016 7.987,8.938 7.725 C 8.797 7.252,8.277 6.937,7.800 7.037 M15.758 7.054 C 15.416 7.147,15.160 7.395,15.061 7.729 C 14.984 7.987,14.985 8.054,15.064 8.323 C 15.124 8.531,15.201 8.614,16.853 10.270 L 18.578 12.000 16.854 13.730 C 15.309 15.281,15.124 15.480,15.065 15.657 C 14.936 16.046,15.021 16.423,15.299 16.701 C 15.577 16.979,15.953 17.064,16.343 16.935 C 16.521 16.876,16.747 16.664,18.671 14.745 C 20.187 13.234,20.827 12.569,20.888 12.444 C 21.006 12.200,21.024 11.934,20.940 11.674 C 20.875 11.473,20.743 11.333,18.769 9.353 C 17.359 7.939,16.607 7.214,16.484 7.148 C 16.252 7.024,15.992 6.990,15.758 7.054 " fill="#000640" stroke="none" fill-rule="evenodd"></path></svg>