<svg xmlns="http://www.w3.org/2000/svg" width="24" height="24" fill="currentColor" class="mmi mmi-twoarrow-expand-horizontal" viewBox="0 0 24 24"><path d="M7.800 7.037 C 7.723 7.053,7.588 7.104,7.500 7.150 C 7.405 7.200,6.488 8.090,5.235 9.347 C 3.336 11.254,3.124 11.479,3.065 11.657 C 2.983 11.906,2.983 12.094,3.065 12.343 C 3.124 12.521,3.336 12.747,5.255 14.671 C 6.650 16.070,7.435 16.829,7.540 16.879 C 7.790 17.000,7.999 17.018,8.265 16.940 C 8.581 16.849,8.844 16.590,8.936 16.283 C 9.016 16.013,9.016 15.948,8.936 15.677 C 8.876 15.469,8.799 15.386,7.147 13.730 L 5.422 12.000 7.147 10.270 C 8.799 8.614,8.876 8.531,8.936 8.323 C 9.015 8.053,9.016 7.987,8.938 7.725 C 8.797 7.252,8.277 6.937,7.800 7.037 M15.656 7.043 C 15.480 7.094,15.162 7.388,15.075 7.578 C 14.975 7.799,14.978 8.168,15.083 8.400 C 15.144 8.535,15.588 9.005,16.871 10.290 L 18.578 12.000 16.853 13.730 C 15.201 15.386,15.124 15.469,15.064 15.677 C 14.984 15.948,14.984 16.013,15.064 16.283 C 15.156 16.590,15.419 16.849,15.735 16.940 C 16.001 17.018,16.210 17.000,16.460 16.879 C 16.565 16.829,17.350 16.070,18.745 14.671 C 20.664 12.747,20.876 12.521,20.935 12.343 C 20.971 12.234,21.000 12.080,21.000 12.000 C 21.000 11.920,20.971 11.766,20.935 11.657 C 20.876 11.479,20.663 11.253,18.745 9.329 C 16.430 7.008,16.418 6.997,16.002 7.004 C 15.880 7.006,15.724 7.023,15.656 7.043 " fill="#000640" stroke="none" fill-rule="evenodd"></path></svg>