<svg xmlns="http://www.w3.org/2000/svg" width="24" height="24" fill="currentColor" class="mmi mmi-twoarrow-expandline-vertical" viewBox="0 0 24 24"><path d="M11.640 3.068 C 11.486 3.121,11.152 3.437,9.329 5.255 C 7.930 6.649,7.171 7.435,7.121 7.540 C 7.000 7.790,6.982 7.999,7.060 8.265 C 7.151 8.581,7.410 8.844,7.717 8.936 C 7.987 9.016,8.052 9.016,8.323 8.936 C 8.531 8.876,8.614 8.799,10.270 7.147 L 12.000 5.422 13.730 7.147 C 15.386 8.799,15.469 8.876,15.677 8.936 C 15.948 9.016,16.013 9.016,16.283 8.936 C 16.590 8.844,16.849 8.581,16.940 8.265 C 17.018 7.999,17.000 7.790,16.879 7.540 C 16.829 7.435,16.070 6.650,14.671 5.255 C 12.747 3.336,12.521 3.124,12.343 3.065 C 12.102 2.986,11.878 2.986,11.640 3.068 M3.664 11.063 C 3.436 11.146,3.257 11.297,3.131 11.511 C 3.036 11.672,3.020 11.744,3.020 12.000 C 3.020 12.256,3.036 12.328,3.131 12.489 C 3.192 12.592,3.301 12.723,3.374 12.778 C 3.684 13.015,3.106 13.000,11.998 13.000 C 21.144 13.000,20.376 13.026,20.701 12.701 C 21.092 12.310,21.092 11.690,20.701 11.299 C 20.376 10.973,21.147 11.000,11.983 11.003 C 5.003 11.005,3.797 11.014,3.664 11.063 M7.643 15.069 C 7.291 15.193,7.000 15.614,7.000 16.000 C 7.000 16.080,7.029 16.234,7.065 16.343 C 7.124 16.521,7.336 16.747,9.255 18.671 C 10.766 20.187,11.431 20.827,11.556 20.888 C 11.800 21.006,12.065 21.024,12.326 20.940 C 12.527 20.875,12.668 20.742,14.671 18.745 C 16.070 17.351,16.829 16.565,16.879 16.460 C 17.125 15.951,16.919 15.362,16.410 15.115 C 16.160 14.994,15.805 14.996,15.558 15.119 C 15.436 15.180,14.854 15.732,13.690 16.893 L 12.001 18.579 10.270 16.855 C 8.719 15.309,8.520 15.124,8.343 15.065 C 8.101 14.985,7.876 14.986,7.643 15.069 " fill="#000640" stroke="none" fill-rule="evenodd"></path></svg>