<svg xmlns="http://www.w3.org/2000/svg" width="24" height="24" fill="currentColor" class="mmi mmi-twoarrow-opposite-horizontal-v2" viewBox="0 0 24 24"><path d="M17.758 5.054 C 17.416 5.147,17.160 5.395,17.061 5.729 C 16.984 5.987,16.985 6.054,17.064 6.323 C 17.124 6.528,17.196 6.609,18.352 7.770 L 19.577 9.000 16.214 9.000 C 12.558 9.000,12.674 8.993,12.374 9.222 C 12.301 9.277,12.192 9.408,12.131 9.511 C 12.036 9.672,12.020 9.744,12.020 10.000 C 12.020 10.256,12.036 10.328,12.131 10.489 C 12.192 10.592,12.301 10.723,12.374 10.778 C 12.674 11.007,12.558 11.000,16.214 11.000 L 19.577 11.000 18.352 12.230 C 17.196 13.391,17.124 13.472,17.064 13.677 C 16.984 13.948,16.984 14.012,17.064 14.283 C 17.156 14.590,17.419 14.849,17.735 14.940 C 18.001 15.018,18.210 15.000,18.460 14.879 C 18.565 14.829,19.350 14.070,20.745 12.671 C 22.664 10.747,22.876 10.521,22.935 10.343 C 23.017 10.094,23.017 9.906,22.935 9.657 C 22.876 9.479,22.665 9.255,20.769 7.353 C 19.359 5.939,18.607 5.214,18.484 5.148 C 18.252 5.024,17.992 4.990,17.758 5.054 M5.800 9.037 C 5.723 9.053,5.588 9.104,5.500 9.150 C 5.405 9.200,4.488 10.090,3.235 11.347 C 1.336 13.254,1.124 13.479,1.065 13.657 C 0.983 13.906,0.983 14.094,1.065 14.343 C 1.124 14.521,1.336 14.747,3.255 16.671 C 4.650 18.070,5.435 18.829,5.540 18.879 C 5.790 19.000,5.999 19.018,6.265 18.940 C 6.581 18.849,6.844 18.590,6.936 18.283 C 7.016 18.012,7.016 17.948,6.936 17.677 C 6.876 17.472,6.804 17.391,5.648 16.230 L 4.423 15.000 7.784 15.000 C 11.570 15.000,11.388 15.014,11.701 14.701 C 12.092 14.310,12.092 13.690,11.701 13.299 C 11.388 12.986,11.570 13.000,7.784 13.000 L 4.423 13.000 5.648 11.770 C 6.804 10.609,6.876 10.528,6.936 10.323 C 7.015 10.053,7.016 9.987,6.938 9.725 C 6.797 9.252,6.277 8.937,5.800 9.037 " fill="#000640" stroke="none" fill-rule="evenodd"></path></svg>