<svg xmlns="http://www.w3.org/2000/svg" width="24" height="24" fill="currentColor" class="mmi mmi-twoarrow-opposite-vertical-v2" viewBox="0 0 24 24"><path d="M13.640 1.068 C 13.486 1.121,13.152 1.437,11.329 3.255 C 9.930 4.649,9.171 5.435,9.121 5.540 C 9.000 5.790,8.982 5.999,9.060 6.265 C 9.151 6.581,9.410 6.844,9.717 6.936 C 9.988 7.016,10.052 7.016,10.323 6.936 C 10.528 6.876,10.609 6.804,11.770 5.648 L 13.000 4.423 13.000 7.781 C 13.000 9.972,13.015 11.192,13.042 11.289 C 13.103 11.509,13.315 11.762,13.531 11.874 C 13.932 12.080,14.390 12.012,14.700 11.702 C 15.014 11.388,15.000 11.571,15.000 7.784 L 15.000 4.422 16.210 5.629 C 17.536 6.951,17.598 6.998,18.020 6.998 C 18.312 6.998,18.525 6.907,18.728 6.695 C 18.922 6.492,19.000 6.295,19.000 6.009 C 19.000 5.578,18.997 5.574,16.671 3.255 C 14.747 1.337,14.521 1.124,14.343 1.065 C 14.102 0.986,13.878 0.986,13.640 1.068 M9.664 12.063 C 9.436 12.146,9.257 12.297,9.131 12.511 L 9.020 12.700 9.009 16.138 L 8.998 19.576 7.809 18.392 C 7.021 17.608,6.560 17.178,6.442 17.119 C 6.195 16.996,5.840 16.994,5.590 17.115 C 5.081 17.362,4.875 17.951,5.121 18.460 C 5.171 18.565,5.930 19.350,7.329 20.745 C 9.253 22.664,9.479 22.876,9.657 22.935 C 9.766 22.971,9.920 23.000,10.000 23.000 C 10.080 23.000,10.234 22.971,10.343 22.935 C 10.521 22.876,10.747 22.664,12.671 20.745 C 14.070 19.350,14.829 18.565,14.879 18.460 C 15.125 17.951,14.919 17.362,14.410 17.115 C 14.160 16.994,13.805 16.996,13.558 17.119 C 13.439 17.178,12.985 17.602,12.190 18.393 L 11.000 19.579 11.000 16.217 C 11.000 12.430,11.014 12.612,10.701 12.299 C 10.429 12.027,10.018 11.933,9.664 12.063 " fill="#000640" stroke="none" fill-rule="evenodd"></path></svg>