<svg xmlns="http://www.w3.org/2000/svg" width="24" height="24" fill="currentColor" class="mmi mmi-twoarrow-collide-horizontal" viewBox="0 0 24 24"><path d="M5.758 7.054 C 5.416 7.147,5.160 7.395,5.061 7.729 C 4.984 7.987,4.985 8.054,5.064 8.323 C 5.124 8.528,5.196 8.609,6.352 9.770 L 7.577 11.000 4.714 11.000 C 1.604 11.000,1.671 10.996,1.374 11.222 C 1.301 11.277,1.192 11.408,1.131 11.511 C 1.036 11.672,1.020 11.744,1.020 12.000 C 1.020 12.256,1.036 12.328,1.131 12.489 C 1.192 12.592,1.301 12.723,1.374 12.778 C 1.671 13.004,1.604 13.000,4.714 13.000 L 7.578 13.000 6.371 14.210 C 5.049 15.536,5.002 15.598,5.002 16.020 C 5.002 16.312,5.093 16.525,5.305 16.728 C 5.508 16.922,5.705 17.000,5.991 17.000 C 6.422 17.000,6.426 16.997,8.745 14.671 C 10.663 12.747,10.876 12.521,10.935 12.343 C 11.017 12.094,11.017 11.906,10.935 11.657 C 10.876 11.479,10.665 11.255,8.769 9.353 C 7.359 7.939,6.607 7.214,6.484 7.148 C 6.252 7.024,5.992 6.990,5.758 7.054 M17.800 7.037 C 17.723 7.053,17.588 7.104,17.500 7.150 C 17.405 7.200,16.488 8.090,15.235 9.347 C 13.336 11.254,13.124 11.479,13.065 11.657 C 12.983 11.906,12.983 12.094,13.065 12.343 C 13.124 12.521,13.336 12.747,15.255 14.671 C 16.650 16.070,17.435 16.829,17.540 16.879 C 17.790 17.000,17.999 17.018,18.265 16.940 C 18.581 16.849,18.844 16.590,18.936 16.283 C 19.016 16.012,19.016 15.948,18.936 15.677 C 18.876 15.472,18.804 15.391,17.648 14.230 L 16.423 13.000 19.284 13.000 C 22.511 13.000,22.392 13.010,22.701 12.701 C 23.092 12.310,23.092 11.690,22.701 11.299 C 22.392 10.990,22.511 11.000,19.284 11.000 L 16.423 11.000 17.648 9.770 C 18.804 8.609,18.876 8.528,18.936 8.323 C 19.015 8.053,19.016 7.987,18.938 7.725 C 18.797 7.252,18.277 6.937,17.800 7.037 " fill="#000640" stroke="none" fill-rule="evenodd"></path></svg>