<svg xmlns="http://www.w3.org/2000/svg" width="24" height="24" fill="currentColor" class="mmi mmi-twoarrow-linecollide-vertical" viewBox="0 0 24 24"><path d="M7.758 3.054 C 7.409 3.149,7.158 3.397,7.056 3.748 C 6.982 4.001,7.002 4.214,7.121 4.460 C 7.171 4.565,7.930 5.350,9.329 6.745 C 11.253 8.664,11.479 8.876,11.657 8.935 C 11.906 9.017,12.094 9.017,12.343 8.935 C 12.521 8.876,12.747 8.663,14.671 6.745 C 17.006 4.417,17.001 4.423,16.999 3.982 C 16.998 3.669,16.903 3.462,16.661 3.249 C 16.449 3.062,16.278 3.000,15.980 3.001 C 15.590 3.002,15.542 3.042,13.710 4.871 L 12.000 6.579 10.310 4.893 C 9.250 3.836,8.560 3.179,8.460 3.129 C 8.244 3.023,7.978 2.994,7.758 3.054 M3.664 11.063 C 3.436 11.146,3.257 11.297,3.131 11.511 C 3.036 11.672,3.020 11.744,3.020 12.000 C 3.020 12.256,3.036 12.328,3.131 12.489 C 3.192 12.592,3.301 12.723,3.374 12.778 C 3.684 13.015,3.106 13.000,11.998 13.000 C 21.144 13.000,20.376 13.026,20.701 12.701 C 21.092 12.310,21.092 11.690,20.701 11.299 C 20.376 10.973,21.147 11.000,11.983 11.003 C 5.003 11.005,3.797 11.014,3.664 11.063 M11.640 15.068 C 11.486 15.121,11.152 15.437,9.329 17.255 C 7.930 18.649,7.171 19.435,7.121 19.540 C 7.000 19.790,6.982 19.999,7.060 20.265 C 7.151 20.581,7.410 20.844,7.717 20.936 C 7.987 21.016,8.052 21.016,8.323 20.936 C 8.531 20.876,8.614 20.799,10.270 19.147 L 12.000 17.422 13.730 19.146 C 15.281 20.691,15.480 20.876,15.657 20.935 C 16.047 21.064,16.423 20.979,16.702 20.700 C 17.004 20.398,17.077 19.948,16.888 19.556 C 16.827 19.431,16.187 18.766,14.671 17.255 C 12.747 15.336,12.521 15.124,12.343 15.065 C 12.102 14.986,11.878 14.986,11.640 15.068 " fill="#000640" stroke="none" fill-rule="evenodd"></path></svg>