<svg xmlns="http://www.w3.org/2000/svg" width="24" height="24" fill="currentColor" class="mmi mmi-twoarrow-collide-horizontal-v2" viewBox="0 0 24 24"><path d="M6.758 5.054 C 6.416 5.147,6.160 5.395,6.061 5.729 C 5.984 5.987,5.985 6.054,6.064 6.323 C 6.124 6.528,6.196 6.609,7.352 7.770 L 8.577 9.000 5.214 9.000 C 1.558 9.000,1.674 8.993,1.374 9.222 C 1.301 9.277,1.192 9.408,1.131 9.511 C 1.036 9.672,1.020 9.744,1.020 10.000 C 1.020 10.256,1.036 10.328,1.131 10.489 C 1.192 10.592,1.301 10.723,1.374 10.778 C 1.674 11.007,1.558 11.000,5.214 11.000 L 8.578 11.000 7.371 12.210 C 6.049 13.536,6.002 13.598,6.002 14.020 C 6.002 14.312,6.093 14.525,6.305 14.728 C 6.508 14.922,6.705 15.000,6.991 15.000 C 7.422 15.000,7.426 14.997,9.745 12.671 C 11.663 10.747,11.876 10.521,11.935 10.343 C 12.017 10.094,12.017 9.906,11.935 9.657 C 11.876 9.479,11.665 9.255,9.769 7.353 C 8.359 5.939,7.607 5.214,7.484 5.148 C 7.252 5.024,6.992 4.990,6.758 5.054 M16.800 9.037 C 16.723 9.053,16.588 9.104,16.500 9.150 C 16.405 9.200,15.488 10.090,14.235 11.347 C 12.336 13.254,12.124 13.479,12.065 13.657 C 11.983 13.906,11.983 14.094,12.065 14.343 C 12.124 14.521,12.336 14.747,14.255 16.671 C 15.650 18.070,16.435 18.829,16.540 18.879 C 16.790 19.000,16.999 19.018,17.265 18.940 C 17.581 18.849,17.844 18.590,17.936 18.283 C 18.016 18.012,18.016 17.948,17.936 17.677 C 17.876 17.472,17.804 17.391,16.648 16.230 L 15.423 15.000 18.784 15.000 C 22.570 15.000,22.388 15.014,22.701 14.701 C 23.092 14.310,23.092 13.690,22.701 13.299 C 22.388 12.986,22.570 13.000,18.784 13.000 L 15.423 13.000 16.648 11.770 C 17.804 10.609,17.876 10.528,17.936 10.323 C 18.015 10.053,18.016 9.987,17.938 9.725 C 17.797 9.252,17.277 8.937,16.800 9.037 " fill="#000640" stroke="none" fill-rule="evenodd"></path></svg>