<svg xmlns="http://www.w3.org/2000/svg" width="24" height="24" fill="currentColor" class="mmi mmi-twoarrow-shrink-vertical" viewBox="0 0 24 24"><path d="M7.758 4.054 C 7.409 4.149,7.158 4.397,7.056 4.748 C 6.982 5.001,7.002 5.214,7.121 5.460 C 7.171 5.565,7.930 6.350,9.329 7.745 C 11.253 9.664,11.479 9.876,11.657 9.935 C 11.906 10.017,12.094 10.017,12.343 9.935 C 12.521 9.876,12.747 9.664,14.671 7.745 C 16.070 6.350,16.829 5.565,16.879 5.460 C 17.125 4.951,16.919 4.362,16.410 4.115 C 16.160 3.994,15.805 3.996,15.558 4.119 C 15.436 4.180,14.854 4.732,13.690 5.893 L 12.000 7.579 10.310 5.894 C 9.250 4.836,8.560 4.179,8.460 4.129 C 8.244 4.023,7.978 3.994,7.758 4.054 M11.640 14.068 C 11.486 14.121,11.152 14.437,9.329 16.255 C 6.994 18.583,6.999 18.577,7.001 19.018 C 7.002 19.313,7.093 19.525,7.305 19.728 C 7.508 19.922,7.705 20.000,7.989 19.999 C 8.415 19.998,8.433 19.983,10.290 18.129 L 12.000 16.422 13.730 18.147 C 15.386 19.799,15.469 19.876,15.677 19.936 C 15.948 20.016,16.013 20.016,16.283 19.936 C 16.590 19.844,16.849 19.581,16.940 19.265 C 17.018 18.999,17.000 18.790,16.879 18.540 C 16.829 18.435,16.070 17.650,14.671 16.255 C 12.747 14.336,12.521 14.124,12.343 14.065 C 12.102 13.986,11.878 13.986,11.640 14.068 " fill="#000640" stroke="none" fill-rule="evenodd"></path></svg>