<svg xmlns="http://www.w3.org/2000/svg" width="24" height="24" fill="currentColor" class="mmi mmi-twoarrow-expand-vertical" viewBox="0 0 24 24"><path d="M11.640 3.068 C 11.486 3.121,11.152 3.437,9.329 5.255 C 7.930 6.649,7.171 7.435,7.121 7.540 C 7.000 7.790,6.982 7.999,7.060 8.265 C 7.151 8.581,7.410 8.844,7.717 8.936 C 7.987 9.016,8.052 9.016,8.323 8.936 C 8.531 8.876,8.614 8.799,10.270 7.147 L 12.000 5.422 13.710 7.129 C 15.574 8.990,15.584 8.998,16.020 8.998 C 16.312 8.998,16.525 8.907,16.728 8.695 C 16.922 8.492,17.000 8.295,17.000 8.009 C 17.000 7.578,16.997 7.574,14.671 5.255 C 12.747 3.337,12.521 3.124,12.343 3.065 C 12.102 2.986,11.878 2.986,11.640 3.068 M7.758 15.054 C 7.409 15.149,7.158 15.397,7.056 15.748 C 6.982 16.001,7.002 16.214,7.121 16.460 C 7.171 16.565,7.930 17.350,9.329 18.745 C 11.253 20.664,11.479 20.876,11.657 20.935 C 11.906 21.017,12.094 21.017,12.343 20.935 C 12.521 20.876,12.747 20.664,14.671 18.745 C 16.070 17.350,16.829 16.565,16.879 16.460 C 17.125 15.951,16.919 15.362,16.410 15.115 C 16.160 14.994,15.805 14.996,15.558 15.119 C 15.436 15.180,14.854 15.732,13.690 16.893 L 12.000 18.579 10.310 16.894 C 9.250 15.836,8.560 15.179,8.460 15.129 C 8.244 15.023,7.978 14.994,7.758 15.054 " fill="#000640" stroke="none" fill-rule="evenodd"></path></svg>