<svg xmlns="http://www.w3.org/2000/svg" width="24" height="24" fill="currentColor" class="mmi mmi-twoarrow-linecollide-horizontal" viewBox="0 0 24 24"><path d="M11.664 3.063 C 11.436 3.146,11.257 3.297,11.131 3.511 L 11.020 3.700 11.010 11.914 C 11.003 17.490,11.013 20.178,11.041 20.283 C 11.101 20.506,11.312 20.761,11.531 20.874 C 11.932 21.080,12.390 21.012,12.700 20.702 C 13.027 20.376,13.000 21.146,13.000 12.000 C 13.000 2.856,13.026 3.624,12.701 3.299 C 12.429 3.027,12.018 2.933,11.664 3.063 M3.758 7.054 C 3.416 7.147,3.160 7.395,3.061 7.729 C 2.984 7.987,2.985 8.054,3.064 8.323 C 3.124 8.531,3.201 8.614,4.853 10.270 L 6.578 12.000 4.853 13.730 C 3.201 15.386,3.124 15.469,3.064 15.677 C 2.984 15.948,2.984 16.013,3.064 16.283 C 3.156 16.590,3.419 16.849,3.735 16.940 C 4.001 17.018,4.210 17.000,4.460 16.879 C 4.565 16.829,5.350 16.070,6.745 14.671 C 8.664 12.747,8.876 12.521,8.935 12.343 C 9.017 12.094,9.017 11.906,8.935 11.657 C 8.876 11.479,8.665 11.255,6.769 9.353 C 5.359 7.939,4.607 7.214,4.484 7.148 C 4.252 7.024,3.992 6.990,3.758 7.054 M19.640 7.068 C 19.486 7.121,19.152 7.437,17.329 9.255 C 15.813 10.766,15.173 11.431,15.112 11.556 C 14.994 11.800,14.976 12.065,15.060 12.326 C 15.125 12.527,15.258 12.668,17.255 14.671 C 18.649 16.070,19.435 16.829,19.540 16.879 C 19.790 17.000,19.999 17.018,20.265 16.940 C 20.581 16.849,20.844 16.590,20.936 16.283 C 21.016 16.013,21.016 15.948,20.936 15.677 C 20.876 15.469,20.799 15.386,19.147 13.730 L 17.422 12.000 19.146 10.270 C 20.691 8.719,20.876 8.520,20.935 8.343 C 21.064 7.954,20.979 7.577,20.701 7.299 C 20.423 7.021,20.027 6.935,19.640 7.068 " fill="#000640" stroke="none" fill-rule="evenodd"></path></svg>