<svg xmlns="http://www.w3.org/2000/svg" width="24" height="24" fill="currentColor" class="mmi mmi-twoarrow-collide-vertical" viewBox="0 0 24 24"><path d="M11.664 1.063 C 11.436 1.146,11.257 1.297,11.131 1.511 L 11.020 1.700 11.009 4.638 L 10.998 7.576 9.809 6.392 C 9.021 5.608,8.560 5.178,8.442 5.119 C 8.195 4.996,7.840 4.994,7.590 5.115 C 7.081 5.362,6.875 5.951,7.121 6.460 C 7.171 6.565,7.930 7.350,9.329 8.745 C 11.253 10.664,11.479 10.876,11.657 10.935 C 11.906 11.017,12.094 11.017,12.343 10.935 C 12.521 10.876,12.747 10.664,14.671 8.745 C 16.070 7.350,16.829 6.565,16.879 6.460 C 17.125 5.951,16.919 5.362,16.410 5.115 C 16.160 4.994,15.805 4.996,15.558 5.119 C 15.439 5.178,14.985 5.602,14.190 6.393 L 13.000 7.579 13.000 4.717 C 13.000 1.489,13.010 1.608,12.701 1.299 C 12.429 1.027,12.018 0.933,11.664 1.063 M11.640 13.068 C 11.486 13.121,11.152 13.437,9.329 15.255 C 6.994 17.583,6.999 17.577,7.001 18.018 C 7.002 18.313,7.093 18.525,7.305 18.728 C 7.508 18.922,7.705 19.000,7.989 18.999 C 8.401 18.998,8.470 18.945,9.790 17.629 L 11.000 16.422 11.000 19.281 C 11.000 21.127,11.015 22.193,11.042 22.289 C 11.103 22.509,11.315 22.762,11.531 22.874 C 11.932 23.080,12.390 23.012,12.700 22.702 C 13.011 22.392,13.000 22.512,13.000 19.284 L 13.000 16.423 14.230 17.648 C 15.391 18.804,15.472 18.876,15.677 18.936 C 15.948 19.016,16.012 19.016,16.283 18.936 C 16.590 18.844,16.849 18.581,16.940 18.265 C 17.018 17.999,17.000 17.790,16.879 17.540 C 16.829 17.435,16.070 16.650,14.671 15.255 C 12.747 13.336,12.521 13.124,12.343 13.065 C 12.102 12.986,11.878 12.986,11.640 13.068 " fill="#000640" stroke="none" fill-rule="evenodd"></path></svg>