<svg xmlns="http://www.w3.org/2000/svg" width="24" height="24" fill="currentColor" class="mmi mmi-twosidearrow-horizontal" viewBox="0 0 24 24"><path d="M6.800 6.037 C 6.723 6.053,6.588 6.104,6.500 6.150 C 6.404 6.201,5.301 7.276,3.735 8.847 C 1.370 11.219,1.124 11.478,1.065 11.657 C 0.983 11.906,0.983 12.094,1.065 12.343 C 1.124 12.522,1.371 12.781,3.755 15.171 C 6.623 18.046,6.571 18.001,7.018 17.999 C 7.313 17.998,7.525 17.907,7.728 17.695 C 7.922 17.492,8.000 17.295,7.999 17.011 C 7.998 16.585,7.983 16.567,6.129 14.710 L 4.421 13.000 12.000 13.000 L 19.578 13.000 17.854 14.730 C 16.309 16.281,16.124 16.480,16.065 16.657 C 15.936 17.047,16.021 17.423,16.300 17.702 C 16.602 18.005,17.053 18.078,17.444 17.887 C 17.570 17.826,18.363 17.058,20.245 15.171 C 22.629 12.781,22.876 12.522,22.935 12.343 C 23.017 12.094,23.017 11.906,22.935 11.657 C 22.876 11.478,22.631 11.221,20.268 8.853 C 18.420 7.000,17.610 6.214,17.469 6.138 C 16.933 5.846,16.237 6.137,16.062 6.725 C 15.984 6.987,15.985 7.053,16.064 7.323 C 16.124 7.531,16.201 7.614,17.853 9.270 L 19.578 11.000 12.000 11.000 L 4.422 11.000 6.147 9.270 C 7.799 7.614,7.876 7.531,7.936 7.323 C 8.015 7.053,8.016 6.987,7.938 6.725 C 7.797 6.252,7.277 5.937,6.800 6.037 " fill="#000640" stroke="none" fill-rule="evenodd"></path></svg>