<svg xmlns="http://www.w3.org/2000/svg" width="24" height="24" fill="currentColor" class="mmi mmi-twosidearrow-diagonal-v2" viewBox="0 0 24 24"><path d="M4.664 4.063 C 4.436 4.146,4.257 4.297,4.131 4.511 L 4.020 4.700 4.009 8.413 C 4.002 10.908,4.012 12.176,4.040 12.281 C 4.101 12.506,4.312 12.761,4.531 12.874 C 4.932 13.080,5.390 13.012,5.700 12.702 C 6.006 12.396,6.000 12.454,6.000 9.783 L 6.000 7.420 11.280 12.700 L 16.560 17.980 14.149 18.000 L 11.738 18.020 11.539 18.122 C 10.767 18.520,10.853 19.648,11.678 19.939 C 11.827 19.992,12.337 20.000,15.498 20.000 C 19.604 20.000,19.387 20.015,19.701 19.701 C 20.015 19.387,20.000 19.604,20.000 15.500 C 20.000 11.396,20.015 11.613,19.701 11.299 C 19.234 10.832,18.470 10.935,18.131 11.511 L 18.020 11.700 18.000 14.130 L 17.980 16.560 12.700 11.280 L 7.420 6.000 9.783 6.000 C 12.453 6.000,12.396 6.006,12.701 5.701 C 13.092 5.310,13.092 4.690,12.701 4.299 C 12.386 3.984,12.606 4.000,8.483 4.003 C 5.408 4.005,4.795 4.015,4.664 4.063 " fill="#000640" stroke="none" fill-rule="evenodd"></path></svg>