<svg xmlns="http://www.w3.org/2000/svg" width="24" height="24" fill="currentColor" class="mmi mmi-twosidearrow-diagonal" viewBox="0 0 24 24"><path d="M11.664 4.063 C 11.303 4.195,11.051 4.514,11.013 4.888 C 10.970 5.307,11.174 5.690,11.539 5.878 L 11.738 5.980 14.149 6.000 L 16.560 6.020 11.280 11.300 L 6.000 16.580 6.000 14.217 C 6.000 11.546,6.006 11.604,5.700 11.298 C 5.390 10.988,4.932 10.920,4.531 11.126 C 4.312 11.239,4.101 11.494,4.040 11.719 C 4.012 11.824,4.002 13.092,4.009 15.587 L 4.020 19.300 4.131 19.489 C 4.192 19.592,4.301 19.723,4.374 19.778 C 4.675 20.008,4.531 20.000,8.498 20.000 C 12.604 20.000,12.387 20.015,12.701 19.701 C 13.092 19.310,13.092 18.690,12.701 18.299 C 12.396 17.994,12.453 18.000,9.783 18.000 L 7.420 18.000 12.700 12.720 L 17.980 7.440 18.000 9.870 L 18.020 12.300 18.131 12.489 C 18.470 13.065,19.234 13.168,19.701 12.701 C 20.015 12.387,20.000 12.604,20.000 8.500 C 20.000 4.396,20.015 4.613,19.701 4.299 C 19.386 3.984,19.606 4.000,15.483 4.003 C 12.408 4.005,11.795 4.015,11.664 4.063 " fill="#000640" stroke="none" fill-rule="evenodd"></path></svg>