<svg xmlns="http://www.w3.org/2000/svg" width="24" height="24" fill="currentColor" class="mmi mmi-twosidearrow-vertical" viewBox="0 0 24 24"><path d="M11.640 1.068 C 11.485 1.121,11.095 1.494,8.829 3.755 C 7.087 5.493,6.172 6.434,6.121 6.540 C 6.000 6.790,5.982 6.999,6.060 7.265 C 6.151 7.581,6.410 7.844,6.717 7.936 C 6.987 8.016,7.052 8.016,7.323 7.936 C 7.531 7.876,7.614 7.799,9.270 6.147 L 11.000 4.422 11.000 12.000 L 11.000 19.579 9.290 17.871 C 7.458 16.042,7.410 16.002,7.020 16.001 C 6.722 16.000,6.551 16.062,6.339 16.249 C 6.097 16.462,6.002 16.669,6.001 16.982 C 5.999 17.429,5.954 17.377,8.829 20.245 C 11.219 22.629,11.478 22.876,11.657 22.935 C 11.906 23.017,12.094 23.017,12.343 22.935 C 12.522 22.876,12.781 22.629,15.171 20.245 C 16.913 18.507,17.828 17.566,17.879 17.460 C 18.125 16.951,17.919 16.362,17.410 16.115 C 17.160 15.994,16.805 15.996,16.558 16.119 C 16.436 16.180,15.854 16.732,14.690 17.894 L 13.000 19.580 13.000 12.001 L 13.000 4.422 14.730 6.146 C 16.281 7.691,16.480 7.876,16.657 7.935 C 17.047 8.064,17.423 7.979,17.702 7.700 C 18.005 7.398,18.078 6.947,17.887 6.556 C 17.826 6.430,17.058 5.637,15.171 3.755 C 12.781 1.371,12.522 1.124,12.343 1.065 C 12.102 0.986,11.878 0.986,11.640 1.068 " fill="#000640" stroke="none" fill-rule="evenodd"></path></svg>