<svg xmlns="http://www.w3.org/2000/svg" width="24" height="24" fill="currentColor" class="mmi mmi-uarrow-leftdown" viewBox="0 0 24 24"><path d="M12.814 2.041 C 11.332 2.197,9.999 2.839,8.917 3.918 C 7.976 4.856,7.407 5.909,7.112 7.262 C 7.025 7.657,7.025 7.702,7.011 12.618 L 6.997 17.576 5.289 15.870 C 3.458 14.042,3.410 14.002,3.020 14.001 C 2.722 14.000,2.551 14.062,2.339 14.249 C 2.097 14.462,2.002 14.669,2.001 14.982 C 1.999 15.429,1.954 15.377,4.829 18.245 C 7.219 20.629,7.478 20.876,7.657 20.935 C 7.906 21.017,8.094 21.017,8.343 20.935 C 8.522 20.876,8.781 20.629,11.171 18.245 C 12.913 16.507,13.828 15.566,13.879 15.460 C 14.125 14.951,13.919 14.362,13.410 14.115 C 13.160 13.994,12.805 13.996,12.558 14.119 C 12.436 14.180,11.854 14.732,10.690 15.894 L 9.000 17.580 9.000 12.900 C 9.000 7.768,9.000 7.791,9.238 7.078 C 9.466 6.400,9.817 5.832,10.325 5.325 C 11.012 4.638,11.870 4.204,12.828 4.060 C 13.324 3.985,13.676 3.985,14.172 4.060 C 15.130 4.204,15.988 4.638,16.675 5.325 C 17.183 5.832,17.534 6.400,17.762 7.078 C 17.994 7.771,17.999 7.883,18.000 11.680 C 18.000 13.939,18.015 15.192,18.042 15.289 C 18.103 15.509,18.315 15.762,18.531 15.874 C 18.932 16.080,19.390 16.012,19.701 15.701 C 20.021 15.381,20.005 15.611,19.989 11.394 C 19.975 7.743,19.973 7.651,19.888 7.262 C 19.595 5.914,19.026 4.861,18.082 3.918 C 16.673 2.509,14.778 1.834,12.814 2.041 " fill="#000640" stroke="none" fill-rule="evenodd"></path></svg>