<svg xmlns="http://www.w3.org/2000/svg" width="24" height="24" fill="currentColor" class="mmi mmi-uarrow-upright" viewBox="0 0 24 24"><path d="M15.758 2.054 C 15.416 2.147,15.160 2.395,15.061 2.729 C 14.984 2.987,14.985 3.054,15.064 3.323 C 15.124 3.531,15.201 3.614,16.853 5.270 L 18.578 7.000 13.399 7.001 C 10.320 7.001,8.070 7.017,7.850 7.040 C 6.317 7.202,5.014 7.824,3.917 8.918 C 2.949 9.883,2.345 11.030,2.094 12.380 C 1.991 12.937,1.991 14.063,2.094 14.620 C 2.345 15.968,2.947 17.112,3.918 18.082 C 4.862 19.026,5.914 19.595,7.262 19.888 C 7.651 19.973,7.743 19.975,11.394 19.989 C 15.610 20.005,15.382 20.021,15.700 19.702 C 16.092 19.310,16.093 18.691,15.701 18.299 C 15.387 17.985,15.587 18.000,11.640 18.000 C 7.778 18.000,7.741 17.998,7.040 17.751 C 6.344 17.505,5.821 17.175,5.305 16.656 C 4.634 15.981,4.202 15.119,4.060 14.172 C 3.985 13.676,3.985 13.324,4.060 12.828 C 4.204 11.870,4.638 11.012,5.325 10.325 C 5.832 9.817,6.400 9.466,7.078 9.238 C 7.797 8.998,7.721 9.000,13.399 9.000 L 18.578 9.000 16.853 10.730 C 15.201 12.386,15.124 12.469,15.064 12.677 C 14.984 12.948,14.984 13.013,15.064 13.283 C 15.156 13.590,15.419 13.849,15.735 13.940 C 16.001 14.018,16.210 14.000,16.460 13.879 C 16.566 13.828,17.507 12.913,19.245 11.171 C 21.629 8.781,21.876 8.522,21.935 8.343 C 22.017 8.094,22.017 7.906,21.935 7.657 C 21.876 7.478,21.631 7.221,19.268 4.853 C 17.507 3.087,16.608 2.214,16.484 2.148 C 16.252 2.024,15.992 1.990,15.758 2.054 " fill="#000640" stroke="none" fill-rule="evenodd"></path></svg>