<svg xmlns="http://www.w3.org/2000/svg" width="24" height="24" fill="currentColor" class="mmi mmi-uarrow-rightdown" viewBox="0 0 24 24"><path d="M9.814 2.041 C 8.332 2.197,6.999 2.839,5.917 3.918 C 4.976 4.856,4.406 5.913,4.112 7.262 C 4.027 7.651,4.025 7.743,4.011 11.389 C 4.001 13.957,4.010 15.168,4.039 15.278 C 4.101 15.506,4.311 15.760,4.531 15.874 C 4.932 16.080,5.390 16.012,5.700 15.702 C 6.015 15.388,6.000 15.583,6.000 11.683 C 6.000 7.882,6.006 7.771,6.238 7.078 C 6.466 6.400,6.817 5.832,7.325 5.325 C 8.012 4.638,8.870 4.204,9.828 4.060 C 10.324 3.985,10.676 3.985,11.172 4.060 C 12.130 4.204,12.988 4.638,13.675 5.325 C 14.183 5.832,14.534 6.400,14.762 7.078 C 15.000 7.791,15.000 7.768,15.000 12.899 L 15.000 17.579 13.310 15.893 C 12.151 14.738,11.564 14.180,11.442 14.119 C 11.195 13.996,10.840 13.994,10.590 14.115 C 10.081 14.362,9.875 14.951,10.121 15.460 C 10.172 15.566,11.087 16.507,12.829 18.245 C 15.219 20.629,15.478 20.876,15.657 20.935 C 15.906 21.017,16.094 21.017,16.343 20.935 C 16.522 20.876,16.781 20.629,19.171 18.245 C 20.913 16.507,21.828 15.566,21.879 15.460 C 22.125 14.951,21.919 14.362,21.410 14.115 C 21.160 13.994,20.805 13.996,20.558 14.119 C 20.436 14.180,19.854 14.732,18.691 15.892 L 17.003 17.577 16.989 12.618 C 16.975 7.702,16.975 7.657,16.888 7.262 C 16.593 5.911,16.026 4.861,15.082 3.918 C 13.673 2.509,11.778 1.834,9.814 2.041 " fill="#000640" stroke="none" fill-rule="evenodd"></path></svg>