<svg xmlns="http://www.w3.org/2000/svg" width="24" height="24" fill="currentColor" class="mmi mmi-uarrow-rightup" viewBox="0 0 24 24"><path d="M15.640 3.068 C 15.485 3.121,15.095 3.494,12.829 5.755 C 9.954 8.623,9.999 8.571,10.001 9.018 C 10.002 9.313,10.093 9.525,10.305 9.728 C 10.508 9.922,10.705 10.000,10.989 9.999 C 11.415 9.998,11.433 9.983,13.290 8.129 L 15.000 6.421 15.000 11.101 C 15.000 16.232,15.000 16.209,14.762 16.922 C 13.967 19.292,11.375 20.574,9.040 19.751 C 8.344 19.505,7.821 19.175,7.305 18.656 C 6.813 18.161,6.463 17.591,6.238 16.922 C 6.006 16.229,6.000 16.118,6.000 12.317 C 6.000 8.417,6.015 8.612,5.700 8.298 C 5.390 7.988,4.932 7.920,4.531 8.126 C 4.311 8.240,4.101 8.494,4.039 8.722 C 4.010 8.832,4.001 10.043,4.011 12.611 C 4.025 16.257,4.027 16.349,4.112 16.738 C 4.405 18.086,4.974 19.138,5.918 20.082 C 6.888 21.053,8.032 21.655,9.380 21.906 C 9.937 22.009,11.063 22.009,11.620 21.906 C 12.968 21.655,14.112 21.053,15.082 20.082 C 16.026 19.139,16.593 18.089,16.888 16.738 C 16.975 16.343,16.975 16.298,16.989 11.382 L 17.003 6.425 18.731 8.149 C 20.386 9.799,20.469 9.876,20.677 9.936 C 20.948 10.016,21.013 10.016,21.283 9.936 C 21.590 9.844,21.849 9.581,21.940 9.265 C 22.018 8.999,22.000 8.790,21.879 8.540 C 21.828 8.434,20.913 7.493,19.171 5.755 C 16.781 3.371,16.522 3.124,16.343 3.065 C 16.102 2.986,15.878 2.986,15.640 3.068 " fill="#000640" stroke="none" fill-rule="evenodd"></path></svg>