<svg xmlns="http://www.w3.org/2000/svg" width="24" height="24" fill="currentColor" class="mmi mmi-uarrow-upleft" viewBox="0 0 24 24"><path d="M7.800 2.037 C 7.723 2.053,7.588 2.104,7.500 2.150 C 7.404 2.201,6.301 3.276,4.735 4.847 C 2.370 7.219,2.124 7.478,2.065 7.657 C 1.983 7.906,1.983 8.094,2.065 8.343 C 2.124 8.522,2.371 8.781,4.755 11.171 C 7.623 14.046,7.571 14.001,8.018 13.999 C 8.313 13.998,8.525 13.907,8.728 13.695 C 8.922 13.492,9.000 13.295,8.999 13.011 C 8.998 12.585,8.983 12.567,7.129 10.710 L 5.421 9.000 10.601 9.000 C 16.279 9.000,16.203 8.998,16.922 9.238 C 17.600 9.466,18.168 9.817,18.675 10.325 C 19.362 11.012,19.796 11.870,19.940 12.828 C 20.015 13.324,20.015 13.676,19.940 14.172 C 19.651 16.093,18.165 17.605,16.243 17.935 C 15.915 17.992,15.408 18.000,12.358 18.000 C 8.544 18.000,8.674 17.993,8.374 18.222 C 8.301 18.277,8.192 18.408,8.131 18.511 C 8.036 18.672,8.020 18.744,8.020 19.000 C 8.020 19.257,8.036 19.327,8.133 19.492 C 8.264 19.716,8.486 19.889,8.728 19.956 C 8.858 19.992,9.819 20.000,12.620 19.989 C 16.256 19.975,16.349 19.973,16.738 19.888 C 18.086 19.595,19.138 19.026,20.082 18.082 C 21.053 17.112,21.655 15.968,21.906 14.620 C 22.009 14.063,22.009 12.937,21.906 12.380 C 21.655 11.032,21.053 9.888,20.082 8.918 C 18.989 7.825,17.684 7.202,16.150 7.040 C 15.930 7.017,13.680 7.001,10.601 7.001 L 5.422 7.000 7.147 5.270 C 8.799 3.614,8.876 3.531,8.936 3.323 C 9.015 3.053,9.016 2.987,8.938 2.725 C 8.797 2.252,8.277 1.937,7.800 2.037 " fill="#000640" stroke="none" fill-rule="evenodd"></path></svg>