<svg xmlns="http://www.w3.org/2000/svg" width="24" height="24" fill="currentColor" class="mmi mmi-uarrow-leftup" viewBox="0 0 24 24"><path d="M7.640 3.068 C 7.485 3.121,7.095 3.494,4.829 5.755 C 3.087 7.493,2.172 8.434,2.121 8.540 C 2.000 8.790,1.982 8.999,2.060 9.265 C 2.151 9.581,2.410 9.844,2.717 9.936 C 2.987 10.016,3.052 10.016,3.323 9.936 C 3.531 9.876,3.614 9.799,5.269 8.149 L 6.997 6.425 7.011 11.382 C 7.025 16.298,7.025 16.343,7.112 16.738 C 7.407 18.089,7.974 19.139,8.918 20.082 C 9.888 21.053,11.032 21.655,12.380 21.906 C 12.937 22.009,14.063 22.009,14.620 21.906 C 15.968 21.655,17.112 21.053,18.082 20.082 C 19.026 19.138,19.595 18.086,19.888 16.738 C 19.973 16.349,19.975 16.257,19.989 12.606 C 20.005 8.389,20.021 8.619,19.701 8.299 C 19.390 7.988,18.932 7.920,18.531 8.126 C 18.315 8.238,18.103 8.491,18.042 8.711 C 18.015 8.808,18.000 10.061,18.000 12.320 C 17.999 16.117,17.994 16.229,17.762 16.922 C 16.967 19.292,14.375 20.574,12.040 19.751 C 11.344 19.505,10.821 19.175,10.305 18.656 C 9.813 18.161,9.463 17.591,9.238 16.922 C 9.000 16.209,9.000 16.231,9.000 11.101 L 9.000 6.422 10.730 8.147 C 12.386 9.799,12.469 9.876,12.677 9.936 C 12.948 10.016,13.013 10.016,13.283 9.936 C 13.590 9.844,13.849 9.581,13.940 9.265 C 14.018 8.999,14.000 8.790,13.879 8.540 C 13.828 8.434,12.913 7.493,11.171 5.755 C 8.781 3.371,8.522 3.124,8.343 3.065 C 8.102 2.986,7.878 2.986,7.640 3.068 " fill="#000640" stroke="none" fill-rule="evenodd"></path></svg>