<svg xmlns="http://www.w3.org/2000/svg" width="24" height="24" fill="currentColor" class="mmi mmi-uarrow-downleft" viewBox="0 0 24 24"><path d="M8.664 4.063 C 8.436 4.146,8.257 4.297,8.131 4.511 C 8.036 4.672,8.020 4.744,8.020 5.000 C 8.020 5.256,8.036 5.328,8.131 5.489 C 8.192 5.592,8.301 5.723,8.374 5.778 C 8.674 6.007,8.548 6.000,12.315 6.000 C 16.118 6.000,16.229 6.006,16.922 6.238 C 17.600 6.466,18.168 6.817,18.675 7.325 C 19.362 8.012,19.796 8.870,19.940 9.828 C 20.015 10.324,20.015 10.676,19.940 11.172 C 19.651 13.093,18.165 14.605,16.243 14.935 C 15.909 14.993,15.273 15.000,10.644 15.000 L 5.421 15.000 7.129 13.290 C 8.990 11.426,8.998 11.416,8.998 10.980 C 8.998 10.669,8.903 10.462,8.661 10.249 C 8.449 10.062,8.279 10.001,7.978 10.000 C 7.577 10.000,7.579 9.998,4.755 12.829 C 2.371 15.219,2.124 15.478,2.065 15.657 C 1.983 15.906,1.983 16.094,2.065 16.343 C 2.124 16.522,2.371 16.781,4.755 19.171 C 6.493 20.913,7.434 21.828,7.540 21.879 C 7.790 22.000,7.999 22.018,8.265 21.940 C 8.581 21.849,8.844 21.590,8.936 21.283 C 9.016 21.013,9.016 20.948,8.936 20.677 C 8.876 20.469,8.799 20.386,7.149 18.731 L 5.425 17.002 10.882 16.989 C 16.315 16.976,16.342 16.975,16.738 16.888 C 18.090 16.592,19.139 16.026,20.082 15.082 C 20.866 14.299,21.362 13.491,21.691 12.460 C 21.917 11.752,21.980 11.325,21.980 10.500 C 21.980 9.675,21.917 9.248,21.691 8.540 C 21.362 7.509,20.866 6.701,20.082 5.918 C 18.989 4.825,17.684 4.202,16.150 4.040 C 15.938 4.018,14.298 4.002,12.300 4.004 C 9.383 4.005,8.795 4.015,8.664 4.063 " fill="#000640" stroke="none" fill-rule="evenodd"></path></svg>