<svg xmlns="http://www.w3.org/2000/svg" width="24" height="24" fill="currentColor" class="mmi mmi-uarrow-downright" viewBox="0 0 24 24"><path d="M7.814 4.041 C 6.332 4.197,4.999 4.839,3.917 5.918 C 2.949 6.883,2.345 8.030,2.094 9.380 C 1.991 9.937,1.991 11.063,2.094 11.620 C 2.345 12.968,2.947 14.112,3.918 15.082 C 4.861 16.026,5.910 16.592,7.262 16.888 C 7.658 16.975,7.685 16.976,13.118 16.989 L 18.575 17.002 16.851 18.731 C 15.201 20.386,15.124 20.469,15.064 20.677 C 14.984 20.948,14.984 21.013,15.064 21.283 C 15.156 21.590,15.419 21.849,15.735 21.940 C 16.001 22.018,16.210 22.000,16.460 21.879 C 16.566 21.828,17.507 20.913,19.245 19.171 C 21.629 16.781,21.876 16.522,21.935 16.343 C 22.017 16.094,22.017 15.906,21.935 15.657 C 21.876 15.478,21.631 15.221,19.268 12.853 C 17.420 11.000,16.610 10.214,16.469 10.138 C 15.933 9.846,15.237 10.137,15.062 10.725 C 14.984 10.987,14.985 11.053,15.064 11.323 C 15.124 11.531,15.201 11.614,16.853 13.270 L 18.578 15.000 13.356 15.000 C 7.601 15.000,7.766 15.007,7.040 14.751 C 6.344 14.505,5.821 14.175,5.305 13.656 C 4.634 12.981,4.202 12.119,4.060 11.172 C 3.985 10.676,3.985 10.324,4.060 9.828 C 4.204 8.870,4.638 8.012,5.325 7.325 C 5.832 6.817,6.400 6.466,7.078 6.238 C 7.771 6.006,7.882 6.000,11.683 6.000 C 15.582 6.000,15.388 6.014,15.701 5.701 C 16.092 5.310,16.092 4.690,15.701 4.299 C 15.387 3.985,15.591 3.999,11.623 4.005 C 9.685 4.008,7.971 4.024,7.814 4.041 " fill="#000640" stroke="none" fill-rule="evenodd"></path></svg>