<svg xmlns="http://www.w3.org/2000/svg" width="24" height="24" fill="currentColor" class="mmi mmi-umbrella" viewBox="0 0 24 24"><path d="M11.220 1.023 C 11.132 1.032,10.863 1.058,10.621 1.082 C 7.790 1.356,5.082 2.614,3.308 4.478 C 1.983 5.870,1.223 7.475,1.037 9.273 C 0.948 10.128,1.036 10.520,1.374 10.778 C 1.678 11.010,1.444 11.000,6.424 11.000 L 10.998 11.000 11.010 15.770 C 11.024 21.091,11.000 20.648,11.312 21.296 C 11.614 21.924,12.095 22.398,12.740 22.704 C 13.127 22.887,13.607 23.000,14.000 23.000 C 14.860 23.000,15.780 22.555,16.330 21.873 C 16.845 21.233,17.123 20.215,16.934 19.660 C 16.808 19.291,16.396 19.000,16.000 19.000 C 15.473 19.000,15.000 19.473,15.000 20.000 C 15.000 20.566,14.477 21.044,13.917 20.991 C 13.522 20.953,13.141 20.647,13.042 20.289 C 13.014 20.190,13.000 18.595,13.000 15.570 L 13.000 11.000 17.573 11.000 C 22.714 11.000,22.383 11.019,22.701 10.701 C 22.992 10.410,23.052 10.062,22.957 9.208 C 22.698 6.876,21.428 4.814,19.300 3.272 C 17.669 2.089,15.664 1.341,13.420 1.079 C 13.044 1.035,11.497 0.996,11.220 1.023 M9.360 3.336 C 9.360 3.346,9.219 3.551,9.046 3.792 C 8.247 4.908,7.645 6.193,7.319 7.480 C 7.219 7.875,7.166 8.151,7.056 8.870 L 7.036 9.000 5.073 9.000 L 3.110 9.000 3.137 8.830 C 3.186 8.519,3.440 7.830,3.663 7.402 C 4.605 5.594,6.439 4.178,8.760 3.465 C 9.189 3.333,9.360 3.297,9.360 3.336 M15.460 3.538 C 16.916 4.017,18.121 4.745,19.100 5.735 C 19.644 6.286,20.017 6.788,20.337 7.402 C 20.560 7.830,20.814 8.519,20.863 8.830 L 20.890 9.000 18.927 9.000 L 16.964 9.000 16.943 8.870 C 16.827 8.124,16.782 7.884,16.697 7.540 C 16.358 6.180,15.705 4.801,14.860 3.658 C 14.739 3.495,14.640 3.350,14.640 3.336 C 14.640 3.292,14.927 3.363,15.460 3.538 M12.388 3.790 C 13.733 5.273,14.571 6.880,14.861 8.528 C 14.894 8.710,14.920 8.892,14.920 8.930 C 14.920 8.996,14.754 9.000,12.000 9.000 L 9.080 9.000 9.080 8.904 C 9.080 8.852,9.116 8.628,9.161 8.407 C 9.492 6.755,10.294 5.244,11.612 3.790 C 11.806 3.576,11.981 3.400,12.000 3.400 C 12.019 3.400,12.194 3.576,12.388 3.790 " fill="#000640" stroke="none" fill-rule="evenodd"></path></svg>