<svg xmlns="http://www.w3.org/2000/svg" width="24" height="24" fill="currentColor" class="mmi mmi-underwear" viewBox="0 0 24 24"><path d="M2.664 3.063 C 2.438 3.146,2.257 3.297,2.136 3.503 C 2.036 3.674,2.004 3.893,1.514 7.792 C 1.229 10.051,1.004 11.985,1.012 12.089 C 1.033 12.343,1.189 12.633,1.386 12.782 C 1.475 12.850,1.717 12.964,1.924 13.036 C 4.199 13.828,5.994 15.190,7.379 17.177 C 7.935 17.974,8.591 19.193,8.984 20.160 C 9.094 20.429,9.187 20.588,9.302 20.704 C 9.600 21.003,9.575 21.000,12.000 21.000 C 14.425 21.000,14.400 21.003,14.698 20.704 C 14.813 20.588,14.907 20.428,15.016 20.160 C 15.224 19.651,15.705 18.664,15.961 18.220 C 16.537 17.223,17.112 16.451,17.839 15.705 C 19.041 14.470,20.303 13.678,22.119 13.017 C 22.633 12.830,22.833 12.656,22.946 12.299 L 23.018 12.069 22.503 7.945 C 22.220 5.676,21.961 3.740,21.928 3.643 C 21.848 3.407,21.585 3.150,21.340 3.066 C 21.161 3.005,20.411 3.000,11.983 3.003 C 4.135 3.005,2.798 3.014,2.664 3.063 M7.880 5.044 C 7.880 5.151,6.993 13.661,6.980 13.673 C 6.973 13.681,6.805 13.553,6.609 13.390 C 5.744 12.670,4.819 12.100,3.700 11.596 C 3.160 11.353,3.101 11.317,3.110 11.233 C 3.116 11.182,3.291 9.768,3.500 8.092 C 3.709 6.415,3.880 5.034,3.880 5.022 C 3.880 5.010,4.780 5.000,5.880 5.000 C 7.295 5.000,7.880 5.013,7.880 5.044 M14.649 10.360 C 14.953 13.297,15.188 15.721,15.171 15.746 C 15.154 15.772,14.984 16.024,14.794 16.306 C 14.370 16.935,13.852 17.860,13.559 18.511 L 13.340 18.998 11.999 18.999 L 10.658 19.000 10.611 18.876 C 10.565 18.755,10.572 18.742,10.864 18.406 C 12.231 16.834,12.657 14.995,12.064 13.227 C 11.675 12.070,10.767 11.008,9.685 10.445 L 9.352 10.272 9.375 10.106 C 9.388 10.015,9.508 8.869,9.641 7.560 C 9.774 6.251,9.891 5.139,9.902 5.090 L 9.922 4.999 12.009 5.010 L 14.097 5.020 14.649 10.360 M20.120 5.022 C 20.120 5.034,20.291 6.415,20.500 8.092 C 20.709 9.768,20.884 11.182,20.890 11.233 C 20.899 11.317,20.840 11.353,20.300 11.595 C 19.191 12.092,18.259 12.667,17.391 13.390 C 17.195 13.553,17.028 13.681,17.020 13.674 C 17.008 13.661,16.120 5.149,16.120 5.044 C 16.120 5.013,16.688 5.000,18.120 5.000 C 19.220 5.000,20.120 5.010,20.120 5.022 M9.342 12.620 C 9.750 12.954,10.142 13.644,10.262 14.239 C 10.342 14.632,10.324 15.193,10.221 15.580 C 10.142 15.875,9.894 16.393,9.706 16.655 L 9.567 16.850 9.342 16.501 C 9.218 16.309,9.045 16.055,8.957 15.937 L 8.798 15.721 8.959 14.174 C 9.048 13.323,9.120 12.594,9.120 12.554 C 9.120 12.452,9.147 12.460,9.342 12.620 " fill="#000640" stroke="none" fill-rule="evenodd"></path></svg>