<svg xmlns="http://www.w3.org/2000/svg" width="24" height="24" fill="currentColor" class="mmi mmi-upload" viewBox="0 0 24 24"><path d="M11.640 1.068 C 11.485 1.121,11.095 1.494,8.829 3.755 C 6.942 5.637,6.174 6.430,6.113 6.556 C 5.922 6.947,5.995 7.398,6.298 7.700 C 6.577 7.979,6.953 8.064,7.343 7.935 C 7.520 7.876,7.719 7.691,9.270 6.146 L 11.000 4.422 11.000 10.281 C 11.000 14.194,11.014 16.189,11.042 16.289 C 11.103 16.509,11.315 16.762,11.531 16.874 C 11.932 17.080,12.390 17.012,12.700 16.702 C 13.023 16.379,13.000 16.870,13.000 10.284 L 13.000 4.422 14.730 6.147 C 16.386 7.799,16.469 7.876,16.677 7.936 C 16.948 8.016,17.013 8.016,17.283 7.936 C 17.590 7.844,17.849 7.581,17.940 7.265 C 18.018 6.999,18.000 6.790,17.879 6.540 C 17.828 6.434,16.913 5.493,15.171 3.755 C 12.781 1.371,12.522 1.124,12.343 1.065 C 12.102 0.986,11.878 0.986,11.640 1.068 M1.643 15.069 C 1.402 15.154,1.147 15.418,1.063 15.670 C 1.002 15.853,0.997 16.101,1.010 18.207 C 1.026 20.800,1.014 20.678,1.312 21.296 C 1.614 21.924,2.095 22.398,2.740 22.704 C 3.409 23.021,2.760 23.000,12.000 23.000 C 21.240 23.000,20.591 23.021,21.260 22.704 C 21.920 22.391,22.391 21.920,22.704 21.260 C 22.990 20.655,23.000 20.548,23.000 18.043 C 23.000 15.568,23.004 15.602,22.701 15.299 C 22.310 14.908,21.690 14.908,21.299 15.299 C 20.997 15.601,21.000 15.573,21.000 18.000 C 21.000 20.427,21.003 20.399,20.701 20.701 C 20.376 21.026,21.144 21.000,11.998 21.000 C 3.106 21.000,3.684 21.015,3.374 20.778 C 3.301 20.723,3.192 20.592,3.131 20.489 L 3.020 20.300 3.000 18.020 L 2.980 15.740 2.886 15.550 C 2.665 15.101,2.134 14.895,1.643 15.069 " fill="#000640" stroke="none" fill-rule="evenodd"></path></svg>