<svg xmlns="http://www.w3.org/2000/svg" width="24" height="24" fill="currentColor" class="mmi mmi-usbmale" viewBox="0 0 24 24"><path d="M8.503 1.042 C 7.569 1.202,6.727 1.840,6.312 2.704 C 6.014 3.322,6.026 3.197,6.010 5.812 L 5.996 8.165 5.816 8.242 C 5.129 8.536,4.511 9.172,4.224 9.878 C 4.004 10.420,3.995 10.561,4.010 13.347 C 4.025 16.171,4.016 16.069,4.295 16.660 C 4.489 17.072,8.245 22.690,8.400 22.800 C 8.681 23.000,8.674 23.000,12.000 23.000 C 15.326 23.000,15.319 23.000,15.600 22.800 C 15.755 22.690,19.511 17.072,19.705 16.660 C 19.984 16.069,19.975 16.169,19.990 13.369 C 20.005 10.603,19.993 10.411,19.777 9.881 C 19.487 9.168,18.891 8.555,18.190 8.248 L 18.000 8.164 18.000 5.967 C 18.000 3.451,17.990 3.345,17.704 2.740 C 17.398 2.095,16.924 1.614,16.296 1.312 C 15.658 1.005,15.932 1.024,12.120 1.016 C 10.239 1.011,8.611 1.023,8.503 1.042 M15.340 3.066 C 15.593 3.153,15.847 3.407,15.934 3.660 C 15.992 3.831,16.000 4.103,16.000 5.927 L 16.000 8.000 11.999 8.000 L 7.997 8.000 8.009 5.850 L 8.020 3.700 8.131 3.511 C 8.256 3.298,8.449 3.136,8.670 3.057 C 8.790 3.014,9.445 3.003,11.983 3.002 C 14.825 3.000,15.165 3.007,15.340 3.066 M9.252 4.078 C 9.030 4.213,9.000 4.325,9.000 5.000 C 9.000 5.675,9.030 5.787,9.252 5.922 C 9.364 5.990,9.455 6.000,10.000 6.000 C 10.545 6.000,10.636 5.990,10.748 5.922 C 10.970 5.786,11.000 5.676,11.000 4.992 C 11.000 4.456,10.990 4.364,10.922 4.252 C 10.786 4.030,10.676 4.000,9.992 4.000 C 9.456 4.000,9.364 4.010,9.252 4.078 M13.252 4.078 C 13.030 4.213,13.000 4.325,13.000 5.000 C 13.000 5.675,13.030 5.787,13.252 5.922 C 13.364 5.990,13.455 6.000,14.000 6.000 C 14.545 6.000,14.636 5.990,14.748 5.922 C 14.970 5.786,15.000 5.676,15.000 4.992 C 15.000 4.456,14.990 4.364,14.922 4.252 C 14.786 4.030,14.676 4.000,13.992 4.000 C 13.456 4.000,13.364 4.010,13.252 4.078 M17.340 10.066 C 17.593 10.153,17.847 10.407,17.934 10.660 C 17.992 10.832,18.000 11.122,18.000 13.202 C 18.000 15.118,17.990 15.579,17.944 15.709 C 17.913 15.797,17.118 17.023,16.177 18.434 L 14.467 21.000 12.000 21.000 L 9.533 21.000 7.809 18.410 C 6.814 16.915,6.066 15.752,6.040 15.660 C 6.009 15.547,5.999 14.789,6.008 13.100 L 6.020 10.700 6.131 10.511 C 6.256 10.298,6.449 10.136,6.670 10.057 C 6.792 10.013,7.774 10.003,11.983 10.002 C 16.686 10.000,17.163 10.006,17.340 10.066 " fill="#000640" stroke="none" fill-rule="evenodd"></path></svg>