<svg xmlns="http://www.w3.org/2000/svg" width="24" height="24" fill="currentColor" class="mmi mmi-usbport-type-c" viewBox="0 0 24 24"><path d="M5.340 7.046 C 4.642 7.135,3.813 7.452,3.192 7.868 C 2.805 8.127,2.289 8.622,1.994 9.016 C 1.683 9.433,1.309 10.196,1.180 10.680 C 0.955 11.526,0.955 12.474,1.180 13.320 C 1.309 13.802,1.682 14.566,1.992 14.981 C 2.800 16.062,4.062 16.794,5.399 16.958 C 5.865 17.016,18.135 17.016,18.601 16.958 C 19.369 16.864,20.154 16.568,20.824 16.119 C 21.229 15.848,21.848 15.229,22.119 14.824 C 23.283 13.085,23.283 10.915,22.119 9.176 C 21.848 8.771,21.229 8.152,20.824 7.881 C 20.154 7.432,19.369 7.136,18.601 7.042 C 18.178 6.990,5.749 6.994,5.340 7.046 M18.581 9.062 C 19.182 9.186,19.669 9.445,20.096 9.868 C 21.808 11.564,20.946 14.450,18.581 14.938 C 18.321 14.992,17.500 15.000,12.000 15.000 C 5.123 15.000,5.449 15.011,4.849 14.766 C 4.143 14.479,3.521 13.857,3.234 13.151 C 2.928 12.400,2.928 11.600,3.234 10.849 C 3.521 10.142,4.143 9.521,4.851 9.233 C 5.433 8.996,5.101 9.007,11.972 9.003 C 17.505 9.000,18.320 9.008,18.581 9.062 M5.664 11.063 C 5.436 11.146,5.257 11.297,5.131 11.511 C 5.036 11.672,5.020 11.744,5.020 12.000 C 5.020 12.256,5.036 12.328,5.131 12.489 C 5.192 12.592,5.301 12.723,5.374 12.778 C 5.682 13.013,5.296 13.000,11.998 13.000 C 18.903 13.000,18.379 13.023,18.701 12.701 C 19.092 12.310,19.092 11.690,18.701 11.299 C 18.379 10.976,18.906 11.000,11.983 11.003 C 6.739 11.005,5.797 11.014,5.664 11.063 " fill="#000640" stroke="none" fill-rule="evenodd"></path></svg>