<svg xmlns="http://www.w3.org/2000/svg" width="24" height="24" fill="currentColor" class="mmi mmi-user-remove-v3" viewBox="0 0 24 24"><path d="M8.200 1.058 C 7.483 1.161,6.933 1.332,6.320 1.640 C 4.658 2.475,3.527 3.951,3.111 5.830 C 2.986 6.395,2.986 7.605,3.111 8.170 C 3.651 10.608,5.393 12.350,7.826 12.887 C 8.397 13.013,9.603 13.013,10.174 12.887 C 12.605 12.351,14.351 10.605,14.887 8.174 C 15.013 7.603,15.013 6.397,14.887 5.826 C 14.341 3.351,12.474 1.529,10.041 1.097 C 9.552 1.010,8.660 0.991,8.200 1.058 M9.958 3.120 C 10.621 3.282,11.329 3.683,11.823 4.177 C 12.321 4.675,12.716 5.376,12.887 6.062 C 13.013 6.571,13.013 7.429,12.887 7.938 C 12.531 9.369,11.434 10.486,10.005 10.871 C 9.669 10.962,9.542 10.975,9.000 10.975 C 8.458 10.975,8.331 10.962,7.995 10.871 C 7.054 10.617,6.240 10.046,5.712 9.269 C 5.471 8.913,5.214 8.341,5.113 7.938 C 4.987 7.429,4.987 6.571,5.113 6.062 C 5.215 5.654,5.470 5.088,5.722 4.715 C 6.304 3.853,7.337 3.215,8.433 3.040 C 8.783 2.984,9.572 3.026,9.958 3.120 M16.680 9.539 C 16.135 9.715,15.848 10.358,16.083 10.880 C 16.141 11.010,16.433 11.330,17.131 12.030 L 18.099 13.000 17.131 13.970 C 16.074 15.029,16.002 15.128,16.001 15.525 C 15.998 16.249,16.792 16.730,17.440 16.397 C 17.517 16.358,18.003 15.901,18.520 15.383 C 19.037 14.864,19.478 14.440,19.500 14.440 C 19.522 14.440,19.955 14.856,20.460 15.364 C 21.146 16.053,21.431 16.313,21.580 16.384 C 22.216 16.687,22.960 16.230,22.972 15.527 C 22.979 15.098,22.957 15.067,21.886 13.990 L 20.902 13.000 21.886 12.010 C 22.957 10.933,22.979 10.902,22.972 10.473 C 22.960 9.770,22.216 9.313,21.580 9.616 C 21.431 9.687,21.146 9.947,20.460 10.636 C 19.955 11.144,19.522 11.560,19.500 11.560 C 19.478 11.560,19.037 11.136,18.520 10.617 C 18.003 10.099,17.514 9.640,17.433 9.598 C 17.231 9.493,16.903 9.467,16.680 9.539 M8.240 14.024 C 7.210 14.115,6.488 14.250,5.787 14.484 C 3.974 15.090,2.555 16.322,1.760 17.980 C 1.431 18.666,1.352 18.927,1.330 19.400 C 1.295 20.149,1.488 20.648,2.020 21.183 C 2.273 21.439,2.413 21.542,2.680 21.673 C 3.355 22.004,2.862 21.980,9.000 21.980 C 15.138 21.980,14.645 22.004,15.320 21.673 C 15.587 21.542,15.727 21.439,15.980 21.183 C 16.512 20.648,16.705 20.149,16.670 19.400 C 16.648 18.927,16.569 18.666,16.240 17.980 C 15.199 15.810,13.202 14.460,10.498 14.100 C 10.040 14.038,8.617 13.991,8.240 14.024 M10.100 16.060 C 12.281 16.312,13.784 17.329,14.540 19.062 C 14.717 19.466,14.721 19.634,14.560 19.786 C 14.494 19.849,14.382 19.921,14.310 19.947 C 14.121 20.015,3.938 20.021,3.710 19.952 C 3.622 19.926,3.497 19.851,3.431 19.785 C 3.325 19.679,3.313 19.644,3.329 19.480 C 3.340 19.369,3.427 19.128,3.548 18.877 C 4.215 17.495,5.332 16.627,6.960 16.223 C 7.827 16.009,9.088 15.943,10.100 16.060 " fill="#000640" stroke="none" fill-rule="evenodd"></path></svg>