<svg xmlns="http://www.w3.org/2000/svg" width="24" height="24" fill="currentColor" class="mmi mmi-user-add" viewBox="0 0 24 24"><path d="M10.200 1.058 C 9.483 1.161,8.933 1.332,8.320 1.640 C 6.658 2.475,5.527 3.951,5.111 5.830 C 4.986 6.395,4.986 7.605,5.111 8.170 C 5.651 10.608,7.393 12.350,9.826 12.887 C 10.397 13.013,11.603 13.013,12.174 12.887 C 14.605 12.351,16.351 10.605,16.887 8.174 C 17.013 7.603,17.013 6.397,16.887 5.826 C 16.341 3.351,14.474 1.529,12.041 1.097 C 11.552 1.010,10.660 0.991,10.200 1.058 M11.958 3.120 C 12.621 3.282,13.329 3.683,13.823 4.177 C 14.321 4.675,14.716 5.376,14.887 6.062 C 15.013 6.571,15.013 7.429,14.887 7.938 C 14.531 9.369,13.434 10.486,12.005 10.871 C 11.669 10.962,11.542 10.975,11.000 10.975 C 10.458 10.975,10.331 10.962,9.995 10.871 C 9.054 10.617,8.240 10.046,7.712 9.269 C 7.471 8.913,7.214 8.341,7.113 7.938 C 6.987 7.429,6.987 6.571,7.113 6.062 C 7.215 5.654,7.470 5.088,7.722 4.715 C 8.304 3.853,9.337 3.215,10.433 3.040 C 10.783 2.984,11.572 3.026,11.958 3.120 M16.200 12.058 C 14.140 12.356,12.476 13.579,11.577 15.455 C 11.182 16.279,11.024 17.009,11.024 18.000 C 11.024 18.991,11.182 19.721,11.577 20.545 C 12.439 22.344,14.016 23.549,15.980 23.909 C 16.468 23.999,17.532 23.999,18.020 23.909 C 19.662 23.608,21.079 22.685,21.986 21.325 C 22.661 20.312,22.975 19.257,22.975 18.000 C 22.975 17.006,22.817 16.279,22.423 15.455 C 21.564 13.663,19.967 12.439,18.041 12.097 C 17.552 12.010,16.660 11.991,16.200 12.058 M18.038 14.138 C 20.074 14.700,21.334 16.728,20.917 18.774 C 20.542 20.618,19.024 21.910,17.140 21.988 C 15.282 22.065,13.639 20.848,13.132 19.017 C 13.034 18.663,13.022 18.553,13.022 18.000 C 13.022 17.449,13.034 17.337,13.130 16.989 C 13.565 15.421,14.764 14.338,16.397 14.038 C 16.498 14.019,16.823 14.011,17.120 14.019 C 17.545 14.031,17.741 14.056,18.038 14.138 M8.640 14.147 C 6.996 14.416,6.179 14.652,5.120 15.165 C 3.807 15.800,2.857 16.605,2.115 17.713 C 1.609 18.469,1.361 19.096,1.361 19.620 C 1.361 20.125,1.587 20.703,1.942 21.109 C 2.159 21.358,2.628 21.680,2.948 21.800 C 3.461 21.993,3.591 22.000,6.456 22.000 C 9.491 22.000,9.393 22.009,9.701 21.701 C 10.092 21.310,10.092 20.690,9.701 20.299 C 9.393 19.991,9.487 20.000,6.492 20.000 C 3.631 20.000,3.676 20.003,3.451 19.791 C 3.331 19.679,3.336 19.605,3.486 19.309 C 3.836 18.614,4.513 17.861,5.196 17.406 C 6.132 16.782,7.385 16.346,8.840 16.138 C 9.402 16.058,9.640 15.945,9.808 15.681 C 10.159 15.128,9.987 14.478,9.422 14.215 C 9.226 14.124,8.936 14.099,8.640 14.147 M16.643 15.069 C 16.546 15.103,16.392 15.206,16.300 15.298 C 16.052 15.546,16.000 15.740,16.000 16.427 L 16.000 17.000 15.427 17.000 C 14.741 17.000,14.546 17.052,14.299 17.299 C 13.908 17.690,13.908 18.310,14.299 18.701 C 14.546 18.948,14.741 19.000,15.427 19.000 L 16.000 19.000 16.000 19.573 C 16.000 20.259,16.052 20.454,16.299 20.701 C 16.690 21.092,17.310 21.092,17.701 20.701 C 17.948 20.454,18.000 20.259,18.000 19.573 L 18.000 19.000 18.573 19.000 C 19.259 19.000,19.454 18.948,19.701 18.701 C 20.092 18.310,20.092 17.690,19.701 17.299 C 19.454 17.052,19.259 17.000,18.573 17.000 L 18.000 17.000 18.000 16.427 C 18.000 15.741,17.948 15.546,17.701 15.299 C 17.424 15.021,17.024 14.934,16.643 15.069 " fill="#000640" stroke="none" fill-rule="evenodd"></path></svg>