<svg xmlns="http://www.w3.org/2000/svg" width="24" height="24" fill="currentColor" class="mmi mmi-user-filled" viewBox="0 0 24 24"><path d="M11.320 1.041 C 8.681 1.360,6.583 3.326,6.095 5.940 C 5.994 6.478,5.994 7.546,6.093 8.060 C 6.208 8.651,6.389 9.176,6.663 9.713 C 7.500 11.356,8.971 12.478,10.826 12.887 C 11.398 13.013,12.606 13.014,13.170 12.889 C 15.351 12.406,17.026 10.920,17.696 8.874 C 17.929 8.164,17.979 7.834,17.979 7.000 C 17.979 6.166,17.929 5.836,17.696 5.126 C 17.014 3.042,15.217 1.486,13.041 1.096 C 12.622 1.021,11.724 0.992,11.320 1.041 M11.000 14.024 C 9.036 14.139,7.456 14.511,6.100 15.178 C 4.901 15.768,4.023 16.475,3.315 17.420 C 2.886 17.992,2.527 18.678,2.421 19.127 C 2.147 20.290,2.865 21.437,4.140 21.871 L 4.460 21.980 11.980 21.980 L 19.500 21.980 19.800 21.886 C 20.883 21.548,21.567 20.746,21.629 19.740 C 21.655 19.318,21.571 18.970,21.322 18.460 C 20.654 17.092,19.538 16.002,18.020 15.232 C 16.819 14.624,15.563 14.278,13.900 14.099 C 13.359 14.040,11.531 13.994,11.000 14.024 " fill="#000640" stroke="none" fill-rule="evenodd"></path></svg>