<svg xmlns="http://www.w3.org/2000/svg" width="24" height="24" fill="currentColor" class="mmi mmi-user-deduct-v2" viewBox="0 0 24 24"><path d="M11.200 1.058 C 10.483 1.161,9.933 1.332,9.320 1.640 C 7.658 2.475,6.527 3.951,6.111 5.830 C 5.986 6.395,5.986 7.605,6.111 8.170 C 6.651 10.608,8.393 12.350,10.826 12.887 C 11.397 13.013,12.603 13.013,13.174 12.887 C 15.605 12.351,17.351 10.605,17.887 8.174 C 18.013 7.603,18.013 6.397,17.887 5.826 C 17.341 3.351,15.474 1.529,13.041 1.097 C 12.552 1.010,11.660 0.991,11.200 1.058 M12.958 3.120 C 13.621 3.282,14.329 3.683,14.823 4.177 C 15.321 4.675,15.716 5.376,15.887 6.062 C 16.013 6.571,16.013 7.429,15.887 7.938 C 15.531 9.369,14.434 10.486,13.005 10.871 C 12.669 10.962,12.542 10.975,12.000 10.975 C 11.458 10.975,11.331 10.962,10.995 10.871 C 10.054 10.617,9.240 10.046,8.712 9.269 C 8.471 8.913,8.214 8.341,8.113 7.938 C 7.987 7.429,7.987 6.571,8.113 6.062 C 8.215 5.654,8.470 5.088,8.722 4.715 C 9.304 3.853,10.337 3.215,11.433 3.040 C 11.783 2.984,12.572 3.026,12.958 3.120 M11.000 14.028 C 10.526 14.050,9.539 14.158,9.056 14.242 C 6.800 14.633,4.870 15.609,3.693 16.954 C 3.089 17.646,2.536 18.596,2.420 19.143 C 2.224 20.070,2.602 20.968,3.419 21.514 C 3.582 21.623,3.820 21.752,3.948 21.800 C 4.476 21.998,4.514 22.000,8.456 22.000 C 12.609 22.000,12.386 22.016,12.701 21.701 C 13.092 21.310,13.092 20.690,12.701 20.299 C 12.387 19.985,12.605 20.000,8.492 20.000 C 4.542 20.000,4.681 20.007,4.451 19.791 C 4.331 19.679,4.336 19.605,4.486 19.309 C 4.836 18.614,5.513 17.861,6.196 17.406 C 7.510 16.531,9.572 16.002,11.683 16.000 C 12.250 16.000,12.466 15.936,12.701 15.701 C 13.092 15.310,13.092 14.690,12.701 14.299 C 12.412 14.010,12.177 13.973,11.000 14.028 M14.643 17.069 C 14.291 17.193,14.000 17.614,14.000 18.000 C 14.000 18.242,14.119 18.521,14.299 18.701 C 14.610 19.013,14.456 19.000,18.000 19.000 C 21.544 19.000,21.390 19.013,21.701 18.701 C 22.092 18.310,22.092 17.690,21.701 17.299 C 21.389 16.987,21.547 17.000,17.983 17.003 C 15.226 17.006,14.797 17.014,14.643 17.069 " fill="#000640" stroke="none" fill-rule="evenodd"></path></svg>