<svg xmlns="http://www.w3.org/2000/svg" width="24" height="24" fill="currentColor" class="mmi mmi-usergroup" viewBox="0 0 24 24"><path d="M14.200 1.058 C 13.483 1.161,12.933 1.332,12.320 1.640 C 10.658 2.475,9.527 3.951,9.111 5.830 C 8.986 6.395,8.986 7.605,9.111 8.170 C 9.651 10.608,11.393 12.350,13.826 12.887 C 14.397 13.013,15.603 13.013,16.174 12.887 C 18.605 12.351,20.351 10.605,20.887 8.174 C 21.013 7.603,21.013 6.397,20.887 5.826 C 20.341 3.351,18.474 1.529,16.041 1.097 C 15.552 1.010,14.660 0.991,14.200 1.058 M7.466 1.200 C 5.372 1.758,3.748 3.398,3.199 5.506 C 2.563 7.955,3.555 10.563,5.660 11.976 C 6.408 12.479,7.453 12.880,8.012 12.880 C 8.792 12.880,9.264 12.002,8.830 11.358 C 8.677 11.132,8.435 10.977,8.114 10.900 C 7.491 10.751,6.784 10.384,6.316 9.968 C 5.691 9.411,5.212 8.528,5.059 7.650 C 4.868 6.550,5.186 5.361,5.911 4.468 C 6.456 3.798,7.242 3.310,8.114 3.100 C 8.701 2.959,9.049 2.518,8.987 1.993 C 8.945 1.643,8.695 1.309,8.374 1.175 C 8.196 1.101,7.799 1.112,7.466 1.200 M15.958 3.120 C 16.621 3.282,17.329 3.683,17.823 4.177 C 18.321 4.675,18.716 5.376,18.887 6.062 C 19.013 6.571,19.013 7.429,18.887 7.938 C 18.531 9.369,17.434 10.486,16.005 10.871 C 15.669 10.962,15.542 10.975,15.000 10.975 C 14.458 10.975,14.331 10.962,13.995 10.871 C 12.806 10.550,11.914 9.799,11.376 8.663 C 11.110 8.100,11.024 7.697,11.024 7.000 C 11.024 6.535,11.042 6.349,11.113 6.062 C 11.215 5.654,11.470 5.088,11.722 4.715 C 12.304 3.853,13.337 3.215,14.433 3.040 C 14.783 2.984,15.572 3.026,15.958 3.120 M6.420 14.027 C 4.983 14.150,3.707 14.781,2.809 15.812 C 2.159 16.558,1.614 17.632,1.332 18.720 C 1.200 19.233,1.215 19.842,1.372 20.248 C 1.706 21.117,2.498 21.757,3.465 21.942 C 3.817 22.009,4.828 22.020,5.049 21.958 C 5.445 21.848,5.760 21.423,5.760 21.000 C 5.760 20.577,5.445 20.152,5.049 20.042 C 4.967 20.019,4.668 20.000,4.385 20.000 C 3.800 20.000,3.619 19.959,3.415 19.783 C 3.201 19.598,3.193 19.411,3.375 18.867 C 3.454 18.631,3.579 18.307,3.654 18.146 C 3.945 17.516,4.481 16.866,4.980 16.539 C 5.451 16.230,6.262 16.000,6.878 16.000 C 7.237 16.000,7.497 15.906,7.701 15.701 C 8.092 15.310,8.092 14.690,7.701 14.299 C 7.432 14.030,7.131 13.966,6.420 14.027 M14.240 14.027 C 12.198 14.173,10.609 14.770,9.345 15.866 C 8.569 16.539,7.843 17.621,7.459 18.680 C 7.328 19.042,7.283 19.623,7.358 20.009 C 7.486 20.675,8.023 21.351,8.683 21.674 C 9.355 22.004,8.863 21.980,15.000 21.980 C 21.138 21.980,20.645 22.004,21.320 21.673 C 21.587 21.542,21.727 21.439,21.980 21.183 C 22.512 20.648,22.705 20.149,22.670 19.400 C 22.648 18.927,22.569 18.666,22.240 17.980 C 21.257 15.929,19.361 14.571,16.912 14.163 C 16.081 14.025,15.022 13.971,14.240 14.027 M16.100 16.060 C 18.281 16.312,19.784 17.329,20.540 19.062 C 20.717 19.466,20.721 19.634,20.560 19.786 C 20.494 19.849,20.382 19.921,20.310 19.947 C 20.121 20.015,9.938 20.021,9.710 19.952 C 9.622 19.926,9.497 19.851,9.431 19.785 C 9.325 19.679,9.313 19.644,9.329 19.480 C 9.340 19.369,9.427 19.128,9.548 18.877 C 10.215 17.495,11.332 16.627,12.960 16.223 C 13.827 16.009,15.088 15.943,16.100 16.060 " fill="#000640" stroke="none" fill-rule="evenodd"></path></svg>