<svg xmlns="http://www.w3.org/2000/svg" width="24" height="24" fill="currentColor" class="mmi mmi-User Menu" viewBox="0 0 24 24"><path d="M10.280 0.023 C 10.203 0.032,9.951 0.059,9.720 0.083 C 7.840 0.283,5.958 1.037,4.363 2.231 C 3.756 2.685,2.685 3.756,2.231 4.363 C 1.217 5.717,0.536 7.234,0.224 8.830 C 0.058 9.677,0.023 10.057,0.023 11.000 C 0.023 12.789,0.353 14.241,1.120 15.820 C 1.672 16.957,2.286 17.808,3.239 18.761 C 4.192 19.714,5.043 20.328,6.180 20.880 C 7.759 21.647,9.211 21.977,11.000 21.977 C 12.194 21.977,13.126 21.846,14.158 21.534 C 14.411 21.457,14.623 21.410,14.630 21.430 C 14.637 21.450,14.736 21.609,14.850 21.783 C 15.118 22.191,15.772 22.849,16.176 23.120 C 17.918 24.283,20.086 24.283,21.824 23.119 C 22.229 22.848,22.848 22.229,23.119 21.824 C 23.410 21.389,23.697 20.774,23.819 20.320 C 24.199 18.906,23.948 17.416,23.120 16.176 C 22.758 15.635,22.059 14.998,21.408 14.617 C 21.402 14.613,21.459 14.405,21.535 14.154 C 21.684 13.661,21.846 12.888,21.927 12.280 C 21.992 11.789,21.992 10.211,21.927 9.720 C 21.655 7.674,20.974 5.985,19.765 4.360 C 19.314 3.754,18.246 2.686,17.640 2.235 C 16.045 1.049,14.365 0.360,12.423 0.096 C 12.000 0.038,10.574 -0.010,10.280 0.023 " fill="#fff" stroke="none" fill-rule="evenodd"></path></svg>