<svg xmlns="http://www.w3.org/2000/svg" width="24" height="24" fill="currentColor" class="mmi mmi-userscreen" viewBox="0 0 24 24"><path d="M3.503 1.042 C 2.818 1.158,2.117 1.573,1.670 2.127 C 1.445 2.407,1.159 2.980,1.074 3.320 C 0.994 3.646,0.994 16.354,1.074 16.680 C 1.159 17.020,1.445 17.593,1.670 17.873 C 1.950 18.220,2.312 18.501,2.740 18.704 C 3.226 18.934,3.601 19.000,4.425 19.000 L 5.081 19.000 5.050 19.290 C 4.997 19.799,5.019 20.476,5.096 20.740 C 5.265 21.313,5.633 21.816,6.117 22.138 C 7.184 22.848,8.598 23.032,12.640 22.988 C 15.226 22.960,16.044 22.882,16.955 22.578 C 17.994 22.232,18.645 21.618,18.904 20.740 C 18.981 20.476,19.003 19.799,18.950 19.290 L 18.919 19.000 19.575 19.000 C 20.003 19.000,20.347 18.978,20.566 18.937 C 20.985 18.858,21.533 18.604,21.873 18.330 C 22.220 18.050,22.501 17.688,22.704 17.260 C 23.017 16.599,23.000 17.007,23.000 10.000 C 23.000 2.993,23.017 3.401,22.704 2.740 C 22.398 2.095,21.924 1.614,21.296 1.312 C 20.634 0.993,21.532 1.022,12.120 1.015 C 7.489 1.012,3.611 1.024,3.503 1.042 M20.340 3.066 C 20.455 3.105,20.603 3.201,20.701 3.299 C 21.023 3.621,21.000 3.097,21.000 10.000 C 21.000 16.903,21.023 16.379,20.701 16.701 C 20.424 16.978,20.305 17.000,19.103 16.999 L 18.060 16.998 17.922 16.794 C 17.692 16.456,17.073 15.836,16.654 15.525 C 15.671 14.796,14.578 14.332,13.344 14.121 C 13.084 14.076,12.803 14.040,12.719 14.040 C 12.396 14.040,12.431 13.986,12.803 13.911 C 14.287 13.611,15.471 12.492,15.869 11.012 C 15.962 10.668,15.975 10.544,15.975 10.000 C 15.975 9.458,15.962 9.331,15.871 8.995 C 15.550 7.806,14.799 6.914,13.663 6.376 C 13.100 6.110,12.697 6.024,12.000 6.024 C 11.303 6.024,10.900 6.110,10.337 6.376 C 9.202 6.914,8.463 7.789,8.130 8.989 C 8.034 9.337,8.022 9.449,8.022 10.000 C 8.022 10.553,8.034 10.663,8.132 11.017 C 8.545 12.509,9.712 13.611,11.197 13.911 C 11.569 13.986,11.604 14.040,11.281 14.040 C 11.197 14.040,10.916 14.076,10.656 14.121 C 9.422 14.332,8.329 14.796,7.346 15.525 C 6.925 15.837,6.306 16.458,6.078 16.796 L 5.940 17.001 4.839 16.990 C 3.746 16.980,3.736 16.979,3.539 16.878 C 3.313 16.761,3.102 16.509,3.041 16.282 C 3.012 16.178,3.002 14.121,3.010 9.914 L 3.020 3.700 3.131 3.511 C 3.256 3.298,3.449 3.136,3.670 3.057 C 3.793 3.013,5.268 3.003,11.983 3.002 C 19.479 3.000,20.162 3.005,20.340 3.066 M12.383 8.043 C 13.185 8.190,13.839 8.872,13.967 9.695 C 14.153 10.894,13.209 12.000,12.000 12.000 C 11.032 12.000,10.183 11.268,10.033 10.305 C 9.933 9.663,10.132 9.061,10.596 8.596 C 11.085 8.108,11.698 7.918,12.383 8.043 M13.201 16.114 C 15.173 16.519,16.641 17.829,16.948 19.457 C 16.981 19.633,17.001 19.892,16.992 20.033 C 16.977 20.267,16.963 20.302,16.834 20.420 C 16.578 20.655,15.953 20.831,15.040 20.927 C 14.337 21.001,9.663 21.001,8.960 20.927 C 8.047 20.831,7.422 20.655,7.166 20.420 C 7.037 20.302,7.023 20.267,7.008 20.033 C 6.955 19.206,7.420 18.174,8.169 17.455 C 8.962 16.694,9.874 16.261,11.101 16.061 C 11.596 15.980,12.685 16.008,13.201 16.114 " fill="#000640" stroke="none" fill-rule="evenodd"></path></svg>