<svg xmlns="http://www.w3.org/2000/svg" width="24" height="24" fill="currentColor" class="mmi mmi-user-add-v3" viewBox="0 0 24 24"><path d="M8.200 1.058 C 7.483 1.161,6.933 1.332,6.320 1.640 C 4.658 2.475,3.527 3.951,3.111 5.830 C 2.986 6.395,2.986 7.605,3.111 8.170 C 3.651 10.608,5.393 12.350,7.826 12.887 C 8.397 13.013,9.603 13.013,10.174 12.887 C 12.605 12.351,14.351 10.605,14.887 8.174 C 15.013 7.603,15.013 6.397,14.887 5.826 C 14.341 3.351,12.474 1.529,10.041 1.097 C 9.552 1.010,8.660 0.991,8.200 1.058 M9.958 3.120 C 10.621 3.282,11.329 3.683,11.823 4.177 C 12.321 4.675,12.716 5.376,12.887 6.062 C 13.013 6.571,13.013 7.429,12.887 7.938 C 12.531 9.369,11.434 10.486,10.005 10.871 C 9.669 10.962,9.542 10.975,9.000 10.975 C 8.458 10.975,8.331 10.962,7.995 10.871 C 7.054 10.617,6.240 10.046,5.712 9.269 C 5.471 8.913,5.214 8.341,5.113 7.938 C 4.987 7.429,4.987 6.571,5.113 6.062 C 5.215 5.654,5.470 5.088,5.722 4.715 C 6.304 3.853,7.337 3.215,8.433 3.040 C 8.783 2.984,9.572 3.026,9.958 3.120 M18.643 9.069 C 18.407 9.152,18.149 9.416,18.066 9.660 C 18.011 9.822,18.000 10.033,18.000 10.927 L 18.000 12.000 16.927 12.000 C 15.692 12.000,15.577 12.021,15.299 12.299 C 14.908 12.690,14.908 13.310,15.299 13.701 C 15.577 13.979,15.692 14.000,16.927 14.000 L 18.000 14.000 18.000 15.073 C 18.000 15.967,18.011 16.178,18.066 16.340 C 18.192 16.709,18.604 17.000,19.000 17.000 C 19.396 17.000,19.808 16.709,19.934 16.340 C 19.989 16.178,20.000 15.967,20.000 15.073 L 20.000 14.000 21.073 14.000 C 22.308 14.000,22.423 13.979,22.701 13.701 C 23.092 13.310,23.092 12.690,22.701 12.299 C 22.423 12.021,22.308 12.000,21.073 12.000 L 20.000 12.000 20.000 10.927 C 20.000 9.692,19.979 9.577,19.701 9.299 C 19.424 9.021,19.024 8.934,18.643 9.069 M8.240 14.024 C 7.210 14.115,6.488 14.250,5.787 14.484 C 3.974 15.090,2.555 16.322,1.760 17.980 C 1.431 18.666,1.352 18.927,1.330 19.400 C 1.295 20.149,1.488 20.648,2.020 21.183 C 2.273 21.439,2.413 21.542,2.680 21.673 C 3.355 22.004,2.862 21.980,9.000 21.980 C 15.138 21.980,14.645 22.004,15.320 21.673 C 15.587 21.542,15.727 21.439,15.980 21.183 C 16.512 20.648,16.705 20.149,16.670 19.400 C 16.648 18.927,16.569 18.666,16.240 17.980 C 15.199 15.810,13.202 14.460,10.498 14.100 C 10.040 14.038,8.617 13.991,8.240 14.024 M10.100 16.060 C 12.281 16.312,13.784 17.329,14.540 19.062 C 14.717 19.466,14.721 19.634,14.560 19.786 C 14.494 19.849,14.382 19.921,14.310 19.947 C 14.121 20.015,3.938 20.021,3.710 19.952 C 3.622 19.926,3.497 19.851,3.431 19.785 C 3.325 19.679,3.313 19.644,3.329 19.480 C 3.340 19.369,3.427 19.128,3.548 18.877 C 4.215 17.495,5.332 16.627,6.960 16.223 C 7.827 16.009,9.088 15.943,10.100 16.060 " fill="#000640" stroke="none" fill-rule="evenodd"></path></svg>