<svg xmlns="http://www.w3.org/2000/svg" width="24" height="24" fill="currentColor" class="mmi mmi-user" viewBox="0 0 24 24"><path d="M11.200 1.058 C 10.483 1.161,9.933 1.332,9.320 1.640 C 7.658 2.475,6.527 3.951,6.111 5.830 C 5.986 6.395,5.986 7.605,6.111 8.170 C 6.651 10.608,8.393 12.350,10.826 12.887 C 11.397 13.013,12.603 13.013,13.174 12.887 C 15.605 12.351,17.351 10.605,17.887 8.174 C 18.013 7.603,18.013 6.397,17.887 5.826 C 17.341 3.351,15.474 1.529,13.041 1.097 C 12.552 1.010,11.660 0.991,11.200 1.058 M12.958 3.120 C 13.621 3.282,14.329 3.683,14.823 4.177 C 15.321 4.675,15.716 5.376,15.887 6.062 C 16.013 6.571,16.013 7.429,15.887 7.938 C 15.531 9.369,14.434 10.486,13.005 10.871 C 12.669 10.962,12.542 10.975,12.000 10.975 C 11.458 10.975,11.331 10.962,10.995 10.871 C 10.054 10.617,9.240 10.046,8.712 9.269 C 8.471 8.913,8.214 8.341,8.113 7.938 C 7.987 7.429,7.987 6.571,8.113 6.062 C 8.215 5.654,8.470 5.088,8.722 4.715 C 9.304 3.853,10.337 3.215,11.433 3.040 C 11.783 2.984,12.572 3.026,12.958 3.120 M11.000 14.024 C 8.121 14.192,5.877 14.972,4.296 16.354 C 3.420 17.119,2.596 18.344,2.418 19.143 C 2.152 20.337,2.896 21.482,4.200 21.887 L 4.500 21.980 12.020 21.980 L 19.540 21.980 19.847 21.875 C 21.140 21.434,21.855 20.297,21.578 19.124 C 21.413 18.423,20.769 17.403,20.022 16.659 C 18.591 15.234,16.564 14.387,13.900 14.099 C 13.359 14.040,11.531 13.994,11.000 14.024 M13.101 16.042 C 16.359 16.254,18.587 17.405,19.545 19.372 C 19.651 19.587,19.654 19.611,19.599 19.712 C 19.566 19.771,19.459 19.860,19.361 19.910 L 19.183 20.000 12.000 20.000 L 4.817 20.000 4.639 19.910 C 4.541 19.860,4.434 19.770,4.400 19.709 C 4.343 19.603,4.348 19.583,4.515 19.262 C 5.380 17.602,7.180 16.532,9.733 16.160 C 10.767 16.010,11.962 15.968,13.101 16.042 " fill="#000640" stroke="none" fill-rule="evenodd"></path></svg>