<svg xmlns="http://www.w3.org/2000/svg" width="24" height="24" fill="currentColor" class="mmi mmi-vgaport" viewBox="0 0 24 24"><path d="M3.580 5.025 C 3.536 5.034,3.405 5.060,3.290 5.083 C 2.591 5.225,1.871 5.726,1.459 6.360 C 1.110 6.896,0.980 7.341,0.982 8.000 C 0.983 8.443,1.015 8.613,1.853 12.614 C 2.332 14.898,2.752 16.851,2.786 16.954 C 3.039 17.699,3.593 18.332,4.297 18.677 C 4.969 19.007,4.290 18.980,12.000 18.980 C 19.710 18.980,19.031 19.007,19.703 18.677 C 20.408 18.331,20.961 17.699,21.214 16.951 C 21.249 16.848,21.669 14.895,22.147 12.611 C 22.983 8.619,23.016 8.442,23.018 8.000 C 23.020 7.341,22.891 6.896,22.541 6.360 C 22.144 5.749,21.584 5.345,20.780 5.086 C 20.599 5.028,19.772 5.021,12.120 5.015 C 7.467 5.012,3.624 5.016,3.580 5.025 M20.370 7.057 C 20.729 7.185,20.990 7.516,21.026 7.888 C 21.043 8.061,20.892 8.839,20.204 12.133 C 19.740 14.352,19.340 16.237,19.314 16.324 C 19.254 16.526,19.036 16.779,18.826 16.891 L 18.660 16.980 12.000 16.980 L 5.340 16.980 5.176 16.892 C 4.967 16.780,4.788 16.576,4.704 16.354 C 4.668 16.258,4.260 14.362,3.797 12.140 C 3.111 8.851,2.958 8.061,2.974 7.888 C 3.010 7.516,3.271 7.185,3.630 7.057 C 3.853 6.978,20.147 6.978,20.370 7.057 M5.664 9.063 C 5.436 9.146,5.257 9.297,5.131 9.511 C 5.036 9.672,5.020 9.744,5.020 10.000 C 5.020 10.256,5.036 10.328,5.131 10.489 C 5.470 11.065,6.234 11.168,6.701 10.701 C 7.092 10.310,7.092 9.690,6.701 9.299 C 6.429 9.027,6.018 8.933,5.664 9.063 M8.664 9.063 C 8.436 9.146,8.257 9.297,8.131 9.511 C 8.036 9.672,8.020 9.744,8.020 10.000 C 8.020 10.256,8.036 10.328,8.131 10.489 C 8.470 11.065,9.234 11.168,9.701 10.701 C 10.092 10.310,10.092 9.690,9.701 9.299 C 9.429 9.027,9.018 8.933,8.664 9.063 M11.664 9.063 C 11.436 9.146,11.257 9.297,11.131 9.511 C 11.036 9.672,11.020 9.744,11.020 10.000 C 11.020 10.256,11.036 10.328,11.131 10.489 C 11.470 11.065,12.234 11.168,12.701 10.701 C 12.881 10.521,13.000 10.242,13.000 10.000 C 13.000 9.326,12.295 8.832,11.664 9.063 M14.664 9.063 C 14.436 9.146,14.257 9.297,14.131 9.511 C 14.036 9.672,14.020 9.744,14.020 10.000 C 14.020 10.256,14.036 10.328,14.131 10.489 C 14.470 11.065,15.234 11.168,15.701 10.701 C 15.881 10.521,16.000 10.242,16.000 10.000 C 16.000 9.326,15.295 8.832,14.664 9.063 M17.664 9.063 C 17.436 9.146,17.257 9.297,17.131 9.511 C 17.036 9.672,17.020 9.744,17.020 10.000 C 17.020 10.256,17.036 10.328,17.131 10.489 C 17.470 11.065,18.234 11.168,18.701 10.701 C 18.881 10.521,19.000 10.242,19.000 10.000 C 19.000 9.326,18.295 8.832,17.664 9.063 M7.240 13.035 C 7.042 13.100,6.892 13.197,6.752 13.352 C 6.307 13.845,6.480 14.617,7.100 14.906 C 7.489 15.087,7.943 14.986,8.245 14.652 C 8.580 14.280,8.581 13.721,8.248 13.352 C 8.170 13.265,8.034 13.158,7.946 13.113 C 7.771 13.024,7.399 12.983,7.240 13.035 M10.240 13.035 C 10.042 13.100,9.892 13.197,9.752 13.352 C 9.307 13.845,9.480 14.617,10.100 14.906 C 10.489 15.087,10.943 14.986,11.245 14.652 C 11.580 14.280,11.581 13.721,11.248 13.352 C 11.170 13.265,11.034 13.158,10.946 13.113 C 10.771 13.024,10.399 12.983,10.240 13.035 M13.240 13.035 C 13.042 13.100,12.892 13.197,12.752 13.352 C 12.307 13.845,12.480 14.617,13.100 14.906 C 13.489 15.087,13.943 14.986,14.245 14.652 C 14.580 14.280,14.581 13.721,14.248 13.352 C 14.170 13.265,14.034 13.158,13.946 13.113 C 13.771 13.024,13.399 12.983,13.240 13.035 M16.240 13.035 C 16.042 13.100,15.892 13.197,15.752 13.352 C 15.307 13.845,15.480 14.617,16.100 14.906 C 16.489 15.087,16.943 14.986,17.245 14.652 C 17.580 14.280,17.581 13.721,17.248 13.352 C 17.170 13.265,17.034 13.158,16.946 13.113 C 16.771 13.024,16.399 12.983,16.240 13.035 " fill="#000640" stroke="none" fill-rule="evenodd"></path></svg>