<svg xmlns="http://www.w3.org/2000/svg" width="24" height="24" fill="currentColor" class="mmi mmi-videorecorder-analog" viewBox="0 0 24 24"><path d="M8.500 2.024 C 7.500 2.126,6.618 2.404,5.831 2.865 L 5.512 3.052 5.733 3.142 C 6.602 3.496,7.110 4.385,6.967 5.305 C 6.817 6.268,5.968 7.000,5.000 7.000 C 4.358 7.000,3.666 6.626,3.333 6.099 C 3.271 6.000,3.207 5.920,3.192 5.920 C 3.146 5.920,2.919 6.670,2.834 7.100 C 2.791 7.320,2.745 7.675,2.732 7.890 L 2.708 8.279 2.424 8.456 C 1.717 8.898,1.230 9.597,1.063 10.408 C 1.008 10.678,1.000 11.253,1.000 15.000 C 1.000 19.680,0.995 19.564,1.233 20.150 C 1.519 20.851,2.150 21.482,2.852 21.768 C 3.452 22.012,3.222 22.004,9.140 21.991 L 14.540 21.980 14.935 21.843 C 15.955 21.490,16.704 20.666,16.922 19.656 C 16.951 19.526,16.978 19.414,16.984 19.406 C 16.990 19.398,18.081 19.754,19.409 20.196 C 20.947 20.708,21.882 21.000,21.985 21.000 C 22.241 21.000,22.518 20.884,22.701 20.701 C 23.021 20.381,23.000 20.783,23.000 15.000 C 23.000 9.217,23.021 9.619,22.701 9.299 C 22.518 9.116,22.241 9.000,21.985 9.000 C 21.882 9.000,20.947 9.292,19.409 9.804 C 18.081 10.246,16.990 10.602,16.984 10.594 C 16.978 10.586,16.951 10.472,16.923 10.340 C 16.764 9.589,16.260 8.883,15.582 8.460 L 15.292 8.279 15.265 7.873 C 15.251 7.649,15.202 7.285,15.157 7.063 C 15.072 6.645,14.849 5.920,14.805 5.920 C 14.791 5.920,14.729 6.000,14.667 6.099 C 14.415 6.498,13.891 6.855,13.408 6.956 C 12.297 7.187,11.208 6.430,11.033 5.305 C 10.890 4.387,11.398 3.496,12.263 3.144 L 12.480 3.055 12.158 2.864 C 11.532 2.491,10.813 2.230,10.060 2.100 C 9.698 2.038,8.796 1.994,8.500 2.024 M4.580 3.047 C 3.645 3.225,2.929 4.187,3.012 5.152 C 3.035 5.416,3.149 5.842,3.196 5.837 C 3.209 5.836,3.295 5.679,3.387 5.487 C 3.763 4.707,4.429 3.895,5.158 3.325 L 5.496 3.061 5.338 3.033 C 5.126 2.995,4.823 3.001,4.580 3.047 M12.641 3.035 L 12.502 3.060 12.841 3.326 C 13.224 3.626,13.732 4.138,14.016 4.511 C 14.249 4.819,14.615 5.432,14.705 5.667 C 14.741 5.762,14.784 5.840,14.799 5.840 C 14.851 5.840,14.965 5.426,14.988 5.152 C 15.038 4.576,14.830 4.023,14.404 3.596 C 13.930 3.123,13.290 2.920,12.641 3.035 M9.040 5.550 C 9.040 5.747,9.236 6.396,9.397 6.734 C 9.571 7.098,9.829 7.469,10.133 7.790 L 10.332 8.000 8.997 8.000 L 7.663 8.000 7.845 7.810 C 8.414 7.216,8.763 6.556,8.911 5.797 C 8.978 5.448,9.040 5.331,9.040 5.550 M14.340 10.066 C 14.455 10.105,14.603 10.201,14.701 10.299 C 15.018 10.616,15.000 10.337,15.000 15.000 C 15.000 19.663,15.018 19.384,14.701 19.701 C 14.381 20.021,14.783 20.000,9.000 20.000 C 3.217 20.000,3.619 20.021,3.299 19.701 C 2.982 19.384,3.000 19.663,3.000 15.000 C 3.000 10.336,2.982 10.616,3.300 10.298 C 3.612 9.986,3.207 10.007,8.983 10.003 C 13.689 10.000,14.163 10.006,14.340 10.066 M21.000 15.004 C 21.000 17.871,20.990 18.605,20.950 18.590 C 20.922 18.580,20.023 18.280,18.950 17.923 L 17.000 17.273 17.000 15.000 L 17.000 12.727 18.970 12.066 C 20.053 11.703,20.953 11.405,20.970 11.403 C 20.987 11.401,21.000 13.022,21.000 15.004 " fill="#000640" stroke="none" fill-rule="evenodd"></path></svg>