<svg xmlns="http://www.w3.org/2000/svg" width="24" height="24" fill="currentColor" class="mmi mmi-videorecorder-withstand" viewBox="0 0 24 24"><path d="M3.503 2.042 C 2.553 2.203,1.717 2.847,1.298 3.740 C 1.003 4.368,1.020 4.051,1.020 9.000 C 1.020 13.949,1.003 13.632,1.298 14.260 C 1.498 14.686,1.779 15.049,2.127 15.330 C 2.400 15.549,2.977 15.841,3.300 15.923 C 3.442 15.959,4.109 15.980,5.592 15.997 L 7.683 16.020 5.416 18.740 C 4.169 20.236,3.115 21.532,3.075 21.620 C 2.986 21.815,2.977 22.188,3.058 22.381 C 3.286 22.928,3.904 23.160,4.432 22.897 C 4.619 22.803,4.847 22.543,6.803 20.197 C 7.993 18.769,8.982 17.600,9.000 17.600 C 9.018 17.600,10.007 18.769,11.197 20.197 C 13.153 22.543,13.381 22.803,13.568 22.897 C 14.096 23.160,14.714 22.928,14.942 22.381 C 15.023 22.188,15.014 21.815,14.925 21.620 C 14.885 21.532,13.831 20.236,12.584 18.740 L 10.317 16.020 12.428 16.000 L 14.540 15.980 14.906 15.852 C 15.425 15.671,15.793 15.437,16.159 15.056 C 16.515 14.685,16.793 14.181,16.907 13.700 C 16.943 13.546,16.978 13.414,16.984 13.406 C 16.990 13.398,18.081 13.754,19.409 14.196 C 20.947 14.708,21.882 15.000,21.985 15.000 C 22.412 15.000,22.822 14.706,22.937 14.316 C 22.993 14.130,23.000 13.518,23.000 9.000 C 23.000 4.482,22.993 3.870,22.937 3.684 C 22.822 3.294,22.412 3.000,21.985 3.000 C 21.882 3.000,20.951 3.291,19.421 3.800 C 18.099 4.240,17.007 4.600,16.994 4.600 C 16.981 4.600,16.949 4.490,16.922 4.356 C 16.817 3.823,16.493 3.254,16.056 2.837 C 15.720 2.517,15.381 2.314,14.902 2.147 L 14.540 2.020 9.120 2.014 C 6.139 2.011,3.611 2.023,3.503 2.042 M14.340 4.066 C 14.455 4.105,14.603 4.201,14.701 4.299 C 15.018 4.616,15.000 4.337,15.000 9.000 C 15.000 13.663,15.018 13.384,14.701 13.701 C 14.381 14.021,14.783 14.000,8.998 14.000 C 3.390 14.000,3.680 14.011,3.374 13.778 C 3.301 13.723,3.192 13.592,3.131 13.489 L 3.020 13.300 3.020 9.000 L 3.020 4.700 3.131 4.511 C 3.256 4.298,3.449 4.136,3.670 4.057 C 3.792 4.013,4.774 4.003,8.983 4.002 C 13.686 4.000,14.163 4.006,14.340 4.066 M8.433 5.040 C 7.843 5.134,7.221 5.380,6.731 5.712 C 5.955 6.240,5.394 7.037,5.130 7.989 C 5.034 8.337,5.022 8.449,5.022 9.000 C 5.022 9.553,5.034 9.663,5.132 10.017 C 5.475 11.256,6.357 12.252,7.520 12.715 C 9.334 13.437,11.462 12.710,12.444 11.033 C 13.503 9.224,12.985 6.878,11.269 5.712 C 10.917 5.473,10.343 5.214,9.958 5.120 C 9.572 5.026,8.783 4.984,8.433 5.040 M21.000 9.004 C 21.000 11.871,20.990 12.605,20.950 12.590 C 20.922 12.580,20.023 12.280,18.950 11.923 L 17.000 11.273 17.000 9.000 L 17.000 6.727 18.970 6.066 C 20.053 5.703,20.953 5.405,20.970 5.403 C 20.987 5.401,21.000 7.022,21.000 9.004 M9.383 7.043 C 10.185 7.190,10.839 7.872,10.967 8.695 C 11.153 9.894,10.209 11.000,9.000 11.000 C 8.032 11.000,7.183 10.268,7.033 9.305 C 6.933 8.663,7.132 8.061,7.596 7.596 C 8.085 7.108,8.698 6.918,9.383 7.043 " fill="#000640" stroke="none" fill-rule="evenodd"></path></svg>