<svg xmlns="http://www.w3.org/2000/svg" width="24" height="24" fill="currentColor" class="mmi mmi-videorecorder" viewBox="0 0 24 24"><path d="M2.620 3.025 C 2.576 3.034,2.442 3.061,2.322 3.085 C 1.845 3.182,1.253 3.511,0.886 3.883 C 0.466 4.309,0.217 4.756,0.078 5.335 C 0.003 5.650,0.001 5.858,0.000 11.972 C -0.000 18.880,-0.011 18.550,0.234 19.151 C 0.521 19.857,1.143 20.479,1.849 20.766 C 2.449 21.011,2.123 21.000,9.000 21.000 C 15.876 21.000,15.551 21.011,16.150 20.767 C 16.850 20.482,17.482 19.850,17.767 19.150 C 17.959 18.677,18.000 18.371,18.000 17.402 C 18.000 16.917,18.011 16.520,18.024 16.520 C 18.037 16.520,19.112 16.964,20.414 17.506 C 22.554 18.398,22.801 18.492,23.001 18.490 C 23.386 18.487,23.704 18.291,23.894 17.940 L 23.980 17.780 23.991 12.322 C 24.002 6.183,24.023 6.621,23.702 6.300 C 23.518 6.116,23.241 6.000,22.985 6.000 C 22.883 6.000,21.963 6.286,20.462 6.786 C 19.163 7.218,18.078 7.580,18.050 7.590 C 18.011 7.605,18.000 7.403,18.000 6.663 C 18.000 5.624,17.962 5.330,17.766 4.849 C 17.499 4.193,16.964 3.633,16.296 3.312 C 15.639 2.996,16.291 3.023,9.120 3.015 C 5.589 3.011,2.664 3.016,2.620 3.025 M15.340 5.066 C 15.455 5.105,15.603 5.201,15.701 5.299 C 16.023 5.621,16.000 5.097,16.000 12.000 C 16.000 18.903,16.023 18.379,15.701 18.701 C 15.379 19.023,15.903 19.000,9.000 19.000 C 2.097 19.000,2.621 19.023,2.299 18.701 C 1.977 18.379,2.000 18.903,2.000 12.000 C 2.000 5.096,1.976 5.621,2.300 5.298 C 2.614 4.984,2.091 5.007,8.983 5.003 C 14.620 5.000,15.162 5.006,15.340 5.066 M22.000 12.199 C 22.000 15.877,21.998 15.997,21.926 15.969 C 21.885 15.953,20.986 15.580,19.927 15.140 L 18.002 14.340 18.001 12.033 L 18.000 9.727 19.970 9.066 C 21.053 8.703,21.953 8.405,21.970 8.403 C 21.987 8.401,22.000 10.109,22.000 12.199 " fill="#000640" stroke="none" fill-rule="evenodd"></path></svg>