<svg xmlns="http://www.w3.org/2000/svg" width="24" height="24" fill="currentColor" class="mmi mmi-videorecorder-record" viewBox="0 0 24 24"><path d="M2.503 3.042 C 1.817 3.158,1.117 3.573,0.670 4.127 C 0.445 4.407,0.159 4.980,0.074 5.320 C -0.006 5.646,-0.006 18.354,0.074 18.680 C 0.159 19.020,0.445 19.593,0.670 19.873 C 0.950 20.220,1.312 20.501,1.740 20.704 C 2.401 21.017,1.993 21.000,9.000 21.000 C 16.007 21.000,15.599 21.017,16.260 20.704 C 16.920 20.391,17.391 19.920,17.704 19.260 C 17.948 18.743,18.000 18.415,18.000 17.376 C 18.000 16.905,18.011 16.520,18.024 16.520 C 18.037 16.520,19.106 16.961,20.400 17.500 C 22.602 18.417,22.769 18.480,22.998 18.480 C 23.132 18.480,23.302 18.455,23.374 18.425 C 23.562 18.347,23.790 18.134,23.892 17.944 L 23.980 17.780 23.991 12.342 C 24.002 6.217,24.021 6.619,23.705 6.303 C 23.518 6.115,23.243 6.000,22.985 6.000 C 22.883 6.000,21.963 6.286,20.462 6.786 C 19.163 7.218,18.078 7.580,18.050 7.590 C 18.011 7.605,18.000 7.408,18.000 6.689 C 18.000 5.579,17.952 5.264,17.704 4.740 C 17.398 4.095,16.924 3.614,16.296 3.312 C 15.639 2.996,16.291 3.023,9.120 3.015 C 5.589 3.012,2.611 3.024,2.503 3.042 M15.340 5.066 C 15.455 5.105,15.603 5.201,15.701 5.299 C 16.023 5.621,16.000 5.097,16.000 12.000 C 16.000 18.903,16.023 18.379,15.701 18.701 C 15.379 19.023,15.903 19.000,8.998 19.000 C 2.296 19.000,2.682 19.013,2.374 18.778 C 2.301 18.723,2.192 18.592,2.131 18.489 L 2.020 18.300 2.020 12.000 L 2.020 5.700 2.131 5.511 C 2.256 5.298,2.449 5.136,2.670 5.057 C 2.793 5.013,3.939 5.003,8.983 5.002 C 14.617 5.000,15.162 5.006,15.340 5.066 M8.433 8.040 C 7.843 8.134,7.221 8.380,6.731 8.712 C 5.955 9.240,5.394 10.037,5.130 10.989 C 5.034 11.337,5.022 11.449,5.022 12.000 C 5.022 12.553,5.034 12.663,5.132 13.017 C 5.475 14.256,6.357 15.252,7.520 15.715 C 9.334 16.437,11.462 15.710,12.444 14.033 C 13.503 12.224,12.985 9.878,11.269 8.712 C 10.917 8.473,10.343 8.214,9.958 8.120 C 9.572 8.026,8.783 7.984,8.433 8.040 M22.000 12.199 C 22.000 15.877,21.998 15.997,21.926 15.969 C 21.885 15.953,20.986 15.580,19.927 15.140 L 18.002 14.340 18.001 12.033 L 18.000 9.727 19.970 9.066 C 21.053 8.703,21.953 8.405,21.970 8.403 C 21.987 8.401,22.000 10.109,22.000 12.199 M9.383 10.043 C 10.185 10.190,10.839 10.872,10.967 11.695 C 11.153 12.894,10.209 14.000,9.000 14.000 C 8.032 14.000,7.183 13.268,7.033 12.305 C 6.933 11.663,7.132 11.061,7.596 10.596 C 8.085 10.108,8.698 9.918,9.383 10.043 " fill="#000640" stroke="none" fill-rule="evenodd"></path></svg>