<svg xmlns="http://www.w3.org/2000/svg" width="24" height="24" fill="currentColor" class="mmi mmi-videorecorder-add" viewBox="0 0 24 24"><path d="M2.620 3.025 C 2.576 3.034,2.442 3.061,2.322 3.085 C 1.189 3.315,0.223 4.355,0.041 5.541 C 0.011 5.734,0.001 7.790,0.010 12.180 C 0.023 19.282,-0.004 18.640,0.312 19.296 C 0.614 19.924,1.095 20.398,1.740 20.704 C 2.401 21.017,1.993 21.000,9.000 21.000 C 16.007 21.000,15.599 21.017,16.260 20.704 C 16.920 20.391,17.391 19.920,17.704 19.260 C 17.948 18.743,18.000 18.415,18.000 17.376 C 18.000 16.905,18.011 16.520,18.024 16.520 C 18.037 16.520,19.106 16.961,20.400 17.500 C 22.602 18.417,22.769 18.480,22.998 18.480 C 23.132 18.480,23.302 18.455,23.374 18.425 C 23.562 18.347,23.790 18.134,23.892 17.944 L 23.980 17.780 23.991 12.342 C 24.002 6.217,24.021 6.619,23.705 6.303 C 23.518 6.115,23.243 6.000,22.985 6.000 C 22.883 6.000,21.963 6.286,20.462 6.786 C 19.163 7.218,18.078 7.580,18.050 7.590 C 18.011 7.605,18.000 7.408,18.000 6.689 C 18.000 5.579,17.952 5.264,17.704 4.740 C 17.398 4.095,16.924 3.614,16.296 3.312 C 15.639 2.996,16.291 3.023,9.120 3.015 C 5.589 3.011,2.664 3.016,2.620 3.025 M15.340 5.066 C 15.455 5.105,15.603 5.201,15.701 5.299 C 16.023 5.621,16.000 5.097,16.000 12.000 C 16.000 18.903,16.023 18.379,15.701 18.701 C 15.379 19.023,15.903 19.000,8.998 19.000 C 2.296 19.000,2.682 19.013,2.374 18.778 C 2.301 18.723,2.192 18.592,2.131 18.489 L 2.020 18.300 2.020 12.000 L 2.020 5.700 2.131 5.511 C 2.256 5.298,2.449 5.136,2.670 5.057 C 2.793 5.013,3.939 5.003,8.983 5.002 C 14.617 5.000,15.162 5.006,15.340 5.066 M8.664 8.063 C 8.436 8.146,8.257 8.297,8.131 8.511 L 8.020 8.700 8.008 9.850 L 7.995 11.000 6.923 11.000 C 5.764 11.000,5.642 11.018,5.374 11.222 C 5.301 11.277,5.192 11.408,5.131 11.511 C 5.036 11.672,5.020 11.744,5.020 12.000 C 5.020 12.256,5.036 12.328,5.131 12.489 C 5.192 12.592,5.301 12.723,5.374 12.778 C 5.642 12.983,5.764 13.000,6.925 13.000 L 8.000 13.000 8.000 14.070 C 8.000 14.684,8.018 15.204,8.042 15.289 C 8.103 15.509,8.315 15.762,8.531 15.874 C 8.932 16.080,9.390 16.012,9.700 15.702 C 9.979 15.423,10.000 15.309,10.000 14.073 L 10.000 13.000 11.073 13.000 C 12.308 13.000,12.423 12.979,12.701 12.701 C 13.092 12.310,13.092 11.690,12.701 11.299 C 12.423 11.021,12.308 11.000,11.073 11.000 L 10.000 11.000 10.000 9.927 C 10.000 8.692,9.979 8.577,9.701 8.299 C 9.429 8.027,9.018 7.933,8.664 8.063 M22.000 12.199 C 22.000 15.877,21.998 15.997,21.926 15.969 C 21.885 15.953,20.986 15.580,19.927 15.140 L 18.002 14.340 18.001 12.033 L 18.000 9.727 19.970 9.066 C 21.053 8.703,21.953 8.405,21.970 8.403 C 21.987 8.401,22.000 10.109,22.000 12.199 " fill="#000640" stroke="none" fill-rule="evenodd"></path></svg>