<svg xmlns="http://www.w3.org/2000/svg" width="24" height="24" fill="currentColor" class="mmi mmi-video" viewBox="0 0 24 24"><path d="M2.503 3.042 C 1.818 3.158,1.117 3.573,0.670 4.127 C 0.445 4.407,0.159 4.980,0.074 5.320 C -0.006 5.646,-0.006 18.354,0.074 18.680 C 0.159 19.020,0.445 19.593,0.670 19.873 C 0.950 20.220,1.312 20.501,1.740 20.704 C 2.412 21.022,1.643 21.000,12.000 21.000 C 22.357 21.000,21.588 21.022,22.260 20.704 C 22.920 20.391,23.391 19.920,23.704 19.260 C 24.017 18.599,24.000 19.007,24.000 12.000 C 24.000 4.993,24.017 5.401,23.704 4.740 C 23.398 4.095,22.924 3.614,22.296 3.312 C 21.632 2.992,22.653 3.022,12.120 3.015 C 6.939 3.012,2.611 3.024,2.503 3.042 M21.340 5.066 C 21.455 5.105,21.603 5.201,21.701 5.299 C 22.023 5.621,22.000 5.097,22.000 12.000 C 22.000 18.903,22.023 18.379,21.701 18.701 C 21.375 19.027,22.265 19.000,11.998 19.000 C 3.916 19.000,2.830 18.993,2.678 18.939 C 2.437 18.854,2.260 18.709,2.131 18.489 L 2.020 18.300 2.020 12.000 L 2.020 5.700 2.131 5.511 C 2.256 5.298,2.449 5.136,2.670 5.057 C 2.794 5.013,4.433 5.003,11.983 5.002 C 20.410 5.000,21.161 5.005,21.340 5.066 M9.667 7.065 C 9.415 7.142,9.155 7.400,9.066 7.660 C 9.006 7.836,9.000 8.246,9.000 12.000 C 9.000 16.663,8.982 16.384,9.299 16.701 C 9.568 16.970,9.964 17.065,10.310 16.944 C 10.548 16.859,16.693 12.750,16.796 12.606 C 17.058 12.237,17.058 11.763,16.796 11.394 C 16.693 11.250,10.548 7.141,10.310 7.056 C 10.110 6.986,9.915 6.989,9.667 7.065 M12.690 10.994 C 13.498 11.532,14.160 11.985,14.160 12.000 C 14.160 12.020,11.981 13.490,11.110 14.058 L 11.000 14.129 11.000 12.000 L 11.000 9.871 11.110 9.942 C 11.171 9.982,11.882 10.455,12.690 10.994 " fill="#000640" stroke="none" fill-rule="evenodd"></path></svg>