<svg xmlns="http://www.w3.org/2000/svg" width="24" height="24" fill="currentColor" class="mmi mmi-videoalbum" viewBox="0 0 24 24"><path d="M4.664 1.063 C 4.436 1.146,4.257 1.297,4.131 1.511 C 4.036 1.672,4.020 1.744,4.020 2.000 C 4.020 2.256,4.036 2.328,4.131 2.489 C 4.192 2.592,4.301 2.723,4.374 2.778 C 4.683 3.014,4.201 3.000,11.998 3.000 C 20.023 3.000,19.377 3.025,19.701 2.701 C 20.092 2.310,20.092 1.690,19.701 1.299 C 19.377 0.975,20.026 1.000,11.983 1.003 C 5.871 1.005,4.797 1.014,4.664 1.063 M3.503 5.042 C 2.818 5.158,2.117 5.573,1.670 6.127 C 1.445 6.407,1.159 6.980,1.074 7.320 C 0.994 7.646,0.994 20.354,1.074 20.680 C 1.159 21.020,1.445 21.593,1.670 21.873 C 1.950 22.220,2.312 22.501,2.740 22.704 C 3.409 23.021,2.760 23.000,12.000 23.000 C 21.240 23.000,20.591 23.021,21.260 22.704 C 21.688 22.501,22.050 22.220,22.330 21.873 C 22.442 21.734,22.610 21.458,22.704 21.260 C 23.017 20.599,23.000 21.007,23.000 14.000 C 23.000 6.993,23.017 7.401,22.704 6.740 C 22.398 6.095,21.924 5.614,21.296 5.312 C 20.634 4.993,21.532 5.022,12.120 5.015 C 7.489 5.012,3.611 5.024,3.503 5.042 M20.340 7.066 C 20.455 7.105,20.603 7.201,20.701 7.299 C 21.023 7.621,21.000 7.097,21.000 14.000 C 21.000 20.903,21.023 20.379,20.701 20.701 C 20.376 21.026,21.144 21.000,11.998 21.000 C 3.106 21.000,3.684 21.015,3.374 20.778 C 3.301 20.723,3.192 20.592,3.131 20.489 L 3.020 20.300 3.020 14.000 L 3.020 7.700 3.131 7.511 C 3.256 7.298,3.449 7.136,3.670 7.057 C 3.793 7.013,5.268 7.003,11.983 7.002 C 19.479 7.000,20.162 7.005,20.340 7.066 M9.667 9.065 C 9.542 9.103,9.412 9.186,9.299 9.299 C 8.981 9.616,8.997 9.357,9.009 14.084 L 9.020 18.262 9.122 18.461 C 9.254 18.716,9.495 18.900,9.785 18.965 C 10.223 19.063,10.140 19.110,13.588 16.810 C 15.969 15.221,16.739 14.687,16.816 14.574 C 17.042 14.242,17.042 13.758,16.816 13.426 C 16.739 13.312,15.972 12.781,13.592 11.195 C 11.875 10.050,10.398 9.087,10.310 9.056 C 10.110 8.986,9.915 8.989,9.667 9.065 M12.690 12.994 C 13.498 13.532,14.160 13.985,14.160 14.000 C 14.160 14.020,11.981 15.490,11.110 16.058 L 11.000 16.129 11.000 14.000 L 11.000 11.871 11.110 11.942 C 11.171 11.982,11.882 12.455,12.690 12.994 " fill="#000640" stroke="none" fill-rule="evenodd"></path></svg>