<svg xmlns="http://www.w3.org/2000/svg" width="24" height="24" fill="currentColor" class="mmi mmi-vinilplayer" viewBox="0 0 24 24"><path d="M3.503 1.042 C 2.818 1.158,2.117 1.573,1.670 2.127 C 1.445 2.407,1.159 2.980,1.074 3.320 C 0.993 3.647,0.993 20.353,1.074 20.680 C 1.159 21.020,1.445 21.593,1.670 21.873 C 1.950 22.220,2.312 22.501,2.740 22.704 C 3.409 23.021,2.760 23.000,12.000 23.000 C 21.240 23.000,20.591 23.021,21.260 22.704 C 21.920 22.391,22.391 21.920,22.704 21.260 C 23.021 20.591,23.000 21.240,23.000 12.000 C 23.000 2.760,23.021 3.409,22.704 2.740 C 22.398 2.095,21.924 1.614,21.296 1.312 C 20.634 0.993,21.532 1.022,12.120 1.015 C 7.489 1.012,3.611 1.024,3.503 1.042 M20.340 3.066 C 20.593 3.153,20.847 3.407,20.934 3.660 C 20.995 3.838,21.000 4.523,21.000 12.000 C 21.000 21.144,21.026 20.376,20.701 20.701 C 20.376 21.026,21.144 21.000,11.998 21.000 C 3.106 21.000,3.684 21.015,3.374 20.778 C 3.301 20.723,3.192 20.592,3.131 20.489 L 3.020 20.300 3.020 12.000 L 3.020 3.700 3.131 3.511 C 3.256 3.298,3.449 3.136,3.670 3.057 C 3.793 3.013,5.268 3.003,11.983 3.002 C 19.479 3.000,20.162 3.005,20.340 3.066 M11.220 4.047 C 10.380 4.142,9.543 4.400,8.757 4.808 C 6.835 5.805,5.493 7.642,5.095 9.820 C 4.983 10.437,4.992 11.667,5.114 12.280 C 5.312 13.269,5.758 14.308,6.317 15.080 C 6.468 15.289,6.577 15.475,6.560 15.494 C 6.542 15.513,6.009 15.936,5.374 16.434 C 4.322 17.260,4.210 17.359,4.110 17.557 C 3.975 17.823,3.961 18.171,4.075 18.422 C 4.166 18.623,4.482 18.906,4.675 18.959 C 4.922 19.028,5.210 19.008,5.403 18.910 C 5.500 18.860,6.129 18.387,6.800 17.858 C 7.472 17.329,8.043 16.883,8.071 16.866 C 8.101 16.847,8.215 16.892,8.356 16.978 C 8.781 17.236,9.492 17.553,9.960 17.693 C 10.596 17.884,11.078 17.962,11.780 17.987 C 15.048 18.104,17.973 15.903,18.780 12.720 C 19.533 9.751,18.271 6.644,15.660 5.039 C 14.360 4.239,12.733 3.876,11.220 4.047 M12.950 6.100 C 14.142 6.327,15.275 7.038,16.008 8.019 C 16.318 8.434,16.691 9.198,16.820 9.680 C 17.136 10.865,17.018 12.087,16.483 13.182 C 16.211 13.737,15.894 14.179,15.475 14.587 C 14.219 15.808,12.427 16.279,10.728 15.834 C 10.394 15.747,9.839 15.529,9.842 15.486 C 9.843 15.472,10.430 15.001,11.147 14.440 C 12.748 13.187,12.789 13.151,12.905 12.902 C 12.998 12.702,12.999 12.686,13.000 11.277 C 13.000 9.653,12.990 9.588,12.700 9.298 C 12.390 8.988,11.932 8.920,11.531 9.126 C 11.315 9.238,11.103 9.491,11.042 9.711 C 11.018 9.796,11.000 10.322,10.999 10.940 L 10.998 12.020 9.590 13.124 L 8.182 14.228 8.066 14.084 C 7.713 13.642,7.334 12.887,7.182 12.320 C 6.867 11.149,6.987 9.899,7.519 8.820 C 8.300 7.233,9.697 6.257,11.520 6.025 C 11.776 5.992,12.615 6.037,12.950 6.100 M17.643 17.069 C 17.291 17.193,17.000 17.614,17.000 18.000 C 17.000 18.527,17.473 19.000,18.000 19.000 C 18.242 19.000,18.521 18.881,18.701 18.701 C 19.454 17.948,18.653 16.712,17.643 17.069 " fill="#000640" stroke="none" fill-rule="evenodd"></path></svg>