<svg xmlns="http://www.w3.org/2000/svg" width="24" height="24" fill="currentColor" class="mmi mmi-visibility-off" viewBox="0 0 24 24"><path d="M3.020 2.716 C 2.658 2.884,2.442 3.221,2.441 3.620 C 2.440 4.028,2.532 4.161,3.436 5.060 C 3.878 5.499,4.240 5.870,4.240 5.883 C 4.240 5.896,4.101 6.016,3.930 6.148 C 2.554 7.219,1.210 8.811,0.561 10.140 C -0.060 11.413,-0.143 12.180,0.223 13.277 C 0.665 14.601,1.698 16.052,3.180 17.429 C 4.231 18.406,5.596 19.332,6.831 19.906 C 10.368 21.553,13.797 21.515,17.213 19.791 L 17.846 19.472 18.133 19.750 C 18.519 20.124,18.628 20.178,19.000 20.179 C 19.257 20.180,19.327 20.164,19.489 20.069 C 19.919 19.816,20.094 19.341,19.935 18.857 C 19.875 18.675,19.265 18.054,11.965 10.749 C 5.767 4.547,4.017 2.817,3.862 2.739 C 3.615 2.615,3.258 2.606,3.020 2.716 M11.000 3.166 C 10.179 3.242,9.026 3.483,8.310 3.728 L 8.040 3.821 8.835 4.615 L 9.630 5.409 10.145 5.307 C 10.428 5.250,10.866 5.182,11.117 5.156 C 11.678 5.098,12.791 5.130,13.319 5.219 C 15.593 5.603,17.820 6.821,19.721 8.719 C 20.837 9.833,21.719 11.100,21.945 11.916 C 22.011 12.151,22.010 12.162,21.921 12.408 C 21.642 13.177,20.987 14.157,20.124 15.096 C 19.924 15.314,19.760 15.503,19.760 15.517 C 19.760 15.530,20.072 15.852,20.453 16.233 L 21.147 16.926 21.519 16.533 C 22.832 15.146,23.795 13.529,23.967 12.423 C 24.053 11.868,23.898 11.240,23.464 10.384 C 22.622 8.725,20.971 6.906,19.116 5.592 C 16.493 3.735,13.744 2.913,11.000 3.166 M11.490 7.151 C 11.409 7.177,11.702 7.482,14.174 9.954 L 16.948 12.728 16.974 12.574 C 17.084 11.904,16.885 10.772,16.522 10.013 C 16.257 9.459,16.021 9.110,15.626 8.691 C 14.930 7.954,14.062 7.457,13.083 7.236 C 12.722 7.154,11.657 7.098,11.490 7.151 M6.745 8.365 L 7.790 9.410 7.638 9.675 C 6.956 10.863,6.816 12.394,7.268 13.720 C 7.843 15.407,9.252 16.639,11.049 17.026 C 11.511 17.125,12.493 17.124,12.960 17.024 C 13.436 16.921,13.918 16.746,14.344 16.520 L 14.708 16.327 15.541 17.161 L 16.375 17.995 16.057 18.141 C 14.042 19.066,12.307 19.313,10.322 18.956 C 8.145 18.564,5.905 17.345,4.159 15.600 C 2.879 14.320,2.016 12.905,2.025 12.100 C 2.034 11.290,2.885 9.907,4.157 8.638 C 4.600 8.195,5.600 7.331,5.680 7.322 C 5.691 7.321,6.170 7.790,6.745 8.365 M11.250 12.870 C 12.322 13.942,13.200 14.832,13.200 14.847 C 13.200 14.888,12.730 15.032,12.422 15.084 C 11.797 15.190,10.996 15.020,10.414 14.657 C 10.251 14.556,9.999 14.342,9.830 14.163 C 9.172 13.464,8.893 12.544,9.055 11.611 C 9.118 11.252,9.223 10.920,9.274 10.920 C 9.288 10.920,10.177 11.797,11.250 12.870 " fill="#000640" stroke="none" fill-rule="evenodd"></path></svg>