<svg xmlns="http://www.w3.org/2000/svg" width="24" height="24" fill="currentColor" class="mmi mmi-volume-down-v2" viewBox="0 0 24 24"><path d="M4.643 3.069 C 4.546 3.103,4.392 3.206,4.300 3.298 C 3.980 3.618,4.000 3.250,4.000 8.716 L 4.000 13.578 2.565 15.019 C 1.235 16.354,1.125 16.476,1.060 16.674 C 0.976 16.934,0.994 17.199,1.113 17.444 C 1.174 17.570,1.942 18.363,3.829 20.245 C 6.219 22.629,6.478 22.876,6.657 22.935 C 6.907 23.017,7.094 23.017,7.343 22.935 C 7.518 22.876,7.699 22.710,8.981 21.435 L 10.422 20.000 15.284 20.000 C 20.750 20.000,20.382 20.020,20.702 19.700 C 21.005 19.397,21.078 18.947,20.887 18.556 C 20.825 18.427,18.770 16.350,13.171 10.755 C 6.126 3.715,5.525 3.125,5.343 3.065 C 5.101 2.985,4.876 2.987,4.643 3.069 M12.643 5.066 C 12.288 5.197,12.000 5.615,12.000 6.000 C 12.000 6.401,12.295 6.815,12.664 6.931 C 12.772 6.965,13.040 7.003,13.260 7.015 C 14.773 7.100,16.149 8.098,16.715 9.520 C 16.863 9.893,17.000 10.549,17.000 10.889 C 17.000 11.237,17.096 11.498,17.299 11.701 C 17.691 12.093,18.310 12.092,18.702 11.700 C 18.951 11.451,19.018 11.213,18.984 10.690 C 18.911 9.560,18.583 8.568,17.986 7.675 C 17.076 6.315,15.642 5.377,14.044 5.098 C 13.499 5.003,12.853 4.988,12.643 5.066 M13.650 18.000 C 9.998 18.019,9.729 18.025,9.580 18.092 C 9.473 18.140,9.018 18.565,8.210 19.371 L 6.999 20.579 5.210 18.790 L 3.422 17.001 4.645 15.771 C 5.724 14.685,5.877 14.517,5.934 14.343 C 5.993 14.166,6.000 13.755,6.000 10.283 L 6.000 6.420 11.780 12.200 L 17.560 17.980 13.650 18.000 " fill="#000640" stroke="none" fill-rule="evenodd"></path></svg>