<svg xmlns="http://www.w3.org/2000/svg" width="24" height="24" fill="currentColor" class="mmi mmi-volume-off" viewBox="0 0 24 24"><path d="M11.657 2.064 C 11.545 2.104,10.565 2.896,8.568 4.560 L 5.643 6.998 3.690 7.009 L 1.738 7.020 1.539 7.122 C 1.316 7.237,1.104 7.488,1.042 7.711 C 0.985 7.917,0.985 16.083,1.042 16.289 C 1.104 16.512,1.316 16.763,1.539 16.878 L 1.738 16.980 3.691 16.991 L 5.644 17.002 8.532 19.411 C 10.120 20.735,11.489 21.853,11.574 21.896 C 11.941 22.078,12.403 21.999,12.700 21.702 C 13.028 21.375,13.000 22.267,13.000 12.000 C 13.000 1.736,13.027 2.625,12.701 2.299 C 12.427 2.025,12.023 1.934,11.657 2.064 M10.990 15.425 L 10.980 18.850 8.744 16.987 C 7.061 15.584,6.463 15.108,6.327 15.062 C 6.176 15.010,5.885 15.000,4.573 15.000 L 3.000 15.000 3.000 12.000 L 3.000 9.000 4.573 9.000 C 5.885 9.000,6.176 8.990,6.327 8.938 C 6.463 8.892,7.061 8.416,8.744 7.013 L 10.980 5.150 10.990 8.575 C 10.996 10.459,10.996 13.541,10.990 15.425 M15.643 8.069 C 15.291 8.193,15.000 8.614,15.000 9.000 C 15.000 9.080,15.030 9.234,15.066 9.343 C 15.123 9.517,15.276 9.685,16.355 10.771 L 17.578 12.001 16.393 13.191 C 15.601 13.985,15.178 14.439,15.119 14.558 C 14.873 15.052,15.118 15.693,15.637 15.910 C 15.854 16.001,16.229 15.987,16.442 15.881 C 16.560 15.822,17.022 15.391,17.810 14.607 L 19.000 13.422 20.190 14.607 C 20.978 15.391,21.440 15.822,21.558 15.881 C 21.771 15.987,22.146 16.001,22.363 15.910 C 22.880 15.693,23.127 15.049,22.881 14.558 C 22.822 14.440,22.391 13.978,21.607 13.190 L 20.422 12.000 21.629 10.790 C 22.925 9.491,22.998 9.397,22.999 9.020 C 23.000 8.692,22.932 8.527,22.703 8.297 C 22.473 8.068,22.308 8.000,21.980 8.001 C 21.603 8.002,21.509 8.075,20.210 9.371 L 19.001 10.578 17.770 9.354 C 16.685 8.276,16.517 8.123,16.343 8.066 C 16.102 7.985,15.877 7.986,15.643 8.069 " fill="#000640" stroke="none" fill-rule="evenodd"></path></svg>