<svg xmlns="http://www.w3.org/2000/svg" width="24" height="24" fill="currentColor" class="mmi mmi-volume-up" viewBox="0 0 24 24"><path d="M11.657 2.064 C 11.545 2.104,10.565 2.896,8.568 4.560 L 5.643 6.998 3.690 7.009 L 1.738 7.020 1.539 7.122 C 1.316 7.237,1.104 7.488,1.042 7.711 C 0.985 7.917,0.985 16.083,1.042 16.289 C 1.104 16.512,1.316 16.763,1.539 16.878 L 1.738 16.980 3.691 16.991 L 5.644 17.002 8.532 19.411 C 10.120 20.735,11.489 21.853,11.574 21.896 C 11.941 22.078,12.403 21.999,12.700 21.702 C 13.028 21.375,13.000 22.267,13.000 12.000 C 13.000 1.736,13.027 2.625,12.701 2.299 C 12.427 2.025,12.023 1.934,11.657 2.064 M18.600 3.944 C 18.418 4.022,18.215 4.219,18.108 4.420 C 17.994 4.633,17.988 5.077,18.096 5.279 C 18.137 5.355,18.336 5.598,18.537 5.819 C 19.240 6.589,19.664 7.204,20.084 8.060 C 21.302 10.548,21.302 13.453,20.083 15.940 C 19.660 16.804,19.254 17.391,18.529 18.189 C 18.108 18.652,18.002 18.845,18.001 19.151 C 17.999 19.713,18.427 20.134,19.000 20.134 C 19.354 20.134,19.502 20.049,19.941 19.594 C 21.532 17.942,22.525 15.907,22.885 13.560 C 23.013 12.724,23.013 11.273,22.885 10.440 C 22.637 8.832,22.122 7.426,21.309 6.142 C 20.758 5.272,19.751 4.105,19.420 3.955 C 19.222 3.864,18.797 3.859,18.600 3.944 M10.990 15.425 L 10.980 18.850 8.744 16.987 C 7.061 15.584,6.463 15.108,6.327 15.062 C 6.176 15.010,5.885 15.000,4.573 15.000 L 3.000 15.000 3.000 12.000 L 3.000 9.000 4.573 9.000 C 5.885 9.000,6.176 8.990,6.327 8.938 C 6.463 8.892,7.061 8.416,8.744 7.013 L 10.980 5.150 10.990 8.575 C 10.996 10.459,10.996 13.541,10.990 15.425 M15.887 6.794 C 15.472 6.941,15.230 7.292,15.233 7.742 C 15.234 8.060,15.321 8.234,15.667 8.610 C 16.312 9.314,16.737 10.155,16.925 11.100 C 16.998 11.468,16.998 12.532,16.925 12.900 C 16.735 13.854,16.319 14.673,15.649 15.411 C 15.307 15.787,15.224 15.977,15.247 16.334 C 15.269 16.680,15.422 16.931,15.720 17.110 C 15.908 17.223,15.973 17.240,16.210 17.240 C 16.573 17.240,16.794 17.127,17.118 16.772 C 18.862 14.870,19.442 12.209,18.640 9.789 C 18.490 9.337,18.115 8.563,17.851 8.160 C 17.617 7.802,17.115 7.194,16.900 7.005 C 16.603 6.745,16.239 6.669,15.887 6.794 " fill="#000640" stroke="none" fill-rule="evenodd"></path></svg>