<svg xmlns="http://www.w3.org/2000/svg" width="24" height="24" fill="currentColor" class="mmi mmi-volume-up-v2" viewBox="0 0 24 24"><path d="M11.664 1.060 C 11.298 1.201,11.051 1.515,11.013 1.888 C 10.970 2.305,11.174 2.690,11.535 2.876 C 11.701 2.961,11.809 2.980,12.275 3.007 C 13.722 3.089,14.796 3.356,15.944 3.921 C 17.751 4.809,19.180 6.230,20.059 8.015 C 20.642 9.197,20.909 10.255,20.994 11.726 C 21.025 12.256,21.039 12.331,21.135 12.495 C 21.469 13.065,22.237 13.166,22.702 12.700 C 22.967 12.435,23.017 12.228,22.986 11.522 C 22.887 9.278,22.132 7.183,20.769 5.363 C 20.394 4.863,19.360 3.795,18.899 3.432 C 16.985 1.925,14.766 1.100,12.416 1.020 C 11.943 1.004,11.788 1.012,11.664 1.060 M4.643 3.069 C 4.546 3.103,4.392 3.206,4.300 3.298 C 3.980 3.618,4.000 3.250,4.000 8.716 L 4.000 13.578 2.565 15.019 C 1.290 16.301,1.124 16.482,1.065 16.657 C 0.983 16.906,0.983 17.093,1.065 17.343 C 1.124 17.522,1.371 17.781,3.755 20.171 C 5.617 22.037,6.430 22.827,6.554 22.886 C 6.797 23.005,7.026 23.021,7.304 22.941 C 7.536 22.874,7.567 22.846,8.981 21.437 L 10.422 20.000 15.284 20.000 C 20.744 20.000,20.368 20.021,20.698 19.700 C 21.004 19.403,21.076 18.944,20.881 18.542 C 20.827 18.431,18.379 15.959,13.171 10.755 C 6.126 3.715,5.525 3.125,5.343 3.065 C 5.101 2.985,4.876 2.987,4.643 3.069 M12.643 5.066 C 12.288 5.197,12.000 5.615,12.000 6.000 C 12.000 6.401,12.295 6.815,12.664 6.931 C 12.772 6.965,13.040 7.003,13.260 7.015 C 14.773 7.100,16.149 8.098,16.715 9.520 C 16.863 9.893,17.000 10.549,17.000 10.889 C 17.000 11.237,17.096 11.498,17.299 11.701 C 17.691 12.093,18.310 12.092,18.702 11.700 C 18.951 11.451,19.018 11.213,18.984 10.690 C 18.911 9.560,18.583 8.568,17.986 7.675 C 17.076 6.315,15.642 5.377,14.044 5.098 C 13.499 5.003,12.853 4.988,12.643 5.066 M13.650 18.000 C 9.998 18.019,9.729 18.025,9.580 18.092 C 9.473 18.140,9.018 18.565,8.210 19.371 L 6.999 20.579 5.210 18.790 L 3.422 17.001 4.645 15.771 C 5.724 14.685,5.877 14.517,5.934 14.343 C 5.993 14.166,6.000 13.755,6.000 10.283 L 6.000 6.420 11.780 12.200 L 17.560 17.980 13.650 18.000 " fill="#000640" stroke="none" fill-rule="evenodd"></path></svg>