<svg xmlns="http://www.w3.org/2000/svg" width="24" height="24" fill="currentColor" class="mmi mmi-wallet-slim" viewBox="0 0 24 24"><path d="M3.503 2.042 C 2.817 2.158,2.117 2.573,1.670 3.127 C 1.445 3.407,1.159 3.980,1.074 4.320 C 0.994 4.647,0.994 19.353,1.074 19.680 C 1.159 20.020,1.445 20.593,1.670 20.873 C 1.950 21.220,2.312 21.501,2.740 21.704 C 3.409 22.021,2.760 22.000,12.000 22.000 C 21.240 22.000,20.591 22.021,21.260 21.704 C 21.920 21.391,22.391 20.920,22.704 20.260 C 23.013 19.606,23.000 19.891,23.000 14.000 C 23.000 8.109,23.013 8.394,22.704 7.740 C 22.398 7.095,21.924 6.614,21.296 6.312 C 20.783 6.065,20.627 6.034,19.770 6.011 L 19.000 5.991 19.000 5.380 C 19.000 4.604,18.930 4.218,18.704 3.740 C 18.398 3.095,17.924 2.614,17.296 2.312 C 16.639 1.996,17.291 2.023,10.120 2.015 C 6.589 2.012,3.611 2.024,3.503 2.042 M16.340 4.066 C 16.593 4.153,16.847 4.407,16.934 4.660 C 16.983 4.805,17.000 4.999,17.000 5.427 L 17.000 6.000 10.425 6.000 C 3.255 6.000,3.683 6.013,3.374 5.778 C 3.301 5.723,3.192 5.592,3.131 5.489 C 3.036 5.328,3.020 5.256,3.020 5.000 C 3.020 4.744,3.036 4.672,3.131 4.511 C 3.256 4.298,3.449 4.136,3.670 4.057 C 3.793 4.013,4.939 4.003,9.983 4.002 C 15.617 4.000,16.162 4.006,16.340 4.066 M3.240 7.910 C 3.444 7.973,4.074 7.980,11.860 7.999 L 20.260 8.020 20.450 8.114 C 20.555 8.165,20.694 8.272,20.759 8.351 C 21.013 8.660,21.000 8.346,21.000 14.000 C 21.000 19.783,21.021 19.381,20.701 19.701 C 20.376 20.026,21.144 20.000,11.998 20.000 C 3.106 20.000,3.684 20.015,3.374 19.778 C 3.301 19.723,3.192 19.592,3.131 19.489 L 3.020 19.300 3.009 13.570 C 3.004 10.418,3.004 7.840,3.009 7.840 C 3.015 7.841,3.119 7.872,3.240 7.910 M17.664 13.063 C 17.436 13.146,17.257 13.297,17.131 13.511 C 17.036 13.672,17.020 13.744,17.020 14.000 C 17.020 14.256,17.036 14.328,17.131 14.489 C 17.470 15.065,18.234 15.168,18.701 14.701 C 18.881 14.521,19.000 14.242,19.000 14.000 C 19.000 13.326,18.295 12.832,17.664 13.063 " fill="#000640" stroke="none" fill-rule="evenodd"></path></svg>