<svg xmlns="http://www.w3.org/2000/svg" width="24" height="24" fill="currentColor" class="mmi mmi-wallet-bifold" viewBox="0 0 24 24"><path d="M3.503 2.042 C 2.487 2.214,1.556 2.976,1.202 3.925 C 0.993 4.484,1.001 4.151,1.001 11.992 C 1.000 19.977,0.988 19.546,1.234 20.151 C 1.521 20.857,2.143 21.479,2.849 21.766 C 3.453 22.012,3.024 22.000,11.000 22.000 C 18.974 22.000,18.547 22.012,19.150 21.767 C 19.850 21.482,20.482 20.850,20.767 20.150 C 20.950 19.699,21.000 19.360,21.000 18.561 L 21.000 17.839 21.220 17.742 C 21.890 17.445,22.491 16.827,22.767 16.150 C 22.974 15.641,23.000 15.402,23.000 14.000 C 23.000 12.598,22.974 12.359,22.767 11.850 C 22.489 11.168,21.882 10.551,21.190 10.248 L 21.000 10.164 21.000 9.441 C 21.000 8.639,20.950 8.301,20.766 7.849 C 20.492 7.176,19.956 6.624,19.260 6.298 C 18.861 6.112,18.670 6.057,18.270 6.017 L 18.000 5.989 18.000 5.353 C 18.000 4.645,17.944 4.286,17.766 3.849 C 17.499 3.193,16.964 2.633,16.296 2.312 C 15.641 1.997,16.231 2.023,9.620 2.015 C 6.364 2.012,3.611 2.024,3.503 2.042 M15.340 4.066 C 15.593 4.153,15.847 4.407,15.934 4.660 C 15.983 4.805,16.000 4.999,16.000 5.427 L 16.000 6.000 9.927 6.000 C 3.106 6.000,3.621 6.023,3.299 5.701 C 2.907 5.309,2.908 4.690,3.300 4.298 C 3.613 3.985,3.149 4.007,9.483 4.003 C 14.654 4.000,15.163 4.006,15.340 4.066 M3.424 7.940 C 3.660 7.990,4.746 7.999,10.923 7.999 C 19.032 8.000,18.377 7.975,18.701 8.299 C 18.948 8.546,19.000 8.741,19.000 9.425 L 19.000 9.995 17.230 10.010 C 15.265 10.028,15.304 10.023,14.704 10.312 C 13.836 10.729,13.263 11.466,13.060 12.425 C 12.974 12.830,12.975 15.164,13.062 15.581 C 13.310 16.785,14.215 17.690,15.419 17.938 C 15.659 17.988,16.036 18.000,17.358 18.000 L 19.000 18.000 19.000 18.573 C 19.000 19.259,18.948 19.454,18.701 19.701 C 18.377 20.025,19.023 20.000,11.000 20.000 C 2.977 20.000,3.623 20.025,3.299 19.701 C 2.978 19.380,3.000 19.844,3.000 13.490 C 3.000 7.995,3.002 7.835,3.074 7.858 C 3.115 7.871,3.273 7.908,3.424 7.940 M20.340 12.066 C 20.593 12.153,20.847 12.407,20.934 12.660 C 20.989 12.823,21.000 13.038,21.000 14.000 C 21.000 15.316,20.982 15.421,20.701 15.701 C 20.399 16.003,20.427 16.000,18.000 16.000 C 15.573 16.000,15.601 16.003,15.299 15.701 C 15.018 15.421,15.000 15.316,15.000 14.000 C 15.000 12.684,15.018 12.580,15.300 12.298 C 15.596 12.002,15.550 12.007,17.983 12.003 C 19.897 12.000,20.168 12.008,20.340 12.066 " fill="#000640" stroke="none" fill-rule="evenodd"></path></svg>