<svg xmlns="http://www.w3.org/2000/svg" width="24" height="24" fill="currentColor" class="mmi mmi-wallet" viewBox="0 0 24 24"><path d="M3.503 2.042 C 2.818 2.158,2.117 2.573,1.670 3.127 C 1.445 3.407,1.159 3.980,1.074 4.320 C 0.994 4.647,0.994 19.353,1.074 19.680 C 1.159 20.020,1.445 20.593,1.670 20.873 C 1.950 21.220,2.312 21.501,2.740 21.704 C 3.406 22.019,2.877 22.000,11.000 22.000 C 19.123 22.000,18.594 22.019,19.260 21.704 C 19.920 21.391,20.391 20.920,20.704 20.260 C 20.965 19.708,21.000 19.446,21.000 18.033 L 21.000 16.836 21.190 16.752 C 22.101 16.353,22.771 15.501,22.941 14.525 C 23.028 14.027,23.027 9.910,22.940 9.450 C 22.756 8.484,22.109 7.664,21.210 7.259 L 21.000 7.164 21.000 5.967 C 21.000 4.554,20.965 4.292,20.704 3.740 C 20.398 3.095,19.924 2.614,19.296 2.312 C 18.636 1.994,19.412 2.023,11.120 2.015 C 7.039 2.012,3.611 2.024,3.503 2.042 M18.340 4.066 C 18.593 4.153,18.847 4.407,18.934 4.660 C 18.989 4.822,19.000 5.033,19.000 5.925 L 19.000 6.995 17.230 7.011 C 15.339 7.027,15.306 7.031,14.816 7.245 C 14.530 7.370,14.127 7.640,13.913 7.849 C 13.628 8.126,11.987 10.341,11.822 10.670 C 11.411 11.489,11.411 12.511,11.822 13.330 C 11.987 13.658,13.600 15.835,13.903 16.137 C 14.123 16.357,14.518 16.624,14.816 16.755 C 15.306 16.969,15.339 16.973,17.230 16.989 L 19.000 17.005 19.000 18.075 C 19.000 19.308,18.979 19.423,18.701 19.701 C 18.377 20.025,19.023 20.000,10.998 20.000 C 3.201 20.000,3.683 20.014,3.374 19.778 C 3.301 19.723,3.192 19.592,3.131 19.489 L 3.020 19.300 3.020 12.000 L 3.020 4.700 3.131 4.511 C 3.256 4.298,3.449 4.136,3.670 4.057 C 3.793 4.013,5.104 4.003,10.983 4.002 C 17.548 4.000,18.162 4.006,18.340 4.066 M20.340 9.066 C 20.593 9.153,20.847 9.407,20.934 9.660 C 20.992 9.831,21.000 10.108,21.000 12.000 C 21.000 14.429,21.003 14.399,20.700 14.702 C 20.395 15.007,20.429 15.003,17.936 14.991 L 15.738 14.980 15.539 14.879 C 15.361 14.789,15.250 14.659,14.510 13.679 C 14.054 13.075,13.642 12.503,13.596 12.409 C 13.496 12.205,13.484 11.844,13.570 11.637 C 13.602 11.560,14.007 10.992,14.470 10.375 C 15.300 9.266,15.433 9.123,15.711 9.040 C 15.771 9.022,16.793 9.005,17.983 9.003 C 19.897 9.000,20.168 9.008,20.340 9.066 M16.664 11.063 C 16.436 11.146,16.257 11.297,16.131 11.511 C 16.036 11.672,16.020 11.744,16.020 12.000 C 16.020 12.256,16.036 12.328,16.131 12.489 C 16.470 13.065,17.234 13.168,17.701 12.701 C 17.881 12.521,18.000 12.242,18.000 12.000 C 18.000 11.326,17.295 10.832,16.664 11.063 " fill="#000640" stroke="none" fill-rule="evenodd"></path></svg>