<svg xmlns="http://www.w3.org/2000/svg" width="24" height="24" fill="currentColor" class="mmi mmi-warning" viewBox="0 0 24 24"><path d="M11.200 0.025 C 7.091 0.332,3.508 2.609,1.507 6.186 C 0.775 7.494,0.317 8.899,0.094 10.520 C -0.002 11.214,-0.002 12.786,0.094 13.480 C 0.317 15.101,0.775 16.506,1.507 17.814 C 4.173 22.579,9.604 24.939,14.910 23.637 C 19.156 22.595,22.595 19.156,23.637 14.910 C 24.599 10.992,23.592 6.970,20.896 3.958 C 19.003 1.843,16.397 0.483,13.500 0.099 C 13.032 0.037,11.640 -0.007,11.200 0.025 M12.920 2.043 C 14.827 2.219,16.631 2.940,18.200 4.155 C 18.637 4.493,19.507 5.363,19.845 5.800 C 21.878 8.427,22.517 11.768,21.578 14.865 C 21.082 16.499,20.272 17.850,19.061 19.061 C 18.287 19.836,17.547 20.383,16.623 20.863 C 13.714 22.376,10.286 22.376,7.377 20.863 C 6.454 20.383,5.715 19.837,4.938 19.061 C 3.951 18.075,3.213 16.964,2.722 15.728 C 1.390 12.368,1.921 8.686,4.153 5.800 C 4.491 5.363,5.363 4.491,5.800 4.153 C 7.114 3.137,8.541 2.486,10.125 2.181 C 11.037 2.006,12.003 1.958,12.920 2.043 M11.257 6.056 C 10.924 6.161,10.673 6.440,10.598 6.790 C 10.545 7.037,10.958 13.608,11.036 13.752 C 11.063 13.803,11.142 13.879,11.213 13.922 C 11.325 13.991,11.417 14.000,12.004 14.000 C 12.629 14.000,12.676 13.995,12.804 13.909 C 12.894 13.848,12.956 13.764,12.988 13.659 C 13.014 13.571,13.126 12.015,13.237 10.200 C 13.395 7.623,13.430 6.866,13.396 6.744 C 13.302 6.406,13.031 6.133,12.700 6.044 C 12.478 5.984,11.460 5.993,11.257 6.056 M11.600 15.061 C 11.151 15.185,10.768 15.540,10.600 15.989 C 10.467 16.343,10.495 16.811,10.671 17.169 C 11.210 18.262,12.790 18.262,13.329 17.169 C 13.503 16.814,13.533 16.343,13.402 15.994 C 13.243 15.570,12.917 15.239,12.520 15.099 C 12.255 15.006,11.859 14.989,11.600 15.061 " stroke="none" fill-rule="evenodd"></path></svg>