<svg xmlns="http://www.w3.org/2000/svg" width="24" height="24" fill="currentColor" class="mmi mmi-warning-filled" viewBox="0 0 24 24"><path d="M11.200 0.025 C 7.677 0.288,4.535 1.992,2.410 4.793 C 1.201 6.386,0.442 8.222,0.109 10.359 C -0.013 11.143,-0.013 12.857,0.109 13.641 C 0.563 16.554,1.872 19.025,3.948 20.887 C 5.791 22.541,7.832 23.497,10.359 23.891 C 11.143 24.013,12.857 24.013,13.641 23.891 C 16.557 23.436,19.036 22.122,20.896 20.043 C 22.545 18.200,23.498 16.163,23.891 13.641 C 24.013 12.857,24.013 11.143,23.891 10.359 C 23.557 8.220,22.799 6.386,21.588 4.790 C 19.607 2.179,16.767 0.532,13.500 0.099 C 13.032 0.037,11.640 -0.007,11.200 0.025 M12.700 6.044 C 13.041 6.135,13.315 6.419,13.399 6.767 C 13.454 6.994,13.042 13.609,12.965 13.752 C 12.937 13.803,12.858 13.879,12.787 13.922 C 12.675 13.991,12.583 14.000,11.996 14.000 C 11.371 14.000,11.324 13.995,11.196 13.909 C 11.106 13.848,11.044 13.764,11.013 13.659 C 10.987 13.571,10.874 12.015,10.762 10.200 C 10.603 7.603,10.569 6.867,10.603 6.744 C 10.696 6.414,10.943 6.155,11.257 6.056 C 11.460 5.993,12.478 5.984,12.700 6.044 M12.520 15.099 C 12.917 15.239,13.243 15.570,13.402 15.994 C 13.533 16.343,13.503 16.814,13.329 17.169 C 13.175 17.480,12.924 17.722,12.600 17.873 C 12.413 17.961,12.324 17.976,12.000 17.976 C 11.676 17.976,11.587 17.961,11.400 17.873 C 11.076 17.722,10.825 17.480,10.671 17.169 C 10.495 16.811,10.467 16.343,10.600 15.989 C 10.834 15.364,11.429 14.973,12.080 15.018 C 12.223 15.028,12.421 15.064,12.520 15.099 " fill="#000640" stroke="none" fill-rule="evenodd"></path></svg>