<svg xmlns="http://www.w3.org/2000/svg" width="24" height="24" fill="currentColor" class="mmi mmi-warning-triangle" viewBox="0 0 24 24"><path d="M11.340 1.103 C 10.977 1.183,10.403 1.463,10.103 1.707 C 9.972 1.813,9.780 2.009,9.675 2.142 C 9.520 2.340,1.062 17.084,0.744 17.712 C 0.543 18.109,0.464 18.464,0.462 18.980 C 0.460 19.847,0.723 20.485,1.340 21.105 C 1.659 21.426,1.754 21.495,2.122 21.673 C 2.851 22.027,2.046 22.000,11.979 22.000 C 21.933 22.000,21.155 22.026,21.878 21.674 C 22.246 21.495,22.340 21.426,22.658 21.105 C 22.926 20.835,23.063 20.657,23.187 20.420 C 23.597 19.636,23.660 18.741,23.362 17.951 C 23.240 17.631,14.553 2.435,14.322 2.140 C 13.978 1.700,13.450 1.345,12.860 1.160 C 12.488 1.043,11.742 1.015,11.340 1.103 M12.441 3.150 C 12.559 3.211,12.705 3.323,12.766 3.400 C 12.947 3.631,21.469 18.574,21.516 18.743 C 21.612 19.090,21.520 19.434,21.260 19.694 C 20.925 20.028,21.780 20.000,12.000 20.000 C 2.220 20.000,3.075 20.028,2.740 19.694 C 2.480 19.434,2.388 19.090,2.484 18.743 C 2.537 18.552,11.126 3.506,11.274 3.345 C 11.557 3.038,12.057 2.954,12.441 3.150 M11.320 8.036 C 11.005 8.137,10.729 8.398,10.646 8.674 C 10.577 8.907,10.585 9.069,10.783 11.433 C 10.912 12.978,10.983 13.648,11.025 13.729 C 11.147 13.966,11.269 14.000,12.000 14.000 C 12.731 14.000,12.853 13.966,12.975 13.729 C 13.017 13.648,13.088 12.978,13.217 11.433 C 13.415 9.069,13.423 8.907,13.354 8.674 C 13.293 8.473,13.075 8.220,12.866 8.109 C 12.717 8.030,12.633 8.020,12.060 8.012 C 11.708 8.007,11.375 8.018,11.320 8.036 M11.601 15.064 C 11.044 15.214,10.632 15.671,10.523 16.260 C 10.405 16.900,10.776 17.583,11.400 17.873 C 11.587 17.961,11.676 17.976,12.000 17.976 C 12.324 17.976,12.413 17.961,12.600 17.873 C 13.224 17.583,13.595 16.900,13.477 16.260 C 13.366 15.662,12.954 15.211,12.381 15.062 C 12.091 14.986,11.888 14.987,11.601 15.064 " fill="#000640" stroke="none" fill-rule="evenodd"></path></svg>