<svg xmlns="http://www.w3.org/2000/svg" width="24" height="24" fill="currentColor" class="mmi mmi-watch-digital" viewBox="0 0 24 24"><path d="M8.503 0.042 C 7.569 0.202,6.727 0.840,6.312 1.704 C 6.017 2.316,6.027 2.224,6.010 4.581 L 5.996 6.702 5.719 7.053 C 4.871 8.129,4.334 9.360,4.094 10.780 C 4.000 11.334,4.000 12.666,4.094 13.220 C 4.245 14.110,4.490 14.868,4.868 15.610 C 5.113 16.092,5.514 16.710,5.794 17.038 L 5.980 17.256 6.003 19.398 C 6.028 21.774,6.019 21.688,6.312 22.296 C 6.614 22.924,7.095 23.398,7.740 23.704 C 8.370 24.002,8.337 24.000,12.000 24.000 C 15.663 24.000,15.630 24.002,16.260 23.704 C 16.920 23.391,17.391 22.920,17.704 22.260 C 17.986 21.664,18.000 21.524,18.000 19.263 L 18.000 17.295 18.274 16.953 C 19.113 15.908,19.658 14.659,19.906 13.218 C 20.000 12.665,20.000 11.335,19.906 10.782 C 19.658 9.341,19.113 8.092,18.274 7.047 L 18.000 6.705 18.000 4.737 C 18.000 2.476,17.986 2.336,17.704 1.740 C 17.398 1.095,16.924 0.614,16.296 0.312 C 15.658 0.005,15.932 0.024,12.120 0.016 C 10.239 0.011,8.611 0.023,8.503 0.042 M15.340 2.066 C 15.593 2.153,15.847 2.407,15.934 2.660 C 15.989 2.822,16.000 3.036,16.000 3.961 L 16.000 5.069 15.664 4.894 C 14.923 4.509,13.920 4.191,13.080 4.075 C 12.591 4.007,11.409 4.007,10.920 4.075 C 10.079 4.192,9.077 4.509,8.334 4.895 L 7.996 5.071 8.008 3.885 L 8.020 2.700 8.131 2.511 C 8.256 2.298,8.449 2.136,8.670 2.057 C 8.790 2.014,9.445 2.003,11.983 2.002 C 14.825 2.000,15.165 2.007,15.340 2.066 M13.191 6.117 C 15.589 6.639,17.367 8.418,17.882 10.809 C 17.985 11.289,18.024 12.183,17.963 12.680 C 17.795 14.058,17.192 15.290,16.210 16.266 C 15.386 17.084,14.381 17.621,13.170 17.889 C 12.605 18.014,11.395 18.014,10.830 17.889 C 9.619 17.621,8.614 17.084,7.790 16.266 C 6.144 14.631,5.585 12.274,6.321 10.069 C 6.864 8.441,8.172 7.064,9.780 6.427 C 10.188 6.265,10.807 6.100,11.221 6.043 C 11.665 5.982,12.758 6.023,13.191 6.117 M8.664 10.063 C 8.436 10.146,8.257 10.297,8.131 10.511 C 8.036 10.672,8.020 10.744,8.020 11.000 C 8.020 11.256,8.036 11.328,8.131 11.489 C 8.192 11.592,8.301 11.723,8.374 11.778 C 8.672 12.006,8.578 12.000,11.998 12.000 C 15.545 12.000,15.390 12.013,15.701 11.701 C 16.092 11.310,16.092 10.690,15.701 10.299 C 15.389 9.987,15.547 10.000,11.983 10.003 C 9.342 10.005,8.794 10.015,8.664 10.063 M9.664 13.063 C 9.436 13.146,9.257 13.297,9.131 13.511 C 9.036 13.672,9.020 13.744,9.020 14.000 C 9.020 14.256,9.036 14.328,9.131 14.489 C 9.192 14.592,9.301 14.723,9.374 14.778 C 9.664 15.000,9.670 15.000,11.998 15.000 C 14.428 15.000,14.399 15.003,14.701 14.701 C 15.092 14.310,15.092 13.690,14.701 13.299 C 14.398 12.996,14.430 13.000,11.983 13.003 C 10.210 13.005,9.792 13.016,9.664 13.063 M9.082 19.443 C 9.570 19.636,10.391 19.852,10.920 19.925 C 11.129 19.954,11.615 19.978,12.000 19.978 C 12.385 19.978,12.871 19.954,13.080 19.925 C 13.920 19.809,14.923 19.491,15.664 19.106 L 16.000 18.931 16.000 20.039 C 16.000 21.312,15.980 21.422,15.701 21.701 C 15.390 22.013,15.545 22.000,11.998 22.000 C 8.578 22.000,8.672 22.006,8.374 21.778 C 8.301 21.723,8.192 21.592,8.131 21.489 L 8.020 21.300 8.008 20.115 L 7.996 18.929 8.334 19.105 C 8.520 19.201,8.857 19.353,9.082 19.443 " fill="#000640" stroke="none" fill-rule="evenodd"></path></svg>