<svg xmlns="http://www.w3.org/2000/svg" width="24" height="24" fill="currentColor" class="mmi mmi-watch-v2" viewBox="0 0 24 24"><path d="M8.503 0.042 C 7.485 0.216,6.556 0.976,6.202 1.925 C 6.012 2.434,6.001 2.578,6.000 4.700 L 5.999 6.700 5.773 6.980 C 4.644 8.378,4.000 10.200,4.000 12.000 C 4.000 13.800,4.644 15.622,5.773 17.020 L 5.999 17.300 5.999 19.292 C 6.000 20.927,6.011 21.337,6.062 21.581 C 6.310 22.785,7.215 23.690,8.419 23.938 C 8.864 24.030,15.136 24.030,15.581 23.938 C 16.780 23.691,17.691 22.780,17.938 21.581 C 17.989 21.337,18.000 20.927,18.001 19.292 L 18.001 17.300 18.227 17.020 C 19.356 15.622,20.000 13.800,20.000 12.000 C 20.000 10.200,19.356 8.378,18.227 6.980 L 18.001 6.700 18.001 4.708 C 18.000 2.537,17.988 2.394,17.766 1.849 C 17.499 1.193,16.964 0.633,16.296 0.312 C 15.658 0.005,15.932 0.024,12.120 0.016 C 10.239 0.011,8.611 0.023,8.503 0.042 M15.340 2.066 C 15.593 2.153,15.847 2.407,15.934 2.660 C 15.989 2.822,16.000 3.036,16.000 3.961 L 16.000 5.069 15.664 4.894 C 14.923 4.509,13.920 4.191,13.080 4.075 C 12.591 4.007,11.409 4.007,10.920 4.075 C 10.080 4.191,9.077 4.509,8.336 4.894 L 8.000 5.069 8.000 3.961 C 8.000 2.688,8.020 2.578,8.300 2.298 C 8.605 1.993,8.437 2.007,11.983 2.003 C 14.827 2.000,15.165 2.007,15.340 2.066 M13.160 6.119 C 13.751 6.240,14.224 6.406,14.761 6.684 C 16.403 7.532,17.546 9.080,17.906 10.940 C 18.003 11.438,18.003 12.562,17.906 13.060 C 17.792 13.649,17.611 14.175,17.338 14.713 C 16.501 16.363,15.042 17.474,13.170 17.889 C 12.605 18.014,11.395 18.014,10.830 17.889 C 8.388 17.348,6.631 15.585,6.116 13.160 C 5.998 12.604,5.986 11.490,6.093 10.940 C 6.456 9.076,7.600 7.527,9.238 6.686 C 9.937 6.326,10.563 6.133,11.320 6.041 C 11.790 5.984,12.680 6.022,13.160 6.119 M8.411 19.146 C 9.132 19.508,10.050 19.799,10.880 19.927 C 11.329 19.997,12.679 19.996,13.120 19.926 C 13.977 19.790,14.869 19.508,15.589 19.146 C 15.792 19.044,15.968 18.960,15.979 18.960 C 15.991 18.960,16.000 19.452,16.000 20.053 C 16.000 21.310,15.980 21.422,15.701 21.701 C 15.390 22.013,15.544 22.000,12.000 22.000 C 8.456 22.000,8.610 22.013,8.299 21.701 C 8.020 21.422,8.000 21.310,8.000 20.053 C 8.000 19.452,8.009 18.960,8.021 18.960 C 8.032 18.960,8.208 19.044,8.411 19.146 " fill="#000640" stroke="none" fill-rule="evenodd"></path></svg>