<svg xmlns="http://www.w3.org/2000/svg" width="24" height="24" fill="currentColor" class="mmi mmi-watch-v4" viewBox="0 0 24 24"><path d="M16.780 0.906 C 16.316 0.944,15.879 1.084,15.460 1.328 C 15.239 1.457,14.915 1.755,13.916 2.748 L 12.652 4.005 11.916 4.019 C 11.113 4.034,10.627 4.097,9.942 4.276 C 8.042 4.773,6.364 5.996,5.270 7.680 C 4.445 8.951,4.000 10.487,4.000 12.064 L 4.000 12.645 2.685 13.952 C 1.450 15.181,1.361 15.279,1.209 15.580 C 0.985 16.026,0.880 16.396,0.852 16.841 C 0.813 17.475,0.985 18.115,1.340 18.663 C 1.517 18.936,4.804 22.262,5.180 22.549 C 6.203 23.329,7.633 23.364,8.709 22.636 C 8.814 22.565,9.467 21.945,10.160 21.258 L 11.420 20.009 12.160 19.988 C 13.446 19.951,14.374 19.727,15.500 19.181 C 17.598 18.164,19.175 16.241,19.734 14.020 C 19.914 13.305,19.965 12.922,19.988 12.120 L 20.010 11.340 21.207 10.165 C 21.865 9.518,22.484 8.877,22.582 8.739 C 22.969 8.197,23.135 7.675,23.135 7.000 C 23.135 6.449,23.071 6.178,22.813 5.640 L 22.630 5.260 21.105 3.725 C 19.172 1.780,18.826 1.464,18.364 1.229 C 17.895 0.989,17.284 0.864,16.780 0.906 M17.458 3.009 C 17.687 3.126,20.867 6.271,21.016 6.528 C 21.112 6.694,21.132 6.772,21.132 6.994 C 21.132 7.168,21.107 7.310,21.062 7.401 C 21.024 7.477,20.648 7.886,20.227 8.310 L 19.461 9.079 19.238 8.610 C 18.422 6.896,17.109 5.581,15.404 4.769 L 14.949 4.552 15.684 3.813 C 16.089 3.407,16.469 3.049,16.529 3.017 C 16.813 2.866,17.172 2.863,17.458 3.009 M12.632 6.042 C 14.145 6.207,15.499 6.908,16.504 8.047 C 18.110 9.867,18.448 12.514,17.355 14.691 C 16.528 16.335,15.035 17.477,13.174 17.887 C 12.602 18.013,11.394 18.014,10.830 17.889 C 8.388 17.348,6.632 15.587,6.115 13.160 C 5.986 12.555,5.986 11.445,6.115 10.840 C 6.435 9.339,7.234 8.077,8.429 7.185 C 8.804 6.905,9.463 6.543,9.891 6.382 C 10.731 6.066,11.721 5.943,12.632 6.042 M13.640 9.069 C 13.491 9.120,13.268 9.322,12.347 10.235 C 11.735 10.843,11.186 11.421,11.127 11.520 C 11.037 11.672,11.020 11.746,11.020 12.000 C 11.020 12.254,11.037 12.328,11.127 12.480 C 11.186 12.579,11.735 13.158,12.347 13.766 C 13.392 14.805,13.473 14.876,13.677 14.936 C 13.948 15.016,14.012 15.016,14.283 14.936 C 14.581 14.847,14.847 14.581,14.936 14.283 C 15.016 14.012,15.016 13.948,14.936 13.677 C 14.877 13.479,14.808 13.396,14.148 12.730 L 13.425 12.000 14.146 11.270 C 14.912 10.496,15.000 10.364,15.000 10.000 C 15.000 9.314,14.305 8.839,13.640 9.069 M5.308 16.380 C 6.139 17.633,7.269 18.612,8.610 19.240 C 8.868 19.361,9.080 19.470,9.080 19.482 C 9.080 19.494,8.725 19.856,8.290 20.285 C 7.447 21.117,7.384 21.160,7.000 21.160 C 6.586 21.160,6.628 21.194,4.787 19.363 C 3.845 18.426,3.026 17.579,2.967 17.480 C 2.826 17.243,2.817 16.826,2.946 16.582 C 2.992 16.495,3.369 16.087,3.783 15.675 L 4.536 14.926 4.802 15.473 C 4.949 15.774,5.176 16.182,5.308 16.380 " fill="#000640" stroke="none" fill-rule="evenodd"></path></svg>