<svg xmlns="http://www.w3.org/2000/svg" width="24" height="24" fill="currentColor" class="mmi mmi-watch-v3" viewBox="0 0 24 24"><path d="M8.503 0.042 C 7.569 0.202,6.727 0.840,6.312 1.704 C 6.017 2.316,6.027 2.224,6.010 4.582 L 5.996 6.704 5.772 6.982 C 4.900 8.067,4.338 9.339,4.094 10.780 C 4.000 11.334,4.000 12.666,4.094 13.220 C 4.334 14.639,4.902 15.939,5.718 16.938 L 5.980 17.260 6.003 19.400 C 6.028 21.774,6.019 21.688,6.312 22.296 C 6.614 22.924,7.095 23.398,7.740 23.704 C 8.370 24.002,8.337 24.000,12.000 24.000 C 15.663 24.000,15.630 24.002,16.260 23.704 C 16.920 23.391,17.391 22.920,17.704 22.260 C 17.986 21.664,18.000 21.524,18.000 19.263 L 18.000 17.295 18.274 16.953 C 19.113 15.908,19.658 14.659,19.906 13.218 C 20.000 12.665,20.000 11.335,19.906 10.782 C 19.658 9.341,19.113 8.092,18.274 7.047 L 18.000 6.705 18.000 4.737 C 18.000 2.476,17.986 2.336,17.704 1.740 C 17.398 1.095,16.924 0.614,16.296 0.312 C 15.658 0.005,15.932 0.024,12.120 0.016 C 10.239 0.011,8.611 0.023,8.503 0.042 M15.340 2.066 C 15.593 2.153,15.847 2.407,15.934 2.660 C 15.989 2.822,16.000 3.036,16.000 3.961 L 16.000 5.069 15.664 4.894 C 14.923 4.509,13.920 4.191,13.080 4.075 C 12.591 4.007,11.409 4.007,10.920 4.075 C 10.079 4.192,9.077 4.509,8.334 4.895 L 7.996 5.071 8.008 3.885 L 8.020 2.700 8.131 2.511 C 8.256 2.298,8.449 2.136,8.670 2.057 C 8.790 2.014,9.445 2.003,11.983 2.002 C 14.825 2.000,15.165 2.007,15.340 2.066 M12.721 6.042 C 14.996 6.322,16.957 7.916,17.679 10.072 C 17.870 10.642,17.960 11.127,17.986 11.740 C 18.060 13.461,17.437 15.047,16.210 16.266 C 15.386 17.084,14.381 17.621,13.170 17.889 C 12.605 18.014,11.395 18.014,10.830 17.889 C 8.397 17.350,6.635 15.593,6.118 13.191 C 6.015 12.711,5.976 11.817,6.037 11.320 C 6.304 9.131,7.715 7.267,9.720 6.454 C 10.682 6.063,11.730 5.920,12.721 6.042 M11.664 8.063 C 11.436 8.146,11.257 8.297,11.131 8.511 L 11.020 8.700 11.020 10.500 L 11.020 12.300 11.131 12.489 C 11.192 12.592,11.301 12.723,11.374 12.778 C 11.657 12.994,11.715 13.000,13.498 13.000 C 15.371 13.000,15.407 12.995,15.701 12.701 C 16.092 12.310,16.092 11.690,15.701 11.299 C 15.423 11.021,15.308 11.000,14.073 11.000 L 13.000 11.000 13.000 9.927 C 13.000 8.692,12.979 8.577,12.701 8.299 C 12.429 8.027,12.018 7.933,11.664 8.063 M9.082 19.443 C 9.570 19.636,10.391 19.852,10.920 19.925 C 11.129 19.954,11.615 19.978,12.000 19.978 C 12.385 19.978,12.871 19.954,13.080 19.925 C 13.920 19.809,14.923 19.491,15.664 19.106 L 16.000 18.931 16.000 20.039 C 16.000 21.312,15.980 21.422,15.701 21.701 C 15.390 22.013,15.545 22.000,11.998 22.000 C 8.578 22.000,8.672 22.006,8.374 21.778 C 8.301 21.723,8.192 21.592,8.131 21.489 L 8.020 21.300 8.008 20.115 L 7.996 18.929 8.334 19.105 C 8.520 19.201,8.857 19.353,9.082 19.443 " fill="#000640" stroke="none" fill-rule="evenodd"></path></svg>