<svg xmlns="http://www.w3.org/2000/svg" width="24" height="24" fill="currentColor" class="mmi mmi-watch" viewBox="0 0 24 24"><path d="M16.546 0.879 C 16.204 0.942,15.828 1.075,15.520 1.243 C 15.257 1.387,15.059 1.569,13.930 2.704 L 12.640 4.001 11.890 4.018 C 11.081 4.035,10.645 4.094,9.927 4.281 C 8.045 4.770,6.361 6.000,5.270 7.680 C 4.446 8.950,4.000 10.488,4.000 12.063 L 4.000 12.642 2.685 13.951 C 1.452 15.179,1.361 15.280,1.209 15.580 C 0.985 16.025,0.880 16.396,0.852 16.841 C 0.813 17.475,0.985 18.115,1.340 18.663 C 1.517 18.936,4.804 22.262,5.180 22.549 C 6.203 23.329,7.633 23.364,8.709 22.636 C 8.814 22.565,9.467 21.945,10.160 21.258 L 11.420 20.009 12.160 19.988 C 13.446 19.951,14.374 19.727,15.500 19.181 C 17.598 18.164,19.175 16.241,19.734 14.020 C 19.914 13.308,19.965 12.921,19.989 12.120 L 20.012 11.340 21.303 10.060 C 22.437 8.936,22.613 8.744,22.757 8.480 C 23.314 7.458,23.278 6.289,22.661 5.339 C 22.480 5.062,19.339 1.878,18.888 1.516 C 18.566 1.256,18.147 1.040,17.780 0.942 C 17.490 0.865,16.814 0.831,16.546 0.879 M17.444 2.940 C 17.628 3.033,20.898 6.294,21.031 6.518 C 21.165 6.744,21.182 7.176,21.065 7.400 C 21.025 7.477,20.648 7.886,20.228 8.308 L 19.464 9.076 19.219 8.568 C 18.396 6.858,17.006 5.491,15.310 4.722 L 14.919 4.545 15.610 3.843 C 16.357 3.082,16.471 2.983,16.705 2.896 C 16.897 2.825,17.257 2.846,17.444 2.940 M12.632 6.042 C 14.145 6.207,15.499 6.908,16.504 8.047 C 18.110 9.867,18.448 12.514,17.355 14.691 C 16.528 16.335,15.035 17.477,13.174 17.887 C 12.602 18.013,11.394 18.014,10.830 17.889 C 8.388 17.348,6.632 15.587,6.115 13.160 C 5.986 12.555,5.986 11.445,6.115 10.840 C 6.435 9.339,7.234 8.077,8.429 7.185 C 8.804 6.905,9.463 6.543,9.891 6.382 C 10.731 6.066,11.721 5.943,12.632 6.042 M5.308 16.380 C 6.139 17.633,7.269 18.612,8.610 19.240 C 8.868 19.361,9.080 19.470,9.080 19.482 C 9.080 19.494,8.725 19.856,8.290 20.285 C 7.447 21.117,7.384 21.160,7.000 21.160 C 6.586 21.160,6.628 21.194,4.787 19.363 C 3.845 18.426,3.026 17.579,2.967 17.480 C 2.826 17.243,2.817 16.826,2.946 16.582 C 2.992 16.495,3.369 16.087,3.783 15.675 L 4.536 14.926 4.802 15.473 C 4.949 15.774,5.176 16.182,5.308 16.380 " fill="#000640" stroke="none" fill-rule="evenodd"></path></svg>