<svg xmlns="http://www.w3.org/2000/svg" width="24" height="24" fill="currentColor" class="mmi mmi-watch-purse" viewBox="0 0 24 24"><path d="M3.503 2.042 C 2.488 2.214,1.556 2.976,1.202 3.925 C 1.009 4.443,1.001 4.555,1.001 7.005 C 1.000 8.891,1.011 9.373,1.061 9.659 C 1.164 10.247,1.356 10.733,1.687 11.240 C 1.899 11.565,2.471 12.135,2.772 12.320 L 2.999 12.460 2.999 15.872 C 3.000 19.596,2.999 19.574,3.234 20.151 C 3.521 20.857,4.143 21.479,4.849 21.766 C 5.449 22.011,5.123 22.000,12.000 22.000 C 18.876 22.000,18.551 22.011,19.150 21.767 C 19.850 21.482,20.482 20.850,20.767 20.150 C 21.001 19.574,21.000 19.595,21.001 15.872 L 21.001 12.460 21.228 12.320 C 21.529 12.135,22.101 11.565,22.313 11.240 C 22.644 10.733,22.836 10.247,22.939 9.659 C 23.029 9.141,23.029 4.856,22.938 4.419 C 22.745 3.480,22.156 2.725,21.296 2.312 C 20.634 1.993,21.532 2.022,12.120 2.015 C 7.489 2.012,3.611 2.024,3.503 2.042 M20.340 4.066 C 20.593 4.153,20.847 4.407,20.934 4.660 C 20.992 4.831,21.000 5.108,21.000 7.000 C 21.000 8.368,20.984 9.231,20.957 9.383 C 20.819 10.138,20.170 10.797,19.408 10.956 C 19.269 10.985,18.475 11.000,17.098 11.000 L 15.000 11.000 15.000 10.427 C 15.000 9.741,14.948 9.546,14.701 9.299 C 14.399 8.997,14.428 9.000,11.998 9.000 C 9.670 9.000,9.664 9.000,9.374 9.222 C 9.301 9.277,9.192 9.408,9.131 9.511 C 9.024 9.693,9.020 9.723,9.007 10.350 L 8.993 11.000 6.899 11.000 C 5.524 11.000,4.731 10.985,4.592 10.956 C 3.830 10.797,3.181 10.138,3.043 9.383 C 3.016 9.231,3.000 8.368,3.000 7.000 C 3.000 4.572,2.997 4.601,3.300 4.298 C 3.617 3.981,2.858 4.007,11.983 4.003 C 19.481 4.000,20.162 4.005,20.340 4.066 M13.000 12.000 L 13.000 13.000 12.000 13.000 L 11.000 13.000 11.000 12.000 L 11.000 11.000 12.000 11.000 L 13.000 11.000 13.000 12.000 M9.007 13.650 C 9.020 14.277,9.024 14.307,9.131 14.489 C 9.192 14.592,9.301 14.723,9.374 14.778 C 9.664 15.000,9.670 15.000,11.998 15.000 C 14.428 15.000,14.399 15.003,14.701 14.701 C 14.948 14.454,15.000 14.259,15.000 13.573 L 15.000 13.000 17.000 13.000 L 19.000 13.000 19.000 16.073 C 19.000 19.536,19.012 19.390,18.701 19.701 C 18.379 20.023,18.903 20.000,12.000 20.000 C 5.097 20.000,5.621 20.023,5.299 19.701 C 4.988 19.390,5.000 19.536,5.000 16.073 L 5.000 13.000 6.997 13.000 L 8.993 13.000 9.007 13.650 " fill="#000640" stroke="none" fill-rule="evenodd"></path></svg>