<svg xmlns="http://www.w3.org/2000/svg" width="24" height="24" fill="currentColor" class="mmi mmi-water" viewBox="0 0 24 24"><path d="M11.530 1.042 C 10.170 1.286,8.579 2.616,7.009 4.819 C 5.083 7.521,3.601 10.873,3.116 13.623 C 2.997 14.299,2.985 15.670,3.093 16.300 C 3.420 18.202,4.287 19.736,5.700 20.914 C 6.937 21.945,8.627 22.653,10.440 22.899 C 10.693 22.934,11.233 22.973,11.640 22.987 C 14.617 23.086,17.285 22.090,19.016 20.233 C 20.644 18.487,21.301 16.076,20.856 13.480 C 20.596 11.960,19.926 10.064,18.974 8.160 C 18.055 6.321,17.046 4.757,15.983 3.525 C 15.503 2.967,14.632 2.140,14.218 1.846 C 13.806 1.554,13.089 1.193,12.740 1.102 C 12.440 1.023,11.807 0.992,11.530 1.042 M12.337 3.076 C 12.806 3.240,13.561 3.823,14.157 4.479 C 15.289 5.726,16.288 7.243,17.237 9.160 C 17.897 10.492,18.355 11.669,18.656 12.805 C 18.778 13.265,18.960 14.182,18.960 14.338 C 18.960 14.416,18.102 14.735,17.460 14.896 C 16.753 15.073,15.912 15.097,15.242 14.960 C 14.507 14.810,13.881 14.540,12.620 13.828 C 11.765 13.345,10.952 12.957,10.439 12.786 C 8.897 12.274,7.366 12.350,5.680 13.023 C 5.449 13.115,5.256 13.187,5.251 13.183 C 5.246 13.178,5.285 13.014,5.338 12.817 C 6.095 9.986,7.937 6.578,9.843 4.479 C 10.609 3.636,11.523 3.007,11.991 3.001 C 12.063 3.001,12.219 3.034,12.337 3.076 M9.269 14.537 C 9.897 14.671,10.572 14.969,11.740 15.628 C 13.246 16.478,14.217 16.854,15.283 17.000 C 16.232 17.131,17.418 17.012,18.516 16.677 C 18.657 16.634,18.778 16.605,18.786 16.613 C 18.820 16.646,18.549 17.348,18.362 17.711 C 17.497 19.396,15.721 20.546,13.439 20.899 C 12.851 20.990,11.728 21.021,11.120 20.963 C 9.108 20.772,7.488 20.026,6.351 18.768 C 5.665 18.008,5.146 16.825,5.057 15.821 L 5.032 15.540 5.386 15.353 C 6.330 14.855,7.166 14.571,8.000 14.465 C 8.253 14.433,8.974 14.474,9.269 14.537 " fill="#000640" stroke="none" fill-rule="evenodd"></path></svg>