<svg xmlns="http://www.w3.org/2000/svg" width="24" height="24" fill="currentColor" class="mmi mmi-waveform" viewBox="0 0 24 24"><path d="M9.643 0.069 C 9.407 0.152,9.149 0.416,9.066 0.660 C 9.005 0.839,9.000 1.730,9.000 12.000 C 9.000 24.506,8.971 23.373,9.299 23.701 C 9.601 24.003,9.573 24.000,12.000 24.000 C 14.427 24.000,14.399 24.003,14.701 23.701 C 15.029 23.373,15.000 24.506,15.000 12.000 C 15.000 -0.506,15.029 0.627,14.701 0.299 C 14.398 -0.004,14.430 -0.000,11.983 0.003 C 10.132 0.006,9.795 0.015,9.643 0.069 M0.643 8.069 C 0.546 8.103,0.392 8.206,0.300 8.298 C -0.025 8.623,-0.000 7.975,0.000 16.000 C 0.000 24.023,-0.025 23.377,0.299 23.701 C 0.601 24.003,0.573 24.000,3.000 24.000 C 5.427 24.000,5.399 24.003,5.701 23.701 C 6.025 23.377,6.000 24.023,6.000 16.000 C 6.000 7.977,6.025 8.623,5.701 8.299 C 5.398 7.996,5.430 8.000,2.983 8.003 C 1.132 8.006,0.795 8.015,0.643 8.069 M18.643 16.069 C 18.546 16.103,18.392 16.206,18.300 16.298 C 17.987 16.611,18.000 16.455,18.000 20.000 C 18.000 23.544,17.987 23.390,18.299 23.701 C 18.601 24.003,18.573 24.000,21.000 24.000 C 23.427 24.000,23.399 24.003,23.701 23.701 C 24.013 23.390,24.000 23.544,24.000 20.000 C 24.000 16.456,24.013 16.610,23.701 16.299 C 23.398 15.996,23.430 16.000,20.983 16.003 C 19.132 16.006,18.795 16.015,18.643 16.069 " fill="#fff" stroke="none" fill-rule="evenodd"></path></svg>