<svg xmlns="http://www.w3.org/2000/svg" width="24" height="24" fill="currentColor" class="mmi mmi-wedges" viewBox="0 0 24 24"><path d="M2.694 2.057 C 2.439 2.137,2.287 2.266,2.091 2.569 C 1.695 3.182,1.358 4.030,1.205 4.800 C 1.066 5.500,1.039 5.814,1.015 6.960 L 0.993 8.060 1.498 14.600 C 1.776 18.197,2.021 21.207,2.043 21.288 C 2.102 21.509,2.315 21.762,2.539 21.878 L 2.738 21.980 11.499 21.991 C 21.110 22.003,20.537 22.016,21.148 21.768 C 21.850 21.482,22.481 20.851,22.767 20.150 C 22.950 19.701,23.000 19.359,23.000 18.569 C 23.000 17.728,22.960 17.558,22.701 17.299 C 22.431 17.029,22.289 17.000,21.253 17.000 C 20.762 17.000,20.360 16.990,20.360 16.977 C 20.360 16.964,20.549 16.331,20.780 15.570 C 21.078 14.588,21.200 14.127,21.200 13.983 C 21.199 13.657,21.060 13.414,20.700 13.106 C 19.672 12.230,18.157 11.492,16.602 11.113 C 16.033 10.974,15.823 10.976,15.535 11.124 C 15.169 11.313,15.181 11.285,14.195 14.233 L 13.291 16.940 13.073 16.930 C 12.764 16.917,12.270 16.782,11.924 16.618 C 10.855 16.112,10.143 15.153,8.755 12.351 L 8.543 11.922 8.613 11.671 C 8.841 10.853,8.895 10.455,8.897 9.540 C 8.899 8.842,8.885 8.577,8.825 8.260 C 8.664 7.395,8.342 6.529,7.907 5.790 C 7.035 4.309,5.492 2.934,3.984 2.295 C 3.308 2.009,3.019 1.956,2.694 2.057 M4.098 4.635 C 5.358 5.459,6.359 6.764,6.724 8.060 C 6.806 8.352,6.919 9.018,6.920 9.213 C 6.920 9.317,6.897 9.300,6.595 8.982 C 5.682 8.018,4.541 7.369,3.347 7.135 L 2.994 7.066 3.019 6.583 C 3.069 5.643,3.188 4.942,3.387 4.411 L 3.450 4.242 3.635 4.348 C 3.737 4.406,3.945 4.535,4.098 4.635 M3.394 9.218 C 4.007 9.426,4.466 9.712,4.973 10.198 C 5.673 10.871,6.021 11.408,7.041 13.400 C 8.083 15.433,8.452 16.055,9.079 16.834 C 9.983 17.958,11.077 18.610,12.524 18.887 C 12.970 18.972,13.067 18.974,16.990 18.989 C 20.800 19.003,21.000 19.007,21.000 19.075 C 21.000 19.246,20.858 19.544,20.701 19.701 C 20.376 20.026,21.140 20.000,12.033 20.000 C 4.204 20.000,3.920 19.997,3.920 19.927 C 3.920 19.845,3.133 9.556,3.107 9.290 C 3.097 9.197,3.093 9.120,3.098 9.120 C 3.102 9.120,3.236 9.164,3.394 9.218 M17.160 13.369 C 17.631 13.538,18.233 13.831,18.660 14.100 C 18.858 14.225,19.027 14.334,19.037 14.343 C 19.046 14.352,18.875 14.954,18.657 15.680 L 18.260 16.999 16.826 17.000 C 15.557 17.000,15.394 16.993,15.415 16.939 C 15.428 16.906,15.711 16.050,16.044 15.038 C 16.616 13.299,16.654 13.199,16.735 13.222 C 16.782 13.236,16.973 13.302,17.160 13.369 " fill="#000640" stroke="none" fill-rule="evenodd"></path></svg>