<svg xmlns="http://www.w3.org/2000/svg" width="24" height="24" fill="currentColor" class="mmi mmi-weightscale" viewBox="0 0 24 24"><path d="M3.503 1.042 C 2.818 1.158,2.117 1.573,1.670 2.127 C 1.445 2.407,1.159 2.980,1.074 3.320 C 0.993 3.647,0.993 20.353,1.074 20.680 C 1.159 21.020,1.445 21.593,1.670 21.873 C 1.950 22.220,2.312 22.501,2.740 22.704 C 3.409 23.021,2.760 23.000,12.000 23.000 C 21.240 23.000,20.591 23.021,21.260 22.704 C 21.920 22.391,22.391 21.920,22.704 21.260 C 23.021 20.591,23.000 21.240,23.000 12.000 C 23.000 2.760,23.021 3.409,22.704 2.740 C 22.398 2.095,21.924 1.614,21.296 1.312 C 20.634 0.993,21.532 1.022,12.120 1.015 C 7.489 1.012,3.611 1.024,3.503 1.042 M20.340 3.066 C 20.455 3.105,20.603 3.201,20.701 3.299 C 21.023 3.621,21.000 3.106,21.000 9.927 L 21.000 16.000 17.918 16.000 L 14.836 16.000 14.752 15.810 C 14.461 15.145,13.855 14.539,13.190 14.248 L 13.000 14.164 13.000 12.509 C 13.000 10.628,12.995 10.593,12.701 10.299 C 12.310 9.908,11.690 9.908,11.299 10.299 C 11.005 10.593,11.000 10.628,11.000 12.509 L 11.000 14.164 10.810 14.248 C 10.145 14.539,9.539 15.145,9.248 15.810 L 9.164 16.000 6.082 16.000 L 2.999 16.000 3.010 9.850 L 3.020 3.700 3.131 3.511 C 3.256 3.298,3.449 3.136,3.670 3.057 C 3.793 3.013,5.268 3.003,11.983 3.002 C 19.479 3.000,20.162 3.005,20.340 3.066 M11.440 5.024 C 10.623 5.120,10.069 5.246,9.519 5.458 C 7.661 6.176,6.213 7.608,5.484 9.450 C 5.316 9.873,5.298 10.023,5.380 10.305 C 5.474 10.629,5.730 10.886,6.054 10.980 C 6.345 11.065,6.550 11.038,6.827 10.880 C 7.071 10.741,7.163 10.621,7.323 10.233 C 8.014 8.556,9.302 7.470,11.042 7.096 C 11.511 6.995,12.489 6.995,12.958 7.096 C 13.933 7.305,14.762 7.737,15.447 8.392 C 15.978 8.899,16.367 9.482,16.677 10.233 C 16.837 10.621,16.929 10.741,17.173 10.880 C 17.450 11.038,17.655 11.065,17.946 10.980 C 18.270 10.886,18.526 10.629,18.620 10.305 C 18.702 10.023,18.684 9.873,18.516 9.450 C 17.602 7.140,15.578 5.507,13.120 5.095 C 12.780 5.038,11.704 4.992,11.440 5.024 M12.340 16.066 C 12.709 16.192,13.000 16.604,13.000 17.000 C 13.000 17.242,12.881 17.521,12.701 17.701 C 12.234 18.168,11.470 18.065,11.131 17.489 C 11.036 17.328,11.020 17.256,11.020 17.000 C 11.020 16.744,11.036 16.672,11.131 16.511 C 11.386 16.077,11.860 15.903,12.340 16.066 M9.241 18.182 C 9.457 18.685,9.893 19.201,10.358 19.501 C 10.898 19.850,11.340 19.979,12.000 19.979 C 12.255 19.979,12.558 19.955,12.680 19.924 C 13.596 19.697,14.380 19.041,14.752 18.190 L 14.836 18.000 17.918 18.000 L 21.000 18.000 21.000 19.073 C 21.000 20.308,20.979 20.423,20.701 20.701 C 20.376 21.026,21.144 21.000,11.998 21.000 C 3.106 21.000,3.684 21.015,3.374 20.778 C 3.301 20.723,3.192 20.592,3.131 20.489 L 3.020 20.300 3.008 19.150 L 2.995 18.000 6.079 18.000 L 9.163 18.000 9.241 18.182 " fill="#000640" stroke="none" fill-rule="evenodd"></path></svg>