<svg xmlns="http://www.w3.org/2000/svg" width="24" height="24" fill="currentColor" class="mmi mmi-windycloud" viewBox="0 0 24 24"><path d="M9.824 4.041 C 8.245 4.222,6.850 4.917,5.763 6.065 C 5.106 6.760,4.624 7.576,4.316 8.520 L 4.165 8.980 2.951 9.000 C 1.747 9.020,1.736 9.021,1.539 9.122 C 0.767 9.520,0.853 10.648,1.678 10.939 C 1.821 10.990,2.127 11.000,3.510 11.000 C 4.677 11.000,5.218 10.986,5.329 10.952 C 5.548 10.887,5.860 10.598,5.936 10.389 C 5.971 10.296,6.027 10.041,6.061 9.822 C 6.211 8.860,6.645 8.000,7.322 7.322 C 8.001 6.644,8.875 6.203,9.828 6.060 C 10.324 5.985,10.676 5.985,11.172 6.060 C 13.029 6.339,14.512 7.740,14.901 9.582 C 14.938 9.760,14.980 10.211,14.995 10.602 C 15.022 11.270,15.028 11.313,15.132 11.491 C 15.193 11.593,15.301 11.723,15.374 11.778 C 15.653 11.991,15.733 12.000,17.295 12.001 C 18.951 12.001,19.107 12.021,19.639 12.289 C 20.703 12.824,21.241 14.100,20.884 15.240 C 20.687 15.867,20.208 16.434,19.637 16.716 C 19.066 16.997,19.047 16.999,16.295 16.999 C 13.643 17.000,13.667 16.998,13.374 17.222 C 13.301 17.277,13.192 17.408,13.131 17.511 C 13.036 17.672,13.020 17.744,13.020 18.000 C 13.020 18.256,13.036 18.328,13.131 18.489 C 13.260 18.709,13.437 18.854,13.678 18.939 C 13.942 19.033,18.696 19.029,19.243 18.935 C 21.137 18.610,22.610 17.137,22.935 15.243 C 23.298 13.131,22.070 11.019,20.052 10.282 C 19.461 10.066,19.188 10.029,18.040 10.003 L 16.980 9.980 16.949 9.700 C 16.904 9.290,16.743 8.657,16.560 8.170 C 16.137 7.048,15.347 6.016,14.332 5.260 C 13.609 4.722,12.515 4.260,11.587 4.101 C 11.141 4.025,10.236 3.994,9.824 4.041 M1.643 13.069 C 1.291 13.193,1.000 13.614,1.000 14.000 C 1.000 14.242,1.119 14.521,1.299 14.701 C 1.620 15.022,1.157 15.000,7.500 15.000 C 13.843 15.000,13.380 15.022,13.701 14.701 C 13.881 14.521,14.000 14.242,14.000 14.000 C 14.000 13.758,13.881 13.479,13.701 13.299 C 13.380 12.977,13.846 13.000,7.483 13.003 C 2.461 13.006,1.800 13.013,1.643 13.069 M1.643 17.069 C 1.291 17.193,1.000 17.614,1.000 18.000 C 1.000 18.242,1.119 18.521,1.299 18.701 C 1.613 19.015,1.396 19.000,5.500 19.000 C 9.604 19.000,9.387 19.015,9.701 18.701 C 10.092 18.310,10.092 17.690,9.701 17.299 C 9.386 16.984,9.607 17.000,5.483 17.003 C 2.273 17.006,1.798 17.014,1.643 17.069 " fill="#000640" stroke="none" fill-rule="evenodd"></path></svg>