<svg xmlns="http://www.w3.org/2000/svg" width="24" height="24" fill="currentColor" class="mmi mmi-windowsframe" viewBox="0 0 24 24"><path d="M3.503 1.042 C 2.818 1.158,2.117 1.573,1.670 2.127 C 1.445 2.407,1.159 2.980,1.074 3.320 C 0.993 3.647,0.993 20.353,1.074 20.680 C 1.159 21.020,1.445 21.593,1.670 21.873 C 1.950 22.220,2.312 22.501,2.740 22.704 C 3.409 23.021,2.760 23.000,12.000 23.000 C 21.240 23.000,20.591 23.021,21.260 22.704 C 21.920 22.391,22.391 21.920,22.704 21.260 C 23.021 20.591,23.000 21.240,23.000 12.000 C 23.000 2.760,23.021 3.409,22.704 2.740 C 22.398 2.095,21.924 1.614,21.296 1.312 C 20.634 0.993,21.532 1.022,12.120 1.015 C 7.489 1.012,3.611 1.024,3.503 1.042 M20.340 3.066 C 20.593 3.153,20.847 3.407,20.934 3.660 C 20.992 3.831,21.000 4.103,21.000 5.927 L 21.000 8.000 11.999 8.000 L 2.997 8.000 3.009 5.850 L 3.020 3.700 3.131 3.511 C 3.256 3.298,3.449 3.136,3.670 3.057 C 3.793 3.013,5.268 3.003,11.983 3.002 C 19.479 3.000,20.162 3.005,20.340 3.066 M6.150 4.041 C 5.722 4.149,5.343 4.465,5.144 4.880 C 5.034 5.111,5.020 5.180,5.020 5.500 C 5.020 5.811,5.035 5.894,5.133 6.104 C 5.276 6.413,5.585 6.721,5.900 6.868 C 6.107 6.965,6.190 6.980,6.500 6.980 C 6.811 6.980,6.894 6.965,7.104 6.867 C 7.413 6.724,7.721 6.415,7.868 6.100 C 7.965 5.893,7.980 5.810,7.980 5.500 C 7.980 5.189,7.965 5.106,7.867 4.896 C 7.725 4.589,7.414 4.278,7.110 4.139 C 6.852 4.022,6.407 3.976,6.150 4.041 M11.150 4.041 C 10.722 4.149,10.343 4.465,10.144 4.880 C 10.034 5.111,10.020 5.180,10.020 5.500 C 10.020 5.811,10.035 5.894,10.133 6.104 C 10.276 6.413,10.585 6.721,10.900 6.868 C 11.107 6.965,11.190 6.980,11.500 6.980 C 11.811 6.980,11.894 6.965,12.104 6.867 C 12.413 6.724,12.721 6.415,12.868 6.100 C 12.965 5.893,12.980 5.810,12.980 5.500 C 12.980 5.189,12.965 5.106,12.867 4.896 C 12.725 4.589,12.414 4.278,12.110 4.139 C 11.852 4.022,11.407 3.976,11.150 4.041 M21.000 15.073 C 21.000 20.774,21.021 20.381,20.701 20.701 C 20.376 21.026,21.144 21.000,11.998 21.000 C 3.106 21.000,3.684 21.015,3.374 20.778 C 3.301 20.723,3.192 20.592,3.131 20.489 L 3.020 20.300 3.009 15.150 L 2.999 10.000 11.999 10.000 L 21.000 10.000 21.000 15.073 " fill="#000640" stroke="none" fill-rule="evenodd"></path></svg>