<svg xmlns="http://www.w3.org/2000/svg" width="24" height="24" fill="currentColor" class="mmi mmi-wineglass-empty" viewBox="0 0 24 24"><path d="M4.664 1.063 C 4.436 1.146,4.257 1.297,4.131 1.511 C 4.020 1.699,4.020 1.703,4.023 2.420 C 4.034 4.923,4.829 7.432,6.155 9.148 C 7.054 10.311,8.229 11.158,9.561 11.604 C 10.039 11.763,10.691 11.918,10.890 11.919 L 11.000 11.920 11.000 16.460 L 11.000 21.000 8.925 21.000 C 6.676 21.000,6.663 21.001,6.374 21.222 C 6.301 21.277,6.192 21.408,6.131 21.511 C 6.036 21.672,6.020 21.744,6.020 22.000 C 6.020 22.256,6.036 22.328,6.131 22.489 C 6.192 22.592,6.301 22.723,6.374 22.778 C 6.680 23.011,6.390 23.000,11.998 23.000 C 17.783 23.000,17.381 23.021,17.701 22.701 C 18.092 22.310,18.092 21.690,17.701 21.299 C 17.400 20.998,17.419 21.000,15.073 21.000 L 13.000 21.000 13.000 16.460 L 13.000 11.920 13.096 11.920 C 13.286 11.920,13.985 11.755,14.441 11.603 C 15.482 11.255,16.435 10.659,17.207 9.871 C 17.881 9.186,18.327 8.545,18.801 7.580 C 19.525 6.109,19.917 4.454,19.987 2.578 C 20.017 1.762,19.975 1.573,19.702 1.300 C 19.377 0.975,20.028 1.000,11.983 1.003 C 5.871 1.005,4.797 1.014,4.664 1.063 M17.939 3.250 C 17.707 5.588,16.814 7.604,15.513 8.723 C 14.796 9.340,14.065 9.695,13.075 9.907 C 12.602 10.008,11.398 10.008,10.925 9.907 C 9.935 9.695,9.204 9.340,8.487 8.723 C 7.186 7.604,6.293 5.588,6.061 3.250 L 6.036 3.000 12.000 3.000 L 17.964 3.000 17.939 3.250 " fill="#000640" stroke="none" fill-rule="evenodd"></path></svg>