<svg xmlns="http://www.w3.org/2000/svg" width="24" height="24" fill="currentColor" class="mmi mmi-wineglass" viewBox="0 0 24 24"><path d="M4.664 1.063 C 4.436 1.146,4.257 1.297,4.131 1.511 C 4.020 1.699,4.020 1.703,4.023 2.420 C 4.030 4.228,4.455 6.088,5.205 7.600 C 6.200 9.607,7.650 10.947,9.527 11.594 C 9.978 11.749,10.695 11.920,10.898 11.920 L 11.000 11.920 11.000 16.460 L 11.000 21.000 8.925 21.000 C 6.676 21.000,6.663 21.001,6.374 21.222 C 6.301 21.277,6.192 21.408,6.131 21.511 C 6.036 21.672,6.020 21.744,6.020 22.000 C 6.020 22.256,6.036 22.328,6.131 22.489 C 6.192 22.592,6.301 22.723,6.374 22.778 C 6.680 23.011,6.390 23.000,11.998 23.000 C 17.783 23.000,17.381 23.021,17.701 22.701 C 18.092 22.310,18.092 21.690,17.701 21.299 C 17.400 20.998,17.419 21.000,15.073 21.000 L 13.000 21.000 13.000 16.466 L 13.000 11.931 13.217 11.906 C 13.542 11.867,14.074 11.733,14.528 11.575 C 17.743 10.456,19.822 7.030,19.987 2.578 C 20.017 1.762,19.975 1.573,19.702 1.300 C 19.377 0.975,20.028 1.000,11.983 1.003 C 5.871 1.005,4.797 1.014,4.664 1.063 M17.939 3.250 C 17.854 4.088,17.677 4.937,17.436 5.664 L 17.275 6.147 16.927 6.214 C 15.864 6.417,14.981 6.478,14.206 6.403 C 13.585 6.342,13.320 6.292,12.198 6.020 C 10.549 5.620,9.635 5.517,8.477 5.597 C 7.892 5.637,6.980 5.753,6.706 5.822 C 6.635 5.840,6.606 5.827,6.590 5.773 C 6.578 5.733,6.514 5.511,6.447 5.280 C 6.290 4.739,6.176 4.180,6.100 3.588 C 6.067 3.328,6.040 3.090,6.040 3.058 C 6.040 3.008,6.823 3.000,12.002 3.000 L 17.964 3.000 17.939 3.250 M9.780 7.602 C 10.319 7.649,10.963 7.770,11.880 7.999 C 13.263 8.343,13.815 8.419,14.955 8.420 L 15.849 8.420 15.595 8.654 C 14.917 9.277,14.086 9.691,13.075 9.907 C 12.602 10.008,11.398 10.008,10.925 9.907 C 9.896 9.687,9.092 9.282,8.372 8.622 C 8.094 8.367,7.600 7.790,7.600 7.722 C 7.600 7.685,7.892 7.644,8.460 7.600 C 9.015 7.557,9.260 7.557,9.780 7.602 " fill="#000640" stroke="none" fill-rule="evenodd"></path></svg>