<svg xmlns="http://www.w3.org/2000/svg" width="24" height="24" fill="currentColor" class="mmi mmi-winnercup" viewBox="0 0 24 24"><path d="M5.664 1.063 C 5.436 1.146,5.257 1.297,5.131 1.511 C 5.024 1.693,5.019 1.727,5.000 2.377 L 4.980 3.053 4.560 3.124 C 2.222 3.518,0.912 5.028,1.011 7.216 C 1.124 9.731,2.882 12.242,4.948 12.839 L 5.263 12.930 5.393 13.310 C 5.751 14.357,6.481 15.454,7.316 16.202 C 8.225 17.016,9.477 17.644,10.634 17.865 L 11.000 17.936 11.000 19.468 L 11.000 21.000 8.925 21.000 C 6.676 21.000,6.663 21.001,6.374 21.222 C 6.301 21.277,6.192 21.408,6.131 21.511 C 6.036 21.672,6.020 21.744,6.020 22.000 C 6.020 22.256,6.036 22.328,6.131 22.489 C 6.192 22.592,6.301 22.723,6.374 22.778 C 6.680 23.011,6.390 23.000,11.998 23.000 C 17.783 23.000,17.381 23.021,17.701 22.701 C 18.092 22.310,18.092 21.690,17.701 21.299 C 17.400 20.998,17.419 21.000,15.073 21.000 L 13.000 21.000 13.000 19.468 L 13.000 17.936 13.364 17.866 C 15.061 17.540,16.661 16.503,17.710 15.048 C 18.006 14.637,18.455 13.761,18.619 13.275 L 18.735 12.930 19.052 12.839 C 21.118 12.242,22.876 9.732,22.989 7.216 C 23.087 5.041,21.769 3.516,19.454 3.126 L 19.020 3.053 19.000 2.397 C 18.977 1.652,18.921 1.465,18.649 1.241 C 18.338 0.985,18.758 1.000,11.983 1.003 C 6.739 1.005,5.797 1.014,5.664 1.063 M17.000 7.131 C 17.000 9.744,16.985 11.387,16.958 11.601 C 16.723 13.522,15.375 15.158,13.539 15.753 C 12.973 15.936,12.676 15.980,12.000 15.980 C 11.325 15.980,11.027 15.936,10.465 15.754 C 8.624 15.158,7.277 13.524,7.042 11.601 C 7.015 11.387,7.000 9.744,7.000 7.131 L 7.000 3.000 12.000 3.000 L 17.000 3.000 17.000 7.131 M5.000 7.880 C 5.000 9.420,4.988 10.680,4.974 10.680 C 4.959 10.680,4.856 10.609,4.744 10.522 C 3.909 9.876,3.262 8.749,3.065 7.602 C 2.870 6.469,3.158 5.768,3.980 5.375 C 4.241 5.250,4.770 5.087,4.930 5.082 C 4.996 5.080,5.000 5.239,5.000 7.880 M19.600 5.209 C 20.740 5.559,21.159 6.304,20.939 7.585 C 20.778 8.522,20.334 9.428,19.703 10.110 C 19.495 10.334,19.085 10.680,19.026 10.680 C 19.012 10.680,19.000 9.418,19.000 7.876 L 19.000 5.073 19.170 5.101 C 19.264 5.117,19.457 5.166,19.600 5.209 " fill="#000640" stroke="none" fill-rule="evenodd"></path></svg>