<svg xmlns="http://www.w3.org/2000/svg" width="24" height="24" fill="currentColor" class="mmi mmi-xo-v2" viewBox="0 0 24 24"><path d="M11.664 1.063 C 11.436 1.146,11.257 1.297,11.131 1.511 L 11.020 1.700 11.010 11.915 C 11.003 18.860,11.013 22.178,11.041 22.283 C 11.101 22.506,11.313 22.761,11.531 22.874 C 11.932 23.080,12.390 23.012,12.700 22.702 C 13.028 22.374,13.000 23.388,13.000 12.000 C 13.000 0.615,13.028 1.626,12.701 1.299 C 12.429 1.027,12.018 0.933,11.664 1.063 M17.433 8.040 C 16.838 8.135,16.225 8.378,15.715 8.722 C 15.389 8.942,14.942 9.389,14.722 9.715 C 14.470 10.088,14.215 10.654,14.113 11.062 C 14.042 11.349,14.024 11.535,14.024 12.000 C 14.024 12.697,14.110 13.100,14.376 13.663 C 14.608 14.152,14.835 14.481,15.177 14.823 C 15.675 15.321,16.376 15.716,17.062 15.887 C 17.571 16.013,18.429 16.013,18.938 15.887 C 19.624 15.716,20.325 15.321,20.823 14.823 C 21.321 14.325,21.716 13.624,21.887 12.938 C 22.013 12.429,22.013 11.571,21.887 11.062 C 21.716 10.376,21.321 9.675,20.823 9.177 C 20.329 8.683,19.621 8.282,18.958 8.120 C 18.572 8.026,17.783 7.984,17.433 8.040 M7.780 8.517 C 7.540 8.576,7.404 8.691,6.480 9.617 C 5.963 10.136,5.522 10.560,5.500 10.560 C 5.478 10.560,5.037 10.138,4.521 9.621 C 3.454 8.553,3.370 8.495,2.933 8.530 C 2.476 8.567,2.126 8.877,2.032 9.330 C 1.996 9.504,2.000 9.582,2.057 9.780 C 2.124 10.013,2.155 10.049,3.112 11.010 L 4.098 12.000 3.113 12.990 C 2.442 13.664,2.107 14.030,2.064 14.135 C 1.969 14.365,1.982 14.701,2.095 14.943 C 2.326 15.438,2.950 15.653,3.430 15.404 C 3.513 15.361,4.003 14.901,4.520 14.383 C 5.037 13.864,5.477 13.440,5.498 13.440 C 5.519 13.440,5.978 13.878,6.518 14.414 C 7.398 15.286,7.520 15.393,7.689 15.439 C 8.151 15.564,8.594 15.394,8.828 15.003 C 8.996 14.723,9.026 14.512,8.941 14.214 C 8.876 13.989,8.837 13.943,7.888 12.990 L 6.902 12.000 7.887 11.010 C 8.558 10.336,8.893 9.970,8.936 9.865 C 9.031 9.635,9.018 9.299,8.905 9.057 C 8.710 8.639,8.229 8.408,7.780 8.517 M18.408 10.044 C 19.310 10.232,20.000 11.080,20.000 12.000 C 20.000 13.080,19.080 14.000,18.000 14.000 C 16.920 14.000,16.000 13.080,16.000 12.000 C 16.000 11.102,16.657 10.269,17.534 10.057 C 17.797 9.993,18.138 9.988,18.408 10.044 " fill="#000640" stroke="none" fill-rule="evenodd"></path></svg>