<svg xmlns="http://www.w3.org/2000/svg" width="24" height="24" fill="currentColor" class="mmi mmi-yen" viewBox="0 0 24 24"><path d="M4.758 3.054 C 4.416 3.147,4.160 3.395,4.061 3.729 C 3.985 3.987,3.985 4.053,4.063 4.323 C 4.125 4.533,4.213 4.626,6.853 7.270 L 9.579 10.000 8.214 10.000 C 6.739 10.000,6.651 10.011,6.374 10.222 C 6.301 10.277,6.192 10.408,6.131 10.511 C 6.036 10.672,6.020 10.744,6.020 11.000 C 6.020 11.256,6.036 11.328,6.131 11.489 C 6.192 11.592,6.301 11.723,6.374 11.778 C 6.663 11.999,6.676 12.000,8.925 12.000 L 11.000 12.000 11.000 13.000 L 11.000 14.000 8.925 14.000 C 6.676 14.000,6.663 14.001,6.374 14.222 C 6.301 14.277,6.192 14.408,6.131 14.511 C 6.036 14.672,6.020 14.744,6.020 15.000 C 6.020 15.256,6.036 15.328,6.131 15.489 C 6.192 15.592,6.301 15.723,6.374 15.778 C 6.663 15.999,6.676 16.000,8.925 16.000 L 11.000 16.000 11.000 18.070 C 11.000 19.373,11.016 20.195,11.042 20.289 C 11.103 20.509,11.315 20.762,11.531 20.874 C 11.932 21.080,12.390 21.012,12.700 20.702 C 13.002 20.400,13.000 20.420,13.000 18.073 L 13.000 16.000 15.073 16.000 C 17.419 16.000,17.400 16.002,17.701 15.701 C 18.092 15.310,18.092 14.690,17.701 14.299 C 17.400 13.998,17.419 14.000,15.073 14.000 L 13.000 14.000 13.000 13.000 L 13.000 12.000 15.073 12.000 C 17.419 12.000,17.400 12.002,17.701 11.701 C 18.092 11.310,18.092 10.690,17.701 10.299 C 17.414 10.012,17.339 10.000,15.784 10.000 L 14.421 10.000 17.147 7.270 C 19.787 4.626,19.875 4.533,19.937 4.323 C 20.015 4.053,20.016 3.987,19.938 3.725 C 19.768 3.154,19.088 2.855,18.558 3.119 C 18.431 3.182,17.462 4.124,15.190 6.393 L 12.000 9.580 8.810 6.394 C 6.729 4.315,5.564 3.180,5.460 3.129 C 5.243 3.023,4.977 2.994,4.758 3.054 " fill="#000640" stroke="none" fill-rule="evenodd"></path></svg>