<svg xmlns="http://www.w3.org/2000/svg" width="24" height="24" fill="currentColor" class="mmi mmi-yuan" viewBox="0 0 24 24"><path d="M4.643 3.069 C 4.291 3.193,4.000 3.614,4.000 4.000 C 4.000 4.080,4.029 4.234,4.065 4.343 C 4.124 4.523,4.426 4.837,7.565 7.981 L 11.000 11.421 11.000 11.711 L 11.000 12.000 8.925 12.000 C 6.676 12.000,6.663 12.001,6.374 12.222 C 6.301 12.277,6.192 12.408,6.131 12.511 C 6.036 12.672,6.020 12.744,6.020 13.000 C 6.020 13.256,6.036 13.328,6.131 13.489 C 6.192 13.592,6.301 13.723,6.374 13.778 C 6.663 13.999,6.676 14.000,8.925 14.000 L 11.000 14.000 11.000 17.070 C 11.000 19.061,11.015 20.192,11.042 20.289 C 11.103 20.509,11.315 20.762,11.531 20.874 C 11.932 21.080,12.390 21.012,12.700 20.702 C 13.012 20.390,13.000 20.537,13.000 17.073 L 13.000 14.000 15.073 14.000 C 17.419 14.000,17.400 14.002,17.701 13.701 C 18.092 13.310,18.092 12.690,17.701 12.299 C 17.400 11.998,17.419 12.000,15.073 12.000 L 13.000 12.000 13.000 11.710 L 13.000 11.421 16.418 8.000 C 19.064 5.352,19.855 4.539,19.917 4.400 C 20.022 4.168,20.025 3.799,19.925 3.578 C 19.834 3.377,19.518 3.094,19.325 3.041 C 19.095 2.977,18.797 2.994,18.600 3.083 C 18.461 3.145,17.690 3.893,15.210 6.371 L 12.000 9.579 8.770 6.355 C 5.822 3.412,5.523 3.124,5.343 3.065 C 5.101 2.985,4.876 2.987,4.643 3.069 " fill="#000640" stroke="none" fill-rule="evenodd"></path></svg>