<svg xmlns="http://www.w3.org/2000/svg" width="24" height="24" fill="currentColor" class="mmi mmi-zero" viewBox="0 0 24 24"><path d="M11.200 0.025 C 7.091 0.332,3.508 2.609,1.507 6.186 C 0.775 7.494,0.317 8.899,0.094 10.520 C -0.002 11.214,-0.002 12.786,0.094 13.480 C 0.317 15.101,0.775 16.506,1.507 17.814 C 4.173 22.579,9.604 24.939,14.910 23.637 C 19.156 22.595,22.595 19.156,23.637 14.910 C 24.599 10.992,23.592 6.970,20.896 3.958 C 19.003 1.843,16.397 0.483,13.500 0.099 C 13.032 0.037,11.640 -0.007,11.200 0.025 M12.920 2.043 C 14.827 2.219,16.631 2.940,18.200 4.155 C 18.637 4.493,19.507 5.363,19.845 5.800 C 21.878 8.427,22.517 11.768,21.578 14.865 C 21.082 16.499,20.272 17.850,19.061 19.061 C 18.287 19.836,17.547 20.383,16.623 20.863 C 13.714 22.376,10.286 22.376,7.377 20.863 C 6.454 20.383,5.715 19.837,4.938 19.061 C 3.951 18.075,3.213 16.964,2.722 15.728 C 1.390 12.368,1.921 8.686,4.153 5.800 C 4.491 5.363,5.363 4.491,5.800 4.153 C 7.114 3.137,8.541 2.486,10.125 2.181 C 11.037 2.006,12.003 1.958,12.920 2.043 M11.040 5.577 C 10.113 5.742,9.404 6.027,8.663 6.534 C 7.418 7.385,6.493 8.825,6.161 10.430 C 6.026 11.078,5.977 11.906,6.032 12.590 C 6.117 13.636,6.310 14.356,6.739 15.220 C 7.556 16.867,9.027 18.008,10.820 18.384 C 11.323 18.490,12.665 18.493,13.160 18.389 C 14.976 18.009,16.435 16.881,17.258 15.221 C 17.691 14.349,17.880 13.647,17.968 12.586 C 18.005 12.131,18.006 11.872,17.969 11.428 C 17.880 10.360,17.689 9.648,17.258 8.779 C 16.455 7.161,15.051 6.050,13.280 5.634 C 12.837 5.529,11.497 5.495,11.040 5.577 M12.740 7.566 C 12.949 7.607,13.560 7.797,13.560 7.820 C 13.560 7.837,8.922 14.849,8.884 14.890 C 8.841 14.936,8.507 14.344,8.349 13.940 C 8.097 13.296,8.021 12.846,8.021 12.000 C 8.021 11.140,8.096 10.704,8.364 10.016 C 8.754 9.014,9.577 8.166,10.527 7.787 C 11.234 7.504,12.029 7.425,12.740 7.566 M15.233 9.230 C 15.484 9.583,15.771 10.307,15.905 10.922 C 16.019 11.451,16.010 12.601,15.886 13.160 C 15.578 14.550,14.814 15.574,13.677 16.118 C 13.150 16.371,12.640 16.487,12.040 16.491 C 11.765 16.493,11.432 16.472,11.300 16.444 C 10.969 16.376,10.433 16.199,10.448 16.162 C 10.483 16.075,15.104 9.121,15.127 9.120 C 15.142 9.120,15.190 9.170,15.233 9.230 " stroke="none" fill-rule="evenodd"></path></svg>