<svg xmlns="http://www.w3.org/2000/svg" width="24" height="24" fill="currentColor" class="mmi mmi-zoom-in" viewBox="0 0 24 24"><path d="M10.280 1.024 C 8.171 1.209,6.301 1.950,4.719 3.225 C 3.044 4.576,1.811 6.505,1.303 8.571 C 1.090 9.440,1.027 9.984,1.025 10.980 C 1.023 12.172,1.149 13.024,1.480 14.053 C 2.639 17.666,5.733 20.298,9.507 20.880 C 12.159 21.289,15.021 20.552,17.092 18.927 L 17.324 18.745 19.352 20.769 C 20.760 22.173,21.435 22.819,21.558 22.881 C 21.771 22.987,22.146 23.001,22.363 22.910 C 22.879 22.693,23.126 22.050,22.881 21.558 C 22.819 21.435,22.173 20.760,20.769 19.352 L 18.745 17.324 18.927 17.092 C 19.205 16.738,19.608 16.107,19.854 15.640 C 21.420 12.667,21.363 8.994,19.706 6.091 C 18.159 3.382,15.579 1.603,12.493 1.119 C 11.998 1.041,10.711 0.986,10.280 1.024 M11.820 3.041 C 14.608 3.352,16.994 5.031,18.200 7.529 C 19.264 9.731,19.264 12.270,18.199 14.474 C 16.867 17.232,14.056 18.999,11.000 18.999 C 7.941 18.999,5.134 17.234,3.800 14.471 C 2.736 12.268,2.736 9.732,3.800 7.529 C 4.588 5.895,5.895 4.588,7.529 3.800 C 8.852 3.160,10.415 2.884,11.820 3.041 M10.664 7.063 C 10.436 7.146,10.257 7.297,10.131 7.511 L 10.020 7.700 10.008 8.850 L 9.995 10.000 8.923 10.000 C 7.764 10.000,7.642 10.018,7.374 10.222 C 7.301 10.277,7.192 10.408,7.131 10.511 C 7.036 10.672,7.020 10.744,7.020 11.000 C 7.020 11.256,7.036 11.328,7.131 11.489 C 7.192 11.592,7.301 11.723,7.374 11.778 C 7.642 11.983,7.764 12.000,8.925 12.000 L 10.000 12.000 10.000 13.070 C 10.000 13.684,10.018 14.204,10.042 14.289 C 10.103 14.509,10.315 14.762,10.531 14.874 C 10.932 15.080,11.390 15.012,11.700 14.702 C 11.979 14.423,12.000 14.309,12.000 13.073 L 12.000 12.000 13.073 12.000 C 14.308 12.000,14.423 11.979,14.701 11.701 C 15.092 11.310,15.092 10.690,14.701 10.299 C 14.423 10.021,14.308 10.000,13.073 10.000 L 12.000 10.000 12.000 8.927 C 12.000 7.692,11.979 7.577,11.701 7.299 C 11.429 7.027,11.018 6.933,10.664 7.063 " fill="#000640" stroke="none" fill-rule="evenodd"></path></svg>