<svg width="24" height="24" viewBox="0 0 24 24" fill="none" xmlns="http://www.w3.org/2000/svg">
<path fill-rule="evenodd" clip-rule="evenodd" d="M7 2C7 1.44772 7.44772 1 8 1H16C16.5523 1 17 1.44772 17 2C17 2.55228 16.5523 3 16 3H13V7H17.4914C18.8308 7 20.008 7.88793 20.376 9.17584L21.9615 14.7253C22.0001 14.8605 22.0098 15.0023 21.99 15.1414L21.2353 20.4243C21.0241 21.9022 19.7584 23 18.2654 23H5.73459C4.24164 23 2.97588 21.9022 2.76474 20.4243L2.01005 15.1414C1.99017 15.0023 1.99985 14.8605 2.03848 14.7253L3.62403 9.17584C3.992 7.88793 5.16916 7 6.5086 7H11V3H8C7.44772 3 7 2.55228 7 2ZM11 9H6.5086C6.06212 9 5.66974 9.29598 5.54708 9.72528L4.32573 14H11V9ZM13 14H19.6743L18.4529 9.72528C18.3303 9.29598 17.9379 9 17.4914 9H13V14ZM19.847 16H4.15301L4.74464 20.1414C4.81502 20.6341 5.23694 21 5.73459 21H18.2654C18.7631 21 19.185 20.6341 19.2554 20.1414L19.847 16Z" fill="#000640"/>
</svg>
