<svg width="24" height="24" viewBox="0 0 24 24" fill="none" xmlns="http://www.w3.org/2000/svg">
<path fill-rule="evenodd" clip-rule="evenodd" d="M10.8806 14.893L7.3482 14.5398L5.89444 17.4473C5.72504 17.7861 5.37878 18.0001 5.00001 18.0001H2.00001C1.69207 18.0001 1.40131 17.8582 1.2118 17.6155C1.0223 17.3728 0.955181 17.0563 1.02987 16.7576L1.80527 13.6559C1.31265 13.2688 1.00003 12.668 1.00003 12C1.00003 11.332 1.31264 10.7312 1.80525 10.3441L1.02987 7.24254C0.955181 6.94379 1.0223 6.6273 1.2118 6.38459C1.40131 6.14187 1.69207 6 2.00001 6H5.00001C5.37878 6 5.72504 6.214 5.89444 6.55279L7.34814 9.46019L10.8806 9.10695L10.0077 2.12403C9.97217 1.83942 10.0605 1.55323 10.2503 1.3382C10.4402 1.12317 10.7132 1 11 1H13.4635C14.8226 1 16.012 1.91375 16.3622 3.22701L17.747 8.4203L18.9154 8.30347C21.1024 8.08477 23 9.80214 23 12C23 14.1978 21.1024 15.9152 18.9154 15.6965L17.7471 15.5797L16.3622 20.7731C16.012 22.0864 14.8226 23.0001 13.4635 23.0001H11C10.7132 23.0001 10.4402 22.8769 10.2503 22.6619C10.0605 22.4469 9.97217 22.1607 10.0077 21.8761L10.8806 14.893ZM14.4297 3.74234L15.7309 8.62192L12.8713 8.90788L12.1328 3H13.4635C13.9165 3 14.313 3.30458 14.4297 3.74234ZM17.0806 10.4969C17.0924 10.496 17.1042 10.4948 17.116 10.4934L19.1144 10.2935C20.124 10.1926 21 10.9854 21 12C21 13.0146 20.124 13.8074 19.1144 13.7064L3.09457 12.1045C3.0409 12.0991 3.00003 12.0539 3.00003 12C3.00003 11.9461 3.0409 11.9009 3.09457 11.8955L17.0806 10.4969ZM15.731 15.3781L12.8713 15.0921L12.1328 21.0001H13.4635C13.9165 21.0001 14.313 20.6955 14.4297 20.2578L15.731 15.3781ZM5.21855 9.67315L4.38198 8H3.28079L3.73613 9.82139L5.21855 9.67315ZM3.73616 14.1786L5.21861 14.3268L4.38198 16.0001H3.28079L3.73616 14.1786Z" fill="#000640"/>
</svg>
