<svg width="24" height="24" viewBox="0 0 24 24" fill="none" xmlns="http://www.w3.org/2000/svg">
<path fill-rule="evenodd" clip-rule="evenodd" d="M10 1C9.44772 1 9 1.44772 9 2V4H8C6.34315 4 5 5.34315 5 7V9.27924L2.68377 10.0513C2.27543 10.1874 2 10.5696 2 11C2 13.2164 2.87018 15.8269 4.2 17.6C4.53137 18.0418 5.15817 18.1314 5.6 17.8C6.04183 17.4686 6.13137 16.8418 5.8 16.4C4.86804 15.1574 4.19419 13.3365 4.03568 11.7089L11 9.38743V16.5C11 17.0523 11.4477 17.5 12 17.5C12.5523 17.5 13 17.0523 13 16.5V9.38743L19.9643 11.7089C19.8058 13.3365 19.132 15.1574 18.2 16.4C17.8686 16.8418 17.9582 17.4686 18.4 17.8C18.8418 18.1314 19.4686 18.0418 19.8 17.6C21.1298 15.8269 22 13.2164 22 11C22 10.5696 21.7246 10.1874 21.3162 10.0513L19 9.27924V7C19 5.34315 17.6569 4 16 4H15V2C15 1.44772 14.5523 1 14 1H10ZM13 4H11V3H13V4ZM11.6838 7.05132L7 8.61257V7C7 6.44772 7.44772 6 8 6H16C16.5523 6 17 6.44772 17 7V8.61257L12.3162 7.05132C12.111 6.98289 11.889 6.98289 11.6838 7.05132Z" fill="#000640"/>
<path fill-rule="evenodd" clip-rule="evenodd" d="M2 23C3.24409 23 4.01313 22.1464 4.44008 21.6585C4.4999 21.5901 4.55323 21.5284 4.60174 21.4723C4.76224 21.2866 4.87023 21.1616 4.98468 21.0599C4.99859 21.0475 5.01095 21.0371 5.0218 21.0283C5.05241 21.0461 5.09483 21.0734 5.15045 21.1148C5.30079 21.2267 5.44861 21.3621 5.64545 21.5425C5.71206 21.6035 5.78429 21.6697 5.86413 21.7419C6.40093 22.227 7.28701 23 8.5 23C9.71299 23 10.5991 22.227 11.1359 21.7419C11.2157 21.6697 11.2879 21.6036 11.3545 21.5425C11.5514 21.3621 11.6992 21.2267 11.8496 21.1148C11.9199 21.0625 11.9691 21.0327 12 21.0161C12.0309 21.0327 12.0801 21.0625 12.1504 21.1148C12.3008 21.2267 12.4486 21.3621 12.6454 21.5425C12.7121 21.6035 12.7843 21.6697 12.8641 21.7419C13.4009 22.227 14.287 23 15.5 23C16.713 23 17.5991 22.227 18.1359 21.7419C18.2155 21.6699 18.2876 21.6038 18.3541 21.5429C18.551 21.3625 18.6992 21.2267 18.8496 21.1148C18.9052 21.0734 18.9476 21.0461 18.9782 21.0283C18.989 21.0371 19.0014 21.0475 19.0153 21.0599C19.1298 21.1616 19.2374 21.2861 19.3979 21.4719C19.4465 21.5281 19.5 21.59 19.5599 21.6585C19.9869 22.1464 20.7559 23 22 23C22.5523 23 23 22.5523 23 22C23 21.4477 22.5523 21 22 21C21.7441 21 21.5131 20.8536 21.0651 20.3415C21.0329 20.3047 20.9979 20.264 20.9604 20.2205C20.7891 20.0212 20.5679 19.7641 20.3441 19.5651C20.057 19.31 19.6078 19 19 19C18.4206 19 17.9576 19.2856 17.6557 19.5102C17.4147 19.6895 17.1624 19.9212 16.9497 20.1165C16.8952 20.1666 16.8433 20.2143 16.7948 20.2581C16.2252 20.773 15.8613 21 15.5 21C15.1387 21 14.7748 20.773 14.2052 20.2581C14.1567 20.2143 14.1048 20.1667 14.0503 20.1166C13.8377 19.9213 13.5853 19.6895 13.3443 19.5102C13.0424 19.2856 12.5794 19 12 19C11.4206 19 10.9576 19.2856 10.6557 19.5102C10.4147 19.6895 10.1624 19.9212 9.94972 20.1166C9.8952 20.1666 9.84328 20.2143 9.79482 20.2581C9.22518 20.773 8.86126 21 8.5 21C8.13874 21 7.77482 20.773 7.20518 20.2581C7.15686 20.2144 7.1051 20.1669 7.05075 20.117C6.83807 19.9217 6.58531 19.6895 6.34429 19.5102C6.04236 19.2856 5.57943 19 5 19C4.39224 19 3.94298 19.31 3.65595 19.5651C3.43208 19.7641 3.2109 20.0212 3.03957 20.2205C3.0022 20.2639 2.96706 20.3048 2.93492 20.3415C2.48687 20.8536 2.25591 21 2 21C1.44772 21 1 21.4477 1 22C1 22.5523 1.44772 23 2 23ZM5.08332 20.985L5.08105 20.9861C5.08258 20.9853 5.08333 20.985 5.08332 20.985ZM18.9167 20.985C18.9167 20.985 18.9174 20.9853 18.9189 20.9861L18.9167 20.985Z" fill="#000640"/>
</svg>
