<svg width="24" height="24" viewBox="0 0 24 24" fill="none" xmlns="http://www.w3.org/2000/svg">
<path fill-rule="evenodd" clip-rule="evenodd" d="M8.22138 14.7908C7.94617 14.8194 7.6714 14.7327 7.46243 14.5513L1.63751 9.49562C1.2398 9.15042 1.17796 8.55593 1.49612 8.13627C2.70573 6.54074 4.28922 5.24606 6.11453 4.35477C7.9397 3.46355 9.95675 2.99994 12.0012 2.99994C14.0456 2.99994 16.0627 3.46355 17.8879 4.35477C19.7132 5.24606 21.2967 6.54074 22.5063 8.13627C22.8244 8.55593 22.7626 9.15042 22.3649 9.49562L16.54 14.5513C16.331 14.7327 16.0562 14.8194 15.781 14.7908C15.5058 14.7621 15.2548 14.6208 15.0876 14.4003C14.7389 13.9403 14.2785 13.5621 13.7416 13.2999C13.5048 13.1843 13.2566 13.0929 13.0009 13.0268V15.1707C14.1661 15.5825 15.0009 16.6938 15.0009 18C15.0009 19.6568 13.6578 21 12.0009 21C10.3441 21 9.00093 19.6568 9.00093 18C9.00093 16.6938 9.83574 15.5825 11.0009 15.1707V13.027C10.7455 13.093 10.4974 13.1844 10.2608 13.2999C9.72388 13.5621 9.26352 13.9403 8.9148 14.4003C8.74763 14.6208 8.49659 14.7621 8.22138 14.7908ZM12.0009 17C11.4486 17 11.0009 17.4477 11.0009 18C11.0009 18.5523 11.4486 19 12.0009 19C12.5532 19 13.0009 18.5523 13.0009 18C13.0009 17.4477 12.5532 17 12.0009 17ZM14.6191 11.5027C14.1071 11.2527 13.5616 11.0784 13.0009 10.9837V7.99999C13.0009 7.4477 12.5532 6.99999 12.0009 6.99999C11.4486 6.99999 11.0009 7.4477 11.0009 7.99999V10.9838C10.4405 11.0785 9.89517 11.2528 9.38326 11.5027C8.89382 11.7417 8.44257 12.0462 8.04271 12.4067L3.68655 8.62581C4.60845 7.60982 5.72953 6.76846 6.99209 6.15196C8.54156 5.39536 10.2582 4.99994 12.0012 4.99994C13.7442 4.99994 15.4608 5.39536 17.0103 6.15196C18.2729 6.76846 19.3939 7.60982 20.3158 8.62581L15.9597 12.4067C15.5598 12.0462 15.1086 11.7417 14.6191 11.5027Z" fill="#000640"/>
</svg>
