<svg width="24" height="24" viewBox="0 0 24 24" fill="none" xmlns="http://www.w3.org/2000/svg">
<path d="M8 15.5C8 16.3284 7.32843 17 6.5 17C5.67157 17 5 16.3284 5 15.5C5 14.6716 5.67157 14 6.5 14C7.32843 14 8 14.6716 8 15.5Z" fill="#000640"/>
<path d="M17.5 17C18.3284 17 19 16.3284 19 15.5C19 14.6716 18.3284 14 17.5 14C16.6716 14 16 14.6716 16 15.5C16 16.3284 16.6716 17 17.5 17Z" fill="#000640"/>
<path fill-rule="evenodd" clip-rule="evenodd" d="M2.82486 3.70149C2.97822 2.16789 4.26872 1 5.80998 1H18.19C19.7313 1 21.0218 2.16788 21.1751 3.70149L21.995 11.9005C21.9983 11.9336 22 11.9668 22 12V17C22 18.6569 20.6569 20 19 20H18.8685L19.8321 21.4453C20.0366 21.7522 20.0557 22.1467 19.8817 22.4719C19.7077 22.797 19.3688 23 19 23H5C4.6312 23 4.29234 22.797 4.11833 22.4719C3.94431 22.1467 3.96338 21.7522 4.16795 21.4453L5.13148 20H5C3.34315 20 2 18.6569 2 17V12C2 11.9668 2.00166 11.9336 2.00496 11.9005L2.82486 3.70149ZM7.53518 20L6.86852 21H17.1315L16.4648 20H7.53518ZM5.80998 3C5.29622 3 4.86606 3.3893 4.81494 3.9005L4.10499 11H19.895L19.1851 3.9005C19.1339 3.38929 18.7038 3 18.19 3H5.80998ZM20 13H4V17C4 17.5523 4.44772 18 5 18H19C19.5523 18 20 17.5523 20 17V13Z" fill="#000640"/>
</svg>
