<svg width="24" height="24" viewBox="0 0 24 24" fill="none" xmlns="http://www.w3.org/2000/svg">
<path fill-rule="evenodd" clip-rule="evenodd" d="M0 6C0 4.34315 1.34315 3 3 3H13C14.6569 3 16 4.34315 16 6V7H19.5714C19.8522 7 20.12 7.11802 20.3095 7.32523L23.738 11.0752C23.9065 11.2596 24 11.5003 24 11.75V18C24 18.5523 23.5523 19 23 19H20.8293C20.4175 20.1652 19.3062 21 18 21C16.6887 21 15.5738 20.1586 15.1659 18.9863C15.1119 18.9953 15.0565 19 15 19H8.82929C8.41746 20.1652 7.30622 21 6 21C4.69378 21 3.58254 20.1652 3.17071 19H1C0.447715 19 0 18.5523 0 18V6ZM3.17071 17C3.58254 15.8348 4.69378 15 6 15C7.30622 15 8.41746 15.8348 8.82929 17H14V6C14 5.44772 13.5523 5 13 5H3C2.44772 5 2 5.44772 2 6V17H3.17071ZM16 15.7639V9H19.1308L22 12.1382V17H20.8293C20.4175 15.8348 19.3062 15 18 15C17.2316 15 16.5308 15.2889 16 15.7639ZM6 17C5.44772 17 5 17.4477 5 18C5 18.5523 5.44772 19 6 19C6.55228 19 7 18.5523 7 18C7 17.4477 6.55228 17 6 17ZM18 17C17.4477 17 17 17.4477 17 18C17 18.5523 17.4477 19 18 19C18.5523 19 19 18.5523 19 18C19 17.4477 18.5523 17 18 17Z" fill="#000640"/>
</svg>
