<svg width="24" height="24" viewBox="0 0 24 24" fill="none" xmlns="http://www.w3.org/2000/svg">
<path d="M7 10C7 9.44771 6.55228 9 6 9C5.44772 9 5 9.44771 5 10V14C5 14.5523 5.44772 15 6 15C6.55229 15 7 14.5523 7 14V10Z" fill="#000640"/>
<path d="M10 8C10.5523 8 11 8.44772 11 9V15C11 15.5523 10.5523 16 10 16C9.44772 16 9 15.5523 9 15V9C9 8.44772 9.44771 8 10 8Z" fill="#000640"/>
<path d="M15 11C15 10.4477 14.5523 10 14 10C13.4477 10 13 10.4477 13 11V13C13 13.5523 13.4477 14 14 14C14.5523 14 15 13.5523 15 13V11Z" fill="#000640"/>
<path fill-rule="evenodd" clip-rule="evenodd" d="M4 1C2.34315 1 1 2.34315 1 4V20C1 21.6569 2.34315 23 4 23H20C21.6569 23 23 21.6569 23 20V4C23 2.34315 21.6569 1 20 1H4ZM3 4C3 3.44772 3.44772 3 4 3H20C20.5523 3 21 3.44772 21 4V20C21 20.5523 20.5523 21 20 21H4C3.44772 21 3 20.5523 3 20V4Z" fill="#000640"/>
</svg>
