<svg width="24" height="24" viewBox="0 0 24 24" fill="none" xmlns="http://www.w3.org/2000/svg">
<path fill-rule="evenodd" clip-rule="evenodd" d="M13 2C13 1.44772 12.5523 1 12 1C11.4477 1 11 1.44772 11 2V3H8C7.44772 3 7 3.44772 7 4V10C7 10.5523 7.44772 11 8 11H11V13H3C2.44772 13 2 13.4477 2 14V20C2 20.5523 2.44772 21 3 21H11V22C11 22.5523 11.4477 23 12 23C12.5523 23 13 22.5523 13 22V21H21C21.5523 21 22 20.5523 22 20V14C22 13.4477 21.5523 13 21 13H13V11H16C16.5523 11 17 10.5523 17 10V4C17 3.44772 16.5523 3 16 3H13V2ZM11 5H9V9H11V5ZM13 9V5H15V9H13ZM11 15H4V19H11V15ZM13 19V15H20V19H13Z" fill="#000640"/>
</svg>
