<svg width="24" height="24" viewBox="0 0 24 24" fill="none" xmlns="http://www.w3.org/2000/svg">
<path d="M9 6C9 5.44772 8.55228 5 8 5C7.44772 5 7 5.44772 7 6V10C7 10.5523 7.44772 11 8 11C8.55228 11 9 10.5523 9 10V6Z" fill="#000640"/>
<path d="M12 5C12.5523 5 13 5.44772 13 6V12C13 12.5523 12.5523 13 12 13C11.4477 13 11 12.5523 11 12V6C11 5.44772 11.4477 5 12 5Z" fill="#000640"/>
<path d="M17 6C17 5.44772 16.5523 5 16 5C15.4477 5 15 5.44772 15 6V8C15 8.55229 15.4477 9 16 9C16.5523 9 17 8.55229 17 8V6Z" fill="#000640"/>
<path fill-rule="evenodd" clip-rule="evenodd" d="M4 1C2.34315 1 1 2.34315 1 4V20C1 21.6569 2.34315 23 4 23H20C21.6569 23 23 21.6569 23 20V4C23 2.34315 21.6569 1 20 1H4ZM3 4C3 3.44772 3.44772 3 4 3H20C20.5523 3 21 3.44772 21 4V20C21 20.5523 20.5523 21 20 21H4C3.44772 21 3 20.5523 3 20V4Z" fill="#000640"/>
</svg>
