<svg width="24" height="24" viewBox="0 0 24 24" fill="none" xmlns="http://www.w3.org/2000/svg">
<path d="M3 1C3.55228 1 4 1.44772 4 2V22C4 22.5523 3.55228 23 3 23C2.44772 23 2 22.5523 2 22V2C2 1.44772 2.44772 1 3 1Z" fill="#000640"/>
<path d="M21 1C21.5523 1 22 1.44772 22 2V22C22 22.5523 21.5523 23 21 23C20.4477 23 20 22.5523 20 22V2C20 1.44772 20.4477 1 21 1Z" fill="#000640"/>
<path fill-rule="evenodd" clip-rule="evenodd" d="M7 8C6.44772 8 6 8.44772 6 9V15C6 15.5523 6.44772 16 7 16H17C17.5523 16 18 15.5523 18 15V9C18 8.44772 17.5523 8 17 8H7ZM8 14V10H16V14H8Z" fill="#000640"/>
</svg>
