<svg width="24" height="24" viewBox="0 0 24 24" fill="none" xmlns="http://www.w3.org/2000/svg">
<path fill-rule="evenodd" clip-rule="evenodd" d="M3 5C3 3.34315 4.34315 2 6 2H18C19.6569 2 21 3.34315 21 5V10C21 11.6569 19.6569 13 18 13H6C4.34315 13 3 11.6569 3 10V5ZM6 4C5.44772 4 5 4.44772 5 5V10C5 10.5523 5.44772 11 6 11H18C18.5523 11 19 10.5523 19 10V5C19 4.44772 18.5523 4 18 4H6Z" fill="#000640"/>
<path d="M3 16C3 15.4477 3.44772 15 4 15H20C20.5523 15 21 15.4477 21 16C21 16.5523 20.5523 17 20 17H4C3.44772 17 3 16.5523 3 16Z" fill="#000640"/>
<path d="M4 19C3.44772 19 3 19.4477 3 20C3 20.5523 3.44772 21 4 21H20C20.5523 21 21 20.5523 21 20C21 19.4477 20.5523 19 20 19H4Z" fill="#000640"/>
</svg>
