<svg width="24" height="24" viewBox="0 0 24 24" fill="none" xmlns="http://www.w3.org/2000/svg">
<path fill-rule="evenodd" clip-rule="evenodd" d="M22.982 10.1891C22.8913 10.6598 22.4794 11 22 11L2 11C1.44772 11 1 10.5523 1 10L1 2C1 1.66818 1.1646 1.35797 1.43937 1.17194C1.71415 0.985907 2.0633 0.948292 2.37139 1.07153L22.3714 9.07153C22.8165 9.24956 23.0726 9.7184 22.982 10.1891ZM3 3.47704L3 9L16.8074 9.00001L3 3.47704Z" fill="#000640"/>
<path fill-rule="evenodd" clip-rule="evenodd" d="M22.982 13.8109C22.8913 13.3402 22.4794 13 22 13L2 13C1.44772 13 1 13.4477 1 14L1 22C1 22.3318 1.1646 22.642 1.43937 22.8281C1.71414 23.0141 2.0633 23.0517 2.37139 22.9285L22.3714 14.9285C22.8165 14.7504 23.0726 14.2816 22.982 13.8109ZM15 15.723V15H16.8074L15 15.723ZM13 15V16.523L11 17.323V15H13ZM9 15L9 18.123L7 18.923L7 15H9ZM5 15L5 19.723L3 20.523L3 15L5 15Z" fill="#000640"/>
</svg>
