<svg width="24" height="24" viewBox="0 0 24 24" fill="none" xmlns="http://www.w3.org/2000/svg">
<path d="M3 3C2.44772 3 2 3.44772 2 4C2 4.55228 2.44772 5 3 5L21 5C21.5523 5 22 4.55229 22 4C22 3.44772 21.5523 3 21 3H3Z" fill="#000640"/>
<path fill-rule="evenodd" clip-rule="evenodd" d="M10 16V8C10 7.63121 9.79702 7.29235 9.47186 7.11833C9.1467 6.94431 8.75216 6.96338 8.4453 7.16795L2.4453 11.168C2.1671 11.3534 2 11.6656 2 12C2 12.3344 2.1671 12.6466 2.4453 12.8321L8.4453 16.8321C8.75216 17.0366 9.1467 17.0557 9.47186 16.8817C9.79702 16.7077 10 16.3688 10 16ZM4.80278 12L8 9.86852V14.1315L4.80278 12Z" fill="#000640"/>
<path d="M12 8C12 7.44772 12.4477 7 13 7L21 7C21.5523 7 22 7.44771 22 8C22 8.55228 21.5523 9 21 9L13 9C12.4477 9 12 8.55228 12 8Z" fill="#000640"/>
<path d="M13 11C12.4477 11 12 11.4477 12 12C12 12.5523 12.4477 13 13 13L21 13C21.5523 13 22 12.5523 22 12C22 11.4477 21.5523 11 21 11L13 11Z" fill="#000640"/>
<path d="M12 16C12 15.4477 12.4477 15 13 15L21 15C21.5523 15 22 15.4477 22 16C22 16.5523 21.5523 17 21 17L13 17C12.4477 17 12 16.5523 12 16Z" fill="#000640"/>
<path d="M2 20C2 20.5523 2.44772 21 3 21H21C21.5523 21 22 20.5523 22 20C22 19.4477 21.5523 19 21 19H3C2.44772 19 2 19.4477 2 20Z" fill="#000640"/>
</svg>
