<svg width="24" height="24" viewBox="0 0 24 24" fill="none" xmlns="http://www.w3.org/2000/svg">
<path d="M12.4997 4C13.3281 4 13.9997 3.32843 13.9997 2.5C13.9997 1.67157 13.3281 1 12.4997 1C11.6713 1 10.9997 1.67157 10.9997 2.5C10.9997 3.32843 11.6713 4 12.4997 4Z" fill="#000640"/>
<path fill-rule="evenodd" clip-rule="evenodd" d="M17.121 6.70714C15.9494 5.53556 14.0499 5.53556 12.8784 6.70713L2.7068 16.8787C1.53523 18.0503 1.53523 19.9498 2.7068 21.1213L2.87838 21.2929C4.04995 22.4645 5.94945 22.4645 7.12102 21.2929L17.2926 11.1213C18.4642 9.94978 18.4642 8.05028 17.2926 6.87871L17.121 6.70714ZM14.2926 8.12135C14.6831 7.73082 15.3163 7.73082 15.7068 8.12135L15.8784 8.29292C16.2689 8.68345 16.2689 9.31661 15.8784 9.70714L13.9997 11.5858L12.4139 10L14.2926 8.12135ZM10.9997 11.4142L12.5855 13L5.70681 19.8787C5.31628 20.2692 4.68311 20.2692 4.29259 19.8787L4.12102 19.7071C3.73049 19.3166 3.73049 18.6834 4.12102 18.2929L10.9997 11.4142Z" fill="#000640"/>
<path d="M21.9997 15C22.552 15 22.9997 14.5523 22.9997 14C22.9997 13.4477 22.552 13 21.9997 13H20.9997V12C20.9997 11.4477 20.552 11 19.9997 11C19.4474 11 18.9997 11.4477 18.9997 12V13H17.9997C17.4474 13 16.9997 13.4477 16.9997 14C16.9997 14.5523 17.4474 15 17.9997 15H18.9997V16C18.9997 16.5523 19.4474 17 19.9997 17C20.552 17 20.9997 16.5523 20.9997 16V15H21.9997Z" fill="#000640"/>
<path d="M22.9997 4.00003C22.9997 4.55231 22.552 5.00003 21.9997 5.00003H20.9997V6C20.9997 6.55228 20.552 7 19.9997 7C19.4474 7 18.9997 6.55228 18.9997 6V5.00003H17.9997C17.4474 5.00003 16.9997 4.55231 16.9997 4.00003C16.9997 3.44774 17.4474 3.00003 17.9997 3.00003L18.9997 3.00003V2C18.9997 1.44772 19.4474 1 19.9997 1C20.552 1 20.9997 1.44772 20.9997 2V3.00003L21.9997 3.00003C22.552 3.00003 22.9997 3.44775 22.9997 4.00003Z" fill="#000640"/>
</svg>
