<svg width="24" height="24" viewBox="0 0 24 24" fill="none" xmlns="http://www.w3.org/2000/svg">
<path d="M13 2C13 1.44772 12.5523 1 12 1C11.4477 1 11 1.44772 11 2V22C11 22.5523 11.4477 23 12 23C12.5523 23 13 22.5523 13 22V2Z" fill="#000640"/>
<path fill-rule="evenodd" clip-rule="evenodd" d="M2 5C1.44772 5 1 5.44772 1 6V18C1 18.5523 1.44772 19 2 19H8C8.55228 19 9 18.5523 9 18V6C9 5.44772 8.55228 5 8 5H2ZM3 17V7H7V17H3Z" fill="#000640"/>
<path d="M17 6C17 6.55228 16.5523 7 16 7C15.4477 7 15 6.55228 15 6C15 5.44772 15.4477 5 16 5C16.5523 5 17 5.44772 17 6Z" fill="#000640"/>
<path d="M16 10C16.5523 10 17 9.55228 17 9C17 8.44772 16.5523 8 16 8C15.4477 8 15 8.44772 15 9C15 9.55228 15.4477 10 16 10Z" fill="#000640"/>
<path d="M17 12C17 12.5523 16.5523 13 16 13C15.4477 13 15 12.5523 15 12C15 11.4477 15.4477 11 16 11C16.5523 11 17 11.4477 17 12Z" fill="#000640"/>
<path d="M16 16C16.5523 16 17 15.5523 17 15C17 14.4477 16.5523 14 16 14C15.4477 14 15 14.4477 15 15C15 15.5523 15.4477 16 16 16Z" fill="#000640"/>
<path d="M20 6C20 6.55228 19.5523 7 19 7C18.4477 7 18 6.55228 18 6C18 5.44772 18.4477 5 19 5C19.5523 5 20 5.44772 20 6Z" fill="#000640"/>
<path d="M22 7C22.5523 7 23 6.55228 23 6C23 5.44772 22.5523 5 22 5C21.4477 5 21 5.44772 21 6C21 6.55228 21.4477 7 22 7Z" fill="#000640"/>
<path d="M23 9C23 9.55228 22.5523 10 22 10C21.4477 10 21 9.55228 21 9C21 8.44772 21.4477 8 22 8C22.5523 8 23 8.44772 23 9Z" fill="#000640"/>
<path d="M22 13C22.5523 13 23 12.5523 23 12C23 11.4477 22.5523 11 22 11C21.4477 11 21 11.4477 21 12C21 12.5523 21.4477 13 22 13Z" fill="#000640"/>
<path d="M23 15C23 15.5523 22.5523 16 22 16C21.4477 16 21 15.5523 21 15C21 14.4477 21.4477 14 22 14C22.5523 14 23 14.4477 23 15Z" fill="#000640"/>
<path d="M22 19C22.5523 19 23 18.5523 23 18C23 17.4477 22.5523 17 22 17C21.4477 17 21 17.4477 21 18C21 18.5523 21.4477 19 22 19Z" fill="#000640"/>
<path d="M20 18C20 18.5523 19.5523 19 19 19C18.4477 19 18 18.5523 18 18C18 17.4477 18.4477 17 19 17C19.5523 17 20 17.4477 20 18Z" fill="#000640"/>
<path d="M16 19C16.5523 19 17 18.5523 17 18C17 17.4477 16.5523 17 16 17C15.4477 17 15 17.4477 15 18C15 18.5523 15.4477 19 16 19Z" fill="#000640"/>
</svg>
