<svg width="24" height="24" viewBox="0 0 24 24" fill="none" xmlns="http://www.w3.org/2000/svg">
<path fill-rule="evenodd" clip-rule="evenodd" d="M5 1C3.34315 1 2 2.34315 2 4V6C2 7.65685 3.34315 9 5 9H16C17.6569 9 19 7.65685 19 6C19.5523 6 20 6.44772 20 7V9C20 9.55228 19.5523 10 19 10H12C10.3431 10 9 11.3431 9 13V14H8C7.44772 14 7 14.4477 7 15V22C7 22.5523 7.44772 23 8 23H12C12.5523 23 13 22.5523 13 22V15C13 14.4477 12.5523 14 12 14H11V13C11 12.4477 11.4477 12 12 12H19C20.6569 12 22 10.6569 22 9V7C22 5.34315 20.6569 4 19 4C19 2.34315 17.6569 1 16 1H5ZM17 4C17 3.44772 16.5523 3 16 3H5C4.44772 3 4 3.44772 4 4V6C4 6.55228 4.44772 7 5 7H16C16.5523 7 17 6.55228 17 6V4ZM9 16H11V21H9V16Z" fill="#000640"/>
</svg>
