<svg width="24" height="24" viewBox="0 0 24 24" fill="none" xmlns="http://www.w3.org/2000/svg">
<path fill-rule="evenodd" clip-rule="evenodd" d="M16.2929 2.29289C16.6834 1.90237 17.3166 1.90237 17.7071 2.29289L21.7071 6.29289C22.0976 6.68342 22.0976 7.31658 21.7071 7.70711L7.70711 21.7071C7.51957 21.8946 7.26522 22 7 22H3C2.44772 22 2 21.5523 2 21V17C2 16.7348 2.10536 16.4804 2.29289 16.2929L12.5858 6L11.5 4.91421L7.70711 8.70711C7.31658 9.09763 6.68342 9.09763 6.29289 8.70711C5.90237 8.31658 5.90237 7.68342 6.29289 7.29289L10.7929 2.79289C11.1834 2.40237 11.8166 2.40237 12.2071 2.79289L14 4.58579L16.2929 2.29289ZM14 7.41421L5.41421 16L8 18.5858L16.5858 10L14 7.41421ZM18 8.58579L15.4142 6L17 4.41421L19.5858 7L18 8.58579ZM6.58579 20L4 17.4142V20H6.58579Z" fill="#000640"/>
</svg>
