<svg width="24" height="24" viewBox="0 0 24 24" fill="none" xmlns="http://www.w3.org/2000/svg">
<path d="M13 14C13 14.5523 12.5523 15 12 15C11.4477 15 11 14.5523 11 14C11 13.4477 11.4477 13 12 13C12.5523 13 13 13.4477 13 14Z" fill="#000640"/>
<path fill-rule="evenodd" clip-rule="evenodd" d="M10 1C9.44771 1 9 1.44772 9 2V3.45802C7.3666 3.97105 5.91502 4.89117 4.76358 6.09804C4.51978 6.03407 4.26387 6 4 6C2.34315 6 1 7.34315 1 9C1 10.6569 2.34315 12 4 12C5.65685 12 7 10.6569 7 9C7 8.34708 6.79142 7.74288 6.43726 7.25039C7.17098 6.54036 8.03948 5.97 9 5.58118V6C9 6.55228 9.44771 7 10 7H10.382L6.10558 15.5528C5.94509 15.8738 5.96889 16.2561 6.16795 16.5547L8 19.3028V22C8 22.5523 8.44772 23 9 23H15C15.5523 23 16 22.5523 16 22V19.3028L17.8321 16.5547C18.0311 16.2561 18.0549 15.8738 17.8944 15.5528L13.618 7H14C14.5523 7 15 6.55228 15 6V5.58131C15.9605 5.97016 16.8289 6.54054 17.5626 7.25058C17.2085 7.74303 17 8.34717 17 9C17 10.6569 18.3431 12 20 12C21.6569 12 23 10.6569 23 9C23 7.34315 21.6569 6 20 6C19.736 6 19.48 6.03409 19.2362 6.09811C18.0848 4.89129 16.6333 3.97118 15 3.45812V2C15 1.44772 14.5523 1 14 1H10ZM13 5V3H11V5H13ZM10 21V20H14V21H10ZM15.846 15.9282L14.4648 18H9.53519L8.15396 15.9282L12 8.23607L15.846 15.9282ZM20 8C19.4477 8 19 8.44772 19 9C19 9.55228 19.4477 10 20 10C20.5523 10 21 9.55228 21 9C21 8.44772 20.5523 8 20 8ZM3 9C3 8.44772 3.44772 8 4 8C4.55228 8 5 8.44772 5 9C5 9.55228 4.55228 10 4 10C3.44772 10 3 9.55228 3 9Z" fill="#000640"/>
</svg>
