<svg width="24" height="24" viewBox="0 0 24 24" fill="none" xmlns="http://www.w3.org/2000/svg">
<path fill-rule="evenodd" clip-rule="evenodd" d="M19 2C19.2652 2 19.5196 2.10536 19.7071 2.29289L22.7071 5.29289C23.0977 5.68342 23.0977 6.31658 22.7071 6.70711L8.70714 20.7071C8.5196 20.8946 8.26525 21 8.00003 21L2.00003 21C1.59557 21 1.23093 20.7564 1.07615 20.3827C0.921369 20.009 1.00692 19.5789 1.29292 19.2929L18.2929 2.29289C18.4805 2.10536 18.7348 2 19 2ZM19 4.41421L9.41424 14L11 15.5858L20.5858 6L19 4.41421ZM9.58582 17L8.00003 15.4142L4.41424 19H7.58582L9.58582 17Z" fill="#000640"/>
</svg>
