<svg width="24" height="24" viewBox="0 0 24 24" fill="none" xmlns="http://www.w3.org/2000/svg">
<path d="M3.70711 21.7071L21.7071 3.70711C22.0976 3.31658 22.0976 2.68342 21.7071 2.29289C21.3166 1.90237 20.6834 1.90237 20.2929 2.29289L2.29289 20.2929C1.90237 20.6834 1.90237 21.3166 2.29289 21.7071C2.68342 22.0976 3.31658 22.0976 3.70711 21.7071Z" fill="#000640"/>
<path d="M3 4C3.55229 4 4 3.55228 4 3C4 2.44772 3.55229 2 3 2C2.44772 2 2 2.44772 2 3C2 3.55228 2.44772 4 3 4Z" fill="#000640"/>
<path d="M6 4C6.55229 4 7 3.55228 7 3C7 2.44772 6.55229 2 6 2C5.44772 2 5 2.44772 5 3C5 3.55228 5.44772 4 6 4Z" fill="#000640"/>
<path d="M10 21C10 21.5523 9.55229 22 9 22C8.44772 22 8 21.5523 8 21C8 20.4477 8.44772 20 9 20C9.55229 20 10 20.4477 10 21Z" fill="#000640"/>
<path d="M7 21C7 21.5523 6.55229 22 6 22C5.44772 22 5 21.5523 5 21C5 20.4477 5.44772 20 6 20C6.55229 20 7 20.4477 7 21Z" fill="#000640"/>
<path d="M20 21C20 20.4477 20.4477 20 21 20C21.5523 20 22 20.4477 22 21C22 21.5523 21.5523 22 21 22C20.4477 22 20 21.5523 20 21Z" fill="#000640"/>
<path d="M15 22C15.5523 22 16 21.5523 16 21C16 20.4477 15.5523 20 15 20C14.4477 20 14 20.4477 14 21C14 21.5523 14.4477 22 15 22Z" fill="#000640"/>
<path d="M10 3C10 3.55228 9.55229 4 9 4C8.44772 4 8 3.55228 8 3C8 2.44772 8.44772 2 9 2C9.55229 2 10 2.44772 10 3Z" fill="#000640"/>
<path d="M12 22C12.5523 22 13 21.5523 13 21C13 20.4477 12.5523 20 12 20C11.4477 20 11 20.4477 11 21C11 21.5523 11.4477 22 12 22Z" fill="#000640"/>
<path d="M19 21C19 21.5523 18.5523 22 18 22C17.4477 22 17 21.5523 17 21C17 20.4477 17.4477 20 18 20C18.5523 20 19 20.4477 19 21Z" fill="#000640"/>
<path d="M12 4C12.5523 4 13 3.55228 13 3C13 2.44772 12.5523 2 12 2C11.4477 2 11 2.44772 11 3C11 3.55228 11.4477 4 12 4Z" fill="#000640"/>
<path d="M13 6C13 6.55228 12.5523 7 12 7C11.4477 7 11 6.55228 11 6C11 5.44772 11.4477 5 12 5C12.5523 5 13 5.44772 13 6Z" fill="#000640"/>
<path d="M12 10C12.5523 10 13 9.55228 13 9C13 8.44772 12.5523 8 12 8C11.4477 8 11 8.44772 11 9C11 9.55228 11.4477 10 12 10Z" fill="#000640"/>
<path d="M13 15C13 15.5523 12.5523 16 12 16C11.4477 16 11 15.5523 11 15C11 14.4477 11.4477 14 12 14C12.5523 14 13 14.4477 13 15Z" fill="#000640"/>
<path d="M15 4C15.5523 4 16 3.55228 16 3C16 2.44772 15.5523 2 15 2C14.4477 2 14 2.44772 14 3C14 3.55228 14.4477 4 15 4Z" fill="#000640"/>
<path d="M19 3C19 3.55228 18.5523 4 18 4C17.4477 4 17 3.55228 17 3C17 2.44772 17.4477 2 18 2C18.5523 2 19 2.44772 19 3Z" fill="#000640"/>
<path d="M22 6C22 6.55228 21.5523 7 21 7C20.4477 7 20 6.55228 20 6C20 5.44772 20.4477 5 21 5C21.5523 5 22 5.44772 22 6Z" fill="#000640"/>
<path d="M3 7C3.55229 7 4 6.55228 4 6C4 5.44772 3.55229 5 3 5C2.44772 5 2 5.44772 2 6C2 6.55228 2.44772 7 3 7Z" fill="#000640"/>
<path d="M22 9C22 9.55228 21.5523 10 21 10C20.4477 10 20 9.55228 20 9C20 8.44772 20.4477 8 21 8C21.5523 8 22 8.44772 22 9Z" fill="#000640"/>
<path d="M3 10C3.55229 10 4 9.55228 4 9C4 8.44772 3.55229 8 3 8C2.44772 8 2 8.44772 2 9C2 9.55228 2.44772 10 3 10Z" fill="#000640"/>
<path d="M22 12C22 12.5523 21.5523 13 21 13C20.4477 13 20 12.5523 20 12C20 11.4477 20.4477 11 21 11C21.5523 11 22 11.4477 22 12Z" fill="#000640"/>
<path d="M3 13C3.55229 13 4 12.5523 4 12C4 11.4477 3.55229 11 3 11C2.44772 11 2 11.4477 2 12C2 12.5523 2.44772 13 3 13Z" fill="#000640"/>
<path d="M19 12C19 12.5523 18.5523 13 18 13C17.4477 13 17 12.5523 17 12C17 11.4477 17.4477 11 18 11C18.5523 11 19 11.4477 19 12Z" fill="#000640"/>
<path d="M15 13C15.5523 13 16 12.5523 16 12C16 11.4477 15.5523 11 15 11C14.4477 11 14 11.4477 14 12C14 12.5523 14.4477 13 15 13Z" fill="#000640"/>
<path d="M13 18C13 18.5523 12.5523 19 12 19C11.4477 19 11 18.5523 11 18C11 17.4477 11.4477 17 12 17C12.5523 17 13 17.4477 13 18Z" fill="#000640"/>
<path d="M9 13C9.55229 13 10 12.5523 10 12C10 11.4477 9.55229 11 9 11C8.44772 11 8 11.4477 8 12C8 12.5523 8.44772 13 9 13Z" fill="#000640"/>
<path d="M7 12C7 12.5523 6.55229 13 6 13C5.44772 13 5 12.5523 5 12C5 11.4477 5.44772 11 6 11C6.55229 11 7 11.4477 7 12Z" fill="#000640"/>
<path d="M21 16C21.5523 16 22 15.5523 22 15C22 14.4477 21.5523 14 21 14C20.4477 14 20 14.4477 20 15C20 15.5523 20.4477 16 21 16Z" fill="#000640"/>
<path d="M4 15C4 15.5523 3.55229 16 3 16C2.44772 16 2 15.5523 2 15C2 14.4477 2.44772 14 3 14C3.55229 14 4 14.4477 4 15Z" fill="#000640"/>
<path d="M21 19C21.5523 19 22 18.5523 22 18C22 17.4477 21.5523 17 21 17C20.4477 17 20 17.4477 20 18C20 18.5523 20.4477 19 21 19Z" fill="#000640"/>
<path d="M4 18C4 18.5523 3.55229 19 3 19C2.44772 19 2 18.5523 2 18C2 17.4477 2.44772 17 3 17C3.55229 17 4 17.4477 4 18Z" fill="#000640"/>
</svg>
