<svg width="24" height="24" viewBox="0 0 24 24" fill="none" xmlns="http://www.w3.org/2000/svg">
<path d="M7 3C7 3.55228 6.55228 4 6 4C5.44772 4 5 3.55228 5 3C5 2.44772 5.44772 2 6 2C6.55228 2 7 2.44772 7 3Z" fill="#000640"/>
<path d="M3 22C3.55228 22 4 21.5523 4 21C4 20.4477 3.55228 20 3 20C2.44772 20 2 20.4477 2 21C2 21.5523 2.44772 22 3 22Z" fill="#000640"/>
<path d="M7 21C7 21.5523 6.55228 22 6 22C5.44772 22 5 21.5523 5 21C5 20.4477 5.44772 20 6 20C6.55228 20 7 20.4477 7 21Z" fill="#000640"/>
<path d="M10 21C10 21.5523 9.55228 22 9 22C8.44772 22 8 21.5523 8 21C8 20.4477 8.44772 20 9 20C9.55228 20 10 20.4477 10 21Z" fill="#000640"/>
<path d="M15 22C15.5523 22 16 21.5523 16 21C16 20.4477 15.5523 20 15 20C14.4477 20 14 20.4477 14 21C14 21.5523 14.4477 22 15 22Z" fill="#000640"/>
<path d="M22 21C22 21.5523 21.5523 22 21 22C20.4477 22 20 21.5523 20 21C20 20.4477 20.4477 20 21 20C21.5523 20 22 20.4477 22 21Z" fill="#000640"/>
<path d="M13 21C13 21.5523 12.5523 22 12 22C11.4477 22 11 21.5523 11 21C11 20.4477 11.4477 20 12 20C12.5523 20 13 20.4477 13 21Z" fill="#000640"/>
<path d="M18 22C18.5523 22 19 21.5523 19 21C19 20.4477 18.5523 20 18 20C17.4477 20 17 20.4477 17 21C17 21.5523 17.4477 22 18 22Z" fill="#000640"/>
<path d="M9 4C9.55228 4 10 3.55228 10 3C10 2.44772 9.55228 2 9 2C8.44772 2 8 2.44772 8 3C8 3.55228 8.44772 4 9 4Z" fill="#000640"/>
<path d="M13 3C13 3.55228 12.5523 4 12 4C11.4477 4 11 3.55228 11 3C11 2.44772 11.4477 2 12 2C12.5523 2 13 2.44772 13 3Z" fill="#000640"/>
<path d="M12 7C12.5523 7 13 6.55228 13 6C13 5.44772 12.5523 5 12 5C11.4477 5 11 5.44772 11 6C11 6.55228 11.4477 7 12 7Z" fill="#000640"/>
<path d="M13 9C13 9.55228 12.5523 10 12 10C11.4477 10 11 9.55228 11 9C11 8.44772 11.4477 8 12 8C12.5523 8 13 8.44772 13 9Z" fill="#000640"/>
<path d="M12 16C12.5523 16 13 15.5523 13 15C13 14.4477 12.5523 14 12 14C11.4477 14 11 14.4477 11 15C11 15.5523 11.4477 16 12 16Z" fill="#000640"/>
<path d="M16 3C16 3.55228 15.5523 4 15 4C14.4477 4 14 3.55228 14 3C14 2.44772 14.4477 2 15 2C15.5523 2 16 2.44772 16 3Z" fill="#000640"/>
<path d="M18 4C18.5523 4 19 3.55228 19 3C19 2.44772 18.5523 2 18 2C17.4477 2 17 2.44772 17 3C17 3.55228 17.4477 4 18 4Z" fill="#000640"/>
<path d="M22 3C22 3.55228 21.5523 4 21 4C20.4477 4 20 3.55228 20 3C20 2.44772 20.4477 2 21 2C21.5523 2 22 2.44772 22 3Z" fill="#000640"/>
<path d="M3 4C3.55228 4 4 3.55228 4 3C4 2.44772 3.55228 2 3 2C2.44772 2 2 2.44772 2 3C2 3.55228 2.44772 4 3 4Z" fill="#000640"/>
<path d="M22 6C22 6.55228 21.5523 7 21 7C20.4477 7 20 6.55228 20 6C20 5.44772 20.4477 5 21 5C21.5523 5 22 5.44772 22 6Z" fill="#000640"/>
<path d="M3 7C3.55228 7 4 6.55228 4 6C4 5.44772 3.55228 5 3 5C2.44772 5 2 5.44772 2 6C2 6.55228 2.44772 7 3 7Z" fill="#000640"/>
<path d="M22 9C22 9.55228 21.5523 10 21 10C20.4477 10 20 9.55228 20 9C20 8.44772 20.4477 8 21 8C21.5523 8 22 8.44772 22 9Z" fill="#000640"/>
<path d="M3 10C3.55228 10 4 9.55228 4 9C4 8.44772 3.55228 8 3 8C2.44772 8 2 8.44772 2 9C2 9.55228 2.44772 10 3 10Z" fill="#000640"/>
<path d="M22 12C22 12.5523 21.5523 13 21 13C20.4477 13 20 12.5523 20 12C20 11.4477 20.4477 11 21 11C21.5523 11 22 11.4477 22 12Z" fill="#000640"/>
<path d="M3 13C3.55228 13 4 12.5523 4 12C4 11.4477 3.55228 11 3 11C2.44772 11 2 11.4477 2 12C2 12.5523 2.44772 13 3 13Z" fill="#000640"/>
<path d="M19 12C19 12.5523 18.5523 13 18 13C17.4477 13 17 12.5523 17 12C17 11.4477 17.4477 11 18 11C18.5523 11 19 11.4477 19 12Z" fill="#000640"/>
<path d="M15 13C15.5523 13 16 12.5523 16 12C16 11.4477 15.5523 11 15 11C14.4477 11 14 11.4477 14 12C14 12.5523 14.4477 13 15 13Z" fill="#000640"/>
<path d="M13 12C13 12.5523 12.5523 13 12 13C11.4477 13 11 12.5523 11 12C11 11.4477 11.4477 11 12 11C12.5523 11 13 11.4477 13 12Z" fill="#000640"/>
<path d="M12 19C12.5523 19 13 18.5523 13 18C13 17.4477 12.5523 17 12 17C11.4477 17 11 17.4477 11 18C11 18.5523 11.4477 19 12 19Z" fill="#000640"/>
<path d="M10 12C10 12.5523 9.55228 13 9 13C8.44772 13 8 12.5523 8 12C8 11.4477 8.44772 11 9 11C9.55228 11 10 11.4477 10 12Z" fill="#000640"/>
<path d="M6 13C6.55228 13 7 12.5523 7 12C7 11.4477 6.55228 11 6 11C5.44772 11 5 11.4477 5 12C5 12.5523 5.44772 13 6 13Z" fill="#000640"/>
<path d="M22 15C22 15.5523 21.5523 16 21 16C20.4477 16 20 15.5523 20 15C20 14.4477 20.4477 14 21 14C21.5523 14 22 14.4477 22 15Z" fill="#000640"/>
<path d="M3 16C3.55228 16 4 15.5523 4 15C4 14.4477 3.55228 14 3 14C2.44772 14 2 14.4477 2 15C2 15.5523 2.44772 16 3 16Z" fill="#000640"/>
<path d="M22 18C22 18.5523 21.5523 19 21 19C20.4477 19 20 18.5523 20 18C20 17.4477 20.4477 17 21 17C21.5523 17 22 17.4477 22 18Z" fill="#000640"/>
<path d="M3 19C3.55228 19 4 18.5523 4 18C4 17.4477 3.55228 17 3 17C2.44772 17 2 17.4477 2 18C2 18.5523 2.44772 19 3 19Z" fill="#000640"/>
</svg>
