<svg width="24" height="24" viewBox="0 0 24 24" fill="none" xmlns="http://www.w3.org/2000/svg">
<path fill-rule="evenodd" clip-rule="evenodd" d="M19.9363 3.35115C20.074 2.98398 19.9843 2.57021 19.7071 2.29292C19.4298 2.01563 19.016 1.92601 18.6488 2.0637L10.6488 5.0637C10.1317 5.25762 9.86969 5.83403 10.0636 6.35115C10.2575 6.86827 10.8339 7.13028 11.3511 6.93636L13.233 6.23064L15.7742 8.75413L15.0636 10.6489C14.8697 11.166 15.1317 11.7424 15.6488 11.9364C16.1659 12.1303 16.7424 11.8683 16.9363 11.3512L19.9363 3.35115ZM16.5443 6.70034L15.2933 5.45802L17.2911 4.70883L16.5443 6.70034Z" fill="#000640"/>
<path d="M5.21394 6.79979C4.82722 6.40549 4.19409 6.39935 3.79979 6.78606C3.40549 7.17278 3.39935 7.80591 3.78606 8.20021L14.8686 19.5L13.75 19.5C13.1978 19.5 12.75 19.9477 12.75 20.5C12.75 21.0523 13.1977 21.5 13.75 21.5L17.2501 21.5001C17.5153 21.5001 17.7697 21.3947 17.9572 21.2072C18.1448 21.0196 18.2501 20.7653 18.2501 20.5001L18.2501 16.5001C18.2501 15.9478 17.8024 15.5001 17.2501 15.5001C16.6978 15.5001 16.2501 15.9478 16.2501 16.5001V18.0523L5.21394 6.79979Z" fill="#000640"/>
</svg>
