<svg width="24" height="24" viewBox="0 0 24 24" fill="none" xmlns="http://www.w3.org/2000/svg">
<path d="M7 6C6.44772 6 6 6.44772 6 7V8.875C6 9.42728 6.44772 9.875 7 9.875C7.55228 9.875 8 9.42728 8 8.875V8H11V16H9.25C8.69772 16 8.25 16.4477 8.25 17C8.25 17.5523 8.69772 18 9.25 18H14.75C15.3023 18 15.75 17.5523 15.75 17C15.75 16.4477 15.3023 16 14.75 16H13V8H16V8.875C16 9.42728 16.4477 9.875 17 9.875C17.5523 9.875 18 9.42728 18 8.875V7C18 6.44772 17.5523 6 17 6H7Z" fill="#000640"/>
<path fill-rule="evenodd" clip-rule="evenodd" d="M4 1C2.34315 1 1 2.34315 1 4V20C1 21.6569 2.34315 23 4 23H20C21.6569 23 23 21.6569 23 20V4C23 2.34315 21.6569 1 20 1H4ZM3 4C3 3.44772 3.44772 3 4 3H20C20.5523 3 21 3.44772 21 4V20C21 20.5523 20.5523 21 20 21H4C3.44772 21 3 20.5523 3 20V4Z" fill="#000640"/>
</svg>
