<svg width="24" height="24" viewBox="0 0 24 24" fill="none" xmlns="http://www.w3.org/2000/svg">
<path d="M12 4C9.68915 4 8 5.6635 8 7.5C8 9.3365 9.68915 11 12 11H20C20.5523 11 21 11.4477 21 12C21 12.5523 20.5523 13 20 13H16.6323C17.4808 13.938 18 15.1475 18 16.5C18 19.6341 15.212 22 12 22C8.788 22 6 19.6341 6 16.5C6 15.9477 6.44772 15.5 7 15.5C7.55228 15.5 8 15.9477 8 16.5C8 18.3365 9.68915 20 12 20C14.3109 20 16 18.3365 16 16.5C16 14.6635 14.3109 13 12 13H4C3.44772 13 3 12.5523 3 12C3 11.4477 3.44772 11 4 11H7.36773C6.51925 10.062 6 8.85253 6 7.5C6 4.36593 8.788 2 12 2C15.212 2 18 4.36593 18 7.5C18 8.05228 17.5523 8.5 17 8.5C16.4477 8.5 16 8.05228 16 7.5C16 5.6635 14.3109 4 12 4Z" fill="#000640"/>
</svg>
