<svg width="24" height="24" viewBox="0 0 24 24" fill="none" xmlns="http://www.w3.org/2000/svg">
<path fill-rule="evenodd" clip-rule="evenodd" d="M3.35115 4.0637C2.98398 3.92601 2.57021 4.01563 2.29292 4.29292C2.01563 4.57021 1.92601 4.98398 2.0637 5.35115L5.0637 13.3512C5.25762 13.8683 5.83403 14.1303 6.35115 13.9364C6.86827 13.7424 7.13028 13.166 6.93636 12.6489L6.23064 10.767L8.75413 8.22582L10.6489 8.93636C11.166 9.13028 11.7424 8.86827 11.9364 8.35115C12.1303 7.83403 11.8683 7.25762 11.3512 7.0637L3.35115 4.0637ZM6.70034 7.45565L5.45802 8.70666L4.70883 6.70883L6.70034 7.45565Z" fill="#000640"/>
<path d="M16.4999 5.99982C15.9476 5.99981 15.4999 6.44752 15.4998 6.99981C15.4998 7.55209 15.9476 7.99981 16.4998 7.99982L17.5858 7.99983L6.29286 19.2927C5.90234 19.6832 5.90234 20.3164 6.29286 20.7069C6.68338 21.0974 7.31655 21.0974 7.70707 20.7069L18.9999 9.41407V10.4999C18.9999 11.0521 19.4477 11.4999 19.9999 11.4999C20.5522 11.4999 20.9999 11.0521 20.9999 10.4999V6.99986C20.9999 6.44758 20.5522 5.99986 20 5.99986L16.4999 5.99982Z" fill="#000640"/>
</svg>
