<svg width="24" height="24" viewBox="0 0 24 24" fill="none" xmlns="http://www.w3.org/2000/svg">
<path fill-rule="evenodd" clip-rule="evenodd" d="M12.9143 6.59507C12.7541 6.23329 12.3957 6 12 6C11.6043 6 11.2459 6.23329 11.0856 6.59507L7.98964 13.5861L6.59381 16.5771C6.36026 17.0776 6.57664 17.6726 7.07711 17.9062C7.57758 18.1397 8.17262 17.9234 8.40618 17.4229L9.53686 15H14.4631L15.5938 17.4229C15.8274 17.9234 16.4224 18.1397 16.9229 17.9062C17.4234 17.6726 17.6397 17.0776 17.4062 16.5771L16.0104 13.5861L12.9143 6.59507ZM12 9.46959L13.5635 13H10.4365L12 9.46959Z" fill="#000640"/>
<path fill-rule="evenodd" clip-rule="evenodd" d="M4 1C2.34315 1 1 2.34315 1 4V20C1 21.6569 2.34315 23 4 23H20C21.6569 23 23 21.6569 23 20V4C23 2.34315 21.6569 1 20 1H4ZM3 4C3 3.44772 3.44772 3 4 3H20C20.5523 3 21 3.44772 21 4V20C21 20.5523 20.5523 21 20 21H4C3.44772 21 3 20.5523 3 20V4Z" fill="#000640"/>
</svg>
