<svg width="24" height="24" viewBox="0 0 24 24" fill="none" xmlns="http://www.w3.org/2000/svg">
<path fill-rule="evenodd" clip-rule="evenodd" d="M12 7C12.3973 7 12.7569 7.23519 12.9162 7.59918L16.4162 15.5992C16.6375 16.1052 16.4068 16.6948 15.9008 16.9162C15.3948 17.1375 14.8052 16.9068 14.5839 16.4008L13.846 14.7143H10.154L9.41617 16.4008C9.1948 16.9068 8.60517 17.1375 8.09919 16.9162C7.59321 16.6948 7.36248 16.1052 7.58385 15.5992L11.0839 7.59918C11.2431 7.23519 11.6027 7 12 7ZM12.971 12.7143L12 10.4949L11.029 12.7143H12.971Z" fill="#000640"/>
<path fill-rule="evenodd" clip-rule="evenodd" d="M1 2C1 1.44772 1.44772 1 2 1H6C6.55228 1 7 1.44772 7 2V3H17V2C17 1.44772 17.4477 1 18 1H22C22.5523 1 23 1.44772 23 2V6C23 6.55228 22.5523 7 22 7H21V17H22C22.5523 17 23 17.4477 23 18V22C23 22.5523 22.5523 23 22 23H18C17.4477 23 17 22.5523 17 22V21H7V22C7 22.5523 6.55228 23 6 23H2C1.44772 23 1 22.5523 1 22V18C1 17.4477 1.44772 17 2 17H3V7H2C1.44772 7 1 6.55228 1 6V2ZM19 7H18C17.4477 7 17 6.55228 17 6V5H7V6C7 6.55228 6.55228 7 6 7H5V17H6C6.55228 17 7 17.4477 7 18V19H17V18C17 17.4477 17.4477 17 18 17H19V7ZM3 3V5H5V3H3ZM3 21V19H5V21H3ZM19 19V21H21V19H19ZM19 5V3H21V5H19Z" fill="#000640"/>
</svg>
