<svg width="24" height="24" viewBox="0 0 24 24" fill="none" xmlns="http://www.w3.org/2000/svg">
<path d="M7 3C7 2.44772 6.55228 2 6 2C5.44772 2 5 2.44772 5 3V11.4667C5 13.5401 5.78245 15.2087 7.10591 16.3451C8.41001 17.4649 10.1579 18 12 18C13.8421 18 15.59 17.4649 16.8941 16.3451C18.2175 15.2087 19 13.5401 19 11.4667V3C19 2.44772 18.5523 2 18 2C17.4477 2 17 2.44772 17 3V11.4667C17 13.0015 16.4393 14.0995 15.5912 14.8277C14.7237 15.5726 13.4716 16 12 16C10.5284 16 9.27628 15.5726 8.40881 14.8277C7.56069 14.0995 7 13.0015 7 11.4667V3Z" fill="#000640"/>
<path d="M4 20C3.44772 20 3 20.4477 3 21C3 21.5523 3.44772 22 4 22L20 22C20.5523 22 21 21.5523 21 21C21 20.4477 20.5523 20 20 20L4 20Z" fill="#000640"/>
</svg>
