<svg width="24" height="24" viewBox="0 0 24 24" fill="none" xmlns="http://www.w3.org/2000/svg">
<path d="M8.5 8C7.94772 8 7.5 8.44772 7.5 9C7.5 9.55229 7.94772 10 8.5 10H11V16C11 16.5523 11.4477 17 12 17C12.5523 17 13 16.5523 13 16V10H15.5C16.0523 10 16.5 9.55229 16.5 9C16.5 8.44772 16.0523 8 15.5 8H8.5Z" fill="#000640"/>
<path fill-rule="evenodd" clip-rule="evenodd" d="M2 1C1.44772 1 1 1.44772 1 2V6C1 6.55228 1.44772 7 2 7H3V17H2C1.44772 17 1 17.4477 1 18V22C1 22.5523 1.44772 23 2 23H6C6.55228 23 7 22.5523 7 22V21H17V22C17 22.5523 17.4477 23 18 23H22C22.5523 23 23 22.5523 23 22V18C23 17.4477 22.5523 17 22 17H21V7H22C22.5523 7 23 6.55228 23 6V2C23 1.44772 22.5523 1 22 1H18C17.4477 1 17 1.44772 17 2V3H7V2C7 1.44772 6.55228 1 6 1H2ZM5 17V7H6C6.55228 7 7 6.55228 7 6V5H17V6C17 6.55228 17.4477 7 18 7H19V17H18C17.4477 17 17 17.4477 17 18V19H7V18C7 17.4477 6.55228 17 6 17H5ZM5 5V3H3V5H5ZM21 3V5H19V3H21ZM21 21H19V19H21V21ZM3 21V19H5V21H3Z" fill="#000640"/>
</svg>
