<svg width="24" height="24" viewBox="0 0 24 24" fill="none" xmlns="http://www.w3.org/2000/svg">
<path d="M14 3C14 3.04619 13.9984 3.0894 13.9954 3.12978C14.4538 3.19496 14.8799 3.28453 15.2758 3.39813C15.8067 3.55044 16.1135 4.10427 15.9612 4.63514C15.8089 5.166 15.2551 5.47288 14.7242 5.32056C14.0277 5.12071 13.139 5 11.9999 5C9.82442 5 8.57688 5.43921 7.82128 6.01922C7.07754 6.59013 6.66476 7.4089 6.39846 8.5053C6.21055 9.27897 6.11534 10.0815 6.01069 10.9636C5.95958 11.3944 5.90623 11.8441 5.83873 12.3187C5.64347 13.6917 5.33365 15.1809 4.54378 16.5107C4.26173 16.9855 3.64815 17.1418 3.17332 16.8598C2.69849 16.5777 2.54221 15.9641 2.82426 15.4893C3.40512 14.5114 3.67238 13.3469 3.85865 12.0371C3.91108 11.6685 3.95779 11.2769 4.00573 10.8749C4.11857 9.92877 4.23821 8.9257 4.45497 8.03325C4.7772 6.70656 5.3555 5.39069 6.60347 4.43274C7.46915 3.76823 8.58432 3.33177 10.0047 3.12986C10.0016 3.08945 10 3.04622 10 3C10 1.89543 10.8954 1 12 1C13.1046 1 14 1.89543 14 3Z" fill="#000640"/>
<path fill-rule="evenodd" clip-rule="evenodd" d="M21.4825 17.8103C19.8584 18.7049 17.9542 19.3228 15.9437 19.6687C15.9323 19.7362 15.9191 19.8033 15.9042 19.87C15.7825 20.4164 15.5472 20.9319 15.2128 21.3828C14.8368 21.8898 14.3461 22.3006 13.7809 22.5817C13.2157 22.8627 12.592 23.006 11.9607 22.9998C11.3295 22.9936 10.7087 22.8381 10.1491 22.546C9.58954 22.2539 9.10702 21.8336 8.74101 21.3193C8.41554 20.8619 8.19044 20.3419 8.07943 19.7932C8.07105 19.7517 8.06331 19.7101 8.05623 19.6683C7.41072 19.5573 6.77738 19.4185 6.16208 19.2521L3.70711 21.7071C3.31658 22.0976 2.68342 22.0976 2.29289 21.7071C1.90237 21.3166 1.90237 20.6834 2.29289 20.2929L20.2929 2.29289C20.6834 1.90237 21.3166 1.90237 21.7071 2.29289C22.0976 2.68342 22.0976 3.31658 21.7071 3.70711L18.9885 6.42569C19.3082 7.09297 19.5078 7.80323 19.6496 8.50561C19.8013 9.25703 19.8965 10.0585 19.9874 10.823L19.9876 10.8245C20.0111 11.0221 20.0343 11.2172 20.0581 11.4084C20.3004 13.3542 20.6268 15.0184 21.745 16.2674C21.9483 16.4944 22.0369 16.8018 21.9858 17.1022C21.9347 17.4026 21.7494 17.6633 21.4825 17.8103ZM7.82365 17.5906C11.7127 18.3805 16.1576 18.0224 19.4887 16.5642C18.5452 15.0053 18.2686 13.2223 18.0734 11.6556C18.0464 11.4382 18.021 11.2257 17.9962 11.0177L17.996 11.0156C17.9062 10.2623 17.8232 9.56558 17.6891 8.90136C17.6214 8.56578 17.5431 8.2536 17.45 7.96418L7.82365 17.5906ZM10.2316 19.9343C11.4035 20.0214 12.5931 20.0218 13.7682 19.9346C13.721 20.0239 13.667 20.1098 13.6064 20.1914C13.4184 20.4449 13.1731 20.6503 12.8904 20.7908C12.6078 20.9313 12.296 21.003 11.9804 20.9999C11.6648 20.9968 11.3544 20.919 11.0746 20.773C10.7948 20.627 10.5535 20.4168 10.3705 20.1596C10.3191 20.0875 10.2728 20.0122 10.2316 19.9343Z" fill="#000640"/>
</svg>
