<svg width="24" height="24" viewBox="0 0 24 24" fill="none" xmlns="http://www.w3.org/2000/svg">
<path d="M12 8C12.5523 8 13 8.44772 13 9V11H15C15.5523 11 16 11.4477 16 12C16 12.5523 15.5523 13 15 13H13V15C13 15.5523 12.5523 16 12 16C11.4477 16 11 15.5523 11 15V13H9C8.44772 13 8 12.5523 8 12C8 11.4477 8.44772 11 9 11H11V9C11 8.44772 11.4477 8 12 8Z" fill="#000640"/>
<path fill-rule="evenodd" clip-rule="evenodd" d="M14 3C14 3.04625 13.9984 3.08951 13.9953 3.12994C15.5591 3.3523 16.7522 3.85869 17.648 4.63844C18.8897 5.71927 19.3921 7.18178 19.6684 8.60062C19.8069 9.31169 19.8955 10.0521 19.9799 10.7603L19.983 10.7864C20.0677 11.498 20.149 12.1812 20.2721 12.8466C20.5211 14.1918 20.9226 15.3488 21.745 16.2674C21.9483 16.4944 22.037 16.8018 21.9858 17.1022C21.9347 17.4026 21.7494 17.6633 21.4825 17.8103C19.8517 18.7086 17.9461 19.324 15.9444 19.6684C15.6263 21.5594 13.9814 23 12 23C10.0186 23 8.37372 21.5594 8.0556 19.6684C6.05393 19.324 4.14835 18.7086 2.51754 17.8103C2.25062 17.6633 2.0653 17.4026 2.01418 17.1022C1.96306 16.8018 2.05171 16.4944 2.25498 16.2674C3.07743 15.3488 3.47894 14.1918 3.72784 12.8466C3.85098 12.1812 3.93229 11.498 4.01699 10.7864L4.0201 10.7603C4.1044 10.0521 4.193 9.31171 4.33149 8.60064C4.60782 7.1818 5.11014 5.71927 6.35186 4.63844C7.24771 3.85867 8.44082 3.35228 10.0047 3.12992C10.0016 3.0895 10 3.04625 10 3C10 1.89543 10.8954 1 12 1C13.1046 1 14 1.89543 14 3ZM10.2313 19.9345C10.5668 20.5683 11.233 21 12 21C12.767 21 13.4331 20.5683 13.7687 19.9345C13.1804 19.9783 12.5894 20 12 20C11.4106 20 10.8196 19.9783 10.2313 19.9345ZM4.51162 16.5643C6.67257 17.5102 9.31722 18 12 18C14.6828 18 17.3274 17.5102 19.4884 16.5643C18.8423 15.4976 18.5131 14.3323 18.3055 13.2106C18.1705 12.4808 18.0826 11.7422 18.0002 11.05L17.9939 10.9967C17.9081 10.2764 17.8273 9.60948 17.7053 8.98299C17.4606 7.72669 17.0774 6.7933 16.3349 6.14701C15.5946 5.50267 14.3288 5 11.9999 5C9.67104 5 8.40522 5.50267 7.66496 6.14701C6.92247 6.79329 6.53928 7.72667 6.29461 8.98297C6.17259 9.60947 6.09182 10.2764 6.00608 10.9967L5.99973 11.05C5.91737 11.7422 5.82948 12.4808 5.69446 13.2105C5.48689 14.3323 5.1577 15.4976 4.51162 16.5643Z" fill="#000640"/>
</svg>
