<svg width="24" height="25" viewBox="0 0 24 25" fill="none" xmlns="http://www.w3.org/2000/svg">
<path d="M4.33721 16.7396C4.61989 16.7396 4.89099 16.6273 5.09087 16.4276C5.29075 16.2278 5.40304 15.9568 5.40304 15.6743V8.21744C5.40301 8.02893 5.35293 7.8438 5.25791 7.68096C5.1629 7.51811 5.02635 7.38338 4.86221 7.29051C4.69807 7.19764 4.51222 7.14996 4.32362 7.15234C4.13502 7.15471 3.95042 7.20706 3.78868 7.30404L1.12407 8.90194C0.882575 9.04777 0.708781 9.28335 0.640789 9.55703C0.572797 9.83072 0.616155 10.1202 0.761358 10.362C0.906561 10.6038 1.14176 10.7782 1.4154 10.8469C1.68904 10.9157 1.97879 10.8732 2.22113 10.7287L3.27138 10.0988V15.6743C3.27138 15.9568 3.38367 16.2278 3.58355 16.4276C3.78343 16.6273 4.05453 16.7396 4.33721 16.7396Z" fill="#000640"/>
<path d="M11.9947 7.15225C9.75494 7.15225 8 9.25777 8 11.9459C8 14.6341 9.75483 16.7396 11.9947 16.7396C14.2346 16.7396 15.9894 14.634 15.9894 11.9459C15.9894 9.25782 14.2346 7.15225 11.9947 7.15225ZM11.9947 14.6091C11.185 14.6091 10.2827 13.5155 10.2827 11.9459C10.2827 10.3763 11.185 9.28274 11.9947 9.28274C12.8044 9.28274 13.7067 10.3763 13.7067 11.9459C13.7067 13.5155 12.8045 14.6091 11.9947 14.6091Z" fill="#000640"/>
<path fill-rule="evenodd" clip-rule="evenodd" d="M17.6835 11.3703C18.074 10.9797 18.7072 10.9797 19.0977 11.3703L20.3906 12.6631L21.6835 11.3703C22.074 10.9797 22.7072 10.9797 23.0977 11.3703C23.4883 11.7608 23.4883 12.3939 23.0977 12.7845L21.8048 14.0774L23.0977 15.3703C23.4883 15.7608 23.4883 16.3939 23.0977 16.7845C22.7072 17.175 22.074 17.175 21.6835 16.7845L20.3906 15.4916L19.0977 16.7845C18.7072 17.175 18.074 17.175 17.6835 16.7845C17.293 16.3939 17.293 15.7608 17.6835 15.3703L18.9764 14.0774L17.6835 12.7845C17.293 12.3939 17.293 11.7608 17.6835 11.3703Z" fill="#000640"/>
<circle cx="7.23828" cy="15.7396" r="1" fill="#000640"/>
</svg>
