<svg width="24" height="25" viewBox="0 0 24 25" fill="none" xmlns="http://www.w3.org/2000/svg">
<path d="M5.33721 16.7396C5.61989 16.7396 5.89099 16.6273 6.09087 16.4276C6.29075 16.2278 6.40304 15.9568 6.40304 15.6743V8.21744C6.40301 8.02893 6.35293 7.8438 6.25791 7.68096C6.1629 7.51811 6.02635 7.38338 5.86221 7.29051C5.69807 7.19764 5.51222 7.14996 5.32362 7.15234C5.13502 7.15471 4.95042 7.20706 4.78868 7.30404L2.12407 8.90194C1.88258 9.04777 1.70878 9.28335 1.64079 9.55703C1.5728 9.83072 1.61615 10.1202 1.76136 10.362C1.90656 10.6038 2.14176 10.7782 2.4154 10.8469C2.68904 10.9157 2.97879 10.8732 3.22113 10.7287L4.27138 10.0988V15.6743C4.27138 15.9568 4.38367 16.2278 4.58355 16.4276C4.78343 16.6273 5.05453 16.7396 5.33721 16.7396Z" fill="#000640"/>
<path fill-rule="evenodd" clip-rule="evenodd" d="M17.6835 11.3703C18.074 10.9797 18.7072 10.9797 19.0977 11.3703L20.3906 12.6631L21.6835 11.3703C22.074 10.9797 22.7072 10.9797 23.0977 11.3703C23.4883 11.7608 23.4883 12.3939 23.0977 12.7845L21.8048 14.0774L23.0977 15.3703C23.4883 15.7608 23.4883 16.3939 23.0977 16.7845C22.7072 17.175 22.074 17.175 21.6835 16.7845L20.3906 15.4916L19.0977 16.7845C18.7072 17.175 18.074 17.175 17.6835 16.7845C17.293 16.3939 17.293 15.7608 17.6835 15.3703L18.9764 14.0774L17.6835 12.7845C17.293 12.3939 17.293 11.7608 17.6835 11.3703Z" fill="#000640"/>
<path d="M9.23828 15.7396C9.23828 16.2919 8.79057 16.7396 8.23828 16.7396C7.686 16.7396 7.23828 16.2919 7.23828 15.7396C7.23828 15.1873 7.686 14.7396 8.23828 14.7396C8.79057 14.7396 9.23828 15.1873 9.23828 15.7396Z" fill="#000640"/>
<path fill-rule="evenodd" clip-rule="evenodd" d="M9.56506 8.23749C9.56506 7.6852 10.0128 7.23749 10.5651 7.23749H15.407C15.7586 7.23749 16.0844 7.42216 16.265 7.72386C16.4456 8.02557 16.4545 8.39995 16.2884 8.70987L12.2777 16.1932C12.0168 16.68 11.4107 16.8631 10.9239 16.6022C10.4371 16.3413 10.254 15.7352 10.5149 15.2484L13.7365 9.23749H10.5651C10.0128 9.23749 9.56506 8.78977 9.56506 8.23749Z" fill="#000640"/>
</svg>
