<svg width="24" height="25" viewBox="0 0 24 25" fill="none" xmlns="http://www.w3.org/2000/svg">
<path d="M12.9936 7.15225C10.7538 7.15225 8.99887 9.25777 8.99887 11.9459C8.99887 14.6341 10.7537 16.7396 12.9936 16.7396C15.2334 16.7396 16.9883 14.634 16.9883 11.9459C16.9883 9.25782 15.2335 7.15225 12.9936 7.15225ZM12.9936 14.6091C12.1838 14.6091 11.2815 13.5155 11.2815 11.9459C11.2815 10.3763 12.1838 9.28273 12.9936 9.28273C13.8033 9.28273 14.7056 10.3763 14.7056 11.9459C14.7056 13.5155 13.8034 14.6091 12.9936 14.6091Z" fill="#000640"/>
<path fill-rule="evenodd" clip-rule="evenodd" d="M17.6824 11.3703C18.0729 10.9797 18.7061 10.9797 19.0966 11.3703L20.3895 12.6631L21.6824 11.3703C22.0729 10.9797 22.7061 10.9797 23.0966 11.3703C23.4871 11.7608 23.4871 12.3939 23.0966 12.7845L21.8037 14.0774L23.0966 15.3703C23.4871 15.7608 23.4871 16.3939 23.0966 16.7845C22.7061 17.175 22.0729 17.175 21.6824 16.7845L20.3895 15.4916L19.0966 16.7845C18.7061 17.175 18.0729 17.175 17.6824 16.7845C17.2919 16.3939 17.2919 15.7608 17.6824 15.3703L18.9753 14.0774L17.6824 12.7845C17.2919 12.3939 17.2919 11.7608 17.6824 11.3703Z" fill="#000640"/>
<path d="M9.23715 15.7396C9.23715 16.2919 8.78944 16.7396 8.23715 16.7396C7.68487 16.7396 7.23715 16.2919 7.23715 15.7396C7.23715 15.1873 7.68487 14.7396 8.23715 14.7396C8.78944 14.7396 9.23715 15.1873 9.23715 15.7396Z" fill="#000640"/>
<path fill-rule="evenodd" clip-rule="evenodd" d="M4.56632 9.4176C4.38993 9.25252 4.07907 9.09516 3.54951 9.14213C2.91932 9.19803 2.58019 9.49375 2.37661 9.77105C2.2681 9.91884 2.19679 10.0658 2.15355 10.1745C2.13233 10.2279 2.11904 10.2691 2.11206 10.2925C2.10919 10.3022 2.10746 10.3086 2.10674 10.3113C1.98232 10.8438 1.45232 11.1784 0.917012 11.0599C0.377767 10.9406 0.0373345 10.4068 0.156635 9.86753L1.1328 10.0835C0.156635 9.86753 0.156745 9.86703 0.156857 9.86653L0.157089 9.86549L0.157587 9.86327L0.158712 9.85833L0.161502 9.84642C0.163606 9.8376 0.16621 9.82702 0.169355 9.81478C0.17564 9.79032 0.184117 9.75914 0.195124 9.72215C0.217084 9.64835 0.249448 9.55028 0.295114 9.43545C0.385669 9.20774 0.53311 8.90253 0.764444 8.58744C1.24055 7.93895 2.06549 7.26592 3.37279 7.14995C4.41635 7.05739 5.30405 7.36878 5.93294 7.95733C6.5451 8.53024 6.85827 9.31725 6.85827 10.0835C6.85827 12.1766 5.19069 13.2399 4.12235 13.9209C4.06684 13.9563 4.01256 13.9908 3.95946 14.0246C3.58155 14.2648 3.26437 14.4665 3.00199 14.6682C3.89853 14.6672 4.99058 14.6642 5.85535 14.6617C6.40763 14.6601 6.85665 15.1065 6.85826 15.6588C6.85987 16.211 6.41346 16.6601 5.86118 16.6617C4.96803 16.6643 3.8304 16.6674 2.91589 16.6683C2.45888 16.6688 2.05617 16.6687 1.76714 16.6677C1.62313 16.6672 1.50463 16.6664 1.42098 16.6654C1.38015 16.6649 1.34226 16.6642 1.31222 16.6633C1.2992 16.6629 1.27663 16.6622 1.25267 16.6606C1.24402 16.66 1.21294 16.6579 1.17544 16.6527C1.16169 16.6508 1.10589 16.643 1.03852 16.6239C1.01187 16.6163 0.919533 16.5899 0.81369 16.5291C0.757019 16.494 0.625806 16.3897 0.555783 16.3168C0.4648 16.194 0.332141 15.8644 0.311371 15.6617C0.311371 14.694 0.786474 13.9846 1.33301 13.4653C1.79186 13.0293 2.37747 12.6587 2.87244 12.3454C2.93217 12.3076 2.99058 12.2706 3.04729 12.2344C4.2524 11.4662 4.85827 10.9436 4.85827 10.0835C4.85827 9.84983 4.75944 9.59833 4.56632 9.4176Z" fill="#000640"/>
</svg>
