<svg width="24" height="25" viewBox="0 0 24 25" fill="none" xmlns="http://www.w3.org/2000/svg">
<g clip-path="url(#clip0_1463_5209)">
<path fill-rule="evenodd" clip-rule="evenodd" d="M20.0955 0.739288C20.6477 0.739288 21.0955 1.187 21.0955 1.73929V6.73929C21.0955 7.29157 20.6477 7.73929 20.0955 7.73929C19.5432 7.73929 19.0955 7.29157 19.0955 6.73929V1.73929C19.0955 1.187 19.5432 0.739288 20.0955 0.739288Z" fill="#000640"/>
<path fill-rule="evenodd" clip-rule="evenodd" d="M16.5955 4.23929C16.5955 3.687 17.0432 3.23929 17.5955 3.23929L22.5955 3.23929C23.1477 3.23929 23.5955 3.687 23.5955 4.23929C23.5955 4.79157 23.1477 5.23929 22.5955 5.23929L17.5955 5.23929C17.0432 5.23929 16.5955 4.79157 16.5955 4.23929Z" fill="#000640"/>
<path fill-rule="evenodd" clip-rule="evenodd" d="M8.01581 11.1101C8.50941 10.2051 9.82458 10.253 10.2511 11.1914L12.156 15.382C12.5322 16.2096 11.9271 17.1493 11.018 17.1493H6.82739C5.87856 17.1493 5.27567 16.1337 5.73002 15.3007L8.01581 11.1101ZM9.05213 13.3868L8.09079 15.1493H9.85325L9.05213 13.3868Z" fill="#000640"/>
<path fill-rule="evenodd" clip-rule="evenodd" d="M13.4062 11.6879L11.9228 15.1493H14.8897L13.4062 11.6879ZM12.2573 9.29153C12.6902 8.2814 14.1223 8.28139 14.5552 9.29153L17.176 15.4069C17.5295 16.2317 16.9245 17.1493 16.0271 17.1493H10.7854C9.88799 17.1493 9.28295 16.2317 9.63645 15.4069L12.2573 9.29153Z" fill="#000640"/>
<path fill-rule="evenodd" clip-rule="evenodd" d="M2.40625 6.14928C2.40625 5.04471 3.30168 4.14928 4.40625 4.14928H15.1396C15.6919 4.14928 16.1396 4.59699 16.1396 5.14928C16.1396 5.70156 15.6919 6.14928 15.1396 6.14928H4.40625V20.1493H18.4062V9.14928C18.4062 8.59699 18.854 8.14928 19.4062 8.14928C19.9585 8.14928 20.4062 8.59699 20.4062 9.14928V20.1493C20.4062 21.2538 19.5108 22.1493 18.4062 22.1493H4.40625C3.30168 22.1493 2.40625 21.2538 2.40625 20.1493V6.14928Z" fill="#000640"/>
</g>
<defs>
<clipPath id="clip0_1463_5209">
<rect width="24" height="24" fill="white" transform="translate(0 0.114807)"/>
</clipPath>
</defs>
</svg>
