<svg width="24" height="25" viewBox="0 0 24 25" fill="none" xmlns="http://www.w3.org/2000/svg">
<path fill-rule="evenodd" clip-rule="evenodd" d="M2 6.11481C2 5.01024 2.89543 4.11481 4 4.11481H14C14.5523 4.11481 15 4.56252 15 5.11481C15 5.66709 14.5523 6.11481 14 6.11481H4V20.1148H17V9.11481C17 8.56252 17.4477 8.11481 18 8.11481C18.5523 8.11481 19 8.56252 19 9.11481V20.1148C19 21.2194 18.1046 22.1148 17 22.1148H4C2.89543 22.1148 2 21.2194 2 20.1148V6.11481Z" fill="#000640"/>
<path fill-rule="evenodd" clip-rule="evenodd" d="M6 9.11481C6 8.56252 6.44772 8.11481 7 8.11481H14C14.5523 8.11481 15 8.56252 15 9.11481C15 9.66709 14.5523 10.1148 14 10.1148H7C6.44772 10.1148 6 9.66709 6 9.11481Z" fill="#000640"/>
<path fill-rule="evenodd" clip-rule="evenodd" d="M6 13.1148C6 12.5625 6.44772 12.1148 7 12.1148H14C14.5523 12.1148 15 12.5625 15 13.1148C15 13.6671 14.5523 14.1148 14 14.1148H7C6.44772 14.1148 6 13.6671 6 13.1148Z" fill="#000640"/>
<path fill-rule="evenodd" clip-rule="evenodd" d="M6 17.1148C6 16.5625 6.44772 16.1148 7 16.1148H11C11.5523 16.1148 12 16.5625 12 17.1148C12 17.6671 11.5523 18.1148 11 18.1148H7C6.44772 18.1148 6 17.6671 6 17.1148Z" fill="#000640"/>
<path fill-rule="evenodd" clip-rule="evenodd" d="M19.5 1.11481C20.0523 1.11481 20.5 1.56252 20.5 2.11481V7.11481C20.5 7.66709 20.0523 8.11481 19.5 8.11481C18.9477 8.11481 18.5 7.66709 18.5 7.11481V2.11481C18.5 1.56252 18.9477 1.11481 19.5 1.11481Z" fill="#000640"/>
<path fill-rule="evenodd" clip-rule="evenodd" d="M16 4.61481C16 4.06252 16.4477 3.61481 17 3.61481L22 3.61481C22.5523 3.61481 23 4.06252 23 4.61481C23 5.16709 22.5523 5.61481 22 5.61481L17 5.61481C16.4477 5.61481 16 5.16709 16 4.61481Z" fill="#000640"/>
</svg>
