<svg width="24" height="25" viewBox="0 0 24 25" fill="none" xmlns="http://www.w3.org/2000/svg">
<path fill-rule="evenodd" clip-rule="evenodd" d="M2 5.11481C2.55228 5.11481 3 5.56252 3 6.11481V18.1148C3 18.6671 2.55228 19.1148 2 19.1148C1.44772 19.1148 1 18.6671 1 18.1148V6.11481C1 5.56252 1.44772 5.11481 2 5.11481Z" fill="#000640"/>
<path fill-rule="evenodd" clip-rule="evenodd" d="M6 5.11481C6.55228 5.11481 7 5.56252 7 6.11481V18.1148C7 18.6671 6.55228 19.1148 6 19.1148C5.44772 19.1148 5 18.6671 5 18.1148V6.11481C5 5.56252 5.44772 5.11481 6 5.11481Z" fill="#000640"/>
<path fill-rule="evenodd" clip-rule="evenodd" d="M9 5.11481C9.55229 5.11481 10 5.56252 10 6.11481V18.1148C10 18.6671 9.55229 19.1148 9 19.1148C8.44772 19.1148 8 18.6671 8 18.1148V6.11481C8 5.56252 8.44772 5.11481 9 5.11481Z" fill="#000640"/>
<path fill-rule="evenodd" clip-rule="evenodd" d="M14 5.11481C14.5523 5.11481 15 5.56252 15 6.11481V18.1148C15 18.6671 14.5523 19.1148 14 19.1148C13.4477 19.1148 13 18.6671 13 18.1148V6.11481C13 5.56252 13.4477 5.11481 14 5.11481Z" fill="#000640"/>
<path fill-rule="evenodd" clip-rule="evenodd" d="M19 5.11481C19.5523 5.11481 20 5.56252 20 6.11481V18.1148C20 18.6671 19.5523 19.1148 19 19.1148C18.4477 19.1148 18 18.6671 18 18.1148V6.11481C18 5.56252 18.4477 5.11481 19 5.11481Z" fill="#000640"/>
<path fill-rule="evenodd" clip-rule="evenodd" d="M22 5.11481C22.5523 5.11481 23 5.56252 23 6.11481V18.1148C23 18.6671 22.5523 19.1148 22 19.1148C21.4477 19.1148 21 18.6671 21 18.1148V6.11481C21 5.56252 21.4477 5.11481 22 5.11481Z" fill="#000640"/>
</svg>
