<svg width="24" height="25" viewBox="0 0 24 25" fill="none" xmlns="http://www.w3.org/2000/svg">
<path d="M11 6.11481C11 7.21938 10.1046 8.11481 9 8.11481C7.89543 8.11481 7 7.21938 7 6.11481C7 5.01024 7.89543 4.11481 9 4.11481C10.1046 4.11481 11 5.01024 11 6.11481Z" fill="#000640"/>
<path d="M17 6.11481C17 7.21938 16.1046 8.11481 15 8.11481C13.8954 8.11481 13 7.21938 13 6.11481C13 5.01024 13.8954 4.11481 15 4.11481C16.1046 4.11481 17 5.01024 17 6.11481Z" fill="#000640"/>
<path d="M11 12.1148C11 13.2194 10.1046 14.1148 9 14.1148C7.89543 14.1148 7 13.2194 7 12.1148C7 11.0102 7.89543 10.1148 9 10.1148C10.1046 10.1148 11 11.0102 11 12.1148Z" fill="#000640"/>
<path d="M17 12.1148C17 13.2194 16.1046 14.1148 15 14.1148C13.8954 14.1148 13 13.2194 13 12.1148C13 11.0102 13.8954 10.1148 15 10.1148C16.1046 10.1148 17 11.0102 17 12.1148Z" fill="#000640"/>
<path d="M11 18.1148C11 19.2194 10.1046 20.1148 9 20.1148C7.89543 20.1148 7 19.2194 7 18.1148C7 17.0102 7.89543 16.1148 9 16.1148C10.1046 16.1148 11 17.0102 11 18.1148Z" fill="#000640"/>
<path d="M17 18.1148C17 19.2194 16.1046 20.1148 15 20.1148C13.8954 20.1148 13 19.2194 13 18.1148C13 17.0102 13.8954 16.1148 15 16.1148C16.1046 16.1148 17 17.0102 17 18.1148Z" fill="#000640"/>
</svg>
