<svg width="24" height="25" viewBox="0 0 24 25" fill="none" xmlns="http://www.w3.org/2000/svg">
<path fill-rule="evenodd" clip-rule="evenodd" d="M3 3.11481C1.34315 3.11481 0 4.45795 0 6.11481V18.1148C0 19.7717 1.34315 21.1148 3 21.1148H15C16.6569 21.1148 18 19.7717 18 18.1148V16.6148L22.6154 18.5379C22.924 18.6665 23.2765 18.6323 23.5547 18.4469C23.8329 18.2614 24 17.9492 24 17.6148V7.11481C24 6.79336 23.8455 6.49152 23.5847 6.30357C23.3239 6.11561 22.9887 6.06447 22.6838 6.16612L18 7.72738V6.11481C18 4.45795 16.6569 3.11481 15 3.11481H3ZM22 16.1148L18 14.4481V9.83557L22 8.50223V16.1148ZM2 6.11481C2 5.56252 2.44772 5.11481 3 5.11481H15C15.5523 5.11481 16 5.56252 16 6.11481V18.1148C16 18.6671 15.5523 19.1148 15 19.1148H3C2.44772 19.1148 2 18.6671 2 18.1148V6.11481Z" fill="#000640"/>
<path d="M11.5 9.61481C11.5 10.9955 10.3807 12.1148 9 12.1148C7.61929 12.1148 6.5 10.9955 6.5 9.61481C6.5 8.2341 7.61929 7.11481 9 7.11481C10.3807 7.11481 11.5 8.2341 11.5 9.61481Z" fill="#000640"/>
<path d="M13 17.1148H5C4.44772 17.1148 3.99488 16.6597 4.15235 16.1303C4.55556 14.7749 5.84399 13.1148 9 13.1148C12.156 13.1148 13.4444 14.7749 13.8477 16.1303C14.0051 16.6597 13.5523 17.1148 13 17.1148Z" fill="#000640"/>
</svg>
