<svg width="24" height="25" viewBox="0 0 24 25" fill="none" xmlns="http://www.w3.org/2000/svg">
<path fill-rule="evenodd" clip-rule="evenodd" d="M6 12.1148C6 11.5625 6.44772 11.1148 7 11.1148H17C17.5523 11.1148 18 11.5625 18 12.1148C18 12.6671 17.5523 13.1148 17 13.1148H7C6.44772 13.1148 6 12.6671 6 12.1148Z" fill="#000640"/>
<path fill-rule="evenodd" clip-rule="evenodd" d="M3 7.11481C3 6.56252 3.44772 6.11481 4 6.11481H20C20.5523 6.11481 21 6.56252 21 7.11481C21 7.66709 20.5523 8.11481 20 8.11481H4C3.44772 8.11481 3 7.66709 3 7.11481Z" fill="#000640"/>
<path fill-rule="evenodd" clip-rule="evenodd" d="M9 17.1148C9 16.5625 9.44772 16.1148 10 16.1148H14C14.5523 16.1148 15 16.5625 15 17.1148C15 17.6671 14.5523 18.1148 14 18.1148H10C9.44772 18.1148 9 17.6671 9 17.1148Z" fill="#000640"/>
</svg>
