<svg width="24" height="24" viewBox="0 0 24 24" fill="none" xmlns="http://www.w3.org/2000/svg">
<path d="M21.0849 11.8352C20.7835 11.7461 20.4678 11.7155 20.1549 11.7452L22.4049 9.21521C22.6197 8.99098 22.7871 8.72576 22.897 8.43539C23.007 8.14502 23.0573 7.83545 23.0449 7.52521C23.0369 7.21343 22.9674 6.90631 22.8404 6.62145C22.7134 6.3366 22.5314 6.0796 22.3049 5.86521C21.8446 5.43645 21.2337 5.20649 20.6049 5.22521C20.2369 5.24528 19.878 5.3478 19.5549 5.52521C19.9158 5.04487 20.0807 4.44542 20.0164 3.8481C19.9521 3.25078 19.6634 2.70016 19.2086 2.30762C18.7538 1.91508 18.1669 1.7099 17.5666 1.73358C16.9663 1.75727 16.3974 2.00805 15.9749 2.43521L15.2749 3.19521C15.2066 2.657 14.9602 2.15713 14.5749 1.77521C14.3559 1.5605 14.0963 1.39156 13.8113 1.27825C13.5263 1.16493 13.2216 1.10951 12.9149 1.11521C12.6001 1.12729 12.2909 1.20257 12.0057 1.33657C11.7205 1.47057 11.4652 1.66055 11.2549 1.89521L6.61492 6.96521V5.87521C6.66953 5.32782 6.51989 4.77956 6.19476 4.33582C5.86964 3.89208 5.39196 3.58417 4.85357 3.47128C4.31517 3.35839 3.75405 3.44849 3.27805 3.72425C2.80206 4.00002 2.44479 4.44199 2.27492 4.96521C1.1638 8.25038 0.748329 11.7308 1.05492 15.1852C1.21884 16.4034 1.60886 17.5802 2.20492 18.6552C2.90296 19.9234 3.92543 20.9834 5.16769 21.7266C6.40994 22.4699 7.82738 22.8697 9.27492 22.8852H9.77492C11.3589 22.7917 12.872 22.1963 14.0949 21.1852C14.124 21.1575 14.1508 21.1274 14.1749 21.0952C14.2201 21.0794 14.2636 21.0593 14.3049 21.0352L21.6349 16.0352C22.1044 15.7323 22.4481 15.2696 22.6026 14.7327C22.757 14.1959 22.7117 13.6212 22.4749 13.1152C22.3476 12.8152 22.1578 12.5459 21.9181 12.3252C21.6784 12.1044 21.3943 11.9374 21.0849 11.8352ZM20.8049 14.7152L13.4549 19.7752C13.4065 19.8169 13.3629 19.8639 13.3249 19.9152C13.2618 19.9309 13.2034 19.9618 13.1549 20.0052C12.1656 20.8126 10.9492 21.2915 9.67492 21.3752C8.42762 21.4376 7.18799 21.147 6.09838 20.5368C5.00877 19.9265 4.11334 19.0214 3.51492 17.9252C2.99937 17.0169 2.66009 16.0194 2.51492 14.9852C2.22445 11.7634 2.59885 8.51633 3.61492 5.44521C3.67192 5.28113 3.78631 5.1432 3.93701 5.05682C4.0877 4.97045 4.26454 4.94146 4.43492 4.97521C4.61687 5.00933 4.77942 5.11042 4.8905 5.25852C5.00157 5.40662 5.0531 5.59098 5.03492 5.77521V5.83521L5.25492 10.1852C5.25875 10.2913 5.28974 10.3946 5.34492 10.4852C5.39724 10.6268 5.4911 10.7494 5.61421 10.8368C5.73732 10.9242 5.88395 10.9725 6.03492 10.9752C6.14492 10.9752 8.80492 11.0452 9.63492 14.5252C9.67329 14.6901 9.76631 14.8371 9.89884 14.9424C10.0314 15.0477 10.1956 15.1051 10.3649 15.1052H10.5349C10.7279 15.0555 10.894 14.9328 10.9984 14.7631C11.1029 14.5934 11.1375 14.3899 11.0949 14.1952C10.9136 13.0758 10.403 12.0357 9.62826 11.2076C8.85355 10.3794 7.84979 9.80071 6.74492 9.54521V9.08521L12.3449 2.89521C12.4916 2.73174 12.6959 2.63139 12.9149 2.61521C13.145 2.61106 13.3676 2.69721 13.5349 2.85521C13.7122 3.04118 13.8111 3.28826 13.8111 3.54521C13.8111 3.80215 13.7122 4.04923 13.5349 4.23521L10.2649 8.61521C10.1456 8.77434 10.0943 8.97436 10.1225 9.17127C10.1506 9.36818 10.2558 9.54586 10.4149 9.66521C10.5587 9.77267 10.7358 9.82581 10.9149 9.81521C11.0454 9.80929 11.1724 9.77152 11.2849 9.70521C11.3803 9.66395 11.4655 9.60254 11.5349 9.52521L17.1249 3.46521C17.2881 3.30216 17.5093 3.21057 17.7399 3.21057C17.9706 3.21057 18.1918 3.30216 18.3549 3.46521C18.4396 3.54891 18.5068 3.64857 18.5527 3.75843C18.5985 3.86829 18.6221 3.98616 18.6221 4.10521C18.6221 4.22426 18.5985 4.34212 18.5527 4.45198C18.5068 4.56184 18.4396 4.6615 18.3549 4.74521L13.4549 10.9552C13.4549 10.9552 13.4549 11.0052 13.4549 11.0252C13.4276 11.0698 13.4042 11.1166 13.3849 11.1652V11.3052C13.38 11.3517 13.38 11.3987 13.3849 11.4452C13.3801 11.4917 13.3801 11.5387 13.3849 11.5852C13.3793 11.6284 13.3793 11.6721 13.3849 11.7152C13.4056 11.7619 13.4325 11.8057 13.4649 11.8452C13.4649 11.8452 13.4649 11.8452 13.4649 11.9252H13.5249C13.5545 11.932 13.5853 11.932 13.6149 11.9252L13.7049 11.9752C13.7644 12.036 13.8359 12.0837 13.9149 12.1152H14.0749C14.1513 12.1241 14.2285 12.1241 14.3049 12.1152L14.4049 12.0552C14.4049 12.0552 14.4849 12.0552 14.5149 11.9852L20.0149 6.98521C20.1739 6.81584 20.3928 6.71535 20.6249 6.70521C20.8541 6.70608 21.0749 6.79155 21.2449 6.94521C21.3289 7.02115 21.3963 7.11367 21.4427 7.21694C21.4892 7.3202 21.5138 7.43197 21.5149 7.54521C21.5202 7.66256 21.5017 7.77977 21.4604 7.88976C21.4192 7.99976 21.3561 8.10026 21.2749 8.18521L16.2749 13.7452C16.2388 13.7858 16.2115 13.8335 16.1949 13.8852C16.1371 13.959 16.1086 14.0516 16.1149 14.1452C16.1046 14.1913 16.1046 14.2391 16.1149 14.2852C16.1113 14.3285 16.1113 14.3719 16.1149 14.4152L16.1649 14.5652C16.1649 14.5652 16.2249 14.6252 16.2449 14.6652L16.3149 14.7552L16.4249 14.8152L16.5549 14.8852H16.6849H16.7849C16.8415 14.89 16.8984 14.89 16.9549 14.8852H17.0749H17.1249L19.8449 13.3052C19.9418 13.252 20.0481 13.2185 20.1579 13.2065C20.2678 13.1944 20.3789 13.2042 20.4849 13.2352C20.5903 13.2669 20.6877 13.3207 20.7705 13.3932C20.8533 13.4656 20.9196 13.555 20.9649 13.6552C21.0742 13.8204 21.1183 14.0202 21.0887 14.216C21.0592 14.4118 20.958 14.5897 20.8049 14.7152Z" fill="#000640"/>
</svg>
