<svg width="24" height="25" viewBox="0 0 24 25" fill="none" xmlns="http://www.w3.org/2000/svg">
<g clip-path="url(#clip0_2889_4655)">
<path fill-rule="evenodd" clip-rule="evenodd" d="M3.26679 2.13691C3.84378 1.23461 4.9269 0.8332 6.12753 0.855426C8.11294 0.892181 9.66969 2.03178 10.7588 3.26937C11.2436 3.82019 11.658 4.41442 12 4.99177C12.342 4.41442 12.7564 3.82019 13.2412 3.26937C14.3303 2.03178 15.8871 0.892181 17.8725 0.855426C19.0731 0.8332 20.1562 1.23461 20.7332 2.13691C21.323 3.05929 21.1731 4.17136 20.5962 5.08584C20.1504 5.79249 19.432 6.44065 18.4476 6.96722H22C22.5523 6.96722 23 7.41494 23 7.96722V12.855C23 13.4073 22.5523 13.855 22 13.855H21.8495V22.3751C21.8495 22.9274 21.4018 23.3751 20.8495 23.3751H3.15063C2.59835 23.3751 2.15063 22.9274 2.15063 22.3751V13.855H2C1.44772 13.855 1 13.4073 1 12.855V7.96722C1 7.41494 1.44772 6.96722 2 6.96722H5.55244C4.568 6.44065 3.84963 5.79249 3.40383 5.08584C2.82693 4.17136 2.67696 3.05929 3.26679 2.13691ZM10.4095 6.23731C10.1034 5.69044 9.71688 5.1127 9.25746 4.59068C8.35595 3.56631 7.28629 2.87722 6.09051 2.85508C5.3029 2.8405 5.0237 3.10185 4.95173 3.21439C4.89261 3.30685 4.80704 3.5617 5.09537 4.01874C5.61171 4.83723 7.20787 5.95438 10.4095 6.23731ZM13 13.855H19.8495V21.3751H12.9999L13 13.855ZM13 11.855H21V8.96722H13L13 11.855ZM11 8.96722L11 11.855H3V8.96722H11ZM11 13.855L10.9999 21.3751H4.15063V13.855H11ZM14.7425 4.59068C14.2831 5.1127 13.8966 5.69044 13.5905 6.23731C16.7921 5.95438 18.3883 4.83723 18.9046 4.01874C19.193 3.5617 19.1074 3.30685 19.0483 3.21439C18.9763 3.10185 18.6971 2.8405 17.9095 2.85508C16.7137 2.87722 15.644 3.56631 14.7425 4.59068Z" fill="#000640"/>
</g>
<defs>
<clipPath id="clip0_2889_4655">
<rect width="24" height="24" fill="white" transform="translate(0 0.114807)"/>
</clipPath>
</defs>
</svg>
