<svg width="24" height="24" viewBox="0 0 24 24" fill="none" xmlns="http://www.w3.org/2000/svg">
<path fill-rule="evenodd" clip-rule="evenodd" d="M17.3523 6.11754C20.607 9.01709 20.8949 14.0061 17.9953 17.2608C15.0958 20.5155 10.1068 20.8035 6.85204 17.9039C5.09201 16.3359 4.19942 14.1585 4.20953 11.9708C4.21209 11.4186 3.76645 10.9688 3.21417 10.9662C2.66189 10.9637 2.21211 11.4093 2.20956 11.9616C2.1969 14.6987 3.31539 17.4317 5.52166 19.3973C9.60112 23.0316 15.8544 22.6707 19.4887 18.5912C23.123 14.5117 22.7621 8.2585 18.6826 4.62419C14.6032 0.989889 8.34992 1.35076 4.71562 5.43023C4.34824 5.8426 4.38472 6.47472 4.7971 6.84209C5.20947 7.20947 5.84159 7.17299 6.20896 6.76062C9.10852 3.5059 14.0975 3.21798 17.3523 6.11754Z" fill="#000640"/>
<path fill-rule="evenodd" clip-rule="evenodd" d="M9.99016 7.1768C9.93162 6.62763 9.43897 6.22989 8.8898 6.28844L5.03169 6.69971L5.88982 2.55492C6.00179 2.0141 5.65414 1.48491 5.11332 1.37295C4.57251 1.26098 4.04332 1.60863 3.93135 2.14944L2.79529 7.63665C2.73053 7.94945 2.8191 8.27436 3.03365 8.51103C3.24819 8.74769 3.56289 8.86761 3.88052 8.83375L9.10179 8.27717C9.65097 8.21863 10.0487 7.72598 9.99016 7.1768Z" fill="#000640"/>
<path d="M10.165 15C10.3419 15 10.5116 14.9297 10.6367 14.8047C10.7618 14.6797 10.832 14.5101 10.832 14.3333V9.66659C10.832 9.54862 10.8007 9.43276 10.7412 9.33085C10.6817 9.22893 10.5963 9.14461 10.4936 9.08649C10.3908 9.02837 10.2745 8.99853 10.1565 9.00002C10.0385 9.00151 9.92294 9.03427 9.82172 9.09496L8.15414 10.095C8.00301 10.1862 7.89424 10.3337 7.85169 10.5049C7.80914 10.6762 7.83627 10.8574 7.92715 11.0087C8.01802 11.16 8.16521 11.2691 8.33646 11.3122C8.50771 11.3552 8.68905 11.3286 8.84071 11.2382L9.49798 10.844V14.3333C9.49798 14.5101 9.56826 14.6797 9.69335 14.8047C9.81844 14.9297 9.9881 15 10.165 15Z" fill="#000640"/>
<path d="M14.332 8.99997C12.9303 8.99997 11.832 10.3177 11.832 12C11.832 13.6823 12.9302 15 14.332 15C15.7338 15 16.832 13.6823 16.832 12C16.832 10.3177 15.7338 8.99997 14.332 8.99997ZM14.332 13.6666C13.8253 13.6666 13.2606 12.9823 13.2606 12C13.2606 11.0177 13.8253 10.3333 14.332 10.3333C14.8388 10.3333 15.4034 11.0177 15.4034 12C15.4034 12.9823 14.8388 13.6666 14.332 13.6666Z" fill="#000640"/>
</svg>
