<svg width="24" height="25" viewBox="0 0 24 25" fill="none" xmlns="http://www.w3.org/2000/svg">
<path fill-rule="evenodd" clip-rule="evenodd" d="M11.9984 5.11481C8.13236 5.11481 4.99835 8.24881 4.99835 12.1148C4.99835 12.6671 4.55064 13.1148 3.99835 13.1148C3.44607 13.1148 2.99835 12.6671 2.99835 12.1148C2.99835 7.14424 7.02779 3.11481 11.9984 3.11481C16.9689 3.11481 20.9984 7.14424 20.9984 12.1148C20.9984 17.0854 16.9689 21.1148 11.9984 21.1148C9.48091 21.1148 7.20337 20.0799 5.57111 18.4149C5.18448 18.0205 5.19077 17.3873 5.58516 17.0007C5.97955 16.6141 6.61268 16.6204 6.9993 17.0148C8.27091 18.3119 10.04 19.1148 11.9984 19.1148C15.8643 19.1148 18.9984 15.9808 18.9984 12.1148C18.9984 8.24881 15.8643 5.11481 11.9984 5.11481Z" fill="#000640"/>
<path fill-rule="evenodd" clip-rule="evenodd" d="M3.99667 13.0967L2.54342 11.6578C2.15096 11.2693 1.5178 11.2724 1.12922 11.6649C0.74065 12.0573 0.743803 12.6905 1.13627 13.0791L3.12248 15.0456C3.61306 15.5313 4.40451 15.5274 4.89023 15.0368L6.85676 13.0506C7.24533 12.6581 7.24218 12.025 6.84971 11.6364C6.45725 11.2478 5.82409 11.251 5.43552 11.6434L3.99667 13.0967Z" fill="#000640"/>
<path fill-rule="evenodd" clip-rule="evenodd" d="M11.9984 6.61481C12.5506 6.61481 12.9984 7.06252 12.9984 7.61481V12.2006L15.2055 14.4077C15.596 14.7982 15.596 15.4314 15.2055 15.8219C14.8149 16.2124 14.1818 16.2124 13.7912 15.8219L11.3645 13.3951C11.13 13.1607 10.9984 12.8428 10.9984 12.5113V7.61481C10.9984 7.06252 11.4461 6.61481 11.9984 6.61481Z" fill="#000640"/>
</svg>
