<svg width="24" height="25" viewBox="0 0 24 25" fill="none" xmlns="http://www.w3.org/2000/svg">
<g clip-path="url(#clip0_1463_5195)">
<path fill-rule="evenodd" clip-rule="evenodd" d="M6 3.61481H9C9 1.95795 10.3431 0.614807 12 0.614807C13.6569 0.614807 15 1.95795 15 3.61481H18C19.6569 3.61481 21 4.95795 21 6.61481V20.6148C21 22.2717 19.6569 23.6148 18 23.6148H6C4.34315 23.6148 3 22.2717 3 20.6148V6.61481C3 4.95795 4.34315 3.61481 6 3.61481ZM12 2.61481C11.4477 2.61481 11 3.06252 11 3.61481H13C13 3.06252 12.5523 2.61481 12 2.61481ZM6 5.61481C5.44772 5.61481 5 6.06252 5 6.61481V20.6148C5 21.1671 5.44772 21.6148 6 21.6148H18C18.5523 21.6148 19 21.1671 19 20.6148V6.61481C19 6.06252 18.5523 5.61481 18 5.61481H6Z" fill="#000640"/>
<path fill-rule="evenodd" clip-rule="evenodd" d="M16.4571 10.4077C16.8476 10.7982 16.8476 11.4314 16.4571 11.8219L11.6339 16.6451C11.1457 17.1333 10.3543 17.1333 9.86612 16.6451L7.54289 14.3219C7.15237 13.9314 7.15237 13.2982 7.54289 12.9077C7.93342 12.5172 8.56658 12.5172 8.95711 12.9077L10.75 14.7006L15.0429 10.4077C15.4334 10.0172 16.0666 10.0172 16.4571 10.4077Z" fill="#000640"/>
</g>
<defs>
<clipPath id="clip0_1463_5195">
<rect width="24" height="24" fill="white" transform="translate(0 0.114807)"/>
</clipPath>
</defs>
</svg>
