<svg width="24" height="25" viewBox="0 0 24 25" fill="none" xmlns="http://www.w3.org/2000/svg">
<g clip-path="url(#clip0_1463_5189)">
<path fill-rule="evenodd" clip-rule="evenodd" d="M6 3.61481H9C9 1.95795 10.3431 0.614807 12 0.614807C13.6569 0.614807 15 1.95795 15 3.61481H18C19.6569 3.61481 21 4.95795 21 6.61481V20.6148C21 22.2717 19.6569 23.6148 18 23.6148H6C4.34315 23.6148 3 22.2717 3 20.6148V6.61481C3 4.95795 4.34315 3.61481 6 3.61481ZM12 2.61481C11.4477 2.61481 11 3.06252 11 3.61481H13C13 3.06252 12.5523 2.61481 12 2.61481ZM6 5.61481C5.44772 5.61481 5 6.06252 5 6.61481V20.6148C5 21.1671 5.44772 21.6148 6 21.6148H18C18.5523 21.6148 19 21.1671 19 20.6148V6.61481C19 6.06252 18.5523 5.61481 18 5.61481H6Z" fill="#000640"/>
<path d="M11 7.61481C10.4477 7.61481 10 8.06252 10 8.61481C10 9.16709 10.4477 9.61481 11 9.61481H16.5C17.0523 9.61481 17.5 9.16709 17.5 8.61481C17.5 8.06252 17.0523 7.61481 16.5 7.61481H11Z" fill="#000640"/>
<path d="M11 11.6148C10.4477 11.6148 10 12.0625 10 12.6148C10 13.1671 10.4477 13.6148 11 13.6148H16.5C17.0523 13.6148 17.5 13.1671 17.5 12.6148C17.5 12.0625 17.0523 11.6148 16.5 11.6148H11Z" fill="#000640"/>
<path d="M11 15.6148C10.4477 15.6148 10 16.0625 10 16.6148C10 17.1671 10.4477 17.6148 11 17.6148H12.5C13.0523 17.6148 13.5 17.1671 13.5 16.6148C13.5 16.0625 13.0523 15.6148 12.5 15.6148H11Z" fill="#000640"/>
<path d="M8.60809 16.6148C8.60809 17.1671 8.16038 17.6148 7.60809 17.6148C7.05581 17.6148 6.60809 17.1671 6.60809 16.6148C6.60809 16.0625 7.05581 15.6148 7.60809 15.6148C8.16038 15.6148 8.60809 16.0625 8.60809 16.6148Z" fill="#000640"/>
<path d="M8.60809 12.6148C8.60809 13.1671 8.16038 13.6148 7.60809 13.6148C7.05581 13.6148 6.60809 13.1671 6.60809 12.6148C6.60809 12.0625 7.05581 11.6148 7.60809 11.6148C8.16038 11.6148 8.60809 12.0625 8.60809 12.6148Z" fill="#000640"/>
<path d="M8.60809 8.61481C8.60809 9.16709 8.16038 9.61481 7.60809 9.61481C7.05581 9.61481 6.60809 9.16709 6.60809 8.61481C6.60809 8.06252 7.05581 7.61481 7.60809 7.61481C8.16038 7.61481 8.60809 8.06252 8.60809 8.61481Z" fill="#000640"/>
</g>
<defs>
<clipPath id="clip0_1463_5189">
<rect width="24" height="24" fill="white" transform="translate(0 0.114807)"/>
</clipPath>
</defs>
</svg>
