<svg width="24" height="24" viewBox="0 0 24 24" fill="none" xmlns="http://www.w3.org/2000/svg">
<g clip-path="url(#clip0_2073_5362)">
<path fill-rule="evenodd" clip-rule="evenodd" d="M10.032 0.556365C10.2852 0.8334 10.362 1.22892 10.2308 1.58059C9.80397 2.7248 9.56747 3.98002 9.56747 5.2995C9.56747 10.7887 13.62 15.084 18.4367 15.084C19.7869 15.084 21.0665 14.7516 22.2139 14.1544C22.5716 13.9682 23.0062 14.0151 23.316 14.2734C23.6257 14.5317 23.75 14.9508 23.6311 15.3362C22.125 20.2189 17.5772 23.7689 12.1976 23.7689C5.59051 23.7689 0.234375 18.4128 0.234375 11.8057C0.234375 6.29406 3.96068 1.65537 9.02964 0.26662C9.39165 0.167442 9.7787 0.279331 10.032 0.556365ZM7.80021 2.86253C4.50254 4.48715 2.23438 7.88246 2.23438 11.8057C2.23438 17.3082 6.69508 21.7689 12.1976 21.7689C15.8795 21.7689 19.0965 19.7713 20.8212 16.7995C20.054 16.9856 19.2559 17.084 18.4367 17.084C12.3522 17.084 7.56747 11.7226 7.56747 5.2995C7.56747 4.4649 7.64758 3.64963 7.80021 2.86253Z" fill="#000640"/>
</g>
<defs>
<clipPath id="clip0_2073_5362">
<rect width="24" height="24" fill="white"/>
</clipPath>
</defs>
</svg>
