<svg width="24" height="25" viewBox="0 0 24 25" fill="none" xmlns="http://www.w3.org/2000/svg">
<path fill-rule="evenodd" clip-rule="evenodd" d="M6 3.11481C6 2.01024 6.89543 1.11481 8 1.11481H21C22.1046 1.11481 23 2.01024 23 3.11481V17.1148C23 18.2194 22.1046 19.1148 21 19.1148H8C6.89543 19.1148 6 18.2194 6 17.1148V3.11481ZM21 3.11481H8V17.1148H21V3.11481Z" fill="#000640"/>
<path fill-rule="evenodd" clip-rule="evenodd" d="M10 6.11481C10 5.56252 10.4477 5.11481 11 5.11481H18C18.5523 5.11481 19 5.56252 19 6.11481C19 6.66709 18.5523 7.11481 18 7.11481H11C10.4477 7.11481 10 6.66709 10 6.11481Z" fill="#000640"/>
<path fill-rule="evenodd" clip-rule="evenodd" d="M10 10.1148C10 9.56252 10.4477 9.11481 11 9.11481H18C18.5523 9.11481 19 9.56252 19 10.1148C19 10.6671 18.5523 11.1148 18 11.1148H11C10.4477 11.1148 10 10.6671 10 10.1148Z" fill="#000640"/>
<path fill-rule="evenodd" clip-rule="evenodd" d="M10 14.1148C10 13.5625 10.4477 13.1148 11 13.1148H15C15.5523 13.1148 16 13.5625 16 14.1148C16 14.6671 15.5523 15.1148 15 15.1148H11C10.4477 15.1148 10 14.6671 10 14.1148Z" fill="#000640"/>
<path fill-rule="evenodd" clip-rule="evenodd" d="M3 4.11481C3.55228 4.11481 4 4.56252 4 5.11481V21.1148H19C19.5523 21.1148 20 21.5625 20 22.1148C20 22.6671 19.5523 23.1148 19 23.1148H4C2.89543 23.1148 2 22.2194 2 21.1148V5.11481C2 4.56252 2.44772 4.11481 3 4.11481Z" fill="#000640"/>
</svg>
