<svg width="24" height="25" viewBox="0 0 24 25" fill="none" xmlns="http://www.w3.org/2000/svg">
<path d="M5.85689 7.10891H3.67507L1.52734 8.42141V10.4328L3.43643 9.29073H3.48757V15.8362H5.85689V7.10891Z" fill="#000640"/>
<path d="M7.64879 15.8362H14.3477V13.9441H10.9386V13.893L11.7567 13.2112C13.7468 11.5535 14.2539 10.6927 14.2539 9.68278C14.2539 8.05493 12.9201 6.98959 10.8278 6.98959C8.7951 6.98959 7.47408 8.11886 7.47834 9.9555H9.72834C9.72408 9.22255 10.1715 8.81346 10.8278 8.81346C11.4798 8.81346 11.9442 9.21829 11.9442 9.88732C11.9442 10.5052 11.5479 10.9058 10.9045 11.4385L7.64879 14.1316V15.8362Z" fill="#000640"/>
<path d="M18.8157 15.9555C20.9506 15.9555 22.4549 14.8689 22.4464 13.3305C22.4549 12.2609 21.739 11.5066 20.3327 11.3532V11.285C21.3725 11.1743 22.131 10.5052 22.1225 9.52937C22.131 8.0592 20.7674 6.98959 18.8327 6.98959C16.8555 6.98959 15.4492 8.11886 15.4407 9.71687H17.7077C17.7163 9.18846 18.1808 8.81346 18.8327 8.81346C19.4293 8.81346 19.8469 9.17567 19.8384 9.68278C19.8469 10.2112 19.3526 10.5862 18.6452 10.5862H17.7589V12.2225H18.6452C19.4123 12.2225 19.9492 12.5975 19.9407 13.126C19.9492 13.6672 19.489 14.0464 18.8327 14.0464C18.1509 14.0464 17.6651 13.6842 17.6566 13.1771H15.2702C15.2788 14.8049 16.7489 15.9555 18.8157 15.9555Z" fill="#000640"/>
</svg>
