<svg width="24" height="25" viewBox="0 0 24 25" fill="none" xmlns="http://www.w3.org/2000/svg">
<path fill-rule="evenodd" clip-rule="evenodd" d="M5 3.11481C4.44772 3.11481 4 3.56252 4 4.11481V20.1148C4 20.6671 4.44772 21.1148 5 21.1148H19C19.5523 21.1148 20 20.6671 20 20.1148V10.1148H16C14.3431 10.1148 13 8.77166 13 7.11481V3.11481H5ZM15 4.52902L18.5858 8.11481H16C15.4477 8.11481 15 7.66709 15 7.11481V4.52902ZM2 4.11481C2 2.45795 3.34315 1.11481 5 1.11481H14C14.2652 1.11481 14.5196 1.22016 14.7071 1.4077L21.7071 8.4077C21.8946 8.59524 22 8.84959 22 9.11481V20.1148C22 21.7717 20.6569 23.1148 19 23.1148H5C3.34315 23.1148 2 21.7717 2 20.1148V4.11481Z" fill="#000640"/>
<path fill-rule="evenodd" clip-rule="evenodd" d="M9.43991 7.44112C10.0488 6.77325 11.0004 6.69316 11.7262 7.1688C12.4538 7.64559 12.8429 8.576 12.7633 9.73849C12.7003 10.6571 12.4952 11.4854 12.2462 12.2249C12.6637 12.7989 13.1654 13.4354 13.7618 14.1373C13.9167 14.3197 14.0662 14.4908 14.2105 14.6513C15.3648 14.5473 16.2594 14.6138 16.9453 14.7951C18.0448 15.0858 18.727 15.7207 18.8557 16.5026C18.8906 16.7147 18.8628 16.9096 18.8139 17.0689C18.7251 17.358 18.543 17.7294 18.1931 18.007C17.8175 18.305 17.3229 18.4349 16.752 18.3341C16.2109 18.2385 15.6196 17.941 14.9622 17.4369C14.5605 17.1289 14.1186 16.7316 13.631 16.2291C13.1939 16.2914 12.7105 16.3789 12.1769 16.4969C11.4587 16.6556 10.8264 16.824 10.2709 16.997C9.91556 17.7327 9.5328 18.4201 9.12932 18.9864C8.72465 19.5544 8.24995 20.0723 7.69934 20.3661C7.09952 20.6862 6.41042 20.733 5.75137 20.3349C5.27138 20.0449 5.06291 19.5116 5.14007 18.969C5.213 18.4562 5.52581 17.9603 5.99956 17.5144C6.63375 16.9174 7.65451 16.3147 9.18447 15.7767C9.4239 15.2439 9.65405 14.6828 9.87136 14.1184C9.99431 13.7991 10.1274 13.4863 10.2611 13.1722C10.3639 12.9306 10.467 12.6882 10.5662 12.4413C10.0578 11.687 9.68259 11.0207 9.42742 10.4378C9.16634 9.84144 9.01295 9.29238 8.99473 8.80113C8.97618 8.30086 9.09882 7.81522 9.43991 7.44112ZM11.1509 10.5361C11.2052 10.2501 11.2452 9.95118 11.2668 9.63598C11.3215 8.83762 11.047 8.5171 10.9041 8.42343C10.7594 8.32862 10.6333 8.35855 10.5483 8.45175C10.542 8.45867 10.4854 8.52077 10.4937 8.74553C10.5024 8.98039 10.5827 9.33638 10.8015 9.8363C10.8952 10.0503 11.011 10.2834 11.1509 10.5361ZM11.6016 13.8614C11.5994 13.8663 11.5973 13.8712 11.5952 13.8761C11.4755 14.1559 11.364 14.4163 11.2712 14.6574C11.1992 14.8443 11.1251 15.0329 11.0491 15.2219C11.307 15.157 11.5749 15.0937 11.8532 15.0322C12.0574 14.9871 12.2561 14.9458 12.4495 14.9082C12.1449 14.5453 11.8625 14.1964 11.6016 13.8614ZM8.06065 17.8928C7.59409 18.1455 7.25898 18.3889 7.02767 18.6066C6.78351 18.8364 6.6848 19.0088 6.64664 19.106C6.74765 19.1357 6.85025 19.119 6.9931 19.0428C7.24079 18.9106 7.55282 18.6141 7.90766 18.1161C7.95879 18.0443 8.0098 17.9698 8.06065 17.8928ZM15.7101 16.1163C15.7665 16.1621 15.8214 16.2055 15.875 16.2466C16.4323 16.6739 16.8008 16.8195 17.013 16.857C17.1906 16.8883 17.2449 16.8447 17.2597 16.8328C17.2601 16.8325 17.2605 16.8322 17.2608 16.8319C17.2907 16.8083 17.3262 16.7623 17.3555 16.695C17.3389 16.6649 17.3089 16.6231 17.2547 16.5738C17.1472 16.4759 16.9391 16.345 16.5619 16.2453C16.3335 16.1849 16.0523 16.1385 15.7101 16.1163Z" fill="#000640"/>
</svg>
