<svg width="24" height="25" viewBox="0 0 24 25" fill="none" xmlns="http://www.w3.org/2000/svg">
<path d="M4 4.11481C4 3.56252 4.44772 3.11481 5 3.11481H19C19.5523 3.11481 20 3.56252 20 4.11481C20 4.66709 19.5523 5.11481 19 5.11481H5C4.44772 5.11481 4 4.66709 4 4.11481Z" fill="#000640"/>
<path d="M13 9.52902L13 21.1148C13 21.6671 12.5523 22.1148 12 22.1148C11.4477 22.1148 11 21.6671 11 21.1148L11 9.52902L7.70711 12.8219C7.31658 13.2124 6.68342 13.2124 6.29289 12.8219C5.90237 12.4314 5.90237 11.7982 6.29289 11.4077L11.2929 6.4077C11.6834 6.01718 12.3166 6.01718 12.7071 6.4077L17.7071 11.4077C18.0976 11.7982 18.0976 12.4314 17.7071 12.8219C17.3166 13.2124 16.6834 13.2124 16.2929 12.8219L13 9.52902Z" fill="#000640"/>
</svg>
