<svg width="24" height="24" viewBox="0 0 24 24" fill="none" xmlns="http://www.w3.org/2000/svg">
<path fill-rule="evenodd" clip-rule="evenodd" d="M11 7C11 6.44772 11.4477 6 12 6H21C21.5523 6 22 6.44772 22 7C22 7.55228 21.5523 8 21 8H12C11.4477 8 11 7.55228 11 7Z" fill="#000640"/>
<path fill-rule="evenodd" clip-rule="evenodd" d="M2 13C2 12.4477 2.44772 12 3 12H21C21.5523 12 22 12.4477 22 13C22 13.5523 21.5523 14 21 14H3C2.44772 14 2 13.5523 2 13Z" fill="#000640"/>
<path fill-rule="evenodd" clip-rule="evenodd" d="M2 19C2 18.4477 2.44772 18 3 18H21C21.5523 18 22 18.4477 22 19C22 19.5523 21.5523 20 21 20H3C2.44772 20 2 19.5523 2 19Z" fill="#000640"/>
<path fill-rule="evenodd" clip-rule="evenodd" d="M7.47972 5.54811C8.17343 5.97511 8.17343 7.02489 7.47972 7.45189L3.59049 9.84585C2.88693 10.2789 2 9.74809 2 8.89396L2 4.10604C2 3.25191 2.88693 2.72109 3.59049 3.15415L7.47972 5.54811Z" fill="#000640"/>
</svg>
