<svg width="24" height="24" viewBox="0 0 24 24" fill="none" xmlns="http://www.w3.org/2000/svg">
<path fill-rule="evenodd" clip-rule="evenodd" d="M11 7C11 6.44772 11.4477 6 12 6H21C21.5523 6 22 6.44772 22 7C22 7.55228 21.5523 8 21 8H12C11.4477 8 11 7.55228 11 7Z" fill="#000640"/>
<path fill-rule="evenodd" clip-rule="evenodd" d="M2 13C2 12.4477 2.44772 12 3 12H21C21.5523 12 22 12.4477 22 13C22 13.5523 21.5523 14 21 14H3C2.44772 14 2 13.5523 2 13Z" fill="#000640"/>
<path fill-rule="evenodd" clip-rule="evenodd" d="M2 19C2 18.4477 2.44772 18 3 18H21C21.5523 18 22 18.4477 22 19C22 19.5523 21.5523 20 21 20H3C2.44772 20 2 19.5523 2 19Z" fill="#000640"/>
<path fill-rule="evenodd" clip-rule="evenodd" d="M10.8682 3.1318C11.0439 3.30754 11.0439 3.59246 10.8682 3.7682L5.4682 9.1682C5.29246 9.34393 5.00754 9.34393 4.8318 9.1682L2.1318 6.4682C1.95607 6.29246 1.95607 6.00754 2.1318 5.8318C2.30754 5.65607 2.59246 5.65607 2.7682 5.8318L5.15 8.2136L10.2318 3.1318C10.4075 2.95607 10.6925 2.95607 10.8682 3.1318Z" fill="#000640" stroke="#000640" stroke-width="0.7" stroke-linecap="round" stroke-linejoin="round"/>
</svg>
