<svg width="24" height="24" viewBox="0 0 24 24" fill="none" xmlns="http://www.w3.org/2000/svg">
<path d="M20.9137 9.85471C21.3741 9.7405 21.8573 10.0147 21.9725 10.471H21.974C22.0892 10.9274 21.8126 11.4064 21.3288 11.5211C20.2467 11.7948 18.497 12.2742 18.1056 12.4111C17.9899 12.4569 17.8752 12.4795 17.76 12.4795C17.5986 12.4795 17.4605 12.4569 17.3224 12.3885C16.8392 12.1374 16.6549 11.6126 16.4016 10.8821C16.2407 10.38 16.0103 9.71834 15.688 9.23886C14.8129 10.2658 13.8921 12.2516 13.3165 13.6206C15.0662 14.8302 15.8722 15.5829 15.8951 16.4502C15.9412 17.3176 14.9281 20.4667 14.3296 22.2468C14.1682 22.7032 13.7307 23 13.2703 23C13.1546 23 13.0398 23 12.9246 22.9542C12.3262 22.7489 12.0267 22.1326 12.211 21.5394C12.8328 19.6678 13.5002 17.4314 13.6383 16.6555C13.3246 16.3002 11.7715 15.2251 10.618 14.4448C10.107 15.7965 9.30317 17.8337 9.08101 18.2303C8.75868 18.8009 8.13689 19.0062 7.10089 19.0062C6.61716 19.0062 6.04155 18.9604 5.37406 18.892C4.44181 18.8047 3.53651 18.6643 3.14051 18.6029C3.01818 18.5839 2.94445 18.5725 2.93355 18.5725C2.33509 18.4809 1.92088 17.9108 2.01276 17.2945C2.10513 16.7013 2.68026 16.2907 3.30205 16.3818C4.75275 16.6324 6.50243 16.815 7.28514 16.7924C7.45696 16.3992 7.85747 15.1736 8.24571 13.9857C8.52258 13.1385 8.7932 12.3104 8.97016 11.817C9.21997 10.9323 10.0337 9.01676 10.9445 7.77779C10.0232 7.89152 9.19484 8.07415 8.84918 8.18836C8.5497 8.53049 7.85887 9.71737 7.39848 10.6758C7.23757 10.9727 6.93809 11.1553 6.61577 11.1553C6.4777 11.1553 6.33963 11.1327 6.22441 11.0642C5.78687 10.8363 5.62595 10.3342 5.83306 9.90049C7.35278 6.91088 7.88221 6.70512 8.1355 6.61404C8.59638 6.43141 12.1186 5.49559 14.1449 6.36298C14.5265 6.51778 15.0395 6.73752 15.4069 6.89492C15.5267 6.94625 15.6311 6.99095 15.7103 7.02461C17.1377 7.59516 17.7133 9.23838 18.0818 10.3111C18.0854 10.3256 18.089 10.3406 18.0927 10.3561C18.1125 10.4382 18.1348 10.5312 18.1737 10.6079C18.7716 10.4346 19.6188 10.2062 20.2182 10.0446C20.5653 9.95098 20.8293 9.8798 20.9137 9.85471Z" stroke="black"/>
<path d="M16.4841 1.20253C17.7528 1.74606 18.341 3.21529 17.7975 4.48405C17.2539 5.75281 15.7847 6.34101 14.5159 5.79747C13.2472 5.25394 12.659 3.78471 13.2025 2.51595C13.7461 1.24719 15.2153 0.65899 16.4841 1.20253" stroke="black"/>
</svg>
