<svg width="24" height="25" viewBox="0 0 24 25" fill="none" xmlns="http://www.w3.org/2000/svg">
<path fill-rule="evenodd" clip-rule="evenodd" d="M19.2121 3.15309C20.1362 2.80235 21.0825 3.61211 20.8789 4.57927L17.5077 20.5914C17.3177 21.4937 16.2494 21.8868 15.5199 21.3227L7.37006 15.0214C6.75309 14.5444 6.71878 13.6251 7.29849 13.1034L11.2311 9.56431C11.6417 9.19487 12.2739 9.22818 12.6434 9.63871C13.0128 10.0492 12.9795 10.6815 12.569 11.051L9.30434 13.9889L15.797 19.0089L18.6391 5.50981L5.02251 10.6782L5.58754 11.1151C6.02445 11.4529 6.10479 12.081 5.76697 12.5179C5.42916 12.9548 4.80111 13.0352 4.36419 12.6973L2.7396 11.4412C1.96678 10.8437 2.14728 9.63037 3.06061 9.2837L19.2121 3.15309Z" fill="#000640"/>
<path fill-rule="evenodd" clip-rule="evenodd" d="M7.74189 13.0471C8.29417 13.0455 8.74317 13.4919 8.74475 14.0442L8.75468 17.5014L10.0484 15.8282C10.3862 15.3913 11.0142 15.3109 11.4511 15.6487C11.8881 15.9866 11.9684 16.6146 11.6306 17.0515L8.99984 20.454C8.27183 21.3956 6.76437 20.8832 6.76096 19.693L6.74476 14.0499C6.74318 13.4977 7.1896 13.0487 7.74189 13.0471Z" fill="#000640"/>
</svg>
