<svg width="24" height="25" viewBox="0 0 24 25" fill="none" xmlns="http://www.w3.org/2000/svg">
<path fill-rule="evenodd" clip-rule="evenodd" d="M21.1016 12.0718C21.9664 12.5835 21.9045 13.8548 20.9941 14.2801L4.77904 21.8546C3.95027 22.2418 3 21.6368 3 20.7221L3 12.3912C3 11.7009 3.55965 11.1412 4.25 11.1412H10.0323C10.5845 11.1412 11.0323 11.589 11.0323 12.1412C11.0323 12.6935 10.5845 13.1412 10.0323 13.1412H5L5 19.5439L18.8602 13.0695L5 4.86844L5 8.28042C5 8.83271 4.55228 9.28042 4 9.28042C3.44772 9.28042 3 8.83271 3 8.28042L3 3.55321C3 2.58502 4.05327 1.98438 4.88654 2.47742L21.1016 12.0718Z" fill="#000640"/>
</svg>
