<svg width="24" height="25" viewBox="0 0 24 25" fill="none" xmlns="http://www.w3.org/2000/svg">
<path fill-rule="evenodd" clip-rule="evenodd" d="M5.30305 4.18401C4.7192 4.497 4.17278 5.08028 4.00093 5.33498C3.69202 5.7928 3.07047 5.91351 2.61265 5.60461C2.15484 5.2957 2.03412 4.67415 2.34303 4.21634C2.66646 3.73699 3.4437 2.91152 4.35809 2.42132C4.821 2.17316 5.41588 1.95842 6.05969 2.01064C6.75663 2.06717 7.37463 2.42581 7.82941 3.06903C8.23275 3.63951 8.33054 4.29693 8.29137 4.90801C8.25265 5.51212 8.07684 6.14093 7.85124 6.74697C7.46688 7.77951 6.86579 8.92541 6.29967 10.0047C6.20721 10.1809 6.11569 10.3554 6.02619 10.5273C5.35954 11.8079 4.8066 12.944 4.58801 13.8609C4.48045 14.3121 4.47672 14.6237 4.52394 14.8279C4.56267 14.9955 4.63866 15.1172 4.8113 15.2285C4.95503 15.3212 5.06794 15.3361 5.21325 15.3056C5.39846 15.2668 5.66225 15.1432 6.01828 14.8702C6.70375 14.3447 7.44381 13.5004 8.3159 12.5056C8.36962 12.4443 8.42384 12.3824 8.47858 12.3201C9.37803 11.295 10.402 10.1472 11.5062 9.33911C12.6164 8.52665 13.9766 7.93449 15.4925 8.3245C16.8721 8.67942 17.8091 9.49982 18.3879 10.5338C18.7618 11.2016 18.978 11.9415 19.0916 12.6796C19.9811 12.6315 20.9418 12.6693 21.9732 12.8209C22.5196 12.9012 22.8975 13.4093 22.8171 13.9557C22.7368 14.5021 22.2287 14.88 21.6823 14.7996C20.7826 14.6673 19.9509 14.6354 19.1867 14.6777C19.1529 15.4423 19.0497 16.1712 18.9245 16.795C18.7547 17.6411 18.5287 18.3713 18.3376 18.7646C18.023 19.4122 17.3866 20.4109 16.4599 21.1045C15.4851 21.8341 14.1147 22.2594 12.591 21.4754C11.8491 21.0936 11.3289 20.5332 11.051 19.8524C10.7792 19.1864 10.7701 18.4825 10.9036 17.8414C11.1648 16.587 12.0078 15.382 13.0316 14.6797C14.0374 13.9896 15.3986 13.3112 17.1085 12.943C17.0217 12.4035 16.8699 11.9165 16.6428 11.5107C16.3128 10.9212 15.8095 10.4712 14.9942 10.2614C14.3153 10.0868 13.5797 10.3 12.6874 10.9531C11.7891 11.6105 10.9039 12.5884 9.9819 13.6392C9.91256 13.7182 9.8428 13.7979 9.77267 13.878C8.95475 14.8126 8.08627 15.8049 7.23519 16.4574C6.76534 16.8176 6.22378 17.1373 5.62344 17.2631C4.9832 17.3973 4.33036 17.2981 3.72745 16.9093C3.10493 16.5079 2.72786 15.9382 2.57532 15.2784C2.43126 14.6552 2.49807 14.0031 2.64253 13.3971C2.92798 12.1997 3.60511 10.8468 4.25217 9.60381C4.34793 9.41987 4.44329 9.23784 4.53758 9.05788C5.10913 7.96696 5.64078 6.95218 5.97689 6.04926C6.17063 5.52878 6.27449 5.10738 6.29547 4.78007C6.316 4.45973 6.25353 4.30452 6.19635 4.22364C6.05433 4.02278 5.95574 4.00878 5.898 4.0041C5.78713 3.9951 5.58925 4.03057 5.30305 4.18401ZM17.1639 14.984C15.9004 15.3054 14.9018 15.822 14.163 16.3288C13.5407 16.7558 13.0119 17.5272 12.8616 18.2491C12.7893 18.5961 12.8145 18.8804 12.9028 19.0967C12.985 19.2981 13.1507 19.5141 13.5061 19.697C14.1773 20.0424 14.7274 19.903 15.2615 19.5033C15.8436 19.0676 16.3047 18.3722 16.5387 17.8905C16.622 17.7191 16.8076 17.1789 16.9636 16.4015C17.0506 15.9679 17.1234 15.4849 17.1639 14.984Z" fill="#000640"/>
</svg>
