<svg width="24" height="24" viewBox="0 0 24 24" fill="none" xmlns="http://www.w3.org/2000/svg">
<g clip-path="url(#clip0_2156_4655)">
<path fill-rule="evenodd" clip-rule="evenodd" d="M12 2C6.47715 2 2 6.47715 2 12C2 17.5228 6.47715 22 12 22C17.5228 22 22 17.5228 22 12C22 11.4861 21.9613 10.9819 21.8869 10.4899C21.8042 9.94384 22.1799 9.43417 22.726 9.35153C23.272 9.26889 23.7817 9.64457 23.8643 10.1906C23.9537 10.7813 24 11.3856 24 12C24 18.6274 18.6274 24 12 24C5.37258 24 0 18.6274 0 12C0 5.37258 5.37258 0 12 0C13.224 0 14.4069 0.183574 15.5218 0.525382C16.0499 0.687266 16.3467 1.24655 16.1848 1.77458C16.0229 2.3026 15.4636 2.59942 14.9356 2.43754C14.0085 2.15332 13.0231 2 12 2ZM14.5425 16.174C14.8959 16.5985 14.8382 17.229 14.4137 17.5824C13.7098 18.1683 12.826 18.495 11.9101 18.5077C10.9943 18.5204 10.1018 18.2184 9.38184 17.6522C8.94773 17.3107 8.8726 16.682 9.21402 16.2479C9.55545 15.8138 10.1841 15.7387 10.6182 16.0801C10.9782 16.3632 11.4245 16.5142 11.8824 16.5079C12.3403 16.5015 12.7822 16.3382 13.1342 16.0452C13.5587 15.6919 14.1892 15.7495 14.5425 16.174ZM9.41372 12.5824C9.83819 12.229 9.89586 11.5985 9.54252 11.174C9.18919 10.7495 8.55866 10.6919 8.13419 11.0452C7.7822 11.3382 7.34032 11.5015 6.88239 11.5079C6.42446 11.5142 5.97822 11.3632 5.61825 11.0801C5.18414 10.7387 4.55545 10.8138 4.21402 11.2479C3.8726 11.682 3.94773 12.3107 4.38184 12.6522C5.10179 13.2184 5.99427 13.5204 6.91013 13.5077C7.826 13.495 8.70975 13.1683 9.41372 12.5824ZM19.5425 11.174C19.8959 11.5985 19.8382 12.229 19.4137 12.5824C18.7098 13.1683 17.826 13.495 16.9101 13.5077C15.9943 13.5204 15.1018 13.2184 14.3818 12.6522C13.9477 12.3107 13.8726 11.682 14.214 11.2479C14.5554 10.8138 15.1841 10.7387 15.6182 11.0801C15.9782 11.3632 16.4245 11.5142 16.8824 11.5079C17.3403 11.5015 17.7822 11.3382 18.1342 11.0452C18.5587 10.6919 19.1892 10.7495 19.5425 11.174ZM18.2404 1C17.6881 1 17.2404 1.44772 17.2404 2C17.2404 2.55228 17.6881 3 18.2404 3H20.7604L17.4958 6.64117C17.2324 6.93495 17.1664 7.35614 17.3273 7.71642C17.4881 8.07671 17.8458 8.30872 18.2404 8.30872H23.0001C23.5523 8.30872 24.0001 7.86101 24.0001 7.30872C24.0001 6.75644 23.5523 6.30872 23.0001 6.30872H20.48L23.7446 2.66756C24.008 2.37378 24.074 1.95258 23.9132 1.5923C23.7523 1.23201 23.3946 1 23.0001 1H18.2404Z" fill="#000640"/>
</g>
<defs>
<clipPath id="clip0_2156_4655">
<rect width="24" height="24" fill="white"/>
</clipPath>
</defs>
</svg>
