<svg width="24" height="25" viewBox="0 0 24 25" fill="none" xmlns="http://www.w3.org/2000/svg">
<path fill-rule="evenodd" clip-rule="evenodd" d="M5.97651 4.76289C6.01321 4.74238 5.93957 4.78312 5.97651 4.76289L4.12132 2.9077C3.7308 2.51718 3.09763 2.51718 2.70711 2.9077C2.31658 3.29822 2.31658 3.93139 2.70711 4.32191L4.26678 5.88158C1.65745 7.85673 0 10.4485 0 12.1148C0 15.1148 5.37258 21.1148 12 21.1148C14.1222 21.1148 16.1157 20.4483 17.8453 19.4601L18.2929 19.9077C18.6834 20.2982 19.3166 20.2982 19.7071 19.9077C20.0976 19.5172 20.0976 18.884 19.7071 18.4935L19.5439 18.3303C19.5118 18.3553 19.5764 18.3055 19.5439 18.3303L18.1156 16.9019C18.1485 16.8777 18.0829 16.9264 18.1156 16.9019L16.1371 14.9235C16.1148 14.9582 16.1603 14.8894 16.1371 14.9235L14.6793 13.4657C14.6987 13.4275 14.6616 13.5049 14.6793 13.4657L10.6491 9.43546C10.6099 9.45316 10.6873 9.41615 10.6491 9.43546L9.19128 7.97766C9.22539 7.95446 9.15658 8.00003 9.19128 7.97766L7.45578 6.24216C7.41734 6.26083 7.49399 6.2231 7.45578 6.24216L5.97651 4.76289ZM5.6964 7.31121C5.39224 7.53156 5.1002 7.76321 4.82178 8.00361C3.87374 8.82217 3.13408 9.70046 2.64521 10.493C2.12886 11.33 2 11.8932 2 12.1148C2 12.3364 2.12886 12.8996 2.64521 13.7367C3.13408 14.5292 3.87374 15.4074 4.82178 16.226C6.73355 17.8767 9.28717 19.1148 12 19.1148C13.5262 19.1148 15.0134 18.6814 16.3706 17.9854L14.7055 16.3203C13.9256 16.8231 12.9969 17.1148 12 17.1148C9.23858 17.1148 7 14.8762 7 12.1148C7 11.1179 7.29174 10.1892 7.79449 9.4093L5.6964 7.31121ZM9 12.1148C9 11.6746 9.09481 11.2565 9.26513 10.8799L13.2349 14.8497C12.8583 15.02 12.4402 15.1148 12 15.1148C10.3431 15.1148 9 13.7717 9 12.1148Z" fill="#000640"/>
<path d="M11.368 7.15437L16.9604 12.7468C16.9865 12.5398 17 12.3289 17 12.1148C17 9.35338 14.7614 7.11481 12 7.11481C11.7859 7.11481 11.575 7.12826 11.368 7.15437Z" fill="#000640"/>
<path d="M19.7299 15.5162C20.418 14.829 20.9716 14.1319 21.3663 13.5074C21.6158 13.1125 21.7858 12.7719 21.8887 12.5034C21.9821 12.2597 21.9972 12.1357 21.9995 12.1159L21.9997 12.1148L21.9995 12.1137C21.9972 12.094 21.9821 11.9699 21.8887 11.7262C21.7858 11.4578 21.6158 11.1171 21.3663 10.7223C20.8668 9.93192 20.1129 9.02538 19.1538 8.16966C17.2109 6.43624 14.665 5.11481 12 5.11481C11.1934 5.11481 10.4009 5.22426 9.6351 5.42148L8.03624 3.82262C9.2771 3.37836 10.611 3.11481 12 3.11481C18.6274 3.11481 24 9.61481 24 12.1148C24 13.233 22.9252 15.1514 21.1441 16.9304L19.7299 15.5162Z" fill="#000640"/>
</svg>
