<svg width="24" height="24" viewBox="0 0 24 24" fill="none" xmlns="http://www.w3.org/2000/svg">
<g clip-path="url(#clip0_1253_5157)">
<path d="M9.60271 8.14851C9.20103 8.48153 9 8.9366 9 9.5C9 10.033 9.17217 10.3176 9.50243 10.5284C9.91674 10.7928 10.6856 11 12 11C13.447 11 14.6782 11.2143 15.5735 11.7857C16.5529 12.4107 17.0001 13.3761 17.0001 14.5C17.0001 15.5935 16.5818 16.6384 15.6738 17.3912C14.7853 18.1278 13.5319 18.5 12 18.5C10.6177 18.5 9.55318 18.2231 8.73559 17.7325C7.91054 17.2375 7.41912 16.5741 7.10567 15.9472C6.85868 15.4532 7.0589 14.8526 7.55288 14.6056C8.04686 14.3586 8.64754 14.5588 8.89452 15.0528C9.08107 15.4259 9.33966 15.7625 9.76459 16.0175C10.197 16.2769 10.8824 16.5 12 16.5C13.2295 16.5 13.9762 16.2006 14.3974 15.8515C14.7991 15.5184 15.0001 15.0634 15.0001 14.5C15.0001 13.967 14.8279 13.6824 14.4976 13.4717C14.0833 13.2072 13.3144 13 12 13C10.553 13 9.32183 12.7857 8.4265 12.2143C7.44712 11.5893 7 10.6239 7 9.5C7 8.40655 7.41826 7.36161 8.32622 6.60885C9.21475 5.87219 10.4681 5.5 12 5.5C13.3823 5.5 14.4469 5.77695 15.2645 6.26751C16.0896 6.76254 16.581 7.42588 16.8944 8.05279C17.1414 8.54676 16.9412 9.14744 16.4472 9.39443C15.9532 9.64142 15.3526 9.44119 15.1056 8.94721C14.919 8.57412 14.6604 8.23746 14.2355 7.98249C13.8031 7.72305 13.1177 7.5 12 7.5C10.7705 7.5 10.0238 7.79938 9.60271 8.14851Z" fill="#000640"/>
<path fill-rule="evenodd" clip-rule="evenodd" d="M24 12C24 18.6274 18.6274 24 12 24C5.37258 24 0 18.6274 0 12C0 5.37258 5.37258 0 12 0C18.6274 0 24 5.37258 24 12ZM22 12C22 17.5228 17.5228 22 12 22C6.47715 22 2 17.5228 2 12C2 6.47715 6.47715 2 12 2C17.5228 2 22 6.47715 22 12Z" fill="#000640"/>
</g>
<defs>
<clipPath id="clip0_1253_5157">
<rect width="24" height="24" fill="white"/>
</clipPath>
</defs>
</svg>
