<svg width="24" height="24" viewBox="0 0 24 24" fill="none" xmlns="http://www.w3.org/2000/svg">
<g clip-path="url(#clip0_1253_5183)">
<path d="M8 6C7.44772 6 7 6.44772 7 7V17C7 17.5523 7.44772 18 8 18C8.55229 18 9 17.5523 9 17V13H13.5C14.0523 13 14.5 12.5523 14.5 12C14.5 11.4477 14.0523 11 13.5 11H9V8H16C16.5523 8 17 7.55228 17 7C17 6.44772 16.5523 6 16 6H8Z" fill="#000640"/>
<path fill-rule="evenodd" clip-rule="evenodd" d="M12 0C5.37258 0 0 5.37258 0 12C0 18.6274 5.37258 24 12 24C18.6274 24 24 18.6274 24 12C24 5.37258 18.6274 0 12 0ZM2 12C2 6.47715 6.47715 2 12 2C17.5228 2 22 6.47715 22 12C22 17.5228 17.5228 22 12 22C6.47715 22 2 17.5228 2 12Z" fill="#000640"/>
</g>
<defs>
<clipPath id="clip0_1253_5183">
<rect width="24" height="24" fill="white"/>
</clipPath>
</defs>
</svg>
