<svg width="24" height="24" viewBox="0 0 24 24" fill="none" xmlns="http://www.w3.org/2000/svg">
<g clip-path="url(#clip0_1253_5193)">
<path fill-rule="evenodd" clip-rule="evenodd" d="M12.9192 6.10608C12.7616 5.7384 12.4 5.5 12 5.5C11.6 5.5 11.2384 5.7384 11.0809 6.10608L6.58087 16.6061C6.36331 17.1137 6.59846 17.7016 7.10609 17.9191C7.61372 18.1367 8.2016 17.9016 8.41916 17.3939L9.44512 15H14.5549L15.5809 17.3939C15.7984 17.9016 16.3863 18.1367 16.8939 17.9191C17.4016 17.7016 17.6367 17.1137 17.4192 16.6061L12.9192 6.10608ZM12 9.03859L13.6978 13H10.3023L12 9.03859Z" fill="#000640"/>
<path fill-rule="evenodd" clip-rule="evenodd" d="M12 0C5.37258 0 0 5.37258 0 12C0 18.6274 5.37258 24 12 24C18.6274 24 24 18.6274 24 12C24 5.37258 18.6274 0 12 0ZM2 12C2 6.47715 6.47715 2 12 2C17.5228 2 22 6.47715 22 12C22 17.5228 17.5228 22 12 22C6.47715 22 2 17.5228 2 12Z" fill="#000640"/>
</g>
<defs>
<clipPath id="clip0_1253_5193">
<rect width="24" height="24" fill="white"/>
</clipPath>
</defs>
</svg>
