<svg width="24" height="24" viewBox="0 0 24 24" fill="none" xmlns="http://www.w3.org/2000/svg">
<g clip-path="url(#clip0_1253_5165)">
<path fill-rule="evenodd" clip-rule="evenodd" d="M12 5C10.3309 5 8.91573 5.67258 7.93803 6.87716C6.97772 8.06033 6.5 9.67787 6.5 11.5C6.5 13.3195 6.97564 15.0358 7.90224 16.326C8.84348 17.6365 10.2544 18.5 12 18.5C13.7456 18.5 15.1565 17.6365 16.0978 16.326C17.0244 15.0358 17.5 13.3195 17.5 11.5C17.5 9.67787 17.0223 8.06033 16.062 6.87716C15.0843 5.67258 13.6691 5 12 5ZM8.5 11.5C8.5 10.0084 8.89157 8.87597 9.4909 8.13755C10.0728 7.42057 10.9077 7 12 7C13.0923 7 13.9272 7.42057 14.5091 8.13755C15.1084 8.87597 15.5 10.0084 15.5 11.5C15.5 12.9942 15.1064 14.2779 14.4733 15.1593C13.8549 16.0203 13.0159 16.5 12 16.5C10.9841 16.5 10.1451 16.0203 9.52669 15.1593C8.89365 14.2779 8.5 12.9942 8.5 11.5Z" fill="#000640"/>
<path fill-rule="evenodd" clip-rule="evenodd" d="M12 0C5.37258 0 0 5.37258 0 12C0 18.6274 5.37258 24 12 24C18.6274 24 24 18.6274 24 12C24 5.37258 18.6274 0 12 0ZM2 12C2 6.47715 6.47715 2 12 2C17.5228 2 22 6.47715 22 12C22 17.5228 17.5228 22 12 22C6.47715 22 2 17.5228 2 12Z" fill="#000640"/>
</g>
<defs>
<clipPath id="clip0_1253_5165">
<rect width="24" height="24" fill="white"/>
</clipPath>
</defs>
</svg>
