<svg width="24" height="25" viewBox="0 0 24 25" fill="none" xmlns="http://www.w3.org/2000/svg">
<path d="M4.33721 16.7396C4.61989 16.7396 4.89099 16.6273 5.09087 16.4275C5.29075 16.2278 5.40304 15.9568 5.40304 15.6743V8.21743C5.40301 8.02892 5.35293 7.84379 5.25791 7.68094C5.1629 7.5181 5.02635 7.38336 4.86221 7.29049C4.69807 7.19763 4.51222 7.14995 4.32362 7.15232C4.13502 7.1547 3.95042 7.20705 3.78868 7.30403L1.12407 8.90193C0.882575 9.04775 0.708781 9.28333 0.640789 9.55702C0.572797 9.83071 0.616155 10.1202 0.761358 10.362C0.906561 10.6038 1.14176 10.7781 1.4154 10.8469C1.68904 10.9156 1.97879 10.8731 2.22113 10.7287L3.27138 10.0988V15.6743C3.27138 15.9568 3.38367 16.2278 3.58355 16.4275C3.78343 16.6273 4.05453 16.7396 4.33721 16.7396Z" fill="#000640"/>
<path fill-rule="evenodd" clip-rule="evenodd" d="M17.6835 11.3702C18.074 10.9797 18.7072 10.9797 19.0977 11.3702L20.3906 12.6631L21.6835 11.3702C22.074 10.9797 22.7072 10.9797 23.0977 11.3702C23.4883 11.7608 23.4883 12.3939 23.0977 12.7845L21.8048 14.0773L23.0977 15.3702C23.4883 15.7608 23.4883 16.3939 23.0977 16.7845C22.7072 17.175 22.074 17.175 21.6835 16.7845L20.3906 15.4916L19.0977 16.7845C18.7072 17.175 18.074 17.175 17.6835 16.7845C17.293 16.3939 17.293 15.7608 17.6835 15.3702L18.9764 14.0773L17.6835 12.7845C17.293 12.3939 17.293 11.7608 17.6835 11.3702Z" fill="#000640"/>
<path d="M8.23828 15.7396C8.23828 16.2919 7.79057 16.7396 7.23828 16.7396C6.686 16.7396 6.23828 16.2919 6.23828 15.7396C6.23828 15.1873 6.686 14.7396 7.23828 14.7396C7.79057 14.7396 8.23828 15.1873 8.23828 15.7396Z" fill="#000640"/>
<path fill-rule="evenodd" clip-rule="evenodd" d="M13.7862 9.4176C13.6098 9.25252 13.2989 9.09516 12.7694 9.14213C12.1392 9.19803 11.8001 9.49375 11.5965 9.77105C11.488 9.91884 11.4166 10.0658 11.3734 10.1745C11.3522 10.2279 11.3389 10.2691 11.3319 10.2925C11.3291 10.3022 11.3273 10.3086 11.3266 10.3113C11.2022 10.8438 10.6722 11.1784 10.1369 11.0599C9.59763 10.9406 9.25719 10.4068 9.37649 9.86753L10.3527 10.0835C9.37649 9.86753 9.37661 9.86703 9.37672 9.86653L9.37695 9.86549L9.37745 9.86327L9.37857 9.85833L9.38136 9.84642C9.38347 9.8376 9.38607 9.82702 9.38921 9.81478C9.3955 9.79032 9.40398 9.75914 9.41498 9.72215C9.43694 9.64835 9.46931 9.55028 9.51497 9.43545C9.60553 9.20774 9.75297 8.90253 9.9843 8.58744C10.4604 7.93895 11.2853 7.26592 12.5927 7.14995C13.6362 7.05739 14.5239 7.36878 15.1528 7.95733C15.765 8.53024 16.0781 9.31725 16.0781 10.0835C16.0781 12.1766 14.4105 13.2399 13.3422 13.9209C13.2867 13.9563 13.2324 13.9908 13.1793 14.0246C12.8014 14.2648 12.4842 14.4665 12.2218 14.6682C13.1184 14.6672 14.2104 14.6642 15.0752 14.6617C15.6275 14.6601 16.0765 15.1065 16.0781 15.6588C16.0797 16.211 15.6333 16.6601 15.081 16.6617C14.1879 16.6643 13.0503 16.6674 12.1358 16.6683C11.6787 16.6688 11.276 16.6687 10.987 16.6677C10.843 16.6672 10.7245 16.6664 10.6408 16.6654C10.6 16.6649 10.5621 16.6642 10.5321 16.6633C10.5191 16.6629 10.4965 16.6622 10.4725 16.6606C10.4639 16.66 10.4328 16.6579 10.3953 16.6527C10.3815 16.6508 10.3257 16.643 10.2584 16.6239C10.2317 16.6163 10.1394 16.5899 10.0335 16.5291C9.97688 16.494 9.84566 16.3897 9.77564 16.3168C9.68466 16.194 9.552 15.8644 9.53123 15.6617C9.53123 14.694 10.0063 13.9846 10.5529 13.4653C11.0117 13.0293 11.5973 12.6587 12.0923 12.3454C12.152 12.3076 12.2104 12.2706 12.2671 12.2344C13.4723 11.4662 14.0781 10.9436 14.0781 10.0835C14.0781 9.84983 13.9793 9.59833 13.7862 9.4176Z" fill="#000640"/>
</svg>
