<svg width="24" height="25" viewBox="0 0 24 25" fill="none" xmlns="http://www.w3.org/2000/svg">
<path d="M4.33721 16.7396C4.61989 16.7396 4.89099 16.6273 5.09087 16.4275C5.29075 16.2278 5.40304 15.9568 5.40304 15.6743V8.21743C5.40301 8.02892 5.35293 7.84379 5.25791 7.68095C5.1629 7.5181 5.02635 7.38337 4.86221 7.2905C4.69807 7.19763 4.51222 7.14995 4.32362 7.15233C4.13502 7.15471 3.95042 7.20705 3.78868 7.30403L1.12407 8.90193C0.882575 9.04776 0.708781 9.28334 0.640789 9.55702C0.572797 9.83071 0.616155 10.1202 0.761358 10.362C0.906561 10.6038 1.14176 10.7781 1.4154 10.8469C1.68904 10.9156 1.97879 10.8732 2.22113 10.7287L3.27138 10.0988V15.6743C3.27138 15.9568 3.38367 16.2278 3.58355 16.4275C3.78343 16.6273 4.05453 16.7396 4.33721 16.7396Z" fill="#000640"/>
<path fill-rule="evenodd" clip-rule="evenodd" d="M17.6835 11.3702C18.074 10.9797 18.7072 10.9797 19.0977 11.3702L20.3906 12.6631L21.6835 11.3702C22.074 10.9797 22.7072 10.9797 23.0977 11.3702C23.4883 11.7608 23.4883 12.3939 23.0977 12.7845L21.8048 14.0774L23.0977 15.3702C23.4883 15.7608 23.4883 16.3939 23.0977 16.7845C22.7072 17.175 22.074 17.175 21.6835 16.7845L20.3906 15.4916L19.0977 16.7845C18.7072 17.175 18.074 17.175 17.6835 16.7845C17.293 16.3939 17.293 15.7608 17.6835 15.3702L18.9764 14.0774L17.6835 12.7845C17.293 12.3939 17.293 11.7608 17.6835 11.3702Z" fill="#000640"/>
<path d="M8.23828 15.7396C8.23828 16.2919 7.79057 16.7396 7.23828 16.7396C6.686 16.7396 6.23828 16.2919 6.23828 15.7396C6.23828 15.1873 6.686 14.7396 7.23828 14.7396C7.79057 14.7396 8.23828 15.1873 8.23828 15.7396Z" fill="#000640"/>
<path fill-rule="evenodd" clip-rule="evenodd" d="M10.0092 8.00605C10.0768 7.51068 10.5 7.14142 10.9999 7.14142H15.2107C15.763 7.14142 16.2107 7.58913 16.2107 8.14142C16.2107 8.6937 15.763 9.14142 15.2107 9.14142H11.8726L11.763 9.94379C12.4593 9.88355 13.2265 9.88212 13.9315 10.0338C14.5535 10.1677 15.2127 10.4382 15.7193 10.9745C16.2445 11.5305 16.5093 12.2698 16.5093 13.144C16.5093 15.115 15.163 16.34 13.6404 16.6464C12.1592 16.9445 10.4176 16.4028 9.43972 14.8799C9.14132 14.4151 9.27617 13.7965 9.7409 13.4981C10.2056 13.1997 10.8243 13.3345 11.1227 13.7993C11.6057 14.5516 12.4782 14.8402 13.2458 14.6857C13.972 14.5396 14.5093 14.0291 14.5093 13.144C14.5093 12.6911 14.3829 12.4723 14.2654 12.3479C14.1293 12.2038 13.8944 12.0716 13.5108 11.9891C12.7143 11.8177 11.6563 11.9368 10.7739 12.0984C10.4585 12.1562 10.1346 12.0593 9.90281 11.8378C9.67103 11.6163 9.5595 11.2971 9.6029 10.9794L10.0092 8.00605Z" fill="#000640"/>
</svg>
