<svg width="24" height="24" viewBox="0 0 24 24" fill="none" xmlns="http://www.w3.org/2000/svg">
<path d="M6.5 14C7.32843 14 8 13.3284 8 12.5C8 11.6716 7.32843 11 6.5 11C5.67157 11 5 11.6716 5 12.5C5 13.3284 5.67157 14 6.5 14Z" fill="#000640"/>
<path d="M13.5 12.5C13.5 13.3284 12.8284 14 12 14C11.1716 14 10.5 13.3284 10.5 12.5C10.5 11.6716 11.1716 11 12 11C12.8284 11 13.5 11.6716 13.5 12.5Z" fill="#000640"/>
<path d="M17.5 14C18.3284 14 19 13.3284 19 12.5C19 11.6716 18.3284 11 17.5 11C16.6716 11 16 11.6716 16 12.5C16 13.3284 16.6716 14 17.5 14Z" fill="#000640"/>
<path fill-rule="evenodd" clip-rule="evenodd" d="M0 12.5C0 9.46243 2.46243 7 5.5 7H18.5C21.5376 7 24 9.46243 24 12.5C24 15.5376 21.5376 18 18.5 18H5.5C2.46243 18 0 15.5376 0 12.5ZM5.5 9H18.5C20.433 9 22 10.567 22 12.5C22 14.433 20.433 16 18.5 16H5.5C3.567 16 2 14.433 2 12.5C2 10.567 3.567 9 5.5 9Z" fill="#000640"/>
</svg>
