<svg width="24" height="24" viewBox="0 0 24 24" fill="none" xmlns="http://www.w3.org/2000/svg">
<path fill-rule="evenodd" clip-rule="evenodd" d="M18.7071 4.70711C19.0977 4.31658 19.0977 3.68342 18.7071 3.29289C18.3166 2.90237 17.6834 2.90237 17.2929 3.29289L1.29292 19.2929C1.00692 19.5789 0.921369 20.009 1.07615 20.3827C1.23093 20.7564 1.59557 21 2.00003 21H22C22.5523 21 23 20.5523 23 20C23 19.4477 22.5523 19 22 19H11.9677C11.8157 16.7017 11.134 14.8194 10.0262 13.3881L18.7071 4.70711ZM8.59636 14.8179L4.41424 19H9.9628C9.82623 17.2192 9.32273 15.8436 8.59636 14.8179Z" fill="#000640"/>
</svg>
