<svg width="24" height="25" viewBox="0 0 24 25" fill="none" xmlns="http://www.w3.org/2000/svg">
<g clip-path="url(#clip0_1463_5207)">
<path fill-rule="evenodd" clip-rule="evenodd" d="M20.0946 0.739288C20.6469 0.739288 21.0946 1.187 21.0946 1.73929V6.73929C21.0946 7.29157 20.6469 7.73929 20.0946 7.73929C19.5423 7.73929 19.0946 7.29157 19.0946 6.73929V1.73929C19.0946 1.187 19.5423 0.739288 20.0946 0.739288Z" fill="#000640"/>
<path fill-rule="evenodd" clip-rule="evenodd" d="M16.5946 4.23929C16.5946 3.687 17.0423 3.23929 17.5946 3.23929L22.5946 3.23929C23.1469 3.23929 23.5946 3.687 23.5946 4.23929C23.5946 4.79157 23.1469 5.23929 22.5946 5.23929L17.5946 5.23929C17.0423 5.23929 16.5946 4.79157 16.5946 4.23929Z" fill="#000640"/>
<path fill-rule="evenodd" clip-rule="evenodd" d="M9 11.1148C9 10.0102 9.89543 9.11481 11 9.11481H21C22.1046 9.11481 23 10.0102 23 11.1148V21.1148C23 22.2194 22.1046 23.1148 21 23.1148H11C9.89543 23.1148 9 22.2194 9 21.1148V11.1148ZM21 11.1148H11V21.1148H21V11.1148Z" fill="#000640"/>
<path fill-rule="evenodd" clip-rule="evenodd" d="M1 3.11481C1 2.01024 1.89543 1.11481 3 1.11481H13C14.1046 1.11481 15 2.01024 15 3.11481V10.1148C15 10.6671 14.5523 11.1148 14 11.1148C13.4477 11.1148 13 10.6671 13 10.1148V3.11481L3 3.11481V13.1148H10C10.5523 13.1148 11 13.5625 11 14.1148C11 14.6671 10.5523 15.1148 10 15.1148H3C1.89543 15.1148 1 14.2194 1 13.1148V3.11481Z" fill="#000640"/>
<path fill-rule="evenodd" clip-rule="evenodd" d="M12.155 16.0756C12.6486 15.1707 13.9638 15.2185 14.3903 16.1569L16.7497 21.3476C17.1259 22.1752 16.5209 23.1148 15.6117 23.1148H10.4211C9.47232 23.1148 8.86942 22.0992 9.32377 21.2662L12.155 16.0756ZM13.1913 18.3524L11.6845 21.1148H14.447L13.1913 18.3524Z" fill="#000640"/>
<path fill-rule="evenodd" clip-rule="evenodd" d="M17.3548 14.2375C17.7917 13.2389 19.2083 13.2389 19.6452 14.2375L22.7629 21.3638C23.1243 22.1896 22.5192 23.1148 21.6177 23.1148H15.3823C14.4808 23.1148 13.8757 22.1896 14.2371 21.3638L17.3548 14.2375ZM18.5 16.6097L16.529 21.1148H20.471L18.5 16.6097Z" fill="#000640"/>
<path fill-rule="evenodd" clip-rule="evenodd" d="M4 6.11481C4 5.56252 4.44772 5.11481 5 5.11481H11C11.5523 5.11481 12 5.56252 12 6.11481C12 6.66709 11.5523 7.11481 11 7.11481H5C4.44772 7.11481 4 6.66709 4 6.11481Z" fill="#000640"/>
<path fill-rule="evenodd" clip-rule="evenodd" d="M4 10.1148C4 9.56252 4.44772 9.11481 5 9.11481H7C7.55228 9.11481 8 9.56252 8 10.1148C8 10.6671 7.55228 11.1148 7 11.1148H5C4.44772 11.1148 4 10.6671 4 10.1148Z" fill="#000640"/>
</g>
<defs>
<clipPath id="clip0_1463_5207">
<rect width="24" height="24" fill="white" transform="translate(0 0.114807)"/>
</clipPath>
</defs>
</svg>
