<svg width="24" height="25" viewBox="0 0 24 25" fill="none" xmlns="http://www.w3.org/2000/svg">
<path fill-rule="evenodd" clip-rule="evenodd" d="M19.5 1.11481C20.0523 1.11481 20.5 1.56252 20.5 2.11481V7.11481C20.5 7.66709 20.0523 8.11481 19.5 8.11481C18.9477 8.11481 18.5 7.66709 18.5 7.11481V2.11481C18.5 1.56252 18.9477 1.11481 19.5 1.11481Z" fill="#000640"/>
<path fill-rule="evenodd" clip-rule="evenodd" d="M16 4.61481C16 4.06252 16.4477 3.61481 17 3.61481L22 3.61481C22.5523 3.61481 23 4.06252 23 4.61481C23 5.16709 22.5523 5.61481 22 5.61481L17 5.61481C16.4477 5.61481 16 5.16709 16 4.61481Z" fill="#000640"/>
<path fill-rule="evenodd" clip-rule="evenodd" d="M8 6.11481C6.34315 6.11481 5 7.45795 5 9.11481C5 10.7717 6.34315 12.1148 8 12.1148C9.65685 12.1148 11 10.7717 11 9.11481C11 7.45795 9.65685 6.11481 8 6.11481ZM7 9.11481C7 8.56252 7.44772 8.11481 8 8.11481C8.55228 8.11481 9 8.56252 9 9.11481C9 9.66709 8.55228 10.1148 8 10.1148C7.44772 10.1148 7 9.66709 7 9.11481Z" fill="#000640"/>
<path fill-rule="evenodd" clip-rule="evenodd" d="M2 2.11481C1.44772 2.11481 1 2.56252 1 3.11481V12.1148C1 12.38 1.10536 12.6344 1.29289 12.8219L10.8787 22.4077C12.0503 23.5793 13.9497 23.5793 15.1213 22.4077L21.2929 16.2361C22.4645 15.0646 22.4645 13.1651 21.2929 11.9935L11.7071 2.4077C11.5196 2.22016 11.2652 2.11481 11 2.11481H2ZM3 11.7006V4.11481H10.5858L19.8787 13.4077C20.2692 13.7982 20.2692 14.4314 19.8787 14.8219L13.7071 20.9935C13.3166 21.384 12.6834 21.384 12.2929 20.9935L3 11.7006Z" fill="#000640"/>
</svg>
