<svg width="24" height="25" viewBox="0 0 24 25" fill="none" xmlns="http://www.w3.org/2000/svg">
<path fill-rule="evenodd" clip-rule="evenodd" d="M6 4.11481C6 3.01024 6.89543 2.11481 8 2.11481H21C22.1046 2.11481 23 3.01024 23 4.11481V17.1148C23 18.2194 22.1046 19.1148 21 19.1148H8C6.89543 19.1148 6 18.2194 6 17.1148V4.11481ZM21 4.11481H8V17.1148H21V4.11481Z" fill="#000640"/>
<path fill-rule="evenodd" clip-rule="evenodd" d="M3 4.11481C3.55228 4.11481 4 4.56252 4 5.11481V21.1148H19C19.5523 21.1148 20 21.5625 20 22.1148C20 22.6671 19.5523 23.1148 19 23.1148H4C2.89543 23.1148 2 22.2194 2 21.1148V5.11481C2 4.56252 2.44772 4.11481 3 4.11481Z" fill="#000640"/>
<path fill-rule="evenodd" clip-rule="evenodd" d="M19.2071 7.4077C19.5976 7.79822 19.5976 8.43139 19.2071 8.82191L14.3839 13.6451C13.8957 14.1333 13.1043 14.1333 12.6161 13.6451L10.2929 11.3219C9.90237 10.9314 9.90237 10.2982 10.2929 9.9077C10.6834 9.51718 11.3166 9.51718 11.7071 9.9077L13.5 11.7006L17.7929 7.4077C18.1834 7.01718 18.8166 7.01718 19.2071 7.4077Z" fill="#000640"/>
</svg>
