<svg width="24" height="24" viewBox="0 0 24 24" fill="none" xmlns="http://www.w3.org/2000/svg">
<path fill-rule="evenodd" clip-rule="evenodd" d="M11.4695 19.8477C11.4697 19.8478 11.47 19.848 12 19L11.4695 19.8477C11.7937 20.0503 12.2057 20.0507 12.53 19.848L12 19C12.53 19.848 12.5297 19.8482 12.53 19.848L12.5313 19.8472L12.5333 19.846L12.5394 19.8421L12.5603 19.8289C12.5779 19.8176 12.6029 19.8016 12.6348 19.7808C12.6987 19.7393 12.7901 19.679 12.9053 19.6009C13.1354 19.4447 13.4609 19.2168 13.85 18.925C14.6265 18.3427 15.6649 17.4993 16.7071 16.4571C18.7463 14.4179 21 11.4194 21 8C21 5.66244 19.9563 3.86012 18.2586 2.67909C16.6013 1.52621 14.3798 1 12 1C9.62023 1 7.39871 1.52621 5.74144 2.67909C4.04371 3.86012 3 5.66244 3 8C3 11.4194 5.25372 14.4179 7.29289 16.4571C8.3351 17.4993 9.37354 18.3427 10.15 18.925C10.5391 19.2168 10.8646 19.4447 11.0947 19.6009C11.2099 19.679 11.3013 19.7393 11.3652 19.7808C11.3971 19.8016 11.4221 19.8176 11.4397 19.8289L11.4606 19.8421L11.4667 19.846L11.4695 19.8477ZM5 8C5 6.33756 5.70629 5.13988 6.88356 4.32091C7.49686 3.89427 8.25238 3.56232 9.12216 3.33791C8.48283 4.41079 8 5.91744 8 8C8 10.6702 8.7945 13.5474 9.55701 15.7078C9.58181 15.7781 9.6066 15.8477 9.63137 15.9166C9.32837 15.6453 9.01754 15.3533 8.70711 15.0429C6.74628 13.0821 5 10.5806 5 8ZM11.2593 3.77579C11.5323 3.4572 11.7998 3.24937 12 3.1207C12.2002 3.24937 12.4677 3.4572 12.7407 3.77579C13.3218 4.45367 14 5.71692 14 8C14 10.3298 13.2945 12.9526 12.557 15.0422C12.3671 15.5803 12.1771 16.0774 12 16.5182C11.8229 16.0774 11.6329 15.5803 11.443 15.0422C10.7055 12.9526 10 10.3298 10 8C10 5.71692 10.6782 4.45367 11.2593 3.77579ZM15.2929 15.0429C14.9825 15.3533 14.6716 15.6453 14.3686 15.9165C14.3934 15.8477 14.4182 15.7781 14.443 15.7078C15.2055 13.5474 16 10.6702 16 8C16 5.91744 15.5172 4.41079 14.8778 3.33791C15.7476 3.56232 16.5031 3.89427 17.1164 4.32091C18.2937 5.13988 19 6.33756 19 8C19 10.5806 17.2537 13.0821 15.2929 15.0429Z" fill="#000640"/>
<path d="M10 21C9.44772 21 9 21.4477 9 22C9 22.5523 9.44772 23 10 23H14C14.5523 23 15 22.5523 15 22C15 21.4477 14.5523 21 14 21H10Z" fill="#000640"/>
</svg>
