<svg width="24" height="24" viewBox="0 0 24 24" fill="none" xmlns="http://www.w3.org/2000/svg">
<path d="M4.00015 2C4.00015 1.44772 4.44787 1 5.00015 1H19.0002C19.5524 1 20.0002 1.44772 20.0002 2C20.0002 2.55228 19.5524 3 19.0002 3H5.00015C4.44787 3 4.00015 2.55228 4.00015 2Z" fill="#000640"/>
<path fill-rule="evenodd" clip-rule="evenodd" d="M17.0002 14C17.0002 16.7614 14.7616 19 12.0002 19C9.23873 19 7.00015 16.7614 7.00015 14C7.00015 11.2386 9.23873 9 12.0002 9C14.7616 9 17.0002 11.2386 17.0002 14ZM15.0002 14C15.0002 15.6569 13.657 17 12.0002 17C10.3433 17 9.00015 15.6569 9.00015 14C9.00015 12.3431 10.3433 11 12.0002 11C13.657 11 15.0002 12.3431 15.0002 14Z" fill="#000640"/>
<path fill-rule="evenodd" clip-rule="evenodd" d="M1.41257 8.50409C1.10032 6.67222 2.51162 5 4.36991 5H19.6304C21.4887 5 22.9 6.67222 22.5877 8.50409L20.5423 20.5041C20.2966 21.9456 19.0473 23 17.5849 23H6.41537C4.95303 23 3.70374 21.9456 3.45802 20.5041L1.41257 8.50409ZM4.36991 7C3.75048 7 3.28005 7.55741 3.38413 8.16803L5.42959 20.168C5.51149 20.6485 5.92792 21 6.41537 21H17.5849C18.0724 21 18.4888 20.6485 18.5707 20.168L20.6162 8.16803C20.7203 7.55741 20.2498 7 19.6304 7H4.36991Z" fill="#000640"/>
</svg>
