<svg width="24" height="24" viewBox="0 0 24 24" fill="none" xmlns="http://www.w3.org/2000/svg">
<path fill-rule="evenodd" clip-rule="evenodd" d="M11 12C11 13.6569 9.65685 15 8 15C6.34315 15 5 13.6569 5 12C5 10.3431 6.34315 9 8 9C9.65685 9 11 10.3431 11 12ZM9 12C9 12.5523 8.55228 13 8 13C7.44772 13 7 12.5523 7 12C7 11.4477 7.44772 11 8 11C8.55228 11 9 11.4477 9 12Z" fill="#000640"/>
<path fill-rule="evenodd" clip-rule="evenodd" d="M15 3.77476C15 1.72709 12.9939 0.281179 11.0513 0.928711L3.05132 3.59538C1.82629 4.00372 1 5.15014 1 6.44143V17.5584C1 18.8497 1.82629 19.9961 3.05132 20.4044L11.0513 23.0711C12.9939 23.7186 15 22.2727 15 20.2251V3.77476ZM11.6838 2.82608C12.3313 2.61023 13 3.0922 13 3.77476V20.2251C13 20.9076 12.3313 21.3896 11.6838 21.1737L3.68377 18.5071C3.27543 18.371 3 17.9888 3 17.5584V6.44143C3 6.011 3.27543 5.62886 3.68377 5.49274L11.6838 2.82608Z" fill="#000640"/>
<path d="M19 4C19 3.44772 18.5523 3 18 3C17.4477 3 17 3.44772 17 4V20C17 20.5523 17.4477 21 18 21C18.5523 21 19 20.5523 19 20V4Z" fill="#000640"/>
<path d="M22 5C22.5523 5 23 5.44772 23 6V18C23 18.5523 22.5523 19 22 19C21.4477 19 21 18.5523 21 18V6C21 5.44772 21.4477 5 22 5Z" fill="#000640"/>
</svg>
