<svg width="24" height="24" viewBox="0 0 24 24" fill="none" xmlns="http://www.w3.org/2000/svg">
<path d="M1 3C1 2.44772 1.44772 2 2 2H22C22.5523 2 23 2.44772 23 3C23 3.55228 22.5523 4 22 4H2C1.44772 4 1 3.55228 1 3Z" fill="#000640"/>
<path fill-rule="evenodd" clip-rule="evenodd" d="M3 7C3 6.44772 3.44772 6 4 6H10C10.5523 6 11 6.44772 11 7V21C11 21.5523 10.5523 22 10 22H4C3.44772 22 3 21.5523 3 21V7ZM5 8V20H9V8H5Z" fill="#000640"/>
<path fill-rule="evenodd" clip-rule="evenodd" d="M14 6C13.4477 6 13 6.44772 13 7V15C13 15.5523 13.4477 16 14 16H20C20.5523 16 21 15.5523 21 15V7C21 6.44772 20.5523 6 20 6H14ZM15 14V8H19V14H15Z" fill="#000640"/>
</svg>
