<svg width="24" height="24" viewBox="0 0 24 24" fill="none" xmlns="http://www.w3.org/2000/svg">
<path d="M2 4C2 3.44772 2.44772 3 3 3H21C21.5523 3 22 3.44772 22 4C22 4.55228 21.5523 5 21 5L3 5C2.44772 5 2 4.55229 2 4Z" fill="#000640"/>
<path d="M8 8C8 7.44772 8.44772 7 9 7L21 7C21.5523 7 22 7.44772 22 8C22 8.55229 21.5523 9 21 9L9 9C8.44772 9 8 8.55229 8 8Z" fill="#000640"/>
<path d="M3 11C2.44772 11 2 11.4477 2 12C2 12.5523 2.44772 13 3 13L21 13C21.5523 13 22 12.5523 22 12C22 11.4477 21.5523 11 21 11L3 11Z" fill="#000640"/>
<path d="M2 20C2 19.4477 2.44772 19 3 19L21 19C21.5523 19 22 19.4477 22 20C22 20.5523 21.5523 21 21 21L3 21C2.44772 21 2 20.5523 2 20Z" fill="#000640"/>
<path d="M13 15C12.4477 15 12 15.4477 12 16C12 16.5523 12.4477 17 13 17L21 17C21.5523 17 22 16.5523 22 16C22 15.4477 21.5523 15 21 15L13 15Z" fill="#000640"/>
</svg>
