<svg width="24" height="24" viewBox="0 0 24 24" fill="none" xmlns="http://www.w3.org/2000/svg">
<path d="M7 14C7 13.4477 6.55228 13 6 13C5.44772 13 5 13.4477 5 14V18C5 18.5523 5.44772 19 6 19C6.55229 19 7 18.5523 7 18V14Z" fill="#000640"/>
<path d="M10 11C10.5523 11 11 11.4477 11 12V18C11 18.5523 10.5523 19 10 19C9.44772 19 9 18.5523 9 18V12C9 11.4477 9.44771 11 10 11Z" fill="#000640"/>
<path d="M15 16C15 15.4477 14.5523 15 14 15C13.4477 15 13 15.4477 13 16V18C13 18.5523 13.4477 19 14 19C14.5523 19 15 18.5523 15 18V16Z" fill="#000640"/>
<path fill-rule="evenodd" clip-rule="evenodd" d="M4 1C2.34315 1 1 2.34315 1 4V20C1 21.6569 2.34315 23 4 23H20C21.6569 23 23 21.6569 23 20V4C23 2.34315 21.6569 1 20 1H4ZM3 4C3 3.44772 3.44772 3 4 3H20C20.5523 3 21 3.44772 21 4V20C21 20.5523 20.5523 21 20 21H4C3.44772 21 3 20.5523 3 20V4Z" fill="#000640"/>
</svg>
