<svg width="24" height="24" viewBox="0 0 24 24" fill="none" xmlns="http://www.w3.org/2000/svg">
<path fill-rule="evenodd" clip-rule="evenodd" d="M3 3C3 2.44772 3.44772 2 4 2H10C10.5523 2 11 2.44772 11 3V17C11 17.5523 10.5523 18 10 18H4C3.44772 18 3 17.5523 3 17V3ZM5 4V16H9V4H5Z" fill="#000640"/>
<path d="M1 21C1 20.4477 1.44772 20 2 20H22C22.5523 20 23 20.4477 23 21C23 21.5523 22.5523 22 22 22H2C1.44772 22 1 21.5523 1 21Z" fill="#000640"/>
<path fill-rule="evenodd" clip-rule="evenodd" d="M14 7C13.4477 7 13 7.44772 13 8V17C13 17.5523 13.4477 18 14 18H20C20.5523 18 21 17.5523 21 17V8C21 7.44772 20.5523 7 20 7H14ZM15 16V9H19V16H15Z" fill="#000640"/>
</svg>
