<svg width="24" height="24" viewBox="0 0 24 24" fill="none" xmlns="http://www.w3.org/2000/svg">
<path d="M3 1C3.55228 1 4 1.44772 4 2V22C4 22.5523 3.55228 23 3 23C2.44772 23 2 22.5523 2 22V2C2 1.44772 2.44772 1 3 1Z" fill="#000640"/>
<path fill-rule="evenodd" clip-rule="evenodd" d="M6 4C6 3.44772 6.44772 3 7 3H21C21.5523 3 22 3.44772 22 4V10C22 10.5523 21.5523 11 21 11H7C6.44772 11 6 10.5523 6 10V4ZM8 5V9H20V5H8Z" fill="#000640"/>
<path fill-rule="evenodd" clip-rule="evenodd" d="M7 13C6.44772 13 6 13.4477 6 14V20C6 20.5523 6.44772 21 7 21H13C13.5523 21 14 20.5523 14 20V14C14 13.4477 13.5523 13 13 13H7ZM8 19V15H12V19H8Z" fill="#000640"/>
</svg>
