<svg width="24" height="24" viewBox="0 0 24 24" fill="none" xmlns="http://www.w3.org/2000/svg">
<path fill-rule="evenodd" clip-rule="evenodd" d="M3 3C3 2.44772 3.44772 2 4 2H10C10.5523 2 11 2.44772 11 3V11H13V8C13 7.44772 13.4477 7 14 7H20C20.5523 7 21 7.44772 21 8V11H22C22.5523 11 23 11.4477 23 12C23 12.5523 22.5523 13 22 13H21V16C21 16.5523 20.5523 17 20 17H14C13.4477 17 13 16.5523 13 16V13H11V21C11 21.5523 10.5523 22 10 22H4C3.44772 22 3 21.5523 3 21V13H2C1.44772 13 1 12.5523 1 12C1 11.4477 1.44772 11 2 11H3V3ZM15 13V15H19V13H15ZM19 11V9H15V11H19ZM9 4V11H5V4H9ZM5 20V13H9V20H5Z" fill="#000640"/>
</svg>
