<svg width="24" height="24" viewBox="0 0 24 24" fill="none" xmlns="http://www.w3.org/2000/svg">
<path d="M19 10C19 9.44771 18.5523 9 18 9C17.4477 9 17 9.44771 17 10V14C17 14.5523 17.4477 15 18 15C18.5523 15 19 14.5523 19 14V10Z" fill="#000640"/>
<path d="M14 8C14.5523 8 15 8.44772 15 9V15C15 15.5523 14.5523 16 14 16C13.4477 16 13 15.5523 13 15V9C13 8.44772 13.4477 8 14 8Z" fill="#000640"/>
<path d="M11 11C11 10.4477 10.5523 10 10 10C9.44771 10 9 10.4477 9 11V13C9 13.5523 9.44772 14 10 14C10.5523 14 11 13.5523 11 13V11Z" fill="#000640"/>
<path fill-rule="evenodd" clip-rule="evenodd" d="M4 1C2.34315 1 1 2.34315 1 4V20C1 21.6569 2.34315 23 4 23H20C21.6569 23 23 21.6569 23 20V4C23 2.34315 21.6569 1 20 1H4ZM3 4C3 3.44772 3.44772 3 4 3H20C20.5523 3 21 3.44772 21 4V20C21 20.5523 20.5523 21 20 21H4C3.44772 21 3 20.5523 3 20V4Z" fill="#000640"/>
</svg>
