<svg width="24" height="24" viewBox="0 0 24 24" fill="none" xmlns="http://www.w3.org/2000/svg">
<path d="M2 4C2 3.44772 2.44772 3 3 3H21C21.5523 3 22 3.44772 22 4C22 4.55228 21.5523 5 21 5L3 5C2.44772 5 2 4.55229 2 4Z" fill="#000640"/>
<path d="M16 9L8 9C7.44772 9 7 8.55229 7 8C7 7.44772 7.44772 7 8 7L16 7C16.5523 7 17 7.44772 17 8C17 8.55229 16.5523 9 16 9Z" fill="#000640"/>
<path d="M3 11C2.44772 11 2 11.4477 2 12C2 12.5523 2.44772 13 3 13L21 13C21.5523 13 22 12.5523 22 12C22 11.4477 21.5523 11 21 11L3 11Z" fill="#000640"/>
<path d="M7 16C7 15.4477 7.44772 15 8 15L16 15C16.5523 15 17 15.4477 17 16C17 16.5523 16.5523 17 16 17L8 17C7.44772 17 7 16.5523 7 16Z" fill="#000640"/>
<path d="M3 21H21C21.5523 21 22 20.5523 22 20C22 19.4477 21.5523 19 21 19H3C2.44772 19 2 19.4477 2 20C2 20.5523 2.44772 21 3 21Z" fill="#000640"/>
</svg>
