<svg width="24" height="24" viewBox="0 0 24 24" fill="none" xmlns="http://www.w3.org/2000/svg">
<path d="M19 14C19 13.4477 18.5523 13 18 13C17.4477 13 17 13.4477 17 14V18C17 18.5523 17.4477 19 18 19C18.5523 19 19 18.5523 19 18V14Z" fill="#000640"/>
<path d="M14 11C14.5523 11 15 11.4477 15 12V18C15 18.5523 14.5523 19 14 19C13.4477 19 13 18.5523 13 18V12C13 11.4477 13.4477 11 14 11Z" fill="#000640"/>
<path d="M11 16C11 15.4477 10.5523 15 10 15C9.44771 15 9 15.4477 9 16V18C9 18.5523 9.44772 19 10 19C10.5523 19 11 18.5523 11 18V16Z" fill="#000640"/>
<path fill-rule="evenodd" clip-rule="evenodd" d="M4 1C2.34315 1 1 2.34315 1 4V20C1 21.6569 2.34315 23 4 23H20C21.6569 23 23 21.6569 23 20V4C23 2.34315 21.6569 1 20 1H4ZM3 4C3 3.44772 3.44772 3 4 3H20C20.5523 3 21 3.44772 21 4V20C21 20.5523 20.5523 21 20 21H4C3.44772 21 3 20.5523 3 20V4Z" fill="#000640"/>
</svg>
