<svg width="24" height="24" viewBox="0 0 24 24" fill="none" xmlns="http://www.w3.org/2000/svg">
<path d="M2 4C2 3.44772 2.44772 3 3 3H21C21.5523 3 22 3.44772 22 4C22 4.55228 21.5523 5 21 5L3 5C2.44772 5 2 4.55229 2 4Z" fill="#000640"/>
<path d="M2 8C2 7.44772 2.44772 7 3 7L15 7C15.5523 7 16 7.44772 16 8C16 8.55229 15.5523 9 15 9L3 9C2.44772 9 2 8.55229 2 8Z" fill="#000640"/>
<path d="M3 11C2.44772 11 2 11.4477 2 12C2 12.5523 2.44772 13 3 13L21 13C21.5523 13 22 12.5523 22 12C22 11.4477 21.5523 11 21 11L3 11Z" fill="#000640"/>
<path d="M2 16C2 15.4477 2.44772 15 3 15L11 15C11.5523 15 12 15.4477 12 16C12 16.5523 11.5523 17 11 17L3 17C2.44772 17 2 16.5523 2 16Z" fill="#000640"/>
<path d="M2 20C2 20.5523 2.44772 21 3 21H21C21.5523 21 22 20.5523 22 20C22 19.4477 21.5523 19 21 19H3C2.44772 19 2 19.4477 2 20Z" fill="#000640"/>
</svg>
