<svg width="24" height="24" viewBox="0 0 24 24" fill="none" xmlns="http://www.w3.org/2000/svg">
<path d="M7 6C7 5.44772 6.55228 5 6 5C5.44772 5 5 5.44772 5 6V10C5 10.5523 5.44772 11 6 11C6.55228 11 7 10.5523 7 10V6Z" fill="#000640"/>
<path d="M10 5C10.5523 5 11 5.44772 11 6V12C11 12.5523 10.5523 13 10 13C9.44771 13 9 12.5523 9 12V6C9 5.44772 9.44771 5 10 5Z" fill="#000640"/>
<path d="M15 6C15 5.44772 14.5523 5 14 5C13.4477 5 13 5.44772 13 6V8C13 8.55228 13.4477 9 14 9C14.5523 9 15 8.55228 15 8V6Z" fill="#000640"/>
<path fill-rule="evenodd" clip-rule="evenodd" d="M4 1C2.34315 1 1 2.34315 1 4V20C1 21.6569 2.34315 23 4 23H20C21.6569 23 23 21.6569 23 20V4C23 2.34315 21.6569 1 20 1H4ZM3 4C3 3.44772 3.44772 3 4 3H20C20.5523 3 21 3.44772 21 4V20C21 20.5523 20.5523 21 20 21H4C3.44772 21 3 20.5523 3 20V4Z" fill="#000640"/>
</svg>
