<svg width="24" height="24" viewBox="0 0 24 24" fill="none" xmlns="http://www.w3.org/2000/svg">
<path d="M9 10C9 9.44771 8.55228 9 8 9C7.44772 9 7 9.44771 7 10V14C7 14.5523 7.44772 15 8 15C8.55229 15 9 14.5523 9 14V10Z" fill="#000640"/>
<path d="M12 8C12.5523 8 13 8.44772 13 9V15C13 15.5523 12.5523 16 12 16C11.4477 16 11 15.5523 11 15V9C11 8.44772 11.4477 8 12 8Z" fill="#000640"/>
<path d="M17 11C17 10.4477 16.5523 10 16 10C15.4477 10 15 10.4477 15 11V13C15 13.5523 15.4477 14 16 14C16.5523 14 17 13.5523 17 13V11Z" fill="#000640"/>
<path fill-rule="evenodd" clip-rule="evenodd" d="M4 1C2.34315 1 1 2.34315 1 4V20C1 21.6569 2.34315 23 4 23H20C21.6569 23 23 21.6569 23 20V4C23 2.34315 21.6569 1 20 1H4ZM3 4C3 3.44772 3.44772 3 4 3H20C20.5523 3 21 3.44772 21 4V20C21 20.5523 20.5523 21 20 21H4C3.44772 21 3 20.5523 3 20V4Z" fill="#000640"/>
</svg>
