<svg width="24" height="24" viewBox="0 0 24 24" fill="none" xmlns="http://www.w3.org/2000/svg">
<path d="M11 6C11 5.44772 10.5523 5 10 5C9.44771 5 9 5.44772 9 6V8C9 8.55228 9.44771 9 10 9C10.5523 9 11 8.55228 11 8V6Z" fill="#000640"/>
<path d="M14 5C14.5523 5 15 5.44772 15 6V12C15 12.5523 14.5523 13 14 13C13.4477 13 13 12.5523 13 12V6C13 5.44772 13.4477 5 14 5Z" fill="#000640"/>
<path d="M19 6C19 5.44772 18.5523 5 18 5C17.4477 5 17 5.44772 17 6V10C17 10.5523 17.4477 11 18 11C18.5523 11 19 10.5523 19 10V6Z" fill="#000640"/>
<path fill-rule="evenodd" clip-rule="evenodd" d="M4 1C2.34315 1 1 2.34315 1 4V20C1 21.6569 2.34315 23 4 23H20C21.6569 23 23 21.6569 23 20V4C23 2.34315 21.6569 1 20 1H4ZM3 4C3 3.44772 3.44772 3 4 3H20C20.5523 3 21 3.44772 21 4V20C21 20.5523 20.5523 21 20 21H4C3.44772 21 3 20.5523 3 20V4Z" fill="#000640"/>
</svg>
