<svg width="24" height="24" viewBox="0 0 24 24" fill="none" xmlns="http://www.w3.org/2000/svg">
<path fill-rule="evenodd" clip-rule="evenodd" d="M2 4C2 3.44772 2.44772 3 3 3H17C17.5523 3 18 3.44772 18 4V10C18 10.5523 17.5523 11 17 11H3C2.44772 11 2 10.5523 2 10V4ZM4 5V9H16V5H4Z" fill="#000640"/>
<path fill-rule="evenodd" clip-rule="evenodd" d="M21 1C21.5523 1 22 1.44772 22 2V22C22 22.5523 21.5523 23 21 23C20.4477 23 20 22.5523 20 22V2C20 1.44772 20.4477 1 21 1Z" fill="#000640"/>
<path fill-rule="evenodd" clip-rule="evenodd" d="M10 14C10 13.4477 10.4477 13 11 13H17C17.5523 13 18 13.4477 18 14V20C18 20.5523 17.5523 21 17 21H11C10.4477 21 10 20.5523 10 20V14ZM12 15V19H16V15H12Z" fill="#000640"/>
</svg>
