<svg width="24" height="24" viewBox="0 0 24 24" fill="none" xmlns="http://www.w3.org/2000/svg">
<g clip-path="url(#clip0_1253_5191)">
<path fill-rule="evenodd" clip-rule="evenodd" d="M8.5 6C7.94772 6 7.5 6.44772 7.5 7V17C7.5 17.5523 7.94772 18 8.5 18H14C15.933 18 17.5 16.433 17.5 14.5C17.5 13.5207 17.0978 12.6353 16.4495 12C17.0978 11.3647 17.5 10.4793 17.5 9.5C17.5 7.567 15.933 6 14 6H8.5ZM15.5 9.5C15.5 10.3284 14.8284 11 14 11H9.5V8H14C14.8284 8 15.5 8.67157 15.5 9.5ZM14 13H9.5V16H14C14.8284 16 15.5 15.3284 15.5 14.5C15.5 13.6716 14.8284 13 14 13Z" fill="#000640"/>
<path fill-rule="evenodd" clip-rule="evenodd" d="M12 0C5.37258 0 0 5.37258 0 12C0 18.6274 5.37258 24 12 24C18.6274 24 24 18.6274 24 12C24 5.37258 18.6274 0 12 0ZM2 12C2 6.47715 6.47715 2 12 2C17.5228 2 22 6.47715 22 12C22 17.5228 17.5228 22 12 22C6.47715 22 2 17.5228 2 12Z" fill="#000640"/>
</g>
<defs>
<clipPath id="clip0_1253_5191">
<rect width="24" height="24" fill="white"/>
</clipPath>
</defs>
</svg>
