<svg width="24" height="24" viewBox="0 0 24 24" fill="none" xmlns="http://www.w3.org/2000/svg">
<g clip-path="url(#clip0_1253_5159)">
<path fill-rule="evenodd" clip-rule="evenodd" d="M8 6C7.44772 6 7 6.44772 7 7V17C7 17.5523 7.44772 18 8 18C8.55229 18 9 17.5523 9 17V13H11.5194L15.2191 17.6247C15.5641 18.056 16.1934 18.1259 16.6247 17.7809C17.056 17.4359 17.1259 16.8066 16.7809 16.3753L14.0467 12.9576C15.72 12.6951 17 11.247 17 9.5C17 7.567 15.433 6 13.5 6H8ZM13.5 11H9V8H13.5C14.3284 8 15 8.67157 15 9.5C15 10.3284 14.3284 11 13.5 11Z" fill="#000640"/>
<path fill-rule="evenodd" clip-rule="evenodd" d="M12 0C5.37258 0 0 5.37258 0 12C0 18.6274 5.37258 24 12 24C18.6274 24 24 18.6274 24 12C24 5.37258 18.6274 0 12 0ZM2 12C2 6.47715 6.47715 2 12 2C17.5228 2 22 6.47715 22 12C22 17.5228 17.5228 22 12 22C6.47715 22 2 17.5228 2 12Z" fill="#000640"/>
</g>
<defs>
<clipPath id="clip0_1253_5159">
<rect width="24" height="24" fill="white"/>
</clipPath>
</defs>
</svg>
