<svg width="24" height="24" viewBox="0 0 24 24" fill="none" xmlns="http://www.w3.org/2000/svg">
<g clip-path="url(#clip0_1253_5149)">
<path d="M8.49505 6.90045C8.4401 6.3509 7.95005 5.94996 7.40051 6.00492C6.85097 6.05987 6.45002 6.54991 6.50498 7.09946L7.50498 17.0995C7.54928 17.5425 7.88114 17.9029 8.31903 17.9834C8.75691 18.064 9.19533 17.8454 9.39444 17.4472L12 12.236L14.6056 17.4472C14.8047 17.8454 15.2431 18.064 15.681 17.9834C16.1189 17.9029 16.4507 17.5425 16.4951 17.0995L17.4951 7.09946C17.55 6.54991 17.1491 6.05987 16.5995 6.00492C16.05 5.94996 15.5599 6.3509 15.505 6.90045L14.8489 13.4616L12.8944 9.55274C12.725 9.21395 12.3788 8.99995 12 8.99995C11.6212 8.99995 11.275 9.21395 11.1056 9.55274L9.15116 13.4616L8.49505 6.90045Z" fill="#000640"/>
<path fill-rule="evenodd" clip-rule="evenodd" d="M12 0C5.37258 0 0 5.37258 0 12C0 18.6274 5.37258 24 12 24C18.6274 24 24 18.6274 24 12C24 5.37258 18.6274 0 12 0ZM2 12C2 6.47715 6.47715 2 12 2C17.5228 2 22 6.47715 22 12C22 17.5228 17.5228 22 12 22C6.47715 22 2 17.5228 2 12Z" fill="#000640"/>
</g>
<defs>
<clipPath id="clip0_1253_5149">
<rect width="24" height="24" fill="white"/>
</clipPath>
</defs>
</svg>
