<svg width="24" height="24" viewBox="0 0 24 24" fill="none" xmlns="http://www.w3.org/2000/svg">
<g clip-path="url(#clip0_1253_5177)">
<path d="M9 6C8.44771 6 8 6.44772 8 7C8 7.55228 8.44771 8 9 8H11V16H9C8.44771 16 8 16.4477 8 17C8 17.5523 8.44771 18 9 18H15C15.5523 18 16 17.5523 16 17C16 16.4477 15.5523 16 15 16H13V8H15C15.5523 8 16 7.55228 16 7C16 6.44772 15.5523 6 15 6H9Z" fill="#000640"/>
<path fill-rule="evenodd" clip-rule="evenodd" d="M12 0C5.37258 0 0 5.37258 0 12C0 18.6274 5.37258 24 12 24C18.6274 24 24 18.6274 24 12C24 5.37258 18.6274 0 12 0ZM2 12C2 6.47715 6.47715 2 12 2C17.5228 2 22 6.47715 22 12C22 17.5228 17.5228 22 12 22C6.47715 22 2 17.5228 2 12Z" fill="#000640"/>
</g>
<defs>
<clipPath id="clip0_1253_5177">
<rect width="24" height="24" fill="white"/>
</clipPath>
</defs>
</svg>
