<svg width="24" height="24" viewBox="0 0 24 24" fill="none" xmlns="http://www.w3.org/2000/svg">
<g clip-path="url(#clip0_1253_5167)">
<path d="M8.78087 6.37536C8.51557 6.04374 8.06974 5.91585 7.66899 6.05643C7.26825 6.197 7 6.57537 7 7.00006V17.0001C7 17.5523 7.44772 18.0001 8 18.0001C8.55229 18.0001 9 17.5523 9 17.0001V9.85084L15.2191 17.6248C15.4844 17.9564 15.9303 18.0843 16.331 17.9437C16.7318 17.8031 17 17.4247 17 17.0001V7.00006C17 6.44777 16.5523 6.00006 16 6.00006C15.4477 6.00006 15 6.44777 15 7.00006V14.1493L8.78087 6.37536Z" fill="#000640"/>
<path fill-rule="evenodd" clip-rule="evenodd" d="M12 0C5.37258 0 0 5.37258 0 12C0 18.6274 5.37258 24 12 24C18.6274 24 24 18.6274 24 12C24 5.37258 18.6274 0 12 0ZM2 12C2 6.47715 6.47715 2 12 2C17.5228 2 22 6.47715 22 12C22 17.5228 17.5228 22 12 22C6.47715 22 2 17.5228 2 12Z" fill="#000640"/>
</g>
<defs>
<clipPath id="clip0_1253_5167">
<rect width="24" height="24" fill="white"/>
</clipPath>
</defs>
</svg>
