<svg width="24" height="24" viewBox="0 0 24 24" fill="none" xmlns="http://www.w3.org/2000/svg">
<g clip-path="url(#clip0_1253_5181)">
<path d="M8 12C8 9.18119 9.84655 7.5 12 7.5C13.1798 7.5 14.2224 7.99312 14.9456 8.84755C15.3024 9.2691 15.9334 9.32159 16.3549 8.96478C16.7765 8.60798 16.829 7.97699 16.4722 7.55544C15.3655 6.24795 13.7626 5.5 12 5.5C8.6306 5.5 6 8.19139 6 12C6 15.7023 8.29714 18.5 11.5 18.5C13.0313 18.5 14.4314 17.9487 15.5 16.9837V17.5C15.5 18.0523 15.9477 18.5 16.5 18.5C17.0523 18.5 17.5 18.0523 17.5 17.5V13C17.5 12.4477 17.0523 12 16.5 12H12C11.4477 12 11 12.4477 11 13C11 13.5523 11.4477 14 12 14H15.2018C14.5548 15.5801 13.1266 16.5 11.5 16.5C9.70286 16.5 8 14.9251 8 12Z" fill="#000640"/>
<path fill-rule="evenodd" clip-rule="evenodd" d="M12 0C5.37258 0 0 5.37258 0 12C0 18.6274 5.37258 24 12 24C18.6274 24 24 18.6274 24 12C24 5.37258 18.6274 0 12 0ZM2 12C2 6.47715 6.47715 2 12 2C17.5228 2 22 6.47715 22 12C22 17.5228 17.5228 22 12 22C6.47715 22 2 17.5228 2 12Z" fill="#000640"/>
</g>
<defs>
<clipPath id="clip0_1253_5181">
<rect width="24" height="24" fill="white"/>
</clipPath>
</defs>
</svg>
