<svg width="24" height="24" viewBox="0 0 24 24" fill="none" xmlns="http://www.w3.org/2000/svg">
<g clip-path="url(#clip0_1253_5173)">
<path d="M16.6644 7.74742C17.0771 7.3805 17.1143 6.74843 16.7474 6.33565C16.3805 5.92286 15.7484 5.88568 15.3356 6.2526L10.8424 10.2466L9 11.8258V7.00001C9 6.44773 8.55229 6.00001 8 6.00001C7.44772 6.00001 7 6.44773 7 7.00001V17C7 17.5523 7.44772 18 8 18C8.55229 18 9 17.5523 9 17V14.4599L11.3404 12.4539L15.2 17.6C15.5314 18.0418 16.1582 18.1314 16.6 17.8C17.0418 17.4686 17.1314 16.8418 16.8 16.4L12.8521 11.1361L16.6644 7.74742Z" fill="#000640"/>
<path fill-rule="evenodd" clip-rule="evenodd" d="M12 0C5.37258 0 0 5.37258 0 12C0 18.6274 5.37258 24 12 24C18.6274 24 24 18.6274 24 12C24 5.37258 18.6274 0 12 0ZM2 12C2 6.47715 6.47715 2 12 2C17.5228 2 22 6.47715 22 12C22 17.5228 17.5228 22 12 22C6.47715 22 2 17.5228 2 12Z" fill="#000640"/>
</g>
<defs>
<clipPath id="clip0_1253_5173">
<rect width="24" height="24" fill="white"/>
</clipPath>
</defs>
</svg>
