<svg width="24" height="24" viewBox="0 0 24 24" fill="none" xmlns="http://www.w3.org/2000/svg">
<g clip-path="url(#clip0_1253_5147)">
<path d="M7.37528 6.21917C7.80654 5.87416 8.43583 5.94408 8.78084 6.37534L12 10.3993L15.2191 6.37534C15.5641 5.94408 16.1934 5.87416 16.6247 6.21917C17.0559 6.56418 17.1259 7.19347 16.7808 7.62473L13.2806 12L16.7808 16.3753C17.1259 16.8066 17.0559 17.4359 16.6247 17.7809C16.1934 18.1259 15.5641 18.056 15.2191 17.6247L12 13.6008L8.78084 17.6247C8.43583 18.056 7.80654 18.1259 7.37528 17.7809C6.94402 17.4359 6.8741 16.8066 7.21911 16.3753L10.7194 12L7.21911 7.62473C6.8741 7.19347 6.94402 6.56418 7.37528 6.21917Z" fill="#000640"/>
<path fill-rule="evenodd" clip-rule="evenodd" d="M0 12C0 5.37258 5.37258 0 12 0C18.6274 0 24 5.37258 24 12C24 18.6274 18.6274 24 12 24C5.37258 24 0 18.6274 0 12ZM12 2C6.47715 2 2 6.47715 2 12C2 17.5228 6.47715 22 12 22C17.5228 22 22 17.5228 22 12C22 6.47715 17.5228 2 12 2Z" fill="#000640"/>
</g>
<defs>
<clipPath id="clip0_1253_5147">
<rect width="24" height="24" fill="white"/>
</clipPath>
</defs>
</svg>
