<svg width="24" height="24" viewBox="0 0 24 24" fill="none" xmlns="http://www.w3.org/2000/svg">
<g clip-path="url(#clip0_1253_5161)">
<path fill-rule="evenodd" clip-rule="evenodd" d="M17.5 11.5C17.5 12.8474 17.2395 14.135 16.7302 15.2355L17.2071 15.7124C17.5976 16.1029 17.5976 16.7361 17.2071 17.1266C16.8166 17.5172 16.1834 17.5172 15.7929 17.1266L15.598 16.9317C14.6878 17.8935 13.4652 18.5 12 18.5C10.2544 18.5 8.84348 17.6365 7.90224 16.326C6.97564 15.0358 6.5 13.3195 6.5 11.5C6.5 9.67787 6.97772 8.06033 7.93803 6.87716C8.91573 5.67258 10.3309 5 12 5C13.6691 5 15.0843 5.67258 16.062 6.87716C17.0223 8.06033 17.5 9.67787 17.5 11.5ZM8.5 11.5C8.5 10.0084 8.89157 8.87597 9.4909 8.13755C10.0728 7.42057 10.9077 7 12 7C13.0923 7 13.9272 7.42057 14.5091 8.13755C15.1084 8.87597 15.5 10.0084 15.5 11.5C15.5 12.2992 15.3872 13.0397 15.1848 13.6908C14.7928 13.322 14.1761 13.3293 13.7929 13.7124C13.4024 14.1029 13.4024 14.7361 13.7929 15.1266L14.1837 15.5174C13.5997 16.1549 12.8595 16.5 12 16.5C10.9841 16.5 10.1451 16.0203 9.52669 15.1593C8.89365 14.2779 8.5 12.9942 8.5 11.5Z" fill="#000640"/>
<path fill-rule="evenodd" clip-rule="evenodd" d="M12 0C5.37258 0 0 5.37258 0 12C0 18.6274 5.37258 24 12 24C18.6274 24 24 18.6274 24 12C24 5.37258 18.6274 0 12 0ZM2 12C2 6.47715 6.47715 2 12 2C17.5228 2 22 6.47715 22 12C22 17.5228 17.5228 22 12 22C6.47715 22 2 17.5228 2 12Z" fill="#000640"/>
</g>
<defs>
<clipPath id="clip0_1253_5161">
<rect width="24" height="24" fill="white"/>
</clipPath>
</defs>
</svg>
