<svg width="24" height="24" viewBox="0 0 24 24" fill="none" xmlns="http://www.w3.org/2000/svg">
<g clip-path="url(#clip0_1253_5187)">
<path fill-rule="evenodd" clip-rule="evenodd" d="M8.5 6C7.94772 6 7.5 6.44772 7.5 7V17C7.5 17.5523 7.94772 18 8.5 18H11.5C14.8137 18 17.5 15.3137 17.5 12C17.5 8.68629 14.8137 6 11.5 6H8.5ZM11.5 16H9.5V8H11.5C13.7091 8 15.5 9.79086 15.5 12C15.5 14.2091 13.7091 16 11.5 16Z" fill="#000640"/>
<path fill-rule="evenodd" clip-rule="evenodd" d="M12 0C5.37258 0 0 5.37258 0 12C0 18.6274 5.37258 24 12 24C18.6274 24 24 18.6274 24 12C24 5.37258 18.6274 0 12 0ZM2 12C2 6.47715 6.47715 2 12 2C17.5228 2 22 6.47715 22 12C22 17.5228 17.5228 22 12 22C6.47715 22 2 17.5228 2 12Z" fill="#000640"/>
</g>
<defs>
<clipPath id="clip0_1253_5187">
<rect width="24" height="24" fill="white"/>
</clipPath>
</defs>
</svg>
