<svg width="24" height="24" viewBox="0 0 24 24" fill="none" xmlns="http://www.w3.org/2000/svg">
<g clip-path="url(#clip0_1253_5143)">
<path d="M8.00001 6C7.44772 6 7.00001 6.44772 7.00001 7C7.00001 7.55228 7.44772 8 8.00001 8H13.9194L7.21914 16.3753C6.979 16.6755 6.93219 17.0867 7.09871 17.4332C7.26523 17.7797 7.6156 18 8.00001 18H16C16.5523 18 17 17.5523 17 17C17 16.4477 16.5523 16 16 16H10.0806L16.7809 7.62469C17.021 7.32452 17.0678 6.91328 16.9013 6.56681C16.7348 6.22035 16.3844 6 16 6H8.00001Z" fill="#000640"/>
<path fill-rule="evenodd" clip-rule="evenodd" d="M12 0C5.37258 0 0 5.37258 0 12C0 18.6274 5.37258 24 12 24C18.6274 24 24 18.6274 24 12C24 5.37258 18.6274 0 12 0ZM2 12C2 6.47715 6.47715 2 12 2C17.5228 2 22 6.47715 22 12C22 17.5228 17.5228 22 12 22C6.47715 22 2 17.5228 2 12Z" fill="#000640"/>
</g>
<defs>
<clipPath id="clip0_1253_5143">
<rect width="24" height="24" fill="white"/>
</clipPath>
</defs>
</svg>
