<svg width="24" height="24" viewBox="0 0 24 24" fill="none" xmlns="http://www.w3.org/2000/svg">
<g clip-path="url(#clip0_1253_5175)">
<path d="M9 6C8.44771 6 8 6.44772 8 7C8 7.55228 8.44771 8 9 8H13V15C13 15.8284 12.3284 16.5 11.5 16.5C10.8865 16.5 10.3568 16.1315 10.1244 15.5996C9.90326 15.0935 9.31374 14.8625 8.80765 15.0836C8.30156 15.3048 8.07055 15.8943 8.29167 16.4004C8.83084 17.6344 10.0632 18.5 11.5 18.5C13.433 18.5 15 16.933 15 15V8C15.5523 8 16 7.55228 16 7C16 6.44772 15.5523 6 15 6H9Z" fill="#000640"/>
<path fill-rule="evenodd" clip-rule="evenodd" d="M12 0C5.37258 0 0 5.37258 0 12C0 18.6274 5.37258 24 12 24C18.6274 24 24 18.6274 24 12C24 5.37258 18.6274 0 12 0ZM2 12C2 6.47715 6.47715 2 12 2C17.5228 2 22 6.47715 22 12C22 17.5228 17.5228 22 12 22C6.47715 22 2 17.5228 2 12Z" fill="#000640"/>
</g>
<defs>
<clipPath id="clip0_1253_5175">
<rect width="24" height="24" fill="white"/>
</clipPath>
</defs>
</svg>
