<svg width="24" height="24" viewBox="0 0 24 24" fill="none" xmlns="http://www.w3.org/2000/svg">
<g clip-path="url(#clip0_1253_5151)">
<path d="M8.93448 6.64403C8.73787 6.12793 8.1601 5.86893 7.644 6.06554C7.1279 6.26215 6.8689 6.83992 7.06551 7.35602L11.0655 17.856C11.2132 18.2438 11.5851 18.5 12 18.5C12.4149 18.5 12.7868 18.2438 12.9345 17.856L16.9345 7.35602C17.1311 6.83992 16.8721 6.26215 16.356 6.06554C15.8399 5.86893 15.2621 6.12793 15.0655 6.64403L12 14.691L8.93448 6.64403Z" fill="#000640"/>
<path fill-rule="evenodd" clip-rule="evenodd" d="M12 0C5.37258 0 0 5.37258 0 12C0 18.6274 5.37258 24 12 24C18.6274 24 24 18.6274 24 12C24 5.37258 18.6274 0 12 0ZM2 12C2 6.47715 6.47715 2 12 2C17.5228 2 22 6.47715 22 12C22 17.5228 17.5228 22 12 22C6.47715 22 2 17.5228 2 12Z" fill="#000640"/>
</g>
<defs>
<clipPath id="clip0_1253_5151">
<rect width="24" height="24" fill="white"/>
</clipPath>
</defs>
</svg>
