<svg width="24" height="24" viewBox="0 0 24 24" fill="none" xmlns="http://www.w3.org/2000/svg">
<g clip-path="url(#clip0_1253_5189)">
<path d="M8 12C8 9.44378 9.90753 7.5 12.1079 7.5C13.3328 7.5 14.4498 8.08902 15.2154 9.05799C15.5577 9.49134 16.1866 9.56507 16.6199 9.22269C17.0533 8.8803 17.127 8.25144 16.7846 7.8181C15.6764 6.41544 14.0014 5.5 12.1079 5.5C8.66623 5.5 6 8.48109 6 12C6 15.5189 8.66623 18.5 12.1079 18.5C14.0014 18.5 15.6764 17.5846 16.7846 16.1819C17.127 15.7486 17.0533 15.1197 16.6199 14.7773C16.1866 14.4349 15.5577 14.5087 15.2154 14.942C14.4498 15.911 13.3328 16.5 12.1079 16.5C9.90753 16.5 8 14.5562 8 12Z" fill="#000640"/>
<path fill-rule="evenodd" clip-rule="evenodd" d="M12 0C5.37258 0 0 5.37258 0 12C0 18.6274 5.37258 24 12 24C18.6274 24 24 18.6274 24 12C24 5.37258 18.6274 0 12 0ZM2 12C2 6.47715 6.47715 2 12 2C17.5228 2 22 6.47715 22 12C22 17.5228 17.5228 22 12 22C6.47715 22 2 17.5228 2 12Z" fill="#000640"/>
</g>
<defs>
<clipPath id="clip0_1253_5189">
<rect width="24" height="24" fill="white"/>
</clipPath>
</defs>
</svg>
