<svg width="24" height="24" viewBox="0 0 24 24" fill="none" xmlns="http://www.w3.org/2000/svg">
<g clip-path="url(#clip0_1253_5153)">
<path d="M9 7C9 6.44772 8.55229 6 8 6C7.44772 6 7 6.44772 7 7V14C7 15.4006 7.57911 16.5588 8.53413 17.3489C9.47002 18.1232 10.7091 18.5 12 18.5C13.2909 18.5 14.53 18.1232 15.4659 17.3489C16.4209 16.5588 17 15.4006 17 14V7C17 6.44772 16.5523 6 16 6C15.4477 6 15 6.44772 15 7V14C15 14.8085 14.6837 15.4003 14.191 15.8079C13.6792 16.2314 12.9182 16.5 12 16.5C11.0818 16.5 10.3208 16.2314 9.80902 15.8079C9.31633 15.4003 9 14.8085 9 14V7Z" fill="#000640"/>
<path fill-rule="evenodd" clip-rule="evenodd" d="M12 0C5.37258 0 0 5.37258 0 12C0 18.6274 5.37258 24 12 24C18.6274 24 24 18.6274 24 12C24 5.37258 18.6274 0 12 0ZM2 12C2 6.47715 6.47715 2 12 2C17.5228 2 22 6.47715 22 12C22 17.5228 17.5228 22 12 22C6.47715 22 2 17.5228 2 12Z" fill="#000640"/>
</g>
<defs>
<clipPath id="clip0_1253_5153">
<rect width="24" height="24" fill="white"/>
</clipPath>
</defs>
</svg>
