<svg width="24" height="24" viewBox="0 0 24 24" fill="none" xmlns="http://www.w3.org/2000/svg">
<g clip-path="url(#clip0_1253_5163)">
<path fill-rule="evenodd" clip-rule="evenodd" d="M9 6C8.44771 6 8 6.44772 8 7V17C8 17.5523 8.44771 18 9 18C9.55229 18 10 17.5523 10 17V14H13.5C14.4403 14 15.3465 13.6535 16.0093 12.9209C16.6664 12.1947 17 11.1841 17 10C17 8.8159 16.6664 7.80534 16.0093 7.07906C15.3465 6.34654 14.4403 6 13.5 6H9ZM13.5 12H10V8H13.5C13.9404 8 14.2842 8.15346 14.5263 8.42094C14.7739 8.69466 15 9.1841 15 10C15 10.8159 14.7739 11.3053 14.5263 11.5791C14.2842 11.8465 13.9404 12 13.5 12Z" fill="#000640"/>
<path fill-rule="evenodd" clip-rule="evenodd" d="M12 0C5.37258 0 0 5.37258 0 12C0 18.6274 5.37258 24 12 24C18.6274 24 24 18.6274 24 12C24 5.37258 18.6274 0 12 0ZM2 12C2 6.47715 6.47715 2 12 2C17.5228 2 22 6.47715 22 12C22 17.5228 17.5228 22 12 22C6.47715 22 2 17.5228 2 12Z" fill="#000640"/>
</g>
<defs>
<clipPath id="clip0_1253_5163">
<rect width="24" height="24" fill="white"/>
</clipPath>
</defs>
</svg>
