<svg width="24" height="24" viewBox="0 0 24 24" fill="none" xmlns="http://www.w3.org/2000/svg">
<g clip-path="url(#clip0_1253_5169)">
<path d="M8.78087 6.37536C8.51557 6.04374 8.06974 5.91585 7.66899 6.05643C7.26825 6.197 7 6.57537 7 7.00006V17.0001C7 17.5523 7.44772 18.0001 8 18.0001C8.55229 18.0001 9 17.5523 9 17.0001V9.85084L11.2191 12.6248C11.4089 12.862 11.6962 13.0001 12 13.0001C12.3038 13.0001 12.5911 12.862 12.7809 12.6248L15 9.85084V17.0001C15 17.5523 15.4477 18.0001 16 18.0001C16.5523 18.0001 17 17.5523 17 17.0001V7.00006C17 6.57537 16.7318 6.197 16.331 6.05643C15.9303 5.91585 15.4844 6.04374 15.2191 6.37536L12 10.3993L8.78087 6.37536Z" fill="#000640"/>
<path fill-rule="evenodd" clip-rule="evenodd" d="M12 0C5.37258 0 0 5.37258 0 12C0 18.6274 5.37258 24 12 24C18.6274 24 24 18.6274 24 12C24 5.37258 18.6274 0 12 0ZM2 12C2 6.47715 6.47715 2 12 2C17.5228 2 22 6.47715 22 12C22 17.5228 17.5228 22 12 22C6.47715 22 2 17.5228 2 12Z" fill="#000640"/>
</g>
<defs>
<clipPath id="clip0_1253_5169">
<rect width="24" height="24" fill="white"/>
</clipPath>
</defs>
</svg>
