<svg width="24" height="24" viewBox="0 0 24 24" fill="none" xmlns="http://www.w3.org/2000/svg">
<path d="M12 9.99991C12 10.5522 11.5523 10.9999 11 10.9999H10V12C10 12.5523 9.55229 13 9 13C8.44771 13 8 12.5523 8 12V10.9999H7C6.44771 10.9999 6 10.5522 6 9.99991C6 9.44762 6.44771 8.99991 7 8.99991H8V8C8 7.44772 8.44771 7 9 7C9.55229 7 10 7.44772 10 8V8.99991H11C11.5523 8.99991 12 9.44762 12 9.99991Z" fill="#000640"/>
<path fill-rule="evenodd" clip-rule="evenodd" d="M20.8293 19H23C23.5523 19 24 18.5523 24 18V11C24 10.8646 23.9725 10.7306 23.9191 10.6061L21.4386 4.81824C20.9659 3.71519 19.8813 3 18.6812 3H3C1.34315 3 0 4.34315 0 6V18C0 18.5523 0.447715 19 1 19H3.17071C3.58254 20.1652 4.69378 21 6 21C7.30622 21 8.41746 20.1652 8.82929 19H15.1707C15.5825 20.1652 16.6938 21 18 21C19.3062 21 20.4175 20.1652 20.8293 19ZM3 5C2.44772 5 2 5.44772 2 6V17H3.17071C3.58254 15.8348 4.69378 15 6 15C7.30622 15 8.41746 15.8348 8.82929 17H15.1707C15.5825 15.8348 16.6938 15 18 15C19.3062 15 20.4175 15.8348 20.8293 17H22V12H18C16.3431 12 15 10.6569 15 9V5H3ZM18.6812 5H17V9C17 9.55228 17.4477 10 18 10H21.4835L19.6004 5.60608C19.4428 5.2384 19.0812 5 18.6812 5ZM6 17C5.44772 17 5 17.4477 5 18C5 18.5523 5.44772 19 6 19C6.55228 19 7 18.5523 7 18C7 17.4477 6.55228 17 6 17ZM18 17C17.4477 17 17 17.4477 17 18C17 18.5523 17.4477 19 18 19C18.5523 19 19 18.5523 19 18C19 17.4477 18.5523 17 18 17Z" fill="#000640"/>
</svg>
