<svg width="24" height="24" viewBox="0 0 24 24" fill="none" xmlns="http://www.w3.org/2000/svg">
<path fill-rule="evenodd" clip-rule="evenodd" d="M9 8C6.79086 8 5 9.79086 5 12C5 14.2091 6.79086 16 9 16C11.2091 16 13 14.2091 13 12C13 9.79086 11.2091 8 9 8ZM7 12C7 10.8954 7.89543 10 9 10C10.1046 10 11 10.8954 11 12C11 13.1046 10.1046 14 9 14C7.89543 14 7 13.1046 7 12Z" fill="#000640"/>
<path d="M16 10C16 9.44771 16.4477 9 17 9H18C18.5523 9 19 9.44771 19 10C19 10.5523 18.5523 11 18 11H17C16.4477 11 16 10.5523 16 10Z" fill="#000640"/>
<path d="M17 13C16.4477 13 16 13.4477 16 14C16 14.5523 16.4477 15 17 15H18C18.5523 15 19 14.5523 19 14C19 13.4477 18.5523 13 18 13H17Z" fill="#000640"/>
<path fill-rule="evenodd" clip-rule="evenodd" d="M6 1C5.56957 1 5.18743 1.27543 5.05132 1.68377L4.27924 4H4C2.34315 4 1 5.34315 1 7V18C1 19.6569 2.34315 21 4 21H20C21.6569 21 23 19.6569 23 18V7C23 5.34315 21.6569 4 20 4H13.7208L12.9487 1.68377C12.8126 1.27543 12.4304 1 12 1H6ZM5.94868 5.31623L6.72076 3H11.2792L12.0513 5.31623C12.1874 5.72457 12.5696 6 13 6H20C20.5523 6 21 6.44772 21 7V18C21 18.5523 20.5523 19 20 19H4C3.44772 19 3 18.5523 3 18V7C3 6.44772 3.44772 6 4 6H5C5.43043 6 5.81257 5.72457 5.94868 5.31623Z" fill="#000640"/>
</svg>
