<svg width="24" height="24" viewBox="0 0 24 24" fill="none" xmlns="http://www.w3.org/2000/svg">
<path fill-rule="evenodd" clip-rule="evenodd" d="M16 5C16 6.86384 14.7252 8.42994 13 8.87398V9H15C15.5523 9 16 9.44771 16 10C16 10.5523 15.5523 11 15 11H13V20.9518C15.1206 20.7469 17.0169 19.9038 18.4329 18.7301C19.7457 17.642 20.5965 16.3162 20.8878 15H20C19.4477 15 19 14.5523 19 14C19 13.4477 19.4477 13 20 13H22C22.5523 13 23 13.4477 23 14C23 16.3747 21.6813 18.6353 19.7092 20.2699C17.7251 21.9145 15.0008 23 12 23C8.99917 23 6.27486 21.9145 4.29077 20.2699C2.3187 18.6353 1 16.3747 1 14C1 13.4477 1.44772 13 2 13H4C4.55228 13 5 13.4477 5 14C5 14.5523 4.55228 15 4 15H3.11215C3.40352 16.3162 4.25433 17.642 5.5671 18.7301C6.9831 19.9038 8.87938 20.7469 11 20.9518V11H9C8.44772 11 8 10.5523 8 10C8 9.44771 8.44772 9 9 9H11V8.87398C9.27477 8.42994 8 6.86384 8 5C8 2.79086 9.79086 1 12 1C14.2091 1 16 2.79086 16 5ZM12 3C10.8954 3 10 3.89543 10 5C10 6.10457 10.8954 7 12 7C13.1046 7 14 6.10457 14 5C14 3.89543 13.1046 3 12 3Z" fill="#000640"/>
</svg>
