<svg width="24" height="24" viewBox="0 0 24 24" fill="none" xmlns="http://www.w3.org/2000/svg">
<path d="M14.7 11.45L9.825 6.575C10.1083 6.39167 10.4375 6.23333 10.8125 6.1C11.1875 5.96667 11.5833 5.9 12 5.9C12.9667 5.9 13.7792 6.22917 14.4375 6.8875C15.0958 7.54583 15.425 8.35833 15.425 9.325C15.425 9.74167 15.3625 10.1542 15.2375 10.5625C15.1125 10.9708 14.9333 11.2667 14.7 11.45ZM5.6 17.675C6.65 17.025 7.67083 16.5167 8.6625 16.15C9.65417 15.7833 10.7667 15.6 12 15.6C12.6167 15.6 13.2042 15.6458 13.7625 15.7375C14.3208 15.8292 14.7917 15.9417 15.175 16.075L11.825 12.725C10.8917 12.6917 10.1417 12.3917 9.575 11.825C9.00833 11.2583 8.7 10.5417 8.65 9.675L5.45 6.475C4.83333 7.225 4.35417 8.05417 4.0125 8.9625C3.67083 9.87083 3.5 10.8833 3.5 12C3.5 13.0167 3.66667 13.9917 4 14.925C4.33333 15.8583 4.86667 16.775 5.6 17.675ZM18.6 17.5C19.1833 16.8 19.6458 15.9833 19.9875 15.05C20.3292 14.1167 20.5 13.1 20.5 12C20.5 9.46667 19.7167 7.41667 18.15 5.85C16.5833 4.28333 14.5333 3.5 12 3.5C10.8333 3.5 9.8 3.675 8.9 4.025C8 4.375 7.2 4.83333 6.5 5.4L18.6 17.5ZM12 22C10.6 22 9.29167 21.7417 8.075 21.225C6.85833 20.7083 5.8 20 4.9 19.1C4 18.2 3.29167 17.1417 2.775 15.925C2.25833 14.7083 2 13.4 2 12C2 10.6 2.25833 9.29167 2.775 8.075C3.29167 6.85833 4 5.8 4.9 4.9C5.8 4 6.85833 3.29167 8.075 2.775C9.29167 2.25833 10.6 2 12 2C13.4 2 14.7083 2.25833 15.925 2.775C17.1417 3.29167 18.2 4 19.1 4.9C20 5.8 20.7083 6.85833 21.225 8.075C21.7417 9.29167 22 10.6 22 12C22 13.4 21.7417 14.7083 21.225 15.925C20.7083 17.1417 20 18.2 19.1 19.1C18.2 20 17.1417 20.7083 15.925 21.225C14.7083 21.7417 13.4 22 12 22Z" fill="#090909"/>
</svg>
