<svg width="24" height="24" viewBox="0 0 24 24" fill="none" xmlns="http://www.w3.org/2000/svg">
<path d="M20 23C21.6569 23 23 21.6569 23 20L23 4C23 2.34315 21.6569 1 20 1H4C2.34315 1 1 2.34315 1 4V7C1 7.55229 1.44772 8 2 8C2.55229 8 3 7.55229 3 7L3 4C3 3.44772 3.44772 3 4 3L20 3C20.5523 3 21 3.44772 21 4L21 20C21 20.5523 20.5523 21 20 21L4 21C3.44772 21 3 20.5523 3 20L3 17C3 16.4477 2.55228 16 2 16C1.44772 16 1 16.4477 1 17V20C1 21.6569 2.34315 23 4 23L20 23Z" fill="#000640"/>
<path d="M6.29289 12.7071C5.90237 12.3166 5.90237 11.6834 6.29289 11.2929L10.2929 7.2929C10.6834 6.90237 11.3166 6.90237 11.7071 7.2929C12.0976 7.68342 12.0976 8.31659 11.7071 8.70711L9.41422 11L17 11C17.5523 11 18 11.4477 18 12C18 12.5523 17.5523 13 17 13L9.41421 13L11.7071 15.2929C12.0976 15.6834 12.0976 16.3166 11.7071 16.7071C11.3166 17.0976 10.6834 17.0976 10.2929 16.7071L6.29289 12.7071Z" fill="#000640"/>
</svg>
