<svg width="24" height="24" viewBox="0 0 24 24" fill="none" xmlns="http://www.w3.org/2000/svg">
<path fill-rule="evenodd" clip-rule="evenodd" d="M15.1213 7.70711C13.9497 6.53554 12.0503 6.53554 10.8787 7.70711L4 14.5858V10C4 9.44772 3.55228 9 3 9C2.44772 9 2 9.44772 2 10V17C2 17.5523 2.44772 18 3 18H10C10.5523 18 11 17.5523 11 17C11 16.4477 10.5523 16 10 16H5.41421L12.2929 9.12132C12.6834 8.7308 13.3166 8.7308 13.7071 9.12132L20.2929 15.7071C20.6834 16.0976 21.3166 16.0976 21.7071 15.7071C22.0976 15.3166 22.0976 14.6834 21.7071 14.2929L15.1213 7.70711Z" fill="#000640"/>
</svg>
