<svg width="24" height="24" viewBox="0 0 24 24" fill="none" xmlns="http://www.w3.org/2000/svg">
<path fill-rule="evenodd" clip-rule="evenodd" d="M20.7783 20.7781C20.5778 20.9786 20.3017 21.0845 20.0186 21.0696L6.58356 20.3625C6.1892 20.3418 5.84398 20.0909 5.7025 19.7222C5.56102 19.3535 5.64977 18.9361 5.92901 18.6568L8.75744 15.8284L5.22191 12.2929C4.83138 11.9023 4.83138 11.2692 5.22191 10.8786L10.8788 5.22178C11.2693 4.83126 11.9024 4.83126 12.293 5.22178L15.8285 8.75732L18.6569 5.92889C18.9362 5.64965 19.3536 5.56089 19.7223 5.70238C20.091 5.84386 20.3419 6.18907 20.3627 6.58344L21.0698 20.0185C21.0847 20.3016 20.9787 20.5777 20.7783 20.7781ZM18.4834 8.93082L16.5356 10.8786C16.1451 11.2692 15.5119 11.2692 15.1214 10.8786L11.5859 7.3431L7.34323 11.5857L10.8788 15.1213C11.2693 15.5118 11.2693 16.145 10.8788 16.5355L8.93094 18.4833L19.0141 19.014L18.4834 8.93082ZM9.46455 2.39336C9.85507 2.78388 9.85507 3.41705 9.46455 3.80757L3.80769 9.46442C3.41717 9.85495 2.784 9.85495 2.39348 9.46442C2.00296 9.0739 2.00295 8.44074 2.39348 8.05021L8.05033 2.39336C8.44086 2.00283 9.07402 2.00283 9.46455 2.39336Z" fill="#000640"/>
</svg>
