<svg width="24" height="24" viewBox="0 0 24 24" fill="none" xmlns="http://www.w3.org/2000/svg">
<path fill-rule="evenodd" clip-rule="evenodd" d="M14 8C13.4477 8 13 7.55228 13 7C13 6.44772 13.4477 6 14 6H21C21.5523 6 22 6.44772 22 7V14C22 14.5523 21.5523 15 21 15C20.4477 15 20 14.5523 20 14V9.41421L13.1213 16.2929C11.9497 17.4645 10.0503 17.4645 8.87868 16.2929L2.29289 9.70711C1.90237 9.31658 1.90237 8.68342 2.29289 8.29289C2.68342 7.90237 3.31658 7.90237 3.70711 8.29289L10.2929 14.8787C10.6834 15.2692 11.3166 15.2692 11.7071 14.8787L18.5858 8H14Z" fill="#000640"/>
</svg>
