<svg width="24" height="24" viewBox="0 0 24 24" fill="none" xmlns="http://www.w3.org/2000/svg">
<path fill-rule="evenodd" clip-rule="evenodd" d="M20.778 3.22185C20.9785 3.4223 21.0844 3.69842 21.0695 3.98152L20.3624 17.4165C20.3417 17.8109 20.0908 18.1561 19.7221 18.2976C19.3534 18.4391 18.9359 18.3503 18.6567 18.0711L15.8283 15.2427L12.2927 18.7782C11.9022 19.1687 11.269 19.1687 10.8785 18.7782L5.22166 13.1213C4.83114 12.7308 4.83114 12.0977 5.22166 11.7071L8.7572 8.1716L5.92877 5.34317C5.64952 5.06393 5.56077 4.6465 5.70226 4.2778C5.84374 3.9091 6.18895 3.6582 6.58332 3.63745L20.0183 2.93034C20.3014 2.91544 20.5776 3.02139 20.778 3.22185ZM8.93069 5.51667L10.8785 7.46449C11.269 7.85502 11.269 8.48818 10.8785 8.8787L7.34298 12.4142L11.5856 16.6569L15.1212 13.1213C15.5117 12.7308 16.1448 12.7308 16.5354 13.1213L18.4832 15.0692L19.0139 4.98597L8.93069 5.51667ZM2.39323 14.5356C2.78376 14.145 3.41692 14.145 3.80745 14.5356L9.4643 20.1924C9.85483 20.5829 9.85483 21.2161 9.4643 21.6066C9.07378 21.9972 8.44061 21.9972 8.05009 21.6066L2.39323 15.9498C2.00271 15.5592 2.00271 14.9261 2.39323 14.5356Z" fill="#000640"/>
</svg>
