<svg width="24" height="24" viewBox="0 0 24 24" fill="none" xmlns="http://www.w3.org/2000/svg">
<path d="M20 21C20.5523 21 21 20.5523 21 20L21 4C21 3.44772 20.5523 3 20 3L4 3C3.44772 3 3 3.44772 3 4L3 20C3 20.5523 3.44772 21 4 21H7C7.55229 21 8 21.4477 8 22C8 22.5523 7.55229 23 7 23H4C2.34315 23 1 21.6569 1 20V4C1 2.34315 2.34315 1 4 1H20C21.6569 1 23 2.34315 23 4L23 20C23 21.6569 21.6569 23 20 23H17C16.4477 23 16 22.5523 16 22C16 21.4477 16.4477 21 17 21H20Z" fill="#000640"/>
<path d="M12 6C12.5523 6 13 6.44772 13 7L13 14.5858L15.2929 12.2929C15.6834 11.9024 16.3166 11.9024 16.7071 12.2929C17.0976 12.6834 17.0976 13.3166 16.7071 13.7071L12.7071 17.7071C12.3166 18.0976 11.6834 18.0976 11.2929 17.7071L7.29289 13.7071C6.90237 13.3166 6.90237 12.6834 7.29289 12.2929C7.68342 11.9024 8.31658 11.9024 8.70711 12.2929L11 14.5858L11 7C11 6.44772 11.4477 6 12 6Z" fill="#000640"/>
</svg>
