<svg width="24" height="24" viewBox="0 0 24 24" fill="none" xmlns="http://www.w3.org/2000/svg">
<path d="M4 12C4 14.8756 5.05535 17.4628 6.742 19.3296C7.11225 19.7394 7.08019 20.3718 6.6704 20.742C6.2606 21.1123 5.62825 21.0802 5.258 20.6704C3.236 18.4324 2 15.3661 2 12C2 8.63387 3.23599 5.56759 5.258 3.32961C5.62825 2.91981 6.2606 2.88776 6.6704 3.258C7.08019 3.62825 7.11225 4.26061 6.742 4.6704C5.05534 6.53722 4 9.12446 4 12Z" fill="#000640"/>
<path d="M22 12C22 12.5523 21.5523 13 21 13L9.41421 13L11.7071 15.2929C12.0976 15.6834 12.0976 16.3166 11.7071 16.7071C11.3166 17.0976 10.6834 17.0976 10.2929 16.7071L6.29289 12.7071C5.90237 12.3166 5.90237 11.6834 6.29289 11.2929L10.2929 7.29291C10.6834 6.90238 11.3166 6.90238 11.7071 7.29291C12.0976 7.68343 12.0976 8.3166 11.7071 8.70712L9.41421 11L21 11C21.5523 11 22 11.4477 22 12Z" fill="#000640"/>
</svg>
