<svg width="24" height="24" viewBox="0 0 24 24" fill="none" xmlns="http://www.w3.org/2000/svg">
<path d="M11 14.5858V3C11 2.44772 11.4477 2 12 2C12.5523 2 13 2.44772 13 3L13 14.5858L15.2929 12.2929C15.6834 11.9024 16.3166 11.9024 16.7071 12.2929C17.0976 12.6834 17.0976 13.3166 16.7071 13.7071L12.7071 17.7071C12.3166 18.0976 11.6834 18.0976 11.2929 17.7071L7.29289 13.7071C6.90237 13.3166 6.90237 12.6834 7.29289 12.2929C7.68342 11.9024 8.31658 11.9024 8.70711 12.2929L11 14.5858Z" fill="#000640"/>
<path d="M3.25835 17.3292C3.62882 16.9196 4.26119 16.8879 4.67079 17.2584C6.5347 18.9442 9.12254 20 12 20C14.8775 20 17.4653 18.9442 19.3292 17.2584C19.7388 16.8879 20.3712 16.9196 20.7417 17.3292C21.1121 17.7388 21.0804 18.3712 20.6708 18.7417C18.4351 20.7637 15.3677 22 12 22C8.63233 22 5.56493 20.7637 3.32923 18.7417C2.91962 18.3712 2.88789 17.7388 3.25835 17.3292Z" fill="#000640"/>
</svg>
