<svg width="24" height="24" viewBox="0 0 24 24" fill="none" xmlns="http://www.w3.org/2000/svg">
<g clip-path="url(#clip0_1253_5916)">
<path d="M16.2071 16.2072C15.8166 16.5977 15.1834 16.5977 14.7929 16.2072L9.50027 10.9146V14C9.50027 14.5523 9.05255 15 8.50027 15C7.94799 15 7.50027 14.5523 7.50027 14L7.50027 8.5C7.50027 7.94772 7.94799 7.5 8.50027 7.5L14.0003 7.5C14.5526 7.5 15.0003 7.94772 15.0003 8.5C15.0003 9.05229 14.5526 9.5 14.0003 9.5L10.9141 9.5L16.2071 14.793C16.5976 15.1835 16.5976 15.8167 16.2071 16.2072Z" fill="#000640"/>
<path fill-rule="evenodd" clip-rule="evenodd" d="M12 0C5.37259 -1.73816e-06 1.73816e-06 5.37258 0 12C-1.73816e-06 18.6274 5.37258 24 12 24C18.6274 24 24 18.6274 24 12C24 5.37259 18.6274 1.73816e-06 12 0ZM12 2C6.47715 2 2 6.47715 2 12C2 17.5228 6.47715 22 12 22C17.5228 22 22 17.5229 22 12C22 6.47715 17.5229 2 12 2Z" fill="#000640"/>
</g>
<defs>
<clipPath id="clip0_1253_5916">
<rect width="24" height="24" fill="white"/>
</clipPath>
</defs>
</svg>
