<svg width="24" height="24" viewBox="0 0 24 24" fill="none" xmlns="http://www.w3.org/2000/svg">
<path d="M16.2071 16.2071C16.5976 15.8166 16.5976 15.1834 16.2071 14.7929L10.9144 9.50015H14C14.5523 9.50015 15 9.05244 15 8.50015C15 7.94787 14.5523 7.50015 14 7.50015L8.5 7.50015C7.94772 7.50015 7.5 7.94787 7.5 8.50015L7.5 14.0002C7.5 14.5524 7.94772 15.0002 8.5 15.0002C9.05229 15.0002 9.5 14.5524 9.5 14.0002L9.5 10.9142L14.7929 16.2071C15.1834 16.5976 15.8165 16.5976 16.2071 16.2071Z" fill="#000640"/>
<path fill-rule="evenodd" clip-rule="evenodd" d="M4 1C2.34315 1 1 2.34315 1 4L1 20C1 21.6569 2.34315 23 4 23L20 23C21.6569 23 23 21.6569 23 20L23 4C23 2.34315 21.6569 1 20 1L4 1ZM3 4C3 3.44772 3.44772 3 4 3L20 3C20.5523 3 21 3.44772 21 4L21 20C21 20.5523 20.5523 21 20 21L4 21C3.44772 21 3 20.5523 3 20L3 4Z" fill="#000640"/>
</svg>
