<svg width="24" height="24" viewBox="0 0 24 24" fill="none" xmlns="http://www.w3.org/2000/svg">
<path d="M23 20C23 21.6569 21.6569 23 20 23L4 23C2.34315 23 1 21.6569 1 20V17C1 16.4477 1.44772 16 2 16C2.55228 16 3 16.4477 3 17L3 20C3 20.5523 3.44772 21 4 21L20 21C20.5523 21 21 20.5523 21 20L21 4C21 3.44772 20.5523 3 20 3L4 3C3.44772 3 3 3.44772 3 4L3 7C3 7.55229 2.55229 8 2 8C1.44772 8 1 7.55229 1 7V4C1 2.34315 2.34315 1 4 1H20C21.6569 1 23 2.34315 23 4L23 20Z" fill="#000640"/>
<path d="M9.41421 11L11.7071 8.70711C12.0976 8.31658 12.0976 7.68342 11.7071 7.2929C11.3166 6.90237 10.6834 6.90237 10.2929 7.2929L6.29289 11.2929C5.90237 11.6834 5.90237 12.3166 6.29289 12.7071L10.2929 16.7071C10.6834 17.0976 11.3166 17.0976 11.7071 16.7071C12.0976 16.3166 12.0976 15.6834 11.7071 15.2929L9.41421 13H17C17.5523 13 18 12.5523 18 12C18 11.4477 17.5523 11 17 11H9.41421Z" fill="#000640"/>
</svg>
