<svg width="24" height="24" viewBox="0 0 24 24" fill="none" xmlns="http://www.w3.org/2000/svg">
<path d="M23 4C23 2.34315 21.6569 1 20 1H4C2.34315 1 1 2.34315 1 4V20C1 21.6569 2.34314 23 4 23H7C7.55228 23 8 22.5523 8 22C8 21.4477 7.55228 21 7 21H4C3.44771 21 3 20.5523 3 20L3 4C3 3.44772 3.44772 3 4 3L20 3C20.5523 3 21 3.44772 21 4V20C21 20.5523 20.5523 21 20 21H17C16.4477 21 16 21.4477 16 22C16 22.5523 16.4477 23 17 23H20C21.6569 23 23 21.6569 23 20V4Z" fill="#000640"/>
<path d="M16.7071 11.7071C16.3166 12.0976 15.6834 12.0976 15.2929 11.7071L13 9.41422L13 17C13 17.5523 12.5523 18 12 18C11.4477 18 11 17.5523 11 17V9.41421L8.70711 11.7071C8.31658 12.0976 7.68342 12.0976 7.29289 11.7071C6.90237 11.3166 6.90237 10.6834 7.29289 10.2929L11.2929 6.29289C11.6834 5.90237 12.3166 5.90237 12.7071 6.29289L16.7071 10.2929C17.0976 10.6834 17.0976 11.3166 16.7071 11.7071Z" fill="#000640"/>
</svg>
