<svg width="24" height="24" viewBox="0 0 24 24" fill="none" xmlns="http://www.w3.org/2000/svg">
<g clip-path="url(#clip0_1253_5912)">
<path d="M7.7929 7.7928C8.18342 7.40228 8.81658 7.40227 9.20711 7.7928L14.4997 13.0854V10C14.4997 9.44771 14.9474 9 15.4997 9C16.052 9 16.4997 9.44771 16.4997 10V15.5C16.4997 16.0523 16.052 16.5 15.4997 16.5H9.99973C9.44744 16.5 8.99973 16.0523 8.99973 15.5C8.99973 14.9477 9.44744 14.5 9.99973 14.5L13.0859 14.5L7.7929 9.20702C7.40238 8.81649 7.40238 8.18333 7.7929 7.7928Z" fill="#000640"/>
<path fill-rule="evenodd" clip-rule="evenodd" d="M12 24C18.6274 24 24 18.6274 24 12C24 5.37258 18.6274 0 12 0C5.37258 0 0 5.37258 0 12C0 18.6274 5.37258 24 12 24ZM12 22C17.5228 22 22 17.5228 22 12C22 6.47715 17.5228 2 12 2C6.47715 2 2 6.47715 2 12C2 17.5228 6.47715 22 12 22Z" fill="#000640"/>
</g>
<defs>
<clipPath id="clip0_1253_5912">
<rect width="24" height="24" fill="white"/>
</clipPath>
</defs>
</svg>
