<svg width="24" height="24" viewBox="0 0 24 24" fill="none" xmlns="http://www.w3.org/2000/svg">
<path d="M16.2071 7.7929C16.5976 8.18342 16.5976 8.81659 16.2071 9.20711L10.9145 14.4997H14C14.5523 14.4997 15 14.9474 15 15.4997C15 16.052 14.5523 16.4997 14 16.4997H8.5C7.94772 16.4997 7.5 16.052 7.5 15.4997L7.5 9.99973C7.5 9.44744 7.94772 8.99973 8.5 8.99973C9.05229 8.99973 9.5 9.44744 9.5 9.99973L9.5 13.0858L14.7929 7.79291C15.1834 7.40238 15.8165 7.40238 16.2071 7.7929Z" fill="#000640"/>
<path fill-rule="evenodd" clip-rule="evenodd" d="M4 23C2.34315 23 1 21.6569 1 20L1 4C1 2.34315 2.34315 1 4 1L20 1C21.6569 1 23 2.34315 23 4L23 20C23 21.6569 21.6569 23 20 23L4 23ZM3 20C3 20.5523 3.44772 21 4 21L20 21C20.5523 21 21 20.5523 21 20L21 4C21 3.44772 20.5523 3 20 3L4 3C3.44772 3 3 3.44772 3 4L3 20Z" fill="#000640"/>
</svg>
