<svg width="24" height="24" viewBox="0 0 24 24" fill="none" xmlns="http://www.w3.org/2000/svg">
<path d="M4 3C3.44772 3 3 3.44772 3 4V20C3 20.5523 3.44772 21 4 21H20C20.5523 21 21 20.5523 21 20V4C21 3.44772 20.5523 3 20 3H17C16.4477 3 16 2.55228 16 2C16 1.44772 16.4477 1 17 1H20C21.6569 1 23 2.34315 23 4V20C23 21.6569 21.6569 23 20 23H4C2.34315 23 1 21.6569 1 20V4C1 2.34315 2.34315 1 4 1H7C7.55228 1 8 1.44772 8 2C8 2.55228 7.55228 3 7 3H4Z" fill="#000640"/>
<path d="M12 18C11.4477 18 11 17.5523 11 17V9.41421L8.7071 11.7071C8.31658 12.0976 7.68341 12.0976 7.29289 11.7071C6.90237 11.3166 6.90237 10.6834 7.29289 10.2929L11.2929 6.29289C11.6834 5.90237 12.3166 5.90237 12.7071 6.29289L16.7071 10.2929C17.0976 10.6834 17.0976 11.3166 16.7071 11.7071C16.3166 12.0976 15.6834 12.0976 15.2929 11.7071L13 9.41421V17C13 17.5523 12.5523 18 12 18Z" fill="#000640"/>
</svg>
