<svg width="24" height="24" viewBox="0 0 24 24" fill="none" xmlns="http://www.w3.org/2000/svg">
<path d="M20 12C20 9.12446 18.9447 6.53722 17.258 4.6704C16.8877 4.26061 16.9198 3.62825 17.3296 3.258C17.7394 2.88776 18.3718 2.91981 18.742 3.32961C20.764 5.56759 22 8.63387 22 12C22 15.3661 20.764 18.4324 18.742 20.6704C18.3718 21.0802 17.7394 21.1123 17.3296 20.742C16.9198 20.3718 16.8877 19.7394 17.258 19.3296C18.9447 17.4628 20 14.8756 20 12Z" fill="#000640"/>
<path d="M2 12C2 11.4477 2.44772 11 3 11H14.5858L12.2929 8.70711C11.9024 8.31658 11.9024 7.68342 12.2929 7.29289C12.6834 6.90237 13.3166 6.90237 13.7071 7.29289L17.7071 11.2929C18.0976 11.6834 18.0976 12.3166 17.7071 12.7071L13.7071 16.7071C13.3166 17.0976 12.6834 17.0976 12.2929 16.7071C11.9024 16.3166 11.9024 15.6834 12.2929 15.2929L14.5858 13H3C2.44772 13 2 12.5523 2 12Z" fill="#000640"/>
</svg>
