<svg width="24" height="24" viewBox="0 0 24 24" fill="none" xmlns="http://www.w3.org/2000/svg">
<path fill-rule="evenodd" clip-rule="evenodd" d="M8.87868 7.70711C10.0503 6.53554 11.9497 6.53554 13.1213 7.70711L20 14.5858V10C20 9.44772 20.4477 9 21 9C21.5523 9 22 9.44772 22 10V17C22 17.5523 21.5523 18 21 18H14C13.4477 18 13 17.5523 13 17C13 16.4477 13.4477 16 14 16H18.5858L11.7071 9.12132C11.3166 8.7308 10.6834 8.7308 10.2929 9.12132L3.70711 15.7071C3.31658 16.0976 2.68342 16.0976 2.29289 15.7071C1.90237 15.3166 1.90237 14.6834 2.29289 14.2929L8.87868 7.70711Z" fill="#000640"/>
</svg>
