<svg width="24" height="24" viewBox="0 0 24 24" fill="none" xmlns="http://www.w3.org/2000/svg">
<path d="M17.7071 11.2929C18.0976 11.6834 18.0976 12.3166 17.7071 12.7071L13.7071 16.7071C13.3166 17.0976 12.6834 17.0976 12.2929 16.7071C11.9024 16.3166 11.9024 15.6834 12.2929 15.2929L14.5858 13L7 13C6.44771 13 6 12.5523 6 12C6 11.4477 6.44771 11 7 11L14.5858 11L12.2929 8.70711C11.9024 8.31658 11.9024 7.68342 12.2929 7.2929C12.6834 6.90237 13.3166 6.90237 13.7071 7.2929L17.7071 11.2929Z" fill="#000640"/>
<path fill-rule="evenodd" clip-rule="evenodd" d="M20 23C21.6569 23 23 21.6569 23 20L23 4.00001C23 2.34315 21.6569 1.00001 20 1L4 1C2.34315 1 1 2.34315 1 4L0.999997 20C0.999996 21.6569 2.34314 23 4 23L20 23ZM21 20C21 20.5523 20.5523 21 20 21L4 21C3.44771 21 3 20.5523 3 20L3 4C3 3.44772 3.44772 3 4 3L20 3C20.5523 3 21 3.44772 21 4L21 20Z" fill="#000640"/>
</svg>
