<svg width="24" height="24" viewBox="0 0 24 24" fill="none" xmlns="http://www.w3.org/2000/svg">
<path fill-rule="evenodd" clip-rule="evenodd" d="M18 7C18.5523 7 19 7.44772 19 8L19 18C19 18.2652 18.8946 18.5196 18.7071 18.7071C18.5196 18.8946 18.2652 19 18 19L8 19C7.44771 19 7 18.5523 7 18C7 17.4477 7.44772 17 8 17L15.5858 17L5.29289 6.70711C4.90237 6.31658 4.90237 5.68342 5.29289 5.29289C5.68342 4.90237 6.31658 4.90237 6.70711 5.29289L17 15.5858L17 8C17 7.44772 17.4477 7 18 7Z" fill="#000640"/>
</svg>
