<svg width="24" height="24" viewBox="0 0 24 24" fill="none" xmlns="http://www.w3.org/2000/svg">
<path d="M3 4C3 3.44772 3.44772 3 4 3H20C20.5523 3 21 3.44772 21 4V20C21 20.5523 20.5523 21 20 21H18C17.4477 21 17 21.4477 17 22C17 22.5523 17.4477 23 18 23H20C21.6569 23 23 21.6569 23 20V4C23 2.34315 21.6569 1 20 1H4C2.34315 1 1 2.34315 1 4V20C1 21.6569 2.34315 23 4 23H10C11.6569 23 13 21.6569 13 20V11.4142L15.2929 13.7071C15.6834 14.0976 16.3166 14.0976 16.7071 13.7071C17.0976 13.3166 17.0976 12.6834 16.7071 12.2929L12.7071 8.29289C12.3166 7.90237 11.6834 7.90237 11.2929 8.29289L7.29289 12.2929C6.90237 12.6834 6.90237 13.3166 7.29289 13.7071C7.68341 14.0976 8.31658 14.0976 8.7071 13.7071L11 11.4142V20C11 20.5523 10.5523 21 10 21H4C3.44772 21 3 20.5523 3 20V4Z" fill="#000640"/>
</svg>
