<svg width="24" height="24" viewBox="0 0 24 24" fill="none" xmlns="http://www.w3.org/2000/svg">
<path d="M4 3C4 2.44772 4.44772 2 5 2H19C19.5522 2 20 2.44772 20 3C20 3.55228 19.5522 4 19 4H5C4.44772 4 4 3.55228 4 3Z" fill="#000640"/>
<path d="M6.29289 12.7071C5.90237 12.3166 5.90237 11.6834 6.29289 11.2929L11.2929 6.29289C11.6834 5.90237 12.3166 5.90237 12.7071 6.29289L17.7071 11.2929C18.0976 11.6834 18.0976 12.3166 17.7071 12.7071C17.3166 13.0976 16.6834 13.0976 16.2929 12.7071L13 9.41421L13 21C13 21.5523 12.5523 22 12 22C11.4477 22 11 21.5523 11 21L11 9.41421L7.70711 12.7071C7.31658 13.0976 6.68342 13.0976 6.29289 12.7071Z" fill="#000640"/>
</svg>
