<svg width="24" height="24" viewBox="0 0 24 24" fill="none" xmlns="http://www.w3.org/2000/svg">
<path d="M4 3C3.44772 3 3 3.44772 3 4V20C3 20.5523 3.44772 21 4 21H20C20.5523 21 21 20.5523 21 20V4C21 3.44772 20.5523 3 20 3H17C16.4477 3 16 2.55228 16 2C16 1.44772 16.4477 1 17 1H20C21.6569 1 23 2.34315 23 4V20C23 21.6569 21.6569 23 20 23H4C2.34315 23 1 21.6569 1 20V4C1 2.34315 2.34315 1 4 1H7C7.55228 1 8 1.44772 8 2C8 2.55228 7.55228 3 7 3H4Z" fill="#000640"/>
<path d="M13 14.5858V7C13 6.44771 12.5523 6 12 6C11.4477 6 11 6.44771 11 7V14.5858L8.7071 12.2929C8.31658 11.9024 7.68342 11.9024 7.29289 12.2929C6.90237 12.6834 6.90237 13.3166 7.29289 13.7071L11.2929 17.7071C11.6834 18.0976 12.3166 18.0976 12.7071 17.7071L16.7071 13.7071C17.0976 13.3166 17.0976 12.6834 16.7071 12.2929C16.3166 11.9024 15.6834 11.9024 15.2929 12.2929L13 14.5858Z" fill="#000640"/>
</svg>
