<svg width="24" height="24" viewBox="0 0 24 24" fill="none" xmlns="http://www.w3.org/2000/svg">
<path d="M12 4C9.12446 4 6.53722 5.05534 4.6704 6.742C4.26061 7.11225 3.62825 7.08019 3.258 6.6704C2.88776 6.2606 2.91981 5.62825 3.32961 5.258C5.56759 3.236 8.63387 2 12 2C15.3661 2 18.4324 3.236 20.6704 5.258C21.0802 5.62825 21.1123 6.2606 20.742 6.6704C20.3718 7.08019 19.7394 7.11225 19.3296 6.742C17.4628 5.05534 14.8756 4 12 4Z" fill="#000640"/>
<path d="M12 22C11.4477 22 11 21.5523 11 21L11 9.41421L8.70711 11.7071C8.31658 12.0976 7.68342 12.0976 7.29289 11.7071C6.90237 11.3166 6.90237 10.6834 7.29289 10.2929L11.2929 6.29289C11.6834 5.90237 12.3166 5.90237 12.7071 6.29289L16.7071 10.2929C17.0976 10.6834 17.0976 11.3166 16.7071 11.7071C16.3166 12.0976 15.6834 12.0976 15.2929 11.7071L13 9.41421L13 21C13 21.5523 12.5523 22 12 22Z" fill="#000640"/>
</svg>
