<svg width="24" height="24" viewBox="0 0 24 24" fill="none" xmlns="http://www.w3.org/2000/svg">
<g clip-path="url(#clip0_1253_5914)">
<path d="M7.79293 16.2071C7.4024 15.8166 7.4024 15.1834 7.79292 14.7929L13.0856 9.50015H10C9.44772 9.50015 9 9.05243 9 8.50015C9 7.94787 9.44772 7.50015 10 7.50015H15.5C16.0523 7.50015 16.5 7.94787 16.5 8.50015L16.5 14.0002C16.5 14.5524 16.0523 15.0002 15.5 15.0002C14.9477 15.0002 14.5 14.5524 14.5 14.0002L14.5 10.9142L9.20714 16.2071C8.81662 16.5976 8.18345 16.5976 7.79293 16.2071Z" fill="#000640"/>
<path fill-rule="evenodd" clip-rule="evenodd" d="M24 12C24 5.37258 18.6274 -2.89694e-07 12 0C5.37258 2.89694e-07 -2.89694e-07 5.37258 0 12C2.89694e-07 18.6274 5.37258 24 12 24C18.6274 24 24 18.6274 24 12ZM22 12C22 6.47715 17.5228 2 12 2C6.47715 2 2 6.47715 2 12C2 17.5228 6.47715 22 12 22C17.5228 22 22 17.5228 22 12Z" fill="#000640"/>
</g>
<defs>
<clipPath id="clip0_1253_5914">
<rect width="24" height="24" fill="white"/>
</clipPath>
</defs>
</svg>
