<svg width="24" height="24" viewBox="0 0 24 24" fill="none" xmlns="http://www.w3.org/2000/svg">
<g clip-path="url(#clip0_1253_5910)">
<path d="M16.207 7.7929C16.5975 8.18342 16.5975 8.81658 16.207 9.20711L10.9143 14.4998H13.9999C14.5522 14.4998 14.9999 14.9476 14.9999 15.4998C14.9999 16.0521 14.5522 16.4998 13.9999 16.4998L8.49988 16.4998C7.9476 16.4998 7.49988 16.0521 7.49988 15.4998L7.49988 9.99985C7.49988 9.44757 7.94759 8.99985 8.49988 8.99985C9.05216 8.99985 9.49988 9.44756 9.49988 9.99985L9.49988 13.0858L14.7927 7.7929C15.1833 7.40238 15.8164 7.40238 16.207 7.7929Z" fill="#000640"/>
<path fill-rule="evenodd" clip-rule="evenodd" d="M-0.00012207 12C-0.00012236 18.6274 5.37246 24 11.9999 24C18.6273 24 23.9999 18.6274 23.9999 12C23.9999 5.37258 18.6273 2.89694e-07 11.9999 0C5.37246 -2.89694e-07 -0.000121781 5.37258 -0.00012207 12ZM1.99988 12C1.99988 17.5228 6.47703 22 11.9999 22C17.5227 22 21.9999 17.5228 21.9999 12C21.9999 6.47715 17.5227 2 11.9999 2C6.47703 2 1.99988 6.47715 1.99988 12Z" fill="#000640"/>
</g>
<defs>
<clipPath id="clip0_1253_5910">
<rect width="24" height="24" fill="white"/>
</clipPath>
</defs>
</svg>
