<svg width="24" height="24" viewBox="0 0 24 24" fill="none" xmlns="http://www.w3.org/2000/svg">
<path d="M7.79293 7.7929C7.4024 8.18342 7.4024 8.81659 7.79292 9.20711L13.0855 14.4997H10C9.44772 14.4997 9 14.9474 9 15.4997C9 16.052 9.44772 16.4997 10 16.4997H15.5C16.0523 16.4997 16.5 16.052 16.5 15.4997V9.99973C16.5 9.44744 16.0523 8.99973 15.5 8.99973C14.9477 8.99973 14.5 9.44744 14.5 9.99973L14.5 13.0858L9.20714 7.79291C8.81662 7.40238 8.18345 7.40238 7.79293 7.7929Z" fill="#000640"/>
<path fill-rule="evenodd" clip-rule="evenodd" d="M20 23C21.6569 23 23 21.6569 23 20L23 4C23 2.34315 21.6569 1 20 1L4 1C2.34315 1 1 2.34315 1 4L1 20C1 21.6569 2.34315 23 4 23L20 23ZM21 20C21 20.5523 20.5523 21 20 21L4 21C3.44772 21 3 20.5523 3 20L3 4C3 3.44772 3.44772 3 4 3L20 3C20.5523 3 21 3.44772 21 4L21 20Z" fill="#000640"/>
</svg>
