<svg width="24" height="24" viewBox="0 0 24 24" fill="none" xmlns="http://www.w3.org/2000/svg">
<path d="M15 9C15.5523 9 16 9.44771 16 10V12C16 12.5523 15.5523 13 15 13C14.4477 13 14 12.5523 14 12V10C14 9.44771 14.4477 9 15 9Z" fill="#000640"/>
<path d="M16 16C16 15.4477 15.5523 15 15 15C14.4477 15 14 15.4477 14 16V18C14 18.5523 14.4477 19 15 19C15.5523 19 16 18.5523 16 18V16Z" fill="#000640"/>
<path fill-rule="evenodd" clip-rule="evenodd" d="M4 1C2.34315 1 1 2.34315 1 4V9C1 10.6569 2.34315 12 4 12V20C4 21.6569 5.34315 23 7 23H17C18.6569 23 20 21.6569 20 20V12C21.6569 12 23 10.6569 23 9V4C23 2.34315 21.6569 1 20 1H4ZM20 10C20.5523 10 21 9.55228 21 9V4C21 3.44772 20.5523 3 20 3H4C3.44772 3 3 3.44772 3 4V9C3 9.55228 3.44772 10 4 10V6C4 5.44772 4.44772 5 5 5H19C19.5523 5 20 5.44772 20 6V10ZM6 20V7H18V20C18 20.5523 17.5523 21 17 21H7C6.44772 21 6 20.5523 6 20Z" fill="#000640"/>
</svg>
