<svg width="24" height="24" viewBox="0 0 24 24" fill="none" xmlns="http://www.w3.org/2000/svg">
<path d="M15.7071 15.7071C16.0976 15.3166 16.0976 14.6834 15.7071 14.2929C15.3166 13.9024 14.6834 13.9024 14.2929 14.2929L13 15.5858V10C13 9.44771 12.5523 9 12 9C11.4477 9 11 9.44771 11 10V15.5858L9.70711 14.2929C9.31658 13.9024 8.68342 13.9024 8.29289 14.2929C7.90237 14.6834 7.90237 15.3166 8.29289 15.7071L11.2929 18.7071C11.4804 18.8946 11.7348 19 12 19C12.2652 19 12.5196 18.8946 12.7071 18.7071L15.7071 15.7071Z" fill="#000640"/>
<path fill-rule="evenodd" clip-rule="evenodd" d="M1 4C1 2.34315 2.34315 1 4 1H20C21.6569 1 23 2.34315 23 4V9C23 10.6569 21.6569 12 20 12V20C20 21.6569 18.6569 23 17 23H7C5.34315 23 4 21.6569 4 20V12C2.34315 12 1 10.6569 1 9V4ZM21 9C21 9.55228 20.5523 10 20 10V6C20 5.44772 19.5523 5 19 5H5C4.44772 5 4 5.44772 4 6V10C3.44772 10 3 9.55228 3 9V4C3 3.44772 3.44772 3 4 3H20C20.5523 3 21 3.44772 21 4V9ZM6 7V20C6 20.5523 6.44772 21 7 21H17C17.5523 21 18 20.5523 18 20V7H6Z" fill="#000640"/>
</svg>
