<svg width="24" height="24" viewBox="0 0 24 24" fill="none" xmlns="http://www.w3.org/2000/svg">
<path d="M12 3C12.5523 3 13 3.44772 13 4L13 20C13 20.5523 12.5523 21 12 21C11.4477 21 11 20.5523 11 20L11 4C11 3.44772 11.4477 3 12 3Z" fill="#000640"/>
<path d="M4 7C4.55228 7 5 7.44772 5 8L5 16C5 16.5523 4.55229 17 4 17C3.44772 17 3 16.5523 3 16V8C3 7.44772 3.44772 7 4 7Z" fill="#000640"/>
<path d="M21 8C21 7.44772 20.5523 7 20 7C19.4477 7 19 7.44772 19 8V16C19 16.5523 19.4477 17 20 17C20.5523 17 21 16.5523 21 16V8Z" fill="#000640"/>
<path d="M8 9C8.55229 9 9 9.44772 9 10L9 14C9 14.5523 8.55228 15 8 15C7.44772 15 7 14.5523 7 14L7 10C7 9.44772 7.44772 9 8 9Z" fill="#000640"/>
<path d="M17 10C17 9.44772 16.5523 9 16 9C15.4477 9 15 9.44772 15 10L15 14C15 14.5523 15.4477 15 16 15C16.5523 15 17 14.5523 17 14L17 10Z" fill="#000640"/>
</svg>
