<svg width="24" height="24" viewBox="0 0 24 24" fill="none" xmlns="http://www.w3.org/2000/svg">
<path fill-rule="evenodd" clip-rule="evenodd" d="M8 17C8 14.7909 9.79086 13 12 13C14.2091 13 16 14.7909 16 17C16 19.2091 14.2091 21 12 21C9.79086 21 8 19.2091 8 17ZM12 15C10.8954 15 10 15.8954 10 17C10 18.1046 10.8954 19 12 19C13.1046 19 14 18.1046 14 17C14 15.8954 13.1046 15 12 15Z" fill="#000640"/>
<path fill-rule="evenodd" clip-rule="evenodd" d="M7 3C6.44772 3 6 3.44772 6 4V11C6 11.5523 6.44772 12 7 12H17C17.5523 12 18 11.5523 18 11V4C18 3.44772 17.5523 3 17 3H7ZM8 10V5H16V10H8Z" fill="#000640"/>
<path fill-rule="evenodd" clip-rule="evenodd" d="M3 3C3 1.34315 4.34315 0 6 0H18C19.6569 0 21 1.34315 21 3V21C21 22.6569 19.6569 24 18 24H6C4.34315 24 3 22.6569 3 21V3ZM6 2C5.44772 2 5 2.44772 5 3V21C5 21.5523 5.44772 22 6 22H18C18.5523 22 19 21.5523 19 21V3C19 2.44772 18.5523 2 18 2H6Z" fill="#000640"/>
</svg>
