<svg width="24" height="24" viewBox="0 0 24 24" fill="none" xmlns="http://www.w3.org/2000/svg">
<path fill-rule="evenodd" clip-rule="evenodd" d="M16 4C15.4477 4 15 4.44772 15 5V19C15 20.6569 13.6569 22 12 22C10.3431 22 9 20.6569 9 19V8C9 7.44772 8.55228 7 8 7C7.44772 7 7 7.44772 7 8V14C7 15.6569 5.65685 17 4 17C2.34315 17 1 15.6569 1 14V11C1 10.4477 1.44772 10 2 10C2.55228 10 3 10.4477 3 11V14C3 14.5523 3.44772 15 4 15C4.55228 15 5 14.5523 5 14V8C5 6.34315 6.34315 5 8 5C9.65685 5 11 6.34315 11 8V19C11 19.5523 11.4477 20 12 20C12.5523 20 13 19.5523 13 19V5C13 3.34315 14.3431 2 16 2C17.6569 2 19 3.34315 19 5V14C19 14.5523 19.4477 15 20 15C20.5523 15 21 14.5523 21 14V8.5C21 7.94772 21.4477 7.5 22 7.5C22.5523 7.5 23 7.94772 23 8.5V14C23 15.6569 21.6569 17 20 17C18.3431 17 17 15.6569 17 14V5C17 4.44772 16.5523 4 16 4Z" fill="#000640"/>
</svg>
