<svg width="24" height="24" viewBox="0 0 24 24" fill="none" xmlns="http://www.w3.org/2000/svg">
<path d="M2 1C2.55228 1 3 1.44772 3 2V20C3 20.5523 3.44772 21 4 21H22C22.5523 21 23 21.4477 23 22C23 22.5523 22.5523 23 22 23H4C2.34315 23 1 21.6569 1 20V2C1 1.44772 1.44772 1 2 1Z" fill="#000640"/>
<path d="M16.2929 14.7071C15.9024 14.3166 15.9024 13.6834 16.2929 13.2929L17.5858 12H6C5.44772 12 5 11.5523 5 11C5 10.4477 5.44772 10 6 10H17.5858L16.2929 8.70711C15.9024 8.31659 15.9024 7.68342 16.2929 7.2929C16.6834 6.90237 17.3166 6.90237 17.7071 7.2929L20.7071 10.2929C20.8946 10.4804 21 10.7348 21 11C21 11.2652 20.8946 11.5196 20.7071 11.7071L17.7071 14.7071C17.3166 15.0976 16.6834 15.0976 16.2929 14.7071Z" fill="#000640"/>
</svg>
