<svg width="24" height="24" viewBox="0 0 24 24" fill="none" xmlns="http://www.w3.org/2000/svg">
<path d="M2 1C2.55228 1 3 1.44772 3 2V20C3 20.5523 3.44772 21 4 21H22C22.5523 21 23 21.4477 23 22C23 22.5523 22.5523 23 22 23H4C2.34315 23 1 21.6569 1 20V2C1 1.44772 1.44772 1 2 1Z" fill="#000640"/>
<path d="M16.2929 10.7071C15.9024 10.3166 15.9024 9.68342 16.2929 9.29289L17.5858 8H17.5C11.5017 8 7 12.2503 7 18C7 18.5523 6.55228 19 6 19C5.44772 19 5 18.5523 5 18C5 11.0472 10.4983 6 17.5 6H17.5858L16.2929 4.70711C15.9024 4.31658 15.9024 3.68342 16.2929 3.29289C16.6834 2.90237 17.3166 2.90237 17.7071 3.29289L20.7071 6.29289C20.8946 6.48043 21 6.73478 21 7C21 7.26522 20.8946 7.51957 20.7071 7.70711L17.7071 10.7071C17.3166 11.0976 16.6834 11.0976 16.2929 10.7071Z" fill="#000640"/>
</svg>
