<svg width="24" height="24" viewBox="0 0 24 24" fill="none" xmlns="http://www.w3.org/2000/svg">
<path d="M3 2C3 1.44772 2.55228 1 2 1C1.44772 1 1 1.44772 1 2V20C1 21.6569 2.34315 23 4 23H22C22.5523 23 23 22.5523 23 22C23 21.4477 22.5523 21 22 21H4C3.44772 21 3 20.5523 3 20V2Z" fill="#000640"/>
<path d="M14 8C14 7.44772 14.4477 7 15 7H20C20.5523 7 21 7.44772 21 8V13C21 13.5523 20.5523 14 20 14C19.4477 14 19 13.5523 19 13V10.4142L14.7071 14.7071C14.5196 14.8946 14.2652 15 14 15C13.7348 15 13.4804 14.8946 13.2929 14.7071L11 12.4142L6.70711 16.7071C6.31658 17.0976 5.68342 17.0976 5.29289 16.7071C4.90237 16.3166 4.90237 15.6834 5.29289 15.2929L10.2929 10.2929C10.6834 9.90237 11.3166 9.90237 11.7071 10.2929L14 12.5858L17.5858 9H15C14.4477 9 14 8.55228 14 8Z" fill="#000640"/>
</svg>
