<svg width="24" height="24" viewBox="0 0 24 24" fill="none" xmlns="http://www.w3.org/2000/svg">
<path d="M2 1C2.55228 1 3 1.44772 3 2V20C3 20.5523 3.44772 21 4 21H22C22.5523 21 23 21.4477 23 22C23 22.5523 22.5523 23 22 23H4C2.34315 23 1 21.6569 1 20V2C1 1.44772 1.44772 1 2 1Z" fill="#000640"/>
<path d="M17 14C11.4772 14 7 9.52285 7 4C7 3.44771 6.55228 3 6 3C5.44771 3 5 3.44771 5 4C5 10.6274 10.3726 16 17 16H17.5858L16.2929 17.2929C15.9024 17.6834 15.9024 18.3166 16.2929 18.7071C16.6834 19.0976 17.3166 19.0976 17.7071 18.7071L20.7071 15.7071C20.8946 15.5196 21 15.2652 21 15C21 14.7348 20.8946 14.4804 20.7071 14.2929L17.7071 11.2929C17.3166 10.9024 16.6834 10.9024 16.2929 11.2929C15.9024 11.6834 15.9024 12.3166 16.2929 12.7071L17.5858 14H17Z" fill="#000640"/>
</svg>
