<svg width="24" height="24" viewBox="0 0 24 24" fill="none" xmlns="http://www.w3.org/2000/svg">
<path d="M3 2C3 1.44772 2.55228 1 2 1C1.44772 1 1 1.44772 1 2V20C1 21.6569 2.34315 23 4 23H22C22.5523 23 23 22.5523 23 22C23 21.4477 22.5523 21 22 21H4C3.44772 21 3 20.5523 3 20V2Z" fill="#000640"/>
<path d="M19 11C19 10.4477 18.5523 10 18 10C17.4477 10 17 10.4477 17 11V13.5858L8.70711 5.29289C8.31658 4.90237 7.68342 4.90237 7.29289 5.29289C6.90237 5.68342 6.90237 6.31658 7.29289 6.70711L15.5858 15H13C12.4477 15 12 15.4477 12 16C12 16.5523 12.4477 17 13 17H18C18.5523 17 19 16.5523 19 16V11Z" fill="#000640"/>
</svg>
