<svg width="24" height="24" viewBox="0 0 24 24" fill="none" xmlns="http://www.w3.org/2000/svg">
<path d="M2 1C2.55228 1 3 1.44772 3 2V20C3 20.5523 3.44772 21 4 21H22C22.5523 21 23 21.4477 23 22C23 22.5523 22.5523 23 22 23H4C2.34315 23 1 21.6569 1 20V2C1 1.44772 1.44772 1 2 1Z" fill="#000640"/>
<path d="M16 7C16 12.5228 11.5228 17 6 17C5.44771 17 5 17.4477 5 18C5 18.5523 5.44771 19 6 19C12.6274 19 18 13.6274 18 7V6.41421L19.2929 7.70711C19.6834 8.09763 20.3166 8.09763 20.7071 7.70711C21.0976 7.31658 21.0976 6.68342 20.7071 6.29289L17.7071 3.29289C17.5196 3.10536 17.2652 3 17 3C16.7348 3 16.4804 3.10536 16.2929 3.29289L13.2929 6.29289C12.9024 6.68342 12.9024 7.31658 13.2929 7.70711C13.6834 8.09763 14.3166 8.09763 14.7071 7.70711L16 6.41422V7Z" fill="#000640"/>
</svg>
