<svg width="24" height="24" viewBox="0 0 24 24" fill="none" xmlns="http://www.w3.org/2000/svg">
<path d="M2 1C2.55228 1 3 1.44772 3 2V20C3 20.5523 3.44772 21 4 21H22C22.5523 21 23 21.4477 23 22C23 22.5523 22.5523 23 22 23H4C2.34315 23 1 21.6569 1 20V2C1 1.44772 1.44772 1 2 1Z" fill="#000640"/>
<path fill-rule="evenodd" clip-rule="evenodd" d="M20 8C20.5523 8 21 8.44772 21 9V14C21 14.5523 20.5523 15 20 15H15C14.4477 15 14 14.5523 14 14C14 13.4477 14.4477 13 15 13H17.5858L12.7071 8.12126C12.3166 7.73074 11.6834 7.73074 11.2929 8.12126L6.70711 12.707C6.31658 13.0976 5.68342 13.0976 5.29289 12.707C4.90237 12.3165 4.90237 11.6834 5.29289 11.2928L9.87868 6.70705C11.0503 5.53548 12.9497 5.53547 14.1213 6.70705L19 11.5857V9C19 8.44772 19.4477 8 20 8Z" fill="#000640"/>
</svg>
