<svg width="24" height="24" viewBox="0 0 24 24" fill="none" xmlns="http://www.w3.org/2000/svg">
<path d="M3 2C3 1.44772 2.55228 1 2 1C1.44772 1 1 1.44772 1 2V20C1 21.6569 2.34315 23 4 23H22C22.5523 23 23 22.5523 23 22C23 21.4477 22.5523 21 22 21H4C3.44772 21 3 20.5523 3 20V2Z" fill="#000640"/>
<path d="M11 4C11.4304 4 11.8126 4.27543 11.9487 4.68377L15 13.8377L16.0513 10.6838C16.1874 10.2754 16.5696 10 17 10H20C20.5523 10 21 10.4477 21 11C21 11.5523 20.5523 12 20 12H17.7208L15.9487 17.3162C15.8126 17.7246 15.4304 18 15 18C14.5696 18 14.1874 17.7246 14.0513 17.3162L11 8.16228L9.94868 11.3162C9.81257 11.7246 9.43043 12 9 12H6C5.44772 12 5 11.5523 5 11C5 10.4477 5.44772 10 6 10H8.27924L10.0513 4.68377C10.1874 4.27543 10.5696 4 11 4Z" fill="#000640"/>
</svg>
