<svg width="24" height="24" viewBox="0 0 24 24" fill="none" xmlns="http://www.w3.org/2000/svg">
<path fill-rule="evenodd" clip-rule="evenodd" d="M8.83572 1.01361C8.89005 1.00455 8.94504 1 9.00012 1H15.0001C15.0552 1 15.1102 1.00455 15.1645 1.0136L18.1647 1.5136C18.3479 1.54414 18.519 1.62511 18.6588 1.74744L22.6586 5.24744C23.0011 5.54711 23.0981 6.0402 22.8945 6.44721L20.8945 10.4472C20.7759 10.6844 20.5679 10.8648 20.3163 10.9487C20.0647 11.0326 19.7901 11.013 19.5529 10.8944L19.0003 10.6181L19.0003 17C19.0003 17.4089 18.7514 17.7766 18.3717 17.9285C16.14 18.8211 15.0003 20.5169 15.0001 22.0001C15.0001 22.5523 14.5524 23 14.0001 23H10.0001C9.73488 23 9.48052 22.8946 9.29298 22.7071C9.10544 22.5195 9.00009 22.2651 9.00012 21.9999C9.00025 20.5169 7.8606 18.8212 5.62893 17.9285C5.24927 17.7766 5.00032 17.4089 5.00032 17V10.618L4.44729 10.8944C4.19717 11.0195 3.90611 11.0341 3.64472 10.9347C3.38333 10.8353 3.1755 10.631 3.07164 10.3714L1.07164 5.37139C0.891906 4.92205 1.05973 4.40849 1.47012 4.152L5.47012 1.652C5.58169 1.58227 5.70593 1.53524 5.83572 1.51361L8.83572 1.01361ZM6.36111 3.45363L3.2391 5.40488L4.52498 8.61958L5.55314 8.10555C5.86313 7.95058 6.23126 7.96715 6.52607 8.14936C6.82088 8.33157 7.00032 8.65343 7.00032 9V16.351C9.06594 17.3655 10.5218 19.0757 10.9019 21H13.0985C13.4788 19.0757 14.9346 17.3655 17.0003 16.351L17.0003 9C17.0003 8.65342 17.1798 8.33155 17.4746 8.14934C17.7694 7.96713 18.1376 7.95058 18.4475 8.10559L19.5529 8.65833L20.7602 6.2438L17.5556 3.43968L15.883 3.16092C15.8192 3.51672 15.7192 3.93037 15.5614 4.35112C15.3393 4.94348 14.9824 5.60367 14.3989 6.12241C13.7946 6.6595 12.996 7 12.0001 7C11.0043 7 10.2056 6.6595 9.60138 6.12241C9.0178 5.60367 8.66092 4.94348 8.43879 4.35112C8.28101 3.93038 8.18105 3.51673 8.11728 3.16093L6.36111 3.45363ZM10.1238 3C10.1689 3.20942 10.2298 3.43122 10.3114 3.64888C10.4643 4.05652 10.6699 4.39633 10.9301 4.62759C11.1696 4.8405 11.496 5 12.0001 5C12.5043 5 12.8306 4.8405 13.0701 4.62759C13.3303 4.39633 13.5359 4.05652 13.6888 3.64888C13.7704 3.43122 13.8313 3.20942 13.8765 3H10.1238Z" fill="#000640"/>
</svg>
