<svg width="24" height="24" viewBox="0 0 24 24" fill="none" xmlns="http://www.w3.org/2000/svg">
<g clip-path="url(#clip0_1253_5717)">
<path fill-rule="evenodd" clip-rule="evenodd" d="M11.4719 7.11833C11.797 7.29235 12 7.63121 12 8V10.1315L16.4453 7.16795C16.7522 6.96338 17.1467 6.94431 17.4719 7.11833C17.797 7.29235 18 7.63121 18 8V16C18 16.3688 17.797 16.7077 17.4719 16.8817C17.1467 17.0557 16.7522 17.0366 16.4453 16.8321L12 13.8685V16C12 16.3688 11.797 16.7077 11.4719 16.8817C11.1467 17.0557 10.7522 17.0366 10.4453 16.8321L4.4453 12.8321C4.1671 12.6466 4 12.3344 4 12C4 11.6656 4.1671 11.3534 4.4453 11.168L10.4453 7.16795C10.7522 6.96338 11.1467 6.94431 11.4719 7.11833ZM10 9.86852L6.80278 12L10 14.1315L10 9.86852ZM12.8028 12L16 9.86852L16 14.1315L12.8028 12Z" fill="#000640"/>
<path fill-rule="evenodd" clip-rule="evenodd" d="M12 24C18.6274 24 24 18.6274 24 12C24 5.37258 18.6274 0 12 0C5.37258 0 0 5.37258 0 12C0 18.6274 5.37258 24 12 24ZM12 22C17.5228 22 22 17.5228 22 12C22 6.47715 17.5228 2 12 2C6.47715 2 2 6.47715 2 12C2 17.5228 6.47715 22 12 22Z" fill="#000640"/>
</g>
<defs>
<clipPath id="clip0_1253_5717">
<rect width="24" height="24" fill="white"/>
</clipPath>
</defs>
</svg>
