<svg width="24" height="24" viewBox="0 0 24 24" fill="none" xmlns="http://www.w3.org/2000/svg">
<g clip-path="url(#clip0_1253_5713)">
<path fill-rule="evenodd" clip-rule="evenodd" d="M16.4719 7.11833C16.797 7.29235 17 7.63121 17 8V16C17 16.3688 16.797 16.7077 16.4719 16.8817C16.1467 17.0557 15.7522 17.0366 15.4453 16.8321L9.4453 12.8321C9.1671 12.6466 9 12.3344 9 12C9 11.6657 9.1671 11.3534 9.4453 11.168L15.4453 7.16795C15.7522 6.96338 16.1467 6.94431 16.4719 7.11833ZM15 9.86852L11.8028 12L15 14.1315L15 9.86852Z" fill="#000640"/>
<path d="M8 8C8 7.44772 7.55228 7 7 7C6.44772 7 6 7.44772 6 8V16C6 16.5523 6.44772 17 7 17C7.55228 17 8 16.5523 8 16V8Z" fill="#000640"/>
<path fill-rule="evenodd" clip-rule="evenodd" d="M12 24C18.6274 24 24 18.6274 24 12C24 5.37258 18.6274 0 12 0C5.37258 0 0 5.37258 0 12C0 18.6274 5.37258 24 12 24ZM12 22C17.5228 22 22 17.5228 22 12C22 6.47715 17.5228 2 12 2C6.47715 2 2 6.47715 2 12C2 17.5228 6.47715 22 12 22Z" fill="#000640"/>
</g>
<defs>
<clipPath id="clip0_1253_5713">
<rect width="24" height="24" fill="white"/>
</clipPath>
</defs>
</svg>
