<svg width="24" height="24" viewBox="0 0 24 24" fill="none" xmlns="http://www.w3.org/2000/svg">
<path fill-rule="evenodd" clip-rule="evenodd" d="M8.07436 9.58938C6.45527 10.7887 6.45528 13.2114 8.07437 14.4107L16.2143 20.4403C18.1942 21.9069 21 20.4936 21 18.0296V5.97046C21 3.50655 18.1942 2.0932 16.2143 3.55979L8.07436 9.58938ZM9.26482 12.8036C8.72512 12.4038 8.72512 11.5963 9.26482 11.1965L17.4048 5.16691C18.0647 4.67804 19 5.14916 19 5.97046L19 18.0296C19 18.8509 18.0647 19.3221 17.4048 18.8332L9.26482 12.8036Z" fill="#000640"/>
<path d="M3 20C3 20.5523 3.44772 21 4 21C4.55228 21 5 20.5523 5 20L5 4.00001C5 3.44772 4.55229 3.00001 4 3.00001C3.44772 3.00001 3 3.44772 3 4.00001V20Z" fill="#000640"/>
</svg>
