<svg width="24" height="24" viewBox="0 0 24 24" fill="none" xmlns="http://www.w3.org/2000/svg">
<path d="M8.00122 11C8.55351 11 9.00122 11.4477 9.00122 12C9.00122 13.6569 10.3444 15 12.0012 15C13.6581 15 15.0012 13.6569 15.0012 12C15.0012 11.4477 15.4489 11 16.0012 11C16.5535 11 17.0012 11.4477 17.0012 12C17.0012 14.7614 14.7626 17 12.0012 17C9.2398 17 7.00122 14.7614 7.00122 12C7.00122 11.4477 7.44894 11 8.00122 11Z" fill="#000640"/>
<path fill-rule="evenodd" clip-rule="evenodd" d="M17.0012 7H19.139C20.7129 7 22.0192 8.21634 22.1314 9.78626L22.6926 17.6438C22.8994 20.5381 20.607 23 17.7053 23H6.29713C3.39542 23 1.1031 20.5381 1.30984 17.6438L1.87109 9.78626C1.98323 8.21634 3.28955 7 4.86347 7H7.00122L7.00122 6C7.00122 3.23858 9.2398 1 12.0012 1C14.7626 1 17.0012 3.23858 17.0012 6V7ZM9.00122 7H15.0012V6C15.0012 4.34315 13.6581 3 12.0012 3C10.3444 3 9.00122 4.34315 9.00122 6L9.00122 7ZM4.86347 9C4.33883 9 3.90339 9.40545 3.86601 9.92875L3.30476 17.7863C3.18071 19.5229 4.55611 21 6.29713 21H17.7053C19.4463 21 20.8217 19.5229 20.6977 17.7863L20.1364 9.92875C20.0991 9.40545 19.6636 9 19.139 9H4.86347Z" fill="#000640"/>
</svg>
