<svg width="24" height="24" viewBox="0 0 24 24" fill="none" xmlns="http://www.w3.org/2000/svg">
<path fill-rule="evenodd" clip-rule="evenodd" d="M3 7C3 6.44772 3.44772 6 4 6H7C7.55228 6 8 6.44772 8 7V11H16V7C16 6.44772 16.4477 6 17 6H20C20.5523 6 21 6.44772 21 7V8H23C23.5523 8 24 8.44772 24 9V15C24 15.5523 23.5523 16 23 16H21V17C21 17.5523 20.5523 18 20 18H17C16.4477 18 16 17.5523 16 17V13H8V17C8 17.5523 7.55228 18 7 18H4C3.44772 18 3 17.5523 3 17V16H1C0.447715 16 0 15.5523 0 15V9C0 8.44772 0.447715 8 1 8H3V7Z" fill="#000640"/>
</svg>
