<svg width="24" height="24" viewBox="0 0 24 24" fill="none" xmlns="http://www.w3.org/2000/svg">
<path fill-rule="evenodd" clip-rule="evenodd" d="M10 5C10.5523 5 11 5.44772 11 6V9H14C14.5523 9 15 9.44772 15 10V13H18C18.5523 13 19 13.4477 19 14V18C19 18.5523 18.5523 19 18 19H6C5.44771 19 5 18.5523 5 18V6C5 5.44772 5.44771 5 6 5H10ZM13 11H11V17H13V11ZM7 17H9V7H7V17ZM15 15V17H17V15H15Z" fill="#000640"/>
<path fill-rule="evenodd" clip-rule="evenodd" d="M4 1C2.34315 1 1 2.34315 1 4V20C1 21.6569 2.34315 23 4 23H20C21.6569 23 23 21.6569 23 20V4C23 2.34315 21.6569 1 20 1H4ZM3 4C3 3.44772 3.44772 3 4 3H20C20.5523 3 21 3.44772 21 4V20C21 20.5523 20.5523 21 20 21H4C3.44772 21 3 20.5523 3 20V4Z" fill="#000640"/>
</svg>
