<svg width="24" height="24" viewBox="0 0 24 24" fill="none" xmlns="http://www.w3.org/2000/svg">
<path fill-rule="evenodd" clip-rule="evenodd" d="M9 2C9 1.44772 9.44771 1 10 1H14C14.5523 1 15 1.44772 15 2V22C15 22.5523 14.5523 23 14 23H10C9.44771 23 9 22.5523 9 22V2ZM11 3V21H13V3H11Z" fill="#000640"/>
<path fill-rule="evenodd" clip-rule="evenodd" d="M17 9C17 8.44772 17.4477 8 18 8H22C22.5523 8 23 8.44772 23 9V22C23 22.5523 22.5523 23 22 23H18C17.4477 23 17 22.5523 17 22V9ZM19 10V21H21V10H19Z" fill="#000640"/>
<path fill-rule="evenodd" clip-rule="evenodd" d="M1 13C1 12.4477 1.44772 12 2 12H6C6.55228 12 7 12.4477 7 13V22C7 22.5523 6.55228 23 6 23H2C1.44772 23 1 22.5523 1 22V13ZM3 14V21H5V14H3Z" fill="#000640"/>
</svg>
