<svg width="24" height="24" viewBox="0 0 24 24" fill="none" xmlns="http://www.w3.org/2000/svg">
<path fill-rule="evenodd" clip-rule="evenodd" d="M12 5C10.3431 5 9 6.34315 9 8C9 9.65685 10.3431 11 12 11C13.6569 11 15 9.65685 15 8C15 6.34315 13.6569 5 12 5ZM11 8C11 7.44772 11.4477 7 12 7C12.5523 7 13 7.44772 13 8C13 8.55228 12.5523 9 12 9C11.4477 9 11 8.55228 11 8Z" fill="#000640"/>
<path fill-rule="evenodd" clip-rule="evenodd" d="M17.6439 3.33085C16.3113 2.75973 14.8139 2.31397 13.45 2.11436C13.2798 1.47281 12.6951 1 12 1C11.3049 1 10.7202 1.47281 10.55 2.11436C9.18608 2.31397 7.68871 2.75973 6.35608 3.33085C5.4333 3.72633 4.55394 4.19685 3.82501 4.71752C3.11419 5.22524 2.46191 5.84011 2.10557 6.55279C1.77872 7.2065 1.57452 8.15776 1.43294 9.10166C1.28632 10.0791 1.19034 11.1734 1.12695 12.1876C1.06338 13.2047 1.03171 14.156 1.01588 14.8523C1.00796 15.2008 1.00399 15.4863 1.002 15.6853C1.00101 15.7848 1.00051 15.8628 1.00026 15.9162L1.00003 15.9776L1 15.9994C1 16.0923 1.01295 16.1854 1.03848 16.2747L2.24016 20.4806C2.82556 22.5295 5.21845 23.2603 6.93635 22.3999C8.38116 21.6762 10.222 21 12 21C13.778 21 15.6188 21.6762 17.0637 22.3999C18.7816 23.2603 21.1744 22.5295 21.7598 20.4806L22.9615 16.2747C22.9871 16.1854 23 16.0927 23 15.9998L23 15.9776L22.9997 15.9162C22.9995 15.8628 22.999 15.7848 22.998 15.6853C22.996 15.4863 22.992 15.2008 22.9841 14.8523C22.9683 14.156 22.9366 13.2047 22.8731 12.1876C22.8097 11.1734 22.7137 10.0791 22.5671 9.10166C22.4255 8.15776 22.2213 7.2065 21.8944 6.55279C21.5381 5.84011 20.8858 5.22524 20.175 4.71752C19.4461 4.19685 18.5667 3.72633 17.6439 3.33085ZM4.98749 6.34498C4.38581 6.77476 4.03809 7.15989 3.89443 7.44721C3.72128 7.7935 3.55048 8.46724 3.41081 9.39834C3.27618 10.2959 3.18466 11.3266 3.12305 12.3124C3.0774 13.0429 3.04865 13.7406 3.03056 14.3294C3.51487 14.0965 4.09733 13.834 4.75361 13.5715C6.68294 12.7998 9.31853 12 12 12C14.6815 12 17.3171 12.7998 19.2464 13.5715C19.9027 13.834 20.4851 14.0965 20.9694 14.3294C20.9514 13.7406 20.9226 13.0429 20.8769 12.3124C20.8153 11.3266 20.7238 10.2959 20.5892 9.39834C20.4495 8.46724 20.2787 7.7935 20.1056 7.44721C19.9619 7.15989 19.6142 6.77476 19.0125 6.34498C18.4289 5.92815 17.6833 5.52367 16.8561 5.16915C15.1839 4.4525 13.3217 4 12 4C10.6783 4 8.81608 4.4525 7.14392 5.16915C6.3167 5.52367 5.57106 5.92815 4.98749 6.34498ZM20.8196 16.4913L19.8368 19.9312C19.6519 20.5781 18.7483 21.0068 17.9593 20.6116C16.4016 19.8314 14.2322 19 12 19C9.76784 19 7.59842 19.8314 6.0407 20.6116C5.2517 21.0068 4.34806 20.5781 4.16321 19.9312L3.18037 16.4913C3.2239 16.4685 3.26937 16.4449 3.31672 16.4205C3.84137 16.1507 4.59362 15.7896 5.49639 15.4285C7.31706 14.7002 9.68147 14 12 14C14.3185 14 16.6829 14.7002 18.5036 15.4285C19.4064 15.7896 20.1586 16.1507 20.6833 16.4205C20.7306 16.4449 20.7761 16.4685 20.8196 16.4913Z" fill="#000640"/>
</svg>
