<svg width="24" height="24" viewBox="0 0 24 24" fill="none" xmlns="http://www.w3.org/2000/svg">
<g clip-path="url(#clip0_1253_4424)">
<path fill-rule="evenodd" clip-rule="evenodd" d="M4.48415 5.40336C4.85197 5.66354 5.28241 6.00947 5.71374 6.44901C6.69313 7.44704 7.68957 8.94448 7.9401 11H11V2.04935C8.4105 2.30634 6.11132 3.55085 4.48415 5.40336ZM13 2.04935V11H16.0599C16.3104 8.94448 17.3069 7.44704 18.2863 6.44901C18.7176 6.00947 19.148 5.66354 19.5159 5.40336C17.8887 3.55085 15.5895 2.30634 13 2.04935ZM20.6796 7.02994C20.3917 7.23296 20.0523 7.50486 19.7137 7.84983C19.0047 8.57235 18.3109 9.60038 18.0802 11H21.9507C21.8084 9.56522 21.3631 8.22066 20.6796 7.02994ZM21.9507 13H18.0802C18.3109 14.3996 19.0047 15.4276 19.7137 16.1502C20.0523 16.4951 20.3917 16.767 20.6796 16.9701C21.3631 15.7793 21.8084 14.4348 21.9507 13ZM19.5158 18.5966C19.148 18.3365 18.7176 17.9905 18.2863 17.551C17.3069 16.553 16.3104 15.0555 16.0599 13H13V21.9506C15.5895 21.6937 17.8887 20.4492 19.5158 18.5966ZM11 21.9506V13H7.9401C7.68957 15.0555 6.69313 16.553 5.71374 17.551C5.28241 17.9905 4.85197 18.3365 4.48415 18.5966C6.11132 20.4492 8.4105 21.6937 11 21.9506ZM3.32037 16.9701C3.60831 16.767 3.94773 16.4951 4.28626 16.1502C4.99528 15.4276 5.68911 14.3996 5.91976 13H2.04931C2.19161 14.4348 2.63691 15.7793 3.32037 16.9701ZM2.04931 11C2.19161 9.56522 2.63691 8.22066 3.32037 7.02994C3.60831 7.23296 3.94773 7.50486 4.28626 7.84983C4.99528 8.57235 5.68911 9.60038 5.91976 11H2.04931ZM21.4191 17.4182C21.4192 17.4183 21.4192 17.4183 21.4191 17.4182V17.4182ZM2.58091 6.58178C2.58058 6.58163 2.58117 6.5819 2.58265 6.58261L2.58091 6.58178ZM2.18238 5.09808C4.35239 2.01656 7.94065 0 12 0C16.0594 0 19.6476 2.01656 21.8176 5.09808C23.1925 7.05045 24 9.43242 24 12C24 14.5676 23.1925 16.9495 21.8176 18.9019C19.6476 21.9834 16.0594 24 12 24C7.94065 24 4.35239 21.9834 2.18238 18.9019C0.807521 16.9495 0 14.5676 0 12C0 9.43242 0.807521 7.05045 2.18238 5.09808Z" fill="#000640"/>
</g>
<defs>
<clipPath id="clip0_1253_4424">
<rect width="24" height="24" fill="white"/>
</clipPath>
</defs>
</svg>
