<svg width="24" height="24" viewBox="0 0 24 24" fill="none" xmlns="http://www.w3.org/2000/svg">
<path d="M16 12.9999C16 13.5522 15.5523 13.9999 15 13.9999H13V16C13 16.5523 12.5523 17 12 17C11.4477 17 11 16.5523 11 16V13.9999H9C8.44771 13.9999 8 13.5522 8 12.9999C8 12.4476 8.44772 11.9999 9 11.9999H11V10C11 9.44771 11.4477 9 12 9C12.5523 9 13 9.44771 13 10V11.9999H15C15.5523 11.9999 16 12.4476 16 12.9999Z" fill="#000640"/>
<path fill-rule="evenodd" clip-rule="evenodd" d="M9 2C9 1.44772 9.44772 1 10 1H14C14.5523 1 15 1.44772 15 2V3H17C18.6569 3 20 4.34315 20 6V20C20 21.6569 18.6569 23 17 23H7C5.34315 23 4 21.6569 4 20V6C4 4.34315 5.34315 3 7 3H9V2ZM7 5C6.44772 5 6 5.44772 6 6V20C6 20.5523 6.44772 21 7 21H17C17.5523 21 18 20.5523 18 20V6C18 5.44772 17.5523 5 17 5H7Z" fill="#000640"/>
</svg>
