<svg width="24" height="24" viewBox="0 0 24 24" fill="none" xmlns="http://www.w3.org/2000/svg">
<path fill-rule="evenodd" clip-rule="evenodd" d="M8.1172 5.9641C8.04057 5.65473 8 5.33166 8 5C8 2.79086 9.79086 1 12 1C14.2091 1 16 2.79086 16 5C16 5.33175 15.9594 5.65481 15.8828 5.9641C18.8052 7.539 20.7515 10.9178 20.9779 15.163C22.1546 15.5685 23 16.6855 23 18V20C23 21.6569 21.6569 23 20 23H4C2.34315 23 1 21.6569 1 20V18C1 16.6855 1.84539 15.5685 3.02213 15.163C3.24846 10.9178 5.19476 7.539 8.1172 5.9641ZM10 5C10 3.89543 10.8954 3 12 3C13.1046 3 14 3.89543 14 5C14 5.07977 13.9954 5.15828 13.9864 5.23531C13.3531 5.08067 12.6892 5 12 5C11.3108 5 10.6469 5.08067 10.0136 5.23531C10.0046 5.15829 10 5.07979 10 5ZM8.00123 15H5.03546C5.31836 11.0226 7.28817 8.33726 9.85028 7.38437C9.13198 8.5809 8.67966 9.65827 8.40486 10.7575C8.06588 12.1134 8.01018 13.4609 8.00123 15ZM10.3451 11.2425C10.609 10.1869 11.0873 9.09949 12 7.7273C12.9127 9.09949 13.391 10.1869 13.6549 11.2425C13.9355 12.3652 13.9875 13.4963 13.9973 15H10.0022C10.012 13.4963 10.0645 12.3652 10.3451 11.2425ZM13 17H16V21H13V17ZM20 21H18V17H20C20.5523 17 21 17.4477 21 18V20C21 20.5523 20.5523 21 20 21ZM11 17V21H8V17H11ZM6 17V21H4C3.44772 21 3 20.5523 3 20V18C3 17.4477 3.44772 17 4 17H6ZM15.5951 10.7575C15.9341 12.1134 15.9893 13.4609 15.9983 15H18.965C18.6822 11.0226 16.7118 8.33726 14.1497 7.38437C14.868 8.5809 15.3203 9.65827 15.5951 10.7575Z" fill="#000640"/>
</svg>
