<svg width="24" height="24" viewBox="0 0 24 24" fill="none" xmlns="http://www.w3.org/2000/svg">
<path d="M10 8C9.44772 8 9.00001 8.44772 9.00001 9C9.00001 9.55229 9.44772 10 10 10H11.9194L9.21914 13.3753C8.979 13.6755 8.93219 14.0867 9.09871 14.4332C9.26523 14.7797 9.6156 15 10 15H14C14.5523 15 15 14.5523 15 14C15 13.4477 14.5523 13 14 13H12.0806L14.7809 9.62469C15.021 9.32452 15.0678 8.91328 14.9013 8.56681C14.7348 8.22035 14.3844 8 14 8H10Z" fill="#000640"/>
<path fill-rule="evenodd" clip-rule="evenodd" d="M13.9953 3.12994C13.9984 3.08951 14 3.04625 14 3C14 1.89543 13.1046 1 12 1C10.8954 1 10 1.89543 10 3C10 3.04625 10.0016 3.0895 10.0047 3.12992C8.44082 3.35228 7.24771 3.85867 6.35186 4.63844C5.11014 5.71927 4.60782 7.1818 4.33149 8.60064C4.193 9.31171 4.1044 10.0521 4.0201 10.7603L4.01699 10.7864C3.93229 11.498 3.85098 12.1812 3.72784 12.8466C3.47894 14.1918 3.07743 15.3488 2.25498 16.2674C2.05171 16.4944 1.96306 16.8018 2.01418 17.1022C2.0653 17.4026 2.25062 17.6633 2.51754 17.8103C4.14835 18.7086 6.05393 19.324 8.0556 19.6684C8.37372 21.5594 10.0186 23 12 23C13.9814 23 15.6263 21.5594 15.9444 19.6684C17.9461 19.324 19.8517 18.7086 21.4825 17.8103C21.7494 17.6633 21.9347 17.4026 21.9858 17.1022C22.037 16.8018 21.9483 16.4944 21.745 16.2674C20.9226 15.3488 20.5211 14.1918 20.2721 12.8466C20.149 12.1812 20.0677 11.498 19.983 10.7864L19.9799 10.7603C19.8955 10.0521 19.8069 9.31169 19.6684 8.60062C19.3921 7.18178 18.8897 5.71927 17.648 4.63844C16.7522 3.85869 15.5591 3.3523 13.9953 3.12994ZM12 21C11.233 21 10.5668 20.5683 10.2313 19.9345C10.8196 19.9783 11.4106 20 12 20C12.5894 20 13.1804 19.9783 13.7687 19.9345C13.4331 20.5683 12.767 21 12 21ZM12 18C9.31722 18 6.67257 17.5102 4.51162 16.5643C5.1577 15.4976 5.48689 14.3323 5.69446 13.2105C5.82948 12.4808 5.91737 11.7422 5.99973 11.05L6.00608 10.9967C6.09182 10.2764 6.17259 9.60947 6.29461 8.98297C6.53928 7.72667 6.92247 6.79329 7.66496 6.14701C8.40522 5.50267 9.67104 5 11.9999 5C14.3288 5 15.5946 5.50267 16.3349 6.14701C17.0774 6.7933 17.4606 7.72669 17.7053 8.98299C17.8273 9.60948 17.9081 10.2764 17.9939 10.9967L18.0002 11.05C18.0826 11.7422 18.1705 12.4808 18.3055 13.2106C18.5131 14.3323 18.8423 15.4976 19.4884 16.5643C17.3274 17.5102 14.6828 18 12 18Z" fill="#000640"/>
</svg>
