<svg width="24" height="24" viewBox="0 0 24 24" fill="none" xmlns="http://www.w3.org/2000/svg">
<path d="M16.1058 1.55276C16.3528 1.05878 16.9535 0.858558 17.4474 1.10555C18.5077 1.6357 19.3574 2.19295 20.0823 2.91788C20.8072 3.64281 21.3644 4.49249 21.8945 5.55282C22.1415 6.04682 21.9412 6.64748 21.4472 6.89443C20.9532 7.14139 20.3525 6.94112 20.1056 6.44713C19.6358 5.50746 19.1931 4.85714 18.6681 4.33207C18.143 3.807 17.4927 3.36425 16.553 2.8944C16.059 2.64741 15.8588 2.04674 16.1058 1.55276Z" fill="#000640"/>
<path d="M7.45464 2.89076C7.94661 2.63979 8.14198 2.03752 7.89101 1.54555C7.64004 1.05358 7.03777 0.858212 6.5458 1.10918C5.49488 1.64529 4.64772 2.20108 3.92324 2.92199C3.19751 3.64415 2.63735 4.48964 2.10579 5.55275C1.8588 6.04673 2.05903 6.64741 2.55301 6.8944C3.04698 7.14139 3.64766 6.94116 3.89465 6.44718C4.36309 5.5103 4.80743 4.86362 5.33396 4.33969C5.86172 3.81453 6.51456 3.37032 7.45464 2.89076Z" fill="#000640"/>
<path fill-rule="evenodd" clip-rule="evenodd" d="M14.0002 3C14.0002 3.04625 13.9987 3.08951 13.9956 3.12994C15.5594 3.3523 16.7524 3.85869 17.6482 4.63844C18.89 5.71927 19.3923 7.18178 19.6687 8.60062C19.8072 9.31169 19.8958 10.0521 19.9801 10.7603L19.9832 10.7864C20.0679 11.498 20.1492 12.1812 20.2724 12.8466C20.5213 14.1918 20.9228 15.3488 21.7453 16.2674C21.9486 16.4944 22.0372 16.8018 21.9861 17.1022C21.935 17.4026 21.7496 17.6633 21.4827 17.8103C19.8519 18.7086 17.9463 19.324 15.9446 19.6684C15.6265 21.5594 13.9816 23 12.0002 23C10.0189 23 8.37396 21.5594 8.05585 19.6684C6.05418 19.324 4.14859 18.7086 2.51778 17.8103C2.25086 17.6633 2.06555 17.4026 2.01443 17.1022C1.9633 16.8018 2.05195 16.4944 2.25522 16.2674C3.07767 15.3488 3.47918 14.1918 3.72809 12.8466C3.85122 12.1812 3.93254 11.498 4.01723 10.7864L4.02034 10.7603C4.10464 10.0521 4.19325 9.31171 4.33174 8.60064C4.60807 7.1818 5.11038 5.71927 6.35211 4.63844C7.24796 3.85867 8.44106 3.35228 10.0049 3.12992C10.0018 3.0895 10.0002 3.04625 10.0002 3C10.0002 1.89543 10.8957 1 12.0002 1C13.1048 1 14.0002 1.89543 14.0002 3ZM10.2316 19.9345C10.5671 20.5683 11.2332 21 12.0002 21C12.7672 21 13.4334 20.5683 13.7689 19.9345C13.1806 19.9783 12.5896 20 12.0003 20C11.4109 20 10.8199 19.9783 10.2316 19.9345ZM4.51186 16.5643C6.67281 17.5102 9.31746 18 12.0003 18C14.683 18 17.3277 17.5102 19.4886 16.5643C18.8426 15.4976 18.5134 14.3323 18.3058 13.2106C18.1707 12.4808 18.0828 11.7422 18.0005 11.05L17.9941 10.9967C17.9084 10.2764 17.8276 9.60948 17.7056 8.98299C17.4609 7.72669 17.0777 6.7933 16.3352 6.14701C15.5949 5.50267 14.3291 5 12.0002 5C9.67129 5 8.40546 5.50267 7.66521 6.14701C6.92271 6.79329 6.53953 7.72667 6.29485 8.98297C6.17284 9.60947 6.09206 10.2764 6.00632 10.9967L5.99998 11.05C5.91761 11.7422 5.82973 12.4808 5.6947 13.2105C5.48713 14.3323 5.15795 15.4976 4.51186 16.5643Z" fill="#000640"/>
</svg>
