<svg width="24" height="24" viewBox="0 0 24 24" fill="none" xmlns="http://www.w3.org/2000/svg">
<path d="M15 13C15.5523 13 16 12.5523 16 12C16 11.4477 15.5523 11 15 11L9.00002 11C8.44773 11 8.00001 11.4477 8.00001 12C8.00002 12.5523 8.44773 13 9.00001 13H15Z" fill="#000640"/>
<path fill-rule="evenodd" clip-rule="evenodd" d="M14 3C14 3.04625 13.9984 3.08951 13.9954 3.12994C15.5591 3.35231 16.7522 3.85869 17.648 4.63844C18.8897 5.71927 19.3921 7.18178 19.6684 8.60062C19.8069 9.31169 19.8955 10.0521 19.9799 10.7603L19.983 10.7864C20.0677 11.498 20.149 12.1812 20.2721 12.8466C20.5211 14.1918 20.9226 15.3488 21.745 16.2674C21.9483 16.4944 22.037 16.8018 21.9858 17.1022C21.9347 17.4026 21.7494 17.6633 21.4825 17.8103C19.8515 18.7087 17.9458 19.3241 15.944 19.6685C15.9325 19.7361 15.9193 19.8033 15.9045 19.87C15.7827 20.4164 15.5474 20.9319 15.213 21.3828C14.837 21.8898 14.3463 22.3006 13.7811 22.5817C13.2159 22.8627 12.5922 23.006 11.961 22.9998C11.3297 22.9936 10.709 22.8381 10.1494 22.546C9.58976 22.254 9.10723 21.8336 8.74122 21.3193C8.41576 20.8619 8.19065 20.3419 8.07965 19.7932C8.07127 19.7518 8.06355 19.7103 8.05649 19.6686C6.05449 19.3242 4.14859 18.7088 2.51754 17.8103C2.25062 17.6633 2.0653 17.4026 2.01418 17.1022C1.96306 16.8018 2.05171 16.4944 2.25498 16.2674C3.07743 15.3488 3.47894 14.1918 3.72784 12.8466C3.85098 12.1812 3.93229 11.498 4.01699 10.7864L4.0201 10.7603C4.1044 10.0521 4.193 9.31171 4.33149 8.60064C4.60782 7.1818 5.11014 5.71927 6.35186 4.63844C7.24772 3.85867 8.44083 3.35227 10.0047 3.12992C10.0016 3.08949 10 3.04625 10 3C10 1.89543 10.8954 1 12 1C13.1046 1 14 1.89543 14 3ZM10.232 19.9346C10.2731 20.0124 10.3194 20.0876 10.3707 20.1596C10.5537 20.4168 10.795 20.627 11.0748 20.773C11.3546 20.9191 11.665 20.9968 11.9806 20.9999C12.2962 21.003 12.608 20.9314 12.8907 20.7908C13.1733 20.6503 13.4186 20.4449 13.6066 20.1914C13.6672 20.1098 13.7212 20.0239 13.7684 19.9345C13.1802 19.9783 12.5893 20 12 20C11.4108 20 10.8201 19.9783 10.232 19.9346ZM12 18C9.31722 18 6.67257 17.5102 4.51162 16.5643C5.1577 15.4976 5.48689 14.3323 5.69446 13.2105C5.82948 12.4808 5.91737 11.7422 5.99973 11.05L6.00608 10.9967C6.09182 10.2764 6.17259 9.60947 6.29461 8.98297C6.53928 7.72667 6.92247 6.79329 7.66496 6.14701C8.40522 5.50267 9.67104 5 11.9999 5C14.3288 5 15.5946 5.50267 16.3349 6.14701C17.0774 6.7933 17.4606 7.72669 17.7053 8.98299C17.8273 9.60948 17.9081 10.2764 17.9939 10.9967L18.0002 11.05C18.0826 11.7422 18.1705 12.4808 18.3055 13.2106C18.5131 14.3323 18.8423 15.4976 19.4884 16.5643C17.3274 17.5102 14.6828 18 12 18Z" fill="#000640"/>
</svg>
