<svg width="24" height="24" viewBox="0 0 24 24" fill="none" xmlns="http://www.w3.org/2000/svg">
<path d="M9.70711 4.70711C10.0976 4.31658 10.0976 3.68342 9.70711 3.29289C9.31658 2.90237 8.68342 2.90237 8.29289 3.29289L3.29289 8.29289C2.90237 8.68342 2.90237 9.31658 3.29289 9.70711L8.29289 14.7071C8.68342 15.0976 9.31658 15.0976 9.70711 14.7071C10.0976 14.3166 10.0976 13.6834 9.70711 13.2929L6.41421 10H12C14.3003 10 16.0448 10.6876 17.2023 11.7399C18.3542 12.7871 19 14.2613 19 16V19.9997C19 20.552 19.4477 21 20 21C20.5523 21 21 20.5523 21 20V16C21 13.7387 20.1458 11.7129 18.5477 10.2601C16.9552 8.8124 14.6997 8 12 8H6.41421L9.70711 4.70711Z" fill="#000640"/>
</svg>
