<svg width="24" height="24" viewBox="0 0 24 24" fill="none" xmlns="http://www.w3.org/2000/svg">
<path d="M17.5858 14L14.2929 10.7071C13.9023 10.3166 13.9023 9.68342 14.2929 9.29289C14.6834 8.90237 15.3165 8.90237 15.7071 9.29289L20.7071 14.2929C21.0976 14.6834 21.0976 15.3166 20.7071 15.7071L15.7071 20.7071C15.3165 21.0976 14.6834 21.0976 14.2929 20.7071C13.9023 20.3166 13.9023 19.6834 14.2929 19.2929L17.5858 16H10C6.134 16 3 12.866 3 9V4C3 3.44771 3.44771 3 4 3C4.55229 3 5 3.44771 5 4V9C5 11.7614 7.23857 14 10 14H17.5858Z" fill="#000640"/>
</svg>
