<svg width="24" height="24" viewBox="0 0 24 24" fill="none" xmlns="http://www.w3.org/2000/svg">
<path d="M10 17.5858L13.2929 14.2929C13.6834 13.9024 14.3166 13.9024 14.7071 14.2929C15.0976 14.6834 15.0976 15.3166 14.7071 15.7071L9.70711 20.7071C9.31658 21.0976 8.68342 21.0976 8.29289 20.7071L3.29289 15.7071C2.90237 15.3166 2.90237 14.6834 3.29289 14.2929C3.68342 13.9024 4.31658 13.9024 4.70711 14.2929L8 17.5858L8 12C8 9.30032 8.8124 7.04475 10.2601 5.45233C11.7129 3.85416 13.7387 3 16 3H20C20.5523 3 21 3.44772 21 4C21 4.55229 20.552 5 19.9997 5L16 5C14.2613 5 12.7871 5.64584 11.7399 6.79767C10.6876 7.95525 10 9.69968 10 12L10 17.5858Z" fill="#000640"/>
</svg>
