<svg width="24" height="24" viewBox="0 0 24 24" fill="none" xmlns="http://www.w3.org/2000/svg">
<path d="M19 3C19 4.10457 18.1046 5 17 5C15.8954 5 15 4.10457 15 3C15 1.89543 15.8954 1 17 1C18.1046 1 19 1.89543 19 3Z" fill="#000640"/>
<path fill-rule="evenodd" clip-rule="evenodd" d="M6 13C3.23858 13 1 15.2386 1 18C1 20.7614 3.23858 23 6 23C8.76142 23 11 20.7614 11 18C11 15.2386 8.76142 13 6 13ZM3 18C3 16.3431 4.34315 15 6 15C7.65685 15 9 16.3431 9 18C9 19.6569 7.65685 21 6 21C4.34315 21 3 19.6569 3 18Z" fill="#000640"/>
<path fill-rule="evenodd" clip-rule="evenodd" d="M18 13C15.2386 13 13 15.2386 13 18C13 20.7614 15.2386 23 18 23C20.7614 23 23 20.7614 23 18C23 15.2386 20.7614 13 18 13ZM15 18C15 16.3431 16.3431 15 18 15C19.6569 15 21 16.3431 21 18C21 19.6569 19.6569 21 18 21C16.3431 21 15 19.6569 15 18Z" fill="#000640"/>
<path d="M14.9285 4.62846C14.7505 4.1834 14.2817 3.92727 13.811 4.01789C12.0694 4.35317 10.6799 4.75326 9.34566 5.41594C8.01414 6.07727 6.78691 6.97567 5.33949 8.24905C5.07073 8.4855 4.94886 8.84757 5.01993 9.19841C5.09101 9.54925 5.3442 9.83534 5.6838 9.94854L11 11.7206V14.9999C11 15.5521 11.4477 15.9999 12 15.9999C12.5523 15.9999 13 15.5521 13 14.9999V10.9999C13 10.5694 12.7246 10.1873 12.3163 10.0512L8.02335 8.6202C8.80649 8.01713 9.51349 7.56568 10.2353 7.20717C11.1574 6.74918 12.1375 6.42605 13.3825 6.14859L15.0715 10.3712C15.2234 10.7509 15.5911 10.9999 16 10.9999H20C20.5523 10.9999 21 10.5521 21 9.99985C21 9.44757 20.5523 8.99985 20 8.99985H16.6771L14.9285 4.62846Z" fill="#000640"/>
</svg>
