<svg width="24" height="24" viewBox="0 0 24 24" fill="none" xmlns="http://www.w3.org/2000/svg">
<path fill-rule="evenodd" clip-rule="evenodd" d="M10.3163 1.05132C9.73274 0.856788 9.10743 0.974611 8.62273 1.13868C8.10512 1.3139 7.57634 1.6001 7.09753 1.94305C6.61734 2.287 6.15566 2.71073 5.78736 3.18379C5.4251 3.64909 5.11097 4.2168 5.01226 4.84453C4.90697 5.51413 5.13815 6.24374 5.44642 6.83202C5.59656 7.11854 5.78286 7.40634 6.00175 7.68022C5.78555 7.86104 5.56518 8.05049 5.33946 8.24907C5.0707 8.48552 4.94883 8.84759 5.0199 9.19843C5.09098 9.54927 5.34417 9.83536 5.68376 9.94855L11 11.7206V14.9999C11 15.5522 11.4477 15.9999 12 15.9999C12.5523 15.9999 13 15.5522 13 14.9999V10.9999C13 10.5694 12.7246 10.1873 12.3162 10.0512L8.0233 8.62021L8.10588 8.55697C9.65318 7.37856 10.9523 6.75949 12.7479 6.3C12.952 6.24778 13.1631 6.19748 13.3824 6.14859L15.0715 10.3713C15.2234 10.7509 15.5911 10.9999 16 10.9999H20C20.5523 10.9999 21 10.5522 21 9.99987C21 9.44759 20.5523 8.99987 20 8.99987H16.677L14.9285 4.62848C14.7504 4.18342 14.2816 3.92728 13.8109 4.0179C13.544 4.06929 13.2853 4.12222 13.0337 4.1774C12.8922 3.91449 12.7156 3.60096 12.5159 3.27809C12.2587 2.86231 11.9488 2.40722 11.6129 2.02054C11.3048 1.66576 10.8619 1.23324 10.3163 1.05132ZM7.21793 5.90371C7.31721 6.09318 7.44248 6.28325 7.58798 6.46114C8.72247 5.67623 9.80438 5.13248 11.0451 4.71632C10.973 4.59102 10.8959 4.46103 10.8149 4.33011C10.5856 3.95925 10.3397 3.60462 10.103 3.33207C9.9852 3.19644 9.8822 3.09578 9.79728 3.02722C9.73664 2.97826 9.69974 2.95748 9.68654 2.95061L9.6818 2.95049C9.65299 2.94953 9.52351 2.94525 9.264 3.03309C8.96744 3.13348 8.61309 3.31762 8.26214 3.569C7.91257 3.81938 7.59785 4.11396 7.36547 4.41244C7.12705 4.71868 7.0162 4.97572 6.98798 5.15521C6.97891 5.21291 6.99767 5.48339 7.21793 5.90371Z" fill="#000640"/>
<path d="M19 3C19 4.10457 18.1046 5 17 5C15.8954 5 15 4.10457 15 3C15 1.89543 15.8954 1 17 1C18.1046 1 19 1.89543 19 3Z" fill="#000640"/>
<path fill-rule="evenodd" clip-rule="evenodd" d="M6 13C3.23858 13 1 15.2386 1 18C1 20.7614 3.23858 23 6 23C8.76142 23 11 20.7614 11 18C11 15.2386 8.76142 13 6 13ZM3 18C3 16.3431 4.34315 15 6 15C7.65685 15 9 16.3431 9 18C9 19.6569 7.65685 21 6 21C4.34315 21 3 19.6569 3 18Z" fill="#000640"/>
<path fill-rule="evenodd" clip-rule="evenodd" d="M18 13C15.2386 13 13 15.2386 13 18C13 20.7614 15.2386 23 18 23C20.7614 23 23 20.7614 23 18C23 15.2386 20.7614 13 18 13ZM15 18C15 16.3431 16.3431 15 18 15C19.6569 15 21 16.3431 21 18C21 19.6569 19.6569 21 18 21C16.3431 21 15 19.6569 15 18Z" fill="#000640"/>
</svg>
