<svg width="24" height="24" viewBox="0 0 24 24" fill="none" xmlns="http://www.w3.org/2000/svg">
<path fill-rule="evenodd" clip-rule="evenodd" d="M6.5 1C7.05228 1 7.5 1.44772 7.5 2C7.5 2.28663 7.43648 2.56497 7.35846 2.80923C7.76547 2.96342 8.24944 3.1849 8.7694 3.50094C9.82645 4.14342 11.0142 5.16649 12.001 6.77177C12.9905 5.16838 14.1837 4.15186 15.2463 3.51666C15.7635 3.20753 16.2453 2.99118 16.6517 2.84062C16.5688 2.58803 16.5 2.29821 16.5 2C16.5 1.44772 16.9477 1 17.5 1C18.0523 1 18.5 1.44772 18.5 2L18.5 2.00004C18.5 2.00141 18.5008 2.02716 18.5142 2.08454C18.5279 2.14333 18.5512 2.22047 18.5881 2.31979C18.6636 2.52329 18.7748 2.7651 18.9198 3.06618C18.9563 3.14204 18.9949 3.22125 19.035 3.30357C19.4309 4.11653 19.9747 5.23329 20.1529 6.42282C20.3301 7.6053 20.1529 8.87298 19.2651 10.0645C20.5515 12.0407 21 14.0317 21 16C21 16.5523 20.5523 17 20 17C20.0018 17 20.0011 17.0001 19.9978 17.0005C19.9814 17.0024 19.902 17.012 19.745 17.0562C19.5724 17.1049 19.3496 17.1831 19.0878 17.2948C18.5644 17.5181 17.9211 17.86 17.2586 18.3209C15.9231 19.2499 14.5917 20.6035 13.9363 22.3511C13.79 22.7414 13.4168 23 13 23H11C10.5832 23 10.21 22.7414 10.0637 22.3511C9.4083 20.6035 8.07691 19.2499 6.74143 18.3209C6.07887 17.86 5.43562 17.5181 4.91225 17.2948C4.65041 17.1831 4.42762 17.1049 4.25501 17.0562C4.09804 17.012 4.01858 17.0024 4.00223 17.0005C3.99889 17.0001 3.99819 17 4 17C3.73478 17 3.48043 16.8946 3.29289 16.7071C3.10536 16.5196 3 16.2652 3 16C3 13.9807 3.4495 12.0296 4.73433 10.0638C3.83887 8.86157 3.66718 7.58254 3.85165 6.39269C4.03441 5.21389 4.57485 4.10442 4.96858 3.29611C5.0141 3.20266 5.05766 3.11324 5.09848 3.02821C5.2382 2.73711 5.34469 2.50327 5.41655 2.30722C5.45163 2.21151 5.47374 2.13729 5.48665 2.0809C5.49918 2.02615 5.49995 2.00145 5.5 2.00004C5.5 1.99998 5.5 1.99996 5.5 2C5.5 1.44772 5.94772 1 6.5 1ZM17.472 4.67118C17.1469 4.7832 16.7303 4.95967 16.2725 5.23334C15.1887 5.88115 13.84 7.09261 12.9285 9.37139C12.7766 9.75105 12.4089 10 12 10C11.5911 10 11.2234 9.75105 11.0715 9.37139C10.159 7.09017 8.81248 5.86758 7.7306 5.21C7.27773 4.93474 6.86546 4.75522 6.54273 4.64009C6.22113 5.32197 5.93633 6.00065 5.82804 6.69911C5.69428 7.56181 5.83745 8.42323 6.70711 9.29289C7.059 9.64478 7.09859 10.2019 6.8 10.6C5.63937 12.1475 5.147 13.6371 5.02911 15.2017C5.24906 15.2736 5.47488 15.3604 5.69712 15.4552C6.34563 15.7319 7.10863 16.14 7.88356 16.6791C9.27122 17.6444 10.7638 19.0773 11.6632 21H12.3368C13.2362 19.0773 14.7288 17.6444 16.1164 16.6791C16.8914 16.14 17.6544 15.7319 18.3029 15.4552C18.5247 15.3606 18.75 15.2739 18.9696 15.2022C18.8492 13.6639 18.3554 12.1405 17.2 10.6C16.9014 10.2019 16.941 9.64478 17.2929 9.29289C18.1568 8.42896 18.3031 7.57397 18.175 6.71922C18.0712 6.02647 17.7911 5.3505 17.472 4.67118Z" fill="#000640"/>
</svg>
