<svg width="24" height="24" viewBox="0 0 24 24" fill="none" xmlns="http://www.w3.org/2000/svg">
<path fill-rule="evenodd" clip-rule="evenodd" d="M16.9998 13C16.9998 15.7614 14.7612 18 11.9998 18C9.23835 18 6.99978 15.7614 6.99978 13C6.99978 10.2386 9.23835 8 11.9998 8C14.7612 8 16.9998 10.2386 16.9998 13ZM14.9998 13C14.9998 14.6569 13.6566 16 11.9998 16C10.3429 16 8.99978 14.6569 8.99978 13C8.99978 11.3431 10.3429 10 11.9998 10C13.6566 10 14.9998 11.3431 14.9998 13Z" fill="#000640"/>
<path fill-rule="evenodd" clip-rule="evenodd" d="M13.6347 1.37004C12.6406 0.723819 11.359 0.72382 10.3648 1.37005L2.52527 6.46575C1.54605 7.10224 1.02522 8.24917 1.19039 9.40534L2.76452 20.4243C2.97566 21.9022 4.24142 23 5.73437 23H18.2652C19.7581 23 21.0239 21.9022 21.235 20.4243L22.8092 9.40534C22.9743 8.24917 22.4535 7.10224 21.4743 6.46575L13.6347 1.37004ZM11.4548 3.04693C11.7862 2.83152 12.2134 2.83152 12.5448 3.04693L20.3843 8.14263C20.7107 8.3548 20.8843 8.73711 20.8293 9.1225L19.2551 20.1414C19.1848 20.6341 18.7628 21 18.2652 21H5.73437C5.23672 21 4.8148 20.6341 4.74442 20.1414L3.17029 9.1225C3.11523 8.73711 3.28884 8.3548 3.61525 8.14263L11.4548 3.04693Z" fill="#000640"/>
</svg>
