<svg width="24" height="24" viewBox="0 0 24 24" fill="none" xmlns="http://www.w3.org/2000/svg">
<path fill-rule="evenodd" clip-rule="evenodd" d="M10.5758 1.09442C10.9272 0.929843 11.3421 0.983388 11.6402 1.23179L17.6402 6.23179C17.8682 6.42178 18 6.70323 18 7.00001C18 7.29679 17.8682 7.57824 17.6402 7.76823L12.5398 12.0186L17.6585 16.4974C17.882 16.693 18.007 16.9777 17.9997 17.2746C17.9924 17.5715 17.8535 17.8497 17.6207 18.0341L11.6207 22.7841C11.32 23.0221 10.9097 23.0672 10.5645 22.9002C10.2193 22.7332 10 22.3835 10 22V14.4142L6.70711 17.7071C6.31658 18.0976 5.68342 18.0976 5.29289 17.7071C4.90237 17.3166 4.90237 16.6834 5.29289 16.2929L9.58579 12L5.29289 7.70712C4.90237 7.3166 4.90237 6.68343 5.29289 6.29291C5.68342 5.90238 6.31658 5.90238 6.70711 6.29291L10 9.5858V2.00001C10 1.61199 10.2245 1.259 10.5758 1.09442ZM12 14.2038V19.9329L15.4375 17.2116L12 14.2038ZM12 9.86497V4.13505L15.438 7.00001L12 9.86497Z" fill="#000640"/>
</svg>
