<svg width="24" height="24" viewBox="0 0 24 24" fill="none" xmlns="http://www.w3.org/2000/svg">
<path fill-rule="evenodd" clip-rule="evenodd" d="M11.7369 1.32431C11.4583 1.02032 11.0216 0.918566 10.6372 1.06806C10.2529 1.21756 9.99976 1.58766 9.99976 2.00004V17H6.99975V14C6.99975 13.4477 6.55204 13 5.99975 13C5.44747 13 4.99975 13.4477 4.99975 14V17H1.99975C1.65317 17 1.33131 17.1795 1.1491 17.4743C0.966893 17.7691 0.950771 18.1381 1.10577 18.4481L1.1082 18.4529L1.11402 18.4644L1.13427 18.5039C1.15155 18.5374 1.17633 18.5848 1.20811 18.6441C1.27163 18.7627 1.36347 18.9296 1.47972 19.1289C1.71101 19.5254 2.04473 20.06 2.44975 20.6C2.85043 21.1342 3.34573 21.7074 3.90631 22.1559C4.45298 22.5932 5.17172 23 5.99975 23H20.9998C21.4586 23 21.8586 22.6877 21.9699 22.2425L22.9699 18.2425C23.0446 17.9438 22.9775 17.6273 22.788 17.3846C22.5984 17.1419 22.3077 17 21.9998 17H11.9998V15H21.9998C22.3963 15 22.7554 14.7657 22.9151 14.4027C23.0748 14.0397 23.0049 13.6166 22.7369 13.3243L11.7369 1.32431ZM10.9907 19C10.9937 19 10.9967 19 10.9998 19C11.0028 19 11.0058 19 11.0088 19H20.719L20.2189 21H5.99975C5.82778 21 5.54652 20.9068 5.1557 20.5941C4.77877 20.2926 4.39907 19.8658 4.04975 19.4C3.94937 19.2662 3.85354 19.1319 3.76303 19H10.9907ZM19.7265 13H11.9998V4.57084L19.7265 13Z" fill="#000640"/>
</svg>
