<svg width="24" height="24" viewBox="0 0 24 24" fill="none" xmlns="http://www.w3.org/2000/svg">
<path fill-rule="evenodd" clip-rule="evenodd" d="M3.22185 3.22173C3.4223 3.02127 3.69842 2.91532 3.98152 2.93022L17.4165 3.63732C17.8109 3.65808 18.1561 3.90898 18.2976 4.27768C18.4391 4.64637 18.3503 5.0638 18.0711 5.34305L15.2427 8.17147L21.6066 14.5354C21.9972 14.926 21.9972 15.5591 21.6066 15.9496L15.9498 21.6065C15.5592 21.997 14.9261 21.997 14.5356 21.6065L8.1716 15.2425L5.34317 18.071C5.06393 18.3502 4.6465 18.439 4.2778 18.2975C3.9091 18.156 3.6582 17.8108 3.63745 17.4164L2.93034 3.98139C2.91544 3.6983 3.02139 3.42218 3.22185 3.22173ZM5.51667 15.069L7.46449 13.1212C7.85502 12.7307 8.48818 12.7307 8.8787 13.1212L15.2427 19.4852L19.4853 15.2425L13.1213 8.87858C12.7308 8.48806 12.7308 7.85489 13.1213 7.46437L15.0692 5.51654L4.98597 4.98585L5.51667 15.069Z" fill="#000640"/>
</svg>
