<svg width="24" height="24" viewBox="0 0 24 24" fill="none" xmlns="http://www.w3.org/2000/svg">
<path fill-rule="evenodd" clip-rule="evenodd" d="M12 23C11.7165 23 11.4464 22.8797 11.2567 22.669L2.25672 12.669C1.99254 12.3754 1.92585 11.9539 2.08652 11.5932C2.24718 11.2324 2.60511 11 3.00002 11H7.00002L7.00002 6C7.00002 5.44772 7.44773 5 8.00002 5L16 5C16.5523 5 17 5.44772 17 6V11H21C21.3949 11 21.7529 11.2324 21.9135 11.5932C22.0742 11.9539 22.0075 12.3754 21.7433 12.669L12.7433 22.669C12.5537 22.8797 12.2835 23 12 23ZM18.7547 13H16C15.4477 13 15 12.5523 15 12V7L9.00002 7L9.00002 12C9.00002 12.5523 8.5523 13 8.00002 13H5.24538L12 20.5052L18.7547 13ZM17 2C17 2.55229 16.5523 3 16 3L8.00002 3C7.44773 3 7.00002 2.55228 7.00002 2C7.00002 1.44772 7.44774 1 8.00002 1L16 1C16.5523 1 17 1.44772 17 2Z" fill="#000640"/>
</svg>
