<svg width="24" height="24" viewBox="0 0 24 24" fill="none" xmlns="http://www.w3.org/2000/svg">
<path fill-rule="evenodd" clip-rule="evenodd" d="M1 12C1 11.7165 1.12032 11.4464 1.33104 11.2567L11.331 2.25672C11.6246 1.99254 12.0461 1.92585 12.4068 2.08652C12.7676 2.24718 13 2.60511 13 3.00002V7.00002H18C18.5523 7.00002 19 7.44773 19 8.00002V16C19 16.5523 18.5523 17 18 17H13V21C13 21.3949 12.7676 21.7529 12.4068 21.9135C12.0461 22.0742 11.6246 22.0075 11.331 21.7433L1.33104 12.7433C1.12032 12.5537 1 12.2835 1 12ZM11 18.7547V16C11 15.4477 11.4477 15 12 15H17V9.00002H12C11.4477 9.00002 11 8.5523 11 8.00002V5.24538L3.49485 12L11 18.7547ZM22 17C21.4477 17 21 16.5523 21 16V8.00002C21 7.44773 21.4477 7.00002 22 7.00002C22.5523 7.00002 23 7.44773 23 8.00002V16C23 16.5523 22.5523 17 22 17Z" fill="#000640"/>
</svg>
