<svg width="24" height="24" viewBox="0 0 24 24" fill="none" xmlns="http://www.w3.org/2000/svg">
<path fill-rule="evenodd" clip-rule="evenodd" d="M23 12C23 12.2835 22.8797 12.5537 22.669 12.7433L12.669 21.7433C12.3754 22.0075 11.9539 22.0742 11.5932 21.9135C11.2324 21.7529 11 21.3949 11 21V17H6C5.44772 17 5 16.5523 5 16L5 8.00002C5 7.44773 5.44772 7.00002 6 7.00002L11 7.00002L11 3.00002C11 2.60511 11.2324 2.24718 11.5932 2.08652C11.9539 1.92585 12.3754 1.99254 12.669 2.25672L22.669 11.2567C22.8797 11.4464 23 11.7165 23 12ZM13 5.24538V8.00002C13 8.5523 12.5523 9.00002 12 9.00002H7L7 15H12C12.5523 15 13 15.4477 13 16V18.7547L20.5052 12L13 5.24538ZM2 7.00002C2.55228 7.00002 3 7.44773 3 8.00002L3 16C3 16.5523 2.55228 17 2 17C1.44772 17 1 16.5523 1 16L1 8.00002C1 7.44773 1.44772 7.00002 2 7.00002Z" fill="#000640"/>
</svg>
