<svg width="24" height="24" viewBox="0 0 24 24" fill="none" xmlns="http://www.w3.org/2000/svg">
<path fill-rule="evenodd" clip-rule="evenodd" d="M3.22185 20.7781C3.02139 20.5777 2.91544 20.3016 2.93034 20.0185L3.63744 6.58344C3.6582 6.18907 3.9091 5.84386 4.2778 5.70238C4.6465 5.5609 5.06392 5.64965 5.34317 5.92889L8.1716 8.75732L14.5356 2.39336C14.9261 2.00283 15.5592 2.00283 15.9498 2.39336L21.6066 8.05021C21.9971 8.44073 21.9971 9.0739 21.6066 9.46442L15.2427 15.8284L18.0711 18.6568C18.3503 18.9361 18.4391 19.3535 18.2976 19.7222C18.1561 20.0909 17.8109 20.3418 17.4165 20.3625L3.98152 21.0696C3.69842 21.0845 3.42231 20.9786 3.22185 20.7781ZM15.0692 18.4833L13.1213 16.5355C12.7308 16.145 12.7308 15.5118 13.1213 15.1213L19.4853 8.75732L15.2427 4.51468L8.8787 10.8786C8.48818 11.2692 7.85501 11.2692 7.46449 10.8786L5.51667 8.93081L4.98597 19.014L15.0692 18.4833Z" fill="#000640"/>
</svg>
