<svg width="24" height="24" viewBox="0 0 24 24" fill="none" xmlns="http://www.w3.org/2000/svg">
<path fill-rule="evenodd" clip-rule="evenodd" d="M4.38459 6.2118C4.6273 6.0223 4.94379 5.95518 5.24254 6.02987L9.24254 7.02987C9.6877 7.14116 10 7.54114 10 8.00001V12C10 12.3079 9.85813 12.5987 9.61541 12.7882C9.3727 12.9777 9.05621 13.0448 8.75746 12.9702L4.75746 11.9702C4.3123 11.8589 4 11.4589 4 11V7.00001C4 6.69207 4.14187 6.40131 4.38459 6.2118ZM6 8.28079V10.2192L8 10.7192V8.78079L6 8.28079Z" fill="#000640"/>
<path d="M5.24253 15.0301C4.70673 14.8961 4.1638 15.2219 4.02985 15.7577C3.8959 16.2935 4.22166 16.8364 4.75746 16.9704L8.75746 17.9704C9.29325 18.1043 9.83619 17.7786 9.97013 17.2428C10.1041 16.707 9.77832 16.164 9.24253 16.0301L5.24253 15.0301Z" fill="#000640"/>
<path d="M19.9701 10.7577C20.1041 11.2935 19.7783 11.8364 19.2425 11.9704L15.2425 12.9704C14.7067 13.1043 14.1638 12.7786 14.0299 12.2428C13.8959 11.707 14.2217 11.164 14.7575 11.0301L18.7575 10.0301C19.2933 9.89614 19.8362 10.2219 19.9701 10.7577Z" fill="#000640"/>
<path d="M19.2425 7.97038C19.7783 7.83643 20.1041 7.2935 19.9701 6.7577C19.8362 6.22191 19.2933 5.89615 18.7575 6.03009L14.7575 7.03009C14.2217 7.16404 13.8959 7.70698 14.0299 8.24277C14.1638 8.77857 14.7067 9.10433 15.2425 8.97038L19.2425 7.97038Z" fill="#000640"/>
<path fill-rule="evenodd" clip-rule="evenodd" d="M1 4.688C1 2.67841 2.93721 1.23707 4.86204 1.81452L12 3.95591L19.138 1.81452C21.0628 1.23707 23 2.67841 23 4.688V17.5119C23 18.8367 22.131 20.0047 20.862 20.3854L12.2873 22.9578C12.0999 23.014 11.9001 23.014 11.7127 22.9578L3.13796 20.3854C1.869 20.0047 1 18.8367 1 17.5119V4.688ZM11 5.74397L4.28735 3.73018C3.64574 3.53769 3 4.01814 3 4.688V17.5119C3 17.9535 3.28967 18.3428 3.71265 18.4697L11 20.6559V5.74397ZM13 20.6559L20.2873 18.4697C20.7103 18.3428 21 17.9535 21 17.5119V4.688C21 4.01814 20.3543 3.53769 19.7127 3.73018L13 5.74397V20.6559Z" fill="#000640"/>
</svg>
