<svg width="24" height="24" viewBox="0 0 24 24" fill="none" xmlns="http://www.w3.org/2000/svg">
<path d="M19.2425 7.97038C19.7783 7.83643 20.1041 7.2935 19.9701 6.7577C19.8362 6.22191 19.2933 5.89615 18.7575 6.03009L14.7575 7.03009C14.2217 7.16404 13.8959 7.70698 14.0299 8.24277C14.1638 8.77857 14.7067 9.10433 15.2425 8.97038L19.2425 7.97038Z" fill="#000640"/>
<path d="M19.2425 11.9704C19.7783 11.8364 20.1041 11.2935 19.9701 10.7577C19.8362 10.2219 19.2933 9.89614 18.7575 10.0301L14.7575 11.0301C14.2217 11.164 13.8959 11.707 14.0299 12.2428C14.1638 12.7786 14.7067 13.1043 15.2425 12.9704L19.2425 11.9704Z" fill="#000640"/>
<path d="M4.02985 10.7577C4.1638 10.2219 4.70673 9.89614 5.24253 10.0301L9.24253 11.0301C9.77832 11.164 10.1041 11.707 9.97013 12.2428C9.83619 12.7786 9.29325 13.1043 8.75746 12.9704L4.75746 11.9704C4.22166 11.8364 3.8959 11.2935 4.02985 10.7577Z" fill="#000640"/>
<path d="M4.02985 6.7577C4.1638 6.22191 4.70673 5.89615 5.24253 6.03009L9.24253 7.03009C9.77832 7.16404 10.1041 7.70698 9.97013 8.24277C9.83619 8.77857 9.29325 9.10433 8.75746 8.97038L4.75746 7.97038C4.22166 7.83643 3.8959 7.2935 4.02985 6.7577Z" fill="#000640"/>
<path fill-rule="evenodd" clip-rule="evenodd" d="M1 4.688C1 2.67841 2.93721 1.23707 4.86204 1.81452L12 3.95591L19.138 1.81452C21.0628 1.23707 23 2.67841 23 4.688V18.3604C23 19.7904 21.9906 21.0217 20.5883 21.3021L12.1961 22.9806C12.0355 23.0127 11.8695 23.0049 11.7127 22.9578L3.13796 20.3854C1.869 20.0047 1 18.8368 1 17.5119V4.688ZM19.7127 3.73018C20.3543 3.53769 21 4.01814 21 4.688V14.3603C21 14.837 20.6635 15.2474 20.1961 15.3409L13 16.7801V5.74397L19.7127 3.73018ZM20.5883 17.3021C20.7298 17.2738 20.8672 17.2358 21 17.189V18.3604C21 18.8371 20.6635 19.2475 20.1961 19.341L13 20.7802V18.8197L20.5883 17.3021ZM3.13796 16.3854L11 18.744V20.656L3.71265 18.4698C3.28967 18.3429 3 17.9535 3 17.5119V16.3403C3.04543 16.3564 3.09143 16.3714 3.13796 16.3854ZM3.71265 14.4697C3.28967 14.3428 3 13.9535 3 13.5119V4.688C3 4.01814 3.64574 3.53769 4.28735 3.73018L11 5.74397V16.6559L3.71265 14.4697Z" fill="#000640"/>
</svg>
