<svg width="24" height="24" viewBox="0 0 24 24" fill="none" xmlns="http://www.w3.org/2000/svg">
<path fill-rule="evenodd" clip-rule="evenodd" d="M3 4C3 2.34315 4.34315 1 6 1H18C19.6569 1 21 2.34315 21 4V22C21 22.3924 20.7705 22.7485 20.4132 22.9106C20.0559 23.0728 19.6368 23.011 19.3415 22.7526L12 16.3288L4.6585 22.7526C4.36321 23.011 3.9441 23.0728 3.58678 22.9106C3.22947 22.7485 3 22.3924 3 22V4ZM6 3C5.44772 3 5 3.44772 5 4V19.7962L11.3415 14.2474C11.7185 13.9175 12.2815 13.9175 12.6585 14.2474L19 19.7962V4C19 3.44772 18.5523 3 18 3H6Z" fill="#000640"/>
</svg>
