<svg width="24" height="24" viewBox="0 0 24 24" fill="none" xmlns="http://www.w3.org/2000/svg">
<path d="M7 1C6.44772 1 6 1.44772 6 2C6 2.55228 6.44772 3 7 3H17C18.6569 3 20 4.34315 20 6V16C20 16.5523 20.4477 17 21 17C21.5523 17 22 16.5523 22 16V6C22 3.23858 19.7614 1 17 1H7Z" fill="#000640"/>
<path fill-rule="evenodd" clip-rule="evenodd" d="M5 5C3.34315 5 2 6.34315 2 8V22C2 22.3791 2.21438 22.7256 2.55363 22.8948C2.89287 23.0641 3.29864 23.0269 3.6015 22.7989L10 17.9812L16.3985 22.7989C16.7014 23.0269 17.1071 23.0641 17.4464 22.8948C17.7856 22.7256 18 22.3791 18 22V8C18 6.34315 16.6569 5 15 5H5ZM4 8C4 7.44772 4.44772 7 5 7H15C15.5523 7 16 7.44772 16 8V19.9953L10.6015 15.9305C10.2453 15.6624 9.75466 15.6624 9.3985 15.9305L4 19.9953V8Z" fill="#000640"/>
</svg>
