<svg width="24" height="24" viewBox="0 0 24 24" fill="none" xmlns="http://www.w3.org/2000/svg">
<path fill-rule="evenodd" clip-rule="evenodd" d="M9 2C9 1.44772 9.44772 1 10 1H14C14.5523 1 15 1.44772 15 2V4H16C17.6569 4 19 5.34315 19 7V9C19 9.26522 18.8946 9.51957 18.7071 9.70711L17.2868 11.1274L18.8321 13.4453C18.9416 13.6096 19 13.8026 19 14V20C19 21.6569 17.6569 23 16 23H8C6.34315 23 5 21.6569 5 20V14C5 13.8026 5.05844 13.6096 5.16795 13.4453L6.7132 11.1274L5.29289 9.70711C5.10536 9.51957 5 9.26522 5 9V7C5 5.34315 6.34315 4 8 4H9V2ZM11 4H13V3H11V4ZM8 6C7.44772 6 7 6.44772 7 7V8.58579L8.70711 10.2929C9.04417 10.63 9.09647 11.1581 8.83205 11.5547L7 14.3028V20C7 20.5523 7.44772 21 8 21H16C16.5523 21 17 20.5523 17 20V14.3028L15.1679 11.5547C14.9035 11.1581 14.9558 10.63 15.2929 10.2929L17 8.58579V7C17 6.44772 16.5523 6 16 6H8Z" fill="#000640"/>
</svg>
