<svg width="24" height="24" viewBox="0 0 24 24" fill="none" xmlns="http://www.w3.org/2000/svg">
<path fill-rule="evenodd" clip-rule="evenodd" d="M8 1C7.44772 1 7 1.44772 7 2V8.58579L6.17157 9.41421C5.42143 10.1644 5 11.1818 5 12.2426V20C5 21.6569 6.34315 23 8 23H14C14.0968 23 14.1904 22.9862 14.2789 22.9606C14.4376 22.9865 14.6002 23 14.7656 23H16.2344C17.7474 23 19.0236 21.8734 19.2113 20.3721L19.9923 14.124C20.0279 13.8394 19.9395 13.5532 19.7497 13.3382C19.5599 13.1232 19.2868 13 19 13H15V12.2426C15 11.1818 14.5786 10.1644 13.8284 9.41421L13 8.58579V2C13 1.44772 12.5523 1 12 1H8ZM13 13V12.2426C13 11.7122 12.7893 11.2035 12.4142 10.8284L11.2929 9.70711C11.1054 9.51957 11 9.26522 11 9V6H9V9C9 9.26522 8.89464 9.51957 8.70711 9.70711L7.58579 10.8284C7.21071 11.2035 7 11.7122 7 12.2426V20C7 20.5523 7.44772 21 8 21H11.9367C11.8662 20.8001 11.816 20.5901 11.7887 20.3721L11.0077 14.124C10.9722 13.8394 11.0605 13.5532 11.2503 13.3382C11.4402 13.1232 11.7132 13 12 13H13ZM11 4H9V3H11V4ZM13.7733 20.124L13.1328 15H17.8672L17.2267 20.124C17.1642 20.6245 16.7388 21 16.2344 21H14.7656C14.2612 21 13.8358 20.6245 13.7733 20.124Z" fill="#000640"/>
</svg>
