<svg width="24" height="24" viewBox="0 0 24 24" fill="none" xmlns="http://www.w3.org/2000/svg">
<path fill-rule="evenodd" clip-rule="evenodd" d="M8.99977 2C8.99977 1.44772 9.44749 1 9.99977 1H13.9998C14.5521 1 14.9998 1.44772 14.9998 2V9.58579L16.6873 11.2733C17.5465 12.1326 17.9686 13.3358 17.8344 14.5435L17.1913 20.3313C17.0225 21.8506 15.7383 23 14.2097 23H9.78986C8.26121 23 6.97702 21.8506 6.80821 20.3313L6.16512 14.5435C6.03093 13.3358 6.453 12.1326 7.31223 11.2733L8.99977 9.58579V2ZM10.9998 3V4H12.9998V3H10.9998ZM12.9998 6H10.9998V10C10.9998 10.2652 10.8944 10.5196 10.7069 10.7071L8.72644 12.6875C8.29682 13.1172 8.08579 13.7188 8.15288 14.3226L8.79597 20.1104C8.85224 20.6169 9.28031 21 9.78986 21H14.2097C14.7192 21 15.1473 20.6169 15.2036 20.1104L15.8467 14.3226C15.9138 13.7188 15.7027 13.1172 15.2731 12.6875L13.2927 10.7071C13.1051 10.5196 12.9998 10.2652 12.9998 10V6Z" fill="#000640"/>
</svg>
