<svg width="24" height="24" viewBox="0 0 24 24" fill="none" xmlns="http://www.w3.org/2000/svg">
<path fill-rule="evenodd" clip-rule="evenodd" d="M15 16C15 17.6569 13.6569 19 12 19C10.3431 19 9 17.6569 9 16C9 14.3431 10.3431 13 12 13C13.6569 13 15 14.3431 15 16ZM13 16C13 16.5523 12.5523 17 12 17C11.4477 17 11 16.5523 11 16C11 15.4477 11.4477 15 12 15C12.5523 15 13 15.4477 13 16Z" fill="#000640"/>
<path fill-rule="evenodd" clip-rule="evenodd" d="M9 1C8.44772 1 8 1.44772 8 2V5.81867L5.19101 13.3093C5.0647 13.6461 5 14.0029 5 14.3627V20C5 21.6569 6.34315 23 8 23H16C17.6569 23 19 21.6569 19 20V14.3627C19 14.0029 18.9353 13.6461 18.809 13.3093L16 5.81867V2C16 1.44772 15.5523 1 15 1H9ZM7.06367 14.0115L9.693 7H14.307L16.9363 14.0115C16.9784 14.1238 17 14.2428 17 14.3627V20C17 20.5523 16.5523 21 16 21H8C7.44772 21 7 20.5523 7 20V14.3627C7 14.2428 7.02157 14.1238 7.06367 14.0115ZM14 3V5H10V3H14Z" fill="#000640"/>
</svg>
