<svg width="24" height="24" viewBox="0 0 24 24" fill="none" xmlns="http://www.w3.org/2000/svg">
<path fill-rule="evenodd" clip-rule="evenodd" d="M8 2C8 1.44772 8.44772 1 9 1H15C15.5523 1 16 1.44772 16 2V5.46482L17.6641 6.57422C18.4987 7.13061 19 8.06731 19 9.07037V20C19 21.6569 17.6569 23 16 23H8C6.34315 23 5 21.6569 5 20V9.07037C5 8.06731 5.5013 7.13061 6.3359 6.57422L8 5.46482V2ZM9.30278 7L7.4453 8.23832C7.1671 8.42378 7 8.73601 7 9.07037V20C7 20.5523 7.44772 21 8 21H16C16.5523 21 17 20.5523 17 20V9.07037C17 8.73601 16.8329 8.42378 16.5547 8.23832L14.6972 7H9.30278ZM14 5V3H10V5H14Z" fill="#000640"/>
</svg>
