<svg width="24" height="24" viewBox="0 0 24 24" fill="none" xmlns="http://www.w3.org/2000/svg">
<path fill-rule="evenodd" clip-rule="evenodd" d="M12 13C10.3431 13 9 14.3431 9 16C9 17.6569 10.3431 19 12 19C13.6569 19 15 17.6569 15 16C15 14.3431 13.6569 13 12 13ZM11 16C11 15.4477 11.4477 15 12 15C12.5523 15 13 15.4477 13 16C13 16.5523 12.5523 17 12 17C11.4477 17 11 16.5523 11 16Z" fill="#000640"/>
<path fill-rule="evenodd" clip-rule="evenodd" d="M10 1C9.44772 1 9 1.44772 9 2V9.5L6.6 11.3C5.59278 12.0554 5 13.241 5 14.5V20C5 21.6569 6.34315 23 8 23H16C17.6569 23 19 21.6569 19 20V14.5C19 13.241 18.4072 12.0554 17.4 11.3L15 9.5V2C15 1.44772 14.5523 1 14 1H10ZM11 4V3H13V4H11ZM11 6H13V10C13 10.3148 13.1482 10.6111 13.4 10.8L16.2 12.9C16.7036 13.2777 17 13.8705 17 14.5V20C17 20.5523 16.5523 21 16 21H8C7.44772 21 7 20.5523 7 20V14.5C7 13.8705 7.29639 13.2777 7.8 12.9L10.6 10.8C10.8518 10.6111 11 10.3148 11 10V6Z" fill="#000640"/>
</svg>
