<svg width="24" height="24" viewBox="0 0 24 24" fill="none" xmlns="http://www.w3.org/2000/svg">
<path fill-rule="evenodd" clip-rule="evenodd" d="M9 10C8.44772 10 8 10.4477 8 11V16C8 16.5523 8.44772 17 9 17H15C15.5523 17 16 16.5523 16 16V11C16 10.4477 15.5523 10 15 10H9ZM10 15V12H14V15H10Z" fill="#000640"/>
<path fill-rule="evenodd" clip-rule="evenodd" d="M9 1C8.44772 1 8 1.44772 8 2V5.46482L6.3359 6.57422C5.5013 7.13061 5 8.06731 5 9.07037V20C5 21.6569 6.34315 23 8 23H16C17.6569 23 19 21.6569 19 20V9.07037C19 8.06731 18.4987 7.13061 17.6641 6.57422L16 5.46482V2C16 1.44772 15.5523 1 15 1H9ZM7.4453 8.23832L9.30278 7H14.6972L16.5547 8.23832C16.8329 8.42378 17 8.73601 17 9.07037V20C17 20.5523 16.5523 21 16 21H8C7.44772 21 7 20.5523 7 20V9.07037C7 8.73601 7.1671 8.42378 7.4453 8.23832ZM14 3V5H10V3H14Z" fill="#000640"/>
</svg>
