<svg width="24" height="24" viewBox="0 0 24 24" fill="none" xmlns="http://www.w3.org/2000/svg">
<path fill-rule="evenodd" clip-rule="evenodd" d="M12 3C11.0419 3 10.3113 3.85738 10.4633 4.80334L10.9873 8.06436C11.071 8.58521 10.7357 9.08149 10.2213 9.19823C6.97577 9.93467 4.48029 12.6456 4.06191 16H19.9381C19.5197 12.6456 17.0242 9.93467 13.7787 9.19823C13.2643 9.08149 12.929 8.58521 13.0127 8.06436L13.5367 4.80334C13.6887 3.85738 12.9581 3 12 3ZM21.9506 16C21.5547 12.0111 18.8152 8.71315 15.1291 7.49961L15.5114 5.12066C15.8587 2.95912 14.1893 1 12 1C9.81073 1 8.14129 2.95911 8.48864 5.12066L8.87092 7.49961C5.1848 8.71315 2.44532 12.0111 2.04936 16H2C1.44772 16 1 16.4477 1 17V20C1 21.6569 2.34315 23 4 23H20C21.6569 23 23 21.6569 23 20V17C23 16.4477 22.5523 16 22 16H21.9506ZM3 18V20C3 20.5523 3.44772 21 4 21H20C20.5523 21 21 20.5523 21 20V18H3Z" fill="#000640"/>
</svg>
