<svg width="24" height="24" viewBox="0 0 24 24" fill="none" xmlns="http://www.w3.org/2000/svg">
<path fill-rule="evenodd" clip-rule="evenodd" d="M1 7.03308C1 4.87933 3.20216 3.42724 5.18176 4.27564L9.20526 6H14.7947L18.8182 4.27564C20.7978 3.42724 23 4.87933 23 7.03308V16.5536C23 18.8571 20.5116 20.3012 18.5116 19.1584L14.7344 17H9.26556L5.48842 19.1584C3.48845 20.3012 1 18.8571 1 16.5536V7.03308ZM10 15H14V8H10V15ZM8 7.65939L4.39392 6.11393C3.73405 5.83113 3 6.31516 3 7.03308V16.5536C3 17.3215 3.82948 17.8028 4.49614 17.4219L8 15.4197V13H6C5.44772 13 5 12.5523 5 12C5 11.4477 5.44772 11 6 11H8V7.65939ZM16 7.65939V11H18C18.5523 11 19 11.4477 19 12C19 12.5523 18.5523 13 18 13H16V15.4197L19.5039 17.4219C20.1705 17.8028 21 17.3215 21 16.5536V7.03308C21 6.31516 20.2659 5.83113 19.6061 6.11393L16 7.65939Z" fill="#000640"/>
</svg>
