<svg width="24" height="24" viewBox="0 0 24 24" fill="none" xmlns="http://www.w3.org/2000/svg">
<path fill-rule="evenodd" clip-rule="evenodd" d="M11.6286 1.07152C11.867 0.976159 12.133 0.976159 12.3714 1.07152L22.3714 5.07152C22.751 5.22339 23 5.5911 23 6V17.5C23 17.8935 22.7692 18.2504 22.4104 18.4119L12.4104 22.9119C12.1494 23.0294 11.8506 23.0294 11.5896 22.9119L1.58964 18.4119C1.23078 18.2504 1 17.8935 1 17.5V6C1 5.5911 1.24895 5.22339 1.62861 5.07152L11.6286 1.07152ZM9.69258 4L17 6.92297L19.3074 6L12 3.07703L9.69258 4ZM21 7.47703L13 10.677V20.4534L21 16.8534V7.47703ZM11 20.4534V10.677L3 7.47703V16.8534L11 20.4534ZM4.69258 6L12 8.92297L14.3074 8L7 5.07703L4.69258 6Z" fill="#000640"/>
</svg>
