<svg width="24" height="24" viewBox="0 0 24 24" fill="none" xmlns="http://www.w3.org/2000/svg">
<path fill-rule="evenodd" clip-rule="evenodd" d="M6.27365 2.03849C6.80469 2.19021 7.11218 2.7437 6.96046 3.27473L5.17992 9.50668C7.34952 10.7431 8.79526 12.0404 9.92044 13.6043C10.7398 14.7431 11.3745 16.0064 11.999 17.4278C12.6235 16.0064 13.2581 14.7431 14.0775 13.6043C15.2027 12.0404 16.6485 10.7431 18.8181 9.50668L17.0374 3.27475C16.8857 2.74372 17.1932 2.19023 17.7242 2.03849C18.2552 1.88676 18.8087 2.19424 18.9605 2.72527L20.9178 9.57545C20.9393 9.60864 20.964 9.64711 20.9913 9.69062C21.0918 9.85064 21.2296 10.0797 21.3853 10.3658C21.6954 10.9358 22.0833 11.7443 22.3886 12.694C22.9909 14.5678 23.3232 17.1682 21.8471 19.53C20.2747 22.0459 17.4826 22.2562 15.4336 21.9918C14.3796 21.8558 13.4221 21.5859 12.7341 21.3538C12.4346 21.2528 12.1825 21.1576 11.9913 21.0815C11.7997 21.1547 11.5472 21.2461 11.2475 21.3431C10.5577 21.5663 9.59885 21.8251 8.54513 21.9537C6.505 22.2028 3.71255 21.9967 2.15414 19.5349C0.688509 17.2196 1.02662 14.6134 1.62078 12.7371C1.92293 11.7829 2.30633 10.9663 2.6127 10.3893C2.76649 10.0997 2.90246 9.86758 3.00162 9.70536C3.03046 9.65819 3.05622 9.61686 3.07846 9.58169L5.03741 2.72529C5.18913 2.19426 5.74262 1.88677 6.27365 2.03849ZM4.36848 11.3474C4.10392 11.8478 3.78021 12.5427 3.52747 13.3408C3.00511 14.9904 2.84328 16.8843 3.84402 18.4652C4.75197 19.8995 6.45951 20.1935 8.30279 19.9685C9.19078 19.8601 10.0195 19.6383 10.6318 19.4402C10.6471 19.4353 10.6622 19.4304 10.6771 19.4255C9.8715 17.5016 9.20761 16.038 8.29699 14.7723C7.39578 13.5198 6.22799 12.4322 4.36848 11.3474ZM13.3153 19.439C13.3344 19.4455 13.3538 19.4521 13.3734 19.4587C13.9823 19.6641 14.8061 19.8942 15.6896 20.0082C17.5156 20.2439 19.2235 19.9541 20.1511 18.47C21.1749 16.8319 21.0073 14.9322 20.4845 13.306C20.2308 12.5165 19.9053 11.8328 19.6393 11.3417C17.7741 12.4284 16.6038 13.5176 15.701 14.7723C14.7882 16.0409 14.1234 17.5085 13.3153 19.439Z" fill="#000640"/>
</svg>
