<svg width="24" height="24" viewBox="0 0 24 24" fill="none" xmlns="http://www.w3.org/2000/svg">
<path fill-rule="evenodd" clip-rule="evenodd" d="M14.0236 1.00002C12.3825 0.923711 9.95775 1.00106 7.65526 1.45281C5.40695 1.89392 2.9911 2.74424 1.71586 4.43079C0.980446 5.4034 1.15845 6.58961 1.47929 7.39172L2.85742 10.837C2.92725 11.0116 2.94645 11.2023 2.91282 11.3873L1.44445 19.4633C1.10963 21.3049 2.52434 23 4.39605 23L19.6032 23C21.4749 23 22.8896 21.3049 22.5548 19.4633L21.0865 11.3873C21.0528 11.2023 21.072 11.0116 21.1418 10.8371L22.4278 7.62224C22.8405 6.59031 22.8552 5.25009 21.9589 4.24489C20.7513 2.89077 18.2854 1.00705 14.0236 1.00002ZM6.4623 3.80433C6.30743 3.95516 6.16701 4.10294 6.04042 4.24489C5.14404 5.25009 5.15873 6.59031 5.5715 7.62224L6.85742 10.8371C6.92725 11.0116 6.94645 11.2023 6.91282 11.3873L5.16506 21L4.39606 21C3.77216 21 3.30058 20.4349 3.41219 19.8211L4.88056 11.7451C4.98146 11.1901 4.92386 10.618 4.71438 10.0943L3.33624 6.64894C3.13004 6.13342 3.19066 5.7964 3.31115 5.63704C3.90312 4.85415 5.02424 4.2427 6.4623 3.80433ZM7.19785 21H19.6032C20.2271 21 20.6987 20.435 20.5871 19.8211L19.1187 11.7451C19.0178 11.1901 19.0754 10.618 19.2849 10.0943L20.5708 6.87945C20.7946 6.32013 20.7104 5.84992 20.4662 5.576C19.5635 4.5638 17.6057 3 13.9996 3C10.3935 3 8.43574 4.5638 7.53312 5.576C7.28885 5.84992 7.20472 6.32013 7.42845 6.87945L8.71438 10.0943C8.92386 10.618 8.98146 11.1901 8.88056 11.7451L7.19785 21Z" fill="#000640"/>
</svg>
