<svg width="24" height="24" viewBox="0 0 24 24" fill="none" xmlns="http://www.w3.org/2000/svg">
<path d="M13 4C13 4.55228 12.5523 5 12 5C11.4477 5 11 4.55228 11 4C11 3.44772 11.4477 3 12 3C12.5523 3 13 3.44772 13 4Z" fill="#000640"/>
<path fill-rule="evenodd" clip-rule="evenodd" d="M12 18C15.3137 18 18 15.3137 18 12C18 8.68629 15.3137 6 12 6C8.68629 6 6 8.68629 6 12C6 15.3137 8.68629 18 12 18ZM12 16C14.2091 16 16 14.2091 16 12C16 9.79086 14.2091 8 12 8C9.79086 8 8 9.79086 8 12C8 14.2091 9.79086 16 12 16Z" fill="#000640"/>
<path d="M8.49981 5.93786C8.97811 5.66172 9.14198 5.05013 8.86584 4.57184C8.5897 4.09354 7.97811 3.92967 7.49981 4.20581C7.02152 4.48195 6.85765 5.09354 7.13379 5.57184C7.40993 6.05013 8.02152 6.214 8.49981 5.93786Z" fill="#000640"/>
<path d="M5.57159 7.13392C6.04988 7.41006 6.21376 8.02165 5.93762 8.49994C5.66147 8.97823 5.04988 9.14211 4.57159 8.86597C4.0933 8.58982 3.92942 7.97823 4.20557 7.49994C4.48171 7.02165 5.0933 6.85777 5.57159 7.13392Z" fill="#000640"/>
<path d="M5 12C5 11.4477 4.55228 11 4 11C3.44772 11 3 11.4477 3 12C3 12.5523 3.44772 13 4 13C4.55228 13 5 12.5523 5 12Z" fill="#000640"/>
<path d="M4.57159 15.1339C5.04988 14.8578 5.66147 15.0216 5.93762 15.4999C6.21376 15.9782 6.04988 16.5898 5.57159 16.866C5.0933 17.1421 4.48171 16.9782 4.20557 16.4999C3.92942 16.0216 4.0933 15.4101 4.57159 15.1339Z" fill="#000640"/>
<path d="M8.4997 18.0621C8.0214 17.786 7.40981 17.9499 7.13367 18.4282C6.85753 18.9065 7.0214 19.518 7.4997 19.7942C7.97799 20.0703 8.58958 19.9065 8.86572 19.4282C9.14186 18.9499 8.97799 18.3383 8.4997 18.0621Z" fill="#000640"/>
<path d="M10.9995 20C10.9995 19.4477 11.4472 19 11.9995 19C12.5518 19 12.9995 19.4477 12.9995 20C12.9995 20.5523 12.5518 21 11.9995 21C11.4472 21 10.9995 20.5523 10.9995 20Z" fill="#000640"/>
<path d="M15.4997 18.0621C15.0214 18.3383 14.8575 18.9499 15.1337 19.4282C15.4098 19.9065 16.0214 20.0703 16.4997 19.7942C16.978 19.518 17.1419 18.9065 16.8657 18.4282C16.5896 17.9499 15.978 17.786 15.4997 18.0621Z" fill="#000640"/>
<path d="M18.4279 16.8658C17.9496 16.5897 17.7858 15.9781 18.0619 15.4998C18.338 15.0215 18.9496 14.8576 19.4279 15.1338C19.9062 15.4099 20.0701 16.0215 19.7939 16.4998C19.5178 16.9781 18.9062 17.142 18.4279 16.8658Z" fill="#000640"/>
<path d="M18.9995 12C18.9995 12.5523 19.4472 13 19.9995 13C20.5518 13 20.9995 12.5523 20.9995 12C20.9995 11.4477 20.5518 11 19.9995 11C19.4472 11 18.9995 11.4477 18.9995 12Z" fill="#000640"/>
<path d="M19.4279 8.86608C18.9496 9.14223 18.338 8.97835 18.0619 8.50006C17.7858 8.02177 17.9496 7.41018 18.4279 7.13403C18.9062 6.85789 19.5178 7.02177 19.7939 7.50006C20.0701 7.97835 19.9062 8.58994 19.4279 8.86608Z" fill="#000640"/>
<path d="M15.4998 5.93786C15.9781 6.214 16.5897 6.05013 16.8658 5.57184C17.142 5.09354 16.9781 4.48195 16.4998 4.20581C16.0215 3.92967 15.4099 4.09354 15.1338 4.57184C14.8576 5.05013 15.0215 5.66172 15.4998 5.93786Z" fill="#000640"/>
</svg>
