<svg width="24" height="24" viewBox="0 0 24 24" fill="none" xmlns="http://www.w3.org/2000/svg">
<path d="M12 1C12.5523 1 13 1.44772 13 2V4C13 4.55228 12.5523 5 12 5C11.4477 5 11 4.55228 11 4V2C11 1.44772 11.4477 1 12 1Z" fill="#000640"/>
<path fill-rule="evenodd" clip-rule="evenodd" d="M12 18C15.3137 18 18 15.3137 18 12C18 8.68629 15.3137 6 12 6C8.68629 6 6 8.68629 6 12C6 15.3137 8.68629 18 12 18ZM12 16C14.2091 16 16 14.2091 16 12C16 9.79086 14.2091 8 12 8C9.79086 8 8 9.79086 8 12C8 14.2091 9.79086 16 12 16Z" fill="#000640"/>
<path d="M7.86608 2.83966C7.58994 2.36137 6.97835 2.19749 6.50006 2.47363C6.02177 2.74978 5.85789 3.36137 6.13403 3.83966L7.13403 5.57171C7.41018 6.05 8.02177 6.21388 8.50006 5.93773C8.97835 5.66159 9.14223 5.05 8.86608 4.57171L7.86608 2.83966Z" fill="#000640"/>
<path d="M2.47388 6.49994C2.75002 6.02165 3.36161 5.85777 3.8399 6.13392L5.57195 7.13392C6.05025 7.41006 6.21412 8.02165 5.93798 8.49994C5.66184 8.97823 5.05025 9.14211 4.57195 8.86597L2.8399 7.86597C2.36161 7.58982 2.19773 6.97823 2.47388 6.49994Z" fill="#000640"/>
<path d="M2 11C1.44772 11 1 11.4477 1 12C1 12.5523 1.44772 13 2 13H4C4.55228 13 5 12.5523 5 12C5 11.4477 4.55228 11 4 11H2Z" fill="#000640"/>
<path d="M2.47388 17.4999C2.19773 17.0216 2.36161 16.4101 2.8399 16.1339L4.57195 15.1339C5.05025 14.8578 5.66184 15.0216 5.93798 15.4999C6.21412 15.9782 6.05025 16.5898 5.57195 16.866L3.8399 17.866C3.36161 18.1421 2.75002 17.9782 2.47388 17.4999Z" fill="#000640"/>
<path d="M6.13392 20.1601C5.85777 20.6384 6.02165 21.25 6.49994 21.5261C6.97823 21.8023 7.58982 21.6384 7.86597 21.1601L8.86597 19.428C9.14211 18.9498 8.97823 18.3382 8.49994 18.062C8.02165 17.7859 7.41006 17.9498 7.13392 18.428L6.13392 20.1601Z" fill="#000640"/>
<path d="M12 23C11.4477 23 11 22.5523 11 22V20C11 19.4477 11.4477 19 12 19C12.5523 19 13 19.4477 13 20V22C13 22.5523 12.5523 23 12 23Z" fill="#000640"/>
<path d="M16.1339 21.1603C16.4101 21.6386 17.0216 21.8025 17.4999 21.5264C17.9782 21.2502 18.1421 20.6386 17.866 20.1603L16.866 18.4283C16.5898 17.95 15.9782 17.7861 15.4999 18.0623C15.0216 18.3384 14.8578 18.95 15.1339 19.4283L16.1339 21.1603Z" fill="#000640"/>
<path d="M21.5261 17.5001C21.25 17.9784 20.6384 18.1422 20.1601 17.8661L18.428 16.8661C17.9498 16.5899 17.7859 15.9784 18.062 15.5001C18.3382 15.0218 18.9498 14.8579 19.428 15.134L21.1601 16.134C21.6384 16.4102 21.8023 17.0218 21.5261 17.5001Z" fill="#000640"/>
<path d="M22 13C22.5523 13 23 12.5523 23 12C23 11.4477 22.5523 11 22 11H20C19.4477 11 19 11.4477 19 12C19 12.5523 19.4477 13 20 13H22Z" fill="#000640"/>
<path d="M21.5261 6.50006C21.8023 6.97835 21.6384 7.58994 21.1601 7.86608L19.428 8.86608C18.9498 9.14223 18.3382 8.97835 18.062 8.50006C17.7859 8.02177 17.9498 7.41018 18.428 7.13403L20.1601 6.13403C20.6384 5.85789 21.25 6.02177 21.5261 6.50006Z" fill="#000640"/>
<path d="M17.8661 3.8399C18.1422 3.36161 17.9784 2.75002 17.5001 2.47388C17.0218 2.19773 16.4102 2.36161 16.134 2.8399L15.134 4.57195C14.8579 5.05025 15.0218 5.66184 15.5001 5.93798C15.9784 6.21412 16.5899 6.05025 16.8661 5.57195L17.8661 3.8399Z" fill="#000640"/>
</svg>
