<svg width="24" height="25" viewBox="0 0 24 25" fill="none" xmlns="http://www.w3.org/2000/svg">
<path fill-rule="evenodd" clip-rule="evenodd" d="M8.34436 4.84973C7.97309 2.99336 9.39296 1.26138 11.2861 1.26138H13.3622C15.2554 1.26138 16.6753 2.99336 16.304 4.84973L15.4316 9.21188C15.3147 9.79616 14.8017 10.2167 14.2058 10.2167H10.4425C9.84667 10.2167 9.33365 9.79616 9.21679 9.21188L8.34436 4.84973ZM11.2861 3.26138C10.6551 3.26138 10.1818 3.83871 10.3055 4.4575L11.0574 8.21674H13.591L14.3428 4.4575C14.4666 3.83871 13.9933 3.26138 13.3622 3.26138H11.2861Z" fill="#000640"/>
<path fill-rule="evenodd" clip-rule="evenodd" d="M4.36884 11.4667C4.36884 9.67181 5.82391 8.21674 7.61884 8.21674H18.367C20.1619 8.21674 21.617 9.67181 21.617 11.4667V13.6036C21.617 14.294 21.0573 14.8536 20.367 14.8536H5.61884C4.92848 14.8536 4.36884 14.294 4.36884 13.6036V11.4667ZM7.61884 10.2167C6.92848 10.2167 6.36884 10.7764 6.36884 11.4667V12.8536H19.617V11.4667C19.617 10.7764 19.0573 10.2167 18.367 10.2167H7.61884Z" fill="#000640"/>
<path fill-rule="evenodd" clip-rule="evenodd" d="M6.42195 12.8536C6.97424 12.8536 7.42195 13.3014 7.42195 13.8536C7.42195 14.7747 7.33279 16.2793 7.0675 17.8592C6.89685 18.8755 6.64639 19.9668 6.27863 20.9682H17.2465C18.4508 19.0271 18.4798 16.6263 18.4798 13.8536C18.4798 13.3014 18.9275 12.8536 19.4798 12.8536C20.0321 12.8536 20.4798 13.3014 20.4798 13.8536C20.4798 13.9007 20.4798 13.9479 20.4798 13.9953C20.4804 16.7878 20.481 19.976 18.5825 22.5603C18.3941 22.8167 18.0949 22.9682 17.7766 22.9682H4.71875C4.3601 22.9682 4.02892 22.7762 3.8508 22.4649C3.67268 22.1536 3.6749 21.7707 3.85662 21.4615C4.44489 20.4606 4.84622 19.0102 5.09512 17.528C5.34079 16.0649 5.42195 14.6714 5.42195 13.8536C5.42195 13.3014 5.86967 12.8536 6.42195 12.8536Z" fill="#000640"/>
<path fill-rule="evenodd" clip-rule="evenodd" d="M10.5942 16.4945C11.1425 16.5607 11.5333 17.0589 11.4671 17.6072C11.1703 20.0654 10.6378 21.7606 10.3667 22.3731C10.1431 22.8781 9.55242 23.1062 9.04742 22.8826C8.54242 22.659 8.3143 22.0684 8.53789 21.5634C8.70759 21.1801 9.2012 19.6889 9.48151 17.3674C9.54771 16.8191 10.0459 16.4283 10.5942 16.4945Z" fill="#000640"/>
<path fill-rule="evenodd" clip-rule="evenodd" d="M14.5758 18.0796C15.1241 18.1458 15.5149 18.644 15.4487 19.1923C15.254 20.8051 14.903 21.9367 14.7098 22.3731C14.4862 22.8781 13.8956 23.1062 13.3906 22.8826C12.8856 22.659 12.6574 22.0684 12.881 21.5634C12.9727 21.3562 13.2849 20.4286 13.4631 18.9525C13.5293 18.4042 14.0275 18.0134 14.5758 18.0796Z" fill="#000640"/>
</svg>
