<svg width="24" height="24" viewBox="0 0 24 24" fill="none" xmlns="http://www.w3.org/2000/svg">
<path fill-rule="evenodd" clip-rule="evenodd" d="M5 23C4.44772 23 4 22.5523 4 22L4 19C4 18.7495 4.09401 18.5081 4.26343 18.3236L6.18118 16.2352C5.82656 15.1692 5.66667 13.9041 5.66667 12.45C5.66667 12.3777 5.66719 12.3055 5.66823 12.2336L4 13.0679L4 15C4 15.5523 3.55228 16 3 16C2.44772 16 2 15.5523 2 15L2 12.45C2 12.0713 2.21395 11.725 2.55268 11.5556L5.8933 9.8848C6.05431 8.9953 6.29797 8.15357 6.6139 7.38257L4.41855 5.81358C4.15588 5.62585 4 5.32286 4 5L4 2C4 1.44772 4.44772 1 5 1C5.55229 1 6 1.44772 6 2V4.48555L7.55989 5.60038C8.6337 4.01787 10.1637 2.9 12 2.9C13.8363 2.9 15.3663 4.01787 16.4401 5.60038L18 4.48555V2C18 1.44772 18.4477 1 19 1C19.5523 1 20 1.44772 20 2V5C20 5.32286 19.8441 5.62585 19.5815 5.81358L17.3861 7.38257C17.702 8.15357 17.9457 8.9953 18.1067 9.8848L21.4473 11.5556C21.786 11.725 22 12.0713 22 12.45V15C22 15.5523 21.5523 16 21 16C20.4477 16 20 15.5523 20 15V13.0679L18.3318 12.2336C18.3328 12.3055 18.3333 12.3777 18.3333 12.45C18.3333 13.9041 18.1734 15.1692 17.8188 16.2352L19.7366 18.3236C19.906 18.5081 20 18.7495 20 19V22C20 22.5523 19.5523 23 19 23C18.4477 23 18 22.5523 18 22V19.3895L16.8277 18.1128C16.4261 18.6156 15.9415 19.0272 15.3726 19.3426C14.4024 19.8806 13.258 20.1 12 20.1C10.742 20.1 9.59761 19.8806 8.62739 19.3426C8.05854 19.0272 7.57388 18.6156 7.17229 18.1128L6 19.3895V22C6 22.5523 5.55229 23 5 23ZM14.4027 17.5935C14.9708 17.2785 15.4215 16.7926 15.749 16.0515C16.1183 15.2159 16.3333 14.047 16.3333 12.45C16.3333 11.8435 16.2909 11.2544 16.211 10.6901C16.04 9.48171 15.6986 8.39675 15.2431 7.50175C14.3498 5.74693 13.1335 4.9 12 4.9C10.8665 4.9 9.65018 5.74693 8.75694 7.50175C8.30137 8.39675 7.96001 9.48171 7.78896 10.6901C7.7091 11.2544 7.66667 11.8435 7.66667 12.45C7.66667 14.047 7.88166 15.2159 8.25097 16.0515C8.57853 16.7926 9.02921 17.2785 9.59726 17.5935C10.1816 17.9175 10.9623 18.1 12 18.1C13.0377 18.1 13.8184 17.9175 14.4027 17.5935Z" fill="#000640"/>
</svg>
