<svg width="24" height="24" viewBox="0 0 24 24" fill="none" xmlns="http://www.w3.org/2000/svg">
<path d="M8 15.5C8 16.3284 7.32843 17 6.5 17C5.67157 17 5 16.3284 5 15.5C5 14.6716 5.67157 14 6.5 14C7.32843 14 8 14.6716 8 15.5Z" fill="#000640"/>
<path d="M17.5 17C18.3284 17 19 16.3284 19 15.5C19 14.6716 18.3284 14 17.5 14C16.6716 14 16 14.6716 16 15.5C16 16.3284 16.6716 17 17.5 17Z" fill="#000640"/>
<path fill-rule="evenodd" clip-rule="evenodd" d="M2 4C2 2.34315 3.34315 1 5 1H19C20.6569 1 22 2.34315 22 4V22C22 22.5523 21.5523 23 21 23H17C16.4477 23 16 22.5523 16 22V20H8V22C8 22.5523 7.55228 23 7 23H3C2.44772 23 2 22.5523 2 22V4ZM4 20V21H6V20H4ZM4 18H20V13H4V18ZM4 11H7.64922L12.3753 7.21913C12.8066 6.87412 13.4359 6.94404 13.7809 7.37531C14.1259 7.80657 14.056 8.43586 13.6247 8.78087L10.8508 11H20V4C20 3.44772 19.5523 3 19 3H5C4.44772 3 4 3.44772 4 4V11ZM18 20V21H20V20H18Z" fill="#000640"/>
</svg>
