<svg width="24" height="25" viewBox="0 0 24 25" fill="none" xmlns="http://www.w3.org/2000/svg">
<path fill-rule="evenodd" clip-rule="evenodd" d="M7 1.11481C7.55228 1.11481 8 1.56252 8 2.11481V3.11481H16V2.11481C16 1.56252 16.4477 1.11481 17 1.11481C17.5523 1.11481 18 1.56252 18 2.11481V3.11481H20C21.6569 3.11481 23 4.45795 23 6.11481V19.1148C23 20.7717 21.6569 22.1148 20 22.1148H4C2.34315 22.1148 1 20.7717 1 19.1148V6.11481C1 4.45795 2.34315 3.11481 4 3.11481H6V2.11481C6 1.56252 6.44772 1.11481 7 1.11481ZM4 5.11481C3.44772 5.11481 3 5.56252 3 6.11481V8.11481H21V6.11481C21 5.56252 20.5523 5.11481 20 5.11481H4ZM21 10.1148H3V19.1148C3 19.6671 3.44772 20.1148 4 20.1148H20C20.5523 20.1148 21 19.6671 21 19.1148V10.1148Z" fill="#000640"/>
<path d="M14 14.1148C14 13.5625 14.4477 13.1148 15 13.1148H18C18.5523 13.1148 19 13.5625 19 14.1148V17.1148C19 17.6671 18.5523 18.1148 18 18.1148H15C14.4477 18.1148 14 17.6671 14 17.1148V14.1148Z" fill="#000640"/>
</svg>
