<svg width="24" height="24" viewBox="0 0 24 24" fill="none" xmlns="http://www.w3.org/2000/svg">
<path d="M7.5 16C8.32843 16 9 15.3284 9 14.5C9 13.6716 8.32843 13 7.5 13C6.67157 13 6 13.6716 6 14.5C6 15.3284 6.67157 16 7.5 16Z" fill="#000640"/>
<path d="M13.5 14.5C13.5 15.3284 12.8284 16 12 16C11.1716 16 10.5 15.3284 10.5 14.5C10.5 13.6716 11.1716 13 12 13C12.8284 13 13.5 13.6716 13.5 14.5Z" fill="#000640"/>
<path d="M16.5 16C17.3284 16 18 15.3284 18 14.5C18 13.6716 17.3284 13 16.5 13C15.6716 13 15 13.6716 15 14.5C15 15.3284 15.6716 16 16.5 16Z" fill="#000640"/>
<path fill-rule="evenodd" clip-rule="evenodd" d="M8 2C8 1.44772 7.55228 1 7 1C6.44772 1 6 1.44772 6 2V3H4C2.34315 3 1 4.34315 1 6V19C1 20.6569 2.34315 22 4 22H20C21.6569 22 23 20.6569 23 19V6C23 4.34315 21.6569 3 20 3H18V2C18 1.44772 17.5523 1 17 1C16.4477 1 16 1.44772 16 2V3H8V2ZM3 6C3 5.44772 3.44772 5 4 5H20C20.5523 5 21 5.44772 21 6V8H3V6ZM3 10H21V19C21 19.5523 20.5523 20 20 20H4C3.44772 20 3 19.5523 3 19V10Z" fill="#000640"/>
</svg>
