<svg width="24" height="25" viewBox="0 0 24 25" fill="none" xmlns="http://www.w3.org/2000/svg">
<path fill-rule="evenodd" clip-rule="evenodd" d="M7 1.11481C7.55228 1.11481 8 1.56252 8 2.11481V3.11481H16V2.11481C16 1.56252 16.4477 1.11481 17 1.11481C17.5523 1.11481 18 1.56252 18 2.11481V3.11481H20C21.6569 3.11481 23 4.45795 23 6.11481V19.1148C23 20.7717 21.6569 22.1148 20 22.1148H4C2.34315 22.1148 1 20.7717 1 19.1148V6.11481C1 4.45795 2.34315 3.11481 4 3.11481H6V2.11481C6 1.56252 6.44772 1.11481 7 1.11481ZM4 5.11481C3.44772 5.11481 3 5.56252 3 6.11481V8.11481H21V6.11481C21 5.56252 20.5523 5.11481 20 5.11481H4ZM21 10.1148H3V19.1148C3 19.6671 3.44772 20.1148 4 20.1148H20C20.5523 20.1148 21 19.6671 21 19.1148V10.1148Z" fill="#000640"/>
<path fill-rule="evenodd" clip-rule="evenodd" d="M16.2071 11.9429C16.5976 12.3334 16.5976 12.9666 16.2071 13.3571L11.3839 18.1803C10.8957 18.6685 10.1043 18.6685 9.61612 18.1803L7.29289 15.8571C6.90237 15.4666 6.90237 14.8334 7.29289 14.4429C7.68342 14.0523 8.31658 14.0523 8.70711 14.4429L10.5 16.2358L14.7929 11.9429C15.1834 11.5523 15.8166 11.5523 16.2071 11.9429Z" fill="#000640"/>
</svg>
