<svg width="24" height="24" viewBox="0 0 24 24" fill="none" xmlns="http://www.w3.org/2000/svg">
<path fill-rule="evenodd" clip-rule="evenodd" d="M17 13C17 15.7614 14.7614 18 12 18C9.23858 18 7 15.7614 7 13C7 10.2386 9.23858 8 12 8C14.7614 8 17 10.2386 17 13ZM15 13C15 14.6569 13.6569 16 12 16C10.3431 16 9 14.6569 9 13C9 11.3431 10.3431 10 12 10C13.6569 10 15 11.3431 15 13Z" fill="#000640"/>
<path fill-rule="evenodd" clip-rule="evenodd" d="M8 2C7.56957 2 7.18743 2.27543 7.05132 2.68377L6.27924 5H4C2.34315 5 1 6.34315 1 8V19C1 20.6569 2.34315 22 4 22H20C21.6569 22 23 20.6569 23 19V8C23 6.34315 21.6569 5 20 5H17.7208L16.9487 2.68377C16.8126 2.27543 16.4304 2 16 2H8ZM7.94868 6.31623L8.72076 4H15.2792L16.0513 6.31623C16.1874 6.72457 16.5696 7 17 7H20C20.5523 7 21 7.44772 21 8V19C21 19.5523 20.5523 20 20 20H4C3.44772 20 3 19.5523 3 19V8C3 7.44772 3.44772 7 4 7H7C7.43043 7 7.81257 6.72457 7.94868 6.31623Z" fill="#000640"/>
</svg>
