<svg width="24" height="24" viewBox="0 0 24 24" fill="none" xmlns="http://www.w3.org/2000/svg">
<path d="M10 2C9.44772 2 9 2.44772 9 3C9 3.55228 9.44772 4 10 4H15.2792L16.0513 6.31623C16.1874 6.72457 16.5696 7 17 7H20C20.5523 7 21 7.44772 21 8V19C21 19.5523 20.5523 20 20 20H4C3.44772 20 3 19.5523 3 19V11C3 10.4477 2.55229 10 2 10C1.44772 10 1 10.4477 1 11V19C1 20.6569 2.34315 22 4 22H20C21.6569 22 23 20.6569 23 19V8C23 6.34315 21.6569 5 20 5H17.7208L16.9487 2.68377C16.8126 2.27543 16.4304 2 16 2H10Z" fill="#000640"/>
<path d="M8 7.00003C8.55229 7.00003 9 6.55231 9 6.00003C9 5.44775 8.55229 5.00003 8 5.00003L6 5.00003V3C6 2.44772 5.55229 2 5 2C4.44772 2 4 2.44772 4 3V5.00003L2 5.00003C1.44772 5.00003 1 5.44774 1 6.00003C1 6.55231 1.44772 7.00003 2 7.00003L4 7.00003V9C4 9.55229 4.44772 10 5 10C5.55229 10 6 9.55229 6 9V7.00003L8 7.00003Z" fill="#000640"/>
<path fill-rule="evenodd" clip-rule="evenodd" d="M17 13C17 15.7614 14.7614 18 12 18C9.23858 18 7 15.7614 7 13C7 10.2386 9.23858 8 12 8C14.7614 8 17 10.2386 17 13ZM15 13C15 14.6569 13.6569 16 12 16C10.3431 16 9 14.6569 9 13C9 11.3431 10.3431 10 12 10C13.6569 10 15 11.3431 15 13Z" fill="#000640"/>
</svg>
