<svg width="24" height="24" viewBox="0 0 24 24" fill="none" xmlns="http://www.w3.org/2000/svg">
<path fill-rule="evenodd" clip-rule="evenodd" d="M11 4C9.34315 4 8 5.34315 8 7C8 8.65685 9.34315 10 11 10C12.6569 10 14 8.65685 14 7C14 5.34315 12.6569 4 11 4ZM10 7C10 6.44772 10.4477 6 11 6C11.5523 6 12 6.44772 12 7C12 7.55228 11.5523 8 11 8C10.4477 8 10 7.55228 10 7Z" fill="#000640"/>
<path fill-rule="evenodd" clip-rule="evenodd" d="M3 12C3 10.3431 4.34315 9 6 9C7.65685 9 9 10.3431 9 12C9 13.6569 7.65685 15 6 15C4.34315 15 3 13.6569 3 12ZM6 11C5.44772 11 5 11.4477 5 12C5 12.5523 5.44772 13 6 13C6.55228 13 7 12.5523 7 12C7 11.4477 6.55228 11 6 11Z" fill="#000640"/>
<path fill-rule="evenodd" clip-rule="evenodd" d="M16 9C14.3431 9 13 10.3431 13 12C13 13.6569 14.3431 15 16 15C17.6569 15 19 13.6569 19 12C19 10.3431 17.6569 9 16 9ZM15 12C15 11.4477 15.4477 11 16 11C16.5523 11 17 11.4477 17 12C17 12.5523 16.5523 13 16 13C15.4477 13 15 12.5523 15 12Z" fill="#000640"/>
<path fill-rule="evenodd" clip-rule="evenodd" d="M8 17C8 15.3431 9.34315 14 11 14C12.6569 14 14 15.3431 14 17C14 18.6569 12.6569 20 11 20C9.34315 20 8 18.6569 8 17ZM11 16C10.4477 16 10 16.4477 10 17C10 17.5523 10.4477 18 11 18C11.5523 18 12 17.5523 12 17C12 16.4477 11.5523 16 11 16Z" fill="#000640"/>
<path fill-rule="evenodd" clip-rule="evenodd" d="M17.3262 21C20.1531 19.0093 22 15.7203 22 12C22 5.92487 17.0751 1 11 1C4.92487 1 0 5.92487 0 12C0 18.0751 4.92487 23 11 23H23C23.5523 23 24 22.5523 24 22C24 21.4477 23.5523 21 23 21H17.3262ZM2 12C2 7.02944 6.02944 3 11 3C15.9706 3 20 7.02944 20 12C20 16.9706 15.9706 21 11 21C6.02944 21 2 16.9706 2 12Z" fill="#000640"/>
</svg>
