<svg width="24" height="24" viewBox="0 0 24 24" fill="none" xmlns="http://www.w3.org/2000/svg">
<path fill-rule="evenodd" clip-rule="evenodd" d="M17 1C17.5523 1 18 1.44772 18 2V4C19.6569 4 21 5.34315 21 7V14C21 15.6569 19.6569 17 18 17V22C18 22.5523 17.5523 23 17 23C16.4477 23 16 22.5523 16 22V17C14.3431 17 13 15.6569 13 14V7C13 5.34315 14.3431 4 16 4V2C16 1.44772 16.4477 1 17 1ZM16 6C15.4477 6 15 6.44772 15 7V14C15 14.5523 15.4477 15 16 15H18C18.5523 15 19 14.5523 19 14V7C19 6.44772 18.5523 6 18 6H16Z" fill="#000640"/>
<path fill-rule="evenodd" clip-rule="evenodd" d="M7 1C7.55228 1 8 1.44772 8 2V9C9.65685 9 11 10.3431 11 12V17C11 18.6569 9.65685 20 8 20V22C8 22.5523 7.55228 23 7 23C6.44772 23 6 22.5523 6 22V20C4.34315 20 3 18.6569 3 17V12C3 10.3431 4.34315 9 6 9V2C6 1.44772 6.44772 1 7 1ZM6 11C5.44772 11 5 11.4477 5 12V17C5 17.5523 5.44772 18 6 18H8C8.55228 18 9 17.5523 9 17V12C9 11.4477 8.55228 11 8 11H6Z" fill="#000640"/>
</svg>
