<svg width="24" height="24" viewBox="0 0 24 24" fill="none" xmlns="http://www.w3.org/2000/svg">
<path fill-rule="evenodd" clip-rule="evenodd" d="M9.31623 2.05132L9.31521 2.05098C9.16077 1.99968 8.99614 1.98685 8.8356 2.01361C7.75711 2.19335 6.40174 2.74474 5.38425 3.20646C4.86037 3.44419 4.39791 3.67137 4.06637 3.83911C3.90035 3.9231 3.76653 3.99251 3.67352 4.04129C3.62701 4.06568 3.59066 4.08494 3.56556 4.09831L3.53645 4.11386L3.52846 4.11815L3.52517 4.11992C3.28809 4.2479 3.11249 4.46623 3.03848 4.72528L3.03456 4.73906L3.02414 4.77599C3.01509 4.80816 3.00192 4.85525 2.98507 4.91624C2.95136 5.03821 2.90289 5.21582 2.84313 5.44082C2.72365 5.89067 2.55885 6.5307 2.37664 7.29475C2.01308 8.81931 1.57651 10.853 1.2943 12.8608C1.11888 14.1088 1 15.3681 1 16.5C1 16.8935 1.23078 17.2504 1.58964 17.4119L10.7689 21.5426C11.5518 21.8949 12.4482 21.8949 13.2311 21.5426L22.4104 17.4119C22.7692 17.2504 23 16.8935 23 16.5C23 15.3681 22.8811 14.1088 22.7057 12.8608C22.4235 10.853 21.9869 8.81931 21.6234 7.29475C21.4412 6.5307 21.2764 5.89067 21.1569 5.44082C21.0971 5.21582 21.0486 5.03821 21.0149 4.91624C20.9981 4.85525 20.9849 4.80816 20.9759 4.77599L20.9654 4.73906L20.9616 4.72545C20.8876 4.4664 20.7121 4.248 20.475 4.12002L20.4738 4.11939L20.4636 4.11386L20.4344 4.09831C20.4093 4.08494 20.373 4.06568 20.3265 4.04129C20.2335 3.99251 20.0997 3.9231 19.9336 3.83911C19.6021 3.67137 19.1396 3.44419 18.6157 3.20646C17.5983 2.74474 16.2429 2.19335 15.1644 2.01361C15.0036 1.98681 14.8387 1.99972 14.684 2.05123L14.6758 2.05391L14.6356 2.06663C14.5985 2.07817 14.5415 2.09546 14.4675 2.1166C14.3192 2.15898 14.1043 2.21632 13.8456 2.27381C13.3207 2.39045 12.6492 2.5 12 2.5C11.3508 2.5 10.6793 2.39045 10.1544 2.27381C9.89573 2.21632 9.68085 2.15898 9.53253 2.1166C9.45853 2.09546 9.40155 2.07817 9.36445 2.06663L9.32421 2.05391L9.31623 2.05132ZM13.7954 4.32421C13.2681 4.42043 12.6404 4.5 12 4.5C11.3596 4.5 10.7319 4.42043 10.2046 4.32421C10.2355 4.43211 10.2709 4.541 10.3113 4.64888C10.4642 5.05652 10.6698 5.39633 10.93 5.62759C11.1695 5.8405 11.4959 6 12 6C12.5041 6 12.8305 5.8405 13.07 5.62759C13.3302 5.39633 13.5358 5.05652 13.6887 4.64888C13.7291 4.541 13.7645 4.43211 13.7954 4.32421ZM8.13502 4.25702C7.51987 4.46091 6.84016 4.74208 6.21072 5.02771C5.71877 5.25095 5.28249 5.46523 4.96925 5.62371C4.92651 5.64533 4.8861 5.66589 4.84821 5.68527C4.82674 5.76458 4.8026 5.8545 4.77611 5.95422C4.66023 6.3905 4.49972 7.01383 4.32209 7.75868C4.01787 9.03441 3.66616 10.6554 3.40179 12.2984L11.705 14.8623C11.8972 14.9217 12.1028 14.9217 12.295 14.8623L20.5982 12.2984C20.3338 10.6554 19.9821 9.03441 19.6779 7.75868C19.5003 7.01383 19.3398 6.3905 19.2239 5.95422C19.1974 5.8545 19.1733 5.76458 19.1518 5.68527C19.1139 5.66589 19.0735 5.64533 19.0308 5.62371C18.7175 5.46523 18.2812 5.25095 17.7893 5.02771C17.1598 4.74208 16.4801 4.46091 15.865 4.25702C15.8009 4.59022 15.7051 4.96773 15.5613 5.35112C15.3392 5.94348 14.9823 6.60367 14.3987 7.12241C13.7945 7.6595 12.9959 8 12 8C11.0041 8 10.2055 7.6595 9.60126 7.12241C9.01768 6.60367 8.66081 5.94348 8.43867 5.35112C8.2949 4.96773 8.19914 4.59022 8.13502 4.25702ZM20.87 14.3077L12.8851 16.7733C12.3085 16.9513 11.6915 16.9513 11.1149 16.7733L3.13002 14.3077C3.07314 14.8453 3.03272 15.3664 3.01322 15.8594L11.5896 19.7188C11.8506 19.8362 12.1494 19.8362 12.4104 19.7188L20.9868 15.8594C20.9673 15.3664 20.9269 14.8453 20.87 14.3077Z" fill="#000640"/>
</svg>
