<svg width="24" height="24" viewBox="0 0 24 24" fill="none" xmlns="http://www.w3.org/2000/svg">
<path fill-rule="evenodd" clip-rule="evenodd" d="M0 6C0 4.34315 1.34315 3 3 3H21C22.6569 3 24 4.34315 24 6V18C24 19.6569 22.6569 21 21 21H3C1.34314 21 0 19.6569 0 18V6ZM3 5C2.44772 5 2 5.44772 2 6V18C2 18.5523 2.44772 19 3 19H21C21.5523 19 22 18.5523 22 18V6C22 5.44771 21.5523 5 21 5H3Z" fill="#000640"/>
<path fill-rule="evenodd" clip-rule="evenodd" d="M16.5 10C15.8345 10 15 10.717 15 12C15 13.283 15.8345 14 16.5 14C16.7874 14 17.0744 13.8883 17.3305 13.6574C17.7407 13.2877 18.373 13.3205 18.7428 13.7307C19.1126 14.1409 19.0798 14.7732 18.6695 15.143C18.09 15.6654 17.3382 16 16.5 16C14.404 16 13 14.0307 13 12C13 9.96932 14.404 8 16.5 8C17.3383 8 18.0901 8.33478 18.6696 8.85724C19.0798 9.22705 19.1125 9.85937 18.7427 10.2696C18.3729 10.6797 17.7406 10.7125 17.3304 10.3426C17.0742 10.1117 16.7874 10 16.5 10Z" fill="#000640"/>
<path fill-rule="evenodd" clip-rule="evenodd" d="M8.5 10C7.83455 10 7 10.717 7 12C7 13.283 7.83455 14 8.5 14C8.78742 14 9.07435 13.8883 9.33048 13.6574C9.74071 13.2877 10.373 13.3205 10.7428 13.7307C11.1126 14.1409 11.0798 14.7732 10.6695 15.143C10.09 15.6654 9.33819 16 8.5 16C6.40403 16 5 14.0307 5 12C5 9.96932 6.40403 8 8.5 8C9.33833 8 10.0901 8.33478 10.6696 8.85724C11.0798 9.22705 11.1125 9.85937 10.7427 10.2696C10.3729 10.6797 9.74057 10.7125 9.33038 10.3426C9.07424 10.1117 8.78735 10 8.5 10Z" fill="#000640"/>
</svg>
