<svg width="24" height="24" viewBox="0 0 24 24" fill="none" xmlns="http://www.w3.org/2000/svg">
<path d="M5.50024 16C6.32867 16 7.00024 15.3284 7.00024 14.5C7.00024 13.6716 6.32867 13 5.50024 13C4.67182 13 4.00024 13.6716 4.00024 14.5C4.00024 15.3284 4.67182 16 5.50024 16Z" fill="#000640"/>
<path d="M20.0002 14.5C20.0002 15.3284 19.3287 16 18.5002 16C17.6718 16 17.0002 15.3284 17.0002 14.5C17.0002 13.6716 17.6718 13 18.5002 13C19.3287 13 20.0002 13.6716 20.0002 14.5Z" fill="#000640"/>
<path d="M10.0002 14C9.44796 14 9.00024 14.4477 9.00024 15C9.00024 15.5523 9.44796 16 10.0002 16H14.0002C14.5525 16 15.0002 15.5523 15.0002 15C15.0002 14.4477 14.5525 14 14.0002 14H10.0002Z" fill="#000640"/>
<path fill-rule="evenodd" clip-rule="evenodd" d="M7.50886 2C6.16941 2 4.99226 2.88793 4.62428 4.17584L3.63872 7.62531L2.40107 7.08384C1.89509 6.86248 1.30546 7.0932 1.0841 7.59918C0.862729 8.10516 1.09345 8.69479 1.59943 8.91616L3.03975 9.54629L1.87893 10.7071C1.31632 11.2697 1.00025 12.0328 1.00025 12.8284V21C1.00025 21.5523 1.44797 22 2.00025 22H6.00025C6.55254 22 7.00025 21.5523 7.00025 21V19H17.0003V21C17.0003 21.5523 17.448 22 18.0003 22H22.0003C22.5525 22 23.0003 21.5523 23.0003 21V12.8284C23.0003 12.0328 22.6842 11.2697 22.1216 10.7071L20.9608 9.54629L22.4011 8.91616C22.9071 8.69479 23.1378 8.10516 22.9164 7.59918C22.695 7.0932 22.1054 6.86248 21.5994 7.08384L20.3618 7.62531L19.3762 4.17584C19.0082 2.88793 17.8311 2 16.4916 2H7.50886ZM18.6745 9H5.32598L6.54733 4.72528C6.66999 4.29598 7.06237 4 7.50886 4H16.4916C16.9381 4 17.3305 4.29598 17.4532 4.72528L18.6745 9ZM4.41447 11H19.586L20.7074 12.1213C20.8949 12.3089 21.0003 12.5632 21.0003 12.8284V17H3.00025V12.8284C3.00025 12.5632 3.10561 12.3089 3.29315 12.1213L4.41447 11ZM19.0003 19H21.0003V20H19.0003V19ZM3.00025 20V19H5.00025V20H3.00025Z" fill="#000640"/>
</svg>
