<svg width="24" height="24" viewBox="0 0 24 24" fill="none" xmlns="http://www.w3.org/2000/svg">
<g clip-path="url(#clip0_1253_6330)">
<path fill-rule="evenodd" clip-rule="evenodd" d="M18.618 10L16.4472 5.65836C15.939 4.64201 14.9002 4 13.7639 4H3.69425C2.22774 4 0.976166 5.06024 0.735072 6.5068L0.0136061 10.8356C0.00455081 10.8899 0 10.9449 0 11V18C0 18.5523 0.447715 19 1 19H3.17071C3.58254 20.1652 4.69378 21 6 21C7.30622 21 8.41746 20.1652 8.82929 19H15.1707C15.5825 20.1652 16.6938 21 18 21C19.3062 21 20.4175 20.1652 20.8293 19H23C23.2899 19 23.5655 18.8742 23.7555 18.6552C23.9454 18.4362 24.0309 18.1456 23.99 17.8586L23.2353 12.5757C23.0241 11.0978 21.7584 10 20.2654 10H18.618ZM3.69425 6C3.20541 6 2.78822 6.35341 2.70786 6.8356L2.18046 10H8V6H3.69425ZM10 6V10H16.382L14.6584 6.55279C14.489 6.214 14.1427 6 13.7639 6H10ZM20.8293 17H21.847L21.2554 12.8586C21.185 12.3659 20.7631 12 20.2654 12H2V17H3.17071C3.58254 15.8348 4.69378 15 6 15C7.30622 15 8.41746 15.8348 8.82929 17H15.1707C15.5825 15.8348 16.6938 15 18 15C19.3062 15 20.4175 15.8348 20.8293 17ZM17 18C17 17.4477 17.4477 17 18 17C18.5523 17 19 17.4477 19 18C19 18.5523 18.5523 19 18 19C17.4477 19 17 18.5523 17 18ZM6 17C6.55228 17 7 17.4477 7 18C7 18.5523 6.55228 19 6 19C5.44772 19 5 18.5523 5 18C5 17.4477 5.44772 17 6 17Z" fill="#000640"/>
</g>
<defs>
<clipPath id="clip0_1253_6330">
<rect width="24" height="24" fill="white"/>
</clipPath>
</defs>
</svg>
