<svg width="24" height="24" viewBox="0 0 24 24" fill="none" xmlns="http://www.w3.org/2000/svg">
<path d="M5.50024 16C6.32867 16 7.00024 15.3284 7.00024 14.5C7.00024 13.6716 6.32867 13 5.50024 13C4.67182 13 4.00024 13.6716 4.00024 14.5C4.00024 15.3284 4.67182 16 5.50024 16Z" fill="#000640"/>
<path d="M20.0002 14.5C20.0002 15.3284 19.3287 16 18.5002 16C17.6718 16 17.0002 15.3284 17.0002 14.5C17.0002 13.6716 17.6718 13 18.5002 13C19.3287 13 20.0002 13.6716 20.0002 14.5Z" fill="#000640"/>
<path d="M10.0002 14C9.44796 14 9.00024 14.4477 9.00024 15C9.00024 15.5523 9.44796 16 10.0002 16H14.0002C14.5525 16 15.0002 15.5523 15.0002 15C15.0002 14.4477 14.5525 14 14.0002 14H10.0002Z" fill="#000640"/>
<path fill-rule="evenodd" clip-rule="evenodd" d="M10.0003 1C9.62148 1 9.27522 1.214 9.10583 1.55279L8.38222 3H7.44177C6.15048 3 5.00407 3.82629 4.59572 5.05132L3.72858 7.65274L2.39418 7.08085C1.88655 6.8633 1.29867 7.09845 1.08111 7.60608C0.863556 8.11371 1.09871 8.70159 1.60634 8.91915L3.04873 9.53731L1.87894 10.7071C1.31633 11.2697 1.00026 12.0328 1.00026 12.8284V21C1.00026 21.5523 1.44797 22 2.00026 22H6.00026C6.55254 22 7.00026 21.5523 7.00026 21V19H17.0003V21C17.0003 21.5523 17.448 22 18.0003 22H22.0003C22.5525 22 23.0003 21.5523 23.0003 21V12.8284C23.0003 12.0328 22.6842 11.2697 22.1216 10.7071L20.9518 9.53731L22.3942 8.91915C22.9018 8.70159 23.137 8.11371 22.9194 7.60608C22.7018 7.09845 22.114 6.8633 21.6063 7.08085L20.2719 7.65274L19.4048 5.05132C18.9964 3.82629 17.85 3 16.5587 3H15.6183L14.8947 1.55279C14.7253 1.214 14.379 1 14.0003 1H10.0003ZM18.6128 9H5.38768L6.49309 5.68377C6.62921 5.27543 7.01134 5 7.44177 5H16.5587C16.9892 5 17.3713 5.27543 17.5074 5.68377L18.6128 9ZM4.41447 11H19.586L20.7074 12.1213C20.8949 12.3089 21.0003 12.5632 21.0003 12.8284V17H3.00026V12.8284C3.00026 12.5632 3.10561 12.3089 3.29315 12.1213L4.41447 11ZM19.0003 19H21.0003V20H19.0003V19ZM3.00026 20V19H5.00026V20H3.00026Z" fill="#000640"/>
</svg>
