<svg width="24" height="24" viewBox="0 0 24 24" fill="none" xmlns="http://www.w3.org/2000/svg">
<path fill-rule="evenodd" clip-rule="evenodd" d="M13.6941 3.74168C13.5511 3.20822 13.0028 2.89163 12.4693 3.03457L4.74193 5.10513C4.20846 5.24807 3.89188 5.79641 4.03482 6.32987L7.65829 19.8528C7.80123 20.3863 8.34956 20.7029 8.88303 20.5599L16.6104 18.4894C17.1439 18.3464 17.4605 17.7981 17.3175 17.2646L13.6941 3.74168ZM15.5427 2.96146C15.013 1.52161 13.4625 0.697909 11.9517 1.10272L4.22429 3.17328C2.62389 3.6021 1.67414 5.24711 2.10297 6.84751L5.72643 20.3705C6.15526 21.9709 7.80027 22.9206 9.40067 22.4918L17.1281 20.4212C18.3451 20.0951 19.1859 19.0657 19.3303 17.8874C19.3466 17.8497 19.3608 17.8105 19.3727 17.77L22.2539 7.93778C22.7275 6.32158 21.7782 4.63226 20.1514 4.19637L15.5427 2.96146ZM18.456 13.7861L20.3346 7.37536C20.4925 6.83662 20.176 6.27352 19.6338 6.12822L16.1543 5.19589L18.456 13.7861Z" fill="#000640"/>
</svg>
