<svg width="24" height="24" viewBox="0 0 24 24" fill="none" xmlns="http://www.w3.org/2000/svg">
<path fill-rule="evenodd" clip-rule="evenodd" d="M13 7C12.4477 7 12 7.44772 12 8V16C12 16.5523 12.4477 17 13 17H19C19.5523 17 20 16.5523 20 16V8C20 7.44772 19.5523 7 19 7H13ZM18 15H14V9H18V15Z" fill="#000640"/>
<path d="M4 8C4 7.44772 4.44772 7 5 7H9C9.55228 7 10 7.44772 10 8C10 8.55228 9.55228 9 9 9H5C4.44772 9 4 8.55228 4 8Z" fill="#000640"/>
<path d="M5 11C4.44772 11 4 11.4477 4 12C4 12.5523 4.44772 13 5 13H9C9.55228 13 10 12.5523 10 12C10 11.4477 9.55228 11 9 11H5Z" fill="#000640"/>
<path fill-rule="evenodd" clip-rule="evenodd" d="M3 2C1.34315 2 0 3.34315 0 5V19C0 20.6569 1.34314 22 3 22H21C22.6569 22 24 20.6569 24 19V5C24 3.34315 22.6569 2 21 2H3ZM2 5C2 4.44772 2.44772 4 3 4H21C21.5523 4 22 4.44771 22 5V19C22 19.5523 21.5523 20 21 20H3C2.44772 20 2 19.5523 2 19V5Z" fill="#000640"/>
</svg>
