<svg width="24" height="24" viewBox="0 0 24 24" fill="none" xmlns="http://www.w3.org/2000/svg">
<path fill-rule="evenodd" clip-rule="evenodd" d="M1 2C1 1.44772 1.44772 1 2 1H5C5.38569 1 5.73701 1.22181 5.90284 1.57003L7.06008 4H22C22.3033 4 22.5902 4.13767 22.78 4.37427C22.9698 4.61087 23.042 4.92083 22.9762 5.21693L21.293 12.7912C21.0099 14.0652 19.9357 15.01 18.6361 15.1281L10.7849 15.8419C9.31975 15.9751 7.97419 15.0261 7.60782 13.6013L5.48429 5.34267L4.36863 3H2C1.44772 3 1 2.55228 1 2ZM7.71837 6L9.54481 13.1032C9.66693 13.5782 10.1155 13.8945 10.6038 13.8501L18.455 13.1363C18.8882 13.0969 19.2463 12.782 19.3406 12.3574L20.7534 6H7.71837Z" fill="#000640"/>
<path fill-rule="evenodd" clip-rule="evenodd" d="M8 23C9.65685 23 11 21.6569 11 20C11 18.3431 9.65685 17 8 17C6.34315 17 5 18.3431 5 20C5 21.6569 6.34315 23 8 23ZM8 21C8.55228 21 9 20.5523 9 20C9 19.4477 8.55228 19 8 19C7.44772 19 7 19.4477 7 20C7 20.5523 7.44772 21 8 21Z" fill="#000640"/>
<path fill-rule="evenodd" clip-rule="evenodd" d="M22 20C22 21.6569 20.6569 23 19 23C17.3431 23 16 21.6569 16 20C16 18.3431 17.3431 17 19 17C20.6569 17 22 18.3431 22 20ZM20 20C20 20.5523 19.5523 21 19 21C18.4477 21 18 20.5523 18 20C18 19.4477 18.4477 19 19 19C19.5523 19 20 19.4477 20 20Z" fill="#000640"/>
</svg>
