<svg width="24" height="24" viewBox="0 0 24 24" fill="none" xmlns="http://www.w3.org/2000/svg">
<path fill-rule="evenodd" clip-rule="evenodd" d="M12 13C10.3432 13 9.00002 14.3431 9.00002 16C9.00002 17.6569 10.3432 19 12 19C13.6569 19 15 17.6569 15 16C15 14.3431 13.6569 13 12 13ZM11 16C11 15.4477 11.4477 15 12 15C12.5523 15 13 15.4477 13 16C13 16.5523 12.5523 17 12 17C11.4477 17 11 16.5523 11 16Z" fill="#000640"/>
<path fill-rule="evenodd" clip-rule="evenodd" d="M14.4577 2.7674L19.5207 10.0002H22C22.2965 10.0002 22.5778 10.1318 22.7678 10.3595C22.9578 10.5871 23.0369 10.8873 22.9839 11.1791L21.2825 20.5369C21.0231 21.9633 19.7807 23.0002 18.3309 23.0002H5.66916C4.2193 23.0002 2.97691 21.9633 2.71755 20.5369L1.01614 11.1791C0.963094 10.8873 1.04226 10.5871 1.23226 10.3595C1.42225 10.1318 1.70348 10.0002 2.00001 10.0002H4.47935L9.54231 2.76741C10.7366 1.06126 13.2634 1.06125 14.4577 2.7674ZM11.1808 3.91433C11.5789 3.34561 12.4211 3.34561 12.8192 3.91433L17.0794 10.0002H6.92066L11.1808 3.91433ZM4.68529 20.1791L3.19822 12.0002H20.8018L19.3147 20.1791C19.2283 20.6546 18.8141 21.0002 18.3309 21.0002H5.66916C5.18587 21.0002 4.77174 20.6546 4.68529 20.1791Z" fill="#000640"/>
</svg>
