<svg width="24" height="24" viewBox="0 0 24 24" fill="none" xmlns="http://www.w3.org/2000/svg">
<path fill-rule="evenodd" clip-rule="evenodd" d="M4.13756 1.06802C4.65229 0.867846 5.23184 1.12285 5.43201 1.63758L8.68407 10H15.3159L18.568 1.63758C18.7682 1.12285 19.3477 0.867846 19.8625 1.06802C20.3772 1.26819 20.6322 1.84774 20.432 2.36247L17.4619 10H22C22.2965 10 22.5778 10.1316 22.7678 10.3593C22.9578 10.5869 23.0369 10.8872 22.9839 11.1789L21.2825 20.5367C21.0231 21.9632 19.7807 23 18.3309 23H5.66916C4.2193 23 2.97691 21.9632 2.71755 20.5367L1.01614 11.1789C0.963094 10.8872 1.04226 10.5869 1.23226 10.3593C1.42225 10.1316 1.70348 10 2.00001 10H6.53816L3.568 2.36247C3.36783 1.84774 3.62283 1.26819 4.13756 1.06802ZM3.19822 12L4.68529 20.1789C4.77174 20.6544 5.18587 21 5.66916 21H18.3309C18.8141 21 19.2283 20.6544 19.3147 20.1789L20.8018 12H3.19822Z" fill="#000640"/>
<path fill-rule="evenodd" clip-rule="evenodd" d="M8.00001 14C8.55229 14 9.00001 14.4477 9.00001 15V18C9.00001 18.5523 8.55229 19 8.00001 19C7.44772 19 7.00001 18.5523 7.00001 18V15C7.00001 14.4477 7.44772 14 8.00001 14Z" fill="#000640"/>
<path fill-rule="evenodd" clip-rule="evenodd" d="M12 14C12.5523 14 13 14.4477 13 15V18C13 18.5523 12.5523 19 12 19C11.4477 19 11 18.5523 11 18V15C11 14.4477 11.4477 14 12 14Z" fill="#000640"/>
<path fill-rule="evenodd" clip-rule="evenodd" d="M16 14C16.5523 14 17 14.4477 17 15V18C17 18.5523 16.5523 19 16 19C15.4477 19 15 18.5523 15 18V15C15 14.4477 15.4477 14 16 14Z" fill="#000640"/>
</svg>
