<svg width="24" height="24" viewBox="0 0 24 24" fill="none" xmlns="http://www.w3.org/2000/svg">
<path fill-rule="evenodd" clip-rule="evenodd" d="M7.5 17C9.08551 17 10.4248 15.9457 10.8551 14.5H13.1449C13.5752 15.9457 14.9145 17 16.5 17C18.433 17 20 15.433 20 13.5C20 11.567 18.433 10 16.5 10C14.9145 10 13.5752 11.0543 13.1449 12.5H10.8551C10.4248 11.0543 9.08551 10 7.5 10C5.567 10 4 11.567 4 13.5C4 15.433 5.567 17 7.5 17ZM7.5 15C8.32843 15 9 14.3284 9 13.5C9 12.6716 8.32843 12 7.5 12C6.67157 12 6 12.6716 6 13.5C6 14.3284 6.67157 15 7.5 15ZM18 13.5C18 14.3284 17.3284 15 16.5 15C15.6716 15 15 14.3284 15 13.5C15 12.6716 15.6716 12 16.5 12C17.3284 12 18 12.6716 18 13.5Z" fill="#000640"/>
<path fill-rule="evenodd" clip-rule="evenodd" d="M0 6C0 4.34315 1.34315 3 3 3H21C22.6569 3 24 4.34315 24 6V18C24 19.6569 22.6569 21 21 21H3C1.34314 21 0 19.6569 0 18V6ZM3 5C2.44772 5 2 5.44772 2 6V18C2 18.5523 2.44772 19 3 19H21C21.5523 19 22 18.5523 22 18V6C22 5.44771 21.5523 5 21 5H18.5352L16.832 7.55471C16.6466 7.83291 16.3343 8.00001 16 8.00001H7.99999C7.66564 8.00001 7.3534 7.83291 7.16794 7.55471L5.4648 5H3ZM7.8685 5L8.53517 6.00001H15.4648L16.1315 5H7.8685Z" fill="#000640"/>
</svg>
