<svg width="24" height="24" viewBox="0 0 24 24" fill="none" xmlns="http://www.w3.org/2000/svg">
<path d="M3 2C1.34315 2 0 3.34315 0 5V17C0 18.6569 1.34315 20 3 20H5C5.55228 20 6 19.5523 6 19C6 18.4477 5.55228 18 5 18H3C2.44772 18 2 17.5523 2 17V5C2 4.44772 2.44772 4 3 4H21C21.5523 4 22 4.44771 22 5V17C22 17.5523 21.5523 18 21 18H19C18.4477 18 18 18.4477 18 19C18 19.5523 18.4477 20 19 20H21C22.6569 20 24 18.6569 24 17V5C24 3.34315 22.6569 2 21 2H3Z" fill="#000640"/>
<path fill-rule="evenodd" clip-rule="evenodd" d="M16 22C16.3688 22 16.7077 21.797 16.8817 21.4719C17.0557 21.1467 17.0366 20.7522 16.832 20.4453L12.832 14.4453C12.6466 14.1671 12.3343 14 12 14C11.6656 14 11.3534 14.1671 11.1679 14.4453L7.16795 20.4453C6.96338 20.7522 6.9443 21.1467 7.11832 21.4719C7.29234 21.797 7.6312 22 8 22H16ZM9.86851 20L12 16.8028L14.1315 20H9.86851Z" fill="#000640"/>
</svg>
