<svg width="24" height="24" viewBox="0 0 24 24" fill="none" xmlns="http://www.w3.org/2000/svg">
<path fill-rule="evenodd" clip-rule="evenodd" d="M12 13C10.3431 13 9 14.3431 9 16V19H15V16C15 14.3431 13.6569 13 12 13ZM11 16C11 15.4477 11.4477 15 12 15C12.5523 15 13 15.4477 13 16V17H11V16Z" fill="#000640"/>
<path fill-rule="evenodd" clip-rule="evenodd" d="M12.8 1.4C12.6111 1.14819 12.3148 1 12 1C11.6852 1 11.3889 1.14819 11.2 1.4L5.2 9.4C5.07018 9.5731 5 9.78363 5 10V22C5 22.5523 5.44772 23 6 23H18C18.5523 23 19 22.5523 19 22V10C19 9.78363 18.9298 9.5731 18.8 9.4L12.8 1.4ZM7 21H17V11H7V21ZM12 3.66667L8 9H16L12 3.66667Z" fill="#000640"/>
</svg>
