<svg width="24" height="24" viewBox="0 0 24 24" fill="none" xmlns="http://www.w3.org/2000/svg">
<path d="M16 11C16 11.5523 15.5523 12 15 12H13V14C13 14.5523 12.5523 15 12 15C11.4477 15 11 14.5523 11 14V12H9C8.44771 12 8 11.5523 8 11C8 10.4477 8.44772 10 9 10L11 10V8C11 7.44772 11.4477 7 12 7C12.5523 7 13 7.44772 13 8V10L15 10C15.5523 10 16 10.4477 16 11Z" fill="#000640"/>
<path fill-rule="evenodd" clip-rule="evenodd" d="M1 5C1 3.34315 2.34315 2 4 2H20C21.6569 2 23 3.34315 23 5V16C23 17.6569 21.6569 19 20 19H7.41421L4.41421 22C3.15428 23.2599 1 22.3676 1 20.5858V5ZM4 4C3.44772 4 3 4.44772 3 5V20.5858L6.29289 17.2929C6.48043 17.1054 6.73478 17 7 17H20C20.5523 17 21 16.5523 21 16V5C21 4.44772 20.5523 4 20 4H4Z" fill="#000640"/>
</svg>
