<svg width="24" height="24" viewBox="0 0 24 24" fill="none" xmlns="http://www.w3.org/2000/svg">
<path d="M10 7C9.44772 7 9.00001 7.44772 9.00001 8C9.00001 8.55228 9.44772 9 10 9H11.9194L9.21914 12.3753C8.979 12.6755 8.93219 13.0867 9.09871 13.4332C9.26523 13.7797 9.6156 14 10 14H14C14.5523 14 15 13.5523 15 13C15 12.4477 14.5523 12 14 12H12.0806L14.7809 8.62469C15.021 8.32452 15.0678 7.91328 14.9013 7.56681C14.7348 7.22035 14.3844 7 14 7H10Z" fill="#000640"/>
<path fill-rule="evenodd" clip-rule="evenodd" d="M12 1C7.38921 1 4.53087 2.01939 2.87429 3.90187C1.23622 5.76332 1 8.22786 1 10.5C1 12.7773 1.24241 15.1557 2.40773 16.9766C3.57092 18.794 5.52903 19.8807 8.49306 19.9907L10.4 22.5333C11.2 23.6 12.8 23.6 13.6 22.5333L15.5069 19.9907C18.471 19.8807 20.4291 18.794 21.5923 16.9766C22.7576 15.1557 23 12.7773 23 10.5C23 8.22786 22.7638 5.76332 21.1257 3.90187C19.4691 2.01939 16.6108 1 12 1ZM3 10.5C3 8.27214 3.26378 6.48668 4.37571 5.22313C5.46912 3.98061 7.61079 3 12 3C16.3892 3 18.5309 3.98061 19.6243 5.22313C20.7362 6.48668 21 8.27214 21 10.5C21 12.7227 20.7424 14.5943 19.9077 15.8984C19.136 17.1043 17.7506 18 15 18C14.6852 18 14.3889 18.1482 14.2 18.4L12 21.3333L9.8 18.4C9.61115 18.1482 9.31476 18 9 18C6.24939 18 4.864 17.1043 4.09227 15.8984C3.25759 14.5943 3 12.7227 3 10.5Z" fill="#000640"/>
</svg>
