<svg width="24" height="24" viewBox="0 0 24 24" fill="none" xmlns="http://www.w3.org/2000/svg">
<path d="M10 7C9.44772 7 9.00001 7.44772 9.00001 8C9.00001 8.55228 9.44772 9 10 9H11.9194L9.21914 12.3753C8.979 12.6755 8.93219 13.0867 9.09871 13.4332C9.26523 13.7797 9.6156 14 10 14H14C14.5523 14 15 13.5523 15 13C15 12.4477 14.5523 12 14 12H12.0806L14.7809 8.62469C15.021 8.32452 15.0678 7.91328 14.9013 7.56681C14.7348 7.22035 14.3844 7 14 7H10Z" fill="#000640"/>
<path fill-rule="evenodd" clip-rule="evenodd" d="M4 2C2.34315 2 1 3.34315 1 5V16C1 17.6569 2.34315 19 4 19H8.43381L10.285 22.0853C11.0618 23.38 12.9382 23.38 13.715 22.0853L15.5662 19H20C21.6569 19 23 17.6569 23 16V5C23 3.34315 21.6569 2 20 2H4ZM3 5C3 4.44772 3.44772 4 4 4H20C20.5523 4 21 4.44772 21 5V16C21 16.5523 20.5523 17 20 17H15C14.6487 17 14.3232 17.1843 14.1425 17.4855L12 21.0563L9.85749 17.4855C9.67677 17.1843 9.35126 17 9 17H4C3.44772 17 3 16.5523 3 16V5Z" fill="#000640"/>
</svg>
