<svg width="24" height="24" viewBox="0 0 24 24" fill="none" xmlns="http://www.w3.org/2000/svg">
<g clip-path="url(#clip0_1253_6490)">
<path fill-rule="evenodd" clip-rule="evenodd" d="M13.2929 0.878682C12.7409 0.326673 11.9549 -0.0303684 11.0973 0.0334915C4.89101 0.495616 0 5.67617 0 12C0 18.6274 5.37258 24 12 24C18.3238 24 23.5044 19.109 23.9665 12.9027C24.0304 12.0451 23.6733 11.2591 23.1213 10.7071L13.2929 0.878682ZM10.046 2.19066C5.45902 3.09901 2 7.14595 2 12C2 17.5229 6.47715 22 12 22C16.8541 22 20.901 18.541 21.8093 13.954C15.2723 13.4431 10.5569 8.72768 10.046 2.19066ZM21.501 11.9152L12.0848 2.49902C12.6789 7.65525 16.3448 11.3211 21.501 11.9152Z" fill="#000640"/>
</g>
<defs>
<clipPath id="clip0_1253_6490">
<rect width="24" height="24" fill="white"/>
</clipPath>
</defs>
</svg>
