<svg width="24" height="24" viewBox="0 0 24 24" fill="none" xmlns="http://www.w3.org/2000/svg">
<path d="M2.87429 3.90187C4.53087 2.01939 7.38921 1 12 1C16.6108 1 19.4691 2.01939 21.1257 3.90187C22.7638 5.76332 23 8.22786 23 10.5C23 12.7773 22.7576 15.1557 21.5923 16.9766C20.4291 18.794 18.471 19.8807 15.5069 19.9907L13.6 22.5333C12.8 23.6 11.2 23.6 10.4 22.5333L8.49306 19.9907C5.52903 19.8807 3.57092 18.794 2.40773 16.9766C1.24241 15.1557 1 12.7773 1 10.5C1 8.22786 1.23622 5.76332 2.87429 3.90187Z" fill="#000640"/>
</svg>
