<svg width="24" height="24" viewBox="0 0 24 24" fill="none" xmlns="http://www.w3.org/2000/svg">
<path d="M5 8C5 7.44772 5.44772 7 6 7H14C14.5523 7 15 7.44772 15 8C15 8.55228 14.5523 9 14 9H6C5.44772 9 5 8.55228 5 8Z" fill="#000640"/>
<path d="M6 11C5.44772 11 5 11.4477 5 12C5 12.5523 5.44772 13 6 13H10C10.5523 13 11 12.5523 11 12C11 11.4477 10.5523 11 10 11H6Z" fill="#000640"/>
<path fill-rule="evenodd" clip-rule="evenodd" d="M1 5C1 3.34315 2.34315 2 4 2H20C21.6569 2 23 3.34315 23 5V16C23 17.6569 21.6569 19 20 19H15.5662L13.715 22.0853C12.9382 23.38 11.0618 23.38 10.285 22.0853L8.43381 19H4C2.34315 19 1 17.6569 1 16V5ZM4 4C3.44772 4 3 4.44772 3 5V16C3 16.5523 3.44772 17 4 17H9C9.35126 17 9.67677 17.1843 9.85749 17.4855L12 21.0563L14.1425 17.4855C14.3232 17.1843 14.6487 17 15 17H20C20.5523 17 21 16.5523 21 16V5C21 4.44772 20.5523 4 20 4H4Z" fill="#000640"/>
</svg>
