<svg width="24" height="24" viewBox="0 0 24 24" fill="none" xmlns="http://www.w3.org/2000/svg">
<path d="M8 9C7.44772 9 7 9.44771 7 10C7 10.5523 6.55228 11 6 11C5.44772 11 5 10.5523 5 10C5 8.34315 6.34315 7 8 7C9.65685 7 11 8.34315 11 10C11 10.5523 10.5523 11 10 11C9.44772 11 9 10.5523 9 10C9 9.44771 8.55228 9 8 9Z" fill="#000640"/>
<path d="M15 10C15 9.44771 15.4477 9 16 9C16.5523 9 17 9.44771 17 10C17 10.5523 17.4477 11 18 11C18.5523 11 19 10.5523 19 10C19 8.34315 17.6569 7 16 7C14.3431 7 13 8.34315 13 10C13 10.5523 13.4477 11 14 11C14.5523 11 15 10.5523 15 10Z" fill="#000640"/>
<path fill-rule="evenodd" clip-rule="evenodd" d="M2.87429 3.90187C4.53087 2.01939 7.38921 1 12 1C16.6108 1 19.4691 2.01939 21.1257 3.90187C22.7638 5.76332 23 8.22786 23 10.5C23 12.7773 22.7576 15.1557 21.5923 16.9766C20.4291 18.794 18.471 19.8807 15.5069 19.9907L13.6 22.5333C12.8 23.6 11.2 23.6 10.4 22.5333L8.49306 19.9907C5.52903 19.8807 3.57092 18.794 2.40773 16.9766C1.24241 15.1557 1 12.7773 1 10.5C1 8.22786 1.23622 5.76332 2.87429 3.90187ZM4.37571 5.22313C3.26378 6.48668 3 8.27214 3 10.5C3 12.7227 3.25759 14.5943 4.09227 15.8984C4.864 17.1043 6.24939 18 9 18C9.31476 18 9.61115 18.1482 9.8 18.4L12 21.3333L14.2 18.4C14.3889 18.1482 14.6852 18 15 18C17.7506 18 19.136 17.1043 19.9077 15.8984C20.7424 14.5943 21 12.7227 21 10.5C21 8.27214 20.7362 6.48668 19.6243 5.22313C18.5309 3.98061 16.3892 3 12 3C7.61079 3 5.46912 3.98061 4.37571 5.22313Z" fill="#000640"/>
</svg>
