<svg width="24" height="24" viewBox="0 0 24 24" fill="none" xmlns="http://www.w3.org/2000/svg">
<path d="M13 7C13 6.44772 12.5523 6 12 6C11.4477 6 11 6.44772 11 7V14C11 14.5523 11.4477 15 12 15C12.5523 15 13 14.5523 13 14V7Z" fill="#000640"/>
<path d="M16 8C16.5523 8 17 8.44772 17 9V12C17 12.5523 16.5523 13 16 13C15.4477 13 15 12.5523 15 12V9C15 8.44772 15.4477 8 16 8Z" fill="#000640"/>
<path d="M9 9C9 8.44772 8.55228 8 8 8C7.44772 8 7 8.44772 7 9V12C7 12.5523 7.44772 13 8 13C8.55229 13 9 12.5523 9 12V9Z" fill="#000640"/>
<path fill-rule="evenodd" clip-rule="evenodd" d="M4 2C2.34315 2 1 3.34315 1 5V16C1 17.6569 2.34315 19 4 19H8.43381L10.285 22.0853C11.0618 23.38 12.9382 23.38 13.715 22.0853L15.5662 19H20C21.6569 19 23 17.6569 23 16V5C23 3.34315 21.6569 2 20 2H4ZM3 5C3 4.44772 3.44772 4 4 4H20C20.5523 4 21 4.44772 21 5V16C21 16.5523 20.5523 17 20 17H15C14.6487 17 14.3232 17.1843 14.1425 17.4855L12 21.0563L9.85749 17.4855C9.67677 17.1843 9.35126 17 9 17H4C3.44772 17 3 16.5523 3 16V5Z" fill="#000640"/>
</svg>
