<svg width="24" height="24" viewBox="0 0 24 24" fill="none" xmlns="http://www.w3.org/2000/svg">
<path d="M19 17C19 18.1046 18.1046 19 17 19C15.8954 19 15 18.1046 15 17C15 15.8954 15.8954 15 17 15C18.1046 15 19 15.8954 19 17Z" fill="#000640"/>
<path d="M6 17C6.55228 17 7 16.5523 7 16C7 15.4477 6.55228 15 6 15C5.44772 15 5 15.4477 5 16C5 16.5523 5.44772 17 6 17Z" fill="#000640"/>
<path fill-rule="evenodd" clip-rule="evenodd" d="M7.64888 2.06367C7.94452 1.95281 8.27516 1.98808 8.54076 2.15883L22.5408 11.1588C22.827 11.3428 23 11.6597 23 12V19C23 20.6569 21.6569 22 20 22H4C2.34315 22 1 20.6569 1 19V12C1 7.64426 3.20432 3.73038 7.64888 2.06367ZM3.04644 11H18.5952L7.89481 4.12119C4.95799 5.40273 3.33416 7.95198 3.04644 11ZM21 13H3V19C3 19.5523 3.44772 20 4 20H20C20.5523 20 21 19.5523 21 19V13Z" fill="#000640"/>
</svg>
