<svg width="24" height="24" viewBox="0 0 24 24" fill="none" xmlns="http://www.w3.org/2000/svg">
<g clip-path="url(#clip0_1253_5127)">
<path d="M7 10C7 9.44771 7.44772 9 8 9C8.55228 9 9 9.44771 9 10C9 10.5523 9.44772 11 10 11C10.5523 11 11 10.5523 11 10C11 8.34315 9.65685 7 8 7C6.34315 7 5 8.34315 5 10C5 10.5523 5.44772 11 6 11C6.55228 11 7 10.5523 7 10Z" fill="#000640"/>
<path d="M16 9C15.4477 9 15 9.44771 15 10C15 10.5523 14.5523 11 14 11C13.4477 11 13 10.5523 13 10C13 8.34315 14.3431 7 16 7C17.6569 7 19 8.34315 19 10C19 10.5523 18.5523 11 18 11C17.4477 11 17 10.5523 17 10C17 9.44771 16.5523 9 16 9Z" fill="#000640"/>
<path fill-rule="evenodd" clip-rule="evenodd" d="M15 17C15 18.6569 13.6569 20 12 20C10.3431 20 9 18.6569 9 17C9 15.3431 10 13 12 13C14 13 15 15.3431 15 17ZM13 17C13 17.5523 12.5523 18 12 18C11.4477 18 11 17.5523 11 17C11 16.5155 11.1603 15.8917 11.4417 15.4455C11.7067 15.0254 11.9012 15 12 15C12.0988 15 12.2933 15.0254 12.5583 15.4455C12.8397 15.8917 13 16.5155 13 17Z" fill="#000640"/>
<path fill-rule="evenodd" clip-rule="evenodd" d="M12 0C5.37258 0 0 5.37258 0 12C0 18.6274 5.37258 24 12 24C18.6274 24 24 18.6274 24 12C24 5.37258 18.6274 0 12 0ZM2 12C2 6.47715 6.47715 2 12 2C17.5228 2 22 6.47715 22 12C22 17.5228 17.5228 22 12 22C6.47715 22 2 17.5228 2 12Z" fill="#000640"/>
</g>
<defs>
<clipPath id="clip0_1253_5127">
<rect width="24" height="24" fill="white"/>
</clipPath>
</defs>
</svg>
