<svg width="24" height="24" viewBox="0 0 24 24" fill="none" xmlns="http://www.w3.org/2000/svg">
<path d="M12 13C11.7348 13 11.4804 12.8946 11.2929 12.7071L7.29289 8.70711C6.90237 8.31658 6.90237 7.68342 7.29289 7.29289C7.68342 6.90237 8.31658 6.90237 8.70711 7.29289L12 10.5858L15.2929 7.29289C15.6834 6.90237 16.3166 6.90237 16.7071 7.29289C17.0976 7.68342 17.0976 8.31658 16.7071 8.70711L12.7071 12.7071C12.5196 12.8946 12.2652 13 12 13Z" fill="#000640"/>
<path d="M8 17L16 17C16.5523 17 17 16.5523 17 16C17 15.4477 16.5523 15 16 15L8 15C7.44772 15 7 15.4477 7 16C7 16.5523 7.44771 17 8 17Z" fill="#000640"/>
<path fill-rule="evenodd" clip-rule="evenodd" d="M20 1C21.6569 1 23 2.34315 23 4V20C23 21.6569 21.6569 23 20 23H4C2.34315 23 1 21.6569 1 20V4C1 2.34315 2.34315 1 4 1H20ZM21 4C21 3.44772 20.5523 3 20 3L4 3C3.44772 3 3 3.44772 3 4L3 20C3 20.5523 3.44772 21 4 21H20C20.5523 21 21 20.5523 21 20V4Z" fill="#000640"/>
</svg>
