<svg width="24" height="24" viewBox="0 0 24 24" fill="none" xmlns="http://www.w3.org/2000/svg">
<path d="M11.2929 8.29289C11.4804 8.10536 11.7348 8 12 8C12.2652 8 12.5196 8.10536 12.7071 8.29289L16.7071 12.2929C17.0976 12.6834 17.0976 13.3166 16.7071 13.7071C16.3166 14.0976 15.6834 14.0976 15.2929 13.7071L12 10.4142L8.70711 13.7071C8.31658 14.0976 7.68342 14.0976 7.29289 13.7071C6.90237 13.3166 6.90237 12.6834 7.29289 12.2929L11.2929 8.29289Z" fill="#000640"/>
<path fill-rule="evenodd" clip-rule="evenodd" d="M4 23C2.34315 23 1 21.6569 1 20V4C1 2.34315 2.34315 1 4 1H20C21.6569 1 23 2.34315 23 4V20C23 21.6569 21.6569 23 20 23H4ZM3 20C3 20.5523 3.44772 21 4 21H20C20.5523 21 21 20.5523 21 20V4C21 3.44772 20.5523 3 20 3L4 3C3.44772 3 3 3.44772 3 4L3 20Z" fill="#000640"/>
</svg>
