<svg width="24" height="24" viewBox="0 0 24 24" fill="none" xmlns="http://www.w3.org/2000/svg">
<path d="M12 11C12.2652 11 12.5196 11.1054 12.7071 11.2929L16.7071 15.2929C17.0976 15.6834 17.0976 16.3166 16.7071 16.7071C16.3166 17.0976 15.6834 17.0976 15.2929 16.7071L12 13.4142L8.70711 16.7071C8.31658 17.0976 7.68342 17.0976 7.29289 16.7071C6.90237 16.3166 6.90237 15.6834 7.29289 15.2929L11.2929 11.2929C11.4804 11.1054 11.7348 11 12 11Z" fill="#000640"/>
<path d="M8 7C7.44772 7 7 7.44772 7 8C7 8.55228 7.44772 9 8 9L16 9C16.5523 9 17 8.55229 17 8C17 7.44772 16.5523 7 16 7L8 7Z" fill="#000640"/>
<path fill-rule="evenodd" clip-rule="evenodd" d="M20 1C21.6569 1 23 2.34315 23 4V20C23 21.6569 21.6569 23 20 23H4C2.34315 23 1 21.6569 1 20V4C1 2.34315 2.34315 1 4 1H20ZM21 4C21 3.44772 20.5523 3 20 3L4 3C3.44772 3 3 3.44772 3 4L3 20C3 20.5523 3.44772 21 4 21H20C20.5523 21 21 20.5523 21 20V4Z" fill="#000640"/>
</svg>
