<svg width="24" height="24" viewBox="0 0 24 24" fill="none" xmlns="http://www.w3.org/2000/svg">
<path d="M12 6C12.2652 6 12.5196 6.10536 12.7071 6.29289L16.7071 10.2929C17.0976 10.6834 17.0976 11.3166 16.7071 11.7071C16.3166 12.0976 15.6834 12.0976 15.2929 11.7071L12 8.41421L8.70711 11.7071C8.31658 12.0976 7.68342 12.0976 7.29289 11.7071C6.90237 11.3166 6.90237 10.6834 7.29289 10.2929L11.2929 6.29289C11.4804 6.10536 11.7348 6 12 6Z" fill="#000640"/>
<path d="M16 14L8 14C7.44772 14 7 14.4477 7 15C7 15.5523 7.44772 16 8 16L16 16C16.5523 16 17 15.5523 17 15C17 14.4477 16.5523 14 16 14Z" fill="#000640"/>
<path fill-rule="evenodd" clip-rule="evenodd" d="M23 20C23 21.6569 21.6569 23 20 23H4C2.34315 23 1 21.6569 1 20V4C1 2.34315 2.34315 1 4 1H20C21.6569 1 23 2.34315 23 4V20ZM20 21C20.5523 21 21 20.5523 21 20V4C21 3.44772 20.5523 3 20 3H4C3.44772 3 3 3.44772 3 4V20C3 20.5523 3.44772 21 4 21H20Z" fill="#000640"/>
</svg>
