<svg width="24" height="24" viewBox="0 0 24 24" fill="none" xmlns="http://www.w3.org/2000/svg">
<path d="M19 7C19.5523 7 20 6.55229 20 6C20 5.44772 19.5523 5 19 5H5C4.44772 5 4 5.44772 4 6C4 6.55228 4.44772 7 5 7L19 7Z" fill="#000640"/>
<path d="M12 12.4142L18.2929 18.7071C18.6834 19.0976 19.3166 19.0976 19.7071 18.7071C20.0976 18.3166 20.0976 17.6834 19.7071 17.2929L12.7071 10.2929C12.3166 9.90237 11.6834 9.90237 11.2929 10.2929L4.29289 17.2929C3.90237 17.6834 3.90237 18.3166 4.29289 18.7071C4.68342 19.0976 5.31658 19.0976 5.70711 18.7071L12 12.4142Z" fill="#000640"/>
</svg>
