<svg width="24" height="24" viewBox="0 0 24 24" fill="none" xmlns="http://www.w3.org/2000/svg">
<path d="M6 12C6 11.7348 6.10536 11.4804 6.29289 11.2929L10.2929 7.29289C10.6834 6.90237 11.3166 6.90237 11.7071 7.29289C12.0976 7.68342 12.0976 8.31658 11.7071 8.70711L8.41421 12L11.7071 15.2929C12.0976 15.6834 12.0976 16.3166 11.7071 16.7071C11.3166 17.0976 10.6834 17.0976 10.2929 16.7071L6.29289 12.7071C6.10536 12.5196 6 12.2652 6 12Z" fill="#000640"/>
<path d="M14 8V16C14 16.5523 14.4477 17 15 17C15.5523 17 16 16.5523 16 16V8C16 7.44772 15.5523 7 15 7C14.4477 7 14 7.44771 14 8Z" fill="#000640"/>
<path fill-rule="evenodd" clip-rule="evenodd" d="M20 1C21.6569 1 23 2.34315 23 4V20C23 21.6569 21.6569 23 20 23H4C2.34315 23 1 21.6569 1 20V4C1 2.34315 2.34315 1 4 1H20ZM21 4C21 3.44772 20.5523 3 20 3L4 3C3.44772 3 3 3.44772 3 4L3 20C3 20.5523 3.44772 21 4 21H20C20.5523 21 21 20.5523 21 20V4Z" fill="#000640"/>
</svg>
