<svg width="24" height="24" viewBox="0 0 24 24" fill="none" xmlns="http://www.w3.org/2000/svg">
<path d="M19.7071 6.70711C20.0976 6.31658 20.0976 5.68342 19.7071 5.29289C19.3166 4.90237 18.6834 4.90237 18.2929 5.29289L12 11.5858L5.70711 5.29289C5.31658 4.90237 4.68342 4.90237 4.29289 5.29289C3.90237 5.68342 3.90237 6.31658 4.29289 6.70711L11.2929 13.7071C11.6834 14.0976 12.3166 14.0976 12.7071 13.7071L19.7071 6.70711Z" fill="#000640"/>
<path d="M4 18C4 18.5523 4.44772 19 5 19L19 19C19.5523 19 20 18.5523 20 18C20 17.4477 19.5523 17 19 17L5 17C4.44772 17 4 17.4477 4 18Z" fill="#000640"/>
</svg>
