<svg width="24" height="24" viewBox="0 0 24 24" fill="none" xmlns="http://www.w3.org/2000/svg">
<path d="M18.2929 13.7071C18.6834 14.0976 19.3166 14.0976 19.7071 13.7071C20.0976 13.3166 20.0976 12.6834 19.7071 12.2929L12.7071 5.29289C12.3166 4.90237 11.6834 4.90237 11.2929 5.29289L4.29289 12.2929C3.90237 12.6834 3.90237 13.3166 4.29289 13.7071C4.68342 14.0976 5.31658 14.0976 5.70711 13.7071L12 7.41421L18.2929 13.7071Z" fill="#000640"/>
<path d="M19 17L5 17C4.44772 17 4 17.4477 4 18C4 18.5523 4.44772 19 5 19L19 19C19.5523 19 20 18.5523 20 18C20 17.4477 19.5523 17 19 17Z" fill="#000640"/>
</svg>
