<svg width="24" height="24" viewBox="0 0 24 24" fill="none" xmlns="http://www.w3.org/2000/svg">
<path d="M19 7C19.5523 7 20 6.55229 20 6C20 5.44772 19.5523 5 19 5H5C4.44771 5 4 5.44772 4 6C4 6.55228 4.44771 7 5 7L19 7Z" fill="#000640"/>
<path d="M12 16.5858L5.70711 10.2929C5.31658 9.90237 4.68342 9.90237 4.29289 10.2929C3.90237 10.6834 3.90237 11.3166 4.29289 11.7071L11.2929 18.7071C11.6834 19.0976 12.3166 19.0976 12.7071 18.7071L19.7071 11.7071C20.0976 11.3166 20.0976 10.6834 19.7071 10.2929C19.3166 9.90237 18.6834 9.90237 18.2929 10.2929L12 16.5858Z" fill="#000640"/>
</svg>
