<svg width="24" height="24" viewBox="0 0 24 24" fill="none" xmlns="http://www.w3.org/2000/svg">
<g clip-path="url(#clip0_1253_5888)">
<path d="M11.9999 6C12.2651 6 12.5195 6.10536 12.707 6.29289L16.707 10.2929C17.0975 10.6834 17.0975 11.3166 16.707 11.7071C16.3165 12.0976 15.6833 12.0976 15.2928 11.7071L11.9999 8.41421L8.70698 11.7071C8.31646 12.0976 7.6833 12.0976 7.29277 11.7071C6.90225 11.3166 6.90225 10.6834 7.29277 10.2929L11.2928 6.29289C11.4803 6.10536 11.7347 6 11.9999 6Z" fill="#000640"/>
<path d="M16.9999 15C16.9999 14.4477 16.5522 14 15.9999 14H7.99988C7.44759 14 6.99988 14.4477 6.99988 15C6.99988 15.5523 7.44759 16 7.99988 16L15.9999 16C16.5522 16 16.9999 15.5523 16.9999 15Z" fill="#000640"/>
<path fill-rule="evenodd" clip-rule="evenodd" d="M-0.00012207 12C-0.00012236 18.6274 5.37246 24 11.9999 24C18.6273 24 23.9999 18.6274 23.9999 12C23.9999 5.37258 18.6273 2.89694e-07 11.9999 0C5.37246 -2.89694e-07 -0.000121781 5.37258 -0.00012207 12ZM1.99988 12C1.99988 17.5228 6.47703 22 11.9999 22C17.5227 22 21.9999 17.5228 21.9999 12C21.9999 6.47715 17.5227 2 11.9999 2C6.47703 2 1.99988 6.47715 1.99988 12Z" fill="#000640"/>
</g>
<defs>
<clipPath id="clip0_1253_5888">
<rect width="24" height="24" fill="white"/>
</clipPath>
</defs>
</svg>
