<svg width="24" height="24" viewBox="0 0 24 24" fill="none" xmlns="http://www.w3.org/2000/svg">
<path d="M12.4142 12L18.7071 5.70711C19.0976 5.31658 19.0976 4.68342 18.7071 4.29289C18.3166 3.90237 17.6834 3.90237 17.2929 4.29289L10.2929 11.2929C9.90237 11.6834 9.90237 12.3166 10.2929 12.7071L17.2929 19.7071C17.6834 20.0976 18.3166 20.0976 18.7071 19.7071C19.0976 19.3166 19.0976 18.6834 18.7071 18.2929L12.4142 12Z" fill="#000640"/>
<path d="M7 5C7 4.44772 6.55228 4 6 4C5.44772 4 5 4.44772 5 5V19C5 19.5523 5.44772 20 6 20C6.55228 20 7 19.5523 7 19V5Z" fill="#000640"/>
</svg>
