<svg width="24" height="24" viewBox="0 0 24 24" fill="none" xmlns="http://www.w3.org/2000/svg">
<path d="M15.7071 12.7071C15.8946 12.5196 16 12.2652 16 12C16 11.7348 15.8946 11.4804 15.7071 11.2929L11.7071 7.29289C11.3166 6.90237 10.6834 6.90237 10.2929 7.29289C9.90237 7.68342 9.90237 8.31658 10.2929 8.70711L13.5858 12L10.2929 15.2929C9.90237 15.6834 9.90237 16.3166 10.2929 16.7071C10.6834 17.0976 11.3166 17.0976 11.7071 16.7071L15.7071 12.7071Z" fill="#000640"/>
<path fill-rule="evenodd" clip-rule="evenodd" d="M23 4C23 2.34315 21.6569 1 20 1H4C2.34315 1 1 2.34315 1 4V20C1 21.6569 2.34315 23 4 23H20C21.6569 23 23 21.6569 23 20V4ZM20 3C20.5523 3 21 3.44772 21 4V20C21 20.5523 20.5523 21 20 21H4C3.44772 21 3 20.5523 3 20L3 4C3 3.44772 3.44772 3 4 3L20 3Z" fill="#000640"/>
</svg>
