<svg width="24" height="24" viewBox="0 0 24 24" fill="none" xmlns="http://www.w3.org/2000/svg">
<g clip-path="url(#clip0_1253_5886)">
<path d="M12 18C11.7348 18 11.4804 17.8946 11.2929 17.7071L7.29289 13.7071C6.90237 13.3166 6.90237 12.6834 7.29289 12.2929C7.68342 11.9024 8.31658 11.9024 8.70711 12.2929L12 15.5858L15.2929 12.2929C15.6834 11.9024 16.3166 11.9024 16.7071 12.2929C17.0976 12.6834 17.0976 13.3166 16.7071 13.7071L12.7071 17.7071C12.5196 17.8946 12.2652 18 12 18Z" fill="#000640"/>
<path d="M7 9C7 9.55228 7.44771 10 8 10L16 10C16.5523 10 17 9.55229 17 9C17 8.44772 16.5523 8 16 8L8 8C7.44772 8 7 8.44771 7 9Z" fill="#000640"/>
<path fill-rule="evenodd" clip-rule="evenodd" d="M24 12C24 5.37258 18.6274 7.90312e-08 12 0C5.37258 -7.90312e-08 7.90312e-08 5.37258 0 12C-7.90312e-08 18.6274 5.37258 24 12 24C18.6274 24 24 18.6274 24 12ZM22 12C22 6.47715 17.5228 2 12 2C6.47715 2 2 6.47715 2 12C2 17.5228 6.47715 22 12 22C17.5228 22 22 17.5228 22 12Z" fill="#000640"/>
</g>
<defs>
<clipPath id="clip0_1253_5886">
<rect width="24" height="24" fill="white"/>
</clipPath>
</defs>
</svg>
