<svg width="24" height="24" viewBox="0 0 24 24" fill="none" xmlns="http://www.w3.org/2000/svg">
<g clip-path="url(#clip0_1253_5882)">
<path d="M13 12C13 12.2652 12.8946 12.5196 12.7071 12.7071L8.70711 16.7071C8.31658 17.0976 7.68342 17.0976 7.29289 16.7071C6.90237 16.3166 6.90237 15.6834 7.29289 15.2929L10.5858 12L7.29289 8.70711C6.90237 8.31658 6.90237 7.68342 7.29289 7.29289C7.68342 6.90237 8.31658 6.90237 8.70711 7.29289L12.7071 11.2929C12.8946 11.4804 13 11.7348 13 12Z" fill="#000640"/>
<path d="M17 8C17 7.44772 16.5523 7 16 7C15.4477 7 15 7.44772 15 8L15 16C15 16.5523 15.4477 17 16 17C16.5523 17 17 16.5523 17 16V8Z" fill="#000640"/>
<path fill-rule="evenodd" clip-rule="evenodd" d="M12 24C18.6274 24 24 18.6274 24 12C24 5.37258 18.6274 0 12 0C5.37258 0 0 5.37258 0 12C0 18.6274 5.37258 24 12 24ZM12 22C17.5228 22 22 17.5228 22 12C22 6.47715 17.5228 2 12 2C6.47715 2 2 6.47715 2 12C2 17.5228 6.47715 22 12 22Z" fill="#000640"/>
</g>
<defs>
<clipPath id="clip0_1253_5882">
<rect width="24" height="24" fill="white"/>
</clipPath>
</defs>
</svg>
