<svg width="24" height="24" viewBox="0 0 24 24" fill="none" xmlns="http://www.w3.org/2000/svg">
<g clip-path="url(#clip0_1253_5878)">
<path d="M12 13C11.7348 13 11.4804 12.8946 11.2929 12.7071L7.29289 8.70711C6.90237 8.31658 6.90237 7.68342 7.29289 7.29289C7.68342 6.90237 8.31658 6.90237 8.70711 7.29289L12 10.5858L15.2929 7.29289C15.6834 6.90237 16.3166 6.90237 16.7071 7.29289C17.0976 7.68342 17.0976 8.31658 16.7071 8.70711L12.7071 12.7071C12.5196 12.8946 12.2652 13 12 13Z" fill="#000640"/>
<path d="M7 16C7 16.5523 7.44771 17 8 17L16 17C16.5523 17 17 16.5523 17 16C17 15.4477 16.5523 15 16 15L8 15C7.44772 15 7 15.4477 7 16Z" fill="#000640"/>
<path fill-rule="evenodd" clip-rule="evenodd" d="M12 24C18.6274 24 24 18.6274 24 12C24 5.37258 18.6274 0 12 0C5.37258 0 0 5.37258 0 12C0 18.6274 5.37258 24 12 24ZM12 22C17.5228 22 22 17.5228 22 12C22 6.47715 17.5228 2 12 2C6.47715 2 2 6.47715 2 12C2 17.5228 6.47715 22 12 22Z" fill="#000640"/>
</g>
<defs>
<clipPath id="clip0_1253_5878">
<rect width="24" height="24" fill="white"/>
</clipPath>
</defs>
</svg>
