<svg width="24" height="24" viewBox="0 0 24 24" fill="none" xmlns="http://www.w3.org/2000/svg">
<g clip-path="url(#clip0_1253_5890)">
<path d="M18.0001 12C18.0001 12.2652 17.8948 12.5196 17.7072 12.7071L13.7072 16.7071C13.3167 17.0976 12.6835 17.0976 12.293 16.7071C11.9025 16.3166 11.9025 15.6834 12.293 15.2929L15.5859 12L12.293 8.70711C11.9025 8.31658 11.9025 7.68342 12.293 7.29289C12.6835 6.90237 13.3167 6.90237 13.7072 7.2929L17.7072 11.2929C17.8948 11.4804 18.0001 11.7348 18.0001 12Z" fill="#000640"/>
<path d="M9.00012 7C8.44783 7 8.00012 7.44772 8.00012 8L8.00012 16C8.00012 16.5523 8.44783 17 9.00012 17C9.5524 17 10.0001 16.5523 10.0001 16L10.0001 8C10.0001 7.44772 9.5524 7 9.00012 7Z" fill="#000640"/>
<path fill-rule="evenodd" clip-rule="evenodd" d="M12.0001 2.09815e-06C5.37271 3.59985e-07 0.00012171 5.37258 0.000119972 12C0.000118234 18.6274 5.3727 24 12.0001 24C18.6275 24 24.0001 18.6274 24.0001 12C24.0001 5.37259 18.6275 3.83631e-06 12.0001 2.09815e-06ZM12.0001 2C6.47727 2 2.00012 6.47715 2.00012 12C2.00012 17.5228 6.47727 22 12.0001 22C17.523 22 22.0001 17.5229 22.0001 12C22.0001 6.47716 17.523 2 12.0001 2Z" fill="#000640"/>
</g>
<defs>
<clipPath id="clip0_1253_5890">
<rect width="24" height="24" fill="white"/>
</clipPath>
</defs>
</svg>
