<svg width="24" height="24" viewBox="0 0 24 24" fill="none" xmlns="http://www.w3.org/2000/svg">
<path fill-rule="evenodd" clip-rule="evenodd" d="M15 0C15.5523 0 16 0.447715 16 1V2H17C17.5523 2 18 2.44772 18 3C18 3.55228 17.5523 4 17 4H16V5.46482L21.5547 9.16795C21.8329 9.35342 22 9.66565 22 10V22C22 22.5523 21.5523 23 21 23H3C2.44772 23 2 22.5523 2 22V16C2 14.3431 3.34315 13 5 13H8V10C8 9.66565 8.1671 9.35342 8.4453 9.16795L14 5.46482V4H13C12.4477 4 12 3.55228 12 3C12 2.44772 12.4477 2 13 2H14V1C14 0.447715 14.4477 0 15 0ZM5 15H8V21H4V16C4 15.4477 4.44772 15 5 15ZM12 21H10V10.5352L15 7.20185L20 10.5352V21H18V17C18 15.3431 16.6569 14 15 14C13.3431 14 12 15.3431 12 17V21ZM16 17V21H14V17C14 16.4477 14.4477 16 15 16C15.5523 16 16 16.4477 16 17Z" fill="#000640"/>
</svg>
