<svg width="24" height="24" viewBox="0 0 24 24" fill="none" xmlns="http://www.w3.org/2000/svg">
<path fill-rule="evenodd" clip-rule="evenodd" d="M2.70711 1.29289C2.31658 0.902369 1.68342 0.902369 1.29289 1.29289C0.902369 1.68342 0.902369 2.31658 1.29289 2.70711L4.25705 5.67127C2.84637 7.39514 2 9.59873 2 12C2 17.5228 6.47715 22 12 22C14.4013 22 16.6049 21.1536 18.3287 19.7429L21.2929 22.7071C21.6834 23.0976 22.3166 23.0976 22.7071 22.7071C23.0976 22.3166 23.0976 21.6834 22.7071 21.2929L19.7429 18.3287C21.1536 16.6049 22 14.4013 22 12C22 6.47715 17.5228 2 12 2C9.59873 2 7.39514 2.84637 5.67127 4.25705L2.70711 1.29289ZM5.68014 7.09436C4.62708 8.44904 4 10.1513 4 12C4 16.4183 7.58172 20 12 20C13.8487 20 15.551 19.3729 16.9056 18.3199L5.68014 7.09436ZM18.3199 16.9056L7.09436 5.68014C8.44904 4.62708 10.1513 4 12 4C16.4183 4 20 7.58172 20 12C20 13.8487 19.3729 15.551 18.3199 16.9056Z" fill="#000640"/>
</svg>
