<svg width="24" height="24" viewBox="0 0 24 24" fill="none" xmlns="http://www.w3.org/2000/svg">
<path d="M11 6C11 6.55228 10.5523 7 10 7C9.44772 7 9 6.55228 9 6C9 5.44772 9.44772 5 10 5C10.5523 5 11 5.44772 11 6Z" fill="#000640"/>
<path d="M10 11C10.5523 11 11 10.5523 11 10C11 9.44772 10.5523 9 10 9C9.44772 9 9 9.44772 9 10C9 10.5523 9.44772 11 10 11Z" fill="#000640"/>
<path d="M11 14C11 14.5523 10.5523 15 10 15C9.44772 15 9 14.5523 9 14C9 13.4477 9.44772 13 10 13C10.5523 13 11 13.4477 11 14Z" fill="#000640"/>
<path d="M14 7C14.5523 7 15 6.55228 15 6C15 5.44772 14.5523 5 14 5C13.4477 5 13 5.44772 13 6C13 6.55228 13.4477 7 14 7Z" fill="#000640"/>
<path d="M15 14C15 14.5523 14.5523 15 14 15C13.4477 15 13 14.5523 13 14C13 13.4477 13.4477 13 14 13C14.5523 13 15 13.4477 15 14Z" fill="#000640"/>
<path d="M14 19C14.5523 19 15 18.5523 15 18C15 17.4477 14.5523 17 14 17C13.4477 17 13 17.4477 13 18C13 18.5523 13.4477 19 14 19Z" fill="#000640"/>
<path fill-rule="evenodd" clip-rule="evenodd" d="M5 4C5 2.34315 6.34315 1 8 1H16C17.6569 1 19 2.34315 19 4V9H20C21.6569 9 23 10.3431 23 12V22C23 22.5523 22.5523 23 22 23H2C1.44772 23 1 22.5523 1 22V12C1 10.3431 2.34315 9 4 9H5V4ZM5 11H4C3.44772 11 3 11.4477 3 12V21H5V11ZM7 21H17V4C17 3.44772 16.5523 3 16 3H8C7.44772 3 7 3.44772 7 4V21ZM21 21V12C21 11.4477 20.5523 11 20 11H19V21H21Z" fill="#000640"/>
</svg>
