<svg width="24" height="24" viewBox="0 0 24 24" fill="none" xmlns="http://www.w3.org/2000/svg">
<path d="M16.002 13.3537C16.4803 13.0775 16.6442 12.4659 16.3681 11.9876C16.0919 11.5093 15.4803 11.3455 15.002 11.6216L11.3278 13.7429C10.8495 14.0191 10.6856 14.6307 10.9618 15.109C11.2379 15.5872 11.8495 15.7511 12.3278 15.475L16.002 13.3537Z" fill="#000640"/>
<path d="M18.1356 15.0495C18.4118 15.5278 18.2479 16.1393 17.7696 16.4155L14.0954 18.5368C13.6171 18.8129 13.0055 18.6491 12.7293 18.1708C12.4532 17.6925 12.6171 17.0809 13.0954 16.8048L16.7696 14.6834C17.2479 14.4073 17.8595 14.5712 18.1356 15.0495Z" fill="#000640"/>
<path fill-rule="evenodd" clip-rule="evenodd" d="M8.47026 6.55115C7.51367 7.10343 7.18592 8.32661 7.73821 9.2832L8.73821 11.0152C9.29049 11.9718 10.5137 12.2996 11.4703 11.7473L13.2023 10.7473C14.1589 10.195 14.4866 8.97183 13.9344 8.01525L12.9344 6.2832C12.3821 5.32661 11.1589 4.99886 10.2023 5.55115L8.47026 6.55115ZM9.47026 8.2832L11.2023 7.2832L12.2023 9.01525L10.4703 10.0152L9.47026 8.2832Z" fill="#000640"/>
<path fill-rule="evenodd" clip-rule="evenodd" d="M14.5142 3.11984C13.6858 1.68496 11.851 1.19334 10.4162 2.02177L5.66577 4.76441L3.6909 1.34383C3.41476 0.865533 2.80317 0.701658 2.32487 0.9778C1.84658 1.25394 1.68271 1.86553 1.95885 2.34383L4.04182 5.95164C3.5094 6.69802 3.42776 7.71648 3.91608 8.56228L11.4014 21.5272C12.2298 22.962 14.0646 23.4537 15.4994 22.6252L20.6086 19.6755C22.0434 18.8471 22.5351 17.0123 21.7066 15.5774L14.5142 3.11984ZM11.4162 3.75382C11.8945 3.47767 12.506 3.64155 12.7822 4.11984L19.9746 16.5774C20.2507 17.0557 20.0868 17.6673 19.6086 17.9434L14.4994 20.8932C14.0211 21.1693 13.4096 21.0055 13.1334 20.5272L5.64813 7.56228C5.53375 7.36417 5.60163 7.11084 5.79975 6.99646L11.4162 3.75382Z" fill="#000640"/>
</svg>
