<svg width="24" height="24" viewBox="0 0 24 24" fill="none" xmlns="http://www.w3.org/2000/svg">
<path fill-rule="evenodd" clip-rule="evenodd" d="M18.7071 1.29289C18.3166 0.902369 17.6834 0.902369 17.2929 1.29289C16.9024 1.68342 16.9024 2.31658 17.2929 2.70711L18.5858 4L16.9999 5.58588L15.7069 4.29289C15.5194 4.10536 15.265 4 14.9998 4C14.7346 4 14.4802 4.10536 14.2927 4.2929L13.975 4.61065C13.7841 3.13774 12.5249 2 11 2C9.34315 2 8 3.34315 8 5C8 6.52493 9.13778 7.78413 10.6107 7.97498L6.29291 12.2929C6.02509 12.5607 5.93157 12.9569 6.05134 13.3162L6.85587 15.7298L2.29289 20.2928C1.90237 20.6833 1.90237 21.3165 2.29289 21.707C2.68342 22.0975 3.31658 22.0975 3.70711 21.707L8.27003 17.1441L10.6838 17.9487C11.0431 18.0685 11.4393 17.9749 11.7071 17.7071L16.025 13.3891C16.2158 14.8621 17.475 16 19 16C20.6569 16 22 14.6569 22 13C22 11.475 20.8621 10.2157 19.389 10.025L19.7069 9.7071C20.0974 9.31657 20.0974 8.68341 19.7069 8.29289L18.4141 7.00009L20 5.41421L21.2929 6.70711C21.6834 7.09763 22.3166 7.09763 22.7071 6.70711C23.0976 6.31658 23.0976 5.68342 22.7071 5.29289L18.7071 1.29289ZM11 4C10.4477 4 10 4.44772 10 5C10 5.55228 10.4477 6 11 6C11.5523 6 12 5.55228 12 5C12 4.44772 11.5523 4 11 4ZM19 12C18.4477 12 18 12.4477 18 13C18 13.5523 18.4477 14 19 14C19.5523 14 20 13.5523 20 13C20 12.4477 19.5523 12 19 12ZM10.4142 11L14.9998 6.41422L17.5856 9.00001L15.5857 11H10.4142ZM8.41425 13H13.5858L10.7299 15.8559L8.7906 15.2094L8.14415 13.2701L8.41425 13Z" fill="#000640"/>
</svg>
