<svg width="24" height="24" viewBox="0 0 24 24" fill="none" xmlns="http://www.w3.org/2000/svg">
<path d="M5.70711 4.29289C5.31658 3.90237 4.68342 3.90237 4.29289 4.29289C3.90237 4.68342 3.90237 5.31658 4.29289 5.70711L10.5859 12.0001L4.29289 18.293C3.90237 18.6836 3.90237 19.3167 4.29289 19.7073C4.68342 20.0978 5.31658 20.0978 5.70711 19.7073L12.0001 13.4143L18.2929 19.7071C18.6834 20.0976 19.3166 20.0976 19.7071 19.7071C20.0976 19.3166 20.0976 18.6834 19.7071 18.2929L13.4143 12.0001L19.7071 5.70726C20.0976 5.31673 20.0976 4.68357 19.7071 4.29304C19.3166 3.90252 18.6834 3.90252 18.2929 4.29304L12.0001 10.5859L5.70711 4.29289Z" fill="#000640"/>
</svg>
