<svg width="24" height="24" viewBox="0 0 24 24" fill="none" xmlns="http://www.w3.org/2000/svg">
<path fill-rule="evenodd" clip-rule="evenodd" d="M12 4C13.1046 4 14 4.89543 14 6C14 7.10457 13.1046 8 12 8C11.4477 8 11 8.44772 11 9V11.4338L2.41548 16.5845C1.53732 17.1114 1 18.0604 1 19.0845C1 20.6947 2.3053 22 3.91548 22H20.0845C21.6947 22 23 20.6947 23 19.0845C23 18.0604 22.4627 17.1114 21.5845 16.5845L13 11.4338V9.87398C14.7252 9.42994 16 7.86384 16 6C16 3.79086 14.2091 2 12 2C9.79086 2 8 3.79086 8 6C8 6.55228 8.44771 7 9 7C9.55229 7 10 6.55228 10 6C10 4.89543 10.8954 4 12 4ZM12 13.1662L20.5555 18.2995C20.8313 18.465 21 18.763 21 19.0845C21 19.5901 20.5901 20 20.0845 20H3.91548C3.40987 20 3 19.5901 3 19.0845C3 18.763 3.16872 18.465 3.44447 18.2995L12 13.1662Z" fill="#000640"/>
</svg>
