<svg width="24" height="24" viewBox="0 0 24 24" fill="none" xmlns="http://www.w3.org/2000/svg">
<path fill-rule="evenodd" clip-rule="evenodd" d="M10.5 7C8.01472 7 6 9.01472 6 11.5V12.0354C6 12.533 5.63417 12.9549 5.1416 13.0254C3.931 13.1985 3 14.2414 3 15.5C3 16.8807 4.11929 18 5.5 18H18.5C19.8807 18 21 16.8807 21 15.5C21 14.1193 19.8807 13 18.5 13H16C15.4477 13 15 12.5523 15 12V11.5C15 9.01472 12.9853 7 10.5 7ZM4.00454 11.2547C4.1335 7.77853 6.99227 5 10.5 5C13.9216 5 16.7257 7.64378 16.9811 11H18.5C20.9853 11 23 13.0147 23 15.5C23 17.9853 20.9853 20 18.5 20H5.5C3.01472 20 1 17.9853 1 15.5C1 13.5386 2.25419 11.8714 4.00454 11.2547Z" fill="#000640"/>
</svg>
