<svg width="24" height="24" viewBox="0 0 24 24" fill="none" xmlns="http://www.w3.org/2000/svg">
<path fill-rule="evenodd" clip-rule="evenodd" d="M3 1C2.44772 1 2 1.44772 2 2C2 2.55228 2.44772 3 3 3H5.2457L6.67427 8H4C3.72145 8 3.45553 8.11618 3.26628 8.32055C3.07702 8.52493 2.98158 8.79898 3.00295 9.0767L3.86098 20.2301C3.98123 21.7931 5.28455 23 6.85215 23H15.148C16.7156 23 18.019 21.7931 18.1392 20.2301L18.7079 12.836C20.6066 12.3083 22 10.5669 22 8.5C22 6.01472 19.9853 4 17.5 4C15.1837 4 13.2762 5.75002 13.0275 8H8.7543L6.96152 1.72528C6.83887 1.29598 6.44648 1 6 1H3ZM15.05 8H18C18.2785 8 18.5445 8.11618 18.7337 8.32055C18.923 8.52492 19.0184 8.79897 18.9971 9.07669L18.8811 10.5842C19.5555 10.1364 20 9.37014 20 8.5C20 7.11929 18.8807 6 17.5 6C16.2905 6 15.2816 6.85888 15.05 8ZM5.28604 12.6797L5.07989 10H16.9201L16.6762 13.1716C14.0996 13.6385 12.5295 13.2518 10.9742 12.8686L10.8638 12.8414C9.97671 12.6233 9.02244 12.3938 7.91439 12.3675C7.11514 12.3485 6.25758 12.4347 5.28604 12.6797ZM10.4848 14.8078C12.0473 15.1926 13.8141 15.6277 16.5183 15.2244L16.1451 20.0767C16.105 20.5977 15.6706 21 15.148 21H6.85215C6.32961 21 5.89517 20.5977 5.85509 20.0767L5.44215 14.709C6.40089 14.4332 7.18016 14.3506 7.8669 14.3669C8.73239 14.3875 9.49446 14.5642 10.3862 14.7836L10.4848 14.8078Z" fill="#000640"/>
</svg>
