<svg width="24" height="24" viewBox="0 0 24 24" fill="none" xmlns="http://www.w3.org/2000/svg">
<path d="M15.3163 2.05134C15.8402 2.22599 16.1234 2.79231 15.9487 3.31625L9.94871 21.3163C9.77406 21.8402 9.20774 22.1234 8.6838 21.9487C8.15986 21.7741 7.8767 21.2077 8.05134 20.6838L14.0513 2.6838C14.226 2.15986 14.7923 1.8767 15.3163 2.05134Z" fill="#000640"/>
<path d="M6.70711 7.29289C7.09763 7.68342 7.09763 8.31658 6.70711 8.70711L3.41421 12L6.70711 15.2929C7.09763 15.6834 7.09763 16.3166 6.70711 16.7071C6.31658 17.0976 5.68342 17.0976 5.29289 16.7071L1.29289 12.7071C0.902369 12.3166 0.902369 11.6834 1.29289 11.2929L5.29289 7.29289C5.68342 6.90237 6.31658 6.90237 6.70711 7.29289Z" fill="#000640"/>
<path d="M17.2929 8.70711C16.9024 8.31658 16.9024 7.68342 17.2929 7.29289C17.6834 6.90237 18.3166 6.90237 18.7071 7.29289L22.7071 11.2929C23.0976 11.6834 23.0976 12.3166 22.7071 12.7071L18.7071 16.7071C18.3166 17.0976 17.6834 17.0976 17.2929 16.7071C16.9024 16.3166 16.9024 15.6834 17.2929 15.2929L20.5858 12L17.2929 8.70711Z" fill="#000640"/>
</svg>
