<svg width="24" height="24" viewBox="0 0 24 24" fill="none" xmlns="http://www.w3.org/2000/svg">
<g clip-path="url(#clip0_1253_5022)">
<path d="M7 13C6.44772 13 6 13.4477 6 14C6 14.5523 6.44772 15 7 15H8.39562C8.59473 15.6845 8.86986 16.3101 9.22293 16.8558C10.0669 18.16 11.3625 19 13 19C14.7183 19 16.0322 18.0281 16.8569 16.6568C17.1416 16.1835 16.9887 15.5691 16.5154 15.2844C16.0421 14.9998 15.4277 15.1527 15.1431 15.6259C14.5903 16.545 13.8585 17 13 17C12.1375 17 11.4331 16.59 10.9021 15.7692C10.7558 15.5431 10.6236 15.286 10.5084 15H14C14.5523 15 15 14.5523 15 14C15 13.4477 14.5523 13 14 13H10.0471C10.0162 12.6827 10 12.349 10 12H14C14.5523 12 15 11.5523 15 11C15 10.4477 14.5523 10 14 10H10.2034C10.3604 9.29115 10.6013 8.69551 10.9021 8.23075C11.4331 7.41001 12.1375 7 13 7C13.8585 7 14.5903 7.45503 15.1431 8.37405C15.4277 8.84733 16.0421 9.00023 16.5154 8.71557C16.9887 8.43091 17.1416 7.81649 16.8569 7.34321C16.0322 5.97194 14.7183 5 13 5C11.3625 5 10.0669 5.83999 9.22293 7.14425C8.70425 7.94584 8.35377 8.91992 8.1654 10H7C6.44772 10 6 10.4477 6 11C6 11.5523 6.44772 12 7 12H8C8 12.3394 8.01308 12.6732 8.03937 13H7Z" fill="#000640"/>
<path fill-rule="evenodd" clip-rule="evenodd" d="M12 0C5.37258 0 0 5.37258 0 12C0 18.6274 5.37258 24 12 24C18.6274 24 24 18.6274 24 12C24 5.37258 18.6274 0 12 0ZM2 12C2 6.47715 6.47715 2 12 2C17.5228 2 22 6.47715 22 12C22 17.5228 17.5228 22 12 22C6.47715 22 2 17.5228 2 12Z" fill="#000640"/>
</g>
<defs>
<clipPath id="clip0_1253_5022">
<rect width="24" height="24" fill="white"/>
</clipPath>
</defs>
</svg>
