<svg width="24" height="24" viewBox="0 0 24 24" fill="none" xmlns="http://www.w3.org/2000/svg">
<g clip-path="url(#clip0_1253_5018)">
<path fill-rule="evenodd" clip-rule="evenodd" d="M7 6C6.44772 6 6 6.44772 6 7V14C6 14.5523 6.44772 15 7 15C7.55228 15 8 14.5523 8 14V11.5556H8.65976L10.1056 14.4472C10.3526 14.9412 10.9532 15.1414 11.4472 14.8944C11.9412 14.6474 12.1414 14.0467 11.8944 13.5528L10.6872 11.1383C11.4753 10.6481 12 9.77422 12 8.77778C12 7.24365 10.7563 6 9.22222 6H7ZM9.22222 9.55556H8V8H9.22222C9.65178 8 10 8.34822 10 8.77778C10 9.20733 9.65178 9.55556 9.22222 9.55556Z" fill="#000640"/>
<path fill-rule="evenodd" clip-rule="evenodd" d="M13 10C13 9.44771 13.4477 9 14 9H16C17.6569 9 19 10.3431 19 12C19 13.6569 17.6569 15 16 15H15V17C15 17.5523 14.5523 18 14 18C13.4477 18 13 17.5523 13 17V10ZM15 13H16C16.5523 13 17 12.5523 17 12C17 11.4477 16.5523 11 16 11H15V13Z" fill="#000640"/>
<path fill-rule="evenodd" clip-rule="evenodd" d="M24 12C24 18.6274 18.6274 24 12 24C5.37258 24 0 18.6274 0 12C0 5.37258 5.37258 0 12 0C18.6274 0 24 5.37258 24 12ZM22 12C22 17.5228 17.5228 22 12 22C6.47715 22 2 17.5228 2 12C2 6.47715 6.47715 2 12 2C17.5228 2 22 6.47715 22 12Z" fill="#000640"/>
</g>
<defs>
<clipPath id="clip0_1253_5018">
<rect width="24" height="24" fill="white"/>
</clipPath>
</defs>
</svg>
