<svg width="24" height="24" viewBox="0 0 24 24" fill="none" xmlns="http://www.w3.org/2000/svg">
<g clip-path="url(#clip0_1253_5016)">
<path d="M8 12C7.44772 12 7 12.4477 7 13C7 13.5523 7.44772 14 8 14H9V16H8C7.44772 16 7 16.4477 7 17C7 17.5523 7.44772 18 8 18H16C16.5523 18 17 17.5523 17 17C17 16.4477 16.5523 16 16 16H11V14H13C13.5523 14 14 13.5523 14 13C14 12.4477 13.5523 12 13 12H11V11H13C13.5523 11 14 10.5523 14 10C14 9.44771 13.5523 9 13 9H11C11 7.89543 11.8954 7 13 7C13.8693 7 14.6114 7.5551 14.8865 8.33325C15.0705 8.85396 15.6418 9.12689 16.1625 8.94284C16.6833 8.75879 16.9562 8.18747 16.7721 7.66675C16.2235 6.11451 14.7432 5 13 5C10.7909 5 9 6.79086 9 9H8C7.44772 9 7 9.44771 7 10C7 10.5523 7.44772 11 8 11H9V12H8Z" fill="#000640"/>
<path fill-rule="evenodd" clip-rule="evenodd" d="M12 0C5.37258 0 0 5.37258 0 12C0 18.6274 5.37258 24 12 24C18.6274 24 24 18.6274 24 12C24 5.37258 18.6274 0 12 0ZM2 12C2 6.47715 6.47715 2 12 2C17.5228 2 22 6.47715 22 12C22 17.5228 17.5228 22 12 22C6.47715 22 2 17.5228 2 12Z" fill="#000640"/>
</g>
<defs>
<clipPath id="clip0_1253_5016">
<rect width="24" height="24" fill="white"/>
</clipPath>
</defs>
</svg>
