<svg width="24" height="24" viewBox="0 0 24 24" fill="none" xmlns="http://www.w3.org/2000/svg">
<path fill-rule="evenodd" clip-rule="evenodd" d="M4.41444 2.89987C2.44457 4.08178 1 5.85389 1 8V16C1 18.1461 2.44457 19.9182 4.41444 21.1001C6.40421 22.294 9.0885 23 12 23C14.9115 23 17.5958 22.294 19.5856 21.1001C21.5554 19.9182 23 18.1461 23 16V8C23 5.85389 21.5554 4.08178 19.5856 2.89987C17.5958 1.706 14.9115 1 12 1C9.0885 1 6.40421 1.706 4.41444 2.89987ZM5.44343 4.61485C3.794 5.60451 3 6.83241 3 8C3 9.16759 3.794 10.3955 5.44343 11.3851C7.07295 12.3629 9.38866 13 12 13C14.6113 13 16.9271 12.3629 18.5566 11.3851C20.206 10.3955 21 9.16759 21 8C21 6.83241 20.206 5.60451 18.5566 4.61485C16.9271 3.63714 14.6113 3 12 3C9.38866 3 7.07295 3.63714 5.44343 4.61485ZM20.9992 12.0625C20.5743 12.4457 20.0977 12.7929 19.5856 13.1001C17.5958 14.294 14.9115 15 12 15C9.0885 15 6.40421 14.294 4.41444 13.1001C3.90232 12.7929 3.42571 12.4457 3.00076 12.0625C3.02856 13.2113 3.82339 14.4131 5.44343 15.3851C7.07295 16.3629 9.38866 17 12 17C14.6113 17 16.9271 16.3629 18.5566 15.3851C20.1766 14.4131 20.9714 13.2113 20.9992 12.0625ZM3.00076 16.0625C3.42571 16.4457 3.90232 16.7929 4.41444 17.1001C6.40421 18.294 9.0885 19 12 19C14.9115 19 17.5958 18.294 19.5856 17.1001C20.0977 16.7929 20.5743 16.4457 20.9992 16.0625C20.9714 17.2113 20.1766 18.4131 18.5566 19.3851C16.9271 20.3629 14.6113 21 12 21C9.38866 21 7.07295 20.3629 5.44343 19.3851C3.82339 18.4131 3.02856 17.2113 3.00076 16.0625Z" fill="#000640"/>
</svg>
