<svg width="24" height="24" viewBox="0 0 24 24" fill="none" xmlns="http://www.w3.org/2000/svg">
<g clip-path="url(#clip0_1253_5024)">
<path d="M7.29289 6.29289C7.68342 5.90237 8.31658 5.90237 8.70711 6.29289L12 9.58579L15.2929 6.29289C15.6834 5.90237 16.3166 5.90237 16.7071 6.29289C17.0976 6.68342 17.0976 7.31658 16.7071 7.70711L13.4142 11H15C15.5523 11 16 11.4477 16 12C16 12.5523 15.5523 13 15 13H13V14H15C15.5523 14 16 14.4477 16 15C16 15.5523 15.5523 16 15 16H13V18C13 18.5523 12.5523 19 12 19C11.4477 19 11 18.5523 11 18V16H9C8.44771 16 8 15.5523 8 15C8 14.4477 8.44771 14 9 14H11V13H9C8.44771 13 8 12.5523 8 12C8 11.4477 8.44771 11 9 11H10.5858L7.29289 7.70711C6.90237 7.31658 6.90237 6.68342 7.29289 6.29289Z" fill="#000640"/>
<path fill-rule="evenodd" clip-rule="evenodd" d="M12 24C18.6274 24 24 18.6274 24 12C24 5.37258 18.6274 0 12 0C5.37258 0 0 5.37258 0 12C0 18.6274 5.37258 24 12 24ZM12 22C17.5228 22 22 17.5228 22 12C22 6.47715 17.5228 2 12 2C6.47715 2 2 6.47715 2 12C2 17.5228 6.47715 22 12 22Z" fill="#000640"/>
</g>
<defs>
<clipPath id="clip0_1253_5024">
<rect width="24" height="24" fill="white"/>
</clipPath>
</defs>
</svg>
