<svg width="24" height="24" viewBox="0 0 24 24" fill="none" xmlns="http://www.w3.org/2000/svg">
<path fill-rule="evenodd" clip-rule="evenodd" d="M12 1C9.45088 1 7.10661 1.28588 5.3684 1.76872C4.50632 2.00818 3.7362 2.31151 3.15832 2.69103C2.62116 3.0438 2 3.634 2 4.5L2.00021 4.52727C2.00032 6.92127 2.00013 14.4365 2.00004 17.8321L2 19.5C2 20.366 2.62116 20.9562 3.15832 21.309C3.7362 21.6885 4.50632 21.9919 5.36839 22.2313C7.10661 22.7142 9.45087 23 12 23C14.5491 23 16.8934 22.7142 18.6316 22.2313C19.4937 21.9919 20.2638 21.6885 20.8417 21.309C21.3788 20.9562 22 20.366 22 19.5L22 4.50005C22 3.63405 21.3788 3.0438 20.8417 2.69103C20.2638 2.31151 19.4937 2.00818 18.6316 1.76872C16.8934 1.28588 14.5491 1 12 1ZM4.25621 4.36275C4.17262 4.41764 4.1136 4.46364 4.07235 4.5C4.1136 4.53636 4.17262 4.58236 4.25621 4.63725C4.58918 4.85593 5.13708 5.0913 5.90368 5.30425C7.42283 5.72623 9.57856 6 12 6C14.4214 6 16.5772 5.72623 18.0963 5.30425C18.8629 5.0913 19.4108 4.85593 19.7438 4.63725C19.8274 4.58236 19.8864 4.53636 19.9276 4.5C19.8864 4.46364 19.8274 4.41764 19.7438 4.36275C19.4108 4.14407 18.8629 3.9087 18.0963 3.69575C16.5772 3.27377 14.4214 3 12 3C9.57856 3 7.42283 3.27377 5.90368 3.69575C5.13708 3.9087 4.58918 4.14407 4.25621 4.36275ZM20.0175 4.40151C20.0174 4.4015 20.0166 4.40276 20.0155 4.40533L20.0175 4.40151C20.0175 4.40151 20.0176 4.40133 20.0175 4.40151ZM20 6.7562C19.5863 6.93692 19.124 7.09452 18.6316 7.23129C16.8934 7.71412 14.5491 8 12 8C9.45088 8 7.10661 7.71412 5.3684 7.23129C4.87614 7.09455 4.41386 6.93698 4.00024 6.7563L4.00018 9.82829C6.04602 10.5933 8.869 11 11.8125 11C14.7655 11 17.7232 10.5906 20 9.80508V6.7562ZM4.00009 14.8283L4.00015 11.9432C6.25207 12.6596 9.03935 13 11.8125 13C14.6482 13 17.5673 12.6441 20 11.9067V14.8051C17.7232 15.5906 14.7655 16 11.8125 16C8.86896 16 6.04594 15.5933 4.00009 14.8283ZM4.00006 16.9432L4 19.4268C4.02864 19.4622 4.09891 19.534 4.25621 19.6373C4.58918 19.856 5.13708 20.0914 5.90368 20.3043C7.42283 20.7263 9.57856 21 12 21C14.4214 21 16.5772 20.7263 18.0963 20.3043C18.8629 20.0914 19.4108 19.856 19.7438 19.6373C19.9011 19.534 19.9714 19.4622 20 19.4268V16.9067C17.5673 17.6441 14.6482 18 11.8125 18C9.03931 18 6.252 17.6596 4.00006 16.9432Z" fill="#000640"/>
</svg>
