<svg width="24" height="24" viewBox="0 0 24 24" fill="none" xmlns="http://www.w3.org/2000/svg">
<path fill-rule="evenodd" clip-rule="evenodd" d="M8.29289 1.29289C8.68342 0.902369 9.31658 0.902369 9.70711 1.29289L18.7071 10.2929C19.0976 10.6834 19.0976 11.3166 18.7071 11.7071L13.1213 17.2929C11.9497 18.4645 10.0503 18.4645 8.87868 17.2929L4.70711 13.1213C3.53553 11.9497 3.53553 10.0503 4.70711 8.87868L9.58579 4L8.29289 2.70711C7.90237 2.31658 7.90237 1.68342 8.29289 1.29289ZM11 5.41421L6.12132 10.2929C5.7308 10.6834 5.7308 11.3166 6.12132 11.7071L10.2929 15.8787C10.6834 16.2692 11.3166 16.2692 11.7071 15.8787L16.5858 11L11 5.41421Z" fill="#000640"/>
<path fill-rule="evenodd" clip-rule="evenodd" d="M2 21C2 20.4477 2.44772 20 3 20L21 20C21.5523 20 22 20.4477 22 21C22 21.5523 21.5523 22 21 22L3 22C2.44772 22 2 21.5523 2 21Z" fill="#000640"/>
<path d="M20 16.5C20 17.3284 19.3284 18 18.5 18C17.6716 18 17 17.3284 17 16.5C17 15.9607 17.6357 14.6403 18.0794 13.7844C18.259 13.4379 18.741 13.4379 18.9206 13.7844C19.3643 14.6403 20 15.9607 20 16.5Z" fill="#000640"/>
</svg>
