<svg width="24" height="24" viewBox="0 0 24 24" fill="none" xmlns="http://www.w3.org/2000/svg">
<path fill-rule="evenodd" clip-rule="evenodd" d="M4.05732 8.03742C1.63454 9.41231 0 12.0153 0 15C0 19.4183 3.58172 23 8 23C9.45715 23 10.8233 22.6104 12 21.9297C13.1767 22.6104 14.5429 23 16 23C20.4183 23 24 19.4183 24 15C24 12.0153 22.3655 9.41231 19.9427 8.03742C19.4673 4.07301 16.0925 1 12 1C7.9075 1 4.53274 4.07301 4.05732 8.03742ZM6.27925 7.18552C6.83351 7.06403 7.40928 7 8 7C9.45715 7 10.8233 7.38958 12 8.07026C13.1767 7.38958 14.5429 7 16 7C16.5907 7 17.1665 7.06403 17.7207 7.18552C16.9517 4.75874 14.6813 3 12 3C9.31875 3 7.04827 4.75874 6.27925 7.18552ZM10.2512 9.43662C9.16967 10.554 8.41096 11.9857 8.1254 13.5814C6.90565 12.5488 6.10378 11.0378 6.00937 9.33811C6.63228 9.11911 7.30223 9 8 9C8.79613 9 9.55604 9.15506 10.2512 9.43662ZM12 10.5278C13.1491 11.5563 13.8995 13.0211 13.9906 14.6619C13.3677 14.8809 12.6978 15 12 15C11.3022 15 10.6323 14.8809 10.0094 14.6619C10.1005 13.0211 10.8509 11.5563 12 10.5278ZM15.8746 13.5814C15.589 11.9857 14.8303 10.554 13.7488 9.43662C14.444 9.15506 15.2039 9 16 9C16.6978 9 17.3677 9.11911 17.9906 9.33811C17.8962 11.0378 17.0943 12.5488 15.8746 13.5814ZM13.7207 16.8145C13.1665 16.936 12.5907 17 12 17C11.4093 17 10.8335 16.936 10.2793 16.8145C10.6075 17.8504 11.2094 18.7646 12 19.4722C12.7906 18.7646 13.3925 17.8504 13.7207 16.8145ZM13.7488 20.5634C14.9324 19.3406 15.7294 17.7413 15.9427 15.9626C17.9725 14.8107 19.449 12.7968 19.8746 10.4186C21.1747 11.5192 22 13.1632 22 15C22 18.3137 19.3137 21 16 21C15.2039 21 14.444 20.8449 13.7488 20.5634ZM10.2512 20.5634C9.0676 19.3406 8.27063 17.7413 8.05732 15.9626C6.02752 14.8107 4.55098 12.7968 4.1254 10.4186C2.82534 11.5192 2 13.1632 2 15C2 18.3137 4.68629 21 8 21C8.79613 21 9.55604 20.8449 10.2512 20.5634Z" fill="#000640"/>
</svg>
