<svg width="24" height="24" viewBox="0 0 24 24" fill="none" xmlns="http://www.w3.org/2000/svg">
<path fill-rule="evenodd" clip-rule="evenodd" d="M8.29284 1.29289C8.68336 0.902369 9.31653 0.902369 9.70705 1.29289L18.7071 10.2929C19.0976 10.6834 19.0976 11.3166 18.7071 11.7071L13.1213 17.2929C11.9497 18.4645 10.0502 18.4645 8.87862 17.2929L4.70705 13.1213C3.53548 11.9497 3.53547 10.0503 4.70705 8.87868L9.58573 4L8.29284 2.70711C7.90231 2.31658 7.90231 1.68342 8.29284 1.29289ZM10.9999 5.41421L6.12126 10.2929C5.73074 10.6834 5.73074 11.3166 6.12126 11.7071L6.41416 12H15.5857L16.5857 11L10.9999 5.41421ZM8.41416 14L10.2928 15.8787C10.6834 16.2692 11.3165 16.2692 11.7071 15.8787L13.5857 14H8.41416Z" fill="#000640"/>
<path d="M2 21C2 20.4477 2.44772 20 3 20L21 20C21.5523 20 22 20.4477 22 21C22 21.5523 21.5523 22 21 22L3 22C2.44772 22 2 21.5523 2 21Z" fill="#000640"/>
<path d="M18.5 18C19.3284 18 20 17.3285 20 16.5C20 15.9607 19.3643 14.6404 18.9206 13.7844C18.741 13.4379 18.259 13.4379 18.0794 13.7844C17.6357 14.6404 17 15.9607 17 16.5C17 17.3285 17.6716 18 18.5 18Z" fill="#000640"/>
</svg>
