<svg width="24" height="24" viewBox="0 0 24 24" fill="none" xmlns="http://www.w3.org/2000/svg">
<g clip-path="url(#clip0_1253_6423)">
<path d="M12 13C12.5523 13 13 12.5523 13 12C13 11.4477 12.5523 11 12 11C11.4477 11 11 11.4477 11 12C11 12.5523 11.4477 13 12 13Z" fill="#000640"/>
<path fill-rule="evenodd" clip-rule="evenodd" d="M17.7071 6.29289C17.9749 6.56072 18.0685 6.95689 17.9487 7.31622L15.4487 14.8162C15.3491 15.1148 15.1148 15.3491 14.8162 15.4487L7.31622 17.9487C6.95689 18.0685 6.56072 17.9749 6.29289 17.7071C6.02506 17.4393 5.93154 17.0431 6.05131 16.6838L8.55131 9.18377C8.65085 8.88516 8.88516 8.65085 9.18377 8.55131L16.6838 6.05131C17.0431 5.93154 17.4393 6.02506 17.7071 6.29289ZM10.2906 10.2906L8.58114 15.4189L13.7094 13.7094L15.4189 8.58114L10.2906 10.2906Z" fill="#000640"/>
<path fill-rule="evenodd" clip-rule="evenodd" d="M0 12C0 5.37258 5.37258 0 12 0C18.6274 0 24 5.37258 24 12C24 18.6274 18.6274 24 12 24C5.37258 24 0 18.6274 0 12ZM12 2C6.47715 2 2 6.47715 2 12C2 17.5228 6.47715 22 12 22C17.5228 22 22 17.5228 22 12C22 6.47715 17.5228 2 12 2Z" fill="#000640"/>
</g>
<defs>
<clipPath id="clip0_1253_6423">
<rect width="24" height="24" fill="white"/>
</clipPath>
</defs>
</svg>
