<svg width="24" height="24" viewBox="0 0 24 24" fill="none" xmlns="http://www.w3.org/2000/svg">
<path fill-rule="evenodd" clip-rule="evenodd" d="M8.00003 2.5C8.26526 2.50001 8.51962 2.60538 8.70715 2.79294L11.9996 6.08574L15.2924 2.79289C15.6829 2.40238 16.316 2.40237 16.7066 2.79285L21.2071 7.29285C21.3946 7.48039 21.5 7.73475 21.5 7.99997C21.5 8.2652 21.3946 8.51956 21.2071 8.70711L17.9142 12L21.2071 15.2929C21.3946 15.4804 21.5 15.7348 21.5 16C21.5 16.2653 21.3946 16.5196 21.2071 16.7071L16.7066 21.2071C16.519 21.3947 16.2647 21.5 15.9995 21.5C15.7342 21.5 15.4799 21.3946 15.2924 21.2071L12 17.9143L8.70711 21.2071C8.51957 21.3946 8.26522 21.5 8 21.5C7.73478 21.5 7.48043 21.3946 7.29289 21.2071L2.79289 16.7071C2.60536 16.5196 2.5 16.2652 2.5 16C2.5 15.7348 2.60536 15.4804 2.79289 15.2929L6.08579 12L2.79289 8.70711C2.40237 8.31658 2.40237 7.68342 2.79289 7.29289L7.29289 2.79289C7.48044 2.60535 7.7348 2.49999 8.00003 2.5ZM15.9995 4.91417L11.9995 8.91426L7.99996 4.91426L4.91421 8L8.91421 12L4.91421 16L8 19.0858L12 15.0857L15.9996 19.0858L19.0857 16L15.0858 12L19.0857 8.00004L15.9995 4.91417Z" fill="#000640"/>
</svg>
