<svg width="24" height="24" viewBox="0 0 24 24" fill="none" xmlns="http://www.w3.org/2000/svg">
<path fill-rule="evenodd" clip-rule="evenodd" d="M10.8507 10.5257C10.6684 10.8205 10.3466 11 10 11H2C1.65342 11 1.33156 10.8205 1.14935 10.5257C0.967143 10.2309 0.95058 9.86277 1.10557 9.55279L5.10557 1.55279C5.27497 1.214 5.62123 1 6 1C6.37877 1 6.72504 1.214 6.89443 1.55279L10.8944 9.55279C11.0494 9.86277 11.0329 10.2309 10.8507 10.5257ZM6 4.23607L3.61804 9H8.38197L6 4.23607Z" fill="#000640"/>
<path fill-rule="evenodd" clip-rule="evenodd" d="M1 14C1 13.4477 1.44772 13 2 13H10C10.5523 13 11 13.4477 11 14V22C11 22.5523 10.5523 23 10 23H2C1.44772 23 1 22.5523 1 22V14ZM3 15V21H9V15H3Z" fill="#000640"/>
<path d="M13.7929 13.7929C14.1834 13.4024 14.8166 13.4024 15.2071 13.7929L18 16.5858L20.7929 13.7929C21.1834 13.4024 21.8166 13.4024 22.2071 13.7929C22.5976 14.1834 22.5976 14.8166 22.2071 15.2071L19.4142 18L22.2071 20.7929C22.5976 21.1834 22.5976 21.8166 22.2071 22.2071C21.8166 22.5976 21.1834 22.5976 20.7929 22.2071L18 19.4142L15.2071 22.2071C14.8166 22.5976 14.1834 22.5976 13.7929 22.2071C13.4024 21.8166 13.4024 21.1834 13.7929 20.7929L16.5858 18L13.7929 15.2071C13.4024 14.8166 13.4024 14.1834 13.7929 13.7929Z" fill="#000640"/>
<path fill-rule="evenodd" clip-rule="evenodd" d="M18 1C15.2386 1 13 3.23858 13 6C13 8.76142 15.2386 11 18 11C20.7614 11 23 8.76142 23 6C23 3.23858 20.7614 1 18 1ZM15 6C15 4.34315 16.3431 3 18 3C19.6569 3 21 4.34315 21 6C21 7.65685 19.6569 9 18 9C16.3431 9 15 7.65685 15 6Z" fill="#000640"/>
</svg>
