<svg width="24" height="24" viewBox="0 0 24 24" fill="none" xmlns="http://www.w3.org/2000/svg">
<g clip-path="url(#clip0_1253_4846)">
<path fill-rule="evenodd" clip-rule="evenodd" d="M6.19865 4.36102C6.9246 2.77882 8.80595 2.31081 10.226 3.13233L11.4995 3.86909C11.8093 4.04831 12.1912 4.04831 12.501 3.86909L13.7746 3.13233C15.1945 2.31087 17.0764 2.77881 17.8008 4.36295C18.6577 6.23704 19.9384 9.46728 20.911 13.78C21.1747 14.9494 21.4158 16.1986 21.6197 17.522C21.9518 17.3982 22.2783 17.2661 22.5989 17.1256C23.1047 16.9039 23.6945 17.1343 23.9162 17.6401C24.1379 18.1459 23.9075 18.7357 23.4017 18.9574C22.655 19.2846 21.8841 19.5686 21.095 19.812C15.358 21.5817 8.58221 21.2345 2.93644 19.6902C2.15946 19.4777 1.40192 19.242 0.669403 18.9852C0.148225 18.8024 -0.126138 18.2318 0.0565961 17.7106C0.23933 17.1895 0.809964 16.9151 1.33114 17.0978C1.67299 17.2177 2.02124 17.3328 2.37523 17.443C2.57606 16.1496 2.81343 14.9264 3.07318 13.7792C4.04734 9.47665 5.337 6.23897 6.19865 4.36102ZM4.316 17.9822C9.22754 19.1897 14.8538 19.423 19.6896 18.1351C19.5345 17.088 19.355 16.0884 19.1586 15.1391C13.9243 15.9538 10.0725 15.9536 4.82472 15.1386C4.63719 16.0424 4.46537 16.9912 4.316 17.9822ZM5.26993 13.1836C10.1959 13.9387 13.8026 13.9387 18.7152 13.1839C17.8167 9.54725 16.7229 6.81506 15.9819 5.19465C15.79 4.77483 15.2635 4.58154 14.7761 4.8635L13.5025 5.60026C12.5732 6.13792 11.4274 6.13792 10.498 5.60026L9.22447 4.8635C8.73716 4.58159 8.20941 4.77449 8.01644 5.19507C7.2712 6.81931 6.17044 9.55655 5.26993 13.1836Z" fill="#000640"/>
</g>
<defs>
<clipPath id="clip0_1253_4846">
<rect width="24" height="24" fill="white"/>
</clipPath>
</defs>
</svg>
