<svg width="24" height="24" viewBox="0 0 24 24" fill="none" xmlns="http://www.w3.org/2000/svg">
<path fill-rule="evenodd" clip-rule="evenodd" d="M12.0001 10C9.79092 10 8.00006 11.7909 8.00006 14C8.00006 16.2091 9.79092 18 12.0001 18C14.2092 18 16.0001 16.2091 16.0001 14C16.0001 11.7909 14.2092 10 12.0001 10ZM10.0001 14C10.0001 12.8954 10.8955 12 12.0001 12C13.1046 12 14.0001 12.8954 14.0001 14C14.0001 15.1046 13.1046 16 12.0001 16C10.8955 16 10.0001 15.1046 10.0001 14Z" fill="#000640"/>
<path fill-rule="evenodd" clip-rule="evenodd" d="M12.8138 2.41876C12.6261 2.15597 12.323 2 12 2C11.6771 2 11.374 2.15597 11.1863 2.41876L6.7229 8.66753L2.51453 6.14251C2.18013 5.94187 1.75959 5.95393 1.43724 6.1734C1.11488 6.39288 0.949527 6.77973 1.01364 7.1644L2.83341 18.083C3.00088 19.0879 3.67233 19.9628 4.64914 20.3471C7.28277 21.3833 9.58805 21.9336 11.9459 21.9367C14.3032 21.9398 16.6409 21.3961 19.34 20.3465C20.3222 19.9646 20.9993 19.0871 21.1676 18.0775L22.9864 7.1644C23.0505 6.77973 22.8852 6.39288 22.5628 6.1734C22.2405 5.95393 21.8199 5.94187 21.4855 6.14251L17.2772 8.66753L12.8138 2.41876ZM7.81377 10.5812L12 4.72046L16.1863 10.5812C16.4893 11.0055 17.0675 11.1257 17.5145 10.8575L20.6576 8.97163L19.1948 17.7487C19.1375 18.0924 18.9117 18.3672 18.6152 18.4825C16.0629 19.4749 13.9796 19.9394 11.9485 19.9367C9.91808 19.934 7.86787 19.4643 5.3814 18.486C5.0872 18.3702 4.86327 18.0967 4.8062 17.7542L3.34243 8.97163L6.48554 10.8575C6.9326 11.1257 7.51073 11.0055 7.81377 10.5812Z" fill="#000640"/>
</svg>
