<svg width="24" height="24" viewBox="0 0 24 24" fill="none" xmlns="http://www.w3.org/2000/svg">
<path fill-rule="evenodd" clip-rule="evenodd" d="M13.9932 3.16275C13.9976 3.10907 13.9998 3.05479 13.9998 3C13.9998 1.89543 13.1043 1 11.9998 1C10.8952 1 9.99976 1.89543 9.99976 3C9.99976 3.0548 10.002 3.10908 10.0063 3.16277C7.51769 3.58544 5.67767 4.78807 4.345 6.25858C2.70659 8.06645 1.86346 10.2432 1.43728 11.7755C1.02997 13.24 1.94013 14.4904 3.18824 14.8769L4.65092 20.7276C4.9848 22.0631 6.18475 23 7.56135 23H16.4382C17.8148 23 19.0148 22.0631 19.3487 20.7276L20.8114 14.8769C22.0595 14.4904 22.9696 13.24 22.5623 11.7755C22.1361 10.2432 21.293 8.06645 19.6546 6.25858C18.3219 4.78805 16.4819 3.58542 13.9932 3.16275ZM3.36414 12.3114C3.74761 10.9327 4.48017 9.08773 5.82697 7.60163C7.14583 6.14635 9.08096 5 11.9998 5C14.9186 5 16.8538 6.14635 18.1726 7.60163C19.5194 9.08773 20.252 10.9327 20.6355 12.3114C20.6863 12.4942 20.6429 12.6459 20.542 12.7664C20.4338 12.8955 20.245 13 19.9998 13H3.9998C3.75457 13 3.56578 12.8955 3.4576 12.7664C3.35666 12.6459 3.3133 12.4942 3.36414 12.3114ZM6.59121 20.2425L5.28057 15H18.719L17.4084 20.2425C17.2971 20.6877 16.8971 21 16.4382 21H15.2464L15.976 17.7169C16.0958 17.1778 15.7559 16.6436 15.2167 16.5238C14.6776 16.404 14.1434 16.7439 14.0236 17.2831L13.1976 21H10.802L9.97598 17.2831C9.85618 16.7439 9.322 16.404 8.78287 16.5238C8.24373 16.6436 7.9038 17.1778 8.02361 17.7169L8.75318 21H7.56135C7.10248 21 6.7025 20.6877 6.59121 20.2425Z" fill="#000640"/>
</svg>
