<svg width="24" height="24" viewBox="0 0 24 24" fill="none" xmlns="http://www.w3.org/2000/svg">
<path fill-rule="evenodd" clip-rule="evenodd" d="M12.1254 15C16.4556 15 20.0985 11.9256 21.0241 7.78197C21.1445 7.24296 21.679 6.90362 22.218 7.02402C22.757 7.14442 23.0963 7.67898 22.9759 8.21798C21.8552 13.2354 17.4328 17 12.1254 17C8.34247 17 5.00788 15.0858 3 12.1716L3 15.3102C3 15.8625 2.55228 16.3102 2 16.3102C1.44772 16.3102 1 15.8625 1 15.3102L1 8.45302C1 8.14155 1.14513 7.84787 1.39255 7.65867C1.63997 7.46946 1.96142 7.40635 2.26201 7.48796L9.01236 9.32062C9.54535 9.46532 9.86012 10.0147 9.71542 10.5477C9.57071 11.0807 9.02134 11.3955 8.48834 11.2508L4.05144 10.0462C5.5852 12.9996 8.63059 15 12.1254 15Z" fill="#000640"/>
</svg>
