<svg width="24" height="24" viewBox="0 0 24 24" fill="none" xmlns="http://www.w3.org/2000/svg">
<path fill-rule="evenodd" clip-rule="evenodd" d="M3 11.8284C5.00788 8.91415 8.34246 7 12.1254 7C17.4328 7 21.8552 10.7645 22.9759 15.782C23.0963 16.321 22.757 16.8555 22.218 16.9759C21.679 17.0963 21.1445 16.757 21.0241 16.218C20.0985 12.0744 16.4556 9 12.1254 9C8.63059 9 5.5852 11.0004 4.05144 13.9538L8.48834 12.7492C9.02133 12.6045 9.57071 12.9193 9.71542 13.4523C9.86012 13.9853 9.54535 14.5346 9.01236 14.6794L2.26201 16.512C1.96142 16.5936 1.63997 16.5305 1.39255 16.3413C1.14513 16.1521 1 15.8584 1 15.5469V8.6898C1 8.13752 1.44772 7.6898 2 7.6898C2.55228 7.6898 3 8.13752 3 8.6898V11.8284Z" fill="#000640"/>
</svg>
