<svg width="24" height="24" viewBox="0 0 24 24" fill="none" xmlns="http://www.w3.org/2000/svg">
<path d="M19 17C19 17.5523 18.5523 18 18 18C17.4477 18 17 17.5523 17 17C17 16.4477 17.4477 16 18 16C18.5523 16 19 16.4477 19 17Z" fill="#000640"/>
<path d="M14 18C14.5523 18 15 17.5523 15 17C15 16.4477 14.5523 16 14 16C13.4477 16 13 16.4477 13 17C13 17.5523 13.4477 18 14 18Z" fill="#000640"/>
<path fill-rule="evenodd" clip-rule="evenodd" d="M4.56864 3.88583C5.02423 2.74685 6.12735 2 7.35407 2H16.6459C17.8726 2 18.9758 2.74685 19.4314 3.88583L23 12.8074V19C23 20.6569 21.6569 22 20 22H4C2.34315 22 1 20.6569 1 19V12.8074L4.56864 3.88583ZM7.35407 4C6.94516 4 6.57745 4.24895 6.42559 4.62861L3.47703 12H20.523L17.5744 4.62861C17.4225 4.24895 17.0548 4 16.6459 4H7.35407ZM21 14H3V19C3 19.5523 3.44772 20 4 20H20C20.5523 20 21 19.5523 21 19V14Z" fill="#000640"/>
</svg>
