<svg width="24" height="24" viewBox="0 0 24 24" fill="none" xmlns="http://www.w3.org/2000/svg">
<g clip-path="url(#clip0_1253_5119)">
<path d="M6.70711 7.29289C6.31658 6.90237 5.68342 6.90237 5.29289 7.29289C4.90237 7.68342 4.90237 8.31658 5.29289 8.70711L6.08579 9.5L5.29289 10.2929C4.90237 10.6834 4.90237 11.3166 5.29289 11.7071C5.68342 12.0976 6.31658 12.0976 6.70711 11.7071L7.5 10.9142L8.29289 11.7071C8.68342 12.0976 9.31658 12.0976 9.70711 11.7071C10.0976 11.3166 10.0976 10.6834 9.70711 10.2929L8.91421 9.5L9.70711 8.70711C10.0976 8.31658 10.0976 7.68342 9.70711 7.29289C9.31658 6.90237 8.68342 6.90237 8.29289 7.29289L7.5 8.08579L6.70711 7.29289Z" fill="#000640"/>
<path d="M14.2929 7.29289C14.6834 6.90237 15.3166 6.90237 15.7071 7.29289L16.5 8.08579L17.2929 7.29289C17.6834 6.90237 18.3166 6.90237 18.7071 7.29289C19.0976 7.68342 19.0976 8.31658 18.7071 8.70711L17.9142 9.5L18.7071 10.2929C19.0976 10.6834 19.0976 11.3166 18.7071 11.7071C18.3166 12.0976 17.6834 12.0976 17.2929 11.7071L16.5 10.9142L15.7071 11.7071C15.3166 12.0976 14.6834 12.0976 14.2929 11.7071C13.9024 11.3166 13.9024 10.6834 14.2929 10.2929L15.0858 9.5L14.2929 8.70711C13.9024 8.31658 13.9024 7.68342 14.2929 7.29289Z" fill="#000640"/>
<path fill-rule="evenodd" clip-rule="evenodd" d="M15 17C15 18.6569 13.6569 20 12 20C10.3431 20 9 18.6569 9 17C9 15.3431 10 13 12 13C14 13 15 15.3431 15 17ZM13 17C13 17.5523 12.5523 18 12 18C11.4477 18 11 17.5523 11 17C11 16.5155 11.1603 15.8917 11.4417 15.4455C11.7067 15.0254 11.9012 15 12 15C12.0988 15 12.2933 15.0254 12.5583 15.4455C12.8397 15.8917 13 16.5155 13 17Z" fill="#000640"/>
<path fill-rule="evenodd" clip-rule="evenodd" d="M12 0C5.37258 0 0 5.37258 0 12C0 18.6274 5.37258 24 12 24C18.6274 24 24 18.6274 24 12C24 5.37258 18.6274 0 12 0ZM2 12C2 6.47715 6.47715 2 12 2C17.5228 2 22 6.47715 22 12C22 17.5228 17.5228 22 12 22C6.47715 22 2 17.5228 2 12Z" fill="#000640"/>
</g>
<defs>
<clipPath id="clip0_1253_5119">
<rect width="24" height="24" fill="white"/>
</clipPath>
</defs>
</svg>
