<svg width="24" height="24" viewBox="0 0 24 24" fill="none" xmlns="http://www.w3.org/2000/svg">
<path d="M2.29289 2.29289C2.68342 1.90237 3.31658 1.90237 3.70711 2.29289L21.7071 20.2929C22.0976 20.6834 22.0976 21.3166 21.7071 21.7071C21.3166 22.0976 20.6834 22.0976 20.2929 21.7071L2.29289 3.70711C1.90237 3.31658 1.90237 2.68342 2.29289 2.29289Z" fill="#000640"/>
<path fill-rule="evenodd" clip-rule="evenodd" d="M8.07612 3.61732C8.2309 3.24364 8.59554 3 9 3H20C20.2652 3 20.5196 3.10536 20.7071 3.29289C20.8946 3.48043 21 3.73478 21 4V15C21 15.4045 20.7564 15.7691 20.3827 15.9239C20.009 16.0787 19.5789 15.9931 19.2929 15.7071L8.29289 4.70711C8.00689 4.42111 7.92134 3.99099 8.07612 3.61732ZM11.4142 5L19 12.5858V5H11.4142Z" fill="#000640"/>
<path fill-rule="evenodd" clip-rule="evenodd" d="M4.70711 8.29292C4.42111 8.00692 3.99099 7.92137 3.61732 8.07615C3.24364 8.23093 3 8.59557 3 9.00003V20C3 20.5523 3.44772 21 4 21H15C15.4045 21 15.7691 20.7564 15.9239 20.3827C16.0787 20.009 15.9931 19.5789 15.7071 19.2929L4.70711 8.29292ZM5 19V11.4142L12.5858 19H5Z" fill="#000640"/>
</svg>
