<svg width="24" height="24" viewBox="0 0 24 24" fill="none" xmlns="http://www.w3.org/2000/svg">
<path fill-rule="evenodd" clip-rule="evenodd" d="M5.16795 1.4453C5.35342 1.1671 5.66565 1 6 1H18C18.3344 1 18.6466 1.1671 18.8321 1.4453L22.8321 7.4453C23.0625 7.79099 23.0552 8.24316 22.8137 8.58124L12.8137 22.5812C12.626 22.844 12.323 23 12 23C11.677 23 11.374 22.844 11.1863 22.5812L1.18627 8.58124C0.944783 8.24316 0.937492 7.79099 1.16795 7.4453L5.16795 1.4453ZM6.53518 3L3.86852 7H7.27924L8.61257 3H6.53518ZM10.7208 3L9.38743 7H14.6126L13.2792 3H10.7208ZM15.3874 3L16.7208 7H20.1315L17.4648 3H15.3874ZM20.0568 9H16.7543L14.5526 16.7059L20.0568 9ZM12 18.3599L14.6743 9H9.32573L12 18.3599ZM7.2457 9L9.44737 16.7059L3.94319 9H7.2457Z" fill="#000640"/>
</svg>
