<svg width="24" height="24" viewBox="0 0 24 24" fill="none" xmlns="http://www.w3.org/2000/svg">
<path fill-rule="evenodd" clip-rule="evenodd" d="M8 4C8 2.34315 9.34315 1 11 1H20C21.6569 1 23 2.34315 23 4V20C23 21.6569 21.6569 23 20 23H11C9.34315 23 8 21.6569 8 20V16H2C1.44772 16 1 15.5523 1 15V6C1 5.44772 1.44772 5 2 5H8V4ZM3 10V14H14V10L3 10ZM14 8L3 8V7H14V8ZM16 15C16 15.5523 15.5523 16 15 16H10V20C10 20.5523 10.4477 21 11 21H20C20.5523 21 21 20.5523 21 20V4C21 3.44772 20.5523 3 20 3H11C10.4477 3 10 3.44772 10 4V5H15C15.5523 5 16 5.44772 16 6V15Z" fill="#000640"/>
</svg>
