<svg width="24" height="24" viewBox="0 0 24 24" fill="none" xmlns="http://www.w3.org/2000/svg">
<path fill-rule="evenodd" clip-rule="evenodd" d="M11 1C9.34315 1 8 2.34315 8 4V4.0164C4.09098 4.2737 1 7.52588 1 11.5C1 15.4741 4.09098 18.7263 8 18.9836V20C8 21.6569 9.34315 23 11 23H20C21.6569 23 23 21.6569 23 20V4C23 2.34315 21.6569 1 20 1H11ZM10 18.85V20C10 20.5523 10.4477 21 11 21H20C20.5523 21 21 20.5523 21 20V4C21 3.44772 20.5523 3 20 3H11C10.4477 3 10 3.44772 10 4V4.15003C13.4234 4.84493 16 7.87156 16 11.5C16 15.1284 13.4234 18.1551 10 18.85ZM8.5 17C5.46243 17 3 14.5376 3 11.5C3 8.46243 5.46243 6 8.5 6C11.5376 6 14 8.46243 14 11.5C14 14.5376 11.5376 17 8.5 17Z" fill="#000640"/>
</svg>
