<svg width="24" height="24" viewBox="0 0 24 24" fill="none" xmlns="http://www.w3.org/2000/svg">
<path fill-rule="evenodd" clip-rule="evenodd" d="M6 1C3.79086 1 2 2.79086 2 5C2 7.20914 3.79086 9 6 9C8.20914 9 10 7.20914 10 5C10 2.79086 8.20914 1 6 1ZM4 5C4 3.89543 4.89543 3 6 3C7.10457 3 8 3.89543 8 5C8 6.10457 7.10457 7 6 7C4.89543 7 4 6.10457 4 5Z" fill="#000640"/>
<path d="M5.5 20C3.01472 20 1 17.9853 1 15.5C1 13.0147 3.01472 11 5.5 11H18.5C19.8807 11 21 9.88071 21 8.5C21 7.11929 19.8807 6 18.5 6H14C13.4477 6 13 5.55229 13 5C13 4.44771 13.4477 4 14 4H18.5C20.9853 4 23 6.01472 23 8.5C23 10.9853 20.9853 13 18.5 13H5.5C4.11929 13 3 14.1193 3 15.5C3 16.8807 4.11929 18 5.5 18H10C10.5523 18 11 18.4477 11 19C11 19.5523 10.5523 20 10 20H5.5Z" fill="#000640"/>
<path d="M15.7071 15.7929C15.3166 15.4024 14.6834 15.4024 14.2929 15.7929C13.9024 16.1834 13.9024 16.8166 14.2929 17.2071L16.0858 19L14.2929 20.7929C13.9024 21.1834 13.9024 21.8166 14.2929 22.2071C14.6834 22.5976 15.3166 22.5976 15.7071 22.2071L17.5 20.4142L19.2929 22.2071C19.6834 22.5976 20.3166 22.5976 20.7071 22.2071C21.0976 21.8166 21.0976 21.1834 20.7071 20.7929L18.9142 19L20.7071 17.2071C21.0976 16.8166 21.0976 16.1834 20.7071 15.7929C20.3166 15.4024 19.6834 15.4024 19.2929 15.7929L17.5 17.5858L15.7071 15.7929Z" fill="#000640"/>
</svg>
