<svg width="24" height="24" viewBox="0 0 24 24" fill="none" xmlns="http://www.w3.org/2000/svg">
<path d="M17.2929 8.70711C16.9024 8.31658 16.9024 7.68342 17.2929 7.29289L18.5858 6H5.5C4.11929 6 3 7.11929 3 8.5C3 9.88071 4.11929 11 5.5 11H18.5C20.9853 11 23 13.0147 23 15.5C23 17.9853 20.9853 20 18.5 20H5.41421L6.70711 21.2929C7.09763 21.6834 7.09763 22.3166 6.70711 22.7071C6.31658 23.0976 5.68342 23.0976 5.29289 22.7071L2.29289 19.7071C1.90237 19.3166 1.90237 18.6834 2.29289 18.2929L5.29289 15.2929C5.68342 14.9024 6.31658 14.9024 6.70711 15.2929C7.09763 15.6834 7.09763 16.3166 6.70711 16.7071L5.41421 18H18.5C19.8807 18 21 16.8807 21 15.5C21 14.1193 19.8807 13 18.5 13H5.5C3.01472 13 1 10.9853 1 8.5C1 6.01472 3.01472 4 5.5 4H18.5858L17.2929 2.70711C16.9024 2.31658 16.9024 1.68342 17.2929 1.29289C17.6834 0.902369 18.3166 0.902369 18.7071 1.29289L21.7071 4.29289C22.0976 4.68342 22.0976 5.31658 21.7071 5.70711L18.7071 8.70711C18.3166 9.09763 17.6834 9.09763 17.2929 8.70711Z" fill="#000640"/>
</svg>
