<svg width="24" height="24" viewBox="0 0 24 24" fill="none" xmlns="http://www.w3.org/2000/svg">
<path d="M1 3C1 2.44772 1.44772 2 2 2H22C22.5523 2 23 2.44772 23 3C23 3.55228 22.5523 4 22 4H2C1.44772 4 1 3.55228 1 3Z" fill="#000640"/>
<path d="M23 21C23 21.5523 22.5523 22 22 22H2C1.44772 22 1 21.5523 1 21C1 20.4477 1.44772 20 2 20H22C22.5523 20 23 20.4477 23 21Z" fill="#000640"/>
<path fill-rule="evenodd" clip-rule="evenodd" d="M9 6C8.44772 6 8 6.44772 8 7V17C8 17.5523 8.44772 18 9 18H15C15.5523 18 16 17.5523 16 17V7C16 6.44772 15.5523 6 15 6H9ZM10 16V8H14V16H10Z" fill="#000640"/>
</svg>
