<svg width="24" height="24" viewBox="0 0 24 24" fill="none" xmlns="http://www.w3.org/2000/svg">
<path d="M12 11C12.5523 11 13 10.5523 13 10C13 9.44772 12.5523 9 12 9C11.4477 9 11 9.44772 11 10C11 10.5523 11.4477 11 12 11Z" fill="#000640"/>
<path fill-rule="evenodd" clip-rule="evenodd" d="M3 1C2.44772 1 2 1.44772 2 2V20C2 21.6569 3.34315 23 5 23H19C20.6569 23 22 21.6569 22 20V6.75184C23.0132 6.20629 23.4695 4.86437 22.788 3.774L21.9355 2.41C21.3873 1.53286 20.4259 1 19.3915 1H3ZM7 7H20V20C20 20.5523 19.5523 21 19 21H5C4.44772 21 4 20.5523 4 20V5L4.6 5.8C5.16656 6.55542 6.05573 7 7 7ZM19.3915 3H5L6.2 4.6C6.38885 4.85181 6.68524 5 7 5H21C21.0298 5 21.0455 4.99299 21.0558 4.98668C21.0689 4.97863 21.0835 4.96457 21.0949 4.9441C21.1062 4.92363 21.1104 4.90374 21.1103 4.88835C21.1102 4.87629 21.1078 4.85923 21.092 4.834L20.2395 3.47C20.0568 3.17762 19.7363 3 19.3915 3Z" fill="#000640"/>
</svg>
