<svg width="24" height="24" viewBox="0 0 24 24" fill="none" xmlns="http://www.w3.org/2000/svg">
<path fill-rule="evenodd" clip-rule="evenodd" d="M6.13238 1C5.07859 1 4.10207 1.5529 3.5599 2.45651L1.14251 6.4855C1.04926 6.64092 1 6.81876 1 7V11C1 12.0804 1.57107 13.0273 2.42781 13.5555L1.16795 15.4453C1.05844 15.6096 1 15.8026 1 16V20C1 21.6569 2.34315 23 4 23H20C21.6569 23 23 21.6569 23 20V16C23 15.8026 22.9416 15.6096 22.8321 15.4453L21.5722 13.5555C22.4289 13.0273 23 12.0804 23 11V7C23 6.81876 22.9507 6.64092 22.8575 6.4855L20.4401 2.45651C19.8979 1.5529 18.9214 1 17.8676 1H6.13238ZM5.27489 3.4855C5.45561 3.1843 5.78112 3 6.13238 3H17.8676C18.2189 3 18.5444 3.1843 18.7251 3.4855L20.2338 6H15.874C15.4177 6 15.0193 6.30886 14.9055 6.75074C14.5724 8.04488 13.3965 9 12 9C10.6035 9 9.42753 8.04488 9.09444 6.75074C8.98071 6.30886 8.58229 6 8.12601 6H3.76619L5.27489 3.4855ZM16.5836 8H21V11C21 11.5523 20.5523 12 20 12H4C3.44772 12 3 11.5523 3 11V8H7.41636C8.18782 9.76552 9.94876 11 12 11C14.0512 11 15.8122 9.76552 16.5836 8ZM19.4648 14H4.53519L3.86852 15H8.12601C8.58229 15 8.98071 15.3089 9.09444 15.7508C9.42753 17.0449 10.6035 18 12 18C13.3965 18 14.5724 17.0449 14.9055 15.7508C15.0193 15.3089 15.4177 15 15.874 15H20.1315L19.4648 14ZM3 20V17H7.41636C8.18782 18.7655 9.94876 20 12 20C14.0512 20 15.8122 18.7655 16.5836 17H21V20C21 20.5523 20.5523 21 20 21H4C3.44772 21 3 20.5523 3 20Z" fill="#000640"/>
</svg>
