<svg width="24" height="24" viewBox="0 0 24 24" fill="none" xmlns="http://www.w3.org/2000/svg">
<path d="M12 5C12.5523 5 13 5.44772 13 6V7.99993L15 7.99998C15.5523 7.99999 16 8.44772 16 9C16 9.55229 15.5522 9.99999 15 9.99998L13 9.99993V12C13 12.5523 12.5523 13 12 13C11.4477 13 11 12.5523 11 12V9.99988L8.99995 9.99983C8.44767 9.99982 7.99996 9.55209 7.99998 8.9998C7.99999 8.44752 8.44772 7.99982 9 7.99983L11 7.99988V6C11 5.44772 11.4477 5 12 5Z" fill="#000640"/>
<path fill-rule="evenodd" clip-rule="evenodd" d="M2.58685 3.58446C2.7941 2.10259 4.06163 1 5.55793 1H18.4421C19.9384 1 21.2059 2.10259 21.4132 3.58446L23 14.9304V20C23 21.6569 21.6569 23 20 23H4C2.34315 23 1 21.6569 1 20V14.9304L2.58685 3.58446ZM5.55793 3C5.05916 3 4.63665 3.36753 4.56757 3.86149L3.14959 14H8C8.48601 14 8.9012 14.3493 8.98496 14.8272L8.98599 14.8323C8.98784 14.8414 8.99182 14.8598 8.99846 14.8864C9.0118 14.9397 9.03546 15.0241 9.07337 15.1291C9.15005 15.3415 9.27953 15.6227 9.4875 15.9C9.87683 16.4191 10.59 17 12 17C13.41 17 14.1232 16.4191 14.5125 15.9C14.7205 15.6227 14.8499 15.3415 14.9266 15.1291C14.9645 15.0241 14.9882 14.9397 15.0015 14.8864C15.0082 14.8598 15.0122 14.8414 15.014 14.8323L15.015 14.8273C15.0988 14.3493 15.514 14 16 14H20.8504L19.4324 3.86149C19.3633 3.36753 18.9408 3 18.4421 3H5.55793ZM21 16H16.734C16.603 16.3207 16.4057 16.709 16.1125 17.1C15.3768 18.0809 14.09 19 12 19C9.90999 19 8.62317 18.0809 7.8875 17.1C7.59425 16.709 7.39696 16.3207 7.26597 16H3V20C3 20.5523 3.44772 21 4 21H20C20.5523 21 21 20.5523 21 20V16Z" fill="#000640"/>
</svg>
