<svg width="24" height="24" viewBox="0 0 24 24" fill="none" xmlns="http://www.w3.org/2000/svg">
<path fill-rule="evenodd" clip-rule="evenodd" d="M6 1C4.34315 1 3 2.34315 3 4V7C3 8.65685 4.34315 10 6 10H18C19.6569 10 21 8.65685 21 7V4C21 2.34315 19.6569 1 18 1H6ZM5 4C5 3.44772 5.44772 3 6 3H18C18.5523 3 19 3.44772 19 4V7C19 7.55228 18.5523 8 18 8H6C5.44772 8 5 7.55228 5 7V4Z" fill="#000640"/>
<path d="M4 16C3.44772 16 3 16.4477 3 17C3 17.5523 3.44772 18 4 18H20C20.5523 18 21 17.5523 21 17C21 16.4477 20.5523 16 20 16H4Z" fill="#000640"/>
<path d="M3 13C3 12.4477 3.44772 12 4 12H20C20.5523 12 21 12.4477 21 13C21 13.5523 20.5523 14 20 14H4C3.44772 14 3 13.5523 3 13Z" fill="#000640"/>
<path d="M4 20C3.44772 20 3 20.4477 3 21C3 21.5523 3.44772 22 4 22H12C12.5523 22 13 21.5523 13 21C13 20.4477 12.5523 20 12 20H4Z" fill="#000640"/>
</svg>
