<svg width="24" height="24" viewBox="0 0 24 24" fill="none" xmlns="http://www.w3.org/2000/svg">
<path d="M19.5 12.0002C19.5 12.5524 19.0523 13.0002 18.5 13.0002H17V14.5C17 15.0523 16.5523 15.5 16 15.5C15.4477 15.5 15 15.0523 15 14.5V13.0002H13.5C12.9477 13.0002 12.5 12.5524 12.5 12.0002C12.5 11.4479 12.9477 11.0002 13.5 11.0002H15V9.5C15 8.94772 15.4477 8.5 16 8.5C16.5523 8.5 17 8.94772 17 9.5V11.0002H18.5C19.0523 11.0002 19.5 11.4479 19.5 12.0002Z" fill="#000640"/>
<path fill-rule="evenodd" clip-rule="evenodd" d="M4 1C2.34315 1 1 2.34315 1 4V20C1 21.6569 2.34315 23 4 23H18C19.6569 23 21 21.6569 21 20V16.899C22.2372 15.6364 23 13.9073 23 12C23 10.0927 22.2372 8.36355 21 7.10102V4C21 2.34315 19.6569 1 18 1H4ZM19 5.67363V4C19 3.44772 18.5523 3 18 3H4C3.44772 3 3 3.44772 3 4V20C3 20.5523 3.44772 21 4 21H18C18.5523 21 19 20.5523 19 20V18.3264C18.0907 18.7583 17.0736 19 16 19C12.134 19 9 15.866 9 12C9 8.13401 12.134 5 16 5C17.0736 5 18.0907 5.24169 19 5.67363ZM11 12C11 9.23858 13.2386 7 16 7C18.7614 7 21 9.23858 21 12C21 14.7614 18.7614 17 16 17C13.2386 17 11 14.7614 11 12Z" fill="#000640"/>
</svg>
