<svg width="24" height="24" viewBox="0 0 24 24" fill="none" xmlns="http://www.w3.org/2000/svg">
<path d="M5 6C5 5.44772 5.44772 5 6 5L14 5C14.5523 5 15 5.44772 15 6C15 6.55229 14.5523 7 14 7L6 7C5.44772 7 5 6.55228 5 6Z" fill="#000640"/>
<path d="M6 9C5.44772 9 5 9.44771 5 10C5 10.5523 5.44772 11 6 11L14 11C14.5523 11 15 10.5523 15 10C15 9.44772 14.5523 9 14 9L6 9Z" fill="#000640"/>
<path fill-rule="evenodd" clip-rule="evenodd" d="M4 23C2.34315 23 1 21.6569 1 20V4C1 2.34315 2.34315 1 4 1H16C17.6569 1 19 2.34315 19 4V16H22C22.5523 16 23 16.4477 23 17V20C23 21.6569 21.6569 23 20 23H4ZM3 4C3 3.44772 3.44772 3 4 3H16C16.5523 3 17 3.44772 17 4V16H6C5.44772 16 5 16.4477 5 17V20C5 20.5523 4.55228 21 4 21C3.44772 21 3 20.5523 3 20V4ZM6.82929 21C6.93985 20.6872 7 20.3506 7 20V18H21V20C21 20.5523 20.5523 21 20 21H6.82929Z" fill="#000640"/>
</svg>
