<svg width="24" height="24" viewBox="0 0 24 24" fill="none" xmlns="http://www.w3.org/2000/svg">
<path d="M18.5 13C19.0523 13 19.5 12.5523 19.5 12C19.5 11.4477 19.0523 11 18.5 11H13.5C12.9477 11 12.5 11.4477 12.5 12C12.5 12.5523 12.9477 13 13.5 13L18.5 13Z" fill="#000640"/>
<path fill-rule="evenodd" clip-rule="evenodd" d="M1 4C1 2.34315 2.34315 1 4 1H18C19.6569 1 21 2.34315 21 4V7.10102C22.2372 8.36355 23 10.0927 23 12C23 13.9073 22.2372 15.6364 21 16.899V20C21 21.6569 19.6569 23 18 23H4C2.34315 23 1 21.6569 1 20V4ZM19 4V5.67363C18.0907 5.24169 17.0736 5 16 5C12.134 5 9 8.13401 9 12C9 15.866 12.134 19 16 19C17.0736 19 18.0907 18.7583 19 18.3264V20C19 20.5523 18.5523 21 18 21H4C3.44772 21 3 20.5523 3 20V4C3 3.44772 3.44772 3 4 3H18C18.5523 3 19 3.44772 19 4ZM16 7C13.2386 7 11 9.23858 11 12C11 14.7614 13.2386 17 16 17C18.7614 17 21 14.7614 21 12C21 9.23858 18.7614 7 16 7Z" fill="#000640"/>
</svg>
