<svg width="24" height="24" viewBox="0 0 24 24" fill="none" xmlns="http://www.w3.org/2000/svg">
<path d="M19.2071 11.2071C19.5976 10.8166 19.5976 10.1834 19.2071 9.79289C18.8166 9.40237 18.1834 9.40237 17.7929 9.79289L15 12.5858L13.7071 11.2929C13.3166 10.9024 12.6834 10.9024 12.2929 11.2929C11.9024 11.6834 11.9024 12.3166 12.2929 12.7071L14.2929 14.7071C14.6834 15.0976 15.3166 15.0976 15.7071 14.7071L19.2071 11.2071Z" fill="#000640"/>
<path fill-rule="evenodd" clip-rule="evenodd" d="M1 4C1 2.34315 2.34315 1 4 1H18C19.6569 1 21 2.34315 21 4V7.10102C22.2372 8.36355 23 10.0927 23 12C23 13.9073 22.2372 15.6364 21 16.899V20C21 21.6569 19.6569 23 18 23H4C2.34315 23 1 21.6569 1 20V4ZM19 4V5.67363C18.0907 5.24169 17.0736 5 16 5C12.134 5 9 8.13401 9 12C9 15.866 12.134 19 16 19C17.0736 19 18.0907 18.7583 19 18.3264V20C19 20.5523 18.5523 21 18 21H4C3.44772 21 3 20.5523 3 20V4C3 3.44772 3.44772 3 4 3H18C18.5523 3 19 3.44772 19 4ZM16 7C13.2386 7 11 9.23858 11 12C11 14.7614 13.2386 17 16 17C18.7614 17 21 14.7614 21 12C21 9.23858 18.7614 7 16 7Z" fill="#000640"/>
</svg>
