<svg width="24" height="24" viewBox="0 0 24 24" fill="none" xmlns="http://www.w3.org/2000/svg">
<path d="M7 16C7 15.4477 7.44772 15 8 15H12C12.5523 15 13 15.4477 13 16C13 16.5523 12.5523 17 12 17H8C7.44772 17 7 16.5523 7 16Z" fill="#000640"/>
<path fill-rule="evenodd" clip-rule="evenodd" d="M8 7C7.44772 7 7 7.44772 7 8V12C7 12.5523 7.44772 13 8 13H16C16.5523 13 17 12.5523 17 12V8C17 7.44772 16.5523 7 16 7H8ZM9 11V9H15V11H9Z" fill="#000640"/>
<path fill-rule="evenodd" clip-rule="evenodd" d="M9 3H6C4.34315 3 3 4.34315 3 6V20C3 21.6569 4.34315 23 6 23H18C19.6569 23 21 21.6569 21 20V6C21 4.34315 19.6569 3 18 3H15C15 1.34315 13.6569 0 12 0C10.3431 0 9 1.34315 9 3ZM11 3C11 2.44772 11.4477 2 12 2C12.5523 2 13 2.44772 13 3H11ZM5 6C5 5.44772 5.44772 5 6 5H18C18.5523 5 19 5.44772 19 6V20C19 20.5523 18.5523 21 18 21H6C5.44772 21 5 20.5523 5 20V6Z" fill="#000640"/>
</svg>
