<svg width="24" height="24" viewBox="0 0 24 24" fill="none" xmlns="http://www.w3.org/2000/svg">
<path d="M13.2929 9.29289C13.6834 8.90237 14.3166 8.90237 14.7071 9.29289L16 10.5858L17.2929 9.29289C17.6834 8.90237 18.3166 8.90237 18.7071 9.29289C19.0976 9.68342 19.0976 10.3166 18.7071 10.7071L17.4142 12L18.7071 13.2929C19.0976 13.6834 19.0976 14.3166 18.7071 14.7071C18.3166 15.0976 17.6834 15.0976 17.2929 14.7071L16 13.4142L14.7071 14.7071C14.3166 15.0976 13.6834 15.0976 13.2929 14.7071C12.9024 14.3166 12.9024 13.6834 13.2929 13.2929L14.5858 12L13.2929 10.7071C12.9024 10.3166 12.9024 9.68342 13.2929 9.29289Z" fill="#000640"/>
<path fill-rule="evenodd" clip-rule="evenodd" d="M4 1C2.34315 1 1 2.34315 1 4V20C1 21.6569 2.34315 23 4 23H18C19.6569 23 21 21.6569 21 20V16.899C22.2372 15.6364 23 13.9073 23 12C23 10.0927 22.2372 8.36355 21 7.10102V4C21 2.34315 19.6569 1 18 1H4ZM19 5.67363V4C19 3.44772 18.5523 3 18 3H4C3.44772 3 3 3.44772 3 4V20C3 20.5523 3.44772 21 4 21H18C18.5523 21 19 20.5523 19 20V18.3264C18.0907 18.7583 17.0736 19 16 19C12.134 19 9 15.866 9 12C9 8.13401 12.134 5 16 5C17.0736 5 18.0907 5.24169 19 5.67363ZM11 12C11 9.23858 13.2386 7 16 7C18.7614 7 21 9.23858 21 12C21 14.7614 18.7614 17 16 17C13.2386 17 11 14.7614 11 12Z" fill="#000640"/>
</svg>
