<svg width="24" height="24" viewBox="0 0 24 24" fill="none" xmlns="http://www.w3.org/2000/svg">
<path d="M3.69084 12.5733L13.8832 2.38089C15.6406 0.623527 18.4898 0.623525 20.2472 2.38088C21.9919 4.12564 22.0045 6.94668 20.2847 8.70687L10.055 18.9372C8.88339 20.1088 6.9839 20.1088 5.81232 18.9372C4.64075 17.7657 4.64075 15.8662 5.81232 14.6946L11.4692 9.03775C11.8597 8.64723 12.4929 8.64723 12.8834 9.03775C13.2739 9.42828 13.2739 10.0614 12.8834 10.452L7.22654 16.1088C6.83601 16.4993 6.83601 17.1325 7.22654 17.523C7.61706 17.9136 8.25023 17.9136 8.64075 17.523L18.8331 7.33073C19.8094 6.35441 19.8093 4.77141 18.833 3.7951C17.8567 2.81879 16.2738 2.81879 15.2974 3.7951L5.10511 13.9874C3.54302 15.5495 3.54312 18.0823 5.10522 19.6444C6.66732 21.2065 9.19998 21.2065 10.7621 19.6444L16.4189 13.9875C16.8095 13.597 17.4426 13.597 17.8331 13.9875C18.2237 14.3781 18.2237 15.0112 17.8331 15.4018L12.1763 21.0586C9.83314 23.4018 6.03415 23.4018 3.69101 21.0586C1.34788 18.7155 1.34775 14.9164 3.69084 12.5733Z" fill="#000640"/>
</svg>
