<svg width="24" height="24" viewBox="0 0 24 24" fill="none" xmlns="http://www.w3.org/2000/svg">
<path fill-rule="evenodd" clip-rule="evenodd" d="M3 4C3 2.34315 4.34315 1 6 1H18C19.6569 1 21 2.34315 21 4V11C21 12.6569 19.6569 14 18 14H6C4.34315 14 3 12.6569 3 11V4ZM6 3C5.44772 3 5 3.44772 5 4V11C5 11.5523 5.44772 12 6 12H18C18.5523 12 19 11.5523 19 11V4C19 3.44772 18.5523 3 18 3H6Z" fill="#000640"/>
<path d="M3 17C3 16.4477 3.44772 16 4 16H20C20.5523 16 21 16.4477 21 17C21 17.5523 20.5523 18 20 18H4C3.44772 18 3 17.5523 3 17Z" fill="#000640"/>
<path d="M4 20C3.44772 20 3 20.4477 3 21C3 21.5523 3.44772 22 4 22H12C12.5523 22 13 21.5523 13 21C13 20.4477 12.5523 20 12 20H4Z" fill="#000640"/>
</svg>
