<svg width="24" height="24" viewBox="0 0 24 24" fill="none" xmlns="http://www.w3.org/2000/svg">
<path d="M9 6C9 5.44772 9.44772 5 10 5L16 5C16.5523 5 17 5.44772 17 6C17 6.55229 16.5523 7 16 7L10 7C9.44771 7 9 6.55228 9 6Z" fill="#000640"/>
<path d="M10 9C9.44772 9 9 9.44771 9 10C9 10.5523 9.44771 11 10 11L16 11C16.5523 11 17 10.5523 17 10C17 9.44772 16.5523 9 16 9L10 9Z" fill="#000640"/>
<path fill-rule="evenodd" clip-rule="evenodd" d="M5 10H4C2.34315 10 1 8.65685 1 7V4C1 2.34315 2.34315 1 4 1H18C19.6569 1 21 2.34315 21 4V16H22C22.5523 16 23 16.4477 23 17V20C23 21.6569 21.6569 23 20 23H8C6.34315 23 5 21.6569 5 20V10ZM3 4C3 3.44772 3.44772 3 4 3C4.55228 3 5 3.44772 5 4V8H4C3.44772 8 3 7.55228 3 7V4ZM10.8293 21H20C20.5523 21 21 20.5523 21 20V18H11V20C11 20.3506 10.9398 20.6872 10.8293 21ZM8 21C8.55229 21 9 20.5523 9 20V17C9 16.4477 9.44771 16 10 16H19V4C19 3.44772 18.5523 3 18 3H6.82929C6.93985 3.31278 7 3.64936 7 4V20C7 20.5523 7.44772 21 8 21Z" fill="#000640"/>
</svg>
