<svg width="24" height="24" viewBox="0 0 24 24" fill="none" xmlns="http://www.w3.org/2000/svg">
<path d="M15 9.99998C15.5522 9.99999 16 9.55229 16 9C16 8.44772 15.5523 7.99999 15 7.99998L9 7.99983C8.44772 7.99982 7.99999 8.44752 7.99998 8.9998C7.99996 9.55209 8.44767 9.99982 8.99995 9.99983L15 9.99998Z" fill="#000640"/>
<path fill-rule="evenodd" clip-rule="evenodd" d="M5.55793 1C4.06163 1 2.7941 2.10259 2.58685 3.58446L1 14.9304V20C1 21.6569 2.34315 23 4 23H20C21.6569 23 23 21.6569 23 20V14.9304L21.4132 3.58446C21.2059 2.10259 19.9384 1 18.4421 1H5.55793ZM4.56757 3.86149C4.63665 3.36753 5.05916 3 5.55793 3H18.4421C18.9408 3 19.3633 3.36753 19.4324 3.86149L20.8504 14H16C15.514 14 15.0988 14.3493 15.015 14.8273L15.014 14.8323C15.0122 14.8414 15.0082 14.8598 15.0015 14.8864C14.9882 14.9397 14.9645 15.0241 14.9266 15.1291C14.8499 15.3415 14.7205 15.6227 14.5125 15.9C14.1232 16.4191 13.41 17 12 17C10.59 17 9.87683 16.4191 9.4875 15.9C9.27953 15.6227 9.15005 15.3415 9.07337 15.1291C9.03546 15.0241 9.0118 14.9397 8.99846 14.8864C8.99182 14.8598 8.98784 14.8414 8.98599 14.8323L8.98496 14.8272C8.9012 14.3493 8.48601 14 8 14H3.14959L4.56757 3.86149ZM16.734 16H21V20C21 20.5523 20.5523 21 20 21H4C3.44772 21 3 20.5523 3 20V16H7.26597C7.39696 16.3207 7.59425 16.709 7.8875 17.1C8.62317 18.0809 9.90999 19 12 19C14.09 19 15.3768 18.0809 16.1125 17.1C16.4057 16.709 16.603 16.3207 16.734 16Z" fill="#000640"/>
</svg>
