<svg width="24" height="24" viewBox="0 0 24 24" fill="none" xmlns="http://www.w3.org/2000/svg">
<path fill-rule="evenodd" clip-rule="evenodd" d="M8 5C7.44772 5 7 5.44772 7 6V10C7 10.5523 7.44772 11 8 11H13C13.5523 11 14 10.5523 14 10V6C14 5.44772 13.5523 5 13 5H8ZM9 9V7H12V9H9Z" fill="#000640"/>
<path d="M7 14C7 13.4477 7.44772 13 8 13H16C16.5523 13 17 13.4477 17 14C17 14.5523 16.5523 15 16 15H8C7.44772 15 7 14.5523 7 14Z" fill="#000640"/>
<path d="M8 17C7.44772 17 7 17.4477 7 18C7 18.5523 7.44772 19 8 19H16C16.5523 19 17 18.5523 17 18C17 17.4477 16.5523 17 16 17H8Z" fill="#000640"/>
<path fill-rule="evenodd" clip-rule="evenodd" d="M5 1C3.34315 1 2 2.34315 2 4V20C2 21.6569 3.34315 23 5 23H19C20.6569 23 22 21.6569 22 20V4C22 2.34315 20.6569 1 19 1H5ZM4 4C4 3.44772 4.44772 3 5 3H19C19.5523 3 20 3.44772 20 4V20C20 20.5523 19.5523 21 19 21H5C4.44772 21 4 20.5523 4 20V4Z" fill="#000640"/>
</svg>
