<svg width="24" height="24" viewBox="0 0 24 24" fill="none" xmlns="http://www.w3.org/2000/svg">
<path fill-rule="evenodd" clip-rule="evenodd" d="M13 3C13 2.44772 12.5523 2 12 2C11.4477 2 11 2.44772 11 3V4.0613C9.82367 4.20704 8.74601 4.60739 7.891 5.20589C6.80176 5.96837 6 7.11763 6 8.5C6 9.88237 6.80176 11.0316 7.891 11.7941C8.74601 12.3926 9.82367 12.793 11 12.9387V17.9183C10.2217 17.7883 9.54738 17.5123 9.03793 17.1556C8.31753 16.6514 8 16.0506 8 15.5C8 14.9477 7.55228 14.5 7 14.5C6.44772 14.5 6 14.9477 6 15.5C6 16.8824 6.80176 18.0316 7.891 18.7941C8.74601 19.3926 9.82367 19.793 11 19.9387V21C11 21.5523 11.4477 22 12 22C12.5523 22 13 21.5523 13 21V19.9387C14.1763 19.793 15.254 19.3926 16.109 18.7941C17.1982 18.0316 18 16.8824 18 15.5C18 14.1176 17.1982 12.9684 16.109 12.2059C15.254 11.6074 14.1763 11.207 13 11.0613V6.08175C13.7783 6.21174 14.4526 6.48774 14.9621 6.84436C15.6825 7.34864 16 7.94938 16 8.5C16 9.05228 16.4477 9.5 17 9.5C17.5523 9.5 18 9.05228 18 8.5C18 7.11763 17.1982 5.96837 16.109 5.20589C15.254 4.60739 14.1763 4.20704 13 4.0613V3ZM11 6.08175C10.2217 6.21174 9.54738 6.48774 9.03793 6.84436C8.31753 7.34864 8 7.94938 8 8.5C8 9.05062 8.31753 9.65136 9.03793 10.1556C9.54738 10.5123 10.2217 10.7883 11 10.9183V6.08175ZM13 13.0817V17.9183C13.7783 17.7883 14.4526 17.5123 14.9621 17.1556C15.6825 16.6514 16 16.0506 16 15.5C16 14.9494 15.6825 14.3486 14.9621 13.8444C14.4526 13.4877 13.7783 13.2117 13 13.0817Z" fill="#000640"/>
</svg>
