<svg width="24" height="24" viewBox="0 0 24 24" fill="none" xmlns="http://www.w3.org/2000/svg">
<g clip-path="url(#clip0_1253_6262)">
<path d="M14.9997 7C14.9997 7.55228 14.552 8 13.9997 8C13.4474 8 12.9997 7.55228 12.9997 7C12.9997 6.44772 13.4474 6 13.9997 6C14.552 6 14.9997 6.44772 14.9997 7Z" fill="#000640"/>
<path d="M16.9997 11C17.552 11 17.9997 10.5523 17.9997 10C17.9997 9.44772 17.552 9 16.9997 9C16.4474 9 15.9997 9.44772 15.9997 10C15.9997 10.5523 16.4474 11 16.9997 11Z" fill="#000640"/>
<path d="M14.9997 13C14.9997 13.5523 14.552 14 13.9997 14C13.4474 14 12.9997 13.5523 12.9997 13C12.9997 12.4477 13.4474 12 13.9997 12C14.552 12 14.9997 12.4477 14.9997 13Z" fill="#000640"/>
<path d="M10.9997 11C11.552 11 11.9997 10.5523 11.9997 10C11.9997 9.44772 11.552 9 10.9997 9C10.4474 9 9.9997 9.44772 9.9997 10C9.9997 10.5523 10.4474 11 10.9997 11Z" fill="#000640"/>
<path fill-rule="evenodd" clip-rule="evenodd" d="M12.0784 1.70705C13.2499 0.535478 15.1494 0.535474 16.321 1.70705L22.2926 7.67862C23.4642 8.85019 23.4642 10.7497 22.2926 11.9213L11.921 22.2928C10.7494 23.4644 8.84995 23.4644 7.67838 22.2928L1.70681 16.3213C0.535233 15.1497 0.53523 13.2502 1.7068 12.0786L12.0784 1.70705ZM14.9068 3.12126C14.5163 2.73074 13.8831 2.73074 13.4926 3.12126L3.12102 13.4928C2.73049 13.8834 2.73049 14.5165 3.12102 14.907L9.09259 20.8786C9.48311 21.2691 10.1163 21.2691 10.5068 20.8786L20.8784 10.507C21.2689 10.1165 21.2689 9.48336 20.8784 9.09283L14.9068 3.12126Z" fill="#000640"/>
</g>
<defs>
<clipPath id="clip0_1253_6262">
<rect width="24" height="24" fill="white"/>
</clipPath>
</defs>
</svg>
