<svg width="24" height="24" viewBox="0 0 24 24" fill="none" xmlns="http://www.w3.org/2000/svg">
<g clip-path="url(#clip0_1253_6164)">
<path d="M11.9913 2C12.5435 2 12.9913 1.55228 12.9913 1C12.9913 0.447715 12.5435 0 11.9913 0C11.439 0 10.9913 0.447715 10.9913 1C10.9913 1.55228 11.439 2 11.9913 2Z" fill="#000640"/>
<path d="M15.4115 2.60324C15.9304 2.79213 16.5043 2.52455 16.6932 2.00557C16.8821 1.48659 16.6145 0.912749 16.0955 0.723856C15.5765 0.534964 15.0027 0.802551 14.8138 1.32153C14.6249 1.84051 14.8925 2.41435 15.4115 2.60324Z" fill="#000640"/>
<path d="M19.8278 4.21617C19.4728 4.63925 18.8421 4.69443 18.419 4.33943C17.9959 3.98443 17.9407 3.35367 18.2957 2.9306C18.6507 2.50752 19.2815 2.45234 19.7046 2.80734C20.1276 3.16234 20.1828 3.7931 19.8278 4.21617Z" fill="#000640"/>
<path d="M20.6513 6.99981C20.9274 7.47811 21.539 7.64198 22.0173 7.36584C22.4956 7.0897 22.6595 6.47811 22.3833 5.99981C22.1072 5.52152 21.4956 5.35765 21.0173 5.63379C20.539 5.90993 20.3751 6.52152 20.6513 6.99981Z" fill="#000640"/>
<path d="M22.9973 11.0749C22.4534 11.1708 21.9347 10.8076 21.8388 10.2637C21.7429 9.71985 22.1061 9.20119 22.65 9.10529C23.1939 9.00939 23.7126 9.37255 23.8085 9.91645C23.9044 10.4603 23.5412 10.979 22.9973 11.0749Z" fill="#000640"/>
<path d="M21.8387 13.7366C21.7428 14.2805 22.106 14.7992 22.6499 14.8951C23.1938 14.991 23.7124 14.6278 23.8083 14.0839C23.9042 13.54 23.5411 13.0214 22.9972 12.9255C22.4533 12.8296 21.9346 13.1927 21.8387 13.7366Z" fill="#000640"/>
<path d="M21.0168 18.3658C20.5385 18.0897 20.3747 17.4781 20.6508 16.9998C20.9269 16.5215 21.5385 16.3576 22.0168 16.6338C22.4951 16.9099 22.659 17.5215 22.3829 17.9998C22.1067 18.4781 21.4951 18.642 21.0168 18.3658Z" fill="#000640"/>
<path d="M18.4181 19.6605C17.9951 20.0155 17.9399 20.6463 18.2949 21.0693C18.6499 21.4924 19.2806 21.5476 19.7037 21.1926C20.1268 20.8376 20.182 20.2068 19.827 19.7838C19.472 19.3607 18.8412 19.3055 18.4181 19.6605Z" fill="#000640"/>
<path d="M14.8133 22.6789C14.6244 22.1599 14.892 21.5861 15.411 21.3972C15.93 21.2083 16.5038 21.4759 16.6927 21.9949C16.8816 22.5139 16.614 23.0877 16.095 23.2766C15.576 23.4655 15.0022 23.1979 14.8133 22.6789Z" fill="#000640"/>
<path d="M11.9908 22C11.4385 22 10.9908 22.4477 10.9908 23C10.9908 23.5523 11.4385 24 11.9908 24C12.5431 24 12.9908 23.5523 12.9908 23C12.9908 22.4477 12.5431 22 11.9908 22Z" fill="#000640"/>
<path d="M7.28885 21.9944C7.47774 21.4755 8.05158 21.2079 8.57056 21.3968C9.08954 21.5857 9.35713 22.1595 9.16823 22.6785C8.97934 23.1974 8.4055 23.465 7.88652 23.2761C7.36754 23.0873 7.09996 22.5134 7.28885 21.9944Z" fill="#000640"/>
<path d="M5.56303 19.6606C5.13996 19.3056 4.5092 19.3608 4.1542 19.7838C3.7992 20.2069 3.85438 20.8377 4.27746 21.1927C4.70053 21.5477 5.33129 21.4925 5.68629 21.0694C6.04129 20.6463 5.98611 20.0156 5.56303 19.6606Z" fill="#000640"/>
<path d="M1.9647 16.6342C2.44299 16.358 3.05458 16.5219 3.33073 17.0002C3.60687 17.4785 3.44299 18.0901 2.9647 18.3662C2.48641 18.6424 1.87482 18.4785 1.59868 18.0002C1.32253 17.5219 1.48641 16.9103 1.9647 16.6342Z" fill="#000640"/>
<path d="M2.14318 13.7363C2.04727 13.1924 1.52862 12.8292 0.984722 12.9251C0.440828 13.021 0.0776593 13.5397 0.173563 14.0836C0.269466 14.6274 0.788124 14.9906 1.33202 14.8947C1.87591 14.7988 2.23908 14.2801 2.14318 13.7363Z" fill="#000640"/>
<path d="M1.33215 9.10491C1.87604 9.20082 2.23921 9.71947 2.14331 10.2634C2.0474 10.8073 1.52874 11.1704 0.98485 11.0745C0.440956 10.9786 0.0777877 10.46 0.173691 9.91607C0.269594 9.37218 0.788253 9.00901 1.33215 9.10491Z" fill="#000640"/>
<path d="M3.33121 7.00019C3.60736 6.52189 3.44348 5.9103 2.96519 5.63416C2.4869 5.35802 1.87531 5.52189 1.59916 6.00019C1.32302 6.47848 1.4869 7.09007 1.96519 7.36621C2.44348 7.64235 3.05507 7.47848 3.33121 7.00019Z" fill="#000640"/>
<path d="M5.68713 2.93066C6.04213 3.35374 5.98694 3.98449 5.56387 4.3395C5.14079 4.6945 4.51004 4.63931 4.15504 4.21624C3.80004 3.79316 3.85522 3.16241 4.27829 2.80741C4.70137 2.45241 5.33212 2.50759 5.68713 2.93066Z" fill="#000640"/>
<path d="M8.57104 2.60328C9.09002 2.41439 9.35761 1.84055 9.16871 1.32157C8.97982 0.802592 8.40598 0.535005 7.887 0.723898C7.36802 0.91279 7.10044 1.48663 7.28933 2.00561C7.47822 2.52459 8.05206 2.79218 8.57104 2.60328Z" fill="#000640"/>
</g>
<defs>
<clipPath id="clip0_1253_6164">
<rect width="24" height="24" fill="white"/>
</clipPath>
</defs>
</svg>
