<svg width="24" height="24" viewBox="0 0 24 24" fill="none" xmlns="http://www.w3.org/2000/svg">
<g clip-path="url(#clip0_1253_6168)">
<path d="M12.9913 1C12.9913 1.55228 12.5435 2 11.9913 2C11.439 2 10.9913 1.55228 10.9913 1C10.9913 0.447715 11.439 0 11.9913 0C12.5435 0 12.9913 0.447715 12.9913 1Z" fill="#000640"/>
<path d="M16.6932 2.00532C16.5043 2.5243 15.9304 2.79189 15.4115 2.603C14.8925 2.4141 14.6249 1.84026 14.8138 1.32128C15.0027 0.802307 15.5765 0.534719 16.0955 0.723612C16.6145 0.912504 16.8821 1.48635 16.6932 2.00532Z" fill="#000640"/>
<path d="M18.419 4.33943C18.8421 4.69443 19.4728 4.63925 19.8278 4.21617C20.1828 3.7931 20.1276 3.16234 19.7046 2.80734C19.2815 2.45234 18.6507 2.50752 18.2957 2.9306C17.9407 3.35367 17.9959 3.98443 18.419 4.33943Z" fill="#000640"/>
<path d="M22.0173 7.36608C21.539 7.64223 20.9274 7.47835 20.6513 7.00006C20.3751 6.52177 20.539 5.91018 21.0173 5.63403C21.4956 5.35789 22.1072 5.52177 22.3833 6.00006C22.6595 6.47835 22.4956 7.08994 22.0173 7.36608Z" fill="#000640"/>
<path d="M21.8388 10.2635C21.9347 10.8074 22.4534 11.1706 22.9973 11.0747C23.5412 10.9788 23.9044 10.4601 23.8085 9.9162C23.7126 9.37231 23.1939 9.00914 22.65 9.10504C22.1061 9.20095 21.7429 9.71961 21.8388 10.2635Z" fill="#000640"/>
<path d="M22.6499 14.8951C22.106 14.7992 21.7428 14.2805 21.8387 13.7366C21.9346 13.1927 22.4533 12.8296 22.9972 12.9255C23.5411 13.0214 23.9042 13.54 23.8083 14.0839C23.7124 14.6278 23.1938 14.991 22.6499 14.8951Z" fill="#000640"/>
<path d="M20.6508 16.9998C20.3747 17.4781 20.5385 18.0897 21.0168 18.3658C21.4951 18.642 22.1067 18.4781 22.3829 17.9998C22.659 17.5215 22.4951 16.9099 22.0168 16.6338C21.5385 16.3576 20.9269 16.5215 20.6508 16.9998Z" fill="#000640"/>
<path d="M18.2949 21.0693C17.9399 20.6463 17.9951 20.0155 18.4181 19.6605C18.8412 19.3055 19.472 19.3607 19.827 19.7838C20.182 20.2068 20.1268 20.8376 19.7037 21.1926C19.2806 21.5476 18.6499 21.4924 18.2949 21.0693Z" fill="#000640"/>
<path d="M15.411 21.397C14.892 21.5859 14.6244 22.1597 14.8133 22.6787C15.0022 23.1977 15.576 23.4652 16.095 23.2763C16.614 23.0875 16.8816 22.5136 16.6927 21.9946C16.5038 21.4757 15.93 21.2081 15.411 21.397Z" fill="#000640"/>
<path d="M10.9908 23C10.9908 22.4477 11.4385 22 11.9908 22C12.5431 22 12.9908 22.4477 12.9908 23C12.9908 23.5523 12.5431 24 11.9908 24C11.4385 24 10.9908 23.5523 10.9908 23Z" fill="#000640"/>
<path d="M8.57056 21.397C8.05158 21.2081 7.47774 21.4757 7.28885 21.9947C7.09996 22.5137 7.36754 23.0875 7.88652 23.2764C8.4055 23.4653 8.97934 23.1977 9.16823 22.6787C9.35713 22.1597 9.08954 21.5859 8.57056 21.397Z" fill="#000640"/>
<path d="M4.1542 19.7838C4.5092 19.3608 5.13996 19.3056 5.56303 19.6606C5.98611 20.0156 6.04129 20.6463 5.68629 21.0694C5.33129 21.4925 4.70053 21.5477 4.27746 21.1927C3.85438 20.8377 3.7992 20.2069 4.1542 19.7838Z" fill="#000640"/>
<path d="M3.33073 17.0002C3.05458 16.5219 2.44299 16.358 1.9647 16.6342C1.48641 16.9103 1.32253 17.5219 1.59868 18.0002C1.87482 18.4785 2.48641 18.6424 2.9647 18.3662C3.44299 18.0901 3.60687 17.4785 3.33073 17.0002Z" fill="#000640"/>
<path d="M0.984722 12.9253C1.52862 12.8294 2.04727 13.1926 2.14318 13.7365C2.23908 14.2804 1.87591 14.7991 1.33202 14.895C0.788124 14.9909 0.269466 14.6277 0.173563 14.0838C0.0776593 13.5399 0.440828 13.0212 0.984722 12.9253Z" fill="#000640"/>
<path d="M2.14331 10.2634C2.23921 9.71947 1.87604 9.20082 1.33215 9.10491C0.788253 9.00901 0.269594 9.37218 0.173691 9.91607C0.0777877 10.46 0.440956 10.9786 0.98485 11.0745C1.52874 11.1704 2.0474 10.8073 2.14331 10.2634Z" fill="#000640"/>
<path d="M2.96519 5.63416C3.44348 5.9103 3.60736 6.52189 3.33121 7.00019C3.05507 7.47848 2.44348 7.64235 1.96519 7.36621C1.4869 7.09007 1.32302 6.47848 1.59916 6.00019C1.87531 5.52189 2.4869 5.35802 2.96519 5.63416Z" fill="#000640"/>
<path d="M5.56387 4.3395C5.98694 3.98449 6.04213 3.35374 5.68713 2.93066C5.33212 2.50759 4.70137 2.45241 4.27829 2.80741C3.85522 3.16241 3.80004 3.79316 4.15504 4.21624C4.51004 4.63931 5.14079 4.6945 5.56387 4.3395Z" fill="#000640"/>
<path d="M9.16871 1.32133C9.35761 1.8403 9.09002 2.41415 8.57104 2.60304C8.05206 2.79193 7.47822 2.52434 7.28933 2.00537C7.10044 1.48639 7.36802 0.912546 7.887 0.723654C8.40598 0.534761 8.97982 0.802348 9.16871 1.32133Z" fill="#000640"/>
<path fill-rule="evenodd" clip-rule="evenodd" d="M11.9999 5C8.13393 5 4.99992 8.13401 4.99992 12C4.99992 15.866 8.13393 19 11.9999 19C15.8659 19 18.9999 15.866 18.9999 12C18.9999 8.13401 15.8659 5 11.9999 5ZM6.99992 12C6.99992 9.23858 9.2385 7 11.9999 7C14.7613 7 16.9999 9.23858 16.9999 12C16.9999 14.7614 14.7613 17 11.9999 17C9.2385 17 6.99992 14.7614 6.99992 12Z" fill="#000640"/>
</g>
<defs>
<clipPath id="clip0_1253_6168">
<rect width="24" height="24" fill="white"/>
</clipPath>
</defs>
</svg>
