<svg width="24" height="24" viewBox="0 0 24 24" fill="none" xmlns="http://www.w3.org/2000/svg">
<g clip-path="url(#clip0_1253_5900)">
<path d="M6 12C6 11.7348 6.10536 11.4804 6.29289 11.2929L10.2929 7.29289C10.6834 6.90237 11.3166 6.90237 11.7071 7.29289C12.0976 7.68342 12.0976 8.31658 11.7071 8.70711L8.41421 12L11.7071 15.2929C12.0976 15.6834 12.0976 16.3166 11.7071 16.7071C11.3166 17.0976 10.6834 17.0976 10.2929 16.7071L6.29289 12.7071C6.10536 12.5196 6 12.2652 6 12Z" fill="#000640"/>
<path d="M11.2929 11.2929C11.1054 11.4804 11 11.7348 11 12C11 12.2652 11.1054 12.5196 11.2929 12.7071L15.2929 16.7071C15.6834 17.0976 16.3166 17.0976 16.7071 16.7071C17.0976 16.3166 17.0976 15.6834 16.7071 15.2929L13.4142 12L16.7071 8.70711C17.0976 8.31658 17.0976 7.68342 16.7071 7.29289C16.3166 6.90237 15.6834 6.90237 15.2929 7.29289L11.2929 11.2929Z" fill="#000640"/>
<path fill-rule="evenodd" clip-rule="evenodd" d="M12 24C18.6274 24 24 18.6274 24 12C24 5.37258 18.6274 0 12 0C5.37258 0 0 5.37258 0 12C0 18.6274 5.37258 24 12 24ZM12 22C17.5228 22 22 17.5228 22 12C22 6.47715 17.5228 2 12 2C6.47715 2 2 6.47715 2 12C2 17.5228 6.47715 22 12 22Z" fill="#000640"/>
</g>
<defs>
<clipPath id="clip0_1253_5900">
<rect width="24" height="24" fill="white"/>
</clipPath>
</defs>
</svg>
