<svg width="24" height="24" viewBox="0 0 24 24" fill="none" xmlns="http://www.w3.org/2000/svg">
<path d="M12 18C11.7348 18 11.4804 17.8946 11.2929 17.7071L7.2929 13.7071C6.90237 13.3166 6.90237 12.6834 7.2929 12.2929C7.68342 11.9024 8.31658 11.9024 8.70711 12.2929L12 15.5858L15.2929 12.2929C15.6834 11.9024 16.3166 11.9024 16.7071 12.2929C17.0976 12.6834 17.0976 13.3166 16.7071 13.7071L12.7071 17.7071C12.5196 17.8946 12.2652 18 12 18Z" fill="#000640"/>
<path d="M11.2929 12.7071C11.4804 12.8946 11.7348 13 12 13C12.2652 13 12.5196 12.8946 12.7071 12.7071L16.7071 8.70711C17.0976 8.31658 17.0976 7.68342 16.7071 7.29289C16.3166 6.90237 15.6834 6.90237 15.2929 7.29289L12 10.5858L8.70711 7.29289C8.31658 6.90237 7.68342 6.90237 7.2929 7.29289C6.90237 7.68342 6.90237 8.31658 7.2929 8.70711L11.2929 12.7071Z" fill="#000640"/>
<path fill-rule="evenodd" clip-rule="evenodd" d="M1 4C1 2.34315 2.34315 1 4 1H20C21.6569 1 23 2.34315 23 4L23 20C23 21.6569 21.6569 23 20 23L4 23C2.34315 23 1 21.6569 1 20V4ZM4 3C3.44772 3 3 3.44772 3 4L3 20C3 20.5523 3.44772 21 4 21L20 21C20.5523 21 21 20.5523 21 20L21 4C21 3.44772 20.5523 3 20 3L4 3Z" fill="#000640"/>
</svg>
