<svg width="24" height="24" viewBox="0 0 24 24" fill="none" xmlns="http://www.w3.org/2000/svg">
<path d="M12.7071 3.29289C12.3166 2.90237 11.6834 2.90237 11.2929 3.29289L4.29289 10.2929C3.90237 10.6834 3.90237 11.3166 4.29289 11.7071C4.68342 12.0976 5.31658 12.0976 5.70711 11.7071L12 5.41421L18.2929 11.7071C18.6834 12.0976 19.3166 12.0976 19.7071 11.7071C20.0976 11.3166 20.0976 10.6834 19.7071 10.2929L12.7071 3.29289Z" fill="#000640"/>
<path d="M19.7071 17.2929L12.7071 10.2929C12.3166 9.90237 11.6834 9.90237 11.2929 10.2929L4.29289 17.2929C3.90237 17.6834 3.90237 18.3166 4.29289 18.7071C4.68342 19.0976 5.31658 19.0976 5.70711 18.7071L12 12.4142L18.2929 18.7071C18.6834 19.0976 19.3166 19.0976 19.7071 18.7071C20.0976 18.3166 20.0976 17.6834 19.7071 17.2929Z" fill="#000640"/>
</svg>
