<svg width="24" height="24" viewBox="0 0 24 24" fill="none" xmlns="http://www.w3.org/2000/svg">
<path fill-rule="evenodd" clip-rule="evenodd" d="M10.6831 5.00253C11.5054 3.78586 12.9296 3 14.5249 3C16.7629 3 18.695 4.56418 19.0439 6.69231H19.7249C21.4814 6.69231 22.9999 8.05348 22.9999 9.84615C22.9999 10.8872 22.4878 11.7828 21.7143 12.3507C22.5096 13.1623 23 14.2739 23 15.5C23 17.9853 20.9853 20 18.5 20H5.5C3.01472 20 1 17.9853 1 15.5C1 13.5386 2.25419 11.8714 4.00454 11.2547C4.1335 7.77853 6.99227 5 10.5 5C10.5612 5 10.6223 5.00085 10.6831 5.00253ZM12.9686 5.48518C13.3969 5.18329 13.9338 5 14.5249 5C15.9993 5 17.0999 6.11849 17.0999 7.38461V7.69231C17.0999 8.24459 17.5476 8.69231 18.0999 8.69231H19.7249C20.4814 8.69231 20.9999 9.25976 20.9999 9.84615C20.9999 10.4325 20.4814 11 19.7249 11H16.9811C16.7909 8.50096 15.1877 6.39691 12.9686 5.48518ZM18.5 13H16C15.4477 13 15 12.5523 15 12V11.5C15 9.01472 12.9853 7 10.5 7C8.01472 7 6 9.01472 6 11.5V12.0354C6 12.533 5.63417 12.9549 5.1416 13.0254C3.931 13.1985 3 14.2414 3 15.5C3 16.8807 4.11929 18 5.5 18H18.5C19.8807 18 21 16.8807 21 15.5C21 14.1193 19.8807 13 18.5 13Z" fill="#000640"/>
</svg>
