<svg width="24" height="24" viewBox="0 0 24 24" fill="none" xmlns="http://www.w3.org/2000/svg">
<path d="M5.70711 5.29289C5.31658 4.90237 4.68342 4.90237 4.29289 5.29289C3.90237 5.68342 3.90237 6.31658 4.29289 6.70711L11.2929 13.7071C11.6834 14.0976 12.3166 14.0976 12.7071 13.7071L19.7071 6.70711C20.0976 6.31658 20.0976 5.68342 19.7071 5.29289C19.3166 4.90237 18.6834 4.90237 18.2929 5.29289L12 11.5858L5.70711 5.29289Z" fill="#000640"/>
<path d="M5.70711 12.2929C5.31658 11.9024 4.68342 11.9024 4.29289 12.2929C3.90237 12.6834 3.90237 13.3166 4.29289 13.7071L11.2929 20.7071C11.6834 21.0976 12.3166 21.0976 12.7071 20.7071L19.7071 13.7071C20.0976 13.3166 20.0976 12.6834 19.7071 12.2929C19.3166 11.9024 18.6834 11.9024 18.2929 12.2929L12 18.5858L5.70711 12.2929Z" fill="#000640"/>
</svg>
