<svg width="24" height="24" viewBox="0 0 24 24" fill="none" xmlns="http://www.w3.org/2000/svg">
<path fill-rule="evenodd" clip-rule="evenodd" d="M8.24356 1.02985C8.77936 1.1638 9.10512 1.70673 8.97117 2.24253L8.64209 3.55885L12.001 5.79814L15.36 3.55885L15.0309 2.24253C14.8969 1.70673 15.2227 1.1638 15.7585 1.02985C16.2943 0.895901 16.8372 1.22166 16.9712 1.75746L17.4272 3.58166C19.2268 6.23233 19.2078 8.32244 18.458 9.82221C18.2905 10.1572 18.0939 10.4468 17.8919 10.6936C19.9952 11.8518 22.4409 14.4189 22.9181 19.2621C23.0675 20.7784 21.9691 22.0392 20.5661 22.2901C18.999 22.5702 17.5261 22.7807 16.0983 22.9202C13.3045 23.1933 10.6976 23.1933 7.90376 22.9202C6.47591 22.7807 5.00304 22.5702 3.43593 22.2901C2.03298 22.0392 0.934527 20.7784 1.08394 19.2621C1.56117 14.4189 4.0069 11.8518 6.11016 10.6936C5.90814 10.4468 5.71159 10.1572 5.5441 9.82221C4.79422 8.32244 4.77521 6.23233 6.57483 3.58166L7.03088 1.75746C7.16483 1.22166 7.70777 0.895901 8.24356 1.02985ZM7.79724 5.39932C6.79165 7.18478 7.01835 8.29858 7.33295 8.92778C7.53555 9.33297 7.82272 9.63533 8.06905 9.83961C8.19061 9.94041 8.2968 10.0128 8.36816 10.0577C8.40363 10.0799 8.42983 10.095 8.44419 10.103L8.45587 10.1094C8.8255 10.2982 9.04041 10.696 8.99506 11.1091C8.94939 11.5251 8.64954 11.8686 8.24356 11.9701C6.78586 12.3346 3.5971 14.1525 3.0743 19.4582C3.03674 19.8394 3.3139 20.2365 3.78791 20.3213C4.86492 20.5138 5.88971 20.6714 6.8804 20.7943C6.82978 19.5633 6.98514 18.3116 7.28382 17.1741C7.68413 15.6496 8.37324 14.2136 9.29392 13.2929C9.68444 12.9024 10.3176 12.9024 10.7081 13.2929C11.0987 13.6834 11.0987 14.3166 10.7081 14.7071C10.1288 15.2864 9.56793 16.3504 9.21824 17.6821C8.93869 18.7467 8.81442 19.9072 8.89527 21.0002C10.9978 21.1666 13.0043 21.1666 15.1068 21.0002C15.1876 19.9072 15.0634 18.7467 14.7838 17.6821C14.4341 16.3504 13.8732 15.2864 13.2939 14.7071C12.9034 14.3166 12.9034 13.6834 13.2939 13.2929C13.6844 12.9024 14.3176 12.9024 14.7081 13.2929C15.6288 14.2136 16.3179 15.6496 16.7182 17.1741C17.0169 18.3116 17.1723 19.5633 17.1217 20.7943C18.1123 20.6714 19.1371 20.5138 20.2141 20.3213C20.6882 20.2365 20.9653 19.8394 20.9278 19.4582C20.405 14.1525 17.2162 12.3346 15.7585 11.9701C15.3525 11.8686 15.0527 11.5251 15.007 11.1091C14.9616 10.696 15.1766 10.2982 15.5462 10.1094L15.5579 10.103C15.5722 10.095 15.5984 10.0799 15.6339 10.0577C15.7053 10.0128 15.8114 9.94041 15.933 9.83961C16.1793 9.63533 16.4665 9.33297 16.6691 8.92778C16.9837 8.29858 17.2104 7.18478 16.2048 5.39932L12.5557 7.83204C12.2198 8.05598 11.7822 8.05598 11.4463 7.83204L7.79724 5.39932ZM15.5527 10.1061C15.5527 10.1061 15.5527 10.1061 15.5527 10.1061L15.5521 10.1064C15.5523 10.1063 15.5525 10.1062 15.5527 10.1061Z" fill="#000640"/>
</svg>
