<svg width="24" height="24" viewBox="0 0 24 24" fill="none" xmlns="http://www.w3.org/2000/svg">
<path fill-rule="evenodd" clip-rule="evenodd" d="M7.7316 7.35913C6.13887 10.0033 5 13.0633 5 15C5 16.9131 5.76404 18.3799 6.98059 19.3864C8.21627 20.4087 9.97723 21 12 21C14.0228 21 15.7837 20.4087 17.0194 19.3864C18.236 18.3799 19 16.9131 19 15C19 13.0633 17.8611 10.0033 16.2684 7.35913C15.484 6.05691 14.6276 4.92046 13.8154 4.12384C12.9528 3.27778 12.328 3 12 3C11.672 3 11.0472 3.27778 10.1846 4.12384C9.37244 4.92046 8.51601 6.05691 7.7316 7.35913ZM8.78414 2.69602C9.70282 1.79493 10.828 1 12 1C13.172 1 14.2972 1.79493 15.2159 2.69602C16.1849 3.64654 17.141 4.93167 17.9816 6.32716C19.6389 9.07845 21 12.5184 21 15C21 17.5052 19.9732 19.5384 18.2943 20.9274C16.6345 22.3005 14.3955 23 12 23C9.60449 23 7.36545 22.3005 5.7057 20.9274C4.02682 19.5384 3 17.5052 3 15C3 12.5184 4.36113 9.07845 6.0184 6.32716C6.85899 4.93167 7.81506 3.64654 8.78414 2.69602Z" fill="#000640"/>
</svg>
