<svg width="24" height="25" viewBox="0 0 24 25" fill="none" xmlns="http://www.w3.org/2000/svg">
<path fill-rule="evenodd" clip-rule="evenodd" d="M18 7.11481H9V21.1148H18V7.11481ZM9 5.11481C7.89543 5.11481 7 6.01024 7 7.11481V21.1148C7 22.2194 7.89543 23.1148 9 23.1148H18C19.1046 23.1148 20 22.2194 20 21.1148V7.11481C20 6.01024 19.1046 5.11481 18 5.11481H9Z" fill="#000640"/>
<path fill-rule="evenodd" clip-rule="evenodd" d="M4 6.11481C4 3.90567 5.79086 2.11481 8 2.11481H15C15.5523 2.11481 16 2.56252 16 3.11481C16 3.66709 15.5523 4.11481 15 4.11481H8C6.89543 4.11481 6 5.01024 6 6.11481V18.1148C6 18.6671 5.55228 19.1148 5 19.1148C4.44772 19.1148 4 18.6671 4 18.1148V6.11481Z" fill="#000640"/>
</svg>
