<svg width="24" height="24" viewBox="0 0 24 24" fill="none" xmlns="http://www.w3.org/2000/svg">
<g clip-path="url(#clip0_1253_6375)">
<path fill-rule="evenodd" clip-rule="evenodd" d="M7.03735 3.31611L9.27882 5.7444C10.4592 7.02316 10.3074 9.03469 8.94849 10.1218L8.27163 10.6633C7.21835 11.5059 7.02452 13.0327 7.83383 14.1118C8.69206 15.2561 8.52922 16.8673 7.45939 17.8168L5.47483 19.578C7.22684 21.0882 9.50633 22 12 22C13.0465 22 14.0539 21.8396 15 21.5425V16.9471C15 16.7999 14.9675 16.6545 14.9048 16.5213L12.3251 11.0393C11.4498 9.17935 12.9071 7.06682 14.9566 7.22448C16.3286 7.33001 17.5 6.24523 17.5 4.86922V3.64689C15.9224 2.60577 14.0332 2 12 2C10.1928 2 8.49936 2.4786 7.03735 3.31611ZM19.4733 5.35519C19.2185 7.66024 17.1729 9.40087 14.8032 9.21859C14.2825 9.17854 13.9123 9.7152 14.1347 10.1877L16.7145 15.6697C16.9025 16.0693 17 16.5055 17 16.9471V20.6625C19.99 18.9328 22 15.7002 22 12C22 9.44974 21.046 7.1224 19.4733 5.35519ZM4.09641 18.1273L6.13185 16.3209C6.42324 16.0623 6.46759 15.6235 6.23383 15.3118C4.77637 13.3685 5.12542 10.619 7.02224 9.10159L7.6991 8.5601C8.15207 8.19772 8.20267 7.5272 7.80921 7.10095L5.39805 4.48883C3.31327 6.32264 2 9.00789 2 12C2 14.3093 2.78178 16.4344 4.09641 18.1273ZM4.90848 2.31867C6.89524 0.861118 9.34852 0 12 0C14.6515 0 17.1048 0.861118 19.0915 2.31867C22.0658 4.50072 24 8.02456 24 12C24 17.0895 20.8319 21.4367 16.3638 23.1816C15.01 23.7103 13.5376 24 12 24C8.56148 24 5.45943 22.5525 3.27285 20.2364C1.24476 18.0881 0 15.1883 0 12C0 8.02456 1.93417 4.50072 4.90848 2.31867Z" fill="#000640"/>
</g>
<defs>
<clipPath id="clip0_1253_6375">
<rect width="24" height="24" fill="white"/>
</clipPath>
</defs>
</svg>
