<svg width="24" height="24" viewBox="0 0 24 24" fill="none" xmlns="http://www.w3.org/2000/svg">
<path fill-rule="evenodd" clip-rule="evenodd" d="M18.1134 17C20.5535 17 21.9729 14.2419 20.5546 12.2563L14.441 3.6972C13.2445 2.02216 10.755 2.02216 9.55856 3.6972L3.44495 12.2563C2.02666 14.2419 3.44603 17 5.88615 17H18.1134ZM18.9271 13.4187C19.3999 14.0806 18.9268 15 18.1134 15H5.88615C5.07278 15 4.59965 14.0806 5.07241 13.4188L11.186 4.85968C11.5848 4.30133 12.4147 4.30133 12.8135 4.85968L18.9271 13.4187Z" fill="#000640"/>
<path d="M3.99978 19C3.4475 19 2.99978 19.4477 2.99978 20C2.99978 20.5523 3.4475 21 3.99978 21H19.9998C20.5521 21 20.9998 20.5523 20.9998 20C20.9998 19.4477 20.5521 19 19.9998 19H3.99978Z" fill="#000640"/>
</svg>
