<svg width="24" height="24" viewBox="0 0 24 24" fill="none" xmlns="http://www.w3.org/2000/svg">
<path d="M13.72 5C11.5287 5 9.48942 6.57827 8.5473 9H13C13.5523 9 14 9.44772 14 10C14 10.5523 13.5523 11 13 11H8.05684C8.01944 11.3249 8 11.6586 8 12C8 12.3414 8.01944 12.6751 8.05684 13H13C13.5523 13 14 13.4477 14 14C14 14.5523 13.5523 15 13 15H8.5473C9.48942 17.4217 11.5287 19 13.72 19C15.4675 19 17.0859 18.0283 18.1663 16.3971C18.4712 15.9366 19.0917 15.8106 19.5522 16.1155C20.0126 16.4205 20.1387 17.041 19.8337 17.5014C18.453 19.5862 16.256 21 13.72 21C10.2581 21 7.48319 18.4234 6.44291 15H5C4.44772 15 4 14.5523 4 14C4 13.4477 4.44772 13 5 13H6.04796C6.01624 12.6704 6 12.3367 6 12C6 11.6633 6.01624 11.3296 6.04796 11H5C4.44772 11 4 10.5523 4 10C4 9.44772 4.44772 9 5 9H6.44291C7.48319 5.57656 10.2581 3 13.72 3C16.2411 3 18.4436 4.34893 19.8337 6.44782C20.1387 6.90827 20.0126 7.52876 19.5522 7.83372C19.0917 8.13869 18.4712 8.01264 18.1663 7.55218C17.0953 5.93511 15.4823 5 13.72 5Z" fill="#000640"/>
</svg>
