<svg width="24" height="25" viewBox="0 0 24 25" fill="none" xmlns="http://www.w3.org/2000/svg">
<path fill-rule="evenodd" clip-rule="evenodd" d="M4 13.1148C4 12.5625 4.44772 12.1148 5 12.1148H10C11.1046 12.1148 12 13.0102 12 14.1148V19.1148C12 19.6671 11.5523 20.1148 11 20.1148C10.4477 20.1148 10 19.6671 10 19.1148V14.1148H5C4.44772 14.1148 4 13.6671 4 13.1148Z" fill="#000640"/>
<path fill-rule="evenodd" clip-rule="evenodd" d="M20 11.1148C20 11.6671 19.5523 12.1148 19 12.1148L14 12.1148C12.8954 12.1148 12 11.2194 12 10.1148L12 5.11481C12 4.56252 12.4477 4.11481 13 4.11481C13.5523 4.11481 14 4.56252 14 5.11481L14 10.1148L19 10.1148C19.5523 10.1148 20 10.5625 20 11.1148Z" fill="#000640"/>
</svg>
