<svg width="24" height="24" viewBox="0 0 24 24" fill="none" xmlns="http://www.w3.org/2000/svg">
<g clip-path="url(#clip0_1253_6651)">
<path d="M1.80034 8.40006C1.46897 7.95823 0.842167 7.86869 0.40034 8.20006C-0.0414882 8.53143 -0.131031 9.15823 0.20034 9.60006C0.575598 10.1004 1.06062 10.6522 1.66093 11.2063L0.168087 13.4453C-0.138291 13.9048 -0.0141527 14.5257 0.445358 14.8321C0.90487 15.1385 1.52575 15.0143 1.83212 14.5548L3.23349 12.453C3.96046 12.9467 4.79151 13.4097 5.73116 13.802L5.03881 16.2255C4.88709 16.7565 5.1946 17.31 5.72564 17.4617C6.25667 17.6134 6.81015 17.3059 6.96187 16.7749L7.62706 14.4465C8.64983 14.7198 9.77297 14.9068 11.0003 14.9733V17C11.0003 17.5523 11.4481 18 12.0003 18C12.5526 18 13.0003 17.5523 13.0003 17V14.9733C14.2351 14.9064 15.3645 14.7176 16.3922 14.4415L16.9723 16.7586C17.1065 17.2944 17.6495 17.6199 18.1852 17.4858C18.721 17.3517 19.0466 16.8086 18.9124 16.2729L18.2915 13.7928C19.2221 13.4025 20.0458 12.9429 20.7671 12.4531L22.168 14.5548C22.4744 15.0143 23.0952 15.1385 23.5548 14.8322C24.0143 14.5258 24.1385 13.905 23.8322 13.4454L22.3397 11.2064C22.94 10.6523 23.4251 10.1004 23.8003 9.60006C24.1317 9.15823 24.0422 8.53143 23.6003 8.20006C23.1585 7.86869 22.5317 7.95823 22.2003 8.40006C20.8523 10.1974 17.6317 12.9965 12.011 13.0001L12.0003 13L11.9897 13.0001C6.36898 12.9965 3.14833 10.1974 1.80034 8.40006Z" fill="#000640"/>
</g>
<defs>
<clipPath id="clip0_1253_6651">
<rect width="24" height="24" fill="white"/>
</clipPath>
</defs>
</svg>
