<svg width="24" height="24" viewBox="0 0 24 24" fill="none" xmlns="http://www.w3.org/2000/svg">
<path fill-rule="evenodd" clip-rule="evenodd" d="M17 12C17 14.7614 14.7614 17 12 17C9.23858 17 7 14.7614 7 12C7 9.23858 9.23858 7 12 7C14.7614 7 17 9.23858 17 12ZM15 12C15 13.6569 13.6569 15 12 15C10.3431 15 9 13.6569 9 12C9 10.3431 10.3431 9 12 9C13.6569 9 15 10.3431 15 12Z" fill="#000640"/>
<path fill-rule="evenodd" clip-rule="evenodd" d="M24 12C24 14.5 18.6274 21 12 21C5.37258 21 0 15 0 12C0 9 5.37258 3 12 3C18.6274 3 24 9.5 24 12ZM21.9995 11.9989L21.9997 12L21.9995 12.0011C21.9972 12.0209 21.9821 12.1449 21.8887 12.3886C21.7858 12.6571 21.6158 12.9977 21.3663 13.3925C20.8668 14.1829 20.1129 15.0894 19.1538 15.9451C17.2109 17.6786 14.665 19 12 19C9.28717 19 6.73355 17.7619 4.82178 16.1112C3.87374 15.2926 3.13408 14.4144 2.64521 13.6218C2.12886 12.7848 2 12.2216 2 12C2 11.7784 2.12886 11.2152 2.64521 10.3782C3.13408 9.58565 3.87374 8.70737 4.82178 7.8888C6.73355 6.23812 9.28717 5 12 5C14.665 5 17.2109 6.32143 19.1538 8.05485C20.1129 8.91057 20.8668 9.81711 21.3663 10.6075C21.6158 11.0023 21.7858 11.3429 21.8887 11.6114C21.9821 11.8551 21.9972 11.9791 21.9995 11.9989Z" fill="#000640"/>
</svg>
