<svg width="24" height="24" viewBox="0 0 24 24" fill="none" xmlns="http://www.w3.org/2000/svg">
<path fill-rule="evenodd" clip-rule="evenodd" d="M12 1C9.04188 1 7 3.90606 7 7C7 8.47394 7.46341 9.90523 8.26852 11H2C1.44772 11 1 11.4477 1 12C1 14.9581 3.90606 17 7 17C8.47394 17 9.90523 16.5366 11 15.7315L11 22C11 22.5523 11.4477 23 12 23C14.9581 23 17 20.0939 17 17C17 15.5261 16.5366 14.0948 15.7315 13L22 13C22.5523 13 23 12.5523 23 12C23 9.04188 20.0939 7 17 7C15.5261 7 14.0948 7.46341 13 8.26852V2C13 1.44772 12.5523 1 12 1ZM9 7C9 5.12949 9.91323 3.76771 11 3.24044V10.7596C9.91323 10.2323 9 8.87051 9 7ZM17 9C18.8705 9 20.2323 9.91323 20.7596 11H13.2404C13.7677 9.91323 15.1295 9 17 9ZM13 20.7596C14.0868 20.2323 15 18.8705 15 17C15 15.1295 14.0868 13.7677 13 13.2404L13 20.7596ZM7 15C5.12949 15 3.76771 14.0868 3.24044 13H10.7596C10.2323 14.0868 8.87051 15 7 15Z" fill="#000640"/>
</svg>
