<svg width="24" height="24" viewBox="0 0 24 24" fill="none" xmlns="http://www.w3.org/2000/svg">
<path fill-rule="evenodd" clip-rule="evenodd" d="M12 3C8.68629 3 6 5.68629 6 9C6 12.3137 8.68629 15 12 15C15.3137 15 18 12.3137 18 9C18 5.68629 15.3137 3 12 3ZM4 9C4 4.58172 7.58172 1 12 1C16.4183 1 20 4.58172 20 9C20 13.4183 16.4183 17 12 17C7.58172 17 4 13.4183 4 9Z" fill="#000640"/>
<path fill-rule="evenodd" clip-rule="evenodd" d="M12 15C12.5523 15 13 15.4477 13 16V23C13 23.5523 12.5523 24 12 24C11.4477 24 11 23.5523 11 23V16C11 15.4477 11.4477 15 12 15Z" fill="#000640"/>
<path fill-rule="evenodd" clip-rule="evenodd" d="M16 20C16 20.5523 15.5523 21 15 21H9C8.44771 21 8 20.5523 8 20C8 19.4477 8.44771 19 9 19H15C15.5523 19 16 19.4477 16 20Z" fill="#000640"/>
</svg>
