<svg width="24" height="24" viewBox="0 0 24 24" fill="none" xmlns="http://www.w3.org/2000/svg">
<path fill-rule="evenodd" clip-rule="evenodd" d="M7.21699 1.02381C7.75612 1.14362 8.09605 1.6778 7.97624 2.21693L7.16925 5.84839C10.3946 6.88387 13.6055 6.88387 16.8309 5.84839L16.0239 2.21693C15.9041 1.6778 16.244 1.14362 16.7831 1.02381C17.3223 0.904006 17.8564 1.24394 17.9762 1.78307L18.9278 6.06517C18.981 6.13528 19.0466 6.22317 19.1213 6.32589C19.3192 6.59807 19.5846 6.97939 19.8517 7.4134C20.1171 7.84457 20.3949 8.3452 20.6092 8.85413C20.8166 9.34669 21.0001 9.92882 21.0001 10.5C21.0001 11.4738 20.6761 12.2701 20.3683 12.8086C20.2591 12.9997 20.1496 13.1627 20.0523 13.2949L20.99 19.8586C21.0553 20.3154 20.7995 20.7575 20.371 20.9286C17.1034 22.234 14.4857 22.9029 11.8656 22.8912C9.24465 22.8795 6.71371 22.1869 3.62238 20.9259C3.19764 20.7527 2.94524 20.3127 3.01011 19.8586L3.94778 13.2949C3.85054 13.1627 3.74099 12.9997 3.63182 12.8086C3.32406 12.2701 3.00006 11.4738 3.00006 10.5C3.00006 9.92882 3.18353 9.34669 3.39092 8.85413C3.60521 8.3452 3.88306 7.84457 4.1484 7.4134C4.41549 6.97939 4.68087 6.59807 4.87882 6.32589C4.95353 6.22317 5.01915 6.13528 5.07229 6.06517L6.02387 1.78307C6.14368 1.24394 6.67786 0.904006 7.21699 1.02381ZM6.36264 7.68884C6.20902 7.90661 6.02987 8.17209 5.85172 8.4616C5.61705 8.84293 5.39491 9.24855 5.23419 9.63025C5.06659 10.0283 5.00006 10.3212 5.00006 10.5C5.00006 11.0262 5.17605 11.4799 5.3683 11.8164C5.46324 11.9825 5.55741 12.1115 5.62468 12.1956C5.65807 12.2374 5.68408 12.2671 5.69919 12.2838C5.70645 12.2919 5.71112 12.2968 5.71279 12.2986C5.93149 12.5208 6.03414 12.8325 5.99001 13.1414L5.10131 19.3623C7.73379 20.3844 9.80559 20.882 11.8746 20.8912C13.9525 20.9005 16.106 20.4176 18.898 19.3565L18.0101 13.1414C17.966 12.8325 18.0686 12.5208 18.2873 12.2986C18.289 12.2968 18.2936 12.2919 18.3009 12.2838C18.316 12.2671 18.3421 12.2374 18.3754 12.1956C18.4427 12.1115 18.5369 11.9825 18.6318 11.8164C18.8241 11.4799 19.0001 11.0262 19.0001 10.5C19.0001 10.3212 18.9335 10.0283 18.7659 9.63025C18.6052 9.24855 18.3831 8.84293 18.1484 8.4616C17.9702 8.17209 17.7911 7.90661 17.6375 7.68884C13.8846 8.93706 10.1155 8.93706 6.36264 7.68884Z" fill="#000640"/>
</svg>
