<svg width="24" height="24" viewBox="0 0 24 24" fill="none" xmlns="http://www.w3.org/2000/svg">
<g clip-path="url(#clip0_1253_6373)">
<path fill-rule="evenodd" clip-rule="evenodd" d="M17.0832 20.5153C19.2873 19.3808 21.1208 17.5028 22.1525 15.0532C23.321 12.2789 23.2395 9.29691 22.1645 6.724C21.0896 4.15133 19.0206 1.98491 16.2188 0.834352C13.4176 -0.315985 10.4081 -0.235792 7.81001 0.822567C5.21179 1.881 3.01564 3.92184 1.84746 6.69549C0.679027 9.46975 0.760528 12.4517 1.83549 15.0246C2.84379 17.438 4.72693 19.4939 7.26914 20.689L6.55912 22.6613C6.44882 22.9677 6.49461 23.3086 6.68186 23.575C6.86911 23.8414 7.17436 24 7.50001 24H17C17.3318 24 17.642 23.8354 17.8281 23.5606C18.0141 23.2859 18.0517 22.9367 17.9285 22.6286L17.0832 20.5153ZM12.0037 8.2892L9.52049 2.34571C11.1099 1.89515 12.8326 1.87229 14.5042 2.35224L12.0037 8.2892ZM13.8588 9.03733L16.3551 3.1102C17.8808 3.93963 19.0794 5.15926 19.8768 6.58578L13.8588 9.03733ZM14.6415 10.878L20.6497 8.4305C21.1062 9.99709 21.1294 11.6949 20.6431 13.3426L14.6415 10.878ZM16.3363 18.6482C17.7857 17.8635 19.0226 16.6837 19.8649 15.1851L13.9853 12.7706L16.3363 18.6482ZM7.95024 18.797L10.1411 12.7114L4.1232 15.1629C4.97309 16.6832 6.27868 17.9686 7.95024 18.797ZM4.13515 6.56359L10.1466 9.03218L7.66745 3.09846C6.21641 3.88314 4.97809 5.06365 4.13515 6.56359ZM9.35846 10.8706L3.35695 8.40609C2.87058 10.0538 2.89376 11.7516 3.35029 13.3181L9.35846 10.8706ZM8.92283 22L12.0492 13.3156L15.523 22H8.92283Z" fill="#000640"/>
</g>
<defs>
<clipPath id="clip0_1253_6373">
<rect width="24" height="24" fill="white"/>
</clipPath>
</defs>
</svg>
