<svg width="24" height="24" viewBox="0 0 24 24" fill="none" xmlns="http://www.w3.org/2000/svg">
<path d="M16 15C16 15.5523 15.5523 16 15 16H13V18C13 18.5523 12.5523 19 12 19C11.4477 19 11 18.5523 11 18V16H9C8.44771 16 8 15.5523 8 15C8 14.4477 8.44772 14 9 14H11V12C11 11.4477 11.4477 11 12 11C12.5523 11 13 11.4477 13 12V14H15C15.5523 14 16 14.4477 16 15Z" fill="#000640"/>
<path fill-rule="evenodd" clip-rule="evenodd" d="M2 4C2 2.34315 3.34315 1 5 1H14C14.2652 1 14.5196 1.10536 14.7071 1.29289L21.7071 8.29289C21.8946 8.48043 22 8.73478 22 9V20C22 21.6569 20.6569 23 19 23H5C3.34315 23 2 21.6569 2 20V4ZM5 3C4.44772 3 4 3.44772 4 4V20C4 20.5523 4.44772 21 5 21H19C19.5523 21 20 20.5523 20 20V10H16C14.3431 10 13 8.65685 13 7V3H5ZM15 4.41421L18.5858 8H16C15.4477 8 15 7.55228 15 7V4.41421Z" fill="#000640"/>
</svg>
