<svg width="24" height="24" viewBox="0 0 24 24" fill="none" xmlns="http://www.w3.org/2000/svg">
<path d="M1 6C1 5.44772 1.44772 5 2 5H22C22.5523 5 23 5.44772 23 6C23 6.55229 22.5523 7 22 7L2 7C1.44772 7 1 6.55228 1 6Z" fill="#000640"/>
<path d="M19 13L5 13C4.44772 13 4 12.5523 4 12C4 11.4477 4.44772 11 5 11L19 11C19.5523 11 20 11.4477 20 12C20 12.5523 19.5523 13 19 13Z" fill="#000640"/>
<path d="M8 17C7.44772 17 7 17.4477 7 18C7 18.5523 7.44771 19 8 19L16 19C16.5523 19 17 18.5523 17 18C17 17.4477 16.5523 17 16 17L8 17Z" fill="#000640"/>
</svg>
