<svg width="24" height="24" viewBox="0 0 24 24" fill="none" xmlns="http://www.w3.org/2000/svg">
<path fill-rule="evenodd" clip-rule="evenodd" d="M1.12339 2.51879C1.29903 2.19885 1.63502 2 2 2H22C22.365 2 22.701 2.19885 22.8766 2.51879C23.0522 2.83874 23.0396 3.22895 22.8437 3.53688L16 14.2912V18C16 18.3788 15.786 18.725 15.4472 18.8944L9.44721 21.8944C9.13723 22.0494 8.76909 22.0329 8.47427 21.8507C8.17945 21.6684 8 21.3466 8 21V14.2912L1.15634 3.53688C0.96039 3.22895 0.947763 2.83874 1.12339 2.51879ZM3.82167 4L9.84366 13.4631C9.94577 13.6236 10 13.8098 10 14V19.382L14 17.382V14C14 13.8098 14.0542 13.6236 14.1563 13.4631L20.1783 4H3.82167Z" fill="#000640"/>
</svg>
