<svg width="24" height="24" viewBox="0 0 24 24" fill="none" xmlns="http://www.w3.org/2000/svg">
<path d="M4.29292 8.29287L8.29286 4.29287C8.68338 3.90234 9.31654 3.90234 9.70707 4.29286C10.0976 4.68338 10.0976 5.31654 9.70708 5.70707L5.70714 9.70707C5.31662 10.0976 4.68346 10.0976 4.29293 9.70708C3.9024 9.31656 3.9024 8.68339 4.29292 8.29287Z" fill="#000640"/>
<path d="M1.79289 5.79289L5.79289 1.79289C6.18342 1.40237 6.81658 1.40237 7.20711 1.79289C7.59763 2.18342 7.59763 2.81658 7.20711 3.20711L3.20711 7.20711C2.81658 7.59763 2.18342 7.59763 1.79289 7.20711C1.40237 6.81658 1.40237 6.18342 1.79289 5.79289Z" fill="#000640"/>
<path fill-rule="evenodd" clip-rule="evenodd" d="M12 7C9.23861 7 7.00003 9.23858 7.00003 12C7.00003 14.7614 9.23861 17 12 17C14.7615 17 17 14.7614 17 12C17 9.23858 14.7615 7 12 7ZM9.00003 12C9.00003 10.3431 10.3432 9 12 9C13.6569 9 15 10.3431 15 12C15 13.6569 13.6569 15 12 15C10.3432 15 9.00003 13.6569 9.00003 12Z" fill="#000640"/>
<path d="M15 23C15.5523 23 16 22.5523 16 22C16 21.4477 15.5523 21 15 21H8.99991C8.44763 21 7.99991 21.4477 7.99991 22C7.99991 22.5523 8.44763 23 8.99991 23H15Z" fill="#000640"/>
<path d="M15 18H8.99991C8.44763 18 7.99991 18.4477 7.99991 19C7.99991 19.5523 8.44763 20 8.99991 20H15C15.5523 20 16 19.5523 16 19C16 18.4477 15.5523 18 15 18Z" fill="#000640"/>
<path fill-rule="evenodd" clip-rule="evenodd" d="M14.293 5.70724L18.293 9.70717C18.6835 10.0977 19.3166 10.0977 19.7072 9.70717L22.2071 7.2072C22.5977 6.81668 22.5977 6.18351 22.2071 5.79299L18.2071 1.79299C18.0196 1.60545 17.7652 1.50009 17.5 1.50009C17.2348 1.5001 16.9804 1.60546 16.7929 1.793L14.2929 4.29303C13.9024 4.68355 13.9024 5.31672 14.293 5.70724ZM20.0858 6.50009L19.0001 7.58585L16.4143 5.00011L17.5 3.91432L20.0858 6.50009Z" fill="#000640"/>
</svg>
