<svg width="24" height="24" viewBox="0 0 24 24" fill="none" xmlns="http://www.w3.org/2000/svg">
<path fill-rule="evenodd" clip-rule="evenodd" d="M13.6191 1.36923C13.4406 1.14965 13.1774 1.01597 12.8948 1.00133C12.6123 0.986695 12.336 1.09313 12.1358 1.29309L12.1351 1.29382L12.1334 1.2955L12.1292 1.2997L12.1177 1.31147C12.1086 1.32082 12.0967 1.33316 12.0823 1.34847C12.0534 1.37909 12.0142 1.4216 11.9662 1.47577C11.8703 1.58406 11.7393 1.73929 11.5862 1.93956C11.2804 2.33957 10.884 2.92267 10.5041 3.67349C10.0583 4.55458 9.63359 5.67019 9.40679 6.99109C9.16028 6.59882 8.93923 6.23724 8.77584 5.96699C8.68732 5.82058 8.61593 5.70131 8.56683 5.61892L8.51059 5.52429L8.49173 5.49239C8.27653 5.1271 7.85436 4.93722 7.43826 5.01858C7.02216 5.09993 6.70258 5.43485 6.64081 5.85431C6.45486 7.11708 5.8034 8.19539 5.01262 9.474L4.97141 9.54062C4.22501 10.747 3.35789 12.1485 3.1066 13.8542C2.65748 16.9028 3.66175 19.2499 5.47337 20.8022C7.23919 22.3153 9.68062 23 12.0479 23C14.4229 23 16.6749 22.3295 18.3439 20.8106C20.0291 19.277 20.9999 16.9873 20.9999 14C20.9999 11.2426 20.1297 9.29039 18.7525 7.40928C18.0798 6.49039 17.2814 5.5817 16.4233 4.61673L16.1907 4.35541C15.3901 3.45595 14.5295 2.48925 13.6191 1.36923ZM12.2886 4.5765C12.4836 4.19126 12.6828 3.86117 12.864 3.58996C13.5108 4.35292 14.126 5.04392 14.695 5.68307L14.9287 5.94576C15.7936 6.91829 16.5303 7.7596 17.1388 8.5907C18.3239 10.2096 18.9999 11.7574 18.9999 14C18.9999 16.5356 18.1906 18.2459 16.9977 19.3315C16.4741 19.808 15.8539 20.1848 15.1552 20.4587C15.6845 19.7804 15.9999 18.927 15.9999 18C15.9999 16.2756 15.4251 14.8249 14.6886 13.7938C14.3214 13.2797 13.902 12.853 13.4717 12.5456C13.066 12.2559 12.5484 12 11.9999 12C11.4514 12 10.9337 12.2559 10.528 12.5456C10.0978 12.853 9.67833 13.2797 9.31114 13.7938C8.57463 14.8249 7.99988 16.2756 7.99988 18C7.99988 18.9286 8.31632 19.7833 8.84724 20.4622C8.06463 20.178 7.35816 19.7834 6.77473 19.2835C5.50764 18.1978 4.7318 16.5449 5.08525 14.1457C5.27129 12.8829 5.92281 11.8046 6.71359 10.526L6.75468 10.4596C7.14605 9.827 7.57061 9.14077 7.92218 8.38518C8.44213 9.2009 9.07044 10.1403 9.53134 10.662C9.81729 10.9857 10.2787 11.0893 10.6756 10.9188C11.0724 10.7483 11.3149 10.3423 11.2769 9.91202C11.0759 7.63632 11.6579 5.82291 12.2886 4.5765ZM9.99988 18C9.99988 16.7244 10.4251 15.6751 10.9386 14.9562C11.1964 14.5953 11.4645 14.3345 11.6905 14.1731C11.8624 14.0503 11.9669 14.0145 11.9999 14.0042C12.0329 14.0145 12.1374 14.0503 12.3093 14.1731C12.5353 14.3345 12.8033 14.5953 13.0611 14.9562C13.5746 15.6751 13.9999 16.7244 13.9999 18C13.9999 19.1046 13.1044 20 11.9999 20C10.8953 20 9.99988 19.1046 9.99988 18Z" fill="#000640"/>
</svg>
