<svg width="24" height="24" viewBox="0 0 24 24" fill="none" xmlns="http://www.w3.org/2000/svg">
<path d="M15 15.9999C15.5523 15.9999 16 15.5522 16 14.9999C16 14.4476 15.5523 13.9999 15 13.9999H13V12C13 11.4477 12.5523 11 12 11C11.4477 11 11 11.4477 11 12V13.9999H9C8.44772 13.9999 8 14.4476 8 14.9999C8 15.5522 8.44771 15.9999 9 15.9999H11V18C11 18.5523 11.4477 19 12 19C12.5523 19 13 18.5523 13 18V15.9999H15Z" fill="#000640"/>
<path fill-rule="evenodd" clip-rule="evenodd" d="M7 7V6C7 3.23858 9.23858 1 12 1C14.7575 1 16.9936 3.23221 17 5.98827L17 6L17 6.0048L17 6.99999C17 6.99999 17 6.99999 17 6.99999L19 7C20.6569 7 22 8.34315 22 10V20C22 21.6569 20.6569 23 19 23H5C3.34315 23 2 21.6569 2 20V10C2 8.34315 3.34315 7 5 7H7ZM9 6C9 4.34315 10.3431 3 12 3C13.6541 3 14.9956 4.33871 15 5.99174L15 5.99288L15 7H9V6ZM4 10C4 9.44772 4.44772 9 5 9H19C19.5523 9 20 9.44772 20 10V20C20 20.5523 19.5523 21 19 21H5C4.44772 21 4 20.5523 4 20V10Z" fill="#000640"/>
</svg>
