<svg width="24" height="24" viewBox="0 0 24 24" fill="none" xmlns="http://www.w3.org/2000/svg">
<path fill-rule="evenodd" clip-rule="evenodd" d="M11 1.99998C11 1.52061 10.6598 1.10867 10.1891 1.01802C9.71839 0.927368 9.24956 1.1835 9.07153 1.62859L1.07153 21.6286C0.948292 21.9367 0.985907 22.2858 1.17194 22.5606C1.35797 22.8354 1.66818 23 2 23H10C10.5523 23 11 22.5523 11 22V1.99998ZM9 21H3.47704L9 7.19256V21Z" fill="#000640"/>
<path fill-rule="evenodd" clip-rule="evenodd" d="M13 1.99998C13 1.52061 13.3402 1.10867 13.8109 1.01802C14.2816 0.927368 14.7504 1.1835 14.9285 1.62859L22.9285 21.6286C23.0517 21.9367 23.0141 22.2858 22.8281 22.5606C22.642 22.8354 22.3318 23 22 23H14C13.4477 23 13 22.5523 13 22V1.99998ZM15 8.99998H15.723L15 7.19256V8.99998ZM16.523 11H15V13H17.323L16.523 11ZM18.123 15H15V17H18.923L18.123 15ZM19.723 19H15V21H20.523L19.723 19Z" fill="#000640"/>
</svg>
