<svg width="24" height="24" viewBox="0 0 24 24" fill="none" xmlns="http://www.w3.org/2000/svg">
<path fill-rule="evenodd" clip-rule="evenodd" d="M8.14312 1.85097C6.98318 1.66762 5.96002 1.80906 5.09223 2.31033C4.23707 2.80431 3.64766 3.58173 3.21993 4.45682C2.40534 6.12337 2.03501 8.46734 1.66329 10.8201L1.64314 10.9477C1.25048 13.4318 1.09416 15.8348 1.48075 17.7207C1.67573 18.6718 2.02173 19.5581 2.60561 20.2577C3.20671 20.9778 4.0172 21.4471 5.02051 21.6057C6.02383 21.7643 6.93955 21.5679 7.73346 21.0682C8.50464 20.5829 9.10714 19.8465 9.58597 19.0018C10.5354 17.3271 11.1278 14.9931 11.5205 12.509L11.5407 12.3815C11.9127 10.0287 12.2834 7.68479 12.0226 5.84825C11.8856 4.88389 11.5647 3.96258 10.9036 3.22892C10.2327 2.48444 9.30306 2.03432 8.14312 1.85097ZM6.69674 5.11358C5.72676 6.65592 4.96704 7.63875 4.08253 8.52153C4.33041 7.24054 4.61232 6.16255 5.01677 5.33509C5.33719 4.67954 5.69436 4.27221 6.09262 4.04216C6.47825 3.8194 7.01533 3.69753 7.83086 3.82644C8.64639 3.95535 9.1197 4.23693 9.41782 4.56777C9.72571 4.90944 9.93983 5.40708 10.0424 6.1295C10.1741 7.05645 10.1055 8.19063 9.94034 9.51319C9.34156 8.35791 8.94244 7.17401 8.51513 5.41047C8.42047 5.0198 8.1011 4.72379 7.70439 4.65902C7.30767 4.59425 6.91074 4.77331 6.69674 5.11358ZM7.15816 7.99824C7.71506 9.7174 8.37893 10.9843 9.48068 12.5909C9.10097 14.8433 8.57062 16.7375 7.84611 18.0155C7.46704 18.6841 7.06809 19.1238 6.66816 19.3755C6.29097 19.6129 5.86594 19.7145 5.33278 19.6302C4.79961 19.5459 4.42663 19.3182 4.14105 18.9761C3.83825 18.6133 3.59436 18.072 3.44001 17.319C3.14441 15.877 3.22506 13.9066 3.56025 11.6412C5.02657 10.4607 6.04649 9.49979 7.15816 7.99824Z" fill="#000640"/>
<path fill-rule="evenodd" clip-rule="evenodd" d="M16.5119 2.03848C15.3421 2.14148 14.3837 2.52649 13.6631 3.22299C12.953 3.90936 12.5694 4.80638 12.3664 5.75901C11.9796 7.57322 12.1879 9.9371 12.397 12.3099L12.4084 12.4385C12.629 14.9438 13.0592 17.3131 13.891 19.0492C14.3105 19.9248 14.8609 20.701 15.5968 21.2383C16.3544 21.7914 17.2544 22.0505 18.2662 21.9614C19.2781 21.8723 20.119 21.46 20.7683 20.7829C21.399 20.1253 21.8052 19.2649 22.0652 18.3294C22.5808 16.4746 22.5904 14.0666 22.3698 11.5614L22.3585 11.4327C22.1497 9.05992 21.9418 6.69601 21.2439 4.9773C20.8775 4.07482 20.343 3.25864 19.5239 2.70692C18.6928 2.14706 17.6818 1.93547 16.5119 2.03848ZM15.8987 5.55424C15.3311 7.28557 14.832 8.42313 14.1876 9.49383C14.1179 8.19094 14.1304 7.07677 14.3224 6.176C14.4745 5.46236 14.7224 4.98066 15.0531 4.66101C15.3733 4.3515 15.8649 4.10319 16.6874 4.03077C17.5099 3.95835 18.0373 4.11692 18.4066 4.36572C18.7881 4.62266 19.1164 5.05363 19.3909 5.7297C19.7431 6.59718 19.9511 7.71422 20.1112 9.0374C19.2505 8.06151 18.5765 7.00951 17.7349 5.40194C17.5484 5.04583 17.1669 4.83597 16.7663 4.8692C16.3657 4.90242 16.0239 5.17228 15.8987 5.55424ZM17.045 8.24129C18.0016 9.77442 18.9525 10.8428 20.4106 12.1348C20.5876 14.4121 20.5318 16.3784 20.1383 17.7938C19.9324 18.5343 19.6518 19.0576 19.3248 19.3986C19.0163 19.7203 18.6285 19.9218 18.0908 19.9691C17.5531 20.0164 17.1361 19.8858 16.7761 19.623C16.3945 19.3444 16.0268 18.8782 15.6947 18.1851C15.0587 16.8575 14.6598 14.9263 14.4364 12.6471C15.5732 11.1467 16.33 9.96737 17.045 8.24129Z" fill="#000640"/>
</svg>
