<svg width="24" height="24" viewBox="0 0 24 24" fill="none" xmlns="http://www.w3.org/2000/svg">
<path d="M16 14C16 14.5523 15.5523 15 15 15H13V17C13 17.5523 12.5523 18 12 18C11.4477 18 11 17.5523 11 17V15H9C8.44771 15 8 14.5523 8 14C8 13.4477 8.44772 13 9 13H11V11C11 10.4477 11.4477 10 12 10C12.5523 10 13 10.4477 13 11V13H15C15.5523 13 16 13.4477 16 14Z" fill="#000640"/>
<path fill-rule="evenodd" clip-rule="evenodd" d="M1 5C1 3.34315 2.34315 2 4 2H10C10.3344 2 10.6466 2.1671 10.8321 2.4453L12.5352 5H20C21.6569 5 23 6.34315 23 8V19C23 20.6569 21.6569 22 20 22H4C2.34315 22 1 20.6569 1 19V5ZM4 4C3.44772 4 3 4.44772 3 5V19C3 19.5523 3.44772 20 4 20H20C20.5523 20 21 19.5523 21 19V8C21 7.44772 20.5523 7 20 7H12C11.6656 7 11.3534 6.8329 11.1679 6.5547L9.46482 4H4Z" fill="#000640"/>
</svg>
