<svg width="24" height="24" viewBox="0 0 24 24" fill="none" xmlns="http://www.w3.org/2000/svg">
<path d="M15 15C15.5523 15 16 14.5523 16 14C16 13.4477 15.5523 13 15 13L9 13C8.44772 13 8 13.4477 8 14C8 14.5523 8.44771 15 9 15H15Z" fill="#000640"/>
<path fill-rule="evenodd" clip-rule="evenodd" d="M4 2C2.34315 2 1 3.34315 1 5V19C1 20.6569 2.34315 22 4 22H20C21.6569 22 23 20.6569 23 19V8C23 6.34315 21.6569 5 20 5H12.5352L10.8321 2.4453C10.6466 2.1671 10.3344 2 10 2H4ZM3 5C3 4.44772 3.44772 4 4 4H9.46482L11.1679 6.5547C11.3534 6.8329 11.6656 7 12 7H20C20.5523 7 21 7.44772 21 8V19C21 19.5523 20.5523 20 20 20H4C3.44772 20 3 19.5523 3 19V5Z" fill="#000640"/>
</svg>
