<svg width="24" height="24" viewBox="0 0 24 24" fill="none" xmlns="http://www.w3.org/2000/svg">
<path d="M17.7071 11.7071C18.0976 11.3166 18.0976 10.6834 17.7071 10.2929C17.3166 9.90237 16.6834 9.90237 16.2929 10.2929L11 15.5858L8.70711 13.2929C8.31658 12.9024 7.68342 12.9024 7.29289 13.2929C6.90237 13.6834 6.90237 14.3166 7.29289 14.7071L10.2929 17.7071C10.6834 18.0976 11.3166 18.0976 11.7071 17.7071L17.7071 11.7071Z" fill="#000640"/>
<path fill-rule="evenodd" clip-rule="evenodd" d="M4 2C2.34315 2 1 3.34315 1 5V19C1 20.6569 2.34315 22 4 22H20C21.6569 22 23 20.6569 23 19V8C23 6.34315 21.6569 5 20 5H12.5352L10.8321 2.4453C10.6466 2.1671 10.3344 2 10 2H4ZM3 5C3 4.44772 3.44772 4 4 4H9.46482L11.1679 6.5547C11.3534 6.8329 11.6656 7 12 7H20C20.5523 7 21 7.44772 21 8V19C21 19.5523 20.5523 20 20 20H4C3.44772 20 3 19.5523 3 19V5Z" fill="#000640"/>
</svg>
