<svg width="24" height="24" viewBox="0 0 24 24" fill="none" xmlns="http://www.w3.org/2000/svg">
<path d="M2 3C1.44772 3 1 3.44772 1 4V6C1 6.55228 1.44772 7 2 7C2.55228 7 3 6.55228 3 6V5H7V19H5C4.44772 19 4 19.4477 4 20C4 20.5523 4.44772 21 5 21H11C11.5523 21 12 20.5523 12 20C12 19.4477 11.5523 19 11 19H9V5H13V6C13 6.55228 13.4477 7 14 7C14.5523 7 15 6.55228 15 6V4C15 3.44772 14.5523 3 14 3H2Z" fill="#000640"/>
<path d="M14 10C13.4477 10 13 10.4477 13 11V12.5C13 13.0523 13.4477 13.5 14 13.5C14.5523 13.5 15 13.0523 15 12.5V12H17V19H16.5C15.9477 19 15.5 19.4477 15.5 20C15.5 20.5523 15.9477 21 16.5 21H19.5C20.0523 21 20.5 20.5523 20.5 20C20.5 19.4477 20.0523 19 19.5 19H19V12H21V12.5C21 13.0523 21.4477 13.5 22 13.5C22.5523 13.5 23 13.0523 23 12.5V11C23 10.4477 22.5523 10 22 10H14Z" fill="#000640"/>
</svg>
