<svg width="24" height="24" viewBox="0 0 24 24" fill="none" xmlns="http://www.w3.org/2000/svg">
<path d="M10 3C9.44771 3 9 3.44772 9 4V6C9 6.55228 9.44771 7 10 7C10.5523 7 11 6.55228 11 6V5H15V19H13C12.4477 19 12 19.4477 12 20C12 20.5523 12.4477 21 13 21H19C19.5523 21 20 20.5523 20 20C20 19.4477 19.5523 19 19 19H17V5H21V6C21 6.55228 21.4477 7 22 7C22.5523 7 23 6.55228 23 6V4C23 3.44772 22.5523 3 22 3H10Z" fill="#000640"/>
<path d="M2 10C1.44772 10 1 10.4477 1 11V12.5C1 13.0523 1.44772 13.5 2 13.5C2.55228 13.5 3 13.0523 3 12.5V12H5V19H4.5C3.94772 19 3.5 19.4477 3.5 20C3.5 20.5523 3.94772 21 4.5 21H7.5C8.05228 21 8.5 20.5523 8.5 20C8.5 19.4477 8.05228 19 7.5 19H7V12H9V12.5C9 13.0523 9.44772 13.5 10 13.5C10.5523 13.5 11 13.0523 11 12.5V11C11 10.4477 10.5523 10 10 10H2Z" fill="#000640"/>
</svg>
