<svg width="24" height="24" viewBox="0 0 24 24" fill="none" xmlns="http://www.w3.org/2000/svg">
<path fill-rule="evenodd" clip-rule="evenodd" d="M15 5V5.42338C17.7094 6.23005 19.6659 8.09992 20.9538 10.3002C22.3567 12.6968 23 15.5329 23 18C23 18.5523 22.5523 19 22 19H2C1.73478 19 1.48043 18.8946 1.29289 18.7071C1.10536 18.5196 1 18.2652 1 18C1 15.5329 1.64334 12.6968 3.04616 10.3002C4.33406 8.09992 6.2906 6.23005 9 5.42338V5C9 3.34314 10.3431 2 12 2C13.6569 2 15 3.34315 15 5ZM11 5C11 4.44771 11.4477 4 12 4C12.5523 4 13 4.44772 13 5V5.04398C12.6741 5.01487 12.3408 5 12 5C11.6592 5 11.3259 5.01487 11 5.04398V5ZM10.2049 7.17995C10.7617 7.06339 11.3592 7 12 7C12.6408 7 13.2383 7.06339 13.7951 7.17995C16.245 7.69283 18.0323 9.26808 19.2278 11.3105C20.2486 13.0544 20.8128 15.1035 20.9605 17H3.03949C3.18717 15.1035 3.75142 13.0544 4.77221 11.3105C5.96771 9.26808 7.75495 7.69283 10.2049 7.17995Z" fill="#000640"/>
<path d="M2 20C1.44772 20 1 20.4477 1 21C1 21.5523 1.44772 22 2 22H22C22.5523 22 23 21.5523 23 21C23 20.4477 22.5523 20 22 20H2Z" fill="#000640"/>
</svg>
