<svg width="24" height="24" viewBox="0 0 24 24" fill="none" xmlns="http://www.w3.org/2000/svg">
<path fill-rule="evenodd" clip-rule="evenodd" d="M11 3C8.79086 3 7 4.79086 7 7C7 7.13543 7.02751 7.26944 7.08085 7.39392L10.0809 14.3939C10.2384 14.7616 10.6 15 11 15C11.4 15 11.7616 14.7616 11.9191 14.3939L14.9191 7.39392C14.9725 7.26944 15 7.13543 15 7C15 4.79086 13.2091 3 11 3ZM11 5C11.7403 5 12.3866 5.4022 12.7324 6H9.26756C9.61337 5.4022 10.2597 5 11 5ZM11 11.4614L9.51654 8H12.4835L11 11.4614Z" fill="#000640"/>
<path fill-rule="evenodd" clip-rule="evenodd" d="M2 7C2 6.44772 2.44772 6 3 6H5C5.55228 6 6 5.55228 6 5C6 4.44772 5.55228 4 5 4H3C1.34315 4 0 5.34315 0 7V18C0 18.5523 0.447715 19 1 19H3.17071C3.58254 20.1652 4.69378 21 6 21C7.30622 21 8.41746 20.1652 8.82929 19H15.1707C15.5825 20.1652 16.6938 21 18 21C19.3062 21 20.4175 20.1652 20.8293 19H23C23.5523 19 24 18.5523 24 18V13C24 12.6212 23.786 12.275 23.4472 12.1056L21.8407 11.3023L20.376 6.17584C20.008 4.88793 18.8308 4 17.4914 4H17C16.4477 4 16 4.44772 16 5C16 5.55228 16.4477 6 17 6H17.4914C17.9379 6 18.3303 6.29598 18.4529 6.72528L20.0385 12.2747C20.1155 12.5442 20.3021 12.7691 20.5528 12.8944L22 13.618V17H20.8293C20.4175 15.8348 19.3062 15 18 15C16.6938 15 15.5825 15.8348 15.1707 17H8.82929C8.41746 15.8348 7.30622 15 6 15C4.69378 15 3.58254 15.8348 3.17071 17H2V7ZM5 18C5 17.4477 5.44772 17 6 17C6.55228 17 7 17.4477 7 18C7 18.5523 6.55228 19 6 19C5.44772 19 5 18.5523 5 18ZM17 18C17 17.4477 17.4477 17 18 17C18.5523 17 19 17.4477 19 18C19 18.5523 18.5523 19 18 19C17.4477 19 17 18.5523 17 18Z" fill="#000640"/>
</svg>
