<svg width="24" height="24" viewBox="0 0 24 24" fill="none" xmlns="http://www.w3.org/2000/svg">
<g clip-path="url(#clip0_1253_5719)">
<path fill-rule="evenodd" clip-rule="evenodd" d="M12 10.1315L7.5547 7.16795C7.24784 6.96338 6.8533 6.94431 6.52814 7.11833C6.20298 7.29235 6 7.63121 6 8L6 16C6 16.3688 6.20298 16.7077 6.52814 16.8817C6.8533 17.0557 7.24784 17.0366 7.5547 16.8321L12 13.8685V16C12 16.3688 12.203 16.7077 12.5281 16.8817C12.8533 17.0557 13.2478 17.0366 13.5547 16.8321L19.5547 12.8321C19.8329 12.6466 20 12.3344 20 12C20 11.6657 19.8329 11.3534 19.5547 11.168L13.5547 7.16795C13.2478 6.96338 12.8533 6.94431 12.5281 7.11833C12.203 7.29235 12 7.63121 12 8V10.1315ZM14 12L14 14.1315L17.1972 12L14 9.86852V12ZM8 9.86852L8 14.1315L11.1972 12L8 9.86852Z" fill="#000640"/>
<path fill-rule="evenodd" clip-rule="evenodd" d="M12 24C18.6274 24 24 18.6274 24 12C24 5.37258 18.6274 0 12 0C5.37258 0 0 5.37258 0 12C0 18.6274 5.37258 24 12 24ZM12 22C17.5228 22 22 17.5228 22 12C22 6.47715 17.5228 2 12 2C6.47715 2 2 6.47715 2 12C2 17.5228 6.47715 22 12 22Z" fill="#000640"/>
</g>
<defs>
<clipPath id="clip0_1253_5719">
<rect width="24" height="24" fill="white"/>
</clipPath>
</defs>
</svg>
