<svg width="24" height="24" viewBox="0 0 24 24" fill="none" xmlns="http://www.w3.org/2000/svg">
<path fill-rule="evenodd" clip-rule="evenodd" d="M6 2C6 1.44772 5.55228 1 5 1C4.44772 1 4 1.44772 4 2V4H2C1.44772 4 1 4.44772 1 5C1 5.55228 1.44772 6 2 6H4V18H2C1.44772 18 1 18.4477 1 19C1 19.5523 1.44772 20 2 20H4V22C4 22.5523 4.44772 23 5 23C5.55228 23 6 22.5523 6 22V20H18V22C18 22.5523 18.4477 23 19 23C19.5523 23 20 22.5523 20 22V20H22C22.5523 20 23 19.5523 23 19C23 18.4477 22.5523 18 22 18H20V6H22C22.5523 6 23 5.55228 23 5C23 4.44772 22.5523 4 22 4H20V2C20 1.44772 19.5523 1 19 1C18.4477 1 18 1.44772 18 2V4H6V2ZM18 18V6H6V18H18Z" fill="#000640"/>
</svg>
