<svg width="24" height="24" viewBox="0 0 24 24" fill="none" xmlns="http://www.w3.org/2000/svg">
<path fill-rule="evenodd" clip-rule="evenodd" d="M10 1C9.44772 1 9 1.44772 9 2V3H6C5.44772 3 5 3.44772 5 4V5.46492L4.2265 5.98059C2.83551 6.90792 2 8.46908 2 10.1408V11.0001C2 11.0601 2.0054 11.12 2.01613 11.179L3.71754 20.5368C3.9769 21.9632 5.21929 23.0001 6.66915 23.0001H17.3308C18.7807 23.0001 20.0231 21.9632 20.2825 20.5368L21.9839 11.179C21.9946 11.12 22 11.0601 22 11.0001V10.1408C22 8.46908 21.1645 6.90792 19.7735 5.98059L19 5.46492V5C19 4.44772 18.5523 4 18 4H15V2C15 1.44772 14.5523 1 14 1H10ZM16.9999 6C16.9999 6.0046 16.9999 6.00919 17 6.01378V11.1972C16.3079 11.3725 15.6447 11.5132 15 11.6199V6H16.9999ZM13 11.8461V3H11V11.8461C11.3351 11.8655 11.6679 11.8751 12 11.8751C12.3321 11.8751 12.6649 11.8655 13 11.8461ZM9 11.6199V5H7V5.98459C7.00014 5.99433 7.00014 6.00406 7 6.01378V11.1972C7.6921 11.3725 8.35535 11.5132 9 11.6199ZM5 10.6219V7.90472C4.36865 8.46931 4 9.28067 4 10.1408V10.2908C4.34104 10.4078 4.6741 10.5182 5 10.6219ZM19 10.6219V7.90472C19.6313 8.46931 20 9.28067 20 10.1408V10.2908C19.659 10.4078 19.3259 10.5182 19 10.6219ZM12 13.8751C14.4541 13.8751 16.8807 13.403 19.712 12.4941L18.3147 20.179C18.2283 20.6545 17.8141 21.0001 17.3308 21.0001H6.66915C6.18587 21.0001 5.77174 20.6545 5.68528 20.179L4.28803 12.4941C7.11928 13.403 9.54587 13.8751 12 13.8751Z" fill="#000640"/>
</svg>
