<svg width="24" height="24" viewBox="0 0 24 24" fill="none" xmlns="http://www.w3.org/2000/svg">
<path d="M6 12C5.44772 12 5 12.4477 5 13C5 13.5523 5.44772 14 6 14H8C8.55228 14 9 13.5523 9 13C9 12.4477 8.55228 12 8 12H6Z" fill="#000640"/>
<path fill-rule="evenodd" clip-rule="evenodd" d="M18.0528 1.10555C18.5468 0.858558 19.1474 1.05878 19.3944 1.55276L22.8944 8.55276C22.987 8.73797 23.0199 8.94737 22.9884 9.15203L21.2493 20.4561C21.0241 21.9196 19.7649 23 18.2842 23H18C16.3431 23 15 21.6568 15 20V15C15 14.4477 14.5523 14 14 14H13V20C13 21.6569 11.6569 23 10 23H4C2.34315 23 1 21.6569 1 20V4C1 2.34315 2.34315 1 4 1H10C11.6569 1 13 2.34315 13 4V12H14C15.6569 12 17 13.3431 17 15V20C17 20.5523 17.4477 21 18 21H18.2842C18.7777 21 19.1975 20.6399 19.2725 20.152L20.8344 9.99998H18.5616C16.6098 9.99998 15.1778 8.16581 15.6511 6.27237C15.9706 4.99444 17.0831 4.0815 18.3846 4.00516L17.6056 2.44719C17.3586 1.95321 17.5588 1.35254 18.0528 1.10555ZM11 9V20C11 20.5523 10.5523 21 10 21H4C3.44772 21 3 20.5523 3 20V9H11ZM19.382 5.99997H18.5616C18.1027 5.99997 17.7027 6.31227 17.5914 6.75744C17.4336 7.38859 17.911 7.99997 18.5616 7.99997H20.382L19.382 5.99997ZM4 3C3.44772 3 3 3.44772 3 4V7H11V4C11 3.44772 10.5523 3 10 3H4Z" fill="#000640"/>
</svg>
