<svg width="24" height="24" viewBox="0 0 24 24" fill="none" xmlns="http://www.w3.org/2000/svg">
<path fill-rule="evenodd" clip-rule="evenodd" d="M12.0005 7C9.23907 7 7.00049 9.23858 7.00049 12C7.00049 14.7614 9.23907 17 12.0005 17C14.7619 17 17.0005 14.7614 17.0005 12C17.0005 9.23858 14.7619 7 12.0005 7ZM9.00049 12C9.00049 10.3431 10.3436 9 12.0005 9C13.6573 9 15.0005 10.3431 15.0005 12C15.0005 13.6569 13.6573 15 12.0005 15C10.3436 15 9.00049 13.6569 9.00049 12Z" fill="#000640"/>
<path fill-rule="evenodd" clip-rule="evenodd" d="M12.0003 0C10.3435 0 9.00031 1.34315 9.00031 3V3.5124C7.94628 3.88495 6.98304 4.44786 6.15171 5.15921L5.70601 4.90188C4.27114 4.07346 2.43636 4.56508 1.60794 5.99996C0.779509 7.43484 1.27113 9.26961 2.70601 10.098L3.15054 10.3547C3.05181 10.8887 3.00031 11.4387 3.00031 12C3.00031 12.5657 3.05262 13.1198 3.15284 13.6577L2.70219 13.912C1.25644 14.7277 0.754002 16.5663 1.584 18.0039C2.41136 19.4369 4.24661 19.9234 5.67516 19.0883L6.13017 18.8223C6.96527 19.5414 7.93455 20.1103 8.99602 20.4861L8.99175 20.9738C8.97715 22.6408 10.3245 24 11.9916 24C13.6381 24 14.9769 22.6728 14.9914 21.0263L14.9961 20.4891C16.051 20.1168 17.0151 19.5539 17.8471 18.8423L18.2613 19.0839C19.697 19.9212 21.5398 19.4318 22.3708 17.9924C23.1966 16.562 22.7109 14.7332 21.2841 13.901L20.8497 13.6476C20.9487 13.1129 21.0003 12.5621 21.0003 12C21.0003 11.4379 20.9487 10.8872 20.8497 10.3524L21.2842 10.099C22.7109 9.26686 23.1966 7.438 22.3708 6.00762C21.5398 4.56826 19.6969 4.07884 18.2613 4.9162L17.8472 5.15772C17.0162 4.44708 16.0536 3.88469 15.0003 3.5124V3C15.0003 1.34315 13.6572 0 12.0003 0Z" fill="#000640"/>
</svg>
