<svg width="24" height="24" viewBox="0 0 24 24" fill="none" xmlns="http://www.w3.org/2000/svg">
<path fill-rule="evenodd" clip-rule="evenodd" d="M5.5943 4C5.12789 4 4.72342 4.32242 4.61946 4.77709L3.06709 11.566C3.80038 11.2037 4.62624 11 5.5 11C7.63734 11 9.48993 12.2192 10.4003 14H13.5997C14.5101 12.2192 16.3627 11 18.5 11C19.3738 11 20.1996 11.2037 20.9329 11.566L19.3805 4.77709C19.2766 4.32242 18.8721 4 18.4057 4H17C16.4477 4 16 3.55228 16 3C16 2.44772 16.4477 2 17 2H18.4057C19.8049 2 21.0183 2.96727 21.3302 4.33127L23.7066 14.7238C23.8971 15.2823 24 15.8801 24 16.5C24 19.5376 21.5376 22 18.5 22C15.4624 22 13 19.5376 13 16.5C13 16.3315 13.0076 16.1647 13.0224 16H10.9776C10.9924 16.1647 11 16.3315 11 16.5C11 19.5376 8.53757 22 5.5 22C2.46243 22 0 19.5376 0 16.5C0 15.8801 0.102935 15.2823 0.293395 14.7238L2.66978 4.33127C2.98168 2.96727 4.19508 2 5.5943 2H7C7.55228 2 8 2.44772 8 3C8 3.55228 7.55228 4 7 4H5.5943ZM5.5 13C3.97764 13 2.67985 13.9725 2.1989 15.3332C2.07037 15.6969 2 16.0891 2 16.5C2 18.433 3.567 20 5.5 20C7.433 20 9 18.433 9 16.5C9 14.567 7.433 13 5.5 13ZM18.5 13C16.567 13 15 14.567 15 16.5C15 18.433 16.567 20 18.5 20C20.433 20 22 18.433 22 16.5C22 16.0891 21.9296 15.6969 21.8011 15.3332C21.3201 13.9725 20.0224 13 18.5 13Z" fill="#000640"/>
</svg>
