<svg width="24" height="24" viewBox="0 0 24 24" fill="none" xmlns="http://www.w3.org/2000/svg">
<path fill-rule="evenodd" clip-rule="evenodd" d="M7.34315 14.6569C4.21895 11.5327 4.21895 6.46735 7.34315 3.34315C7.73367 2.95263 7.73367 2.31947 7.34315 1.92894C6.95262 1.53842 6.31946 1.53842 5.92893 1.92894C2.02369 5.83418 2.02369 12.1658 5.92893 16.0711C7.62691 17.7691 9.7836 18.7288 12.0001 18.9502V21H9.00011C8.44782 21 8.00011 21.4477 8.00011 22C8.00011 22.5523 8.44782 23 9.00011 23H17.0001C17.5524 23 18.0001 22.5523 18.0001 22C18.0001 21.4477 17.5524 21 17.0001 21H14.0001V18.9502C16.2165 18.7287 18.3731 17.769 20.0711 16.0711C20.4616 15.6806 20.4616 15.0474 20.0711 14.6569C19.6805 14.2663 19.0474 14.2663 18.6569 14.6569C17.3496 15.9641 15.7026 16.7243 14.0001 16.9376V15.9291C17.3924 15.4439 20.0001 12.5265 20.0001 9.00001C20.0001 5.13402 16.8661 2.00001 13.0001 2.00001C9.13411 2.00001 6.00011 5.13402 6.00011 9.00001C6.00011 12.5265 8.60781 15.4439 12.0001 15.9291V16.9376C10.2975 16.7244 8.65041 15.9641 7.34315 14.6569ZM8.00011 9.00001C8.00011 6.23858 10.2387 4.00001 13.0001 4.00001C15.7615 4.00001 18.0001 6.23858 18.0001 9.00001C18.0001 11.7614 15.7615 14 13.0001 14C10.2387 14 8.00011 11.7614 8.00011 9.00001Z" fill="#000640"/>
</svg>
