<svg width="24" height="24" viewBox="0 0 24 24" fill="none" xmlns="http://www.w3.org/2000/svg">
<g clip-path="url(#clip0_1253_6399)">
<path fill-rule="evenodd" clip-rule="evenodd" d="M3.33754 7H7.67829C8.07311 5.58856 8.59489 4.38459 9.11765 3.40441C9.34701 2.97435 9.57674 2.58701 9.79634 2.24361C7.0399 2.86353 4.7133 4.62174 3.33754 7ZM12 2.56577C11.6778 3.00208 11.2808 3.59859 10.8824 4.34559C10.4872 5.08655 10.0913 5.97416 9.76525 7H14.2348C13.9087 5.97416 13.5128 5.08655 13.1176 4.34559C12.7192 3.59859 12.3222 3.00208 12 2.56577ZM14.732 9H9.26796C9.10026 9.92138 9 10.9227 9 12C9 13.0773 9.10026 14.0786 9.26796 15H14.732C14.8997 14.0786 15 13.0773 15 12C15 10.9227 14.8997 9.92138 14.732 9ZM16.7613 15C16.912 14.0676 17 13.0665 17 12C17 10.9335 16.912 9.93244 16.7613 9H21.5425C21.8396 9.94605 22 10.9535 22 12C22 13.0465 21.8396 14.0539 21.5425 15H16.7613ZM14.2348 17H9.76525C10.0913 18.0258 10.4872 18.9135 10.8824 19.6544C11.2808 20.4014 11.6778 20.9979 12 21.4342C12.3222 20.9979 12.7192 20.4014 13.1176 19.6544C13.5128 18.9135 13.9087 18.0258 14.2348 17ZM9.79633 21.7564C9.57674 21.413 9.34701 21.0256 9.11765 20.5956C8.59489 19.6154 8.07311 18.4114 7.67829 17H3.33754C4.7133 19.3783 7.0399 21.1365 9.79633 21.7564ZM2.45752 15H7.2387C7.088 14.0676 7 13.0665 7 12C7 10.9335 7.088 9.93244 7.2387 9H2.45752C2.16042 9.94605 2 10.9535 2 12C2 13.0465 2.16042 14.0539 2.45752 15ZM14.2037 21.7564C14.4233 21.413 14.653 21.0256 14.8824 20.5956C15.4051 19.6154 15.9269 18.4114 16.3217 17H20.6625C19.2867 19.3783 16.9601 21.1365 14.2037 21.7564ZM20.6625 7H16.3217C15.9269 5.58856 15.4051 4.38459 14.8824 3.40441C14.653 2.97435 14.4233 2.58701 14.2037 2.24361C16.9601 2.86353 19.2867 4.62174 20.6625 7ZM0.818393 7.63623C2.56333 3.1681 6.91046 0 12 0C17.0895 0 21.4367 3.1681 23.1816 7.63623C23.7103 8.99002 24 10.4624 24 12C24 13.5376 23.7103 15.01 23.1816 16.3638C21.4367 20.8319 17.0895 24 12 24C6.91046 24 2.56333 20.8319 0.818392 16.3638C0.289695 15.01 0 13.5376 0 12C0 10.4624 0.289696 8.99002 0.818393 7.63623Z" fill="#000640"/>
</g>
<defs>
<clipPath id="clip0_1253_6399">
<rect width="24" height="24" fill="white"/>
</clipPath>
</defs>
</svg>
