<svg width="24" height="24" viewBox="0 0 24 24" fill="none" xmlns="http://www.w3.org/2000/svg">
<path fill-rule="evenodd" clip-rule="evenodd" d="M13.9035 2.64476C13.3075 0.796472 10.6925 0.796474 10.0965 2.64476L8.43892 7.78529H3.05878C1.12502 7.78529 0.31704 10.2568 1.87734 11.3991L6.24305 14.5952L4.5786 19.757C3.98358 21.6024 6.09909 23.1299 7.66352 21.9846L11 19.5419V22C11 22.5523 11.4477 23 12 23C12.5523 23 13 22.5523 13 22V19.542L16.3365 21.9846C17.9009 23.1299 20.0164 21.6024 19.4214 19.757L17.7569 14.5952L22.1226 11.399C23.6829 10.2567 22.875 7.78529 20.9412 7.78529L15.5611 7.78529L13.9035 2.64476ZM12 3.25854L13.6576 8.39908C13.924 9.22529 14.693 9.78529 15.5611 9.78529H20.9412L16.5755 12.9814C15.8799 13.4907 15.5889 14.3884 15.8534 15.209L17.5179 20.3708L13.1814 17.1961C12.478 16.6811 11.522 16.6811 10.8186 17.1961L6.48209 20.3708L8.14654 15.209C8.41112 14.3884 8.12012 13.4907 7.42449 12.9814L3.05878 9.78529H8.43892C9.30702 9.78529 10.076 9.22529 10.3424 8.39908L12 3.25854Z" fill="#000640"/>
<path d="M20.2071 4.70711C20.5976 4.31658 20.5976 3.68342 20.2071 3.29289C19.8166 2.90237 19.1834 2.90237 18.7929 3.29289L16.7929 5.29289C16.4024 5.68342 16.4024 6.31658 16.7929 6.70711C17.1834 7.09763 17.8166 7.09763 18.2071 6.70711L20.2071 4.70711Z" fill="#000640"/>
<path d="M3.79289 3.29289C4.18342 2.90237 4.81658 2.90237 5.20711 3.29289L7.20711 5.29289C7.59763 5.68342 7.59763 6.31658 7.20711 6.70711C6.81658 7.09763 6.18342 7.09763 5.79289 6.70711L3.79289 4.70711C3.40237 4.31658 3.40237 3.68342 3.79289 3.29289Z" fill="#000640"/>
<path d="M2.60006 18.2999C2.15823 18.6313 1.53143 18.5418 1.20006 18.0999C0.868688 17.6581 0.958231 17.0313 1.40006 16.6999L3.40006 15.1999C3.84189 14.8686 4.46869 14.9581 4.80006 15.3999C5.13143 15.8418 5.04189 16.4686 4.60006 16.7999L2.60006 18.2999Z" fill="#000640"/>
<path d="M22.8001 18.0999C23.1314 17.6581 23.0419 17.0313 22.6001 16.6999L20.6001 15.1999C20.1582 14.8686 19.5314 14.9581 19.2001 15.3999C18.8687 15.8418 18.9582 16.4686 19.4001 16.7999L21.4001 18.2999C21.8419 18.6313 22.4687 18.5418 22.8001 18.0999Z" fill="#000640"/>
</svg>
