<svg width="24" height="24" viewBox="0 0 24 24" fill="none" xmlns="http://www.w3.org/2000/svg">
<path fill-rule="evenodd" clip-rule="evenodd" d="M3 20C3 20.5523 3.44772 21 4 21H11L11 3L4 3C3.44772 3 3 3.44772 3 4L3 20ZM13 3V5L21 5V4C21 3.44772 20.5523 3 20 3L13 3ZM21 7L13 7V9L21 9V7ZM21 11L13 11V13L21 13L21 11ZM21 15L13 15V17H21V15ZM21 19H13V21H20C20.5523 21 21 20.5523 21 20V19ZM1 4C1 2.34315 2.34315 1 4 1L20 1C21.6569 1 23 2.34315 23 4L23 20C23 21.6569 21.6569 23 20 23L4 23C2.34315 23 1 21.6569 1 20L1 4Z" fill="#000640"/>
</svg>
