<svg width="24" height="24" viewBox="0 0 24 24" fill="none" xmlns="http://www.w3.org/2000/svg">
<path d="M11 10C11.5523 10 12 10.4477 12 11C12 11.5523 11.5523 12 11 12H6C5.44772 12 5 11.5523 5 11C5 10.4477 5.44772 10 6 10H11Z" fill="#000640"/>
<path d="M12 14C12 13.4477 11.5523 13 11 13H6C5.44772 13 5 13.4477 5 14C5 14.5523 5.44772 15 6 15H11C11.5523 15 12 14.5523 12 14Z" fill="#000640"/>
<path d="M8 18C8.55228 18 9 17.5523 9 17C9 16.4477 8.55228 16 8 16H6C5.44772 16 5 16.4477 5 17C5 17.5523 5.44772 18 6 18H8Z" fill="#000640"/>
<path fill-rule="evenodd" clip-rule="evenodd" d="M20 1C21.6569 1 23 2.34315 23 4V20C23 21.6569 21.6569 23 20 23H4C2.34315 23 1 21.6569 1 20V4C1 2.34315 2.34315 1 4 1H20ZM21 4C21 3.44772 20.5523 3 20 3H16V21H20C20.5523 21 21 20.5523 21 20V4ZM14 6V3H4C3.44772 3 3 3.44772 3 4V6H14ZM14 8H3V20C3 20.5523 3.44772 21 4 21H14V8Z" fill="#000640"/>
</svg>
