<svg width="24" height="24" viewBox="0 0 24 24" fill="none" xmlns="http://www.w3.org/2000/svg">
<path fill-rule="evenodd" clip-rule="evenodd" d="M4 2C2.34315 2 1 3.34315 1 5V19C1 20.6569 2.34315 22 4 22H9C10.6569 22 12 20.6569 12 19V5C12 3.34315 10.6569 2 9 2H4ZM3 5C3 4.44772 3.44772 4 4 4H9C9.55228 4 10 4.44772 10 5V19C10 19.5523 9.55228 20 9 20H4C3.44772 20 3 19.5523 3 19V5Z" fill="#000640"/>
<path d="M15 3C14.4477 3 14 3.44772 14 4C14 4.55228 14.4477 5 15 5H22C22.5523 5 23 4.55228 23 4C23 3.44772 22.5523 3 22 3H15Z" fill="#000640"/>
<path d="M14 8C14 7.44772 14.4477 7 15 7H22C22.5523 7 23 7.44772 23 8C23 8.55228 22.5523 9 22 9H15C14.4477 9 14 8.55228 14 8Z" fill="#000640"/>
<path d="M15 11C14.4477 11 14 11.4477 14 12C14 12.5523 14.4477 13 15 13H22C22.5523 13 23 12.5523 23 12C23 11.4477 22.5523 11 22 11H15Z" fill="#000640"/>
<path d="M14 16C14 15.4477 14.4477 15 15 15H22C22.5523 15 23 15.4477 23 16C23 16.5523 22.5523 17 22 17H15C14.4477 17 14 16.5523 14 16Z" fill="#000640"/>
<path d="M15 19C14.4477 19 14 19.4477 14 20C14 20.5523 14.4477 21 15 21H22C22.5523 21 23 20.5523 23 20C23 19.4477 22.5523 19 22 19H15Z" fill="#000640"/>
</svg>
