<svg width="24" height="24" viewBox="0 0 24 24" fill="none" xmlns="http://www.w3.org/2000/svg">
<path fill-rule="evenodd" clip-rule="evenodd" d="M15.5 5C17.433 5 19 6.567 19 8.5C19 10.433 17.433 12 15.5 12C13.567 12 12 10.433 12 8.5C12 6.567 13.567 5 15.5 5ZM17 8.5C17 7.67157 16.3284 7 15.5 7C14.6716 7 14 7.67157 14 8.5C14 9.32843 14.6716 10 15.5 10C16.3284 10 17 9.32843 17 8.5Z" fill="#000640"/>
<path d="M19 15C19 14.4477 18.5523 14 18 14H13C12.4477 14 12 14.4477 12 15C12 15.5523 12.4477 16 13 16H18C18.5523 16 19 15.5523 19 15Z" fill="#000640"/>
<path d="M18 17C18.5523 17 19 17.4477 19 18C19 18.5523 18.5523 19 18 19H13C12.4477 19 12 18.5523 12 18C12 17.4477 12.4477 17 13 17H18Z" fill="#000640"/>
<path fill-rule="evenodd" clip-rule="evenodd" d="M20 1C21.6569 1 23 2.34315 23 4V20C23 21.6569 21.6569 23 20 23H4C2.34315 23 1 21.6569 1 20V4C1 2.34315 2.34315 1 4 1H20ZM21 4C21 3.44772 20.5523 3 20 3H10V21H20C20.5523 21 21 20.5523 21 20V4ZM8 21V3H4C3.44772 3 3 3.44772 3 4V20C3 20.5523 3.44772 21 4 21H8Z" fill="#000640"/>
</svg>
