<svg width="24" height="24" viewBox="0 0 24 24" fill="none" xmlns="http://www.w3.org/2000/svg">
<path fill-rule="evenodd" clip-rule="evenodd" d="M20 1C21.6569 1 23 2.34315 23 4V10C23 10.5523 22.5523 11 22 11H14C13.4477 11 13 10.5523 13 10V2C13 1.44772 13.4477 1 14 1H20ZM21 4C21 3.44772 20.5523 3 20 3L15 3V9H21V4Z" fill="#000640"/>
<path fill-rule="evenodd" clip-rule="evenodd" d="M22 13C22.5523 13 23 13.4477 23 14V20C23 21.6569 21.6569 23 20 23H4C2.34315 23 1 21.6569 1 20V14C1 13.4477 1.44772 13 2 13L22 13ZM21 15L3 15L3 20C3 20.5523 3.44772 21 4 21H20C20.5523 21 21 20.5523 21 20V15Z" fill="#000640"/>
<path fill-rule="evenodd" clip-rule="evenodd" d="M11 2C11 1.44772 10.5523 1 10 1H4C2.34315 1 1 2.34315 1 4V10C1 10.5523 1.44771 11 2 11H10C10.5523 11 11 10.5523 11 10V2ZM4 3L9 3L9 9H3L3 4C3 3.44772 3.44772 3 4 3Z" fill="#000640"/>
</svg>
