<svg width="24" height="24" viewBox="0 0 24 24" fill="none" xmlns="http://www.w3.org/2000/svg">
<path fill-rule="evenodd" clip-rule="evenodd" d="M20 21C20.5523 21 21 20.5523 21 20V13L3 13L3 20C3 20.5523 3.44772 21 4 21L20 21ZM3 11H5L5 3H4C3.44772 3 3 3.44772 3 4L3 11ZM7 3L7 11H9L9 3L7 3ZM11 3L11 11H13L13 3H11ZM15 3L15 11H17L17 3L15 3ZM19 3L19 11L21 11L21 4C21 3.44772 20.5523 3 20 3H19ZM4 23C2.34315 23 1 21.6569 1 20L1 4C1 2.34315 2.34315 1 4 1L20 1C21.6569 1 23 2.34315 23 4L23 20C23 21.6569 21.6569 23 20 23L4 23Z" fill="#000640"/>
</svg>
