<svg width="24" height="24" viewBox="0 0 24 24" fill="none" xmlns="http://www.w3.org/2000/svg">
<path fill-rule="evenodd" clip-rule="evenodd" d="M8.5 5C6.567 5 5 6.567 5 8.5C5 10.433 6.567 12 8.5 12C10.433 12 12 10.433 12 8.5C12 6.567 10.433 5 8.5 5ZM7 8.5C7 7.67157 7.67157 7 8.5 7C9.32843 7 10 7.67157 10 8.5C10 9.32843 9.32843 10 8.5 10C7.67157 10 7 9.32843 7 8.5Z" fill="#000640"/>
<path d="M5 15C5 14.4477 5.44772 14 6 14H11C11.5523 14 12 14.4477 12 15C12 15.5523 11.5523 16 11 16H6C5.44772 16 5 15.5523 5 15Z" fill="#000640"/>
<path d="M6 17C5.44772 17 5 17.4477 5 18C5 18.5523 5.44772 19 6 19H11C11.5523 19 12 18.5523 12 18C12 17.4477 11.5523 17 11 17H6Z" fill="#000640"/>
<path fill-rule="evenodd" clip-rule="evenodd" d="M4 1C2.34315 1 1 2.34315 1 4V20C1 21.6569 2.34315 23 4 23H20C21.6569 23 23 21.6569 23 20V4C23 2.34315 21.6569 1 20 1H4ZM3 4C3 3.44772 3.44772 3 4 3H14V21H4C3.44772 21 3 20.5523 3 20V4ZM20 21H16V3H20C20.5523 3 21 3.44772 21 4V20C21 20.5523 20.5523 21 20 21Z" fill="#000640"/>
</svg>
