<svg width="24" height="24" viewBox="0 0 24 24" fill="none" xmlns="http://www.w3.org/2000/svg">
<path fill-rule="evenodd" clip-rule="evenodd" d="M4 3C3.44772 3 3 3.44772 3 4L3 11L21 11V4C21 3.44772 20.5523 3 20 3L4 3ZM21 13H19V21H20C20.5523 21 21 20.5523 21 20V13ZM17 21L17 13H15L15 21H17ZM13 21L13 13H11L11 21L13 21ZM9 21L9 13H7L7 21H9ZM5 21L5 13H3L3 20C3 20.5523 3.44772 21 4 21H5ZM20 1C21.6569 1 23 2.34315 23 4L23 20C23 21.6569 21.6569 23 20 23L4 23C2.34315 23 1 21.6569 1 20L1 4C1 2.34315 2.34315 1 4 1L20 1Z" fill="#000640"/>
</svg>
