<svg width="24" height="24" viewBox="0 0 24 24" fill="none" xmlns="http://www.w3.org/2000/svg">
<path d="M9 15C9 14.4477 8.55228 14 8 14C7.44772 14 7 14.4477 7 15V18C7 18.5523 7.44772 19 8 19C8.55228 19 9 18.5523 9 18V15Z" fill="#000640"/>
<path d="M13 15C13 14.4477 12.5523 14 12 14C11.4477 14 11 14.4477 11 15V18C11 18.5523 11.4477 19 12 19C12.5523 19 13 18.5523 13 18V15Z" fill="#000640"/>
<path d="M16 14C16.5523 14 17 14.4477 17 15V18C17 18.5523 16.5523 19 16 19C15.4477 19 15 18.5523 15 18V15C15 14.4477 15.4477 14 16 14Z" fill="#000640"/>
<path fill-rule="evenodd" clip-rule="evenodd" d="M13 2C13 1.44772 13.4477 1 14 1H18C18.5523 1 19 1.44772 19 2V4.99978C20.213 5.91089 21 7.36307 21 9V10.0002H22C22.2965 10.0002 22.5778 10.1318 22.7678 10.3595C22.9578 10.5871 23.0369 10.8874 22.9839 11.1791L21.2825 20.5369C21.0231 21.9633 19.7807 23.0002 18.3309 23.0002H5.66916C4.2193 23.0002 2.97691 21.9633 2.71755 20.5369L1.01614 11.1791C0.963094 10.8874 1.04226 10.5871 1.23226 10.3595C1.42225 10.1318 1.70348 10.0002 2.00001 10.0002H2.71923L2.02987 7.24276C1.89592 6.70696 2.22168 6.16403 2.75747 6.03008L8.75747 4.53008C9.28523 4.39814 9.82164 4.71228 9.96477 5.2371L11 9.03294V9C11 7.36307 11.787 5.91089 13 4.99978V2ZM19 9V10.0002H13V9C13 7.89083 13.6014 6.92096 14.5007 6.40073C14.941 6.14607 15.4519 6 16 6C16.5481 6 17.059 6.14607 17.4993 6.40073C18.3986 6.92096 19 7.89083 19 9ZM15 4.10021C15.3234 4.03449 15.6579 4 16 4C16.3421 4 16.6766 4.03449 17 4.10021V3H15V4.10021ZM3.19822 12.0002L4.68529 20.1791C4.77174 20.6546 5.18587 21.0002 5.66916 21.0002H18.3309C18.8141 21.0002 19.2283 20.6546 19.3147 20.1791L20.8018 12.0002H3.19822ZM4.78078 10.0002L4.21269 7.72783L8.29282 6.70779L9.19076 10.0002H4.78078Z" fill="#000640"/>
</svg>
