<svg width="24" height="24" viewBox="0 0 24 24" fill="none" xmlns="http://www.w3.org/2000/svg">
<path fill-rule="evenodd" clip-rule="evenodd" d="M20.2075 0.792894C20.0105 0.595934 19.7403 0.490048 19.462 0.500738C19.1837 0.511427 18.9224 0.637723 18.7411 0.84921L15.7411 4.34921C15.4011 4.74595 15.4238 5.33762 15.7933 5.70711L16.3374 6.25128C16.3224 6.26462 16.3077 6.27849 16.2933 6.29289L14.9854 7.60079C14.1059 6.79571 13.2973 6.19967 12.5521 5.79894C11.6111 5.29287 10.694 5.05803 9.836 5.20099C8.25523 5.46438 7.48745 6.8354 7.14261 8.21406C5.67851 8.67206 4.34962 9.23714 3.29361 10.2928C2.62969 10.9565 1.78345 12.4159 1.57018 14.1934C1.34911 16.0358 1.80945 18.2232 3.79353 20.2071C5.77757 22.191 7.96485 22.6513 9.8072 22.4302C11.5846 22.217 13.0439 21.3708 13.7076 20.7071C14.7636 19.6511 15.3286 18.3218 15.7865 16.8576C17.1649 16.5127 18.5359 15.7449 18.7993 14.1643C18.9423 13.3063 18.7074 12.3893 18.2014 11.4482C17.8007 10.7031 17.2047 9.89451 16.3996 9.015L17.7075 7.70711C17.7219 7.6927 17.7357 7.67797 17.7491 7.66293L18.2933 8.20711C18.6628 8.5766 19.2544 8.59932 19.6512 8.25926L23.1512 5.25926C23.3626 5.07798 23.4889 4.81672 23.4996 4.53838C23.5103 4.26004 23.4044 3.98985 23.2075 3.79289L20.2075 0.792894ZM11.6049 7.56039C12.1515 7.85437 12.804 8.32273 13.5696 9.01655L10.1655 12.4207C9.6703 12.1524 9.10312 12 8.50037 12C6.56737 12 5.00037 13.567 5.00037 15.5C5.00037 17.433 6.56737 19 8.50037 19C10.4334 19 12.0004 17.433 12.0004 15.5C12.0004 14.8972 11.848 14.3301 11.5797 13.8349L14.9838 10.4308C15.6776 11.1963 16.146 11.8488 16.4399 12.3955C16.8245 13.1106 16.871 13.5685 16.8265 13.8355C16.7547 14.266 16.2755 14.7735 14.8361 15.0136C14.4572 15.0768 14.1481 15.3513 14.0406 15.72C13.5559 17.3817 13.1 18.4862 12.2934 19.2929C11.9572 19.6291 10.9165 20.2828 9.56894 20.4445C8.28634 20.5984 6.72366 20.3087 5.20768 18.7928C3.69175 17.277 3.40203 15.7143 3.55594 14.4316C3.71764 13.084 4.3714 12.0433 4.70758 11.7072C5.51446 10.9006 6.61888 10.4446 8.28035 9.95996C8.64906 9.85242 8.92359 9.54321 8.98673 9.16436C9.22665 7.72475 9.73426 7.24551 10.1647 7.17379C10.4317 7.1293 10.8897 7.17578 11.6049 7.56039ZM17.8623 4.9477L19.5569 2.9707L21.0297 4.44352L19.0527 6.13809L17.8623 4.9477ZM7.00037 15.5C7.00037 14.6716 7.67194 14 8.50037 14C9.32879 14 10.0004 14.6716 10.0004 15.5C10.0004 16.3284 9.32879 17 8.50037 17C7.67194 17 7.00037 16.3284 7.00037 15.5Z" fill="#000640"/>
</svg>
