<svg width="24" height="24" viewBox="0 0 24 24" fill="none" xmlns="http://www.w3.org/2000/svg">
<path fill-rule="evenodd" clip-rule="evenodd" d="M12.0006 1C12.5529 1 13.0006 1.44772 13.0006 2V5.03692C17.569 5.37544 21.4729 8.01224 22.6489 11.7294C22.9335 12.6292 22.6692 13.4858 22.1276 14.0825C21.6022 14.6614 20.8218 15 20.0006 15H16.9006C16.4373 17.2822 14.4195 19 12.0006 19C9.58162 19 7.56387 17.2822 7.1006 15H4.00058C3.17936 15 2.39897 14.6614 1.87351 14.0825C1.33192 13.4858 1.06764 12.6292 1.3523 11.7294C2.52825 8.01224 6.43216 5.37544 11.0006 5.03692V2C11.0006 1.44772 11.4483 1 12.0006 1ZM12.0006 17C10.6944 17 9.58312 16.1652 9.17129 15H14.8299C14.418 16.1652 13.3068 17 12.0006 17ZM12.0006 7C7.64344 7 4.19133 9.38605 3.25915 12.3327C3.21064 12.486 3.2415 12.6139 3.35448 12.7384C3.48361 12.8806 3.71723 13 4.00058 13H20.0006C20.2839 13 20.5175 12.8806 20.6467 12.7384C20.7596 12.6139 20.7905 12.486 20.742 12.3327C19.8098 9.38605 16.3577 7 12.0006 7Z" fill="#000640"/>
<path d="M13.0006 21C13.0006 20.4477 12.5529 20 12.0006 20C11.4483 20 11.0006 20.4477 11.0006 21V22C11.0006 22.5523 11.4483 23 12.0006 23C12.5529 23 13.0006 22.5523 13.0006 22V21Z" fill="#000640"/>
<path d="M17.2935 18.2929C17.684 17.9024 18.3172 17.9024 18.7077 18.2929L19.4148 19C19.8053 19.3905 19.8053 20.0237 19.4148 20.4142C19.0243 20.8047 18.3911 20.8047 18.0006 20.4142L17.2935 19.7071C16.9029 19.3166 16.9029 18.6834 17.2935 18.2929Z" fill="#000640"/>
<path d="M6.70769 19.707C7.09821 19.3165 7.09821 18.6833 6.70769 18.2928C6.31716 17.9023 5.684 17.9023 5.29347 18.2928L4.58637 18.9999C4.19584 19.3904 4.19584 20.0236 4.58637 20.4141C4.97689 20.8046 5.61006 20.8046 6.00058 20.4141L6.70769 19.707Z" fill="#000640"/>
</svg>
