<svg width="24" height="24" viewBox="0 0 24 24" fill="none" xmlns="http://www.w3.org/2000/svg">
<g clip-path="url(#clip0_1253_5137)">
<path fill-rule="evenodd" clip-rule="evenodd" d="M7.00001 14C6.68192 14 6.38281 14.1513 6.19437 14.4076C6.00593 14.6639 5.95065 14.9945 6.04548 15.2981C6.87858 17.9656 9.1754 20 12 20C14.8246 20 17.1214 17.9656 17.9545 15.2981C18.0494 14.9945 17.9941 14.6639 17.8056 14.4076C17.6172 14.1513 17.3181 14 17 14H7.00001ZM12 18C10.6345 18 9.36261 17.2424 8.55908 16H15.4409C14.6374 17.2424 13.3655 18 12 18Z" fill="#000640"/>
<path d="M9 9.5C9 10.3284 8.32843 11 7.5 11C6.67157 11 6 10.3284 6 9.5C6 8.67157 6.67157 8 7.5 8C8.32843 8 9 8.67157 9 9.5Z" fill="#000640"/>
<path d="M16.5 11C17.3284 11 18 10.3284 18 9.5C18 8.67157 17.3284 8 16.5 8C15.6716 8 15 8.67157 15 9.5C15 10.3284 15.6716 11 16.5 11Z" fill="#000640"/>
<path fill-rule="evenodd" clip-rule="evenodd" d="M12 0C5.37258 0 0 5.37258 0 12C0 18.6274 5.37258 24 12 24C18.6274 24 24 18.6274 24 12C24 5.37258 18.6274 0 12 0ZM2 12C2 6.47715 6.47715 2 12 2C17.5228 2 22 6.47715 22 12C22 17.5228 17.5228 22 12 22C6.47715 22 2 17.5228 2 12Z" fill="#000640"/>
</g>
<defs>
<clipPath id="clip0_1253_5137">
<rect width="24" height="24" fill="white"/>
</clipPath>
</defs>
</svg>
