<svg width="24" height="24" viewBox="0 0 24 24" fill="none" xmlns="http://www.w3.org/2000/svg">
<path d="M6 10C5.44772 10 5 10.4477 5 11C5 11.5523 5.44772 12 6 12H18C18.5523 12 19 11.5523 19 11C19 10.4477 18.5523 10 18 10H6Z" fill="#000640"/>
<path fill-rule="evenodd" clip-rule="evenodd" d="M4 6C2.34315 6 1 7.34315 1 9V13.3944C1 13.9867 1.17531 14.5657 1.50385 15.0585L2.57422 16.6641C3.13061 17.4987 4.06731 18 5.07037 18H18.9296C19.9327 18 20.8694 17.4987 21.4258 16.6641L22.4962 15.0585C22.8247 14.5657 23 13.9867 23 13.3944V9C23 7.34315 21.6569 6 20 6H4ZM3 9C3 8.44772 3.44772 8 4 8H20C20.5523 8 21 8.44772 21 9V13.3944C21 13.5919 20.9416 13.7849 20.8321 13.9491L19.7617 15.5547C19.5762 15.8329 19.264 16 18.9296 16H5.07037C4.73601 16 4.42378 15.8329 4.23832 15.5547L3.16795 13.9491C3.05844 13.7849 3 13.5919 3 13.3944V9Z" fill="#000640"/>
</svg>
