<svg width="24" height="24" viewBox="0 0 24 24" fill="none" xmlns="http://www.w3.org/2000/svg">
<path fill-rule="evenodd" clip-rule="evenodd" d="M6.12727 4.04206C4.48884 4.29063 3 5.66685 3 8.2284C3 9.47355 3.52019 10.8383 4.4074 12.2396C5.28814 13.6307 6.47933 14.9773 7.69805 16.1654C8.91306 17.3498 10.132 18.3543 11.0492 19.0636C11.1831 19.1671 11.3104 19.2642 11.4301 19.3546L12.8768 14.291L9.29289 10.7071C8.96136 10.3756 8.90468 9.85823 9.15656 9.46278L10.852 6.80091C9.62505 4.5587 7.68542 3.80567 6.12727 4.04206ZM12 4.88491C10.3849 2.674 8.02171 1.73176 5.82727 2.06469C3.14752 2.47124 1 4.74404 1 8.2284C1 10.0062 1.72981 11.7493 2.7176 13.3095C3.71186 14.8799 5.02067 16.3484 6.30195 17.5975C7.58694 18.8502 8.86795 19.905 9.82575 20.6457C10.3055 21.0167 10.7061 21.3104 10.9883 21.5124C11.1294 21.6134 11.241 21.6915 11.3183 21.745C11.3569 21.7718 11.3869 21.7924 11.4077 21.8066L11.4319 21.823L11.4387 21.8276L11.4408 21.829C11.4408 21.829 11.4419 21.8298 12 21L11.4419 21.8298C11.7794 22.0567 12.2206 22.0567 12.5581 21.8298L12 21C12.5581 21.8298 12.5581 21.8298 12.5581 21.8298L12.5613 21.8276L12.5681 21.823L12.5923 21.8066C12.6131 21.7924 12.6431 21.7718 12.6817 21.745C12.759 21.6915 12.8706 21.6134 13.0117 21.5124C13.2939 21.3104 13.6945 21.0167 14.1742 20.6457C15.132 19.905 16.4131 18.8502 17.6981 17.5975C18.9793 16.3484 20.2881 14.8799 21.2824 13.3095C22.2702 11.7493 23 10.0062 23 8.2284C23 4.74404 20.8525 2.47124 18.1727 2.06469C15.9783 1.73176 13.6151 2.674 12 4.88491ZM13.7818 18.4039C14.5474 17.7801 15.4257 17.0196 16.3019 16.1654C17.5207 14.9773 18.7119 13.6307 19.5926 12.2396C20.4798 10.8383 21 9.47355 21 8.2284C21 5.66685 19.5112 4.29063 17.8727 4.04206C16.2089 3.78963 14.1101 4.6654 12.9085 7.27785C12.8896 7.31907 12.8678 7.35895 12.8434 7.39722L11.2746 9.86035L14.7071 13.2929C14.9639 13.5497 15.0613 13.9255 14.9615 14.2747L13.7818 18.4039Z" fill="#000640"/>
</svg>
