<svg width="24" height="24" viewBox="0 0 24 24" fill="none" xmlns="http://www.w3.org/2000/svg">
<path fill-rule="evenodd" clip-rule="evenodd" d="M2.16808 2.44526C2.35355 2.16708 2.66577 2 3.0001 2C5.20752 2 6.85025 2.62852 8.10619 3.6891C9.3327 4.72483 10.1104 6.1073 10.7237 7.46283C10.9924 8.05691 11.2394 8.66937 11.4766 9.25759C11.5108 9.34224 11.5447 9.42639 11.5785 9.5099C11.8509 10.1836 12.1149 10.8227 12.4067 11.4211C12.7858 12.1986 13.1931 12.8662 13.6796 13.4048L15.1056 10.5528C15.2407 10.2827 15.4906 10.0881 15.7855 10.0233C16.0805 9.9585 16.3889 10.0305 16.6247 10.2191L21.6247 14.2191C21.7753 14.3395 21.8878 14.5009 21.9487 14.6838L22.9487 17.6838C23.0463 17.9765 23.0033 18.2979 22.8321 18.5547L22.831 18.5563L22.8297 18.5583L22.8266 18.5629L22.818 18.5755C22.8112 18.5853 22.8024 18.598 22.7916 18.6132C22.7699 18.6437 22.7399 18.6848 22.7017 18.7349C22.6254 18.8351 22.5157 18.972 22.3724 19.1331C22.0867 19.4546 21.6631 19.8777 21.1 20.3C19.9709 21.1469 18.2655 22 16 22C13.5314 22 11.627 20.3991 10.1753 18.5502C9.01681 17.0747 8.03505 15.2974 7.19614 13.6853L6.4956 21.0941C6.44704 21.6077 6.01586 22 5.50004 22H3.00004C2.4775 22 2.04306 21.5977 2.00299 21.0767L1.00299 8.0767C1.00102 8.05118 1.00004 8.02559 1.00004 8C1.00004 7.96056 1.00003 7.92118 1.00002 7.88185C0.999526 5.97174 0.999067 4.19857 2.16808 2.44526ZM5.46754 10.7206C4.82144 9.9219 4.0671 9.35864 3.08938 9.12305L3.92607 20H4.59013L5.46754 10.7206ZM3.0052 7.07138C3.02502 5.7975 3.11939 4.88439 3.56072 4.01711C5.0422 4.11011 6.05478 4.57449 6.81582 5.21715C7.69867 5.96267 8.32716 7.0177 8.90144 8.28717C9.15179 8.84058 9.38209 9.41145 9.62082 10.0032C9.65512 10.0883 9.6896 10.1737 9.72433 10.2596C9.99684 10.9336 10.2836 11.6304 10.609 12.2977C11.2574 13.6273 12.1042 14.9379 13.4453 15.8321C13.684 15.9912 13.9795 16.0401 14.2567 15.9665C14.5339 15.8929 14.7662 15.7038 14.8945 15.4472L16.3413 12.5536L20.1447 15.5964L20.8799 17.8018L20.8776 17.8044C20.6634 18.0454 20.337 18.3723 19.9 18.7C19.0292 19.3531 17.7345 20 16 20C14.4687 20 13.0799 19.011 11.7483 17.3151C10.4654 15.6811 9.3978 13.5999 8.42739 11.7082C8.39914 11.6531 8.37096 11.5982 8.34287 11.5434C8.03822 10.9498 7.69844 10.3701 7.30799 9.83476C6.29376 8.44411 4.92988 7.35357 3.0052 7.07138Z" fill="#000640"/>
</svg>
