<svg width="24" height="24" viewBox="0 0 24 24" fill="none" xmlns="http://www.w3.org/2000/svg">
<path d="M8.5 12C9.32843 12 10 11.3284 10 10.5C10 9.67157 9.32843 9 8.5 9C7.67157 9 7 9.67157 7 10.5C7 11.3284 7.67157 12 8.5 12Z" fill="#000640"/>
<path fill-rule="evenodd" clip-rule="evenodd" d="M22.9806 17.1961C22.9957 17.1204 23.002 17.0432 22.9994 16.966L22.9992 16.9606L22.9988 16.9482L22.997 16.9033C22.9953 16.8646 22.9928 16.8086 22.9891 16.7368C22.9817 16.5931 22.9698 16.3859 22.9512 16.127C22.9141 15.6096 22.8503 14.8832 22.7437 14.0425C22.5322 12.3744 22.1453 10.2015 21.4362 8.31314C21.023 7.21278 20.4774 6.14582 19.7429 5.33062C16.6794 1.93051 13.1823 1 9 1C6.96468 1 4.9442 1.24341 3.42654 2.30577C1.82592 3.4262 1 5.29064 1 8C1 10.6932 1.80567 13.0903 2.59204 14.7941C2.98713 15.6501 3.38268 16.3426 3.68161 16.8242C3.83125 17.0653 3.95718 17.2544 4.04745 17.3855C4.09259 17.451 4.12887 17.5022 4.15477 17.5382C4.16773 17.5562 4.1781 17.5704 4.1857 17.5807L4.195 17.5933L4.19804 17.5974L4.2 17.6C4.32591 17.7679 4.50143 17.8919 4.70173 17.9545L18.58 22.2914C20.2807 22.8229 22.0671 21.7636 22.4165 20.0163L22.9806 17.1961ZM3 8C3 5.70936 3.67408 4.5738 4.57346 3.94423C5.5558 3.25659 7.03532 3 9 3C12.8177 3 15.6897 3.8199 18.2571 6.66938C18.4786 6.91519 18.6877 7.21079 18.8842 7.54919L14.2505 7.22498C12.0432 7.07054 10.4339 9.27735 11.2557 11.3318L11.7696 12.6167C12.06 13.3426 12.6222 13.9264 13.3367 14.2439L20.8624 17.5887L20.4554 19.6241C20.3389 20.2065 19.7434 20.5596 19.1765 20.3825L5.62421 16.1474C5.55786 16.0484 5.47534 15.9217 5.38089 15.7695C5.11732 15.3449 4.76287 14.7249 4.40796 13.9559C3.69433 12.4097 3 10.3068 3 8ZM14.1109 9.22011L19.7739 9.61633C20.2754 11.1523 20.5795 12.8736 20.7596 14.2941C20.8108 14.6977 20.8516 15.0735 20.8839 15.4096L14.1489 12.4163C13.9108 12.3105 13.7234 12.1159 13.6266 11.8739L13.1127 10.5891C12.8387 9.90423 13.3751 9.16863 14.1109 9.22011Z" fill="#000640"/>
</svg>
