<svg width="24" height="24" viewBox="0 0 24 24" fill="none" xmlns="http://www.w3.org/2000/svg">
<path fill-rule="evenodd" clip-rule="evenodd" d="M11 1C11.5523 1 12 1.44772 12 2V4C12 5.7952 12.062 7.38253 12.3983 8.76339C12.6429 9.76763 13.0269 10.6355 13.6192 11.3746C13.7872 11.5842 13.9736 11.7856 14.1809 11.9784C14.5594 12.3302 14.9936 12.6271 15.4664 12.8765C16.8718 13.6175 18.5492 13.9031 19.8822 13.9959C21.4955 14.1082 23 15.4084 23 17.1901V20C23 21.6569 21.6569 23 20 23H13C12.631 23 12.2928 22.7969 12.119 22.4732C12.1159 22.4683 12.1092 22.4581 12.0984 22.4438C12.0703 22.4062 12.0181 22.3451 11.9378 22.2809C11.7898 22.1625 11.5071 22 11 22C10.4929 22 10.2102 22.1625 10.0622 22.2809C9.98187 22.3451 9.92969 22.4062 9.90156 22.4438C9.89083 22.4581 9.88406 22.4683 9.88097 22.4732C9.70716 22.7969 9.36901 23 9 23H4C2.34315 23 1 21.6569 1 20V17C1 12.8747 1.52347 11.2673 2.05132 9.68377C2.12816 9.45323 2.18865 9.01291 2.21162 8.39268C2.23361 7.799 2.21919 7.12675 2.18863 6.48506C2.15819 5.84586 2.11242 5.25037 2.07414 4.81395C2.05503 4.59611 2.03787 4.41879 2.02555 4.29656C2.01939 4.23546 2.01445 4.18818 2.01109 4.15654L2.00728 4.12105L2.00614 4.11068C1.97476 3.82801 2.06519 3.545 2.25487 3.33308C2.44457 3.12113 2.71556 3 3 3H10V2C10 1.44772 10.4477 1 11 1ZM10.0077 5H4.09675C4.12879 5.40041 4.16213 5.88087 4.18637 6.38994C4.21831 7.06075 4.23514 7.79475 4.21025 8.4667C4.18635 9.11209 4.12184 9.79677 3.94868 10.3162L3.93543 10.356C3.51015 11.6315 3.08498 12.9067 3.01123 16.0122C6.31026 16.0931 8.59565 16.5625 10.6033 17.0256C10.8055 17.0722 11.004 17.1185 11.1996 17.1642C13.1289 17.6143 14.7821 18 17 18H21V17.1901C21 16.6196 20.4765 16.0421 19.7433 15.9911C18.5586 15.9086 17.0174 15.6836 15.5367 15.1031L15.4273 15.3742C15.2207 15.8864 14.6379 16.134 14.1258 15.9273C13.6136 15.7207 13.366 15.1379 13.5727 14.6258L13.7524 14.1803C13.4275 13.9621 13.1142 13.7175 12.8191 13.4431C12.7832 13.4097 12.7478 13.3762 12.7128 13.3424L12.0984 13.8012C11.6559 14.1317 11.0293 14.0409 10.6988 13.5984C10.3683 13.1559 10.4591 12.5293 10.9016 12.1988L11.4681 11.7757C11.1302 11.2119 10.8705 10.6167 10.6706 10H9.5C8.94772 10 8.5 9.55228 8.5 9C8.5 8.44772 8.94772 8 9.5 8H10.2186C10.0782 7.03071 10.0252 6.02102 10.0077 5ZM21 20H17C14.5419 20 12.6761 19.5636 10.7567 19.1148C10.5566 19.068 10.3559 19.021 10.1538 18.9744C8.22584 18.5297 6.09265 18.0914 3 18.0125V20C3 20.5523 3.44772 21 4 21H8.50742C8.59319 20.9093 8.69448 20.8138 8.81281 20.7191C9.28983 20.3375 10.0071 20 11 20C11.9929 20 12.7102 20.3375 13.1872 20.7191C13.3055 20.8138 13.4068 20.9093 13.4926 21H20C20.5523 21 21 20.5523 21 20Z" fill="#000640"/>
</svg>
