<svg width="24" height="24" viewBox="0 0 24 24" fill="none" xmlns="http://www.w3.org/2000/svg">
<path d="M15 8C15 8.55228 14.5523 9 14 9H13V10C13 10.5523 12.5523 11 12 11C11.4477 11 11 10.5523 11 10V9H10C9.44771 9 9 8.55228 9 8C9 7.44771 9.44771 7 10 7H11V6C11 5.44772 11.4477 5 12 5C12.5523 5 13 5.44772 13 6V7H14C14.5523 7 15 7.44771 15 8Z" fill="#000640"/>
<path d="M11 14C11 14.5523 10.5523 15 10 15C9.44772 15 9 14.5523 9 14C9 13.4477 9.44772 13 10 13C10.5523 13 11 13.4477 11 14Z" fill="#000640"/>
<path d="M10 19C10.5523 19 11 18.5523 11 18C11 17.4477 10.5523 17 10 17C9.44772 17 9 17.4477 9 18C9 18.5523 9.44772 19 10 19Z" fill="#000640"/>
<path d="M15 14C15 14.5523 14.5523 15 14 15C13.4477 15 13 14.5523 13 14C13 13.4477 13.4477 13 14 13C14.5523 13 15 13.4477 15 14Z" fill="#000640"/>
<path d="M14 19C14.5523 19 15 18.5523 15 18C15 17.4477 14.5523 17 14 17C13.4477 17 13 17.4477 13 18C13 18.5523 13.4477 19 14 19Z" fill="#000640"/>
<path fill-rule="evenodd" clip-rule="evenodd" d="M5 4C5 2.34315 6.34315 1 8 1H16C17.6569 1 19 2.34315 19 4V9H20C21.6569 9 23 10.3431 23 12V22C23 22.5523 22.5523 23 22 23H2C1.44772 23 1 22.5523 1 22V12C1 10.3431 2.34315 9 4 9H5V4ZM5 11H4C3.44772 11 3 11.4477 3 12V21H5V11ZM7 4V21H17V4C17 3.44772 16.5523 3 16 3H8C7.44772 3 7 3.44772 7 4ZM21 21V12C21 11.4477 20.5523 11 20 11H19V21H21Z" fill="#000640"/>
</svg>
