<svg width="24" height="24" viewBox="0 0 24 24" fill="none" xmlns="http://www.w3.org/2000/svg">
<path d="M7.55322 1.10577C8.04721 0.858805 8.64788 1.05906 8.89484 1.55305C9.56214 2.88779 9.22965 4.21152 8.99435 5.14834L8.9707 5.24266C8.70607 6.30162 8.58528 6.9332 8.89518 7.55301C9.14217 8.04698 8.94194 8.64766 8.44797 8.89465C7.95399 9.14164 7.35331 8.94141 7.10632 8.44743C6.43893 7.11264 6.77143 5.78886 7.00673 4.85202L7.03037 4.75778C7.295 3.69879 7.41582 3.06721 7.10595 2.44739C6.85898 1.9534 7.05923 1.35274 7.55322 1.10577Z" fill="#000640"/>
<path d="M12.8945 1.55305C12.6476 1.05906 12.0469 0.858805 11.5529 1.10577C11.0589 1.35274 10.8587 1.9534 11.1056 2.44739C11.4155 3.06714 11.2946 3.69866 11.0298 4.75767L11.0062 4.85193C10.7708 5.78875 10.4381 7.11258 11.1055 8.44743C11.3525 8.94141 11.9532 9.14164 12.4472 8.89465C12.9412 8.64766 13.1414 8.04698 12.8944 7.55301C12.5845 6.93327 12.7054 6.30175 12.9701 5.24277L12.9938 5.14843C13.2292 4.21163 13.5619 2.88785 12.8945 1.55305Z" fill="#000640"/>
<path d="M16.8944 1.55305C16.6475 1.05906 16.0468 0.858805 15.5528 1.10577C15.0588 1.35274 14.8586 1.9534 15.1055 2.44739C15.4154 3.06715 15.2945 3.69869 15.0298 4.75769L15.0062 4.85195C14.7708 5.78878 14.4381 7.1126 15.1055 8.44743C15.3525 8.94141 15.9532 9.14164 16.4472 8.89465C16.9412 8.64766 17.1414 8.04698 16.8944 7.55301C16.5845 6.93325 16.7054 6.30172 16.9701 5.24274L16.9937 5.14841C17.2291 4.21161 17.5618 2.88784 16.8944 1.55305Z" fill="#000640"/>
<path fill-rule="evenodd" clip-rule="evenodd" d="M3 11C2.44772 11 2 11.4477 2 12V16C2 19.866 5.13401 23 9 23H15C18.866 23 22 19.866 22 16V12C22 11.4477 21.5523 11 21 11H3ZM4 15V13H20V15H4ZM4.10002 17H19.9C19.4367 19.2822 17.419 21 15 21H9C6.58104 21 4.56329 19.2822 4.10002 17Z" fill="#000640"/>
</svg>
