<svg width="24" height="24" viewBox="0 0 24 24" fill="none" xmlns="http://www.w3.org/2000/svg">
<path d="M16.8946 1.55305C16.6476 1.05906 16.0469 0.858805 15.5529 1.10577C15.0589 1.35274 14.8587 1.9534 15.1057 2.44739C15.4155 3.06715 15.2947 3.69869 15.0299 4.75769L15.0063 4.85195C14.7709 5.78878 14.4383 7.1126 15.1057 8.44743C15.3527 8.94141 15.9533 9.14164 16.4473 8.89465C16.9413 8.64766 17.1415 8.04698 16.8945 7.55301C16.5846 6.93325 16.7055 6.30172 16.9702 5.24274L16.9939 5.14841C17.2293 4.21161 17.5619 2.88784 16.8946 1.55305Z" fill="#000640"/>
<path fill-rule="evenodd" clip-rule="evenodd" d="M1 12C1 15.2469 2.63797 17.6068 4.99902 19.4904V22C4.99902 22.5523 5.44673 23 5.99902 23H18C18.5522 23 18.9998 22.5525 19 22.0003L19.0008 19.4906C21.362 17.6069 23 15.2469 23 12C23 11.4477 22.5523 11 22 11H2C1.44772 11 1 11.4477 1 12ZM6.33842 18C4.51237 16.5679 3.35682 14.9888 3.0701 13H20.9299C20.6432 14.9888 19.4876 16.5679 17.6616 18H6.33842ZM6.99902 20H17.0007L17.0003 21H6.99902V20Z" fill="#000640"/>
<path d="M11.5529 1.10577C12.0469 0.858805 12.6476 1.05906 12.8945 1.55305C13.5619 2.88785 13.2292 4.21163 12.9938 5.14843L12.9701 5.24277C12.7054 6.30175 12.5845 6.93327 12.8944 7.55301C13.1414 8.04698 12.9412 8.64766 12.4472 8.89465C11.9532 9.14164 11.3525 8.94141 11.1055 8.44743C10.4381 7.11258 10.7708 5.78875 11.0062 4.85193L11.0298 4.75767C11.2946 3.69866 11.4155 3.06714 11.1056 2.44739C10.8587 1.9534 11.0589 1.35274 11.5529 1.10577Z" fill="#000640"/>
<path d="M8.89472 1.55305C8.64775 1.05906 8.04709 0.858805 7.5531 1.10577C7.05911 1.35274 6.85886 1.9534 7.10583 2.44739C7.4157 3.06721 7.29488 3.69879 7.03024 4.75778L7.00661 4.85202C6.7713 5.78886 6.43881 7.11264 7.1062 8.44743C7.35319 8.94141 7.95387 9.14164 8.44784 8.89465C8.94182 8.64766 9.14205 8.04698 8.89506 7.55301C8.58515 6.9332 8.70595 6.30162 8.97058 5.24266L8.99423 5.14834C9.22953 4.21152 9.56202 2.88779 8.89472 1.55305Z" fill="#000640"/>
</svg>
