<svg width="24" height="24" viewBox="0 0 24 24" fill="none" xmlns="http://www.w3.org/2000/svg">
<path fill-rule="evenodd" clip-rule="evenodd" d="M4.00167 3C4.00167 2.44772 4.44939 2 5.00167 2H19.0017C19.554 2 20.0017 2.44772 20.0017 3V6.78692C21.7865 10.8557 22.0388 15.8201 22.0425 18.3286C22.0447 19.8415 20.8837 21.0193 19.4488 21.1787L12.1121 21.9939C12.0387 22.002 11.9646 22.002 11.8912 21.9939L4.55467 21.1787C3.11972 21.0193 1.95867 19.8414 1.96094 18.3285C1.96471 15.82 2.21722 10.8556 4.00167 6.78695V3ZM5.66058 8C5.27747 8.94665 4.97852 9.94678 4.74592 10.9498C6.74681 10.6738 8.00191 9.30508 8.00191 8H5.66058ZM3.96094 18.3315C3.96292 17.0123 4.03853 15.0724 4.35677 12.9911C7.31441 12.8421 10.0019 10.8447 10.0019 8H14.0019C14.0019 10.8446 16.6893 12.842 19.6468 12.991C19.965 15.0724 20.0406 17.0124 20.0425 18.3316C20.0431 18.7558 19.7183 19.1364 19.2279 19.1909L13.0017 19.8827V15.6181L14.4491 14.8944C14.9431 14.6475 15.1433 14.0468 14.8964 13.5528C14.6494 13.0588 14.0487 12.8586 13.5547 13.1056L12.0017 13.882L10.4492 13.1056C9.95519 12.8586 9.35451 13.0588 9.1075 13.5527C8.86049 14.0467 9.06068 14.6474 9.55465 14.8944L11.0017 15.618V19.8827L4.77554 19.1909C4.28518 19.1365 3.9603 18.7558 3.96094 18.3315ZM19.2576 10.9498C19.025 9.94675 18.726 8.94663 18.3428 8H16.0019C16.0019 9.30501 17.2569 10.6737 19.2576 10.9498ZM18.0017 6V4H15.0019L15.0019 6H18.0017ZM13.0019 6L13.0019 4H11.0019V6H13.0019ZM9.0019 6V4H6.00167V6H9.0019Z" fill="#000640"/>
</svg>
