<svg width="24" height="24" viewBox="0 0 24 24" fill="none" xmlns="http://www.w3.org/2000/svg">
<g clip-path="url(#clip0_1253_4672)">
<path fill-rule="evenodd" clip-rule="evenodd" d="M3.7095 14.6236C2.53681 13.4509 2.53753 11.5493 3.71203 10.3779C5.37956 8.71469 8.27328 5.82724 11.0503 3.05025C12.2347 1.86586 13.4681 1.2287 14.6769 0.986931C15.8784 0.74664 16.9859 0.910598 17.9072 1.2177C18.8244 1.52342 19.5766 1.97696 20.0947 2.347C20.3557 2.53342 20.5626 2.70247 20.707 2.82764C20.7793 2.89034 20.8364 2.94236 20.8771 2.98046C20.8975 2.99952 20.9138 3.01513 20.926 3.02688L20.941 3.04159L20.9462 3.04669L20.9481 3.04855L20.9489 3.04939L20.9509 3.05137L20.956 3.05652L20.9708 3.07156C20.9826 3.08368 20.9983 3.09996 21.0174 3.12028C21.0557 3.16091 21.1079 3.21783 21.1709 3.29C21.2966 3.43409 21.4663 3.64049 21.6534 3.90098C22.025 4.41802 22.4804 5.16917 22.7874 6.08596C23.0958 7.00705 23.2604 8.11471 23.0192 9.3174C22.7766 10.5272 22.1373 11.7622 20.9498 12.9497C18.165 15.7345 15.2826 18.6232 13.6221 20.2881C12.4506 21.4627 10.5491 21.4632 9.37644 20.2906L8.50009 19.4142L6.4572 21.4571C5.37632 22.538 3.62386 22.538 2.54298 21.4571C1.4621 20.3762 1.4621 18.6238 2.54298 17.5429L4.58588 15.5L3.7095 14.6236ZM6.00009 16.9142L3.95719 18.9571C3.65736 19.2569 3.65736 19.7431 3.9572 20.0429C4.25703 20.3427 4.74315 20.3427 5.04298 20.0429L7.08587 18L6.00009 16.9142ZM5.1244 11.7939C4.73298 12.1843 4.7325 12.8182 5.12371 13.2094L10.7907 18.8763C11.1819 19.2676 11.8157 19.2671 12.2061 18.8757C13.8668 17.2106 16.7499 14.3212 19.5356 11.5355C20.4767 10.5944 20.9018 9.7044 21.0582 8.92412C21.2162 8.1367 21.1146 7.38912 20.8909 6.72105C20.6658 6.04869 20.3229 5.47675 20.0292 5.06801C19.8838 4.8656 19.7542 4.70844 19.6637 4.60468C19.6185 4.55293 19.5835 4.51485 19.5614 4.49147C19.5549 4.48449 19.5495 4.47884 19.5453 4.47453C19.5426 4.47162 19.5403 4.46933 19.5387 4.46766L19.5374 4.46626L19.5362 4.46511L19.5348 4.46374C19.5306 4.4597 19.5226 4.452 19.5108 4.44102C19.4873 4.41905 19.4491 4.38406 19.3972 4.33904C19.293 4.24877 19.1353 4.11951 18.9322 3.97448C18.5222 3.68162 17.9486 3.33967 17.2748 3.11507C16.6051 2.89185 15.8564 2.79064 15.0692 2.94809C14.2893 3.10407 13.4014 3.52755 12.4645 4.46446C9.68659 7.24235 6.79217 10.1305 5.1244 11.7939Z" fill="#000640"/>
</g>
<defs>
<clipPath id="clip0_1253_4672">
<rect width="24" height="24" fill="white"/>
</clipPath>
</defs>
</svg>
