<svg width="24" height="24" viewBox="0 0 24 24" fill="none" xmlns="http://www.w3.org/2000/svg">
<path fill-rule="evenodd" clip-rule="evenodd" d="M10 8C10.5523 8 11 7.55228 11 7C11 6.44772 10.5523 6 10 6H3C2.44772 6 2 6.44772 2 7V14C2 14.5523 2.44772 15 3 15C3.55228 15 4 14.5523 4 14V9.41421L10.8787 16.2929C12.0503 17.4645 13.9497 17.4645 15.1213 16.2929L21.7071 9.70711C22.0976 9.31658 22.0976 8.68342 21.7071 8.29289C21.3166 7.90237 20.6834 7.90237 20.2929 8.29289L13.7071 14.8787C13.3166 15.2692 12.6834 15.2692 12.2929 14.8787L5.41421 8H10Z" fill="#000640"/>
</svg>
