<svg width="24" height="25" viewBox="0 0 24 25" fill="none" xmlns="http://www.w3.org/2000/svg">
<path fill-rule="evenodd" clip-rule="evenodd" d="M2.70696 3.4077C3.09748 3.01718 3.73064 3.01718 4.12117 3.4077L19.707 18.9935C20.0975 19.384 20.0975 20.0172 19.707 20.4077C19.3164 20.7982 18.6833 20.7982 18.2927 20.4077L2.70696 4.82191C2.31643 4.43139 2.31643 3.79822 2.70696 3.4077Z" fill="#000640"/>
<path d="M6.82828 6.11481H3.99985C3.44756 6.11481 2.99985 6.56252 2.99985 7.11481C2.99985 7.66709 3.44756 8.11481 3.99985 8.11481H8.82828L6.82828 6.11481Z" fill="#000640"/>
<path d="M11.8283 11.1148H6.99985C6.44756 11.1148 5.99985 11.5625 5.99985 12.1148C5.99985 12.6671 6.44756 13.1148 6.99985 13.1148H13.8283L11.8283 11.1148Z" fill="#000640"/>
<path d="M16.8282 13.1148L14.8282 11.1148H16.9998C17.5521 11.1148 17.9998 11.5625 17.9998 12.1148C17.9998 12.6671 17.5521 13.1148 16.9998 13.1148H16.8282Z" fill="#000640"/>
<path d="M11.8282 8.11481L9.82825 6.11481H19.9998C20.5521 6.11481 20.9998 6.56252 20.9998 7.11481C20.9998 7.66709 20.5521 8.11481 19.9998 8.11481H11.8282Z" fill="#000640"/>
<path d="M9.99985 16.1148C9.44756 16.1148 8.99985 16.5625 8.99985 17.1148C8.99985 17.6671 9.44756 18.1148 9.99985 18.1148H13.9998C14.5521 18.1148 14.9998 17.6671 14.9998 17.1148C14.9998 16.5625 14.5521 16.1148 13.9998 16.1148H9.99985Z" fill="#000640"/>
</svg>
