<svg width="24" height="25" viewBox="0 0 24 25" fill="none" xmlns="http://www.w3.org/2000/svg">
<path d="M4.46597 20.1034C4.79413 19.3845 5.39692 18.532 6.53017 17.8505C7.66948 17.1654 9.4091 16.6148 12.0689 16.6148C12.6212 16.6148 13.0689 16.1671 13.0689 15.6148C13.0689 15.0625 12.6212 14.6148 12.0689 14.6148C9.13377 14.6148 7.01752 15.2236 5.49946 16.1365C3.97535 17.0531 3.11929 18.2373 2.64655 19.2729C2.24807 20.1459 2.42944 21.0356 2.95887 21.6694C3.46353 22.2735 4.24822 22.6148 5.06887 22.6148H12.0688C12.6211 22.6148 13.0688 22.1671 13.0688 21.6148C13.0688 21.0625 12.6211 20.6148 12.0688 20.6148H5.06887C4.78494 20.6148 4.58398 20.4952 4.49382 20.3872C4.45184 20.337 4.43724 20.2951 4.4328 20.2654C4.42891 20.2393 4.42722 20.1883 4.46597 20.1034Z" fill="#000640"/>
<path d="M19.9326 20.1034C19.6044 19.3845 19.0016 18.532 17.8684 17.8505C16.7291 17.1654 14.9895 16.6148 12.3297 16.6148C11.7774 16.6148 11.3297 16.1671 11.3297 15.6148C11.3297 15.0625 11.7774 14.6148 12.3297 14.6148C15.2648 14.6148 17.381 15.2236 18.8991 16.1365C20.4232 17.0531 21.2793 18.2373 21.752 19.2729C22.1505 20.1459 21.9691 21.0356 21.4397 21.6694C20.935 22.2735 20.1503 22.6148 19.3297 22.6148H12.3297C11.7774 22.6148 11.3297 22.1671 11.3297 21.6148C11.3297 21.0625 11.7774 20.6148 12.3297 20.6148H19.3297C19.6136 20.6148 19.8146 20.4952 19.9047 20.3872C19.9467 20.337 19.9613 20.2951 19.9657 20.2654C19.9696 20.2393 19.9713 20.1883 19.9326 20.1034Z" fill="#000640"/>
<path fill-rule="evenodd" clip-rule="evenodd" d="M2.70696 3.4077C3.09748 3.01717 3.73064 3.01717 4.12117 3.4077L22.707 21.9935C23.0975 22.384 23.0975 23.0172 22.707 23.4077C22.3164 23.7982 21.6833 23.7982 21.2927 23.4077L2.70696 4.82191C2.31643 4.43139 2.31643 3.79822 2.70696 3.4077Z" fill="#000640"/>
<path d="M6.26172 5.54825C6.02551 6.19233 6.06883 6.88885 6.06883 7.61481C6.06883 10.9285 8.75513 13.6148 12.0688 13.6148C12.7948 13.6148 13.4653 13.6321 14.1094 13.3959L12.3125 11.599C12.1776 11.6128 12.2073 11.6148 12.0688 11.6148C9.8597 11.6148 8.06883 9.82395 8.06883 7.61481C8.06883 7.4763 8.10735 7.5425 8.12109 7.40762L6.26172 5.54825Z" fill="#000640"/>
<path d="M14.5028 10.7893C15.455 10.0581 16.0688 8.90815 16.0688 7.61481C16.0688 5.40567 14.278 3.61481 12.0688 3.61481C10.7755 3.61481 9.62551 4.22863 8.89433 5.18085L7.47201 3.75853C8.57264 2.44791 10.2234 1.61481 12.0688 1.61481C15.3825 1.61481 18.0688 4.3011 18.0688 7.61481C18.0688 9.4602 17.2357 11.111 15.9251 12.2116L14.5028 10.7893Z" fill="#000640"/>
</svg>
