<svg width="24" height="24" viewBox="0 0 24 24" fill="none" xmlns="http://www.w3.org/2000/svg">
<path d="M3 3C2.44772 3 2 3.44772 2 4C2 4.55228 2.44772 5 3 5L21 5C21.5523 5 22 4.55229 22 4C22 3.44772 21.5523 3 21 3H3Z" fill="#000640"/>
<path fill-rule="evenodd" clip-rule="evenodd" d="M2 8V16C2 16.3688 2.20299 16.7077 2.52814 16.8817C2.8533 17.0557 3.24784 17.0366 3.5547 16.832L9.5547 12.832C9.8329 12.6466 10 12.3343 10 12C10 11.6656 9.8329 11.3534 9.5547 11.1679L3.5547 7.16795C3.24784 6.96338 2.8533 6.94431 2.52814 7.11832C2.20298 7.29234 2 7.6312 2 8ZM7.19722 12L4 14.1315L4 9.86852L7.19722 12Z" fill="#000640"/>
<path d="M12 8C12 7.44772 12.4477 7 13 7L21 7C21.5523 7 22 7.44771 22 8C22 8.55228 21.5523 9 21 9L13 9C12.4477 9 12 8.55228 12 8Z" fill="#000640"/>
<path d="M13 11C12.4477 11 12 11.4477 12 12C12 12.5523 12.4477 13 13 13L21 13C21.5523 13 22 12.5523 22 12C22 11.4477 21.5523 11 21 11L13 11Z" fill="#000640"/>
<path d="M12 16C12 15.4477 12.4477 15 13 15L21 15C21.5523 15 22 15.4477 22 16C22 16.5523 21.5523 17 21 17L13 17C12.4477 17 12 16.5523 12 16Z" fill="#000640"/>
<path d="M2 20C2 20.5523 2.44772 21 3 21H21C21.5523 21 22 20.5523 22 20C22 19.4477 21.5523 19 21 19H3C2.44772 19 2 19.4477 2 20Z" fill="#000640"/>
</svg>
