<svg width="24" height="25" viewBox="0 0 24 25" fill="none" xmlns="http://www.w3.org/2000/svg">
<g clip-path="url(#clip0_1463_5197)">
<path fill-rule="evenodd" clip-rule="evenodd" d="M6 3.61481H9C9 1.95795 10.3431 0.614807 12 0.614807C13.6569 0.614807 15 1.95795 15 3.61481H18C19.6569 3.61481 21 4.95795 21 6.61481V20.6148C21 22.2717 19.6569 23.6148 18 23.6148H6C4.34315 23.6148 3 22.2717 3 20.6148V6.61481C3 4.95795 4.34315 3.61481 6 3.61481ZM12 2.61481C11.4477 2.61481 11 3.06252 11 3.61481H13C13 3.06252 12.5523 2.61481 12 2.61481ZM6 5.61481C5.44772 5.61481 5 6.06252 5 6.61481V20.6148C5 21.1671 5.44772 21.6148 6 21.6148H18C18.5523 21.6148 19 21.1671 19 20.6148V6.61481C19 6.06252 18.5523 5.61481 18 5.61481H6Z" fill="#000640"/>
<path fill-rule="evenodd" clip-rule="evenodd" d="M8.29289 10.4077C8.68342 10.0172 9.31658 10.0172 9.70711 10.4077L15.7071 16.4077C16.0976 16.7982 16.0976 17.4314 15.7071 17.8219C15.3166 18.2124 14.6834 18.2124 14.2929 17.8219L8.29289 11.8219C7.90237 11.4314 7.90237 10.7982 8.29289 10.4077Z" fill="#000640"/>
<path fill-rule="evenodd" clip-rule="evenodd" d="M8.29289 17.8219C7.90237 17.4314 7.90237 16.7982 8.29289 16.4077L14.2929 10.4077C14.6834 10.0172 15.3166 10.0172 15.7071 10.4077C16.0976 10.7982 16.0976 11.4314 15.7071 11.8219L9.70711 17.8219C9.31658 18.2124 8.68342 18.2124 8.29289 17.8219Z" fill="#000640"/>
</g>
<defs>
<clipPath id="clip0_1463_5197">
<rect width="24" height="24" fill="white" transform="translate(0 0.114807)"/>
</clipPath>
</defs>
</svg>
