<svg width="24" height="24" viewBox="0 0 24 24" fill="none" xmlns="http://www.w3.org/2000/svg">
<path fill-rule="evenodd" clip-rule="evenodd" d="M8.99984 9C8.44755 9 7.99984 9.44771 7.99984 10L7.9998 10.0789C7.99921 10.8563 7.99831 12.0498 8.47084 13.0489C8.73185 13.6007 9.1414 14.1108 9.76241 14.4723C10.3743 14.8284 11.1219 15 11.9998 15C12.8778 15 13.6254 14.8284 14.2373 14.4723C14.8583 14.1108 15.2678 13.6007 15.5288 13.0489C16.0014 12.0498 16.0005 10.8563 15.9999 10.0789L15.9998 10C15.9998 9.44771 15.5521 9 14.9998 9H8.99984ZM10.2788 12.1938C10.1227 11.8637 10.0536 11.46 10.0232 11H13.9765C13.9461 11.46 13.8769 11.8637 13.7208 12.1938C13.6069 12.4348 13.4539 12.6141 13.2312 12.7437C12.9993 12.8787 12.6219 13 11.9998 13C11.3778 13 11.0004 12.8787 10.7685 12.7437C10.5458 12.6141 10.3928 12.4348 10.2788 12.1938Z" fill="#000640"/>
<path fill-rule="evenodd" clip-rule="evenodd" d="M6.99985 2C6.99985 1.44772 6.55213 1 5.99985 1C5.44757 1 4.99985 1.44772 4.99985 2V4.91724L4.11882 10.2034C4.08456 10.409 3.98691 10.5987 3.83954 10.7461L2.97245 11.6132C2.32803 12.2576 2.01148 13.16 2.11212 14.0658L2.80828 20.3313C2.9771 21.8506 4.26129 23 5.78994 23H18.2098C19.7384 23 21.0226 21.8506 21.1914 20.3313L21.8876 14.0658C21.9882 13.16 21.6717 12.2576 21.0273 11.6132L20.1602 10.7461C20.0128 10.5987 19.9151 10.409 19.8809 10.2034L18.9998 4.91724V2C18.9998 1.44772 18.5521 1 17.9999 1C17.4476 1 16.9999 1.44772 16.9999 2V4.23908C15.0945 4.74715 13.5884 4.98798 12.0837 4.98797C10.5701 4.98795 9.01073 4.74429 6.99985 4.2301V2ZM6.09161 10.5322L6.80633 6.24386C8.7749 6.73217 10.4287 6.98795 12.0837 6.98797C13.7253 6.98798 15.3261 6.73637 17.1953 6.25541L17.9081 10.5322C18.0109 11.149 18.3038 11.7182 18.7459 12.1603L19.613 13.0274C19.8278 13.2422 19.9334 13.543 19.8998 13.8449L19.2036 20.1104C19.1474 20.6169 18.7193 21 18.2098 21H12.9999V19H13.9999C14.5521 19 14.9999 18.5523 14.9999 18C14.9999 17.4477 14.5521 17 13.9999 17H9.99985C9.44757 17 8.99985 17.4477 8.99985 18C8.99985 18.5523 9.44757 19 9.99985 19H10.9999V21H5.78994C5.28039 21 4.85232 20.6169 4.79605 20.1104L4.09989 13.8449C4.06634 13.543 4.17186 13.2422 4.38666 13.0274L5.25375 12.1603C5.69588 11.7182 5.98882 11.149 6.09161 10.5322Z" fill="#000640"/>
</svg>
