<svg width="24" height="24" viewBox="0 0 24 24" fill="none" xmlns="http://www.w3.org/2000/svg">
<path d="M6 19C6.55228 19 7 18.5523 7 18C7 17.4477 6.55228 17 6 17C5.44772 17 5 17.4477 5 18C5 18.5523 5.44772 19 6 19Z" fill="#000640"/>
<path fill-rule="evenodd" clip-rule="evenodd" d="M18.2929 1.29292C18.5758 1.01006 19 0.922986 19.3714 1.07155L21.8714 2.07155C22.3077 2.24608 22.5637 2.70088 22.4864 3.16443L21.9864 6.16443C21.906 6.64662 21.4888 7.00003 21 7.00003H20V8.00003C20 8.55231 19.5523 9.00003 19 9.00003H18V10C18 10.2652 17.8946 10.5196 17.7071 10.7071L13.7401 14.6742C13.9093 15.2534 14 15.8661 14 16.5C14 20.0899 11.0899 23 7.5 23C3.91015 23 1 20.0899 1 16.5C1 12.9101 3.91015 10 7.5 10C8.13391 10 8.74663 10.0907 9.32587 10.26L18.2929 1.29292ZM16 9.58582L12.8206 12.7652C12.3876 12.1495 11.8505 11.6124 11.2348 11.1794L19.2408 3.1734L20.3813 3.62957L20.1529 5.00003H19C18.4477 5.00003 18 5.44774 18 6.00003V7.00003H17C16.4477 7.00003 16 7.44774 16 8.00003V9.58582ZM7.5 21C9.98528 21 12 18.9853 12 16.5C12 14.0147 9.98528 12 7.5 12C5.01472 12 3 14.0147 3 16.5C3 18.9853 5.01472 21 7.5 21Z" fill="#000640"/>
</svg>
