<svg width="24" height="24" viewBox="0 0 24 24" fill="none" xmlns="http://www.w3.org/2000/svg">
<path d="M7 18C7 18.5523 6.55228 19 6 19C5.44772 19 5 18.5523 5 18C5 17.4477 5.44772 17 6 17C6.55228 17 7 17.4477 7 18Z" fill="#000640"/>
<path fill-rule="evenodd" clip-rule="evenodd" d="M20.7071 2.70711C21.0976 2.31658 21.0976 1.68342 20.7071 1.29289C20.3165 0.902369 19.6834 0.902369 19.2928 1.29289L8.28843 12.2973C7.72774 12.1046 7.12609 12 6.5 12C3.46243 12 1 14.4624 1 17.5C1 20.5376 3.46243 23 6.5 23C9.53757 23 12 20.5376 12 17.5C12 15.8321 11.2576 14.3376 10.0852 13.329L15 8.41421L17.7928 11.2071C18.1834 11.5976 18.8165 11.5976 19.2071 11.2071L22.2071 8.20711C22.5976 7.81658 22.5976 7.18342 22.2071 6.79289L19.4142 4L20.7071 2.70711ZM18.5 9.08579L16.4142 7L18 5.41421L20.0857 7.5L18.5 9.08579ZM6.5 14C4.567 14 3 15.567 3 17.5C3 19.433 4.567 21 6.5 21C8.433 21 10 19.433 10 17.5C10 15.567 8.433 14 6.5 14Z" fill="#000640"/>
</svg>
