<svg width="24" height="24" viewBox="0 0 24 24" fill="none" xmlns="http://www.w3.org/2000/svg">
<path d="M14 3C14 4.10457 13.1046 5 12 5C10.8954 5 10 4.10457 10 3C10 1.89543 10.8954 1 12 1C13.1046 1 14 1.89543 14 3Z" fill="#000640"/>
<path d="M12 11C13.1046 11 14 10.1046 14 9C14 7.89543 13.1046 7 12 7C10.8954 7 10 7.89543 10 9C10 10.1046 10.8954 11 12 11Z" fill="#000640"/>
<path d="M12 17C13.1046 17 14 16.1046 14 15C14 13.8954 13.1046 13 12 13C10.8954 13 10 13.8954 10 15C10 16.1046 10.8954 17 12 17Z" fill="#000640"/>
<path d="M12 23C13.1046 23 14 22.1046 14 21C14 19.8954 13.1046 19 12 19C10.8954 19 10 19.8954 10 21C10 22.1046 10.8954 23 12 23Z" fill="#000640"/>
<path d="M6 15C6 16.1046 5.10457 17 4 17C2.89543 17 2 16.1046 2 15C2 13.8954 2.89543 13 4 13C5.10457 13 6 13.8954 6 15Z" fill="#000640"/>
<path d="M4 11C5.10457 11 6 10.1046 6 9C6 7.89543 5.10457 7 4 7C2.89543 7 2 7.89543 2 9C2 10.1046 2.89543 11 4 11Z" fill="#000640"/>
<path d="M6 3C6 4.10457 5.10457 5 4 5C2.89543 5 2 4.10457 2 3C2 1.89543 2.89543 1 4 1C5.10457 1 6 1.89543 6 3Z" fill="#000640"/>
<path d="M20 17C21.1046 17 22 16.1046 22 15C22 13.8954 21.1046 13 20 13C18.8954 13 18 13.8954 18 15C18 16.1046 18.8954 17 20 17Z" fill="#000640"/>
<path d="M22 9C22 10.1046 21.1046 11 20 11C18.8954 11 18 10.1046 18 9C18 7.89543 18.8954 7 20 7C21.1046 7 22 7.89543 22 9Z" fill="#000640"/>
<path d="M20 5C21.1046 5 22 4.10457 22 3C22 1.89543 21.1046 1 20 1C18.8954 1 18 1.89543 18 3C18 4.10457 18.8954 5 20 5Z" fill="#000640"/>
</svg>
