<svg width="24" height="24" viewBox="0 0 24 24" fill="none" xmlns="http://www.w3.org/2000/svg">
<path fill-rule="evenodd" clip-rule="evenodd" d="M11.3861 1.21065C11.7472 0.929784 12.2529 0.929784 12.614 1.21065L21.614 8.21065C22.0329 8.53649 22.1243 9.13284 21.8222 9.56921L12.8222 22.5692C12.6355 22.839 12.3282 23 12.0001 23C11.6719 23 11.3646 22.839 11.1779 22.5692L2.17787 9.56921C1.87577 9.13284 1.96718 8.53649 2.38612 8.21065L11.3861 1.21065ZM4.90863 10H11.0001V18.7987L4.90863 10ZM13.0001 18.7987V10H19.0915L13.0001 18.7987ZM18.0855 8H13.0001V4.04464L18.0855 8ZM11.0001 4.04464V8H5.91459L11.0001 4.04464Z" fill="#000640"/>
</svg>
