<svg width="24" height="24" viewBox="0 0 24 24" fill="none" xmlns="http://www.w3.org/2000/svg">
<path fill-rule="evenodd" clip-rule="evenodd" d="M1.50204 19.5637C1.52119 19.8636 1.67422 20.139 1.91876 20.3137L5.41876 22.8137C5.86319 23.1312 6.48011 23.0333 6.8045 22.5939L10.5443 17.5285L11.7227 18.707C12.0966 19.0808 12.6968 19.099 13.0927 18.7486C15.175 16.9052 17.8589 14.2292 19.7271 11.2582C21.576 8.31791 22.7745 4.84289 21.4047 1.56242C21.2762 1.25469 21.0028 1.03127 20.6756 0.966676C20.3485 0.902086 20.0106 1.00483 19.7748 1.24063L7.73601 13.2795L1.81996 18.7668C1.59962 18.9712 1.48288 19.2638 1.50204 19.5637ZM9.11411 16.0983L5.7802 20.6141L4.07925 19.3991L8.40375 15.388L9.11411 16.0983ZM9.84404 13.9998L19.9575 3.88644C20.1737 5.85882 19.4034 8.01582 18.0341 10.1935C16.5072 12.6217 14.3489 14.8873 12.4652 16.621L9.84404 13.9998Z" fill="#000640"/>
</svg>
