<svg width="24" height="24" viewBox="0 0 24 24" fill="none" xmlns="http://www.w3.org/2000/svg">
<path fill-rule="evenodd" clip-rule="evenodd" d="M8.00043 2C8.00043 1.44772 8.44815 1 9.00043 1H15.0004C15.5527 1 16.0004 1.44772 16.0004 2V5C16.0004 5.55228 15.5527 6 15.0004 6V9.09167C15.0004 9.48652 15.1173 9.87254 15.3363 10.2011L20.7596 18.3359C22.0887 20.3296 20.6595 23 18.2634 23H5.73747C3.34138 23 1.9122 20.3296 3.24132 18.3359L8.66453 10.2011C8.88356 9.87254 9.00043 9.48652 9.00043 9.09167V6C8.44815 6 8.00043 5.55228 8.00043 5V2ZM11.0004 6V9.09167C11.0004 9.88137 10.7667 10.6534 10.3286 11.3105L4.90542 19.4453C4.46238 20.1099 4.93877 21 5.73747 21H18.2634C19.0621 21 19.5385 20.1099 19.0954 19.4453L13.6722 11.3105C13.2342 10.6534 13.0004 9.88137 13.0004 9.09167V6H11.0004ZM10.0004 4V3H14.0004V4H10.0004Z" fill="#000640"/>
</svg>
