<svg width="24" height="24" viewBox="0 0 24 24" fill="none" xmlns="http://www.w3.org/2000/svg">
<path d="M10 17C9.44771 17 9 17.4477 9 18C9 18.5523 9.44771 19 10 19H14C14.5523 19 15 18.5523 15 18C15 17.4477 14.5523 17 14 17H10Z" fill="#000640"/>
<path fill-rule="evenodd" clip-rule="evenodd" d="M6 2C4.34315 2 3 3.34315 3 5V13.7639L1.10557 17.5528C1.03615 17.6916 1 17.8448 1 18V19C1 20.6569 2.34315 22 4 22H20C21.6569 22 23 20.6569 23 19V18C23 17.8448 22.9639 17.6916 22.8944 17.5528L21 13.7639V5C21 3.34315 19.6569 2 18 2H6ZM3 18.2361L4.61803 15H19.382L21 18.2361V19C21 19.5523 20.5523 20 20 20H4C3.44772 20 3 19.5523 3 19V18.2361ZM19 5V13H5V5C5 4.44772 5.44772 4 6 4H18C18.5523 4 19 4.44772 19 5Z" fill="#000640"/>
</svg>
