<svg width="24" height="24" viewBox="0 0 24 24" fill="none" xmlns="http://www.w3.org/2000/svg">
<path fill-rule="evenodd" clip-rule="evenodd" d="M21.816 10.3398C20.7392 4.65904 15.7391 2.41023 11.4344 1.54661C9.24953 1.10826 7.13946 1.00026 5.5833 1C4.80297 0.999873 4.15648 1.02686 3.70258 1.05412C3.47551 1.06775 3.29631 1.08148 3.17228 1.09196C3.11025 1.0972 3.062 1.10164 3.02842 1.10485L2.98917 1.1087L2.97801 1.10984L2.97341 1.11032C2.49742 1.16083 2.12317 1.54165 2.08187 2.01853L3.07814 2.10482C2.08187 2.01853 2.08175 2.01995 2.08175 2.01995L2.08154 2.02237L2.08088 2.03024L2.07865 2.05784C2.07678 2.08144 2.07419 2.11538 2.07108 2.15912C2.06485 2.2466 2.05655 2.37333 2.04781 2.53506C2.03034 2.8584 2.01112 3.32224 2.00345 3.89238C1.98811 5.03093 2.01867 6.60215 2.20354 8.32978C2.56634 11.7201 3.54823 15.977 6.20456 18.6055C8.9426 21.3149 12.2348 21.2807 14.6998 20.6388C15.9317 20.318 16.9922 19.8399 17.7411 19.4457C17.9383 19.3419 18.1152 19.2432 18.2691 19.1539C19.0901 20.3813 19.7449 21.5129 20.0652 22.3555C20.2615 22.8717 20.8391 23.1311 21.3553 22.9348C21.8716 22.7385 22.1309 22.1609 21.9347 21.6447C21.5112 20.5307 20.689 19.1562 19.7749 17.8095C20.0759 17.4137 20.4438 16.8762 20.7908 16.2242C21.559 14.7811 22.2637 12.7015 21.816 10.3398ZM18.5486 16.084C18.7048 15.8483 18.8679 15.5804 19.0253 15.2845C19.6704 14.0727 20.1838 12.4679 19.851 10.7123C19.0129 6.29078 15.1354 4.32896 11.041 3.50754C9.02647 3.10336 7.05673 3.00024 5.58297 3C4.95988 2.9999 4.42933 3.01817 4.02641 3.03911C4.01654 3.28703 4.00779 3.58314 4.00326 3.91931C3.98869 5.00121 4.018 6.48927 4.19219 8.11698C4.54751 11.4374 5.48051 15.0754 7.61131 17.1839C9.66041 19.2115 12.113 19.2457 14.1958 18.7033C15.2378 18.432 16.1522 18.0219 16.8096 17.6759C16.9192 17.6182 17.0211 17.5625 17.1149 17.5099C16.4623 16.6187 15.7892 15.754 15.1774 15.0001H11C10.4477 15.0001 9.99996 14.5524 9.99996 14.0001C9.99996 13.4478 10.4477 13.0001 11 13.0001H13.4461C12.2459 11.7133 11.0221 10.6019 9.91872 9.81381C9.46931 9.4928 9.36521 8.86825 9.68622 8.41884C10.0072 7.96943 10.6318 7.86534 11.0812 8.18634C12.2311 9.00769 13.4593 10.1116 14.6515 11.3631V9.50008C14.6515 8.94779 15.0992 8.50008 15.6515 8.50008C16.2037 8.50008 16.6515 8.94779 16.6515 9.50008V13.6427C17.246 14.3725 17.9023 15.2106 18.5486 16.084ZM3.07814 2.10482L2.97341 1.11032C2.97341 1.11032 2.97261 1.1104 3.07814 2.10482Z" fill="#000640"/>
</svg>
