<svg width="24" height="24" viewBox="0 0 24 24" fill="none" xmlns="http://www.w3.org/2000/svg">
<path fill-rule="evenodd" clip-rule="evenodd" d="M3 16C2.44772 16 2 16.4477 2 17C2 17.5523 2.44772 18 3 18C3.55228 18 4 17.5523 4 17C4 16.4477 3.55228 16 3 16ZM0 17C0 15.3431 1.34315 14 3 14C4.65685 14 6 15.3431 6 17C6 18.6569 4.65685 20 3 20C1.34315 20 0 18.6569 0 17Z" fill="#000640"/>
<path fill-rule="evenodd" clip-rule="evenodd" d="M9 7C8.44772 7 8 7.44772 8 8C8 8.55228 8.44772 9 9 9C9.55228 9 10 8.55228 10 8C10 7.44772 9.55228 7 9 7ZM6 8C6 6.34315 7.34315 5 9 5C10.6569 5 12 6.34315 12 8C12 9.65685 10.6569 11 9 11C7.34315 11 6 9.65685 6 8Z" fill="#000640"/>
<path fill-rule="evenodd" clip-rule="evenodd" d="M15 14C14.4477 14 14 14.4477 14 15C14 15.5523 14.4477 16 15 16C15.5523 16 16 15.5523 16 15C16 14.4477 15.5523 14 15 14ZM12 15C12 13.3431 13.3431 12 15 12C16.6569 12 18 13.3431 18 15C18 16.6569 16.6569 18 15 18C13.3431 18 12 16.6569 12 15Z" fill="#000640"/>
<path fill-rule="evenodd" clip-rule="evenodd" d="M21 6C20.4477 6 20 6.44772 20 7C20 7.55228 20.4477 8 21 8C21.5523 8 22 7.55228 22 7C22 6.44772 21.5523 6 21 6ZM18 7C18 5.34315 19.3431 4 21 4C22.6569 4 24 5.34315 24 7C24 8.65685 22.6569 10 21 10C19.3431 10 18 8.65685 18 7Z" fill="#000640"/>
<path fill-rule="evenodd" clip-rule="evenodd" d="M8.86824 9.49614L4.86824 16.4961L3.13176 15.5039L7.13176 8.50386L8.86824 9.49614Z" fill="#000640"/>
<path fill-rule="evenodd" clip-rule="evenodd" d="M10.7809 8.37531L14.7809 13.3753L13.2191 14.6247L9.21913 9.6247L10.7809 8.37531Z" fill="#000640"/>
<path fill-rule="evenodd" clip-rule="evenodd" d="M20.8321 8.5547L16.8321 14.5547L15.1679 13.4453L19.1679 7.4453L20.8321 8.5547Z" fill="#000640"/>
</svg>
