<svg width="24" height="24" viewBox="0 0 24 24" fill="none" xmlns="http://www.w3.org/2000/svg">
<path d="M6.79289 6.20711C7.18342 6.59763 7.81658 6.59763 8.20711 6.20711C8.59763 5.81658 8.59763 5.18342 8.20711 4.79289L5.70711 2.29289C5.31658 1.90237 4.68342 1.90237 4.29289 2.29289L1.79289 4.79289C1.40237 5.18342 1.40237 5.81658 1.79289 6.20711C2.18342 6.59763 2.81658 6.59763 3.20711 6.20711L4 5.41421V18.5858L3.20711 17.7929C2.81658 17.4024 2.18342 17.4024 1.79289 17.7929C1.40237 18.1834 1.40237 18.8166 1.79289 19.2071L4.29289 21.7071C4.48043 21.8946 4.73478 22 5 22C5.26522 22 5.51957 21.8946 5.70711 21.7071L8.20711 19.2071C8.59763 18.8166 8.59763 18.1834 8.20711 17.7929C7.81658 17.4024 7.18342 17.4024 6.79289 17.7929L6 18.5858V5.41421L6.79289 6.20711Z" fill="#000640"/>
<path d="M11 3C10.4477 3 10 3.44772 10 4C10 4.55228 10.4477 5 11 5L21 5C21.5523 5 22 4.55228 22 4C22 3.44771 21.5523 3 21 3L11 3Z" fill="#000640"/>
<path d="M10 8C10 7.44772 10.4477 7 11 7L21 7C21.5523 7 22 7.44771 22 8C22 8.55228 21.5523 9 21 9L11 9C10.4477 9 10 8.55228 10 8Z" fill="#000640"/>
<path d="M11 11C10.4477 11 10 11.4477 10 12C10 12.5523 10.4477 13 11 13L21 13C21.5523 13 22 12.5523 22 12C22 11.4477 21.5523 11 21 11L11 11Z" fill="#000640"/>
<path d="M10 16C10 15.4477 10.4477 15 11 15L21 15C21.5523 15 22 15.4477 22 16C22 16.5523 21.5523 17 21 17L11 17C10.4477 17 10 16.5523 10 16Z" fill="#000640"/>
<path d="M11 19C10.4477 19 10 19.4477 10 20C10 20.5523 10.4477 21 11 21L21 21C21.5523 21 22 20.5523 22 20C22 19.4477 21.5523 19 21 19L11 19Z" fill="#000640"/>
</svg>
