<svg width="24" height="24" viewBox="0 0 24 24" fill="none" xmlns="http://www.w3.org/2000/svg">
<g clip-path="url(#clip0_1253_6276)">
<path fill-rule="evenodd" clip-rule="evenodd" d="M12 0C5.37258 0 0 5.37258 0 12C0 18.6274 5.37258 24 12 24C18.6274 24 24 18.6274 24 12C24 5.37258 18.6274 0 12 0ZM2 12C2 9.59875 2.84635 7.39517 4.25703 5.6713L7.10923 8.5235C6.41078 9.50431 6 10.7042 6 12C6 13.2959 6.41081 14.4958 7.10929 15.4766L4.25709 18.3288C2.84638 16.6049 2 14.4013 2 12ZM5.67132 19.743C7.39518 21.1537 9.59875 22 12 22C14.4013 22 16.6048 21.1536 18.3287 19.743L15.4765 16.8908C14.4957 17.5892 13.2958 18 12 18C10.7042 18 9.50433 17.5892 8.52352 16.8908L5.67132 19.743ZM8.52343 7.10928L5.67123 4.25708C7.39511 2.84638 9.59871 2 12 2C14.4013 2 16.6049 2.84638 18.3288 4.25709L15.4766 7.10929C14.4958 6.41081 13.2959 6 12 6C10.7042 6 9.50426 6.4108 8.52343 7.10928ZM19.7429 18.3288C21.1536 16.6049 22 14.4013 22 12C22 9.59875 21.1537 7.39518 19.743 5.67132L16.8908 8.52352C17.5892 9.50433 18 10.7042 18 12C18 13.2958 17.5892 14.4957 16.8907 15.4766L19.7429 18.3288ZM8 12C8 9.79086 9.79086 8 12 8C14.2091 8 16 9.79086 16 12C16 14.2091 14.2091 16 12 16C9.79086 16 8 14.2091 8 12Z" fill="#000640"/>
</g>
<defs>
<clipPath id="clip0_1253_6276">
<rect width="24" height="24" fill="white"/>
</clipPath>
</defs>
</svg>
