<svg width="24" height="24" viewBox="0 0 24 24" fill="none" xmlns="http://www.w3.org/2000/svg">
<path d="M5.16453 15.9465C2.98505 12.1715 4.27845 7.3445 8.05342 5.16502C11.7469 3.03259 16.4475 4.22471 18.6901 7.8129L16.3055 7.04812C15.7796 6.87945 15.2165 7.16905 15.0479 7.69495C14.8792 8.22085 15.1688 8.7839 15.6947 8.95257L20.6947 10.5561C20.9989 10.6537 21.3313 10.6001 21.5894 10.4118C21.8475 10.2236 22.0001 9.92335 22.0001 9.60392V4.00034C22.0001 3.44806 21.5524 3.00034 21.0001 3.00034C20.4478 3.00034 20.0001 3.44806 20.0001 4.00034V6.1801C17.0626 2.13187 11.4807 0.876852 7.05342 3.43297C2.32186 6.16473 0.700711 12.215 3.43248 16.9465C5.26385 20.1186 8.58645 21.8913 11.9993 21.8943C12.5515 21.8948 12.9997 21.4475 13.0001 20.8952C13.0006 20.3429 12.5533 19.8948 12.001 19.8943C9.27278 19.8919 6.62452 18.4753 5.16453 15.9465Z" fill="#000640"/>
<path d="M20.6896 14.5478C20.1457 14.4519 19.7825 13.9332 19.8784 13.3893C19.9743 12.8454 20.493 12.4823 21.0369 12.5782C21.5808 12.6741 21.944 13.1927 21.848 13.7366C21.7521 14.2805 21.2335 14.6437 20.6896 14.5478Z" fill="#000640"/>
<path d="M18.9278 16.0002C18.6517 16.4785 18.8156 17.0901 19.2939 17.3662C19.7721 17.6423 20.3837 17.4785 20.6599 17.0002C20.936 16.5219 20.7721 15.9103 20.2939 15.6342C19.8156 15.358 19.204 15.5219 18.9278 16.0002Z" fill="#000640"/>
<path d="M17.0187 19.5375C16.6637 19.1144 16.7189 18.4836 17.142 18.1286C17.565 17.7736 18.1958 17.8288 18.5508 18.2519C18.9058 18.675 18.8506 19.3057 18.4275 19.6607C18.0045 20.0157 17.3737 19.9605 17.0187 19.5375Z" fill="#000640"/>
<path d="M14.7359 19.5177C14.2169 19.7066 13.9493 20.2804 14.1382 20.7994C14.3271 21.3184 14.9009 21.586 15.4199 21.3971C15.9389 21.2082 16.2065 20.6343 16.0176 20.1154C15.8287 19.5964 15.2548 19.3288 14.7359 19.5177Z" fill="#000640"/>
</svg>
