<svg width="24" height="24" viewBox="0 0 24 24" fill="none" xmlns="http://www.w3.org/2000/svg">
<path fill-rule="evenodd" clip-rule="evenodd" d="M8.05342 5.16477C4.27845 7.34426 2.98505 12.1713 5.16453 15.9463C7.34401 19.7213 12.1711 21.0147 15.946 18.8352C17.9874 17.6566 19.3029 15.7054 19.7365 13.5611C19.846 13.0197 20.3736 12.6696 20.9149 12.7791C21.4562 12.8886 21.8063 13.4161 21.6968 13.9575C21.1543 16.6403 19.505 19.0898 16.946 20.5672C12.2145 23.299 6.16425 21.6778 3.43248 16.9463C0.700711 12.2147 2.32186 6.16449 7.05342 3.43272C11.785 0.700955 17.8352 2.32211 20.567 7.05367C20.8431 7.53196 20.6792 8.14355 20.201 8.41969C19.7227 8.69584 19.1111 8.53196 18.8349 8.05367C16.6554 4.27869 11.8284 2.98529 8.05342 5.16477Z" fill="#000640"/>
<path fill-rule="evenodd" clip-rule="evenodd" d="M15.0479 7.69462C15.2165 7.16872 15.7796 6.87912 16.3055 7.04779L20.0001 8.2327V4.00001C20.0001 3.44773 20.4478 3.00001 21.0001 3.00001C21.5524 3.00001 22.0001 3.44773 22.0001 4.00001L22.0001 9.60359C22.0001 9.92302 21.8475 10.2232 21.5894 10.4115C21.3314 10.5997 20.9989 10.6534 20.6947 10.5558L15.6947 8.95224C15.1688 8.78357 14.8792 8.22052 15.0479 7.69462Z" fill="#000640"/>
</svg>
