<svg width="24" height="24" viewBox="0 0 24 24" fill="none" xmlns="http://www.w3.org/2000/svg">
<path d="M11.0002 9.48924V9C11.0002 8.44772 11.448 8 12.0002 8C12.5525 8 13.0002 8.44772 13.0002 9V9.48443C13.5221 9.64732 13.9886 9.93713 14.3432 10.3305C14.7129 10.7407 14.6801 11.373 14.2699 11.7428C13.8597 12.1126 13.2274 12.0798 12.8576 11.6695C12.6978 11.4923 12.3953 11.3333 12.0002 11.3333C11.2695 11.3333 11.0002 11.7948 11.0002 12C11.0002 12.2052 11.2695 12.6668 12.0002 12.6668C13.4786 12.6669 15.0001 13.6978 15.0001 15.3335C15.0001 16.596 14.0937 17.4982 13.0002 17.8442V18.3333C13.0002 18.8856 12.5525 19.3333 12.0002 19.3333C11.448 19.3333 11.0002 18.8856 11.0002 18.3333V17.8491C10.4783 17.6862 10.0118 17.3964 9.65719 17.003C9.28742 16.5928 9.32023 15.9605 9.73046 15.5907C10.1407 15.2209 10.773 15.2537 11.1428 15.664C11.3025 15.8412 11.605 16.0002 12.0001 16.0002C12.7309 16.0002 13.0001 15.5387 13.0001 15.3335C13.0001 15.1283 12.7309 14.6667 12.0001 14.6667C10.5218 14.6666 9.00024 13.6357 9.00024 12C9.00024 10.7374 9.90677 9.8352 11.0002 9.48924Z" fill="#000640"/>
<path fill-rule="evenodd" clip-rule="evenodd" d="M5.66009 5H8.00024C8.00024 2.79086 9.7911 1 12.0002 1C14.2094 1 16.0002 2.79086 16.0002 5H18.3404C19.784 5 21.023 6.02822 21.289 7.44713L23.539 19.4471C23.8852 21.2934 22.4688 23 20.5904 23H3.41009C1.53168 23 0.115305 21.2934 0.461475 19.4471L2.71148 7.44714C2.97752 6.02822 4.21645 5 5.66009 5ZM12.0002 3C10.8957 3 10.0002 3.89543 10.0002 5H14.0002C14.0002 3.89543 13.1048 3 12.0002 3ZM5.66009 7C5.17888 7 4.7659 7.34274 4.67722 7.81571L2.42722 19.8157C2.31183 20.4311 2.78395 21 3.41009 21H20.5904C21.2165 21 21.6887 20.4311 21.5733 19.8157L19.3233 7.81571C19.2346 7.34274 18.8216 7 18.3404 7H5.66009Z" fill="#000640"/>
</svg>
