<svg width="24" height="24" viewBox="0 0 24 24" fill="none" xmlns="http://www.w3.org/2000/svg">
<g clip-path="url(#clip0_1253_6417)">
<path d="M12 14C13.1046 14 14 13.1046 14 12C14 10.8954 13.1046 10 12 10C10.8954 10 10 10.8954 10 12C10 13.1046 10.8954 14 12 14Z" fill="#000640"/>
<path fill-rule="evenodd" clip-rule="evenodd" d="M12 0C12.5523 0 13 0.447715 13 1V3.05493C17.1716 3.51608 20.4839 6.82838 20.9451 11H23C23.5523 11 24 11.4477 24 12C24 12.5523 23.5523 13 23 13H20.9451C20.4839 17.1716 17.1716 20.4839 13 20.9451V23C13 23.5523 12.5523 24 12 24C11.4477 24 11 23.5523 11 23V20.9451C6.82838 20.4839 3.51608 17.1716 3.05493 13H1C0.447715 13 0 12.5523 0 12C0 11.4477 0.447715 11 1 11H3.05493C3.51608 6.82838 6.82838 3.51608 11 3.05493V1C11 0.447715 11.4477 0 12 0ZM5 12C5 15.866 8.13401 19 12 19C15.866 19 19 15.866 19 12C19 8.13401 15.866 5 12 5C8.13401 5 5 8.13401 5 12Z" fill="#000640"/>
</g>
<defs>
<clipPath id="clip0_1253_6417">
<rect width="24" height="24" fill="white"/>
</clipPath>
</defs>
</svg>
