<svg width="24" height="24" viewBox="0 0 24 24" fill="none" xmlns="http://www.w3.org/2000/svg">
<path d="M8 7C8 4.79086 9.79086 3 12 3C13.0905 3 14.0774 3.43508 14.8 4.14338C15.1943 4.53001 15.8275 4.52371 16.2141 4.12933C16.6007 3.73494 16.5944 3.10181 16.2 2.71518C15.1188 1.65524 13.6349 1 12 1C8.68629 1 6 3.68629 6 7V9C4.34315 9 3 10.3431 3 12V16C3 16.5523 3.44772 17 4 17C4.55228 17 5 16.5523 5 16V12C5 11.4477 5.44772 11 6 11H10C10.5523 11 11 10.5523 11 10C11 9.44771 10.5523 9 10 9H8V7Z" fill="#000640"/>
<path d="M12.7929 16.7928C12.355 17.2307 11.645 17.2307 11.2071 16.7928L9.79285 18.207C11.0118 19.426 12.9881 19.426 14.2071 18.207C15.4261 16.9881 15.4261 15.0117 14.2071 13.7928L12.7929 15.207C13.2308 15.6449 13.2308 16.3549 12.7929 16.7928Z" fill="#000640"/>
<path fill-rule="evenodd" clip-rule="evenodd" d="M21.7071 3.70711L16.4142 9H18C19.6569 9 21 10.3431 21 12V20C21 21.6569 19.6569 23 18 23H6C5.0186 23 4.14727 22.5288 3.59993 21.8002C3.20819 22.0947 2.64943 22.0636 2.29289 21.7071C1.90237 21.3166 1.90237 20.6834 2.29289 20.2929L20.2929 2.29289C20.6834 1.90237 21.3166 1.90237 21.7071 2.29289C22.0976 2.68342 22.0976 3.31658 21.7071 3.70711ZM5.0633 20.3509L14.4142 11H18C18.5523 11 19 11.4477 19 12V20C19 20.5523 18.5523 21 18 21H6C5.57119 21 5.20542 20.7301 5.0633 20.3509Z" fill="#000640"/>
</svg>
