<svg width="24" height="24" viewBox="0 0 24 24" fill="none" xmlns="http://www.w3.org/2000/svg">
<path fill-rule="evenodd" clip-rule="evenodd" d="M12 19C13.6569 19 15 17.6569 15 16C15 14.3431 13.6569 13 12 13C10.3431 13 9 14.3431 9 16C9 17.6569 10.3431 19 12 19ZM12 17C12.5523 17 13 16.5523 13 16C13 15.4477 12.5523 15 12 15C11.4477 15 11 15.4477 11 16C11 16.5523 11.4477 17 12 17Z" fill="#000640"/>
<path fill-rule="evenodd" clip-rule="evenodd" d="M8.33241 5.40037C8.95057 3.98556 10.3613 3 12 3C14.2092 3 16 4.79086 16 7V9H6C4.34315 9 3 10.3431 3 12V20C3 21.6569 4.34315 23 6 23H18C19.6569 23 21 21.6569 21 20V12C21 10.3431 19.6569 9.00001 18 9V7C18 3.68629 15.3137 1 12 1C9.53807 1 7.42466 2.48263 6.4997 4.59963C6.27858 5.10572 6.5096 5.69523 7.01568 5.91635C7.52177 6.13747 8.11129 5.90646 8.33241 5.40037ZM6 11C5.44772 11 5 11.4477 5 12V20C5 20.5523 5.44772 21 6 21H18C18.5523 21 19 20.5523 19 20V12C19 11.4477 18.5523 11 18 11H6Z" fill="#000640"/>
</svg>
