<svg width="24" height="25" viewBox="0 0 24 25" fill="none" xmlns="http://www.w3.org/2000/svg">
<path fill-rule="evenodd" clip-rule="evenodd" d="M17.7695 6.61481C17.2172 6.61481 16.7695 7.06252 16.7695 7.61481C16.7695 8.16709 17.2172 8.61481 17.7695 8.61481C18.3218 8.61481 18.7695 8.16709 18.7695 7.61481C18.7695 7.06252 18.3218 6.61481 17.7695 6.61481ZM14.7695 7.61481C14.7695 5.95795 16.1127 4.61481 17.7695 4.61481C19.4264 4.61481 20.7695 5.95795 20.7695 7.61481C20.7695 9.27166 19.4264 10.6148 17.7695 10.6148C16.1127 10.6148 14.7695 9.27166 14.7695 7.61481Z" fill="#000640"/>
<path fill-rule="evenodd" clip-rule="evenodd" d="M17.7695 15.6148C17.2172 15.6148 16.7695 16.0625 16.7695 16.6148C16.7695 17.1671 17.2172 17.6148 17.7695 17.6148C18.3218 17.6148 18.7695 17.1671 18.7695 16.6148C18.7695 16.0625 18.3218 15.6148 17.7695 15.6148ZM14.7695 16.6148C14.7695 14.958 16.1127 13.6148 17.7695 13.6148C19.4264 13.6148 20.7695 14.958 20.7695 16.6148C20.7695 18.2717 19.4264 19.6148 17.7695 19.6148C16.1127 19.6148 14.7695 18.2717 14.7695 16.6148Z" fill="#000640"/>
<path fill-rule="evenodd" clip-rule="evenodd" d="M5.76953 6.61481C5.21725 6.61481 4.76953 7.06252 4.76953 7.61481C4.76953 8.16709 5.21725 8.61481 5.76953 8.61481C6.32182 8.61481 6.76953 8.16709 6.76953 7.61481C6.76953 7.06252 6.32182 6.61481 5.76953 6.61481ZM2.76953 7.61481C2.76953 5.95795 4.11268 4.61481 5.76953 4.61481C7.42639 4.61481 8.76953 5.95795 8.76953 7.61481C8.76953 9.27166 7.42639 10.6148 5.76953 10.6148C4.11268 10.6148 2.76953 9.27166 2.76953 7.61481Z" fill="#000640"/>
<path fill-rule="evenodd" clip-rule="evenodd" d="M6.76953 7.61481C6.76953 7.06252 7.21725 6.61481 7.76953 6.61481H15.7695C16.3218 6.61481 16.7695 7.06252 16.7695 7.61481C16.7695 8.16709 16.3218 8.61481 15.7695 8.61481H7.76953C7.21725 8.61481 6.76953 8.16709 6.76953 7.61481Z" fill="#000640"/>
<path fill-rule="evenodd" clip-rule="evenodd" d="M5.87561 8.69566C6.38324 8.47811 6.97112 8.71326 7.18868 9.22089L9.92893 15.6148H15.7695C16.3218 15.6148 16.7695 16.0625 16.7695 16.6148C16.7695 17.1671 16.3218 17.6148 15.7695 17.6148H9.43438C8.93434 17.6148 8.48242 17.3168 8.28545 16.8572L5.35039 10.0087C5.13283 9.5011 5.36798 8.91322 5.87561 8.69566Z" fill="#000640"/>
</svg>
