<svg width="24" height="24" viewBox="0 0 24 24" fill="none" xmlns="http://www.w3.org/2000/svg">
<path fill-rule="evenodd" clip-rule="evenodd" d="M10 3C9.44772 3 9 3.44772 9 4V5H15V4C15 3.44772 14.5523 3 14 3H10ZM17 5V4C17 2.34315 15.6569 1 14 1H10C8.34315 1 7 2.34315 7 4V5H4C2.34315 5 1 6.34315 1 8V19C1 20.6569 2.34315 22 4 22C4 22.5523 4.44772 23 5 23C5.55228 23 6 22.5523 6 22H18C18 22.5523 18.4477 23 19 23C19.5523 23 20 22.5523 20 22C21.6569 22 23 20.6569 23 19V8C23 6.34315 21.6569 5 20 5H17ZM15 7H9V20H15V7ZM17 20V7H20C20.5523 7 21 7.44772 21 8V19C21 19.5523 20.5523 20 20 20H17ZM7 20V7H4C3.44772 7 3 7.44772 3 8V19C3 19.5523 3.44772 20 4 20H7Z" fill="#000640"/>
</svg>
