<svg width="24" height="24" viewBox="0 0 24 24" fill="none" xmlns="http://www.w3.org/2000/svg">
<path fill-rule="evenodd" clip-rule="evenodd" d="M8 2C8 1.44772 8.44772 1 9 1H15C15.5523 1 16 1.44772 16 2V4.17647H17C18.6569 4.17647 20 5.51962 20 7.17647V19C20 20.6569 18.6569 22 17 22C17 22.5523 16.5523 23 16 23C15.4477 23 15 22.5523 15 22H9C9 22.5523 8.55228 23 8 23C7.44772 23 7 22.5523 7 22C5.34315 22 4 20.6569 4 19V7.17647C4 5.51962 5.34314 4.17647 7 4.17647H8V2ZM10 4.17647H14V3H10V4.17647ZM7 6.17647C6.44772 6.17647 6 6.62419 6 7.17647V19C6 19.5523 6.44772 20 7 20H17C17.5523 20 18 19.5523 18 19V7.17647C18 6.62419 17.5523 6.17647 17 6.17647H7ZM10 8C10.5523 8 11 8.44772 11 9V17C11 17.5523 10.5523 18 10 18C9.44772 18 9 17.5523 9 17V9C9 8.44772 9.44772 8 10 8ZM14 8C14.5523 8 15 8.44772 15 9V17C15 17.5523 14.5523 18 14 18C13.4477 18 13 17.5523 13 17V9C13 8.44772 13.4477 8 14 8Z" fill="#000640"/>
</svg>
