<svg width="24" height="24" viewBox="0 0 24 24" fill="none" xmlns="http://www.w3.org/2000/svg">
<path fill-rule="evenodd" clip-rule="evenodd" d="M12 4C10.55 4 9.19867 4.17505 8.17712 4.48151C7.67271 4.63284 7.19166 4.83288 6.81439 5.10047C6.4631 5.34964 6 5.80808 6 6.5C6 7.19192 6.4631 7.65036 6.81439 7.89953C7.19166 8.16712 7.67271 8.36716 8.17712 8.51849C9.19867 8.82495 10.55 9 12 9C13.45 9 14.8013 8.82495 15.8229 8.51849C16.3273 8.36716 16.8083 8.16712 17.1856 7.89953C17.5369 7.65036 18 7.19192 18 6.5C18 5.80808 17.5369 5.34964 17.1856 5.10047C16.8083 4.83288 16.3273 4.63284 15.8229 4.48151C14.8013 4.17505 13.45 4 12 4ZM7.90941 6.78263C7.90941 6.78263 7.91162 6.77951 7.91825 6.77346C7.91309 6.77963 7.90941 6.78263 7.90941 6.78263ZM8.75181 6.39717C8.63748 6.43147 8.53531 6.46601 8.44469 6.5C8.53531 6.53399 8.63748 6.56853 8.75181 6.60283C9.5399 6.83926 10.6886 7 12 7C13.3114 7 14.4601 6.83926 15.2482 6.60283C15.3625 6.56853 15.4647 6.53398 15.5553 6.5C15.4647 6.46601 15.3625 6.43147 15.2482 6.39717C14.4601 6.16074 13.3114 6 12 6C10.6886 6 9.5399 6.16074 8.75181 6.39717ZM16.0906 6.78263C16.0906 6.78263 16.0869 6.77963 16.0817 6.77346C16.0884 6.77951 16.0906 6.78263 16.0906 6.78263ZM16.0817 6.22654C16.0869 6.22037 16.0906 6.21737 16.0906 6.21737C16.0906 6.21737 16.0884 6.22049 16.0817 6.22654ZM7.91825 6.22654C7.91162 6.22049 7.90941 6.21737 7.90941 6.21737C7.90941 6.21737 7.91309 6.22037 7.91825 6.22654Z" fill="#000640"/>
<path fill-rule="evenodd" clip-rule="evenodd" d="M4.51857 2.4061C6.48468 1.52135 9.13066 1 12 1C14.8693 1 17.5153 1.52135 19.4814 2.4061C21.3537 3.24861 23 4.61874 23 6.5C23 8.38126 21.3537 9.75139 19.4814 10.5939C19.3504 10.6529 19.2164 10.7102 19.0795 10.7659L19.8687 18.848C19.9816 20.0036 19.4121 21.2305 18.222 21.7347C14.4436 23.3354 9.55637 23.3354 5.77797 21.7347C4.5878 21.2305 4.01838 20.0036 4.13122 18.848L4.92043 10.7658C4.78355 10.7102 4.64955 10.6528 4.51857 10.5939C2.64633 9.75139 1 8.38126 1 6.5C1 4.61874 2.64633 3.24861 4.51857 2.4061ZM5.3393 4.22994C3.59225 5.01611 3 5.89598 3 6.5C3 7.10402 3.59225 7.98389 5.3393 8.77006C6.99248 9.51399 9.34649 10 12 10C14.6535 10 17.0075 9.51399 18.6607 8.77006C20.4077 7.98389 21 7.10402 21 6.5C21 5.89598 20.4077 5.01611 18.6607 4.22994C17.0075 3.48601 14.6535 3 12 3C9.34649 3 6.99248 3.48601 5.3393 4.22994ZM12 12C13.843 12 15.5939 11.7849 17.1316 11.3966L17.3059 13.1817C14.0152 14.3838 9.98471 14.3838 6.69404 13.1817L6.86836 11.3966C8.4061 11.7849 10.157 12 12 12ZM17.5058 15.2288C14.0339 16.3681 9.96608 16.3681 6.49415 15.2288L6.12175 19.0423C6.08077 19.4621 6.29087 19.7799 6.55813 19.8931C9.83787 21.2826 14.1621 21.2826 17.4418 19.8931C17.7091 19.7799 17.9192 19.4621 17.8782 19.0423L17.5058 15.2288Z" fill="#000640"/>
</svg>
