<svg width="24" height="24" viewBox="0 0 24 24" fill="none" xmlns="http://www.w3.org/2000/svg">
<path fill-rule="evenodd" clip-rule="evenodd" d="M4.44784 13.4379L3.21122 5.29082C3.03437 4.12567 3.55905 2.82675 4.79359 2.30013C6.85669 1.42006 9.45188 1 12 1C14.5481 1 17.1433 1.42006 19.2064 2.30013C20.4409 2.82675 20.9656 4.12567 20.7887 5.29082L19.5521 13.4379C20.3681 13.8118 21.0843 14.2583 21.6501 14.7752C22.436 15.4929 23 16.4158 23 17.4997C23 19.381 21.3537 20.7511 19.4814 21.5936C17.5153 22.4783 14.8693 22.9997 12 22.9997C9.13066 22.9997 6.48468 22.4783 4.51857 21.5936C2.64633 20.7511 1 19.381 1 17.4997C1 16.38 1.60102 15.4335 2.42817 14.7049C2.98013 14.2187 3.66746 13.7955 4.44784 13.4379ZM5.69799 17.9533C8.17856 18.7391 10.1724 19.1558 12.1509 19.1551C14.1349 19.1545 16.0337 18.7344 18.3255 17.9455C18.6773 17.8244 18.9328 17.5179 18.9886 17.15L19.2369 15.5148C19.668 15.7498 20.0242 15.9987 20.3013 16.2519C20.8272 16.7322 21 17.1578 21 17.4997C21 18.1037 20.4077 18.9836 18.6607 19.7698C17.0075 20.5137 14.6535 20.9997 12 20.9997C9.34649 20.9997 6.99248 20.5137 5.3393 19.7698C3.59225 18.9836 3 18.1037 3 17.4997C3 17.1471 3.18454 16.7039 3.75016 16.2057C4.02006 15.968 4.359 15.7351 4.76309 15.5148L5.0113 17.1501C5.06848 17.5268 5.33476 17.8382 5.69799 17.9533ZM17.5447 13.3357L17.103 16.2457C15.2005 16.8634 13.6817 17.1547 12.1502 17.1551C10.6055 17.1556 8.98958 16.8604 6.89453 16.2298L6.45009 13.3018C8.54006 13.7528 10.305 14.0036 12.0705 14.0147C13.8214 14.0257 15.5386 13.801 17.5447 13.3357ZM12.0831 12.0147C10.3116 12.0036 8.49628 11.7243 6.12818 11.181L5.18858 4.99068C5.12326 4.56039 5.32856 4.24629 5.57832 4.13975C7.32835 3.39323 9.64061 3 12 3C14.3593 3 16.6716 3.39323 18.4216 4.13975C18.6714 4.24629 18.8767 4.5604 18.8114 4.99068L17.8691 11.1988C15.6098 11.7713 13.8463 12.0258 12.0831 12.0147Z" fill="#000640"/>
</svg>
