<svg width="24" height="24" viewBox="0 0 24 24" fill="none" xmlns="http://www.w3.org/2000/svg">
<path fill-rule="evenodd" clip-rule="evenodd" d="M10 8C6.68629 8 4 10.6863 4 14C4 17.3137 6.68629 20 10 20C13.3137 20 16 17.3137 16 14C16 10.6863 13.3137 8 10 8ZM2 14C2 9.58172 5.58172 6 10 6C14.4183 6 18 9.58172 18 14C18 18.4183 14.4183 22 10 22C5.58172 22 2 18.4183 2 14Z" fill="#000640"/>
<path fill-rule="evenodd" clip-rule="evenodd" d="M21 2C21.5523 2 22 2.44772 22 3V10C22 10.5523 21.5523 11 21 11C20.4477 11 20 10.5523 20 10V4L14 4C13.4477 4 13 3.55228 13 3C13 2.44772 13.4477 2 14 2L21 2Z" fill="#000640"/>
<path fill-rule="evenodd" clip-rule="evenodd" d="M14.2929 9.70711C13.9024 9.31658 13.9024 8.68342 14.2929 8.29289L20.2929 2.29289C20.6834 1.90237 21.3166 1.90237 21.7071 2.29289C22.0976 2.68342 22.0976 3.31658 21.7071 3.70711L15.7071 9.70711C15.3166 10.0976 14.6834 10.0976 14.2929 9.70711Z" fill="#000640"/>
</svg>
