<svg width="24" height="24" viewBox="0 0 24 24" fill="none" xmlns="http://www.w3.org/2000/svg">
<path d="M12 9C13.1046 9 14 8.10457 14 7C14 5.89543 13.1046 5 12 5C10.8954 5 10 5.89543 10 7C10 8.10457 10.8954 9 12 9Z" fill="#000640"/>
<path fill-rule="evenodd" clip-rule="evenodd" d="M12 1C10.7648 1 9.61669 1.37328 8.66246 2.01318C8.47169 1.9816 8.26975 2.0049 8.08094 2.09204L1.58094 5.09204C1.22679 5.25549 1 5.60995 1 6V22C1 22.341 1.17379 22.6585 1.46105 22.8423C1.7483 23.0261 2.10942 23.0509 2.41906 22.908L8.51506 20.0944L15.1061 22.9191C15.3664 23.0307 15.6619 23.0267 15.9191 22.908L22.4191 19.908C22.7732 19.7445 23 19.39 23 19V3C23 2.65342 22.8205 2.33155 22.5257 2.14935C22.2309 1.96714 21.8628 1.95058 21.5528 2.10557L17.3196 4.22216C16.3175 2.30695 14.3114 1 12 1ZM12 3C9.79086 3 8 4.79086 8 7C8 7.44981 8.22276 8.18344 8.68219 9.13728C9.1242 10.055 9.72304 11.0527 10.3361 11.9869C10.9379 12.9041 11.5416 13.7419 12 14.3569C12.4584 13.7419 13.0621 12.9041 13.6639 11.9869C14.277 11.0527 14.8758 10.055 15.3178 9.13728C15.7772 8.18344 16 7.44981 16 7C16 4.79086 14.2091 3 12 3ZM11.2195 16.6252C11.2195 16.6252 11.2197 16.6254 12 16L11.2195 16.6252ZM12 16C12.7803 16.6254 12.7808 16.6248 12.7808 16.6248L12 16ZM12.7808 16.6248C12.591 16.8616 12.3035 17 12 17C11.6965 17 11.4093 16.862 11.2195 16.6252L11.215 16.6195L11.2032 16.6047L11.1591 16.5491C11.1209 16.5007 11.0656 16.4303 10.9955 16.3401C10.8553 16.1597 10.6561 15.9 10.4174 15.5802C9.94068 14.9416 9.30322 14.0583 8.66394 13.0842C8.02696 12.1135 7.3758 11.0339 6.88031 10.0052C6.40224 9.01263 6 7.9309 6 7C6 6.34185 6.10597 5.70845 6.30177 5.11593L3 6.63983V20.4371L8.08094 18.092C8.33812 17.9733 8.63357 17.9693 8.89392 18.0809L15.4849 20.9056L21 18.3602V4.61803L17.94 6.14804C17.9795 6.42634 18 6.71078 18 7C18 7.9309 17.5978 9.01263 17.1197 10.0052C16.6242 11.0339 15.973 12.1135 15.3361 13.0842C14.6968 14.0583 14.0593 14.9416 13.5826 15.5802C13.3439 15.9 13.1447 16.1597 13.0045 16.3401C12.9344 16.4303 12.8791 16.5007 12.8409 16.5491L12.7968 16.6047L12.785 16.6195L12.7808 16.6248Z" fill="#000640"/>
</svg>
