<svg width="24" height="24" viewBox="0 0 24 24" fill="none" xmlns="http://www.w3.org/2000/svg">
<path fill-rule="evenodd" clip-rule="evenodd" d="M22.539 1.15767C22.8262 1.34146 23 1.65898 23 2V19C23 19.3901 22.7732 19.7445 22.4191 19.908L15.9191 22.908C15.6619 23.0267 15.3664 23.0307 15.1061 22.9191L8.51506 20.0944L2.41906 22.908C2.10942 23.0509 1.7483 23.0261 1.46105 22.8423C1.17379 22.6585 1 22.341 1 22V5C1 4.60995 1.22679 4.2555 1.58094 4.09204L8.08094 1.09204C8.33812 0.973345 8.63357 0.96928 8.89392 1.08086L15.4849 3.90558L21.5809 1.09204C21.8906 0.949134 22.2517 0.97387 22.539 1.15767ZM14.5 5.6594L9.5 3.51654V18.3406L14.5 20.4835V5.6594ZM16.5 20.4371L21 18.3602V3.56291L16.5 5.63983V20.4371ZM7.5 18.3602V3.56291L3 5.63983V20.4371L7.5 18.3602Z" fill="#000640"/>
</svg>
