<svg width="24" height="24" viewBox="0 0 24 24" fill="none" xmlns="http://www.w3.org/2000/svg">
<path fill-rule="evenodd" clip-rule="evenodd" d="M21 8C21 8.37877 20.786 8.72503 20.4472 8.89443L9 14.618L9 21H10C10.5523 21 11 21.4477 11 22C11 22.5523 10.5523 23 10 23H6C5.44771 23 5 22.5523 5 22C5 21.4477 5.44771 21 6 21H7L7 2C7 1.65342 7.17945 1.33156 7.47427 1.14935C7.76908 0.967144 8.13722 0.95058 8.44721 1.10557L20.4472 7.10557C20.786 7.27496 21 7.62123 21 8ZM9 12.382L17.7639 8L9 3.61803L9 12.382Z" fill="#000640"/>
</svg>
