<svg width="24" height="24" viewBox="0 0 24 24" fill="none" xmlns="http://www.w3.org/2000/svg">
<path fill-rule="evenodd" clip-rule="evenodd" d="M12 1C8.13401 1 5 4.13401 5 8C5 11.5265 7.60771 14.4439 11 14.9291V19C11 19.5523 11.4477 20 12 20C12.5523 20 13 19.5523 13 19V14.9291C16.3923 14.4439 19 11.5265 19 8C19 4.13401 15.866 1 12 1ZM7 8C7 5.23858 9.23858 3 12 3C14.7614 3 17 5.23858 17 8C17 10.7614 14.7614 13 12 13C9.23858 13 7 10.7614 7 8Z" fill="#000640"/>
<path fill-rule="evenodd" clip-rule="evenodd" d="M9.1255 19.1738C9.67342 19.1045 10.0614 18.6041 9.99209 18.0562C9.92278 17.5083 9.42242 17.1203 8.8745 17.1896C7.35222 17.3822 5.99423 17.7176 4.98637 18.1763C4.48481 18.4045 4.01936 18.6858 3.66506 19.037C3.30777 19.391 3 19.8843 3 20.5C3 21.3114 3.52434 21.9005 4.03444 22.2774C4.56412 22.6687 5.26665 22.979 6.04487 23.2222C7.61323 23.7123 9.71849 24 12 24C14.2815 24 16.3868 23.7123 17.9551 23.2222C18.7334 22.979 19.4359 22.6687 19.9656 22.2774C20.4757 21.9005 21 21.3114 21 20.5C21 19.8843 20.6922 19.391 20.3349 19.037C19.9806 18.6858 19.5152 18.4045 19.0136 18.1763C18.0058 17.7176 16.6478 17.3822 15.1255 17.1896C14.5776 17.1203 14.0772 17.5083 14.0079 18.0562C13.9386 18.6041 14.3266 19.1045 14.8745 19.1738C16.2841 19.3521 17.4261 19.6512 18.1852 19.9966C18.5672 20.1705 18.802 20.3336 18.9271 20.4576C18.9435 20.4738 18.9568 20.488 18.9675 20.5003C18.9344 20.5388 18.8764 20.5954 18.7771 20.6688C18.4971 20.8756 18.0281 21.104 17.3586 21.3132C16.0315 21.728 14.1368 22 12 22C9.86323 22 7.9685 21.728 6.64142 21.3132C5.97193 21.104 5.50289 20.8756 5.22292 20.6688C5.12358 20.5954 5.06561 20.5388 5.0325 20.5003C5.04324 20.488 5.05652 20.4738 5.07287 20.4576C5.19796 20.3336 5.4328 20.1705 5.81476 19.9966C6.57394 19.6512 7.71595 19.3521 9.1255 19.1738ZM19.0088 20.4407C19.0086 20.4407 19.0079 20.4422 19.0069 20.4452C19.0077 20.4437 19.0081 20.4426 19.0084 20.4419C19.0087 20.4411 19.0088 20.4407 19.0088 20.4407Z" fill="#000640"/>
</svg>
