<svg width="24" height="24" viewBox="0 0 24 24" fill="none" xmlns="http://www.w3.org/2000/svg">
<g clip-path="url(#clip0_1253_5345)">
<path fill-rule="evenodd" clip-rule="evenodd" d="M11.631 2.00668C6.2791 2.20081 2 6.60069 2 12C2 17.3993 6.2791 21.7992 11.631 21.9933C11.7259 21.902 11.8455 21.7802 11.9825 21.6261C12.3644 21.1965 12.8824 20.5155 13.3811 19.5435C13.8598 18.6105 14.3233 17.4044 14.6308 15.8874C14.8574 14.7692 15 13.4786 15 12C15 10.5571 14.8642 9.29314 14.647 8.19382C14.3398 6.63849 13.8683 5.406 13.3811 4.45649C12.8824 3.48448 12.3644 2.80351 11.9825 2.3739C11.8455 2.2198 11.7259 2.09799 11.631 2.00668ZM14.4346 2.29824C14.5771 2.514 14.7218 2.74772 14.866 3H16.3647C15.7535 2.70301 15.1076 2.46652 14.4346 2.29824ZM19.1414 5H15.8091C16.0403 5.60341 16.2521 6.26901 16.4311 7H20.6624C20.2402 6.2703 19.7282 5.59857 19.1414 5ZM21.5425 9H16.8064C16.8908 9.62907 16.9504 10.2953 16.9795 11H21.9507C21.8823 10.3098 21.7437 9.64081 21.5425 9ZM21.9507 13H16.9795C16.949 13.7369 16.8853 14.4318 16.7947 15.0861H21.515C21.7312 14.4192 21.8792 13.7212 21.9507 13ZM20.612 17.0861H16.4098C16.2354 17.7833 16.0311 18.4204 15.8091 19H19.1414C19.7051 18.4251 20.1997 17.7826 20.612 17.0861ZM16.3647 21H14.866C14.7218 21.2523 14.5771 21.486 14.4346 21.7018C15.1076 21.5335 15.7535 21.297 16.3647 21ZM11.3947 22.204L11.396 22.203L11.3947 22.204ZM0 12C0 5.37258 5.37258 0 12 0C15.1883 0 18.0881 1.24476 20.2364 3.27285C21.5154 4.48035 22.5297 5.96682 23.1816 7.63623C23.7103 8.99002 24 10.4624 24 12C24 13.5733 23.6967 15.0783 23.1444 16.4577C22.4914 18.089 21.4913 19.5423 20.2364 20.7271C18.0881 22.7552 15.1883 24 12 24C5.37258 24 0 18.6274 0 12Z" fill="#000640"/>
</g>
<defs>
<clipPath id="clip0_1253_5345">
<rect width="24" height="24" fill="white"/>
</clipPath>
</defs>
</svg>
