<svg width="24" height="24" viewBox="0 0 24 24" fill="none" xmlns="http://www.w3.org/2000/svg">
<path fill-rule="evenodd" clip-rule="evenodd" d="M16 7L2 7C1.44772 7 1 6.55228 1 6C1 5.44772 1.44772 5 2 5L16 5C16.5523 5 17 5.44772 17 6C17 6.55229 16.5523 7 16 7Z" fill="#000640"/>
<path fill-rule="evenodd" clip-rule="evenodd" d="M19 13L5 13C4.44772 13 4 12.5523 4 12C4 11.4477 4.44772 11 5 11L19 11C19.5523 11 20 11.4477 20 12C20 12.5523 19.5523 13 19 13Z" fill="#000640"/>
<path fill-rule="evenodd" clip-rule="evenodd" d="M7 18C7 17.4477 7.44772 17 8 17L22 17C22.5523 17 23 17.4477 23 18C23 18.5523 22.5523 19 22 19L8 19C7.44772 19 7 18.5523 7 18Z" fill="#000640"/>
</svg>
