<svg width="24" height="24" viewBox="0 0 24 24" fill="none" xmlns="http://www.w3.org/2000/svg">
<path fill-rule="evenodd" clip-rule="evenodd" d="M17.8925 9.97824L14.0218 6.10754C14.2168 4.35928 15.6997 3 17.5 3C19.433 3 21 4.567 21 6.5C21 8.30032 19.6407 9.78317 17.8925 9.97824ZM17.5 1C14.4624 1 12 3.46243 12 6.5C12 6.76522 12.1054 7.01957 12.2929 7.20711L16.7929 11.7071C16.9804 11.8946 17.2348 12 17.5 12C20.5376 12 23 9.53757 23 6.5C23 3.46243 20.5376 1 17.5 1ZM11.7071 8.29289C11.507 8.09277 11.2314 7.98682 10.9488 8.00131C10.6662 8.0158 10.4029 8.14938 10.2243 8.36891L4.22427 15.7439L1.71914 18.8753C1.40083 19.2732 1.43259 19.8468 1.7929 20.2071L3.7929 22.2071C4.15321 22.5674 4.72681 22.5992 5.1247 22.2809L8.24972 19.7809L15.6311 13.7757C15.8506 13.5971 15.9842 13.3338 15.9987 13.0512C16.0132 12.7686 15.9072 12.493 15.7071 12.2929L11.7071 8.29289ZM6.34525 16.306L11.0764 10.4906L13.5094 12.9236L7.69397 17.6548L6.34525 16.306ZM5.08293 17.8721L6.12787 18.9171L4.57422 20.16L3.84 19.4258L5.08293 17.8721Z" fill="#000640"/>
</svg>
