<svg width="24" height="24" viewBox="0 0 24 24" fill="none" xmlns="http://www.w3.org/2000/svg">
<path fill-rule="evenodd" clip-rule="evenodd" d="M4.00172 3C4.00172 2.44772 4.44943 2 5.00172 2H19.0017C19.554 2 20.0017 2.44772 20.0017 3V6.7695C20.7251 8.29351 21.1879 10.0919 21.4875 11.8534C21.9522 14.586 22.0429 17.3473 22.0425 19.11C22.0422 20.7523 20.6944 22 19.1097 22H4.89373C3.30907 22 1.96126 20.7523 1.96094 19.11C1.96059 17.3472 2.05137 14.586 2.51607 11.8534C2.81563 10.0919 3.27839 8.29352 4.00172 6.76952V3ZM6.00172 4V6H18.0017V4H6.00172ZM18.3632 8H16.0979C16.2591 8.79336 16.6174 9.43092 17.1239 9.90655C17.63 10.3817 18.3381 10.7456 19.2675 10.9155C19.0345 9.86593 18.7375 8.87283 18.3632 8ZM19.6398 12.9823C18.0742 12.8381 16.7429 12.2923 15.7549 11.3645C14.8154 10.4824 14.2549 9.31883 14.0701 8H9.93374C9.74897 9.31884 9.18843 10.4824 8.24892 11.3645C7.26084 12.2923 5.92945 12.8381 4.36368 12.9823C4.0324 15.2955 3.96064 17.5757 3.96094 19.1096C3.96103 19.5903 4.35542 20 4.89373 20H19.1097C19.648 20 20.0424 19.5903 20.0425 19.1096C20.0429 17.5757 19.9711 15.2955 19.6398 12.9823ZM4.73601 10.9156C5.66561 10.7457 6.3738 10.3818 6.87991 9.90654C7.38646 9.43091 7.74476 8.79335 7.90603 8H5.6403C5.266 8.87284 4.96905 9.86595 4.73601 10.9156Z" fill="#000640"/>
</svg>
