<svg width="24" height="24" viewBox="0 0 24 24" fill="none" xmlns="http://www.w3.org/2000/svg">
<path fill-rule="evenodd" clip-rule="evenodd" d="M3.73459 5C3.23694 5 2.81502 5.36593 2.74464 5.85858L2.15301 10H7V5H3.73459ZM9 5V10H14V5H9ZM16 5V10H21.4835L19.6004 5.60608C19.4428 5.2384 19.0812 5 18.6812 5H16ZM22 12H2V17H3.17071C3.58254 15.8348 4.69378 15 6 15C7.30622 15 8.41746 15.8348 8.82929 17H15.1707C15.5825 15.8348 16.6938 15 18 15C19.3062 15 20.4175 15.8348 20.8293 17H22V12ZM20.8293 19H23C23.5523 19 24 18.5523 24 18V11C24 10.8646 23.9725 10.7306 23.9191 10.6061L21.4386 4.81824C20.9659 3.71519 19.8813 3 18.6812 3H3.73459C2.24164 3 0.975878 4.09779 0.764743 5.57573L0.0100505 10.8586C0.0033586 10.9054 0 10.9527 0 11V18C0 18.5523 0.447715 19 1 19H3.17071C3.58254 20.1652 4.69378 21 6 21C7.30622 21 8.41746 20.1652 8.82929 19H15.1707C15.5825 20.1652 16.6938 21 18 21C19.3062 21 20.4175 20.1652 20.8293 19ZM6 17C5.44772 17 5 17.4477 5 18C5 18.5523 5.44772 19 6 19C6.55228 19 7 18.5523 7 18C7 17.4477 6.55228 17 6 17ZM18 17C17.4477 17 17 17.4477 17 18C17 18.5523 17.4477 19 18 19C18.5523 19 19 18.5523 19 18C19 17.4477 18.5523 17 18 17Z" fill="#000640"/>
</svg>
