<svg width="24" height="24" viewBox="0 0 24 24" fill="none" xmlns="http://www.w3.org/2000/svg">
<path d="M10 4C10 3.44772 9.55228 3 9 3C8.44772 3 8 3.44772 8 4V8H4C3.44772 8 3 8.44772 3 9C3 9.55228 3.44772 10 4 10H9C9.55228 10 10 9.55228 10 9V4Z" fill="#000640"/>
<path d="M15 14C14.4477 14 14 14.4477 14 15V20C14 20.5523 14.4477 21 15 21C15.5523 21 16 20.5523 16 20V16H20C20.5523 16 21 15.5523 21 15C21 14.4477 20.5523 14 20 14H15Z" fill="#000640"/>
<path d="M15 3C15.5523 3 16 3.44772 16 4V8H20C20.5523 8 21 8.44772 21 9C21 9.55228 20.5523 10 20 10H15C14.4477 10 14 9.55228 14 9V4C14 3.44772 14.4477 3 15 3Z" fill="#000640"/>
<path d="M4 14C3.44772 14 3 14.4477 3 15C3 15.5523 3.44772 16 4 16H8V20C8 20.5523 8.44772 21 9 21C9.55228 21 10 20.5523 10 20V15C10 14.7348 9.89464 14.4804 9.70711 14.2929C9.51957 14.1054 9.26522 14 9 14H4Z" fill="#000640"/>
</svg>
