<svg width="24" height="24" viewBox="0 0 24 24" fill="none" xmlns="http://www.w3.org/2000/svg">
<path fill-rule="evenodd" clip-rule="evenodd" d="M4.99856 3C4.99856 2.44772 5.44628 2 5.99856 2H17.9986C18.5508 2 18.9986 2.44772 18.9986 3V6.67753C20.1903 8.39801 20.8887 10.6378 21.3104 12.7775C21.7592 15.0548 21.9146 17.3276 21.969 18.9689C22.0252 20.6635 20.6424 22 18.9986 22H4.99856C3.35397 22 1.97553 20.6652 2.02471 18.9743C2.07534 17.2341 2.22461 14.7694 2.67185 12.4207C3.07736 10.2911 3.76151 8.05814 4.99856 6.61018V3ZM6.99856 4V6H7.99856V4H6.99856ZM9.99856 4V6H10.9986V4H9.99856ZM12.9986 4V6H13.9988V4H12.9986ZM15.9988 4V6H16.9986V4H15.9988ZM17.4778 8H6.44355C5.61924 9.022 5.02568 10.7512 4.63655 12.7948C4.21812 14.9922 4.07321 17.3362 4.02387 19.0325C4.00882 19.5498 4.43401 20 4.99856 20H18.9986C19.5639 20 19.9872 19.5485 19.9701 19.0352C19.9175 17.448 19.7678 15.2938 19.3482 13.1642C18.9633 11.2115 18.3677 9.36736 17.4778 8Z" fill="#000640"/>
</svg>
