<svg width="24" height="25" viewBox="0 0 24 25" fill="none" xmlns="http://www.w3.org/2000/svg">
<path fill-rule="evenodd" clip-rule="evenodd" d="M5 4.11481C5 2.45795 6.34315 1.11481 8 1.11481H16C17.6569 1.11481 19 2.45795 19 4.11481V20.1148C19 21.7717 17.6569 23.1148 16 23.1148H8C6.34315 23.1148 5 21.7717 5 20.1148V4.11481ZM8 3.11481C7.44772 3.11481 7 3.56252 7 4.11481V20.1148C7 20.6671 7.44772 21.1148 8 21.1148H16C16.5523 21.1148 17 20.6671 17 20.1148V4.11481C17 3.56252 16.5523 3.11481 16 3.11481H8Z" fill="#000640"/>
<path d="M13 19.1148C13 19.6671 12.5523 20.1148 12 20.1148C11.4477 20.1148 11 19.6671 11 19.1148C11 18.5625 11.4477 18.1148 12 18.1148C12.5523 18.1148 13 18.5625 13 19.1148Z" fill="#000640"/>
</svg>
