<svg width="24" height="24" viewBox="0 0 24 24" fill="none" xmlns="http://www.w3.org/2000/svg">
<g clip-path="url(#clip0_1253_4968)">
<path d="M11 10.214C11 9.88365 11.3381 9.42833 12 9.42833C12.3707 9.42833 12.6673 9.58716 12.8349 9.78637C13.1905 10.209 13.8213 10.2634 14.2439 9.90784C14.6665 9.5523 14.7209 8.92148 14.3654 8.49885C14.0113 8.07796 13.537 7.76258 13 7.58677V6.99976C13 6.44747 12.5523 5.99976 12 5.99976C11.4477 5.99976 11 6.44747 11 6.99976V7.58982C9.88017 7.95972 9 8.93589 9 10.214C9 11.8561 10.4527 12.9998 12 12.9998C12.6619 12.9998 13 13.4552 13 13.7856C13 14.116 12.6619 14.5713 12 14.5713C11.6293 14.5713 11.3327 14.4125 11.1651 14.2132C10.8096 13.7906 10.1788 13.7362 9.75613 14.0918C9.33351 14.4473 9.27913 15.0781 9.63467 15.5008C9.98874 15.9216 10.463 16.237 11 16.4128V16.9999C11 17.5521 11.4477 17.9999 12 17.9999C12.5523 17.9999 13 17.5521 13 16.9999V16.4098C14.1198 16.0399 15 15.0637 15 13.7856C15 12.1435 13.5473 10.9998 12 10.9998C11.3381 10.9998 11 10.5444 11 10.214Z" fill="#000640"/>
<path fill-rule="evenodd" clip-rule="evenodd" d="M20.2929 1.29289C20.6834 0.902369 21.3166 0.902369 21.7071 1.29289L23.7071 3.29289C24.0976 3.68342 24.0976 4.31658 23.7071 4.70711L21.7071 6.70711C21.3166 7.09763 20.6834 7.09763 20.2929 6.70711C19.9024 6.31658 19.9024 5.68342 20.2929 5.29289L20.5858 5H17.6573C19.6963 6.64996 21 9.17273 21 12C21 16.9706 16.9706 21 12 21H3.41421L3.70711 21.2929C4.09763 21.6834 4.09763 22.3166 3.70711 22.7071C3.31658 23.0976 2.68342 23.0976 2.29289 22.7071L0.292893 20.7071C-0.0976311 20.3166 -0.0976311 19.6834 0.292893 19.2929L2.29289 17.2929C2.68342 16.9024 3.31658 16.9024 3.70711 17.2929C4.09763 17.6834 4.09763 18.3166 3.70711 18.7071L3.41421 19H6.34267C4.30367 17.35 3 14.8273 3 12C3 7.02944 7.02944 3 12 3H20.5858L20.2929 2.70711C19.9024 2.31658 19.9024 1.68342 20.2929 1.29289ZM12 19C15.866 19 19 15.866 19 12C19 8.13401 15.866 5 12 5C8.13401 5 5 8.13401 5 12C5 15.866 8.13401 19 12 19Z" fill="#000640"/>
</g>
<defs>
<clipPath id="clip0_1253_4968">
<rect width="24" height="24" fill="white"/>
</clipPath>
</defs>
</svg>
