<svg width="24" height="24" viewBox="0 0 24 24" fill="none" xmlns="http://www.w3.org/2000/svg">
<path d="M11 8.21404C11 7.88365 11.3381 7.42833 12 7.42833C12.3707 7.42833 12.6673 7.58716 12.8349 7.78637C13.1905 8.209 13.8213 8.26338 14.2439 7.90784C14.6665 7.5523 14.7209 6.92148 14.3654 6.49885C14.0113 6.07796 13.537 5.76258 13 5.58677V4.99976C13 4.44747 12.5523 3.99976 12 3.99976C11.4477 3.99976 11 4.44747 11 4.99976V5.58982C9.88017 5.95972 9 6.93589 9 8.21404C9 9.8561 10.4527 10.9998 12 10.9998C12.6619 10.9998 13.0001 11.4552 13.0001 11.7856C13.0001 12.116 12.6619 12.5713 12.0001 12.5713C11.6294 12.5713 11.3327 12.4125 11.1652 12.2132C10.8096 11.7906 10.1788 11.7362 9.75617 12.0918C9.33354 12.4473 9.27916 13.0781 9.6347 13.5008C9.98877 13.9216 10.463 14.237 11 14.4128V14.9999C11 15.5521 11.4477 15.9999 12 15.9999C12.5523 15.9999 13 15.5521 13 14.9999V14.4098C14.1199 14.0399 15.0001 13.0637 15.0001 11.7856C15.0001 10.1435 13.5473 8.99976 12 8.99976C11.3381 8.99976 11 8.54443 11 8.21404Z" fill="#000640"/>
<path fill-rule="evenodd" clip-rule="evenodd" d="M2 20V4C2 2.34315 3.34315 1 5 1H21C21.5523 1 22 1.44772 22 2V22C22 22.5523 21.5523 23 21 23H5C3.34315 23 2 21.6569 2 20ZM20 21V19H5C4.44772 19 4 19.4477 4 20C4 20.5523 4.44772 21 5 21H20ZM4 4C4 3.44772 4.44772 3 5 3H20V17H5C4.64936 17 4.31278 17.0602 4 17.1707V4Z" fill="#000640"/>
</svg>
