<svg width="24" height="24" viewBox="0 0 24 24" fill="none" xmlns="http://www.w3.org/2000/svg">
<path fill-rule="evenodd" clip-rule="evenodd" d="M16 12C16 14.2091 14.2091 16 12 16C9.79086 16 8 14.2091 8 12C8 9.79086 9.79086 8 12 8C14.2091 8 16 9.79086 16 12ZM14 12C14 13.1046 13.1046 14 12 14C10.8954 14 10 13.1046 10 12C10 10.8954 10.8954 10 12 10C13.1046 10 14 10.8954 14 12Z" fill="#000640"/>
<path fill-rule="evenodd" clip-rule="evenodd" d="M23.4061 4.08614C18.5638 1.93405 15.0057 3.02891 11.7415 4.03331L11.7059 4.04427C8.47981 5.03692 5.54618 5.92622 1.40615 4.08615C1.09682 3.94867 0.73893 3.97701 0.455091 4.16146C0.171253 4.34592 0 4.66145 0 4.99996V19C0 19.3952 0.232735 19.7533 0.593866 19.9138C5.31104 22.0103 8.82667 20.7873 11.9731 19.6928C12.0916 19.6516 12.2096 19.6106 12.3271 19.5699C13.9564 19.0059 15.456 18.5231 17.0751 18.4521C18.6623 18.3825 20.4175 18.7092 22.5144 19.8741C22.8241 20.0462 23.2017 20.0415 23.5071 19.8618C23.8125 19.6821 24 19.3543 24 19V4.99996C24 4.60477 23.7673 4.24664 23.4061 4.08614ZM2 9.87398V6.46234C3.00305 6.79837 3.94964 6.99559 4.85006 7.08867C4.46532 8.45203 3.37592 9.51985 2 9.87398ZM2 11.917V14.083C4.50712 14.5036 6.48702 16.479 6.91431 18.9838C8.44422 18.8002 9.88488 18.3003 11.3947 17.7764L11.6729 17.6799C13.2936 17.1189 15.044 16.5393 16.9874 16.454C17.0591 16.4509 17.131 16.4484 17.203 16.4466C17.8035 14.2001 19.675 12.473 22 12.083V9.91704C19.4461 9.48857 17.4392 7.44669 17.0634 4.8753C15.4236 4.99619 13.8948 5.46329 12.2941 5.95583L12.2586 5.96674C10.591 6.47989 8.84656 7.01665 6.89338 7.13195C6.42567 9.58171 4.46836 11.5029 2 11.917ZM22 5.66508V7.87398C20.5672 7.50521 19.4451 6.36252 19.1059 4.9181C20.0131 5.02599 20.9694 5.26031 22 5.66508ZM19.2559 16.5892C19.7113 15.3813 20.7344 14.4518 22 14.126V17.3983C21.0444 16.9943 20.1331 16.7343 19.2559 16.5892ZM2 16.126V18.3332C3.02557 18.7303 3.97655 18.9435 4.87959 19.0221C4.52377 17.606 3.41296 16.4897 2 16.126Z" fill="#000640"/>
</svg>
