<svg width="24" height="24" viewBox="0 0 24 24" fill="none" xmlns="http://www.w3.org/2000/svg">
<path fill-rule="evenodd" clip-rule="evenodd" d="M7 2C7 1.44772 7.44772 1 8 1H16C16.5523 1 17 1.44772 17 2C17 2.55228 16.5523 3 16 3H13V4H17.4914C18.8308 4 20.008 4.88793 20.376 6.17584L21.9615 11.7253C21.9871 11.8146 22 11.9071 22 12V17C22 18.6569 20.6569 20 19 20H18.4142L19.7071 21.2929C19.9931 21.5789 20.0787 22.009 19.9239 22.3827C19.7691 22.7564 19.4045 23 19 23H5C4.59554 23 4.2309 22.7564 4.07612 22.3827C3.92134 22.009 4.0069 21.5789 4.29289 21.2929L5.58579 20H5C3.34315 20 2 18.6569 2 17V12C2 11.9071 2.01295 11.8146 2.03848 11.7253L3.62403 6.17584C3.992 4.88793 5.16916 4 6.5086 4H11V3H8C7.44772 3 7 2.55228 7 2ZM8.41421 20L7.41421 21H16.5858L15.5858 20H8.41421ZM6.5086 6C6.06212 6 5.66974 6.29598 5.54708 6.72528L4.32573 11H19.6743L18.4529 6.72528C18.3303 6.29598 17.9379 6 17.4914 6H6.5086ZM20 13H4V17C4 17.5523 4.44772 18 5 18H19C19.5523 18 20 17.5523 20 17V13Z" fill="#000640"/>
</svg>
