<svg width="24" height="24" viewBox="0 0 24 24" fill="none" xmlns="http://www.w3.org/2000/svg">
<path fill-rule="evenodd" clip-rule="evenodd" d="M20.2745 11.3634C21.8774 12.0519 23 13.6449 23 15.5C23 17.9853 20.9853 20 18.5 20H5.5C3.01472 20 1 17.9853 1 15.5C1 13.5386 2.25419 11.8714 4.00454 11.2547C4.1335 7.77853 6.99227 5.00001 10.5 5.00001C11.48 5.00001 12.4094 5.21689 13.2427 5.60527C13.586 4.69052 14.2523 4.04372 14.9738 3.6318C15.9621 3.06748 17.1275 2.89238 17.9046 3.01184C18.2771 3.0691 18.5858 3.3309 18.7031 3.68905C18.8203 4.0472 18.7263 4.44086 18.4598 4.70734C17.8824 5.28474 17.8824 6.2209 18.4598 6.79831C19.0372 7.37572 19.9734 7.37572 20.5508 6.79831C20.8279 6.52118 21.2414 6.43149 21.6084 6.56888C21.9755 6.70627 22.2285 7.04541 22.2555 7.4364C22.2884 7.91176 22.179 8.48394 21.9795 9.02792C21.7742 9.58756 21.4451 10.196 20.9673 10.7309C20.7616 10.9612 20.5305 11.1747 20.2745 11.3634ZM19.4758 9.39843C19.5246 9.34385 19.5711 9.28744 19.6155 9.22963C18.6889 9.25881 17.7528 8.91977 17.0456 8.21252C16.2562 7.42311 15.9255 6.34868 16.0536 5.32049C16.024 5.33592 15.9946 5.35197 15.9654 5.36863C15.4483 5.66392 15.0633 6.10729 15.0069 6.81617C15.9043 7.67986 16.554 8.79903 16.8392 10.0566C18.1567 10.412 18.9595 9.97637 19.4758 9.39843ZM6 11.5C6 9.01473 8.01472 7.00001 10.5 7.00001C12.9853 7.00001 15 9.01473 15 11.5V12C15 12.5523 15.4477 13 16 13H18.5C19.8807 13 21 14.1193 21 15.5C21 16.8807 19.8807 18 18.5 18H5.5C4.11929 18 3 16.8807 3 15.5C3 14.2414 3.931 13.1985 5.1416 13.0254C5.63417 12.9549 6 12.533 6 12.0355V11.5Z" fill="#000640"/>
</svg>
