<svg width="24" height="24" viewBox="0 0 24 24" fill="none" xmlns="http://www.w3.org/2000/svg">
<path d="M14.2929 10.2929C14.6834 9.90237 15.3166 9.90237 15.7071 10.2929C16.0976 10.6834 16.0976 11.3166 15.7071 11.7071L9.70711 17.7071C9.31658 18.0976 8.68342 18.0976 8.29289 17.7071C7.90237 17.3166 7.90237 16.6834 8.29289 16.2929L14.2929 10.2929Z" fill="#000640"/>
<path d="M8 11C8 11.5523 8.44772 12 9 12C9.55228 12 10 11.5523 10 11C10 10.4477 9.55228 10 9 10C8.44772 10 8 10.4477 8 11Z" fill="#000640"/>
<path d="M16 17C16 17.5523 15.5523 18 15 18C14.4477 18 14 17.5523 14 17C14 16.4477 14.4477 16 15 16C15.5523 16 16 16.4477 16 17Z" fill="#000640"/>
<path fill-rule="evenodd" clip-rule="evenodd" d="M10.365 1.36992C11.3592 0.723698 12.6408 0.723697 13.635 1.36992L21.635 6.56992C22.4863 7.12332 23 8.06983 23 9.08525V19.9999C23 21.6567 21.6569 22.9999 20 22.9999H4C2.34315 22.9999 1 21.6567 1 19.9999V9.08525C1 8.06983 1.51366 7.12332 2.36503 6.56992L3 6.1572V2C3 1.44772 3.44772 1 4 1H8C8.55228 1 9 1.44772 9 2V2.2572L10.365 1.36992ZM12.545 3.04681C12.2136 2.8314 11.7864 2.8314 11.455 3.04681L3.45501 8.24681C3.17122 8.43128 3 8.74678 3 9.08525V19.9999C3 20.5522 3.44772 20.9999 4 20.9999H20C20.5523 20.9999 21 20.5522 21 19.9999V9.08525C21 8.74678 20.8288 8.43128 20.545 8.24681L12.545 3.04681ZM7 3.5572V3H5V4.8572L7 3.5572Z" fill="#000640"/>
</svg>
