<svg width="24" height="24" viewBox="0 0 24 24" fill="none" xmlns="http://www.w3.org/2000/svg">
<path d="M13 7C13 6.44772 12.5523 6 12 6C11.4477 6 11 6.44772 11 7V9.5C11 10.0523 11.4477 10.5 12 10.5C12.5523 10.5 13 10.0523 13 9.5V7Z" fill="#000640"/>
<path fill-rule="evenodd" clip-rule="evenodd" d="M20 16.1667V8.83333C20 5.20926 16.8137 2.46689 13 2.05394V2C13 1.44772 12.5523 1 12 1C11.4477 1 11 1.44771 11 2V2.05394C7.18633 2.46689 4 5.20926 4 8.83333V16.1667C4 20.1036 7.76018 23 12 23C16.2398 23 20 20.1036 20 16.1667ZM18 8.83333V16.1667C18 18.6731 15.4922 21 12 21C8.50783 21 6 18.6731 6 16.1667L6 8.83333C6 6.32693 8.50783 4 12 4C15.4922 4 18 6.32693 18 8.83333Z" fill="#000640"/>
</svg>
