<svg width="24" height="24" viewBox="0 0 24 24" fill="none" xmlns="http://www.w3.org/2000/svg">
<path d="M14.001 16.5C14.001 16.8148 13.8528 17.1111 13.601 17.3L11.601 18.8C11.2979 19.0273 10.8925 19.0638 10.5538 18.8944C10.215 18.725 10.001 18.3788 10.001 18V15C10.001 14.6212 10.215 14.275 10.5538 14.1056C10.8925 13.9362 11.2979 13.9727 11.601 14.2L13.601 15.7C13.8528 15.8889 14.001 16.1852 14.001 16.5Z" fill="#000640"/>
<path fill-rule="evenodd" clip-rule="evenodd" d="M3.33366 4.17507C1.73326 4.6039 0.783517 6.24891 1.21234 7.84931L1.9888 10.7471C1.99646 10.7757 2.00528 10.8036 2.0152 10.8309C2.00584 10.8859 2.00096 10.9424 2.00096 11V20C2.00096 21.6568 3.34411 23 5.00096 23H19.001C20.6578 23 22.001 21.6568 22.001 20V11C22.001 10.4477 21.5532 9.99999 21.001 9.99999H8.64069L20.6002 6.79545C21.1337 6.65251 21.4503 6.10417 21.3073 5.5707L20.5309 2.67293C20.102 1.07253 18.457 0.122781 16.8566 0.551606L3.33366 4.17507ZM3.14419 7.33167C3.00125 6.7982 3.31783 6.24987 3.8513 6.10692L7.25423 5.19511L6.87157 8.40347L3.66183 9.26352L3.14419 7.33167ZM8.95224 7.84596L9.33489 4.6376L13.0498 3.6422L12.6671 6.85056L8.95224 7.84596ZM14.7478 6.29305L15.1304 3.08469L17.3743 2.48346C17.9077 2.34052 18.4561 2.6571 18.599 3.19056L19.1166 5.12242L14.7478 6.29305ZM4.00096 20V12H20.001V20C20.001 20.5523 19.5532 21 19.001 21H5.00096C4.44868 21 4.00096 20.5523 4.00096 20Z" fill="#000640"/>
</svg>
