<svg width="24" height="24" viewBox="0 0 24 24" fill="none" xmlns="http://www.w3.org/2000/svg">
<path d="M7.79289 7.79289C8.18342 7.40237 8.81658 7.40237 9.20711 7.79289L12 10.5857L14.7929 7.7928C15.1834 7.40228 15.8166 7.40228 16.2071 7.7928C16.5976 8.18332 16.5976 8.81649 16.2071 9.20701L13.4142 12L16.2071 14.7929C16.5976 15.1834 16.5976 15.8166 16.2071 16.2071C15.8166 16.5976 15.1834 16.5976 14.7929 16.2071L12 13.4142L9.20711 16.207C8.81658 16.5975 8.18342 16.5975 7.79289 16.207C7.40237 15.8165 7.40237 15.1833 7.79289 14.7928L10.5857 12L7.79289 9.20711C7.40237 8.81658 7.40237 8.18342 7.79289 7.79289Z" fill="#000640"/>
<path fill-rule="evenodd" clip-rule="evenodd" d="M1 4C1 2.34315 2.34315 1 4 1H20C21.6569 1 23 2.34315 23 4V20C23 21.6569 21.6569 23 20 23H4C2.34315 23 1 21.6569 1 20V4ZM4 3C3.44772 3 3 3.44772 3 4V20C3 20.5523 3.44772 21 4 21H20C20.5523 21 21 20.5523 21 20V4C21 3.44772 20.5523 3 20 3H4Z" fill="#000640"/>
</svg>
