<svg width="24" height="24" viewBox="0 0 24 24" fill="none" xmlns="http://www.w3.org/2000/svg">
<path fill-rule="evenodd" clip-rule="evenodd" d="M7 2C5.34315 2 4 3.34315 4 5V9C2.34315 9 1 10.3431 1 12V19C1 20.6569 2.34315 22 4 22H17C18.6569 22 20 20.6569 20 19V15C21.6569 15 23 13.6569 23 12V5C23 3.34315 21.6569 2 20 2H7ZM20 13C20.5523 13 21 12.5523 21 12V8H6V9H17C18.6569 9 20 10.3431 20 12V13ZM6 6H21V5C21 4.44772 20.5523 4 20 4H7C6.44772 4 6 4.44772 6 5V6ZM4 11C3.44772 11 3 11.4477 3 12V13H18V12C18 11.4477 17.5523 11 17 11H4ZM3 19V15H18V19C18 19.5523 17.5523 20 17 20H4C3.44772 20 3 19.5523 3 19Z" fill="#000640"/>
</svg>
