<svg width="24" height="24" viewBox="0 0 24 24" fill="none" xmlns="http://www.w3.org/2000/svg">
<path fill-rule="evenodd" clip-rule="evenodd" d="M19 7.30927V12.5351C18.4117 12.1948 17.7286 12 17 12C14.7909 12 13 13.7909 13 16C13 18.2091 14.7909 20 17 20C19.2091 20 21 18.2091 21 16V4.61852C21 2.6404 19.1191 1.20375 17.2106 1.72423L10.2106 3.63332C8.90546 3.98928 8 5.17476 8 6.52761V14.5351C7.41165 14.1948 6.72857 14 6 14C3.79086 14 2 15.7909 2 18C2 20.2091 3.79086 22 6 22C8.20913 22 9.99999 20.2091 10 18C10 18 10 18 10 18V9.76381L19 7.30927ZM19 4.61852C19 3.95914 18.373 3.48026 17.7369 3.65376L10.7369 5.56285C10.3018 5.6815 10 6.07666 10 6.52761V7.69077L19 5.23622V4.61852ZM8 18C8 16.8954 7.10457 16 6 16C4.89543 16 4 16.8954 4 18C4 19.1046 4.89543 20 6 20C7.10456 20 7.99999 19.1046 8 18C8 18 8 18 8 18ZM17 14C18.1046 14 19 14.8954 19 16C19 17.1046 18.1046 18 17 18C15.8954 18 15 17.1046 15 16C15 14.8954 15.8954 14 17 14Z" fill="#000640"/>
</svg>
