<svg width="24" height="24" viewBox="0 0 24 24" fill="none" xmlns="http://www.w3.org/2000/svg">
<path fill-rule="evenodd" clip-rule="evenodd" d="M8 5C8 3.34315 9.34315 2 11 2H18C19.6569 2 21 3.34315 21 5V18C21 20.2091 19.2091 22 17 22C14.7909 22 13 20.2091 13 18C13 15.7909 14.7909 14 17 14C17.7286 14 18.4117 14.1948 19 14.5351V8H10V18C10 20.2091 8.20914 22 6 22C3.79086 22 2 20.2091 2 18C2 15.7909 3.79086 14 6 14C6.72857 14 7.41165 14.1948 8 14.5351V5ZM8 18C8 16.8954 7.10457 16 6 16C4.89543 16 4 16.8954 4 18C4 19.1046 4.89543 20 6 20C7.10457 20 8 19.1046 8 18ZM17 16C18.1046 16 19 16.8954 19 18C19 19.1046 18.1046 20 17 20C15.8954 20 15 19.1046 15 18C15 16.8954 15.8954 16 17 16ZM10 6H19V5C19 4.44772 18.5523 4 18 4H11C10.4477 4 10 4.44772 10 5V6Z" fill="#000640"/>
</svg>
