<svg width="24" height="24" viewBox="0 0 24 24" fill="none" xmlns="http://www.w3.org/2000/svg">
<path fill-rule="evenodd" clip-rule="evenodd" d="M22.7071 1.29292C23.0115 1.59728 23.087 2.06225 22.8945 2.44724L12.8945 22.4472C12.7073 22.8215 12.3069 23.0397 11.8909 22.9941C11.4749 22.9484 11.1314 22.6485 11.0299 22.2426L9.17541 14.8246L1.75749 12.9702C1.35151 12.8687 1.05166 12.5251 1.006 12.1091C0.960336 11.6932 1.17852 11.2927 1.55281 11.1056L21.5528 1.1056C21.9378 0.913106 22.4028 0.98856 22.7071 1.29292ZM4.86511 11.6855L10.2426 13.0299C10.6008 13.1195 10.8806 13.3992 10.9702 13.7575L12.3145 19.1349L19.764 4.2361L4.86511 11.6855Z" fill="#000640"/>
</svg>
