<svg width="24" height="24" viewBox="0 0 24 24" fill="none" xmlns="http://www.w3.org/2000/svg">
<path fill-rule="evenodd" clip-rule="evenodd" d="M12.0001 1C12.425 1 12.8035 1.26856 12.9439 1.66965L19.9439 21.6696C20.0818 22.0635 19.9605 22.5016 19.6398 22.7686C19.319 23.0356 18.8662 23.0753 18.5039 22.8682L12.0001 19.1518L5.49619 22.8682C5.13386 23.0753 4.68105 23.0356 4.36031 22.7686C4.03956 22.5016 3.91833 22.0635 4.05619 21.6696L11.0562 1.66965C11.1966 1.26856 11.5751 1 12.0001 1ZM6.82829 19.8035L11.5039 17.1318C11.8113 16.9561 12.1888 16.9561 12.4962 17.1318L17.1718 19.8035L12.0001 5.02709L6.82829 19.8035Z" fill="#000640"/>
</svg>
