<svg width="24" height="24" viewBox="0 0 24 24" fill="none" xmlns="http://www.w3.org/2000/svg">
<path fill-rule="evenodd" clip-rule="evenodd" d="M8 1C7.44772 1 7 1.44772 7 2V5.5C7 5.76522 7.10536 6.01957 7.29289 6.20711L11.2929 10.2071C11.6834 10.5976 12.3166 10.5976 12.7071 10.2071L16.7071 6.20711C16.8946 6.01957 17 5.76522 17 5.5V2C17 1.44772 16.5523 1 16 1H8ZM9 5.08579V3H15V5.08579L12 8.08579L9 5.08579Z" fill="#000640"/>
<path fill-rule="evenodd" clip-rule="evenodd" d="M18.5 7C18.2348 7 17.9804 7.10536 17.7929 7.29289L13.7929 11.2929C13.4024 11.6834 13.4024 12.3166 13.7929 12.7071L17.7929 16.7071C17.9804 16.8946 18.2348 17 18.5 17H22C22.5523 17 23 16.5523 23 16V8C23 7.44772 22.5523 7 22 7H18.5ZM15.9142 12L18.9142 9H21V15H18.9142L15.9142 12Z" fill="#000640"/>
<path fill-rule="evenodd" clip-rule="evenodd" d="M12.7071 13.7929L16.7071 17.7929C16.8946 17.9804 17 18.2348 17 18.5V22C17 22.5523 16.5523 23 16 23H8C7.44772 23 7 22.5523 7 22V18.5C7 18.2348 7.10536 17.9804 7.29289 17.7929L11.2929 13.7929C11.6834 13.4024 12.3166 13.4024 12.7071 13.7929ZM9 18.9142V21H15V18.9142L12 15.9142L9 18.9142Z" fill="#000640"/>
<path fill-rule="evenodd" clip-rule="evenodd" d="M2 7C1.44772 7 1 7.44772 1 8V16C1 16.5523 1.44772 17 2 17H5.5C5.76522 17 6.01957 16.8946 6.20711 16.7071L10.2071 12.7071C10.5976 12.3166 10.5976 11.6834 10.2071 11.2929L6.20711 7.29289C6.01957 7.10536 5.76522 7 5.5 7H2ZM3 15V9H5.08579L8.08579 12L5.08579 15H3Z" fill="#000640"/>
</svg>
