<svg width="24" height="24" viewBox="0 0 24 24" fill="none" xmlns="http://www.w3.org/2000/svg">
<g clip-path="url(#clip0_1253_5257)">
<path fill-rule="evenodd" clip-rule="evenodd" d="M16.5 14.5V9.5C16.5 8.5753 16.2421 7.54545 15.47 6.74379C14.6883 5.93222 13.5204 5.5 12 5.5C9.66489 5.5 7.5 7.15179 7.5 9.5C7.5 11.8482 9.66489 13.5 12 13.5C12.8959 13.5 13.7668 13.2568 14.5 12.8245V14.4817C14.4999 14.4878 14.4998 14.4939 14.4998 14.5C14.4998 15.4655 13.5307 16.5 11.9998 16.5C11.0048 16.5 10.1991 16.0364 9.79697 15.4406C9.70364 15.3023 9.63203 15.1575 9.58261 15.009C9.40815 14.485 8.84193 14.2017 8.31792 14.3761C7.79392 14.5506 7.51056 15.1168 7.68502 15.6408C7.79441 15.9694 7.94874 16.2772 8.13918 16.5594C8.94742 17.757 10.4039 18.5 11.9998 18.5C14.3349 18.5 16.5 16.8482 16.5 14.5ZM12 7.5C10.4691 7.5 9.5 8.5345 9.5 9.5C9.5 10.4655 10.4691 11.5 12 11.5C13.5309 11.5 14.5 10.4655 14.5 9.5C14.5 8.9247 14.3409 8.45455 14.0294 8.13121C13.7276 7.81778 13.1455 7.5 12 7.5Z" fill="#000640"/>
<path fill-rule="evenodd" clip-rule="evenodd" d="M0 12C0 5.37258 5.37258 0 12 0C18.6274 0 24 5.37258 24 12C24 18.6274 18.6274 24 12 24C5.37258 24 0 18.6274 0 12ZM12 2C6.47715 2 2 6.47715 2 12C2 17.5228 6.47715 22 12 22C17.5228 22 22 17.5228 22 12C22 6.47715 17.5228 2 12 2Z" fill="#000640"/>
</g>
<defs>
<clipPath id="clip0_1253_5257">
<rect width="24" height="24" fill="white"/>
</clipPath>
</defs>
</svg>
