<svg width="24" height="24" viewBox="0 0 24 24" fill="none" xmlns="http://www.w3.org/2000/svg">
<path d="M7 10C7 9.44771 7.44772 9 8 9H16C16.5523 9 17 9.44771 17 10C17 10.5523 16.5523 11 16 11H8C7.44772 11 7 10.5523 7 10Z" fill="#000640"/>
<path d="M8 13C7.44772 13 7 13.4477 7 14C7 14.5523 7.44772 15 8 15H16C16.5523 15 17 14.5523 17 14C17 13.4477 16.5523 13 16 13H8Z" fill="#000640"/>
<path fill-rule="evenodd" clip-rule="evenodd" d="M8 1C7.44772 1 7 1.44772 7 2V3H6C4.34315 3 3 4.34315 3 6V20C3 21.6569 4.34315 23 6 23H18C19.6569 23 21 21.6569 21 20V6C21 4.34315 19.6569 3 18 3H17V2C17 1.44772 16.5523 1 16 1H8ZM17 5V6C17 6.55228 16.5523 7 16 7H8C7.44772 7 7 6.55228 7 6V5H6C5.44772 5 5 5.44772 5 6V20C5 20.5523 5.44772 21 6 21H18C18.5523 21 19 20.5523 19 20V6C19 5.44772 18.5523 5 18 5H17ZM9 5V3H15V5H9Z" fill="#000640"/>
</svg>
