<svg width="24" height="24" viewBox="0 0 24 24" fill="none" xmlns="http://www.w3.org/2000/svg">
<path d="M17 18C17 18.5523 16.5523 19 16 19C15.4477 19 15 18.5523 15 18C15 17.4477 15.4477 17 16 17C16.5523 17 17 17.4477 17 18Z" fill="#000640"/>
<path d="M19 19C19.5523 19 20 18.5523 20 18C20 17.4477 19.5523 17 19 17C18.4477 17 18 17.4477 18 18C18 18.5523 18.4477 19 19 19Z" fill="#000640"/>
<path fill-rule="evenodd" clip-rule="evenodd" d="M4.99996 1C4.44768 1 3.99996 1.44772 3.99996 2C3.99996 3.17489 3.92081 4.50142 3.78616 5.90447C3.32742 10.6845 2.23953 16.2059 1.57204 19.3247C1.17053 21.2008 2.59326 23 4.53059 23H20C21.6568 23 23 21.6569 23 20V16C23 14.3431 21.6568 13 20 13H16.9044C16.4385 10.6881 16.0072 8.19886 15.7485 5.88873C15.5918 4.48889 15.5 3.16791 15.5 2C15.5 1.73478 15.3946 1.48043 15.2071 1.29289C15.0195 1.10536 14.7652 1 14.5 1H4.99996ZM14.8649 13C14.4798 11.0558 14.1205 8.98801 13.8674 7H5.68402C5.17317 11.6709 4.15774 16.7996 3.52775 19.7433C3.38873 20.3928 3.8851 21 4.53059 21H9.17068C9.06012 20.6872 8.99997 20.3506 8.99997 20V16C8.99997 14.3431 10.3431 13 12 13H14.8649ZM20 21C20.5523 21 21 20.5523 21 20V16C21 15.4477 20.5523 15 20 15H12C11.4477 15 11 15.4477 11 16V20C11 20.5523 11.4477 21 12 21H20ZM13.6485 5H5.87212C5.92507 4.31317 5.9634 3.6432 5.98361 3H13.5189C13.5424 3.64376 13.587 4.31372 13.6485 5Z" fill="#000640"/>
</svg>
