<svg width="24" height="24" viewBox="0 0 24 24" fill="none" xmlns="http://www.w3.org/2000/svg">
<path fill-rule="evenodd" clip-rule="evenodd" d="M10 4C9.44772 4 9 4.44772 9 5V6H15V5C15 4.44772 14.5523 4 14 4H10ZM17 6V5C17 3.34315 15.6569 2 14 2H10C8.34315 2 7 3.34315 7 5V6H4C2.34315 6 1 7.34315 1 9V19C1 20.6569 2.34315 22 4 22H20C21.6569 22 23 20.6569 23 19V9C23 7.34315 21.6569 6 20 6H17ZM4 8C3.44772 8 3 8.44772 3 9V19C3 19.5523 3.44772 20 4 20H20C20.5523 20 21 19.5523 21 19V9C21 8.44772 20.5523 8 20 8H4Z" fill="#000640"/>
</svg>
