<svg width="24" height="24" viewBox="0 0 24 24" fill="none" xmlns="http://www.w3.org/2000/svg">
<path fill-rule="evenodd" clip-rule="evenodd" d="M3.47517 3.72696C4.54793 2.2251 6.74784 2.13484 7.94003 3.54379L9.84666 5.79708C10.3997 6.45067 10.4754 7.38379 10.0349 8.11796L8.56609 10.5659C8.68383 10.7586 8.84338 10.9885 9.04748 11.2508C9.41145 11.7185 9.87652 12.2376 10.3952 12.7563C11.2686 13.6297 12.2464 14.4544 13.0881 15.0117L15.4884 13.5715C16.2226 13.131 17.1557 13.2066 17.8093 13.7597L20.1713 15.7583C21.5251 16.9038 21.4384 19.0176 19.9953 20.0484C17.7699 21.6379 14.779 22.016 12.3285 20.5204C10.6392 19.4894 8.56919 18.0338 6.7173 16.1819C5.00043 14.4651 3.7486 12.6853 2.8755 11.2048C1.43721 8.76597 1.94262 5.87254 3.47517 3.72696ZM6.41326 4.83567C6.0633 4.42209 5.41753 4.44858 5.10263 4.88944C3.91121 6.55743 3.65587 8.59092 4.59823 10.1889C5.4046 11.5562 6.55758 13.1938 8.13152 14.7677C9.83586 16.4721 11.7655 17.8337 13.3704 18.8132C15.0242 19.8225 17.1456 19.6261 18.8328 18.4209C19.2149 18.148 19.2378 17.5884 18.8794 17.2851L16.5174 15.2865L13.5958 17.0394C13.2864 17.225 12.9011 17.2296 12.5875 17.0515C11.4392 16.3995 10.097 15.2865 8.98094 14.1705C8.41748 13.607 7.89457 13.0258 7.46916 12.4792C7.0556 11.9478 6.68959 11.393 6.49279 10.8885C6.3803 10.6002 6.40767 10.276 6.56692 10.0106L8.31989 7.08897L6.41326 4.83567Z" fill="#000640"/>
</svg>
