<svg width="24" height="24" viewBox="0 0 24 24" fill="none" xmlns="http://www.w3.org/2000/svg">
<path fill-rule="evenodd" clip-rule="evenodd" d="M15 2C15 1.44772 15.4477 1 16 1H22C22.5523 1 23 1.44772 23 2V8C23 8.55228 22.5523 9 22 9C21.4477 9 21 8.55228 21 8V4.41421L9.70711 15.7071C9.31658 16.0976 8.68342 16.0976 8.29289 15.7071C7.90237 15.3166 7.90237 14.6834 8.29289 14.2929L19.5858 3H16C15.4477 3 15 2.55228 15 2Z" fill="#000640"/>
<path fill-rule="evenodd" clip-rule="evenodd" d="M4 5C3.44772 5 3 5.44772 3 6V20C3 20.5523 3.44772 21 4 21H18C18.5523 21 19 20.5523 19 20V12C19 11.4477 19.4477 11 20 11C20.5523 11 21 11.4477 21 12V20C21 21.6569 19.6569 23 18 23H4C2.34315 23 1 21.6569 1 20V6C1 4.34315 2.34315 3 4 3H12C12.5523 3 13 3.44772 13 4C13 4.55228 12.5523 5 12 5H4Z" fill="#000640"/>
</svg>
