<svg width="24" height="24" viewBox="0 0 24 24" fill="none" xmlns="http://www.w3.org/2000/svg">
<path fill-rule="evenodd" clip-rule="evenodd" d="M2.03 3.75746C2.1413 3.3123 2.54128 3 3.00015 3H21.0001C21.459 3 21.859 3.3123 21.9703 3.75746L22.9703 7.75746C23.097 8.2644 22.8121 8.78344 22.3164 8.94868C19.4165 9.91532 17.6568 11.0678 16.5822 12.6797C15.4956 14.3097 15.0001 16.5706 15.0001 20C15.0001 20.5523 14.5524 21 14.0001 21H10.0001C9.44786 21 9.00015 20.5523 9.00015 20C9.00015 16.6436 8.28246 14.3714 7.06874 12.7164C5.84862 11.0526 4.04095 9.89336 1.62876 8.92848C1.16445 8.74275 0.908719 8.2426 1.03 7.75746L2.03 3.75746ZM3.78092 5L3.17832 7.41042C5.41526 8.39832 7.31333 9.66788 8.68155 11.5336C10.0739 13.4323 10.847 15.851 10.9796 19H13.0143C13.1048 15.9121 13.6397 13.488 14.9181 11.5703C16.2058 9.63873 18.1585 8.35244 20.8094 7.36007L20.2194 5H3.78092Z" fill="#000640"/>
</svg>
