<svg width="24" height="24" viewBox="0 0 24 24" fill="none" xmlns="http://www.w3.org/2000/svg">
<path fill-rule="evenodd" clip-rule="evenodd" d="M12 1C12.3704 1 12.7105 1.20475 12.8838 1.53211L21.8838 18.5321C22.075 18.8933 22.0272 19.3345 21.763 19.6464C21.4989 19.9582 21.0715 20.0779 20.6838 19.9487L13 17.3874V22C13 22.5523 12.5523 23 12 23C11.4477 23 11 22.5523 11 22V17.3874L3.31624 19.9487C2.92851 20.0779 2.50116 19.9582 2.23699 19.6464C1.97282 19.3345 1.925 18.8933 2.11622 18.5321L11.1162 1.53211C11.2895 1.20475 11.6296 1 12 1ZM11 15.2792L5.0516 17.262L11 6.02615V15.2792ZM13 6.02615V15.2792L18.9484 17.262L13 6.02615Z" fill="#000640"/>
</svg>
