<svg width="24" height="24" viewBox="0 0 24 24" fill="none" xmlns="http://www.w3.org/2000/svg">
<path d="M11 4C10.4477 4 10 4.44772 10 5C10 5.55228 10.4477 6 11 6H13C13.5523 6 14 5.55228 14 5C14 4.44772 13.5523 4 13 4H11Z" fill="#000640"/>
<path fill-rule="evenodd" clip-rule="evenodd" d="M4 4V6.80742L2.07152 11.6286C2.02428 11.7467 2 11.8728 2 12V20C2 21.6569 3.34315 23 5 23H19C20.6569 23 22 21.6569 22 20V12C22 11.8728 21.9757 11.7467 21.9285 11.6286L20 6.80742V4C20 2.34315 18.6569 1 17 1H7C5.34315 1 4 2.34315 4 4ZM6 4C6 3.44772 6.44772 3 7 3H17C17.5523 3 18 3.44772 18 4V7C18 7.12722 18.0243 7.25327 18.0715 7.37139L20 12.1926V20C20 20.5523 19.5523 21 19 21H8V12C8 11.8728 7.97572 11.7467 7.92848 11.6286L6 6.80742V4ZM6 12.1926V21H5C4.44772 21 4 20.5523 4 20V12.1926L5 9.69258L6 12.1926Z" fill="#000640"/>
</svg>
