<svg width="24" height="24" viewBox="0 0 24 24" fill="none" xmlns="http://www.w3.org/2000/svg">
<path d="M10 5C10 4.44772 10.4477 4 11 4H13C13.5523 4 14 4.44772 14 5C14 5.55228 13.5523 6 13 6H11C10.4477 6 10 5.55228 10 5Z" fill="#000640"/>
<path fill-rule="evenodd" clip-rule="evenodd" d="M14 11C11.7909 11 10 12.7909 10 15C10 17.2091 11.7909 19 14 19C16.2091 19 18 17.2091 18 15C18 12.7909 16.2091 11 14 11ZM12 15C12 13.8954 12.8954 13 14 13C15.1046 13 16 13.8954 16 15C16 16.1046 15.1046 17 14 17C12.8954 17 12 16.1046 12 15Z" fill="#000640"/>
<path fill-rule="evenodd" clip-rule="evenodd" d="M4 6.80742V4C4 2.34315 5.34315 1 7 1H17C18.6569 1 20 2.34315 20 4V6.80742L21.9285 11.6286C21.9757 11.7467 22 11.8728 22 12V20C22 21.6569 20.6569 23 19 23H5C3.34315 23 2 21.6569 2 20V12C2 11.8728 2.02428 11.7467 2.07152 11.6286L4 6.80742ZM7 3C6.44772 3 6 3.44772 6 4V6.80742L7.92848 11.6286C7.97572 11.7467 8 11.8728 8 12V21H19C19.5523 21 20 20.5523 20 20V12.1926L18.0715 7.37139C18.0243 7.25327 18 7.12722 18 7V4C18 3.44772 17.5523 3 17 3H7ZM6 21V12.1926L5 9.69258L4 12.1926V20C4 20.5523 4.44772 21 5 21H6Z" fill="#000640"/>
</svg>
