<svg width="24" height="24" viewBox="0 0 24 24" fill="none" xmlns="http://www.w3.org/2000/svg">
<path fill-rule="evenodd" clip-rule="evenodd" d="M7.05132 1.68377C7.18743 1.27543 7.56957 1 8 1H16C16.4304 1 16.8126 1.27543 16.9487 1.68377L17.7208 4H20C20.5523 4 21 4.44772 21 5V8C21 8.55228 20.5523 9 20 9H19.8673L18.2353 20.4243C18.0241 21.9022 16.7584 23 15.2654 23H8.73459C7.24164 23 5.97588 21.9022 5.76474 20.4243L4.1327 9H4C3.44772 9 3 8.55228 3 8V5C3 4.44772 3.44772 4 4 4H6.27924L7.05132 1.68377ZM8.38743 4H15.6126L15.2792 3H8.72076L8.38743 4ZM6.15301 9L7.74464 20.1414C7.81502 20.6341 8.23694 21 8.73459 21H15.2654C15.7631 21 16.185 20.6341 16.2554 20.1414L17.847 9H6.15301ZM5 6V7H19V6H5Z" fill="#000640"/>
</svg>
