<svg width="24" height="24" viewBox="0 0 24 24" fill="none" xmlns="http://www.w3.org/2000/svg">
<path d="M17 2C17 1.44772 16.5523 1 16 1C15.4477 1 15 1.44772 15 2V4C15 4.55228 15.4477 5 16 5C16.5523 5 17 4.55228 17 4V2Z" fill="#000640"/>
<path fill-rule="evenodd" clip-rule="evenodd" d="M8 6C7.56957 6 7.18743 6.27543 7.05132 6.68377L6.27924 9H4C3.44772 9 3 9.44772 3 10V13C3 13.5523 3.44772 14 4 14H4.10496L4.80843 20.3313C4.97725 21.8506 6.26144 23 7.79009 23H16.2099C17.7386 23 19.0228 21.8506 19.1916 20.3313L19.895 14H20C20.5523 14 21 13.5523 21 13V10C21 9.44772 20.5523 9 20 9H17.7208L16.9487 6.68377C16.8126 6.27543 16.4304 6 16 6H8ZM8.38743 9L8.72076 8H15.2792L15.6126 9H8.38743ZM6.7962 20.1104L6.11726 14H17.8827L17.2038 20.1104C17.1475 20.6169 16.7195 21 16.2099 21H7.79009C7.28054 21 6.85247 20.6169 6.7962 20.1104ZM5 12V11H19V12H5Z" fill="#000640"/>
<path d="M12 1C12.5523 1 13 1.44772 13 2V4C13 4.55228 12.5523 5 12 5C11.4477 5 11 4.55228 11 4V2C11 1.44772 11.4477 1 12 1Z" fill="#000640"/>
<path d="M9 2C9 1.44772 8.55228 1 8 1C7.44772 1 7 1.44772 7 2V4C7 4.55228 7.44772 5 8 5C8.55228 5 9 4.55228 9 4V2Z" fill="#000640"/>
</svg>
