<svg width="24" height="24" viewBox="0 0 24 24" fill="none" xmlns="http://www.w3.org/2000/svg">
<path fill-rule="evenodd" clip-rule="evenodd" d="M11 16V4H14V16C14 16.5523 14.4477 17 15 17C15.5523 17 16 16.5523 16 16V4H18C18.5523 4 19 3.55228 19 3C19 2.44772 18.5523 2 18 2H9.5C7.01472 2 5 4.01472 5 6.5C5 8.81628 6.75002 10.7238 9 10.9725V16C9 16.5523 9.44771 17 10 17C10.5523 17 11 16.5523 11 16ZM7 6.5C7 5.29052 7.85888 4.28164 9 4.05001V8.94999C7.85888 8.71836 7 7.70948 7 6.5Z" fill="#000640"/>
<path d="M4.29289 22.7071C4.68341 23.0976 5.31658 23.0976 5.7071 22.7071C6.09763 22.3166 6.09763 21.6834 5.70711 21.2929L5.41421 21H21C21.5523 21 22 20.5523 22 20C22 19.4477 21.5523 19 21 19H5.41422L5.70711 18.7071C6.09763 18.3166 6.09763 17.6834 5.70711 17.2929C5.31658 16.9024 4.68342 16.9024 4.29289 17.2929L2.29289 19.2929C1.90237 19.6834 1.90237 20.3166 2.29289 20.7071L4.29289 22.7071Z" fill="#000640"/>
</svg>
