<svg width="24" height="24" viewBox="0 0 24 24" fill="none" xmlns="http://www.w3.org/2000/svg">
<path fill-rule="evenodd" clip-rule="evenodd" d="M11 16V4H14V16C14 16.5523 14.4477 17 15 17C15.5523 17 16 16.5523 16 16V4H18C18.5523 4 19 3.55228 19 3C19 2.44772 18.5523 2 18 2H9.5C7.01472 2 5 4.01472 5 6.5C5 8.81628 6.75002 10.7238 9 10.9725V16C9 16.5523 9.44772 17 10 17C10.5523 17 11 16.5523 11 16ZM7 6.5C7 5.29052 7.85888 4.28164 9 4.05001V8.94999C7.85888 8.71836 7 7.70948 7 6.5Z" fill="#000640"/>
<path d="M19.7071 17.2929C19.3166 16.9024 18.6834 16.9024 18.2929 17.2929C17.9024 17.6834 17.9024 18.3166 18.2929 18.7071L18.5858 19H3C2.44772 19 2 19.4477 2 20C2 20.5523 2.44772 21 3 21H18.5858L18.2929 21.2929C17.9024 21.6834 17.9024 22.3166 18.2929 22.7071C18.6834 23.0976 19.3166 23.0976 19.7071 22.7071L21.7071 20.7071C22.0976 20.3166 22.0976 19.6834 21.7071 19.2929L19.7071 17.2929Z" fill="#000640"/>
</svg>
