<svg width="24" height="24" viewBox="0 0 24 24" fill="none" xmlns="http://www.w3.org/2000/svg">
<path fill-rule="evenodd" clip-rule="evenodd" d="M11.4855 1.14251C11.8022 0.952498 12.1978 0.952498 12.5145 1.14251L22.5145 7.14251C22.8157 7.32323 23 7.64874 23 8V11C23 11.5523 22.5523 12 22 12H21V18H22C22.5523 18 23 18.4477 23 19V22C23 22.5523 22.5523 23 22 23H2C1.44772 23 1 22.5523 1 22V19C1 18.4477 1.44772 18 2 18H3V12H2C1.44772 12 1 11.5523 1 11V8C1 7.64874 1.1843 7.32323 1.4855 7.14251L11.4855 1.14251ZM13 12H15V18H13V12ZM17 18V12H19V18H17ZM7 12H5V18H7V12ZM9 12H11V18H9V12ZM21 9V10H3V9H21ZM5.61032 7L12 3.16619L18.3897 7H5.61032ZM3 20V21H21V20H3Z" fill="#000640"/>
</svg>
