<svg width="24" height="24" viewBox="0 0 24 24" fill="none" xmlns="http://www.w3.org/2000/svg">
<g clip-path="url(#clip0_1253_5723)">
<path d="M9 7C9.55229 7 10 7.44772 10 8V16C10 16.5523 9.55229 17 9 17C8.44771 17 8 16.5523 8 16V8C8 7.44772 8.44771 7 9 7Z" fill="#000640"/>
<path d="M16 8C16 7.44772 15.5523 7 15 7C14.4477 7 14 7.44772 14 8V16C14 16.5523 14.4477 17 15 17C15.5523 17 16 16.5523 16 16V8Z" fill="#000640"/>
<path fill-rule="evenodd" clip-rule="evenodd" d="M12 24C18.6274 24 24 18.6274 24 12C24 5.37258 18.6274 0 12 0C5.37258 0 0 5.37258 0 12C0 18.6274 5.37258 24 12 24ZM12 22C17.5228 22 22 17.5228 22 12C22 6.47715 17.5228 2 12 2C6.47715 2 2 6.47715 2 12C2 17.5228 6.47715 22 12 22Z" fill="#000640"/>
</g>
<defs>
<clipPath id="clip0_1253_5723">
<rect width="24" height="24" fill="white"/>
</clipPath>
</defs>
</svg>
