<svg width="24" height="24" viewBox="0 0 24 24" fill="none" xmlns="http://www.w3.org/2000/svg">
<path fill-rule="evenodd" clip-rule="evenodd" d="M7 3C5.34315 3 4 4.34315 4 6V18C4 19.6569 5.34315 21 7 21H8C9.65685 21 11 19.6569 11 18V6C11 4.34315 9.65685 3 8 3H7ZM6 6C6 5.44772 6.44772 5 7 5H8C8.55228 5 9 5.44772 9 6V18C9 18.5523 8.55228 19 8 19H7C6.44772 19 6 18.5523 6 18V6Z" fill="#000640"/>
<path fill-rule="evenodd" clip-rule="evenodd" d="M16 3C14.3431 3 13 4.34315 13 6V18C13 19.6569 14.3431 21 16 21H17C18.6569 21 20 19.6569 20 18V6C20 4.34315 18.6569 3 17 3H16ZM15 6C15 5.44772 15.4477 5 16 5H17C17.5523 5 18 5.44772 18 6V18C18 18.5523 17.5523 19 17 19H16C15.4477 19 15 18.5523 15 18V6Z" fill="#000640"/>
</svg>
