<svg width="24" height="24" viewBox="0 0 24 24" fill="none" xmlns="http://www.w3.org/2000/svg">
<path d="M9 5C8.44771 5 8 5.44772 8 6C8 6.55228 8.44771 7 9 7H15C15.5523 7 16 6.55228 16 6C16 5.44772 15.5523 5 15 5H9Z" fill="#000640"/>
<path d="M8 10C8 9.44771 8.44771 9 9 9H15C15.5523 9 16 9.44771 16 10C16 10.5523 15.5523 11 15 11H9C8.44771 11 8 10.5523 8 10Z" fill="#000640"/>
<path d="M12 17C12.5523 17 13 16.5523 13 16C13 15.4477 12.5523 15 12 15C11.4477 15 11 15.4477 11 16C11 16.5523 11.4477 17 12 17Z" fill="#000640"/>
<path fill-rule="evenodd" clip-rule="evenodd" d="M7 1C5.34315 1 4 2.34315 4 4V20C4 21.6569 5.34315 23 7 23H17C18.6569 23 20 21.6569 20 20V4C20 2.34315 18.6569 1 17 1H7ZM6 4C6 3.44772 6.44772 3 7 3H17C17.5523 3 18 3.44772 18 4V20C18 20.5523 17.5523 21 17 21H7C6.44772 21 6 20.5523 6 20V4Z" fill="#000640"/>
</svg>
