<svg width="24" height="24" viewBox="0 0 24 24" fill="none" xmlns="http://www.w3.org/2000/svg">
<path fill-rule="evenodd" clip-rule="evenodd" d="M2.29291 2.29292C2.54112 2.0447 2.90131 1.9448 3.24192 2.02972L18.3132 5.78708C18.8107 5.9111 19.1338 6.39126 19.0613 6.8988C18.7487 9.08696 19.0282 10.656 19.6539 12.5826L21.6069 14.5356C21.7944 14.7231 21.8997 14.9774 21.8997 15.2427C21.8997 15.5079 21.7944 15.7622 21.6069 15.9498L15.95 21.6066C15.5595 21.9971 14.9263 21.9971 14.5358 21.6066L12.5828 19.6536C10.6562 19.028 9.08719 18.7484 6.89903 19.061C6.3915 19.1335 5.91134 18.8105 5.78731 18.313L2.02972 3.24194C1.9448 2.90133 2.04469 2.54114 2.29291 2.29292ZM14.5358 18.7782L15.2429 19.4853L19.4855 15.2427L18.7784 14.5356L14.5358 18.7782ZM17.6393 12.8463C17.1053 11.1221 16.8131 9.5171 16.9792 7.51571L6.25688 4.84258L10.3228 8.90832C11.4897 8.33099 12.9426 8.52816 13.9143 9.49984C15.1333 10.7189 15.1333 12.6953 13.9143 13.9144C12.6952 15.1334 10.7188 15.1334 9.49974 13.9144C8.52795 12.9426 8.33084 11.4895 8.90843 10.3224L4.84262 6.25674L7.51593 16.979C9.51732 16.8129 11.1223 17.1051 12.8465 17.6391L17.6393 12.8463ZM12.5001 10.9141C12.0621 10.4761 11.352 10.4761 10.914 10.9141C10.476 11.352 10.476 12.0622 10.914 12.5002C11.352 12.9382 12.0621 12.9382 12.5001 12.5002C12.9381 12.0622 12.9381 11.352 12.5001 10.9141Z" fill="#000640"/>
</svg>
