<svg width="24" height="24" viewBox="0 0 24 24" fill="none" xmlns="http://www.w3.org/2000/svg">
<path fill-rule="evenodd" clip-rule="evenodd" d="M12.8321 1.4453C12.6467 1.1671 12.3344 1 12.0001 1C11.6657 1 11.3535 1.1671 11.168 1.4453L3.16802 13.4453C2.87362 13.8869 2.97548 14.4816 3.40007 14.8C5.16837 16.1262 6.08019 17.4333 7.00007 19.238V22C7.00007 22.5523 7.44778 23 8.00007 23H16.0001C16.5524 23 17.0001 22.5523 17.0001 22V19.238C17.9199 17.4333 18.8318 16.1262 20.6001 14.8C21.0247 14.4816 21.1265 13.8869 20.8321 13.4453L12.8321 1.4453ZM9.00007 21V20H15.0001V21H9.00007ZM18.6592 13.7915C17.1459 15.0807 16.2248 16.4145 15.3891 18H8.61105C7.77537 16.4145 6.85429 15.0807 5.34093 13.7915L11.0001 5.30278V10.1707C9.83487 10.5825 9.00006 11.6938 9.00006 13C9.00006 14.6569 10.3432 16 12.0001 16C13.6569 16 15.0001 14.6569 15.0001 13C15.0001 11.6938 14.1653 10.5825 13.0001 10.1707V5.30278L18.6592 13.7915ZM13.0001 13C13.0001 13.5523 12.5523 14 12.0001 14C11.4478 14 11.0001 13.5523 11.0001 13C11.0001 12.4477 11.4478 12 12.0001 12C12.5523 12 13.0001 12.4477 13.0001 13Z" fill="#000640"/>
</svg>
