<svg width="24" height="24" viewBox="0 0 24 24" fill="none" xmlns="http://www.w3.org/2000/svg">
<path fill-rule="evenodd" clip-rule="evenodd" d="M17.7071 2.29289C17.3166 1.90237 16.6834 1.90237 16.2929 2.29289L2.29289 16.2929C2.10536 16.4804 2 16.7348 2 17V21C2 21.5523 2.44772 22 3 22H7C7.26522 22 7.51957 21.8946 7.70711 21.7071L21.7071 7.70711C22.0976 7.31658 22.0976 6.68342 21.7071 6.29289L17.7071 2.29289ZM18 8.58579L15.4142 6L17 4.41421L19.5858 7L18 8.58579ZM14 7.41421L16.5858 10L8 18.5858L5.41421 16L14 7.41421ZM4 17.4142L6.58579 20H4V17.4142Z" fill="#000640"/>
<path d="M13 20C12.4477 20 12 20.4477 12 21C12 21.5523 12.4477 22 13 22H21C21.5523 22 22 21.5523 22 21C22 20.4477 21.5523 20 21 20H13Z" fill="#000640"/>
</svg>
