<svg width="24" height="24" viewBox="0 0 24 24" fill="none" xmlns="http://www.w3.org/2000/svg">
<g clip-path="url(#clip0_1253_5373)">
<path fill-rule="evenodd" clip-rule="evenodd" d="M12 0C5.37258 0 0 5.37258 0 12C0 18.6274 5.37258 24 12 24C18.6274 24 24 18.6274 24 12C24 5.37258 18.6274 0 12 0ZM2 12C2 6.47715 6.47715 2 12 2C17.5228 2 22 6.47715 22 12C22 14.7196 20.9144 17.1856 19.1529 18.9883L17.9701 14.2575C17.8588 13.8123 17.4589 13.5 17 13.5H16.8483C16.8272 13.386 16.8036 13.2628 16.7774 13.132C16.632 12.4046 16.4037 11.4238 16.0737 10.4338C15.7479 9.45646 15.3023 8.40587 14.697 7.58051C14.0994 6.76558 13.2135 6 12 6C10.7865 6 9.90058 6.76558 9.30296 7.58051C8.6977 8.40587 8.25208 9.45646 7.92631 10.4338C7.5963 11.4238 7.36802 12.4046 7.22254 13.132C7.19637 13.2628 7.17279 13.386 7.15169 13.5H6.99999C6.54112 13.5 6.14114 13.8123 6.02985 14.2575L4.84714 18.9883C3.08562 17.1856 2 14.7196 2 12ZM6.55802 20.391C8.12415 21.4088 9.99303 22 12 22C14.007 22 15.8758 21.4088 17.442 20.391L16.2192 15.5H7.78077L6.55802 20.391ZM14.1763 11.0662C14.4678 11.9407 14.6755 12.8242 14.8114 13.5H9.18856C9.32444 12.8242 9.53218 11.9407 9.82368 11.0662C10.1229 10.1685 10.4898 9.34413 10.9158 8.76324C11.3494 8.17192 11.7135 8 12 8C12.2865 8 12.6506 8.17192 13.0842 8.76324C13.5102 9.34413 13.8771 10.1685 14.1763 11.0662Z" fill="#000640"/>
</g>
<defs>
<clipPath id="clip0_1253_5373">
<rect width="24" height="24" fill="white"/>
</clipPath>
</defs>
</svg>
