<svg width="24" height="24" viewBox="0 0 24 24" fill="none" xmlns="http://www.w3.org/2000/svg">
<path d="M7.05016 7.05025C9.78383 4.31658 14.216 4.31658 16.9497 7.05025C17.3402 7.44078 17.9733 7.44078 18.3639 7.05025C18.7544 6.65973 18.7544 6.02656 18.3639 5.63604C14.8491 2.12132 9.15066 2.12132 5.63594 5.63604C5.24542 6.02656 5.24542 6.65973 5.63594 7.05025C6.02647 7.44078 6.65963 7.44078 7.05016 7.05025Z" fill="#000640"/>
<path d="M14.1212 8.87869C12.9497 7.70711 11.0502 7.70711 9.87858 8.87869C9.48806 9.26921 8.85489 9.26921 8.46437 8.87869C8.07385 8.48816 8.07385 7.855 8.46437 7.46447C10.417 5.51185 13.5828 5.51185 15.5354 7.46447C15.926 7.855 15.926 8.48816 15.5354 8.87869C15.1449 9.26921 14.5117 9.26921 14.1212 8.87869Z" fill="#000640"/>
<path fill-rule="evenodd" clip-rule="evenodd" d="M22.6318 17.4952C22.9105 19.3349 21.3896 20.9483 19.5366 20.7784L17.177 20.5621C16.3147 20.4831 15.6012 19.8581 15.4093 19.0137L14.7835 16.2601C14.601 16.2141 14.3742 16.1702 14.103 16.133C13.5777 16.0609 12.953 16.023 12.2923 16.023C11.1999 16.023 10.0788 16.1264 9.20355 16.3162L8.59047 19.0137C8.39856 19.8581 7.68507 20.4831 6.82277 20.5621L4.30979 20.7925C2.53488 20.9552 1.07793 19.4097 1.34493 17.6474C1.75103 14.9672 3.52509 12.5405 6.30493 11.83C8.01802 11.3922 10.1825 11 12.4544 11C14.5569 11 16.4254 11.3357 17.9095 11.7371C20.6375 12.4748 22.2419 14.9222 22.6318 17.4952ZM19.7192 18.7868C20.279 18.8381 20.7386 18.3506 20.6544 17.7948C20.348 15.7728 19.1455 14.1432 17.3873 13.6677C16.037 13.3025 14.3463 13 12.4544 13C10.401 13 8.4102 13.3562 6.80017 13.7677C4.94621 14.2415 3.63275 15.8985 3.32236 17.9471C3.24988 18.4254 3.64539 18.845 4.12722 18.8008L6.6402 18.5705L7.3884 15.2784C7.46803 14.928 7.72952 14.6473 8.07338 14.543C9.25147 14.1858 10.8479 14.023 12.2923 14.023C13.0229 14.023 13.7407 14.0645 14.3748 14.1515C14.9891 14.2358 15.6001 14.3722 16.0709 14.5994C16.345 14.7317 16.5439 14.9816 16.6114 15.2784L17.3596 18.5705L19.7192 18.7868Z" fill="#000640"/>
</svg>
