<svg width="24" height="24" viewBox="0 0 24 24" fill="none" xmlns="http://www.w3.org/2000/svg">
<path fill-rule="evenodd" clip-rule="evenodd" d="M3.47541 3.72696C4.54817 2.2251 6.74809 2.13484 7.94027 3.54379L9.84691 5.79708C10.3999 6.45067 10.4756 7.38379 10.0351 8.11796L8.56633 10.5659C8.68408 10.7586 8.84362 10.9885 9.04773 11.2508C9.4117 11.7185 9.87676 12.2376 10.3954 12.7563C11.2688 13.6297 12.2466 14.4544 13.0883 15.0117L15.4886 13.5715C16.2228 13.131 17.1559 13.2066 17.8095 13.7597L20.1716 15.7583C21.5253 16.9038 21.4386 19.0176 19.9955 20.0484C17.7702 21.6379 14.7792 22.016 12.3288 20.5204C10.6395 19.4894 8.56944 18.0338 6.71755 16.1819C5.00067 14.4651 3.74884 12.6853 2.87574 11.2048C1.43745 8.76597 1.94286 5.87254 3.47541 3.72696ZM6.4135 4.83567C6.06354 4.42209 5.41778 4.44858 5.10288 4.88944C3.91146 6.55743 3.65611 8.59092 4.59848 10.1889C5.40484 11.5562 6.55782 13.1938 8.13176 14.7677C9.8361 16.4721 11.7658 17.8337 13.3707 18.8132C15.0244 19.8225 17.1458 19.6261 18.8331 18.4209C19.2151 18.148 19.2381 17.5884 18.8797 17.2851L16.5176 15.2865L13.596 17.0394C13.2867 17.225 12.9014 17.2296 12.5877 17.0515C11.4394 16.3995 10.0972 15.2865 8.98119 14.1705C8.41772 13.607 7.89481 13.0258 7.46941 12.4792C7.05585 11.9478 6.68983 11.393 6.49303 10.8885C6.38055 10.6002 6.40792 10.276 6.56716 10.0106L8.32014 7.08897L6.4135 4.83567Z" fill="#000640"/>
<path d="M19 11C18.4477 11 18 10.5523 18 9.99999L18 4.99999C18 4.4477 18.4477 3.99999 19 3.99999C19.5523 3.99999 20 4.4477 20 4.99999L20 9.99999C20 10.5523 19.5523 11 19 11Z" fill="#000640"/>
<path d="M16 4.99999C16 4.4477 15.5523 3.99999 15 3.99999C14.4477 3.99999 14 4.4477 14 4.99999V9.99999C14 10.5523 14.4477 11 15 11C15.5523 11 16 10.5523 16 9.99999V4.99999Z" fill="#000640"/>
</svg>
