<svg width="24" height="24" viewBox="0 0 24 24" fill="none" xmlns="http://www.w3.org/2000/svg">
<path d="M7.94026 3.54379C6.74808 2.13484 4.54816 2.22509 3.4754 3.72696C1.94275 5.87268 1.43788 8.76692 2.8762 11.2056C3.4002 12.0941 4.05996 13.0892 4.87402 14.1135C5.21765 14.5458 5.84672 14.6178 6.27908 14.2741C6.71144 13.9305 6.78336 13.3014 6.43973 12.8691C5.69034 11.9262 5.0821 11.0089 4.5989 10.1896C3.65641 8.59159 3.91155 6.55728 5.10286 4.88944C5.41777 4.44858 6.06353 4.42209 6.41349 4.83567L8.32012 7.08897L6.56715 10.0106C6.4739 10.166 6.42464 10.3438 6.42464 10.5251L7.42464 10.5251C6.42464 10.5251 6.42464 10.527 6.42464 10.527L6.42465 10.5289L6.42467 10.5327L6.42476 10.5404L6.42511 10.556C6.42542 10.5665 6.4259 10.5771 6.42655 10.588C6.42784 10.6097 6.4298 10.6321 6.4325 10.6552C6.43789 10.7015 6.44622 10.7506 6.45793 10.8028C6.4813 10.9068 6.51841 11.0241 6.57388 11.1568C6.6839 11.4201 6.8725 11.7594 7.1937 12.1972C7.52036 12.6426 8.14618 12.7387 8.5915 12.4121C9.03682 12.0854 9.133 11.4596 8.80634 11.0143C8.68449 10.8482 8.59829 10.7155 8.53783 10.6134L10.0351 8.11796C10.4756 7.38379 10.3999 6.45067 9.8469 5.79708L7.94026 3.54379Z" fill="#000640"/>
<path fill-rule="evenodd" clip-rule="evenodd" d="M8.02001 17.3942L4.70711 20.7071C4.31659 21.0976 3.68342 21.0976 3.2929 20.7071C2.90237 20.3166 2.90237 19.6834 3.2929 19.2929L19.2929 3.29288C19.6834 2.90236 20.3166 2.90236 20.7071 3.29288C21.0976 3.68341 21.0976 4.31657 20.7071 4.7071L11.5571 13.8571C12.1344 14.351 12.6062 14.6974 12.9437 14.9257C12.992 14.9583 13.0376 14.9886 13.0803 15.0165L15.4886 13.5715C16.2228 13.131 17.1559 13.2066 17.8095 13.7597L20.1715 15.7583C21.5253 16.9038 21.4386 19.0176 19.9955 20.0484C17.7701 21.638 14.7791 22.0159 12.3287 20.5203C11.0257 19.7251 9.49855 18.6787 8.02001 17.3942ZM9.43798 15.9762C10.7777 17.1272 12.1666 18.0783 13.3706 18.8132C15.0243 19.8225 17.1458 19.6261 18.8331 18.4209C19.2151 18.148 19.2381 17.5884 18.8797 17.2851L16.5176 15.2865L13.596 17.0394C13.3028 17.2153 12.9401 17.2293 12.6343 17.0764C12.6343 17.0764 12.6343 17.0764 13.0815 16.1819L12.6343 17.0764L12.6323 17.0754L12.63 17.0742L12.6243 17.0713L12.6085 17.0632C12.5961 17.0567 12.5799 17.0482 12.5599 17.0374C12.52 17.0158 12.4653 16.9854 12.3966 16.9454C12.2592 16.8652 12.0659 16.7464 11.8233 16.5824C11.3998 16.296 10.8266 15.8719 10.139 15.2752L9.43798 15.9762Z" fill="#000640"/>
</svg>
