<svg width="24" height="24" viewBox="0 0 24 24" fill="none" xmlns="http://www.w3.org/2000/svg">
<path fill-rule="evenodd" clip-rule="evenodd" d="M3.54594 3.62821C4.59335 2.16184 6.69876 2.03012 7.87364 3.459C7.97715 3.58488 8.08212 3.71269 8.18752 3.84103C8.7611 4.53944 9.34758 5.25354 9.78223 5.7588C10.3458 6.41389 10.4726 7.38877 10.0017 8.17357L8.56632 10.5659C8.68406 10.7586 8.84361 10.9886 9.04771 11.2508C9.41168 11.7185 9.87675 12.2376 10.3954 12.7563C11.2688 13.6297 12.2466 14.4544 13.0883 15.0117L15.4886 13.5715C16.2228 13.131 17.1559 13.2067 17.8095 13.7597L20.1715 15.7583C21.5253 16.9038 21.4386 19.0176 19.9955 20.0484C17.7702 21.6379 14.7792 22.016 12.3288 20.5204C10.6394 19.4894 8.56942 18.0338 6.71753 16.1819C5.04256 14.507 3.81027 12.7722 2.94049 11.314C1.44883 8.81324 1.96967 5.83498 3.54594 3.62821ZM6.32881 4.72923C6.01971 4.3533 5.4841 4.35572 5.1734 4.79068C3.93706 6.52156 3.67092 8.63439 4.65813 10.2895C5.46145 11.6362 6.59632 13.2323 8.13174 14.7677C9.83609 16.4721 11.7657 17.8337 13.3707 18.8132C15.0244 19.8225 17.1458 19.6261 18.8331 18.4209C19.2151 18.148 19.2381 17.5884 18.8797 17.2851L16.5176 15.2865L13.596 17.0394C13.2867 17.225 12.9014 17.2296 12.5877 17.0515C11.4394 16.3995 10.0972 15.2865 8.98117 14.1705C8.41771 13.607 7.89479 13.0258 7.46939 12.4792C7.05583 11.9478 6.68982 11.393 6.49302 10.8885C6.38053 10.6002 6.4079 10.276 6.56714 10.0106L8.28676 7.14457C8.28676 7.14457 8.29179 7.13596 8.29001 7.11827C8.28809 7.09929 8.27982 7.0791 8.26607 7.06312C7.81494 6.53872 7.21015 5.80227 6.63783 5.10536C6.53336 4.97816 6.42998 4.85227 6.32881 4.72923Z" fill="#000640"/>
</svg>
