<svg width="24" height="24" viewBox="0 0 24 24" fill="none" xmlns="http://www.w3.org/2000/svg">
<g clip-path="url(#clip0_1253_5313)">
<path fill-rule="evenodd" clip-rule="evenodd" d="M11 2.04938C5.94668 2.5511 2 6.81465 2 12C2 17.1853 5.94668 21.4489 11 21.9506V2.04938ZM13 2.04933V3H16.3647C15.3303 2.49736 14.1963 2.168 13 2.04933ZM19.1414 5H13V7H20.6624C20.2402 6.2703 19.7282 5.59857 19.1414 5ZM21.5425 9H13V11H21.9507C21.8823 10.3098 21.7437 9.64081 21.5425 9ZM21.9507 13H13V15H21.5425C21.7437 14.3592 21.8823 13.6902 21.9507 13ZM20.6624 17H13V19.0468H19.0953C19.7014 18.4365 20.2291 17.7488 20.6624 17ZM16.267 21.0468H13V21.9507C14.1588 21.8357 15.2591 21.5231 16.267 21.0468ZM0 12C0 5.37258 5.37258 0 12 0C15.1883 0 18.0881 1.24476 20.2364 3.27285C21.5154 4.48035 22.5297 5.96682 23.1816 7.63623C23.7103 8.99002 24 10.4624 24 12C24 13.5376 23.7103 15.01 23.1816 16.3638C22.5204 18.0568 21.4867 19.5616 20.182 20.7782C18.0393 22.7761 15.1615 24 12 24C5.37258 24 0 18.6274 0 12Z" fill="#000640"/>
</g>
<defs>
<clipPath id="clip0_1253_5313">
<rect width="24" height="24" fill="white"/>
</clipPath>
</defs>
</svg>
