<svg width="24" height="24" viewBox="0 0 24 24" fill="none" xmlns="http://www.w3.org/2000/svg">
<path fill-rule="evenodd" clip-rule="evenodd" d="M13 4C13 3.44772 13.4477 3 14 3H18.4108C19.4874 3 20.4814 3.57686 21.0155 4.51158L23.8682 9.50386C23.9546 9.65496 24 9.82597 24 10V18C24 18.5523 23.5523 19 23 19H20.8293C20.4175 20.1652 19.3062 21 18 21C16.6938 21 15.5825 20.1652 15.1707 19H8.82929C8.41746 20.1652 7.30622 21 6 21C4.69378 21 3.58254 20.1652 3.17071 19H1C0.447715 19 0 18.5523 0 18V11C0 10.4477 0.447715 10 1 10H13V4ZM13 12H2V17H3.17071C3.58254 15.8348 4.69378 15 6 15C7.30622 15 8.41746 15.8348 8.82929 17H13V12ZM15 17V12H22V17H20.8293C20.4175 15.8348 19.3062 15 18 15C16.6938 15 15.5825 15.8348 15.1707 17H15ZM21.8482 10H15V5H18.4108C18.7696 5 19.101 5.19229 19.279 5.50386L21.8482 10ZM6 17C5.44772 17 5 17.4477 5 18C5 18.5523 5.44772 19 6 19C6.55228 19 7 18.5523 7 18C7 17.4477 6.55228 17 6 17ZM18 17C17.4477 17 17 17.4477 17 18C17 18.5523 17.4477 19 18 19C18.5523 19 19 18.5523 19 18C19 17.4477 18.5523 17 18 17Z" fill="#000640"/>
</svg>
