<svg width="24" height="24" viewBox="0 0 24 24" fill="none" xmlns="http://www.w3.org/2000/svg">
<g clip-path="url(#clip0_1253_5084)">
<path fill-rule="evenodd" clip-rule="evenodd" d="M11 2.04938C5.94668 2.5511 2 6.81465 2 12C2 17.5228 6.47715 22 12 22C14.4017 22 16.6044 21.1544 18.3288 19.743L11.2929 12.7071C11.1054 12.5196 11 12.2652 11 12V2.04938ZM13 2.04938V11.5858L19.743 18.3288C21.1544 16.6044 22 14.4017 22 12C22 6.81465 18.0533 2.5511 13 2.04938ZM0 12C0 5.37258 5.37258 0 12 0C18.6274 0 24 5.37258 24 12C24 15.3134 22.6558 18.3148 20.4853 20.4853C18.3148 22.6558 15.3134 24 12 24C5.37258 24 0 18.6274 0 12Z" fill="#000640"/>
</g>
<defs>
<clipPath id="clip0_1253_5084">
<rect width="24" height="24" fill="white"/>
</clipPath>
</defs>
</svg>
