<svg width="24" height="24" viewBox="0 0 24 24" fill="none" xmlns="http://www.w3.org/2000/svg">
<g clip-path="url(#clip0_1253_5078)">
<path fill-rule="evenodd" clip-rule="evenodd" d="M11 2.04938C5.94668 2.5511 2 6.81465 2 12C2 17.5228 6.47715 22 12 22C17.5228 22 22 17.5228 22 12C22 10.8952 21.8212 9.83371 21.4914 8.84192L12.409 12.9125C12.0996 13.0512 11.741 13.0237 11.4564 12.8393C11.1718 12.655 11 12.3391 11 12V2.04938ZM13 2.04933V3H16.3647C15.3303 2.49736 14.1963 2.168 13 2.04933ZM19.1414 5H13V7H20.6624C20.2402 6.27029 19.7282 5.59855 19.1414 5ZM16.2486 9H13V10.456L16.2486 9ZM0 12C0 5.37258 5.37258 0 12 0C15.1883 0 18.0881 1.24476 20.2364 3.27285C21.3743 4.34717 22.3026 5.64223 22.9527 7.09049C23.626 8.59039 24 10.2529 24 12C24 18.6274 18.6274 24 12 24C5.37258 24 0 18.6274 0 12Z" fill="#000640"/>
</g>
<defs>
<clipPath id="clip0_1253_5078">
<rect width="24" height="24" fill="white"/>
</clipPath>
</defs>
</svg>
