<svg width="24" height="24" viewBox="0 0 24 24" fill="none" xmlns="http://www.w3.org/2000/svg">
<g clip-path="url(#clip0_1253_5086)">
<path fill-rule="evenodd" clip-rule="evenodd" d="M11 2.04938C5.94668 2.5511 2 6.81465 2 12C2 17.5228 6.47715 22 12 22C17.1853 22 21.4489 18.0533 21.9506 13H12C11.4477 13 11 12.5523 11 12V2.04938ZM13 2.04938V11H21.9506C21.4816 6.27558 17.7244 2.51844 13 2.04938ZM0 12C0 5.37258 5.37258 0 12 0C18.6274 0 24 5.37258 24 12C24 18.6274 18.6274 24 12 24C5.37258 24 0 18.6274 0 12Z" fill="#000640"/>
</g>
<defs>
<clipPath id="clip0_1253_5086">
<rect width="24" height="24" fill="white"/>
</clipPath>
</defs>
</svg>
