<svg width="24" height="24" viewBox="0 0 24 24" fill="none" xmlns="http://www.w3.org/2000/svg">
<g clip-path="url(#clip0_1253_6729)">
<path fill-rule="evenodd" clip-rule="evenodd" d="M1.68766 10.1714C1.29713 9.78086 1.29713 9.14769 1.68766 8.75717L8.75872 1.6861C9.14925 1.29557 9.78241 1.29558 10.1729 1.6861C10.5635 2.07662 10.5635 2.70979 10.1729 3.10031L9.6845 3.58875L18.4473 8.59603C18.7179 8.75066 18.9009 9.02263 18.9423 9.33154C18.9836 9.64046 18.8786 9.951 18.6582 10.1714L15.1227 13.7069L20.7795 19.3638C21.1701 19.7543 21.1701 20.3875 20.7795 20.778C20.389 21.1685 19.7559 21.1685 19.3653 20.778L13.7085 15.1211L10.1729 18.6567C9.95255 18.877 9.64201 18.9821 9.3331 18.9407C9.02418 18.8993 8.75222 18.7163 8.59759 18.4457L3.5903 9.68295L3.10187 10.1714C2.71135 10.5619 2.07818 10.5619 1.68766 10.1714ZM5.05617 8.21708L9.6845 16.3167L16.3182 9.68295L8.21864 5.05461L5.05617 8.21708Z" fill="#000640"/>
</g>
<defs>
<clipPath id="clip0_1253_6729">
<rect width="24" height="24" fill="white"/>
</clipPath>
</defs>
</svg>
