<svg width="24" height="24" viewBox="0 0 24 24" fill="none" xmlns="http://www.w3.org/2000/svg">
<path fill-rule="evenodd" clip-rule="evenodd" d="M6.00001 2C6.00001 1.44772 6.44772 1 7.00001 1H17C17.5523 1 18 1.44772 18 2C18 2.55228 17.5523 3 17 3H16.3093L18.9648 12.7369C19.0468 13.0376 18.9839 13.3593 18.7947 13.607C18.6055 13.8547 18.3117 14 18 14H13V22C13 22.5523 12.5523 23 12 23C11.4477 23 11 22.5523 11 22V14H6.00001C5.68834 14 5.39449 13.8547 5.2053 13.607C5.01612 13.3593 4.95324 13.0376 5.03525 12.7369L7.69076 3H7.00001C6.44772 3 6.00001 2.55228 6.00001 2ZM9.7638 3L7.30926 12H16.6908L14.2362 3H9.7638Z" fill="#000640"/>
</svg>
