<svg width="24" height="24" viewBox="0 0 24 24" fill="none" xmlns="http://www.w3.org/2000/svg">
<path fill-rule="evenodd" clip-rule="evenodd" d="M10.1512 2.13824C10.8728 0.559729 13.1247 0.586627 13.8084 2.18192L19.224 14.8182C20.0719 16.7967 18.623 19 16.4681 19H12.9996V21H15.9996C16.5519 21 16.9996 21.4477 16.9996 22C16.9996 22.5523 16.5519 23 15.9996 23H7.99962C7.44733 23 6.99962 22.5523 6.99962 22C6.99962 21.4477 7.44733 21 7.99962 21H10.9996V19H7.11126C4.92523 19 3.47683 16.7384 4.38455 14.7527L10.1512 2.13824ZM11.9701 2.96976L6.2035 15.5842C5.90016 16.2478 6.38442 17 7.11126 17H16.4681C17.1848 17 17.669 16.2671 17.3857 15.6061L11.9701 2.96976Z" fill="#000640"/>
</svg>
