<svg width="24" height="24" viewBox="0 0 24 24" fill="none" xmlns="http://www.w3.org/2000/svg">
<path d="M16 10C16 10.5523 15.5523 11 15 11H13V13C13 13.5523 12.5523 14 12 14C11.4477 14 11 13.5523 11 13V11H9C8.44771 11 8 10.5523 8 10C8 9.44771 8.44772 9 9 9H11V7C11 6.44772 11.4477 6 12 6C12.5523 6 13 6.44772 13 7V9H15C15.5523 9 16 9.44771 16 10Z" fill="#000640"/>
<path fill-rule="evenodd" clip-rule="evenodd" d="M2 9.8C2 4.36654 6.49846 0 12 0C17.5015 0 22 4.36654 22 9.8C22 13.4667 19.8037 16.999 17.6337 19.5264C16.5317 20.8099 15.3947 21.8831 14.4578 22.6425C13.9906 23.0211 13.5599 23.3326 13.1976 23.5554C13.0176 23.666 12.8382 23.765 12.6686 23.8396C12.5311 23.9001 12.2813 24 12 24C11.7187 24 11.4689 23.9001 11.3314 23.8396C11.1618 23.765 10.9824 23.666 10.8024 23.5554C10.4401 23.3326 10.0094 23.0211 9.54221 22.6425C8.60528 21.8831 7.46827 20.8099 6.36628 19.5264C4.19629 16.999 2 13.4667 2 9.8ZM12 2C7.56042 2 4 5.51325 4 9.8C4 12.7333 5.80371 15.801 7.88372 18.2236C8.90673 19.4151 9.95722 20.4044 10.8015 21.0888C11.225 21.432 11.5834 21.6877 11.85 21.8517C11.907 21.8868 11.957 21.9158 12 21.9396C12.043 21.9158 12.093 21.8868 12.15 21.8517C12.4166 21.6877 12.775 21.432 13.1985 21.0888C14.0428 20.4044 15.0933 19.4151 16.1163 18.2236C18.1963 15.801 20 12.7333 20 9.8C20 5.51325 16.4396 2 12 2Z" fill="#000640"/>
</svg>
