<svg width="24" height="24" viewBox="0 0 24 24" fill="none" xmlns="http://www.w3.org/2000/svg">
<path fill-rule="evenodd" clip-rule="evenodd" d="M9.90465 3.42355C10.1471 3.25282 10.4528 3.1985 10.7392 3.27525L12.3931 3.71839C13.5294 4.02287 14.3829 4.96343 14.5759 6.12392L15.3404 10.7198L19.1947 11.7525C19.7965 11.9138 20.3332 12.2584 20.7302 12.7386L21.8373 14.0775C23.701 16.3314 21.5673 19.6476 18.7437 18.8856L15.102 17.9028L9.30643 16.3499C9.22745 16.3288 9.15137 16.298 9.07988 16.2583L2.89939 12.8273C1.94652 12.2983 1.35548 11.2942 1.35547 10.2044L1.35547 5.01762C1.35547 4.69696 1.50924 4.39575 1.76896 4.20768C2.02868 4.01961 2.36284 3.96749 2.66749 4.06755L4.23629 4.58277C5.13339 4.87739 5.83944 5.57719 6.14202 6.47165L6.80548 8.43286L9.08266 9.04303L9.48376 4.15932C9.50803 3.86379 9.6622 3.59427 9.90465 3.42355ZM8.91627 11.069L5.77089 10.2262C5.44793 10.1397 5.18959 9.89744 5.08244 9.58072L4.24749 7.11254C4.14663 6.81439 3.91128 6.58112 3.61225 6.48292L3.35547 6.39859L3.35547 10.2044C3.35547 10.5676 3.55249 10.9023 3.87011 11.0787L8.69547 13.7574L8.91627 11.069ZM10.6302 14.6341L14.1195 15.569L12.603 6.45208C12.5387 6.06525 12.2542 5.75173 11.8754 5.65024L11.379 5.51722L10.6302 14.6341ZM16.2418 16.1389L19.2648 16.9547C20.206 17.2087 20.9172 16.1033 20.296 15.352L19.1889 14.0131C19.0566 13.853 18.8777 13.7381 18.6771 13.6844L15.7009 12.8869L16.2418 16.1389Z" fill="#000640"/>
</svg>
