<svg width="24" height="24" viewBox="0 0 24 24" fill="none" xmlns="http://www.w3.org/2000/svg">
<path fill-rule="evenodd" clip-rule="evenodd" d="M4.86598 6.81579C4.9167 6.52364 5.09445 6.26906 5.35125 6.12079L6.83403 5.26471C7.85285 4.67649 9.12145 4.73805 10.0785 5.42214L13.8689 8.13135L17.3245 6.13622C17.8641 5.82469 18.4873 5.6889 19.1076 5.74768L20.8372 5.9116C23.7487 6.18754 24.5848 10.0412 22.0495 11.499L18.7795 13.3791L13.5833 16.3791C13.5125 16.42 13.4369 16.452 13.3583 16.4745L6.69085 18.3818C5.54253 18.7103 4.30875 18.3264 3.54963 17.4042L0.517028 13.7205C0.3302 13.4935 0.252686 13.1959 0.305088 12.9066C0.35749 12.6174 0.5345 12.3658 0.78907 12.2189L1.59416 11.7541C2.46283 11.2525 3.52468 11.2183 4.42384 11.6629L6.21665 12.5494L8.25832 11.3706L5.08863 7.63367C4.89683 7.40754 4.81527 7.10795 4.86598 6.81579ZM9.57324 12.9208L6.75317 14.549C6.46361 14.7162 6.10966 14.7276 5.80995 14.5794L3.53738 13.4557C3.3162 13.3464 3.06548 13.3239 2.83291 13.3868L5.09372 16.1331C5.34676 16.4405 5.75802 16.5685 6.14079 16.459L11.3181 14.9779L9.57324 12.9208ZM13.3061 14.2298L16.4345 12.4236L8.91553 7.04924C8.59651 6.82121 8.17364 6.80069 7.83403 6.99676L7.38893 7.25374L13.3061 14.2298ZM18.3381 11.3259L21.0526 9.76514C21.8977 9.27922 21.619 7.99466 20.6485 7.90268L18.9189 7.73876C18.7121 7.71916 18.5044 7.76443 18.3245 7.86827L15.6562 9.40886L18.3381 11.3259Z" fill="#000640"/>
</svg>
