<svg width="24" height="24" viewBox="0 0 24 24" fill="none" xmlns="http://www.w3.org/2000/svg">
<path fill-rule="evenodd" clip-rule="evenodd" d="M8.30347 5.08462C8.08477 2.89767 9.80214 1 12 1C14.1978 1 15.9152 2.89767 15.6965 5.08462L15.5797 6.25298L20.773 7.63786C22.0862 7.98806 23 9.17741 23 10.5366V13C23 13.2868 22.8768 13.5599 22.6618 13.7497C22.4468 13.9395 22.1606 14.0279 21.8759 13.9923L14.893 13.1194L14.5398 16.6518L17.4472 18.1055C17.786 18.2749 18 18.6211 18 18.9999V21.9999C18 22.3078 17.8581 22.5986 17.6154 22.7881C17.3727 22.9776 17.0562 23.0447 16.7574 22.97L13.656 22.1947C13.2688 22.6873 12.668 23 12 23C11.332 23 10.7311 22.6873 10.344 22.1947L7.24254 22.97C6.94379 23.0447 6.6273 22.9776 6.38459 22.7881C6.14187 22.5986 6 22.3078 6 21.9999V18.9999C6 18.6211 6.214 18.2749 6.55279 18.1055L9.46018 16.6518L9.10695 13.1194L2.12403 13.9923C1.83942 14.0279 1.55323 13.9395 1.3382 13.7497C1.12317 13.5599 1 13.2868 1 13V10.5366C1 9.17741 1.91375 7.98806 3.22701 7.63786L8.4203 6.25298L8.30347 5.08462ZM9.67314 18.7814L8 19.6179V20.7191L9.82138 20.2638L9.67314 18.7814ZM14.1786 20.2638L14.3268 18.7814L16 19.6179V20.7191L14.1786 20.2638ZM13.5031 6.91944C13.504 6.90763 13.5052 6.89581 13.5066 6.88398L13.7064 4.88561C13.8074 3.87603 13.0146 3 12 3C10.9854 3 10.1926 3.87604 10.2935 4.88561L10.4934 6.88402C10.4948 6.89582 10.496 6.90762 10.4969 6.91939L11.8955 20.9055C11.9009 20.9591 11.9461 21 12 21C12.0539 21 12.0991 20.9591 12.1045 20.9055L13.5031 6.91944ZM15.3781 8.2691L15.0921 11.1287L21 11.8672V10.5366C21 10.0835 20.6954 9.68706 20.2576 9.57032L15.3781 8.2691ZM8.90788 11.1287L8.62191 8.2691L3.74234 9.57032C3.30458 9.68706 3 10.0835 3 10.5366V11.8672L8.90788 11.1287Z" fill="#000640"/>
</svg>
