<svg width="24" height="24" viewBox="0 0 24 24" fill="none" xmlns="http://www.w3.org/2000/svg">
<g clip-path="url(#clip0_1253_6350)">
<path d="M17 17H11M17 17H20.8268C22.6549 17 23.5248 14.7498 22.1721 13.5201L21.0721 12.5201C20.704 12.1854 20.2243 12 19.7268 12H14.7273M17 17L14.7273 12M11 17L10.0909 12M11 17L3.31711 15.2927C2.52114 15.1158 1.91224 14.4734 1.77819 13.6691L1 9H2.92963C3.59834 9 4.2228 9.3342 4.59373 9.8906L6 12H10.0909M14.7273 12L12.5329 7.17239C12.2084 6.4584 11.4965 6 10.7122 6H9L10.0909 12" stroke="#000640" stroke-width="2" stroke-linecap="round" stroke-linejoin="round"/>
</g>
<defs>
<clipPath id="clip0_1253_6350">
<rect width="24" height="24" fill="white"/>
</clipPath>
</defs>
</svg>
