<svg width="24" height="24" viewBox="0 0 24 24" fill="none" xmlns="http://www.w3.org/2000/svg">
<g clip-path="url(#clip0_1253_5725)">
<path fill-rule="evenodd" clip-rule="evenodd" d="M17.53 12.848C17.8224 12.6653 18 12.3448 18 12C18 11.6552 17.8224 11.3347 17.53 11.152L9.53 6.152C9.22173 5.95933 8.83319 5.94913 8.51523 6.12536C8.19728 6.30158 8 6.63647 8 7L8 17C8 17.3635 8.19728 17.6984 8.51523 17.8746C8.83319 18.0509 9.22173 18.0407 9.53 17.848L17.53 12.848ZM10 15.1958L10 8.80425L15.1132 12L10 15.1958Z" fill="#000640"/>
<path fill-rule="evenodd" clip-rule="evenodd" d="M24 12C24 18.6274 18.6274 24 12 24C5.37258 24 0 18.6274 0 12C0 5.37258 5.37258 0 12 0C18.6274 0 24 5.37258 24 12ZM22 12C22 17.5228 17.5228 22 12 22C6.47715 22 2 17.5228 2 12C2 6.47715 6.47715 2 12 2C17.5228 2 22 6.47715 22 12Z" fill="#000640"/>
</g>
<defs>
<clipPath id="clip0_1253_5725">
<rect width="24" height="24" fill="white"/>
</clipPath>
</defs>
</svg>
