<svg width="24" height="24" viewBox="0 0 24 24" fill="none" xmlns="http://www.w3.org/2000/svg">
<path fill-rule="evenodd" clip-rule="evenodd" d="M12 24C18.6274 24 24 18.6274 24 12C24 5.37258 18.6274 0 12 0C5.37258 0 0 5.37258 0 12C0 18.6274 5.37258 24 12 24ZM17 12.9999C17.5523 12.9999 18 12.5522 18 11.9999C18 11.4476 17.5523 10.9999 17 10.9999H13V7C13 6.44772 12.5523 6 12 6C11.4477 6 11 6.44772 11 7V10.9999H7C6.44772 10.9999 6 11.4476 6 11.9999C6 12.5522 6.44771 12.9999 7 12.9999H11V17C11 17.5523 11.4477 18 12 18C12.5523 18 13 17.5523 13 17V12.9999H17Z" fill="#000640"/>
</svg>
