<svg width="24" height="24" viewBox="0 0 24 24" fill="none" xmlns="http://www.w3.org/2000/svg">
<path d="M18 11.9999C18 12.5522 17.5523 12.9999 17 12.9999H13V17C13 17.5523 12.5523 18 12 18C11.4477 18 11 17.5523 11 17V12.9999H7C6.44772 12.9999 6 12.5522 6 11.9999C6 11.4476 6.44772 10.9999 7 10.9999H11V7C11 6.44772 11.4477 6 12 6C12.5523 6 13 6.44772 13 7V10.9999H17C17.5523 10.9999 18 11.4476 18 11.9999Z" fill="#000640"/>
<path fill-rule="evenodd" clip-rule="evenodd" d="M1 4C1 2.34315 2.34315 1 4 1H20C21.6569 1 23 2.34315 23 4V20C23 21.6569 21.6569 23 20 23H4C2.34315 23 1 21.6569 1 20V4ZM4 3C3.44772 3 3 3.44772 3 4V20C3 20.5523 3.44772 21 4 21H20C20.5523 21 21 20.5523 21 20V4C21 3.44772 20.5523 3 20 3H4Z" fill="#000640"/>
</svg>
