<svg width="24" height="24" viewBox="0 0 24 24" fill="none" xmlns="http://www.w3.org/2000/svg">
<path d="M4.9132 4.94468C5.30286 4.55329 5.30146 3.92013 4.91007 3.53047C4.51868 3.14081 3.88552 3.14221 3.49586 3.53359C1.33645 5.70258 0 8.69617 0 12C0 15.3014 1.33456 18.2931 3.49127 20.4617C3.88071 20.8533 4.51388 20.8551 4.90547 20.4656C5.29707 20.0762 5.29881 19.443 4.90937 19.0514C3.11015 17.2423 2 14.7517 2 12C2 9.24627 3.11172 6.75414 4.9132 4.94468Z" fill="#000640"/>
<path d="M20.5041 3.53359C20.1145 3.14221 19.4813 3.14081 19.0899 3.53047C18.6985 3.92013 18.6971 4.55329 19.0868 4.94468C20.8883 6.75414 22 9.24627 22 12C22 14.763 20.8807 17.2627 19.0685 19.0736C18.6778 19.464 18.6776 20.0972 19.068 20.4878C19.4584 20.8785 20.0915 20.8787 20.4822 20.4884C22.6545 18.3176 24 15.315 24 12C24 8.69617 22.6635 5.70258 20.5041 3.53359Z" fill="#000640"/>
<path d="M16.2235 6.29223C16.6143 5.90207 17.2475 5.90267 17.6377 6.29356C19.0966 7.75524 20 9.78226 20 12.0186C20 14.2334 19.114 16.2428 17.6798 17.7012C17.2926 18.0949 16.6594 18.1002 16.2656 17.713C15.8719 17.3257 15.8666 16.6926 16.2538 16.2988C17.3331 15.2014 18 13.6905 18 12.0186C18 10.3305 17.32 8.80639 16.2221 7.70644C15.832 7.31555 15.8326 6.68239 16.2235 6.29223Z" fill="#000640"/>
<path d="M7.71268 6.34095C8.10793 6.72669 8.11564 7.35981 7.72989 7.75505C6.66023 8.85109 6 10.3551 6 12.0186C6 13.6878 6.6647 15.1964 7.74077 16.2933C8.12752 16.6876 8.12143 17.3207 7.72717 17.7075C7.33291 18.0942 6.69977 18.0881 6.31302 17.6939C4.88306 16.2361 4 14.2297 4 12.0186C4 9.81509 4.8771 7.81467 6.29857 6.35816C6.68431 5.96291 7.31743 5.9552 7.71268 6.34095Z" fill="#000640"/>
<path fill-rule="evenodd" clip-rule="evenodd" d="M8 12C8 9.79086 9.79086 8 12 8C14.2091 8 16 9.79086 16 12C16 14.2091 14.2091 16 12 16C9.79086 16 8 14.2091 8 12ZM12 10C10.8954 10 10 10.8954 10 12C10 13.1046 10.8954 14 12 14C13.1046 14 14 13.1046 14 12C14 10.8954 13.1046 10 12 10Z" fill="#000640"/>
</svg>
