<svg width="24" height="24" viewBox="0 0 24 24" fill="none" xmlns="http://www.w3.org/2000/svg">
<path fill-rule="evenodd" clip-rule="evenodd" d="M15.0012 8C15.0012 9.65685 13.6581 11 12.0012 11C10.3444 11 9.00122 9.65685 9.00122 8C9.00122 6.34315 10.3444 5 12.0012 5C13.6581 5 15.0012 6.34315 15.0012 8ZM13.0012 8C13.0012 8.55228 12.5535 9 12.0012 9C11.4489 9 11.0012 8.55228 11.0012 8C11.0012 7.44772 11.4489 7 12.0012 7C12.5535 7 13.0012 7.44772 13.0012 8Z" fill="#000640"/>
<path fill-rule="evenodd" clip-rule="evenodd" d="M2.46113 12.7197C2.66525 12.9951 2.85516 13.2233 3.00115 13.3898V17C3.00115 17.7395 3.33909 19.2522 4.66904 20.5821C6.02507 21.9381 8.30453 23 12.0011 23C15.6978 23 17.9772 21.9381 19.3333 20.5821C20.6632 19.2522 21.0011 17.7395 21.0011 17V13.3898C21.1471 13.2233 21.337 12.9951 21.5412 12.7197C21.9716 12.1389 22.5046 11.2957 22.792 10.3422C23.1558 9.13531 22.4211 8.13058 21.8346 7.59743C21.2701 7.08435 20.7388 6.4581 20.1437 5.74909L20.0859 5.68017C19.5212 5.00722 18.9023 4.26962 18.2008 3.59755C16.7154 2.17449 14.8127 1 12.0011 1C9.18963 1 7.28688 2.17449 5.80152 3.59755C5.10002 4.26962 4.48111 5.00721 3.91643 5.68017L3.85859 5.74909C3.26348 6.4581 2.73221 7.08435 2.16773 7.59743C1.58117 8.13058 0.846516 9.13531 1.21028 10.3422C1.49769 11.2957 2.03067 12.1389 2.46113 12.7197ZM3.51295 9.07742C4.194 8.45839 4.81006 7.72641 5.39049 7.03489L5.42187 6.99751C6.00574 6.30182 6.56348 5.63729 7.18513 5.04172C8.41637 3.86212 9.8485 3 12.0011 3C14.1538 3 15.5859 3.86212 16.8172 5.04172C17.4388 5.6373 17.9965 6.30182 18.5804 6.99751L18.6118 7.03489C19.1922 7.72641 19.8083 8.45839 20.4893 9.07742C20.6653 9.23737 20.7835 9.3981 20.8427 9.53097C20.8968 9.65242 20.8907 9.71996 20.8771 9.76496C20.6843 10.4047 20.3005 11.0347 19.9343 11.5288C19.7961 11.7153 19.666 11.875 19.5591 12H4.44323C4.3363 11.875 4.20618 11.7153 4.06794 11.5288C3.70175 11.0347 3.31803 10.4047 3.12519 9.76496C3.11162 9.71996 3.10547 9.65242 3.15957 9.53097C3.21876 9.3981 3.33698 9.23737 3.51295 9.07742ZM5.00115 14H19.0011V16H5.00115V14ZM6.08325 19.1679C5.68511 18.7697 5.42891 18.359 5.26636 18H18.7359C18.5734 18.359 18.3172 18.7697 17.919 19.1679C17.0251 20.0619 15.3045 21 12.0011 21C8.69777 21 6.97722 20.0619 6.08325 19.1679Z" fill="#000640"/>
</svg>
