<svg width="24" height="24" viewBox="0 0 24 24" fill="none" xmlns="http://www.w3.org/2000/svg">
<path d="M13 10C13 10.5523 12.5523 11 12 11C11.4477 11 11 10.5523 11 10C11 9.44772 11.4477 9 12 9C12.5523 9 13 9.44772 13 10Z" fill="#000640"/>
<path d="M12 15C12.5523 15 13 14.5523 13 14C13 13.4477 12.5523 13 12 13C11.4477 13 11 13.4477 11 14C11 14.5523 11.4477 15 12 15Z" fill="#000640"/>
<path fill-rule="evenodd" clip-rule="evenodd" d="M6.10557 1.55279C6.27496 1.214 6.62123 1 7 1H17C17.3788 1 17.725 1.214 17.8944 1.55279L18.7092 3.1823L19.9487 3.59547C21.1737 4.00381 22 5.15023 22 6.44152V20C22 21.6569 20.6569 23 19 23H5C3.34315 23 2 21.6569 2 20V6.44152C2 5.15023 2.82629 4.00381 4.05132 3.59547L5.29081 3.1823L6.10557 1.55279ZM5.49344 5.22295L4.68377 5.49284C4.27543 5.62895 4 6.01109 4 6.44152V20C4 20.5523 4.44772 21 5 21H19C19.5523 21 20 20.5523 20 20V6.44152C20 6.01109 19.7246 5.62895 19.3162 5.49284L18.5066 5.22295L16.8944 8.44721C16.6474 8.94119 16.0468 9.14142 15.5528 8.89443L12 7.11803L8.44721 8.89443C7.95324 9.14142 7.35256 8.94119 7.10557 8.44721L5.49344 5.22295ZM13.8451 5.80453L15.5528 6.65836L16.882 4L16.6588 3.55361L13.8451 5.80453ZM9.85078 3L12 4.71938L14.1492 3H9.85078ZM10.1549 5.80453L8.44721 6.65836L7.11803 4L7.34123 3.55361L10.1549 5.80453Z" fill="#000640"/>
</svg>
