<svg width="24" height="24" viewBox="0 0 24 24" fill="none" xmlns="http://www.w3.org/2000/svg">
<path d="M13.5 5C10.7899 5 8.53106 7.10128 8.83528 10H14C14.5523 10 15 10.4477 15 11C15 11.5523 14.5523 12 14 12H9.26246C9.41826 12.7142 9.53817 13.3744 9.62008 14H14C14.5523 14 15 14.4477 15 15C15 15.5523 14.5523 16 14 16H9.74938C9.73889 17.0277 9.59896 17.9891 9.33991 19H18C18.5523 19 19 19.4477 19 20C19 20.5523 18.5523 21 18 21H6C5.44772 21 5 20.5523 5 20C5 19.4477 5.44772 19 6 19H7.266C7.58168 17.9216 7.73721 16.9881 7.74926 16H6C5.44772 16 5 15.5523 5 15C5 14.4477 5.44772 14 6 14H7.60093C7.51252 13.3986 7.38386 12.741 7.21249 12H6C5.44772 12 5 11.5523 5 11C5 10.4477 5.44772 10 6 10H6.82427C6.50042 5.9196 9.80618 3 13.5 3C15.6515 3 17.5388 4.10264 18.7975 5.76648C19.1307 6.20692 19.0438 6.83409 18.6033 7.1673C18.1629 7.50051 17.5357 7.41358 17.2025 6.97313C16.2624 5.73051 14.9326 5 13.5 5Z" fill="#000640"/>
</svg>
