<svg width="24" height="24" viewBox="0 0 24 24" fill="none" xmlns="http://www.w3.org/2000/svg">
<path d="M13 3C13 2.44772 12.5523 2 12 2C11.4477 2 11 2.44772 11 3V13C11 13.5523 11.4477 14 12 14C12.5523 14 13 13.5523 13 13V3Z" fill="#000640"/>
<path d="M6.03682 6.66692C6.40514 6.2554 6.37012 5.6232 5.95859 5.25487C5.54707 4.88655 4.91487 4.92157 4.54655 5.3331C2.96367 7.10162 2 9.43947 2 12C2 17.5229 6.47715 22 12 22C17.5228 22 22 17.5229 22 12C22 9.43947 21.0363 7.10162 19.4535 5.3331C19.0851 4.92157 18.4529 4.88655 18.0414 5.25487C17.6299 5.6232 17.5949 6.2554 17.9632 6.66692C19.2306 8.08294 20 9.95042 20 12C20 16.4183 16.4183 20 12 20C7.58172 20 4 16.4183 4 12C4 9.95042 4.76945 8.08294 6.03682 6.66692Z" fill="#000640"/>
</svg>
