<svg width="24" height="24" viewBox="0 0 24 24" fill="none" xmlns="http://www.w3.org/2000/svg">
<path d="M20 6C20 6.55228 19.5523 7 19 7C18.4477 7 18 6.55228 18 6C18 5.44772 18.4477 5 19 5C19.5523 5 20 5.44772 20 6Z" fill="#000640"/>
<path d="M15 7C15.5523 7 16 6.55228 16 6C16 5.44772 15.5523 5 15 5C14.4477 5 14 5.44772 14 6C14 6.55228 14.4477 7 15 7Z" fill="#000640"/>
<path d="M9 12C8.44771 12 8 12.4477 8 13C8 13.5523 8.44771 14 9 14H15C15.5523 14 16 13.5523 16 13C16 12.4477 15.5523 12 15 12H9Z" fill="#000640"/>
<path d="M9 16C8.44771 16 8 16.4477 8 17C8 17.5523 8.44771 18 9 18H13C13.5523 18 14 17.5523 14 17C14 16.4477 13.5523 16 13 16H9Z" fill="#000640"/>
<path fill-rule="evenodd" clip-rule="evenodd" d="M1 4C1 2.34315 2.34315 1 4 1H20C21.6569 1 23 2.34315 23 4V11C23 12.6569 21.6569 14 20 14V20C20 21.6569 18.6569 23 17 23H7C5.34315 23 4 21.6569 4 20V14C2.34315 14 1 12.6569 1 11V4ZM21 11C21 11.5523 20.5523 12 20 12V9C20 8.44771 19.5523 8 19 8H5C4.44772 8 4 8.44771 4 9V12C3.44772 12 3 11.5523 3 11V4C3 3.44772 3.44772 3 4 3H20C20.5523 3 21 3.44772 21 4V11ZM6 10V20C6 20.5523 6.44772 21 7 21H17C17.5523 21 18 20.5523 18 20V10H6Z" fill="#000640"/>
</svg>
