<svg width="24" height="24" viewBox="0 0 24 24" fill="none" xmlns="http://www.w3.org/2000/svg">
<path d="M3 4C3 3.44772 3.44772 3 4 3H7C7.55228 3 8 2.55228 8 2C8 1.44772 7.55228 1 7 1H4C2.34315 1 1 2.34315 1 4V7C1 7.55228 1.44772 8 2 8C2.55228 8 3 7.55228 3 7V4Z" fill="#000640"/>
<path d="M23 17C23 16.4477 22.5523 16 22 16C21.4477 16 21 16.4477 21 17V20C21 20.5523 20.5523 21 20 21H17C16.4477 21 16 21.4477 16 22C16 22.5523 16.4477 23 17 23H20C21.6569 23 23 21.6569 23 20V17Z" fill="#000640"/>
<path d="M16 2C16 1.44772 16.4477 1 17 1H20C21.6569 1 23 2.34315 23 4V7C23 7.55228 22.5523 8 22 8C21.4477 8 21 7.55228 21 7V4C21 3.44772 20.5523 3 20 3H17C16.4477 3 16 2.55228 16 2Z" fill="#000640"/>
<path d="M3 17C3 16.4477 2.55228 16 2 16C1.44772 16 1 16.4477 1 17V20C1 21.6569 2.34315 23 4 23H7C7.55228 23 8 22.5523 8 22C8 21.4477 7.55228 21 7 21H4C3.44772 21 3 20.5523 3 20V17Z" fill="#000640"/>
<path fill-rule="evenodd" clip-rule="evenodd" d="M5 6C5 5.44772 5.44772 5 6 5H10C10.5523 5 11 5.44772 11 6V10C11 10.5523 10.5523 11 10 11H6C5.44772 11 5 10.5523 5 10V6ZM7 7V9H9V7H7Z" fill="#000640"/>
<path fill-rule="evenodd" clip-rule="evenodd" d="M6 13C5.44772 13 5 13.4477 5 14V18C5 18.5523 5.44772 19 6 19H10C10.5523 19 11 18.5523 11 18V14C11 13.4477 10.5523 13 10 13H6ZM7 17V15H9V17H7Z" fill="#000640"/>
<path fill-rule="evenodd" clip-rule="evenodd" d="M13 6C13 5.44772 13.4477 5 14 5H18C18.5523 5 19 5.44772 19 6V10C19 10.5523 18.5523 11 18 11H14C13.4477 11 13 10.5523 13 10V6ZM15 7V9H17V7H15Z" fill="#000640"/>
<path fill-rule="evenodd" clip-rule="evenodd" d="M14 13C13.4477 13 13 13.4477 13 14V18C13 18.5523 13.4477 19 14 19H18C18.5523 19 19 18.5523 19 18V14C19 13.4477 18.5523 13 18 13H14ZM15 17V15H17V17H15Z" fill="#000640"/>
</svg>
