<svg width="24" height="24" viewBox="0 0 24 24" fill="none" xmlns="http://www.w3.org/2000/svg">
<path d="M4 3C3.44772 3 3 3.44772 3 4V7C3 7.55228 2.55228 8 2 8C1.44772 8 1 7.55228 1 7V4C1 2.34315 2.34315 1 4 1H7C7.55228 1 8 1.44772 8 2C8 2.55228 7.55228 3 7 3H4Z" fill="#000640"/>
<path d="M6 12C6 11.4477 6.44772 11 7 11H17C17.5523 11 18 11.4477 18 12C18 12.5523 17.5523 13 17 13H7C6.44772 13 6 12.5523 6 12Z" fill="#000640"/>
<path d="M23 17C23 16.4477 22.5523 16 22 16C21.4477 16 21 16.4477 21 17V20C21 20.5523 20.5523 21 20 21H17C16.4477 21 16 21.4477 16 22C16 22.5523 16.4477 23 17 23H20C21.6569 23 23 21.6569 23 20V17Z" fill="#000640"/>
<path d="M16 2C16 1.44772 16.4477 1 17 1H20C21.6569 1 23 2.34315 23 4V7C23 7.55228 22.5523 8 22 8C21.4477 8 21 7.55228 21 7V4C21 3.44772 20.5523 3 20 3H17C16.4477 3 16 2.55228 16 2Z" fill="#000640"/>
<path d="M3 17C3 16.4477 2.55228 16 2 16C1.44772 16 1 16.4477 1 17V20C1 21.6569 2.34315 23 4 23H7C7.55228 23 8 22.5523 8 22C8 21.4477 7.55228 21 7 21H4C3.44772 21 3 20.5523 3 20V17Z" fill="#000640"/>
</svg>
