<svg width="24" height="24" viewBox="0 0 24 24" fill="none" xmlns="http://www.w3.org/2000/svg">
<path fill-rule="evenodd" clip-rule="evenodd" d="M12 24C18.6274 24 24 18.6274 24 12C24 5.37258 18.6274 0 12 0C5.37258 0 0 5.37258 0 12C0 18.6274 5.37258 24 12 24ZM12.0001 5.74162C10.9926 5.74162 9.97933 6.07868 9.1996 6.6876C8.41065 7.30373 7.81921 8.23943 7.81921 9.39665C7.81921 9.96321 8.2785 10.4225 8.84505 10.4225C9.41161 10.4225 9.87089 9.96321 9.87089 9.39665C9.87089 8.99034 10.0691 8.61172 10.4624 8.30461C10.8659 7.98953 11.4301 7.7933 12.0001 7.7933C12.7073 7.7933 13.2554 7.91705 13.6001 8.14685C13.8719 8.32802 14.1293 8.64442 14.1293 9.39665C14.1293 9.80793 13.9581 10.0922 13.6474 10.3345C13.304 10.6023 12.8111 10.7915 12.3046 10.8987C11.3826 11.0939 10.4484 11.8947 10.4484 13.0734V13.6034C10.4484 14.1699 10.9077 14.6292 11.4742 14.6292C12.0408 14.6292 12.5001 14.1699 12.5001 13.6034L12.5001 13.0743C12.5001 13.0743 12.5032 13.0475 12.539 13.008C12.5756 12.9677 12.6382 12.9252 12.7296 12.9059C13.4021 12.7635 14.2283 12.4833 14.9091 11.9524C15.6217 11.3967 16.181 10.5533 16.181 9.39665C16.181 8.04653 15.6503 7.04784 14.7382 6.43975C13.8998 5.8808 12.8704 5.74162 12.0001 5.74162ZM11.4742 15.6809C10.7625 15.6809 10.1855 16.2579 10.1855 16.9696C10.1855 17.6814 10.7625 18.2584 11.4742 18.2584C12.186 18.2584 12.763 17.6814 12.763 16.9696C12.763 16.2579 12.186 15.6809 11.4742 15.6809Z" fill="#000640"/>
</svg>
