<svg width="24" height="24" viewBox="0 0 24 24" fill="none" xmlns="http://www.w3.org/2000/svg">
<path fill-rule="evenodd" clip-rule="evenodd" d="M3 6C2.44772 6 2 6.44772 2 7V13C2 13.5523 2.44772 14 3 14H5V17C5 17.5523 5.44772 18 6 18V17C6 18 6.00102 18 6.00102 18L6.00214 18L6.00467 18L6.01084 18L6.0276 17.9997C6.04071 17.9995 6.05768 17.9992 6.07824 17.9985C6.11933 17.9971 6.17497 17.9945 6.24312 17.9896C6.37908 17.9799 6.56678 17.961 6.7894 17.9239C7.22989 17.8505 7.8325 17.7018 8.44721 17.3944C9.06584 17.0851 9.71489 16.6054 10.2071 15.8672C10.7034 15.1227 11 14.175 11 13V7C11 6.44772 10.5523 6 10 6H3ZM7 13V15.8247C7.17966 15.7696 7.36762 15.6982 7.55279 15.6056C7.93416 15.4149 8.28511 15.1446 8.54295 14.7578C8.79662 14.3773 9 13.825 9 13V8H4V12H6C6.55228 12 7 12.4477 7 13Z" fill="#000640"/>
<path fill-rule="evenodd" clip-rule="evenodd" d="M14 6C13.4477 6 13 6.44772 13 7V13C13 13.5523 13.4477 14 14 14H16V17C16 17.5523 16.4477 18 17 18V17C17 18 17.001 18 17.001 18L17.0021 18L17.0047 18L17.0108 18L17.0276 17.9997C17.0407 17.9995 17.0577 17.9992 17.0782 17.9985C17.1193 17.9971 17.175 17.9945 17.2431 17.9896C17.3791 17.9799 17.5668 17.961 17.7894 17.9239C18.2299 17.8505 18.8325 17.7018 19.4472 17.3944C20.0658 17.0851 20.7149 16.6054 21.2071 15.8672C21.7034 15.1227 22 14.175 22 13V7C22 6.44772 21.5523 6 21 6H14ZM18 13V15.8247C18.1797 15.7696 18.3676 15.6982 18.5528 15.6056C18.9342 15.4149 19.2851 15.1446 19.5429 14.7578C19.7966 14.3773 20 13.825 20 13V8H15V12H17C17.5523 12 18 12.4477 18 13Z" fill="#000640"/>
</svg>
