<svg width="24" height="24" viewBox="0 0 24 24" fill="none" xmlns="http://www.w3.org/2000/svg">
<path fill-rule="evenodd" clip-rule="evenodd" d="M10.5 4C8.01472 4 6 6.01472 6 8.5V9.03544C6 9.53303 5.63417 9.95491 5.1416 10.0254C3.931 10.1985 3 11.2414 3 12.5C3 13.7586 3.931 14.8015 5.1416 14.9746C5.68832 15.0528 6.06813 15.5594 5.98992 16.1062C5.91172 16.6529 5.40512 17.0327 4.8584 16.9545C2.67671 16.6424 1 14.7679 1 12.5C1 10.5386 2.25419 8.87137 4.00454 8.25473C4.1335 4.77853 6.99227 2 10.5 2C13.9216 2 16.7257 4.64378 16.9811 8H18.5C20.9853 8 23 10.0147 23 12.5C23 14.7679 21.3233 16.6424 19.1416 16.9545C18.5949 17.0327 18.0883 16.6529 18.0101 16.1062C17.9319 15.5594 18.3117 15.0528 18.8584 14.9746C20.069 14.8015 21 13.7586 21 12.5C21 11.1193 19.8807 10 18.5 10H16C15.4477 10 15 9.55228 15 9V8.5C15 6.01472 12.9853 4 10.5 4Z" fill="#000640"/>
<path fill-rule="evenodd" clip-rule="evenodd" d="M8 13C8.55228 13 9 13.4477 9 14V16C9 16.5523 8.55228 17 8 17C7.44772 17 7 16.5523 7 16V14C7 13.4477 7.44772 13 8 13Z" fill="#000640"/>
<path fill-rule="evenodd" clip-rule="evenodd" d="M12 18C12.5523 18 13 18.4477 13 19V21C13 21.5523 12.5523 22 12 22C11.4477 22 11 21.5523 11 21V19C11 18.4477 11.4477 18 12 18Z" fill="#000640"/>
<path fill-rule="evenodd" clip-rule="evenodd" d="M8 18C8.55228 18 9 18.4477 9 19V21C9 21.5523 8.55228 22 8 22C7.44772 22 7 21.5523 7 21V19C7 18.4477 7.44772 18 8 18Z" fill="#000640"/>
<path fill-rule="evenodd" clip-rule="evenodd" d="M16 13C16.5523 13 17 13.4477 17 14V16C17 16.5523 16.5523 17 16 17C15.4477 17 15 16.5523 15 16V14C15 13.4477 15.4477 13 16 13Z" fill="#000640"/>
<path fill-rule="evenodd" clip-rule="evenodd" d="M16 18C16.5523 18 17 18.4477 17 19V21C17 21.5523 16.5523 22 16 22C15.4477 22 15 21.5523 15 21V19C15 18.4477 15.4477 18 16 18Z" fill="#000640"/>
<path fill-rule="evenodd" clip-rule="evenodd" d="M12 13C12.5523 13 13 13.4477 13 14V16C13 16.5523 12.5523 17 12 17C11.4477 17 11 16.5523 11 16V14C11 13.4477 11.4477 13 12 13Z" fill="#000640"/>
</svg>
