<svg width="24" height="24" viewBox="0 0 24 24" fill="none" xmlns="http://www.w3.org/2000/svg">
<path fill-rule="evenodd" clip-rule="evenodd" d="M10.5 4C8.01472 4 6 6.01472 6 8.5V9.03544C6 9.53303 5.63417 9.95491 5.1416 10.0254C3.931 10.1985 3 11.2414 3 12.5C3 13.4958 3.58215 14.3576 4.42909 14.7599C4.92795 14.9969 5.14024 15.5934 4.90326 16.0923C4.66628 16.5911 4.06976 16.8034 3.57091 16.5664C2.05291 15.8453 1 14.2966 1 12.5C1 10.5386 2.25419 8.87137 4.00454 8.25473C4.1335 4.77853 6.99227 2 10.5 2C13.9216 2 16.7257 4.64378 16.9811 8H18.5C20.9853 8 23 10.0147 23 12.5C23 14.7679 21.3233 16.6424 19.1416 16.9545C18.5949 17.0327 18.0883 16.6529 18.0101 16.1062C17.9319 15.5594 18.3117 15.0528 18.8584 14.9746C20.069 14.8015 21 13.7586 21 12.5C21 11.1193 19.8807 10 18.5 10H16C15.4477 10 15 9.55228 15 9V8.5C15 6.01472 12.9853 4 10.5 4Z" fill="#000640"/>
<path fill-rule="evenodd" clip-rule="evenodd" d="M16.2747 13.0382C16.8058 13.19 17.1133 13.7435 16.9615 14.2745L16.8365 14.712C16.6848 15.243 16.1313 15.5505 15.6003 15.3988C15.0693 15.2471 14.7618 14.6936 14.9135 14.1625L15.0385 13.725C15.1902 13.194 15.7437 12.8865 16.2747 13.0382ZM15.3997 16.1007C15.9308 16.2525 16.2383 16.806 16.0865 17.337L15.8365 18.212C15.6848 18.743 15.1313 19.0505 14.6003 18.8988C14.0693 18.7471 13.7618 18.1936 13.9135 17.6625L14.1635 16.7875C14.3152 16.2565 14.8687 15.949 15.3997 16.1007ZM14.3997 19.6007C14.9308 19.7525 15.2383 20.306 15.0865 20.837L14.9615 21.2745C14.8098 21.8055 14.2563 22.113 13.7253 21.9613C13.1943 21.8096 12.8868 21.2561 13.0385 20.725L13.1635 20.2875C13.3152 19.7565 13.8687 19.449 14.3997 19.6007Z" fill="#000640"/>
<path fill-rule="evenodd" clip-rule="evenodd" d="M12.2747 13.0382C12.8058 13.19 13.1133 13.7435 12.9615 14.2745L12.8365 14.712C12.6848 15.243 12.1313 15.5505 11.6003 15.3988C11.0693 15.2471 10.7618 14.6936 10.9135 14.1625L11.0385 13.725C11.1902 13.194 11.7437 12.8865 12.2747 13.0382ZM11.3997 16.1007C11.9308 16.2525 12.2383 16.806 12.0865 17.337L11.8365 18.212C11.6848 18.743 11.1313 19.0505 10.6003 18.8988C10.0693 18.7471 9.76177 18.1936 9.91349 17.6625L10.1635 16.7875C10.3152 16.2565 10.8687 15.949 11.3997 16.1007ZM10.3997 19.6007C10.9308 19.7525 11.2383 20.306 11.0865 20.837L10.9615 21.2745C10.8098 21.8055 10.2563 22.113 9.72529 21.9613C9.19426 21.8096 8.88677 21.2561 9.03849 20.725L9.16349 20.2875C9.31521 19.7565 9.8687 19.449 10.3997 19.6007Z" fill="#000640"/>
<path fill-rule="evenodd" clip-rule="evenodd" d="M8.27473 13.0382C8.80577 13.19 9.11326 13.7435 8.96154 14.2745L8.83654 14.712C8.68481 15.243 8.13133 15.5505 7.60029 15.3988C7.06926 15.2471 6.76177 14.6936 6.91349 14.1625L7.03849 13.725C7.19021 13.194 7.7437 12.8865 8.27473 13.0382ZM7.39973 16.1007C7.93077 16.2525 8.23826 16.806 8.08654 17.337L7.83654 18.212C7.68481 18.743 7.13133 19.0505 6.60029 18.8988C6.06926 18.7471 5.76177 18.1936 5.91349 17.6625L6.16349 16.7875C6.31521 16.2565 6.8687 15.949 7.39973 16.1007ZM6.39973 19.6007C6.93077 19.7525 7.23826 20.306 7.08654 20.837L6.96154 21.2745C6.80981 21.8055 6.25633 22.113 5.72529 21.9613C5.19426 21.8096 4.88677 21.2561 5.03849 20.725L5.16349 20.2875C5.31521 19.7565 5.8687 19.449 6.39973 19.6007Z" fill="#000640"/>
</svg>
