<svg width="24" height="24" viewBox="0 0 24 24" fill="none" xmlns="http://www.w3.org/2000/svg">
<path fill-rule="evenodd" clip-rule="evenodd" d="M6 8.5C6 6.01472 8.01472 4 10.5 4C12.9853 4 15 6.01472 15 8.5V9C15 9.55228 15.4477 10 16 10H18.5C19.8807 10 21 11.1193 21 12.5C21 13.7586 20.069 14.8015 18.8584 14.9746C18.3117 15.0528 17.9319 15.5594 18.0101 16.1062C18.0883 16.6529 18.5949 17.0327 19.1416 16.9545C21.3233 16.6424 23 14.7679 23 12.5C23 11.2168 22.4629 10.0591 21.6013 9.23937C22.3786 7.34141 21.9976 5.08061 20.4559 3.53889C18.6474 1.73043 15.8472 1.51824 13.806 2.90232C12.8374 2.32904 11.7071 2 10.5 2C6.99227 2 4.1335 4.77853 4.00454 8.25473C2.25419 8.87137 1 10.5386 1 12.5C1 14.7679 2.67671 16.6424 4.8584 16.9545C5.40512 17.0327 5.91172 16.6529 5.98992 16.1062C6.06813 15.5594 5.68832 15.0528 5.1416 14.9746C3.931 14.8015 3 13.7586 3 12.5C3 11.2414 3.931 10.1985 5.1416 10.0254C5.63417 9.95491 6 9.53303 6 9.03544V8.5ZM15.4402 4.27554C16.3112 5.29316 16.8733 6.58309 16.9811 8H18.5C18.9701 8 19.4233 8.07207 19.8492 8.20577C20.1912 7.09319 19.9214 5.8328 19.0417 4.95311C18.0679 3.97936 16.6295 3.7535 15.4402 4.27554Z" fill="#000640"/>
<path d="M8 13C8.55228 13 9 13.4477 9 14V16C9 16.5523 8.55228 17 8 17C7.44772 17 7 16.5523 7 16V14C7 13.4477 7.44772 13 8 13Z" fill="#000640"/>
<path d="M13 19C13 18.4477 12.5523 18 12 18C11.4477 18 11 18.4477 11 19V21C11 21.5523 11.4477 22 12 22C12.5523 22 13 21.5523 13 21V19Z" fill="#000640"/>
<path d="M8 18C8.55228 18 9 18.4477 9 19V21C9 21.5523 8.55228 22 8 22C7.44772 22 7 21.5523 7 21V19C7 18.4477 7.44772 18 8 18Z" fill="#000640"/>
<path d="M17 14C17 13.4477 16.5523 13 16 13C15.4477 13 15 13.4477 15 14V16C15 16.5523 15.4477 17 16 17C16.5523 17 17 16.5523 17 16V14Z" fill="#000640"/>
<path d="M16 18C16.5523 18 17 18.4477 17 19V21C17 21.5523 16.5523 22 16 22C15.4477 22 15 21.5523 15 21V19C15 18.4477 15.4477 18 16 18Z" fill="#000640"/>
<path d="M13 14C13 13.4477 12.5523 13 12 13C11.4477 13 11 13.4477 11 14V16C11 16.5523 11.4477 17 12 17C12.5523 17 13 16.5523 13 16V14Z" fill="#000640"/>
</svg>
