<svg width="24" height="24" viewBox="0 0 24 24" fill="none" xmlns="http://www.w3.org/2000/svg">
<path d="M10 5C9.44771 5 9 5.44772 9 6C9 6.55228 9.44771 7 10 7H18C18.5523 7 19 6.55228 19 6C19 5.44772 18.5523 5 18 5H10Z" fill="#000640"/>
<path d="M18 11L10 11C9.44771 11 9 10.5523 9 10C9 9.44772 9.44771 9 10 9L18 9C18.5523 9 19 9.44772 19 10C19 10.5523 18.5523 11 18 11Z" fill="#000640"/>
<path d="M10 13C9.44771 13 9 13.4477 9 14C9 14.5523 9.44771 15 10 15H13C13.5523 15 14 14.5523 14 14C14 13.4477 13.5523 13 13 13H10Z" fill="#000640"/>
<path fill-rule="evenodd" clip-rule="evenodd" d="M5 22V13H4C2.34315 13 1 11.6569 1 10V4C1 2.34315 2.34315 1 4 1H20C21.6569 1 23 2.34315 23 4V22C23 22.3603 22.8062 22.6927 22.4927 22.8702C22.1792 23.0477 21.7944 23.0429 21.4855 22.8575L17.155 20.2592L14.7071 22.7071C14.3166 23.0976 13.6834 23.0976 13.2929 22.7071L10.845 20.2592L6.5145 22.8575C6.20556 23.0429 5.82081 23.0477 5.5073 22.8702C5.19379 22.6927 5 22.3603 5 22ZM3 4C3 3.44772 3.44772 3 4 3C4.55228 3 5 3.44772 5 4V11H4C3.44772 11 3 10.5523 3 10V4ZM7 4C7 3.64936 6.93985 3.31278 6.82929 3H20C20.5523 3 21 3.44772 21 4V20.2338L17.5145 18.1425C17.121 17.9064 16.6174 17.9684 16.2929 18.2929L14 20.5858L11.7071 18.2929C11.3826 17.9684 10.879 17.9064 10.4855 18.1425L7 20.2338V4Z" fill="#000640"/>
</svg>
