<svg width="24" height="24" viewBox="0 0 24 24" fill="none" xmlns="http://www.w3.org/2000/svg">
<path d="M8.05342 5.16465C4.27845 7.34413 2.98505 12.1712 5.16453 15.9462C7.34401 19.7211 12.1711 21.0145 15.946 18.835C17.9874 17.6565 19.3029 15.7052 19.7365 13.5609C19.846 13.0196 20.3736 12.6695 20.9149 12.779C21.4562 12.8885 21.8063 13.416 21.6968 13.9574C21.1543 16.6401 19.505 19.0897 16.946 20.5671C12.2145 23.2989 6.16425 21.6777 3.43248 16.9462C0.700711 12.2146 2.32186 6.16437 7.05342 3.4326C11.4807 0.876486 17.0626 2.1315 20.0001 6.17973V3.99997C20.0001 3.44769 20.4478 2.99997 21.0001 2.99997C21.5524 2.99997 22.0001 3.44769 22.0001 3.99997V9.60355C22.0001 9.92299 21.8475 10.2232 21.5894 10.4114C21.3313 10.5997 20.9989 10.6533 20.6947 10.5558L15.6947 8.9522C15.1688 8.78354 14.8792 8.22048 15.0479 7.69458C15.2165 7.16868 15.7796 6.87908 16.3055 7.04775L18.6901 7.81253C16.4475 4.22434 11.7469 3.03222 8.05342 5.16465Z" fill="#000640"/>
<path d="M12.0001 14C13.1047 14 14.0001 13.1046 14.0001 12C14.0001 10.8954 13.1047 10 12.0001 10C10.8955 10 10.0001 10.8954 10.0001 12C10.0001 13.1046 10.8955 14 12.0001 14Z" fill="#000640"/>
</svg>
