<svg width="24" height="24" viewBox="0 0 24 24" fill="none" xmlns="http://www.w3.org/2000/svg">
<path d="M7.29289 7.70711C7.68342 8.09763 8.31658 8.09763 8.70711 7.70711C9.09763 7.31658 9.09763 6.68342 8.70711 6.29289L5.70711 3.29289C5.51261 3.09839 5.25792 3.00076 5.003 3L5 3L4.997 3C4.8625 3.0004 4.73425 3.02735 4.61722 3.07588C4.49927 3.12468 4.38877 3.19702 4.29289 3.29289L1.29289 6.29289C0.902369 6.68342 0.902369 7.31658 1.29289 7.70711C1.68342 8.09763 2.31658 8.09763 2.70711 7.70711L4 6.41421V16C4 18.7614 6.23858 21 9 21H14C14.5523 21 15 20.5523 15 20C15 19.4477 14.5523 19 14 19H9C7.34315 19 6 17.6569 6 16V6.41421L7.29289 7.70711Z" fill="#000640"/>
<path d="M15 3H10C9.44771 3 9 3.44772 9 4C9 4.55228 9.44771 5 10 5H15C16.6569 5 18 6.34315 18 8V17.5858L16.7071 16.2929C16.3166 15.9024 15.6834 15.9024 15.2929 16.2929C14.9024 16.6834 14.9024 17.3166 15.2929 17.7071L18.2929 20.7071C18.6834 21.0976 19.3166 21.0976 19.7071 20.7071L22.7071 17.7071C23.0976 17.3166 23.0976 16.6834 22.7071 16.2929C22.3166 15.9024 21.6834 15.9024 21.2929 16.2929L20 17.5858V8C20 5.23858 17.7614 3 15 3Z" fill="#000640"/>
</svg>
