<svg width="24" height="24" viewBox="0 0 24 24" fill="none" xmlns="http://www.w3.org/2000/svg">
<path fill-rule="evenodd" clip-rule="evenodd" d="M3.14415 5H2C1.44772 5 1 4.55228 1 4C1 3.44772 1.44772 3 2 3H3.97917C3.99394 2.99967 4.00866 2.99968 4.02332 3H22C22.5523 3 23 3.44772 23 4C23 4.55228 22.5523 5 22 5H21V19H22C22.5523 19 23 19.4477 23 20C23 20.5523 22.5523 21 22 21H2C1.44772 21 1 20.5523 1 20C1 19.4477 1.44772 19 2 19H5.33165L3.14415 5ZM5.16842 5L6.50002 13.5222L7.83162 5H5.16842ZM9.85589 5L7.66839 19H11V5H9.85589ZM19 5V19H17V5H19ZM15 5H13V19H15V5Z" fill="#000640"/>
</svg>
