<svg width="24" height="24" viewBox="0 0 24 24" fill="none" xmlns="http://www.w3.org/2000/svg">
<path fill-rule="evenodd" clip-rule="evenodd" d="M15.0209 3H17C17.5523 3 18 3.44772 18 4C18 4.55228 17.5523 5 17 5H15.8299L13.2049 19H17C17.5523 19 18 19.4477 18 20C18 20.5523 17.5523 21 17 21H7C6.44772 21 6 20.5523 6 20C6 19.4477 6.44772 19 7 19H10.795L8.17005 5H7C6.44772 5 6 4.55228 6 4C6 3.44772 6.44772 3 7 3H14.9768C14.9914 2.99968 15.0061 2.99967 15.0209 3ZM10.2049 5L12 14.5737L13.795 5H10.2049Z" fill="#000640"/>
</svg>
