<svg width="24" height="24" viewBox="0 0 24 24" fill="none" xmlns="http://www.w3.org/2000/svg">
<path d="M4 3C3.44772 3 3 3.44772 3 4V7C3 7.55228 2.55228 8 2 8C1.44772 8 1 7.55228 1 7V4C1 2.34315 2.34315 1 4 1H7C7.55228 1 8 1.44772 8 2C8 2.55228 7.55228 3 7 3H4Z" fill="#000640"/>
<path d="M22 16C22.5523 16 23 16.4477 23 17V20C23 21.6569 21.6569 23 20 23H17C16.4477 23 16 22.5523 16 22C16 21.4477 16.4477 21 17 21H20C20.5523 21 21 20.5523 21 20V17C21 16.4477 21.4477 16 22 16Z" fill="#000640"/>
<path d="M17 1C16.4477 1 16 1.44772 16 2C16 2.55228 16.4477 3 17 3H20C20.5523 3 21 3.44772 21 4V7C21 7.55228 21.4477 8 22 8C22.5523 8 23 7.55228 23 7V4C23 2.34315 21.6569 1 20 1H17Z" fill="#000640"/>
<path d="M2 16C2.55228 16 3 16.4477 3 17V20C3 20.5523 3.44772 21 4 21H7C7.55228 21 8 21.4477 8 22C8 22.5523 7.55228 23 7 23H4C2.34315 23 1 21.6569 1 20V17C1 16.4477 1.44772 16 2 16Z" fill="#000640"/>
<path fill-rule="evenodd" clip-rule="evenodd" d="M9 6C7.34315 6 6 7.34315 6 9V15C6 16.6569 7.34315 18 9 18H15C16.6569 18 18 16.6569 18 15V9C18 7.34315 16.6569 6 15 6H9ZM8 9C8 8.44772 8.44772 8 9 8H15C15.5523 8 16 8.44772 16 9V15C16 15.5523 15.5523 16 15 16H9C8.44772 16 8 15.5523 8 15V9Z" fill="#000640"/>
</svg>
