<svg width="24" height="24" viewBox="0 0 24 24" fill="none" xmlns="http://www.w3.org/2000/svg">
<g clip-path="url(#clip0_3080_7332)">
<path d="M21.7228 9.42563C22.2272 9.29901 22.7567 9.60301 22.8829 10.109H22.8845C23.0107 10.6149 22.7076 11.146 22.1777 11.2731C20.992 11.5766 19.0749 12.1082 18.6461 12.2599C18.5194 12.3107 18.3936 12.3358 18.2674 12.3358C18.0906 12.3358 17.9393 12.3107 17.788 12.2348C17.2586 11.9565 17.0567 11.3747 16.7792 10.5647C16.6028 10.008 16.3504 9.27443 15.9972 8.74283C15.0384 9.88136 14.0296 12.0831 13.3989 13.601C15.3159 14.942 16.1991 15.7765 16.2241 16.7382C16.2747 17.6999 15.1647 21.1914 14.509 23.1649C14.3321 23.6709 13.8527 24 13.3483 24C13.2215 24 13.0958 24 12.9696 23.9493C12.3139 23.7217 11.9858 23.0383 12.1876 22.3806C12.8689 20.3055 13.6002 17.826 13.7515 16.9658C13.4078 16.5718 11.7062 15.3799 10.4424 14.5148C9.88247 16.0134 9.00173 18.272 8.75831 18.7118C8.40516 19.3444 7.72388 19.572 6.58879 19.572C6.05879 19.572 5.42813 19.5212 4.69679 19.4454C3.67537 19.3486 2.68348 19.1929 2.2496 19.1249C2.11557 19.1038 2.03478 19.0911 2.02284 19.0911C1.36714 18.9896 0.913312 18.3576 1.01398 17.6742C1.11519 17.0166 1.74532 16.5614 2.42659 16.6623C4.01605 16.9402 5.93309 17.1427 6.79067 17.1175C6.97892 16.6816 7.41775 15.3228 7.84311 14.0057C8.14646 13.0664 8.44297 12.1483 8.63686 11.6012C8.91057 10.6204 9.80209 8.49659 10.8001 7.12292C9.79067 7.24901 8.88303 7.4515 8.5043 7.57812C8.17619 7.95745 7.41928 9.27336 6.91485 10.336C6.73854 10.6651 6.41042 10.8676 6.05727 10.8676C5.906 10.8676 5.75472 10.8425 5.62848 10.7667C5.14909 10.5139 4.97278 9.95723 5.19969 9.47639C6.86478 6.16177 7.44485 5.93363 7.72236 5.83266C8.22732 5.63017 12.0864 4.59261 14.3066 5.5543C14.7247 5.72593 15.2867 5.96955 15.6892 6.14406C15.8205 6.20098 15.9349 6.25054 16.0217 6.28786C17.5856 6.92043 18.2163 8.7423 18.62 9.93159C18.624 9.94767 18.628 9.96438 18.632 9.98152C18.6536 10.0726 18.6781 10.1757 18.7207 10.2607C19.3758 10.0685 20.304 9.81528 20.9608 9.63612C21.3411 9.53236 21.6304 9.45345 21.7228 9.42563Z" fill="black"/>
<path d="M17.0825 0.213148C18.4142 0.785353 19.0315 2.33207 18.461 3.66775C17.8906 5.00342 16.3485 5.62264 15.0169 5.05044C13.6852 4.47824 13.0679 2.93152 13.6383 1.59584C14.2088 0.260164 15.7509 -0.359056 17.0825 0.213148Z" fill="black"/>
</g>
<defs>
<clipPath id="clip0_3080_7332">
<rect width="24" height="24" fill="white"/>
</clipPath>
</defs>
</svg>
