<svg width="24" height="24" viewBox="0 0 24 24" fill="none" xmlns="http://www.w3.org/2000/svg">
<path fill-rule="evenodd" clip-rule="evenodd" d="M4 3C3.44772 3 3 3.44772 3 4V16C3 16.5523 3.44772 17 4 17C4.55228 17 5 16.5523 5 16V11H6.92567L10.1362 16.5038C10.4145 16.9808 11.0268 17.142 11.5039 16.8637C11.9809 16.5854 12.1421 15.9731 11.8638 15.496L9.14422 10.834C10.7958 10.3418 12 8.81151 12 7C12 4.79086 10.2091 3 8 3H4ZM7.52114 9H8C9.10457 9 10 8.10457 10 7C10 5.89543 9.10457 5 8 5H5V9H7.47698C7.49171 8.99967 7.50644 8.99968 7.52114 9Z" fill="#000640"/>
<path fill-rule="evenodd" clip-rule="evenodd" d="M13 10C13 9.44772 13.4477 9 14 9H17C19.2091 9 21 10.7909 21 13C21 15.2091 19.2091 17 17 17H15V20C15 20.5523 14.5523 21 14 21C13.4477 21 13 20.5523 13 20V10ZM15 15H17C18.1046 15 19 14.1046 19 13C19 11.8954 18.1046 11 17 11H15V15Z" fill="#000640"/>
</svg>
