<svg width="24" height="24" viewBox="0 0 24 24" fill="none" xmlns="http://www.w3.org/2000/svg">
<g clip-path="url(#clip0_1253_5135)">
<path d="M15.0512 18.316C15.2258 18.84 15.7921 19.1233 16.316 18.9487C16.84 18.7742 17.1233 18.2079 16.9487 17.6839C16.2449 15.5711 14.3212 14 12 14C9.67871 14 7.75508 15.5711 7.05123 17.6839C6.87668 18.2079 7.15994 18.7742 7.68392 18.9487C8.20789 19.1233 8.77416 18.84 8.94871 18.316C9.40936 16.9333 10.6278 16 12 16C13.3721 16 14.5906 16.9333 15.0512 18.316Z" fill="#000640"/>
<path d="M9 9.5C9 10.3284 8.32843 11 7.5 11C6.67157 11 6 10.3284 6 9.5C6 8.67157 6.67157 8 7.5 8C8.32843 8 9 8.67157 9 9.5Z" fill="#000640"/>
<path d="M16.5 11C17.3284 11 18 10.3284 18 9.5C18 8.67157 17.3284 8 16.5 8C15.6716 8 15 8.67157 15 9.5C15 10.3284 15.6716 11 16.5 11Z" fill="#000640"/>
<path fill-rule="evenodd" clip-rule="evenodd" d="M12 0C5.37258 0 0 5.37258 0 12C0 18.6274 5.37258 24 12 24C18.6274 24 24 18.6274 24 12C24 5.37258 18.6274 0 12 0ZM2 12C2 6.47715 6.47715 2 12 2C17.5228 2 22 6.47715 22 12C22 17.5228 17.5228 22 12 22C6.47715 22 2 17.5228 2 12Z" fill="#000640"/>
</g>
<defs>
<clipPath id="clip0_1253_5135">
<rect width="24" height="24" fill="white"/>
</clipPath>
</defs>
</svg>
