<svg width="24" height="24" viewBox="0 0 24 24" fill="none" xmlns="http://www.w3.org/2000/svg">
<path fill-rule="evenodd" clip-rule="evenodd" d="M18.9994 1H5.00001C4.73479 1 4.48043 1.10535 4.2929 1.29289C4.10536 1.48043 4 1.73478 4 2C4 4.94144 4.83296 7.64731 6.23102 9.64453C6.90175 10.6027 7.71759 11.4148 8.64482 12C7.71759 12.5852 6.90175 13.3973 6.23102 14.3555C4.83296 16.3527 4 19.0586 4 22C4 22.5523 4.44772 23 5 23H19C19.5523 23 20 22.5523 20 22C20 19.0586 19.167 16.3527 17.769 14.3555C17.0982 13.3973 16.2824 12.5852 15.3552 12C16.2824 11.4148 17.0982 10.6027 17.769 9.64453C19.167 7.64731 20 4.94144 20 2C20 1.73478 19.8946 1.48043 19.7071 1.29289C19.5196 1.10535 19.2646 1 18.9994 1ZM12 11C13.5171 11 14.9929 10.1228 16.1305 8.49761C17.117 7.08828 17.8005 5.17163 17.9629 3.00001H6.03713C6.19945 5.17163 6.88296 7.08828 7.86948 8.49761C9.00714 10.1228 10.4829 11 12 11ZM12 13C10.4829 13 9.00714 13.8772 7.86948 15.5024C6.88296 16.9117 6.19945 18.8284 6.03713 21H17.9629C17.8005 18.8284 17.117 16.9117 16.1305 15.5024C14.9929 13.8772 13.5171 13 12 13Z" fill="#000640"/>
</svg>
