<svg width="24" height="24" viewBox="0 0 24 24" fill="none" xmlns="http://www.w3.org/2000/svg">
<path fill-rule="evenodd" clip-rule="evenodd" d="M16.5395 5.71685C17.0818 6.49261 17.9817 7 19 7C20.6569 7 22 5.65685 22 4C22 2.34315 20.6569 1 19 1C17.7485 1 16.676 1.76634 16.2261 2.85536C16.1889 2.85083 16.1507 2.84635 16.1118 2.84197C15.4349 2.76582 14.4894 2.71512 13.4066 2.81663C11.2406 3.01969 8.47043 3.8401 6.25237 6.33542C4.08424 8.77456 3.27612 11.4814 3.00801 13.5593C2.87389 14.5987 2.8736 15.4886 2.90745 16.1234L2.91196 16.2031C1.79299 16.6387 1 17.7265 1 18.9996V19.9998C1 21.6566 2.34315 22.9998 4 22.9998H20C21.6569 22.9998 23 21.6566 23 19.9998V18.9998C23 17.6392 22.0942 16.4904 20.853 16.1228C20.6399 15.4819 20.2249 14.9198 19.8097 14.4527C19.2536 13.827 18.5378 13.2023 17.8683 12.618L17.6584 12.4347C16.9011 11.772 16.2153 11.1533 15.7149 10.5348C15.2095 9.90999 15 9.41283 15 8.99976C15 7.8378 15.5848 6.81254 16.2593 6.02563C16.3532 5.91606 16.4472 5.81301 16.5395 5.71685ZM20 4C20 4.55228 19.5523 5 19 5C18.4497 5 18.0032 4.55545 18 4.00586C18 4.00199 18 3.99812 18 3.99425C18.0031 3.44461 18.4496 3 19 3C19.5523 3 20 3.44772 20 4ZM4.99156 13.8153C4.8769 14.7039 4.87598 15.4636 4.90372 15.9998H18.5002C18.4442 15.9303 18.3826 15.8576 18.3149 15.7814C17.8483 15.2564 17.2312 14.7173 16.5377 14.1114L16.3414 13.9398C15.5988 13.29 14.7846 12.5648 14.16 11.7927C13.5405 11.0269 13 10.0866 13 8.99976C13 7.18469 13.8927 5.72374 14.7101 4.76003C14.3652 4.75767 13.9898 4.77073 13.5932 4.8079C11.7591 4.97986 9.52914 5.65946 7.74719 7.66415C5.91532 9.725 5.22344 12.0182 4.99156 13.8153ZM3 18.9996C3 18.4474 3.44762 17.9998 3.99978 17.9998H19.9998C20.5522 17.9998 21 18.4476 21 18.9998V19.9998C21 20.5521 20.5523 20.9998 20 20.9998H4C3.44771 20.9998 3 20.5521 3 19.9998V18.9996Z" fill="#000640"/>
</svg>
