<svg width="24" height="24" viewBox="0 0 24 24" fill="none" xmlns="http://www.w3.org/2000/svg">
<path fill-rule="evenodd" clip-rule="evenodd" d="M2 1C1.44772 1 1 1.44772 1 2V5C1 5.55228 1.44772 6 2 6H5C5.55499 6 6 6.44627 6 6.99586V9C5.44772 9 5 9.44771 5 10C5 10.5523 5.44772 11 6 11V13C5.44772 13 5 13.4477 5 14C5 14.5523 5.44772 15 6 15V17C5.44772 17 5 17.4477 5 18C5 18.5523 5.44772 19 6 19H6.10909C6.26895 19.7398 6.62034 20.5422 7.2652 21.2408C8.2407 22.2976 9.77916 23 12 23C13.8267 23 15.543 22.0791 16.9775 20.9545C18.4296 19.8161 19.7153 18.3725 20.7004 17.1174C20.7123 17.1022 20.7237 17.0868 20.7347 17.0709L22.821 14.0709C23.1283 13.629 23.0307 13.023 22.6 12.7L16.6 8.2C16.3846 8.03845 16.1132 7.97059 15.8471 8.01176C15.581 8.05294 15.3428 8.19967 15.1863 8.41876L12 12.8795V7C12 5.27275 11.4199 3.75567 10.3321 2.66789C9.24433 1.58011 7.72725 1 6 1H2ZM8.18291 18.9833C8.2991 19.293 8.47711 19.605 8.7348 19.8842C9.2593 20.4524 10.2208 21 12 21C13.1701 21 14.4505 20.3942 15.7436 19.3805C16.748 18.5931 17.6888 17.6156 18.5 16.6538L14.2019 13.2378L11.8137 16.5812C11.5611 16.935 11.1088 17.085 10.6948 16.9523C10.2808 16.8196 10 16.4347 10 16V7C10 5.72725 9.58011 4.74433 8.91789 4.08211C8.25567 3.41989 7.27275 3 6 3V4.17032C7.16402 4.58075 8 5.68792 8 6.99586V9C8.55228 9 9 9.44771 9 10C9 10.5523 8.55228 11 8 11V13C8.55228 13 9 13.4477 9 14C9 14.5523 8.55228 15 8 15V17C8.55228 17 9 17.4477 9 18C9 18.4898 8.64784 18.8974 8.18291 18.9833ZM3 4V3H4V4H3ZM19.7014 15.0539L15.3659 11.6082L16.2188 10.4141L20.6282 13.7211L19.7014 15.0539Z" fill="#000640"/>
</svg>
