<svg width="24" height="24" viewBox="0 0 24 24" fill="none" xmlns="http://www.w3.org/2000/svg">
<path d="M3 7C3 6.44772 3.44772 6 4 6H8C8.55228 6 9 6.44772 9 7C9 7.55228 8.55228 8 8 8H5V11C5 11.5523 4.55228 12 4 12C3.44772 12 3 11.5523 3 11V7Z" fill="#000640"/>
<path d="M21 13C21 12.4477 20.5523 12 20 12C19.4477 12 19 12.4477 19 13V16H16C15.4477 16 15 16.4477 15 17C15 17.5523 15.4477 18 16 18H20C20.5523 18 21 17.5523 21 17V13Z" fill="#000640"/>
<path fill-rule="evenodd" clip-rule="evenodd" d="M0 6C0 4.34315 1.34315 3 3 3H21C22.6569 3 24 4.34315 24 6V18C24 19.6569 22.6569 21 21 21H3C1.34314 21 0 19.6569 0 18V6ZM3 5C2.44772 5 2 5.44772 2 6V18C2 18.5523 2.44772 19 3 19H21C21.5523 19 22 18.5523 22 18V6C22 5.44771 21.5523 5 21 5H3Z" fill="#000640"/>
</svg>
