<svg width="24" height="24" viewBox="0 0 24 24" fill="none" xmlns="http://www.w3.org/2000/svg">
<path fill-rule="evenodd" clip-rule="evenodd" d="M2 5C2 3.34315 3.34315 2 5 2H8C9.65685 2 11 3.34315 11 5V8C11 9.65685 9.65685 11 8 11H5C3.34315 11 2 9.65685 2 8V5ZM5 4C4.44772 4 4 4.44772 4 5V8C4 8.55228 4.44772 9 5 9H8C8.55228 9 9 8.55228 9 8V5C9 4.44772 8.55228 4 8 4H5Z" fill="#000640"/>
<path d="M21.7071 6.70711C21.3166 7.09763 20.6834 7.09763 20.2929 6.70711L19 5.41422V18.5858L20.2929 17.2929C20.6834 16.9024 21.3166 16.9024 21.7071 17.2929C22.0976 17.6834 22.0976 18.3166 21.7071 18.7071L18.7071 21.7071C18.5196 21.8946 18.2652 22 18 22C17.7348 22 17.4804 21.8946 17.2929 21.7071L14.2929 18.7071C13.9024 18.3166 13.9024 17.6834 14.2929 17.2929C14.6834 16.9024 15.3166 16.9024 15.7071 17.2929L17 18.5858V5.41421L15.7071 6.70711C15.3166 7.09763 14.6834 7.09763 14.2929 6.70711C13.9024 6.31658 13.9024 5.68342 14.2929 5.29289L17.2929 2.29289C17.4804 2.10536 17.7348 2 18 2C18.2652 2 18.5196 2.10536 18.7071 2.29289L21.7071 5.29289C22.0976 5.68342 22.0976 6.31658 21.7071 6.70711Z" fill="#000640"/>
<path fill-rule="evenodd" clip-rule="evenodd" d="M5 13C3.34315 13 2 14.3431 2 16V19C2 20.6569 3.34315 22 5 22H8C9.65685 22 11 20.6569 11 19V16C11 14.3431 9.65685 13 8 13H5ZM4 16C4 15.4477 4.44772 15 5 15H8C8.55228 15 9 15.4477 9 16V19C9 19.5523 8.55228 20 8 20H5C4.44772 20 4 19.5523 4 19V16Z" fill="#000640"/>
</svg>
