<svg width="24" height="24" viewBox="0 0 24 24" fill="none" xmlns="http://www.w3.org/2000/svg">
<path fill-rule="evenodd" clip-rule="evenodd" d="M1.08273 2.6018C1.24134 2.23641 1.60169 2 2.00002 2H22C22.3539 2 22.6815 2.18708 22.8613 2.49191C23.0411 2.79674 23.0465 3.17392 22.8753 3.48369L12.3753 22.4837C12.1714 22.8526 11.7581 23.0541 11.3419 22.9874C10.9257 22.9208 10.596 22.6003 10.5175 22.1862L8.47148 11.3877L1.26948 3.68287C0.99747 3.39187 0.924107 2.96718 1.08273 2.6018ZM10.5095 11.4006L11.9662 19.0889L19.2499 5.90891L10.5095 11.4006ZM18.5288 4H4.3036L9.56692 9.6308L18.5288 4Z" fill="#000640"/>
</svg>
