<svg width="24" height="25" viewBox="0 0 24 25" fill="none" xmlns="http://www.w3.org/2000/svg">
<path fill-rule="evenodd" clip-rule="evenodd" d="M13.066 6.1246C13.2509 5.60417 13.8227 5.33213 14.3431 5.51699C17.0552 6.48032 18.9997 9.0692 18.9997 12.1148C18.9997 15.1609 17.0546 17.7501 14.3419 18.7131C13.8214 18.8978 13.2497 18.6257 13.065 18.1052C12.8802 17.5848 13.1523 17.0131 13.6728 16.8283C15.6128 16.1396 16.9997 14.2879 16.9997 12.1148C16.9997 9.94206 15.6132 8.09056 13.6737 7.40163C13.1532 7.21678 12.8812 6.64503 13.066 6.1246Z" fill="#000640"/>
<path fill-rule="evenodd" clip-rule="evenodd" d="M10.9743 6.1246C10.7894 5.60417 10.2177 5.33213 9.69723 5.51699C6.98512 6.48032 5.04065 9.0692 5.04065 12.1148C5.04065 15.1609 6.9857 17.7501 9.69843 18.7131C10.2189 18.8978 10.7906 18.6257 10.9754 18.1052C11.1601 17.5848 10.888 17.0131 10.3675 16.8283C8.4275 16.1396 7.04065 14.2879 7.04065 12.1148C7.04065 9.94206 8.42708 8.09056 10.3666 7.40163C10.8871 7.21678 11.1591 6.64503 10.9743 6.1246Z" fill="#000640"/>
<path fill-rule="evenodd" clip-rule="evenodd" d="M14.3003 2.55485C14.4852 2.03442 15.0569 1.76238 15.5773 1.94723C19.7574 3.43197 22.753 7.42213 22.753 12.1145C22.753 16.8076 19.7565 20.7982 15.5755 22.2825C15.055 22.4672 14.4833 22.1951 14.2986 21.6746C14.1138 21.1541 14.3859 20.5824 14.9064 20.3977C18.3147 19.1878 20.753 15.9346 20.753 12.1145C20.753 8.29498 18.3154 5.04221 14.9079 3.83188C14.3875 3.64702 14.1154 3.07528 14.3003 2.55485Z" fill="#000640"/>
<path fill-rule="evenodd" clip-rule="evenodd" d="M9.6988 2.55485C9.51394 2.03442 8.94219 1.76238 8.42176 1.94723C4.24172 3.43197 1.24609 7.42213 1.24609 12.1145C1.24609 16.8076 4.2426 20.7982 8.42363 22.2825C8.94409 22.4672 9.51579 22.1951 9.70055 21.6746C9.8853 21.1541 9.61316 20.5824 9.0927 20.3977C5.6844 19.1878 3.24609 15.9346 3.24609 12.1145C3.24609 8.29498 5.68368 5.04221 9.09118 3.83188C9.61161 3.64702 9.88365 3.07528 9.6988 2.55485Z" fill="#000640"/>
<path d="M14.9996 12.1148C14.9996 13.7717 13.6565 15.1148 11.9996 15.1148C10.3428 15.1148 8.99965 13.7717 8.99965 12.1148C8.99965 10.458 10.3428 9.11481 11.9996 9.11481C13.6565 9.11481 14.9996 10.458 14.9996 12.1148Z" fill="#000640"/>
</svg>
