<svg width="24" height="24" viewBox="0 0 24 24" fill="none" xmlns="http://www.w3.org/2000/svg">
<path d="M1.29432 21.8765L1.29311 21.8762C0.887431 21.7796 0.6 21.4176 0.6 21C0.6 17.5959 0.812497 14.4312 2.35424 12.0879C3.89137 9.75161 6.7227 8.26645 11.85 8.11286V2.99999C11.85 2.64225 12.0617 2.31892 12.3889 2.1756L12.389 2.17554C12.7147 2.03326 13.097 2.09465 13.361 2.33928L23.1105 11.3388L1.29432 21.8765ZM1.29432 21.8765C1.36234 21.8921 1.43134 21.9 1.5 21.9L1.29432 21.8765ZM23.4 12C23.4 11.7491 23.2956 11.509 23.1108 11.3391L2.17088 21.3354L2.30504 21.4025C2.30506 21.4025 2.30508 21.4024 2.3051 21.4024C3.00094 20.0107 3.66299 18.6918 5.02295 17.6904C6.36196 16.7045 8.39702 16.014 11.85 15.9128V21C11.85 21.3577 12.0617 21.6809 12.3886 21.8245C12.7155 21.9685 13.098 21.9053 13.361 21.6609C13.3611 21.6608 13.3611 21.6608 13.3612 21.6607L23.1106 12.6613C23.2955 12.4913 23.4 12.251 23.4 12ZM13.65 15C13.65 14.5026 13.2474 14.1 12.75 14.1C9.62746 14.1 7.38928 14.5357 5.73164 15.2407C4.27778 15.8591 3.27603 16.6825 2.5184 17.5909C2.72746 15.2712 3.28127 13.4103 4.66752 12.101C6.15138 10.6995 8.6211 9.89999 12.75 9.89999C13.2474 9.89999 13.65 9.4974 13.65 8.99999V5.05578L21.173 12L13.65 18.9442V15Z" fill="#000640" stroke="#000640" stroke-width="0.3"/>
</svg>
