<svg width="24" height="24" viewBox="0 0 24 24" fill="none" xmlns="http://www.w3.org/2000/svg">
<path d="M17.7071 9.70711C18.0976 9.31658 18.0976 8.68342 17.7071 8.29289C17.3166 7.90237 16.6834 7.90237 16.2929 8.29289L11 13.5858L8.70711 11.2929C8.31658 10.9024 7.68342 10.9024 7.29289 11.2929C6.90237 11.6834 6.90237 12.3166 7.29289 12.7071L10.2929 15.7071C10.6834 16.0976 11.3166 16.0976 11.7071 15.7071L17.7071 9.70711Z" fill="#000640"/>
<path fill-rule="evenodd" clip-rule="evenodd" d="M12.9487 1.26235C12.3329 1.05708 11.6671 1.05708 11.0513 1.26235L4.05132 3.59568C2.82629 4.00402 2 5.15044 2 6.44173V14.0002C2 17.0997 4.02998 19.2147 6.06702 20.5525C8.11615 21.8981 10.377 22.6019 11.3094 22.8563C11.7641 22.9803 12.2359 22.9803 12.6906 22.8563C13.623 22.6019 15.8839 21.8981 17.933 20.5525C19.97 19.2147 22 17.0997 22 14.0002V6.44173C22 5.15044 21.1737 4.00402 19.9487 3.59568L12.9487 1.26235ZM11.6838 3.15971C11.889 3.09129 12.111 3.09129 12.3162 3.15972L19.3162 5.49305C19.7246 5.62916 20 6.0113 20 6.44173V14.0002C20 16.1103 18.6375 17.6971 16.8351 18.8807C15.0449 20.0564 13.0194 20.6935 12.1642 20.9268C12.0541 20.9568 11.9459 20.9568 11.8358 20.9268C10.9806 20.6935 8.95514 20.0564 7.16487 18.8807C5.36251 17.6971 4 16.1103 4 14.0002V6.44173C4 6.0113 4.27543 5.62916 4.68377 5.49305L11.6838 3.15971Z" fill="#000640"/>
</svg>
