<svg width="24" height="24" viewBox="0 0 24 24" fill="none" xmlns="http://www.w3.org/2000/svg">
<path fill-rule="evenodd" clip-rule="evenodd" d="M12.3162 3.1595C12.111 3.09108 11.889 3.09108 11.6838 3.1595L4.68377 5.49284C4.27543 5.62895 4 6.01109 4 6.44152V14C4 16.1101 5.36251 17.6969 7.16487 18.8805C8.95514 20.0562 10.9806 20.6933 11.8358 20.9266C11.9459 20.9566 12.0541 20.9566 12.1642 20.9266C13.0194 20.6933 15.0449 20.0562 16.8351 18.8805C18.6375 17.6969 20 16.1101 20 14V6.44152C20 6.01109 19.7246 5.62895 19.3162 5.49284L12.3162 3.1595ZM11.0513 1.26213C11.6671 1.05687 12.3329 1.05687 12.9487 1.26214L19.9487 3.59547C21.1737 4.00381 22 5.15023 22 6.44152V14C22 17.0995 19.97 19.2145 17.933 20.5523C15.8839 21.8979 13.623 22.6017 12.6906 22.8561C12.2359 22.9801 11.7641 22.9801 11.3094 22.8561C10.377 22.6017 8.11615 21.8979 6.06702 20.5523C4.02998 19.2145 2 17.0995 2 14V6.44152C2 5.15023 2.82629 4.00381 4.05132 3.59547L11.0513 1.26213Z" fill="#000640"/>
</svg>
