<svg width="24" height="24" viewBox="0 0 24 24" fill="none" xmlns="http://www.w3.org/2000/svg">
<path fill-rule="evenodd" clip-rule="evenodd" d="M7.0001 2C7.0001 1.44772 7.44781 1 8.0001 1H16.0001C16.5524 1 17.0001 1.44772 17.0001 2V3.32297L19.0226 4.13199C20.8158 4.84923 22.0355 6.535 22.156 8.46248L22.8654 19.8129C22.9733 21.54 21.6017 23 19.8712 23H4.12903C2.39855 23 1.0269 21.5399 1.13487 19.8128L1.84442 8.46239C1.96491 6.53496 3.18461 4.84924 4.97766 4.13199L7.0001 3.32298V2ZM7.97899 5.08548L5.72047 5.98893C4.64464 6.41928 3.91282 7.43071 3.84053 8.58717L3.13097 19.9376C3.09499 20.5133 3.5522 21 4.12903 21H5.00009V11C5.00009 10.4477 5.4478 10 6.00009 10C6.55237 10 7.00009 10.4477 7.00009 11V21H17.0001V11C17.0001 10.4477 17.4478 10 18.0001 10C18.5524 10 19.0001 10.4477 19.0001 11V21H19.8712C20.448 21 20.9052 20.5133 20.8692 19.9376L20.1598 8.58723C20.0876 7.43075 19.3557 6.41929 18.2799 5.98894L16.0212 5.08548C14.8716 5.54754 13.3969 5.75 12.0001 5.75C10.6033 5.75 9.12858 5.54754 7.97899 5.08548ZM15.0001 3.33076V3H9.0001V3.33076C9.79552 3.59643 10.8663 3.75 12.0001 3.75C13.1338 3.75 14.2047 3.59643 15.0001 3.33076Z" fill="#000640"/>
</svg>
