<svg width="24" height="24" viewBox="0 0 24 24" fill="none" xmlns="http://www.w3.org/2000/svg">
<g clip-path="url(#clip0_1253_5129)">
<path d="M7.5 11C8.32843 11 9 10.3284 9 9.5C9 8.67157 8.32843 8 7.5 8C6.67157 8 6 8.67157 6 9.5C6 10.3284 6.67157 11 7.5 11Z" fill="#000640"/>
<path d="M18 9.5C18 10.3284 17.3284 11 16.5 11C15.6716 11 15 10.3284 15 9.5C15 8.67157 15.6716 8 16.5 8C17.3284 8 18 8.67157 18 9.5Z" fill="#000640"/>
<path fill-rule="evenodd" clip-rule="evenodd" d="M15 17C15 18.6569 13.6569 20 12 20C10.3431 20 9 18.6569 9 17C9 15.3431 10 13 12 13C14 13 15 15.3431 15 17ZM13 17C13 17.5523 12.5523 18 12 18C11.4477 18 11 17.5523 11 17C11 16.5155 11.1603 15.8917 11.4417 15.4455C11.7067 15.0254 11.9012 15 12 15C12.0988 15 12.2933 15.0254 12.5583 15.4455C12.8397 15.8917 13 16.5155 13 17Z" fill="#000640"/>
<path fill-rule="evenodd" clip-rule="evenodd" d="M12 0C5.37258 0 0 5.37258 0 12C0 18.6274 5.37258 24 12 24C18.6274 24 24 18.6274 24 12C24 5.37258 18.6274 0 12 0ZM2 12C2 6.47715 6.47715 2 12 2C17.5228 2 22 6.47715 22 12C22 17.5228 17.5228 22 12 22C6.47715 22 2 17.5228 2 12Z" fill="#000640"/>
</g>
<defs>
<clipPath id="clip0_1253_5129">
<rect width="24" height="24" fill="white"/>
</clipPath>
</defs>
</svg>
