<svg width="24" height="24" viewBox="0 0 24 24" fill="none" xmlns="http://www.w3.org/2000/svg">
<path fill-rule="evenodd" clip-rule="evenodd" d="M9.72011 3.66699C9.50458 3.19301 8.95496 2.95968 8.45909 3.14563L4.35298 4.68546C3.84427 4.87623 3.58681 5.43378 3.75512 5.93739L9.72011 3.66699ZM10.4065 5.5457L4.57752 7.76433L7.19783 13.5438C7.38933 13.4528 7.60293 13.366 7.83479 13.2945C8.91436 12.9612 10.3873 12.9736 11.7066 14.2929C13.0389 15.6252 13.0275 17.1669 12.711 18.2747C12.6426 18.5141 12.5598 18.7363 12.4727 18.937L15.1239 19.8207C15.7782 18.9107 16.2465 18.1662 16.6017 17.3979C16.9405 16.6651 17.1884 15.8842 17.3787 14.8871L14.4818 13.7605C13.6764 13.4473 13.0451 12.8019 12.7498 11.9897L10.4065 5.5457ZM19.2674 15.6369C19.0608 16.6004 18.7892 17.4323 18.4171 18.2373C18.0649 18.9988 17.6314 19.7169 17.1051 20.4811L17.2118 20.5167C18.4954 20.9445 19.8955 20.3388 20.4624 19.1103C21.0644 17.8057 20.5168 16.2781 19.2674 15.6369ZM10.5642 18.3008L9.24237 17.8602C8.94995 17.7627 8.71883 17.5358 8.61595 17.2453L7.96155 15.3972C8.10035 15.3254 8.25693 15.2573 8.42472 15.2055C8.96485 15.0388 9.61165 15.0264 10.2924 15.7071C10.9601 16.3748 10.9714 17.0831 10.7879 17.7253C10.7279 17.9355 10.6474 18.1308 10.5642 18.3008ZM5.83166 15.374L1.97181 6.86056C1.25507 5.27968 2.02547 3.42228 3.65072 2.8128L7.75683 1.27298C9.31918 0.687087 11.0594 1.48861 11.6296 3.05675L14.6294 11.3063C14.7278 11.577 14.9382 11.7921 15.2067 11.8965L19.7388 13.659C22.2398 14.6317 23.4028 17.5118 22.2784 19.9483C21.2844 22.1022 18.8298 23.1642 16.5794 22.4141L8.60991 19.7576C7.73267 19.4651 7.0393 18.7845 6.73065 17.9129L5.83166 15.374Z" fill="#000640"/>
</svg>
