<svg width="24" height="24" viewBox="0 0 24 24" fill="none" xmlns="http://www.w3.org/2000/svg">
<path fill-rule="evenodd" clip-rule="evenodd" d="M4.00001 3V4C4.00001 3 4.00001 3 4.00001 3H20C20.5523 3 21 3.44772 21 4V6.91723L22.9864 18.8356C23.0314 19.1054 22.9638 19.3819 22.7995 19.6006C22.6352 19.8193 22.3885 19.9612 22.1168 19.9932L13.6168 20.9932C13.1348 21.0499 12.6816 20.7522 12.5422 20.2873L11.865 18.0301L10.9285 20.3714C10.7596 20.7936 10.3272 21.0487 9.87597 20.9923L1.87597 19.9923C1.60578 19.9585 1.36105 19.816 1.1983 19.5977C1.03554 19.3794 0.968847 19.1042 1.01361 18.8356L3.00001 6.91724V4C3.00001 3.44772 3.44772 3 4.00001 3ZM4.84713 8L4.52848 9.9119C5.17711 9.80626 5.69014 9.6074 6.06667 9.325C6.43395 9.04954 6.74052 8.64231 6.89406 8H4.84713ZM8.92828 8C8.73861 9.25838 8.17518 10.2436 7.26667 10.925C6.40016 11.5749 5.31691 11.8731 4.18609 11.9663L3.15764 18.1369L9.35818 18.912L11.0715 14.6286C11.2294 14.2338 11.6197 13.9821 12.0445 14.001C12.4693 14.0199 12.8357 14.3054 12.9578 14.7127L14.2167 18.9088L20.8411 18.1294L19.8139 11.9663C18.6831 11.8731 17.5999 11.5749 16.7333 10.925C15.8248 10.2436 15.2614 9.25838 15.0717 8H13V11C13 11.5523 12.5523 12 12 12C11.4477 12 11 11.5523 11 11V8H8.92828ZM12 6H19V5H5V6H12ZM19.1529 8H17.1059C17.2595 8.64231 17.5661 9.04954 17.9333 9.325C18.3099 9.6074 18.8229 9.80626 19.4715 9.9119L19.1529 8Z" fill="#000640"/>
</svg>
