<svg width="24" height="24" viewBox="0 0 24 24" fill="none" xmlns="http://www.w3.org/2000/svg">
<path d="M18.7071 2.29289C18.3166 1.90237 17.6834 1.90237 17.2929 2.29289C16.9024 2.68342 16.9024 3.31658 17.2929 3.70711L18.5858 5H18.2111C15.8706 5 13.685 6.16971 12.3868 8.1171L7.94915 14.7735C7.02182 16.1645 5.46066 17 3.7889 17H3C2.44772 17 2 17.4477 2 18C2 18.5523 2.44772 19 3 19H3.7889C6.12937 19 8.31499 17.8303 9.61325 15.8829L14.0509 9.2265C14.9782 7.83551 16.5393 7 18.2111 7H18.5858L17.2929 8.29289C16.9024 8.68342 16.9024 9.31658 17.2929 9.70711C17.6834 10.0976 18.3166 10.0976 18.7071 9.70711L21.7071 6.70711C22.0976 6.31658 22.0976 5.68342 21.7071 5.29289L18.7071 2.29289Z" fill="#000640"/>
<path d="M18.7071 14.2929C18.3166 13.9024 17.6834 13.9024 17.2929 14.2929C16.9024 14.6834 16.9024 15.3166 17.2929 15.7071L18.5858 17H17.4853C16.1592 17 14.8874 16.4732 13.9497 15.5355L13.2071 14.7929C12.8166 14.4024 12.1834 14.4024 11.7929 14.7929C11.4024 15.1834 11.4024 15.8166 11.7929 16.2071L12.5355 16.9497C13.8483 18.2625 15.6288 19 17.4853 19H18.5858L17.2929 20.2929C16.9024 20.6834 16.9024 21.3166 17.2929 21.7071C17.6834 22.0976 18.3166 22.0976 18.7071 21.7071L21.7071 18.7071C22.0976 18.3166 22.0976 17.6834 21.7071 17.2929L18.7071 14.2929Z" fill="#000640"/>
<path d="M3 5C2.44772 5 2 5.44772 2 6C2 6.55228 2.44772 7 3 7H3.51806C5.31235 7 6.96907 7.96143 7.85928 9.51931L8.13176 9.99614C8.40577 10.4757 9.01662 10.6423 9.49614 10.3682C9.97566 10.0942 10.1423 9.48338 9.86824 9.00386L9.59577 8.52703C8.34947 6.346 6.03006 5 3.51806 5H3Z" fill="#000640"/>
</svg>
