<svg width="24" height="24" viewBox="0 0 24 24" fill="none" xmlns="http://www.w3.org/2000/svg">
<path fill-rule="evenodd" clip-rule="evenodd" d="M10.0194 3.00019C10.471 3.00895 10.8606 3.31931 10.9701 3.75747L14 15.8769L16.0299 7.75747C16.1314 7.35148 16.4749 7.05164 16.8909 7.00597C17.3069 6.96031 17.7073 7.17849 17.8944 7.55279L19.618 11H22C22.5523 11 23 11.4477 23 12C23 12.5523 22.5523 13 22 13H19C18.6212 13 18.275 12.786 18.1056 12.4472L17.3145 10.8651L14.9701 20.2425C14.8589 20.6877 14.4589 21 14 21C13.5411 21 13.1411 20.6877 13.0299 20.2425L9.92574 7.82605L7.46 16.28C7.33943 16.6934 6.96778 16.9832 6.53748 16.9993C6.10718 17.0154 5.71487 16.7543 5.56367 16.3511L4.307 13H2C1.44772 13 1 12.5523 1 12C1 11.4477 1.44772 11 2 11H5C5.41684 11 5.78997 11.2586 5.93633 11.6489L6.38131 12.8355L9.04 3.72C9.16646 3.28642 9.56785 2.99143 10.0194 3.00019Z" fill="#000640"/>
</svg>
