<svg width="24" height="24" viewBox="0 0 24 24" fill="none" xmlns="http://www.w3.org/2000/svg">
<path d="M1.39348 7.3934C1.00295 7.78392 1.00295 8.41709 1.39348 8.80761C1.784 9.19814 2.41717 9.19814 2.80769 8.80761C7.88451 3.7308 16.1157 3.7308 21.1925 8.80761C21.583 9.19814 22.2162 9.19814 22.6067 8.80761C22.9972 8.41709 22.9972 7.78392 22.6067 7.3934C16.7488 1.53553 7.25134 1.53553 1.39348 7.3934Z" fill="#000640"/>
<path d="M4.2216 11.636C3.83108 11.2455 3.83108 10.6124 4.2216 10.2218C8.51737 5.92606 15.4822 5.92606 19.778 10.2218C20.1685 10.6124 20.1685 11.2455 19.778 11.636C19.3874 12.0266 18.7543 12.0266 18.3637 11.636C14.849 8.12132 9.15054 8.12132 5.63582 11.636C5.24529 12.0266 4.61213 12.0266 4.2216 11.636Z" fill="#000640"/>
<path d="M7.05022 13.0502C6.65969 13.4407 6.65969 14.0739 7.05022 14.4644C7.44074 14.8549 8.07391 14.8549 8.46443 14.4644C10.4171 12.5118 13.5829 12.5118 15.5355 14.4644C15.926 14.8549 16.5592 14.8549 16.9497 14.4644C17.3402 14.0739 17.3402 13.4407 16.9497 13.0502C14.216 10.3165 9.78389 10.3165 7.05022 13.0502Z" fill="#000640"/>
<path fill-rule="evenodd" clip-rule="evenodd" d="M12 15C10.3431 15 8.99997 16.3431 8.99997 18C8.99997 19.6568 10.3431 21 12 21C13.6568 21 15 19.6568 15 18C15 16.3431 13.6568 15 12 15ZM11 18C11 17.4477 11.4477 17 12 17C12.5523 17 13 17.4477 13 18C13 18.5523 12.5523 19 12 19C11.4477 19 11 18.5523 11 18Z" fill="#000640"/>
</svg>
