<svg width="24" height="24" viewBox="0 0 24 24" fill="none" xmlns="http://www.w3.org/2000/svg">
<path fill-rule="evenodd" clip-rule="evenodd" d="M1 16C1 15.4477 1.44772 15 2 15H6C6.55228 15 7 15.4477 7 16V22C7 22.5523 6.55228 23 6 23H2C1.44772 23 1 22.5523 1 22V16ZM3 17V21H5V17H3Z" fill="#000640"/>
<path d="M17 22C17 21.4477 17.4477 21 18 21H22C22.5523 21 23 21.4477 23 22C23 22.5523 22.5523 23 22 23H18C17.4477 23 17 22.5523 17 22Z" fill="#000640"/>
<path d="M10 21C9.44771 21 9 21.4477 9 22C9 22.5523 9.44771 23 10 23H14C14.5523 23 15 22.5523 15 22C15 21.4477 14.5523 21 14 21H10Z" fill="#000640"/>
</svg>
