<svg width="24" height="25" viewBox="0 0 24 25" fill="none" xmlns="http://www.w3.org/2000/svg">
<path fill-rule="evenodd" clip-rule="evenodd" d="M2.70805 2.4077C3.09858 2.01718 3.73174 2.01718 4.12227 2.4077L19.7081 17.9935C20.0986 18.384 20.0986 19.0172 19.7081 19.4077C19.3175 19.7982 18.6844 19.7982 18.2938 19.4077L2.70805 3.82191C2.31753 3.43139 2.31753 2.79822 2.70805 2.4077Z" fill="#000640"/>
<path d="M12.8713 9.15678C14.8765 9.3505 16.829 10.2152 18.3647 11.7509C18.7552 12.1414 19.3884 12.1414 19.7789 11.7509C20.1695 11.3603 20.1695 10.7272 19.7789 10.3367C17.3471 7.9048 14.0598 6.84963 10.8857 7.17115L12.8713 9.15678Z" fill="#000640"/>
<path d="M8.55281 7.66667L10.185 9.29887C8.51836 9.64053 6.9298 10.4579 5.63679 11.7509C5.24627 12.1414 4.6131 12.1414 4.22258 11.7509C3.83206 11.3603 3.83206 10.7272 4.22258 10.3367C5.48154 9.0777 6.96974 8.1877 8.55281 7.66667Z" fill="#000640"/>
<path d="M9.14524 5.43068C13.3462 4.48901 17.9239 5.65294 21.1934 8.92244C21.584 9.31296 22.2171 9.31296 22.6077 8.92244C22.9982 8.53191 22.9982 7.89875 22.6077 7.50823C18.5232 3.42372 12.6691 2.18722 7.51326 3.7987L9.14524 5.43068Z" fill="#000640"/>
<path d="M5.48544 4.5993L6.99838 6.11224C5.47504 6.74649 4.04788 7.68322 2.80867 8.92244C2.41814 9.31296 1.78498 9.31296 1.39446 8.92244C1.00393 8.53191 1.00393 7.89875 1.39446 7.50823C2.62085 6.28183 4.00678 5.31219 5.48544 4.5993Z" fill="#000640"/>
<path d="M12.0009 11.1148L14.9976 14.1115C13.0391 12.6416 10.2472 12.7975 8.46541 14.5792C8.07488 14.9698 7.44172 14.9698 7.05119 14.5792C6.66067 14.1887 6.66067 13.5555 7.05119 13.165C8.41802 11.7982 10.2095 11.1148 12.0009 11.1148Z" fill="#000640"/>
<path fill-rule="evenodd" clip-rule="evenodd" d="M9.00095 18.1148C9.00095 16.458 10.3441 15.1148 12.0009 15.1148C13.6578 15.1148 15.0009 16.458 15.0009 18.1148C15.0009 19.7717 13.6578 21.1148 12.0009 21.1148C10.3441 21.1148 9.00095 19.7717 9.00095 18.1148ZM12.0009 17.1148C11.4487 17.1148 11.0009 17.5625 11.0009 18.1148C11.0009 18.6671 11.4487 19.1148 12.0009 19.1148C12.5532 19.1148 13.0009 18.6671 13.0009 18.1148C13.0009 17.5625 12.5532 17.1148 12.0009 17.1148Z" fill="#000640"/>
</svg>
