<svg width="24" height="24" viewBox="0 0 24 24" fill="none" xmlns="http://www.w3.org/2000/svg">
<path fill-rule="evenodd" clip-rule="evenodd" d="M6.74931 6.11754C3.49459 9.01709 3.20668 14.0061 6.10623 17.2608C9.00578 20.5155 13.9948 20.8035 17.2495 17.9039C19.0096 16.3359 19.9021 14.1585 19.892 11.9708C19.8895 11.4186 20.3351 10.9688 20.8874 10.9662C21.4397 10.9637 21.8895 11.4093 21.892 11.9616C21.9047 14.6987 20.7862 17.4317 18.5799 19.3973C14.5004 23.0316 8.24719 22.6707 4.61289 18.5912C0.978582 14.5117 1.33946 8.2585 5.41892 4.62419C9.49839 0.989889 15.7516 1.35076 19.3859 5.43023C19.7533 5.8426 19.7168 6.47472 19.3045 6.84209C18.8921 7.20947 18.26 7.17299 17.8926 6.76062C14.993 3.5059 10.004 3.21798 6.74931 6.11754Z" fill="#000640"/>
<path fill-rule="evenodd" clip-rule="evenodd" d="M14.1114 7.1768C14.1699 6.62763 14.6626 6.22989 15.2118 6.28844L19.0699 6.69971L18.2117 2.55492C18.0998 2.0141 18.4474 1.48491 18.9882 1.37295C19.5291 1.26098 20.0582 1.60863 20.1702 2.14944L21.3063 7.63665C21.371 7.94945 21.2825 8.27436 21.0679 8.51103C20.8534 8.74769 20.5387 8.86761 20.221 8.83375L14.9998 8.27717C14.4506 8.21863 14.0529 7.72598 14.1114 7.1768Z" fill="#000640"/>
<path d="M10.165 15C10.3419 15 10.5116 14.9297 10.6367 14.8047C10.7618 14.6797 10.832 14.5101 10.832 14.3333V9.66659C10.832 9.54862 10.8007 9.43276 10.7412 9.33085C10.6817 9.22893 10.5963 9.14461 10.4936 9.08649C10.3908 9.02837 10.2745 8.99853 10.1565 9.00002C10.0385 9.00151 9.92294 9.03427 9.82172 9.09496L8.15414 10.095C8.00301 10.1862 7.89424 10.3337 7.85169 10.5049C7.80914 10.6762 7.83627 10.8574 7.92715 11.0087C8.01802 11.16 8.16521 11.2691 8.33646 11.3122C8.50771 11.3552 8.68905 11.3286 8.84071 11.2382L9.49798 10.844V14.3333C9.49798 14.5101 9.56826 14.6797 9.69335 14.8047C9.81844 14.9297 9.9881 15 10.165 15Z" fill="#000640"/>
<path d="M14.332 8.99997C12.9303 8.99997 11.832 10.3177 11.832 12C11.832 13.6823 12.9302 15 14.332 15C15.7338 15 16.832 13.6823 16.832 12C16.832 10.3177 15.7338 8.99997 14.332 8.99997ZM14.332 13.6666C13.8253 13.6666 13.2606 12.9823 13.2606 12C13.2606 11.0177 13.8253 10.3333 14.332 10.3333C14.8388 10.3333 15.4034 11.0177 15.4034 12C15.4034 12.9823 14.8388 13.6666 14.332 13.6666Z" fill="#000640"/>
</svg>
