<svg width="24" height="24" viewBox="0 0 24 24" fill="none" xmlns="http://www.w3.org/2000/svg">
<g clip-path="url(#clip0_1253_5133)">
<path d="M8.94877 14.684C8.77421 14.16 8.20794 13.8767 7.68397 14.0513C7.16 14.2258 6.87673 14.7921 7.05129 15.3161C7.75513 17.4289 9.67876 19 12 19C14.3213 19 16.2449 17.4289 16.9488 15.3161C17.1233 14.7921 16.8401 14.2258 16.3161 14.0513C15.7921 13.8767 15.2258 14.16 15.0513 14.684C14.5906 16.0667 13.3722 17 12 17C10.6279 17 9.40942 16.0667 8.94877 14.684Z" fill="#000640"/>
<path d="M9 9.5C9 10.3284 8.32843 11 7.5 11C6.67157 11 6 10.3284 6 9.5C6 8.67157 6.67157 8 7.5 8C8.32843 8 9 8.67157 9 9.5Z" fill="#000640"/>
<path d="M16.5 11C17.3284 11 18 10.3284 18 9.5C18 8.67157 17.3284 8 16.5 8C15.6716 8 15 8.67157 15 9.5C15 10.3284 15.6716 11 16.5 11Z" fill="#000640"/>
<path fill-rule="evenodd" clip-rule="evenodd" d="M12 0C5.37258 0 0 5.37258 0 12C0 18.6274 5.37258 24 12 24C18.6274 24 24 18.6274 24 12C24 5.37258 18.6274 0 12 0ZM2 12C2 6.47715 6.47715 2 12 2C17.5228 2 22 6.47715 22 12C22 17.5228 17.5228 22 12 22C6.47715 22 2 17.5228 2 12Z" fill="#000640"/>
</g>
<defs>
<clipPath id="clip0_1253_5133">
<rect width="24" height="24" fill="white"/>
</clipPath>
</defs>
</svg>
