<svg width="24" height="24" viewBox="0 0 24 24" fill="none" xmlns="http://www.w3.org/2000/svg">
<g clip-path="url(#clip0_1253_4426)">
<path fill-rule="evenodd" clip-rule="evenodd" d="M12 0C11.1794 0 10.377 0.0825173 9.60107 0.240027C4.12327 1.35196 0 6.19334 0 12C0 18.6274 5.37258 24 12 24C18.6274 24 24 18.6274 24 12C24 5.37258 18.6274 0 12 0ZM10.5224 2.10828C11.0041 2.03699 11.4974 2 12 2C12.502 2 12.9953 2.03699 13.4774 2.10838L11.9999 3.58586L10.5224 2.10828ZM8.29439 2.70874C6.73408 3.33157 5.36747 4.33624 4.3099 5.60719L6.0269 8.977L7.78056 9.41462L10.9999 7.00008V5.41429L8.29439 2.70874ZM2.13573 10.3487C2.30098 9.35432 2.61296 8.40951 3.04866 7.53724L3.99774 9.39992L2.13573 10.3487ZM3.54274 17.3386C2.67462 15.9662 2.13132 14.3679 2.0209 12.6518L5.46349 10.8977L7.20564 11.3325L8.42036 15.3815L7.34464 16.7364L3.54274 17.3386ZM4.99236 19.1339C5.69527 19.8245 6.49978 20.4119 7.38141 20.8719L7.05443 18.8073L4.99236 19.1339ZM9.53661 21.6943C10.3246 21.8939 11.1499 22 12 22C12.8502 22 13.6757 21.8939 14.4638 21.6942L15.0583 17.9407L13.9143 16.5001H10.086L8.94212 17.9408L9.53661 21.6943ZM19.0079 19.1337C18.305 19.8242 17.5006 20.4117 16.619 20.8716L16.946 18.8071L19.0079 19.1337ZM21.9791 12.6514C21.8688 14.3676 21.3255 15.9659 20.4574 17.3384L16.6557 16.7362L15.5797 15.3811L16.7943 11.3324L18.5371 10.8975L21.9791 12.6514ZM21.8642 10.3481C21.699 9.3541 21.3871 8.40961 20.9516 7.53767L20.0029 9.39974L21.8642 10.3481ZM19.6904 5.60759L17.9737 8.9768L16.2192 9.41454L12.9999 7.00008V5.41429L15.7053 2.70893C17.2659 3.33184 18.6327 4.33653 19.6904 5.60759ZM9.15834 10.8813L11.9999 8.75008L14.8416 10.8813L13.7559 14.5001H10.244L9.15834 10.8813Z" fill="#000640"/>
</g>
<defs>
<clipPath id="clip0_1253_4426">
<rect width="24" height="24" fill="white"/>
</clipPath>
</defs>
</svg>
