<svg width="24" height="24" viewBox="0 0 24 24" fill="none" xmlns="http://www.w3.org/2000/svg">
<path fill-rule="evenodd" clip-rule="evenodd" d="M2 9V6C2 4.34315 3.34315 3 5 3H19C20.6569 3 22 4.34315 22 6V9H23C23.5523 9 24 9.44772 24 10V18C24 19.6569 22.6569 21 21 21H3C1.34314 21 0 19.6569 0 18V10C0 9.44772 0.447715 9 1 9H2ZM4 6C4 5.44772 4.44772 5 5 5H19C19.5523 5 20 5.44772 20 6V9H18C17.4477 9 17 9.44772 17 10V14H7V10C7 9.44772 6.55228 9 6 9H4V6ZM2 18V11H5V15C5 15.5523 5.44772 16 6 16H18C18.5523 16 19 15.5523 19 15V11H22V18C22 18.5523 21.5523 19 21 19H3C2.44772 19 2 18.5523 2 18Z" fill="#000640"/>
</svg>
