<svg width="24" height="25" viewBox="0 0 24 25" fill="none" xmlns="http://www.w3.org/2000/svg">
<path fill-rule="evenodd" clip-rule="evenodd" d="M3 7.11481C3 6.56252 3.44772 6.11481 4 6.11481H20C20.5523 6.11481 21 6.56252 21 7.11481C21 7.66709 20.5523 8.11481 20 8.11481H4C3.44772 8.11481 3 7.66709 3 7.11481Z" fill="#000640"/>
<path fill-rule="evenodd" clip-rule="evenodd" d="M3 12.1148C3 11.5625 3.44772 11.1148 4 11.1148H14C14.5523 11.1148 15 11.5625 15 12.1148C15 12.6671 14.5523 13.1148 14 13.1148H4C3.44772 13.1148 3 12.6671 3 12.1148Z" fill="#000640"/>
<path fill-rule="evenodd" clip-rule="evenodd" d="M3 17.1148C3 16.5625 3.44772 16.1148 4 16.1148H8C8.55228 16.1148 9 16.5625 9 17.1148C9 17.6671 8.55228 18.1148 8 18.1148H4C3.44772 18.1148 3 17.6671 3 17.1148Z" fill="#000640"/>
</svg>
