<svg width="24" height="24" viewBox="0 0 24 24" fill="none" xmlns="http://www.w3.org/2000/svg">
<path d="M2 20C2 19.4477 2.44772 19 3 19H7V18C7 17.4477 7.44772 17 8 17C8.55228 17 9 17.4477 9 18V19H21C21.5523 19 22 19.4477 22 20C22 20.5523 21.5523 21 21 21H9V22C9 22.5523 8.55228 23 8 23C7.44772 23 7 22.5523 7 22V21H3C2.44772 21 2 20.5523 2 20Z" fill="#000640"/>
<path d="M2 12C2 11.4477 2.44772 11 3 11H15V10C15 9.44772 15.4477 9 16 9C16.5523 9 17 9.44772 17 10V11H21C21.5523 11 22 11.4477 22 12C22 12.5523 21.5523 13 21 13H17V14C17 14.5523 16.5523 15 16 15C15.4477 15 15 14.5523 15 14V13H3C2.44772 13 2 12.5523 2 12Z" fill="#000640"/>
<path d="M3 3C2.44772 3 2 3.44772 2 4C2 4.55228 2.44772 5 3 5H7V6C7 6.55228 7.44772 7 8 7C8.55228 7 9 6.55228 9 6V5H21C21.5523 5 22 4.55228 22 4C22 3.44772 21.5523 3 21 3H9V2C9 1.44772 8.55228 1 8 1C7.44772 1 7 1.44772 7 2V3H3Z" fill="#000640"/>
</svg>
