<svg width="24" height="24" viewBox="0 0 24 24" fill="none" xmlns="http://www.w3.org/2000/svg">
<path fill-rule="evenodd" clip-rule="evenodd" d="M4 2C4.55228 2 5 2.44772 5 3V5.17071C6.16519 5.58254 7 6.69378 7 8C7 9.30622 6.16519 10.4175 5 10.8293V21C5 21.5523 4.55228 22 4 22C3.44772 22 3 21.5523 3 21V10.8293C1.83481 10.4175 1 9.30622 1 8C1 6.69378 1.83481 5.58254 3 5.17071V3C3 2.44772 3.44772 2 4 2ZM5 8C5 8.55228 4.55228 9 4 9C3.44772 9 3 8.55228 3 8C3 7.44772 3.44772 7 4 7C4.55228 7 5 7.44772 5 8Z" fill="#000640"/>
<path fill-rule="evenodd" clip-rule="evenodd" d="M20 2C20.5523 2 21 2.44772 21 3V5.17071C22.1652 5.58254 23 6.69378 23 8C23 9.30622 22.1652 10.4175 21 10.8293V21C21 21.5523 20.5523 22 20 22C19.4477 22 19 21.5523 19 21V10.8293C17.8348 10.4175 17 9.30622 17 8C17 6.69378 17.8348 5.58254 19 5.17071V3C19 2.44772 19.4477 2 20 2ZM20 9C20.5523 9 21 8.55228 21 8C21 7.44772 20.5523 7 20 7C19.4477 7 19 7.44772 19 8C19 8.55228 19.4477 9 20 9Z" fill="#000640"/>
<path fill-rule="evenodd" clip-rule="evenodd" d="M13 13.1707V3C13 2.44772 12.5523 2 12 2C11.4477 2 11 2.44772 11 3V13.1707C9.83481 13.5825 9 14.6938 9 16C9 17.3062 9.83481 18.4175 11 18.8293V21C11 21.5523 11.4477 22 12 22C12.5523 22 13 21.5523 13 21V18.8293C14.1652 18.4175 15 17.3062 15 16C15 14.6938 14.1652 13.5825 13 13.1707ZM12 17C12.5523 17 13 16.5523 13 16C13 15.4477 12.5523 15 12 15C11.4477 15 11 15.4477 11 16C11 16.5523 11.4477 17 12 17Z" fill="#000640"/>
</svg>
