<svg width="24" height="24" viewBox="0 0 24 24" fill="none" xmlns="http://www.w3.org/2000/svg">
<path fill-rule="evenodd" clip-rule="evenodd" d="M10.8293 3C10.4175 1.83481 9.30622 1 8 1C6.69378 1 5.58254 1.83481 5.17071 3L3 3C2.44772 3 2 3.44772 2 4C2 4.55228 2.44772 5 3 5L5.17071 5C5.58254 6.16519 6.69378 7 8 7C9.30622 7 10.4175 6.16519 10.8293 5L21 5C21.5523 5 22 4.55228 22 4C22 3.44771 21.5523 3 21 3L10.8293 3ZM8 3C8.55228 3 9 3.44772 9 4C9 4.55228 8.55228 5 8 5C7.44772 5 7 4.55228 7 4C7 3.44772 7.44772 3 8 3Z" fill="#000640"/>
<path fill-rule="evenodd" clip-rule="evenodd" d="M2 20C2 19.4477 2.44772 19 3 19H5.17071C5.58254 17.8348 6.69378 17 8 17C9.30622 17 10.4175 17.8348 10.8293 19H21C21.5523 19 22 19.4477 22 20C22 20.5523 21.5523 21 21 21H10.8293C10.4175 22.1652 9.30622 23 8 23C6.69378 23 5.58254 22.1652 5.17071 21H3C2.44772 21 2 20.5523 2 20ZM8 19C8.55228 19 9 19.4477 9 20C9 20.5523 8.55228 21 8 21C7.44772 21 7 20.5523 7 20C7 19.4477 7.44772 19 8 19Z" fill="#000640"/>
<path fill-rule="evenodd" clip-rule="evenodd" d="M21 11H18.8293C18.4175 9.83481 17.3062 9 16 9C14.6938 9 13.5825 9.83481 13.1707 11L3 11C2.44772 11 2 11.4477 2 12C2 12.5523 2.44772 13 3 13L13.1707 13C13.5825 14.1652 14.6938 15 16 15C17.3062 15 18.4175 14.1652 18.8293 13H21C21.5523 13 22 12.5523 22 12C22 11.4477 21.5523 11 21 11ZM17 12C17 11.4477 16.5523 11 16 11C15.4477 11 15 11.4477 15 12C15 12.5523 15.4477 13 16 13C16.5523 13 17 12.5523 17 12Z" fill="#000640"/>
</svg>
