<svg width="24" height="24" viewBox="0 0 24 24" fill="none" xmlns="http://www.w3.org/2000/svg">
<path fill-rule="evenodd" clip-rule="evenodd" d="M17 3L17 4.12602C18.7252 4.57006 20 6.13616 20 8C20 9.86384 18.7252 11.4299 17 11.874V21C17 21.5523 16.5523 22 16 22C15.4477 22 15 21.5523 15 21V11.874C13.2748 11.4299 12 9.86384 12 8C12 6.13616 13.2748 4.57006 15 4.12602L15 3C15 2.44772 15.4477 2 16 2C16.5523 2 17 2.44772 17 3ZM16 10C17.1046 10 18 9.10457 18 8C18 6.89543 17.1046 6 16 6C14.8954 6 14 6.89543 14 8C14 9.10457 14.8954 10 16 10Z" fill="#000640"/>
<path fill-rule="evenodd" clip-rule="evenodd" d="M9 21V19.874C10.7252 19.4299 12 17.8638 12 16C12 14.1362 10.7252 12.5701 9 12.126L9 3C9 2.44772 8.55229 2 8 2C7.44772 2 7 2.44772 7 3L7 12.126C5.27477 12.5701 4 14.1362 4 16C4 17.8638 5.27477 19.4299 7 19.874V21C7 21.5523 7.44772 22 8 22C8.55229 22 9 21.5523 9 21ZM8 18C9.10457 18 10 17.1046 10 16C10 14.8954 9.10457 14 8 14C6.89543 14 6 14.8954 6 16C6 17.1046 6.89543 18 8 18Z" fill="#000640"/>
</svg>
