<svg width="24" height="24" viewBox="0 0 24 24" fill="none" xmlns="http://www.w3.org/2000/svg">
<path d="M13 2C13 1.44772 12.5523 1 12 1C11.4477 1 11 1.44772 11 2V9.58575L5.63605 4.2218C5.24552 3.83128 4.61236 3.83128 4.22183 4.2218C3.83131 4.61233 3.83131 5.24549 4.22183 5.63602L9.58582 11H2C1.44771 11 1 11.4477 1 12C1 12.5523 1.44771 13 2 13H9.58609L4.22182 18.3643C3.83129 18.7548 3.83129 19.388 4.22182 19.7785C4.61234 20.169 5.24551 20.169 5.63603 19.7785L11 14.4145V22C11 22.5523 11.4477 23 12 23C12.5523 23 13 22.5523 13 22V14.4142L18.364 19.7782C18.7545 20.1687 19.3877 20.1687 19.7782 19.7782C20.1687 19.3876 20.1687 18.7545 19.7782 18.3639L14.4142 13H22C22.5523 13 23 12.5523 23 12C23 11.4477 22.5523 11 22 11H14.4145L19.7782 5.63635C20.1687 5.24583 20.1687 4.61266 19.7782 4.22214C19.3876 3.83161 18.7545 3.83161 18.364 4.22214L13 9.58609V2Z" fill="#000640"/>
</svg>
