<svg width="24" height="24" viewBox="0 0 24 24" fill="none" xmlns="http://www.w3.org/2000/svg">
<path d="M13 2C13 1.44772 12.5523 1 12 1C11.4477 1 11 1.44772 11 2V11H2C1.44772 11 1 11.4477 1 12C1 12.5523 1.44772 13 2 13H11V22C11 22.5523 11.4477 23 12 23C12.5523 23 13 22.5523 13 22V13H22C22.5523 13 23 12.5523 23 12C23 11.4477 22.5523 11 22 11H13V2Z" fill="#000640"/>
<path d="M8.70711 8.70711C8.31658 9.09763 7.68342 9.09763 7.29289 8.70711L4.2929 5.7071C3.90237 5.31658 3.90237 4.68342 4.2929 4.29289C4.68342 3.90237 5.31659 3.90237 5.70711 4.29289L8.70711 7.29289C9.09763 7.68342 9.09763 8.31658 8.70711 8.70711Z" fill="#000640"/>
<path d="M19.7071 5.70711C20.0976 5.31658 20.0976 4.68342 19.7071 4.29289C19.3166 3.90237 18.6834 3.90237 18.2929 4.29289L15.2929 7.29289C14.9024 7.68341 14.9024 8.31658 15.2929 8.7071C15.6834 9.09762 16.3166 9.09762 16.7071 8.7071L19.7071 5.70711Z" fill="#000640"/>
<path d="M8.70711 15.2929C9.09763 15.6834 9.09763 16.3166 8.70711 16.7071L5.70711 19.7071C5.31659 20.0976 4.68342 20.0976 4.2929 19.7071C3.90237 19.3166 3.90237 18.6834 4.2929 18.2929L7.29289 15.2929C7.68342 14.9024 8.31658 14.9024 8.70711 15.2929Z" fill="#000640"/>
<path d="M18.2929 19.7071C18.6834 20.0976 19.3166 20.0976 19.7071 19.7071C20.0976 19.3166 20.0976 18.6834 19.7071 18.2929L16.7071 15.2929C16.3166 14.9024 15.6834 14.9024 15.2929 15.2929C14.9024 15.6834 14.9024 16.3166 15.2929 16.7071L18.2929 19.7071Z" fill="#000640"/>
</svg>
