<svg width="24" height="24" viewBox="0 0 24 24" fill="none" xmlns="http://www.w3.org/2000/svg">
<path d="M17.8768 0H6.125C4.96189 0 4.01562 0.946266 4.01562 2.10938V21.8906C4.01562 23.0537 4.96189 24 6.125 24H17.8768C19.0399 24 19.9862 23.0537 19.9862 21.8906V2.10938C19.9862 0.946266 19.04 0 17.8768 0ZM17.8768 22.5938H6.125C5.7373 22.5938 5.42188 22.2783 5.42188 21.8906V2.10938C5.42188 1.72167 5.7373 1.40625 6.125 1.40625H17.8768C18.2645 1.40625 18.5799 1.72167 18.5799 2.10938V21.8906H18.58C18.58 22.2783 18.2645 22.5938 17.8768 22.5938Z" fill="#000640"/>
<path d="M12.0011 2.69733C10.3334 2.69733 8.97656 4.05412 8.97656 5.72184C8.97656 7.38956 10.3334 8.7464 12.0011 8.7464C13.6688 8.7464 15.0256 7.38961 15.0256 5.72189C15.0256 4.05417 13.6688 2.69733 12.0011 2.69733ZM12.0011 7.34015C11.1088 7.34015 10.3828 6.6142 10.3828 5.72189C10.3828 4.82958 11.1088 4.10358 12.0011 4.10358C12.8934 4.10358 13.6193 4.82953 13.6193 5.72184C13.6193 6.61415 12.8934 7.34015 12.0011 7.34015Z" fill="#000640"/>
<path d="M12.0004 9.7955C8.94375 9.7955 6.45703 12.2822 6.45703 15.3388C6.45703 18.3955 8.94375 20.8821 12.0004 20.8821C15.057 20.8821 17.5437 18.3954 17.5437 15.3388C17.5437 12.2823 15.057 9.7955 12.0004 9.7955ZM12.0004 19.4759C9.7192 19.4759 7.86328 17.62 7.86328 15.3388C7.86328 13.0576 9.7192 11.2018 12.0004 11.2018C14.2815 11.2018 16.1375 13.0576 16.1375 15.3388C16.1375 17.62 14.2815 19.4759 12.0004 19.4759Z" fill="#000640"/>
<path d="M11.9988 13.0002C10.7093 13.0002 9.66016 14.0493 9.66016 15.3389C9.66016 16.6283 10.7093 17.6774 11.9988 17.6774C13.2883 17.6774 14.3374 16.6283 14.3374 15.3389C14.3374 14.0493 13.2883 13.0002 11.9988 13.0002ZM11.9988 16.2712C11.4847 16.2712 11.0664 15.8529 11.0664 15.3389C11.0664 14.8247 11.4847 14.4065 11.9988 14.4065C12.5129 14.4065 12.9312 14.8247 12.9312 15.3389C12.9312 15.8529 12.5129 16.2712 11.9988 16.2712Z" fill="#000640"/>
</svg>
