<svg width="24" height="24" viewBox="0 0 24 24" fill="none" xmlns="http://www.w3.org/2000/svg">
<path fill-rule="evenodd" clip-rule="evenodd" d="M19.071 6.92893C15.1658 3.02369 8.83415 3.02369 4.92891 6.92893C1.25194 10.6059 1.03684 16.4351 4.28438 20.3628C4.63631 20.7884 4.57656 21.4187 4.15093 21.7707C3.7253 22.1226 3.09496 22.0629 2.74303 21.6372C-1.15552 16.9223 -0.898561 9.92797 3.51469 5.51472C8.20098 0.828427 15.799 0.828427 20.4853 5.51472C24.8929 9.92232 25.1548 16.9043 21.2719 21.6191C20.9208 22.0454 20.2906 22.1064 19.8643 21.7553C19.4379 21.4042 19.377 20.774 19.7281 20.3476C22.9626 16.4202 22.7433 10.6012 19.071 6.92893ZM18.7071 9.2929C19.0976 9.68342 19.0976 10.3166 18.7071 10.7071L15.4462 13.968C15.798 14.5635 16 15.2582 16 16C16 18.2091 14.2091 20 12 20C9.79083 20 7.99997 18.2091 7.99997 16C7.99997 13.7909 9.79083 12 12 12C12.7418 12 13.4364 12.2019 14.0319 12.5538L17.2929 9.29289C17.6834 8.90237 18.3166 8.90237 18.7071 9.2929ZM12 14C10.8954 14 9.99997 14.8954 9.99997 16C9.99997 17.1046 10.8954 18 12 18C13.1045 18 14 17.1046 14 16C14 14.8954 13.1045 14 12 14Z" fill="#000640"/>
</svg>
