<svg width="24" height="24" viewBox="0 0 24 24" fill="none" xmlns="http://www.w3.org/2000/svg">
<path fill-rule="evenodd" clip-rule="evenodd" d="M3.99852 4C3.99852 3.44772 4.44624 3 4.99852 3H6.99852C7.26374 3 7.51809 3.10536 7.70563 3.29289C7.89317 3.48043 7.99852 3.73479 7.99852 4C7.99852 5.90729 8.36208 7.13088 8.96213 7.86941C9.526 8.56339 10.4422 9 11.9985 9C13.5549 9 14.471 8.56339 15.0349 7.86941C15.635 7.13088 15.9985 5.90729 15.9985 4C15.9985 3.44771 16.4462 3 16.9985 3H18.9985C19.2637 3 19.5181 3.10536 19.7056 3.29289C19.8932 3.48043 19.9985 3.73479 19.9985 4C19.9985 4.2166 20.0615 4.55063 20.2174 5.02658C20.3693 5.49025 20.5863 6.02175 20.8452 6.61668C20.9711 6.90614 21.1074 7.21129 21.2486 7.52736C21.6723 8.47579 22.1399 9.52254 22.5028 10.5387C22.9823 11.8813 23.3545 13.361 23.1512 14.6973C23.046 15.3885 22.7851 16.055 22.3011 16.6325C21.9557 17.0448 21.5195 17.3843 20.9985 17.6533V20C20.9985 20.5523 20.5508 21 19.9985 21H3.99852C3.44624 21 2.99852 20.5523 2.99852 20V17.6533C2.47753 17.3843 2.04139 17.0448 1.69594 16.6325C1.21199 16.055 0.951021 15.3885 0.845846 14.6973C0.642497 13.361 1.01479 11.8813 1.49429 10.5387C1.85719 9.52254 2.32477 8.47578 2.74844 7.52734C2.88962 7.21128 3.02593 6.90614 3.15186 6.61668C3.41069 6.02175 3.62777 5.49025 3.77966 5.02658C3.93558 4.55063 3.99852 4.2166 3.99852 4ZM4.99852 18V19H18.9985V18H4.99852ZM19.8125 16C20.2771 15.809 20.574 15.5797 20.7682 15.3479C20.9815 15.0934 21.1151 14.7834 21.174 14.3964C21.2987 13.5765 21.0773 12.4937 20.6193 11.2113C20.2847 10.2745 19.8644 9.33332 19.4489 8.40305C19.301 8.07194 19.1538 7.74222 19.0112 7.41457C18.7466 6.80637 18.4989 6.20506 18.3168 5.6492C18.2469 5.43585 18.1828 5.21809 18.1308 5H17.9664C17.8551 6.6597 17.4445 8.07532 16.5871 9.13059C15.526 10.4366 13.9421 11 11.9985 11C10.0549 11 8.47105 10.4366 7.40991 9.13059C6.5525 8.07532 6.14191 6.6597 6.0306 5H5.86625C5.81422 5.21809 5.75017 5.43585 5.68028 5.6492C5.49818 6.20506 5.25042 6.80637 4.98581 7.41457C4.84326 7.74222 4.69601 8.07194 4.54814 8.40305C4.13268 9.33332 3.71235 10.2745 3.37777 11.2113C2.91977 12.4937 2.69831 13.5765 2.82308 14.3964C2.88197 14.7834 3.01553 15.0934 3.22884 15.3479C3.42304 15.5797 3.71998 15.809 4.18457 16H19.8125Z" fill="#000640"/>
</svg>
