<svg width="24" height="24" viewBox="0 0 24 24" fill="none" xmlns="http://www.w3.org/2000/svg">
<path fill-rule="evenodd" clip-rule="evenodd" d="M19.6213 2.70699C18.4497 1.53542 16.5502 1.53541 15.3786 2.70699L13.7071 4.37856C12.5355 5.55013 12.5355 7.44963 13.7071 8.6212L15.3786 10.2928C16.5502 11.4643 18.4497 11.4643 19.6213 10.2928L21.2929 8.6212C22.4644 7.44963 22.4644 5.55014 21.2929 4.37856L19.6213 2.70699ZM16.7929 4.1212C17.1834 3.73068 17.8165 3.73068 18.2071 4.1212L19.8786 5.79278C20.2692 6.1833 20.2692 6.81646 19.8786 7.20699L18.2071 8.87856C17.8165 9.26909 17.1834 9.26909 16.7929 8.87856L15.1213 7.20699C14.7308 6.81646 14.7308 6.1833 15.1213 5.79277L16.7929 4.1212Z" fill="#000640"/>
<path fill-rule="evenodd" clip-rule="evenodd" d="M5 1.99997C3.34315 1.99997 2 3.34312 2 4.99997V7.99997C2 9.65683 3.34315 11 5 11H8C9.65685 11 11 9.65683 11 7.99997V4.99997C11 3.34312 9.65685 1.99997 8 1.99997H5ZM4 4.99997C4 4.44769 4.44772 3.99997 5 3.99997H8C8.55228 3.99997 9 4.44769 9 4.99997V7.99997C9 8.55226 8.55228 8.99997 8 8.99997H5C4.44772 8.99997 4 8.55226 4 7.99997V4.99997Z" fill="#000640"/>
<path fill-rule="evenodd" clip-rule="evenodd" d="M2 16C2 14.3431 3.34315 13 5 13H8C9.65685 13 11 14.3431 11 16V19C11 20.6568 9.65685 22 8 22H5C3.34315 22 2 20.6568 2 19V16ZM5 15C4.44772 15 4 15.4477 4 16V19C4 19.5523 4.44772 20 5 20H8C8.55228 20 9 19.5523 9 19V16C9 15.4477 8.55228 15 8 15H5Z" fill="#000640"/>
<path fill-rule="evenodd" clip-rule="evenodd" d="M16 13C14.3431 13 13 14.3431 13 16V19C13 20.6568 14.3431 22 16 22H19C20.6569 22 22 20.6568 22 19V16C22 14.3431 20.6569 13 19 13H16ZM15 16C15 15.4477 15.4477 15 16 15H19C19.5523 15 20 15.4477 20 16V19C20 19.5523 19.5523 20 19 20H16C15.4477 20 15 19.5523 15 19V16Z" fill="#000640"/>
</svg>
