<svg width="24" height="24" viewBox="0 0 24 24" fill="none" xmlns="http://www.w3.org/2000/svg">
<path d="M14.2929 5.70711C14.6834 6.09763 15.3166 6.09763 15.7071 5.70711C16.0976 5.31659 16.0976 4.68342 15.7071 4.2929L12.7071 1.29289C12.5196 1.10536 12.2652 1 12 1C11.7348 1 11.4804 1.10536 11.2929 1.29289L8.2929 4.2929C7.90237 4.68342 7.90237 5.31659 8.2929 5.70711C8.68342 6.09763 9.31659 6.09763 9.70711 5.70711L11 4.41422V9C11 9.55229 11.4477 10 12 10C12.5523 10 13 9.55229 13 9V4.41422L14.2929 5.70711Z" fill="#000640"/>
<path d="M11.2929 22.7071C11.4804 22.8946 11.7348 23 12 23C12.2652 23 12.5196 22.8946 12.7071 22.7071L15.7071 19.7071C16.0976 19.3166 16.0976 18.6834 15.7071 18.2929C15.3166 17.9024 14.6834 17.9024 14.2929 18.2929L13 19.5858V15C13 14.4477 12.5523 14 12 14C11.4477 14 11 14.4477 11 15V19.5858L9.70711 18.2929C9.31659 17.9024 8.68342 17.9024 8.2929 18.2929C7.90237 18.6834 7.90237 19.3166 8.2929 19.7071L11.2929 22.7071Z" fill="#000640"/>
<path d="M5.70711 9.70711C6.09763 9.31659 6.09763 8.68342 5.70711 8.2929C5.31659 7.90237 4.68342 7.90237 4.2929 8.2929L1.29289 11.2929C1.10536 11.4804 1 11.7348 1 12C1 12.2652 1.10536 12.5196 1.29289 12.7071L4.2929 15.7071C4.68342 16.0976 5.31659 16.0976 5.70711 15.7071C6.09763 15.3166 6.09763 14.6834 5.70711 14.2929L4.41421 13H9C9.55229 13 10 12.5523 10 12C10 11.4477 9.55229 11 9 11H4.41421L5.70711 9.70711Z" fill="#000640"/>
<path d="M19.5858 13L18.2929 14.2929C17.9024 14.6834 17.9024 15.3166 18.2929 15.7071C18.6834 16.0976 19.3166 16.0976 19.7071 15.7071L22.7071 12.7071C22.8946 12.5196 23 12.2652 23 12C23 11.7348 22.8946 11.4804 22.7071 11.2929L19.7071 8.2929C19.3166 7.90237 18.6834 7.90237 18.2929 8.2929C17.9024 8.68342 17.9024 9.31659 18.2929 9.70711L19.5858 11H15C14.4477 11 14 11.4477 14 12C14 12.5523 14.4477 13 15 13H19.5858Z" fill="#000640"/>
</svg>
