<svg width="24" height="24" viewBox="0 0 24 24" fill="none" xmlns="http://www.w3.org/2000/svg">
<path d="M2 8C2 8.55228 2.44772 9 3 9C3.55228 9 4 8.55228 4 8L4 5.41421L8.79289 10.2071C9.18342 10.5976 9.81658 10.5976 10.2071 10.2071C10.5976 9.81658 10.5976 9.18342 10.2071 8.79289L5.41422 4L8 4C8.55228 4 9 3.55228 9 3C9 2.44771 8.55228 2 8 2H3C2.44772 2 2 2.44772 2 3V8Z" fill="#000640"/>
<path d="M16 2C15.4477 2 15 2.44772 15 3C15 3.55228 15.4477 4 16 4L18.5858 4L11.2929 11.2929C11.1054 11.4805 11 11.7348 11 12L11 21C11 21.5523 11.4477 22 12 22C12.5523 22 13 21.5523 13 21V12.4142L20 5.41424V8C20 8.55228 20.4477 9 21 9C21.5523 9 22 8.55228 22 8V3C22 2.44771 21.5523 2 21 2H16Z" fill="#000640"/>
</svg>
