<svg width="24" height="24" viewBox="0 0 24 24" fill="none" xmlns="http://www.w3.org/2000/svg">
<path fill-rule="evenodd" clip-rule="evenodd" d="M5.5 2C3.567 2 2 3.567 2 5.5C2 7.433 3.567 9 5.5 9C6.10276 9 6.66993 8.84763 7.1651 8.57931L8.79289 10.2071C9.18342 10.5976 9.81658 10.5976 10.2071 10.2071C10.5976 9.81658 10.5976 9.18342 10.2071 8.79289L8.57931 7.1651C8.84763 6.66993 9 6.10276 9 5.5C9 3.567 7.433 2 5.5 2ZM4 5.5C4 4.67157 4.67157 4 5.5 4C6.32843 4 7 4.67157 7 5.5C7 6.32843 6.32843 7 5.5 7C4.67157 7 4 6.32843 4 5.5Z" fill="#000640"/>
<path d="M16 2C15.4477 2 15 2.44772 15 3C15 3.55228 15.4477 4 16 4L18.5858 4L11.2929 11.2929C11.1054 11.4805 11 11.7348 11 12L11 21C11 21.5523 11.4477 22 12 22C12.5523 22 13 21.5523 13 21V12.4142L20 5.41424V8C20 8.55228 20.4477 9 21 9C21.5523 9 22 8.55228 22 8V3C22 2.44771 21.5523 2 21 2H16Z" fill="#000640"/>
</svg>
