<svg width="24" height="24" viewBox="0 0 24 24" fill="none" xmlns="http://www.w3.org/2000/svg">
<path d="M3 2C2.44772 2 2 2.44772 2 3V8C2 8.55228 2.44772 9 3 9C3.55228 9 4 8.55228 4 8V5.41418L8.29289 9.70708C8.68342 10.0976 9.31658 10.0976 9.70711 9.70708C10.0976 9.31655 10.0976 8.68339 9.70711 8.29286L5.41424 4H8C8.55228 4 9 3.55228 9 3C9 2.44772 8.55228 2 8 2H3Z" fill="#000640"/>
<path d="M16 2C15.4477 2 15 2.44772 15 3C15 3.55228 15.4477 4 16 4H18.5858L14.2929 8.29292C13.9024 8.68345 13.9024 9.31661 14.2929 9.70714C14.6834 10.0977 15.3166 10.0977 15.7071 9.70714L20 5.41424V8C20 8.55228 20.4477 9 21 9C21.5523 9 22 8.55228 22 8V3C22 2.44772 21.5523 2 21 2H16Z" fill="#000640"/>
<path d="M21 15C21.5523 15 22 15.4477 22 16V21C22 21.5523 21.5523 22 21 22H16C15.4477 22 15 21.5523 15 21C15 20.4477 15.4477 20 16 20H18.5858L14.2929 15.7071C13.9024 15.3166 13.9024 14.6834 14.2929 14.2929C14.6834 13.9024 15.3166 13.9024 15.7071 14.2929L20 18.5858V16C20 15.4477 20.4477 15 21 15Z" fill="#000640"/>
<path d="M8 22C8.55228 22 9 21.5523 9 21C9 20.4477 8.55228 20 8 20H5.41419L9.70708 15.7071C10.0976 15.3166 10.0976 14.6834 9.70708 14.2929C9.31655 13.9024 8.68339 13.9024 8.29286 14.2929L4 18.5858L4 16C4 15.4477 3.55229 15 3 15C2.44772 15 2 15.4477 2 16V21C2 21.5523 2.44772 22 3 22H8Z" fill="#000640"/>
</svg>
