<svg width="24" height="24" viewBox="0 0 24 24" fill="none" xmlns="http://www.w3.org/2000/svg">
<path fill-rule="evenodd" clip-rule="evenodd" d="M17.2929 2.29289C17.6834 1.90237 18.3166 1.90237 18.7071 2.29289L22.2071 5.79289C22.5976 6.18342 22.5976 6.81658 22.2071 7.20711C21.8166 7.59763 21.1834 7.59763 20.7929 7.2071L19 5.41421L19 12C19 13.6569 17.6569 15 16 15H10C9.44772 15 9 14.5523 9 14C9 13.4477 9.44772 13 10 13H16C16.5523 13 17 12.5523 17 12L17 5.41421L15.2071 7.20711C14.8166 7.59763 14.1834 7.59763 13.7929 7.20711C13.4024 6.81658 13.4024 6.18342 13.7929 5.79289L17.2929 2.29289ZM8 11C7.44772 11 7 11.4477 7 12V18.5858L8.79289 16.7929C9.18342 16.4024 9.81658 16.4024 10.2071 16.7929C10.5976 17.1834 10.5976 17.8166 10.2071 18.2071L6.70711 21.7071C6.31658 22.0976 5.68342 22.0976 5.29289 21.7071L1.79289 18.2071C1.40237 17.8166 1.40237 17.1834 1.79289 16.7929C2.18342 16.4024 2.81658 16.4024 3.20711 16.7929L5 18.5858L5 12C5 10.3431 6.34315 9 8 9H14C14.5523 9 15 9.44772 15 10C15 10.5523 14.5523 11 14 11H8Z" fill="#000640"/>
</svg>
