<svg width="24" height="24" viewBox="0 0 24 24" fill="none" xmlns="http://www.w3.org/2000/svg">
<path fill-rule="evenodd" clip-rule="evenodd" d="M21.7071 17.2929C22.0976 17.6834 22.0976 18.3166 21.7071 18.7071L18.2071 22.2071C17.8166 22.5976 17.1834 22.5976 16.7929 22.2071C16.4024 21.8166 16.4024 21.1834 16.7929 20.7929L18.5858 19L12 19C10.3431 19 9 17.6569 9 16L9 10C9 9.44772 9.44771 9 10 9C10.5523 9 11 9.44772 11 10V16C11 16.5523 11.4477 17 12 17L18.5858 17L16.7929 15.2071C16.4024 14.8166 16.4024 14.1834 16.7929 13.7929C17.1834 13.4024 17.8166 13.4024 18.2071 13.7929L21.7071 17.2929ZM13 8C13 7.44772 12.5523 7 12 7L5.41421 7L7.20711 8.79289C7.59763 9.18342 7.59763 9.81658 7.20711 10.2071C6.81658 10.5976 6.18342 10.5976 5.79289 10.2071L2.29289 6.70711C1.90237 6.31658 1.90237 5.68342 2.29289 5.29289L5.79289 1.79289C6.18342 1.40237 6.81658 1.40237 7.20711 1.79289C7.59763 2.18342 7.59763 2.81658 7.20711 3.20711L5.41421 5L12 5C13.6569 5 15 6.34315 15 8V14C15 14.5523 14.5523 15 14 15C13.4477 15 13 14.5523 13 14V8Z" fill="#000640"/>
</svg>
