<svg width="24" height="24" viewBox="0 0 24 24" fill="none" xmlns="http://www.w3.org/2000/svg">
<path d="M16 4C15.4477 4 15 3.55228 15 3C15 2.44772 15.4477 2 16 2H21C21.5523 2 22 2.44772 22 3V8C22 8.55228 21.5523 9 21 9C20.4477 9 20 8.55228 20 8V5.41418L3.70711 21.7071C3.31658 22.0976 2.68342 22.0976 2.29289 21.7071C1.90237 21.3166 1.90237 20.6834 2.29289 20.2929L18.5858 4H16Z" fill="#000640"/>
<path d="M21 15C21.5523 15 22 15.4477 22 16V21C22 21.5523 21.5523 22 21 22H16C15.4477 22 15 21.5523 15 21C15 20.4477 15.4477 20 16 20H18.5858L13.7929 15.2071C13.4024 14.8166 13.4024 14.1834 13.7929 13.7929C14.1834 13.4024 14.8166 13.4024 15.2071 13.7929L20 18.5858V16C20 15.4477 20.4477 15 21 15Z" fill="#000640"/>
<path d="M3.70714 2.29289C3.31661 1.90237 2.68345 1.90237 2.29292 2.29289C1.9024 2.68342 1.9024 3.31658 2.29292 3.70711L8.79292 10.2071C9.18345 10.5976 9.81661 10.5976 10.2071 10.2071C10.5977 9.81658 10.5977 9.18342 10.2071 8.79289L3.70714 2.29289Z" fill="#000640"/>
</svg>
