<svg width="24" height="24" viewBox="0 0 24 24" fill="none" xmlns="http://www.w3.org/2000/svg">
<path d="M16.2929 17.7071C15.9024 17.3166 15.9024 16.6834 16.2929 16.2929L19.5858 13L14 13C13.4477 13 13 12.5523 13 12C13 11.4477 13.4477 11 14 11L19.5858 11L16.2929 7.70711C15.9024 7.31658 15.9024 6.68342 16.2929 6.29289C16.6834 5.90237 17.3166 5.90237 17.7071 6.29289L22.7071 11.2929C23.0976 11.6834 23.0976 12.3166 22.7071 12.7071L17.7071 17.7071C17.3166 18.0976 16.6834 18.0976 16.2929 17.7071Z" fill="#000640"/>
<path d="M10 13C10.5523 13 11 12.5523 11 12C11 11.4477 10.5523 11 10 11C9.44772 11 9 11.4477 9 12C9 12.5523 9.44772 13 10 13Z" fill="#000640"/>
<path d="M7 12C7 12.5523 6.55228 13 6 13C5.44772 13 5 12.5523 5 12C5 11.4477 5.44772 11 6 11C6.55228 11 7 11.4477 7 12Z" fill="#000640"/>
<path d="M2 13C2.55228 13 3 12.5523 3 12C3 11.4477 2.55228 11 2 11C1.44772 11 1 11.4477 1 12C1 12.5523 1.44772 13 2 13Z" fill="#000640"/>
</svg>
