<svg width="24" height="24" viewBox="0 0 24 24" fill="none" xmlns="http://www.w3.org/2000/svg">
<path d="M13 2C13 2.55228 12.5523 3 12 3C11.4477 3 11 2.55228 11 2C11 1.44772 11.4477 1 12 1C12.5523 1 13 1.44772 13 2Z" fill="#000640"/>
<path d="M12 7C12.5523 7 13 6.55228 13 6C13 5.44772 12.5523 5 12 5C11.4477 5 11 5.44772 11 6C11 6.55228 11.4477 7 12 7Z" fill="#000640"/>
<path d="M16.2929 16.2929L13 19.5858V14C13 13.4477 12.5523 13 12 13C11.4477 13 11 13.4477 11 14V19.5858L7.70711 16.2929C7.31658 15.9024 6.68342 15.9024 6.29289 16.2929C5.90237 16.6834 5.90237 17.3166 6.29289 17.7071L11.2929 22.7071C11.6834 23.0976 12.3166 23.0976 12.7071 22.7071L17.7071 17.7071C18.0976 17.3166 18.0976 16.6834 17.7071 16.2929C17.3166 15.9024 16.6834 15.9024 16.2929 16.2929Z" fill="#000640"/>
<path d="M12 11C12.5523 11 13 10.5523 13 10C13 9.44772 12.5523 9 12 9C11.4477 9 11 9.44772 11 10C11 10.5523 11.4477 11 12 11Z" fill="#000640"/>
</svg>
