<svg width="24" height="24" viewBox="0 0 24 24" fill="none" xmlns="http://www.w3.org/2000/svg">
<path d="M17.7071 7.70711C17.3166 8.09763 16.6834 8.09763 16.2929 7.70711L13 4.41421V10C13 10.5523 12.5523 11 12 11C11.4477 11 11 10.5523 11 10V4.41421L7.70711 7.70711C7.31658 8.09763 6.68342 8.09763 6.29289 7.70711C5.90237 7.31658 5.90237 6.68342 6.29289 6.29289L11.2929 1.29289C11.6834 0.902369 12.3166 0.902369 12.7071 1.29289L17.7071 6.29289C18.0976 6.68342 18.0976 7.31658 17.7071 7.70711Z" fill="#000640"/>
<path d="M12 23C12.5523 23 13 22.5523 13 22C13 21.4477 12.5523 21 12 21C11.4477 21 11 21.4477 11 22C11 22.5523 11.4477 23 12 23Z" fill="#000640"/>
<path d="M13 18C13 18.5523 12.5523 19 12 19C11.4477 19 11 18.5523 11 18C11 17.4477 11.4477 17 12 17C12.5523 17 13 17.4477 13 18Z" fill="#000640"/>
<path d="M12 15C12.5523 15 13 14.5523 13 14C13 13.4477 12.5523 13 12 13C11.4477 13 11 13.4477 11 14C11 14.5523 11.4477 15 12 15Z" fill="#000640"/>
</svg>
