<svg width="24" height="24" viewBox="0 0 24 24" fill="none" xmlns="http://www.w3.org/2000/svg">
<path d="M6.70711 7.29289C7.09763 7.68342 7.09763 8.31658 6.70711 8.70711L3.41421 12L6.70711 15.2929C7.09763 15.6834 7.09763 16.3166 6.70711 16.7071C6.31658 17.0976 5.68342 17.0976 5.29289 16.7071L1.29289 12.7071C0.902369 12.3166 0.902369 11.6834 1.29289 11.2929L5.29289 7.29289C5.68342 6.90237 6.31658 6.90237 6.70711 7.29289Z" fill="#000640"/>
<path d="M17.2929 16.7071C16.9024 16.3166 16.9024 15.6834 17.2929 15.2929L20.5858 12L17.2929 8.70711C16.9024 8.31658 16.9024 7.68342 17.2929 7.29289C17.6834 6.90237 18.3166 6.90237 18.7071 7.29289L22.7071 11.2929C23.0976 11.6834 23.0976 12.3166 22.7071 12.7071L18.7071 16.7071C18.3166 17.0976 17.6834 17.0976 17.2929 16.7071Z" fill="#000640"/>
<path d="M12 13C12.5523 13 13 12.5523 13 12C13 11.4477 12.5523 11 12 11C11.4477 11 11 11.4477 11 12C11 12.5523 11.4477 13 12 13Z" fill="#000640"/>
<path d="M17 12C17 12.5523 16.5523 13 16 13C15.4477 13 15 12.5523 15 12C15 11.4477 15.4477 11 16 11C16.5523 11 17 11.4477 17 12Z" fill="#000640"/>
<path d="M8 13C8.55228 13 9 12.5523 9 12C9 11.4477 8.55228 11 8 11C7.44772 11 7 11.4477 7 12C7 12.5523 7.44772 13 8 13Z" fill="#000640"/>
</svg>
