<svg width="24" height="24" viewBox="0 0 24 24" fill="none" xmlns="http://www.w3.org/2000/svg">
<path d="M16.7071 6.70711C16.3166 7.09763 15.6834 7.09763 15.2929 6.70711L12 3.41421L8.70711 6.70711C8.31658 7.09763 7.68342 7.09763 7.29289 6.70711C6.90237 6.31658 6.90237 5.68342 7.29289 5.29289L11.2929 1.29289C11.6834 0.902369 12.3166 0.902369 12.7071 1.29289L16.7071 5.29289C17.0976 5.68342 17.0976 6.31658 16.7071 6.70711Z" fill="#000640"/>
<path d="M7.29289 17.2929C7.68342 16.9024 8.31658 16.9024 8.70711 17.2929L12 20.5858L15.2929 17.2929C15.6834 16.9024 16.3166 16.9024 16.7071 17.2929C17.0976 17.6834 17.0976 18.3166 16.7071 18.7071L12.7071 22.7071C12.3166 23.0976 11.6834 23.0976 11.2929 22.7071L7.29289 18.7071C6.90237 18.3166 6.90237 17.6834 7.29289 17.2929Z" fill="#000640"/>
<path d="M11 12C11 12.5523 11.4477 13 12 13C12.5523 13 13 12.5523 13 12C13 11.4477 12.5523 11 12 11C11.4477 11 11 11.4477 11 12Z" fill="#000640"/>
<path d="M12 17C11.4477 17 11 16.5523 11 16C11 15.4477 11.4477 15 12 15C12.5523 15 13 15.4477 13 16C13 16.5523 12.5523 17 12 17Z" fill="#000640"/>
<path d="M11 8C11 8.55228 11.4477 9 12 9C12.5523 9 13 8.55228 13 8C13 7.44772 12.5523 7 12 7C11.4477 7 11 7.44772 11 8Z" fill="#000640"/>
</svg>
