<svg width="24" height="24" viewBox="0 0 24 24" fill="none" xmlns="http://www.w3.org/2000/svg">
<path fill-rule="evenodd" clip-rule="evenodd" d="M12.3714 2.07152C12.133 1.97616 11.867 1.97616 11.6286 2.07152L1.62861 6.07152C1.24895 6.22339 1 6.5911 1 7C1 7.4089 1.24895 7.77661 1.62861 7.92848L5.11661 9.32368L1.55279 11.1056C1.20057 11.2817 0.984503 11.6481 1.00087 12.0416C1.01723 12.435 1.26299 12.7822 1.62861 12.9285L5.11655 14.3237L1.55279 16.1055C1.20057 16.2817 0.984503 16.6481 1.00087 17.0415C1.01723 17.435 1.26299 17.7822 1.62861 17.9285L11.6286 21.9285C11.867 22.0238 12.133 22.0238 12.3714 21.9285L22.3714 17.9285C22.737 17.7822 22.9828 17.435 22.9991 17.0415C23.0155 16.6481 22.7994 16.2817 22.4472 16.1055L18.8835 14.3237L22.3714 12.9285C22.8842 12.7234 23.1336 12.1414 22.9285 11.6286C22.7944 11.2933 22.4991 11.0706 22.1674 11.014L18.5105 9.47284L22.3714 7.92848C22.7511 7.77661 23 7.4089 23 7C23 6.5911 22.7511 6.22339 22.3714 6.07152L12.3714 2.07152ZM15.8683 10.5297L12.3714 11.9285C12.133 12.0238 11.867 12.0238 11.6286 11.9285L7.58518 10.3111C7.54218 10.3421 7.49614 10.37 7.44722 10.3944L4.43897 11.8986L12 14.923L19.333 11.9898L15.8683 10.5297ZM12 9.92297L4.69259 7L12 4.07703L19.3074 7L12 9.92297ZM12.3714 16.9285L16.4149 15.3111C16.4579 15.342 16.5039 15.37 16.5528 15.3944L19.561 16.8985L12 19.9229L4.43897 16.8985L7.44722 15.3944C7.49612 15.37 7.54214 15.342 7.58514 15.3111L11.6286 16.9285C11.867 17.0239 12.133 17.0239 12.3714 16.9285Z" fill="#000640"/>
</svg>
