<svg width="24" height="24" viewBox="0 0 24 24" fill="none" xmlns="http://www.w3.org/2000/svg">
<path fill-rule="evenodd" clip-rule="evenodd" d="M12.3714 1.07153C12.0633 0.948292 11.7141 0.985907 11.4394 1.17194C11.1646 1.35797 11 1.66818 11 2V8.01252C8.57039 8.07363 6.36201 8.35567 4.6773 8.7937C3.72818 9.04047 2.88846 9.35106 2.26217 9.73604C1.69222 10.0864 1 10.6884 1 11.6V19.4C1 19.8735 1.21203 20.2578 1.44821 20.5342C1.68202 20.8078 1.98384 21.0308 2.29652 21.215C2.92317 21.584 3.765 21.8959 4.71989 22.1502C6.64366 22.6626 9.23153 22.9951 11.9982 22.9999C14.7672 23.0048 17.3565 22.6722 19.2813 22.157C20.2368 21.9013 21.0787 21.5874 21.7053 21.2166C22.018 21.0315 22.3194 20.8077 22.5528 20.5338C22.7883 20.2573 23 19.8731 23 19.4V11.6C23 10.6884 22.3078 10.0864 21.7378 9.73604C21.1115 9.35106 20.2718 9.04047 19.3227 8.7937C17.638 8.35567 15.4296 8.07363 13 8.01252V7.5662L17.5145 4.8575C17.8403 4.66203 18.0271 4.29884 17.9968 3.92013C17.9665 3.54143 17.7241 3.21263 17.3714 3.07153L12.3714 1.07153ZM11 10.0132V11C11 11.5523 11.4477 12 12 12C12.5523 12 13 11.5523 13 11V10.0132C15.2944 10.074 17.3269 10.3413 18.8194 10.7293C19.68 10.9531 20.3047 11.2027 20.6905 11.4399C20.7874 11.4994 20.8566 11.5499 20.9058 11.5903C20.86 11.6247 20.7978 11.6664 20.714 11.7149C20.3315 11.9358 19.7087 12.1637 18.8447 12.3644C17.1333 12.7621 14.7146 13 12 13C9.28537 13 6.86669 12.7621 5.15527 12.3644C4.29131 12.1637 3.66847 11.9358 3.28605 11.7149C3.20221 11.6664 3.14001 11.6247 3.09421 11.5903C3.14335 11.5499 3.21263 11.4994 3.30953 11.4399C3.69529 11.2027 4.32004 10.9531 5.18056 10.7293C6.67313 10.3413 8.70555 10.074 11 10.0132ZM14.7568 4.17975L13 5.23381V3.47704L14.7568 4.17975ZM21 19.2689V13.7914C20.4982 13.9958 19.9204 14.1678 19.2974 14.3125C17.3895 14.7559 14.8082 15 12 15C9.19179 15 6.61046 14.7559 4.70259 14.3125C4.07962 14.1678 3.5018 13.9958 3 13.7914V19.2678C3.05223 19.3185 3.14886 19.3959 3.31144 19.4916C3.49308 19.5986 3.72311 19.7088 4 19.8188V19C4 17.3431 5.34315 16 7 16C8.65685 16 10 17.3431 10 19V20.9356C10.6471 20.9763 11.3171 20.9987 12.0018 21C12.6851 21.0012 13.354 20.9805 14 20.9412V19C14 17.3431 15.3431 16 17 16C18.6569 16 20 17.3431 20 19V19.8236C20.276 19.7133 20.5055 19.6027 20.6867 19.4954C20.8506 19.3984 20.9477 19.32 21 19.2689ZM8 20.7445C7.28062 20.651 6.60889 20.535 6 20.4022V19C6 18.4477 6.44772 18 7 18C7.55228 18 8 18.4477 8 19V20.7445ZM18 20.4101V19C18 18.4477 17.5523 18 17 18C16.4477 18 16 18.4477 16 19V20.7527C16.7194 20.6596 17.3911 20.5435 18 20.4101Z" fill="#000640"/>
</svg>
