<svg width="24" height="24" viewBox="0 0 24 24" fill="none" xmlns="http://www.w3.org/2000/svg">
<path fill-rule="evenodd" clip-rule="evenodd" d="M6 2C6 1.44772 6.44772 1 7 1H17C17.5523 1 18 1.44772 18 2V3L20 3C20.3344 3 20.6466 3.1671 20.832 3.4453C21.3576 4.23357 21.8898 5.16259 22.2941 6.10608C22.6916 7.0335 23 8.05358 23 9C23 11.0267 21.5404 12.8111 19.0753 12.9972C19.0501 12.9991 19.025 13.0007 19 13.0021V15H20C20.5523 15 21 15.4477 21 16V20C21 21.6569 19.6569 23 18 23H6C4.34315 23 3 21.6569 3 20V16C3 15.4477 3.44772 15 4 15H5L5 13C3.72864 13 2.70164 12.5133 2.00259 11.7269C1.3199 10.9588 1 9.96307 1 9C1 8.05358 1.30839 7.0335 1.70586 6.10608C2.11021 5.16259 2.64244 4.23357 3.16795 3.4453C3.35342 3.16711 3.66564 3.00001 3.99999 3L6 3V2ZM6 5L4.54527 5C4.17292 5.59871 3.81972 6.25091 3.54415 6.89392C3.19161 7.7165 3 8.44642 3 9C3 9.53693 3.1801 10.0412 3.49741 10.3981C3.79836 10.7367 4.27136 11 5 11C5.2327 11 5.46411 10.9593 5.69329 10.8855C6.245 10.7077 6.74747 10.3494 7.1325 9.99962C7.30617 9.84187 7.44574 9.6952 7.5441 9.58495L7.86722 7H7C6.44772 7 6 6.55229 6 6V5ZM9.88278 7L9.53659 9.76955C9.63509 9.90413 9.7808 10.0783 9.97686 10.2526C10.3956 10.6248 11.0428 11 12 11C12.9572 11 13.6044 10.6248 14.0231 10.2526C14.2192 10.0783 14.3649 9.90413 14.4634 9.76955L14.1172 7H9.88278ZM16.1328 7L16.4597 9.61535C16.5548 9.73475 16.6968 9.90019 16.878 10.0762C17.2526 10.44 17.7343 10.7899 18.2652 10.9359C18.4778 10.9944 18.6971 11.02 18.9247 11.0028C20.3538 10.895 21 9.97332 21 9C21 8.44643 20.8084 7.7165 20.4559 6.89392C20.1803 6.25091 19.8271 5.59871 19.4547 5L18 5V6C18 6.55229 17.5523 7 17 7H16.1328ZM15.5438 11.5677C15.4834 11.6273 15.4194 11.6873 15.3519 11.7474C14.6456 12.3752 13.5428 13 12 13C10.4572 13 9.35443 12.3752 8.64814 11.7474C8.56687 11.6752 8.49084 11.6029 8.41989 11.5316C8.06047 11.8515 7.57896 12.2186 7 12.5057V15H17V12.5887C16.396 12.3003 15.9044 11.9096 15.5438 11.5677ZM19 17H5V20C5 20.5523 5.44772 21 6 21H18C18.5523 21 19 20.5523 19 20V17ZM16 5V3H8V5H16Z" fill="#000640"/>
</svg>
