<svg width="24" height="24" viewBox="0 0 24 24" fill="none" xmlns="http://www.w3.org/2000/svg">
<path fill-rule="evenodd" clip-rule="evenodd" d="M7 6C7 3.23858 9.23858 1 12 1C14.7614 1 17 3.23858 17 6V11C17 13.7614 14.7614 16 12 16C9.23858 16 7 13.7614 7 11V6ZM12 3C10.3431 3 9 4.34315 9 6V11C9 12.6569 10.3431 14 12 14C13.6569 14 15 12.6569 15 11V6C15 4.34315 13.6569 3 12 3Z" fill="#000640"/>
<path d="M5 10C5.55228 10 6 10.4477 6 11C6 14.3137 8.68629 17 12 17C15.3137 17 18 14.3137 18 11C18 10.4477 18.4477 10 19 10C19.5523 10 20 10.4477 20 11C20 15.0803 16.9453 18.4471 12.9981 18.9383C12.9994 18.9587 13 18.9793 13 19V21H16C16.5523 21 17 21.4477 17 22C17 22.5523 16.5523 23 16 23H8C7.44772 23 7 22.5523 7 22C7 21.4477 7.44772 21 8 21H11V19C11 18.9793 11.0006 18.9587 11.0019 18.9383C7.05466 18.4471 4 15.0803 4 11C4 10.4477 4.44772 10 5 10Z" fill="#000640"/>
</svg>
