<svg width="24" height="24" viewBox="0 0 24 24" fill="none" xmlns="http://www.w3.org/2000/svg">
<path d="M10.0963 2.64476C10.6922 0.796474 13.3072 0.796472 13.9032 2.64476L15.5608 7.78529H21.4997C22.052 7.78529 22.4997 8.23301 22.4997 8.78529C22.4997 9.33758 22.052 9.78529 21.4997 9.78529H15.5608C14.6927 9.78529 13.9237 9.22529 13.6573 8.39908L11.9997 3.25855L10.3422 8.39908C10.0758 9.22529 9.30678 9.78529 8.43868 9.78529L3.05853 9.78529L7.42424 12.9814C8.11988 13.4907 8.41088 14.3884 8.1463 15.209L6.48184 20.3708L11.409 16.7636C11.8547 16.4374 12.4804 16.5342 12.8066 16.9798C13.1329 17.4254 13.0361 18.0511 12.5905 18.3774L7.66328 21.9846C6.09885 23.1299 3.98333 21.6024 4.57836 19.757L6.24281 14.5952L1.8771 11.3991C0.316796 10.2568 1.12478 7.78529 3.05853 7.78529H8.43868L10.0963 2.64476Z" fill="#000640"/>
<path d="M14.4311 12.5001C14.4311 11.9478 14.8789 11.5001 15.4311 11.5001H21.4997C22.052 11.5001 22.4997 11.9478 22.4997 12.5001C22.4997 13.0524 22.052 13.5001 21.4997 13.5001H15.4311C14.8789 13.5001 14.4311 13.0524 14.4311 12.5001Z" fill="#000640"/>
<path d="M14.4311 16.5001C14.4311 15.9478 14.8789 15.5001 15.4311 15.5001H21.4231C21.9754 15.5001 22.4231 15.9478 22.4231 16.5001C22.4231 17.0524 21.9754 17.5001 21.4231 17.5001H15.4311C14.8789 17.5001 14.4311 17.0524 14.4311 16.5001Z" fill="#000640"/>
<path d="M15.4311 19.5001C14.8789 19.5001 14.4311 19.9478 14.4311 20.5001C14.4311 21.0524 14.8789 21.5001 15.4311 21.5001H21.4997C22.052 21.5001 22.4997 21.0524 22.4997 20.5001C22.4997 19.9478 22.052 19.5001 21.4997 19.5001H15.4311Z" fill="#000640"/>
</svg>
