<svg width="24" height="24" viewBox="0 0 24 24" fill="none" xmlns="http://www.w3.org/2000/svg">
<path d="M9 4C9 3.44772 8.55228 3 8 3C7.44772 3 7 3.44772 7 4V12.3749C6.15882 12.6731 5.36094 13.0102 4.64308 13.405C2.5703 14.5451 1 16.2648 1 19C1 19.5523 1.44772 20 2 20C2.55228 20 3 19.5523 3 19C3 17.2352 3.9297 16.0799 5.60692 15.1575C6.03567 14.9217 6.50224 14.7077 7 14.5096V20C7 20.5523 7.44772 21 8 21C8.55228 21 9 20.5523 9 20V13.8296C9.64048 13.6397 10.3104 13.4606 11 13.2837V20C11 20.5523 11.4477 21 12 21C12.5523 21 13 20.5523 13 20V12.7803C13.6648 12.6128 14.3366 12.4395 15 12.2526V20C15 20.5523 15.4477 21 16 21C16.5523 21 17 20.5523 17 20V11.6251C17.8412 11.3269 18.6391 10.9898 19.3569 10.595C21.4297 9.45493 23 7.73524 23 5C23 4.44772 22.5523 4 22 4C21.4477 4 21 4.44772 21 5C21 6.76476 20.0703 7.92007 18.3931 8.84253C17.9643 9.07835 17.4978 9.29231 17 9.49039V4C17 3.44772 16.5523 3 16 3C15.4477 3 15 3.44772 15 4V10.1704C14.3595 10.3603 13.6896 10.5394 13 10.7163V4C13 3.44772 12.5523 3 12 3C11.4477 3 11 3.44772 11 4V11.2197C10.3352 11.3872 9.66336 11.5605 9 11.7474V4Z" fill="#000640"/>
</svg>
