<svg width="24" height="24" viewBox="0 0 24 24" fill="none" xmlns="http://www.w3.org/2000/svg">
<path fill-rule="evenodd" clip-rule="evenodd" d="M4.42125 1.18449C4.59037 1.06447 4.79262 1 5 1H19C19.2074 1 19.4096 1.06447 19.5787 1.18449C20.3291 1.71703 21.1544 2.39908 21.8022 3.17624C22.4357 3.93613 23 4.90763 23 6C23 7.39617 22.3004 8.71589 21 9.44085V18H22C22.5523 18 23 18.4477 23 19V22C23 22.5523 22.5523 23 22 23H2C1.44772 23 1 22.5523 1 22V19C1 18.4477 1.44772 18 2 18H3V9.51953C1.64271 8.78681 1 7.34811 1 6C1 4.90763 1.56434 3.93613 2.19777 3.17624C2.8456 2.39908 3.67086 1.71703 4.42125 1.18449ZM5 10L5 18H8V15C8 14.0369 8.3199 13.0412 9.00259 12.2731C9.70164 11.4867 10.7286 11 12 11C13.2714 11 14.2984 11.4867 14.9974 12.2731C15.6801 13.0412 16 14.0369 16 15V18H19V10.0021C17.6261 10.0791 16.5255 9.41006 15.8293 8.82315C15.7279 8.73766 15.6326 8.65194 15.5438 8.56773C15.4834 8.62727 15.4194 8.68734 15.3519 8.74741C14.6456 9.37523 13.5428 10 12 10C10.4572 10 9.35443 9.37523 8.64814 8.74741C8.56687 8.67517 8.49084 8.60293 8.41989 8.53161C8.32797 8.61341 8.22945 8.69706 8.1247 8.78087C7.42177 9.34321 6.32803 10 5 10ZM7.70195 6.39741C7.70234 6.39691 7.70225 6.39701 7.70195 6.39741V6.39741ZM7.54196 6.58688C7.54199 6.58669 7.54193 6.58707 7.54196 6.58688C7.56353 6.45259 7.59342 6.29152 7.62817 6.11484C7.69781 5.76076 7.79337 5.3118 7.89726 4.82768C7.9153 4.74361 7.93361 4.65841 7.9521 4.57233C8.06172 4.06213 8.17798 3.52103 8.28525 3H5.32491C4.73805 3.43697 4.16776 3.93651 3.73403 4.45684C3.22353 5.06925 3 5.59237 3 6C3 6.88552 3.46833 7.64912 4.29277 7.90156C4.49125 7.96233 4.7254 8 5 8C5.67197 8 6.32823 7.65679 6.8753 7.21913C7.13862 7.00848 7.35125 6.79602 7.49722 6.63678C7.51295 6.61961 7.52793 6.60258 7.54196 6.58688ZM10.3261 3C10.1949 3.6551 10.0444 4.35521 9.90848 4.98784C9.88959 5.07573 9.87098 5.16233 9.85274 5.24732C9.7483 5.73403 9.65636 6.16632 9.59058 6.50079C9.57028 6.60399 9.55308 6.69484 9.53908 6.77294C9.63754 6.90706 9.78245 7.07978 9.97686 7.25259C10.3956 7.62478 11.0428 8 12 8C12.9572 8 13.6044 7.62478 14.0231 7.25259C14.2044 7.09145 14.3427 6.9304 14.4403 6.80065L13.6802 3H10.3261ZM15.7198 3L16.4372 6.5868C16.462 6.61857 16.491 6.65469 16.524 6.69427C16.6631 6.86117 16.8657 7.08101 17.1184 7.29401C17.6421 7.73548 18.264 8.05271 18.9247 8.00284C19.2085 7.98142 19.456 7.92798 19.6697 7.8532C20.5512 7.54474 21 6.81794 21 6C21 5.59237 20.7765 5.06925 20.266 4.45684C19.8322 3.93651 19.2619 3.43697 18.6751 3H15.7198ZM21 20H3V21H21V20ZM14 18V15C14 14.4631 13.8199 13.9588 13.5026 13.6019C13.2016 13.2633 12.7286 13 12 13C11.2714 13 10.7984 13.2633 10.4974 13.6019C10.1801 13.9588 10 14.4631 10 15V18H14Z" fill="#000640"/>
</svg>
