<svg width="24" height="24" viewBox="0 0 24 24" fill="none" xmlns="http://www.w3.org/2000/svg">
<path fill-rule="evenodd" clip-rule="evenodd" d="M6 2C6 1.44772 6.44772 1 7 1H17C17.5523 1 18 1.44772 18 2V3H20C20.3344 3 20.6466 3.1671 20.832 3.4453C21.3576 4.23357 21.8898 5.16259 22.2941 6.10608C22.6916 7.0335 23 8.05358 23 9C23 10.3962 22.3004 11.7159 21 12.4409V20C21 21.6569 19.6569 23 18 23H6C4.34315 23 3 21.6569 3 20V12.5195C1.64271 11.7868 1 10.3481 1 9C1 8.05358 1.30839 7.0335 1.70586 6.10608C2.11021 5.16259 2.64244 4.23357 3.16795 3.4453C3.35342 3.1671 3.66565 3 4 3H6V2ZM6 5H4.54527C4.17292 5.59871 3.81972 6.25091 3.54415 6.89392C3.19161 7.7165 3 8.44642 3 9C3 9.88552 3.46833 10.6491 4.29277 10.9016C4.49124 10.9623 4.72539 11 5 11C5.67197 11 6.32823 10.6568 6.87531 10.2191C7.13862 10.0085 7.35125 9.79602 7.49722 9.63678C7.51379 9.6187 7.52942 9.60139 7.5441 9.58494L7.86722 7H7C6.44772 7 6 6.55228 6 6V5ZM9.88278 7L9.53659 9.76955C9.63509 9.90413 9.7808 10.0783 9.97686 10.2526C10.3956 10.6248 11.0428 11 12 11C12.9572 11 13.6044 10.6248 14.0231 10.2526C14.2192 10.0783 14.3649 9.90413 14.4634 9.76955L14.1172 7H9.88278ZM16.1328 7L16.4597 9.61534C16.4791 9.63968 16.5005 9.6661 16.524 9.69427C16.6631 9.86117 16.8657 10.081 17.1184 10.294C17.6421 10.7355 18.264 11.0527 18.9247 11.0028C19.2085 10.9814 19.456 10.928 19.6697 10.8532C20.5512 10.5447 21 9.81794 21 9C21 8.44642 20.8084 7.7165 20.4559 6.89392C20.1803 6.25091 19.8271 5.59871 19.4547 5H18V6C18 6.55228 17.5523 7 17 7H16.1328ZM16.3313 9.44411C16.3309 9.44359 16.3309 9.44366 16.3313 9.44411V9.44411ZM15.5438 11.5677C15.4834 11.6273 15.4194 11.6873 15.3519 11.7474C14.6456 12.3752 13.5428 13 12 13C10.4572 13 9.35443 12.3752 8.64814 11.7474C8.56687 11.6752 8.49084 11.6029 8.41989 11.5316C8.32797 11.6134 8.22945 11.6971 8.1247 11.7809C7.42177 12.3432 6.32803 13 5 13V20C5 20.5523 5.44771 21 6 21H8V18C8 15.7909 9.79086 14 12 14C14.2091 14 16 15.7909 16 18V21H18C18.5523 21 19 20.5523 19 20V13.0021C17.6261 13.0791 16.5255 12.4101 15.8293 11.8231C15.7279 11.7377 15.6326 11.6519 15.5438 11.5677ZM14 21V18C14 16.8954 13.1046 16 12 16C10.8954 16 10 16.8954 10 18V21H14ZM7.70195 9.39741C7.70234 9.3969 7.70225 9.39701 7.70195 9.39741V9.39741ZM16 5V3H8V5H16Z" fill="#000640"/>
</svg>
