<svg width="24" height="24" viewBox="0 0 24 24" fill="none" xmlns="http://www.w3.org/2000/svg">
<g clip-path="url(#clip0_1253_5115)">
<path d="M7 15C6.44772 15 6 15.4477 6 16C6 16.5523 6.44772 17 7 17H17C17.5523 17 18 16.5523 18 16C18 15.4477 17.5523 15 17 15H7Z" fill="#000640"/>
<path d="M5 10C5 9.44771 5.44772 9 6 9H9C9.55229 9 10 9.44771 10 10C10 10.5523 9.55229 11 9 11H6C5.44772 11 5 10.5523 5 10Z" fill="#000640"/>
<path d="M15 9C14.4477 9 14 9.44771 14 10C14 10.5523 14.4477 11 15 11H18C18.5523 11 19 10.5523 19 10C19 9.44771 18.5523 9 18 9H15Z" fill="#000640"/>
<path fill-rule="evenodd" clip-rule="evenodd" d="M12 0C5.37258 0 0 5.37258 0 12C0 18.6274 5.37258 24 12 24C18.6274 24 24 18.6274 24 12C24 5.37258 18.6274 0 12 0ZM2 12C2 6.47715 6.47715 2 12 2C17.5228 2 22 6.47715 22 12C22 17.5228 17.5228 22 12 22C6.47715 22 2 17.5228 2 12Z" fill="#000640"/>
</g>
<defs>
<clipPath id="clip0_1253_5115">
<rect width="24" height="24" fill="white"/>
</clipPath>
</defs>
</svg>
