<svg width="24" height="24" viewBox="0 0 24 24" fill="none" xmlns="http://www.w3.org/2000/svg">
<path fill-rule="evenodd" clip-rule="evenodd" d="M12.5146 2.14251C12.1979 1.9525 11.8023 1.9525 11.4856 2.14251L1.4856 8.14251C1.19511 8.3168 1.01262 8.6263 1.00071 8.96485C0.988805 9.30341 1.14911 9.62497 1.42663 9.81923L11.4266 16.8192C11.771 17.0603 12.2292 17.0603 12.5736 16.8192L22.5736 9.81923C22.8511 9.62497 23.0114 9.30341 22.9995 8.96485C22.9876 8.6263 22.8051 8.3168 22.5146 8.14251L12.5146 2.14251ZM12.0001 14.7793L3.83613 9.06457L12.0001 4.16619L20.1641 9.06457L12.0001 14.7793Z" fill="#000640"/>
<path d="M2.57355 13.1808C2.1211 12.864 1.49757 12.9741 1.18085 13.4265C0.864139 13.879 0.974174 14.5025 1.42662 14.8192L11.4266 21.8192C11.7709 22.0602 12.2292 22.0602 12.5735 21.8192L22.5735 14.8192C23.026 14.5025 23.136 13.879 22.8193 13.4265C22.5026 12.9741 21.8791 12.864 21.4266 13.1808L12.0001 19.7793L2.57355 13.1808Z" fill="#000640"/>
</svg>
