<svg width="24" height="24" viewBox="0 0 24 24" fill="none" xmlns="http://www.w3.org/2000/svg">
<circle cx="8" cy="20" r="2" stroke="#000640" stroke-width="2"/>
<path d="M2 9L1.14251 8.4855C0.957149 8.79444 0.952294 9.17919 1.1298 9.4927C1.30731 9.80621 1.63973 10 2 10V9ZM5 4L5.85749 4.5145C5.95074 4.35908 6 4.18124 6 4H5ZM5 2V1C4.44772 1 4 1.44772 4 2H5ZM19 2H20C20 1.44772 19.5523 1 19 1V2ZM19 4H18C18 4.18124 18.0493 4.35908 18.1425 4.5145L19 4ZM22 9V10C22.3603 10 22.6927 9.80621 22.8702 9.4927C23.0477 9.17919 23.0429 8.79444 22.8575 8.4855L22 9ZM16 22C16 22.5523 16.4477 23 17 23C17.5523 23 18 22.5523 18 22H16ZM6 20H6.5V18H6V20ZM4 8H2V10H4V8ZM2.85749 9.5145L5.85749 4.5145L4.14251 3.4855L1.14251 8.4855L2.85749 9.5145ZM6 4V2H4V4H6ZM5 3H19V1H5V3ZM18 2V4H20V2H18ZM18.1425 4.5145L21.1425 9.5145L22.8575 8.4855L19.8575 3.4855L18.1425 4.5145ZM22 8H20V10H22V8ZM18 18H17V20H18V18ZM17 18H9.5V20H17V18ZM16 19V22H18V19H16ZM4 10H20V8H4V10ZM19 9V13.5H21V9H19ZM19 13.5V17H21V13.5H19ZM5 17V13.5H3V17H5ZM5 13.5V9H3V13.5H5ZM20 12.5H4V14.5H20V12.5ZM18 20C19.6569 20 21 18.6569 21 17H19C19 17.5523 18.5523 18 18 18V20ZM6 18C5.44772 18 5 17.5523 5 17H3C3 18.6569 4.34315 20 6 20V18Z" fill="#000640"/>
</svg>
