<svg width="24" height="24" viewBox="0 0 24 24" fill="none" xmlns="http://www.w3.org/2000/svg">
<circle cx="8" cy="20" r="2" stroke="#000640" stroke-width="2"/>
<path d="M2 7H1C1 7.55228 1.44772 8 2 8V7ZM22 7V8C22.5523 8 23 7.55228 23 7H22ZM15 22C15 22.5523 15.4477 23 16 23C16.5523 23 17 22.5523 17 22H15ZM22 14.5C22.5523 14.5 23 14.0523 23 13.5C23 12.9477 22.5523 12.5 22 12.5V14.5ZM6 20H6.5V18H6V20ZM4 6H2V8H4V6ZM3 7V4H1V7H3ZM4 3H20V1H4V3ZM21 4V7H23V4H21ZM22 6H18V8H22V6ZM16 18H9.5V20H16V18ZM15 19V22H17V19H15ZM4 8H18V6H4V8ZM17 7V13.5H19V7H17ZM17 13.5V17H19V13.5H17ZM5 17V13.5H3V17H5ZM5 13.5V7H3V13.5H5ZM18 12.5H4V14.5H18V12.5ZM18 14.5H22V12.5H18V14.5ZM16 20C17.6569 20 19 18.6569 19 17H17C17 17.5523 16.5523 18 16 18V20ZM3 4C3 3.44772 3.44772 3 4 3V1C2.34315 1 1 2.34315 1 4H3ZM20 3C20.5523 3 21 3.44772 21 4H23C23 2.34315 21.6569 1 20 1V3ZM6 18C5.44772 18 5 17.5523 5 17H3C3 18.6569 4.34315 20 6 20V18Z" fill="#000640"/>
</svg>
