<svg width="24" height="24" viewBox="0 0 24 24" fill="none" xmlns="http://www.w3.org/2000/svg">
<path fill-rule="evenodd" clip-rule="evenodd" d="M12 8H14.5858L19.2929 3.29289C19.4804 3.10536 19.7348 3 20 3H22C22.5523 3 23 3.44772 23 4C23 4.55228 22.5523 5 22 5H20.4142L17.4142 8H20C20.5523 8 21 8.44772 21 9V11C21 13.3279 19.4091 15.2842 17.2553 15.8411L17.8349 16.4207C18.33 16.1524 18.8972 16 19.5 16C21.433 16 23 17.567 23 19.5C23 21.433 21.433 23 19.5 23C17.567 23 16 21.433 16 19.5C16 18.8973 16.1524 18.3301 16.4207 17.8349L14.5857 16H9.41421L7.57931 17.8349C7.84763 18.3301 8 18.8972 8 19.5C8 21.433 6.433 23 4.5 23C2.567 23 1 21.433 1 19.5C1 17.567 2.567 16 4.5 16C5.10276 16 5.66993 16.1524 6.1651 16.4207L6.74468 15.8411C4.59085 15.2842 3 13.3279 3 11V9C3 6.74325 3.84946 4.73633 5.29289 3.29289C6.73633 1.84946 8.74325 1 11 1C11.5523 1 12 1.44772 12 2V8ZM10 6.58579L7.47745 4.06324C8.19763 3.56273 9.05059 3.21707 10 3.07392V6.58579ZM6.06324 5.47745L8.58579 8H5.07392C5.21707 7.05059 5.56273 6.19763 6.06324 5.47745ZM5 11V10H12.5858L8.58579 14H8C6.34315 14 5 12.6569 5 11ZM11.4142 14L15.4142 10H19V11C19 12.6569 17.6569 14 16 14H11.4142ZM4.5 18C3.67157 18 3 18.6716 3 19.5C3 20.3284 3.67157 21 4.5 21C5.32843 21 6 20.3284 6 19.5C6 18.6716 5.32843 18 4.5 18ZM19.5 18C18.6716 18 18 18.6716 18 19.5C18 20.3284 18.6716 21 19.5 21C20.3284 21 21 20.3284 21 19.5C21 18.6716 20.3284 18 19.5 18Z" fill="#000640"/>
</svg>
