<svg width="24" height="24" viewBox="0 0 24 24" fill="none" xmlns="http://www.w3.org/2000/svg">
<path fill-rule="evenodd" clip-rule="evenodd" d="M13.0542 5.52107C15.1045 3.49006 18.413 3.496 20.4559 5.5389C22.1916 7.27466 22.4569 9.92407 21.2517 11.9391C22.3152 12.7621 23 14.0511 23 15.5C23 17.9853 20.9853 20 18.5 20H5.5C3.01472 20 1 17.9853 1 15.5C1 13.5386 2.25419 11.8714 4.00454 11.2547C4.1335 7.77854 6.99227 5.00001 10.5 5.00001C11.4068 5.00001 12.2701 5.18568 13.0542 5.52107ZM14.8148 6.63863C16.0858 5.69579 17.8892 5.80062 19.0417 6.95312C20.1683 8.07978 20.2938 9.82854 19.418 11.0937C19.1216 11.0323 18.8146 11 18.5 11H16.9811C16.8493 9.268 16.0387 7.72573 14.8148 6.63863ZM6 11.5C6 9.01473 8.01472 7.00001 10.5 7.00001C12.9853 7.00001 15 9.01473 15 11.5V12C15 12.5523 15.4477 13 16 13H18.5C19.8807 13 21 14.1193 21 15.5C21 16.8807 19.8807 18 18.5 18H5.5C4.11929 18 3 16.8807 3 15.5C3 14.2414 3.931 13.1985 5.1416 13.0254C5.63417 12.9549 6 12.533 6 12.0355V11.5Z" fill="#000640"/>
</svg>
