<svg width="24" height="24" viewBox="0 0 24 24" fill="none" xmlns="http://www.w3.org/2000/svg">
<path d="M14 21C14 21.4045 14.2436 21.7691 14.6173 21.9239C14.991 22.0787 15.4211 21.9931 15.7071 21.7071L20.7071 16.7071C21.0976 16.3166 21.0976 15.6834 20.7071 15.2929C20.3166 14.9024 19.6834 14.9024 19.2929 15.2929L16 18.5858L16 3C16 2.44772 15.5523 2 15 2C14.4477 2 14 2.44772 14 3L14 21Z" fill="#000640"/>
<path d="M3.29289 7.29292C2.90237 7.68345 2.90237 8.31661 3.29289 8.70714C3.68342 9.09766 4.31658 9.09766 4.70711 8.70714L8 5.41425L8 21C8 21.5523 8.44771 22 9 22C9.55228 22 10 21.5523 10 21L10 3.00003C10 2.59557 9.75636 2.23093 9.38268 2.07615C9.00901 1.92137 8.57889 2.00693 8.29289 2.29292L3.29289 7.29292Z" fill="#000640"/>
</svg>
