<svg width="24" height="24" viewBox="0 0 24 24" fill="none" xmlns="http://www.w3.org/2000/svg">
<path d="M16.7071 3.29289C16.3166 2.90237 15.6834 2.90237 15.2929 3.29289C14.9024 3.68342 14.9024 4.31658 15.2929 4.70711L18.5858 8H3C2.44772 8 2 8.44772 2 9C2 9.55228 2.44772 10 3 10H21C21.4045 10 21.7691 9.75636 21.9239 9.38268C22.0787 9.00901 21.9931 8.57889 21.7071 8.29289L16.7071 3.29289Z" fill="#000640"/>
<path d="M3.00003 14C2.59557 14 2.23093 14.2436 2.07615 14.6173C1.92137 14.991 2.00692 15.4211 2.29292 15.7071L7.29292 20.7071C7.68345 21.0976 8.31661 21.0976 8.70714 20.7071C9.09766 20.3166 9.09766 19.6834 8.70714 19.2929L5.41424 16H21C21.5523 16 22 15.5523 22 15C22 14.4477 21.5523 14 21 14H3.00003Z" fill="#000640"/>
</svg>
