<svg width="24" height="24" viewBox="0 0 24 24" fill="none" xmlns="http://www.w3.org/2000/svg">
<path fill-rule="evenodd" clip-rule="evenodd" d="M7.0013 3C6.44902 3 6.0013 3.44772 6.0013 4V4.51843C6.1867 4.6468 6.46101 4.81603 6.83256 4.99403C7.68152 5.40075 9.05391 5.86091 11.0576 5.97393C11.3576 5.99085 11.672 6 12.0011 6C13.0955 6 14.0276 5.8988 14.8109 5.74685C16.1113 5.49459 17.0106 5.10068 17.5684 4.78738C17.746 4.68763 17.8897 4.59564 18.0013 4.51838L18.0013 4C18.0013 3.44771 17.5536 3 17.0013 3H7.0013ZM20.0013 4.5072L20.0013 3.99999C20.0013 2.34314 18.6582 1 17.0013 1H7.0013C5.34445 1 4.0013 2.34315 4.0013 4V4.50699C2.56985 5.74469 1.881 7.87477 1.50739 10.1579C1.0859 12.7337 1.01627 15.8555 1.00393 18.996C0.997399 20.6577 2.3463 22 4.00131 22H5.00131C5.00131 22.5523 5.44902 23 6.00131 23H18.0013C18.5536 23 19.0013 22.5523 19.0013 22H20.0013C21.6563 22 23.0052 20.6577 22.9987 18.996C22.9864 15.8555 22.9167 12.7337 22.4952 10.1579C22.1216 7.87477 21.4328 5.7449 20.0013 4.5072ZM19.0013 20V11C19.0013 10.4477 18.5536 10 18.0013 10C17.449 10 17.0013 10.4477 17.0013 11V21H7.00131V11C7.00131 10.4477 6.55359 10 6.00131 10C5.44902 10 5.00131 10.4477 5.00131 11V20H4.00131C3.44719 20 3.00176 19.5512 3.00391 19.0039C3.01629 15.8537 3.08854 12.8801 3.48114 10.4809C3.81017 8.47015 4.33305 7.0809 5.04355 6.28362C5.28834 6.44181 5.59525 6.61893 5.96844 6.79772C6.89542 7.24182 8.22017 7.69087 10.0013 7.89148V15C10.0013 15.5523 10.449 16 11.0013 16H15.0013C15.5536 16 16.0013 15.5523 16.0013 15V7.52775C17.1092 7.24154 17.9484 6.86785 18.5478 6.53116C18.7006 6.44536 18.8375 6.36213 18.959 6.28358C19.6696 7.08086 20.1924 8.47012 20.5215 10.4809C20.9141 12.8801 20.9863 15.8537 20.9987 19.0039C21.0009 19.5512 20.5554 20 20.0013 20H19.0013ZM14.0013 7.89144C13.3887 7.96045 12.7228 7.99999 12.0013 8V14H14.0013V7.89144Z" fill="#000640"/>
</svg>
