<svg width="24" height="24" viewBox="0 0 24 24" fill="none" xmlns="http://www.w3.org/2000/svg">
<path fill-rule="evenodd" clip-rule="evenodd" d="M22.9864 2.16441C23.0395 1.84585 22.9355 1.52127 22.7071 1.29291C22.4787 1.06454 22.1542 0.960526 21.8356 1.01362L15.8356 2.01362C15.5926 2.05412 15.373 2.18292 15.2191 2.37532L7.91708 11.5029L6.70711 10.2929C6.31658 9.90238 5.68342 9.90238 5.29289 10.2929C4.90237 10.6834 4.90237 11.3166 5.29289 11.7071L6.58582 13L1.29289 18.293C0.902369 18.6835 0.902369 19.3167 1.29289 19.7072L4.29289 22.7072C4.68342 23.0977 5.31658 23.0977 5.70711 22.7072L11 17.4143L12.2929 18.7071C12.6834 19.0976 13.3166 19.0976 13.7071 18.7071C14.0976 18.3166 14.0976 17.6834 13.7071 17.2929L12.4971 16.0829L21.6247 8.78088C21.8171 8.62697 21.9459 8.40744 21.9864 8.16441L22.9864 2.16441ZM9.58582 16L8.00003 14.4143L7.41421 15.0001L9 16.5859L9.58582 16ZM11.0742 14.66L9.34 12.9258L16.5418 3.9235L20.7834 3.21656L20.0765 7.45818L11.0742 14.66ZM6 16.4143L7.58579 18.0001L7 18.5859L5.41421 17.0001L6 16.4143ZM4 18.4143L5.58579 20.0001L5 20.5859L3.41421 19.0001L4 18.4143Z" fill="#000640"/>
</svg>
