<svg width="24" height="24" viewBox="0 0 24 24" fill="none" xmlns="http://www.w3.org/2000/svg">
<path fill-rule="evenodd" clip-rule="evenodd" d="M6 17.0002V21C6 21.5523 6.44772 22 7 22C7.55228 22 8 21.5523 8 21V18.9363C8.97089 19.4717 10.3462 20 12 20C13.5767 20 15.0791 19.7438 16.2062 18.9387C17.4006 18.0856 18 16.7466 18 15C18 13.0982 17.0205 11.8023 15.78 11.027C15.5592 10.889 15.3299 10.7669 15.0956 10.6597C16.2453 9.77705 17 8.5075 17 7C17 4.04188 14.0939 2 11 2C9.53999 2 8.21264 2.25574 7.27402 3.15161C6.32523 4.0572 6 5.39695 6 7V17.0002C6 17.0001 6 17.0003 6 17.0002ZM8 7C8 5.60305 8.29406 4.9428 8.65491 4.59839C9.02594 4.24426 9.69858 4 11 4C13.4289 4 15 5.53984 15 7C15 8.46016 13.4289 10 11 10H10C9.44772 10 9 10.4477 9 11C9 11.5523 9.44772 12 10 12H12C12.863 12 13.9169 12.221 14.72 12.723C15.4795 13.1977 16 13.9018 16 15C16 16.2534 15.5994 16.9144 15.0438 17.3113C14.4209 17.7562 13.4233 18 12 18C10.7238 18 9.64507 17.574 8.87114 17.1318C8.49628 16.9176 8.20107 16.7041 8 16.5443V7Z" fill="#000640"/>
</svg>
