<svg width="24" height="24" viewBox="0 0 24 24" fill="none" xmlns="http://www.w3.org/2000/svg">
<path d="M3 4C3 3.44772 3.44772 3 4 3H18C18.5523 3 19 3.44772 19 4C19 4.55229 18.5523 5 18 5L15.158 5L16.8355 18.0749C16.9256 18.7775 17.4943 19.1537 17.9742 19.0921C18.454 19.0306 18.9093 18.523 18.8192 17.8204C18.7489 17.2726 19.136 16.7715 19.6838 16.7012C20.2316 16.631 20.7327 17.0181 20.8029 17.5659C21.0155 19.223 19.94 20.8563 18.2287 21.0759C16.5173 21.2954 15.0643 19.9865 14.8517 18.3294L13.1416 5L9 5V20C9 20.5523 8.55228 21 8 21C7.44772 21 7 20.5523 7 20V5L4 5C3.44772 5 3 4.55228 3 4Z" fill="#000640"/>
</svg>
