<svg width="24" height="24" viewBox="0 0 24 24" fill="none" xmlns="http://www.w3.org/2000/svg">
<path fill-rule="evenodd" clip-rule="evenodd" d="M17.2425 3.02985C17.7783 3.1638 18.1041 3.70673 17.9701 4.24253L17.0308 8H21C21.5523 8 22 8.44772 22 9C22 9.55228 21.5523 10 21 10H16.5308L15.5308 14H19C19.5523 14 20 14.4477 20 15C20 15.5523 19.5523 16 19 16H15.0308L13.9701 20.2425C13.8362 20.7783 13.2933 21.1041 12.7575 20.9701C12.2217 20.8362 11.8959 20.2933 12.0299 19.7575L12.9692 16H9.03078L7.97015 20.2425C7.8362 20.7783 7.29327 21.1041 6.75747 20.9701C6.22168 20.8362 5.89592 20.2933 6.02986 19.7575L6.96923 16H3C2.44772 16 2 15.5523 2 15C2 14.4477 2.44772 14 3 14H7.46923L8.46923 10H5C4.44772 10 4 9.55228 4 9C4 8.44772 4.44772 8 5 8H8.96923L10.0299 3.75746C10.1638 3.22166 10.7067 2.8959 11.2425 3.02985C11.7783 3.1638 12.1041 3.70673 11.9701 4.24253L11.0308 8H14.9692L16.0299 3.75746C16.1638 3.22166 16.7067 2.8959 17.2425 3.02985ZM10.5308 10L9.53078 14H13.4692L14.4692 10H10.5308Z" fill="#000640"/>
</svg>
