<svg width="24" height="24" viewBox="0 0 24 24" fill="none" xmlns="http://www.w3.org/2000/svg">
<path fill-rule="evenodd" clip-rule="evenodd" d="M17.5 15C19.433 15 21 13.433 21 11.5C21 9.567 19.433 8 17.5 8C16.6656 8 15.9017 8.29076 15.3004 8.77737C14.871 9.12478 14.2414 9.05837 13.894 8.62905C13.5466 8.19972 13.613 7.57004 14.0423 7.22263C14.9867 6.45844 16.1912 6 17.5 6C20.5376 6 23 8.46243 23 11.5C23 14.5376 20.5376 17 17.5 17C16.1912 17 14.9867 16.5416 14.0423 15.7774C13.8563 15.6268 13.6537 15.3929 13.4788 15.18C13.2856 14.9449 13.0606 14.6529 12.8187 14.3297C12.3357 13.6847 11.7597 12.8811 11.1919 12.0891L11.1873 12.0826C10.6141 11.2831 10.0495 10.4956 9.58034 9.86899C9.34557 9.55544 9.14111 9.29079 8.9757 9.08942C8.89298 8.98872 8.82499 8.90991 8.77145 8.85169C8.72064 8.79644 8.69787 8.77598 8.69787 8.77598L8.69962 8.77737C8.09828 8.29076 7.33445 8 6.5 8C4.567 8 3 9.567 3 11.5C3 13.433 4.567 15 6.5 15C7.33445 15 8.09828 14.7092 8.69962 14.2226C9.12895 13.8752 9.75862 13.9416 10.106 14.371C10.4534 14.8003 10.387 15.43 9.95771 15.7774C9.01333 16.5416 7.80885 17 6.5 17C3.46243 17 1 14.5376 1 11.5C1 8.46243 3.46243 6 6.5 6C7.80885 6 9.01333 6.45844 9.95771 7.22263C10.1437 7.37316 10.3463 7.6071 10.5212 7.81996C10.7144 8.05515 10.9394 8.34714 11.1813 8.67029C11.6642 9.3153 12.2403 10.1188 12.8081 10.9109L12.8127 10.9174C13.3859 11.7169 13.9505 12.5044 14.4197 13.131C14.6544 13.4446 14.8589 13.7092 15.0243 13.9106C15.107 14.0113 15.175 14.0901 15.2285 14.1483C15.2794 14.2036 15.3021 14.224 15.3021 14.224L15.3004 14.2226C15.9017 14.7092 16.6656 15 17.5 15Z" fill="#000640"/>
</svg>
