<svg width="24" height="24" viewBox="0 0 24 24" fill="none" xmlns="http://www.w3.org/2000/svg">
<path d="M2.70711 5.70711L5.70711 2.70711C6.09763 2.31658 6.09763 1.68342 5.70711 1.29289C5.31658 0.902369 4.68342 0.902369 4.29289 1.29289L1.29289 4.29289C0.902369 4.68342 0.902369 5.31658 1.29289 5.70711C1.68342 6.09763 2.31658 6.09763 2.70711 5.70711Z" fill="#000640"/>
<path d="M18.2929 1.29289C18.6834 0.902369 19.3166 0.902369 19.7071 1.29289L22.7071 4.29289C23.0976 4.68342 23.0976 5.31658 22.7071 5.70711C22.3166 6.09763 21.6834 6.09763 21.2929 5.70711L18.2929 2.70711C17.9024 2.31658 17.9024 1.68342 18.2929 1.29289Z" fill="#000640"/>
<path d="M13 7C13 6.44772 12.5523 6 12 6C11.4477 6 11 6.44772 11 7V12C11 12.5523 11.4477 13 12 13H17C17.5523 13 18 12.5523 18 12C18 11.4477 17.5523 11 17 11H13V7Z" fill="#000640"/>
<path fill-rule="evenodd" clip-rule="evenodd" d="M12 2C6.47715 2 2 6.47715 2 12C2 15.0859 3.39839 17.8447 5.5928 19.678L4.22268 21.3709C3.87523 21.8002 3.94159 22.4299 4.3709 22.7773C4.8002 23.1248 5.42988 23.0584 5.77732 22.6291L7.2543 20.8041C8.66687 21.567 10.2839 22 12 22C13.7234 22 15.347 21.5633 16.7639 20.7943L18.2172 22.6223C18.561 23.0546 19.19 23.1265 19.6223 22.7828C20.0546 22.439 20.1265 21.81 19.7828 21.3777L18.4217 19.6658C20.6078 17.8326 22 15.079 22 12C22 6.47715 17.5228 2 12 2ZM4 12C4 7.58172 7.58172 4 12 4C16.4183 4 20 7.58172 20 12C20 14.7727 18.5902 17.2166 16.4437 18.6534C15.1731 19.504 13.646 20 12 20C10.3629 20 8.84347 19.5093 7.57698 18.6673C5.41886 17.2324 4 14.7817 4 12Z" fill="#000640"/>
</svg>
