<svg width="24" height="24" viewBox="0 0 24 24" fill="none" xmlns="http://www.w3.org/2000/svg">
<path d="M21 13C21.5523 13 22 12.5523 22 12C22 11.4477 21.5523 11 21 11H13V3C13 2.44772 12.5523 2 12 2C11.4477 2 11 2.44772 11 3V11H3C2.44772 11 2 11.4477 2 12C2 12.5523 2.44772 13 3 13H11V21C11 21.5523 11.4477 22 12 22C12.5523 22 13 21.5523 13 21V13H21Z" fill="#000640"/>
<path d="M10 3.00001C10 3.55229 9.55229 4.00001 9 4.00001C8.44772 4.00001 8 3.55229 8 3.00001C8 2.44772 8.44772 2.00001 9 2.00001C9.55229 2.00001 10 2.44772 10 3.00001Z" fill="#000640"/>
<path d="M4 6.00001C4 6.55229 3.55229 7.00001 3 7.00001C2.44772 7.00001 2 6.55229 2 6.00001C2 5.44772 2.44772 5.00001 3 5.00001C3.55229 5.00001 4 5.44772 4 6.00001Z" fill="#000640"/>
<path d="M4 15C4 15.5523 3.55229 16 3 16C2.44772 16 2 15.5523 2 15C2 14.4477 2.44772 14 3 14C3.55229 14 4 14.4477 4 15Z" fill="#000640"/>
<path d="M3 22C3.55229 22 4 21.5523 4 21C4 20.4477 3.55229 20 3 20C2.44772 20 2 20.4477 2 21C2 21.5523 2.44772 22 3 22Z" fill="#000640"/>
<path d="M7 21C7 21.5523 6.55229 22 6 22C5.44772 22 5 21.5523 5 21C5 20.4477 5.44772 20 6 20C6.55229 20 7 20.4477 7 21Z" fill="#000640"/>
<path d="M10 21C10 21.5523 9.55229 22 9 22C8.44772 22 8 21.5523 8 21C8 20.4477 8.44772 20 9 20C9.55229 20 10 20.4477 10 21Z" fill="#000640"/>
<path d="M3 19C3.55229 19 4 18.5523 4 18C4 17.4477 3.55229 17 3 17C2.44772 17 2 17.4477 2 18C2 18.5523 2.44772 19 3 19Z" fill="#000640"/>
<path d="M3 10C3.55229 10 4 9.55229 4 9.00001C4 8.44772 3.55229 8.00001 3 8.00001C2.44772 8.00001 2 8.44772 2 9.00001C2 9.55229 2.44772 10 3 10Z" fill="#000640"/>
<path d="M6 4.00001C6.55229 4.00001 7 3.55229 7 3.00001C7 2.44772 6.55229 2.00001 6 2.00001C5.44772 2.00001 5 2.44772 5 3.00001C5 3.55229 5.44772 4.00001 6 4.00001Z" fill="#000640"/>
<path d="M4 3.00001C4 3.55229 3.55229 4.00001 3 4.00001C2.44772 4.00001 2 3.55229 2 3.00001C2 2.44772 2.44772 2.00001 3 2.00001C3.55229 2.00001 4 2.44772 4 3.00001Z" fill="#000640"/>
<path d="M22 3C22 3.55228 21.5523 4 21 4C20.4477 4 20 3.55228 20 3C20 2.44772 20.4477 2 21 2C21.5523 2 22 2.44772 22 3Z" fill="#000640"/>
<path d="M22 6C22 6.55228 21.5523 7 21 7C20.4477 7 20 6.55228 20 6C20 5.44772 20.4477 5 21 5C21.5523 5 22 5.44772 22 6Z" fill="#000640"/>
<path d="M21 10C21.5523 10 22 9.55229 22 9C22 8.44771 21.5523 8 21 8C20.4477 8 20 8.44771 20 9C20 9.55229 20.4477 10 21 10Z" fill="#000640"/>
<path d="M21 16C21.5523 16 22 15.5523 22 15C22 14.4477 21.5523 14 21 14C20.4477 14 20 14.4477 20 15C20 15.5523 20.4477 16 21 16Z" fill="#000640"/>
<path d="M21 19C21.5523 19 22 18.5523 22 18C22 17.4477 21.5523 17 21 17C20.4477 17 20 17.4477 20 18C20 18.5523 20.4477 19 21 19Z" fill="#000640"/>
<path d="M21 22C21.5523 22 22 21.5523 22 21C22 20.4477 21.5523 20 21 20C20.4477 20 20 20.4477 20 21C20 21.5523 20.4477 22 21 22Z" fill="#000640"/>
<path d="M18 22C18.5523 22 19 21.5523 19 21C19 20.4477 18.5523 20 18 20C17.4477 20 17 20.4477 17 21C17 21.5523 17.4477 22 18 22Z" fill="#000640"/>
<path d="M15 22C15.5523 22 16 21.5523 16 21C16 20.4477 15.5523 20 15 20C14.4477 20 14 20.4477 14 21C14 21.5523 14.4477 22 15 22Z" fill="#000640"/>
<path d="M19 3C19 3.55228 18.5523 4 18 4C17.4477 4 17 3.55228 17 3C17 2.44772 17.4477 2 18 2C18.5523 2 19 2.44772 19 3Z" fill="#000640"/>
<path d="M16 3C16 3.55228 15.5523 4 15 4C14.4477 4 14 3.55228 14 3C14 2.44772 14.4477 2 15 2C15.5523 2 16 2.44772 16 3Z" fill="#000640"/>
</svg>
