<svg width="24" height="24" viewBox="0 0 24 24" fill="none" xmlns="http://www.w3.org/2000/svg">
<path fill-rule="evenodd" clip-rule="evenodd" d="M9 6C7.34315 6 6 7.34315 6 9C6 10.6569 7.34315 12 9 12C10.6569 12 12 10.6569 12 9C12 7.34315 10.6569 6 9 6ZM8 9C8 8.44772 8.44772 8 9 8C9.55228 8 10 8.44772 10 9C10 9.55228 9.55228 10 9 10C8.44772 10 8 9.55228 8 9Z" fill="#000640"/>
<path fill-rule="evenodd" clip-rule="evenodd" d="M3 2C2.44772 2 2 2.44772 2 3V12C2 12.2652 2.10536 12.5196 2.29289 12.7071L11.8787 22.2929C13.0503 23.4645 14.9497 23.4645 16.1213 22.2929L22.2929 16.1213C23.4645 14.9497 23.4645 13.0503 22.2929 11.8787L12.7071 2.29289C12.5196 2.10536 12.2652 2 12 2H3ZM4 11.5858V4H11.5858L20.8787 13.2929C21.2692 13.6834 21.2692 14.3166 20.8787 14.7071L14.7071 20.8787C14.3166 21.2692 13.6834 21.2692 13.2929 20.8787L4 11.5858Z" fill="#000640"/>
</svg>
