<svg width="24" height="24" viewBox="0 0 24 24" fill="none" xmlns="http://www.w3.org/2000/svg">
<path d="M12 3C7.02944 3 3 7.02944 3 12C3 12.5523 2.55228 13 2 13C1.44772 13 1 12.5523 1 12C1 5.92487 5.92487 1 12 1C18.0751 1 23 5.92487 23 12C23 18.0751 18.0751 23 12 23C11.4477 23 11 22.5523 11 22C11 21.4477 11.4477 21 12 21C16.9706 21 21 16.9706 21 12C21 7.02944 16.9706 3 12 3Z" fill="#000640"/>
<path fill-rule="evenodd" clip-rule="evenodd" d="M12.7071 11.2929C12.9844 11.5702 13.074 11.984 12.9363 12.3512L9.93633 20.3512C9.81695 20.6695 9.54399 20.9054 9.2117 20.9774C8.87941 21.0493 8.53331 20.9476 8.29289 20.7071L6.5 18.9142L3.70711 21.7071C3.31658 22.0977 2.68342 22.0977 2.29289 21.7071C1.90237 21.3166 1.90237 20.6834 2.29289 20.2929L5.08579 17.5L3.29289 15.7071C3.05248 15.4667 2.95069 15.1206 3.02267 14.7883C3.09464 14.456 3.33053 14.1831 3.64888 14.0637L11.6489 11.0637C12.0161 10.926 12.4298 11.0156 12.7071 11.2929ZM5.80525 15.3911L8.60897 18.1948L10.2912 13.7088L5.80525 15.3911Z" fill="#000640"/>
<path d="M9.17134 9.1715C10.7334 7.60941 13.2661 7.60941 14.8282 9.1715C16.3903 10.7336 16.3903 13.2663 14.8282 14.8284C14.4621 15.1944 14.0447 15.4735 13.6001 15.6673C13.0939 15.888 12.8624 16.4774 13.0831 16.9836C13.3038 17.4899 13.8932 17.7214 14.3994 17.5006C15.0697 17.2084 15.6965 16.7885 16.2424 16.2426C18.5856 13.8994 18.5856 10.1004 16.2424 7.75729C13.8993 5.41414 10.1003 5.41414 7.75713 7.75729C7.21123 8.30319 6.79125 8.93008 6.49905 9.60033C6.27833 10.1066 6.50981 10.6959 7.01608 10.9166C7.52234 11.1374 8.11167 10.9059 8.33239 10.3996C8.52622 9.95502 8.80525 9.53759 9.17134 9.1715Z" fill="#000640"/>
</svg>
