<svg width="24" height="24" viewBox="0 0 24 24" fill="none" xmlns="http://www.w3.org/2000/svg">
<g clip-path="url(#clip0_1253_4420)">
<path fill-rule="evenodd" clip-rule="evenodd" d="M0 12C0 5.37258 5.37258 0 12 0C18.6274 0 24 5.37258 24 12C24 18.6274 18.6274 24 12 24C5.37258 24 0 18.6274 0 12ZM2.04502 11.0449C2.49609 6.28442 6.28442 2.49609 11.0449 2.04502C11.5447 7.83871 16.1613 12.4553 21.955 12.9551C21.5039 17.7156 17.7156 21.5039 12.9551 21.955C12.4553 16.1613 7.83871 11.5447 2.04502 11.0449ZM2.05499 13.055C2.54571 17.7352 6.26477 21.4543 10.945 21.945C10.4543 17.2648 6.73523 13.5457 2.05499 13.055ZM21.945 10.945C21.4543 6.26477 17.7352 2.54571 13.055 2.05499C13.5457 6.73523 17.2648 10.4543 21.945 10.945Z" fill="#000640"/>
</g>
<defs>
<clipPath id="clip0_1253_4420">
<rect width="24" height="24" fill="white"/>
</clipPath>
</defs>
</svg>
