<svg width="24" height="24" viewBox="0 0 24 24" fill="none" xmlns="http://www.w3.org/2000/svg">
<path fill-rule="evenodd" clip-rule="evenodd" d="M18 2C18.2652 2 18.5196 2.10536 18.7071 2.29289L21.2071 4.79289C21.5976 5.18342 21.5976 5.81658 21.2071 6.20711C20.8166 6.59763 20.1834 6.59763 19.7929 6.20711L19 5.41422L19 21C19 21.5523 18.5523 22 18 22C17.4477 22 17 21.5523 17 21L17 5.41421L16.2071 6.20711C15.8166 6.59763 15.1834 6.59763 14.7929 6.20711C14.4024 5.81658 14.4024 5.18342 14.7929 4.79289L17.2929 2.29289C17.4804 2.10536 17.7348 2 18 2ZM12.9162 9.09918C13.1375 9.60516 12.9068 10.1948 12.4008 10.4162L10.7143 11.154V14.846L12.4008 15.5838C12.9068 15.8052 13.1375 16.3948 12.9162 16.9008C12.6948 17.4068 12.1052 17.6375 11.5992 17.4162L3.59918 13.9162C3.23519 13.7569 3 13.3973 3 13C3 12.6027 3.23519 12.2431 3.59918 12.0838L11.5992 8.58384C12.1052 8.36248 12.6948 8.5932 12.9162 9.09918ZM8.71429 13.971V12.029L6.49489 13L8.71429 13.971Z" fill="#000640"/>
</svg>
