<svg width="24" height="24" viewBox="0 0 24 24" fill="none" xmlns="http://www.w3.org/2000/svg">
<path fill-rule="evenodd" clip-rule="evenodd" d="M18 2C18.5523 2 19 2.44772 19 3L19 18.5858L19.7929 17.7929C20.1834 17.4024 20.8166 17.4024 21.2071 17.7929C21.5976 18.1834 21.5976 18.8166 21.2071 19.2071L18.7071 21.7071C18.5196 21.8946 18.2652 22 18 22C17.7348 22 17.4804 21.8946 17.2929 21.7071L14.7929 19.2071C14.4024 18.8166 14.4024 18.1834 14.7929 17.7929C15.1834 17.4024 15.8166 17.4024 16.2071 17.7929L17 18.5858L17 3C17 2.44772 17.4477 2 18 2ZM12.9162 7.09918C13.1375 7.60516 12.9068 8.19479 12.4008 8.41616L10.7143 9.15402V12.846L12.4008 13.5838C12.9068 13.8052 13.1375 14.3948 12.9162 14.9008C12.6948 15.4068 12.1052 15.6375 11.5992 15.4162L3.59918 11.9162C3.23519 11.7569 3 11.3973 3 11C3 10.6027 3.23519 10.2431 3.59918 10.0838L11.5992 6.58384C12.1052 6.36248 12.6948 6.5932 12.9162 7.09918ZM8.71429 11.971V10.029L6.49489 11L8.71429 11.971Z" fill="#000640"/>
</svg>
