<svg width="24" height="24" viewBox="0 0 24 24" fill="none" xmlns="http://www.w3.org/2000/svg">
<path d="M20.6404 18.2683C21.0647 17.9147 21.122 17.2841 20.7684 16.8598C20.4149 16.4356 19.7843 16.3782 19.36 16.7318L18.0002 17.865L18.0002 4C18.0002 3.44772 17.5525 3 17.0002 3C16.4479 3 16.0002 3.44771 16.0002 4L16.0002 17.865L14.6404 16.7318C14.2161 16.3782 13.5856 16.4356 13.232 16.8598C12.8784 17.2841 12.9358 17.9147 13.36 18.2682L16.36 20.7683C16.7309 21.0773 17.2695 21.0773 17.6404 20.7683L20.6404 18.2683Z" fill="#000640"/>
<path fill-rule="evenodd" clip-rule="evenodd" d="M8.91641 5.59918C8.75717 5.23519 8.39755 5 8.00025 5C7.60295 5 7.24334 5.23519 7.0841 5.59918L3.5841 13.5992C3.36273 14.1052 3.59345 14.6948 4.09943 14.9162C4.60541 15.1375 5.19504 14.9068 5.41641 14.4008L6.15427 12.7143H9.84624L10.5841 14.4008C10.8055 14.9068 11.3951 15.1375 11.9011 14.9162C12.4071 14.6948 12.6378 14.1052 12.4164 13.5992L8.91641 5.59918ZM8.00025 8.49489L8.97124 10.7143H7.02927L8.00025 8.49489Z" fill="#000640"/>
</svg>
