<svg width="24" height="24" viewBox="0 0 24 24" fill="none" xmlns="http://www.w3.org/2000/svg">
<path fill-rule="evenodd" clip-rule="evenodd" d="M12.921 3.61036C12.7645 3.24039 12.4017 3 12 3C11.5983 3 11.2356 3.24039 11.079 3.61036L5.57905 16.6104C5.36385 17.119 5.60174 17.7058 6.11037 17.921C6.61901 18.1362 7.20579 17.8983 7.42098 17.3896L8.85506 14H15.145L16.579 17.3896C16.7942 17.8983 17.381 18.1362 17.8897 17.921C18.3983 17.7058 18.6362 17.119 18.421 16.6104L12.921 3.61036ZM14.2988 12H9.70121L12 6.56647L14.2988 12Z" fill="#000640"/>
<path d="M3 20C2.44772 20 2 20.4477 2 21C2 21.5523 2.44772 22 3 22L21 22C21.5523 22 22 21.5523 22 21C22 20.4477 21.5523 20 21 20L3 20Z" fill="#000640"/>
</svg>
