<svg width="24" height="24" viewBox="0 0 24 24" fill="none" xmlns="http://www.w3.org/2000/svg">
<path d="M16.7071 4.70711C17.0976 4.31658 17.0976 3.68342 16.7071 3.29289C16.3166 2.90237 15.6834 2.90237 15.2929 3.29289L12.2929 6.29289C12.1054 6.48043 12 6.73478 12 7C12 7.26522 12.1054 7.51957 12.2929 7.70711L15.2929 10.7071C15.6834 11.0976 16.3166 11.0976 16.7071 10.7071C17.0976 10.3166 17.0976 9.68342 16.7071 9.29289L15.4142 8H16C18.7614 8 21 10.2386 21 13C21 15.7614 18.7614 18 16 18H13C12.4477 18 12 18.4477 12 19C12 19.5523 12.4477 20 13 20H16C19.866 20 23 16.866 23 13C23 9.13401 19.866 6 16 6H15.4142L16.7071 4.70711Z" fill="#000640"/>
<path d="M1 7C1 6.44772 1.44772 6 2 6L9 6C9.55229 6 10 6.44772 10 7C10 7.55229 9.55228 8 9 8L2 8C1.44772 8 1 7.55228 1 7Z" fill="#000640"/>
<path d="M1 13C1 12.4477 1.44772 12 2 12L9 12C9.55229 12 10 12.4477 10 13C10 13.5523 9.55228 14 9 14L2 14C1.44772 14 1 13.5523 1 13Z" fill="#000640"/>
<path d="M2 18C1.44772 18 1 18.4477 1 19C1 19.5523 1.44772 20 2 20L9 20C9.55228 20 10 19.5523 10 19C10 18.4477 9.55229 18 9 18L2 18Z" fill="#000640"/>
</svg>
