<svg width="24" height="24" viewBox="0 0 24 24" fill="none" xmlns="http://www.w3.org/2000/svg">
<path fill-rule="evenodd" clip-rule="evenodd" d="M8.56826 2.88583C9.02385 1.74686 10.127 1 11.3537 1H12.6456C13.8723 1 14.9754 1.74685 15.431 2.88583L21.831 18.8858C22.6192 20.8564 21.168 23 19.0456 23H18.4186C17.1438 23 16.0082 22.1943 15.587 20.9911L14.8901 19H9.03607C8.85526 19.5232 8.69213 19.9989 8.55059 20.416C8.29615 21.166 7.77324 21.8018 7.16323 22.2472C6.55347 22.6925 5.78461 23 4.98108 23C2.88004 23 1.37215 20.8761 2.16826 18.8858L8.56826 2.88583ZM15.5996 17C16.0246 17 16.4031 17.2686 16.5435 17.6697L17.4747 20.3304C17.6151 20.7314 17.9936 21 18.4186 21H19.0456C19.753 21 20.2368 20.2855 19.974 19.6286L13.574 3.62861C13.4222 3.24895 13.0545 3 12.6456 3H11.3537C10.9448 3 10.5771 3.24895 10.4252 3.62861L4.02522 19.6286C3.77035 20.2658 4.25227 21 4.98108 21C5.28213 21 5.64709 20.8779 5.98373 20.632C6.32012 20.3864 6.55619 20.0695 6.65663 19.7735C6.85871 19.1778 7.10351 18.4668 7.37956 17.6719C7.51927 17.2697 7.89839 17 8.32421 17H15.5996ZM12.0051 6.59898C12.4301 6.6013 12.8072 6.872 12.9453 7.27394L15.1453 13.675C15.2503 13.9805 15.2013 14.318 15.0136 14.5809C14.8259 14.8439 14.5227 15 14.1996 15H9.72995C9.4054 15 9.10103 14.8425 8.91359 14.5775C8.72615 14.3126 8.67895 13.9731 8.78699 13.6671C9.51606 11.6019 10.3114 9.36014 11.0575 7.26366C11.2 6.86325 11.5801 6.59667 12.0051 6.59898ZM11.144 13H12.7985L11.9838 10.6297C11.702 11.4238 11.4202 12.2192 11.144 13Z" fill="#000640"/>
</svg>
