<svg width="24" height="24" viewBox="0 0 24 24" fill="none" xmlns="http://www.w3.org/2000/svg">
<path fill-rule="evenodd" clip-rule="evenodd" d="M17.7929 14.7929C18.1834 14.4024 18.8166 14.4024 19.2071 14.7929L21.7071 17.2929C21.8946 17.4804 22 17.7348 22 18C22 18.2652 21.8946 18.5196 21.7071 18.7071L19.2071 21.2071C18.8166 21.5976 18.1834 21.5976 17.7929 21.2071C17.4024 20.8166 17.4024 20.1834 17.7929 19.7929L18.5858 19L3 19C2.44772 19 2 18.5523 2 18C2 17.4477 2.44772 17 3 17L18.5858 17L17.7929 16.2071C17.4024 15.8166 17.4024 15.1834 17.7929 14.7929Z" fill="#000640"/>
<path fill-rule="evenodd" clip-rule="evenodd" d="M11 3C11.3973 3 11.7569 3.23519 11.9162 3.59918L15.4162 11.5992C15.6375 12.1052 15.4068 12.6948 14.9008 12.9162C14.3948 13.1375 13.8052 12.9068 13.5838 12.4008L12.846 10.7143H9.15402L8.41616 12.4008C8.19479 12.9068 7.60516 13.1375 7.09918 12.9162C6.5932 12.6948 6.36248 12.1052 6.58384 11.5992L10.0838 3.59918C10.2431 3.23519 10.6027 3 11 3ZM10.029 8.71429H11.971L11 6.49489L10.029 8.71429Z" fill="#000640"/>
</svg>
