<svg width="24" height="24" viewBox="0 0 24 24" fill="none" xmlns="http://www.w3.org/2000/svg">
<path d="M1 5C1 5.55228 1.44772 6 2 6H22C22.5523 6 23 5.55228 23 5C23 4.44772 22.5523 4 22 4H2C1.44772 4 1 4.44772 1 5Z" fill="#000640"/>
<path d="M1 11C1 11.5523 1.44772 12 2 12H13C13.5523 12 14 11.5523 14 11C14 10.4477 13.5523 10 13 10H2C1.44772 10 1 10.4477 1 11Z" fill="#000640"/>
<path d="M2 16C1.44772 16 1 16.4477 1 17C1 17.5523 1.44772 18 2 18L9 18C9.55228 18 10 17.5523 10 17C10 16.4477 9.55229 16 9 16L2 16Z" fill="#000640"/>
<path d="M18.6667 12C20.057 12 21 12.9919 21 14C21 15.0081 20.057 16 18.6667 16H15.4142L16.7071 14.7071C17.0976 14.3166 17.0976 13.6834 16.7071 13.2929C16.3166 12.9024 15.6834 12.9024 15.2929 13.2929L12.2929 16.2929C12.1054 16.4804 12 16.7348 12 17C12 17.2652 12.1054 17.5196 12.2929 17.7071L15.2929 20.7071C15.6834 21.0976 16.3166 21.0976 16.7071 20.7071C17.0976 20.3166 17.0976 19.6834 16.7071 19.2929L15.4142 18H18.6667C20.9582 18 23 16.3056 23 14C23 11.6944 20.9582 10 18.6667 10H17C16.4477 10 16 10.4477 16 11C16 11.5523 16.4477 12 17 12H18.6667Z" fill="#000640"/>
</svg>
