<svg width="24" height="24" viewBox="0 0 24 24" fill="none" xmlns="http://www.w3.org/2000/svg">
<path d="M7 18C7.55228 18 8 17.5523 8 17C8 16.4477 7.55228 16 7 16C6.44772 16 6 16.4477 6 17C6 17.5523 6.44772 18 7 18Z" fill="#000640"/>
<path fill-rule="evenodd" clip-rule="evenodd" d="M21.2071 2.79301C19.988 1.57387 18.0096 1.5795 16.7974 2.80557L7.66375 12.0439C7.44626 12.015 7.22467 12.0001 7 12.0001C4.23858 12.0001 2 14.2387 2 17.0001C2 19.7615 4.23858 22.0001 7 22.0001C9.76142 22.0001 12 19.7615 12 17.0001C12 16.7754 11.9851 16.5539 11.9562 16.3364L21.1945 7.20267C22.4206 5.99049 22.4262 4.01215 21.2071 2.79301ZM18.2197 4.2117C18.6521 3.77429 19.358 3.77228 19.7929 4.20722C20.2278 4.64217 20.2258 5.34797 19.7884 5.78043L16.3557 9.17423H13.3134L18.2197 4.2117ZM11.336 11.1742H14.3328L10.1709 15.289C9.91792 15.5391 9.81687 15.9048 9.90555 16.2494C9.96703 16.4883 10 16.7396 10 17.0001C10 18.657 8.65685 20.0001 7 20.0001C5.34315 20.0001 4 18.657 4 17.0001C4 15.3433 5.34315 14.0001 7 14.0001C7.26051 14.0001 7.51187 14.0331 7.75074 14.0946C8.09528 14.1832 8.46099 14.0822 8.71112 13.8292L11.336 11.1742Z" fill="#000640"/>
</svg>
