<svg width="24" height="24" viewBox="0 0 24 24" fill="none" xmlns="http://www.w3.org/2000/svg">
<path fill-rule="evenodd" clip-rule="evenodd" d="M14.4528 1.10836C14.8686 1.31952 15.0833 1.79008 14.9702 2.24253L13.2808 9H20C20.3966 9 20.7557 9.23433 20.9154 9.59733C21.075 9.96033 21.0051 10.3834 20.7372 10.6757L9.73717 22.6757C9.41359 23.0287 8.88517 23.1028 8.47702 22.8523C8.06886 22.6019 7.89554 22.0972 8.06368 21.6489L10.557 15H4.00001C3.61199 15 3.259 14.7755 3.09442 14.4242C2.92984 14.0728 2.98339 13.6579 3.23179 13.3598L13.2318 1.35981C13.5304 1.00153 14.0369 0.897207 14.4528 1.10836ZM6.13505 13H12C12.328 13 12.6351 13.1608 12.8219 13.4304C13.0088 13.7 13.0515 14.044 12.9363 14.3511L11.7466 17.5239L17.7268 11H12C11.6921 11 11.4013 10.8581 11.2118 10.6154C11.0223 10.3727 10.9552 10.0562 11.0299 9.75746L11.9696 5.99854L6.13505 13Z" fill="#000640"/>
</svg>
