<svg width="24" height="24" viewBox="0 0 24 24" fill="none" xmlns="http://www.w3.org/2000/svg">
<path d="M7.04218 1.71265C7.16908 1.28967 7.5584 1 8.00001 1H19C19.3565 1 19.686 1.18976 19.8649 1.49807C20.0438 1.80639 20.0451 2.18664 19.8683 2.49614L16.7232 8H20C20.4045 8 20.7691 8.24364 20.9239 8.61732C21.0787 8.99099 20.9931 9.42111 20.7071 9.70711L7.70712 22.7071C7.38317 23.031 6.88053 23.0934 6.48722 22.8585C6.09391 22.6236 5.91054 22.1515 6.04218 21.7127L8.65598 13H5.00001C4.6839 13 4.38641 12.8505 4.19772 12.5969C4.00902 12.3433 3.95135 12.0154 4.04218 11.7127L7.04218 1.71265Z" fill="#000640"/>
</svg>
