<svg width="24" height="24" viewBox="0 0 24 24" fill="none" xmlns="http://www.w3.org/2000/svg">
<path fill-rule="evenodd" clip-rule="evenodd" d="M3 1C3.55228 1 4 1.44772 4 2V3C4 3.55228 4.44772 4 5 4H19C19.5523 4 20 3.55228 20 3V2C20 1.44772 20.4477 1 21 1C21.5523 1 22 1.44772 22 2V3C22 4.65685 20.6569 6 19 6H16.7808L16.0112 9.07818L16.8723 18.55C16.9841 19.7799 16.3308 20.9526 15.2263 21.5049L13.3416 22.4472C12.4971 22.8695 11.5029 22.8695 10.6584 22.4472L8.77373 21.5049C7.66916 20.9526 7.01589 19.7799 7.12769 18.55L7.98877 9.07818L7.21922 6H5C3.34315 6 2 4.65685 2 3V2C2 1.44772 2.44772 1 3 1ZM9.28078 6L9.78078 8H14.2192L14.7192 6H9.28078ZM14.0868 10H9.91321L9.11948 18.7311C9.08221 19.141 9.29997 19.532 9.66816 19.716L11.5528 20.6584C11.8343 20.7991 12.1657 20.7991 12.4472 20.6584L14.3318 19.716C14.7 19.532 14.9178 19.141 14.8805 18.7311L14.0868 10Z" fill="#000640"/>
</svg>
