<svg width="24" height="24" viewBox="0 0 24 24" fill="none" xmlns="http://www.w3.org/2000/svg">
<g clip-path="url(#clip0_1253_6597)">
<path d="M6.60006 1.80006C7.04189 1.46869 7.13143 0.841887 6.80006 0.400059C6.46869 -0.0417689 5.84189 -0.131312 5.40006 0.200059L1.40006 3.20006C0.958231 3.53143 0.868688 4.15823 1.20006 4.60006C1.53143 5.04189 2.15823 5.13143 2.60006 4.80006L6.60006 1.80006Z" fill="#000640"/>
<path d="M17.2001 0.400059C17.5314 -0.0417689 18.1582 -0.131312 18.6001 0.200059L22.6001 3.20006C23.0419 3.53143 23.1314 4.15823 22.8001 4.60006C22.4687 5.04189 21.8419 5.13143 21.4001 4.80006L17.4001 1.80006C16.9582 1.46869 16.8687 0.841887 17.2001 0.400059Z" fill="#000640"/>
<path d="M10.0001 9C9.44778 9 9.00006 9.44771 9.00006 10C9.00006 10.5523 9.44778 11 10.0001 11H12.1315L9.16801 15.4453C8.96344 15.7522 8.94437 16.1467 9.11839 16.4719C9.29241 16.797 9.63127 17 10.0001 17H14.0001C14.5523 17 15.0001 16.5523 15.0001 16C15.0001 15.4477 14.5523 15 14.0001 15H11.8686L14.8321 10.5547C15.0367 10.2478 15.0558 9.8533 14.8817 9.52814C14.7077 9.20298 14.3689 9 14.0001 9H10.0001Z" fill="#000640"/>
<path fill-rule="evenodd" clip-rule="evenodd" d="M12.0001 2C5.92493 2 1.00006 6.92487 1.00006 13C1.00006 19.0751 5.92493 24 12.0001 24C18.0752 24 23.0001 19.0751 23.0001 13C23.0001 6.92487 18.0752 2 12.0001 2ZM3.00006 13C3.00006 8.02944 7.0295 4 12.0001 4C16.9706 4 21.0001 8.02944 21.0001 13C21.0001 17.9706 16.9706 22 12.0001 22C7.0295 22 3.00006 17.9706 3.00006 13Z" fill="#000640"/>
</g>
<defs>
<clipPath id="clip0_1253_6597">
<rect width="24" height="24" fill="white"/>
</clipPath>
</defs>
</svg>
