<svg width="24" height="24" viewBox="0 0 24 24" fill="none" xmlns="http://www.w3.org/2000/svg">
<g clip-path="url(#clip0_1253_6603)">
<path d="M6.60006 1.80006C7.04189 1.46869 7.13143 0.841887 6.80006 0.400059C6.46869 -0.0417689 5.84189 -0.131312 5.40006 0.200059L1.40006 3.20006C0.958231 3.53143 0.868688 4.15823 1.20006 4.60006C1.53143 5.04189 2.15823 5.13143 2.60006 4.80006L6.60006 1.80006Z" fill="#000640"/>
<path d="M17.2001 0.400059C17.5314 -0.0417689 18.1582 -0.131312 18.6001 0.200059L22.6001 3.20006C23.0419 3.53143 23.1314 4.15823 22.8001 4.60006C22.4687 5.04189 21.8419 5.13143 21.4001 4.80006L17.4001 1.80006C16.9582 1.46869 16.8687 0.841887 17.2001 0.400059Z" fill="#000640"/>
<path d="M13.0001 8C13.0001 7.44772 12.5523 7 12.0001 7C11.4478 7 11.0001 7.44772 11.0001 8V13C11.0001 13.2652 11.1054 13.5196 11.293 13.7071L14.793 17.2071C15.1835 17.5976 15.8166 17.5976 16.2072 17.2071C16.5977 16.8166 16.5977 16.1834 16.2072 15.7929L13.0001 12.5858V8Z" fill="#000640"/>
<path fill-rule="evenodd" clip-rule="evenodd" d="M12.0001 2C5.92493 2 1.00006 6.92487 1.00006 13C1.00006 19.0751 5.92493 24 12.0001 24C18.0752 24 23.0001 19.0751 23.0001 13C23.0001 6.92487 18.0752 2 12.0001 2ZM3.00006 13C3.00006 8.02944 7.0295 4 12.0001 4C16.9706 4 21.0001 8.02944 21.0001 13C21.0001 17.9706 16.9706 22 12.0001 22C7.0295 22 3.00006 17.9706 3.00006 13Z" fill="#000640"/>
</g>
<defs>
<clipPath id="clip0_1253_6603">
<rect width="24" height="24" fill="white"/>
</clipPath>
</defs>
</svg>
