<svg width="24" height="24" viewBox="0 0 24 24" fill="none" xmlns="http://www.w3.org/2000/svg">
<g clip-path="url(#clip0_1253_6595)">
<path d="M6.60006 1.80006C7.04189 1.46869 7.13143 0.841887 6.80006 0.400059C6.46869 -0.0417689 5.84189 -0.131312 5.40006 0.200059L1.40006 3.20006C0.958231 3.53143 0.868688 4.15823 1.20006 4.60006C1.53143 5.04189 2.15823 5.13143 2.60006 4.80006L6.60006 1.80006Z" fill="#000640"/>
<path d="M17.2001 0.400059C17.5314 -0.0417689 18.1582 -0.131312 18.6001 0.200059L22.6001 3.20006C23.0419 3.53143 23.1314 4.15823 22.8001 4.60006C22.4687 5.04189 21.8419 5.13143 21.4001 4.80006L17.4001 1.80006C16.9582 1.46869 16.8687 0.841887 17.2001 0.400059Z" fill="#000640"/>
<path d="M17.2072 11.2071C17.5977 10.8166 17.5977 10.1834 17.2072 9.79289C16.8166 9.40237 16.1835 9.40237 15.793 9.79289L10.0001 15.5858L7.70717 13.2929C7.31664 12.9024 6.68348 12.9024 6.29295 13.2929C5.90243 13.6834 5.90243 14.3166 6.29295 14.7071L9.29295 17.7071C9.68348 18.0976 10.3166 18.0976 10.7072 17.7071L17.2072 11.2071Z" fill="#000640"/>
<path fill-rule="evenodd" clip-rule="evenodd" d="M12.0001 2C5.92493 2 1.00006 6.92487 1.00006 13C1.00006 19.0751 5.92493 24 12.0001 24C18.0752 24 23.0001 19.0751 23.0001 13C23.0001 6.92487 18.0752 2 12.0001 2ZM3.00006 13C3.00006 8.02944 7.0295 4 12.0001 4C16.9706 4 21.0001 8.02944 21.0001 13C21.0001 17.9706 16.9706 22 12.0001 22C7.0295 22 3.00006 17.9706 3.00006 13Z" fill="#000640"/>
</g>
<defs>
<clipPath id="clip0_1253_6595">
<rect width="24" height="24" fill="white"/>
</clipPath>
</defs>
</svg>
