<svg width="24" height="24" viewBox="0 0 24 24" fill="none" xmlns="http://www.w3.org/2000/svg">
<path d="M13 18C13 18.5523 13.4477 19 14 19C14.5523 19 15 18.5523 15 18C15 17.4477 14.5523 17 14 17C13.4477 17 13 17.4477 13 18Z" fill="#000640"/>
<path d="M10 19C9.44771 19 9 18.5523 9 18C9 17.4477 9.44771 17 10 17C10.5523 17 11 17.4477 11 18C11 18.5523 10.5523 19 10 19Z" fill="#000640"/>
<path d="M5 18C5 18.5523 5.44772 19 6 19C6.55228 19 7 18.5523 7 18C7 17.4477 6.55228 17 6 17C5.44772 17 5 17.4477 5 18Z" fill="#000640"/>
<path fill-rule="evenodd" clip-rule="evenodd" d="M9.26541 2C10.7584 2 12.0241 3.09779 12.2353 4.57574L12.8673 9H14V6.5C14 5.11929 15.1193 4 16.5 4C17.0523 4 17.5 4.44772 17.5 5C17.5 5.55228 17.0523 6 16.5 6C16.2239 6 16 6.22386 16 6.5V9.17071C17.1652 9.58254 18 10.6938 18 12V14H20V11C20 10.4477 20.4477 10 21 10C21.5523 10 22 10.4477 22 11V18.7639L22.8944 20.5528C23.1414 21.0468 22.9412 21.6474 22.4472 21.8944C21.9532 22.1414 21.3526 21.9412 21.1056 21.4472L20.1056 19.4472C20.0361 19.3084 20 19.1552 20 19V16H18.4649C18.8052 16.5883 19 17.2714 19 18C19 20.2091 17.2091 22 15 22H5C2.79086 22 1 20.2091 1 18C1 16.5194 1.8044 15.2267 3 14.5351V5C3 3.34315 4.34315 2 6 2H9.26541ZM16 12V14H5V11H15C15.5523 11 16 11.4477 16 12ZM5 16H15C16.1046 16 17 16.8954 17 18C17 19.1046 16.1046 20 15 20H5C3.89543 20 3 19.1046 3 18C3 16.8954 3.89543 16 5 16ZM5 9H10.847L10.2554 4.85858C10.185 4.36593 9.76306 4 9.26541 4H6C5.44771 4 5 4.44772 5 5V9Z" fill="#000640"/>
</svg>
