<svg width="24" height="24" viewBox="0 0 24 24" fill="none" xmlns="http://www.w3.org/2000/svg">
<path fill-rule="evenodd" clip-rule="evenodd" d="M10 1C9.44772 1 9 1.44772 9 2V4H4C3.44772 4 3 4.44772 3 5C3 5.55228 3.44772 6 4 6H20C20.5523 6 21 5.55228 21 5C21 4.44772 20.5523 4 20 4H15V2C15 1.44772 14.5523 1 14 1H10Z" fill="#000640"/>
<path fill-rule="evenodd" clip-rule="evenodd" d="M5 7C4.44772 7 4 7.44772 4 8V20C4 21.6569 5.34315 23 7 23H17C18.6569 23 20 21.6569 20 20V8C20 7.44772 19.5523 7 19 7H5Z" fill="#000640"/>
</svg>
