<svg width="24" height="24" viewBox="0 0 24 24" fill="none" xmlns="http://www.w3.org/2000/svg">
<path fill-rule="evenodd" clip-rule="evenodd" d="M6.45216 6.59129C4.91924 8.75614 4 11.4452 4 13.5476C4 14.374 4.20424 14.9311 4.50632 15.3325C4.81521 15.743 5.29335 16.0793 5.9879 16.3404C7.22709 16.8062 8.94267 16.9594 11 16.9925V14.4142L7.79289 11.2071C7.40237 10.8166 7.40237 10.1834 7.79289 9.79289C8.18342 9.40237 8.81658 9.40237 9.20711 9.79289L11 11.5858V7C11 6.44772 11.4477 6 12 6C12.5523 6 13 6.44772 13 7V11.5858L14.7929 9.79289C15.1834 9.40237 15.8166 9.40237 16.2071 9.79289C16.5976 10.1834 16.5976 10.8166 16.2071 11.2071L13 14.4142V16.9925C15.0573 16.9594 16.7729 16.8062 18.0121 16.3404C18.7067 16.0793 19.1848 15.743 19.4937 15.3325C19.7958 14.9311 20 14.374 20 13.5476C20 11.4452 19.0808 8.75614 17.5478 6.59129C16.0019 4.40803 14.0143 3 12 3C9.98565 3 7.9981 4.40803 6.45216 6.59129ZM13 18.9932C15.114 18.9615 17.1405 18.8047 18.7158 18.2125C19.6499 17.8614 20.4898 17.335 21.0918 16.535C21.7006 15.726 22 14.7248 22 13.5476C22 10.9556 20.9045 7.87086 19.1801 5.43552C17.4687 3.01857 14.9562 1 12 1C9.04378 1 6.53134 3.01857 4.81992 5.43552C3.09548 7.87086 2 10.9556 2 13.5476C2 14.7248 2.29944 15.726 2.90821 16.535C3.51017 17.335 4.35005 17.8614 5.28418 18.2125C6.85947 18.8047 8.88595 18.9615 11 18.9932V21H8C7.44772 21 7 21.4477 7 22C7 22.5523 7.44772 23 8 23H16C16.5523 23 17 22.5523 17 22C17 21.4477 16.5523 21 16 21H13V18.9932Z" fill="#000640"/>
</svg>
