<svg width="24" height="24" viewBox="0 0 24 24" fill="none" xmlns="http://www.w3.org/2000/svg">
<path d="M12.9991 9C12.9991 9.55228 12.5514 10 11.9991 10C11.4469 10 10.9991 9.55228 10.9991 9C10.9991 8.44772 11.4469 8 11.9991 8C12.5514 8 12.9991 8.44772 12.9991 9Z" fill="#000640"/>
<path d="M11.9991 13C12.5514 13 12.9991 12.5523 12.9991 12C12.9991 11.4477 12.5514 11 11.9991 11C11.4469 11 10.9991 11.4477 10.9991 12C10.9991 12.5523 11.4469 13 11.9991 13Z" fill="#000640"/>
<path fill-rule="evenodd" clip-rule="evenodd" d="M14.552 1.10557C14.7892 0.986965 15.0638 0.967449 15.3154 1.05132L18.7372 2.19192C20.6825 2.84034 22.0347 4.61068 22.1484 6.65799L22.8804 19.8336C22.9759 21.5532 21.6072 23 19.885 23H4.11338C2.39112 23 1.02246 21.5532 1.118 19.8336L1.84998 6.65796C1.96371 4.61067 3.31587 2.84034 5.26109 2.19191L8.68273 1.05132C8.93434 0.967448 9.20897 0.986964 9.44619 1.10557C11.1647 1.96481 12.8335 1.96481 14.552 1.10557ZM13.7283 3.5359C12.5776 3.82136 11.4207 3.82137 10.27 3.53592C10.2828 3.57363 10.2963 3.61129 10.3104 3.64883C10.4633 4.05648 10.6689 4.3963 10.9291 4.62758C11.1687 4.8405 11.495 5 11.9992 5C12.5033 5 12.8297 4.8405 13.0692 4.62759C13.3294 4.39633 13.535 4.05652 13.6879 3.64888C13.7019 3.61131 13.7154 3.57362 13.7283 3.5359ZM8.14991 3.33713C8.21368 3.65016 8.30537 3.99817 8.43776 4.35117C8.65993 4.94352 9.01683 5.6037 9.60043 6.12243C10.2047 6.6595 11.0033 7 11.9992 7C12.995 7 13.7937 6.6595 14.3979 6.12241C14.9815 5.60367 15.3384 4.94348 15.5605 4.35112C15.6929 3.99814 15.7846 3.65015 15.8483 3.33713L18.1048 4.08929C19.2719 4.47834 20.0832 5.54055 20.1515 6.76893L20.8834 19.9445C20.9153 20.5177 20.4591 21 19.885 21H18.9992V10C18.9992 9.44772 18.5515 9 17.9992 9C17.4469 9 16.9992 9.44772 16.9992 10V21H6.99917V10C6.99917 9.44772 6.55146 9 5.99917 9C5.44689 9 4.99917 9.44772 4.99917 10V21H4.11338C3.53929 21 3.08307 20.5177 3.11492 19.9445L3.8469 6.7689C3.91514 5.54053 4.72643 4.47833 5.89356 4.08927L8.14991 3.33713Z" fill="#000640"/>
</svg>
