<svg width="24" height="24" viewBox="0 0 24 24" fill="none" xmlns="http://www.w3.org/2000/svg">
<path fill-rule="evenodd" clip-rule="evenodd" d="M8.65812 1.06021C8.91618 0.966367 9.20148 0.98277 9.44709 1.10557C11.1656 1.96481 12.8344 1.96481 14.5529 1.10557C14.7985 0.982772 15.0838 0.966367 15.3418 1.06021L19.8016 2.68195C20.7724 3.03498 21.4934 3.86266 21.7098 4.87275L22.9779 10.7905C23.0734 11.2364 22.8552 11.6905 22.4473 11.8944L19.0001 13.618V22C19.0001 22.5523 18.5524 23 18.0001 23H6.00008C5.44779 23 5.00008 22.5523 5.00008 22V13.618L1.55287 11.8944C1.14497 11.6905 0.926728 11.2364 1.02228 10.7905L2.29037 4.87273C2.50681 3.86265 3.2277 3.03498 4.19851 2.68195L8.65812 1.06021ZM5.00008 11.382V4.5186L4.88202 4.56153C4.55842 4.67921 4.31812 4.95509 4.24597 5.29179L3.14021 10.452L5.00008 11.382ZM7.00008 3.7913V21H9.00008V5.43986C8.52205 4.75145 8.28265 3.97028 8.15766 3.37034L7.00008 3.7913ZM10.2709 3.53593C10.3884 3.88008 10.549 4.20352 10.7628 4.45561C11.0306 4.77146 11.3972 5 12.0001 5C12.6029 5 12.9695 4.77147 13.2373 4.45563C13.4511 4.20353 13.6117 3.88007 13.7292 3.5359C12.5785 3.82136 11.4216 3.82137 10.2709 3.53593ZM15.8424 3.37035C15.7174 3.97028 15.478 4.75144 15 5.43984L15.0001 21H17.0001V3.79133L15.8424 3.37035ZM19.0001 4.51861V11.382L20.86 10.452L19.7542 5.2918C19.682 4.95511 19.4417 4.67921 19.1181 4.56154L19.0001 4.51861ZM13.0001 21L13 6.87419C12.6941 6.95541 12.361 7 12.0001 7C11.6391 7 11.3061 6.95541 11.0001 6.87418V21H13.0001Z" fill="#000640"/>
</svg>
