<svg width="24" height="24" viewBox="0 0 24 24" fill="none" xmlns="http://www.w3.org/2000/svg">
<path fill-rule="evenodd" clip-rule="evenodd" d="M8.65812 1.06021C8.91618 0.966367 9.20148 0.98277 9.44709 1.10557C11.1656 1.96481 12.8344 1.96481 14.5529 1.10557C14.7985 0.982772 15.0838 0.966367 15.3418 1.06021L19.8016 2.68195C20.7725 3.03498 21.4934 3.86266 21.7098 4.87275L22.9779 10.7905C23.0734 11.2364 22.8552 11.6905 22.4473 11.8944L19.0001 13.618V22C19.0001 22.5523 18.5524 23 18.0001 23H6.00008C5.44779 23 5.00008 22.5523 5.00008 22V13.618L1.55287 11.8944C1.14497 11.6905 0.926728 11.2364 1.02228 10.7905L2.29037 4.87273C2.50681 3.86265 3.2277 3.03498 4.19851 2.68195L8.65812 1.06021ZM5.00008 11.382V10C5.00008 9.44772 5.44779 9 6.00008 9C6.55236 9 7.00008 9.44772 7.00008 10V21H17.0001V10C17.0001 9.44772 17.4478 9 18.0001 9C18.5524 9 19.0001 9.44772 19.0001 10V11.382L20.86 10.452L19.7542 5.2918C19.682 4.95511 19.4417 4.67921 19.1181 4.56154L15.6228 3.2905C15.4577 3.75134 15.2364 4.32848 14.9745 4.91037C14.682 5.56032 14.3185 6.26301 13.9016 6.81875C13.6932 7.09666 13.4451 7.37371 13.1549 7.58871C12.8652 7.80329 12.4726 8 12.0001 8C11.5276 8 11.135 7.80329 10.8453 7.58872C10.555 7.37373 10.307 7.09668 10.0985 6.81877C9.68168 6.26304 9.31808 5.56035 9.02557 4.9104C8.76369 4.32849 8.54229 3.75134 8.37721 3.2905L4.88202 4.56153C4.55842 4.67921 4.31812 4.95509 4.24597 5.29179L3.14021 10.452L5.00008 11.382ZM10.6462 3.61886C10.7107 3.77432 10.7785 3.93218 10.8494 4.0896C11.1194 4.68965 11.4121 5.23697 11.6985 5.61873C11.8214 5.78257 11.9237 5.88947 12.0001 5.95341C12.0765 5.88947 12.1788 5.78258 12.3016 5.61875C12.588 5.23699 12.8806 4.68968 13.1507 4.08964C13.2215 3.93219 13.2894 3.77431 13.3539 3.61884C12.4523 3.79371 11.5477 3.79372 10.6462 3.61886Z" fill="#000640"/>
</svg>
