<svg width="24" height="24" viewBox="0 0 24 24" fill="none" xmlns="http://www.w3.org/2000/svg">
<path fill-rule="evenodd" clip-rule="evenodd" d="M6 1C6.55228 1 7 1.44772 7 2V5C8.65685 5 10 6.34315 10 8V10H14V8C14 6.34315 15.3431 5 17 5V2C17 1.44772 17.4477 1 18 1C18.5523 1 19 1.44772 19 2V5C20.6569 5 22 6.34315 22 8V22C22 22.5523 21.5523 23 21 23H15C14.4477 23 14 22.5523 14 22V12H10V22C10 22.5523 9.55228 23 9 23H3C2.44772 23 2 22.5523 2 22V8C2 6.34315 3.34315 5 5 5V2C5 1.44772 5.44772 1 6 1ZM16 11V13H20V11H16ZM4 13V11H8V13H4ZM5 7C4.44772 7 4 7.44772 4 8V9H8V8C8 7.44772 7.55228 7 7 7H5ZM4 15V17H8V15H4ZM4 19V21H8V19H4ZM16 8C16 7.44772 16.4477 7 17 7H19C19.5523 7 20 7.44772 20 8V9H16V8ZM16 17V15H20V17H16ZM16 21V19H20V21H16Z" fill="#000640"/>
</svg>
