<svg width="24" height="24" viewBox="0 0 24 24" fill="none" xmlns="http://www.w3.org/2000/svg">
<g clip-path="url(#clip0_1253_5271)">
<path d="M9.5 10C9.5 9.0345 10.4691 8 12 8C13.5309 8 14.5 9.0345 14.5 10C14.5 10.6419 14.2463 11.0616 13.7771 11.4415C13.2496 11.8685 12.5148 12.1914 11.6061 12.5809L11.5419 12.6084C10.7135 12.9632 9.72977 13.3845 8.96455 14.004C8.12134 14.6866 7.5 15.6419 7.5 17C7.5 17.5523 7.94772 18 8.5 18H15.5C16.0523 18 16.5 17.5523 16.5 17C16.5 16.4477 16.0523 16 15.5 16H9.79658C9.90865 15.8416 10.0514 15.6974 10.2229 15.5585C10.7504 15.1315 11.4852 14.8086 12.3939 14.4191L12.4581 14.3916C13.2865 14.0368 14.2702 13.6155 15.0354 12.996C15.8787 12.3134 16.5 11.3581 16.5 10C16.5 7.65179 14.3351 6 12 6C9.66489 6 7.5 7.65179 7.5 10C7.5 10.5523 7.94772 11 8.5 11C9.05229 11 9.5 10.5523 9.5 10Z" fill="#000640"/>
<path fill-rule="evenodd" clip-rule="evenodd" d="M12 0C5.37258 0 0 5.37258 0 12C0 18.6274 5.37258 24 12 24C18.6274 24 24 18.6274 24 12C24 5.37258 18.6274 0 12 0ZM2 12C2 6.47715 6.47715 2 12 2C17.5228 2 22 6.47715 22 12C22 17.5228 17.5228 22 12 22C6.47715 22 2 17.5228 2 12Z" fill="#000640"/>
</g>
<defs>
<clipPath id="clip0_1253_5271">
<rect width="24" height="24" fill="white"/>
</clipPath>
</defs>
</svg>
