<svg width="24" height="24" viewBox="0 0 24 24" fill="none" xmlns="http://www.w3.org/2000/svg">
<path d="M13 4C13 3.44772 12.5523 3 12 3C11.4477 3 11 3.44772 11 4L11 20C11 20.5523 11.4477 21 12 21C12.5523 21 13 20.5523 13 20L13 4Z" fill="#000640"/>
<path d="M9 12C9 12.2652 8.89464 12.5196 8.70711 12.7071L4.70711 16.7071C4.31658 17.0976 3.68342 17.0976 3.29289 16.7071C2.90237 16.3166 2.90237 15.6834 3.29289 15.2929L6.58579 12L3.29289 8.70711C2.90237 8.31658 2.90237 7.68342 3.29289 7.29289C3.68342 6.90237 4.31658 6.90237 4.70711 7.29289L8.70711 11.2929C8.89464 11.4804 9 11.7348 9 12Z" fill="#000640"/>
<path d="M20.7071 7.29289C21.0976 7.68342 21.0976 8.31658 20.7071 8.70711L17.4142 12L20.7071 15.2929C21.0976 15.6834 21.0976 16.3166 20.7071 16.7071C20.3166 17.0976 19.6834 17.0976 19.2929 16.7071L15.2929 12.7071C14.9024 12.3166 14.9024 11.6834 15.2929 11.2929L19.2929 7.29289C19.6834 6.90237 20.3166 6.90237 20.7071 7.29289Z" fill="#000640"/>
</svg>
