<svg width="24" height="24" viewBox="0 0 24 24" fill="none" xmlns="http://www.w3.org/2000/svg">
<path d="M17.2929 6.70711C17.6834 7.09763 18.3166 7.09763 18.7071 6.70711C19.0976 6.31659 19.0976 5.68342 18.7071 5.2929L14.7071 1.29289C14.5196 1.10536 14.2652 1 14 1C13.7348 1 13.4804 1.10536 13.2929 1.29289L9.29289 5.29289C8.90237 5.68342 8.90237 6.31658 9.29289 6.70711C9.68342 7.09763 10.3166 7.09763 10.7071 6.70711L13 4.41421V11C13 11.5523 13.4477 12 14 12C14.5523 12 15 11.5523 15 11V4.41422L17.2929 6.70711Z" fill="#000640"/>
<path d="M9.29289 22.7071C9.48043 22.8946 9.73478 23 10 23C10.2652 23 10.5196 22.8946 10.7071 22.7071L14.7071 18.7071C15.0976 18.3166 15.0976 17.6834 14.7071 17.2929C14.3166 16.9024 13.6834 16.9024 13.2929 17.2929L11 19.5858V13C11 12.4477 10.5523 12 10 12C9.44771 12 9 12.4477 9 13V19.5858L6.70711 17.2929C6.31658 16.9024 5.68342 16.9024 5.29289 17.2929C4.90237 17.6834 4.90237 18.3166 5.29289 18.7071L9.29289 22.7071Z" fill="#000640"/>
</svg>
