<svg width="24" height="24" viewBox="0 0 24 24" fill="none" xmlns="http://www.w3.org/2000/svg">
<path d="M17.2929 13.2929L19.5858 11H13C12.4477 11 12 10.5523 12 10C12 9.44772 12.4477 9 13 9H19.5858L17.2929 6.70711C16.9024 6.31658 16.9024 5.68342 17.2929 5.29289C17.6834 4.90237 18.3166 4.90237 18.7071 5.29289L22.7071 9.29289C22.8946 9.48043 23 9.73478 23 10C23 10.2652 22.8946 10.5196 22.7071 10.7071L18.7071 14.7071C18.3166 15.0976 17.6834 15.0976 17.2929 14.7071C16.9024 14.3166 16.9024 13.6834 17.2929 13.2929Z" fill="#000640"/>
<path d="M5.29289 18.7071C5.68342 19.0976 6.31658 19.0976 6.70711 18.7071C7.09763 18.3166 7.09763 17.6834 6.70711 17.2929L4.41421 15H11C11.5523 15 12 14.5523 12 14C12 13.4477 11.5523 13 11 13H4.41421L6.70711 10.7071C7.09763 10.3166 7.09763 9.68342 6.70711 9.29289C6.31658 8.90237 5.68342 8.90237 5.29289 9.29289L1.29289 13.2929C1.10536 13.4804 1 13.7348 1 14C1 14.2652 1.10536 14.5196 1.29289 14.7071L5.29289 18.7071Z" fill="#000640"/>
</svg>
