<svg width="24" height="24" viewBox="0 0 24 24" fill="none" xmlns="http://www.w3.org/2000/svg">
<path d="M11.2929 10.7071C11.4804 10.8946 11.7348 11 12 11C12.2652 11 12.5196 10.8946 12.7071 10.7071L16.7071 6.70711C17.0976 6.31658 17.0976 5.68342 16.7071 5.29289C16.3166 4.90237 15.6834 4.90237 15.2929 5.29289L13 7.58579L13 2C13 1.44771 12.5523 1 12 1C11.4477 1 11 1.44772 11 2V7.58579L8.70711 5.29289C8.31658 4.90237 7.68342 4.90237 7.29289 5.29289C6.90237 5.68342 6.90237 6.31658 7.29289 6.70711L11.2929 10.7071Z" fill="#000640"/>
<path d="M11 22C11 22.5523 11.4477 23 12 23C12.5523 23 13 22.5523 13 22L13 16.4142L15.2929 18.7071C15.6834 19.0976 16.3166 19.0976 16.7071 18.7071C17.0976 18.3166 17.0976 17.6834 16.7071 17.2929L12.7071 13.2929C12.3166 12.9024 11.6834 12.9024 11.2929 13.2929L7.29289 17.2929C6.90237 17.6834 6.90237 18.3166 7.29289 18.7071C7.68342 19.0976 8.31658 19.0976 8.70711 18.7071L11 16.4142L11 22Z" fill="#000640"/>
</svg>
