<svg width="24" height="24" viewBox="0 0 24 24" fill="none" xmlns="http://www.w3.org/2000/svg">
<path d="M10.7071 12.7071C10.8946 12.5196 11 12.2652 11 12C11 11.7348 10.8946 11.4804 10.7071 11.2929L6.70711 7.29289C6.31658 6.90237 5.68342 6.90237 5.29289 7.29289C4.90237 7.68342 4.90237 8.31658 5.29289 8.70711L7.58579 11H2C1.44771 11 1 11.4477 1 12C1 12.5523 1.44772 13 2 13L7.58579 13L5.29289 15.2929C4.90237 15.6834 4.90237 16.3166 5.29289 16.7071C5.68342 17.0976 6.31658 17.0976 6.70711 16.7071L10.7071 12.7071Z" fill="#000640"/>
<path d="M22 13C22.5523 13 23 12.5523 23 12C23 11.4477 22.5523 11 22 11L16.4142 11L18.7071 8.70711C19.0976 8.31658 19.0976 7.68342 18.7071 7.29289C18.3166 6.90237 17.6834 6.90237 17.2929 7.29289L13.2929 11.2929C12.9024 11.6834 12.9024 12.3166 13.2929 12.7071L17.2929 16.7071C17.6834 17.0976 18.3166 17.0976 18.7071 16.7071C19.0976 16.3166 19.0976 15.6834 18.7071 15.2929L16.4142 13L22 13Z" fill="#000640"/>
</svg>
