<svg width="24" height="24" viewBox="0 0 24 24" fill="none" xmlns="http://www.w3.org/2000/svg">
<path d="M8.70711 4.29289C8.31658 3.90237 7.68342 3.90237 7.29289 4.29289C6.90237 4.68342 6.90237 5.31658 7.29289 5.70711L11.2929 9.70711C11.6834 10.0976 12.3166 10.0976 12.7071 9.70711L16.7071 5.70711C17.0976 5.31658 17.0976 4.68342 16.7071 4.29289C16.3166 3.90237 15.6834 3.90237 15.2929 4.29289L12 7.58579L8.70711 4.29289Z" fill="#000640"/>
<path d="M12.7071 14.2929C12.5196 14.1054 12.2652 14 12 14C11.7348 14 11.4804 14.1054 11.2929 14.2929L7.29289 18.2929C6.90237 18.6834 6.90237 19.3166 7.29289 19.7071C7.68342 20.0976 8.31658 20.0976 8.70711 19.7071L12 16.4142L15.2929 19.7071C15.6834 20.0976 16.3166 20.0976 16.7071 19.7071C17.0976 19.3166 17.0976 18.6834 16.7071 18.2929L12.7071 14.2929Z" fill="#000640"/>
</svg>
