<svg width="24" height="24" viewBox="0 0 24 24" fill="none" xmlns="http://www.w3.org/2000/svg">
<path fill-rule="evenodd" clip-rule="evenodd" d="M19 11C19.5523 11 20 11.4477 20 12L20 19C20 19.5523 19.5523 20 19 20L12 20C11.4477 20 11 19.5523 11 19C11 18.4477 11.4477 18 12 18H16.5858L6 7.41421L6 12C6 12.5523 5.55229 13 5 13C4.44772 13 4 12.5523 4 12L4 5C4 4.73478 4.10536 4.48043 4.29289 4.29289C4.48043 4.10536 4.73478 4 5 4L12 4C12.5523 4 13 4.44772 13 5C13 5.55228 12.5523 6 12 6L7.41421 6L18 16.5858L18 12C18 11.4477 18.4477 11 19 11Z" fill="#000640"/>
</svg>
