<svg width="24" height="24" viewBox="0 0 24 24" fill="none" xmlns="http://www.w3.org/2000/svg">
<path fill-rule="evenodd" clip-rule="evenodd" d="M13 18.9999C13 19.5522 12.5523 19.9999 12 19.9999H5C4.44772 19.9999 4 19.5522 4 18.9999L4 11.9999C4 11.4477 4.44772 10.9999 5 10.9999C5.55229 10.9999 6 11.4477 6 11.9999V16.5857L16.5858 5.99994L12 5.99994C11.4477 5.99994 11 5.55222 11 4.99994C11 4.44765 11.4477 3.99994 12 3.99994L19 3.99994C19.2652 3.99994 19.5196 4.1053 19.7071 4.29283C19.8946 4.48037 20 4.73472 20 4.99994V11.9999C20 12.5522 19.5523 12.9999 19 12.9999C18.4477 12.9999 18 12.5522 18 11.9999V7.41415L7.41421 17.9999H12C12.5523 17.9999 13 18.4477 13 18.9999Z" fill="#000640"/>
</svg>
