<svg width="24" height="24" viewBox="0 0 24 24" fill="none" xmlns="http://www.w3.org/2000/svg">
<path d="M13.7071 8.29289C14.0976 8.68342 14.0976 9.31658 13.7071 9.70711C13.3166 10.0976 12.6834 10.0976 12.2929 9.70711L9 6.41421V15.5C9 17.9853 11.0147 20 13.5 20C15.9853 20 18 17.9853 18 15.5V9C18 8.44772 18.4477 8 19 8C19.5523 8 20 8.44772 20 9V15.5C20 19.0899 17.0899 22 13.5 22C9.91015 22 7 19.0899 7 15.5V6.41421L3.70711 9.70711C3.31658 10.0976 2.68342 10.0976 2.29289 9.70711C1.90237 9.31658 1.90237 8.68342 2.29289 8.29289L7.29289 3.29289C7.68342 2.90237 8.31658 2.90237 8.70711 3.29289L13.7071 8.29289Z" fill="#000640"/>
</svg>
