<svg width="24" height="24" viewBox="0 0 24 24" fill="none" xmlns="http://www.w3.org/2000/svg">
<path d="M18.5858 15L15.2929 11.7071C14.9024 11.3166 14.9024 10.6834 15.2929 10.2929C15.6834 9.90237 16.3166 9.90237 16.7071 10.2929L21.7071 15.2929C22.0976 15.6834 22.0976 16.3166 21.7071 16.7071L16.7071 21.7071C16.3166 22.0976 15.6834 22.0976 15.2929 21.7071C14.9024 21.3166 14.9024 20.6834 15.2929 20.2929L18.5858 17H8.5C4.91015 17 2 14.0899 2 10.5C2 6.91015 4.91015 4 8.5 4H15C15.5523 4 16 4.44771 16 5C16 5.55229 15.5523 6 15 6H8.5C6.01472 6 4 8.01472 4 10.5C4 12.9853 6.01472 15 8.5 15H18.5858Z" fill="#000640"/>
</svg>
