<svg width="24" height="24" viewBox="0 0 24 24" fill="none" xmlns="http://www.w3.org/2000/svg">
<path d="M16.7071 13.7071C16.3166 14.0976 15.6834 14.0976 15.2929 13.7071C14.9024 13.3166 14.9024 12.6834 15.2929 12.2929L18.5858 9H8.5C6.01472 9 4 11.0147 4 13.5C4 15.9853 6.01472 18 8.5 18H15C15.5523 18 16 18.4477 16 19C16 19.5523 15.5523 20 15 20H8.5C4.91015 20 2 17.0899 2 13.5C2 9.91015 4.91015 7 8.5 7H18.5858L15.2929 3.70711C14.9024 3.31658 14.9024 2.68342 15.2929 2.29289C15.6834 1.90237 16.3166 1.90237 16.7071 2.29289L21.7071 7.29289C22.0976 7.68342 22.0976 8.31658 21.7071 8.70711L16.7071 13.7071Z" fill="#000640"/>
</svg>
