<svg width="24" height="24" viewBox="0 0 24 24" fill="none" xmlns="http://www.w3.org/2000/svg">
<path d="M15.2929 3.29289L10.2929 8.29289C9.90237 8.68342 9.90237 9.31658 10.2929 9.70711C10.6834 10.0976 11.3166 10.0976 11.7071 9.70711L15 6.41421V15.5C15 17.9853 12.9853 20 10.5 20C8.01472 20 6 17.9853 6 15.5V9C6 8.44772 5.55228 8 5 8C4.44772 8 4 8.44772 4 9V15.5C4 19.0899 6.91015 22 10.5 22C14.0899 22 17 19.0899 17 15.5V6.41421L20.2929 9.70711C20.6834 10.0976 21.3166 10.0976 21.7071 9.70711C22.0976 9.31658 22.0976 8.68342 21.7071 8.29289L16.7071 3.29289C16.3166 2.90237 15.6834 2.90237 15.2929 3.29289Z" fill="#000640"/>
</svg>
