<svg width="24" height="24" viewBox="0 0 24 24" fill="none" xmlns="http://www.w3.org/2000/svg">
<path fill-rule="evenodd" clip-rule="evenodd" d="M2 11C1.44772 11 1 10.5523 1 10C1 4.83274 6.14463 1 12 1C17.8554 1 23 4.83274 23 10C23 10.5523 22.5523 11 22 11H2ZM9.41135 3.29081C6.01668 4.0791 3.59231 6.37481 3.0945 9H7.04859C7.22974 7.14523 7.93263 5.19196 9.41135 3.29081ZM12 3.37509C10.0946 5.29279 9.27554 7.23505 9.06049 9H14.9395C14.7245 7.23505 13.9054 5.29279 12 3.37509ZM16.9514 9H20.9055C20.4077 6.37481 17.9833 4.0791 14.5887 3.29081C16.0674 5.19196 16.7703 7.14523 16.9514 9Z" fill="#000640"/>
<path fill-rule="evenodd" clip-rule="evenodd" d="M12 10C12.5523 10 13 10.4477 13 11V20C13 20.5523 13.4477 21 14 21C14.5523 21 15 20.5523 15 20C15 19.4477 15.4477 19 16 19C16.5523 19 17 19.4477 17 20C17 21.6569 15.6569 23 14 23C12.3431 23 11 21.6569 11 20V11C11 10.4477 11.4477 10 12 10Z" fill="#000640"/>
</svg>
