<svg width="24" height="24" viewBox="0 0 24 24" fill="none" xmlns="http://www.w3.org/2000/svg">
<path d="M9 4.5C9 4.22386 9.22386 4 9.5 4H10.5C10.7761 4 11 4.22386 11 4.5V5.5C11 5.77614 10.7761 6 10.5 6H9.5C9.22386 6 9 5.77614 9 5.5V4.5Z" fill="#000640"/>
<path d="M13.5 4C13.2239 4 13 4.22386 13 4.5V5.5C13 5.77614 13.2239 6 13.5 6H14.5C14.7761 6 15 5.77614 15 5.5V4.5C15 4.22386 14.7761 4 14.5 4H13.5Z" fill="#000640"/>
<path fill-rule="evenodd" clip-rule="evenodd" d="M18 8.17071V4C18 2.34315 16.6569 1 15 1H9C7.34315 1 6 2.34315 6 4V8.17071C4.83481 8.58254 4 9.69378 4 11V15.3944C4 15.9867 4.17531 16.5657 4.50385 17.0585L8.16795 22.5547C8.35342 22.8329 8.66565 23 9 23H15C15.3344 23 15.6466 22.8329 15.8321 22.5547L19.4962 17.0585C19.8247 16.5657 20 15.9867 20 15.3944V11C20 9.69378 19.1652 8.58254 18 8.17071ZM9 3C8.44772 3 8 3.44772 8 4V8H16V4C16 3.44772 15.5523 3 15 3H9ZM7 10C6.44772 10 6 10.4477 6 11V15.3944C6 15.5919 6.05844 15.7849 6.16795 15.9491L9.53518 21H14.4648L17.8321 15.9491C17.9416 15.7849 18 15.5919 18 15.3944V11C18 10.4477 17.5523 10 17 10H7Z" fill="#000640"/>
</svg>
