<svg width="24" height="24" viewBox="0 0 24 24" fill="none" xmlns="http://www.w3.org/2000/svg">
<path fill-rule="evenodd" clip-rule="evenodd" d="M17.9995 7C17.9995 10.3137 15.3132 13 11.9995 13C8.68582 13 5.99953 10.3137 5.99953 7C5.99953 3.68629 8.68582 1 11.9995 1C15.3132 1 17.9995 3.68629 17.9995 7ZM15.9995 7C15.9995 9.20914 14.2087 11 11.9995 11C9.79039 11 7.99953 9.20914 7.99953 7C7.99953 4.79086 9.79039 3 11.9995 3C14.2087 3 15.9995 4.79086 15.9995 7Z" fill="#000640"/>
<path d="M4.39666 19.4886C4.72482 18.7697 5.32761 17.9172 6.46086 17.2357C7.60017 16.5506 9.33979 16 11.9996 16C12.5519 16 12.9996 15.5523 12.9996 15C12.9996 14.4477 12.5519 14 11.9996 14C9.06446 14 6.94821 14.6088 5.43015 15.5217C3.90604 16.4383 3.04998 17.6224 2.57724 18.6581C2.17876 19.5311 2.36012 20.4207 2.88956 21.0546C3.39422 21.6587 4.17891 22 4.99956 22H11.9995C12.5518 22 12.9995 21.5523 12.9995 21C12.9995 20.4477 12.5518 20 11.9995 20H4.99956C4.71563 20 4.51467 19.8804 4.42451 19.7724C4.38253 19.7222 4.36793 19.6803 4.36349 19.6506C4.3596 19.6245 4.35791 19.5735 4.39666 19.4886Z" fill="#000640"/>
<path d="M17.9995 14C18.5518 14 18.9995 14.4477 18.9995 15V16.9999L20.9996 17C21.5518 17 21.9995 17.4477 21.9995 18C21.9995 18.5523 21.5518 19 20.9995 19L18.9995 18.9999V21C18.9995 21.5523 18.5518 22 17.9995 22C17.4472 22 16.9995 21.5523 16.9995 21V18.9999L14.9995 18.9998C14.4472 18.9998 13.9995 18.5521 13.9995 17.9998C13.9995 17.4475 14.4473 16.9998 14.9996 16.9998L16.9995 16.9999V15C16.9995 14.4477 17.4472 14 17.9995 14Z" fill="#000640"/>
</svg>
