<svg width="24" height="24" viewBox="0 0 24 24" fill="none" xmlns="http://www.w3.org/2000/svg">
<path fill-rule="evenodd" clip-rule="evenodd" d="M11.9995 13C15.3132 13 17.9995 10.3137 17.9995 7C17.9995 3.68629 15.3132 1 11.9995 1C8.68582 1 5.99953 3.68629 5.99953 7C5.99953 10.3137 8.68582 13 11.9995 13ZM11.9995 11C14.2087 11 15.9995 9.20914 15.9995 7C15.9995 4.79086 14.2087 3 11.9995 3C9.79039 3 7.99953 4.79086 7.99953 7C7.99953 9.20914 9.79039 11 11.9995 11Z" fill="#000640"/>
<path d="M6.46086 17.2357C5.32761 17.9172 4.72482 18.7697 4.39666 19.4886C4.35791 19.5735 4.3596 19.6245 4.36349 19.6506C4.36793 19.6803 4.38253 19.7222 4.42451 19.7724C4.51467 19.8804 4.71563 20 4.99956 20H11.9995C12.5518 20 12.9995 20.4477 12.9995 21C12.9995 21.5523 12.5518 22 11.9995 22H4.99956C4.17891 22 3.39422 21.6587 2.88956 21.0546C2.36012 20.4207 2.17876 19.5311 2.57724 18.6581C3.04998 17.6224 3.90604 16.4383 5.43015 15.5217C6.94821 14.6088 9.06446 14 11.9996 14C12.5519 14 12.9996 14.4477 12.9996 15C12.9996 15.5523 12.5519 16 11.9996 16C9.33979 16 7.60017 16.5506 6.46086 17.2357Z" fill="#000640"/>
<path d="M20.9995 19C21.5518 19 21.9995 18.5523 21.9995 18C21.9995 17.4477 21.5518 17 20.9996 17L14.9996 16.9998C14.4473 16.9998 13.9995 17.4475 13.9995 17.9998C13.9995 18.5521 14.4472 18.9998 14.9995 18.9998L20.9995 19Z" fill="#000640"/>
</svg>
