<svg width="24" height="24" viewBox="0 0 24 24" fill="none" xmlns="http://www.w3.org/2000/svg">
<path fill-rule="evenodd" clip-rule="evenodd" d="M10.9996 13C14.3133 13 16.9996 10.3137 16.9996 7C16.9996 3.68629 14.3133 1 10.9996 1C7.68586 1 4.99957 3.68629 4.99957 7C4.99957 10.3137 7.68586 13 10.9996 13ZM10.9996 11C13.2087 11 14.9996 9.20914 14.9996 7C14.9996 4.79086 13.2087 3 10.9996 3C8.79043 3 6.99957 4.79086 6.99957 7C6.99957 9.20914 8.79043 11 10.9996 11Z" fill="#000640"/>
<path d="M9.99286 14.9942C10.0568 15.5428 9.66388 16.0393 9.11531 16.1032C5.33571 16.5436 3.94582 18.2855 3.39666 19.4887C3.3579 19.5736 3.3596 19.6246 3.36349 19.6506C3.36793 19.6803 3.38252 19.7221 3.42449 19.7724C3.51464 19.8803 3.71562 19.9999 3.99962 19.9999L8.99957 19.9999C9.55186 19.9999 9.99957 20.4476 9.99958 20.9999C9.99958 21.5522 9.55186 21.9999 8.99958 21.9999L3.99963 21.9999C3.17904 21.9999 2.39436 21.6588 1.88965 21.0547C1.36015 20.4209 1.17875 19.5312 1.57721 18.6582C2.42268 16.8059 4.42286 14.6364 8.88385 14.1167C9.43242 14.0528 9.92894 14.4457 9.99286 14.9942Z" fill="#000640"/>
<path d="M16.9994 15C17.5517 15 17.9994 15.4477 17.9994 16V17H18.9994C19.5516 17 19.9994 17.4477 19.9994 18C19.9994 18.5523 19.5516 19 18.9994 19H17.9994V20C17.9994 20.5523 17.5517 21 16.9994 21C16.4471 21 15.9994 20.5523 15.9994 20V19H14.9994C14.4471 19 13.9994 18.5523 13.9994 18C13.9994 17.4477 14.4471 17 14.9994 17H15.9994V16C15.9994 15.4477 16.4471 15 16.9994 15Z" fill="#000640"/>
<path fill-rule="evenodd" clip-rule="evenodd" d="M22.9996 18C22.9996 21.3137 20.3133 24 16.9996 24C13.6859 24 10.9996 21.3137 10.9996 18C10.9996 14.6863 13.6859 12 16.9996 12C20.3133 12 22.9996 14.6863 22.9996 18ZM20.9996 18C20.9996 20.2091 19.2087 22 16.9996 22C14.7904 22 12.9996 20.2091 12.9996 18C12.9996 15.7909 14.7904 14 16.9996 14C19.2087 14 20.9996 15.7909 20.9996 18Z" fill="#000640"/>
</svg>
