<svg width="24" height="24" viewBox="0 0 24 24" fill="none" xmlns="http://www.w3.org/2000/svg">
<path fill-rule="evenodd" clip-rule="evenodd" d="M14.9999 7C14.9999 10.3137 12.3136 13 8.99988 13C5.68617 13 2.99988 10.3137 2.99988 7C2.99988 3.68629 5.68617 1 8.99988 1C12.3136 1 14.9999 3.68629 14.9999 7ZM12.9999 7C12.9999 9.20914 11.209 11 8.99988 11C6.79074 11 4.99988 9.20914 4.99988 7C4.99988 4.79086 6.79074 3 8.99988 3C11.209 3 12.9999 4.79086 12.9999 7Z" fill="#000640"/>
<path d="M21.9999 14.0002C22.5522 14.0002 22.9999 13.5524 22.9999 13.0002C22.9999 12.4479 22.5522 12.0002 21.9999 12.0002H19.9999V10C19.9999 9.44771 19.5522 9 18.9999 9C18.4476 9 17.9999 9.44771 17.9999 10V12.0002H15.9999C15.4476 12.0002 14.9999 12.4479 14.9999 13.0002C14.9999 13.5524 15.4476 14.0002 15.9999 14.0002H17.9999V16C17.9999 16.5523 18.4476 17 18.9999 17C19.5522 17 19.9999 16.5523 19.9999 16V14.0002H21.9999Z" fill="#000640"/>
<path fill-rule="evenodd" clip-rule="evenodd" d="M8.99993 14C6.64894 14 4.93064 14.6272 3.69779 15.5735C2.47414 16.5128 1.80844 17.705 1.44741 18.7086C1.12964 19.5919 1.35224 20.4566 1.88508 21.0695C2.39967 21.6613 3.17877 22 3.99991 22H13.9999C14.821 22 15.6001 21.6613 16.1147 21.0695C16.6475 20.4567 16.8701 19.592 16.5524 18.7086C16.1914 17.705 15.5257 16.5128 14.3021 15.5736C13.0692 14.6272 11.3509 14 8.99993 14ZM3.32935 19.3856C3.59832 18.6378 4.07344 17.8065 4.91558 17.16C5.74852 16.5207 7.021 16 8.99993 16C10.9789 16 12.2513 16.5207 13.0843 17.16C13.9264 17.8065 14.4015 18.6379 14.6704 19.3856C14.7266 19.5416 14.6957 19.6534 14.6054 19.7572C14.4969 19.882 14.2833 20 13.9999 20H3.99991C3.71646 20 3.50285 19.882 3.39435 19.7572C3.3041 19.6534 3.27322 19.5416 3.32935 19.3856Z" fill="#000640"/>
</svg>
