<svg width="24" height="24" viewBox="0 0 24 24" fill="none" xmlns="http://www.w3.org/2000/svg">
<path fill-rule="evenodd" clip-rule="evenodd" d="M20.9998 7C20.9998 10.3137 18.3135 13 14.9998 13C11.6861 13 8.99982 10.3137 8.99982 7C8.99982 3.68629 11.6861 1 14.9998 1C18.3135 1 20.9998 3.68629 20.9998 7ZM18.9998 7C18.9998 9.20914 17.209 11 14.9998 11C12.7907 11 10.9998 9.20914 10.9998 7C10.9998 4.79086 12.7907 3 14.9998 3C17.209 3 18.9998 4.79086 18.9998 7Z" fill="#000640"/>
<path d="M8.19875 3.07982C8.74 2.96995 9.0897 2.44212 8.97983 1.90087C8.86996 1.35963 8.34213 1.00992 7.80088 1.11979C5.06178 1.6758 2.99982 4.09587 2.99982 6.99979C2.99982 9.9037 5.06178 12.3238 7.80088 12.8798C8.34213 12.9896 8.86996 12.6399 8.97983 12.0987C9.0897 11.5575 8.74 11.0296 8.19875 10.9198C6.37338 10.5492 4.99982 8.93379 4.99982 6.99979C4.99982 5.06578 6.37338 3.45035 8.19875 3.07982Z" fill="#000640"/>
<path fill-rule="evenodd" clip-rule="evenodd" d="M9.69773 15.5735C10.9306 14.6272 12.6489 14 14.9999 14C17.3509 14 19.0692 14.6272 20.302 15.5736C21.5256 16.5128 22.1913 17.705 22.5523 18.7086C22.8701 19.592 22.6475 20.4567 22.1146 21.0695C21.6 21.6613 20.8209 22 19.9998 22H9.99985C9.17871 22 8.39961 21.6613 7.88502 21.0695C7.35218 20.4566 7.12958 19.5919 7.44735 18.7086C7.80838 17.705 8.47408 16.5128 9.69773 15.5735ZM10.9155 17.16C10.0734 17.8065 9.59826 18.6378 9.32929 19.3856C9.27316 19.5416 9.30404 19.6534 9.39429 19.7572C9.50279 19.882 9.7164 20 9.99985 20H19.9998C20.2833 20 20.4969 19.882 20.6054 19.7572C20.6956 19.6534 20.7265 19.5416 20.6704 19.3856C20.4014 18.6379 19.9263 17.8065 19.0842 17.16C18.2513 16.5207 16.9788 16 14.9999 16C13.0209 16 11.7485 16.5207 10.9155 17.16Z" fill="#000640"/>
<path d="M3.25074 19.2769C3.45545 18.4886 3.80679 17.6598 4.38662 17.0404C4.9377 16.4517 5.74033 16 6.99982 16C7.5521 16 7.99982 15.5523 7.99982 15C7.99982 14.4477 7.5521 14 6.99982 14C5.17915 14 3.85035 14.6867 2.92652 15.6736C2.03143 16.6298 1.56437 17.8138 1.31496 18.7741C0.83176 20.6347 2.41431 22 3.99979 22H4.76901C5.32129 22 5.76901 21.5523 5.76901 21C5.76901 20.4477 5.32129 20 4.76901 20H3.99979C3.71726 20 3.49227 19.8839 3.36435 19.7426C3.2485 19.6146 3.20242 19.4629 3.25074 19.2769Z" fill="#000640"/>
</svg>
