<svg width="24" height="24" viewBox="0 0 24 24" fill="none" xmlns="http://www.w3.org/2000/svg">
<path d="M6 11C6.55228 11 7 10.5523 7 10C7 9.44772 6.55228 9 6 9C5.44772 9 5 9.44772 5 10C5 10.5523 5.44772 11 6 11Z" fill="#000640"/>
<path d="M13 10C13 10.5523 12.5523 11 12 11C11.4477 11 11 10.5523 11 10C11 9.44772 11.4477 9 12 9C12.5523 9 13 9.44772 13 10Z" fill="#000640"/>
<path d="M10.5 15C11.0523 15 11.5 14.5523 11.5 14C11.5 13.4477 11.0523 13 10.5 13C9.94772 13 9.5 13.4477 9.5 14C9.5 14.5523 9.94772 15 10.5 15Z" fill="#000640"/>
<path d="M16 10C16 10.5523 15.5523 11 15 11C14.4477 11 14 10.5523 14 10C14 9.44772 14.4477 9 15 9C15.5523 9 16 9.44772 16 10Z" fill="#000640"/>
<path d="M13.5 15C14.0523 15 14.5 14.5523 14.5 14C14.5 13.4477 14.0523 13 13.5 13C12.9477 13 12.5 13.4477 12.5 14C12.5 14.5523 12.9477 15 13.5 15Z" fill="#000640"/>
<path d="M19 10C19 10.5523 18.5523 11 18 11C17.4477 11 17 10.5523 17 10C17 9.44772 17.4477 9 18 9C18.5523 9 19 9.44772 19 10Z" fill="#000640"/>
<path d="M16.5 15C17.0523 15 17.5 14.5523 17.5 14C17.5 13.4477 17.0523 13 16.5 13C15.9477 13 15.5 13.4477 15.5 14C15.5 14.5523 15.9477 15 16.5 15Z" fill="#000640"/>
<path d="M10 10C10 10.5523 9.55228 11 9 11C8.44772 11 8 10.5523 8 10C8 9.44772 8.44772 9 9 9C9.55228 9 10 9.44772 10 10Z" fill="#000640"/>
<path d="M7.5 15C8.05228 15 8.5 14.5523 8.5 14C8.5 13.4477 8.05228 13 7.5 13C6.94772 13 6.5 13.4477 6.5 14C6.5 14.5523 6.94772 15 7.5 15Z" fill="#000640"/>
<path fill-rule="evenodd" clip-rule="evenodd" d="M3.95959 5C2.05665 5 0.634534 6.74892 1.02265 8.61186L2.68931 16.6119C2.97914 18.003 4.20523 19 5.62626 19H18.3737C19.7947 19 21.0208 18.003 21.3106 16.6119L22.9773 8.61186C23.3654 6.74892 21.9433 5 20.0404 5H3.95959ZM2.98061 8.20395C2.85124 7.58297 3.32527 7 3.95959 7H20.0404C20.6747 7 21.1487 7.58297 21.0194 8.20395L19.3527 16.204C19.2561 16.6677 18.8474 17 18.3737 17H5.62626C5.15258 17 4.74388 16.6677 4.64728 16.204L2.98061 8.20395Z" fill="#000640"/>
</svg>
