<svg width="24" height="24" viewBox="0 0 24 24" fill="none" xmlns="http://www.w3.org/2000/svg">
<path fill-rule="evenodd" clip-rule="evenodd" d="M16.5547 12.8321C16.8329 12.6466 17 12.3344 17 12C17 11.6657 16.8329 11.3534 16.5547 11.168L10.5547 7.16795C10.2478 6.96338 9.8533 6.94431 9.52814 7.11833C9.20298 7.29235 9 7.63121 9 8L9 16C9 16.3688 9.20298 16.7077 9.52814 16.8817C9.8533 17.0557 10.2478 17.0366 10.5547 16.8321L16.5547 12.8321ZM11 14.1315L11 9.86852L14.1972 12L11 14.1315Z" fill="#000640"/>
<path fill-rule="evenodd" clip-rule="evenodd" d="M3 3C1.34315 3 0 4.34315 0 6V18C0 19.6569 1.34314 21 3 21H21C22.6569 21 24 19.6569 24 18V6C24 4.34315 22.6569 3 21 3H3ZM2 6C2 5.44772 2.44772 5 3 5H21C21.5523 5 22 5.44771 22 6V18C22 18.5523 21.5523 19 21 19H3C2.44772 19 2 18.5523 2 18V6Z" fill="#000640"/>
</svg>
