<svg width="24" height="24" viewBox="0 0 24 24" fill="none" xmlns="http://www.w3.org/2000/svg">
<path d="M5 1C4.44772 1 4 1.44772 4 2C4 2.55228 4.44772 3 5 3H19C19.5523 3 20 2.55228 20 2C20 1.44772 19.5523 1 19 1H5Z" fill="#000640"/>
<path fill-rule="evenodd" clip-rule="evenodd" d="M17 14C17 14.3344 16.8329 14.6466 16.5547 14.8321L10.5547 18.8321C10.2478 19.0366 9.8533 19.0557 9.52814 18.8817C9.20298 18.7077 9 18.3688 9 18L9 10C9 9.63121 9.20298 9.29235 9.52814 9.11833C9.8533 8.94431 10.2478 8.96338 10.5547 9.16795L16.5547 13.168C16.8329 13.3534 17 13.6657 17 14ZM11 11.8685L11 16.1315L14.1972 14L11 11.8685Z" fill="#000640"/>
<path fill-rule="evenodd" clip-rule="evenodd" d="M1 8C1 6.34315 2.34315 5 4 5H20C21.6569 5 23 6.34315 23 8V20C23 21.6569 21.6569 23 20 23H4C2.34315 23 1 21.6569 1 20V8ZM4 7C3.44772 7 3 7.44772 3 8V20C3 20.5523 3.44772 21 4 21H20C20.5523 21 21 20.5523 21 20V8C21 7.44772 20.5523 7 20 7H4Z" fill="#000640"/>
</svg>
