<svg width="24" height="24" viewBox="0 0 24 24" fill="none" xmlns="http://www.w3.org/2000/svg">
<path fill-rule="evenodd" clip-rule="evenodd" d="M13 12C13 14.2091 11.2091 16 9 16C6.79086 16 5 14.2091 5 12C5 9.79086 6.79086 8 9 8C11.2091 8 13 9.79086 13 12ZM11 12C11 13.1046 10.1046 14 9 14C7.89543 14 7 13.1046 7 12C7 10.8954 7.89543 10 9 10C10.1046 10 11 10.8954 11 12Z" fill="#000640"/>
<path fill-rule="evenodd" clip-rule="evenodd" d="M3 3C1.34315 3 0 4.34315 0 6V18C0 19.6569 1.34315 21 3 21H15C16.6569 21 18 19.6569 18 18V16.5L22.6154 18.4231C22.924 18.5517 23.2765 18.5175 23.5547 18.3321C23.8329 18.1466 24 17.8344 24 17.5V7C24 6.67856 23.8455 6.37671 23.5847 6.18876C23.3239 6.00081 22.9887 5.94967 22.6838 6.05132L18 7.61257V6C18 4.34315 16.6569 3 15 3H3ZM22 16L18 14.3333V9.72076L22 8.38743V16ZM2 6C2 5.44772 2.44772 5 3 5H15C15.5523 5 16 5.44772 16 6V18C16 18.5523 15.5523 19 15 19H3C2.44772 19 2 18.5523 2 18V6Z" fill="#000640"/>
</svg>
