<svg width="24" height="24" viewBox="0 0 24 24" fill="none" xmlns="http://www.w3.org/2000/svg">
<path fill-rule="evenodd" clip-rule="evenodd" d="M5 9C5 6.79086 6.79086 5 9 5C11.2091 5 13 6.79086 13 9C13 11.2091 11.2091 13 9 13C6.79086 13 5 11.2091 5 9ZM9 7C7.89543 7 7 7.89543 7 9C7 10.1046 7.89543 11 9 11C10.1046 11 11 10.1046 11 9C11 7.89543 10.1046 7 9 7Z" fill="#000640"/>
<path fill-rule="evenodd" clip-rule="evenodd" d="M1 5C1 3.34315 2.34315 2 4 2H14C15.5283 2 16.7897 3.14281 16.9762 4.6205L21.6838 3.05132C21.9887 2.94967 22.3239 3.00081 22.5847 3.18876C22.8455 3.37671 23 3.67856 23 4V14C23 14.3214 22.8455 14.6233 22.5847 14.8112C22.3239 14.9992 21.9887 15.0503 21.6838 14.9487L16.9762 13.3795C16.7897 14.8572 15.5283 16 14 16H10.3017L14.7682 21.3598C15.1218 21.7841 15.0645 22.4147 14.6402 22.7682C14.2159 23.1218 13.5853 23.0645 13.2318 22.6402L8.99999 17.562L4.76822 22.6402C4.41465 23.0645 3.78409 23.1218 3.35981 22.7682C2.93553 22.4147 2.87821 21.7841 3.23177 21.3598L7.69829 16H4C2.34315 16 1 14.6569 1 13V5ZM17 11.2792L21 12.6126V5.38743L17 6.72076V11.2792ZM4 4C3.44772 4 3 4.44772 3 5V13C3 13.5523 3.44772 14 4 14H14C14.5523 14 15 13.5523 15 13V5C15 4.44772 14.5523 4 14 4H4Z" fill="#000640"/>
</svg>
