<svg width="24" height="24" viewBox="0 0 24 24" fill="none" xmlns="http://www.w3.org/2000/svg">
<path fill-rule="evenodd" clip-rule="evenodd" d="M12 18C15.866 18 19 14.866 19 11C19 7.13401 15.866 4 12 4C8.13401 4 5 7.13401 5 11C5 12.6969 5.60382 14.2528 6.60832 15.4646L4.38219 17.2137C3.94792 17.5549 3.87248 18.1835 4.21369 18.6178C4.55491 19.0521 5.18356 19.1275 5.61783 18.7863L8.11529 16.824C9.22676 17.5669 10.5628 18 12 18ZM9.80713 15.4947C10.4692 15.8184 11.2134 16 12 16C14.7614 16 17 13.7614 17 11C17 8.23858 14.7614 6 12 6C9.23858 6 7 8.23858 7 11C7 12.2305 7.44452 13.3572 8.18175 14.2283L11 12.014V10C11 9.44771 11.4477 9 12 9C12.5523 9 13 9.44771 13 10V12.5C13 12.8069 12.8591 13.0967 12.6178 13.2863L9.80713 15.4947Z" fill="#000640"/>
<path d="M19 18C19 18.5523 18.5523 19 18 19C17.4477 19 17 18.5523 17 18C17 17.4477 17.4477 17 18 17C18.5523 17 19 17.4477 19 18Z" fill="#000640"/>
<path fill-rule="evenodd" clip-rule="evenodd" d="M4 1C2.34315 1 1 2.34315 1 4V20C1 21.6569 2.34315 23 4 23H20C21.6569 23 23 21.6569 23 20V4C23 2.34315 21.6569 1 20 1H4ZM3 4C3 3.44772 3.44772 3 4 3H20C20.5523 3 21 3.44772 21 4V20C21 20.5523 20.5523 21 20 21H4C3.44772 21 3 20.5523 3 20V4Z" fill="#000640"/>
</svg>
