<svg width="24" height="24" viewBox="0 0 24 24" fill="none" xmlns="http://www.w3.org/2000/svg">
<path fill-rule="evenodd" clip-rule="evenodd" d="M12.4242 2.09442C12.7755 2.259 13 2.61199 13 3.00001V21C13 21.388 12.7755 21.741 12.4242 21.9056C12.0728 22.0702 11.6579 22.0166 11.3598 21.7682L5.63795 17H2C1.44772 17 1 16.5523 1 16V8.00001C1 7.44773 1.44772 7.00001 2 7.00001H5.63795L11.3598 2.23179C11.6579 1.98339 12.0728 1.92984 12.4242 2.09442ZM11 5.13505L6.64018 8.76823C6.46047 8.918 6.23394 9.00001 6 9.00001H3V15H6C6.23394 15 6.46047 15.082 6.64018 15.2318L11 18.865V5.13505Z" fill="#000640"/>
<path d="M15.5026 7.02682C15.8906 6.63373 16.5237 6.62955 16.9168 7.01749C18.2018 8.2856 19 10.0505 19 11.9999C19 13.9443 18.2059 15.7051 16.9268 16.9725C16.5345 17.3612 15.9014 17.3583 15.5126 16.966C15.1239 16.5737 15.1268 15.9405 15.5191 15.5518C16.4347 14.6446 17 13.3892 17 11.9999C17 10.6071 16.4318 9.34875 15.512 8.441C15.1189 8.05306 15.1147 7.41991 15.5026 7.02682Z" fill="#000640"/>
<path d="M19.7 4.14442C19.3057 3.7578 18.6725 3.76409 18.2859 4.15848C17.8993 4.55286 17.9056 5.186 18.3 5.57262C19.9674 7.20721 21 9.48209 21 12C21 14.5178 19.9674 16.7927 18.3 18.4273C17.9056 18.8139 17.8993 19.447 18.2859 19.8414C18.6725 20.2358 19.3057 20.2421 19.7 19.8555C21.7354 17.8602 23 15.0769 23 12C23 8.92303 21.7354 6.13967 19.7 4.14442Z" fill="#000640"/>
</svg>
