<svg width="24" height="24" viewBox="0 0 24 24" fill="none" xmlns="http://www.w3.org/2000/svg">
<path fill-rule="evenodd" clip-rule="evenodd" d="M13 3.00001C13 2.61199 12.7755 2.259 12.4242 2.09442C12.0728 1.92984 11.6579 1.98339 11.3598 2.23179L5.63795 7.00001H2C1.44772 7.00001 1 7.44773 1 8.00001V16C1 16.5523 1.44772 17 2 17H5.63795L11.3598 21.7682C11.6579 22.0166 12.0728 22.0702 12.4242 21.9056C12.7755 21.741 13 21.388 13 21V3.00001ZM6.64018 8.76823L11 5.13505V18.865L6.64018 15.2318C6.46047 15.082 6.23394 15 6 15H3V9.00001H6C6.23394 9.00001 6.46047 8.918 6.64018 8.76823Z" fill="#000640"/>
<path d="M16.9168 7.01749C16.5237 6.62955 15.8906 6.63373 15.5026 7.02682C15.1147 7.41991 15.1189 8.05306 15.512 8.441C16.4318 9.34875 17 10.6071 17 11.9999C17 13.3892 16.4347 14.6446 15.5191 15.5518C15.1268 15.9405 15.1239 16.5737 15.5126 16.966C15.9014 17.3583 16.5345 17.3612 16.9268 16.9725C18.2059 15.7051 19 13.9443 19 11.9999C19 10.0505 18.2018 8.2856 16.9168 7.01749Z" fill="#000640"/>
</svg>
