<svg width="24" height="24" viewBox="0 0 24 24" fill="none" xmlns="http://www.w3.org/2000/svg">
<path d="M17 13C17.5523 13 18 12.5523 18 12C18 11.4477 17.5523 11 17 11C16.4477 11 16 11.4477 16 12C16 12.5523 16.4477 13 17 13Z" fill="#000640"/>
<path fill-rule="evenodd" clip-rule="evenodd" d="M1 5C1 3.34315 2.34315 2 4 2H18C19.6569 2 21 3.34315 21 5V7.17071C22.1652 7.58254 23 8.69378 23 10V14C23 15.3062 22.1652 16.4175 21 16.8293V19C21 20.6569 19.6569 22 18 22H4C2.34315 22 1 20.6569 1 19V5ZM19 5V7H16C15.0557 7 14.1666 7.44458 13.6 8.2L12.1 10.2C11.3 11.2667 11.3 12.7333 12.1 13.8L13.6 15.8C14.1666 16.5554 15.0557 17 16 17H19V19C19 19.5523 18.5523 20 18 20H4C3.44772 20 3 19.5523 3 19V5C3 4.44772 3.44772 4 4 4H18C18.5523 4 19 4.44772 19 5ZM16 9C15.6852 9 15.3889 9.14819 15.2 9.4L13.7 11.4C13.4333 11.7556 13.4333 12.2444 13.7 12.6L15.2 14.6C15.3889 14.8518 15.6852 15 16 15H20C20.5523 15 21 14.5523 21 14V10C21 9.44771 20.5523 9 20 9H16Z" fill="#000640"/>
</svg>
