<svg width="24" height="24" viewBox="0 0 24 24" fill="none" xmlns="http://www.w3.org/2000/svg">
<path fill-rule="evenodd" clip-rule="evenodd" d="M4 2C2.34315 2 1 3.34315 1 5V19C1 20.6569 2.34315 22 4 22H18C19.6569 22 21 20.6569 21 19V17.8293C22.1652 17.4175 23 16.3062 23 15V13C23 11.6938 22.1652 10.5825 21 10.1707V9C21 7.34315 19.6569 6 18 6V5C18 3.34315 16.6569 2 15 2H4ZM4 4C3.44772 4 3 4.44772 3 5C3 5.55228 3.44772 6 4 6H16V5C16 4.44772 15.5523 4 15 4H4ZM3 7.82929V19C3 19.5523 3.44772 20 4 20H18C18.5523 20 19 19.5523 19 19V18H16C14.3431 18 13 16.6569 13 15V13C13 11.3431 14.3431 10 16 10H19V9C19 8.44772 18.5523 8 18 8H4C3.64936 8 3.31278 7.93985 3 7.82929ZM16 12C15.4477 12 15 12.4477 15 13V15C15 15.5523 15.4477 16 16 16H20C20.5523 16 21 15.5523 21 15V13C21 12.4477 20.5523 12 20 12H16Z" fill="#000640"/>
</svg>
