<svg width="24" height="24" viewBox="0 0 24 24" fill="none" xmlns="http://www.w3.org/2000/svg">
<path d="M13.5 16.5C13.5 17.3284 12.8284 18 12 18C11.1716 18 10.5 17.3284 10.5 16.5C10.5 15.6716 11.1716 15 12 15C12.8284 15 13.5 15.6716 13.5 16.5Z" fill="#000640"/>
<path d="M11.5645 6C10.9876 6 10.5304 6.48668 10.5664 7.06238L10.9707 13.5312C10.9872 13.7947 11.2057 14 11.4697 14H12.5303C12.7943 14 13.0128 13.7947 13.0293 13.5312L13.4336 7.06238C13.4696 6.48668 13.0124 6 12.4356 6H11.5645Z" fill="#000640"/>
<path fill-rule="evenodd" clip-rule="evenodd" d="M7.29289 1.29289C7.48043 1.10536 7.73478 1 8 1H16C16.2652 1 16.5196 1.10536 16.7071 1.29289L22.7071 7.29289C22.8946 7.48043 23 7.73478 23 8V16C23 16.2652 22.8946 16.5196 22.7071 16.7071L16.7071 22.7071C16.5196 22.8946 16.2652 23 16 23H8C7.73478 23 7.48043 22.8946 7.29289 22.7071L1.29289 16.7071C1.10536 16.5196 1 16.2652 1 16V8C1 7.73478 1.10536 7.48043 1.29289 7.29289L7.29289 1.29289ZM8.41421 3L3 8.41421V15.5858L8.41421 21H15.5858L21 15.5858V8.41421L15.5858 3H8.41421Z" fill="#000640"/>
</svg>
