<svg width="24" height="24" viewBox="0 0 24 24" fill="none" xmlns="http://www.w3.org/2000/svg">
<path d="M13.4995 16.5C13.4995 17.3284 12.8279 18 11.9995 18C11.1711 18 10.4995 17.3284 10.4995 16.5C10.4995 15.6716 11.1711 15 11.9995 15C12.8279 15 13.4995 15.6716 13.4995 16.5Z" fill="#000640"/>
<path d="M11.5863 8C11.0012 8 10.5412 8.50003 10.5897 9.08305L10.9613 13.5415C10.9829 13.8007 11.1995 14 11.4595 14H12.5394C12.7995 14 13.0161 13.8007 13.0377 13.5415L13.4092 9.08305C13.4578 8.50003 12.9977 8 12.4127 8H11.5863Z" fill="#000640"/>
<path fill-rule="evenodd" clip-rule="evenodd" d="M9.39475 2.54283C10.5464 0.527389 13.4525 0.52739 14.6042 2.54283L23.1579 17.5117C24.3007 19.5117 22.8566 22.0001 20.5531 22.0001H3.44584C1.14237 22.0001 -0.30173 19.5117 0.84111 17.5117L9.39475 2.54283ZM12.8677 3.53511C12.4838 2.8633 11.5151 2.8633 11.1312 3.53511L2.5776 18.504C2.19665 19.1706 2.67802 20.0001 3.44584 20.0001H20.5531C21.3209 20.0001 21.8023 19.1706 21.4214 18.504L12.8677 3.53511Z" fill="#000640"/>
</svg>
