<svg width="24" height="24" viewBox="0 0 24 24" fill="none" xmlns="http://www.w3.org/2000/svg">
<g clip-path="url(#clip0_1253_4806)">
<path fill-rule="evenodd" clip-rule="evenodd" d="M17.7102 3.17964C17.319 2.79307 16.6891 2.79494 16.3002 3.18382L14.9299 4.55414C16.996 5.36796 18.6411 7.01618 19.4508 9.08439L20.8503 7.70925C21.2484 7.31814 21.2493 6.67691 20.8524 6.28467L17.7102 3.17964ZM19.9747 11.3735L22.2521 9.13584C23.4462 7.96249 23.4489 6.03882 22.2581 4.86208L19.116 1.75705C17.9424 0.597341 16.0527 0.602955 14.886 1.76961L12.631 4.02465C12.4223 4.00831 12.2115 4 11.9989 4C7.58067 4 3.99894 7.58172 3.99894 12C3.99894 12.2107 4.00711 12.4196 4.02316 12.6265L1.73723 14.8726C0.548073 16.0411 0.53967 17.955 1.71852 19.1338L4.87762 22.2929C6.04919 23.4645 7.94869 23.4645 9.12027 22.2929L11.4329 19.9802C11.62 19.9933 11.8088 20 11.9989 20C16.4172 20 19.9989 16.4183 19.9989 12C19.9989 11.7893 19.9908 11.5804 19.9747 11.3735ZM9.11899 19.4657C7.02895 18.6591 5.36341 17.0008 4.54707 14.9156L3.13897 16.2992C2.74259 16.6887 2.73979 17.3266 3.13274 17.7196L6.29183 20.8787C6.68236 21.2692 7.31553 21.2692 7.70605 20.8787L9.11899 19.4657ZM11.9989 6C8.68524 6 5.99894 8.68629 5.99894 12C5.99894 12.292 6.01973 12.5786 6.05976 12.8584C6.43791 15.5021 8.54291 17.5917 11.1939 17.9466C11.4568 17.9818 11.7255 18 11.9989 18C15.3127 18 17.9989 15.3137 17.9989 12C17.9989 11.708 17.9782 11.4214 17.9381 11.1416C17.5625 8.51574 15.4832 6.43641 12.8573 6.06081C12.5775 6.02078 12.2909 6 11.9989 6ZM14.7061 9.29289C15.0966 9.68341 15.0966 10.3166 14.7061 10.7071L13.4132 12L14.7061 13.2929C15.0966 13.6834 15.0966 14.3166 14.7061 14.7071C14.3155 15.0976 13.6824 15.0976 13.2918 14.7071L11.2918 12.7071C10.9013 12.3166 10.9013 11.6834 11.2918 11.2929L13.2918 9.29289C13.6824 8.90237 14.3155 8.90237 14.7061 9.29289Z" fill="#000640"/>
</g>
<defs>
<clipPath id="clip0_1253_4806">
<rect width="24" height="24" fill="white"/>
</clipPath>
</defs>
</svg>
