<svg width="24" height="24" viewBox="0 0 24 24" fill="none" xmlns="http://www.w3.org/2000/svg">
<path fill-rule="evenodd" clip-rule="evenodd" d="M1 5C1 3.34315 2.34315 2 4 2H20C21.6569 2 23 3.34315 23 5V9C23 10.4806 22.1956 11.7733 21 12.4649V19C21 20.6569 19.6569 22 18 22H6C4.34315 22 3 20.6569 3 19V12.4649C1.8044 11.7733 1 10.4806 1 9V5ZM15 13H19V19C19 19.5523 18.5523 20 18 20H6C5.44772 20 5 19.5523 5 19L5 13H9V14C9 14.5523 9.44771 15 10 15H14C14.5523 15 15 14.5523 15 14V13ZM15 11H19C20.1046 11 21 10.1046 21 9V5C21 4.44772 20.5523 4 20 4H4C3.44772 4 3 4.44772 3 5V9C3 10.1046 3.89543 11 5 11H9V10C9 9.44772 9.44771 9 10 9H14C14.5523 9 15 9.44772 15 10V11ZM11 13V11H13V13H11Z" fill="#000640"/>
</svg>
