<svg width="24" height="24" viewBox="0 0 24 24" fill="none" xmlns="http://www.w3.org/2000/svg">
<path d="M13 9C13 8.44771 12.5523 8 12 8C11.4477 8 11 8.44771 11 9V12C11 12.5523 11.4477 13 12 13H15C15.5523 13 16 12.5523 16 12C16 11.4477 15.5523 11 15 11H13V9Z" fill="#000640"/>
<path fill-rule="evenodd" clip-rule="evenodd" d="M18 3V6.70838C19.2439 8.11796 20 9.97155 20 12C20 14.0285 19.2439 15.882 18 17.2916V21C18 22.6569 16.6569 24 15 24H9C7.34315 24 6 22.6569 6 21V17.2916C4.75609 15.882 4 14.0285 4 12C4 9.97155 4.75609 8.11796 6 6.70838V3C6 1.34315 7.34315 0 9 0H15C16.6569 0 18 1.34315 18 3ZM8 3C8 2.44772 8.44772 2 9 2H15C15.5523 2 16 2.44772 16 3V5.0705C14.8233 4.38997 13.4568 4 12 4C10.5432 4 9.17665 4.38997 8 5.0705V3ZM12 20C13.4568 20 14.8233 19.61 16 18.9295V21C16 21.5523 15.5523 22 15 22H9C8.44772 22 8 21.5523 8 21V18.9295C9.17665 19.61 10.5432 20 12 20ZM7.71424 7.80092C8.80442 6.6884 10.3209 6 12 6C13.6791 6 15.1956 6.6884 16.2858 7.80092C17.3472 8.88411 18 10.3648 18 12C18 13.6352 17.3472 15.1159 16.2858 16.1991C15.1956 17.3116 13.6791 18 12 18C10.3209 18 8.80442 17.3116 7.71424 16.1991C6.65279 15.1159 6 13.6352 6 12C6 10.3648 6.65279 8.88411 7.71424 7.80092Z" fill="#000640"/>
</svg>
