<svg width="24" height="24" viewBox="0 0 24 24" fill="none" xmlns="http://www.w3.org/2000/svg">
<g clip-path="url(#clip0_1253_4812)">
<path fill-rule="evenodd" clip-rule="evenodd" d="M17.7185 3.13377C17.3256 2.74082 16.6876 2.74362 16.2981 3.14001L14.9146 4.5481C16.9879 5.3598 18.6391 7.01105 19.4508 9.08436L20.8589 7.70079C21.2553 7.31131 21.2581 6.67335 20.8651 6.2804L17.7185 3.13377ZM19.9747 11.3735L22.2606 9.12737C23.4498 7.95892 23.4582 6.04504 22.2794 4.86618L19.1327 1.71956C17.9539 0.540705 16.04 0.549111 14.8715 1.73827L12.6254 4.0242C12.4185 4.00814 12.2096 3.99998 11.9989 3.99998C7.58066 3.99998 3.99894 7.5817 3.99894 12C3.99894 12.2106 4.00711 12.4196 4.02316 12.6265L1.73724 14.8726C0.548073 16.041 0.539668 17.9549 1.71852 19.1338L4.87762 22.2929C6.04919 23.4644 7.94869 23.4644 9.12026 22.2929L11.4329 19.9802C11.62 19.9933 11.8088 20 11.9989 20C16.4172 20 19.9989 16.4183 19.9989 12C19.9989 11.7893 19.9908 11.5804 19.9747 11.3735ZM9.11898 19.4657C7.02894 18.6591 5.36341 17.0008 4.54707 14.9156L3.13897 16.2992C2.74259 16.6886 2.73979 17.3266 3.13274 17.7196L6.29183 20.8787C6.68236 21.2692 7.31552 21.2692 7.70605 20.8787L9.11898 19.4657ZM11.9989 5.99998C8.68523 5.99998 5.99894 8.68627 5.99894 12C5.99894 12.292 6.01972 12.5785 6.05975 12.8584C6.4379 15.5021 8.54291 17.5916 11.1939 17.9466C11.4568 17.9817 11.7255 18 11.9989 18C15.3126 18 17.9989 15.3137 17.9989 12C17.9989 11.708 17.9782 11.4214 17.9381 11.1416C17.5625 8.51572 15.4832 6.43639 12.8573 6.06079C12.5775 6.02076 12.2909 5.99998 11.9989 5.99998Z" fill="#000640"/>
</g>
<defs>
<clipPath id="clip0_1253_4812">
<rect width="24" height="24" fill="white"/>
</clipPath>
</defs>
</svg>
