<svg width="24" height="24" viewBox="0 0 24 24" fill="none" xmlns="http://www.w3.org/2000/svg">
<path d="M8 11C8 10.4477 8.44772 10 9 10L15 10C15.5523 10 16 10.4477 16 11C16 11.5523 15.5523 12 15 12L9 12C8.44772 12 8 11.5523 8 11Z" fill="#000640"/>
<path d="M10 13C9.44772 13 9 13.4477 9 14C9 14.5523 9.44772 15 10 15H14C14.5523 15 15 14.5523 15 14C15 13.4477 14.5523 13 14 13H10Z" fill="#000640"/>
<path fill-rule="evenodd" clip-rule="evenodd" d="M18 6.70838V3C18 1.34315 16.6569 0 15 0H9C7.34315 0 6 1.34315 6 3V6.70838C4.75609 8.11796 4 9.97155 4 12C4 14.0285 4.75609 15.882 6 17.2916V21C6 22.6569 7.34315 24 9 24H15C16.6569 24 18 22.6569 18 21V17.2916C19.2439 15.882 20 14.0285 20 12C20 9.97155 19.2439 8.11796 18 6.70838ZM9 2C8.44772 2 8 2.44772 8 3V5.0705C9.17665 4.38997 10.5432 4 12 4C13.4568 4 14.8233 4.38997 16 5.0705V3C16 2.44772 15.5523 2 15 2H9ZM16 18.9295C14.8233 19.61 13.4568 20 12 20C10.5432 20 9.17665 19.61 8 18.9295V21C8 21.5523 8.44772 22 9 22H15C15.5523 22 16 21.5523 16 21V18.9295ZM12 6C10.3209 6 8.80442 6.6884 7.71424 7.80092C6.65279 8.88411 6 10.3648 6 12C6 13.6352 6.65279 15.1159 7.71424 16.1991C8.80442 17.3116 10.3209 18 12 18C13.6791 18 15.1956 17.3116 16.2858 16.1991C17.3472 15.1159 18 13.6352 18 12C18 10.3648 17.3472 8.88411 16.2858 7.80092C15.1956 6.6884 13.6791 6 12 6Z" fill="#000640"/>
</svg>
