<svg width="24" height="24" viewBox="0 0 24 24" fill="none" xmlns="http://www.w3.org/2000/svg">
<path fill-rule="evenodd" clip-rule="evenodd" d="M5.23986 13.1976C6.5739 12.6026 7.7388 12.388 8.81238 12.4551C10.3143 12.5489 11.4934 13.1927 12.4903 13.7534C12.532 13.7769 12.5734 13.8002 12.6145 13.8234C13.596 14.3762 14.4104 14.8348 15.4104 14.9973C16.2998 15.1419 17.4187 15.058 18.9659 14.3811C18.7656 12.45 17.7004 9.73649 16.2684 7.35913C15.484 6.05691 14.6276 4.92046 13.8154 4.12384C12.9528 3.27778 12.328 3 12 3C11.672 3 11.0472 3.27778 10.1846 4.12384C9.37244 4.92046 8.51601 6.05691 7.7316 7.35913C6.5729 9.28272 5.65441 11.4264 5.23986 13.1976ZM18.8056 16.5875C17.3973 17.0645 16.1871 17.1498 15.0896 16.9714C13.7266 16.7499 12.6243 16.1267 11.7005 15.6042C11.636 15.5678 11.5725 15.5319 11.5097 15.4966C10.5066 14.9323 9.6857 14.5136 8.68762 14.4512C7.7979 14.3956 6.64597 14.6214 5.02199 15.5529C5.15509 17.1979 5.88401 18.4791 6.98059 19.3864C8.21627 20.4087 9.97723 21 12 21C14.0228 21 15.7837 20.4087 17.0194 19.3864C17.8743 18.6791 18.5057 17.7445 18.8056 16.5875ZM8.78414 2.69602C9.70282 1.79493 10.828 1 12 1C13.172 1 14.2972 1.79493 15.2159 2.69602C16.1849 3.64654 17.141 4.93167 17.9816 6.32716C19.6389 9.07845 21 12.5184 21 15C21 17.5052 19.9732 19.5384 18.2943 20.9274C16.6345 22.3005 14.3955 23 12 23C9.60449 23 7.36545 22.3005 5.7057 20.9274C4.02682 19.5384 3 17.5052 3 15C3 12.5184 4.36113 9.07845 6.0184 6.32716C6.85899 4.93167 7.81506 3.64654 8.78414 2.69602Z" fill="#000640"/>
</svg>
