<svg width="24" height="24" viewBox="0 0 24 24" fill="none" xmlns="http://www.w3.org/2000/svg">
<path d="M7.28425 10.3332C7.97112 8.38991 9.82453 7 12 7C14.1755 7 16.0289 8.38991 16.7158 10.3332C16.8998 10.854 17.4711 11.1269 17.9918 10.9428C18.5126 10.7588 18.7855 10.1875 18.6014 9.66675C17.641 6.94932 15.0494 5 12 5C8.9506 5 6.35905 6.94932 5.39857 9.66675C5.21453 10.1875 5.48745 10.7588 6.00817 10.9428C6.52888 11.1269 7.10021 10.854 7.28425 10.3332Z" fill="#000640"/>
<path fill-rule="evenodd" clip-rule="evenodd" d="M4 1C2.34315 1 1 2.34315 1 4V20C1 21.6569 2.34315 23 4 23H20C21.6569 23 23 21.6569 23 20V4C23 2.34315 21.6569 1 20 1H4ZM3 4C3 3.44772 3.44772 3 4 3H20C20.5523 3 21 3.44772 21 4V16H14.8293C14.5264 15.143 13.8452 14.4648 12.9863 14.1659C12.9953 14.1119 13 14.0565 13 14V11C13 10.4477 12.5523 10 12 10C11.4477 10 11 10.4477 11 11V14C11 14.0565 11.0047 14.1119 11.0137 14.1659C10.1548 14.4648 9.4736 15.143 9.1707 16H3V4ZM14.8293 18H21V20C21 20.5523 20.5523 21 20 21H4C3.44772 21 3 20.5523 3 20V18H9.17071C9.58254 19.1652 10.6938 20 12 20C13.3062 20 14.4175 19.1652 14.8293 18ZM12 18C12.5523 18 13 17.5523 13 17C13 16.4477 12.5523 16 12 16C11.4477 16 11 16.4477 11 17C11 17.5523 11.4477 18 12 18Z" fill="#000640"/>
</svg>
