<svg width="24" height="24" viewBox="0 0 24 24" fill="none" xmlns="http://www.w3.org/2000/svg">
<path d="M12 1C12.5523 1 13 1.44772 13 2V22C13 22.5523 12.5523 23 12 23C11.4477 23 11 22.5523 11 22V2C11 1.44772 11.4477 1 12 1Z" fill="#000640"/>
<path d="M8.70711 10.207C9.09763 9.81649 9.09763 9.18332 8.70711 8.7928C8.31658 8.40228 7.68342 8.40228 7.29289 8.7928L5.49995 10.5857L3.70711 8.79289C3.31658 8.40237 2.68342 8.40237 2.29289 8.79289C1.90237 9.18342 1.90237 9.81658 2.29289 10.2071L4.08574 12L2.29289 13.7928C1.90237 14.1833 1.90237 14.8165 2.29289 15.207C2.68342 15.5975 3.31658 15.5975 3.70711 15.207L5.49995 13.4142L7.29289 15.2071C7.68342 15.5976 8.31658 15.5976 8.70711 15.2071C9.09763 14.8166 9.09763 14.1834 8.70711 13.7929L6.91417 12L8.70711 10.207Z" fill="#000640"/>
<path fill-rule="evenodd" clip-rule="evenodd" d="M18 8C15.7909 8 14 9.79086 14 12C14 14.2091 15.7909 16 18 16C20.2091 16 22 14.2091 22 12C22 9.79086 20.2091 8 18 8ZM16 12C16 10.8954 16.8954 10 18 10C19.1046 10 20 10.8954 20 12C20 13.1046 19.1046 14 18 14C16.8954 14 16 13.1046 16 12Z" fill="#000640"/>
</svg>
