<svg width="24" height="24" viewBox="0 0 24 24" fill="none" xmlns="http://www.w3.org/2000/svg">
<path fill-rule="evenodd" clip-rule="evenodd" d="M23 12C23 14.7614 20.7614 17 18 17C15.2386 17 13 14.7614 13 12C13 9.23858 15.2386 7 18 7C20.7614 7 23 9.23858 23 12ZM21 12C21 13.6569 19.6569 15 18 15C16.3431 15 15 13.6569 15 12C15 10.3431 16.3431 9 18 9C19.6569 9 21 10.3431 21 12Z" fill="#000640"/>
<path d="M1.79289 7.79289C2.18342 7.40237 2.81658 7.40237 3.20711 7.79289L6 10.5858L8.79289 7.79289C9.18342 7.40237 9.81658 7.40237 10.2071 7.79289C10.5976 8.18342 10.5976 8.81658 10.2071 9.20711L7.41421 12L10.2071 14.7929C10.5976 15.1834 10.5976 15.8166 10.2071 16.2071C9.81658 16.5976 9.18342 16.5976 8.79289 16.2071L6 13.4142L3.20711 16.2071C2.81658 16.5976 2.18342 16.5976 1.79289 16.2071C1.40237 15.8166 1.40237 15.1834 1.79289 14.7929L4.58579 12L1.79289 9.20711C1.40237 8.81658 1.40237 8.18342 1.79289 7.79289Z" fill="#000640"/>
</svg>
