<svg width="24" height="24" viewBox="0 0 24 24" fill="none" xmlns="http://www.w3.org/2000/svg">
<path d="M5.70711 3.29289C5.31658 2.90237 4.68342 2.90237 4.29289 3.29289C3.90237 3.68342 3.90237 4.31658 4.29289 4.70711L9.58579 10L7 10C6.44772 10 6 10.4477 6 11C6 11.5523 6.44772 12 7 12H11V14H7C6.44772 14 6 14.4477 6 15C6 15.5523 6.44772 16 7 16H11L11 20C11 20.5523 11.4477 21 12 21C12.5523 21 13 20.5523 13 20L13 16H17C17.5523 16 18 15.5523 18 15C18 14.4477 17.5523 14 17 14H13V12H17C17.5523 12 18 11.5523 18 11C18 10.4477 17.5523 10 17 10L14.4142 10L19.7071 4.70711C20.0976 4.31658 20.0976 3.68342 19.7071 3.29289C19.3166 2.90237 18.6834 2.90237 18.2929 3.29289L12 9.58579L5.70711 3.29289Z" fill="#000640"/>
</svg>
