<svg width="24" height="24" viewBox="0 0 24 24" fill="none" xmlns="http://www.w3.org/2000/svg">
<path d="M4.29289 3.29289C4.68342 2.90237 5.31658 2.90237 5.70711 3.29289L12 9.58579L18.2929 3.29289C18.6834 2.90237 19.3166 2.90237 19.7071 3.29289C20.0976 3.68342 20.0976 4.31658 19.7071 4.70711L13 11.4142V12H17C17.5523 12 18 12.4477 18 13C18 13.5523 17.5523 14 17 14H13L13 20C13 20.5523 12.5523 21 12 21C11.4477 21 11 20.5523 11 20L11 14H7C6.44772 14 6 13.5523 6 13C6 12.4477 6.44772 12 7 12H11V11.4142L4.29289 4.70711C3.90237 4.31658 3.90237 3.68342 4.29289 3.29289Z" fill="#000640"/>
</svg>
