<svg width="24" height="24" viewBox="0 0 24 24" fill="none" xmlns="http://www.w3.org/2000/svg">
<g clip-path="url(#clip0_1253_5275)">
<path fill-rule="evenodd" clip-rule="evenodd" d="M12 5.5C8.6306 5.5 6 8.19139 6 12C6 14.252 6.91392 16.1325 8.41128 17.2909C9.4212 18.0723 10.6672 18.5 12 18.5C15.3694 18.5 18 15.8086 18 12C18 9.74802 17.0861 7.86753 15.5887 6.70907C14.5788 5.92774 13.3328 5.5 12 5.5ZM8 12C8 9.18119 9.84655 7.5 12 7.5C12.5613 7.5 13.0899 7.61161 13.5669 7.81884L8.8708 14.9179C8.33658 14.1818 8 13.1977 8 12ZM10.4331 16.1812L15.1292 9.08214C15.6634 9.8182 16 10.8023 16 12C16 14.8188 14.1534 16.5 12 16.5C11.4387 16.5 10.9101 16.3884 10.4331 16.1812Z" fill="#000640"/>
<path fill-rule="evenodd" clip-rule="evenodd" d="M12 0C5.37258 0 0 5.37258 0 12C0 18.6274 5.37258 24 12 24C18.6274 24 24 18.6274 24 12C24 5.37258 18.6274 0 12 0ZM2 12C2 6.47715 6.47715 2 12 2C17.5228 2 22 6.47715 22 12C22 17.5228 17.5228 22 12 22C6.47715 22 2 17.5228 2 12Z" fill="#000640"/>
</g>
<defs>
<clipPath id="clip0_1253_5275">
<rect width="24" height="24" fill="white"/>
</clipPath>
</defs>
</svg>
