<svg width="24" height="24" viewBox="0 0 24 24" fill="none" xmlns="http://www.w3.org/2000/svg">
<g clip-path="url(#clip0_1253_5259)">
<path fill-rule="evenodd" clip-rule="evenodd" d="M15.1583 12.0393C15.2356 11.9763 15.3102 11.9101 15.382 11.8409C16.1861 11.0647 16.5 10.0277 16.5 9C16.5 7.87486 15.9231 6.96303 15.0735 6.36827C14.2431 5.78703 13.1544 5.5 12 5.5C10.8456 5.5 9.75688 5.78703 8.92654 6.36827C8.07688 6.96303 7.5 7.87486 7.5 9C7.5 10.0277 7.81389 11.0647 8.61804 11.8409C8.6898 11.9101 8.76439 11.9763 8.84174 12.0393C8.80231 12.0726 8.76357 12.1067 8.72554 12.1416C7.91063 12.8888 7.5 13.9141 7.5 15C7.5 16.1251 8.07688 17.037 8.92654 17.6317C9.75688 18.213 10.8456 18.5 12 18.5C13.1544 18.5 14.2431 18.213 15.0735 17.6317C15.9231 17.037 16.5 16.1251 16.5 15C16.5 13.9141 16.0894 12.8888 15.2745 12.1416C15.2364 12.1067 15.1977 12.0726 15.1583 12.0393ZM10.0735 8.00673C9.67312 8.28697 9.5 8.62514 9.5 9C9.5 9.62913 9.68612 10.0921 10.007 10.4018C10.3298 10.7134 10.9242 11 12 11C13.0758 11 13.6702 10.7134 13.993 10.4018C14.3139 10.0921 14.5 9.62913 14.5 9C14.5 8.62514 14.3269 8.28697 13.9265 8.00673C13.5069 7.71297 12.8456 7.5 12 7.5C11.1544 7.5 10.4931 7.71297 10.0735 8.00673ZM12 13C11.0669 13 10.4499 13.274 10.0772 13.6158C9.70783 13.9544 9.5 14.4291 9.5 15C9.5 15.3749 9.67312 15.713 10.0735 15.9933C10.4931 16.287 11.1544 16.5 12 16.5C12.8456 16.5 13.5069 16.287 13.9265 15.9933C14.3269 15.713 14.5 15.3749 14.5 15C14.5 14.4291 14.2922 13.9544 13.9228 13.6158C13.5501 13.274 12.9331 13 12 13Z" fill="#000640"/>
<path fill-rule="evenodd" clip-rule="evenodd" d="M0 12C0 5.37258 5.37258 0 12 0C18.6274 0 24 5.37258 24 12C24 18.6274 18.6274 24 12 24C5.37258 24 0 18.6274 0 12ZM12 2C6.47715 2 2 6.47715 2 12C2 17.5228 6.47715 22 12 22C17.5228 22 22 17.5228 22 12C22 6.47715 17.5228 2 12 2Z" fill="#000640"/>
</g>
<defs>
<clipPath id="clip0_1253_5259">
<rect width="24" height="24" fill="white"/>
</clipPath>
</defs>
</svg>
