<svg width="24" height="24" viewBox="0 0 24 24" fill="none" xmlns="http://www.w3.org/2000/svg">
<path d="M18 9.99991C18 10.5522 17.5523 10.9999 17 10.9999H7C6.44772 10.9999 6 10.5522 6 9.99991C6 9.44762 6.44772 8.99991 7 8.99991L17 8.99991C17.5523 8.99991 18 9.44762 18 9.99991Z" fill="#000640"/>
<path d="M17 14.9999C17.5523 14.9999 18 14.5522 18 13.9999C18 13.4476 17.5523 12.9999 17 12.9999L7 12.9999C6.44772 12.9999 6 13.4476 6 13.9999C6 14.5522 6.44772 14.9999 7 14.9999H17Z" fill="#000640"/>
<path fill-rule="evenodd" clip-rule="evenodd" d="M12 24C18.6274 24 24 18.6274 24 12C24 5.37258 18.6274 0 12 0C5.37258 0 0 5.37258 0 12C0 18.6274 5.37258 24 12 24ZM12 22C17.5228 22 22 17.5228 22 12C22 6.47715 17.5228 2 12 2C6.47715 2 2 6.47715 2 12C2 17.5228 6.47715 22 12 22Z" fill="#000640"/>
</svg>
