<svg width="24" height="24" viewBox="0 0 24 24" fill="none" xmlns="http://www.w3.org/2000/svg">
<g clip-path="url(#clip0_1253_5265)">
<path d="M9.33206 14.4453C9.7797 15.1167 10.1669 15.4804 10.5412 15.6894C10.9079 15.8943 11.3505 16 12 16C12.5641 16 13.2054 15.8103 13.6866 15.4149C14.1371 15.0447 14.5 14.4545 14.5 13.5C14.5 12.5106 13.8582 11.7202 12.8218 11.3904C11.7861 11.0609 10.3893 11.2273 9.1402 12.2682C8.8115 12.5421 8.34494 12.5766 7.97958 12.3539C7.61421 12.1312 7.43101 11.7008 7.52383 11.2831L8.52383 6.78307C8.6255 6.32553 9.03132 6 9.50002 6H15C15.5523 6 16 6.44771 16 7C16 7.55229 15.5523 8 15 8H10.3022L9.95874 9.54551C11.1468 9.14612 12.3626 9.14553 13.4282 9.48457C15.1419 10.0298 16.5 11.4894 16.5 13.5C16.5 15.0455 15.8749 16.2053 14.9564 16.9601C14.0686 17.6897 12.9599 18 12 18C11.1256 18 10.3182 17.8557 9.56592 17.4356C8.82114 17.0196 8.22033 16.3832 7.66796 15.5547C7.36161 15.0952 7.48579 14.4743 7.94531 14.1679C8.40484 13.8616 9.02571 13.9858 9.33206 14.4453Z" fill="#000640"/>
<path fill-rule="evenodd" clip-rule="evenodd" d="M12 0C5.37258 0 0 5.37258 0 12C0 18.6274 5.37258 24 12 24C18.6274 24 24 18.6274 24 12C24 5.37258 18.6274 0 12 0ZM2 12C2 6.47715 6.47715 2 12 2C17.5228 2 22 6.47715 22 12C22 17.5228 17.5228 22 12 22C6.47715 22 2 17.5228 2 12Z" fill="#000640"/>
</g>
<defs>
<clipPath id="clip0_1253_5265">
<rect width="24" height="24" fill="white"/>
</clipPath>
</defs>
</svg>
