<svg width="24" height="24" viewBox="0 0 24 24" fill="none" xmlns="http://www.w3.org/2000/svg">
<g clip-path="url(#clip0_1253_5267)">
<path d="M11.9417 7.33636C12.1275 6.81626 11.8565 6.24404 11.3363 6.05829C10.8162 5.87253 10.244 6.14358 10.0583 6.66369L7.55826 13.6637C7.44889 13.9699 7.49526 14.3103 7.68259 14.5761C7.86992 14.8419 8.17481 15 8.50001 15H13V17C13 17.5523 13.4477 18 14 18C14.5523 18 15 17.5523 15 17V15H15.5C16.0523 15 16.5 14.5523 16.5 14C16.5 13.4477 16.0523 13 15.5 13H15V7.00003C15 6.44774 14.5523 6.00003 14 6.00003C13.4477 6.00003 13 6.44774 13 7.00003V13H9.91901L11.9417 7.33636Z" fill="#000640"/>
<path fill-rule="evenodd" clip-rule="evenodd" d="M12 0C5.37258 0 0 5.37258 0 12C0 18.6274 5.37258 24 12 24C18.6274 24 24 18.6274 24 12C24 5.37258 18.6274 0 12 0ZM2 12C2 6.47715 6.47715 2 12 2C17.5228 2 22 6.47715 22 12C22 17.5228 17.5228 22 12 22C6.47715 22 2 17.5228 2 12Z" fill="#000640"/>
</g>
<defs>
<clipPath id="clip0_1253_5267">
<rect width="24" height="24" fill="white"/>
</clipPath>
</defs>
</svg>
