<svg width="1352" height="146" viewBox="0 0 1352 146" fill="none" xmlns="http://www.w3.org/2000/svg">
<rect x="96" y="144" width="1160" height="2" rx="0.5" fill="#F5F5F5"/>
<path d="M134.736 58.64V92H129.264V69.152L119.088 92H115.296L105.072 69.152V92H99.6V58.64H105.504L117.216 84.8L128.88 58.64H134.736ZM140.104 78.656C140.104 76 140.648 73.648 141.736 71.6C142.856 69.552 144.36 67.968 146.248 66.848C148.168 65.696 150.28 65.12 152.584 65.12C154.664 65.12 156.472 65.536 158.008 66.368C159.576 67.168 160.824 68.176 161.752 69.392V65.552H167.272V92H161.752V88.064C160.824 89.312 159.56 90.352 157.96 91.184C156.36 92.016 154.536 92.432 152.488 92.432C150.216 92.432 148.136 91.856 146.248 90.704C144.36 89.52 142.856 87.888 141.736 85.808C140.648 83.696 140.104 81.312 140.104 78.656ZM161.752 78.752C161.752 76.928 161.368 75.344 160.6 74C159.864 72.656 158.888 71.632 157.672 70.928C156.456 70.224 155.144 69.872 153.736 69.872C152.328 69.872 151.016 70.224 149.8 70.928C148.584 71.6 147.592 72.608 146.824 73.952C146.088 75.264 145.72 76.832 145.72 78.656C145.72 80.48 146.088 82.08 146.824 83.456C147.592 84.832 148.584 85.888 149.8 86.624C151.048 87.328 152.36 87.68 153.736 87.68C155.144 87.68 156.456 87.328 157.672 86.624C158.888 85.92 159.864 84.896 160.6 83.552C161.368 82.176 161.752 80.576 161.752 78.752ZM180.843 70.016V84.656C180.843 85.648 181.067 86.368 181.515 86.816C181.995 87.232 182.795 87.44 183.915 87.44H187.275V92H182.955C180.491 92 178.603 91.424 177.291 90.272C175.979 89.12 175.323 87.248 175.323 84.656V70.016H172.203V65.552H175.323V58.976H180.843V65.552H187.275V70.016H180.843ZM205.999 65.12C208.015 65.12 209.807 65.552 211.375 66.416C212.975 67.28 214.223 68.56 215.119 70.256C216.047 71.952 216.511 74 216.511 76.4V92H211.087V77.216C211.087 74.848 210.495 73.04 209.311 71.792C208.127 70.512 206.511 69.872 204.463 69.872C202.415 69.872 200.783 70.512 199.567 71.792C198.383 73.04 197.791 74.848 197.791 77.216V92H192.319V56.48H197.791V68.624C198.719 67.504 199.887 66.64 201.295 66.032C202.735 65.424 204.303 65.12 205.999 65.12ZM261.735 92L257.607 87.872C256.007 89.472 254.263 90.672 252.375 91.472C250.487 92.24 248.375 92.624 246.039 92.624C243.671 92.624 241.575 92.208 239.751 91.376C237.927 90.544 236.519 89.36 235.527 87.824C234.535 86.256 234.039 84.448 234.039 82.4C234.039 80.096 234.695 78.048 236.007 76.256C237.319 74.432 239.271 72.992 241.863 71.936C240.935 70.816 240.279 69.776 239.895 68.816C239.511 67.824 239.319 66.736 239.319 65.552C239.319 64.08 239.687 62.768 240.423 61.616C241.191 60.464 242.279 59.552 243.687 58.88C245.095 58.208 246.727 57.872 248.583 57.872C250.471 57.872 252.071 58.24 253.383 58.976C254.727 59.68 255.719 60.656 256.359 61.904C257.031 63.152 257.303 64.544 257.175 66.08H251.703C251.735 64.896 251.447 63.984 250.839 63.344C250.231 62.672 249.399 62.336 248.343 62.336C247.287 62.336 246.423 62.656 245.751 63.296C245.111 63.904 244.791 64.656 244.791 65.552C244.791 66.416 245.031 67.28 245.511 68.144C246.023 68.976 246.903 70.064 248.151 71.408L256.983 80.192L260.391 74.576H266.295L261.975 81.968L260.775 83.936L268.887 92H261.735ZM246.039 87.968C249.047 87.968 251.703 86.736 254.007 84.272L245.175 75.392C241.399 76.896 239.511 79.168 239.511 82.208C239.511 83.84 240.119 85.216 241.335 86.336C242.551 87.424 244.119 87.968 246.039 87.968ZM295.936 92.336C293.696 92.336 291.68 91.952 289.888 91.184C288.096 90.384 286.688 89.264 285.664 87.824C284.64 86.384 284.128 84.704 284.128 82.784H289.984C290.112 84.224 290.672 85.408 291.664 86.336C292.688 87.264 294.112 87.728 295.936 87.728C297.824 87.728 299.296 87.28 300.352 86.384C301.408 85.456 301.936 84.272 301.936 82.832C301.936 81.712 301.6 80.8 300.928 80.096C300.288 79.392 299.472 78.848 298.48 78.464C297.52 78.08 296.176 77.664 294.448 77.216C292.272 76.64 290.496 76.064 289.12 75.488C287.776 74.88 286.624 73.952 285.664 72.704C284.704 71.456 284.224 69.792 284.224 67.712C284.224 65.792 284.704 64.112 285.664 62.672C286.624 61.232 287.968 60.128 289.696 59.36C291.424 58.592 293.424 58.208 295.696 58.208C298.928 58.208 301.568 59.024 303.616 60.656C305.696 62.256 306.848 64.464 307.072 67.28H301.024C300.928 66.064 300.352 65.024 299.296 64.16C298.24 63.296 296.848 62.864 295.12 62.864C293.552 62.864 292.272 63.264 291.28 64.064C290.288 64.864 289.792 66.016 289.792 67.52C289.792 68.544 290.096 69.392 290.704 70.064C291.344 70.704 292.144 71.216 293.104 71.6C294.064 71.984 295.376 72.4 297.04 72.848C299.248 73.456 301.04 74.064 302.416 74.672C303.824 75.28 305.008 76.224 305.968 77.504C306.96 78.752 307.456 80.432 307.456 82.544C307.456 84.24 306.992 85.84 306.064 87.344C305.168 88.848 303.84 90.064 302.08 90.992C300.352 91.888 298.304 92.336 295.936 92.336ZM337.721 65.552L321.497 104.432H315.833L321.209 91.568L310.793 65.552H316.889L324.329 85.712L332.057 65.552H337.721ZM373.866 65.12C375.946 65.12 377.802 65.552 379.434 66.416C381.098 67.28 382.394 68.56 383.322 70.256C384.282 71.952 384.762 74 384.762 76.4V92H379.338V77.216C379.338 74.848 378.746 73.04 377.562 71.792C376.378 70.512 374.762 69.872 372.714 69.872C370.666 69.872 369.034 70.512 367.818 71.792C366.634 73.04 366.042 74.848 366.042 77.216V92H360.618V77.216C360.618 74.848 360.026 73.04 358.842 71.792C357.658 70.512 356.042 69.872 353.994 69.872C351.946 69.872 350.314 70.512 349.098 71.792C347.914 73.04 347.322 74.848 347.322 77.216V92H341.85V65.552H347.322V68.576C348.218 67.488 349.354 66.64 350.73 66.032C352.106 65.424 353.578 65.12 355.146 65.12C357.258 65.12 359.146 65.568 360.81 66.464C362.474 67.36 363.754 68.656 364.65 70.352C365.45 68.752 366.698 67.488 368.394 66.56C370.09 65.6 371.914 65.12 373.866 65.12ZM397.197 69.488C398.125 68.208 399.389 67.168 400.989 66.368C402.621 65.536 404.429 65.12 406.413 65.12C408.749 65.12 410.861 65.68 412.749 66.8C414.637 67.92 416.125 69.52 417.213 71.6C418.301 73.648 418.845 76 418.845 78.656C418.845 81.312 418.301 83.696 417.213 85.808C416.125 87.888 414.621 89.52 412.701 90.704C410.813 91.856 408.717 92.432 406.413 92.432C404.365 92.432 402.541 92.032 400.941 91.232C399.373 90.432 398.125 89.408 397.197 88.16V92H391.725V56.48H397.197V69.488ZM413.277 78.656C413.277 76.832 412.893 75.264 412.125 73.952C411.389 72.608 410.397 71.6 409.149 70.928C407.933 70.224 406.621 69.872 405.213 69.872C403.837 69.872 402.525 70.224 401.277 70.928C400.061 71.632 399.069 72.656 398.301 74C397.565 75.344 397.197 76.928 397.197 78.752C397.197 80.576 397.565 82.176 398.301 83.552C399.069 84.896 400.061 85.92 401.277 86.624C402.525 87.328 403.837 87.68 405.213 87.68C406.621 87.68 407.933 87.328 409.149 86.624C410.397 85.888 411.389 84.832 412.125 83.456C412.893 82.08 413.277 80.48 413.277 78.656ZM435.728 92.432C433.232 92.432 430.976 91.872 428.96 90.752C426.944 89.6 425.36 88 424.208 85.952C423.056 83.872 422.48 81.472 422.48 78.752C422.48 76.064 423.072 73.68 424.256 71.6C425.44 69.52 427.056 67.92 429.104 66.8C431.152 65.68 433.44 65.12 435.968 65.12C438.496 65.12 440.784 65.68 442.832 66.8C444.88 67.92 446.496 69.52 447.68 71.6C448.864 73.68 449.456 76.064 449.456 78.752C449.456 81.44 448.848 83.824 447.632 85.904C446.416 87.984 444.752 89.6 442.64 90.752C440.56 91.872 438.256 92.432 435.728 92.432ZM435.728 87.68C437.136 87.68 438.448 87.344 439.664 86.672C440.912 86 441.92 84.992 442.688 83.648C443.456 82.304 443.84 80.672 443.84 78.752C443.84 76.832 443.472 75.216 442.736 73.904C442 72.56 441.024 71.552 439.808 70.88C438.592 70.208 437.28 69.872 435.872 69.872C434.464 69.872 433.152 70.208 431.936 70.88C430.752 71.552 429.808 72.56 429.104 73.904C428.4 75.216 428.048 76.832 428.048 78.752C428.048 81.6 428.768 83.808 430.208 85.376C431.68 86.912 433.52 87.68 435.728 87.68ZM460.338 56.48V92H454.866V56.48H460.338Z" fill="#000640"/>
<rect x="1116" y="63" width="140" height="24" rx="4" fill="#EBEBEB"/>
<g clip-path="url(#clip0_1253_7160)">
<path d="M1130.86 80.1381C1131.12 80.3984 1131.54 80.3984 1131.8 80.1381C1132.07 79.8777 1132.07 79.4556 1131.8 79.1953L1128.28 75.6667H1137.33C1137.7 75.6667 1138 75.3682 1138 75C1138 74.6318 1137.7 74.3333 1137.33 74.3333H1128.28L1131.8 70.8047C1132.07 70.5444 1132.07 70.1223 1131.8 69.8619C1131.54 69.6016 1131.12 69.6016 1130.86 69.8619L1126.2 74.5286C1125.93 74.7889 1125.93 75.2111 1126.2 75.4714L1130.86 80.1381Z" fill="#696969"/>
</g>
<path d="M1144.59 80V72.2979H1147.48C1148.14 72.2979 1148.7 72.5002 1149.17 72.9048C1149.64 73.3058 1149.88 73.7856 1149.88 74.3442C1149.88 74.6916 1149.77 75.0174 1149.57 75.3218C1149.37 75.6226 1149.12 75.8249 1148.81 75.9287C1149.22 76.0111 1149.56 76.2259 1149.82 76.5732C1150.09 76.9206 1150.23 77.3288 1150.23 77.7979C1150.23 78.4137 1149.99 78.9347 1149.52 79.3608C1149.04 79.7869 1148.47 80 1147.81 80H1144.59ZM1146.21 75.4023H1147.4C1147.63 75.4023 1147.82 75.3271 1147.98 75.1768C1148.14 75.0228 1148.22 74.8384 1148.22 74.6235C1148.22 74.4087 1148.14 74.2279 1147.99 74.0811C1147.83 73.9342 1147.63 73.8608 1147.4 73.8608H1146.21V75.4023ZM1146.21 78.437H1147.66C1147.91 78.437 1148.13 78.3511 1148.3 78.1792C1148.48 78.0037 1148.57 77.7925 1148.57 77.5454C1148.57 77.2983 1148.48 77.0871 1148.3 76.9116C1148.13 76.7326 1147.92 76.6431 1147.68 76.6431H1146.21V78.437ZM1158 80L1157.52 78.7109H1154.55L1154.06 80H1152.33L1155.39 72.2979H1156.7L1159.78 80H1158ZM1155.09 77.3145H1156.98L1156.05 74.8545L1155.09 77.3145ZM1165.68 80.1074C1164.94 80.1074 1164.28 79.9355 1163.68 79.5918C1163.08 79.248 1162.62 78.7736 1162.28 78.1685C1161.94 77.5633 1161.77 76.8901 1161.77 76.1489C1161.77 75.4077 1161.94 74.7345 1162.28 74.1294C1162.62 73.5243 1163.08 73.0498 1163.68 72.7061C1164.28 72.3623 1164.94 72.1904 1165.68 72.1904C1166.27 72.1904 1166.84 72.3122 1167.37 72.5557C1167.91 72.7956 1168.35 73.1322 1168.7 73.5654C1169.05 73.9951 1169.27 74.4749 1169.34 75.0049H1167.52C1167.42 74.6432 1167.2 74.3478 1166.85 74.1187C1166.51 73.8895 1166.12 73.7749 1165.68 73.7749C1165.04 73.7749 1164.51 74.0023 1164.08 74.457C1163.65 74.9082 1163.44 75.4722 1163.44 76.1489C1163.44 76.8257 1163.65 77.3914 1164.08 77.8462C1164.51 78.3009 1165.04 78.5283 1165.68 78.5283C1166.12 78.5283 1166.52 78.403 1166.86 78.1523C1167.21 77.9017 1167.43 77.583 1167.53 77.1963H1169.36C1169.21 78.0521 1168.8 78.7521 1168.11 79.2964C1167.43 79.8371 1166.61 80.1074 1165.68 80.1074ZM1179 80H1176.87L1173.93 76.3262V80H1172.31V72.2979H1173.93V75.5581L1176.67 72.2979H1178.73L1175.64 75.9287L1179 80ZM1191.77 72.2979V73.8608H1189.51V80H1187.89V73.8608H1185.64V72.2979H1191.77ZM1195.79 72.7061C1196.4 72.3623 1197.07 72.1904 1197.8 72.1904C1198.54 72.1904 1199.21 72.3623 1199.81 72.7061C1200.41 73.0498 1200.88 73.5243 1201.22 74.1294C1201.57 74.7345 1201.74 75.4077 1201.74 76.1489C1201.74 76.8901 1201.57 77.5633 1201.22 78.1685C1200.88 78.7736 1200.41 79.248 1199.81 79.5918C1199.21 79.9355 1198.54 80.1074 1197.8 80.1074C1197.07 80.1074 1196.4 79.9355 1195.79 79.5918C1195.2 79.248 1194.73 78.7736 1194.39 78.1685C1194.05 77.5633 1193.88 76.8901 1193.88 76.1489C1193.88 75.4077 1194.05 74.7345 1194.39 74.1294C1194.73 73.5243 1195.2 73.0498 1195.79 72.7061ZM1199.41 74.457C1198.98 74.0023 1198.45 73.7749 1197.8 73.7749C1197.16 73.7749 1196.62 74.0023 1196.19 74.457C1195.76 74.9082 1195.55 75.4722 1195.55 76.1489C1195.55 76.8257 1195.76 77.3914 1196.19 77.8462C1196.62 78.3009 1197.16 78.5283 1197.8 78.5283C1198.45 78.5283 1198.98 78.3009 1199.41 77.8462C1199.84 77.3914 1200.06 76.8257 1200.06 76.1489C1200.06 75.4722 1199.84 74.9082 1199.41 74.457ZM1208.94 72.2979H1210.56V80H1208.94V72.2979ZM1213.73 72.2979H1215.11L1218.25 76.7881V72.2979H1219.87V80H1218.51L1215.36 75.5098V80H1213.73V72.2979ZM1225.68 72.2979C1226.41 72.2979 1227.07 72.4626 1227.67 72.792C1228.27 73.1214 1228.74 73.578 1229.08 74.1616C1229.42 74.7453 1229.59 75.397 1229.59 76.1167C1229.59 76.8507 1229.42 77.515 1229.08 78.1094C1228.74 78.7002 1228.27 79.1639 1227.67 79.5005C1227.07 79.8335 1226.41 80 1225.68 80H1223.04V72.2979H1225.68ZM1225.79 78.437C1226.4 78.437 1226.91 78.2168 1227.3 77.7764C1227.7 77.3359 1227.91 76.7827 1227.91 76.1167C1227.91 75.4614 1227.71 74.9225 1227.31 74.5C1226.92 74.0739 1226.41 73.8608 1225.79 73.8608H1224.67V78.437H1225.79ZM1232.53 72.2979H1237.25V73.8608H1234.16V75.2466H1236.91V76.8096H1234.16V78.437H1237.25V80H1232.53V72.2979ZM1246.96 80H1245.02L1243.33 77.481L1241.66 80H1239.75L1242.39 76.0415L1239.89 72.2979H1241.84L1243.36 74.5859L1244.88 72.2979H1246.78L1244.31 76.02L1246.96 80Z" fill="#696969"/>
<path d="M1144 81.6489H1247.04V82.1968H1144V81.6489Z" fill="#696969"/>
<a href="https://www.figma.com/file/FOhC2ZMBEHzVejIYjN6Qfz/%E2%9C%85-MamaMia!-Design-System?node-id=556%3A3901">
<rect fill="black" fill-opacity="0" y="-0.601074" width="103.041" height="13.2021"/>
</a>
<defs>
<clipPath id="clip0_1253_7160">
<rect width="16" height="16" fill="white" transform="translate(1124 67)"/>
</clipPath>
</defs>
</svg>
