<svg width="24" height="24" viewBox="0 0 24 24" fill="none" xmlns="http://www.w3.org/2000/svg">
<g clip-path="url(#clip0_1253_5273)">
<path d="M13 7C13 6.65342 12.8205 6.33156 12.5257 6.14935C12.2309 5.96714 11.8628 5.95058 11.5528 6.10557L9.55276 7.10557C9.05878 7.35256 8.85856 7.95324 9.10555 8.44721C9.35254 8.94119 9.95321 9.14142 10.4472 8.89443L11 8.61804V16H9.99998C9.44769 16 8.99998 16.4477 8.99998 17C8.99998 17.5523 9.44769 18 9.99998 18H14C14.5523 18 15 17.5523 15 17C15 16.4477 14.5523 16 14 16H13V7Z" fill="#000640"/>
<path fill-rule="evenodd" clip-rule="evenodd" d="M12 0C5.37258 0 0 5.37258 0 12C0 18.6274 5.37258 24 12 24C18.6274 24 24 18.6274 24 12C24 5.37258 18.6274 0 12 0ZM2 12C2 6.47715 6.47715 2 12 2C17.5228 2 22 6.47715 22 12C22 17.5228 17.5228 22 12 22C6.47715 22 2 17.5228 2 12Z" fill="#000640"/>
</g>
<defs>
<clipPath id="clip0_1253_5273">
<rect width="24" height="24" fill="white"/>
</clipPath>
</defs>
</svg>
