<svg width="24" height="24" viewBox="0 0 24 24" fill="none" xmlns="http://www.w3.org/2000/svg">
<path fill-rule="evenodd" clip-rule="evenodd" d="M14.5477 12L16.7352 19H18C18.5523 19 19 19.4477 19 20C19 20.5523 18.5523 21 18 21H6C5.44772 21 5 20.5523 5 20C5 19.4477 5.44772 19 6 19H7V5H6C5.44772 5 5 4.55228 5 4C5 3.44772 5.44772 3 6 3H10.9783C10.993 2.99967 11.0077 2.99968 11.0223 3H18C18.5523 3 19 3.44772 19 4C19 4.55228 18.5523 5 18 5H16.7352L14.5477 12ZM9 5H10.2648L12.4523 12L10.2648 19H9V5ZM12.3602 19H14.6398L13.5 15.3526L12.3602 19ZM13.5 8.64735L14.6398 5H12.3602L13.5 8.64735Z" fill="#000640"/>
</svg>
