<svg width="24" height="24" viewBox="0 0 24 24" fill="none" xmlns="http://www.w3.org/2000/svg">
<path fill-rule="evenodd" clip-rule="evenodd" d="M6.14412 5H5C4.44772 5 4 4.55228 4 4C4 3.44772 4.44772 3 5 3H6.97914C6.99391 2.99967 7.00863 2.99968 7.02329 3H21C21.5523 3 22 3.44772 22 4C22 4.55228 21.5523 5 21 5H20V19H21C21.5523 19 22 19.4477 22 20C22 20.5523 21.5523 21 21 21H5C4.44772 21 4 20.5523 4 20C4 19.4477 4.44772 19 5 19H8.33162L6.14412 5ZM8.16839 5L9.49999 13.5222L10.8316 5H8.16839ZM12.8559 5L10.6684 19H14V5H12.8559ZM16 5H18V19H16V5Z" fill="#000640"/>
</svg>
