<svg width="24" height="24" viewBox="0 0 24 24" fill="none" xmlns="http://www.w3.org/2000/svg">
<path fill-rule="evenodd" clip-rule="evenodd" d="M14.6684 19H18C18.5523 19 19 19.4477 19 20C19 20.5523 18.5523 21 18 21H6C5.44772 21 5 20.5523 5 20C5 19.4477 5.44772 19 6 19H7V5H6C5.44772 5 5 4.55228 5 4C5 3.44772 5.44772 3 6 3H10.9792C10.9939 2.99967 11.0087 2.99968 11.0233 3H18C18.5523 3 19 3.44772 19 4C19 4.55228 18.5523 5 18 5H16.8559L14.6684 19ZM10.1442 5H9V19H12.3317L10.1442 5ZM14.8316 5H12.1684L13.5 13.5222L14.8316 5Z" fill="#000640"/>
</svg>
