<svg width="24" height="24" viewBox="0 0 24 24" fill="none" xmlns="http://www.w3.org/2000/svg">
<path fill-rule="evenodd" clip-rule="evenodd" d="M6 3H7.97715C7.99187 2.99967 8.00658 2.99968 8.02126 3H15.9787C15.9934 2.99968 16.0081 2.99967 16.0228 3H18C18.5523 3 19 3.44772 19 4C19 4.55228 18.5523 5 18 5H16.618L13.118 12L16.618 19H18C18.5523 19 19 19.4477 19 20C19 20.5523 18.5523 21 18 21H16.0204C16.0073 21.0003 15.9942 21.0003 15.9811 21H8.01887C8.00578 21.0003 7.99266 21.0003 7.97954 21H6C5.44772 21 5 20.5523 5 20C5 19.4477 5.44772 19 6 19H7.38193L10.8819 12L7.38195 5H6C5.44772 5 5 4.55228 5 4C5 3.44772 5.44772 3 6 3ZM9.618 19H14.382L12 14.236L9.618 19ZM12 9.76391L9.61802 5H14.3819L12 9.76391Z" fill="#000640"/>
</svg>
