<svg width="24" height="24" viewBox="0 0 24 24" fill="none" xmlns="http://www.w3.org/2000/svg">
<g clip-path="url(#clip0_1253_5261)">
<path fill-rule="evenodd" clip-rule="evenodd" d="M12 2C6.47715 2 2 6.47715 2 12C2 17.5228 6.47715 22 12 22C17.5228 22 22 17.5228 22 12C22 6.47715 17.5228 2 12 2ZM0 12C0 5.37258 5.37258 0 12 0C18.6274 0 24 5.37258 24 12C24 18.6274 18.6274 24 12 24C5.37258 24 0 18.6274 0 12Z" fill="#000640"/>
<path fill-rule="evenodd" clip-rule="evenodd" d="M7.5 7C7.5 6.44772 7.94772 6 8.5 6H15.5C15.9152 6 16.2872 6.25654 16.4347 6.64462C16.5821 7.03217 16.475 7.47038 16.1656 7.74628L16.1603 7.75112L16.1318 7.77744C16.105 7.80245 16.063 7.84224 16.0081 7.89633C15.8981 8.00458 15.7364 8.16968 15.5402 8.38771C15.147 8.82453 14.6192 9.46939 14.0912 10.2908C13.0312 11.9396 12 14.2525 12 17C12 17.5523 11.5523 18 11 18C10.4477 18 10 17.5523 10 17C10 13.7475 11.2188 11.0604 12.4088 9.20924C12.6988 8.75814 12.9889 8.35388 13.2621 8H8.5C7.94772 8 7.5 7.55228 7.5 7Z" fill="#000640"/>
</g>
<defs>
<clipPath id="clip0_1253_5261">
<rect width="24" height="24" fill="white"/>
</clipPath>
</defs>
</svg>
