<svg width="24" height="24" viewBox="0 0 24 24" fill="none" xmlns="http://www.w3.org/2000/svg">
<g clip-path="url(#clip0_1253_5263)">
<path fill-rule="evenodd" clip-rule="evenodd" d="M12 18.5C14.3351 18.5 16.5 16.8482 16.5 14.5C16.5 12.1518 14.3351 10.5 12 10.5C11.2639 10.5 10.5447 10.6642 9.90486 10.9625C10.4491 9.5464 11.6197 8.07559 14.2249 7.47439C14.763 7.35021 15.0986 6.81328 14.9744 6.27514C14.8502 5.737 14.3133 5.40142 13.7751 5.52561C10.1247 6.36801 8.50796 8.66997 7.85744 10.7661C7.53992 11.7892 7.45402 12.7494 7.44539 13.4486C7.44105 13.8002 7.45619 14.0913 7.473 14.2986C7.48141 14.4024 7.49028 14.4856 7.49743 14.5454L7.50084 14.5732C7.52527 15.6421 8.08263 16.6189 8.86109 17.3102C9.66632 18.0253 10.7742 18.5 12 18.5ZM14.5 14.5C14.5 15.4655 13.5309 16.5 12 16.5C11.2928 16.5 10.6507 16.2247 10.1892 15.8148C9.7186 15.3969 9.5 14.9026 9.5 14.5C9.5 13.5345 10.4691 12.5 12 12.5C13.5309 12.5 14.5 13.5345 14.5 14.5Z" fill="#000640"/>
<path fill-rule="evenodd" clip-rule="evenodd" d="M12 0C5.37258 1.32796e-06 -1.32796e-06 5.37258 0 12C-5.79387e-07 18.6274 5.37258 24 12 24C18.6274 24 24 18.6274 24 12C24 5.37258 18.6274 5.79387e-07 12 0ZM2 12C2 6.47715 6.47715 2 12 2C17.5228 2 22 6.47715 22 12C22 17.5229 17.5228 22 12 22C6.47715 22 2 17.5229 2 12Z" fill="#000640"/>
</g>
<defs>
<clipPath id="clip0_1253_5263">
<rect width="24" height="24" fill="white"/>
</clipPath>
</defs>
</svg>
