<svg width="24" height="24" viewBox="0 0 24 24" fill="none" xmlns="http://www.w3.org/2000/svg">
<path fill-rule="evenodd" clip-rule="evenodd" d="M10.543 5.52608C9.00765 6.21595 7.48396 7.56551 6.38769 9.44044C5.2913 11.3156 4.87172 13.2896 5.03362 14.9401C5.1956 16.5913 5.92123 17.8385 7.04084 18.4767C8.16339 19.1167 9.62922 19.1146 11.1674 18.4234C12.6853 17.7414 14.1917 16.4147 15.2851 14.573C15.2975 14.5509 15.31 14.5294 15.3227 14.5085L15.346 14.4659C15.3694 14.4229 15.4044 14.3582 15.4495 14.2736C15.5348 14.1134 15.656 13.882 15.8028 13.5916C16.5398 12.0027 16.8125 10.3925 16.6768 9.00943C16.5148 7.35824 15.7892 6.11105 14.6696 5.47277C13.5471 4.83281 12.0812 4.83493 10.543 5.52608ZM18.3679 7.27898C17.921 5.79459 17.03 4.51627 15.6601 3.73529C13.8386 2.69682 11.6742 2.82517 9.72331 3.70177C7.76951 4.57966 5.94504 6.23514 4.66116 8.43094C3.3774 10.6265 2.8355 13.0182 3.04318 15.1353C3.25079 17.2517 4.2258 19.1741 6.05031 20.2142C7.87188 21.2527 10.0362 21.1243 11.9871 20.2477C13.0617 19.7649 14.0972 19.0468 15.0251 18.133C15.2758 18.8943 15.7692 19.6349 16.6155 20.1738C17.4589 20.7108 18.5771 21 20 21C20.5523 21 21 20.5523 21 20C21 19.4477 20.5523 19 20 19C18.8372 19 18.1238 18.7631 17.6898 18.4867C17.2694 18.2191 17.0413 17.8708 16.92 17.4928C16.793 17.0972 16.7811 16.6562 16.8362 16.258C16.8633 16.0623 16.9047 15.8907 16.9476 15.7573C16.9823 15.6492 17.0114 15.5866 17.0234 15.5626C17.032 15.548 17.0407 15.5333 17.0493 15.5186C17.2518 15.1723 17.4358 14.8211 17.6013 14.4669C17.6057 14.4583 17.61 14.4496 17.6144 14.4409C17.9455 13.7838 18.3911 12.8584 18.851 11.7827C19.7605 9.65494 20.7656 6.84768 20.9958 4.34634C21.0464 3.79638 20.6417 3.30951 20.0917 3.25889C19.5417 3.20826 19.0549 3.61305 19.0042 4.16301C18.9135 5.14862 18.6794 6.21449 18.3679 7.27898Z" fill="#000640"/>
</svg>
