<svg width="24" height="24" viewBox="0 0 24 24" fill="none" xmlns="http://www.w3.org/2000/svg">
<path d="M5.00022 6.49822C5.0017 6.48271 5.01178 6.37694 5.06587 6.21467C5.12221 6.04563 5.2139 5.85381 5.35185 5.67644C5.60071 5.35648 6.05992 5 7 5C7.71923 5 8.32591 5.37333 8.99707 6.60384C9.64199 7.78625 10.2051 9.51432 10.8967 11.8045L5.2 19.4001C4.86863 19.8419 4.95817 20.4687 5.4 20.8001C5.84183 21.1314 6.46863 21.0419 6.8 20.6001L11.6186 14.1752C12.1411 15.8345 12.6518 17.263 13.2469 18.3539C14.0758 19.8734 15.2193 21 17 21C18.5599 21 19.6007 20.3565 20.2269 19.5514C20.8084 18.8038 21 17.9599 21 17.5C21 16.9477 20.5523 16.5 20 16.5C19.4477 16.5 19 16.9477 19 17.5C19 17.4994 18.9999 17.5 18.9998 17.5018C18.9983 17.5173 18.9882 17.6231 18.9341 17.7853C18.8778 17.9544 18.7861 18.1462 18.6481 18.3236C18.3993 18.6435 17.9401 19 17 19C16.2807 19 15.6739 18.6266 15.0027 17.3961C14.3577 16.2138 13.7945 14.4859 13.103 12.196L18.8 4.60006C19.1314 4.15823 19.0418 3.53143 18.6 3.20006C18.1582 2.86869 17.5314 2.95823 17.2 3.40006L12.3811 9.82528C11.8586 8.16585 11.3479 6.73718 10.7529 5.64616C9.92409 4.12667 8.78077 3 7 3C5.44008 3 4.39929 3.64353 3.77315 4.44856C3.19163 5.19623 3 6.04015 3 6.5C3 7.05228 3.44772 7.5 4 7.5C4.55228 7.5 5 7.05228 5 6.5C5 6.50056 5.00006 6.49994 5.00022 6.49822Z" fill="#000640"/>
</svg>
