<svg width="24" height="24" viewBox="0 0 24 24" fill="none" xmlns="http://www.w3.org/2000/svg">
<path d="M7 8C7 6.88035 7.55827 5.90184 8.49049 5.17383C9.4321 4.43849 10.7132 4 12 4C13.4205 4 14.6859 4.24248 15.5703 4.83205C16.3831 5.37391 17 6.29131 17 8C17 9.12643 16.4956 9.92654 15.7175 10.5333C14.908 11.1645 13.8163 11.5665 12.7761 11.7867C11.3471 12.0893 10 13.3078 10 14.9922V16C10 16.5523 10.4477 17 11 17C11.5523 17 12 16.5523 12 16V14.9922C12 14.4674 12.4581 13.8984 13.1904 13.7434C14.3924 13.4889 15.809 12.9981 16.9474 12.1105C18.1171 11.1983 19 9.85328 19 8C19 5.70869 18.1169 4.12609 16.6797 3.16795C15.3141 2.25752 13.5795 2 12 2C10.2868 2 8.5679 2.57576 7.25951 3.59754C5.94173 4.62665 5 6.14814 5 8C5 8.55228 5.44772 9 6 9C6.55228 9 7 8.55228 7 8Z" fill="#000640"/>
<path d="M11 22C11.8284 22 12.5 21.3284 12.5 20.5C12.5 19.6716 11.8284 19 11 19C10.1716 19 9.5 19.6716 9.5 20.5C9.5 21.3284 10.1716 22 11 22Z" fill="#000640"/>
</svg>
