<svg width="24" height="24" viewBox="0 0 24 24" fill="none" xmlns="http://www.w3.org/2000/svg">
<g clip-path="url(#clip0_1253_5199)">
<path fill-rule="evenodd" clip-rule="evenodd" d="M2 12C2 6.47715 6.47715 2 12 2C17.5228 2 22 6.47715 22 12C22 12.9358 21.8717 13.8401 21.6324 14.6969C21.2983 15.628 20.819 16.1753 20.3465 16.4795C19.8664 16.7886 19.3327 16.8863 18.8266 16.8208C17.7569 16.6823 17 15.8851 17 15V7.00006C17 6.44777 16.5523 6 16 6C15.4477 6 15 6.44794 15 7.00023V8.25716C14.0491 7.47182 12.8296 7 11.5 7C8.46243 7 6 9.46243 6 12.5C6 15.5376 8.46243 18 11.5 18C12.9778 18 14.3195 17.4172 15.3077 16.4688C15.8872 17.772 17.2052 18.6275 18.5698 18.8042C19.512 18.9262 20.5257 18.7427 21.4291 18.1612C22.3353 17.5778 23.0706 16.6334 23.5291 15.3324L23.5396 15.3026L23.5482 15.2722C23.8427 14.2308 24 13.1329 24 12C24 5.37258 18.6274 0 12 0C5.37258 0 0 5.37258 0 12C0 18.6274 5.37258 24 12 24C13.9623 24 15.8174 23.5282 17.4552 22.691C17.9469 22.4396 18.1418 21.8372 17.8904 21.3454C17.639 20.8537 17.0366 20.6588 16.5448 20.9102C15.1823 21.6067 13.6386 22 12 22C6.47715 22 2 17.5228 2 12ZM15 12.5C15 10.567 13.433 9 11.5 9C9.567 9 8 10.567 8 12.5C8 14.433 9.567 16 11.5 16C13.433 16 15 14.433 15 12.5Z" fill="#000640"/>
</g>
<defs>
<clipPath id="clip0_1253_5199">
<rect width="24" height="24" fill="white"/>
</clipPath>
</defs>
</svg>
