<svg width="24" height="24" viewBox="0 0 24 24" fill="none" xmlns="http://www.w3.org/2000/svg">
<path fill-rule="evenodd" clip-rule="evenodd" d="M9.48865 4.9211C9.19707 5.14554 9 5.47507 9 6C9 6.28605 9.10515 6.71051 9.38094 7.28426C9.59394 7.72738 9.88796 8.21723 10.2514 8.74335C10.8983 8.34066 11.4769 7.95708 11.9536 7.5599C12.7378 6.90641 13 6.41283 13 6C13 5.47507 12.8029 5.14554 12.5114 4.9211C12.1888 4.67283 11.6731 4.5 11 4.5C10.3269 4.5 9.81118 4.67283 9.48865 4.9211ZM11.4711 10.3397C12.1026 9.94179 12.7155 9.52837 13.2339 9.09635C14.1372 8.34359 15 7.33717 15 6C15 4.86808 14.5255 3.9476 13.7313 3.33626C12.968 2.74874 11.9838 2.5 11 2.5C10.0162 2.5 9.03196 2.74874 8.26871 3.33626C7.4745 3.9476 7 4.86808 7 6C7 6.71395 7.24262 7.45222 7.57836 8.1507C7.8338 8.68211 8.16397 9.23282 8.54363 9.78947C7.55252 10.4054 6.52166 11.0949 5.70578 11.8957C4.75789 12.826 4 14.0048 4 15.5C4 16.8001 4.32786 17.8696 4.8901 18.7277C5.44822 19.5796 6.20127 20.1688 6.97349 20.5733C8.49149 21.3685 10.1776 21.5 11 21.5C11.8202 21.5 14.0178 21.3694 16.0456 20.2506C16.5506 19.9719 17.0488 19.6299 17.5126 19.2113C17.7838 19.4544 18.0311 19.6746 18.2477 19.8676C18.3324 19.943 18.4124 20.0143 18.4873 20.0811C18.8846 20.4355 19.096 20.6277 19.1522 20.6872C19.5317 21.0884 20.1646 21.106 20.5659 20.7265C20.9671 20.347 20.9847 19.714 20.6052 19.3128C20.4739 19.1741 20.1734 18.9051 19.8186 18.5886C19.7423 18.5206 19.6615 18.4485 19.5762 18.3726C19.346 18.1675 19.0841 17.9342 18.7961 17.6759C18.8018 17.6666 18.8075 17.6573 18.8133 17.648C19.5545 16.4401 20 14.9106 20 13C20 12.4477 19.5523 12 19 12C18.4477 12 18 12.4477 18 13C18 14.4088 17.7117 15.4786 17.281 16.2987C16.373 15.4605 15.364 14.503 14.3682 13.4986C13.3372 12.4587 12.3318 11.3798 11.4711 10.3397ZM9.75 11.395C8.72472 12.028 7.79758 12.645 7.10672 13.3231C6.36711 14.049 6 14.7452 6 15.5C6 16.4499 6.23464 17.1305 6.56302 17.6317C6.89553 18.1392 7.36123 18.5187 7.90151 18.8017C9.00851 19.3815 10.3224 19.5 11 19.5C11.6798 19.5 13.4822 19.3806 15.0794 18.4994C15.408 18.3181 15.7252 18.1061 16.0215 17.8579C15.0736 16.9847 14.0054 15.9734 12.9479 14.9067C11.8283 13.7774 10.7076 12.573 9.75 11.395Z" fill="#000640"/>
</svg>
