<svg width="24" height="24" viewBox="0 0 24 24" fill="none" xmlns="http://www.w3.org/2000/svg">
<path d="M6 2C6.55228 2 7 2.44772 7 3V7.99949L7.00011 8.01093C7.00024 8.02191 7.00053 8.04007 7.00115 8.06493C7.0024 8.11467 7.00497 8.19109 7.01029 8.29033C7.02094 8.48911 7.0425 8.77781 7.08603 9.12604C7.17374 9.82771 7.34752 10.7455 7.68633 11.649C8.02669 12.5566 8.51357 13.3964 9.19561 14.0027C9.85701 14.5906 10.7459 15.0001 12 15.0001C13.2541 15.0001 14.143 14.5906 14.8044 14.0027C15.4864 13.3964 15.9733 12.5566 16.3137 11.649C16.6525 10.7455 16.8263 9.82771 16.914 9.12604C16.9575 8.77781 16.9791 8.48911 16.9897 8.29033C16.995 8.19109 16.9976 8.11467 16.9988 8.06493C16.9995 8.04007 16.9998 8.02191 16.9999 8.01093L17 7.99992C17 7.99992 17 7.99993 17 7.99992L17 3C17 2.44772 17.4477 2 18 2C18.5523 2 19 2.44772 19 3V16C19 16.5523 18.5523 17 18 17C17.4477 17 17 16.5523 17 16V14.5555C16.7465 14.8899 16.4591 15.2077 16.1331 15.4975C15.107 16.4096 13.7459 17.0001 12 17.0001C10.2541 17.0001 8.89299 16.4096 7.86689 15.4975C7.54089 15.2077 7.2535 14.8899 7 14.5555V21C7 21.5523 6.55228 22 6 22C5.44772 22 5 21.5523 5 21V3C5 2.44772 5.44772 2 6 2Z" fill="#000640"/>
</svg>
