<svg width="24" height="24" viewBox="0 0 24 24" fill="none" xmlns="http://www.w3.org/2000/svg">
<path fill-rule="evenodd" clip-rule="evenodd" d="M3 4C3 3.44772 3.44772 3 4 3H20C20.5523 3 21 3.44772 21 4V6C21 6.55228 20.5523 7 20 7C19.4477 7 19 6.55228 19 6V5H5V5.5L12.6 11.2C12.8518 11.3889 13 11.6852 13 12C13 12.3148 12.8518 12.6111 12.6 12.8L5 18.5V19H19V18C19 17.4477 19.4477 17 20 17C20.5523 17 21 17.4477 21 18V20C21 20.5523 20.5523 21 20 21H4C3.44772 21 3 20.5523 3 20V18C3 17.6852 3.14819 17.3889 3.4 17.2L10.3333 12L3.4 6.8C3.14819 6.61115 3 6.31476 3 6V4Z" fill="#000640"/>
</svg>
