<svg width="24" height="24" viewBox="0 0 24 24" fill="none" xmlns="http://www.w3.org/2000/svg">
<path fill-rule="evenodd" clip-rule="evenodd" d="M12 2C12.5523 2 13 2.44772 13 3V5H18C18.5523 5 19 5.44772 19 6C19 6.55228 18.5523 7 18 7H13V9H18C18.5523 9 19 9.44772 19 10C19 10.5523 18.5523 11 18 11H13V14.8035C13.5862 14.9973 14.1586 15.2094 14.6919 15.4197C16.5078 16.1359 18.0389 16.9014 18.4462 17.1051L18.4472 17.1056C18.9412 17.3526 19.1414 17.9532 18.8944 18.4472C18.6474 18.9412 18.0468 19.1414 17.5528 18.8944C17.1587 18.6974 15.6907 17.9635 13.9581 17.2803C13.6411 17.1553 13.3204 17.0341 13 16.9193V18C13 20.2091 11.2091 22 9 22C6.79086 22 5 20.2091 5 18C5 15.7909 6.79086 14 9 14C9.61631 14 10.2976 14.0936 11 14.2462V11H6C5.44772 11 5 10.5523 5 10C5 9.44772 5.44772 9 6 9H11V7H6C5.44772 7 5 6.55228 5 6C5 5.44772 5.44772 5 6 5H11V3C11 2.44772 11.4477 2 12 2ZM11 16.2998C10.2574 16.1131 9.57013 16 9 16C7.89543 16 7 16.8954 7 18C7 19.1046 7.89543 20 9 20C10.1046 20 11 19.1046 11 18V16.2998Z" fill="#000640"/>
</svg>
