<svg width="24" height="24" viewBox="0 0 24 24" fill="none" xmlns="http://www.w3.org/2000/svg">
<path d="M20.2939 4.41628C19.9715 3.96788 19.3466 3.86575 18.8982 4.18818C18.4498 4.5106 18.3477 5.13547 18.6701 5.58387C21.0247 8.85843 21.3439 12.052 20.7246 14.3666C20.0796 16.7769 18.541 18.0001 17.3184 18.0001C15.7699 18.0001 14.7709 17.4047 14.1033 16.3417C13.3882 15.203 13.0002 13.435 13.0002 11.0356C13.0002 10.4834 12.5525 10.0356 12.0002 10.0356C12.0001 10.0356 12.0002 10.0356 12.0002 10.0356C11.4479 10.0356 11.0001 10.4834 11.0001 11.0356C11.0001 13.435 10.612 15.2029 9.89684 16.3417C9.22927 17.4047 8.23023 18.0001 6.68184 18.0001C5.45948 18.0001 3.92085 16.7769 3.27581 14.3666C2.65641 12.052 2.97559 8.85842 5.33015 5.58387C5.65258 5.13547 5.55045 4.5106 5.10205 4.18817C4.65365 3.86575 4.02877 3.96788 3.70635 4.41628C1.02757 8.14173 0.558233 11.9481 1.3438 14.8836C2.10374 17.7233 4.16358 20.0001 6.68184 20.0001C8.87407 20.0001 10.5341 19.0875 11.5905 17.4054C11.7402 17.167 11.8765 16.9153 12.0001 16.6511C12.1237 16.9153 12.2599 17.167 12.4096 17.4054C13.466 19.0875 15.1261 20.0001 17.3184 20.0001C19.8368 20.0001 21.8967 17.7233 22.6566 14.8836C23.4421 11.9481 22.9727 8.14172 20.2939 4.41628Z" fill="#000640"/>
</svg>
