<svg width="24" height="24" viewBox="0 0 24 24" fill="none" xmlns="http://www.w3.org/2000/svg">
<g clip-path="url(#clip0_1253_5269)">
<path d="M11.9686 8C10.4826 8 9.61141 8.74782 9.46546 9.2886C9.32156 9.8218 8.77266 10.1374 8.23945 9.9935C7.70624 9.8496 7.39065 9.3007 7.53455 8.76749C8.01205 6.99814 10.0097 6 11.9686 6C13.1021 6 14.1927 6.28874 15.0306 6.86234C15.8833 7.44614 16.5 8.35483 16.5 9.5C16.5 10.559 15.9727 11.4158 15.2189 12.0004C15.9725 12.5848 16.5 13.4412 16.5 14.5C16.5 15.6457 15.8824 16.5544 15.029 17.138C14.1905 17.7114 13.0991 18 11.9647 18C10.0177 18 8.03893 17.0181 7.53883 15.2759C7.38645 14.7451 7.69325 14.1912 8.2241 14.0388C8.75495 13.8864 9.30881 14.1932 9.4612 14.7241C9.61623 15.2642 10.4909 16 11.9647 16C12.7828 16 13.459 15.7886 13.9001 15.487C14.3262 15.1956 14.5 14.8543 14.5 14.5C14.5 14.1457 14.3262 13.8044 13.9001 13.513C13.459 13.2114 12.7828 13 11.9647 13C11.4124 13 10.9647 12.5523 10.9647 12C10.9647 11.4477 11.4124 11 11.9647 11L11.9675 11L11.9686 11C12.7854 11 13.4605 10.7887 13.9008 10.4873C14.3261 10.1961 14.5 9.85483 14.5 9.5C14.5 9.14517 14.3261 8.80386 13.9008 8.51266C13.4605 8.21126 12.7854 8 11.9686 8Z" fill="#000640"/>
<path fill-rule="evenodd" clip-rule="evenodd" d="M0 12C0 5.37258 5.37258 0 12 0C18.6274 0 24 5.37258 24 12C24 18.6274 18.6274 24 12 24C5.37258 24 0 18.6274 0 12ZM12 2C6.47715 2 2 6.47715 2 12C2 17.5228 6.47715 22 12 22C17.5228 22 22 17.5228 22 12C22 6.47715 17.5228 2 12 2Z" fill="#000640"/>
</g>
<defs>
<clipPath id="clip0_1253_5269">
<rect width="24" height="24" fill="white"/>
</clipPath>
</defs>
</svg>
