<svg width="24" height="24" viewBox="0 0 24 24" fill="none" xmlns="http://www.w3.org/2000/svg">
<g clip-path="url(#clip0_1253_5121)">
<path d="M15.0512 18.316C15.2258 18.84 15.7921 19.1233 16.316 18.9487C16.84 18.7742 17.1233 18.2079 16.9487 17.6839C16.2449 15.5711 14.3212 14 12 14C9.67871 14 7.75508 15.5711 7.05123 17.6839C6.87668 18.2079 7.15994 18.7742 7.68392 18.9487C8.20789 19.1233 8.77416 18.84 8.94871 18.316C9.40936 16.9333 10.6278 16 12 16C13.3721 16 14.5906 16.9333 15.0512 18.316Z" fill="#000640"/>
<path d="M5.16793 8.44528C5.47429 7.98576 6.09516 7.86158 6.55468 8.16793L9.55468 10.1679C10.0142 10.4743 10.1384 11.0952 9.83204 11.5547C9.52568 12.0142 8.90481 12.1384 8.44528 11.832L5.44528 9.83203C4.98576 9.52568 4.86158 8.90481 5.16793 8.44528Z" fill="#000640"/>
<path d="M18.5547 9.83203C19.0142 9.52568 19.1384 8.90481 18.832 8.44528C18.5257 7.98576 17.9048 7.86158 17.4453 8.16793L14.4453 10.1679C13.9858 10.4743 13.8616 11.0952 14.1679 11.5547C14.4743 12.0142 15.0952 12.1384 15.5547 11.832L18.5547 9.83203Z" fill="#000640"/>
<path fill-rule="evenodd" clip-rule="evenodd" d="M12 0C5.37258 0 0 5.37258 0 12C0 18.6274 5.37258 24 12 24C18.6274 24 24 18.6274 24 12C24 5.37258 18.6274 0 12 0ZM2 12C2 6.47715 6.47715 2 12 2C17.5228 2 22 6.47715 22 12C22 17.5228 17.5228 22 12 22C6.47715 22 2 17.5228 2 12Z" fill="#000640"/>
</g>
<defs>
<clipPath id="clip0_1253_5121">
<rect width="24" height="24" fill="white"/>
</clipPath>
</defs>
</svg>
