<svg width="24" height="24" viewBox="0 0 24 24" fill="none" xmlns="http://www.w3.org/2000/svg">
<path d="M9 10C9 9.44771 8.55228 9 8 9C7.44772 9 7 9.44771 7 10C7 12.7614 9.23858 15 12 15C14.7614 15 17 12.7614 17 10C17 9.44771 16.5523 9 16 9C15.4477 9 15 9.44771 15 10C15 11.6569 13.6569 13 12 13C10.3431 13 9 11.6569 9 10Z" fill="#000640"/>
<path fill-rule="evenodd" clip-rule="evenodd" d="M5 1C4.62123 1 4.27496 1.214 4.10557 1.55279L2.10557 5.55279C2.03615 5.69164 2 5.84476 2 6V20C2 21.6569 3.34315 23 5 23H19C20.6569 23 22 21.6569 22 20V6C22 5.84476 21.9639 5.69164 21.8944 5.55279L19.8944 1.55279C19.725 1.214 19.3788 1 19 1H5ZM4.61803 5L5.61803 3H18.382L19.382 5H4.61803ZM4 7H20V20C20 20.5523 19.5523 21 19 21H5C4.44772 21 4 20.5523 4 20V7Z" fill="#000640"/>
</svg>
