<svg width="24" height="24" viewBox="0 0 24 24" fill="none" xmlns="http://www.w3.org/2000/svg">
<path d="M3 3C1.34315 3 0 4.34315 0 6V7C0 7.55228 0.447715 8 1 8C1.55228 8 2 7.55228 2 7V6C2 5.44772 2.44772 5 3 5H21C21.5523 5 22 5.44771 22 6V18C22 18.5523 21.5523 19 21 19H14C13.4477 19 13 19.4477 13 20C13 20.5523 13.4477 21 14 21H21C22.6569 21 24 19.6569 24 18V6C24 4.34315 22.6569 3 21 3H3Z" fill="#000640"/>
<path d="M1 10C0.447715 10 0 10.4477 0 11C0 11.5523 0.447715 12 1 12C5.41828 12 9 15.5817 9 20C9 20.5523 9.44771 21 10 21C10.5523 21 11 20.5523 11 20C11 14.4772 6.52285 10 1 10Z" fill="#000640"/>
<path d="M1 14C0.447715 14 0 14.4477 0 15C0 15.5523 0.447715 16 1 16C3.20914 16 5 17.7909 5 20C5 20.5523 5.44772 21 6 21C6.55228 21 7 20.5523 7 20C7 16.6863 4.31371 14 1 14Z" fill="#000640"/>
<path d="M3 19.5C3 20.3284 2.32843 21 1.5 21C0.671573 21 0 20.3284 0 19.5C0 18.6716 0.671573 18 1.5 18C2.32843 18 3 18.6716 3 19.5Z" fill="#000640"/>
</svg>
