<svg width="24" height="24" viewBox="0 0 24 24" fill="none" xmlns="http://www.w3.org/2000/svg">
<path d="M12 4C9.23858 4 7 6.23858 7 9C7 9.55228 6.55228 10 6 10C4.21354 10 3 11.2405 3 12.5C3 13.7595 4.21354 15 6 15C6.55229 15 7 15.4477 7 16C7 16.5523 6.55229 17 6 17C3.36818 17 1 15.1065 1 12.5C1 10.2089 2.82965 8.46876 5.05977 8.08111C5.50974 4.64936 8.44547 2 12 2C15.5545 2 18.4903 4.64936 18.9402 8.08111C21.1703 8.46876 23 10.2089 23 12.5C23 15.1065 20.6318 17 18 17C17.4477 17 17 16.5523 17 16C17 15.4477 17.4477 15 18 15C19.7865 15 21 13.7595 21 12.5C21 11.2405 19.7865 10 18 10C17.4477 10 17 9.55228 17 9C17 6.23858 14.7614 4 12 4Z" fill="#000640"/>
<path d="M15.7071 17.2929C15.3166 16.9024 14.6834 16.9024 14.2929 17.2929L13 18.5858V10C13 9.44772 12.5523 9 12 9C11.4477 9 11 9.44772 11 10V18.5858L9.70711 17.2929C9.31658 16.9024 8.68342 16.9024 8.29289 17.2929C7.90237 17.6834 7.90237 18.3166 8.29289 18.7071L11.2929 21.7071C11.4804 21.8946 11.7348 22 12 22C12.2652 22 12.5196 21.8946 12.7071 21.7071L15.7071 18.7071C16.0976 18.3166 16.0976 17.6834 15.7071 17.2929Z" fill="#000640"/>
</svg>
