<svg width="24" height="24" viewBox="0 0 24 24" fill="none" xmlns="http://www.w3.org/2000/svg">
<path fill-rule="evenodd" clip-rule="evenodd" d="M12 6C9.23858 6 7 8.23858 7 11C7 11.5523 6.55228 12 6 12C4.21354 12 3 13.2405 3 14.5C3 15.7595 4.21354 17 6 17H18C19.7865 17 21 15.7595 21 14.5C21 13.2405 19.7865 12 18 12C17.4477 12 17 11.5523 17 11C17 8.23858 14.7614 6 12 6ZM5.05977 10.0811C5.50974 6.64936 8.44547 4 12 4C15.5545 4 18.4903 6.64936 18.9402 10.0811C21.1703 10.4688 23 12.2089 23 14.5C23 17.1065 20.6318 19 18 19H6C3.36818 19 1 17.1065 1 14.5C1 12.2089 2.82965 10.4688 5.05977 10.0811Z" fill="#000640"/>
</svg>
