<svg width="1352" height="146" viewBox="0 0 1352 146" fill="none" xmlns="http://www.w3.org/2000/svg">
<rect x="96" y="144" width="1160" height="2" rx="0.5" fill="#F5F5F5"/>
<path d="M143.04 58.64L133.152 92H126.96L119.952 66.752L112.512 92L106.368 92.048L96.912 58.64H102.72L109.632 85.808L117.12 58.64H123.264L130.224 85.664L137.184 58.64H143.04ZM171.793 78.128C171.793 79.12 171.729 80.016 171.601 80.816H151.393C151.553 82.928 152.337 84.624 153.745 85.904C155.153 87.184 156.881 87.824 158.929 87.824C161.873 87.824 163.953 86.592 165.169 84.128H171.073C170.273 86.56 168.817 88.56 166.705 90.128C164.625 91.664 162.033 92.432 158.929 92.432C156.401 92.432 154.129 91.872 152.113 90.752C150.129 89.6 148.561 88 147.409 85.952C146.289 83.872 145.729 81.472 145.729 78.752C145.729 76.032 146.273 73.648 147.361 71.6C148.481 69.52 150.033 67.92 152.017 66.8C154.033 65.68 156.337 65.12 158.929 65.12C161.425 65.12 163.649 65.664 165.601 66.752C167.553 67.84 169.073 69.376 170.161 71.36C171.249 73.312 171.793 75.568 171.793 78.128ZM166.081 76.4C166.049 74.384 165.329 72.768 163.921 71.552C162.513 70.336 160.769 69.728 158.689 69.728C156.801 69.728 155.185 70.336 153.841 71.552C152.497 72.736 151.697 74.352 151.441 76.4H166.081ZM182.65 69.488C183.578 68.208 184.842 67.168 186.442 66.368C188.074 65.536 189.882 65.12 191.866 65.12C194.202 65.12 196.314 65.68 198.202 66.8C200.09 67.92 201.578 69.52 202.666 71.6C203.754 73.648 204.298 76 204.298 78.656C204.298 81.312 203.754 83.696 202.666 85.808C201.578 87.888 200.074 89.52 198.154 90.704C196.266 91.856 194.17 92.432 191.866 92.432C189.818 92.432 187.994 92.032 186.394 91.232C184.826 90.432 183.578 89.408 182.65 88.16V92H177.178V56.48H182.65V69.488ZM198.73 78.656C198.73 76.832 198.346 75.264 197.578 73.952C196.842 72.608 195.85 71.6 194.602 70.928C193.386 70.224 192.074 69.872 190.666 69.872C189.29 69.872 187.978 70.224 186.73 70.928C185.514 71.632 184.522 72.656 183.754 74C183.018 75.344 182.65 76.928 182.65 78.752C182.65 80.576 183.018 82.176 183.754 83.552C184.522 84.896 185.514 85.92 186.73 86.624C187.978 87.328 189.29 87.68 190.666 87.68C192.074 87.68 193.386 87.328 194.602 86.624C195.85 85.888 196.842 84.832 197.578 83.456C198.346 82.08 198.73 80.48 198.73 78.656ZM227.65 63.056V72.848H239.17V77.312H227.65V87.536H240.61V92H222.178V58.592H240.61V63.056H227.65ZM256.95 92.432C254.87 92.432 252.998 92.064 251.334 91.328C249.702 90.56 248.406 89.536 247.446 88.256C246.486 86.944 245.974 85.488 245.91 83.888H251.574C251.67 85.008 252.198 85.952 253.158 86.72C254.15 87.456 255.382 87.824 256.854 87.824C258.39 87.824 259.574 87.536 260.406 86.96C261.27 86.352 261.702 85.584 261.702 84.656C261.702 83.664 261.222 82.928 260.262 82.448C259.334 81.968 257.846 81.44 255.798 80.864C253.814 80.32 252.198 79.792 250.95 79.28C249.702 78.768 248.614 77.984 247.686 76.928C246.79 75.872 246.342 74.48 246.342 72.752C246.342 71.344 246.758 70.064 247.59 68.912C248.422 67.728 249.606 66.8 251.142 66.128C252.71 65.456 254.502 65.12 256.518 65.12C259.526 65.12 261.942 65.888 263.766 67.424C265.622 68.928 266.614 70.992 266.742 73.616H261.27C261.174 72.432 260.694 71.488 259.83 70.784C258.966 70.08 257.798 69.728 256.326 69.728C254.886 69.728 253.782 70 253.014 70.544C252.246 71.088 251.862 71.808 251.862 72.704C251.862 73.408 252.118 74 252.63 74.48C253.142 74.96 253.766 75.344 254.502 75.632C255.238 75.888 256.326 76.224 257.766 76.64C259.686 77.152 261.254 77.68 262.47 78.224C263.718 78.736 264.79 79.504 265.686 80.528C266.582 81.552 267.046 82.912 267.078 84.608C267.078 86.112 266.662 87.456 265.83 88.64C264.998 89.824 263.814 90.752 262.278 91.424C260.774 92.096 258.998 92.432 256.95 92.432ZM282.591 92.432C280.511 92.432 278.639 92.064 276.975 91.328C275.343 90.56 274.047 89.536 273.087 88.256C272.127 86.944 271.615 85.488 271.551 83.888H277.215C277.311 85.008 277.839 85.952 278.799 86.72C279.791 87.456 281.023 87.824 282.495 87.824C284.031 87.824 285.215 87.536 286.047 86.96C286.911 86.352 287.343 85.584 287.343 84.656C287.343 83.664 286.863 82.928 285.903 82.448C284.975 81.968 283.487 81.44 281.439 80.864C279.455 80.32 277.839 79.792 276.591 79.28C275.343 78.768 274.255 77.984 273.327 76.928C272.431 75.872 271.983 74.48 271.983 72.752C271.983 71.344 272.399 70.064 273.231 68.912C274.063 67.728 275.247 66.8 276.783 66.128C278.351 65.456 280.143 65.12 282.159 65.12C285.167 65.12 287.583 65.888 289.407 67.424C291.263 68.928 292.255 70.992 292.383 73.616H286.911C286.815 72.432 286.335 71.488 285.471 70.784C284.607 70.08 283.439 69.728 281.967 69.728C280.527 69.728 279.423 70 278.655 70.544C277.887 71.088 277.503 71.808 277.503 72.704C277.503 73.408 277.759 74 278.271 74.48C278.783 74.96 279.407 75.344 280.143 75.632C280.879 75.888 281.967 76.224 283.407 76.64C285.327 77.152 286.895 77.68 288.111 78.224C289.359 78.736 290.431 79.504 291.327 80.528C292.223 81.552 292.687 82.912 292.719 84.608C292.719 86.112 292.303 87.456 291.471 88.64C290.639 89.824 289.455 90.752 287.919 91.424C286.415 92.096 284.639 92.432 282.591 92.432ZM322.871 78.128C322.871 79.12 322.807 80.016 322.679 80.816H302.471C302.631 82.928 303.415 84.624 304.823 85.904C306.231 87.184 307.959 87.824 310.007 87.824C312.951 87.824 315.031 86.592 316.247 84.128H322.151C321.351 86.56 319.895 88.56 317.783 90.128C315.703 91.664 313.111 92.432 310.007 92.432C307.479 92.432 305.207 91.872 303.191 90.752C301.207 89.6 299.639 88 298.487 85.952C297.367 83.872 296.807 81.472 296.807 78.752C296.807 76.032 297.351 73.648 298.439 71.6C299.559 69.52 301.111 67.92 303.095 66.8C305.111 65.68 307.415 65.12 310.007 65.12C312.503 65.12 314.727 65.664 316.679 66.752C318.631 67.84 320.151 69.376 321.239 71.36C322.327 73.312 322.871 75.568 322.871 78.128ZM317.159 76.4C317.127 74.384 316.407 72.768 314.999 71.552C313.591 70.336 311.847 69.728 309.767 69.728C307.879 69.728 306.263 70.336 304.919 71.552C303.575 72.736 302.775 74.352 302.519 76.4H317.159ZM341.6 65.12C343.68 65.12 345.536 65.552 347.168 66.416C348.832 67.28 350.128 68.56 351.056 70.256C351.984 71.952 352.448 74 352.448 76.4V92H347.024V77.216C347.024 74.848 346.432 73.04 345.248 71.792C344.064 70.512 342.448 69.872 340.4 69.872C338.352 69.872 336.72 70.512 335.504 71.792C334.32 73.04 333.728 74.848 333.728 77.216V92H328.256V65.552H333.728V68.576C334.624 67.488 335.76 66.64 337.136 66.032C338.544 65.424 340.032 65.12 341.6 65.12ZM365.812 70.016V84.656C365.812 85.648 366.036 86.368 366.484 86.816C366.964 87.232 367.764 87.44 368.884 87.44H372.244V92H367.924C365.46 92 363.572 91.424 362.26 90.272C360.948 89.12 360.292 87.248 360.292 84.656V70.016H357.172V65.552H360.292V58.976H365.812V65.552H372.244V70.016H365.812ZM380.072 62.048C379.08 62.048 378.248 61.712 377.576 61.04C376.904 60.368 376.568 59.536 376.568 58.544C376.568 57.552 376.904 56.72 377.576 56.048C378.248 55.376 379.08 55.04 380.072 55.04C381.032 55.04 381.848 55.376 382.52 56.048C383.192 56.72 383.528 57.552 383.528 58.544C383.528 59.536 383.192 60.368 382.52 61.04C381.848 61.712 381.032 62.048 380.072 62.048ZM382.76 65.552V92H377.288V65.552H382.76ZM388.12 78.656C388.12 76 388.664 73.648 389.752 71.6C390.872 69.552 392.376 67.968 394.264 66.848C396.184 65.696 398.296 65.12 400.6 65.12C402.68 65.12 404.488 65.536 406.024 66.368C407.592 67.168 408.84 68.176 409.768 69.392V65.552H415.288V92H409.768V88.064C408.84 89.312 407.576 90.352 405.976 91.184C404.376 92.016 402.552 92.432 400.504 92.432C398.232 92.432 396.152 91.856 394.264 90.704C392.376 89.52 390.872 87.888 389.752 85.808C388.664 83.696 388.12 81.312 388.12 78.656ZM409.768 78.752C409.768 76.928 409.384 75.344 408.616 74C407.88 72.656 406.904 71.632 405.688 70.928C404.472 70.224 403.16 69.872 401.752 69.872C400.344 69.872 399.032 70.224 397.816 70.928C396.6 71.6 395.608 72.608 394.84 73.952C394.104 75.264 393.736 76.832 393.736 78.656C393.736 80.48 394.104 82.08 394.84 83.456C395.608 84.832 396.6 85.888 397.816 86.624C399.064 87.328 400.376 87.68 401.752 87.68C403.16 87.68 404.472 87.328 405.688 86.624C406.904 85.92 407.88 84.896 408.616 83.552C409.384 82.176 409.768 80.576 409.768 78.752ZM427.947 56.48V92H422.475V56.48H427.947ZM444.731 92.432C442.651 92.432 440.779 92.064 439.115 91.328C437.483 90.56 436.187 89.536 435.227 88.256C434.267 86.944 433.755 85.488 433.691 83.888H439.355C439.451 85.008 439.979 85.952 440.939 86.72C441.931 87.456 443.163 87.824 444.635 87.824C446.171 87.824 447.355 87.536 448.187 86.96C449.051 86.352 449.483 85.584 449.483 84.656C449.483 83.664 449.003 82.928 448.043 82.448C447.115 81.968 445.627 81.44 443.579 80.864C441.595 80.32 439.979 79.792 438.731 79.28C437.483 78.768 436.395 77.984 435.467 76.928C434.571 75.872 434.123 74.48 434.123 72.752C434.123 71.344 434.539 70.064 435.371 68.912C436.203 67.728 437.387 66.8 438.923 66.128C440.491 65.456 442.283 65.12 444.299 65.12C447.307 65.12 449.723 65.888 451.547 67.424C453.403 68.928 454.395 70.992 454.523 73.616H449.051C448.955 72.432 448.475 71.488 447.611 70.784C446.747 70.08 445.579 69.728 444.107 69.728C442.667 69.728 441.563 70 440.795 70.544C440.027 71.088 439.643 71.808 439.643 72.704C439.643 73.408 439.899 74 440.411 74.48C440.923 74.96 441.547 75.344 442.283 75.632C443.019 75.888 444.107 76.224 445.547 76.64C447.467 77.152 449.035 77.68 450.251 78.224C451.499 78.736 452.571 79.504 453.467 80.528C454.363 81.552 454.827 82.912 454.859 84.608C454.859 86.112 454.443 87.456 453.611 88.64C452.779 89.824 451.595 90.752 450.059 91.424C448.555 92.096 446.779 92.432 444.731 92.432Z" fill="#000640"/>
<rect x="1116" y="63" width="140" height="24" rx="4" fill="#EBEBEB"/>
<g clip-path="url(#clip0_1253_7330)">
<path d="M1130.86 80.1381C1131.12 80.3984 1131.54 80.3984 1131.8 80.1381C1132.07 79.8777 1132.07 79.4556 1131.8 79.1953L1128.28 75.6667H1137.33C1137.7 75.6667 1138 75.3682 1138 75C1138 74.6318 1137.7 74.3333 1137.33 74.3333H1128.28L1131.8 70.8047C1132.07 70.5444 1132.07 70.1223 1131.8 69.8619C1131.54 69.6016 1131.12 69.6016 1130.86 69.8619L1126.2 74.5286C1125.93 74.7889 1125.93 75.2111 1126.2 75.4714L1130.86 80.1381Z" fill="#696969"/>
</g>
<path d="M1144.59 80V72.2979H1147.48C1148.14 72.2979 1148.7 72.5002 1149.17 72.9048C1149.64 73.3058 1149.88 73.7856 1149.88 74.3442C1149.88 74.6916 1149.77 75.0174 1149.57 75.3218C1149.37 75.6226 1149.12 75.8249 1148.81 75.9287C1149.22 76.0111 1149.56 76.2259 1149.82 76.5732C1150.09 76.9206 1150.23 77.3288 1150.23 77.7979C1150.23 78.4137 1149.99 78.9347 1149.52 79.3608C1149.04 79.7869 1148.47 80 1147.81 80H1144.59ZM1146.21 75.4023H1147.4C1147.63 75.4023 1147.82 75.3271 1147.98 75.1768C1148.14 75.0228 1148.22 74.8384 1148.22 74.6235C1148.22 74.4087 1148.14 74.2279 1147.99 74.0811C1147.83 73.9342 1147.63 73.8608 1147.4 73.8608H1146.21V75.4023ZM1146.21 78.437H1147.66C1147.91 78.437 1148.13 78.3511 1148.3 78.1792C1148.48 78.0037 1148.57 77.7925 1148.57 77.5454C1148.57 77.2983 1148.48 77.0871 1148.3 76.9116C1148.13 76.7326 1147.92 76.6431 1147.68 76.6431H1146.21V78.437ZM1158 80L1157.52 78.7109H1154.55L1154.06 80H1152.33L1155.39 72.2979H1156.7L1159.78 80H1158ZM1155.09 77.3145H1156.98L1156.05 74.8545L1155.09 77.3145ZM1165.68 80.1074C1164.94 80.1074 1164.28 79.9355 1163.68 79.5918C1163.08 79.248 1162.62 78.7736 1162.28 78.1685C1161.94 77.5633 1161.77 76.8901 1161.77 76.1489C1161.77 75.4077 1161.94 74.7345 1162.28 74.1294C1162.62 73.5243 1163.08 73.0498 1163.68 72.7061C1164.28 72.3623 1164.94 72.1904 1165.68 72.1904C1166.27 72.1904 1166.84 72.3122 1167.37 72.5557C1167.91 72.7956 1168.35 73.1322 1168.7 73.5654C1169.05 73.9951 1169.27 74.4749 1169.34 75.0049H1167.52C1167.42 74.6432 1167.2 74.3478 1166.85 74.1187C1166.51 73.8895 1166.12 73.7749 1165.68 73.7749C1165.04 73.7749 1164.51 74.0023 1164.08 74.457C1163.65 74.9082 1163.44 75.4722 1163.44 76.1489C1163.44 76.8257 1163.65 77.3914 1164.08 77.8462C1164.51 78.3009 1165.04 78.5283 1165.68 78.5283C1166.12 78.5283 1166.52 78.403 1166.86 78.1523C1167.21 77.9017 1167.43 77.583 1167.53 77.1963H1169.36C1169.21 78.0521 1168.8 78.7521 1168.11 79.2964C1167.43 79.8371 1166.61 80.1074 1165.68 80.1074ZM1179 80H1176.87L1173.93 76.3262V80H1172.31V72.2979H1173.93V75.5581L1176.67 72.2979H1178.73L1175.64 75.9287L1179 80ZM1191.77 72.2979V73.8608H1189.51V80H1187.89V73.8608H1185.64V72.2979H1191.77ZM1195.79 72.7061C1196.4 72.3623 1197.07 72.1904 1197.8 72.1904C1198.54 72.1904 1199.21 72.3623 1199.81 72.7061C1200.41 73.0498 1200.88 73.5243 1201.22 74.1294C1201.57 74.7345 1201.74 75.4077 1201.74 76.1489C1201.74 76.8901 1201.57 77.5633 1201.22 78.1685C1200.88 78.7736 1200.41 79.248 1199.81 79.5918C1199.21 79.9355 1198.54 80.1074 1197.8 80.1074C1197.07 80.1074 1196.4 79.9355 1195.79 79.5918C1195.2 79.248 1194.73 78.7736 1194.39 78.1685C1194.05 77.5633 1193.88 76.8901 1193.88 76.1489C1193.88 75.4077 1194.05 74.7345 1194.39 74.1294C1194.73 73.5243 1195.2 73.0498 1195.79 72.7061ZM1199.41 74.457C1198.98 74.0023 1198.45 73.7749 1197.8 73.7749C1197.16 73.7749 1196.62 74.0023 1196.19 74.457C1195.76 74.9082 1195.55 75.4722 1195.55 76.1489C1195.55 76.8257 1195.76 77.3914 1196.19 77.8462C1196.62 78.3009 1197.16 78.5283 1197.8 78.5283C1198.45 78.5283 1198.98 78.3009 1199.41 77.8462C1199.84 77.3914 1200.06 76.8257 1200.06 76.1489C1200.06 75.4722 1199.84 74.9082 1199.41 74.457ZM1208.94 72.2979H1210.56V80H1208.94V72.2979ZM1213.73 72.2979H1215.11L1218.25 76.7881V72.2979H1219.87V80H1218.51L1215.36 75.5098V80H1213.73V72.2979ZM1225.68 72.2979C1226.41 72.2979 1227.07 72.4626 1227.67 72.792C1228.27 73.1214 1228.74 73.578 1229.08 74.1616C1229.42 74.7453 1229.59 75.397 1229.59 76.1167C1229.59 76.8507 1229.42 77.515 1229.08 78.1094C1228.74 78.7002 1228.27 79.1639 1227.67 79.5005C1227.07 79.8335 1226.41 80 1225.68 80H1223.04V72.2979H1225.68ZM1225.79 78.437C1226.4 78.437 1226.91 78.2168 1227.3 77.7764C1227.7 77.3359 1227.91 76.7827 1227.91 76.1167C1227.91 75.4614 1227.71 74.9225 1227.31 74.5C1226.92 74.0739 1226.41 73.8608 1225.79 73.8608H1224.67V78.437H1225.79ZM1232.53 72.2979H1237.25V73.8608H1234.16V75.2466H1236.91V76.8096H1234.16V78.437H1237.25V80H1232.53V72.2979ZM1246.96 80H1245.02L1243.33 77.481L1241.66 80H1239.75L1242.39 76.0415L1239.89 72.2979H1241.84L1243.36 74.5859L1244.88 72.2979H1246.78L1244.31 76.02L1246.96 80Z" fill="#696969"/>
<path d="M1144 81.6489H1247.04V82.1968H1144V81.6489Z" fill="#696969"/>
<a href="https://www.figma.com/file/FOhC2ZMBEHzVejIYjN6Qfz/%E2%9C%85-MamaMia!-Design-System?node-id=556%3A3901">
<rect fill="black" fill-opacity="0" y="-0.601074" width="103.041" height="13.2021"/>
</a>
<defs>
<clipPath id="clip0_1253_7330">
<rect width="16" height="16" fill="white" transform="translate(1124 67)"/>
</clipPath>
</defs>
</svg>
