<svg width="24" height="24" viewBox="0 0 24 24" fill="none" xmlns="http://www.w3.org/2000/svg">
<path d="M16.2934 13.7071C16.6839 14.0976 17.317 14.0976 17.7076 13.7071L19.7076 11.7071C21.7549 9.65972 21.7549 6.34027 19.7076 4.29289C17.6602 2.24551 14.3407 2.24551 12.2934 4.29289L10.2934 6.29289C9.90283 6.68341 9.90283 7.31658 10.2934 7.7071C10.6839 8.09763 11.317 8.09763 11.7076 7.7071L13.7076 5.7071C14.9739 4.44077 17.027 4.44077 18.2934 5.7071C19.5597 6.97343 19.5597 9.02656 18.2934 10.2929L16.2934 12.2929C15.9028 12.6834 15.9028 13.3166 16.2934 13.7071Z" fill="#000640"/>
<path d="M4.29335 19.7071C6.34072 21.7545 9.66018 21.7545 11.7076 19.7071L13.7076 17.7071C14.0981 17.3166 14.0981 16.6834 13.7076 16.2929C13.317 15.9024 12.6839 15.9024 12.2933 16.2929L10.2933 18.2929C9.02702 19.5593 6.97389 19.5593 5.70756 18.2929C4.44123 17.0266 4.44123 14.9735 5.70756 13.7071L7.70756 11.7071C8.09808 11.3166 8.09808 10.6834 7.70756 10.2929C7.31704 9.9024 6.68387 9.9024 6.29335 10.2929L4.29335 12.2929C2.24597 14.3403 2.24597 17.6598 4.29335 19.7071Z" fill="#000640"/>
<path d="M9.70756 15.7071C9.31704 16.0976 8.68388 16.0976 8.29335 15.7071C7.90283 15.3166 7.90283 14.6834 8.29335 14.2929L14.2934 8.29289C14.6839 7.90236 15.317 7.90236 15.7076 8.29289C16.0981 8.68341 16.0981 9.31658 15.7076 9.7071L9.70756 15.7071Z" fill="#000640"/>
</svg>
