<svg width="24" height="24" viewBox="0 0 24 24" fill="none" xmlns="http://www.w3.org/2000/svg">
<path d="M22 7L8 7C7.44772 7 7 6.55228 7 6C7 5.44772 7.44772 5 8 5H22C22.5523 5 23 5.44772 23 6C23 6.55229 22.5523 7 22 7Z" fill="#000640"/>
<path d="M19 13L5 13C4.44772 13 4 12.5523 4 12C4 11.4477 4.44772 11 5 11L19 11C19.5523 11 20 11.4477 20 12C20 12.5523 19.5523 13 19 13Z" fill="#000640"/>
<path d="M2 17C1.44772 17 1 17.4477 1 18C1 18.5523 1.44772 19 2 19L16 19C16.5523 19 17 18.5523 17 18C17 17.4477 16.5523 17 16 17L2 17Z" fill="#000640"/>
</svg>
