<svg width="24" height="24" viewBox="0 0 24 24" fill="none" xmlns="http://www.w3.org/2000/svg">
<path d="M4.19824 10.2213C5.00661 6.65879 8.19401 4 12 4C14.9031 4 17.4466 5.5462 18.8492 7.8636L16.3054 7.04775C15.7795 6.87909 15.2164 7.16868 15.0478 7.69458C14.8791 8.22048 15.1687 8.78354 15.6946 8.9522L20.6946 10.5558C20.9988 10.6533 21.3313 10.5997 21.5893 10.4115C21.8474 10.2232 22 9.92299 22 9.60355V3.99998C22 3.44769 21.5523 2.99998 21 2.99998C20.4477 2.99998 20 3.44769 20 3.99998V5.99928C18.1764 3.57194 15.2724 2 12 2C7.23967 2 3.25836 5.32525 2.24782 9.77871C2.12561 10.3173 2.46315 10.853 3.00174 10.9752C3.54034 11.0974 4.07603 10.7599 4.19824 10.2213Z" fill="#000640"/>
<path d="M21.7522 14.2213C21.8744 13.6827 21.5369 13.147 20.9983 13.0248C20.4597 12.9026 19.924 13.2401 19.8018 13.7787C18.9934 17.3412 15.806 20 12 20C9.06371 20 6.49525 18.4182 5.10306 16.0565L8.75746 16.9701C9.29326 17.1041 9.83619 16.7783 9.97014 16.2425C10.1041 15.7067 9.77833 15.1638 9.24254 15.0298L3.24254 13.5298C2.94379 13.4551 2.6273 13.5223 2.38459 13.7118C2.14187 13.9013 2 14.192 2 14.5V20C2 20.5523 2.44771 21 3 21C3.55228 21 4 20.5523 4 20L4 18.0007C5.82361 20.428 8.7276 22 12 22C16.7604 22 20.7417 18.6747 21.7522 14.2213Z" fill="#000640"/>
</svg>
