<svg width="24" height="24" viewBox="0 0 24 24" fill="none" xmlns="http://www.w3.org/2000/svg">
<path fill-rule="evenodd" clip-rule="evenodd" d="M10.0963 2.6447C10.6922 0.796413 13.3072 0.796411 13.9032 2.6447L15.5608 7.78523L20.941 7.78523C22.8747 7.78523 23.6827 10.2567 22.1224 11.399L17.7567 14.5951L19.4211 19.757C20.0162 21.6023 17.9006 23.1298 16.3362 21.9845L11.9997 18.8098L7.66328 21.9845C6.09885 23.1298 3.98333 21.6023 4.57836 19.757L6.24281 14.5951L1.8771 11.399C0.316795 10.2567 1.12478 7.78523 3.05853 7.78523H8.43868L10.0963 2.6447ZM13.6573 8.39902L11.9997 3.25848L10.3422 8.39902C10.0758 9.22522 9.30678 9.78523 8.43868 9.78523H3.05853L7.42424 12.9814C8.11988 13.4907 8.41088 14.3884 8.1463 15.2089L6.48184 20.3708L10.8183 17.196C11.5218 16.681 12.4777 16.681 13.1812 17.196L17.5176 20.3708L15.8532 15.2089C15.5886 14.3884 15.8796 13.4907 16.5752 12.9814L20.941 9.78523H15.5608C14.6927 9.78523 13.9237 9.22522 13.6573 8.39902Z" fill="#000640"/>
</svg>
