<svg width="24" height="24" viewBox="0 0 24 24" fill="none" xmlns="http://www.w3.org/2000/svg">
<path fill-rule="evenodd" clip-rule="evenodd" d="M1.55106 7.34164C0.553706 5.34694 2.0042 3 4.23434 3H15.8898C16.9241 3 17.8856 3.53286 18.4338 4.41L22.1838 10.41C22.7918 11.3828 22.7918 12.6172 22.1838 13.59L18.4338 19.59C17.8856 20.4671 16.9241 21 15.8898 21H4.23434C2.00419 21 0.553707 18.6531 1.55106 16.6584L3.65663 12.4472C3.79739 12.1657 3.79739 11.8343 3.65663 11.5528L1.55106 7.34164ZM4.23434 5C3.49096 5 3.00746 5.78231 3.33991 6.44721L5.44549 10.6584C5.86778 11.5029 5.86778 12.4971 5.44549 13.3416L3.33991 17.5528C3.00746 18.2177 3.49096 19 4.23434 19H15.8898C16.2346 19 16.555 18.8224 16.7378 18.53L20.4878 12.53C20.6904 12.2057 20.6904 11.7943 20.4878 11.47L16.7378 5.47C16.555 5.17762 16.2346 5 15.8898 5H4.23434Z" fill="#000640"/>
</svg>
