<svg width="24" height="24" viewBox="0 0 24 24" fill="none" xmlns="http://www.w3.org/2000/svg">
<path fill-rule="evenodd" clip-rule="evenodd" d="M1 6C1 4.34315 2.34315 3 4 3H15.8915C16.9259 3 17.8873 3.53286 18.4355 4.41L22.1855 10.41C22.7935 11.3828 22.7935 12.6172 22.1855 13.59L18.4355 19.59C17.8873 20.4671 16.9259 21 15.8915 21H4C2.34315 21 1 19.6569 1 18V6ZM4 5C3.44772 5 3 5.44772 3 6V18C3 18.5523 3.44772 19 4 19H15.8915C16.2363 19 16.5568 18.8224 16.7395 18.53L20.4895 12.53C20.6922 12.2057 20.6922 11.7943 20.4895 11.47L16.7395 5.47C16.5568 5.17762 16.2363 5 15.8915 5H4Z" fill="#000640"/>
</svg>
