<svg width="24" height="24" viewBox="0 0 24 24" fill="none" xmlns="http://www.w3.org/2000/svg">
<path fill-rule="evenodd" clip-rule="evenodd" d="M10 1C9.44772 1 9.00001 1.44772 9.00001 2V4H4.00001C3.44772 4 3.00001 4.44772 3.00001 5C3.00001 5.55228 3.44772 6 4.00001 6H20C20.5523 6 21 5.55228 21 5C21 4.44772 20.5523 4 20 4H15V2C15 1.44772 14.5523 1 14 1H10ZM13 4H11V3H13V4Z" fill="#000640"/>
<path fill-rule="evenodd" clip-rule="evenodd" d="M4.00001 7C3.71012 7 3.43449 7.1258 3.24455 7.3448C3.05462 7.5638 2.96906 7.85444 3.01006 8.14142L4.76475 20.4243C4.97588 21.9022 6.24165 23 7.7346 23H16.2654C17.7584 23 19.0241 21.9022 19.2353 20.4243L20.99 8.14142C21.031 7.85444 20.9454 7.5638 20.7555 7.3448C20.5655 7.1258 20.2899 7 20 7H4.00001ZM6.74465 20.1414L5.15302 9H18.847L17.2554 20.1414C17.185 20.6341 16.7631 21 16.2654 21H7.7346C7.23695 21 6.81503 20.6341 6.74465 20.1414Z" fill="#000640"/>
</svg>
