<svg width="24" height="24" viewBox="0 0 24 24" fill="none" xmlns="http://www.w3.org/2000/svg">
<path d="M6.29289 7.70711C5.90237 7.31658 5.90237 6.68342 6.29289 6.29289L11.2929 1.29289C11.6834 0.902369 12.3166 0.902369 12.7071 1.29289L17.7071 6.29289C18.0976 6.68342 18.0976 7.31658 17.7071 7.70711C17.3166 8.09763 16.6834 8.09763 16.2929 7.70711L13 4.41421L13 16C13 16.5523 12.5523 17 12 17C11.4477 17 11 16.5523 11 16L11 4.41421L7.70711 7.70711C7.31658 8.09763 6.68342 8.09763 6.29289 7.70711Z" fill="#000640"/>
<path d="M2 15C2.55228 15 3 15.4477 3 16V20C3 20.5523 3.44772 21 4 21H20C20.5523 21 21 20.5523 21 20V16C21 15.4477 21.4477 15 22 15C22.5523 15 23 15.4477 23 16V20C23 21.6569 21.6569 23 20 23H4C2.34315 23 1 21.6569 1 20V16C1 15.4477 1.44772 15 2 15Z" fill="#000640"/>
</svg>
