<svg width="24" height="24" viewBox="0 0 24 24" fill="none" xmlns="http://www.w3.org/2000/svg">
<path d="M11 7C11.5523 7 12 7.44772 12 8V10H14C14.5523 10 15 10.4477 15 11C15 11.5523 14.5523 12 14 12H12V14C12 14.5523 11.5523 15 11 15C10.4477 15 10 14.5523 10 14V12H8C7.44772 12 7 11.5523 7 11C7 10.4477 7.44772 10 8 10H10V8C10 7.44772 10.4477 7 11 7Z" fill="#000640"/>
<path fill-rule="evenodd" clip-rule="evenodd" d="M11 21C13.4013 21 15.6048 20.1536 17.3287 18.743L21.2928 22.7071C21.6834 23.0976 22.3165 23.0976 22.7071 22.7071C23.0976 22.3166 23.0976 21.6834 22.7071 21.2929L18.7429 17.3288C20.1536 15.6049 21 13.4013 21 11C21 5.47715 16.5228 1 11 1C5.47715 1 1 5.47715 1 11C1 16.5228 5.47715 21 11 21ZM11 19C15.4183 19 19 15.4183 19 11C19 6.58172 15.4183 3 11 3C6.58172 3 3 6.58172 3 11C3 15.4183 6.58172 19 11 19Z" fill="#000640"/>
</svg>
